<?xml version="1.0" encoding="UTF-8"?>
<svg id="Layer_1" data-name="Layer 1" xmlns="http://www.w3.org/2000/svg" xmlns:xlink="http://www.w3.org/1999/xlink" viewBox="0 0 169.16 294.24">
  <defs>
    <style>
      .cls-1 {
        fill: #80acff;
      }

      .cls-2 {
        fill: #f5f6dd;
      }

      .cls-3 {
        fill: #041063;
      }

      .cls-4 {
        clip-path: url(#clippath-1);
      }

      .cls-5 {
        fill: #63d991;
      }

      .cls-6 {
        fill: #28318c;
      }

      .cls-7 {
        clip-path: url(#clippath);
      }
    </style>
    <clipPath id="clippath">
      <path class="cls-5" d="M141.15,245.48c0,2.67-2.16,4.82-4.84,4.82h-7.92c2.24,0,4.05-1.8,4.05-4.04.01-20.67.04-47.58.02-53.21v-20.38c0-7.12-.24-14.26-.24-21.38-.05-1.96.01-68.73,0-77.97v-20.38c0-1.55-.01-3.1-.04-4.64v-.65c0-.06,0-.12-.01-.18-.11-2.13-1.9-3.81-4.05-3.81h7.94c2.66,0,4.8,2.14,4.84,4.8.01,1.5.02,2.99.02,4.49,0,6.81-.01,13.6,0,20.38.01,9.24-.06,76.01,0,77.97,0,7.12.24,14.26.24,21.38s-.01,13.59,0,20.38c.01,5.55-.02,31.86-.02,52.42Z"/>
    </clipPath>
    <clipPath id="clippath-1">
      <path class="cls-3" d="M132.45,246.26c0,2.24-1.81,4.04-4.05,4.04-9.06,0-15.56.01-16.16.02-7.11,0-14.25.24-21.38.24h-20.36c-4.26.01-20.73-.01-37.44-.02-2.67,0-4.84-2.16-4.84-4.82,0-20.59.04-47.09.02-52.66-.01-6.78,0-13.58,0-20.38s-.24-14.26-.24-21.38c-.06-1.96.01-68.73,0-77.97-.01-6.77,0-13.57,0-20.38,0-1.39-.01-2.78-.02-4.17-.04-2.68,2.15-4.87,4.84-4.87,16.8.01,33.4.04,37.68.02,6.77-.01,13.57,0,20.36,0,3.54,0,7.09-.06,10.63-.12,3.59-.06,7.17-.12,10.75-.12.29-.01,2.04-.01,4.83-.02h11.06c2.15,0,3.94,1.68,4.05,3.81.01.28.01.56.01.83.02,1.55.04,3.1.04,4.64v20.38c.01,9.24-.05,76.01,0,77.97,0,7.12.24,14.26.24,21.38v20.38c.01,5.62-.01,32.54-.02,53.21Z"/>
    </clipPath>
  </defs>
  <g>
    <path class="cls-5" d="M141.15,245.48c0,2.67-2.16,4.82-4.84,4.82h-7.92c2.24,0,4.05-1.8,4.05-4.04.01-20.67.04-47.58.02-53.21v-20.38c0-7.12-.24-14.26-.24-21.38-.05-1.96.01-68.73,0-77.97v-20.38c0-1.55-.01-3.1-.04-4.64v-.65c0-.06,0-.12-.01-.18-.11-2.13-1.9-3.81-4.05-3.81h7.94c2.66,0,4.8,2.14,4.84,4.8.01,1.5.02,2.99.02,4.49,0,6.81-.01,13.6,0,20.38.01,9.24-.06,76.01,0,77.97,0,7.12.24,14.26.24,21.38s-.01,13.59,0,20.38c.01,5.55-.02,31.86-.02,52.42Z"/>
    <g class="cls-7">
      <path class="cls-6" d="M135.43,64.38c-.12.18-.2.37-.22.58-.02.16-.02.33-.03.5-.02.32,0,.65-.01.97,0,.67,0,1.34,0,2,0,1.34.04,2.68.06,4.02.05,2.67.12,5.33.16,8,.01.7.02,1.41.03,2.11,0,.35,0,.69.01,1.04,0,.37-.02.74.08,1.1.14.5.87.5,1.01,0,.09-.33.07-.66.07-1,0-.3,0-.6,0-.9,0-.63,0-1.26-.01-1.88-.01-1.29-.03-2.59-.05-3.88-.04-2.7-.06-5.41-.12-8.11-.02-.74-.03-1.49-.04-2.23,0-.37,0-.74-.01-1.11,0-.17-.03-.35-.04-.52-.02-.25-.09-.46-.23-.66-.16-.25-.51-.25-.67,0h0Z"/>
      <path class="cls-6" d="M135.43,91.14c-.12.18-.2.37-.22.58-.02.16-.02.33-.03.5-.02.32,0,.65-.01.97,0,.67,0,1.34,0,2,0,1.34.04,2.68.06,4.02.05,2.67.12,5.33.16,8,.01.7.02,1.41.03,2.11,0,.35,0,.69.01,1.04,0,.37-.02.74.08,1.1.14.5.87.5,1.01,0,.09-.33.07-.66.07-1,0-.3,0-.6,0-.9,0-.63,0-1.26-.01-1.88-.01-1.29-.03-2.59-.05-3.88-.04-2.7-.06-5.41-.12-8.11-.02-.74-.03-1.49-.04-2.23,0-.37,0-.74-.01-1.11,0-.17-.03-.35-.04-.52-.02-.25-.09-.46-.23-.66-.16-.25-.51-.25-.67,0h0Z"/>
      <path class="cls-6" d="M135.33,115.86l.04-.05c-.07.07-.12.15-.14.24,0,.03-.01.05-.02.08-.02.11-.04.22-.05.33-.01.15,0,.31-.01.47,0,.31,0,.61-.01.92,0,.6,0,1.21.02,1.81.02,1.25.05,2.49.08,3.74,0,.36.02.71.03,1.07,0,.17,0,.34.01.51,0,.25-.02.52.14.73.11.15.25.26.45.26s.35-.1.45-.26c.14-.2.12-.41.12-.63,0-.16,0-.32,0-.49,0-.32,0-.63,0-.95,0-.62-.01-1.23-.01-1.85,0-1.23,0-2.47-.02-3.7,0-.34-.02-.69-.02-1.03,0-.16,0-.33,0-.49,0-.13-.03-.25-.05-.37,0-.03,0-.06-.01-.08-.02-.06-.04-.12-.07-.17-.1-.13-.12-.15-.04-.06-.2-.32-.66-.32-.86,0h0Z"/>
      <path class="cls-6" d="M136.32,214.71c-.07.14-.16.27-.25.4l.07-.09s-.07.09-.11.14c-.01.02-.03.04-.04.06-.03.04-.05.08-.08.11l.07-.09c-.04.05-.08.1-.12.15s-.08.1-.13.14-.09.09-.14.13-.1.08-.14.12c-.03.02-.05.05-.08.07-.01.01-.03.02-.04.03-.04.04-.08.1-.11.14l-.05.12-.02.13.02.13c.02.06.04.12.09.17.02.04.05.07.09.09.03.03.07.05.11.06.04.02.08.03.12.03.07.01.13.01.2,0,.05-.01.1-.04.15-.06.01,0,.03-.01.04-.02.02-.02.05-.03.07-.05.06-.04.11-.08.17-.13.02-.02.04-.04.06-.06.11-.11.2-.23.29-.36.03-.05.06-.09.09-.14s.05-.1.08-.15c.04-.09.08-.17.11-.26.02-.05.03-.11.04-.16.03-.16.05-.32.06-.47v-.09s-.04-.08-.07-.11c-.01-.02-.03-.04-.06-.06-.03-.03-.07-.05-.11-.06h-.09s-.06,0-.09,0c-.04.01-.08.03-.11.06-.04.02-.06.05-.08.09h0Z"/>
      <path class="cls-6" d="M135.93,156.71s.03.05.05.08l-.04-.28c-.04.14,0,.29.1.39,0,0,0,0,.01.01,0,0,.02.02.03.02.02.02.04.03.05.05.02.02.03.03.05.04.04.03.07.06.12.09,0,0,.02,0,.03.01.04.02.09.04.13.06,0,0,.02,0,.02,0,0,0,.01,0,.02,0,0,0,.1.02.14.02.1,0,.16-.02.25-.07.08-.04.1-.07.14-.13.01-.02.03-.03.04-.05.02-.04.04-.08.05-.12,0,0,0,0,0,0,0,0,.02-.12.02-.13,0,0,0,0,0,0,0,0,0,0,0,0,0-.02-.01-.11-.02-.13,0,0,0,0,0,0,0,0,0-.02,0-.03-.02-.05-.04-.1-.06-.15-.02-.03-.04-.06-.06-.09-.03-.06-.07-.1-.12-.13-.05-.04-.1-.07-.16-.08-.06-.02-.13-.02-.19,0-.06,0-.12.02-.18.06l-.1.07c-.06.06-.1.13-.12.21l-.02.13c0,.09.02.16.06.24.02.04.05.07.06.11l-.05-.11s.01.03.01.04l-.02-.13s0,.01,0,.02l.02-.13s-.01.09-.02.13l.02-.13s0,0,0,0l.05-.11s0,0,0,0l.07-.1s0,0,0,0l.1-.07s0,0,0,0l.11-.05s-.01,0-.02,0l.12-.02s-.03,0-.05,0l.12.02s-.03,0-.04,0c0,0-.02,0-.02,0-.05-.01-.1-.01-.14-.02l.12.02s-.07-.01-.11-.02c-.02,0-.04,0-.05-.01,0,0-.02,0-.03,0,0,0,0,0-.01,0-.08-.02-.13-.02-.21,0-.07.02-.13.06-.18.11l.25-.1s-.06,0-.09,0c-.05,0-.11.01-.15.04-.05.03-.08.06-.11.11-.03.05-.04.1-.04.15,0,.05.01.11.04.15h0Z"/>
    </g>
  </g>
  <g>
    <path class="cls-3" d="M132.45,246.26c0,2.24-1.81,4.04-4.05,4.04-9.06,0-15.56.01-16.16.02-7.11,0-14.25.24-21.38.24h-20.36c-4.26.01-20.73-.01-37.44-.02-2.67,0-4.84-2.16-4.84-4.82,0-20.59.04-47.09.02-52.66-.01-6.78,0-13.58,0-20.38s-.24-14.26-.24-21.38c-.06-1.96.01-68.73,0-77.97-.01-6.77,0-13.57,0-20.38,0-1.39-.01-2.78-.02-4.17-.04-2.68,2.15-4.87,4.84-4.87,16.8.01,33.4.04,37.68.02,6.77-.01,13.57,0,20.36,0,3.54,0,7.09-.06,10.63-.12,3.59-.06,7.17-.12,10.75-.12.29-.01,2.04-.01,4.83-.02h11.06c2.15,0,3.94,1.68,4.05,3.81.01.28.01.56.01.83.02,1.55.04,3.1.04,4.64v20.38c.01,9.24-.05,76.01,0,77.97,0,7.12.24,14.26.24,21.38v20.38c.01,5.62-.01,32.54-.02,53.21Z"/>
    <g class="cls-4">
      <path class="cls-2" d="M47.28,93.69c.04-.12.09-.24.13-.36.01-.03.02-.06.03-.09.05-.12-.07.13,0,.02.06-.1.09-.21.13-.32.02-.04.05-.1-.02.06.02-.03.03-.07.04-.1.02-.05.05-.11.07-.16.06-.12.11-.23.17-.35.21-.45.47-.88.77-1.27.02-.02.04-.05.05-.07-.13.18-.05.07-.02.03.04-.04.07-.09.11-.13.08-.1.16-.19.25-.28.16-.18.33-.34.51-.5.08-.08.17-.15.26-.22.03-.02.2-.16.09-.07s.06-.04.09-.07c.2-.15.41-.28.62-.41.2-.12.41-.23.62-.33.1-.05.2-.09.3-.14-.23.1-.04.02.01,0,.06-.02.12-.05.19-.07.44-.16.9-.28,1.37-.35.18-.03-.18.02,0,0,.05,0,.11-.01.16-.02.12-.01.24-.02.36-.02.23,0,.46,0,.69,0,.11,0,.22.02.34.03.05,0,.13.02-.09-.01.03,0,.06,0,.1.01.06.01.13.02.19.03.22.04.44.1.66.17.1.03.21.07.31.11.05.02.1.04.15.06-.24-.09-.02,0,.04.02.22.1.44.22.64.35.1.06.19.12.28.19.05.03.09.07.14.1-.2-.15,0,0,.05.04.19.16.37.33.55.52.09.09.17.19.26.29.04.05.08.1.12.15.06.07-.11-.15-.03-.04.03.04.05.07.08.11.17.23.32.47.46.72.15.27.28.54.41.82.03.07.06.13.09.2-.09-.2,0,.02.03.07.06.15.11.29.17.44.2.56.34,1.14.44,1.72.01.07.02.13.03.2-.04-.24,0,0,0,.05.02.14.03.29.04.44.02.28.02.56.02.84s-.03.55-.06.83c-.01.11,0-.06.01-.07,0,.04-.01.08-.02.11,0,.06-.02.13-.03.19-.02.14-.05.27-.08.41-.06.26-.13.51-.21.76-.04.13-.09.26-.14.39-.02.06-.05.12-.07.17.08-.22-.01.02-.03.07-.22.48-.48.93-.79,1.36-.04.05-.07.1-.11.15-.08.11.1-.13.02-.02-.02.02-.04.05-.06.07-.09.11-.19.22-.29.33-.18.2-.37.39-.57.57-.1.09-.2.17-.3.26-.05.04-.11.08-.15.12.14-.13.05-.04.01-.01-.03.02-.06.05-.1.07-.23.17-.48.33-.73.48s-.52.29-.79.42c-.06.03-.13.06-.19.09-.02,0-.15.06-.04.02s-.02,0-.04.02c-.15.06-.3.12-.45.17-.3.11-.6.2-.9.28-.35.09-.59.49-.48.84s.47.57.84.48c.17-.04.35-.08.53-.12.02,0,.24-.05.25-.04h-.09s.06,0,.09,0c.05,0,.09-.01.14-.01.34-.03.68-.04,1.03-.02.09,0,.17.01.26.02.04,0,.09,0,.13.01.02,0,.16.01.04,0s.02,0,.04,0c.04,0,.09.01.13.02.09.02.17.03.25.05.32.07.64.17.95.28.04.02.08.03.12.05.14.06-.14-.07,0,0,.07.03.14.06.21.1.15.07.29.15.44.23s.28.17.42.26c.07.04.13.09.2.14.04.03.07.05.11.08.13.1.02,0,0,0,.02,0,.18.15.2.17.06.05.12.11.18.16.13.11.25.23.37.35s.24.25.35.38c.05.06.11.13.16.19.03.03.06.07.08.11-.09-.15-.02-.03,0,0,.21.29.41.59.58.9.1.18.2.36.28.54.02.04.04.08.06.13.08.17-.05-.13.02.04.04.1.08.2.11.3.13.38.24.78.28,1.17-.02-.18,0,0,0,.02,0,.05.01.1.01.15,0,.09.01.19.02.28,0,.2,0,.39,0,.59s-.03.39-.05.59c-.01.11.03-.17,0,0,0,.05-.02.1-.02.15-.02.1-.04.2-.06.3-.08.39-.19.78-.32,1.15-.07.19-.14.38-.22.57-.04.1.07-.15,0,0-.02.05-.04.1-.06.15-.04.1-.09.19-.13.29-.18.37-.37.73-.58,1.08-.2.33-.4.65-.62.96-.04.06-.08.11-.13.17-.08.11.1-.13.02-.02-.02.02-.04.05-.05.07-.08.1-.17.21-.26.31-.18.2-.36.38-.56.56-.1.09-.2.17-.3.26-.05.04-.1.08-.15.12.18-.15,0,0-.05.04-.41.3-.85.57-1.32.78-.06.03-.12.06-.18.08-.03.01-.06.03-.09.04-.11.05.14-.05.05-.02-.12.05-.24.09-.35.14-.24.09-.48.16-.72.23s-.49.12-.74.16c-.06.01-.13.02-.19.03-.03,0-.07,0-.1.01-.12.02.15-.02.06,0-.13.01-.25.03-.38.04-.5.04-1,.04-1.5,0-.12-.01-.25-.02-.37-.04-.05,0-.15-.02.07,0-.03,0-.06,0-.1-.01-.06,0-.13-.02-.19-.03-.25-.04-.49-.09-.73-.16s-.48-.13-.71-.22c-.12-.04-.23-.08-.35-.13-.02-.01-.05-.02-.07-.03.2.08.09.04.04.02-.06-.03-.12-.05-.18-.08-.45-.21-.87-.45-1.27-.74-.05-.04-.1-.07-.15-.11-.04-.03-.13-.11.03.03-.02-.02-.04-.03-.06-.05-.1-.08-.19-.16-.28-.24-.18-.16-.36-.33-.53-.52-.08-.09-.17-.18-.24-.28-.04-.05-.07-.09-.11-.14-.08-.1.1.13.02.03-.02-.03-.04-.05-.06-.08-.15-.2-.29-.42-.41-.63s-.24-.45-.35-.69c-.05-.12.06.15.01.03-.01-.03-.03-.06-.04-.1-.02-.06-.05-.12-.07-.18-.05-.13-.09-.25-.13-.38-.08-.26-.21-.52-.26-.79-.05-.29-.43-.49-.7-.4-.31.1-.46.39-.4.7-.03-.19,0,.05,0,.1.01.11.03.23.04.34.02.14.04.28.09.42.09.31.21.61.33.9.21.49.47.96.78,1.39.66.9,1.49,1.66,2.46,2.22,1.93,1.11,4.25,1.43,6.42,1.03s4.32-1.72,5.63-3.62c.96-1.39,1.76-2.98,2.05-4.66.16-.91.18-1.81.03-2.71s-.48-1.72-.93-2.48c-.76-1.29-1.84-2.42-3.15-3.15s-2.81-1.05-4.29-.89c-.4.04-.8.11-1.19.21l.36,1.32c2.45-.63,4.68-2.1,5.97-4.33s1.45-4.69.84-7.05-1.93-4.63-4.18-5.65c-.96-.44-2.01-.65-3.07-.6s-2.12.33-3.09.8-1.8,1.11-2.49,1.89c-.75.84-1.35,1.82-1.64,2.91,0,.03-.02.07-.03.1l-.02.17c.02-.11.02-.13,0-.06-.01.06-.02.12-.03.18-.03.17-.05.34-.07.52-.03.28.24.52.49.55.29.04.53-.13.62-.4h0Z"/>
      <path class="cls-2" d="M112.69,87.52c-.43-.06-.85-.12-1.27-.15-.02,0-.11,0-.02,0,.13,0-.07-.01-.13-.02-.06,0-.11,0-.17,0-.11,0-.22,0-.33,0-.23,0-.46-.01-.69-.02-.95-.03-1.9-.02-2.85-.02-1.59-.01-3.17,0-4.76,0-.32,0-.63,0-.95,0-.35,0-.65.3-.65.65,0,.38,0,.77,0,1.15,0,.95,0,1.9,0,2.84,0,1.21,0,2.41,0,3.62s0,2.32.01,3.48c0,.81.01,1.61.04,2.42,0,.06,0,.12,0,.19.01.24.14.45.37.55.24.1.46.03.65-.12.09-.07-.05.04.04-.03.04-.03.08-.06.12-.09.1-.07.19-.13.29-.2.18-.11.36-.22.55-.32s.39-.2.6-.29c.02-.01.05-.02.07-.03,0,0,.09-.04.02,0s.01,0,.02,0c.03-.01.06-.03.1-.04.1-.04.21-.08.31-.12.41-.15.83-.26,1.26-.35.11-.02.22-.04.33-.06.05,0,.1-.02.15-.02.02,0,.05,0,.08-.01-.05,0-.08.01-.01,0,.22-.03.44-.05.66-.06.43-.02.86-.02,1.29.02.11.01.23.02.34.04-.11-.02-.02,0,.04,0,.06,0,.12.02.17.03.21.04.42.08.63.14.19.05.38.11.57.17.1.03.19.07.28.11.02,0,.15.06.07.03s.07.03.09.04c.35.16.69.34,1.01.55.15.1.29.2.44.31.06.04-.04-.03-.04-.03.01.01.03.03.05.04.04.03.08.06.11.09.07.06.14.12.21.18.26.23.5.48.73.74.06.07.11.13.17.2.03.03.05.06.07.09.04.05-.04-.05-.04-.05.01.02.03.04.05.06.1.14.2.27.29.42.17.26.33.52.47.8.06.12.13.25.18.37.03.06.05.12.08.18,0,.01.01.03.02.04.04.09-.02-.06-.03-.06.01.04.03.07.04.11.1.26.2.52.28.79.17.56.29,1.13.38,1.71.02.13,0-.07,0-.03,0,.03,0,.07.01.1,0,.08.02.16.03.24.01.14.03.29.04.44.02.31.03.61.03.92s-.01.61-.03.91c-.01.15-.02.31-.04.46,0,.07-.01.14-.02.21,0,.04,0,.08-.02.12,0,.02,0,.04,0,.05,0,.08.02-.15,0-.06-.09.61-.21,1.22-.37,1.81-.08.29-.17.58-.27.87-.05.15-.11.29-.16.43-.03.07-.05.13-.08.2,0,.02-.01.03-.02.05,0,0,.06-.14.03-.07-.02.04-.04.09-.06.13-.24.55-.52,1.08-.84,1.58-.08.13-.16.25-.25.37-.04.06-.09.12-.13.18-.02.03-.04.06-.06.08-.01.01-.02.03-.03.04-.05.06.09-.11.04-.05-.18.23-.37.45-.57.66s-.41.42-.64.61c-.11.1-.23.19-.34.28,0,0,.12-.09.06-.05-.01.01-.03.02-.04.03-.03.02-.05.04-.08.06-.06.04-.12.09-.18.13-.24.17-.49.32-.75.46-.13.07-.25.13-.38.19-.07.03-.14.06-.2.09-.04.02.14-.06.03-.01-.04.02-.08.03-.11.04-.28.11-.58.2-.87.28-.15.04-.29.07-.44.1-.1.02-.19.04-.29.05-.05,0-.16.03-.04,0-.06.01-.13.02-.19.02-.44.04-.88.05-1.31.02-.11,0-.21-.02-.32-.03,0,0-.07,0-.07,0,0,0,.12.02.05,0-.06,0-.11-.02-.17-.03-.2-.03-.41-.08-.61-.13s-.39-.11-.58-.17c-.09-.03-.17-.06-.26-.09-.04-.02-.08-.03-.13-.05-.02,0-.04-.02-.06-.03-.08-.03.11.05.03.01-.34-.16-.68-.32-.99-.52-.15-.09-.29-.19-.43-.28-.04-.03-.08-.05-.11-.08-.02-.01-.12-.1-.05-.03s-.03-.02-.04-.04c-.04-.03-.07-.06-.11-.09-.24-.2-.47-.42-.69-.66-.05-.05-.09-.1-.13-.16-.02-.03-.04-.05-.06-.08-.07-.08.08.11.02.02-.08-.11-.16-.22-.23-.33-.17-.27-.56-.4-.84-.22s-.4.55-.22.84c.75,1.22,1.95,2.16,3.25,2.73,1.67.73,3.52.91,5.3.48,1.29-.31,2.46-.95,3.47-1.8s1.75-1.85,2.34-2.96,1.06-2.41,1.31-3.69.35-2.61.25-3.92-.35-2.48-.83-3.63c-.55-1.31-1.37-2.52-2.47-3.44-1.37-1.15-3.04-1.81-4.82-1.93-1.87-.13-3.81.3-5.45,1.22-.41.23-.8.51-1.17.8l1.02.42c-.03-.75-.03-1.49-.03-2.24,0-1.13,0-2.27,0-3.4,0-1.22.02-2.44.03-3.65.01-1,.02-1.99.03-2.99,0-.47.03-.94.02-1.4,0,0,0-.01,0-.02l-.65.65c.9.01,1.81.01,2.71.02,1.83,0,3.67,0,5.5-.02.51,0,1.01-.03,1.52-.06.03,0,.18,0,.19-.02-.09,0-.11.01-.06,0,.02,0,.04,0,.06,0,.06,0,.12-.01.18-.02.11-.01.21-.02.32-.03.25-.02.5-.09.75-.13.17-.03.3-.23.3-.4s-.13-.37-.3-.4h0Z"/>
      <path class="cls-2" d="M79.03,93.69c.03-.08.05-.15.08-.23.02-.04.03-.08.05-.12,0-.02.01-.03.02-.05.02-.06-.06.1-.02.05.08-.09.1-.23.14-.34s-.07.15,0,0c.02-.04.03-.08.05-.11.04-.09.09-.18.13-.27.02-.04.03-.08.05-.12,0,0-.07.17-.03.07.02-.04.03-.08.05-.11.07-.14.14-.29.21-.43.15-.28.32-.54.5-.8.04-.06.09-.12.13-.18s-.06.08-.06.07c.01-.02.03-.04.04-.05.03-.03.05-.06.08-.09.1-.12.2-.24.31-.35.21-.22.43-.44.67-.63.06-.05.11-.09.17-.14.11-.09-.12.09-.02.02.03-.02.06-.05.09-.07.12-.09.25-.18.38-.26.25-.16.51-.32.79-.45.06-.03.13-.06.2-.09.04-.02.07-.03.11-.05.03-.01.16-.07.04-.02s0,0,.04-.01.06-.02.09-.04c.07-.03.14-.05.22-.08.28-.1.57-.18.85-.24.14-.03.29-.06.43-.08.16-.02-.16.02-.04,0,.03,0,.06,0,.1-.01.08,0,.15-.02.23-.02.29-.02.58-.03.87,0,.07,0,.14,0,.21.02.04,0,.07,0,.11.01.03,0,.17.02.03,0s0,0,.03,0,.06.01.1.02c.07.01.15.03.22.04.29.06.57.14.84.25.04.01.07.03.11.04.12.05-.09-.04-.05-.02.07.03.14.06.21.1.13.07.27.14.4.21.14.08.27.17.4.26.06.04.11.08.17.12.09.07-.13-.11-.02-.01.03.03.06.05.09.08.25.21.48.44.69.68.06.07.11.13.17.2.02.03.05.06.07.09,0,0-.09-.13-.05-.07.02.03.04.05.06.08.1.14.2.28.29.42.23.36.43.75.6,1.14.02.05.04.1.06.14,0,0,.03.07.03.07,0,0-.06-.16-.01-.02.04.11.09.22.13.33.08.21.15.42.21.63.12.4.21.82.27,1.23,0,.02,0,.05,0,.07,0,0-.02-.15-.01-.07,0,.05.01.1.02.16.01.1.02.21.03.31.01.2.02.39.02.59s0,.39-.02.58c0,.09-.01.19-.02.28,0,.04,0,.09-.01.13,0,.02,0,.04,0,.06-.02.13.02-.12,0-.04-.12.77-.32,1.51-.59,2.24-.03.09-.07.18-.1.26-.02.04-.03.08-.05.12,0,0,.06-.13.03-.06-.01.03-.03.07-.04.1-.08.18-.16.36-.25.54-.17.36-.36.72-.56,1.07-.41.72-.85,1.42-1.31,2.11-.94,1.41-1.95,2.78-2.86,4.21-1.14,1.78-2.18,3.62-3.19,5.47s-2.03,3.83-2.98,5.78c-.23.47-.46.95-.68,1.42s.05.98.58,1.01c1.87.13,3.75.07,5.62,0,2.04-.09,4.07-.21,6.11-.27.56-.02,1.12-.02,1.69-.02.27,0,.54,0,.81,0,.13,0,.26,0,.39-.01.07,0,.14,0,.2-.01.03,0,.05,0,.08,0,.04,0,.09,0,.13-.01.09-.02.1-.01.02,0,.3.01.58-.27.57-.57-.01-.32-.25-.56-.57-.57.12,0-.03,0-.07-.01-.06,0-.12-.02-.17-.03-.16-.02-.31-.05-.47-.06-.24-.01-.49-.01-.73-.02-.5,0-.99,0-1.49,0-1.01.01-2.02.04-3.04.09-2,.09-4.01.21-6.01.23-1.02.01-2.04,0-3.06-.07l.58,1.01c.95-2.01,1.95-3.99,3-5.95s2.15-3.9,3.3-5.8c.92-1.51,1.95-2.95,2.95-4.41s1.89-2.81,2.58-4.35,1.13-3.19,1.05-4.89c-.04-.9-.22-1.81-.51-2.66s-.68-1.7-1.2-2.45c-.83-1.2-1.96-2.13-3.35-2.62-1.23-.43-2.58-.45-3.84-.16s-2.51.95-3.51,1.82c-.52.45-.97.97-1.35,1.53s-.73,1.21-.92,1.88c-.02.08-.04.15-.06.23-.01.04-.02.08-.03.12,0,0-.05.28-.01.12.02-.1,0-.03,0-.01-.03.21-.06.42-.08.63-.03.28.23.52.49.55.29.04.52-.14.62-.4h0Z"/>
      <path class="cls-2" d="M70.03,99.01s0-.05,0-.08l-.07.13s.09-.06.12-.11c.02-.04.04-.09.04-.14v.07s.01-.07.02-.11l-.09.15c.07-.06.1-.17.1-.26,0-.01,0-.03,0-.04,0-.03,0-.05,0-.08v.1s0-.08,0-.11c0,0,0-.01,0-.02,0-.01,0-.02,0-.03,0-.02,0-.04,0-.06v.1c0-.1.03-.19.06-.28l-.04.1c.04-.09.09-.17.14-.24l-.07.09c.06-.08.13-.14.2-.2l-.1.08c.06-.04.12-.08.18-.11s.12-.07.19-.1l-.12.05c.1-.04.2-.07.31-.09l-.14.02c.11-.01.21-.01.32,0l-.14-.02c.11.01.22.04.32.09l-.13-.05c.11.05.21.11.31.18l-.11-.08c.11.09.22.19.3.3l-.08-.11c.07.09.13.2.18.3l-.05-.13c.05.13.09.26.11.4l-.02-.14c.02.16.02.32,0,.48l.02-.14c-.02.16-.06.32-.13.47l.05-.12c-.05.12-.11.23-.19.33l.08-.1c-.06.08-.13.14-.2.2l.1-.08c-.06.05-.13.09-.2.12l.12-.05c-.07.03-.13.05-.21.06l.14-.02c-.07,0-.15,0-.22,0l.13.02c-.09-.01-.17-.04-.26-.07l.12.05c-.07-.03-.15-.07-.22-.09l.12.05h0c-.12-.07-.25-.09-.38-.05-.06.02-.12.04-.17.09-.05.03-.1.08-.13.14-.06.12-.09.25-.05.38.04.12.11.23.23.3h0s-.07-.05-.1-.07c.05.04.11.09.17.12s.13.06.2.08c.05.02.1.03.15.05.09.02.19.03.28.04.07,0,.14,0,.21-.02s.13-.02.2-.04c.08-.03.17-.06.25-.1.04-.02.08-.05.12-.07.07-.05.14-.11.21-.17.04-.03.07-.07.1-.11.06-.07.12-.14.17-.22.08-.12.14-.26.2-.39.04-.1.07-.2.1-.31.03-.15.05-.31.06-.47s-.01-.31-.04-.47c-.02-.11-.04-.22-.08-.32-.06-.15-.12-.29-.21-.42-.1-.14-.21-.28-.35-.39s-.27-.22-.43-.29c-.15-.07-.3-.13-.46-.15s-.31-.04-.47-.02c-.1.01-.2.02-.29.05-.07.02-.14.05-.21.08s-.14.06-.2.1c-.08.05-.16.11-.23.17-.04.04-.07.08-.11.12-.06.07-.12.14-.16.22-.03.05-.05.09-.07.14-.04.08-.07.17-.1.25s-.03.18-.04.27c0,.05,0,.11,0,.17,0,.09.02.18.03.27v-.1c0,.08,0,.13.04.2l-.04-.09c.02.07.05.14.08.2l-.03-.08c.03.12.13.21.24.25l-.15-.09s.05.05.08.08l-.04-.05h0c.05.08.14.15.23.14h.04s-.07-.03-.1-.05c.02.02.04.04.06.06.03.03.08.04.13.02.04-.02.08-.06.07-.11h0Z"/>
      <path class="cls-2" d="M70.09,110.54s0-.02,0-.03l-.02.17.02-.03c.06-.08.06-.25,0-.33,0,0,0-.02-.01-.03l.03.08c-.03-.06-.04-.13-.05-.2v.1c0-.1,0-.21.02-.31l-.02.12s0-.05.01-.07c.01-.07.02-.12.03-.19l-.02.13c.02-.12.06-.25.1-.36l-.05.12c.07-.16.16-.31.27-.45l-.08.11c.11-.14.23-.27.37-.37l-.11.08c.1-.08.22-.15.34-.2l-.13.05c.11-.04.22-.08.33-.09l-.14.02c.1-.01.21-.01.32,0l-.14-.02c.13.02.26.06.39.11l-.13-.05c.12.05.23.11.33.19l-.11-.08c.09.07.17.15.23.23l-.08-.11c.07.09.13.19.17.29l-.05-.13s.04.1.06.15l-.05-.13c.05.12.08.24.1.37l-.02-.14c.02.15.02.31,0,.46l.02-.14c-.02.17-.07.33-.13.48l.05-.12c-.06.15-.14.29-.24.42l.08-.1c-.09.12-.19.22-.31.31l.1-.08c-.11.08-.22.15-.35.2l.12-.05c-.08.03-.17.06-.25.08-.12.03-.24.12-.3.23s-.09.26-.05.38.11.24.23.3l.12.05c.09.02.18.02.26,0,.14-.03.27-.08.41-.14.09-.04.18-.09.27-.15.12-.08.23-.17.33-.27s.19-.21.27-.33c.14-.2.25-.42.32-.65.03-.09.06-.19.07-.29.02-.14.04-.28.04-.42,0-.52-.19-1.04-.57-1.39-.23-.21-.49-.36-.79-.45-.31-.1-.64-.11-.95-.05-.15.03-.3.09-.43.16s-.26.16-.38.26c-.09.07-.17.15-.24.24-.1.12-.19.24-.27.38-.05.08-.09.17-.12.26l.05-.12c-.06.14-.12.28-.15.42-.02.09-.03.18-.04.27,0,.03,0,.05,0,.08,0,.07,0,.12.02.2l-.02-.13c.02.19.05.38.15.55.04.08.1.14.15.21.02.02.04.04.06.06.02.02.05.04.07.06l.07.05s.08.04.12.04c.07,0,.15,0,.21-.04h.02s-.07,0-.11.02c0,0,.02,0,.03,0,.13,0,.21-.13.18-.24h0Z"/>
      <path class="cls-2" d="M108.62,49.98s0,0,0,0v-.1c0,.07,0,.14-.02.21,0,.02,0,.04,0,.06,0,.01,0,.02,0,.03,0,0,0,0,0,0,0,.01-.02.12-.02.13,0,0,0,0,0,0,0,0,0,.01,0,.02,0,.04,0,.09,0,.13,0,.08,0,.16.02.23,0,.06.02.12.02.19,0,.01,0,.03,0,.04,0,0,0,.01,0,.02,0,0,0,0,0,0,0,0,0,0,0,0,0,0,.05.13.05.13,0,0,0,0,0,0,.03.05.06.09.1.13.03.04.08.07.12.09,0,0,0,0,0,0,0,0,0,0,0,0h0s.04.02.06.03l.06.03s0,0,0,0c0,0,0,0,0,0,0,0,0,0,0,0,0,0,.14.02.14.02.05,0,.11,0,.15-.02,0,0,0,0,0,0,0,0,.13-.05.13-.05,0,0,0,0,0,0,.02-.01.14-.11.06-.04l.05-.04s0,0,0,0c0,0,0,0,0,0,0,0,0,0,0,0,0,0,.08-.1.09-.11,0,0,0,0,0,0,0,0,0,0,0,0,0,0,0,0,0,0,0,0,0,0,0,0,.02-.04.04-.09.06-.13,0,0,0-.01,0-.02,0,0,0-.01,0-.02l.02-.14c0-.07-.01-.14-.05-.21-.01-.05-.04-.08-.07-.12-.04-.06-.09-.1-.15-.14h0c.08.14.17.28.25.43,0-.09,0-.18-.01-.27,0-.06-.01-.12-.04-.17-.02-.06-.05-.1-.09-.14l-.09-.07c-.05-.03-.11-.05-.17-.05-.04-.01-.08-.01-.12,0-.06,0-.12.02-.17.05l-.09.07c-.06.06-.09.12-.12.2-.02.08-.05.16-.08.23l.05-.12s0,.01,0,.02l.43-.25h0s-.09.01-.14.02c-.07.02-.13.05-.18.1-.04.02-.07.06-.1.1-.05.05-.08.11-.1.18h0s.04-.08.05-.13c-.02.05-.04.09-.06.14l.05-.13s0,.02-.02.03l.08-.11s0,0,0,0l.11-.08s0,0,0,0l.13-.05s0,0,0,0l.14-.02s0,0,0,0l.14.02s0,0,0,0l.13.05s0,0,0,0l.11.08s0,0,0,0l.08.11s0-.01-.01-.02l.05.13c-.02-.05-.04-.1-.07-.15,0-.01,0-.02-.01-.03l.05.13c-.04-.09-.06-.18-.09-.28,0-.03-.02-.06-.02-.08,0-.01,0-.03-.01-.04,0,0,0-.01,0-.02-.01-.05-.04-.09-.06-.13-.02-.05-.04-.1-.06-.15-.02-.05-.04-.09-.06-.14l-.06-.08s-.08-.07-.13-.08c-.03-.02-.06-.03-.1-.03-.05-.01-.1,0-.16,0l-.09.04-.08.06s-.07.08-.08.13c-.02.05-.04.1-.03.15h0Z"/>
      <path class="cls-2" d="M111.31,49.61c-.02.07-.05.13-.06.2,0,.02,0,.03-.01.05,0,0,0,.02,0,.02,0,0,0,0,0,.01,0,.03,0,.06-.01.08,0,.03,0,.05-.01.08,0,.03,0,.07,0,.1,0,.11.02.23.03.34,0,.06.02.12.04.18,0,0,0,.02,0,.02,0,0,0,0,0,.01,0,0,0,0,0,0l.06.14s0,0,0,0c0,.01.02.03.03.04.04.05.08.1.12.15,0,0,0,.01.01.02,0,0,0,0,0,0l.06.04s.08.06.13.07c.04.03.09.04.14.04.03,0,.05,0,.08.01l.15-.02c.07-.02.14-.05.19-.1.04-.03.08-.06.1-.1.05-.06.08-.12.1-.19.04-.15.02-.31-.06-.44,0,0,0,0,0-.01,0,0,0-.01-.01-.02,0-.02-.02-.03-.02-.05l.06.14c-.02-.06-.04-.11-.07-.17,0-.01-.01-.02-.02-.03-.01-.02-.02-.04-.03-.07l.06.14c-.04-.1-.07-.21-.08-.31l.02.15s0-.05,0-.08c0-.07-.02-.15-.03-.22l.02.14c-.01-.08-.02-.15-.02-.23,0-.07-.01-.13-.04-.19-.02-.06-.05-.11-.1-.16l-.1-.08c-.06-.04-.12-.06-.18-.06-.04-.01-.09-.01-.13,0-.07,0-.13.02-.18.06l-.1.08c-.06.06-.1.13-.13.22h0Z"/>
      <path class="cls-2" d="M114.03,49.74s0,.08,0,.12l.02-.12h0s.03-.07.05-.11c0,0,0,0,0,0l-.05.12s-.01.04-.01.07c-.01.04-.01.09,0,.13,0,.02,0,.05,0,.07,0,0,0,.01,0,.02l-.02-.13s.01.08.02.13c0,.07.01.13.03.2,0,.02,0,.05.01.07.02.09.03.18.04.27l-.02-.15c.01.08.02.16.03.24,0,.09.01.18.03.27,0,.04.02.08.03.12.02.08.05.14.11.2.04.06.1.11.17.15l.14.06c.08.02.16.03.24.01.05,0,.1-.01.15-.04.07-.02.14-.06.19-.12l.09-.12c.05-.09.08-.19.08-.3,0-.04,0-.07,0-.11,0-.07-.01-.14-.03-.2,0-.02,0-.04-.01-.05-.02-.07-.04-.14-.06-.21s-.05-.14-.07-.2c-.01-.03-.03-.07-.04-.1,0-.02-.01-.03-.02-.05,0,0,0-.02-.01-.03,0,0,0,0,0-.01l-.05-.13s0,0,0,0c-.02-.03-.04-.07-.06-.1,0-.02-.02-.03-.03-.05,0,0,0,0,0-.01,0,0,0,0,0,0-.03-.06-.07-.1-.13-.14-.06-.05-.04-.03-.11-.06-.02,0-.04-.02-.07-.03l.11.05h0s.06.05.09.07c-.02-.03-.05-.06-.08-.09l-.09-.07-.1-.04-.11-.02c-.06,0-.11.01-.16.04-.04.01-.07.03-.09.05-.03.02-.06.04-.08.08-.03.03-.04.06-.05.09-.03.05-.04.11-.04.16h0Z"/>
      <path class="cls-2" d="M118.17,49.37c-.13.11-.14.3-.15.45,0,.1-.01.19,0,.29s0,.19.01.28c0,.14.03.27.05.4.02.07.05.12.09.17.04.06.08.1.14.13l.12.05c.09.02.18.02.27,0,.17-.03.33-.1.49-.18.13-.06.25-.13.36-.21.28-.18.53-.39.78-.61l-.87-.23c.05.12.1.24.16.35.06.1.13.19.21.28.07.08.16.14.25.21s.18.1.28.14c.05.02.11.04.17.04.1.02.21.03.31.02s.21-.02.31-.05.2-.07.29-.12c.07-.04.13-.08.19-.12.06-.05.13-.1.19-.15s.1-.13.14-.2l.05-.12c.02-.07.02-.13,0-.2,0-.04-.01-.09-.03-.13-.02-.06-.05-.11-.1-.16-.06-.06-.14-.1-.22-.13-.12-.04-.27-.01-.38.05-.02,0-.04.02-.05.03-.05.03-.1.07-.14.11-.03.03-.06.05-.09.08l.11-.08c-.08.06-.17.12-.27.16l.13-.05c-.07.03-.15.05-.23.07l.14-.02c-.07,0-.13,0-.2,0l.14.02c-.06,0-.12-.02-.18-.05l.13.05c-.06-.03-.12-.06-.17-.1l.11.08c-.06-.05-.12-.1-.16-.17l.08.11c-.08-.1-.13-.21-.18-.32l.05.12h0c-.02-.1-.07-.18-.13-.24-.07-.06-.14-.11-.23-.13-.19-.05-.37,0-.51.13s-.28.24-.42.36l.11-.08c-.22.17-.45.32-.71.43l.12-.05c-.09.04-.18.07-.27.1l.63.36c-.04-.12-.08-.23-.13-.34-.03-.08-.07-.15-.1-.23l.04.1c-.04-.1-.08-.2-.11-.3-.01-.05-.03-.09-.04-.14,0-.03,0-.05-.01-.08-.02-.07-.06-.13-.11-.18-.05-.05-.14-.09-.21-.09h-.08c-.05.03-.1.05-.13.09h0Z"/>
      <path class="cls-2" d="M123.41,49.65c-.02.11-.04.23-.05.35,0,.08,0,.16,0,.23.01.11.03.22.07.33.04.1.08.2.13.29.04.06.09.12.14.18s.11.1.17.15c.02.02.05.03.08.05.07.03.14.06.21.09.03,0,.06.01.09.02.08.01.16.03.24.03.01,0,.03,0,.04,0,.07,0,.14-.02.2-.03.03,0,.06-.01.1-.02.08-.03.17-.07.25-.11.04-.02.08-.05.11-.07.13-.09.24-.19.35-.31l-.99-.26s0,.03.01.04c0,0,0,.01,0,.02,0,0,0,0,0,0l.06.14s.02.03.03.05c.03.04.07.1.11.14,0,0,0,0,.01.01,0,0,0,0,0,0l.11.09s.09.04.14.06l-.25-.15h0s.08.06.11.09l.14.06.15.02c.08,0,.15-.01.22-.05.05-.01.09-.04.12-.07.04-.03.08-.06.1-.1.04-.04.06-.08.07-.12.04-.07.05-.14.05-.22,0-.03,0-.06-.01-.09,0-.06-.02-.12-.05-.17-.03-.05-.06-.09-.1-.14l.15.25s-.05-.12-.06-.14c0,0,0,0,0,0l.06.14s-.01-.04-.02-.06c0-.02,0-.03,0-.05,0-.02-.02-.04-.02-.06-.03-.1-.08-.19-.15-.26-.07-.07-.16-.12-.26-.15-.11-.03-.21-.03-.32,0-.1.03-.19.08-.26.15-.07.08-.14.15-.22.21l.12-.09c-.07.05-.14.1-.21.13l.14-.06c-.06.03-.12.05-.18.08l.14-.06c-.05.02-.11.04-.16.05l.15-.02s-.1,0-.15,0l.15.02s-.09-.02-.13-.04l.13.06s-.02,0-.03-.01c-.05-.03-.11-.05-.16-.07l.13.06c-.05-.02-.1-.05-.15-.09l.11.08c-.06-.05-.11-.1-.16-.16l.08.1c-.04-.05-.08-.11-.11-.17-.04-.06-.07-.12-.1-.19l.04.09c-.03-.07-.06-.15-.08-.23l-.03-.08s-.05-.07-.09-.09c-.02-.02-.05-.04-.07-.04-.04-.02-.08-.03-.13-.03h-.09s-.05.03-.08.05c-.04.02-.07.05-.09.09-.03.03-.05.07-.06.11h0Z"/>
      <path class="cls-2" d="M35.41,51.24s.01.02.02.03c0,0,0,0,0,.01,0,0,0,0,0,0,.01.02.02.03.04.05.05.06.02.04.09.09.03.02.06.04.09.06.01,0,.03.02.04.03.06.04.13.09.19.13.07.04.15.09.22.14.04.02.08.04.12.06,0,0,0,0,0,0,0,0,.14.06.15.06,0,0,.01,0,.02,0,.01,0,.02,0,.03,0,.07.02.15.03.22.03.02,0,.04,0,.06,0,0,0,0,0,.01,0,0,0,0,0,0,0h.07c.05-.01.1-.02.14-.05.04-.02.05-.02.08-.04.05-.03.1-.07.14-.11,0,0,0,0,0,0,0,0,0,0,0,0,.07-.08.05-.06.08-.13.01-.03.02-.03.02-.05,0,0,0,0,0,0,0,0,0,0,0,0,0-.02,0-.05,0-.06,0-.01,0-.05,0-.07,0,0,0-.02,0-.03,0,0,0,0,0,0,0,0,0,0,0,0,0,0-.02-.15-.02-.15l-.03-.07c-.02-.07-.06-.13-.12-.18,0,0,0,0,0,0,0,0,0,0-.01-.01-.01-.01-.03-.03-.04-.04,0,0,0,0,0,0h0s-.08-.07-.12-.1c0,0,0,0,0,0,0,0-.02-.01-.03-.02,0,0-.02-.01-.03-.02,0,0,0,0-.01,0,0,0-.14-.06-.15-.06,0,0,0,0-.01,0-.02,0-.04-.01-.06-.02-.08-.02-.17-.04-.26-.05s-.18-.03-.26-.04c-.04,0-.08,0-.11,0-.03,0-.07,0-.1,0-.02,0-.03,0-.05,0,0,0-.12.02-.13.02,0,0,0,0,0,0,0,0,0,0,0,0,0,0-.01,0-.02,0-.01,0-.02,0-.03.01-.07.02-.13.06-.18.11-.04.04-.07.08-.09.13-.03.05-.04.1-.04.16,0,.08.02.15.06.21h0Z"/>
      <path class="cls-2" d="M39.02,50.57s-.01.05-.02.07l.05-.11s0,.01,0,.02c-.03.04-.04.08-.06.14,0,.01-.01.03-.02.04l.05-.12c-.03.06-.06.12-.08.19,0,0,0,.01,0,.02,0,0,0,0,0,0,0,.02-.02.13-.02.15,0,.06.01.13.02.18,0,.01,0,.02,0,.04.02.05.04.1.06.15,0,0,0,.02.01.02,0,.02.02.03.03.04.04.06.08.11.13.17.07.07.16.12.26.15.1.03.21.03.31,0,.03-.01.06-.02.09-.03.08-.03.15-.06.23-.09l-.15.06c.14-.06.28-.1.43-.15s.3-.08.45-.1l-.17.02c.18-.02.36-.03.54,0l-.17-.02c.08.01.16.03.24.03.03,0,.05,0,.08,0,.03,0,.05,0,.08,0,.03,0,.06,0,.08,0l.15-.02.14-.06.12-.09c.06-.05.1-.11.12-.19.03-.05.04-.09.04-.15.01-.05.01-.1,0-.15,0-.05-.01-.1-.04-.15-.02-.07-.06-.13-.12-.19-.04-.04-.08-.07-.12-.1-.04-.03-.05-.04-.08-.06-.04-.02-.11-.05-.16-.07-.02,0-.03-.01-.05-.02-.03-.01-.06-.02-.09-.03-.08-.02-.17-.03-.26-.03-.13-.01-.26-.01-.39,0-.18.02-.37.05-.55.09s-.35.12-.52.19c-.07.03-.13.06-.2.1s-.12.08-.18.12h.59s-.04-.03-.06-.04l.12.09s-.04-.03-.06-.05l.09.11s-.02-.03-.03-.04l.06.13c-.02-.06-.05-.11-.07-.17l.05.13s-.02-.05-.02-.07c0-.01,0-.02-.01-.04,0,0,0,0,0,0-.01-.03-.03-.09-.05-.12-.01-.03-.06-.08-.08-.11,0,0,0,0,0,0l.08.1s-.06-.08-.08-.11l.08.1c-.04-.05-.08-.11-.13-.15-.05-.05-.12-.09-.19-.11-.08-.02-.15-.02-.23,0-.14.04-.27.16-.3.3h0Z"/>
      <path class="cls-2" d="M49.39,131.43c-.07.05-.11.13-.13.21,0,.03-.02.05-.02.08-.03.09-.03.2-.04.29-.02.15-.03.3-.04.45-.01.17-.03.33-.04.5s-.02.32-.03.49c0,.08-.01.16-.01.24,0,.02,0,.04,0,.06,0,.12.02.24.08.34.06.1.14.16.23.23,0,0,.01.01.02.02.08.05.17.07.26.07.09,0,.18-.02.26-.07,0,0,.02-.01.03-.02,0,0,0,0,0,0,0,0,.12-.09.12-.09.02-.02.08-.1.1-.13l.03-.07s.04-.1.04-.15c0-.06.01-.06.01-.09,0,0,0-.01,0-.02,0-.06,0-.11,0-.17-.01-.12-.03-.25-.04-.37s-.02-.25-.04-.37l.02.15c-.05-.37-.1-.74-.13-1.11,0-.08-.02-.14-.04-.22-.01-.05-.02-.09-.05-.14-.02-.04-.05-.07-.08-.1-.06-.06-.16-.11-.25-.1h-.09c-.06.03-.11.06-.16.1h0Z"/>
      <path class="cls-2" d="M49.12,131.14s-.01.07-.01.1l.13-.22s-.07.05-.09.08c-.02.02-.03.04-.04.07-.02.04-.03.08-.03.12,0,0,0,0,0,.01,0,0,0,.02,0,.03,0,.02,0,.04,0,.05l.11-.26h0c-.05.06-.09.12-.1.19-.02.07-.02.14,0,.22.01.02.02.05.02.08.02.06.05.12.08.18s.06.11.09.16c.07.12.14.23.22.34.1.14.21.28.33.41.04.04.09.09.14.13.08.07.16.13.24.18.02.02.05.03.08.04.01,0,.02.01.04.02.05.02.1.04.15.06s.11.02.16.02c.12.01.24-.02.34-.08.05-.03.1-.07.15-.11.06-.06.1-.13.13-.22.02-.07.02-.13,0-.2,0-.07-.02-.13-.06-.18-.04-.07-.1-.13-.18-.18,0,0,0,0-.01,0l.1.08s-.02-.01-.02-.02c0,0,0,0-.01-.01-.08-.08-.14-.1-.25-.14,0,0,0,0-.01,0l.13.06s-.02-.01-.04-.02c-.07-.04-.11-.05-.17-.07-.03,0-.06-.02-.09-.03l.13.06c-.13-.06-.25-.14-.36-.22l.1.08c-.2-.15-.38-.33-.54-.52-.04-.05-.08-.1-.12-.15l.07.09s-.07-.1-.12-.15c-.02-.02-.04-.04-.05-.05l.06.08h0s-.04-.06-.06-.09c-.04-.04-.08-.07-.13-.08-.03-.02-.07-.03-.1-.03-.05-.01-.11,0-.16,0h0c.09.01.19.03.28.04-.01,0-.03-.02-.04-.03,0,0-.01,0-.02-.01,0,0,0,0,0,0-.01,0-.06-.03-.08-.03-.04-.01-.08-.02-.13,0-.02,0-.03,0-.05,0l.2.03s-.01-.01-.02-.02l.05.04s0,0,0,0c-.03-.03-.06-.05-.1-.06-.04-.01-.08-.01-.12,0-.04.01-.07.03-.1.06-.03.03-.05.06-.06.1h0Z"/>
      <path class="cls-2" d="M52.34,130.4c-.08,0-.19.01-.25.06s-.14.1-.21.16c-.03.02-.05.04-.08.07s-.05.05-.07.08c-.07.08-.13.16-.19.24-.18.23-.34.48-.49.73-.04.06-.06.13-.09.2,0,0,0,.02-.01.03-.01.03-.04.08-.05.12-.01.04-.01.09-.02.13,0,.02,0,.03,0,.05,0,.03,0,.06,0,.09l.02-.11c-.01.07-.02.11-.02.18,0,.02,0,.04,0,.06v.1s.04.06.05.09l.06.08s.07.06.12.08c.03.02.06.03.09.03.03,0,.07,0,.1,0,.03,0,.07,0,.09-.03.05-.02.09-.04.12-.08.05-.04.09-.08.13-.12.05-.05.11-.11.14-.17.02-.04.04-.07.05-.11.04-.07.07-.15.1-.22.01-.04.03-.09.04-.13.03-.09.06-.18.09-.26.04-.1.08-.2.12-.3l-.04.09c.03-.08.07-.16.11-.24.02-.04.04-.07.06-.11.03-.06.05-.12.08-.19l-.03.08c.03-.07.06-.13.09-.19.02-.03.04-.06.04-.1,0-.01,0-.03,0-.04,0-.04.01-.08.01-.12,0-.04-.02-.09-.05-.12-.03-.03-.07-.05-.12-.05h0Z"/>
      <path class="cls-2" d="M52.09,130.86s-.09.03-.13.05c-.02,0-.03.02-.05.03l.32-.04h0s-.08-.01-.12-.02c-.06,0-.12.01-.17.04-.04.01-.07.03-.1.06-.05.03-.08.07-.11.12h0s.05-.06.07-.08c-.04.05-.09.1-.12.15-.03.06-.06.13-.08.19-.01.03-.02.07-.02.1-.01.08-.02.16-.03.24-.02.17-.01.35,0,.52,0,.18.02.37.05.55.03.21.05.42.09.63.02.12.04.23.12.33,0,0,0,.01.01.02.03.04.06.08.09.12.03.04.07.07.12.09l.14.06s.01,0,.02,0c.05,0,.1.02.15.02.14,0,.27-.05.37-.15,0,0,0,0,0,0s0,0,0,0c0,0,0,0,0,0,.07-.07.12-.15.15-.25,0-.05.02-.1.02-.15l-.02.15c.03-.11.04-.28,0-.39-.01-.03-.02-.07-.03-.1-.03-.08-.05-.16-.07-.24-.05-.2-.1-.39-.14-.59-.02-.12-.04-.23-.06-.35l.02.14c-.03-.21-.04-.41-.03-.62,0-.02,0-.04,0-.07,0-.02,0-.04,0-.06l-.02.12h0s.01-.08.02-.12c0-.06-.01-.12-.04-.17-.01-.04-.03-.07-.06-.1-.03-.05-.07-.08-.12-.11h0c.07.12.13.23.2.35,0-.02,0-.03,0-.05v.1s0-.03,0-.05l-.04.08h0s.02-.06.04-.09v-.09c.01-.08-.02-.15-.06-.21-.02-.03-.04-.05-.06-.06-.02-.02-.05-.04-.08-.05-.03-.02-.06-.02-.09-.02-.05-.01-.09,0-.14,0h0Z"/>
      <path class="cls-2" d="M53.9,130.86c-.05.08-.1.16-.11.25-.02.1-.03.21-.04.31-.02.14-.03.29-.02.43,0,.33.04.65.09.98,0,.06.02.12.03.18,0,.03,0,.06.02.08,0,.01,0,.03,0,.04,0,0,0,.01,0,.02,0,.03.03.08.03.08.01.03.02.06.03.08,0,.02.02.04.03.06,0,0,.09.12.09.12,0,0,.12.09.12.09s.14.06.14.06c0,0,.16.02.16.02,0,0,0,0,.01,0,.11-.01.18-.02.28-.08,0,0,0,0,0,0,0,0,0,0,0,0l.12-.09.09-.12s.06-.14.06-.14c0,0,.02-.15.02-.16,0-.04-.02-.13-.02-.16,0,0,0,0,0-.01,0-.02,0-.05-.01-.07,0-.03-.02-.05-.03-.07-.02-.05-.04-.11-.06-.17-.04-.13-.08-.25-.11-.38-.04-.14-.07-.28-.1-.42s-.05-.28-.07-.42c0-.03-.01-.07-.01-.1l.02.12c0-.06-.01-.12-.02-.18,0-.05,0-.1-.02-.15,0-.01,0-.02-.01-.04,0-.02-.02-.05-.03-.08-.02-.06-.05-.12-.1-.17l-.08-.06s-.09-.04-.14-.04c-.03,0-.07,0-.1,0-.03,0-.07,0-.09.03-.03,0-.06.02-.08.05-.04.03-.07.06-.1.11h0Z"/>
      <path class="cls-2" d="M56.53,130.77s-.05.08-.08.11c-.04.06-.07.13-.09.2-.03.09-.05.19-.06.28-.04.23-.06.46-.09.7-.03.36-.04.71-.06,1.07,0,0,0,.01,0,.02,0,.03.02.14.02.17,0,0,0,0,0,0,0,.01,0,.02,0,.03,0,.02,0,.03.01.05,0,0,.06.14.06.15,0,.02.08.11.1.13,0,0,0,0,0,0,0,0,0,0,.01.01.02.02.11.08.12.1,0,0,0,0,0,0,.02,0,.13.06.15.06s.14.02.16.02l-.16-.02c.32.09.65-.11.73-.42.02-.07.03-.13.02-.2l-.02-.13c-.02-.07-.05-.12-.09-.17-.02-.04-.05-.07-.09-.09-.05-.04-.11-.08-.17-.09-.01,0-.03,0-.04,0l.13.06s0,0,0,0l.12.09s0,0,0,0l.09.12s0,0,0,0l.06.14s0,0,0,0l.02.16c-.02-.18,0-.11-.05-.23-.01-.05-.04-.09-.08-.13-.01-.02-.03-.04-.05-.06l.15.26s0,0,0,0l.02.16s0,0,0-.01l-.02.16c.01-.07.03-.13.03-.2,0-.02,0-.04,0-.07,0,0,0,0,0,0,0-.03-.02-.14-.02-.17,0,0,0-.01,0-.02,0-.02,0-.03-.01-.05,0-.04-.02-.07-.03-.11-.06-.23-.13-.46-.18-.69-.03-.14-.06-.27-.08-.41l.02.11c-.02-.16-.03-.32-.04-.48,0-.09,0-.18-.02-.27-.01-.08-.04-.16-.06-.25-.02-.09-.11-.16-.2-.17-.1-.01-.18.03-.24.12h0Z"/>
      <path class="cls-2" d="M59.09,131.11c-.02.06-.04.13-.06.19,0,.03-.02.06-.03.1-.01.07-.02.14-.03.2-.02.14-.03.28-.04.41-.02.27-.03.54-.02.82,0,.07,0,.15,0,.22s0,.15,0,.23l.02-.17c-.01.08-.04.05-.03.2l.02.17h0s0,.03,0,.04c.05.22.24.39.45.45.11.03.23.03.34,0,.11-.03.2-.09.28-.16.02-.02.05-.04.07-.06l-.13.1c.17-.13.35-.23.54-.31l-.15.06c.23-.1.47-.16.72-.2l-.17.02s.06,0,.09-.01c.09,0,.17-.02.25-.06.08-.03.15-.07.21-.13.06-.06.11-.13.13-.21.04-.08.06-.16.06-.25l-.02-.17c-.03-.11-.09-.2-.16-.28l-.13-.1c-.1-.06-.21-.09-.32-.09-.27.03-.53.07-.78.16-.15.05-.29.11-.43.18-.09.04-.18.09-.27.14-.14.09-.27.19-.39.29l1.07.28s-.02-.07-.04-.12c-.02-.05-.04-.1-.08-.14-.02-.02-.03-.05-.05-.07,0,0,0-.01-.02-.02l.1.13s0-.01,0-.02l.06.15c-.04-.09-.07-.18-.1-.27s-.06-.19-.08-.29c-.04-.19-.08-.38-.1-.58l.02.13c-.02-.15-.04-.3-.05-.45,0-.11-.02-.21-.04-.32-.01-.07-.03-.14-.04-.21l-.03-.08s-.05-.07-.09-.1c-.06-.04-.13-.08-.21-.07-.06,0-.12.02-.17.05-.08.04-.13.12-.16.2h0Z"/>
      <path class="cls-2" d="M61.54,130.42c-.04.31-.02.63.01.95s.09.62.11.93c.01.17.02.35,0,.53l.02-.16s-.01.04-.02.06l.06-.15c-.06.11-.09.21-.09.33,0,.09.01.17.05.24.03.08.07.14.13.2l.13.1c.1.06.2.08.31.08.37.02.74.07,1.12.06.05,0,.1,0,.15-.01.08,0,.15-.01.22-.04s.14-.06.21-.09l.12-.09.09-.12.06-.14c.02-.08.03-.16.01-.24,0-.05-.01-.1-.04-.15-.01-.05-.04-.09-.08-.13-.03-.04-.06-.08-.11-.11-.06-.05-.12-.09-.2-.11-.09-.01-.17-.02-.26-.03l.17.02c-.07,0-.13-.03-.2-.02-.01,0-.03,0-.04,0-.03,0-.06,0-.08,0-.05,0-.11,0-.16,0-.11,0-.22,0-.33,0-.22-.01-.43-.03-.65-.04l.62.62h0c0-.07-.01-.12-.02-.18l-.06-.15s0,0,0-.01c0-.01-.01-.03-.02-.04l.06.14s-.01-.07-.02-.1-.01-.07-.02-.1c-.01-.07-.03-.13-.05-.2-.03-.13-.07-.26-.11-.39-.07-.26-.15-.52-.21-.78-.03-.15-.06-.3-.09-.45l.02.11c-.02-.12-.03-.24-.03-.36,0-.1-.04-.21-.12-.28-.07-.07-.18-.12-.28-.12s-.21.04-.28.12l-.06.08c-.04.06-.05.13-.05.2h0Z"/>
      <path class="cls-2" d="M64.31,130.87c-.04.08-.08.17-.1.25-.02.06-.03.13-.04.19-.03.16-.05.33-.05.5,0,.13,0,.27,0,.4s0,.26.01.39c0,.07,0,.14,0,.21,0,.04,0,.07,0,.11,0,.03,0,.07.01.1,0,.04,0,.07.02.11,0,.02,0,.04.01.06.03.11.08.2.16.28.06.06.13.11.2.13.08.04.16.06.24.05.11,0,.22-.03.32-.09.01,0,.03-.01.04-.02l-.15.06c.07-.03.14-.05.21-.06l-.17.02s.09,0,.13,0l-.6-.46c.01.07.03.14.05.21.04.13.09.25.16.37.04.08.1.14.15.21,0,.01.02.02.03.03,0,0,0,0,0,0,.02.02.1.09.13.1.06.03.12.05.18.07.09.04.19.05.28.05.02,0,.04,0,.06,0,.06,0,.12-.01.18-.02.01,0,.02,0,.03,0,.13-.03.27-.12.36-.22.06-.07.13-.15.17-.24.04-.06.06-.13.07-.21.02-.07.01-.15-.01-.22l-.06-.13c-.04-.07-.08-.12-.14-.16-.04-.03-.08-.06-.12-.07-.07-.04-.14-.05-.22-.05l-.15.02c-.1.03-.18.07-.25.14,0,0-.02.02-.03.03l.12-.09s-.06.04-.09.05l.14-.06s-.05.02-.07.02l.16-.02c-.07,0-.14.02-.22.03l.16-.02s-.05,0-.08,0l.16.02s-.07-.02-.11-.03l.15.06s-.02-.01-.04-.02l.13.1s-.03-.03-.04-.04l.1.13c-.04-.06-.07-.12-.1-.18l.06.15c-.05-.11-.08-.22-.1-.34l.02.17h0c0-.09-.01-.17-.05-.25-.03-.08-.07-.15-.13-.2l-.13-.1c-.1-.06-.2-.09-.32-.09-.04,0-.07,0-.11,0-.09,0-.17.02-.26.04-.12.02-.23.08-.34.12l.93.38s0-.04-.01-.07c0-.04-.02-.06-.04-.1-.02-.04-.03-.07-.05-.1l.06.15c-.04-.1-.08-.21-.12-.31s-.08-.21-.12-.32c-.07-.22-.12-.44-.15-.66l.02.11c-.01-.09-.02-.17-.02-.26s-.01-.17-.01-.25c0-.08-.03-.15-.07-.21-.04-.06-.11-.11-.18-.12-.06-.01-.12-.01-.18,0-.04.01-.08.03-.12.06-.04.02-.07.06-.09.1h0Z"/>
      <path class="cls-2" d="M73.58,130.44c-.18-.09-.37-.17-.56-.24l.1.04c-.06-.03-.1-.04-.15-.05-.02,0-.04,0-.06-.01-.04,0-.07-.01-.11-.02-.11-.02-.22-.03-.33-.04-.17,0-.34,0-.51.03-.11.02-.22.04-.32.08-.13.05-.27.11-.39.19-.08.06-.16.12-.23.18s-.14.14-.19.22l.09-.11c-.11.13-.21.26-.29.41-.04.08-.07.16-.1.24l.06-.14c-.05.08-.07.18-.09.27s-.03.19-.04.29c0,.09,0,.17,0,.26,0,.14.03.28.06.41s.09.26.14.38c.03.07.07.15.12.21.07.11.15.21.25.3.07.06.14.12.21.17.03.02.06.04.1.06.08.04.17.08.25.11.04.01.07.03.11.04.09.02.19.03.28.04.04,0,.09,0,.13,0,.14-.01.29-.03.43-.08.07-.02.14-.05.21-.09l-.14.06c.07-.03.13-.05.19-.09,0,0,.02-.01.02-.02,0,0,0,0,.01,0,0,0,0,0,0,0,.02-.01.11-.08.12-.09l-.12.09s.07-.04.1-.06c.02-.01.03-.02.05-.03.05-.03.1-.06.13-.11s.07-.09.1-.13c.02-.03.04-.06.07-.09.01-.02.02-.03.03-.05,0,0,.01-.02.02-.03,0,0,0,0,0-.01.05-.09.05-.14.07-.24l-.14.33h0s.08-.09.1-.15c.03-.05.04-.11.04-.18,0-.06-.01-.12-.04-.18-.02-.06-.05-.11-.1-.15-.09-.08-.2-.14-.33-.14l-.12.02c-.08.02-.15.06-.2.12h0c.11-.04.22-.09.33-.13-.07,0-.15.02-.22.04-.03,0-.07.02-.1.02-.02,0-.03,0-.05,0-.06.01-.12.04-.18.07-.03.01-.06.03-.09.04l.14-.06c-.06.03-.13.05-.19.08l.29-.08c-.08,0-.16.02-.24.04-.03,0-.06.01-.08.02-.05.01-.11.03-.16.03l.16-.02c-.09.01-.17.01-.26,0l.16.02c-.09-.01-.17-.03-.25-.07l.15.06c-.07-.03-.14-.07-.2-.11l.13.1c-.07-.05-.13-.12-.18-.19l.1.12c-.07-.09-.12-.18-.16-.28l.06.15c-.04-.09-.07-.19-.09-.29,0-.03-.01-.06-.01-.09l.02.16c-.01-.1-.02-.21,0-.31,0-.03,0-.06,0-.09l-.02.16c.01-.11.06-.22.05-.33l-.02.16c.02-.11.04-.22.09-.32l-.06.14c.03-.08.08-.15.13-.22l-.08.11c.06-.08.13-.15.21-.21l-.11.08c.09-.07.19-.13.29-.17l-.12.05c.14-.06.29-.1.44-.12l-.12.02c.12-.02.24-.02.37-.02.07,0,.14,0,.21,0s.14,0,.21,0c.09,0,.17.01.26.02h.09s.08-.04.11-.07c.05-.04.1-.1.12-.17.01-.06.01-.12,0-.18-.01-.04-.03-.08-.06-.11-.02-.04-.05-.06-.09-.09h0Z"/>
      <path class="cls-2" d="M75.62,130.79s-.01-.02-.02-.03l.02.05s-.02-.05-.02-.08v.06s.01-.05.02-.07l-.08.19s0,0,0,0c.04-.04.07-.09.09-.15.01-.05.02-.09,0-.14,0-.05-.02-.09-.04-.13-.03-.05-.07-.09-.12-.12h0c.05.07.1.13.16.2,0-.03-.03-.07-.04-.09l-.06-.08s-.07-.06-.12-.08c-.03-.02-.06-.03-.09-.03-.05-.01-.1,0-.15,0-.07.02-.13.05-.19.09,0,0-.01,0-.02.01l-.08.06-.06.08s-.01.03-.02.04c-.01.03-.03.06-.04.08-.03.06-.05.12-.07.18,0,.03-.02.06-.03.09-.02.06-.03.11-.05.17-.07.27-.13.54-.16.82-.01.12-.02.23-.02.35,0,.17.02.33.05.5,0,.06.02.12.04.18,0,.03.02.06.02.09,0,0,0,.01,0,.02l.03.08c.03.08.07.15.13.2l.06.05s.05.04.07.05c0,0,.02,0,.03.01.15.08.31.14.47.17.11.02.23.04.35.05.06,0,.13,0,.19,0,.12,0,.24-.02.35-.04.03,0,.07-.01.1-.02,0,0,.02,0,.02,0h0c.08-.02.16-.06.22-.12.08-.06.12-.08.17-.18.03-.05.05-.11.07-.16l-.06.15h0s-.06.07-.09.11c.06-.07.11-.14.17-.21.05-.08.07-.17.07-.27,0-.07-.01-.14-.05-.2-.02-.07-.06-.12-.11-.17-.07-.07-.14-.11-.23-.14-.04,0-.08-.01-.12-.02l.14.06c-.07-.03-.04-.04-.18-.08-.06,0-.12-.02-.18-.02l-.17.02s-.05.01-.07.02c-.05.01-.09.02-.14.03l.17-.02c-.12.02-.25.02-.37,0l.17.02c-.16-.02-.31-.07-.46-.12l.38.29s-.05-.09-.07-.14l.06.15c-.08-.19-.13-.39-.16-.6l.02.15c-.05-.36-.02-.73.02-1.09,0-.05.02-.1.01-.15,0-.05,0-.11,0-.16l-.06.21s.03-.06.05-.08l-.06.08s.01-.02.02-.02l-.08.06h0c.06-.04.1-.08.13-.14.03-.06.05-.12.05-.19h0c-.02.05-.03.11-.05.17,0,0,0,0,0,0l-.05.07s0,0,0,0l-.24.1c.05,0,.14-.02.18-.05l-.15.04s0,0,.01,0l-.13-.04s.03.03.05.04l-.05-.04s.08.08.13.1c.04.02.08.03.12.02.04,0,.08-.02.11-.05.06-.06.07-.16.03-.23h0Z"/>
      <path class="cls-2" d="M77.89,130.15c-.06.14-.11.29-.15.44s-.06.29-.08.44c-.05.34-.08.69-.11,1.04-.01.17-.03.35-.04.52l.02-.16c0,.05-.01.1-.02.15-.01.08-.03.15-.03.23,0,.12.03.22.09.32.02.02.04.05.06.07.03.04.04.05.07.08.06.05.11.1.18.13.11.06.2.09.33.09.11,0,.23-.03.32-.09.02,0,.12-.09.13-.1.04-.04.07-.08.1-.13.06-.11.06-.14.08-.24,0-.05.01-.08,0-.12,0-.07-.01-.15-.03-.22,0-.02-.01-.04-.01-.06l.02.15s0-.03,0-.04l-.02.15s0-.02,0-.02l-.06.13s0-.01,0-.02l-.09.11s0,0,0,0l.09-.11.06-.13.02-.15c0-.08-.01-.15-.05-.21-.01-.05-.04-.09-.07-.12-.02-.04-.06-.07-.1-.1-.03-.03-.07-.06-.12-.07-.07-.03-.14-.05-.21-.05-.24,0-.45.14-.57.35-.04.06-.07.13-.09.2,0,.02,0,.04-.02.06l.06-.15s0,0,0,.01l.1-.13s0,0,0,0l.13-.1s0,0,0,0l.15-.06s0,0,0,0l.17-.02s0,0,0,0l.17.02s0,0,0,0l.15.06s0,0,0,0l.13.1s-.01-.01-.02-.02l.1.13c-.05-.06-.08-.12-.14-.19l.19.46c-.04-.33-.07-.66-.1-.99s-.04-.64-.02-.97c0-.18.02-.37.04-.55v.11s-.01-.02,0-.04c.02-.05.02-.11,0-.16,0-.05-.02-.11-.05-.15-.05-.09-.15-.17-.25-.19-.1-.02-.22-.02-.32.04l-.08.06c-.05.05-.09.11-.11.18h0Z"/>
      <path class="cls-2" d="M84.65,130.11c-.13.08-.24.17-.35.28-.05.05-.1.09-.14.14-.02.02-.04.05-.06.07-.04.05-.08.09-.11.14-.06.09-.11.19-.15.29l.04-.1c-.07.17-.14.34-.19.52-.02.07-.03.15-.05.22s-.03.15-.04.22c-.02.13-.04.26-.05.39,0,.1.03.2.08.29.05.09.12.16.21.21.09.05.19.08.29.08.1,0,.2-.03.29-.08.03-.01.06-.03.09-.05.03-.02.06-.03.1-.05.07-.03.14-.06.21-.09.07-.03.14-.07.21-.11.11-.07.22-.15.32-.23.11-.09.2-.2.28-.32h-1.05s.05.09.08.13c.06.08.12.16.19.24.07.08.14.16.2.24l-.1-.12c.05.07.1.14.13.21.08.18.26.27.43.33.07.02.15.04.23.03.12,0,.22-.03.33-.09.05-.03.1-.07.14-.11.08-.09.15-.19.17-.31.03-.15.03-.22,0-.37,0-.04-.02-.07-.03-.11l-.05-.13c-.03-.06-.08-.11-.14-.15-.03-.03-.07-.06-.12-.07-.06-.03-.13-.05-.2-.05l-.14.02-.13.05c-.06.03-.11.08-.15.14-.05.05-.08.11-.09.18,0,.03-.02.06-.03.09l.06-.13s-.02.04-.03.06l.09-.12s-.01.02-.02.02l.12-.09s-.01,0-.02.01l.14-.06s-.01,0-.02,0l.16-.02s-.04,0-.06,0l.16.02s-.04-.01-.06-.02l.15.06s-.02-.01-.04-.02l.22.22c-.02-.05-.05-.11-.09-.15-.06-.09-.13-.17-.19-.26-.07-.09-.15-.17-.22-.27l.1.12c-.04-.05-.08-.11-.11-.17-.05-.09-.13-.16-.22-.22-.1-.06-.2-.08-.31-.08-.11,0-.21.03-.31.08-.09.05-.16.13-.22.22,0,.01-.02.03-.03.04l.1-.12c-.05.07-.12.13-.19.19l.12-.1c-.12.09-.25.17-.38.24-.06.03-.12.07-.18.11-.03.02-.05.03-.08.05-.06.04-.14.09-.19.15l.97.26c-.04-.13-.07-.26-.1-.39l.02.13c-.02-.21-.02-.43,0-.65v.11c0-.07.01-.14.02-.21v.11s0-.09,0-.13c0-.02,0-.04.01-.06.01-.05.02-.1.02-.15v.1c0-.15.04-.3.1-.44l-.02.06c.04-.09.08-.18.13-.26.04-.06.03-.16-.03-.21s-.14-.07-.21-.03h0Z"/>
      <path class="cls-2" d="M86.67,130.42c0,.06,0,.12,0,.18.01.1.03.2.04.3.02.12.04.25.06.37s.05.25.07.37.06.25.08.37c.02.14.05.28.08.41.03.1.08.2.16.27.06.06.12.1.2.13.07.04.15.06.24.05.11,0,.22-.03.31-.08.03-.02.06-.04.08-.06.03-.02.05-.04.08-.06.01,0,.02-.02.04-.03.03-.02.05-.05.07-.07.08-.08.15-.18.21-.28.04-.07.07-.14.07-.22.02-.08.01-.16-.01-.24l-.06-.14c-.04-.07-.09-.12-.15-.17-.04-.04-.08-.06-.13-.08-.07-.04-.15-.05-.23-.05l-.16.02c-.1.03-.19.08-.26.15-.05.06-.1.11-.16.15l.12-.09s-.09.06-.14.09l.84.22c-.07-.14-.15-.28-.21-.43l.06.13c-.14-.35-.27-.7-.37-1.05-.01-.05-.03-.1-.04-.15-.02-.06-.05-.11-.07-.17-.01-.02-.02-.05-.03-.07l-.07-.08s-.08-.07-.13-.09c-.03-.02-.07-.03-.11-.03-.06-.01-.11,0-.17,0l-.1.04-.08.07s-.07.08-.09.13c-.03.05-.04.1-.04.16h0Z"/>
      <path class="cls-2" d="M89.61,130.02c-.02.09-.04.18-.06.27-.02.12-.03.24-.05.36-.02.18-.04.37-.06.55s-.04.36-.05.55-.04.37-.02.55c0,.11.03.2.08.3.04.07.09.12.15.16.06.05.12.09.2.1.1.03.21.03.31,0,.03,0,.05,0,.08-.01l-.16.02c.24-.03.48-.06.71-.09.35-.05.71-.09,1.05-.17s.66-.18.96-.33c.15-.07.29-.17.42-.28.06-.05.11-.11.15-.17.08-.11.13-.19.18-.32.07-.19.06-.4.02-.59-.02-.1-.07-.2-.11-.3-.03-.06-.06-.12-.09-.18-.02-.03-.04-.07-.07-.1l-.77.77s.07.04.1.07l-.11-.09c.1.08.18.17.25.26l-.09-.12c.17.21.29.46.4.7l-.06-.14c.04.09.07.18.1.28.01.04.02.07.03.11.02.07.02.1.07.18.03.06.08.1.11.15l-.09-.12s0,.01.01.02c.02.03.06.09.09.12.05.05.11.09.18.11.02.01.04.02.07.03l-.4-.53h0c0,.15.06.29.16.39.1.1.25.17.39.16s.29-.05.39-.16.17-.24.16-.39h0c-.13.17-.27.35-.4.53.15-.06.1-.03.19-.1.07-.05.09-.06.14-.16.03-.05.04-.1.06-.15,0-.01.01-.03.02-.04.04-.14.01-.29-.03-.43-.05-.16-.12-.31-.19-.46-.14-.3-.32-.59-.54-.84-.12-.14-.27-.27-.44-.36l-.14-.06c-.08-.02-.15-.03-.23-.01-.05,0-.1.01-.14.04-.07.02-.13.06-.18.12-.07.07-.12.16-.15.25-.02.08-.03.15-.01.23,0,.08.03.15.07.21.05.07.1.14.14.22l-.06-.13c.02.06.05.13.05.2l-.02-.15c0,.05,0,.1,0,.15l.02-.15s-.02.09-.03.13l.06-.14c-.02.05-.05.11-.09.15l.09-.12c-.04.06-.1.1-.15.15l.12-.09c-.11.09-.24.15-.37.21l.14-.06c-.38.16-.79.24-1.2.31-.12.02-.23.04-.35.05l.16-.02c-.33.04-.67.08-1,.13l.74.57c-.02-.26-.08-.52-.12-.78l.02.14c-.03-.26-.06-.52-.09-.78-.01-.13-.03-.26-.04-.38-.02-.16-.05-.31-.08-.47-.03-.13-.18-.24-.31-.24s-.28.09-.31.24h0Z"/>
      <path class="cls-2" d="M95.75,130.71s0,.04,0,.07c0,.02,0,.05,0,.08,0,.06.01.11.02.17.02.17.04.34.07.51,0,.04.01.08.02.11s.02.07.02.11l-.02-.15s0,.05,0,.08l.02-.16h0s.04-.09.06-.14c0,0,0,0,0,0-.01.02-.01.03-.03.08-.03.05-.04.1-.04.16,0,.03,0,.06-.01.08l.02.16c.02.08.06.15.11.21.03.05.06.08.11.11.06.05.13.09.21.11.02,0,.03,0,.05,0,.08.02.15.03.23.01.08,0,.15-.03.21-.07l.11-.09c.07-.07.12-.15.15-.25,0-.01,0-.03.01-.04l.02-.16c0-.08-.01-.16-.05-.24-.01-.05-.04-.1-.08-.14-.04-.07-.1-.12-.17-.16h0s-.1-.04-.15-.06c-.01,0-.15-.02-.17-.02,0,0,0,0,0,0l.3.08s-.05-.03-.07-.04l.11.09s0,0,0-.01l.09.11c-.04-.05-.08-.11-.12-.16s-.07-.11-.1-.17c-.06-.1-.11-.21-.17-.32-.02-.05-.06-.09-.09-.13l-.05-.07s-.07-.06-.11-.07c-.03-.02-.06-.02-.09-.02-.05-.01-.09,0-.14,0l-.08.03-.07.05s-.06.07-.07.11c-.02.04-.03.09-.03.13h0Z"/>
      <path class="cls-2" d="M98.07,129.85s-.02.07-.03.1-.02.07-.03.1c-.02.06-.05.12-.06.19-.03.17-.04.34-.05.51,0,.27.02.54.03.82,0,.08,0,.15,0,.23,0,.04,0,.07,0,.11,0,.11.03.23.09.32.03.05.07.1.11.14.01.01.02.03.03.04.07.07.16.12.26.15.08.02.16.03.23.01.08,0,.15-.03.22-.07.09-.05.16-.12.21-.21,0-.02.02-.03.02-.05.02-.05.05-.1.07-.16.03-.12.03-.15.01-.25,0-.05,0-.08-.02-.12-.02-.05-.03-.09-.05-.14-.03-.1-.07-.19-.09-.29-.06-.19-.12-.38-.16-.58-.03-.11-.05-.22-.06-.33l.02.12c0-.06-.01-.12-.02-.18,0-.09-.03-.18-.04-.27v.1c0-.06.02-.12.03-.18v.1s-.01-.01-.01-.02c.01-.05.02-.1,0-.14,0-.05-.02-.09-.04-.13-.02-.04-.05-.08-.09-.1-.03-.03-.08-.05-.12-.06-.09-.02-.2-.02-.28.04s-.14.12-.17.21h0Z"/>
      <path class="cls-2" d="M104.3,128.98s-.02,0-.03.01h.1s0-.01,0-.01c-.15,0-.29.08-.36.21h0s.04-.05.07-.07c-.07.08-.15.16-.19.26-.03.06-.05.12-.08.18-.06.15-.13.3-.18.45-.06.17-.12.34-.15.52-.04.22-.05.42,0,.64.02.09.06.18.11.26.04.06.08.11.12.16.01.02.03.03.04.04.15.12.31.22.5.25.17.03.33.04.5.03.31-.01.62-.06.93-.09.39-.03.78-.04,1.16,0,.05,0,.1.01.15.02l-.16-.02c.09.01.19.03.28.05.08.02.16.03.24.01.08,0,.15-.03.22-.07.13-.08.24-.21.27-.36.03-.17.06-.34.05-.51s-.03-.34-.07-.5c-.05-.25-.14-.48-.2-.73-.04-.14-.07-.28-.09-.43l.02.16s0-.06-.01-.09l-1.14.15c.16.41.3.82.46,1.23.06.16.13.31.21.46.04.07.08.12.15.16.05.05.12.08.19.1.08.02.15.03.23.01.08,0,.15-.03.21-.07.12-.08.23-.19.26-.34l.02-.15c0-.1-.03-.2-.08-.29-.05-.09-.09-.19-.13-.28l.06.14c-.18-.42-.3-.86-.45-1.28-.02-.08-.05-.14-.1-.2-.04-.06-.1-.11-.16-.15l-.14-.06c-.08-.02-.15-.03-.23-.01-.05,0-.1.01-.15.04-.07.02-.13.06-.19.12-.1.11-.18.26-.17.41.02.29.08.58.16.86.06.23.13.46.17.69l-.02-.16c.02.14.02.29,0,.43l.02-.16s-.01.08-.02.12l.74-.42c-.49-.11-.99-.14-1.48-.11-.36.02-.72.08-1.08.11-.15.01-.3.02-.45,0l.16.02c-.07,0-.14-.03-.2-.05l.14.06s-.06-.03-.08-.05l.12.09s-.04-.04-.06-.06l.09.12s-.04-.06-.05-.09l.06.14c-.02-.05-.03-.1-.04-.16l.02.15c-.02-.13,0-.27.01-.4l-.02.14c.02-.16.06-.32.1-.48.02-.1.05-.19.08-.29.02-.05.03-.1.05-.16.02-.09.02-.19.03-.28l-.02.11h0c.03-.16,0-.32-.11-.42h0s.04.05.06.07c0,0-.01-.02-.02-.03l-.05-.07s-.07-.06-.11-.07c-.07-.03-.16-.04-.23-.02h0Z"/>
      <path class="cls-2" d="M109.88,128.44c-.07.41-.09.83-.06,1.25,0,.1.01.19.02.28s.01.19.02.29c0,.02,0,.04,0,.07,0,.01,0,.02,0,.03,0,0,0,.01,0,.02h0c0,.08.01.15.05.21.02.04.03.07.05.11,0,.01.02.02.02.04.03.05.07.1.11.15.03.03.07.07.11.09.02,0,.12.05.13.06.01,0,.14.02.15.02.08,0,.21-.03.28-.08.01,0,.1-.08.11-.09.06-.06.12-.16.14-.24,0,0,0,0,0,0,0-.02.02-.12.01-.08,0,0,0-.05.01-.08,0,0,0-.01,0-.02,0-.03,0-.05-.01-.08,0-.04,0-.06-.01-.08-.01-.04-.03-.07-.03-.11l.02.14s0-.02,0-.03l-.02.14s0-.01,0-.02l-.05.13s0,0,0,0l-.08.11s0,0,0,0l-.11.08s0,0,0,0c.06-.03.11-.08.15-.13.05-.05.08-.11.09-.18l.02-.14c0-.07-.01-.14-.05-.2-.01-.04-.03-.08-.07-.12-.04-.06-.09-.1-.15-.13l-.13-.05c-.09-.02-.19-.02-.28,0-.08.01-.14.05-.2.1-.02.02-.04.03-.06.05-.01.01-.08.09-.08.11,0,0,0,0,0,0-.06.12-.07.19-.09.32,0,.02,0,.04,0,.06,0,.01,0,.02,0,.03,0,0,0,.01,0,.02,0,.14.02.16.08.29l-.06-.13s0,.02,0,.03l-.02-.15s0,0,0,0l.02-.15s0,0,0,0l.06-.13s0,0,0,0l.09-.11s0,0,0,0l.11-.09h0s.09-.04.13-.05c0,0,0,0,0,0l.15-.02s0,0,0,0l.15.02s0,0,0,0l.13.06s-.02-.01-.03-.02l.11.08s-.05-.05-.08-.07l.14.23c-.06-.16-.13-.31-.17-.47s-.08-.33-.12-.49c-.02-.09-.03-.19-.05-.28v.1c-.01-.19-.03-.38-.03-.58,0-.05,0-.09-.03-.13-.01-.04-.04-.08-.07-.11l-.07-.05s-.08-.04-.13-.04c-.03,0-.06,0-.09,0-.05,0-.09.02-.13.04-.07.05-.14.12-.16.2h0Z"/>
      <path class="cls-2" d="M112.87,128.55c-.04.11-.07.23-.09.34-.03.16-.05.32-.05.48s.02.32.05.48.09.3.15.44c.02.05.05.11.09.16,0,.01.02.02.02.04,0,0,0,0,0,0l.1.13s.05.04.07.05c.03.02.05.04.08.06.02.02.05.03.08.05l.15.06c.08.03.16.03.24.01.05,0,.11-.01.15-.04.08-.02.14-.07.2-.13l.1-.12.06-.15c.03-.08.03-.16.01-.24,0-.08-.03-.16-.07-.23-.01-.02-.02-.04-.03-.05-.04-.07-.07-.12-.13-.18-.03-.03-.06-.06-.09-.1l.1.13c-.07-.09-.13-.19-.17-.29l.06.14c-.06-.13-.09-.27-.11-.42l.02.15c-.03-.19-.02-.39,0-.58l-.02.14s0-.04,0-.07c.02-.07.02-.13,0-.2,0-.07-.02-.13-.06-.19-.03-.06-.07-.11-.13-.14-.05-.04-.11-.07-.17-.09l-.13-.02c-.09,0-.18.02-.25.07l-.1.08c-.06.06-.11.14-.13.22h0Z"/>
      <path class="cls-2" d="M73.46,236.65h.17s.05,0,.08,0h.04c.15,0,.25-.03.38-.1,0,0,.01,0,.02,0,.11-.06.19-.15.25-.25.06-.11.1-.23.1-.36,0-.13-.03-.25-.1-.36-.06-.11-.15-.19-.25-.25,0,0-.01,0-.02,0-.03-.01-.06-.03-.09-.04-.03-.02-.06-.03-.09-.04l-.19-.03h0s-.03,0-.04,0h-.08c-.06,0-.11,0-.17,0-.1,0-.19.02-.28.06-.09.03-.17.08-.23.15-.07.06-.12.14-.15.23-.04.09-.07.18-.06.28l.03.19c.03.12.1.23.18.32l.14.11c.11.06.23.1.36.1h0Z"/>
      <path class="cls-2" d="M79.47,235.99h0s0,0,0,0c.04-.14.03-.17.01-.29s-.02-.17-.09-.28l-.12-.15c-.07-.07-.15-.13-.24-.16-.09-.05-.19-.07-.29-.06l-.2.03-.18.08c-.09.05-.16.11-.21.19-.07.07-.11.16-.13.26l-.03.2c0,.1.02.2.06.29.03.09.08.17.16.24l.15.12c.09.05.18.08.28.09.07.02.13.02.2,0,.1,0,.19-.03.28-.09l.15-.12c.09-.09.16-.2.19-.33h0Z"/>
      <path class="cls-2" d="M83.91,236.37c.1,0,.2-.02.29-.06.09-.03.17-.08.24-.15.07-.07.12-.15.15-.24.05-.09.07-.18.06-.29l-.03-.2c-.04-.13-.1-.24-.19-.33l-.15-.12c-.12-.07-.24-.1-.37-.1-.1,0-.2.02-.29.06-.09.03-.17.08-.24.15-.07.07-.12.15-.15.24-.05.09-.07.18-.06.29l.03.2c.04.13.1.24.19.33l.15.12c.12.07.24.1.37.1h0Z"/>
      <path class="cls-1" d="M49.02,71.84c.02.07.06.15.07.23v-.1s0,.1,0,.14c0,.04.04.1.06.14.02.04.04.08.06.12.05.11.13.2.21.29.1.13.21.26.33.38.23.25.47.49.73.71.51.44,1.04.84,1.53,1.3.27.25.52.51.74.8l-.09-.12c.13.16.23.34.35.51.09.13.2.22.35.27.14.04.32.02.45-.06s.23-.2.27-.35c.04-.16.01-.3-.06-.45-.05-.1-.11-.18-.18-.27-.09-.12-.18-.24-.27-.35-.14-.16-.28-.32-.43-.46-.31-.3-.65-.57-.99-.84-.23-.18-.46-.35-.69-.53l.11.08c-.45-.34-.9-.69-1.3-1.09-.14-.13-.26-.29-.41-.41l.09.07s-.08-.06-.11-.09c-.02-.02-.03-.03-.05-.05-.06-.05-.11-.07-.18-.1-.01,0-.02,0-.03-.01l.09.04s-.02,0-.02-.02l.07.06c-.06-.05-.11-.09-.17-.14-.1-.09-.25-.12-.36-.05-.11.07-.18.21-.14.34h0Z"/>
      <path class="cls-1" d="M77.65,154.94s-.08.05-.12.08c-.05.03-.09.07-.14.1-.03.02-.08.07.05-.03-.04.03-.08.06-.12.1-.12.11-.22.24-.32.38-.18.24-.35.49-.52.73-.42.59-.81,1.21-1.2,1.82-.8,1.24-1.57,2.5-2.28,3.79-.15.27-.29.54-.43.82-.07.15-.16.3-.19.47-.03.14-.05.29-.06.43-.02.22.18.47.39.52.24.05.47-.04.6-.25.05-.07.1-.14.15-.21.07-.09.11-.18.16-.28.11-.24.23-.47.35-.7.32-.6.65-1.19.99-1.78.76-1.3,1.52-2.59,2.32-3.87.18-.29.36-.59.54-.88.04-.06.08-.13.12-.19.04-.07.06-.12.1-.2.02-.04.07-.17,0,.01.03-.06.06-.12.08-.19,0-.01.01-.03.01-.04.02-.04,0-.02-.03.07l.04-.11.02-.12c-.01.09-.02.12,0,.08,0-.02,0-.03,0-.05,0-.03.01-.06.02-.09.03-.15,0-.29-.13-.39-.11-.09-.28-.11-.41-.03h0Z"/>
      <path class="cls-1" d="M105.72,197.76s.01.05.02.08v-.23c-.02.06-.03.12-.03.18v.07s.02.09.04.12c.01.03.02.05.03.08,0,.02.02.03.03.05.03.06.06.12.09.17.06.12.13.23.21.35.15.23.3.45.46.67.35.47.72.92,1.12,1.35.1.11.2.2.31.3.05.05.11.1.16.14.01.01.03.02.04.04.05.04.1.09.15.12.1.06.21.08.32.09.02,0,.03,0,.05,0,.1,0,.19-.03.27-.07.06-.03.11-.08.15-.14.05-.05.08-.11.1-.18.03-.1.03-.19,0-.29,0-.02,0-.04-.01-.07-.03-.12-.1-.22-.19-.3-.04-.04-.08-.07-.12-.11-.08-.07-.15-.15-.22-.22-.15-.16-.31-.31-.46-.47-.31-.32-.6-.67-.87-1.02-.16-.2-.32-.39-.47-.59l.08.11c-.09-.12-.19-.24-.29-.36-.04-.04-.07-.09-.11-.13-.03-.04-.05-.06-.09-.09-.05-.04-.1-.07-.17-.09-.02,0-.05-.01-.07-.01-.03,0-.06,0-.09-.01l.12.02s-.01,0-.02,0l.1.04s-.04-.03-.06-.05l-.1-.04h-.11c-.09-.01-.17.02-.24.07-.13.1-.18.26-.14.42h0Z"/>
      <path class="cls-1" d="M44.17,234.74c.05-.03.11-.06.16-.1s-.02,0-.04.01c.06-.02.11-.05.16-.09.02-.03.05-.06.07-.09.01-.01.02-.03.03-.04-.07.1-.03.04-.01.02.12-.15.24-.29.36-.44l-.07.09c.24-.31.51-.59.77-.88.29-.32.6-.62.91-.92.64-.62,1.29-1.23,1.95-1.84.34-.32.68-.63,1-.96.1-.11.17-.26.17-.41,0-.14-.06-.31-.17-.41-.24-.22-.59-.22-.82,0-.65.6-1.27,1.23-1.9,1.85s-1.28,1.31-1.85,2.02c-.17.21-.33.43-.48.66-.14.2-.28.41-.38.64l.04-.1c-.07.14-.13.29-.19.43-.02.05,0-.02.01-.03-.03.04-.04.09-.04.13-.01.05,0,.1,0,.14,0-.02-.01-.1,0-.04,0,.01,0,.02,0,.04,0,.05.01.11.02.16,0,.07.03.13.1.17.06.03.14.04.2,0h0Z"/>
    </g>
  </g>
</svg>