<?xml version="1.0" encoding="UTF-8"?>
<svg id="Layer_1" data-name="Layer 1" xmlns="http://www.w3.org/2000/svg" xmlns:xlink="http://www.w3.org/1999/xlink" viewBox="0 0 384.67 508.86">
  <defs>
    <style>
      .cls-1 {
        fill: #80acff;
      }

      .cls-2 {
        fill: #f5f6dd;
      }

      .cls-3 {
        fill: #e2f6eb;
      }

      .cls-4 {
        fill: #28318c;
      }

      .cls-5 {
        clip-path: url(#clippath);
      }
    </style>
    <clipPath id="clippath">
      <path class="cls-1" d="M318.5,415.98c0,2.64-1.59,5.02-4.03,6.02s-4.84,1.92-7.19,2.87c-2.54,1.04-5.85,2.82-8.88,3.98.04,1.49.06,2.94-.02,4.18-.11,1.9-1.7,3.37-3.6,3.37H70.59c-2.03,0-3.69-1.69-3.58-3.73.17-3.88-.45-9.51-.45-12.02v-59.87c0-24.79,1.46-49.65.4-74.43-.44-10.74.4-21.34.4-32.06s-1.17-20.47-1.17-30.77c0-18.44.78-36.77.78-55.19v-29.73c0-5.85.68-13.18.38-19.12-.11-2.04,1.53-3.73,3.58-3.73h224.21c1.87,0,3.47,1.44,3.58,3.31.36,6.02-.34,13.57-.34,19.55v29.73c0,18.42-.8,36.75-.8,55.19,0,10.3,1.17,20.47,1.19,30.77,0,10.72-.85,21.32-.4,32.06.47,11.19.44,22.4.27,33.61,3.96,2.25,8.62,5.15,9.85,5.91,1.4.86,4.28,2.54,6.6,3.88,2.03,1.17,3.27,3.33,3.26,5.67-.11,16.56.18,65.01.17,80.57Z"/>
    </clipPath>
  </defs>
  <path class="cls-3" d="M316.21,376.48c1.37-.11,2.39-1.31,2.28-2.67l-1.24-15.75c-1.09-13.81-2.17-27.62-3.26-41.44-1.95-24.72-2.46-49.62-5.45-74.25-1.29-10.66-1.28-21.31-2.12-31.98-.81-10.27-2.79-20.33-3.6-30.59-1.45-18.38-2.1-36.72-3.54-55.08-.79-10.01-1.55-19.7-2.33-29.63-.5-6.32-.34-14.43-1.34-20.54-.21-1.28-1.37-2.18-2.66-2.08l-200.46,15.78c-1.45.11-2.48,1.42-2.25,2.86.94,6.06.8,13.96,1.28,20.15.78,9.93,1.54,19.62,2.33,29.63,1.45,18.37,2.09,36.7,3.54,55.08.81,10.27,2.79,20.32,3.6,30.59.84,10.67.83,21.32,2.12,31.98,2.99,24.63,3.5,49.53,5.45,74.25,1.09,13.81,2.17,27.62,3.26,41.44l1.24,15.75c.11,1.37,1.31,2.39,2.67,2.28l200.48-15.78Z"/>
  <path class="cls-2" d="M309.91,400.37c1.37,0,2.49-1.11,2.49-2.49v-57.37c0-24.8,1.44-49.66.4-74.45-.45-10.73.4-21.34.4-32.04,0-10.31-1.19-20.48-1.19-30.78,0-18.44.79-36.77.79-55.19v-29.72c0-6.34.79-14.41.27-20.58-.11-1.29-1.19-2.28-2.49-2.28H109.5c-1.45,0-2.58,1.22-2.47,2.67.46,6.12-.3,13.98-.3,20.19v29.72c0,18.42-.79,36.75-.79,55.19,0,10.3,1.19,20.47,1.19,30.78s-.85,21.32-.4,32.04c1.04,24.79-.4,49.65-.4,74.45v57.37c0,1.37,1.11,2.49,2.49,2.49h201.1Z"/>
  <g>
    <path class="cls-1" d="M318.5,415.98c0,2.64-1.59,5.02-4.03,6.02s-4.84,1.92-7.19,2.87c-2.54,1.04-5.85,2.82-8.88,3.98.04,1.49.06,2.94-.02,4.18-.11,1.9-1.7,3.37-3.6,3.37H70.59c-2.03,0-3.69-1.69-3.58-3.73.17-3.88-.45-9.51-.45-12.02v-59.87c0-24.79,1.46-49.65.4-74.43-.44-10.74.4-21.34.4-32.06s-1.17-20.47-1.17-30.77c0-18.44.78-36.77.78-55.19v-29.73c0-5.85.68-13.18.38-19.12-.11-2.04,1.53-3.73,3.58-3.73h224.21c1.87,0,3.47,1.44,3.58,3.31.36,6.02-.34,13.57-.34,19.55v29.73c0,18.42-.8,36.75-.8,55.19,0,10.3,1.17,20.47,1.19,30.77,0,10.72-.85,21.32-.4,32.06.47,11.19.44,22.4.27,33.61,3.96,2.25,8.62,5.15,9.85,5.91,1.4.86,4.28,2.54,6.6,3.88,2.03,1.17,3.27,3.33,3.26,5.67-.11,16.56.18,65.01.17,80.57Z"/>
    <g class="cls-5">
      <path class="cls-4" d="M135.44,397.72c.11,0,.22,0,.32.02l-.27-.04c.27.04.52.11.77.22l-.24-.1c.47.2.9.5,1.3.81l-.21-.16c.32.25.64.52.95.78.16.13.32.27.49.4.14.12.29.23.44.33.02.02.04.03.07.05.18.11.35.14.55.15.13,0,.23-.01.36-.03.12-.03.23-.08.32-.17.1-.07.18-.15.24-.26l.09-.22c.04-.17.04-.33,0-.5,0-.04-.02-.07-.04-.11-.07-.19-.12-.33-.28-.48-.02-.02-.04-.03-.05-.05-.14-.11-.27-.22-.41-.33l.21.16c-.58-.45-1.13-.92-1.72-1.36-.53-.4-1.1-.74-1.74-.95-.14-.05-.29-.09-.44-.11-.24-.04-.48-.07-.73-.07-.26,0-.53.11-.71.3-.1.09-.17.2-.21.33-.06.12-.09.25-.09.39.01.26.1.53.3.71s.44.29.71.3h0Z"/>
      <path class="cls-4" d="M270.43,171.82s-.02.01-.03.02h.28l-.04-.02c-.19-.1-.43-.12-.62,0-.07.04-.13.08-.2.13l.53-.07-.08-.03c-.16-.04-.32-.04-.47,0-.15.04-.28.12-.39.23-.1.09-.2.18-.3.27s-.19.19-.29.29c-.19.21-.39.42-.58.62-.41.44-.83.87-1.25,1.3-.79.82-1.57,1.66-2.29,2.53-.22.26-.43.53-.63.8-.07.09-.14.19-.2.29-.03.05-.05.09-.08.14-.01.02-.02.04-.03.06-.04.08-.1.22-.11.27-.04.2-.03.36,0,.56.03.13.09.25.18.35.07.11.17.2.29.26.24.13.52.18.79.1.18-.05.35-.14.48-.28.06-.07.12-.16.18-.23.02-.03.05-.06.07-.09l-.16.21c.22-.28.42-.57.64-.85l-.16.21c.56-.72,1.16-1.4,1.77-2.07.68-.75,1.36-1.5,2.02-2.26.18-.2.35-.4.52-.61.21-.25.39-.52.57-.8.17-.26.16-.64,0-.9l-.04-.06.07.53c.03-.07.05-.14.08-.21.08-.21-.02-.44-.16-.59l-.03-.03.07.27s0-.02,0-.03c.05-.23-.18-.41-.39-.3h0Z"/>
      <path class="cls-4" d="M117.75,138.62c.04.09.08.17.12.26l-.06-.14s0,.03,0,.05c0,0,0,0,0,.01l.06.15s0,.02.01.03c.02.03.04.06.05.09.04.06.08.13.12.19v-.72c-.07.13-.13.28-.12.43.04.33,0,.14.03.22.05.16.11.24.22.37.03.03.06.07.09.1.05.06.11.12.17.18.11.12.23.24.35.34.31.26.64.5.98.71.15.1.31.18.47.27.11.07.22.1.34.11.12.03.24.02.37-.02.12-.03.22-.08.31-.16.1-.06.18-.15.24-.26l.09-.22c.04-.16.04-.33,0-.49l-.09-.22c-.08-.14-.19-.25-.33-.33-.25-.11-.5-.24-.73-.39s-.47-.31-.7-.47c-.13-.09-.26-.18-.38-.28l.17.13s-.1-.07-.14-.11c-.01,0-.02-.02-.03-.03,0,0-.01,0-.02-.01-.03-.02-.06-.05-.09-.07-.05-.05-.11-.08-.18-.1-.13-.05-.08-.04-.21-.06.01,0-.08-.02-.12-.02-.04,0-.07,0-.11.01-.07,0-.14.02-.2.05-.09.04-.07.03-.11.05h.72c-.06-.04-.12-.08-.18-.12-.03-.02-.05-.04-.08-.06-.04-.03-.06-.04-.12-.06-.04-.02-.07-.03-.12-.04l.14.06c-.05-.03-.1-.07-.15-.11l.11.09s-.06-.04-.08-.07c-.05-.05-.1-.09-.17-.11-.06-.03-.13-.05-.2-.05l-.14.02c-.07.02-.13.05-.18.09-.04.02-.07.05-.09.09-.05.05-.08.11-.09.18l-.02.14c0,.09.02.18.07.27h0Z"/>
      <path class="cls-4" d="M310.91,410.97s-.08-.04-.12-.06l.36.36h0c-.05-.08-.11-.14-.16-.21-.09-.1-.2-.17-.33-.21-.08-.05-.16-.07-.25-.07-.13-.03-.27-.02-.4.02h-.01c.09-.01.18-.02.27-.03-.09,0-.18,0-.26,0-.18,0-.37.04-.55.07-.22.04-.43.08-.65.13-.48.1-.96.2-1.44.28-.27.05-.55.09-.82.13l.29-.04c-.27.04-.55.07-.82.08-.23,0-.45.02-.68-.01l.28.04c-.12-.02-.24-.04-.35-.09l.25.11c-.11-.05-.21-.1-.3-.18l.21.16c-.1-.08-.19-.17-.27-.27l.16.21c-.1-.13-.18-.27-.24-.41l.1.25c-.09-.22-.15-.45-.18-.68l.04.27c-.05-.34-.04-.69,0-1.03l-.04.27c.05-.39.16-.78.31-1.14l-.1.24c.12-.28.27-.56.46-.8l-.15.2c.13-.16.27-.31.44-.44l-.2.15c.18-.14.37-.25.58-.33l-.23.1c.29-.12.59-.2.9-.24l-.25.03c.37-.05.74-.05,1.1,0l-.25-.03c.35.05.71.14,1.04.28l-.22-.09c.17.07.35.16.51.28l-.18-.14c.13.1.24.21.34.34l-.14-.18c.15.19.26.4.35.62l-.09-.21c.22.53.33,1.09.41,1.65l-.03-.23c.07.5.1,1,.17,1.5l-.03-.23c.03.25.02.23.12.45,0,0,0,.02.01.03,0,.02.02.03.02.05.04.09.1.18.17.24l-.2-.35s0,0,0,0c.05.19.19.37.37.48s.42.14.61.08.38-.18.48-.37.14-.4.08-.61c0,0,0,0,0,0l-.08.61s.03-.07.04-.1c.05-.1.07-.2.07-.31,0,0,0,0,0-.01,0-.01,0-.02,0-.03l-.03.22s.01-.07.02-.1c.02-.13.03-.23.02-.35-.01-.11-.02-.22-.03-.33-.02-.29-.05-.57-.08-.85-.05-.4-.1-.8-.2-1.19s-.23-.76-.4-1.12c-.07-.15-.16-.3-.26-.43-.09-.12-.18-.25-.29-.36s-.24-.21-.37-.3l.18.14c-.26-.24-.58-.44-.91-.58-.21-.09-.41-.17-.63-.23-.15-.04-.29-.07-.44-.09-.39-.05-.77-.09-1.16-.06s-.75.09-1.1.2c-.64.21-1.25.57-1.67,1.11-.2.26-.39.52-.53.81s-.28.62-.37.94-.15.68-.19,1.03c-.03.25-.03.5-.01.75.03.32.07.64.17.94.06.19.14.37.23.54s.21.32.33.47c.07.08.14.16.22.22.14.12.3.24.46.33.16.08.32.16.49.21s.36.07.54.09c.57.07,1.14-.02,1.71-.1s1.14-.2,1.7-.32c.27-.06.53-.11.8-.17.12-.03.25-.05.37-.08.11-.02.22-.05.33-.08.04-.01.09-.03.13-.04.02,0,.05-.01.07-.02.18-.05.33-.13.46-.26.16-.16.18-.25.26-.45l-.25.44s.07-.06.1-.08c.11-.11.19-.24.23-.4.04-.12.04-.24.02-.36,0-.12-.04-.23-.11-.33-.08-.14-.19-.24-.32-.32h0Z"/>
      <path class="cls-4" d="M304.37,398.38c-.35.28-.66.63-.88,1.02-.12.21-.21.43-.29.65s-.09.47-.1.7c-.01.4.05.82.18,1.19.08.23.18.45.3.66s.27.4.42.6c.26.34.58.61.92.87.28.22.59.4.92.54.39.17.79.31,1.21.37.25.03.49.07.74.06s.49-.04.73-.08c.17-.03.34-.08.5-.14.23-.09.46-.19.67-.33.45-.29.81-.66,1.12-1.1s.53-.92.69-1.41c.06-.2.12-.4.15-.6.04-.26.08-.52.08-.78s-.03-.51-.08-.76c-.03-.17-.07-.33-.13-.5-.08-.22-.18-.45-.3-.65s-.26-.39-.41-.57c-.25-.31-.57-.56-.9-.78s-.72-.38-1.11-.49-.81-.17-1.22-.16c-.25,0-.5.04-.74.07-.18.03-.35.07-.52.12-.42.13-.83.33-1.19.58-.22.16-.44.33-.63.51-.21.2-.38.42-.56.65s-.31.49-.42.77l.09-.2c-.07.12-.11.27-.15.41s-.08.27-.08.42l.1-.38v.02c-.1.19-.14.38-.09.59.05.18.19.37.35.45.18.09.39.14.59.08.18-.06.37-.17.45-.35v-.02c-.03.05-.07.1-.11.15.07-.06.12-.14.17-.22l-.12.16c.11-.15.26-.29.36-.45l-.13.17c.11-.13.2-.27.3-.4l-.14.18c.12-.15.24-.31.35-.46l-.14.18c.22-.28.47-.54.76-.76l-.18.14c.25-.19.52-.35.8-.47l-.21.09c.29-.12.59-.2.9-.25l-.24.03c.31-.04.62-.04.92,0l-.24-.03c.3.04.6.12.88.24l-.21-.09c.26.11.51.26.74.43l-.18-.14c.21.16.39.35.55.56l-.14-.18c.15.2.28.41.37.64l-.09-.21c.1.24.17.49.2.74l-.03-.24c.04.28.03.57,0,.85l.03-.24c-.05.36-.15.71-.29,1.04l.09-.21c-.14.34-.32.67-.55.97l.14-.18c-.16.2-.34.39-.54.54l.18-.14c-.18.14-.38.26-.59.35l.21-.09c-.22.09-.45.16-.69.19l.23-.03c-.28.04-.56.03-.84,0l.23.03c-.34-.05-.66-.14-.98-.27l.21.09c-.34-.15-.67-.34-.96-.56l.18.14c-.28-.21-.53-.46-.74-.74l.14.18c-.21-.27-.37-.56-.51-.88l.09.21c-.09-.22-.16-.46-.19-.7l.03.22c-.03-.21-.03-.41,0-.62l-.03.22c.02-.15.03-.29.05-.44l-.03.21c.03-.23.09-.46.18-.67l-.07.17c.11-.26.26-.51.44-.74.08-.11.1-.33.06-.46s-.11-.23-.21-.31-.23-.13-.36-.13l-.16.02c-.1.03-.19.08-.26.15h0Z"/>
      <path class="cls-4" d="M304.86,388.38s-.1.02-.15.03l.17-.02c-.14.02-.29.04-.43.07l.2-.03c-.14,0-.27.04-.4.11-.01,0-.03.02-.04.02-.03.02-.06.03-.09.05-.05.03-.1.06-.15.1-.1.07-.22.14-.3.24s-.16.2-.24.3c-.06.09-.12.18-.17.28-.07.16-.16.33-.19.51s-.06.37-.06.55.03.37.06.55c.04.29.16.57.28.83.1.21.22.41.36.6.19.26.4.51.63.74s.51.44.78.64c.21.15.43.28.66.4.29.15.6.28.91.38s.62.15.94.18.63,0,.95-.04c.28-.04.55-.11.8-.22.32-.13.62-.27.89-.47s.52-.4.73-.65.4-.51.55-.8.26-.59.34-.9c.15-.64.14-1.31-.02-1.95-.03-.13-.07-.25-.12-.38-.08-.19-.16-.38-.26-.57-.17-.31-.39-.59-.63-.85-.1-.1-.22-.19-.34-.26-.22-.12-.47-.16-.71-.09-.02,0-.04.01-.06.02-.13.04-.24.1-.33.19-.09.09-.16.21-.19.33,0,.01,0,.03,0,.04-.03.17-.05.32,0,.5.05.19.18.38.31.52.08.09.16.18.24.28l-.14-.19c.17.22.31.46.42.72l-.09-.22c.11.25.18.51.21.78l-.03-.25c.03.27.03.54,0,.8l.03-.25c-.04.27-.11.54-.22.79l.09-.22c-.1.25-.24.48-.4.69l.15-.19c-.16.21-.34.39-.55.55l.19-.15c-.21.17-.45.3-.7.41l.23-.1c-.27.11-.56.19-.85.23l.25-.03c-.25.03-.51.03-.76,0l.25.03c-.34-.05-.67-.15-.99-.28l.23.1c-.42-.18-.81-.41-1.17-.68l.19.15c-.31-.24-.6-.52-.85-.84l.15.19c-.17-.23-.32-.47-.44-.73l.1.23c-.08-.18-.13-.37-.16-.57l.03.25c-.02-.16-.02-.31,0-.47l-.03.25c.02-.14.05-.27.06-.41l-.03.25c.02-.13.06-.26.11-.38l-.09.22c.05-.11.1-.21.17-.31l-.14.18c.11-.13.21-.24.24-.41l-.09.21c.06-.12.13-.24.21-.35l-.12.16c.08-.09.13-.16.17-.26.02-.04.03-.08.05-.12l-.08.18c.05-.12.11-.23.18-.33l-.09.12h.01c.08-.11.14-.21.16-.34.02-.12,0-.26-.07-.36-.14-.21-.39-.33-.64-.26h0Z"/>
      <path class="cls-4" d="M305.28,380.26s-.03-.03-.05-.05l.09.12v-.02s-.07-.08-.11-.13c-.06-.06-.12-.1-.2-.13-.14-.06-.26-.06-.41-.03h-.01c.06,0,.11-.01.17-.02h-.01c.06,0,.11.01.17.02-.17-.02-.34-.05-.51-.03s-.35.04-.51.1l.23-.03c-.15,0-.22.02-.34.07-.07.02-.14.06-.19.11-.03.02-.06.05-.09.07l.17-.13c-.29.19-.49.4-.69.68l.14-.19c-.16.17-.22.34-.31.55-.02.06-.04.11-.06.17-.06.2-.08.4-.11.61-.04.34,0,.69.07,1.02s.19.67.34.98c.06.12.13.23.2.34.12.17.24.33.39.48.29.29.62.49,1,.63s.81.13,1.21.06c.22-.04.42-.13.62-.22.15-.07.29-.15.42-.25.22-.16.42-.33.61-.52.21-.22.4-.46.58-.71.25-.33.45-.69.64-1.06.18-.34.35-.69.56-1.02.05-.08.1-.15.16-.22l-.15.19c.1-.13.21-.25.34-.35l-.19.15c.07-.06.15-.1.23-.14l-.22.09c.07-.03.15-.05.22-.06l-.25.03c.08-.01.16,0,.24,0l-.25-.03c.1.01.2.04.29.08l-.23-.1c.16.07.31.16.45.27l-.19-.15c.21.17.41.36.58.57l-.15-.19c.12.15.21.31.29.49l-.1-.23c.07.18.12.37.15.56l-.03-.25c.03.25.03.51,0,.77l.03-.25c-.05.4-.17.79-.33,1.16l.1-.23c-.16.38-.36.75-.59,1.1-.07.11-.11.23-.11.36-.03.13-.02.26.02.39.06.22.24.47.45.58.22.12.5.18.75.1s.44-.22.58-.45c.2-.32.38-.65.53-1,.19-.44.36-.88.44-1.35.04-.27.08-.54.08-.81s-.04-.54-.1-.8-.17-.52-.3-.76c-.05-.09-.1-.17-.16-.25-.11-.15-.22-.29-.34-.42-.2-.21-.42-.39-.65-.56-.2-.15-.41-.25-.64-.34-.19-.08-.4-.11-.61-.13-.06,0-.12,0-.17,0-.13.02-.27.03-.4.07-.73.23-1.2.86-1.56,1.5-.29.52-.52,1.08-.87,1.57-.06.08-.11.16-.17.23l.15-.19c-.22.29-.47.56-.76.78l.19-.15c-.16.12-.33.23-.52.31l.22-.09c-.13.06-.27.1-.41.12l.25-.03c-.12.02-.24.02-.37,0l.25.03c-.12-.02-.24-.05-.35-.1l.23.1c-.12-.05-.24-.12-.34-.2l.19.15c-.14-.11-.26-.23-.36-.37l.15.19c-.15-.19-.27-.41-.36-.63l.1.23c-.1-.24-.17-.49-.2-.75l.03.25c-.03-.22-.03-.44,0-.67l-.03.25c.02-.16.06-.32.12-.47l-.09.22c.05-.13.11-.26.16-.38l-.09.22c.04-.1.1-.2.17-.29l-.14.18s.03-.04.05-.06c0,0,.02-.02.03-.03.03-.03.02-.02.08-.1.05-.05.09-.12.11-.19.02-.03.04-.07.04-.11l-.09.2s.04-.05.06-.08l-.13.17c.07-.09.15-.17.23-.23l-.14.11c.06-.05.13-.09.19-.13l-.15.06s.01,0,.02,0l.15-.06c.07-.04.13-.09.18-.16.09-.12.12-.23.14-.38h0c-.03.09-.05.18-.08.28.01-.02.02-.04.04-.05.06-.09.07-.21.06-.31-.01-.11-.06-.2-.14-.28h0Z"/>
    </g>
  </g>
</svg>