<?xml version="1.0" encoding="UTF-8"?>
<svg id="Layer_1" data-name="Layer 1" xmlns="http://www.w3.org/2000/svg" xmlns:xlink="http://www.w3.org/1999/xlink" viewBox="0 0 384.67 508.86">
  <defs>
    <style>
      .cls-1 {
        fill: #80acff;
      }

      .cls-2 {
        fill: #f5f6dd;
      }

      .cls-3 {
        fill: #e2f6eb;
      }

      .cls-4 {
        fill: #c7966e;
      }

      .cls-5 {
        clip-path: url(#clippath-1);
      }

      .cls-6 {
        fill: #28318c;
      }

      .cls-7 {
        clip-path: url(#clippath);
      }
    </style>
    <clipPath id="clippath">
      <path class="cls-4" d="M315.1,381.77c0,2.32-1.4,4.41-3.55,5.29s-4.26,1.68-6.33,2.53c-2.23.92-5.14,2.48-7.81,3.5.03,1.31.05,2.58-.02,3.68-.1,1.67-1.49,2.97-3.16,2.97H97.11c-1.78,0-3.25-1.48-3.15-3.28.15-3.41-.4-8.36-.4-10.57v-52.65c0-21.79,1.28-43.65.35-65.45-.38-9.44.35-18.76.35-28.19s-1.03-18-1.03-27.06c0-16.22.68-32.33.68-48.53v-26.14c0-5.14.6-11.59.33-16.82-.1-1.8,1.35-3.28,3.15-3.28h197.15c1.65,0,3.05,1.26,3.15,2.91.31,5.29-.3,11.93-.3,17.19v26.14c0,16.2-.7,32.32-.7,48.53,0,9.06,1.03,18,1.05,27.06,0,9.42-.75,18.75-.35,28.19.42,9.84.38,19.7.23,29.55,3.48,1.98,7.58,4.53,8.66,5.19,1.23.75,3.77,2.24,5.81,3.41,1.79,1.03,2.88,2.92,2.86,4.99-.09,14.56.16,57.16.15,70.84Z"/>
    </clipPath>
    <clipPath id="clippath-1">
      <path class="cls-2" d="M270.46,413.74c1.2-.11,2.09-1.17,1.99-2.37l-1.21-13.84c-1.06-12.14-2.12-24.27-3.18-36.41-1.9-21.72-2.54-43.61-5.35-65.24-1.22-9.36-1.29-18.73-2.11-28.1-.79-9.03-2.61-17.85-3.4-26.87-1.41-16.15-2.12-32.27-3.53-48.41-.77-8.8-1.51-17.31-2.28-26.04-.49-5.55-.41-12.69-1.34-18.05-.19-1.12-1.22-1.91-2.35-1.81l-176.14,15.4c-1.27.11-2.17,1.27-1.96,2.53.87,5.32.81,12.27,1.28,17.71.76,8.72,1.51,17.24,2.28,26.04,1.41,16.14,2.12,32.26,3.53,48.41.79,9.02,2.61,17.84,3.4,26.87s.89,18.74,2.11,28.1c2.81,21.63,3.45,43.52,5.35,65.24,1.06,12.14,2.12,24.27,3.18,36.41l1.21,13.84c.11,1.2,1.17,2.09,2.37,1.99l176.16-15.4Z"/>
    </clipPath>
  </defs>
  <g>
    <path class="cls-3" d="M313.09,347.04c1.2-.09,2.1-1.15,2.01-2.35l-1.09-13.85c-.96-12.15-1.91-24.29-2.87-36.44-1.71-21.74-2.16-43.63-4.79-65.29-1.14-9.37-1.12-18.74-1.86-28.12-.71-9.03-2.45-17.87-3.16-26.9-1.27-16.16-1.84-32.29-3.11-48.43-.69-8.81-1.36-17.33-2.05-26.06-.44-5.56-.3-12.69-1.18-18.06-.19-1.13-1.2-1.92-2.34-1.83l-176.27,13.87c-1.27.1-2.18,1.25-1.98,2.51.82,5.33.7,12.28,1.13,17.72.69,8.73,1.36,17.25,2.05,26.06,1.27,16.15,1.84,32.27,3.11,48.43.71,9.03,2.45,17.87,3.16,26.9s.73,18.75,1.86,28.12c2.63,21.66,3.08,43.55,4.79,65.29.96,12.15,1.91,24.29,2.87,36.44l1.09,13.85c.09,1.2,1.15,2.1,2.35,2.01l176.28-13.87Z"/>
    <path class="cls-2" d="M307.55,368.05c1.21,0,2.19-.98,2.19-2.19v-50.44c0-21.8,1.27-43.66.35-65.46-.4-9.43.35-18.77.35-28.18s-1.04-18.01-1.04-27.07c0-16.21.7-32.33.7-48.53v-26.14c0-5.58.7-12.67.24-18.1-.1-1.14-1.05-2-2.19-2h-176.81c-1.28,0-2.27,1.08-2.17,2.35.4,5.38-.27,12.3-.27,17.75v26.14c0,16.2-.7,32.32-.7,48.53,0,9.05,1.04,18,1.04,27.07s-.75,18.75-.35,28.18c.92,21.8-.35,43.66-.35,65.46v50.44c0,1.21.98,2.19,2.19,2.19h176.83Z"/>
    <g>
      <path class="cls-4" d="M315.1,381.77c0,2.32-1.4,4.41-3.55,5.29s-4.26,1.68-6.33,2.53c-2.23.92-5.14,2.48-7.81,3.5.03,1.31.05,2.58-.02,3.68-.1,1.67-1.49,2.97-3.16,2.97H97.11c-1.78,0-3.25-1.48-3.15-3.28.15-3.41-.4-8.36-.4-10.57v-52.65c0-21.79,1.28-43.65.35-65.45-.38-9.44.35-18.76.35-28.19s-1.03-18-1.03-27.06c0-16.22.68-32.33.68-48.53v-26.14c0-5.14.6-11.59.33-16.82-.1-1.8,1.35-3.28,3.15-3.28h197.15c1.65,0,3.05,1.26,3.15,2.91.31,5.29-.3,11.93-.3,17.19v26.14c0,16.2-.7,32.32-.7,48.53,0,9.06,1.03,18,1.05,27.06,0,9.42-.75,18.75-.35,28.19.42,9.84.38,19.7.23,29.55,3.48,1.98,7.58,4.53,8.66,5.19,1.23.75,3.77,2.24,5.81,3.41,1.79,1.03,2.88,2.92,2.86,4.99-.09,14.56.16,57.16.15,70.84Z"/>
      <g class="cls-7">
        <path class="cls-6" d="M154.14,365.72c.1,0,.19,0,.28.02l-.24-.03c.23.03.46.1.68.19l-.21-.09c.42.18.79.44,1.15.71l-.18-.14c.29.22.56.45.84.69.14.12.28.24.43.35.13.1.25.2.39.29.02.01.04.03.06.04.16.1.31.12.49.13.11,0,.2-.01.32-.03.11-.03.2-.07.28-.15.09-.06.16-.13.21-.23l.08-.2c.04-.15.04-.29,0-.44,0-.03-.02-.06-.03-.09-.06-.17-.11-.29-.24-.42-.01-.01-.03-.03-.05-.04-.12-.1-.24-.2-.36-.29l.19.14c-.51-.39-.99-.81-1.51-1.19-.47-.35-.97-.65-1.53-.84-.13-.04-.26-.08-.39-.1-.21-.04-.43-.07-.64-.06-.23,0-.47.1-.63.26-.09.08-.15.18-.18.29-.06.11-.08.22-.08.34.01.23.09.47.26.63s.39.26.63.26h0Z"/>
        <path class="cls-6" d="M272.84,167.08s-.02,0-.03.01h.25l-.04-.02c-.17-.09-.38-.11-.54,0-.06.04-.12.07-.17.11l.47-.06-.07-.03c-.14-.04-.28-.04-.42,0-.13.04-.25.1-.35.2-.09.08-.18.16-.26.23s-.17.16-.25.25c-.17.18-.34.37-.51.55-.36.38-.73.76-1.1,1.15-.69.72-1.38,1.46-2.02,2.23-.19.23-.38.47-.56.71-.06.08-.13.16-.18.25-.02.04-.05.08-.07.13,0,.02-.02.04-.03.05-.04.07-.09.19-.1.23-.04.17-.03.31,0,.49.03.12.08.22.16.31.06.1.15.17.25.23.21.11.46.16.69.09.16-.05.31-.12.42-.25.06-.06.11-.14.16-.21.02-.03.04-.05.06-.08l-.14.19c.19-.25.37-.5.56-.75l-.14.19c.49-.63,1.02-1.23,1.56-1.82.6-.66,1.19-1.32,1.78-1.99.15-.18.31-.35.46-.53.19-.22.34-.46.5-.7.15-.23.14-.56,0-.79l-.03-.05.06.47c.02-.06.05-.13.07-.19.07-.18-.02-.38-.14-.52l-.02-.03.06.24s0-.02,0-.03c.05-.2-.16-.36-.34-.26h0Z"/>
        <path class="cls-6" d="M138.59,137.89c.03.08.07.15.11.23l-.05-.12s0,.03,0,.04c0,0,0,0,0,.01l.06.13s0,.02.01.02c.02.03.03.05.05.08.03.06.07.11.1.17v-.63c-.06.12-.12.24-.1.38.03.29,0,.12.03.2.04.14.09.21.19.32.03.03.05.06.08.09.05.05.1.1.15.16.1.1.2.21.31.3.27.22.56.44.86.63.13.08.27.16.41.24.09.06.19.09.3.1.11.02.22.02.32-.01.11-.03.2-.07.28-.14.09-.06.16-.13.21-.23l.08-.19c.04-.14.04-.29,0-.43l-.08-.19c-.07-.12-.17-.22-.29-.29-.22-.1-.44-.21-.64-.34s-.41-.27-.61-.41c-.11-.08-.23-.16-.34-.24l.15.11s-.08-.07-.13-.1c0,0-.02-.02-.03-.02,0,0,0,0-.01-.01-.02-.02-.05-.04-.08-.06-.04-.04-.1-.07-.16-.09-.11-.05-.07-.03-.19-.05.01,0-.07-.01-.1-.01-.03,0-.06,0-.1.01-.06,0-.12.02-.18.05-.08.03-.06.02-.1.04h.63c-.05-.03-.1-.07-.16-.11-.02-.02-.05-.03-.07-.05-.03-.02-.06-.03-.1-.05-.04-.02-.07-.03-.1-.04l.13.05s-.09-.06-.13-.09l.1.08s-.05-.04-.07-.06c-.04-.05-.09-.08-.15-.1-.06-.03-.11-.04-.18-.04l-.12.02c-.06.01-.11.04-.16.08-.03.02-.06.05-.08.08-.04.04-.07.1-.08.16l-.02.12c0,.08.02.16.06.23h0Z"/>
        <path class="cls-6" d="M308.43,377.37s-.07-.04-.1-.05l.31.31h0c-.05-.07-.09-.13-.14-.19-.08-.09-.18-.15-.29-.18-.07-.04-.14-.06-.22-.06-.12-.03-.24-.02-.35.02h-.01c.08,0,.16-.02.24-.03-.08,0-.15,0-.23,0-.16,0-.32.03-.48.06-.19.04-.38.07-.57.11-.42.09-.84.17-1.26.25-.24.04-.48.08-.72.12l.25-.03c-.24.03-.48.06-.72.07-.2,0-.4.01-.6-.01l.25.03c-.1-.01-.21-.04-.31-.08l.22.09c-.09-.04-.18-.09-.27-.15l.19.14c-.09-.07-.17-.15-.24-.24l.14.19c-.09-.11-.15-.23-.21-.36l.09.22c-.08-.19-.13-.39-.16-.6l.03.24c-.04-.3-.03-.61,0-.91l-.03.24c.05-.34.14-.68.27-1l-.09.21c.11-.25.24-.49.4-.7l-.14.18c.11-.14.24-.27.38-.39l-.17.13c.16-.12.33-.22.51-.29l-.2.09c.25-.11.52-.17.79-.21l-.22.03c.32-.04.65-.04.97,0l-.22-.03c.31.04.62.12.91.25l-.19-.08c.15.07.31.14.44.24l-.16-.12c.11.09.21.19.3.3l-.12-.16c.13.17.23.35.31.55l-.08-.18c.19.46.29.96.36,1.46l-.03-.2c.06.44.09.88.15,1.32l-.03-.2c.03.22.01.2.11.4,0,0,0,.02.01.02,0,.01.01.03.02.04.04.08.09.16.15.21l-.18-.31s0,0,0,0c.05.17.17.33.32.42s.37.12.54.07.33-.16.42-.32.12-.35.07-.54c0,0,0,0,0,0l-.07.54s.03-.06.04-.09c.04-.08.06-.17.06-.27,0,0,0,0,0-.01,0,0,0-.02,0-.03l-.03.19s0-.06.01-.09c.02-.11.03-.2.02-.31,0-.1-.02-.19-.02-.29-.02-.25-.04-.5-.07-.75-.04-.35-.09-.7-.17-1.04s-.2-.67-.35-.98c-.06-.13-.14-.26-.23-.38-.08-.11-.16-.22-.26-.31s-.21-.18-.32-.27l.16.12c-.23-.21-.51-.39-.8-.51-.18-.08-.36-.15-.55-.2-.13-.03-.26-.06-.39-.08-.34-.05-.68-.08-1.02-.05s-.66.08-.97.18c-.57.19-1.09.5-1.47.98-.18.23-.34.45-.47.71s-.24.54-.33.83-.13.6-.17.9c-.02.22-.03.44-.01.66.02.28.06.56.15.83.06.16.12.32.2.48s.19.28.29.41c.06.07.12.14.19.2.13.11.26.21.41.29.14.07.28.14.43.18s.32.06.48.08c.5.06,1.01-.02,1.5-.09s1-.18,1.5-.28c.23-.05.47-.1.7-.15.11-.02.22-.04.32-.07.1-.02.19-.04.29-.07.04-.01.08-.02.12-.03.02,0,.04-.01.06-.02.15-.04.29-.12.4-.23.14-.14.16-.22.23-.4l-.22.38s.06-.05.09-.07c.1-.1.17-.22.2-.35.03-.11.04-.21.01-.32,0-.11-.04-.2-.09-.29-.07-.12-.16-.21-.28-.28h0Z"/>
        <path class="cls-6" d="M302.68,366.29c-.31.25-.58.56-.78.9-.1.18-.19.38-.25.57s-.08.41-.09.62c-.01.35.05.72.16,1.05.07.2.15.39.26.58s.24.36.37.52c.23.3.51.54.81.76.25.19.52.35.81.48.35.15.69.28,1.06.33.22.03.43.06.65.05s.43-.03.64-.07c.15-.03.29-.07.44-.13.2-.08.4-.17.59-.29.4-.26.71-.58.99-.97s.46-.81.6-1.24c.06-.17.1-.35.13-.53.04-.23.07-.46.07-.69s-.03-.45-.07-.67c-.03-.15-.07-.29-.12-.44-.07-.2-.16-.39-.26-.57s-.23-.35-.36-.5c-.22-.27-.5-.5-.8-.68s-.63-.33-.97-.43-.72-.15-1.08-.14c-.22,0-.44.03-.65.07-.15.02-.31.06-.46.11-.37.12-.73.29-1.05.51-.19.14-.38.29-.55.45-.18.17-.34.37-.49.57s-.28.43-.37.67l.08-.18c-.06.11-.1.24-.14.36s-.07.24-.07.37l.09-.34v.02c-.09.17-.13.33-.08.52.04.16.16.32.31.4.16.08.34.12.52.07.16-.05.33-.15.4-.31v-.02s-.06.09-.1.14c.06-.05.1-.13.15-.19l-.11.14c.1-.13.23-.25.31-.39l-.12.15c.09-.11.17-.23.26-.35l-.12.16c.1-.14.21-.27.31-.41l-.12.16c.19-.25.41-.48.66-.67l-.16.12c.22-.17.45-.31.71-.41l-.19.08c.25-.11.52-.18.79-.22l-.21.03c.27-.04.54-.04.81,0l-.21-.03c.27.04.53.11.77.21l-.19-.08c.23.1.45.22.65.38l-.16-.12c.18.14.35.31.49.49l-.12-.16c.13.17.24.36.33.56l-.08-.19c.09.21.15.43.18.65l-.03-.21c.03.25.03.5,0,.75l.03-.21c-.04.32-.13.62-.26.92l.08-.19c-.13.3-.28.59-.48.85l.12-.16c-.14.18-.3.34-.47.48l.16-.12c-.16.12-.34.23-.52.31l.19-.08c-.2.08-.4.14-.61.17l.21-.03c-.25.03-.49.03-.74,0l.21.03c-.3-.04-.58-.12-.86-.24l.18.08c-.3-.13-.59-.3-.85-.5l.16.12c-.24-.19-.46-.41-.65-.65l.12.16c-.18-.24-.33-.5-.44-.77l.08.18c-.08-.2-.14-.4-.17-.61l.03.2c-.02-.18-.03-.36,0-.55l-.03.19c.02-.13.03-.26.04-.39l-.02.18c.03-.2.08-.4.16-.59l-.06.15c.1-.23.23-.45.38-.65.07-.1.09-.29.05-.4s-.1-.2-.19-.27-.2-.12-.32-.11l-.14.02c-.09.02-.17.07-.23.13h0Z"/>
        <path class="cls-6" d="M303.12,357.5s-.09.02-.13.02l.15-.02c-.13.01-.25.03-.38.06l.18-.02c-.13,0-.24.04-.35.09-.01,0-.02.01-.04.02-.03.01-.05.03-.08.04-.05.03-.09.05-.14.09-.09.06-.19.12-.27.21s-.14.18-.21.27c-.06.08-.11.16-.15.25-.06.14-.14.29-.17.44s-.05.32-.06.48.02.32.05.48c.04.26.14.5.25.73.08.19.19.36.31.53.17.23.35.45.55.65s.45.39.68.56c.18.13.38.25.58.35.26.13.53.24.8.33s.54.13.82.16.55,0,.83-.04c.24-.03.48-.1.71-.19.28-.11.54-.23.78-.41s.45-.35.64-.57.35-.45.48-.71.23-.52.29-.79c.13-.56.13-1.15-.02-1.71-.03-.11-.07-.22-.11-.33-.07-.17-.14-.34-.23-.5-.15-.27-.34-.52-.55-.75-.08-.09-.19-.17-.3-.23-.2-.11-.41-.14-.63-.08-.02,0-.04,0-.05.02-.11.03-.21.09-.29.17-.08.08-.14.18-.17.29,0,.01,0,.02,0,.04-.03.15-.05.28,0,.44.05.16.16.33.27.46.07.08.14.16.21.24l-.13-.16c.15.19.27.41.37.63l-.08-.19c.09.22.16.45.19.69l-.03-.22c.03.23.03.47,0,.71l.03-.22c-.03.24-.1.47-.19.7l.08-.2c-.09.22-.21.42-.35.6l.13-.17c-.14.18-.3.34-.48.48l.17-.13c-.19.15-.39.26-.61.36l.2-.08c-.24.1-.49.17-.75.2l.22-.03c-.22.03-.44.03-.67,0l.22.03c-.3-.04-.59-.13-.87-.25l.2.08c-.37-.16-.71-.36-1.03-.6l.17.13c-.28-.21-.53-.46-.74-.74l.13.17c-.15-.2-.28-.41-.38-.64l.08.2c-.07-.16-.12-.33-.14-.5l.03.22c-.02-.14-.02-.28,0-.41l-.03.22c.02-.12.04-.24.05-.36l-.03.22c.02-.11.05-.23.1-.33l-.08.19c.04-.1.09-.19.15-.27l-.12.16c.09-.12.18-.21.21-.36l-.08.18c.05-.11.11-.21.18-.31l-.11.14c.07-.08.11-.14.15-.23.02-.04.03-.07.04-.1l-.07.16c.04-.1.09-.2.16-.29l-.08.1h.01c.07-.1.12-.19.14-.3.01-.11,0-.23-.06-.32-.12-.19-.34-.29-.56-.23h0Z"/>
        <path class="cls-6" d="M303.48,350.37s-.03-.03-.04-.04l.08.1v-.02s-.07-.07-.09-.11c-.05-.05-.11-.09-.18-.11-.12-.05-.23-.05-.36-.03h0s.1-.01.15-.02h0s.1.01.15.02c-.15-.02-.3-.04-.45-.03s-.3.03-.45.09l.2-.03c-.14,0-.19.02-.3.06-.06.02-.12.05-.17.1-.03.02-.06.04-.08.06l.15-.12c-.25.16-.43.35-.61.59l.13-.16c-.14.15-.19.3-.27.49-.02.05-.04.1-.05.15-.05.17-.07.35-.09.53-.03.3,0,.6.06.9s.17.59.3.86c.05.1.11.2.18.3.1.15.21.29.34.42.26.25.55.43.88.55s.71.12,1.07.06c.19-.03.37-.11.54-.19.13-.06.25-.13.37-.22.19-.14.37-.29.54-.46.19-.19.35-.41.51-.62.22-.29.39-.61.56-.93.16-.3.31-.61.5-.9.04-.07.09-.13.14-.2l-.13.17c.09-.11.18-.22.3-.3l-.17.13c.06-.05.13-.09.21-.12l-.2.08c.06-.03.13-.04.2-.05l-.22.03c.07,0,.14,0,.21,0l-.22-.03c.09.01.17.04.26.07l-.2-.08c.14.06.27.14.39.24l-.17-.13c.19.15.36.31.51.5l-.13-.17c.1.13.19.28.25.43l-.08-.2c.07.16.11.32.13.49l-.03-.22c.03.22.03.45,0,.67l.03-.22c-.05.35-.15.69-.29,1.02l.09-.2c-.14.34-.32.66-.52.97-.06.1-.1.2-.1.32-.03.11-.02.23.02.34.05.2.21.41.39.51.2.1.44.16.66.09s.39-.2.51-.39c.18-.28.34-.58.47-.88.17-.39.32-.77.39-1.19.04-.24.07-.48.07-.72s-.03-.48-.09-.7-.15-.46-.26-.67c-.04-.08-.09-.15-.14-.22-.09-.13-.19-.26-.3-.37-.18-.18-.37-.34-.57-.49-.18-.13-.36-.22-.57-.3-.17-.07-.35-.1-.54-.11-.05,0-.1,0-.15,0-.12.01-.24.02-.35.06-.64.21-1.06.75-1.37,1.32-.25.46-.46.95-.76,1.38-.05.07-.1.14-.15.2l.13-.17c-.2.25-.41.49-.67.69l.17-.13c-.14.11-.29.2-.45.27l.2-.08c-.12.05-.24.08-.36.1l.22-.03c-.11.01-.21.01-.32,0l.22.03c-.1-.01-.21-.04-.3-.08l.2.08c-.11-.05-.21-.11-.3-.18l.17.13c-.12-.09-.23-.2-.32-.32l.13.17c-.13-.17-.24-.36-.32-.56l.08.2c-.09-.21-.15-.43-.18-.66l.03.22c-.03-.19-.03-.39,0-.58l-.03.22c.02-.14.05-.28.11-.41l-.08.19c.05-.11.1-.22.14-.34l-.08.19c.04-.09.09-.18.15-.26l-.12.16s.03-.04.04-.05c0,0,.01-.02.02-.02.03-.03.02-.02.07-.08.05-.05.08-.1.1-.17.02-.03.03-.06.04-.1l-.08.18s.03-.05.05-.07l-.11.15c.06-.08.13-.15.2-.2l-.13.1c.05-.04.11-.08.17-.11l-.13.06s.01,0,.02,0l.13-.06c.06-.03.12-.08.16-.14.08-.1.11-.2.12-.34h0c-.02.08-.05.16-.07.25,0-.02.02-.03.03-.05.05-.08.06-.19.05-.28-.01-.09-.05-.18-.12-.25h0Z"/>
      </g>
    </g>
  </g>
  <g>
    <path class="cls-2" d="M270.46,413.74c1.2-.11,2.09-1.17,1.99-2.37l-1.21-13.84c-1.06-12.14-2.12-24.27-3.18-36.41-1.9-21.72-2.54-43.61-5.35-65.24-1.22-9.36-1.29-18.73-2.11-28.1-.79-9.03-2.61-17.85-3.4-26.87-1.41-16.15-2.12-32.27-3.53-48.41-.77-8.8-1.51-17.31-2.28-26.04-.49-5.55-.41-12.69-1.34-18.05-.19-1.12-1.22-1.91-2.35-1.81l-176.14,15.4c-1.27.11-2.17,1.27-1.96,2.53.87,5.32.81,12.27,1.28,17.71.76,8.72,1.51,17.24,2.28,26.04,1.41,16.14,2.12,32.26,3.53,48.41.79,9.02,2.61,17.84,3.4,26.87s.89,18.74,2.11,28.1c2.81,21.63,3.45,43.52,5.35,65.24,1.06,12.14,2.12,24.27,3.18,36.41l1.21,13.84c.11,1.2,1.17,2.09,2.37,1.99l176.16-15.4Z"/>
    <g class="cls-5">
      <path class="cls-1" d="M199.12,166.4s-.02.03-.02.04l.07-.09c-.1.08-.14.23-.14.34l.07-.24s-.02.03-.03.05l.09-.11c-.07.06-.1.12-.13.2-.03.05-.04.1-.04.15-.01.03-.01.06,0,.09l.02-.16s-.03.07-.04.11c0,0,0,.01,0,.02v.1c-.03.1-.03.19,0,.29,0,.01,0,.03.01.04,0,.03.02.06.03.08.06.18.13.36.21.53.11.23.24.45.35.67.05.1.11.21.16.31.08.13.19.24.32.32.14.08.29.12.45.12.32,0,.61-.17.77-.44.09-.15.19-.3.3-.44l-.15.19c.06-.08.14-.16.22-.23l-.19.15c.05-.04.11-.07.17-.1l-.22.09c.06-.02.12-.04.18-.05l-.25.03c.15-.02.29,0,.44.02.18.02.36.03.55.02.22,0,.44-.03.63-.14.01,0,.02-.01.04-.02.04-.02.06-.05.1-.08.04-.02.07-.05.1-.08.09-.08.15-.18.18-.29.06-.14.08-.16.08-.35s-.02-.21-.08-.34l-.05-.11c-.06-.1-.13-.19-.23-.25-.03-.03-.06-.05-.1-.07-.07-.03-.15-.06-.22-.09l.22.09s-.03-.01-.04-.02c-.07-.03-.16-.08-.23-.1-.04-.01-.18-.03-.27-.03-.03,0-.06,0-.09,0-.06,0-.12,0-.18,0-.11,0-.22-.02-.32-.04l.25.03c-.18-.02-.37-.05-.55-.05-.17,0-.35.02-.52.06-.12.03-.24.09-.35.14-.04.02-.08.04-.12.07-.1.08-.22.16-.31.25-.1.1-.18.21-.26.33-.16.22-.25.47-.35.72l1.64-.21c-.12-.19-.26-.37-.39-.55-.08-.1-.16-.21-.23-.32-.11-.15-.24-.29-.36-.44-.02-.03-.04-.05-.06-.08-.01-.01-.02-.03-.03-.04,0,0,0,0-.01-.01-.02-.03-.05-.05-.08-.06-.07-.06-.15-.11-.25-.13-.04-.01-.08-.02-.12-.03l.26.15s-.04-.04-.06-.05c-.06-.05-.12-.09-.2-.11l-.16-.02c-.05,0-.11.01-.16.02h.3s-.04,0-.06,0l.21.12c-.05-.06-.09-.08-.16-.1-.06-.02-.12-.04-.19-.04l.12.02h0s.07.03.11.04c-.02,0-.03-.01-.05-.02-.09-.05-.21-.07-.31-.04s-.18.09-.24.19h0Z"/>
      <path class="cls-1" d="M206.09,166.16s0,.06-.02.08c.05-.11.05-.09-.03.07-.03.19-.03.21,0,.07,0,.02,0,.04-.01.07-.03.11-.06.23-.06.35-.01.35.17.64.41.89.28.3.71.23,1,0-.2.16,0,.01.06-.02.04-.02.07-.04.11-.06l.04-.02c.06-.03.05-.02,0,0-.11.05-.07.03.13-.06.02-.01.04-.02.06-.03.04-.02.07-.04.11-.05.09-.04.18-.09.27-.13.37-.18.73-.38,1.03-.67l-1.36-.36c.23.79.77,1.47,1.52,1.81s1.58.44,2.4.36c.92-.09,1.78-.36,2.62-.74.72-.33,1.42-.77,2-1.31s1.12-1.35,1.11-2.21c0-.4-.29-.83-.7-.92s-.88.05-1.08.44c-.33.66-.48,1.4-.13,2.08.26.5.79.83,1.33.95,1.13.25,2.43-.07,3.39-.7.61-.4,1.2-.97,1.4-1.7.12-.44-.11-.89-.52-1.06s-.9-.03-1.12.37c-.05.09-.1.17-.16.26-.03.04-.05.09-.08.13,0,.01-.04.07-.05.07.02,0,.18-.22.07-.09-.07.08-.14.16-.22.23-.04.04-.08.07-.12.11-.03.03-.12.1.02-.01.15-.12.02-.02,0,0-.18.13-.38.24-.58.34-.03.01-.05.02-.08.03-.13.06.22-.09.12-.05-.05.02-.1.04-.15.06-.11.04-.22.07-.33.1-.1.03-.21.05-.32.07-.05.01-.1.02-.16.03-.15.03.27-.03.12-.02-.03,0-.06,0-.09,0-.2.02-.41.02-.61,0-.07,0-.17-.04.17.02-.03,0-.05,0-.08-.01-.04,0-.08-.02-.13-.03-.04,0-.07-.02-.11-.03-.02,0-.04-.01-.06-.02-.14-.05.13.05.14.06,0-.02-.17-.09-.2-.11-.11-.06.21.18.12.1,0,0-.02-.02-.03-.03-.03-.03-.06-.06-.09-.09.2.19.14.18.07.07,0-.01-.01-.03-.02-.04.17.26.08.23.06.13-.01-.05-.04-.22-.01,0s0,.04,0-.01c0-.12.06-.26-.02.07.01-.06.02-.11.04-.17.02-.06.04-.12.06-.18,0-.02.02-.04.02-.06-.11.32-.06.15-.02.07l-1.78-.48c0,.06,0,.11,0,.16,0,.14.05-.28.02-.15,0,.03-.01.07-.02.1-.01.05-.03.1-.05.16,0,.03-.02.05-.03.08.12-.34.08-.19.04-.1-.06.12-.13.23-.21.34-.03.04-.11.15,0,0s.03-.04,0,0c-.05.06-.1.12-.15.17-.1.11-.22.22-.33.32-.06.05-.12.1-.18.15-.13.1.19-.14.07-.06-.04.03-.08.06-.12.09-.29.2-.59.39-.9.55-.16.08-.32.16-.49.23-.13.06.23-.09.07-.03-.04.02-.08.03-.12.05-.09.04-.18.07-.27.1-.34.12-.69.22-1.05.29-.09.02-.17.03-.26.05-.04,0-.08.01-.12.02-.1.02.24-.03.14-.02-.03,0-.06,0-.08.01-.17.02-.33.03-.5.03s-.32,0-.48-.02c-.19-.02.19.03.08.01-.03,0-.07-.01-.11-.02-.08-.01-.16-.03-.23-.05s-.16-.05-.24-.07c-.02,0-.04-.01-.05-.02-.1-.03.13.05.13.05,0,0-.11-.05-.12-.05-.07-.04-.14-.08-.21-.12-.03-.02-.06-.04-.09-.06-.09-.06.12.08.1.08,0,0-.05-.04-.05-.04-.06-.05-.12-.11-.17-.17-.03-.03-.05-.06-.07-.09.19.2.09.11.04.04s-.09-.14-.13-.22c-.02-.04-.03-.07-.05-.11-.05-.1.05.12.05.11-.02-.02-.02-.06-.03-.09-.1-.27-.28-.49-.57-.57-.27-.07-.6,0-.79.21-.05.06-.14.11-.18.17.04-.07.14-.1.02-.02-.03.02-.07.05-.1.07-.16.1-.33.2-.49.29-.32.18-.66.38-.91.66l.86-.11c.12.09,0,0-.02-.02-.11-.08.07.12.02.02.07.16.06.14-.02-.06l.05.11s-.02-.08-.02-.1c-.04-.24-.13-.41-.28-.6-.23-.3-.8-.13-.86.23h0Z"/>
      <path class="cls-1" d="M222.57,163.2c0,.39.04.8.18,1.17s.32.72.62.98c.14.12.29.24.46.32.27.12.47.18.77.2.4.02.81-.11,1.15-.3.07-.04.14-.09.21-.14.13-.1.26-.19.38-.31.2-.19.37-.42.53-.64h-1.74c.07.15.15.28.25.41.13.18.27.36.44.5.16.13.33.27.52.36s.38.17.59.21.42.07.64.07.44-.04.65-.08c.36-.07.7-.22,1.02-.38.15-.08.3-.17.44-.26s.27-.19.39-.31c.03-.03.06-.06.09-.09.15-.16.2-.26.28-.46,0-.02.02-.04.02-.07.11-.33-.01-.71-.25-.95-.12-.12-.26-.2-.43-.25-.17-.05-.35-.05-.52,0-.3.06-.53.26-.78.43-.18.12-.37.22-.56.3l.25-.1c-.21.09-.44.16-.67.19l.27-.04c-.16.02-.33.02-.49,0l.27.04c-.14-.02-.27-.05-.4-.11l.24.1c-.11-.05-.22-.11-.32-.19l.21.16c-.12-.09-.22-.2-.31-.31l.16.21c-.09-.12-.17-.25-.24-.39-.16-.31-.53-.5-.87-.5-.36,0-.69.19-.87.5-.06.11-.13.21-.21.3l.16-.2c-.11.15-.24.28-.39.4l.2-.15c-.11.08-.22.15-.35.21l.23-.1c-.1.04-.2.07-.31.08l.25-.03c-.11.01-.22,0-.33,0l.25.03c-.09-.01-.18-.04-.26-.07l.22.09c-.1-.04-.18-.09-.27-.16l.18.14c-.1-.08-.18-.17-.26-.26l.13.17c-.1-.14-.19-.29-.26-.45l.08.19c-.09-.21-.14-.43-.18-.65-.03-.16-.19-.36-.34-.44s-.3-.11-.47-.09c-.36.05-.63.35-.64.72h0Z"/>
      <path class="cls-1" d="M92.27,200.24c.27.56,1.01.66,1.55.5.19-.06.38-.14.55-.25.06-.04.12-.08.18-.13.02-.02.04-.03.07-.05.07-.05.13-.1.2-.15.07-.05.04-.03-.07.05.03,0,.14-.11.17-.12.06-.04.12-.07.18-.11.09-.05.15-.02-.05.01.03,0,.06-.02.09-.03.05-.01.09-.02.14-.04.08-.01.06-.01-.06,0,.04,0,.08,0,.11-.01.58-.06,1.15-.09,1.73-.1,1.05-.02,2.09-.1,3.14-.16s2.03-.13,3.03-.28,2.1-.41,3-.97l-1.11-.14c.8,1.03,2.09,1.24,3.3,1.04.45-.07.9-.21,1.33-.38.47-.19.96-.36,1.33-.7.53-.5.12-1.45-.59-1.43-.22,0-.42.04-.62.12-.17.07-.34.14-.51.2-.4.15-.81.29-1.23.38-.05.01-.11.02-.16.03-.21.04.12,0,.03,0-.11,0-.21.02-.32.02s-.21,0-.32,0c-.21,0,.12.03.03,0-.05-.01-.1-.02-.16-.03-.1-.02-.2-.06-.3-.09-.08-.02.2.11.02,0-.05-.03-.1-.05-.14-.08-.04-.03-.16-.14-.07-.04.1.11-.03-.03-.06-.06-.1-.09-.18-.19-.27-.29-.24-.3-.8-.34-1.11-.14-.17.11-.34.19-.52.28-.15.07-.03-.04.03-.01-.02,0-.11.05-.14.05-.11.04-.23.08-.34.12-.42.14-.86.23-1.3.31-.12.02-.24.04-.36.06-.04,0-.09,0-.13.02.23-.06.04,0-.02,0-.24.03-.49.06-.73.08-.46.04-.92.07-1.37.11-.98.07-1.95.16-2.93.19-.58.01-1.16.02-1.73.07-.52.05-1.07.12-1.52.42-.19.12-.36.27-.53.43-.06.06-.12.11-.18.17-.03.02-.05.04-.08.07-.13.12.14-.08.02-.01-.04.02-.18.14-.22.13-.02,0,.18-.06.06-.03-.06.01-.12.04-.18.05-.01,0-.09.03-.1.02.11-.01.12-.01.04,0-.08,0-.17.01-.25.04-.04,0-.07.02-.11.03-.07.02-.14.05-.2.09-.14.11-.16.13-.08.06-.23.18-.31.41-.18.68h0Z"/>
      <path class="cls-1" d="M113.18,196.75c.47.83,1.27,1.46,2.26,1.47s1.8-.58,2.37-1.29h-1.23c.42.34.87.61,1.39.77.43.13.89.18,1.34.17.89-.03,1.77-.26,2.63-.47.46-.11.93-.22,1.4-.29l-.24.03c.44-.06.89-.1,1.34-.07s.79-.35.85-.75-.2-.86-.62-.95c-.44-.09-.88-.13-1.33-.09s-.93.13-1.39.24c-.78.18-1.54.41-2.33.52l.24-.03c-.41.05-.84.07-1.25.02l.24.03c-.27-.04-.52-.11-.77-.21l.21.09c-.23-.1-.44-.23-.64-.38-.16-.12-.49-.15-.67-.09-.23.07-.38.21-.52.4l-.03.03.14-.18c-.18.23-.38.44-.61.62l.17-.13c-.17.13-.35.24-.54.32l.2-.09c-.17.07-.34.13-.53.15l.22-.03c-.15.02-.29.02-.44,0l.21.03c-.11-.02-.22-.05-.32-.08-.13-.04.08.03.08.03,0,0-.07-.03-.08-.04-.06-.03-.11-.06-.16-.09-.02-.02-.05-.03-.07-.05-.1-.07.01.02.05.04-.05-.03-.1-.09-.14-.13-.05-.05-.1-.1-.15-.16-.02-.03-.05-.05-.07-.08-.09-.1.09.12,0,0-.11-.15-.22-.26-.41-.32-.16-.05-.38-.02-.53.07-.32.2-.44.61-.25.94h0Z"/>
      <path class="cls-1" d="M129.5,196.01c.07-.06.13-.12.19-.18.03-.03.06-.06.09-.08.02-.02.16-.13.07-.06s.03-.02.05-.03c.04-.03.08-.05.12-.07.08-.05.16-.09.24-.13s.16-.08.24-.12c.15-.07-.13.05-.02,0,.05-.02.1-.04.15-.06.18-.07.37-.12.55-.17.4-.1.79-.22,1.19-.31s.81-.2,1.21-.33c.49-.16.97-.35,1.4-.62l-.96-.12c.44.44.99.79,1.6.94.56.14,1.1.11,1.66.03.45-.07.89-.19,1.34-.3.21-.05.42-.1.64-.13.03,0,.06,0,.08-.01.1-.02-.23.03-.1.01.04,0,.09,0,.13-.01.11,0,.22-.01.33-.01.06,0,.13,0,.19.01.19.02-.21-.04-.02,0,.12.02.23.06.34.09.11.04-.1-.04-.1-.04,0,.01.07.03.09.04.06.03.12.07.18.1.11.07.23.14.35.21.32.2.76.09.99-.2.25-.32.18-.7-.06-1.01-.35-.43-.91-.69-1.45-.77s-1.08-.04-1.62.07c-.43.09-.86.21-1.29.31-.11.02-.22.05-.33.06-.05,0-.1.02-.16.02.3-.05.06,0-.01,0-.22.02-.44.01-.66,0-.1,0,.23.04.09.01-.03,0-.07-.01-.1-.02-.06-.01-.11-.03-.17-.04-.07-.02-.14-.04-.2-.07-.02,0-.05-.02-.07-.03.24.08.11.05.05.02-.13-.06-.25-.14-.37-.22-.02-.02-.04-.03-.07-.05.2.13.07.05.03.02-.07-.06-.14-.12-.2-.18-.24-.24-.67-.32-.96-.12-.17.11-.36.21-.54.3-.05.02-.09.05-.14.06,0,0,.2-.08.08-.03-.02,0-.04.01-.06.02-.11.04-.21.08-.32.12-.4.14-.81.24-1.22.35-.83.21-1.68.43-2.38.94-.21.15-.4.32-.56.52-.18.23-.35.46-.41.74-.05.22.03.48.24.6s.45.07.64-.08h0Z"/>
      <path class="cls-1" d="M145.88,192.76c.43-.22.87-.44,1.31-.63.22-.1.44-.19.65-.28.12-.05.23-.1.35-.15-.1.04.05-.01.07-.02.06-.02.11-.04.17-.07l-.85-.48c.19.51.47,1.04.97,1.31.42.23.86.22,1.32.13.16-.03.31-.07.47-.11.09-.02.17-.04.26-.06.04,0,.08-.01.12-.02-.27.06-.09.01-.01,0,.26-.02.51.03.76-.03.29-.07.53-.25.75-.44.08-.07.16-.14.23-.21.04-.04.08-.07.12-.11.03-.03.17-.14.05-.05s.02,0,.05-.03c0,0,.07-.04.07-.04,0,0-.19.07-.12.05.15-.05-.21,0-.08,0,.03,0,.11.01-.03,0-.16-.02-.03,0,0,0,.02,0,.04.01.06.02.1.02-.18-.1-.1-.04.03.02.15.1.02,0s0,0,.02.03c.03.03.06.07.1.11.04.04.11.14-.07-.09,0,0,.23.3.09.12-.1-.13,0,0,.02.03.09.12.18.24.27.35.17.21.39.37.64.47.3.13.63.14.96.17.61.06,1.21.1,1.82.12.71.02,1.41.02,2.12-.03.4-.02.8-.08,1.19-.13.46-.06.86-.17,1.2-.52.31-.31.31-.99-.15-1.18-.2-.08-.36-.15-.57-.18-.11-.01-.2-.02-.31-.01-.09,0-.19.02-.28.04-.06,0-.22.01.02,0-.29.02-.58.06-.88.09-.61.05-1.21.09-1.82.1s-1.17,0-1.76-.04c-.29-.01-.58-.03-.87-.06-.03,0-.06,0-.09,0-.11,0,.13.01.13.02,0,.01-.25-.09-.04,0,.16.07.02,0-.02-.02-.1-.05.16.15.06.04-.28-.29-.48-.61-.82-.84-.5-.33-1.2-.35-1.69,0-.21.15-.39.32-.57.51-.07.07-.14.13-.21.2-.13.12.13-.07.03-.02-.08.04-.19.06.04,0-.11.03.2,0,.1-.01-.05,0-.11,0-.16,0-.1,0-.2,0-.3.02-.24.03-.47.06-.69.13-.17.05-.34.1-.51.15-.07.02-.15.04-.22.05-.11.02.23-.01.06-.01-.04,0-.08,0-.11,0-.09,0,.2.05.08,0-.03-.01-.17-.06-.03,0s0,0-.03-.03c-.12-.07.11.1.03.02-.04-.04-.08-.07-.11-.11-.01-.02-.03-.03-.04-.05-.08-.09,0-.03.02.02-.01-.05-.07-.11-.1-.15-.05-.07-.1-.14-.15-.22-.19-.3-.63-.47-.95-.25-.85.59-1.83.98-2.6,1.67-.18.16-.18.45-.04.63.15.19.4.23.62.12h0Z"/>
      <path class="cls-1" d="M163.68,191.07c.22-.16.45-.3.7-.41l-.13.05c.21-.09.42-.15.65-.18l-.16.02c.22-.03.44-.03.67,0l-.18-.02c.35.05.68.17,1.01.3l-.18-.08c.43.18.85.39,1.29.56.18.07.36.12.56.15.27.04.53.07.8.04.18-.02.37-.04.55-.1.09-.03.18-.07.27-.1.15-.06.17-.07.31-.2.01-.01.02-.02.03-.03.13-.12.22-.27.27-.44.05-.21.03-.49-.09-.68s-.3-.33-.53-.4c-.04-.01-.08-.02-.13-.02-.12-.03-.24-.02-.36.02-.01,0-.02,0-.03,0-.07.01-.11.03-.19.06-.09.04-.17.08-.26.12l.22-.09c-.15.06-.31.1-.47.13l.24-.03c-.2.03-.4.02-.6,0l.23.03c-.12-.02-.23-.03-.35-.04l.23.03c-.56-.08-1.1-.28-1.65-.39-.34-.07-.69-.12-1.03-.11-.2,0-.4.03-.59.07s-.38.12-.56.2c-.42.18-.8.49-1.11.83-.16.17-.18.43-.04.62.13.17.42.26.6.12h0Z"/>
      <path class="cls-1" d="M94.5,207c.08-.12.15-.25.23-.37.03-.05.07-.11.1-.16.07-.1-.01.04-.03.03,0,0,.05-.06.06-.07.02-.02.04-.03.05-.05.08-.08-.03.04-.05.04,0,0,.07-.04.08-.05.09-.06-.16.05-.04.02.03,0,.05-.01.08-.02.12-.03-.02.02-.05,0,.06.02.2,0,.26,0l-.61-.35c.23.45.55.87.99,1.13.36.21.81.32,1.22.28.84-.08,1.57-.53,2.32-.88.05-.02.1-.05.15-.07.04-.02.2-.09.05-.02s.03,0,.07-.03c.05-.02.09-.03.14-.05.21-.07.42-.13.63-.16l-.24.03c.17-.02.34-.01.51.01l-.24-.03c.74.1,1.44.37,2.17.49.24.04.48.07.73.08.27,0,.55-.04.81-.08.44-.07.86-.21,1.29-.35.49-.16.97-.3,1.48-.37l-.26.03c.13-.02.28-.02.41-.05s.24-.1.36-.15c.13-.06.26-.21.32-.32.1-.18.13-.38.11-.57-.05-.38-.3-.61-.64-.75-.39-.15-.87-.06-1.26.03-.29.06-.57.15-.85.25-.55.19-1.11.39-1.69.47l.25-.03c-.29.04-.57.02-.85-.01l.25.03c-.8-.11-1.58-.36-2.38-.45s-1.52.23-2.19.57c-.31.15-.61.32-.91.48-.06.03-.12.06-.18.08-.03.02-.07.03-.11.05.25-.12.12-.05.06-.03-.15.06-.29.11-.45.14-.09.02-.33.02-.01,0-.07,0-.13,0-.2,0-.03,0-.07,0-.1,0,.26.01.16.02.09,0-.03,0-.07-.02-.1-.03-.18-.06.15.08.03.02-.07-.03-.13-.07-.19-.11-.03-.02-.06-.05-.1-.07.18.1.08.06.02.01-.06-.05-.11-.11-.17-.16-.03-.04-.07-.08-.1-.11-.05-.06-.04-.05.01.02-.05-.06-.1-.13-.14-.19-.29-.29-.74-.23-1.08-.09-.22.09-.42.2-.58.39-.27.32-.37.72-.52,1.1-.1.25.09.55.32.65.26.11.53,0,.68-.22h0Z"/>
      <path class="cls-1" d="M110.43,205.38c.68.11,1.37.13,2.06.06s1.39-.19,2.08-.31c.37-.06.74-.12,1.11-.17l-.21.03c.69-.09,1.38-.14,2.07-.08l-.24-.03c.1.02.2.05.3.04.13,0,.25-.03.37-.08.13-.06.24-.14.34-.25.23-.25.32-.65.12-.95-.05-.08-.11-.18-.18-.24-.18-.16-.43-.29-.68-.27-.1,0-.2,0-.3,0-.21,0-.41.02-.62.04-.46.05-.92.12-1.37.22-.78.16-1.55.39-2.33.56-.43.1-.87.18-1.31.24l.17-.02c-.41.05-.83.08-1.24.06-.29-.01-.54.23-.57.51-.03.26.13.6.42.64h0Z"/>
      <path class="cls-1" d="M92.77,190.68c.05-.05-.15.09-.05.04.01,0,.02-.01.03-.02.07-.04-.08.04-.09.04.05,0,.12-.04.18-.05.04,0,.07-.01.11-.02.03,0,0,0-.07,0-.1.01-.1.01.01,0,.04,0,.07,0,.11-.02.02,0,.04,0,.06-.01.09-.02.18-.04.27-.05l-.18.02c.23-.02.45-.07.68-.1l-.19.03c1.09-.14,2.18-.13,3.27-.16,1.15-.03,2.31-.03,3.46.03.25.01.51.03.76.04.1,0,.21.01.31.02.05,0,.09,0,.14.01.13.01.25-.02.38-.04l-.25.03c.07,0,.15-.02.22-.02.2-.01.38-.06.54-.19.15-.11.28-.28.32-.46.08-.37-.05-.82-.41-1-.11-.06-.23-.11-.35-.16-.21-.09-.46-.1-.7-.12-.3-.03-.59-.05-.89-.05-.76,0-1.52.01-2.28.05-.42.02-.83.05-1.25.08-.48.04-.95.11-1.42.17-.7.1-1.4.21-2.08.38-.2.05-.4.11-.59.19.26-.11.11-.05.05-.02-.08.03-.16.06-.23.1-.05.02-.11.05-.16.07-.2.11-.45.31-.55.53-.11.25-.09.51.14.69s.5.14.7-.04h0Z"/>
      <path class="cls-1" d="M105.77,189.33c1.78.23,3.57.21,5.36.05.97-.08,1.93-.2,2.88-.37.88-.16,1.75-.34,2.62-.53.48-.1.96-.21,1.44-.31.23-.05.45-.09.67-.15.3-.07.6-.13.86-.3.31-.2.48-.53.43-.9-.04-.32-.3-.7-.64-.75-.11-.02-.24-.05-.35-.05-.12,0-.24.03-.36.05-.09.02-.19.04-.28.05-.21.04-.41.08-.62.13-.42.1-.84.19-1.26.28-.87.18-1.74.35-2.61.51s-1.78.33-2.67.47c-.2.03-.41.06-.61.09-.11.02-.22.03-.33.05-.06,0-.2.05.02,0-.08.02-.16.02-.25.03-.44.05-.88.1-1.32.14-1,.08-1.99.13-2.99.09-.37-.01-.72.33-.7.7.02.42.31.65.7.7h0Z"/>
      <path class="cls-1" d="M96.6,238.23c.18.05.33.06.5-.02.13-.06-.07-.02.05,0,.11.02.24-.02.35-.05.14-.04.28-.1.43-.14.07-.02.13-.03.2-.05.03,0,.07-.01.1-.02.12-.02-.12,0,0,0,.6-.03,1.19-.02,1.79,0,1.48.05,2.9-.29,4.33-.65.71-.18,1.42-.36,2.14-.5.2-.04.4-.07.6-.1.09-.01.19-.03.28-.04.05,0,.09-.01.14-.02.02,0,.2-.03.1-.01-.1.01.05,0,.06,0,.05,0,.09-.01.14-.02.09-.01.19-.02.28-.03.2-.02.4-.05.6-.07,1.57-.16,3.14-.22,4.72-.25.9-.02,1.79-.03,2.69-.04.97-.02,1.95.02,2.89-.21.36-.09.66-.48.65-.85-.02-.35-.26-.79-.65-.85-.47-.07-.91-.11-1.38-.09-.43.01-.85.02-1.28.03-.82.02-1.64.03-2.45.04-1.65.03-3.31.08-4.96.25s-3.27.45-4.88.88c-.71.19-1.43.39-2.15.54-.18.04-.37.08-.55.11-.09.02-.17.03-.26.05-.06.01-.11.02-.17.03-.02,0-.19.03-.07.01.11-.01-.11.01-.15.01-.08,0-.15.01-.23.02-.18.01-.35.02-.53.02-.74.02-1.51.02-2.22.26-.41.14-.91.34-1.12.75-.03.05-.07.13-.07.18,0,.06.1-.12,0,0-.09.1-.15.22-.15.36,0,.18.05.39.24.45h0Z"/>
      <path class="cls-1" d="M123.63,235.31c.19-.07.38-.12.57-.17.1-.02.2-.04.3-.06-.02,0-.09.01,0,0,.05,0,.11-.01.16-.01.35-.02.71,0,1.06.03.73.07,1.44.2,2.17.17,1.55-.07,2.92-.73,4.4-1.12.17-.04.34-.08.51-.11.05,0,.32-.05.11-.02.07,0,.15-.02.22-.02.26-.02.52-.02.78,0,.27.01.54.05.81.07.11.01-.1-.01-.1-.01.04.01.09.01.12.02.06,0,.12.02.19.03.15.02.29.05.44.07,1.17.19,2.37.45,3.57.37.74-.05,1.43-.21,2.1-.53.73-.36,1.3-.94,1.79-1.59l-1.51.19c1.04.84,2.3,1.31,3.65,1.32,1.23,0,2.51-.37,3.5-1.11.62-.46,1.14-1.02,1.53-1.69l-1.09.44c.97.34,2.05.41,3.08.38.46-.01.92-.04,1.38-.08s.91-.07,1.36-.18c.36-.09.67-.47.65-.86-.02-.36-.26-.8-.65-.86-.23-.04-.47-.08-.7-.07-.2.01-.4.03-.6.04-.45.03-.91.06-1.37.07s-.95,0-1.42-.04c-.06,0-.13-.01-.19-.02-.19-.02.12.02,0,0-.11-.02-.22-.04-.33-.06-.24-.05-.47-.11-.7-.19-.4-.14-.89.09-1.09.44-.08.15-.18.29-.27.42-.06.08-.05.07.04-.05-.03.03-.05.06-.08.1-.05.06-.11.12-.16.18-.11.12-.23.23-.36.34-.03.03-.06.05-.09.08.12-.09.13-.1.05-.04-.07.05-.13.09-.2.14-.14.09-.28.17-.42.25-.07.04-.15.07-.22.11-.09.04-.07.03.06-.02-.04.02-.08.03-.11.04-.29.11-.6.2-.91.25-.1.02-.27-.01-.01,0-.08,0-.17.02-.24.02-.16.01-.32.02-.49.01-.14,0-.36-.07-.49-.03.15.02.18.03.07,0-.04,0-.08-.01-.12-.02-.08-.01-.16-.03-.24-.05-.16-.04-.32-.08-.47-.13-.03,0-.22-.1-.23-.09.13.06.15.07.06.02-.04-.02-.07-.03-.11-.05-.15-.07-.29-.15-.43-.24-.07-.04-.14-.09-.21-.14-.03-.02-.07-.05-.1-.07.11.09.13.1.04.03-.52-.42-1.11-.34-1.51.19-.11.15.09-.1-.03.04-.05.06-.11.13-.16.19-.11.12-.22.22-.34.33-.02.02-.06.04-.07.06,0,0,.15-.11.07-.05-.05.03-.1.07-.15.11-.12.08-.24.15-.37.22-.05.02-.21.06-.08.04.15-.03-.07.02-.11.04-.13.05-.26.09-.4.12-.12.03-.23.05-.35.07-.17.03.21-.02-.01,0-.07,0-.14.01-.21.02-.55.04-1.1,0-1.64-.07-.23-.03.14.02-.03,0-.06,0-.13-.02-.19-.03-.15-.02-.3-.05-.44-.07-.27-.04-.55-.09-.82-.14-1.25-.2-2.47-.34-3.72-.07-.7.15-1.36.41-2.02.66-.34.13-.68.25-1.03.35-.16.04-.32.09-.47.12-.09.02-.19.04-.28.06-.04,0-.08.01-.12.02.09-.02.07,0,0,0-.81.09-1.62,0-2.43-.02-.93-.01-1.81.15-2.66.53-.33.15-.43.62-.3.92s.52.55.87.43h0Z"/>
      <path class="cls-1" d="M156.66,230.39c.13.2.27.39.44.55.15.14.32.28.51.37.38.19.79.28,1.22.27.74-.02,1.45-.33,2.14-.57.37-.13.75-.24,1.14-.29l-.23.03c.28-.04.57-.06.85-.03l-.23-.03s.02,0,.03,0c.11.04.22.04.34.02.11,0,.22-.04.31-.1.18-.1.34-.3.39-.51.05-.22.04-.46-.09-.65s-.29-.34-.51-.39c-.2-.05-.41-.08-.61-.09s-.4.01-.61.04c-.28.04-.54.12-.81.21-.53.18-1.04.43-1.58.61-.27.09-.56.17-.84.21l.21-.03c-.16.02-.32.02-.48,0l.2.03c-.13-.02-.26-.05-.38-.1l.17.07c-.13-.06-.26-.13-.37-.22l.14.11c-.12-.09-.22-.19-.32-.31s-.31-.2-.46-.19-.28.05-.4.14c-.25.19-.35.57-.17.85h0Z"/>
      <path class="cls-1" d="M165.87,230.07c1.37.28,2.79.32,4.19.38,1.47.06,2.96.04,4.43-.06s2.85-.2,4.22-.53c1.54-.37,2.97-1.09,4.52-1.41.11-.02.22-.04.33-.06.1-.02.1-.07-.03,0,.04-.02.12-.01.17-.02.23-.02.45-.04.68-.03s.47,0,.69.05c0,0-.19-.03-.07,0,.07.01.14.02.21.03.11.02.23.04.34.06.5.09,1,.18,1.51.24.23.03.46.04.69.03.38-.02.7-.09,1.05-.25s.5-.6.45-.94c-.05-.35-.31-.7-.68-.78-.45-.1-.93-.11-1.39-.15-.05,0-.12,0-.17-.02,0,0,.19.03.07,0-.1-.02-.2-.03-.3-.05-.2-.03-.39-.07-.59-.11-.85-.16-1.71-.28-2.58-.18-1.66.19-3.15.88-4.73,1.37-.68.21-1.36.35-2.06.45-.25.03.17-.02-.02,0-.07,0-.14.02-.2.03-.17.02-.35.04-.52.06-.34.04-.68.07-1.02.1-1.45.12-2.91.21-4.37.25-.81.02-1.61.06-2.42.07-.74,0-1.47,0-2.2.03-.37.02-.67.27-.72.64-.05.34.17.73.53.81h0Z"/>
      <path class="cls-1" d="M191.89,228.05c1.24-.06,2.46-.26,3.67-.48.59-.11,1.18-.21,1.78-.31.13-.02.27-.04.4-.07.08-.01.16-.02.24-.03-.21.03-.03,0,.02,0,.29-.04.58-.07.88-.09,1.05-.09,2.1-.05,3.15.06.94.1,1.88.24,2.82.18,1.37-.1,2.65-.57,3.76-1.38l-1.32-.17c.64.69,1.45,1.28,2.37,1.51.78.2,1.62.16,2.38-.11,1.6-.58,2.86-1.87,3.76-3.28h-1.83c.31.63.81,1.22,1.54,1.37s1.92.11,2.12-.77l-.57.57c.09-.02.18-.05.27-.07.28-.07.49-.33.52-.61.04-.26-.09-.61-.35-.73-.14-.06-.29-.14-.45-.18l.57.57c-.11-.51-.7-.8-1.17-.79-.09,0-.19,0-.28,0-.06,0-.39-.03-.16,0,.28.04-.26-.11,0,0,.19.08.04,0,0-.01-.07-.03.2.2.07.05-.03-.04-.07-.08-.1-.11-.05-.05.13.22.03.03-.07-.14-.15-.27-.21-.41-.15-.33-.57-.52-.91-.52-.4,0-.7.21-.91.52-.1.14-.2.28-.3.42-.03.04-.06.08-.09.12.09-.12.1-.13.03-.04-.05.06-.09.12-.14.17-.22.26-.45.51-.7.74-.12.11-.25.22-.38.33-.09.07-.07.06.05-.04-.04.03-.07.05-.11.08-.06.04-.11.08-.17.12-.13.09-.27.17-.41.24-.07.04-.14.07-.21.1-.24.11.19-.06-.01,0-.14.05-.28.1-.43.13-.06.01-.12.02-.18.04-.19.04.28-.02-.02,0-.15.01-.29.01-.44,0-.03,0-.06,0-.09,0-.09,0-.04,0,.13.02-.07-.03-.18-.04-.25-.05-.06-.02-.13-.04-.19-.06-.04-.01-.08-.03-.13-.05.15.07.18.08.07.03-.15-.08-.3-.15-.44-.25-.06-.04-.15-.08-.19-.13.12.09.13.1.03.02-.03-.03-.06-.05-.09-.08-.17-.14-.32-.3-.47-.46-.3-.33-.95-.44-1.32-.17-.26.19-.52.36-.8.52-.11.07-.23.13-.35.19-.05.02-.09.04-.14.07-.05.02-.09.04-.14.06.15-.06.16-.07.06-.03-.22.08-.44.15-.67.21-.11.03-.22.05-.33.07-.05.01-.11.02-.16.03-.08.01-.04,0,.12-.02-.04,0-.09.01-.13.02-.93.1-1.85-.02-2.78-.1-1.11-.11-2.19-.14-3.29.02s-2.25.43-3.37.69c-1.28.3-2.56.62-3.85.8-.37.05-.59.5-.54.83.05.36.37.68.75.66h0Z"/>
      <path class="cls-1" d="M219.35,224.28c.11-.06.22-.11.33-.15l-.14.06c.32-.13.65-.22.99-.27l-.18.02c.37-.05.73-.04,1.1,0l-.2-.03c.62.09,1.22.28,1.82.46.27.08.55.16.83.21.33.06.67.1,1.01.07.22-.02.44-.05.65-.12.15-.05.29-.1.41-.19s.24-.18.35-.28l.14-.18c.06-.1.1-.21.1-.33.03-.19,0-.4-.1-.56-.08-.13-.19-.23-.32-.32-.1-.06-.21-.1-.33-.1-.12-.03-.23-.02-.35.02-.06.03-.13.05-.19.07-.03,0-.06.02-.09.02-.11.03-.21.08-.31.12l.22-.09c-.16.07-.33.11-.5.13l.25-.03c-.29.04-.58.02-.87-.02l.24.03c-.67-.09-1.33-.24-2-.32-.71-.09-1.45-.06-2.13.15-.47.14-.91.36-1.3.65-.12.09-.22.19-.26.33-.04.13-.02.31.06.43.17.27.49.34.77.2h0Z"/>
      <path class="cls-1" d="M97.72,245.05c.12-.09.18-.19.29-.3.01-.01.06-.05.08-.06-.13.09.3-.18.18-.11l-.8-.33c.03.09.07.17.12.25.04.06.08.12.13.16.08.07-.21-.21-.02-.02.07.06.12.12.2.18.16.11.35.19.54.27.03,0,.08.04-.03-.01-.15-.07.06.03.13.05.04.01.08.02.12.03.1.02.21.04.32.05.27.04.54.07.81.09,1.1.08,2.2.03,3.29,0,.93-.03,1.87-.1,2.8,0,.74.09,1.48.12,2.23.05.79-.07,1.58-.22,2.35-.41s1.55-.43,2.34-.62c.85-.21,1.71-.31,2.55-.54.38-.1.61-.48.56-.86-.06-.42-.38-.63-.77-.68-.19-.02-.38-.06-.57-.05-.22,0-.45.05-.67.08-.4.05-.79.13-1.18.22-.7.16-1.39.36-2.08.55s-1.35.36-2.04.49c-.08.01-.16.03-.24.04-.05,0-.34.05-.11.02-.19.03-.38.04-.57.06-.38.03-.76.03-1.15.02-.47-.02-.93-.08-1.4-.08s-.97.03-1.45.05c-1.08.06-2.17.13-3.25.16-.27,0-.55,0-.82,0-.23,0-.46-.05-.69-.05,0,0,.2.03.09.01-.03,0-.06,0-.09-.01-.1-.01-.19-.02-.29-.03-.04,0-.09-.01-.14-.01.1,0,.15.03.04,0-.04,0-.08-.02-.11-.03-.02,0-.03-.01-.05-.02-.03-.01-.06-.02-.1-.02-.13-.02-.11-.01.04,0,0,0-.08-.01-.08-.02,0,0-.03-.02-.04-.01,0,0,.16.08.07.03-.33-.18-.68-.01-.8.33-.07.19-.04.32-.03.45.01.11,0,.18-.06.29-.13.2.13.49.34.34h0Z"/>
      <path class="cls-1" d="M119.4,242.77s.03-.02.04-.03c.03-.03.03-.02-.02.01.01-.02.06-.05.09-.06.06-.04.12-.08.18-.11.03-.02.07-.03.1-.05s.11-.03,0,0c.07-.02.14-.05.2-.08.27-.09.54-.15.82-.19l-.15.02s.09-.01.13-.02l-.59-.59c.01.33.11.64.22.95.09.24.21.49.24.75l-.03-.2s0,.02,0,.03c0,.14.04.27.1.39.05.09.11.16.2.22.18.14.45.22.67.14.24-.09.49-.19.72-.31.17-.09.34-.18.52-.27.34-.17.67-.35,1.02-.49l-.2.08c.42-.18.85-.31,1.29-.37l-.23.03c.22-.03.43-.04.65-.07l-.23.03c.15-.02.29-.03.44-.03.4,0,.74-.3.79-.7.02-.17,0-.37-.1-.52-.11-.17-.28-.34-.48-.37-.22-.03-.44-.07-.66-.07s-.44.04-.65.07c-.29.05-.57.13-.84.23-.61.22-1.18.53-1.74.84-.15.08-.3.17-.45.25-.16.09-.31.18-.46.28l1.13.46c-.15-.55-.57-.96-.8-1.47l.06.15c-.02-.05-.04-.1-.05-.15-.08-.29-.42-.52-.73-.41-.34.12-.67.27-.97.46-.16.1-.31.21-.45.33-.01,0-.03.02-.04.03.02-.03.06-.05,0,0s-.1.08-.15.11c-.07.05-.13.11-.19.17-.15.14-.16.42,0,.57.17.16.39.14.57,0h0Z"/>
      <path class="cls-1" d="M132.55,240.99s-.02-.04-.03-.06l.02.05c-.03-.07-.05-.15-.06-.22-.02-.09-.04-.18-.05-.28v.1c.02-.09.02-.18.01-.27,0-.09-.02-.18-.07-.26-.05-.08-.11-.14-.18-.18-.08-.05-.17-.07-.26-.07-.09,0-.18.02-.26.07,0,0-.02.01-.03.02-.11.08-.12.08-.19.19,0,0,0,0,0,.01-.01.02-.03.04-.04.06-.02.04-.05.08-.07.12-.04.07-.08.14-.11.21-.05.11-.1.22-.14.33-.02.05-.04.11-.05.16-.01.05-.02.11-.02.16s-.02.1-.02.16c0,.07,0,.14.02.21,0,.07.02.14.04.2.02.07.06.14.09.22,0,.02.01.03.02.05.02.03.04.06.06.09.06.08.12.16.19.24l-.12-.15s.1.14.12.16l-.12-.15s.06.08.09.13c.03.04.05.07.08.11.04.05.05.07.09.11.02.02.04.04.06.06.01.01.02.02.03.03,0,0,.01.01.02.02,0,0,0,0,0,0,0,0,0,0,0,0,.07.08.16.14.26.17.03.02.06.03.1.04.14.04.29.04.43,0,.11-.03.2-.07.28-.15.09-.06.16-.13.21-.23.07-.13.11-.26.11-.41,0-.07,0-.16-.03-.22l-.04-.1c-.02-.07-.05-.13-.1-.18-.03-.03-.04-.06-.07-.09,0,0-.01-.01-.02-.02,0,0-.02-.02-.03-.03-.02-.02-.04-.04-.06-.05-.06-.05-.13-.1-.19-.15s-.15-.07-.23-.1c-.02,0-.05-.02-.07-.03-.03-.01-.05-.02-.08-.03l.33.19c-.06-.05-.11-.09-.18-.13,0,0-.02-.01-.03-.02-.02-.01-.03-.02-.05-.04l.15.11s-.09-.08-.13-.12l.11.14s-.06-.08-.08-.13l.07.16c-.02-.06-.04-.12-.05-.18l.02.18c-.01-.11,0-.23,0-.34l-.02.16c.01-.09.03-.18.05-.27.01-.05.03-.1.04-.15,0-.03.02-.06.03-.08.02-.07.03-.15.03-.22l-.78.44c.08.04.15.1.22.15l-.08-.06c.07.08.14.16.21.23.03.03.07.07.1.09.04.03.09.07.14.1.04.02.08.03.13.02.04,0,.09-.02.12-.06.02-.03.04-.06.05-.09.02-.05,0-.12-.02-.16h0Z"/>
      <path class="cls-1" d="M135.09,239.56c-.04.06-.07.13-.1.19-.05.12-.1.23-.14.35-.02.06-.04.13-.05.2-.02.1-.03.2-.04.3,0,.03,0,.07,0,.1,0,.1.01.2.03.3s.03.2.05.3c.02.07.04.13.06.19.05.13.1.26.17.38.04.07.08.14.13.21s.1.15.14.18l.18.14h0s.02.01.03.02c.02,0,.04.02.05.03.04.02.08.04.12.05l.19.08c.11.03.21.04.32.01.07,0,.14-.02.2-.05.1-.03.19-.09.26-.17l.13-.16.08-.19c.03-.11.04-.21.01-.32,0-.11-.04-.21-.1-.3-.02-.05-.05-.1-.07-.14l.09.21s-.01-.03-.02-.05c-.07-.17-.11-.28-.24-.41-.02-.02-.05-.05-.07-.07-.05-.05-.09-.1-.13-.15l.13.17c-.09-.12-.16-.24-.22-.38l.08.19c-.03-.08-.06-.15-.08-.23s-.04-.16-.05-.24l.03.2c-.02-.15-.02-.29,0-.44l-.02.18c0-.06.02-.12.03-.18.03-.09.03-.17.01-.26,0-.09-.03-.17-.08-.24l-.1-.13c-.06-.06-.13-.11-.21-.13-.05-.03-.11-.04-.16-.04-.09-.02-.17-.02-.26.01l-.16.07c-.1.06-.18.14-.23.23h0Z"/>
      <path class="cls-1" d="M140.68,241.73c.05-.22.12-.44.2-.65l-.07.18c.08-.18.17-.35.29-.51l-.12.15c.09-.12.2-.22.31-.32l-.16.12c.13-.1.28-.18.43-.25l-.19.08c.13-.05.26-.09.39-.12l-1-.57c.02.09.05.19.09.28.06.14.11.28.19.4.07.11.16.22.25.32s.2.17.3.25l-.17-.13c.1.08.19.16.3.22s.22.11.34.15c.09.03.19.06.28.09l-.2-.08c.06.03.12.06.17.1l-.17-.13s.01,0,.02.01c.07.08.16.14.26.17.1.05.2.07.31.07.11,0,.22-.02.31-.07.1-.03.19-.09.26-.17l.13-.16c.07-.13.11-.26.11-.41l-.03-.22c-.04-.14-.11-.26-.21-.36-.08-.1-.19-.17-.29-.24-.05-.03-.1-.06-.15-.09s-.11-.05-.16-.08c-.12-.06-.25-.1-.38-.15l.2.09c-.06-.03-.12-.06-.18-.1l.17.13c-.06-.05-.12-.11-.17-.17l.13.17c-.07-.09-.12-.19-.17-.3l.08.2c-.03-.07-.05-.13-.07-.2-.03-.11-.07-.2-.15-.28-.06-.09-.13-.16-.23-.21l-.19-.08c-.14-.04-.29-.04-.43,0-.09.03-.18.06-.27.09-.14.06-.29.11-.42.19s-.24.17-.36.26c-.06.05-.12.1-.18.16-.1.1-.18.22-.27.33-.05.07-.09.13-.13.2-.07.13-.12.26-.18.4-.03.08-.06.16-.09.24-.06.2-.1.41-.13.62-.03.09-.03.19-.01.28,0,.09.03.18.08.26.04.08.1.15.18.2.07.06.15.1.24.13l.19.03c.13,0,.25-.03.36-.1l.14-.11c.09-.09.15-.19.18-.31h0Z"/>
      <path class="cls-1" d="M145.27,240.64c.04-.06.09-.12.13-.18l-.11.14c.23-.3.5-.59.8-.83l-.16.12c.15-.12.31-.21.49-.29l-.2.08c.14-.06.28-.1.43-.12l-.22.03c.15-.02.31-.02.47,0l-.23-.03c.24.03.46.11.68.2l-.21-.09c.2.09.4.19.6.29.1.05.2.11.3.15.12.05.24.11.37.15.05.01.11.03.16.04.12.04.24.04.35.02.12,0,.23-.04.33-.11l.18-.14c.09-.08.15-.18.18-.29.04-.07.06-.14.06-.22.03-.12.02-.24-.02-.35l-.09-.21c-.08-.13-.19-.24-.32-.32-.06-.04-.13-.09-.19-.13-.12-.08-.29-.14-.42-.2l.22.09c-.31-.13-.62-.27-.94-.38s-.62-.16-.94-.19c-.12-.01-.24,0-.37,0-.2.02-.39.05-.58.11s-.38.15-.55.25c-.18.11-.36.25-.51.4-.38.36-.67.81-.91,1.27-.09.17-.12.35-.07.54.04.16.17.34.32.42.16.09.36.13.54.07l.17-.07c.11-.06.19-.15.25-.25h0Z"/>
      <path class="cls-1" d="M152.43,239.51s.1-.05.15-.07l-.17.07c.08-.03.15-.06.22-.1.02-.01.04-.03.06-.04.04-.03.08-.05.13-.07.09-.05.17-.09.26-.13l-.18.08c.31-.13.63-.21.96-.25l-.22.03c.1-.01.19-.02.29-.03l-.83-.63c.03.08.07.16.1.24,0,.01.01.03.02.04.01.03.03.05.05.08.06.08.12.16.18.24.02.02.04.04.06.06.04.04.08.07.12.11.02.02.04.04.07.05.06.05.12.11.2.15l.22.09s0,0,.01,0c.01,0,.03.01.04.02l-.22-.09c.07.03.14.06.2.1l.2.09c.11.04.23.04.34.02.08,0,.15-.02.22-.06.11-.03.2-.09.28-.18l.13-.17.09-.2c.04-.11.04-.23.02-.34,0-.11-.04-.22-.1-.32-.05-.08-.12-.16-.18-.24-.02-.02-.04-.04-.05-.07-.02-.02-.04-.04-.05-.06,0,0-.02-.02-.03-.03-.03-.03-.06-.06-.1-.08-.03-.03-.06-.05-.1-.07,0,0-.01,0-.02-.01-.09-.05-.19-.1-.27-.16l.18.14s-.09-.08-.13-.13l.14.18s-.03-.04-.04-.06l-.13-.17c-.08-.08-.17-.14-.28-.18-.07-.04-.14-.06-.22-.06-.11-.03-.23-.02-.34.02-.32.08-.63.2-.94.34-.12.05-.24.11-.35.18-.17.1-.32.22-.47.33-.06.05-.11.09-.17.14-.09.09-.17.2-.23.31l-.07.16c-.03.09-.03.17-.01.26,0,.06.01.11.04.16.03.08.07.15.13.21l.13.1.16.07c.09.03.17.03.26.01.09,0,.17-.03.24-.08h0Z"/>
      <path class="cls-1" d="M159.21,236.39c-.15.11-.3.22-.45.34-.19.14-.37.29-.55.43-.08.06-.16.13-.24.19l.14-.11c-.08.06-.16.11-.23.17-.13.09-.26.19-.37.3-.14.13-.27.28-.4.42-.12.14-.23.29-.34.43-.06.1-.1.21-.1.32-.03.11-.02.23.02.34l.09.21c.05.1.13.18.22.24.05.05.12.09.19.11.1.05.21.08.33.07l.23-.03c.15-.04.27-.11.38-.22.03-.04.07-.07.1-.11.08-.09.15-.18.22-.28.06-.08.11-.15.17-.23l-.13.17c.14-.18.28-.35.43-.52.08-.08.14-.16.17-.27.05-.1.08-.21.07-.32,0-.11-.02-.22-.07-.32-.03-.1-.09-.19-.17-.27l-.17-.13c-.13-.08-.27-.11-.42-.11l-.22.03c-.14.04-.26.11-.37.21-.15.14-.29.29-.43.45-.07.08-.14.15-.21.23-.08.09-.16.19-.23.29-.03.04-.06.09-.08.13l1.48.87c.09-.18.19-.35.3-.51.05-.08.11-.16.16-.23.03-.04.06-.08.08-.12s.05-.08.08-.12c.06-.09.12-.17.18-.26l-.11.14c.06-.07.12-.14.18-.2s.12-.13.19-.2c.13-.13.26-.26.4-.38.08-.07.16-.15.24-.22.06-.05.1-.12.12-.19.04-.07.06-.15.05-.23l-.02-.16c-.02-.08-.05-.15-.11-.2-.03-.05-.06-.08-.11-.11-.06-.05-.13-.09-.2-.11l-.16-.02c-.11,0-.21.03-.3.08h0Z"/>
      <path class="cls-1" d="M165.01,238.46c.09-.19.1-.38,0-.57-.02-.03-.04-.06-.06-.09,0-.01-.02-.03-.03-.04.04.1.05.12.03.08,0,.11.01.14.01.1l-.07.25c.05-.11.06-.16.08-.28l-.07.26c.03-.05-.06.07-.06.07.05-.05-.11.06-.05.04.04-.02.18-.08.03-.02h-.33c.41.13.82.21,1.25.24.34.02.68.02,1.02,0,.67-.05,1.34-.15,2.01-.2s1.27-.05,1.91-.01,1.31.08,1.97.04c.44-.03.89-.09,1.32-.2.19-.05.37-.1.56-.17.27-.1.5-.24.73-.41.33-.23.49-.61.33-1-.15-.35-.57-.6-.95-.46-.15.05-.31.1-.47.14s-.31.11-.47.16c-.29.09-.6.15-.9.19l.23-.03c-.79.1-1.59.05-2.38.01-.37-.02-.74-.03-1.11,0-.48.03-.97.1-1.45.18s-.92.15-1.38.22l.21-.03c-.74.1-1.49.13-2.24.15-.26,0-.46.11-.6.34-.05.09-.1.18-.13.28-.02.07-.04.15-.04.23.02.17.02.18,0,.03l.02.14c.02.09.04.09.07.14.09.15.23.23.39.29.11.04-.09-.06,0,0-.02-.01-.05-.04-.07-.06-.02-.03-.06-.14-.04-.05.05.31.56.37.69.09h0Z"/>
      <path class="cls-1" d="M178.09,237.44c.07-.01.15-.02.22-.03.04,0,.09-.01.13-.02-.02,0-.14.02-.03,0,.16-.02.32-.04.48-.06.29-.03.58-.06.88-.08.6-.04,1.2-.06,1.81-.11,1.21-.1,2.42-.14,3.63-.18.34-.01.68-.02,1.02-.03.16,0,.32-.01.48-.02.23-.02.46-.08.69-.13.38-.08.61-.49.56-.85-.02-.16-.09-.33-.21-.45l-.16-.12c-.12-.07-.25-.11-.39-.11-.15-.02-.29-.04-.44-.05-.16-.01-.32,0-.48.01-.29.02-.59.03-.88.04-.61.03-1.23.06-1.84.1s-1.21.08-1.82.14c-.36.03-.72.07-1.07.13-.3.05-.59.11-.88.18-.67.14-1.33.31-1.99.51-.29.09-.5.41-.4.71.05.14.13.27.27.35.15.08.28.08.45.06h0Z"/>
      <path class="cls-1" d="M191.69,235.58c.19-.19.36-.4.57-.56l-.14.11c.06-.05.13-.09.21-.12l-.18.07c.08-.03.17-.05.26-.07l-.21.03c.12-.01.24-.02.35-.03l-.81-.81c.03.3.08.59.17.87.06.22.13.44.17.67.03.2.24.45.42.54.21.11.47.17.7.09.54-.18,1.08-.38,1.64-.54.52-.15,1.05-.25,1.59-.35.31-.06.61-.11.92-.15l-.26.03c.26-.04.54-.05.8-.11.19-.04.38-.08.57-.12s.43-.23.52-.4.13-.36.1-.56c-.02-.18-.1-.37-.24-.5-.18-.16-.38-.24-.62-.26-.19-.01-.38-.02-.56-.03s-.36.02-.54.04c-.43.05-.85.09-1.27.18-.68.13-1.34.33-1.99.56-.46.16-.92.35-1.35.56l1.33.54c-.1-.33-.26-.64-.4-.96l.09.2c-.07-.17-.13-.34-.18-.52s-.2-.4-.37-.49l-.19-.08c-.14-.04-.29-.04-.43,0-.22.03-.44.11-.63.23-.22.13-.37.29-.52.5-.2.27-.27.62-.36.93-.07.21.04.49.24.59s.47.09.63-.08h0Z"/>
      <path class="cls-1" d="M202.33,234.17c.3-.09.6-.16.9-.22.15-.03.3-.05.45-.08.04,0,.08-.01.12-.02.14-.02-.13.02,0,0,.09-.01.18-.02.27-.03.65-.07,1.31-.1,1.97-.1.7,0,1.4-.04,2.09-.04s1.36,0,2.04-.04c.37-.02.75-.04,1.12-.07.18-.02.36-.03.54-.05.14-.02.32-.02.46-.06s.27-.11.4-.16c.11-.05.23-.19.29-.29.09-.16.12-.34.1-.52-.02-.15-.07-.27-.16-.38-.1-.12-.26-.27-.42-.29-.13-.02-.28-.06-.4-.06-.08,0-.15.01-.23.02-.17.02-.33.03-.5.05-.33.03-.66.05-.99.07-.69.04-1.38.08-2.07.14s-1.4.11-2.1.19-1.44.23-2.14.41-1.42.42-2.08.73c-.2.09-.26.36-.18.55.08.2.31.32.52.25h0Z"/>
      <path class="cls-1" d="M217.8,232.68c.11.03.2.06.32.06.06,0,.11,0,.17,0,.13,0,.27,0,.4,0,.25-.01.5-.02.75-.02.47,0,.95.01,1.42.03.99.04,1.98.08,2.97-.07.26-.04.52-.09.78-.15.34-.08.66-.21.97-.38.19-.1.36-.33.41-.53s.04-.39-.05-.58c-.07-.17-.2-.34-.37-.43l-.21-.09c-.16-.04-.32-.04-.48,0-.07.01-.13.02-.2.03l.25-.03c-.27.04-.52.08-.78.15-.18.04-.37.08-.55.12-.36.07-.72.12-1.08.17l.25-.03c-1.28.17-2.57.23-3.85.42-.18.03-.37.05-.55.09-.09.02-.17.04-.26.07-.05.01-.1.03-.15.04-.13.04-.24.1-.34.19l.12-.09s-.05.04-.08.05c-.19.13-.3.32-.26.55.03.22.18.4.4.46h0Z"/>
      <path class="cls-1" d="M99.58,252.86h0c0,.05.02.12.03.18h0c0,.05-.02.12-.03.18,0-.01,0-.02,0-.03l-.07.17s.01-.02.02-.03l-.11.15s.03-.03.04-.04l-.15.12c.09-.05.16-.12.23-.18l-.15.12s.06-.04.09-.07l-.59.08c1.48.24,2.98-.11,4.44-.38.38-.07.76-.14,1.14-.19l-.25.03c.65-.09,1.32-.14,1.97-.05l-.25-.03c.05,0,.1.01.15.02.22.04.38.05.6,0,.5-.13.8-.65.66-1.14-.1-.37-.45-.66-.83-.71-.19-.03-.37-.05-.56-.06-.45-.03-.9,0-1.34.05-1.06.13-2.09.37-3.13.57-.55.11-1.1.23-1.66.31l.22-.03c-.29.04-.59.06-.88.08-.09,0-.19,0-.28.03-.15.04-.28.13-.38.24-.1.11-.19.22-.24.35-.05.13-.08.22-.09.37,0,.17.04.27.11.42l-.07-.17h0c.07.19.15.33.32.43.15.09.37.13.54.07s.34-.16.42-.32c.09-.18.11-.35.07-.54h0Z"/>
      <path class="cls-1" d="M113.52,251.77c.16-.08.26-.1.44-.13.07-.01.14-.04.21-.05,0,0,.22-.04.11-.03.13-.02.25,0,.38,0,.19,0-.12-.04.06,0,.08.02.15.03.23.06.47.14.92.37,1.39.52,1.33.43,2.73.09,4-.38.37-.14.73-.29,1.1-.45.26-.11-.18.07.08-.03.08-.03.16-.07.24-.1.19-.08.37-.15.56-.22.69-.26,1.4-.45,2.13-.58.09-.02.18-.03.27-.04.29-.05-.2.02.1-.01.15-.02.3-.03.44-.05.38-.04.76-.06,1.15-.07.7-.02,1.4-.02,2.1-.02,1.68,0,3.45-.01,5.04-.62.45-.17.8-.62.64-1.12s-.62-.73-1.12-.64c-.19.03-.37.07-.56.09.26-.04-.2.02-.28.04-.09.02-.18.04-.27.05s-.18.03-.27.05c-.03,0-.32.04-.1.02-.21.03-.41.05-.62.07-.72.07-1.44.08-2.16.09-1.52.01-3.02,0-4.53.23-.73.11-1.46.28-2.16.53-.33.11-.65.24-.96.38-.21.09-.42.18-.63.27-.08.03-.16.07-.24.1-.05.02-.1.04-.16.07.1-.04.1-.04,0,0-.18.08-.36.16-.54.23.2-.09-.06.02-.08.03-.08.03-.16.06-.24.09-.34.13-.68.24-1.04.33-.16.04-.33.07-.49.1-.08.01-.17.03-.25.04.19-.02-.05,0-.08,0-.14,0-.28,0-.42,0-.04,0-.26-.04-.04,0-.09-.01-.17-.03-.26-.05-.58-.12-1.15-.32-1.75-.32-.33,0-.66.06-.97.18-.4.16-.68.41-.99.71-.36.35.1.87.52.67h0Z"/>
      <path class="cls-1" d="M138.02,249.27c.37.02.75-.06,1.12-.11s.75-.12,1.13-.18c.76-.13,1.52-.25,2.29-.37,1.54-.23,3.07-.5,4.6-.71.1-.01.2-.03.3-.04-.16.02.05,0,.1-.01.2-.03.4-.05.6-.07.37-.04.73-.08,1.1-.12.75-.07,1.51-.13,2.27-.14,1.63-.03,3.26.11,4.88.2.92.05,1.84.08,2.75.06.46-.01.91-.04,1.36-.08.54-.05,1.1-.09,1.61-.27.43-.16.72-.53.65-1-.06-.45-.44-.79-.9-.79-.09,0-.19,0-.28,0-.06,0-.13,0-.19.01.04,0-.39.05-.22.03.1-.01-.05,0-.06,0-.05,0-.09.01-.14.02-.13.01-.25.03-.38.04-.41.04-.81.06-1.22.08-.83.03-1.65.01-2.48-.02-1.63-.06-3.26-.19-4.89-.17s-3.15.21-4.72.43-3.09.47-4.6.86c-.85.22-1.69.45-2.53.69-.39.11-.79.22-1.18.35-.42.14-.85.26-1.23.48-.41.24-.21.84.23.86h0Z"/>
      <path class="cls-1" d="M165.7,247.17c-.19.15-.03.02.02,0,.04-.02.07-.05.11-.07.1-.06.2-.1.3-.15,0,0-.18.07-.08.03.02,0,.04-.02.06-.03.06-.02.11-.04.17-.06.11-.04.22-.07.34-.1.24-.06.48-.11.72-.15.06-.01.12-.02.19-.03.03,0,.07-.01.1-.01,0,0-.22.03-.09.01s.27-.03.4-.04c1.04-.1,2.09-.12,3.13-.23.68-.07,1.34-.21,2.01-.3l-.25.03c.39-.05.78-.09,1.17-.1.37-.01.75-.03,1.11.02l-.26-.03c.28.04.54.13.8.24l-.23-.1c.24.1.47.21.72.3s.51.13.77.16c.28.02.58-.01.84-.09.19-.05.4-.13.57-.22.19-.1.35-.27.5-.43.26-.27.35-.74.14-1.07s-.6-.49-1-.41c-.11.02-.22.05-.33.06l.26-.04c-.14.02-.28.03-.41.08-.06.02-.12.04-.18.06-.11.03-.22.05-.33.07l.27-.04c-.16.02-.31.02-.47,0l.26.04c-.3-.05-.58-.16-.86-.27-.38-.15-.77-.24-1.18-.26-.92-.05-1.88.09-2.78.26-.43.08-.85.18-1.28.24l.24-.03c-1.79.24-3.64.27-5.33.99-.4.17-.78.42-1.08.74-.24.25-.27.69,0,.94.29.27.65.23.94,0h0Z"/>
      <path class="cls-1" d="M181.72,245.23c.76.19,1.53.14,2.3.05.4-.05.75-.13,1.09-.35.15-.1.3-.22.44-.33.05-.04.09-.07.14-.11.03-.02.12-.1,0,0-.13.1.01,0,.03-.02.1-.08.21-.14.33-.2.17-.09-.15.04,0,0,.03,0,.07-.02.1-.03.15-.05-.17,0-.06,0,.05,0,.13.01.17,0-.02,0-.23-.05-.11,0,.03,0,.06.02.09.03.14.03-.2-.11-.03-.01.06.03.12.07.18.11.03.02.19.15.06.04s.03.02.06.05c.15.12.3.24.45.36.25.19.54.35.85.44.68.18,1.49.06,2.15-.13.61-.17,1.19-.45,1.74-.75.24-.13.49-.27.73-.4.12-.06.24-.12.36-.18.06-.03.11-.05.17-.08.04-.02.29-.13.13-.06s.04-.01.08-.03c.07-.03.13-.05.2-.07.14-.05.27-.09.41-.12.07-.02.14-.03.2-.04.24-.04-.17.01,0,0,.15-.01.3-.02.46-.02.63,0,1.25.14,1.88.11.38-.02.78-.07,1.14-.21.48-.17,1.03-.42,1.36-.82.29-.36.37-.82.07-1.21s-.76-.42-1.19-.24c.25-.11-.13.05-.15.06-.04.02-.09.06-.13.08-.07.05-.14.09-.21.13-.07.04-.14.07-.21.11s-.13.02.06-.02c-.04,0-.08.03-.12.04-.14.05-.28.09-.42.11-.23.04.18-.01.01,0-.08,0-.16.01-.24.01-.55.02-1.09-.09-1.63-.13-.63-.04-1.28.04-1.88.25s-1.12.5-1.64.8c-.23.13-.47.27-.7.4-.12.06-.24.13-.36.19-.06.03-.12.06-.17.08-.19.09.17-.07-.02.01-.27.11-.55.2-.84.26-.07.01-.14.02-.2.04-.1.02.11-.01.1-.01-.04,0-.08,0-.12.01-.17.02-.34,0-.51.02-.16.01.22.06.03,0-.05-.01-.11-.04-.16-.05.18.02.17.08.09.04-.03-.02-.06-.03-.08-.04-.06-.03-.11-.07-.16-.1s-.1-.08-.16-.11c-.01,0,.17.13.09.07-.03-.02-.05-.04-.08-.06-.14-.11-.29-.23-.44-.34-.57-.4-1.29-.56-1.95-.31-.4.15-.71.38-1.04.65-.06.05-.12.1-.18.15-.02.02-.04.03-.06.05-.08.07.17-.12.04-.04-.06.04-.12.08-.18.12-.02.01-.04.02-.06.03-.13.08.15-.04.07-.03-.39.06-.78.15-1.17.22-.13.02.14-.02,0,0-.06,0-.12.01-.18.02-.09,0-.51.08-.27.03-.18.04-.38.04-.56.03-.37,0-.69.29-.73.65s.17.73.54.82h0Z"/>
      <path class="cls-1" d="M201.78,242.19c.05-.02.11-.04.16-.05.03,0,.06-.01.09-.02.01,0,.03,0,.04,0,.1-.02-.02.01-.05,0,.03,0,.16,0,.19-.01-.03.02-.17-.03-.05,0,.04,0,.07.02.11.02.21.04.42.05.63.07.04,0,.08,0,.12.01.02,0,.04,0,.06,0,.02,0-.19-.03-.11-.01s.17.03.26.04c.71.12,1.41.31,2.11.46.38.08.77.15,1.15.19.36.04.71.02,1.07-.01.98-.1,1.94-.33,2.88-.6s1.86-.56,2.82-.69l-.26.04c.3-.04.61-.07.91-.11l-.26.03c.14-.02.27-.03.41-.04.47-.02.85-.34.91-.81.06-.42-.21-.95-.67-1.02-.26-.04-.53-.08-.8-.09s-.54.04-.8.08c-.42.06-.84.16-1.25.27-.86.23-1.7.54-2.56.78-.51.14-1.02.26-1.54.33l.25-.03c-.6.08-1.17.08-1.77,0l.24.03c-.86-.12-1.71-.3-2.58-.35-.4-.02-.86-.06-1.24.08-.06.02-.12.05-.18.07-.04.02-.07.03-.11.05-.06.03-.04.02.07-.03-.1.01-.24.09-.33.13-.17.08-.32.17-.47.29-.18.14-.21.48-.09.66s.39.34.62.25h0Z"/>
      <path class="cls-1" d="M216.24,240.87c.65.33,1.41.6,2.15.55.65-.05,1.21-.41,1.8-.66l-.23.1c.36-.15.74-.26,1.13-.31l-.26.03c.29-.04.58-.05.87-.02l-.26-.03c.29.04.56.12.83.24l-.24-.1c.6.25,1.16.59,1.78.79.49.16,1,.21,1.51.17s1.03-.11,1.54-.19c.45-.07.9-.13,1.32-.33.15-.07.29-.15.41-.27.37-.37.38-.99,0-1.37-.34-.34-.79-.34-1.19-.15l.48-.13h0c-.5,0-.97.44-.95.95s.42.94.95.95h0c-.16-.04-.32-.09-.48-.13.08.05.16.07.25.1l-.23-.1s0,0,0,0l-.19-.15h0c-.08-.14-.16-.28-.25-.42h0v-.51h0c.03-.08.06-.15.1-.23h0c.11-.11.23-.23.34-.34,0,0,0,0,0,0l.23-.1s-.02,0-.04,0l.26-.03c-.19.02-.37.02-.56.05-.18.03-.35.07-.52.1-.44.09-.88.16-1.32.22l.27-.04c-.39.05-.78.1-1.17.05l.27.04c-.35-.05-.68-.16-1-.29l.24.1c-.42-.18-.83-.39-1.26-.56s-.93-.27-1.4-.27c-.89,0-1.74.29-2.52.69-.27.14-.54.3-.83.42l.21-.09c-.15.06-.31.13-.46.19l.21-.09c-.1.04-.21.08-.32.11-.05.01-.11.02-.16.04-.13.03.21-.01.07-.01-.03,0-.07,0-.1,0-.14,0-.28,0-.42-.01-.04,0-.08,0-.12-.01-.15-.02.15.03,0,0-.1-.02-.19-.03-.29-.05-.29-.06-.58.06-.7.35-.11.26-.02.61.24.74h0Z"/>
      <path class="cls-1" d="M99.07,261.28c.86-.06,1.73-.07,2.59-.15s1.77-.14,2.66-.17,1.79-.09,2.68-.12,1.78-.04,2.66-.04c.47,0,.94,0,1.4,0s.95-.09,1.41-.15c.39-.04.71-.27.77-.68.05-.35-.18-.8-.56-.86-.47-.07-.95-.15-1.42-.2-.41-.04-.84-.02-1.25-.01-.88,0-1.77.02-2.65.05s-1.81.06-2.71.17c-.95.12-1.9.26-2.84.43-.49.09-.96.2-1.43.35s-.95.33-1.42.53c-.2.08-.34.24-.31.47.03.2.21.39.42.37h0Z"/>
      <path class="cls-1" d="M117.7,259.45c.29.01.59.03.88,0,.33-.03.66-.09.99-.14.29-.05.59-.1.88-.15.07-.01.14-.03.21-.04s.21-.03.06-.02c.16-.01.32-.04.48-.06l-.63-.26c.43.4.9.6,1.47.65.43.04.88-.04,1.3-.15.45-.13.88-.31,1.31-.5.1-.04.19-.08.29-.12.03-.01.06-.02.09-.04.07-.03.04-.02-.09.04,0-.02.12-.05.14-.06.2-.08.4-.16.6-.23l-1.1-.45c.28.47.8.72,1.32.81.57.1,1.15.12,1.72.1,1.29-.04,2.57-.22,3.85-.39.15-.02.3-.04.44-.06.03,0,.06,0,.09-.01.16-.02-.28.03-.12.02s.29-.04.44-.06c.12-.02.25-.03.37-.06.09-.02.18-.07.26-.11.13-.05-.28.12-.11.05.05-.02.09-.04.14-.06.36-.14.68-.44.66-.86-.02-.38-.26-.78-.66-.86-.25-.06-.5-.1-.76-.08-.23.02-.47.05-.7.08-.28.04-.55.07-.83.11-.21.03-.42.05-.64.08-.26.03.26-.03,0,0-.08.01-.16.02-.25.03-1.1.14-2.23.3-3.34.2-.05,0-.11-.01-.16-.02-.15-.02.29.05.14.02-.03,0-.06,0-.09-.01-.09-.02-.19-.04-.28-.07-.02,0-.04-.01-.06-.02-.14-.05.25.12.14.06-.03-.02-.06-.03-.09-.05-.14-.07.23.21.1.07s.16.23.08.11c-.21-.34-.69-.59-1.1-.45-.55.2-1.08.45-1.61.68-.03.01-.06.02-.09.04-.1.04.09-.04.09-.04-.06.02-.11.05-.17.07-.12.05-.24.09-.37.14-.23.08-.46.12-.69.18,0,0,.22-.02.12-.02-.03,0-.05,0-.08,0-.05,0-.1,0-.16,0s-.1,0-.16,0c-.15,0,.23.04.02,0-.11-.02-.21-.06-.32-.1-.15-.04.17.09.02.01-.08-.04-.16-.09-.25-.12-.43-.18-.83.06-1.24.2-.28.09-.57.18-.85.26-.31.09-.63.18-.95.26s-.63.19-.95.27c-.28.07-.45.36-.41.63.04.29.27.49.56.5h0Z"/>
      <path class="cls-1" d="M137.37,257.98c.05,0,.1-.02.16-.02,0,0,.13-.02.06,0s.05,0,.05,0c.05,0,.1-.01.15-.02.19-.02.38-.04.57-.05.36-.02.71-.05,1.07-.06.7-.02,1.39,0,2.09.03s1.34.07,2.01.04c.34-.01.69-.04,1.03-.08.22-.02.44-.05.66-.09.14-.02-.31.04-.11.02.05,0,.1-.01.15-.02,1.98-.25,3.98-.44,5.94-.84.46-.1.93-.2,1.38-.35.26-.09.52-.19.77-.31.29-.14.51-.34.69-.61.22-.33.15-.8-.08-1.1-.25-.32-.65-.44-1.04-.36-.22.05-.41.14-.61.24-.08.04-.24.09.12-.05-.03.01-.06.03-.1.04-.09.03-.17.06-.26.09-.39.13-.79.24-1.19.33-.97.23-1.97.38-2.96.52-.24.04-.49.07-.73.1-.06,0-.12.02-.18.02,0,0,.28-.04.12-.02-.03,0-.05,0-.08.01-.12.02-.25.03-.37.05-.5.07-1,.13-1.5.2-.17.02-.35.05-.52.07-.04,0-.08.01-.12.02-.12.02.09-.01.09-.01-.07.03-.17.02-.25.03-.18.02-.35.03-.53.05-.67.05-1.34.09-2.01.12-1.63.07-3.27.15-4.85.61-.36.11-.63.51-.51.89.13.41.49.57.89.51h0Z"/>
      <path class="cls-1" d="M160.37,255.76c.58-.01,1.15,0,1.73.01.63,0,1.25.02,1.88.03,1.34.01,2.68-.01,4.01-.2.65-.09,1.29-.23,1.89-.48.13-.03.24-.09.33-.17.11-.07.19-.16.25-.27.12-.21.17-.51.1-.75s-.22-.46-.44-.58-.5-.19-.75-.1c-.88.33-1.79.53-2.72.65l.25-.03c-1.72.23-3.46.21-5.19.3-.45.02-.89.07-1.34.13-.2.03-.37.07-.52.22-.13.13-.22.34-.22.52.02.39.32.75.74.74h0Z"/>
      <path class="cls-1" d="M103.09,281.85c.23.05.45.07.7.05.28-.01.56-.09.83-.13.06,0,.12-.02.18-.03-.15.02.05,0,.06,0,.1-.01.2-.02.3-.03.24-.02.47-.04.71-.06.89-.06,1.78-.03,2.67-.06,1.79-.06,3.59-.07,5.37-.39.48-.09.97-.2,1.44-.35.24-.07.48-.16.71-.25.17-.06.35-.12.5-.21.17-.1.31-.23.44-.37.23-.25.31-.59.17-.91-.12-.29-.43-.53-.76-.51-.26.01-.5.03-.75.14-.03.01-.35.13-.05.02-.04.01-.07.03-.11.04-.07.03-.15.06-.22.08-.31.12-.64.22-.96.31-.62.17-1.26.29-1.9.38l.24-.03c-1.21.16-2.44.2-3.66.26-.69.03-1.36.09-2.04.19-.63.09-1.25.2-1.87.35-.35.08-.71.18-1.05.29-.42.13-.81.3-1.12.63-.17.19-.12.55.16.61h0Z"/>
      <path class="cls-1" d="M120.48,279.33c.12-.06-.12.04-.04.02.03,0,.07-.02.1-.03.09-.03.17-.08.26-.11-.03,0-.15.06-.05.02.16-.06.32-.12.49-.17.3-.09.6-.17.89-.29l-.97-.39c.3.46.67.87,1.15,1.16.43.26.92.39,1.42.42.9.05,1.83-.31,2.58-.8.45-.29.87-.63,1.25-1.01h-1.28c.4.46.96.81,1.56.92s1.22.07,1.83-.06c.97-.21,1.89-.67,2.87-.83.03,0,.06,0,.08-.01.09-.01-.29.03-.1.01.05,0,.11,0,.16-.01.12,0,.23,0,.34,0h.03c-.27-.03-.25-.03.06.01.08,0,.18.05-.12-.02.05.01.1.02.15.03.1.02.2.03.29.04-.03,0-.27-.04-.12-.01.13.02.23.03.36.04.59.05.99-.71.68-1.19-.71-1.11-2.26-.74-3.29-.4-.48.15-.96.33-1.44.47-.24.07-.49.13-.74.17-.21.03.23-.02.04,0-.05,0-.11.01-.16.02-.12,0-.25.01-.37,0-.09,0-.33-.05.02.01-.06-.01-.12-.02-.18-.03s-.12-.03-.18-.05c-.02,0-.04-.01-.06-.02-.18-.07.14.07.07.03-.12-.06-.23-.13-.34-.2-.09-.06.19.16.08.06-.03-.03-.06-.05-.09-.08-.06-.05-.11-.11-.17-.17-.32-.36-.95-.34-1.28,0-.13.13-.26.26-.4.38-.07.06-.14.12-.2.17-.06.04-.21.14.02-.02-.04.03-.08.06-.13.09-.15.11-.31.21-.47.3-.08.04-.15.09-.23.13-.04.02-.08.04-.12.06-.04.02-.2.09-.05.03s0,0-.03.01c-.04.02-.08.03-.12.04-.09.03-.17.06-.26.08s-.17.04-.26.06c-.16.03.13-.01.07,0-.05,0-.09,0-.14.01-.08,0-.16,0-.24,0-.04,0-.08,0-.12,0-.13,0,.23.04.06,0-.08-.02-.15-.03-.23-.05-.04-.01-.08-.02-.11-.04-.17-.05.16.08.04.02-.09-.05-.18-.09-.27-.15-.04-.03-.08-.06-.12-.09,0,0,.15.13.09.07-.02-.02-.05-.04-.07-.06-.08-.07-.16-.15-.23-.23-.02-.02-.03-.04-.05-.06-.07-.09.03.03.04.06-.03-.06-.08-.11-.12-.17-.26-.39-.75-.55-1.17-.31-.6.35-1.36.48-1.81,1.04-.22.27-.28.61-.05.9s.57.33.89.18h0Z"/>
      <path class="cls-1" d="M136.92,277.28c.17.23.32.45.54.65.25.22.55.36.87.45.6.18,1.23.12,1.84.02,1.13-.18,2.2-.61,3.32-.81.07-.01.14-.02.21-.04.17-.03-.16.01,0,0,.12-.01.25-.02.37-.03.26-.01.52-.02.78-.02.58,0,1.15-.03,1.73-.07.9-.06,1.81-.13,2.72-.21.64-.06,1.27-.13,1.9-.28.26-.06.52-.13.76-.23.35-.14.74-.28.99-.58s.38-.75.14-1.11-.62-.5-1.04-.42c-.17.03-.31.09-.47.17-.04.02-.2.09-.04.02.17-.07-.04.02-.09.03-.22.08-.44.14-.66.2-.23.06-.47.11-.71.15-.12.02-.23.04-.35.05-.18.03.22-.03.04,0-.07,0-.14.02-.22.03-.85.1-1.71.14-2.57.22-1.12.11-2.24.14-3.35.31s-2.1.59-3.15.9c-.29.09-.59.17-.89.22-.05,0-.15,0-.2.03,0,0,.16-.02.07,0-.05,0-.09.01-.14.01-.14.01-.27.02-.41.02s-.27,0-.4,0c-.03,0-.05,0-.08,0-.1,0,.13.02.03,0-.07-.01-.14-.03-.21-.04-.1-.02-.2-.03-.31-.04-.11,0-.02,0,0,0-.04,0-.07-.01-.11-.02-.19-.04-.22-.03-.39-.11-.16-.08-.34-.07-.47.06-.11.11-.16.34-.06.47h0Z"/>
      <path class="cls-1" d="M156.25,275.64c.12.08.27.16.41.18.16.03.33.05.5.06.23.02.45.02.68,0,.57-.06,1.14-.17,1.7-.27.3-.05.6-.1.9-.14l-.22.03c.56-.07,1.12-.11,1.68-.04l-.24-.03c.13.02.27.04.4.04.06,0,.12,0,.18,0,.12,0,.23-.02.33-.07.1-.03.2-.09.27-.17l.13-.17c.06-.1.1-.2.1-.31.02-.07.02-.15,0-.22,0-.11-.04-.22-.1-.31l-.13-.17c-.11-.1-.23-.18-.37-.22-.07-.02-.14-.05-.21-.07-.14-.04-.29-.05-.44-.06s-.3-.01-.44,0c-.38.01-.75.06-1.13.12-.61.1-1.21.25-1.81.39-.32.07-.64.14-.96.18l.21-.03c-.15.02-.3.04-.45.07l.2-.03c-.14.02-.28.03-.42.04-.06,0-.13,0-.19,0-.12,0-.24.03-.36.05l.18-.02s-.05,0-.08,0l-.17.02c-.08.02-.16.06-.22.12-.11.08-.2.2-.23.33-.06.28.04.57.3.73h0Z"/>
      <path class="cls-1" d="M109.33,364.05c.2.4.56.74.97.93.48.22.96.24,1.47.16.39-.06.76-.23,1.11-.4.32-.16.63-.34.94-.52.35-.2.7-.41,1.08-.56l-.24.1c.26-.11.52-.19.8-.23l-.26.04s.05,0,.07,0l-.96-.73c.34,1.2,1.89,1.34,2.92,1.39,1.25.05,2.53-.08,3.75-.33.56-.11,1.11-.34,1.57-.67.35-.25.53-.65.35-1.07-.16-.37-.6-.63-1.01-.5-.22.07-.46.11-.69.15l.26-.03c-.69.09-1.36.26-2.05.36l.27-.04c-1.04.14-2.13.22-3.17.08l.27.04c-.27-.04-.55-.09-.8-.19l.24.1c-.09-.04-.17-.08-.25-.14l.2.16s-.08-.07-.12-.11l.16.2s-.04-.06-.05-.09l.1.24s-.01-.03-.02-.05c-.06-.21-.18-.38-.36-.52-.16-.12-.4-.24-.6-.21-.42.05-.79.14-1.18.31-.32.14-.63.3-.93.48-.53.32-1.04.67-1.61.92l.23-.1c-.22.09-.46.17-.7.21l.25-.03c-.14.02-.27.02-.41,0l.24.03c-.12-.02-.24-.04-.36-.05l.24.03c-.07-.01-.14-.03-.21-.05-.03,0-.09-.04-.11-.04.04,0,.22.1.07.03-.07-.03-.13-.07-.2-.11-.07-.05-.14-.08-.22-.1l.12.05s-.12-.06-.14-.08c-.27-.16-.67-.12-.88.11-.23.25-.27.58-.11.88h0Z"/>
      <path class="cls-1" d="M126.52,362.72c.26.08.52.08.75-.08.11-.07.22-.13.34-.18l-.2.08c.28-.11.57-.19.86-.23l-.23.03c.66-.08,1.34-.03,1.99.02.61.05,1.22.13,1.84.15.71.03,1.42,0,2.13-.06.84-.08,1.68-.21,2.48-.45.2-.06.39-.13.58-.21.24-.1.51-.19.74-.33.19-.12.38-.26.5-.45.14-.22.21-.52.13-.77-.09-.27-.31-.52-.6-.59-.1-.02-.21-.03-.31-.04-.22,0-.36.07-.55.15l.22-.09c-.24.1-.48.21-.71.31l.23-.1c-.81.34-1.67.52-2.54.64l.25-.03c-1.14.15-2.29.18-3.43.08s-2.34-.24-3.47.1c-.39.12-.71.3-1.03.55-.21.17-.39.38-.42.65-.05.34.11.72.46.82h0Z"/>
      <path class="cls-1" d="M140.14,360.4c.04.25.13.49.24.72.06.13.15.24.24.34s.2.18.31.27l-.17-.13c.09.07.16.14.26.19s.2.09.3.12c.03.01.07.02.11.02.11.02.22.04.34.04.15,0,.31-.02.46-.04.08-.01.17-.03.25-.05.37-.09.71-.25,1.07-.36.2-.06.4-.12.61-.15l-.25.03c.12-.02.25-.02.37,0l-.25-.03c.13.02.27.05.4.04l.24-.03c.12-.03.22-.08.31-.16.07-.04.12-.1.16-.16.08-.09.14-.19.16-.31l.03-.24-.03-.24c-.03-.12-.08-.22-.16-.31-.06-.1-.15-.18-.26-.24-.11-.08-.25-.13-.38-.15s-.28-.05-.42-.05c-.06,0-.12,0-.18.01-.14.02-.29.03-.43.06-.13.03-.25.07-.38.12-.2.08-.4.16-.59.25-.14.06-.28.12-.42.18l.22-.09c-.21.09-.43.17-.65.2l.23-.03c-.09.01-.18.02-.27,0l.23.03c-.07,0-.13-.03-.19-.05l.21.09c-.09-.04-.18-.08-.27-.12l.21.09c-.05-.02-.1-.06-.15-.09l.17.13c-.07-.05-.13-.12-.18-.18l.13.16c-.1-.13-.18-.28-.24-.43l.08.18h0c-.02-.11-.07-.2-.14-.27-.05-.08-.12-.15-.21-.19-.09-.06-.18-.08-.28-.09-.1-.02-.2-.02-.3.01-.18.06-.36.17-.45.35l-.08.18c-.04.13-.04.27,0,.4h0Z"/>
      <path class="cls-1" d="M106.63,359.46c.18.02.36.06.54.05.21,0,.42-.04.63-.06.39-.04.79-.07,1.18-.11.78-.08,1.56-.17,2.34-.24,1.59-.15,3.18-.33,4.78-.47,3.23-.29,6.45-.55,9.68-.84,2.97-.27,5.93-.58,8.88-1.01,2.91-.43,5.79-.87,8.72-1.17,2.82-.29,5.68-.45,8.51-.21.34.03.67.06,1.01.11.37.05.68-.35.68-.68,0-.41-.31-.64-.68-.68-2.8-.35-5.64-.24-8.45.02-2.99.27-5.96.74-8.93,1.15-2.86.4-5.75.72-8.67.97-3.22.27-6.45.49-9.67.81s-6.44.64-9.61,1.28c-.19.04-.39.07-.58.12s-.37.16-.55.25c-.15.07-.22.28-.18.43.05.18.2.26.37.28h0Z"/>
      <path class="cls-1" d="M117.19,356.51c1.09-1.02,2.05-2.17,2.94-3.36,1.07-1.44,2.11-2.95,2.83-4.6.69-1.56,1.22-3.24,1.2-4.96s-.6-3.19-1.75-4.36c-.65-.66-1.53-1.25-2.5-1.15-.89.09-1.63.66-2.18,1.34-.73.9-1.23,1.94-1.67,3-.5,1.21-.89,2.46-1.23,3.72-.63,2.33-1.09,4.71-1.42,7.1-.04.26-.07.51-.1.77,0,.05-.03.22,0,0-.01.09-.02.17-.03.26-.01.09-.02.18-.03.28-.03.31-.06.62-.07.93-.06,1.13-.04,2.26.02,3.39.08,1.35.23,2.7.55,4.02.28,1.17.7,2.36,1.47,3.3s1.83,1.26,2.96,1.05c.65-.12,1.27-.44,1.81-.81s1.11-.8,1.55-1.31c.84-.97,1.48-2.12,2.04-3.27.72-1.47,1.31-2.99,1.77-4.56s.79-3.13.88-4.73c.08-1.31-.02-2.72-.67-3.88-.28-.5-.68-.94-1.18-1.24-.24-.15-.64-.12-.83.11-.6.71-.93,1.64-1.12,2.54-.02.12-.05.23-.07.35,0,.06-.02.12-.03.18s-.03.27-.02.16c.01-.1-.02.13-.01.1-.04.27-.06.53-.06.8,0,.48.05.99.22,1.45.35.95,1.25,1.7,2.31,1.61,1.2-.1,2.12-1.05,2.81-1.97.38-.51.7-1.07.96-1.65.22-.52.42-1.08.41-1.65-.01-.61-.83-.83-1.15-.31-.4.66-.73,1.48-.38,2.24.26.56.85.87,1.43.98.69.14,1.4.09,2.09-.02.59-.1,1.2-.28,1.72-.58,1.31-.78,2.22-2.19,2.8-3.56.67-1.56,1.07-3.28.98-4.99s-.75-3.56-2.33-4.51c-.19-.11-.43-.11-.62,0-1.03.58-1.63,1.63-1.99,2.71-.44,1.32-.59,2.73-.66,4.11-.17,3.12.12,6.25.13,9.37,0,.73-.01,1.46-.07,2.19-.01.17-.03.33-.05.5,0,.03,0,.05,0,.08-.02.14.03-.17,0,0-.01.07-.02.14-.03.21-.05.27-.1.55-.18.81l.64-.49c-.16,0-.32,0-.48-.02-.04,0-.12-.03.03,0-.03,0-.06,0-.09-.02-.07-.02-.15-.03-.22-.05-.05-.02-.11-.03-.16-.05-.16-.05.05.04-.03-.01-.05-.03-.1-.05-.15-.08-.03-.02-.18-.14-.1-.06.09.08-.04-.04-.06-.06-.04-.04-.07-.08-.11-.11-.06-.07.07.12,0-.01-.03-.05-.06-.1-.09-.15-.08-.14.02.08,0-.01-.02-.05-.04-.1-.05-.15s-.03-.1-.04-.16c0-.02,0-.05-.01-.07-.02-.11,0,.11,0,.03,0-.23-.01-.45,0-.68-.02.17,0-.03.01-.07.01-.06.02-.11.03-.17.03-.14.07-.27.11-.4.04-.11.08-.23.13-.34-.05.13.03-.06.04-.09.03-.07.07-.14.1-.21.12-.25.26-.49.42-.72.07-.11.15-.22.23-.33.08-.12-.04.04.05-.07.05-.06.1-.12.15-.18.17-.2.36-.4.56-.57.05-.04.1-.09.15-.13.02-.01.16-.12.09-.08s.09-.06.11-.08c.06-.04.11-.08.17-.11.09-.06.18-.11.28-.15.03-.01.19-.09.1-.05-.08.03.11-.04.14-.05,1.39-.48,2.88-.53,4.31-.82.8-.16,1.59-.39,2.3-.79.78-.44,1.42-1.09,1.87-1.86l-1.08-.63c-.59,1.31-.58,2.8.31,3.97.19.25.42.36.73.3,2.13-.41,3.94-1.95,4.74-3.95l-1.37-.19c-.1,1.04.28,2.17,1.25,2.68.04.02.07.04.11.05,0,0,.28.12.12.05s.12.05.12.05c.09.03.18.06.28.08.24.05.48.08.73.07.52-.02,1.01-.17,1.47-.41.26-.14.5-.32.71-.51.09-.09.18-.18.26-.28.05-.06.27-.34.13-.16.07-.09.15-.19.21-.29.22-.35.08-.87-.28-1.07-.38-.2-.83-.09-1.07.28-.04.06-.08.12-.12.18-.02.03-.04.06-.06.08.07-.09.08-.1.02-.03-.08.09-.16.18-.25.26-.05.04-.1.09-.15.13.15-.14.04-.03,0,0-.11.07-.22.14-.33.2-.04.02-.09.05-.13.06.22-.05.02,0-.04,0-.1.03-.2.06-.31.08-.03,0-.06.01-.09.02-.08.01-.06,0,.06,0-.03.02-.14.01-.17.01-.07,0-.24.03-.3-.01.12.02.15.02.07,0-.03,0-.05-.01-.08-.02-.04,0-.08-.02-.12-.03-.03,0-.05-.02-.08-.03-.07-.03-.05-.02.06.03-.04,0-.11-.05-.15-.07s-.07-.04-.1-.06c-.16-.1.06.07-.02-.01-.04-.04-.08-.08-.12-.12-.04-.04-.11-.15,0,.01-.07-.1-.12-.2-.18-.3.05.09.03.09,0,0-.02-.06-.04-.13-.06-.19-.01-.06-.02-.12-.04-.18,0-.05,0-.03,0,.05,0-.04,0-.07,0-.11-.01-.16,0-.32,0-.48.03-.34-.28-.65-.61-.69-.36-.04-.64.17-.77.5,0,.02-.07.17-.04.12.02-.05-.05.12-.05.12-.05.1-.1.2-.15.29-.11.19-.22.38-.35.55-.07.09-.06.09-.16.21-.07.08-.14.17-.22.24-.16.17-.33.33-.51.47-.27.23-.67.48-1.05.67-.21.1-.29.14-.51.21s-.45.14-.69.19l.63.17c-.58-.74-.62-1.71-.24-2.56.14-.31.09-.67-.22-.86-.29-.17-.69-.07-.86.22-.1.17-.2.34-.32.5.05-.07-.01.02-.02.02-.03.04-.07.08-.1.12-.07.08-.14.15-.21.22-.06.06-.13.12-.2.18-.03.03-.06.05-.09.08.08-.06-.02.01-.04.03-.15.11-.31.21-.47.3-.36.2-.51.26-.89.38s-.74.21-1.12.29c-1.45.29-2.99.34-4.39.89-1.11.43-1.98,1.36-2.61,2.35-.59.92-1.1,2.1-1.03,3.21.04.6.25,1.21.71,1.62.57.51,1.33.68,2.07.7.3,0,.55-.21.64-.49.36-1.1.38-2.32.38-3.46,0-1.48-.08-2.96-.15-4.44-.07-1.57-.14-3.15-.12-4.73.01-.74.04-1.47.12-2.2.02-.17.04-.34.06-.5,0-.03.02-.12,0,0,0-.05.01-.1.02-.15.01-.08.02-.16.04-.24.05-.32.12-.64.2-.96s.19-.63.31-.94c0-.03.02-.05.03-.08-.06.15,0,0,.01-.03.03-.07.06-.13.09-.2.07-.14.14-.27.23-.4.03-.05.07-.1.1-.16.03-.04.18-.22.06-.08.09-.1.18-.21.27-.31.05-.05.09-.09.14-.13.03-.02.05-.04.08-.07.08-.07-.11.08-.01,0,.12-.08.23-.16.35-.22h-.62c.07.04.14.09.2.13,0,0,.13.1.05.04s.05.04.05.04c.13.11.25.22.36.34.05.05.09.11.14.16.1.12-.07-.11.02.02.02.03.04.05.05.08.09.14.18.28.26.43.03.06.07.13.1.19.02.04.04.09.06.13-.06-.12-.02-.04,0-.02.06.17.12.34.18.51.04.15.08.29.11.44.02.08.03.17.05.25,0,.04.01.09.02.13.03.17,0-.06.01.07.08.73.07,1.45-.02,2.18-.02.18.01-.08,0,.03,0,.05-.01.09-.02.14-.01.09-.03.19-.05.28-.03.19-.07.37-.12.56-.09.37-.19.73-.31,1.09-.06.18-.13.35-.2.53-.01.03-.03.07-.04.1-.07.17.05-.11-.03.06-.04.09-.08.19-.13.28-.15.33-.32.65-.51.95-.09.14-.18.28-.27.42-.05.07-.1.14-.15.21,0,0-.1.13-.04.06.05-.06-.07.08-.08.09-.2.25-.42.48-.66.69-.06.05-.12.1-.17.15-.02.02-.09.07.02-.01-.03.02-.06.04-.09.07-.11.08-.22.15-.33.21-.05.03-.1.05-.16.08-.02.01-.04.02-.07.03-.12.06.13-.05,0,0s-.25.09-.38.13c-.28.08-.56.14-.84.19-.03,0-.18.02-.02,0-.03,0-.06,0-.09.01-.07,0-.15.02-.22.02-.14.01-.29.01-.43.01-.08,0-.17,0-.25-.01-.05,0-.31-.04-.12,0-.14-.02-.27-.05-.41-.09-.04-.01-.22-.08-.13-.04s-.08-.04-.11-.06c-.06-.03-.19-.17-.06-.03-.04-.04-.08-.08-.12-.12-.05-.04-.03-.09.03.04-.01-.02-.03-.05-.05-.08-.01-.02-.06-.11,0,0s0-.02-.01-.04c0-.02,0-.04-.01-.06-.05-.1,0,.14,0,.03,0-.07,0-.15,0-.21.01.13-.02.1,0,.05.01-.05.02-.09.03-.14.02-.08.05-.16.08-.24.05-.15-.06.11.02-.04.03-.05.05-.1.07-.14.06-.11.12-.21.18-.31l-1.15-.31c0,.08-.02.15-.01.23,0,.03.02-.13,0,0-.01.06-.02.11-.04.17-.05.2-.11.4-.18.59-.02.05-.04.1-.06.15-.05.14.01-.02-.03.08-.06.12-.11.24-.17.36-.12.23-.24.45-.38.66-.3.47-.51.75-.91,1.15-.09.08-.17.17-.27.24-.03.02-.13.1-.05.04-.06.04-.11.08-.17.12-.08.06-.17.11-.26.16-.05.03-.1.05-.15.07-.06.03.03-.01.03-.01-.03.01-.06.02-.09.03-.04.01-.09.03-.13.04-.02,0-.18.04-.1.02s-.05,0-.07,0c-.06,0-.12,0-.17,0-.07,0,.05,0,.05,0-.02,0-.05,0-.07-.01-.05-.01-.09-.02-.14-.03-.05-.01-.1-.03-.15-.05-.09-.02.08.05-.04-.02-.08-.04-.15-.09-.23-.14.08.06.04.04,0-.01-.04-.04-.08-.08-.11-.11-.05-.05-.06-.08,0,0-.02-.03-.05-.07-.07-.1-.05-.08-.09-.17-.13-.25.05.1.01.03,0-.03-.01-.04-.03-.08-.04-.12-.03-.1-.05-.2-.07-.3,0-.02-.03-.16-.01-.08s0-.06,0-.08c-.01-.11-.02-.22-.02-.33,0-.22,0-.44.03-.67,0-.05.01-.1.02-.15.01-.12-.02.08,0-.04s.05-.23.07-.35c.06-.24.12-.49.2-.72.04-.12.08-.23.12-.34.02-.06.07-.16.01-.04.02-.06.05-.11.07-.17.09-.19.18-.37.29-.54.05-.08.11-.16.16-.24s-.11.12,0,0c.03-.03.06-.06.08-.1l-.83.11s.1.09.14.1c-.11-.02-.11-.09-.04-.02.02.02.03.03.05.04.09.08.18.18.26.27.12.13-.08-.12.02.02.03.05.07.1.1.14.07.11.13.23.19.34,0,0,.04.1.05.1,0,0-.07-.18-.03-.07.02.06.04.12.07.18.05.13.09.27.12.41s.06.26.08.4c.01.06.03.14.03.21,0-.25,0,.03,0,.1.07.65.06,1.31,0,1.97-.01.17-.03.34-.05.51,0,.05-.05.34-.01.11-.02.1-.03.21-.05.31-.06.37-.13.74-.21,1.11-.33,1.52-.81,3-1.37,4.45-.07.17-.13.34-.2.51-.03.08-.07.17-.1.25-.07.17.07-.15,0,.02-.02.05-.04.1-.06.15-.15.33-.3.67-.46,1-.29.59-.59,1.17-.94,1.74-.15.24-.3.48-.46.71-.04.05-.07.1-.11.15-.04.05-.18.2-.01.02-.08.09-.15.19-.23.28-.16.18-.32.34-.5.5-.08.07-.15.13-.23.19-.04.03-.26.21-.12.1-.15.12-.31.23-.47.34-.13.09-.27.17-.41.25-.06.04-.13.07-.2.1-.04.02-.26.12-.14.07.12-.05-.09.03-.12.05-.06.02-.12.04-.18.06-.12.04-.24.06-.37.09-.18.04.18,0-.03,0-.05,0-.11,0-.16,0s-.11,0-.16,0c-.03,0-.05,0-.08,0-.14,0,.05-.01.07.01-.03-.03-.25-.05-.29-.06s-.09-.03-.14-.05c-.13-.04.06-.02.06.03,0,0-.08-.03-.08-.04-.09-.05-.17-.09-.26-.15-.02-.01-.12-.07-.12-.09,0,0,.15.13.04.03-.02-.02-.05-.04-.07-.06-.08-.07-.15-.15-.23-.22-.04-.04-.07-.08-.11-.12-.02-.02-.04-.07-.06-.08.04.02.1.14.03.03-.14-.2-.28-.41-.39-.63-.06-.11-.11-.22-.17-.34-.03-.06-.05-.12-.08-.18.09.2-.02-.05-.04-.1-.22-.56-.38-1.13-.51-1.71-.07-.31-.13-.62-.19-.93-.03-.15-.05-.3-.07-.45-.01-.08-.02-.15-.03-.23,0-.03,0-.06-.01-.09,0-.02-.03-.21-.01-.1s0-.04,0-.05c0-.04,0-.08-.01-.11,0-.08-.02-.15-.03-.23-.02-.17-.04-.33-.05-.5-.03-.31-.05-.61-.08-.92-.04-.58-.06-1.17-.07-1.76-.01-.77,0-1.55.07-2.31.04-.39.08-.78.14-1.17,0-.05.01-.11.02-.16-.02.15,0,.03,0-.05.02-.12.03-.24.05-.36.04-.26.08-.52.12-.77.19-1.18.41-2.36.66-3.53.28-1.27.59-2.53.98-3.77.18-.59.39-1.18.61-1.75.05-.13.1-.26.16-.39.01-.03.02-.05.03-.08-.05.13,0,0,.01-.02.03-.07.06-.14.09-.21.11-.25.23-.5.36-.75.23-.44.48-.85.77-1.25.08-.12-.05.06.04-.05.03-.04.07-.08.1-.12.07-.08.15-.17.22-.25.07-.07.14-.14.21-.2.03-.03.07-.06.11-.09.13-.11-.06.04.04-.04.15-.1.3-.19.46-.27.04-.02-.13.04.01,0,.04-.01.08-.03.11-.04.08-.03.17-.04.26-.06-.18.04-.05,0,0,0,.04,0,.08,0,.12,0s.08,0,.12,0c.02,0,.04,0,.06,0,.11,0-.12-.03-.03,0,.08.02.17.03.25.05.04.01.08.03.13.04.04.02.21.1.06.02.19.1.38.2.55.32.02.01.04.03.05.04.1.07-.08-.07,0,0,.05.04.09.07.14.11.1.09.2.18.29.27.49.49.91,1.1,1.15,1.72.55,1.42.45,2.98.08,4.45-.42,1.67-1.15,3.27-2,4.76-.8,1.41-1.73,2.74-2.78,3.98-.41.48-.83.95-1.28,1.4-.16.15.08.39.24.24h0Z"/>
      <path class="cls-1" d="M190.73,350.82c.72.7,1.79.88,2.76.95,1.14.08,2.28,0,3.41-.16.61-.08,1.22-.17,1.83-.26.26-.04.51-.08.77-.11.06,0,.12-.02.19-.03.04,0,.24-.03.04,0,.14-.02.27-.04.41-.05,1.44-.17,2.9-.29,4.34-.43,3.18-.29,6.35-.59,9.52-.92s6.35-.59,9.54-.73c1.74-.08,3.43-.39,5.14-.74.41-.08.83-.17,1.24-.24.36-.07.87-.15,1.11-.18.83-.1,1.66-.15,2.49-.11.42.02.82-.39.8-.8-.02-.46-.35-.78-.8-.8-1.53-.09-3.06.15-4.56.44-1.41.27-2.9.62-4.23.74-.77.07-1.55.08-2.33.12s-1.59.09-2.38.14c-1.56.11-3.12.24-4.68.39-3.17.31-6.34.67-9.52.97-1.57.15-3.14.29-4.71.46-1.11.12-2.21.33-3.31.54-.62.11-1.23.23-1.86.32-.35.05-.56.08-.97.14.13-.02-.09.01-.1.01-.09.01-.18.02-.27.03-.16.02-.31.03-.47.04-.58.04-1.16.06-1.74,0-.2-.02-.42-.06-.68-.12s-.43-.1-.66-.18c-.33-.12-.57.34-.33.57h0Z"/>
      <path class="cls-1" d="M199.57,356.54s0,0,0,0l-.14-.06s.07.03.1.05c.07.03.13.06.2.09s.17.02.25.03c.06,0,.11,0,.17,0l-.2-.03c.2.03.22.04.42,0l-.2.03c.24-.03.49-.06.72-.13.16-.05.31-.12.47-.18.09-.04.19-.08.28-.14.16-.09.31-.21.45-.33l-1.46-.61c-.02.24,0,.47.05.7.04.2.12.38.2.56.09.2.23.37.35.55.07.11.14.22.19.35l-.09-.22c.02.05.04.1.06.16.04.16.12.29.24.41.08.09.18.15.3.19.11.06.23.08.36.08.17,0,.32-.04.47-.13.16-.08.31-.17.46-.27.13-.08.25-.19.38-.29.07-.06.14-.11.21-.17l-.18.14s.02-.01.03-.02c.1-.06.18-.13.25-.23.08-.08.13-.18.16-.3.04-.12.04-.23.02-.35,0-.12-.04-.23-.1-.33l-.14-.18c-.11-.11-.24-.18-.39-.23l-.23-.03c-.16,0-.31.04-.44.12-.08.04-.17.08-.25.12s-.16.07-.24.12c-.15.1-.3.19-.46.28l1.36.55c-.08-.22-.18-.44-.31-.63-.13-.18-.26-.34-.4-.51l.14.18c-.09-.12-.18-.25-.24-.4l.09.21c-.06-.13-.09-.28-.11-.42l.03.23c-.01-.09-.02-.19-.04-.28l.03.23c0-.08-.02-.15-.02-.23l-.03-.23-.09-.2-.13-.17c-.08-.08-.17-.14-.28-.18-.07-.04-.14-.06-.22-.06-.08-.02-.15-.02-.23,0-.08,0-.15.02-.22.06-.11.03-.2.09-.28.18-.07.08-.15.14-.23.21l.17-.13c-.18.14-.39.25-.6.34l.19-.08c-.11.05-.23.09-.34.14l.19-.08c-.1.04-.2.08-.3.11-.13.04-.26.12-.39.17l.17-.07c-.15.06-.2.08-.32.18,0,0,0,0-.01.01,0,0-.02.02-.03.02-.01.01-.03.02-.04.03s-.03.02-.04.03c-.14.15-.21.36-.15.57s.21.34.41.41h0Z"/>
      <path class="cls-1" d="M206.01,355.94c.18.07.36.14.55.18.21.04.42.08.63.11.55.08,1.1.15,1.65.18,1.03.05,2.06,0,3.09-.11.34-.04.68-.1,1.01-.17.3-.07.58-.21.86-.33l.16-.12c.08-.07.13-.15.16-.25.07-.15.09-.34.04-.51-.1-.32-.4-.58-.75-.57-.21,0-.42-.01-.63.01-.23.03-.46.03-.69.06-.5.06-1,.1-1.5.13-1,.05-2.01.07-3,.02-.24-.01-.48-.03-.72-.05-.22-.02-.43-.03-.65-.06-.17-.02-.42.1-.53.22s-.18.26-.21.43,0,.34.09.48l.12.15c.09.09.21.16.33.19h0Z"/>
      <path class="cls-1" d="M215.34,355.33c1.01-.03,2.01.07,3.02.12s2.02.11,3.03.04c.26-.02.53-.04.79-.08.34-.04.67-.08.99-.2.21-.08.39-.19.51-.39.11-.18.15-.45.09-.66s-.19-.4-.39-.51l-.2-.09c-.15-.04-.3-.04-.45,0h-.03c.08,0,.15-.02.23-.03-.15.02-.31.03-.46.06-.09.02-.19.04-.28.06-.18.04-.37.07-.55.09l.23-.03c-.83.11-1.67.13-2.51.13s-1.72-.02-2.59,0c-.47.01-.94.04-1.41.09-.19.02-.35.06-.49.2-.12.12-.21.31-.2.49.02.36.3.7.69.69h0Z"/>
      <path class="cls-1" d="M227.3,355.02c.87-.36,1.78-.6,2.71-.73l-.22.03c.86-.11,1.72-.11,2.58,0l-.23-.03c.09.01.18.03.28.04.11.02.22.03.34.03.05,0,.1,0,.14,0,.21,0,.44-.09.59-.24l.13-.17c.06-.09.09-.2.1-.31.02-.18,0-.37-.1-.53l-.13-.17c-.1-.1-.22-.17-.37-.21-.09-.04-.18-.08-.28-.09-.17-.02-.33-.05-.5-.06-.19-.02-.39-.04-.58-.04-.38-.02-.76-.01-1.14.01-.84.06-1.68.21-2.48.48-.49.16-.96.36-1.43.58-.16.08-.32.3-.36.47s-.03.34.04.51c.06.15.17.29.32.37.17.09.41.16.6.08h0Z"/>
      <path class="cls-1" d="M196.26,339.59c.05.76.03,1.53.04,2.29,0,1.03.02,2.07.09,3.1.07,1.11.15,2.21.37,3.3.19.92.47,1.87.99,2.67.59.89,1.45,1.46,2.52,1.56.21.02.46-.13.55-.32.68-1.31,1.11-2.76,1.41-4.21.34-1.6.53-3.24.64-4.87.22-3.3.08-6.62-.08-9.92-.08-1.6-.17-3.21-.22-4.81l-1.53.21c.2.54.36,1.1.49,1.67.07.3.12.59.17.89.02.14.05.28.07.42.01.07.02.14.03.21.01.09,0-.02,0-.03,0,.06.02.12.02.18.15,1.24.22,2.48.27,3.73.11,2.52.14,5.1.76,7.55.33,1.31.85,2.59,1.63,3.7.26.37.81.52,1.15.15.99-1.07,1.45-2.48,1.71-3.9.14-.75.22-1.51.32-2.27.02-.17.04-.33.06-.5.01-.09.02-.19.04-.28.01-.09.01-.09,0-.02,0-.05.01-.09.02-.14.05-.34.1-.68.17-1.01l-1.36-.18c-.06,1.54-.25,3.18.23,4.67.28.87.88,1.61,1.86,1.66s1.73-.71,2.22-1.46.89-1.75.91-2.68c.01-.64-.75-.87-1.18-.49-.53.46-.87,1.14-.84,1.84.03.79.44,1.48.97,2.04.22.23.53.21.79.1,2.1-.89,3.27-3.18,3.89-5.25.72-2.39.88-5,.52-7.47-.17-1.15-.48-2.33-1.07-3.34-.2-.34-.68-.4-.96-.12-1.79,1.77-1.74,4.37-1.41,6.69.18,1.27.47,2.53.7,3.79.06.31.12.62.17.93.02.14.05.29.07.43.01.08.02.15.03.23,0,.02.02.14,0,.05-.01-.09,0,.06.01.08.07.59.12,1.18.12,1.78,0,.32-.02.63-.05.95,0,.03,0,.07-.01.1.02-.18,0,0,0,.02-.01.08-.02.15-.04.23-.03.15-.06.3-.1.44s-.08.29-.13.43c-.03.07-.05.14-.08.21.06-.15-.02.03-.04.08-.13.28-.28.55-.46.8l1.26.34c.01-.21-.04.12,0-.03.01-.05.02-.1.04-.14,0-.03.02-.06.03-.08.03-.11-.08.15-.02.05.03-.05.05-.11.09-.16.02-.04.06-.13.1-.15-.09.05-.09.11-.02.03.01-.02.03-.03.04-.05.09-.1.19-.2.29-.28.05-.05.11-.09.17-.14-.21.17.17-.12.15-.11-.17.12.05-.03.09-.05.07-.04.14-.09.2-.13.28-.17.57-.33.85-.49,1.32-.73,2.67-1.47,3.56-2.72.54-.77.82-1.7.89-2.63.02-.29-.24-.55-.52-.58-.31-.04-.55.14-.65.43-.71,1.91-.67,4.36.51,6.08.2.29.45.36.78.32,1.03-.14,1.8-.96,2.37-1.77s.93-1.66,1.44-2.46l-1.16-.68c-.77,1.46-1.15,3.35-.12,4.79.24.33.76.5,1.07.14.36-.41.8-.83,1.2-1.12.46-.33.85-.71,1.38-.95.3-.14.38-.58.22-.84-.18-.31-.54-.36-.84-.22-.54.24-1.13.5-1.63.89s-.92.81-1.3,1.28l1.07.14c-.22-.29-.34-.52-.41-.82-.06-.24-.08-.51-.05-.84,0,0,.02-.21,0-.12.01-.09.03-.17.05-.26.03-.16.08-.32.12-.48.11-.35.21-.58.38-.91.4-.76-.69-1.4-1.16-.68s-.86,1.55-1.36,2.29c-.06.09-.12.17-.18.26-.04.06.05-.06-.03.04-.04.05-.08.1-.12.14-.14.16-.29.31-.44.45-.05.04-.1.08-.02.02-.05.03-.09.07-.14.1-.08.05-.16.09-.25.14-.11.06.06-.02-.01,0-.04.02-.09.03-.13.05-.11.04-.22.06-.33.08l.78.32c-.53-.72-.79-1.57-.86-2.41-.07-.94.02-1.76.3-2.65l-1.17-.16c0,.11,0,.22-.02.33,0,.02-.02.19,0,.06,0,.03-.01.07-.02.1-.03.2-.09.39-.16.59-.05.15.05-.1-.02.04-.02.04-.04.09-.06.13-.04.07-.07.14-.11.21-.09.16-.2.32-.31.47.09-.12-.08.1-.11.13-.05.06-.1.12-.16.17-.13.14-.27.26-.41.38-.07.06-.14.12-.22.18-.03.03-.23.18-.09.07-.15.11-.3.22-.46.33-1.14.76-2.44,1.28-3.5,2.14-.55.45-.92,1.04-.97,1.75-.02.29.23.58.5.65.31.09.58-.07.76-.31,1.49-1.97,1.18-4.69.78-6.96-.22-1.25-.51-2.49-.74-3.74-.06-.31-.11-.61-.15-.92-.01-.08-.02-.15-.03-.23-.02-.16,0,.03-.01-.08-.02-.16-.04-.32-.05-.48-.06-.57-.08-1.15-.05-1.72,0-.15.02-.31.04-.46,0-.02.02-.13,0-.04-.01.1,0-.05.01-.06.01-.07.02-.15.04-.22.06-.29.13-.57.24-.85.02-.04.1-.23.04-.1.03-.07.06-.13.09-.2.06-.13.13-.26.21-.38.04-.06.08-.12.12-.18.02-.03.04-.05.06-.08,0-.01.09-.12.04-.06-.05.06.02-.02.03-.04.03-.03.05-.06.08-.1.06-.06.11-.13.17-.19l-.96-.12c.12.19.22.39.32.59.02.05.04.09.06.14.06.14-.02-.06.02.04.05.12.1.24.14.36.17.48.29.97.38,1.47.02.13.05.26.07.38.01.07.02.14.03.21-.02-.11,0,.07.01.11.03.29.06.58.08.87.04.58.04,1.17,0,1.75-.02.3-.04.59-.07.89-.04.36-.05.47-.1.79-.09.58-.21,1.16-.37,1.73-.08.29-.17.57-.26.86-.04.13-.09.26-.14.39-.02.06-.05.12-.07.18-.01.03-.03.07-.04.1,0,.01-.06.15-.03.08.02-.06-.04.1-.05.12-.03.06-.06.13-.09.19-.06.13-.12.25-.19.38-.12.23-.25.46-.39.69-.08.13-.16.25-.25.37-.04.06-.09.12-.13.18.08-.11-.02.02-.05.06-.17.21-.36.41-.56.6-.1.09-.2.17-.29.25.13-.11-.03.02-.07.05-.05.04-.11.08-.17.11-.11.07-.23.14-.34.2-.05.03-.1.05-.16.08-.03.01-.05.02-.08.04-.12.06.13-.05,0,0l.64.17c-.17-.19-.31-.39-.42-.61-.03-.07-.06-.13-.09-.25-.02-.07-.03-.13-.04-.2.01.1,0-.01,0-.05,0-.05,0-.11,0-.16,0,.1,0,.01,0-.04s.03-.1.04-.15c.03-.12-.02.02.02-.04.03-.05.05-.09.08-.14l.04-.06s-.04.04,0,0c.08-.1.18-.19.28-.27l-1.18-.49s-.02.17-.01.17c-.02,0,.03-.19,0-.03,0,.03-.01.07-.02.1-.03.17-.08.33-.13.5-.06.17-.12.35-.19.51.07-.16-.04.08-.06.13-.04.09-.09.18-.14.27-.09.17-.19.33-.3.48-.02.03-.04.06-.06.09.11-.14,0,0-.02.02-.07.08-.14.15-.21.22-.04.04-.24.18-.08.08-.06.04-.13.08-.19.12-.03.02-.05.03-.08.04.16-.09.06-.02,0,0-.03,0-.06.01-.08.02-.03,0-.06.01-.08.02.12-.01.14-.02.06-.01-.02,0-.06,0-.09,0h-.04c-.08,0-.06,0,.05,0-.04.02-.19-.05-.22-.07.17.06,0-.02-.05-.04-.11-.05.07.09.04.03-.01-.03-.07-.07-.09-.09-.13-.13.06.11-.03-.04-.04-.06-.07-.12-.1-.18-.02-.03-.03-.07-.05-.1-.05-.08.06.17,0,.02-.03-.09-.06-.18-.09-.27-.05-.16-.09-.33-.12-.49-.02-.09-.03-.17-.04-.26.03.19,0,0,0-.03,0-.05-.01-.11-.02-.16-.04-.39-.05-.78-.05-1.17,0-.7.05-1.39.07-2.09.03-.77-1.21-.96-1.36-.18-.29,1.43-.37,2.73-.62,4.08-.12.67-.28,1.33-.52,1.97,0,0-.09.21-.03.08-.04.08-.07.16-.11.24-.07.14-.14.28-.22.41s-.16.26-.25.38c-.05.07-.05.07,0,0-.03.03-.05.07-.08.1-.06.07-.12.13-.18.19l1.15.15c-.32-.47-.59-.98-.82-1.5-.03-.08,0,.01,0,.02-.01-.03-.03-.06-.04-.09-.03-.06-.05-.13-.07-.19-.05-.14-.1-.28-.15-.42-.09-.28-.18-.57-.25-.85-.15-.58-.26-1.16-.35-1.75-.01-.07-.02-.14-.03-.21,0-.03-.03-.22-.02-.14s-.01-.11-.02-.15c-.01-.08-.02-.17-.03-.25-.04-.31-.07-.63-.09-.94-.21-2.49-.15-5-.44-7.48-.16-1.37-.4-2.73-.88-4.03-.14-.37-.45-.61-.85-.56-.37.05-.69.38-.67.76.11,2.98.34,5.96.42,8.95.05,1.66.06,3.32-.01,4.98-.03.81-.08,1.62-.15,2.43-.03.4-.08.8-.12,1.2-.01.09-.02.19-.03.28-.02.14,0,.05,0,.02,0,.05-.01.09-.02.14-.03.2-.06.41-.09.61-.14.83-.31,1.65-.54,2.46-.11.37-.22.74-.35,1.11-.07.18-.14.36-.21.54-.05.12-.01.04,0,.01-.04.09-.08.18-.11.27-.01.04-.03.07-.04.11.04-.11-.02.04-.03.06l.55-.32c-.05,0-.1,0-.15,0-.03,0-.18-.02-.07,0,.11.01-.03,0-.06-.01-.05,0-.09-.02-.14-.03-.09-.02-.17-.06-.25-.08,0,0,.11.05,0,0-.05-.02-.09-.05-.14-.07-.07-.04-.14-.09-.21-.13-.12-.08.07.06,0,0-.04-.04-.08-.07-.12-.11-.06-.06-.12-.12-.18-.18-.03-.04-.07-.07-.1-.11-.01-.01-.02-.03-.04-.04-.08-.09.05.07,0,.01-.12-.16-.23-.33-.32-.5-.05-.09-.1-.18-.14-.28-.02-.04-.04-.09-.06-.13-.01-.03-.09-.21-.04-.09-.18-.43-.32-.87-.43-1.32-.12-.49-.22-.98-.29-1.48-.07-.47-.14-.97-.17-1.51-.07-1.01-.1-2.02-.11-3.03-.01-.84,0-1.68-.06-2.52-.02-.24-.19-.45-.45-.45-.23,0-.47.21-.45.45h0Z"/>
      <path class="cls-1" d="M226.27,328.53c-.06,1.92.03,3.84.04,5.75s.04,3.96-.19,5.93c0,.06-.01.12-.02.18,0,.04,0,.08-.02.12.01-.11.02-.11,0-.03-.02.11-.03.23-.05.34-.04.26-.09.53-.14.79-.1.49-.23.97-.38,1.44l1.63.22c.01-.51-.03-1-.1-1.5-.05-.38-.51-.6-.85-.56-.38.05-.68.37-.68.76,0,.43-.03.86-.03,1.29s.32.76.72.81.8-.19.91-.59c.51-1.87.61-3.84.58-5.77s-.24-3.99-.41-5.98c-.09-1.07-.15-2.14-.17-3.21,0-.54-.82-.54-.84,0h0Z"/>
      <path class="cls-1" d="M220.5,335.26c1.78-.32,3.59-.5,5.39-.67s3.59-.32,5.39-.5c.51-.05,1.01-.11,1.52-.16.24-.02.48-.05.72-.08.13-.01.26-.03.39-.03.23,0,.44-.05.63-.18.25-.17.39-.42.35-.73-.04-.29-.24-.52-.52-.61-.2-.06-.39-.07-.6-.02-.11.03-.21.07-.32.09-.24.05-.48.09-.72.14-.44.08-.87.15-1.31.21-.46.07-.92.13-1.38.19-.02,0-.13.02-.03,0-.06,0-.11.01-.17.02-.1.01-.2.03-.3.04-.24.03-.49.06-.73.1-1.85.24-3.69.47-5.53.76-1.01.16-2.02.36-3.03.56-.24.05-.38.33-.31.55.07.25.31.36.55.31h0Z"/>
      <path class="cls-1" d="M260.68,405.4c-.06,0-.11.02-.17.02h.04c-.09,0-.18.03-.27.02s-.18-.02-.27-.03h.06s-.07,0-.1,0-.07,0-.1-.02l.07.03s-.06-.03-.09-.05l.07.06s-.04-.04-.07-.05c-.04-.03-.08-.07-.12-.09-.02,0-.03-.02-.05-.02l-.12.9c.1-.02.21-.05.3-.1.06-.03.11-.07.17-.1.15-.1.31-.21.45-.32l-.14.11c.06-.04.12-.09.18-.13.03-.02.05-.04.08-.06.08-.05.15-.11.22-.17l-.15.12s.01-.01.02-.02l.15-.12c.07-.07.12-.15.15-.24.03-.06.05-.12.05-.19.02-.1.02-.2-.01-.3l-.08-.18-.12-.15c-.07-.07-.15-.12-.24-.15-.09-.05-.18-.07-.29-.06-.07,0-.14,0-.21,0l.2.03c-.09-.01-.17-.04-.25-.07l.18.08s-.09-.04-.13-.07l.35.46s-.02-.08-.03-.12l.03.21c0-.06,0-.13,0-.19l-.03.21c.01-.08.04-.15.07-.23l-.08.19c.04-.1.09-.19.14-.28.03-.06.06-.14.08-.2,0,0,0-.01,0-.02,0-.01,0-.02.01-.04,0-.02.01-.05.02-.07,0-.02,0-.04.01-.07.01-.08.02-.15.03-.23,0-.01,0-.02,0-.03,0-.01-.02-.19-.03-.21,0,0,0,0,0,0,0-.02-.07-.17-.08-.18,0,0,0,0,0,0,0,0,0-.02-.02-.03,0,0-.01-.02-.02-.03-.04-.06-.08-.12-.13-.17-.17-.18-.45-.25-.69-.18-.12.03-.22.09-.31.18-.09.09-.15.19-.18.31,0,.02-.01.04-.02.06l.07-.18s-.01.02-.02.03c-.02.04-.03.05-.05.11s-.03.07-.04.11c0,.03-.02.06-.03.09l.08-.19s-.04.08-.06.12-.04.08-.06.12c-.02.04-.04.09-.06.13-.04.1-.09.21-.13.32s-.05.23-.06.35c0,.05,0,.1,0,.15.01.12.02.25.07.37,0,0,0,.01,0,.02l.08.18c.07.12.16.21.28.28.02,0,.03.02.05.02.09.04.18.08.28.11.04.01.08.02.12.03.1.02.2.03.3.04.15.01.29-.01.44-.04l-.72-1.24s-.05.05-.07.07c-.06.07-.12.15-.17.23-.05.06-.09.13-.14.2l.11-.14c-.05.06-.1.12-.14.19-.01.02-.03.04-.04.06-.02.04-.05.07-.07.11-.05.08-.1.15-.16.22l.09-.12c-.05.07-.11.13-.15.21-.02.03-.03.07-.05.1l-.05.12c-.02.07-.02.13,0,.2,0,.04.01.09.03.12.02.06.05.11.1.16l.1.08.12.05c.07.02.13.02.2,0,.07,0,.13-.02.18-.06.09-.04.16-.11.24-.18l-.07.06s.07-.05.1-.07l-.07.03c.07-.03.15-.05.22-.07s.14-.05.22-.08c.04-.01.07-.03.11-.03s.08-.01.11-.02c.08-.01.15-.03.23-.05s.13-.11.11-.19c-.01-.04-.03-.07-.07-.09-.04-.02-.07-.02-.12-.02h0Z"/>
      <path class="cls-1" d="M259.96,400.73c.17-.12.33-.25.46-.42.08-.1.15-.2.22-.31.04-.07.09-.14.14-.2l-.1.13c.06-.08.13-.15.2-.21l-.14.11c.07-.05.14-.1.22-.13l.15-.11.11-.15.07-.17c.03-.1.03-.19.01-.29,0-.06-.02-.13-.05-.18-.02-.06-.05-.11-.09-.16-.03-.05-.08-.1-.13-.13-.07-.06-.15-.11-.24-.13-.03-.01-.06-.03-.09-.04l.17.07c-.17-.07-.33-.14-.5-.21l.18.08c-.24-.1-.47-.23-.68-.39l.15.12c-.15-.12-.29-.26-.41-.41l.12.16c-.1-.14-.19-.28-.26-.44l.08.19c-.07-.16-.11-.34-.14-.51l.03.21c-.02-.15-.03-.29-.05-.44-.02-.1-.06-.19-.12-.27-.02-.03-.04-.06-.06-.1-.12-.2-.34-.33-.58-.33-.12,0-.23.03-.34.09-.1.06-.18.14-.24.24-.03.04-.06.09-.09.13-.01.02-.07.16-.08.19-.02.06-.02.16-.03.22,0,.01,0,.03,0,.04,0,.03,0,.06,0,.09.02.18.04.35.09.53s.11.32.18.48c.04.09.09.19.15.27.09.14.19.27.3.4.07.08.14.15.22.22.21.18.44.35.69.47.17.09.35.16.53.23.13.05.26.08.39.1l-.32-1.2c-.14.11-.25.25-.34.39-.09.13-.15.28-.2.43-.04.1-.07.2-.1.3s-.05.21-.1.31l.05-.13c-.03.07-.06.13-.1.19l-.05.11c-.02.06-.02.13,0,.19.01.1.05.21.13.28.06.06.13.1.21.12.11.04.27.02.37-.05h0Z"/>
      <path class="cls-1" d="M259.32,394.4c.29-.58.45-1.23.43-1.88,0-.19-.04-.39-.08-.58-.03-.13-.06-.26-.11-.38-.12-.31-.26-.62-.44-.91-.2-.33-.44-.64-.68-.94l.12.94v-.02c-.03.05-.07.11-.11.16.09-.11.19-.21.28-.32.02-.03.04-.05.06-.08v-.02c.09-.07.14-.15.17-.25.02-.04.04-.08.05-.12.02-.06.05-.12.06-.18.03-.12.03-.23,0-.35-.03-.11-.09-.21-.17-.29-.08-.08-.18-.14-.29-.17-.12-.03-.23-.03-.35,0-.06.01-.12.04-.18.06-.04.02-.08.03-.12.05-.09.03-.18.08-.25.16h-.02s-.05.06-.08.08c-.11.09-.2.21-.29.32-.08.07-.13.15-.16.25-.05.09-.07.19-.07.3l.03.21c.04.13.1.25.2.34.04.05.08.1.12.16l-.12-.16c.29.38.54.78.73,1.22l-.08-.19c.09.21.17.42.23.64s.11.43.14.64l-.03-.19c.04.27.03.55,0,.83l.02-.16c-.02.12-.04.25-.07.37-.07.28.07.56.33.67.11.05.25.07.37.03.14-.04.28-.13.34-.26h0Z"/>
      <path class="cls-1" d="M258.59,386.41c.11-.1.21-.2.31-.31.08-.1.17-.19.23-.3.04-.06.07-.12.1-.19.09-.17.16-.35.22-.54s.09-.37.11-.56c.01-.12.02-.23,0-.35s-.03-.25-.06-.37-.08-.23-.13-.34c-.07-.16-.19-.31-.31-.45-.13-.14-.28-.26-.44-.36-.07-.04-.14-.08-.21-.11-.14-.06-.28-.12-.43-.17-.27-.09-.55-.12-.83-.15l.79,1.03c.04-.09.08-.19.11-.28.04-.1.07-.21.1-.32s.08-.22.1-.33c.01-.06.02-.11.03-.17.02-.12.04-.23.05-.35l-.03.19c.02-.14.05-.28.07-.42l-.02.17c.02-.11.02-.21.03-.32.01-.16-.09-.32-.21-.42s-.3-.15-.46-.09c-.1.03-.21.07-.29.13-.1.07-.19.15-.28.24-.1.09-.18.2-.26.31-.05.06-.1.13-.13.2-.09.2-.18.41-.26.62-.05.13-.09.27-.14.41-.04.14-.04.29,0,.43.03.11.07.2.15.28.06.09.13.16.23.21.13.07.26.11.41.11.07,0,.14.01.21.02l-.22-.03c.23.03.45.08.67.17l-.19-.08c.13.05.24.12.35.2l-.16-.12c.08.06.15.13.21.21l-.12-.16c.06.08.11.16.14.25l-.08-.19c.03.07.06.14.09.21l-.08-.19c.04.1.07.2.08.3l-.03-.2c.02.14.02.28,0,.42l.03-.2c-.03.22-.09.42-.18.63l.07-.17c-.03.07-.06.13-.09.2-.06.12-.1.24-.15.36l.07-.16c-.05.12-.11.24-.17.36-.15.27-.09.61.16.8.1.08.24.14.38.13.17,0,.31-.07.44-.18h0Z"/>
      <path class="cls-1" d="M258.08,377.6s.06-.05.09-.07l-.51.13c.12.05.27.05.4.01.04-.01.13-.05.17-.07.13-.07.18-.16.27-.27.02-.03.04-.06.07-.09.02-.03.04-.05.06-.08.05-.08.09-.18.12-.26.05-.12.1-.25.13-.38.05-.19.07-.38.1-.58.01-.13.01-.27,0-.4s-.03-.28-.06-.42c-.01-.08-.05-.15-.08-.22-.02-.1-.07-.18-.13-.25-.05-.08-.12-.15-.21-.19l-.18-.08c-.1-.03-.2-.04-.3-.01-.07,0-.13.02-.19.05-.09.03-.17.08-.24.15l-.12.15c-.07.12-.1.24-.1.38,0,.05,0,.09,0,.14,0,.11.03.22.04.34l-.03-.21c.02.14.03.29.02.43s0,.29-.02.43l.03-.2c-.02.15-.05.29-.09.43-.01.03-.02.07-.03.1-.01.04-.02.08-.02.11,0,.04-.02.07-.03.1-.02.08-.04.14-.04.23l.02.18c.02.06.05.11.07.17l.11.14s.09.07.14.11l-.24-.59s-.01.07-.02.11l-.02.13c0,.07.01.13.04.19.01.04.03.08.06.11.03.05.08.09.13.12l.11.05.13.02c.07,0,.13-.01.19-.04.06-.02.11-.05.15-.1h0Z"/>
      <path class="cls-1" d="M258.22,370.75c0-.1,0-.19-.02-.29,0-.05,0-.1,0-.15s0-.1.01-.15c0-.11.01-.21.02-.32,0-.05,0-.1,0-.15s0-.11,0-.16c-.01-.2-.03-.4-.05-.59-.02-.16-.04-.31-.06-.47-.01-.08-.02-.16-.04-.23-.02-.07-.05-.13-.07-.2,0,0,0-.01,0-.02-.03-.07-.05-.14-.08-.2-.03-.05-.09-.13-.13-.17,0,0-.02-.02-.02-.03-.01-.01-.03-.03-.04-.04l-.16-.12-.18-.08-.21-.03c-.11,0-.21.02-.3.07-.07.02-.12.05-.17.1-.06.03-.1.08-.14.14-.05.05-.08.11-.1.17-.05.09-.07.19-.07.3,0,.02,0,.03,0,.05,0,.1,0,.17.03.28.01.06.02.11.04.17.01.07.04.14.06.21.03.08.05.16.08.24.06.18.12.36.18.55.03.1.05.2.09.3s.07.19.11.29c.02.05.04.1.06.16s.04.1.05.16c.02.1.03.21.05.31l-.02-.15s0,.04,0,.06c0,.08.01.15.05.21.02.07.06.13.11.18.05.05.11.09.18.11.07.03.14.05.21.05.14,0,.29-.05.39-.16s.17-.24.16-.39h0Z"/>
    </g>
  </g>
</svg>