<?xml version="1.0" encoding="UTF-8"?>
<svg id="Layer_1" data-name="Layer 1" xmlns="http://www.w3.org/2000/svg" xmlns:xlink="http://www.w3.org/1999/xlink" viewBox="0 0 250.26 317.87">
  <defs>
    <style>
      .cls-1 {
        fill: #d1f1f4;
      }

      .cls-2 {
        fill: #80acff;
      }

      .cls-3 {
        fill: #f5f6dd;
      }

      .cls-4 {
        fill: #316bf6;
      }

      .cls-5 {
        fill: #ff7768;
      }

      .cls-6 {
        fill: #00003f;
      }

      .cls-7 {
        fill: #e3ba8e;
      }

      .cls-8 {
        clip-path: url(#clippath-1);
      }

      .cls-9 {
        clip-path: url(#clippath-3);
      }

      .cls-10 {
        clip-path: url(#clippath-4);
      }

      .cls-11 {
        clip-path: url(#clippath-2);
      }

      .cls-12 {
        clip-path: url(#clippath-7);
      }

      .cls-13 {
        clip-path: url(#clippath-6);
      }

      .cls-14 {
        clip-path: url(#clippath-5);
      }

      .cls-15 {
        fill: #0c30c8;
      }

      .cls-16 {
        fill: #00aec7;
      }

      .cls-17 {
        fill: #031163;
      }

      .cls-18 {
        clip-path: url(#clippath);
      }

      .cls-19 {
        fill: #765238;
      }
    </style>
    <clipPath id="clippath">
      <path class="cls-1" d="M62.21,295.13c-9.24-1.39-18.71-1.98-28.16-1.07-1.5.14-2.96.35-4.42.61-1.98-9.37-1.78-19.43-.09-28.81.82-4.52,2.1-9.12,2.34-13.73.26-5.06.36-10.16.84-15.18.52-5.59,1.68-11.04,2.79-16.58.85-4.34,1.06-8.37,1.26-12.82.45-10.05,4.31-20.22,7.42-29.74,1.63-4.97,3.98-9.69,7.47-13.65,1.75-1.99,3.89-3.83,6.1-5.29,1.1-.72,2.23-1.08,3.37-1.43-1.52,1.92-2.44,4.25-2.57,6.92-.23,4.66.2,9.21.81,13.78.49,3.72-.27,6.88-.62,10.7-.51,5.65-.19,11.48.06,17.15.2,4.38.45,8.95,1.3,13.27.9,4.51,2.05,8.67,1.65,13.33-.51,5.58.22,10.63.65,16.18.43,5.35-.27,10.87-.2,16.21.12,10.03-.49,20.14.01,30.17Z"/>
    </clipPath>
    <clipPath id="clippath-1">
      <path class="cls-1" d="M222.06,282.97c-7.53,7.43-20.79,1.56-30.43,4.05-.81.22-1.62.45-2.41.69-6.75,2.13-12.98,5.49-19.82,7.39-7.89,2.17-17.38,2.47-25.53,1.79-13.08-1.1-25.49-7.3-38.61-4.79-12.98,2.49-25.39,7.58-38.61,4.55-1.18-.27-3.24-1.29-4.41-1.21-.53-10.14.1-20.35-.03-30.49-.07-5.34.64-10.86.21-16.21-.44-5.54-1.16-10.59-.66-16.17.42-4.66-.75-8.82-1.64-13.34-.85-4.32-1.09-8.89-1.29-13.27-.26-5.66-.57-11.49-.06-17.14.34-3.82,1.12-6.98.62-10.7-.61-4.57-1.05-9.12-.81-13.78.26-5.1,3.38-8.94,7.88-11.08,6.39-3.06,13.27-4.8,19.79-7.63,2.5-1.08,5.13-1.88,7.68-2.89,1.07-.42,2.1-.93,3.11-1.45,2.18-3.92,5.54-7.62,9.31-8.98.14,2.07.25,3.98.27,5.51.06,3.89.43,7.94.3,11.9.39.42.82.84,1.33,1.27,2.72,2.37,5.03,5.02,7.13,7.92,3.37,4.67,6.92,9.41,9.66,14.53,2.72-5.12,6.27-9.86,9.64-14.53,2.1-2.91,4.41-5.55,7.13-7.92,1.26-1.1,2.08-2.08,2.73-3.17-.27-4.7-.23-9.95-.09-15.22,3.47,1.55,6.52,5.02,8.57,8.67,1.03.53,2.05,1.04,3.12,1.46,2.54,1.01,5.18,1.81,7.68,2.89,6.52,2.83,13.4,4.57,19.79,7.63,2.17,1.04,3.87,2.2,5.16,3.54,8.79,2.33,13.4,9.71,16.31,18.1,3.04,8.78,7.26,17.28,8.85,26.5,1.33,7.78,1.62,15.77,3.17,23.61.85,4.29,1.45,8.59,1.85,13,.42,4.55,0,9.22.22,13.82.27,5.74,1.69,11.46,2.21,17.17.32,3.57.61,7.05.61,10.7,0,1.04.04,2.14.1,3.27Z"/>
    </clipPath>
    <clipPath id="clippath-2">
      <path class="cls-3" d="M114.65,157.99c.23.31.47.61.7.92,3.37,4.67,6.92,9.41,9.66,14.53,2.72-5.12,6.27-9.86,9.64-14.53.23-.32.47-.62.71-.94-6.76.98-13.71.45-20.71.01Z"/>
    </clipPath>
    <clipPath id="clippath-3">
      <path class="cls-2" d="M95.72,224.34c-6.68,7.39-18.87,4.37-20.05-6.58-.48-4.32,1.58-9.25,5.28-11.62,1.11-.71,2.34-1.23,3.6-1.53,1.21-.3,2.46-.42,3.69-.33,3.06.23,5.99,1.72,7.76,4.51,2.65,4.12,3.14,11.77-.27,15.56Z"/>
    </clipPath>
    <clipPath id="clippath-4">
      <path class="cls-7" d="M166.54,90.9c.03,3.47-1.21,6.88-3.27,9.66-1.69,2.3-4.87,5.62-8.07,5.2-.62,3.54-1.47,6.98-2.57,10.21-2.96,8.66-11.12,13.98-18.23,18.26-3.59,2.15-6.78,2.85-10.84,2.98-4.06-.16-7.26-.87-10.86-3.05-5.02-3.04-10.09-6.3-13.92-10.81-4.02-4.76-5.42-10.97-6.82-16.99-3.3.84-6.72-2.59-8.54-4.93-2.13-2.72-3.44-6.1-3.5-9.56-.07-5.03,3.33-12.04,8.43-9.35-.4-5.97-.91-12.64.26-18.59.16-.8.33-1.58.56-2.34,6.59-22.93,41.88-29.69,58.2-13.26,8.31,8.37,9.74,21.29,9.71,32.56,0,.45,0,.91-.01,1.37,5.48-4.03,9.43,3.35,9.47,8.65Z"/>
    </clipPath>
    <clipPath id="clippath-5">
      <path class="cls-3" d="M128.1,118.49c2.74-.68,7.96-3.73,7.7-7.12-.11-1.42-1.54-2.01-2.8-1.59-.65.21-1.22.62-1.8.97-2.92,1.76-6.68,2.44-9.99,1.54-1.19-.32-2.3-.96-3.58-.79-2.34.32-2.39,3.05-.71,4.68.75.73,1.62,1.33,2.58,1.73,2.73,1.16,5.75,1.29,8.61.58Z"/>
    </clipPath>
    <clipPath id="clippath-6">
      <path class="cls-19" d="M157.05,86.63c-.78-3.66-.65-7.32-1.86-10.91-.65-1.89-1.47-3.57-2.41-5.31-.91-1.68-1.94-3.11-3.08-4.67-.25-.33-.48-.67-.69-1-1.4-.26-2.78-.58-4.02-.84-9.01-1.85-17.55-7.21-22.9-14.79-.49,3.34-2.23,6.64-4.12,9.09-1.68,2.17-3.54,4.06-5.68,5.8-.81.65-1.68,1.23-2.57,1.76-.69.77-1.43,1.52-2.23,2.26-2.43,2.26-4.96,4.61-7.03,7.2-2,2.5-1.97,5.48-2.36,8.49-.43,3.33-1.39,6.69-3.64,9.28-1.89,2.18-4.44,3.34-6.64,5.12-2.31,1.85-4.21,4.32-4.55,7.37-.35,3.02.87,5.87.48,8.99-.49,3.79-1.95,7.89-5.38,9.99-2.49,1.5-7.32,1-7.2-2.83,2.18,2.34,4.94,1.91,6.49-.88,1.36-2.41.93-5.15.32-7.71-.27-1.14-.56-2.3-.78-3.46-.75-.74-1.5-1.46-2.15-2.27-1.65-2.02-2.67-4.61-3.15-7.18-.66-3.59-.48-7.2.71-10.52-.55-4.55.19-9.02,2.75-13.11,1.17-1.88,1.19-2.17.97-4.28-.23-2.17-.12-4.58.01-6.77.27-4.8,2.47-10.41,5.68-14.01,2.3-2.56,5.03-4.86,8.07-6.68.71-1.06,1.53-2.05,2.53-2.98,2.3-2.11,4.8-3.44,7.56-4.81.01,0,.01-.01.03-.01,3.48-1.73,7.37-2.86,11.26-3.33.38-.04.75-.09,1.11-.13,3.18-.3,6.1-.33,9.06.1,2.18-.82,4.55-1.14,6.94-1.08,2.76.07,5.57.68,8.17,1.63,1.58.58,3.08,1.29,4.47,2.1,7.92,4.61,13.88,11.13,17.28,19.65,3.44,8.57,1.59,22.08-1.43,30.73Z"/>
    </clipPath>
    <clipPath id="clippath-7">
      <path class="cls-19" d="M136.74,34.15c-2.6-.95-5.41-1.56-8.17-1.63-1.47-1.85-3.83-2.93-6.19-3.24-4.06-.49-7.46,1.32-9.82,4.22-.36.04-.74.09-1.11.13-3.89.46-7.78,1.59-11.26,3.33.32-3.21,1.01-4.97,2.46-7.75,2.56-4.97,7.71-8.08,13.17-8.76,5.32-.67,11.29.61,15.61,3.77,3.21,2.34,5.29,5.35,5.31,9.93Z"/>
    </clipPath>
  </defs>
  <g>
    <g>
      <g>
        <path class="cls-1" d="M62.21,295.13c-9.24-1.39-18.71-1.98-28.16-1.07-1.5.14-2.96.35-4.42.61-1.98-9.37-1.78-19.43-.09-28.81.82-4.52,2.1-9.12,2.34-13.73.26-5.06.36-10.16.84-15.18.52-5.59,1.68-11.04,2.79-16.58.85-4.34,1.06-8.37,1.26-12.82.45-10.05,4.31-20.22,7.42-29.74,1.63-4.97,3.98-9.69,7.47-13.65,1.75-1.99,3.89-3.83,6.1-5.29,1.1-.72,2.23-1.08,3.37-1.43-1.52,1.92-2.44,4.25-2.57,6.92-.23,4.66.2,9.21.81,13.78.49,3.72-.27,6.88-.62,10.7-.51,5.65-.19,11.48.06,17.15.2,4.38.45,8.95,1.3,13.27.9,4.51,2.05,8.67,1.65,13.33-.51,5.58.22,10.63.65,16.18.43,5.35-.27,10.87-.2,16.21.12,10.03-.49,20.14.01,30.17Z"/>
        <g class="cls-18">
          <path class="cls-4" d="M50.57,190.31c.12.4.25.79.4,1.17.16.41.34.81.52,1.21.35.77.72,1.53,1.08,2.3.74,1.56,1.49,3.11,2.22,4.67s1.47,3.19,2.16,4.81c.02.04.04.09.06.13.04.1-.05-.13.02.04.04.11.09.21.13.32.08.19.16.39.24.59.17.41.33.82.49,1.23.31.8.63,1.59.92,2.39.33.89.64,1.79.94,2.69s.61,1.76.95,2.63c.08.2.42.19.4-.05-.06-.84-.16-1.68-.36-2.51s-.41-1.62-.66-2.42c-.5-1.65-1.11-3.27-1.77-4.87-1.35-3.26-2.87-6.46-4.53-9.58-.45-.85-.89-1.7-1.36-2.54-.23-.4-.46-.8-.69-1.2s-.52-.79-.8-1.18c-.12-.16-.42-.07-.35.15h0Z"/>
          <path class="cls-4" d="M62.76,236.54c.01-.25-.08-.46-.17-.69s-.21-.45-.33-.66c-.26-.45-.58-.86-.93-1.25s-.75-.75-1.16-1.09c-.46-.38-.95-.75-1.44-1.09-1.93-1.33-4.08-2.39-6.3-3.15-.55-.19-1.1-.37-1.66-.52-.25-.07-.51-.11-.77-.16-.15-.03-.29-.05-.44-.07.13.02-.06-.01-.1-.02-.09-.01-.17-.02-.26-.04-.2-.03-.39.18-.41.36-.03.21.1.39.3.46.89.3,1.77.62,2.64.96.12.05.23.09.35.14.06.03.12.05.19.08.02.01.05.02.07.03.02.01.05.02.07.03-.07-.03-.09-.04-.05-.02.25.11.5.22.75.33.52.24,1.04.46,1.55.7,1.05.5,2.07,1.06,3.06,1.68.47.3.93.61,1.38.95.02.02.04.03.07.05,0,0,.12.09.04.03s.03.02.04.03c.02.02.04.03.06.05.12.09.23.18.34.28.2.17.39.34.58.52.4.37.79.75,1.15,1.16.04.04.07.09.11.13.02.03.04.05.06.08.02.02.08.1.01.01.07.1.15.2.22.29s.14.19.2.29c.03.05.06.11.1.16.04.06.08.09.13.13-.07-.06.02.03.04.04.2.18.5.05.51-.21h0Z"/>
          <path class="cls-4" d="M62.2,244.94s-.06,0-.09,0c-.06,0,.04,0,.01,0,.1.01-.03-.01-.07-.02-.04,0-.09,0-.13.01h.16c.1.04.02,0-.02-.02l.14.14h0c-.1-.2-.31-.26-.51-.22-.07.01.12-.01.05,0-.02,0-.04,0-.06,0-.04,0-.08,0-.12,0-.04,0-.09,0-.13-.01-.05,0,.09.01.08,0-.04-.01-.11-.02-.14-.02-.03,0-.05,0-.08,0-.22,0-.43-.01-.65-.03-.54-.04-1.08-.09-1.62-.15-.07,0-.14-.02-.21-.03-.06,0,.06,0,.06,0-.02,0-.05,0-.07,0-.04,0-.08-.01-.12-.02-.15-.02-.31-.04-.46-.07-.32-.05-.63-.1-.95-.15-.65-.11-1.3-.23-1.94-.35-1.08-.21-2.17-.42-3.25-.63-.65-.12-1.3-.24-1.95-.38-.99-.21-1.96-.47-2.93-.74-1.95-.56-3.87-1.22-5.8-1.83-.25-.08-.5-.13-.76-.15-.17-.01-.34.13-.38.29-.05.18.04.34.18.45.42.3.94.45,1.42.63s.94.35,1.41.52c.97.35,1.95.66,2.93.96,1.75.53,3.53.95,5.33,1.29,1.05.2,2.09.41,3.13.61,1.31.25,2.63.47,3.96.64.57.07,1.14.14,1.71.17.23.01.47.01.7,0,.1,0,.2-.01.3-.02.06,0,.13,0,.19-.02.02,0,.19-.1.08-.03-.06.04-.05.02-.02.01.05,0,.09-.03.13-.04.08-.02.15-.03.23-.05.2-.04.31-.24.33-.43h0c-.02.06-.04.12-.05.19.02-.03.04-.06.06-.09l-.18.14c.12-.04.16-.11.22-.21-.05.08,0,.02,0,0,.03-.04.04-.09.06-.13.04-.11-.07-.24-.18-.23h0Z"/>
          <path class="cls-4" d="M57.59,257.34c-.32-.12-.64-.24-.97-.31s-.67-.13-1.01-.19c-.75-.13-1.5-.22-2.25-.28-1.51-.12-3.01-.14-4.52-.03s-3.11.32-4.63.68-2.93.87-4.3,1.54c-.65.32-1.28.67-1.87,1.09s-1.23.89-1.75,1.42c-.12.13-.24.26-.35.4s-.17.29-.12.47c.04.15.18.31.34.34.08.01.17.02.25.04.03,0,.06,0,.08.01-.02,0-.07-.02,0,0,.12.04.25.06.37.08.27.05.55.09.83.13.52.06,1.04.1,1.57.11,1.13.03,2.26,0,3.38-.05,1.07-.03,2.13-.05,3.2,0,1.34.06,2.68.07,4.02.06,1.51,0,3.03-.04,4.54-.03.28,0,.54-.24.53-.53s-.23-.53-.53-.53c-2.66.01-5.32.14-7.97.07-.57-.01-1.13-.04-1.7-.04-.53,0-1.07.02-1.6.04-1.1.04-2.21.1-3.31.1-.61,0-1.21-.02-1.82-.08-.14-.01-.28-.03-.43-.05-.08,0,.06,0-.02,0-.04,0-.08-.01-.12-.02-.07-.01-.14-.02-.2-.03-.13-.02-.27-.05-.4-.08-.03,0-.06-.01-.09-.02s-.1,0-.04,0c-.05-.01-.1-.04-.15-.06-.02,0-.14-.06-.05-.02l.1.76c-.08.06.08-.06.1-.08-.02.02-.09.07.01-.02.03-.02.06-.04.08-.07.07-.06.14-.12.21-.18.14-.11.27-.23.4-.34.07-.05.13-.11.2-.16.03-.03.07-.05.1-.08-.08.07,0,0,.04-.03.14-.11.28-.21.43-.31.58-.41,1.19-.78,1.82-1.11.32-.17.64-.33.97-.47.08-.04.16-.07.24-.11.05-.02.12-.05.02-.01.05-.02.09-.04.14-.06.17-.07.34-.14.51-.2.69-.26,1.4-.48,2.11-.67s1.45-.35,2.19-.49c.19-.03.39-.07.58-.1.09-.01.18-.03.27-.04.04,0,.09-.01.13-.02.02,0,.04,0,.07,0,.01,0,.11-.02.04,0s.06,0,.08-.01c.04,0,.09-.01.13-.02.1-.01.19-.02.29-.03.19-.02.38-.04.56-.06,1.48-.14,2.98-.17,4.47-.12.72.03,1.43.09,2.15.14.35.03.69.06,1.04.09.17.02.34.04.51.06.04,0,.08,0,.12.02-.02,0-.08,0,.03,0,.03,0,.06,0,.09,0,.09,0,.17,0,.26.01.16,0,.33,0,.49.01.14,0,.26-.11.28-.24.02-.15-.07-.26-.2-.31h0Z"/>
        </g>
      </g>
      <g>
        <g>
          <path class="cls-1" d="M222.06,282.97c-7.53,7.43-20.79,1.56-30.43,4.05-.81.22-1.62.45-2.41.69-6.75,2.13-12.98,5.49-19.82,7.39-7.89,2.17-17.38,2.47-25.53,1.79-13.08-1.1-25.49-7.3-38.61-4.79-12.98,2.49-25.39,7.58-38.61,4.55-1.18-.27-3.24-1.29-4.41-1.21-.53-10.14.1-20.35-.03-30.49-.07-5.34.64-10.86.21-16.21-.44-5.54-1.16-10.59-.66-16.17.42-4.66-.75-8.82-1.64-13.34-.85-4.32-1.09-8.89-1.29-13.27-.26-5.66-.57-11.49-.06-17.14.34-3.82,1.12-6.98.62-10.7-.61-4.57-1.05-9.12-.81-13.78.26-5.1,3.38-8.94,7.88-11.08,6.39-3.06,13.27-4.8,19.79-7.63,2.5-1.08,5.13-1.88,7.68-2.89,1.07-.42,2.1-.93,3.11-1.45,2.18-3.92,5.54-7.62,9.31-8.98.14,2.07.25,3.98.27,5.51.06,3.89.43,7.94.3,11.9.39.42.82.84,1.33,1.27,2.72,2.37,5.03,5.02,7.13,7.92,3.37,4.67,6.92,9.41,9.66,14.53,2.72-5.12,6.27-9.86,9.64-14.53,2.1-2.91,4.41-5.55,7.13-7.92,1.26-1.1,2.08-2.08,2.73-3.17-.27-4.7-.23-9.95-.09-15.22,3.47,1.55,6.52,5.02,8.57,8.67,1.03.53,2.05,1.04,3.12,1.46,2.54,1.01,5.18,1.81,7.68,2.89,6.52,2.83,13.4,4.57,19.79,7.63,2.17,1.04,3.87,2.2,5.16,3.54,8.79,2.33,13.4,9.71,16.31,18.1,3.04,8.78,7.26,17.28,8.85,26.5,1.33,7.78,1.62,15.77,3.17,23.61.85,4.29,1.45,8.59,1.85,13,.42,4.55,0,9.22.22,13.82.27,5.74,1.69,11.46,2.21,17.17.32,3.57.61,7.05.61,10.7,0,1.04.04,2.14.1,3.27Z"/>
          <g class="cls-8">
            <path class="cls-4" d="M97.93,137.12c-.12.17-.27.33-.38.5-.12.19-.23.4-.33.59-.21.39-.39.79-.58,1.19-.4.83-.77,1.67-1.11,2.52-.69,1.71-1.24,3.51-1.52,5.33-.3,1.96-.3,3.96-.34,5.94-.04,2.31-.06,4.61-.07,6.92,0,2.16,0,4.31.01,6.47.01,1.08,0,2.17.04,3.25,0,.01,0,.03,0,.04,0,.23.14.44.36.53.23.1.44.03.63-.12.1-.08-.13.1-.05.04.09-.07.19-.15.28-.22.04-.03.08-.06.12-.09.02-.02.04-.03.06-.05.01,0,.02-.02.03-.02.08-.06-.03.02-.05.04.12-.09.24-.18.36-.28.67-.51,1.33-1.02,2.01-1.52,1.59-1.16,3.2-2.28,4.94-3.21.3-.16.6-.31.91-.46.15-.07.31-.14.46-.21-.09.04.09-.04.12-.05.1-.04.19-.08.29-.11.63-.24,1.28-.42,1.94-.52.11-.02.02,0,0,0,.04,0,.08-.01.12-.01.07,0,.15-.02.22-.02.16-.01.31-.02.47-.02.3,0,.6.01.9.05.03,0,.06,0,.1.01-.13-.01-.04,0-.01,0,.07.01.14.02.22.03.15.03.3.06.45.09.29.07.58.15.86.25.13.05.26.09.39.15.04.02.08.03.11.05.09.04-.13-.06.01,0,.07.03.15.07.22.1.27.13.53.26.79.41s.52.31.78.49c.12.08.23.16.35.24.07.05.13.1.2.15.02.01.09.07,0,0,.04.03.08.06.12.09.94.75,1.75,1.62,2.51,2.55.84,1.02,1.73,2,2.58,3.01.22.26.44.52.65.78.1.13.21.25.31.38.05.06.09.11.14.17.02.03.04.06.07.09,0,0,.1.13.05.07.22.28.42.58.64.86.2.25.37.47.54.73s.36.51.5.78c.09.17.33.22.49.13.18-.1.22-.32.13-.49-.15-.29-.26-.6-.42-.89-.08-.15-.17-.29-.23-.41-.07-.15-.16-.3-.24-.44-.34-.58-.77-1.12-1.18-1.65-.84-1.1-1.76-2.13-2.63-3.21-.2-.25-.41-.5-.6-.76,0,0-.1-.13-.05-.06s-.05-.06-.05-.06c-.06-.08-.12-.15-.18-.23-.1-.13-.2-.25-.3-.37-.39-.46-.81-.9-1.26-1.3-.94-.85-2-1.6-3.16-2.12s-2.44-.85-3.73-.84c-1.41.02-2.77.45-4.05,1.04-1.93.88-3.68,2.09-5.39,3.33-1.17.85-2.34,1.7-3.48,2.58-.02.02-.04.03-.06.05l.87.5c0-.89-.01-1.79-.01-2.68,0-2.06-.02-4.13-.03-6.19,0-2.34,0-4.67.01-7.01.02-1.72.02-3.46.14-5.18.02-.23.04-.46.06-.69.01-.11.03-.23.04-.34,0-.04,0-.08.01-.11-.01.09.02-.12.02-.14.07-.47.15-.93.24-1.39.18-.91.42-1.8.69-2.69s.56-1.72.88-2.57c.16-.42.31-.84.47-1.25s.33-.82.47-1.23c.07-.19.16-.39.2-.59s.07-.41.12-.61c.03-.13-.14-.2-.21-.09h0Z"/>
            <path class="cls-4" d="M151.87,137.22c.04.2.07.41.12.61.05.21.14.44.22.64.15.41.32.82.48,1.23.32.84.64,1.68.93,2.53.6,1.76,1.09,3.54,1.35,5.38,0,0,.02.19.01.08,0,.04,0,.08.01.11.01.11.03.23.04.34.03.25.05.5.07.75.01.15.02.3.03.45.02.37.03.73.05,1.1.03.94.05,1.88.06,2.83.03,2.31.03,4.62.03,6.93,0,2.14-.02,4.28-.03,6.42,0,1.07-.04,2.15-.02,3.22,0,.01,0,.03,0,.04l.87-.5c-.97-.75-1.96-1.47-2.95-2.19-1.63-1.2-3.28-2.37-5.07-3.31-1.25-.66-2.59-1.22-4.01-1.41-1.26-.17-2.56-.02-3.76.4s-2.37,1.1-3.4,1.91c-.48.38-.93.79-1.36,1.23-.21.22-.42.45-.62.69-.09.1-.17.21-.26.32-.07.08-.13.17-.19.25-.02.03-.04.05-.06.08.07-.1-.02.02-.03.04-.83,1.06-1.72,2.08-2.57,3.12-.45.54-.87,1.1-1.29,1.67-.2.28-.41.55-.58.85-.08.14-.16.28-.23.42-.06.13-.16.28-.24.44-.15.28-.27.58-.41.87-.09.17-.05.39.13.49.16.09.4.04.49-.13.14-.28.34-.54.51-.81s.34-.48.54-.73c.44-.55.76-1.02,1.21-1.57.85-1.03,1.74-2.03,2.61-3.04.41-.47.79-.96,1.2-1.43.39-.44.8-.86,1.23-1.26.23-.21.47-.42.72-.61.03-.02.05-.04.08-.06-.02.01-.09.07,0,0,.06-.04.12-.09.18-.13.13-.09.26-.18.39-.27.5-.34,1.04-.65,1.59-.9.06-.03.12-.05.18-.08.1-.05.01,0,0,0,.04-.02.08-.03.11-.05.14-.06.29-.11.43-.16.28-.1.57-.18.87-.25.13-.03.27-.06.41-.08.07-.01.14-.02.22-.04.03,0,.15-.02.01,0,.05,0,.1-.01.15-.02.29-.03.59-.04.88-.04.15,0,.3,0,.45.02.07,0,.13.01.2.02.04,0,.08,0,.12.01.04,0,.03,0-.03,0,.03,0,.05,0,.07.01.33.05.66.13.98.22s.64.2.95.31c.08.03.16.06.23.09.04.02.09.04.13.05.01,0,.1.04.02,0,.16.07.33.14.49.22,1.87.88,3.57,2.04,5.24,3.24.73.53,1.45,1.07,2.17,1.62.26.2.52.4.78.6-.18-.14,0,0,.04.03.04.03.08.07.13.1.09.07.19.14.28.22.06.05-.15-.12-.05-.04.19.15.4.22.63.12.21-.09.35-.3.36-.53.01-.89.02-1.79.03-2.68.02-2.08.03-4.15.02-6.23,0-2.33-.02-4.67-.05-7-.03-1.75-.04-3.51-.18-5.26-.16-1.9-.6-3.75-1.22-5.56-.3-.88-.66-1.74-1.04-2.59-.18-.41-.37-.81-.56-1.22s-.37-.8-.59-1.19c-.1-.18-.19-.38-.3-.55s-.26-.33-.38-.5c-.08-.11-.24-.05-.21.09h0Z"/>
            <path class="cls-4" d="M124.97,169.46c-.07,1.16-.17,2.31-.23,3.46s-.06,2.29-.08,3.43-.01,2.31-.02,3.46,0,2.31,0,3.46c.01,2.3.03,4.59.05,6.89s.07,4.59.11,6.89.1,4.61.15,6.92.12,4.59.2,6.89.16,4.59.25,6.89.21,4.61.26,6.91.05,4.57.02,6.85-.09,4.57-.15,6.85-.13,4.59-.18,6.89-.06,4.57-.05,6.85.06,4.55.11,6.83.11,4.58.16,6.87.1,4.55.12,6.82,0,4.54-.02,6.81-.05,4.62-.07,6.93-.03,4.6-.04,6.9-.02,4.59,0,6.89.04,4.61.08,6.92c0,.55.02,1.1.04,1.65,0,.27.03.54.05.81.02.29.07.58.07.87,0,.46.71.46.71,0,0-.29.05-.58.07-.87s.05-.56.05-.84c.02-.58.03-1.16.04-1.74.02-1.14.04-2.28.06-3.43.04-2.31.03-4.61.04-6.92s.01-4.6.02-6.89.03-4.6.05-6.9.07-4.59.07-6.89-.02-4.54-.06-6.81-.1-4.56-.16-6.83-.11-4.58-.15-6.87-.06-4.55-.04-6.83.07-4.57.13-6.86.13-4.59.18-6.88.09-4.57.08-6.85-.07-4.58-.17-6.86-.2-4.61-.29-6.92-.16-4.59-.23-6.89-.13-4.59-.18-6.89-.1-4.61-.14-6.92-.08-4.59-.12-6.89-.07-4.59-.1-6.89-.05-4.62-.16-6.93c-.05-1.11-.16-2.23-.23-3.34-.01-.2-.29-.2-.3,0h0Z"/>
            <path class="cls-4" d="M76.18,246.63c.34.12.67.27.98.43.36.18.72.37,1.06.6.67.44,1.31.93,2.01,1.32,1.62.92,3.34,1.64,5.04,2.38,1.55.67,3.07,1.4,4.62,2.07s3.06,1.32,4.58,2c.79.36,1.58.72,2.36,1.1.36.17.72.35,1.08.53s.69.38,1.09.46c.44.09.73-.4.43-.74-.24-.28-.54-.45-.86-.63s-.62-.33-.93-.5c-.7-.36-1.4-.69-2.12-1.02-1.51-.69-3.04-1.35-4.56-2.02s-3.07-1.37-4.62-2.03c-.23-.1-.45-.19-.68-.29-.11-.05-.22-.09-.33-.14-.05-.02-.11-.05-.16-.07-.04-.02-.07-.03-.11-.05-.06-.03-.07-.03-.03-.01-.43-.18-.87-.37-1.3-.56-.86-.38-1.72-.77-2.56-1.19s-1.59-.94-2.39-1.39c-.41-.23-.84-.47-1.3-.61s-.86-.17-1.31-.07c-.22.05-.19.35,0,.41h0Z"/>
            <path class="cls-4" d="M103.94,139.32c-.02.11-.06.2-.11.3s-.12.17-.17.27c-.1.21-.18.42-.25.64-.15.44-.28.88-.4,1.32-.24.92-.38,1.85-.21,2.79.08.42.23.85.48,1.2.29.43.69.75,1.07,1.11.83.78,1.64,1.58,2.47,2.36.48.45.97.9,1.45,1.35.23.21.46.43.71.63.26.21.54.4.8.6.11.08.29.03.37-.07.09-.12.07-.26-.02-.37-.18-.21-.34-.43-.51-.64s-.37-.41-.56-.61c-.39-.41-.77-.83-1.16-1.24-.77-.82-1.55-1.62-2.36-2.4-.37-.35-.77-.68-1.12-1.05-.04-.04-.07-.08-.11-.12-.01-.02-.03-.03-.04-.05-.05-.06.05.08.01.02-.05-.09-.11-.16-.16-.25s-.09-.17-.13-.26c0-.01-.02-.04-.02-.05.01.09.03.07.01.02-.02-.05-.04-.1-.05-.15-.06-.19-.1-.38-.14-.58-.02-.1,0,0,0,.02,0-.03,0-.05,0-.08,0-.05,0-.1-.01-.14,0-.1-.01-.21-.01-.31,0-.43.02-.87.06-1.29.05-.5.14-.95.2-1.49.03-.23.07-.47.07-.7,0-.25-.08-.48-.05-.74,0-.06-.08-.09-.1-.03h0Z"/>
            <path class="cls-4" d="M190.04,165.09c.15.43.26.87.39,1.29s.25.88.36,1.32c.05.22.1.44.15.66.02.11.04.21.06.32-.02-.13.02.13.03.17.01.07.03.13.04.2.04.23.08.45.11.68,0,.05.01.1.02.15.02.11,0,.02,0,0,0,.04,0,.08.01.13.02.14.04.27.07.41.02.11.03.22.05.33,0,.06.02.12.03.18,0,.03,0,.05.01.08-.02-.13,0-.01,0,.02.03.23.06.46.08.69.05.47.09.94.12,1.42.06.95.09,1.91.09,2.87,0,1.89-.15,3.76-.29,5.64-.07.9-.14,1.8-.24,2.7-.02.21-.05.43-.07.64-.01.1-.02.2-.03.3,0,.05-.01.11-.02.16,0,.02,0,.05,0,.07,0-.05.01-.06,0,0-.07.54-.15,1.07-.2,1.61-.19,2.07-.1,4.16.03,6.23s.4,4.28.54,6.43.2,4.29,0,6.43c-.1,1.12-.22,2.25-.28,3.38s-.13,2.24-.2,3.35c-.16,2.26-.31,4.52-.45,6.78s-.24,4.51-.33,6.76-.16,4.51-.22,6.77-.1,4.54-.13,6.81-.04,4.52-.07,6.78-.04,4.51-.04,6.77-.01,4.45.04,6.67.16,4.33.27,6.49.24,4.26.33,6.4.16,4.24.14,6.36-.1,4.24-.31,6.35c-.05.53-.11,1.07-.17,1.6-.02.13-.03.25-.05.38,0,.04-.01.08-.02.12,0,0-.01.1,0,.03s0,.02,0,.03c0,.05-.01.1-.02.15-.04.26-.08.52-.12.79-.17,1.08-.37,2.15-.61,3.21s-.45,2.1-.77,3.12c-.08.26.1.58.37.64.28.06.56-.09.64-.37.33-1.06.69-2.11.95-3.19s.47-2.12.65-3.2c.36-2.15.58-4.32.69-6.49s.11-4.24.07-6.35-.16-4.27-.28-6.41-.25-4.3-.35-6.45-.15-4.37-.16-6.56-.02-4.51-.02-6.77-.02-4.54,0-6.8.05-4.54.09-6.81.09-4.54.16-6.81.15-4.53.25-6.8.19-4.5.31-6.76c.06-1.13.14-2.26.23-3.39.02-.29.04-.57.06-.86.02-.25.05-.53.08-.83.06-.56.11-1.13.17-1.69.12-1.12.2-2.25.3-3.37s.12-2.15.11-3.23c-.02-2.16-.21-4.31-.4-6.46s-.39-4.21-.44-6.33c-.02-1.03,0-2.07.06-3.09.02-.26.04-.52.07-.78.01-.12.03-.24.04-.36,0-.03,0-.06,0-.08,0,.02-.02.09,0,0,.01-.05.02-.11.03-.16.04-.22.07-.43.1-.65.02-.1.03-.2.05-.31.01-.08.01-.17.03-.24-.03.12.01-.05.02-.09.07-.44.13-.89.2-1.33.04-.27.07-.54.11-.81.01-.11.03-.22.04-.32,0-.01,0-.1,0-.02-.01.13.02-.15.02-.13,0-.07.02-.13.02-.2.11-.94.18-1.87.22-2.81.09-1.91.1-3.83-.07-5.73-.09-.98-.22-1.95-.4-2.92-.17-.9-.46-1.8-.77-2.67-.15-.41-.32-.82-.47-1.21-.09-.22-.2-.42-.32-.64-.1-.19-.21-.39-.32-.58-.15-.25-.58-.09-.48.2h0Z"/>
            <path class="cls-4" d="M198.12,183.12c-.16.54-.34,1.07-.51,1.61s-.35,1.07-.56,1.6c-.1.27-.21.53-.32.79-.05.13-.1.26-.16.38-.01.03-.03.06-.04.1,0,.01-.05.11-.02.05s-.01.03-.02.05c-.02.04-.03.08-.05.12-.23.52-.46,1.04-.71,1.56-.99,2.08-2.12,4.12-2.97,6.27-.23.57-.44,1.15-.62,1.74-.09.29-.19.59-.25.89-.04.2-.1.41-.05.61.02.1.04.09.07.15.05.1-.01-.08.02.05.02.07.05.14.07.21.05.14.21.19.33.09.04-.04.09-.08.13-.12.02-.02.04-.04.06-.06-.04.03,0,0,.02,0,.21-.14.27-.32.36-.54.1-.25.18-.5.27-.76.09-.27.19-.54.3-.8.05-.12.09-.24.14-.35.03-.06.05-.13.08-.19,0-.02.05-.12.02-.05-.03.07.02-.06.03-.07.44-1.04.92-2.07,1.41-3.08s1.02-2.07,1.51-3.12.97-2.14,1.34-3.25c.2-.6.38-1.21.52-1.82.14-.65.21-1.3.23-1.96,0-.36-.52-.42-.62-.08h0Z"/>
            <path class="cls-4" d="M203.72,212.19c-.34.41-.73.77-1.09,1.16-.38.41-.79.8-1.21,1.17s-.89.77-1.34,1.14c-.22.18-.45.36-.67.54-.11.09-.22.17-.33.26-.05.04-.11.08-.16.13-.07.05.07-.05,0,0-.03.03-.07.05-.1.08-.91.7-1.84,1.39-2.71,2.15-.92.8-1.8,1.64-2.7,2.46-.5.45-1.01.89-1.53,1.31-.26.21-.52.42-.79.63.02-.01.08-.06,0,0-.03.03-.07.05-.1.08-.06.05-.13.09-.19.14-.09.07-.2.13-.27.22-.09.1-.13.22-.18.35-.12.29.17.56.44.57.2,0,.37-.03.54-.14.13-.08.26-.17.39-.26.27-.18.53-.37.79-.57.48-.37.94-.77,1.39-1.17.92-.82,1.81-1.67,2.73-2.49,1.7-1.52,3.62-2.81,5.26-4.41.46-.45.91-.91,1.32-1.41.22-.26.42-.52.59-.8.15-.26.29-.52.41-.79.06-.13.05-.29-.08-.38-.11-.08-.29-.09-.39.02h0Z"/>
            <path class="cls-4" d="M208.8,245.39c-.69.31-1.43.48-2.16.65-.4.09-.8.15-1.2.21.1-.01-.01,0-.05,0-.08.01-.16.02-.25.03-.05,0-.1.01-.15.02-.02,0-.11.01,0,0-.03,0-.07,0-.1.01-.21.03-.41.05-.62.07-.81.09-1.63.14-2.44.22-.38.04-.77.08-1.15.13-.13.02-.25.03-.38.05-.04,0-.08.01-.12.02-.1.02.04,0,.07,0-.09,0-.17.02-.26.03-1.03.1-2.06.11-3.09.16-1.26.06-2.52.13-3.76.32-.51.08-1.03.17-1.53.34-.24.08-.48.18-.71.29-.08.04-.16.09-.24.14-.07.05-.14.1-.2.16-.01.01-.03.03-.04.04-.03.04-.16.21-.08.1.09-.13-.05.06-.05.07-.02.03-.05.1-.06.14,0,.02,0,.03-.01.05-.02.07-.02.15-.03.22l.06-.22c-.05.11-.11.23-.11.36l.05-.2h0c-.26.45.42.85.68.41h0s-.09.08-.14.13c.04-.02.07-.05.11-.08.05-.04,0,0-.03.02.01,0,.03-.02.04-.03-.04.02-.08.05-.02.02.06-.03-.09.01-.08,0,.11-.01.2-.03.3-.08-.03.01-.2.08-.03.01.03-.01.06-.02.08-.04.02,0,.04-.02.06-.03.05-.03-.11.05-.09.04.05-.02.1-.04.15-.06.02,0,.04-.02.05-.03.04-.02.08-.05.12-.07s.08-.04.12-.06c.02,0,.04-.02.06-.03.08-.04-.15.06-.04.02.46-.17.93-.29,1.41-.38.14-.03.27-.05.41-.07.07-.01.13-.02.2-.03.04,0,.08-.01.12-.02.14-.02-.11.01,0,0,.3-.04.6-.07.89-.1.63-.06,1.26-.1,1.89-.13,1.09-.06,2.18-.08,3.27-.17.23-.02.47-.04.7-.08.05,0,.11-.02.16-.02.04,0,.09-.01.13-.02.02,0,.04,0,.07,0,.09-.01-.11.01-.03,0,.19-.02.38-.05.57-.07.82-.09,1.64-.17,2.47-.26.86-.1,1.72-.22,2.57-.43.2-.05.41-.11.61-.17.09-.03.18-.06.27-.09.06-.02.12-.04.17-.06.12-.05.05-.02.03-.01.03-.01.06-.02.09-.04.38-.16.76-.33,1.11-.55.16-.1.31-.21.46-.32.32-.24.06-.7-.31-.53h0Z"/>
            <path class="cls-4" d="M208.81,267.57c-.42-.13-.83-.25-1.25-.37-.46-.13-.94-.21-1.41-.3-1.07-.2-2.16-.33-3.24-.42-2.06-.17-4.15-.24-6.22-.08-.49.04-.99.09-1.48.17-.43.06-.99.1-1.32.4-.12.1-.18.25-.2.4-.02.21.1.39.27.5.27.18.61.08.9.02.2-.04.4-.07.6-.11.1-.02.19-.03.29-.04.04,0,.12,0-.05,0,.03,0,.05,0,.08,0,.06,0,.13-.02.19-.02,2.02-.24,4.08-.2,6.1-.07s4.02.33,6.02.55c.2.02.41.05.61.07.17.02.33-.15.35-.3.02-.18-.08-.33-.25-.39h0Z"/>
            <path class="cls-4" d="M211.9,252.56c-1.33,1.03-2.8,1.88-4.27,2.7s-2.96,1.58-4.37,2.47c-.4.25-.78.51-1.16.79-.21.16-.42.32-.62.49s-.39.34-.52.57c-.16.29.1.65.43.56.22-.06.42-.18.61-.3.17-.11.34-.22.51-.33.35-.23.7-.45,1.05-.67.71-.45,1.44-.88,2.17-1.3,1.45-.85,2.92-1.66,4.29-2.62.8-.56,1.56-1.18,2.26-1.85.12-.11.12-.3.03-.43-.09-.11-.29-.18-.42-.08h0Z"/>
            <path class="cls-4" d="M72.14,200.61c.29.11.58.21.89.28.27.06.55.12.82.17.54.1,1.08.17,1.63.23.86.1,1.73.16,2.6.19.77.02,1.54.02,2.31.04,1.25.03,2.51.08,3.76.13,2.52.11,5.03.24,7.55.32s5.09.11,7.63.15,5.07.09,7.6.09c.31,0,.62,0,.93-.02.26-.01.51-.22.5-.5s-.22-.48-.5-.5c-1.26-.11-2.54-.1-3.8-.12s-2.54-.03-3.8-.05c-2.53-.03-5.07-.06-7.6-.13s-5.04-.2-7.55-.31c-2.14-.1-4.28-.17-6.42-.2-.83-.01-1.65-.04-2.48-.1-.48-.03-.96-.08-1.45-.14-.06,0-.12-.01-.18-.02-.03,0-.07,0-.1-.01.02,0,.09.01-.01,0-.16-.02-.32-.05-.48-.07-.01,0-.12-.02-.07,0,.05,0-.04,0-.04,0-.07-.01-.15-.02-.22-.03-.15-.02-.3-.04-.45-.07-.32-.05-.64-.06-.96-.09-.2-.01-.37.16-.4.35-.02.21.1.37.29.44h0Z"/>
            <path class="cls-4" d="M143.46,202.6c.31.04.62.08.94.08s.62,0,.94,0c.63,0,1.27-.02,1.9-.03,1.25-.02,2.49-.04,3.74-.07,2.5-.05,4.99-.08,7.49-.09s4.99-.01,7.48-.09c2.06-.07,4.12-.23,6.18-.37,1.82-.13,3.64-.19,5.46-.24.3,0,.6-.02.9-.04.26-.02.51-.22.5-.5s-.22-.48-.5-.5c-1.07-.07-2.16-.04-3.23,0-.85.03-1.7.07-2.55.13-1.95.13-3.9.3-5.86.38-2.49.1-4.98.12-7.48.12s-4.99.03-7.48.07-5.03.1-7.54.23c-.33.02-.66.08-.98.13-.19.03-.32.26-.29.44.03.21.19.32.4.35h0Z"/>
            <path class="cls-4" d="M71.89,201.66c-.12,1.04-.13,2.08-.13,3.13s.02,2.09.05,3.13c.06,2.09.14,4.18.25,6.26s.23,4.16.38,6.24c.13,1.69.27,3.37.33,5.07.06,1.59.11,3.19.37,4.77.23,1.44.66,2.85,1.57,4.01s2.15,1.98,3.42,2.65,2.73,1.25,4.13,1.8c1.58.62,3.13,1.32,4.72,1.91,1.83.68,3.74,1.21,5.7,1.3.5.02.97-.03,1.45-.16.19-.05.32-.25.29-.44-.03-.21-.19-.33-.4-.35-.23-.03-.44-.06-.69-.07s-.49-.02-.74-.03c-.48-.02-.91-.07-1.33-.14-.94-.15-1.87-.4-2.78-.69-1.73-.56-3.39-1.31-5.07-1.99-.64-.26-1.28-.5-1.91-.76-.15-.06-.3-.12-.44-.18-.08-.03-.16-.07-.24-.1-.04-.02-.08-.03-.12-.05.12.05-.06-.02-.08-.03-.34-.15-.68-.3-1.02-.45-.67-.31-1.32-.66-1.95-1.04-.3-.19-.6-.38-.89-.6-.03-.03-.07-.05-.1-.08.1.08-.01,0-.03-.02-.07-.05-.13-.1-.19-.16-.14-.11-.27-.23-.4-.36-.24-.23-.47-.48-.67-.74.08.1,0,0-.02-.02-.02-.03-.05-.06-.07-.1-.05-.06-.09-.13-.13-.2-.09-.14-.17-.28-.25-.43-.04-.07-.07-.14-.1-.21-.02-.04-.03-.07-.05-.11-.06-.12.04.1-.01-.03-.07-.16-.13-.33-.18-.5-.11-.34-.2-.68-.28-1.03s-.14-.71-.19-1.06c0-.05-.01-.09-.02-.14.02.12,0-.04,0-.05-.01-.09-.02-.18-.03-.28-.02-.2-.04-.4-.06-.61-.07-.78-.11-1.56-.13-2.34-.02-.73-.04-1.46-.07-2.19-.03-.84-.1-1.69-.16-2.53-.14-2.04-.27-4.07-.4-6.11s-.23-4.13-.31-6.2-.13-4.13-.21-6.2c-.02-.5-.06-.99-.12-1.49-.05-.43-.62-.43-.67,0h0Z"/>
            <path class="cls-4" d="M107.98,202.86c-.03.46-.07.91-.09,1.37s-.01.87-.02,1.31c-.01.87-.01,1.74,0,2.61.02,1.76.04,3.51.07,5.27s.06,3.51.07,5.27,0,3.5.03,5.25.07,3.48.01,5.23c-.01.4-.02.79-.06,1.19,0,.04,0,.08-.01.12,0,0-.02.15,0,.06s0,.06,0,.06c0,.04-.01.09-.02.13-.03.16-.06.32-.1.47-.07.29-.16.57-.26.84-.01.03-.03.06-.04.1-.03.08.05-.12,0,0-.03.06-.05.12-.08.18-.06.13-.13.26-.2.39-.14.25-.29.49-.46.72-.02.03-.04.05-.06.08-.08.1.05-.06,0,0-.05.06-.09.11-.14.17-.09.11-.19.22-.29.33-.39.42-.82.8-1.27,1.16-.03.03-.07.05-.1.08.09-.07.03-.02,0,0-.06.04-.11.09-.17.13-.13.09-.26.19-.38.28-.26.19-.53.37-.8.55-.48.32-.98.62-1.46.94-1.04.69-2.07,1.41-3.16,2.04-.57.33-1.15.61-1.75.87-.02,0-.09.04,0,0-.04.02-.08.03-.12.05-.07.03-.13.05-.2.08-.14.05-.29.1-.44.15-.27.08-.54.14-.81.19.1-.02-.08,0-.11.01-.09,0-.17.01-.26.03-.06.01-.12.03-.17.04-.03,0-.07.01-.1.02,0,0-.1,0-.05,0-.17-.02-.32.16-.32.32,0,.19.15.3.32.32h.04c-.05-.01-.11-.03-.16-.04.26.16.61.17.9.15.31-.02.62-.06.92-.13.65-.14,1.26-.38,1.86-.67,1.18-.56,2.29-1.28,3.38-2,2.03-1.33,4.27-2.51,5.78-4.47.76-.98,1.24-2.15,1.4-3.38.11-.83.12-1.68.14-2.52s.01-1.76,0-2.65c-.02-1.77-.05-3.53-.06-5.3s-.04-3.55-.07-5.33-.07-3.57-.12-5.36c-.02-.9-.03-1.8-.06-2.7s-.03-1.78-.09-2.67c-.03-.44-.06-.87-.09-1.31-.03-.48-.72-.48-.75,0h0Z"/>
            <path class="cls-4" d="M142.85,202.68c.28,1.51.27,3.09.21,4.63-.06,1.69-.21,3.38-.29,5.08-.1,2.03-.04,4.06-.04,6.09,0,1.12,0,2.24,0,3.36,0,.98.02,1.97,0,2.95-.04,1.49-.18,2.97-.17,4.46,0,.76.04,1.53.18,2.28.1.57.28,1.15.62,1.63.36.51.81.93,1.3,1.32.59.46,1.21.88,1.86,1.26,1.24.74,2.55,1.36,3.86,1.96s2.7,1.28,4.07,1.9c.93.42,1.86.82,2.83,1.15s1.9.57,2.9.56c.22,0,.45,0,.67-.01.24,0,.47-.06.71-.11s.26-.46,0-.5c-.24-.04-.47-.09-.71-.12-.22-.03-.41-.07-.63-.12-.45-.12-.9-.24-1.35-.36-.95-.24-1.88-.57-2.79-.95-.03-.01-.13-.06-.11-.05.05.02-.04-.02-.04-.02-.03-.01-.07-.03-.1-.04-.12-.05-.24-.1-.35-.15-.22-.1-.43-.19-.65-.29-.44-.2-.87-.41-1.31-.62-.62-.3-1.24-.59-1.87-.88-1.24-.56-2.47-1.13-3.67-1.77-.65-.35-1.3-.71-1.92-1.12-.14-.09-.28-.19-.42-.28-.07-.05-.13-.09-.2-.14-.03-.03-.07-.05-.1-.08-.01-.01-.03-.02-.04-.03-.06-.04.08.06.02.02-.24-.19-.48-.39-.69-.61-.1-.1-.19-.2-.28-.31-.02-.02-.04-.05-.06-.07,0,0-.03-.05-.04-.05,0,0,.07.09.04.05-.04-.05-.08-.1-.11-.16-.07-.1-.12-.2-.17-.31-.05-.1,0,.01,0,.01,0,0-.03-.08-.03-.08-.03-.07-.05-.14-.07-.21-.04-.14-.08-.29-.11-.44-.02-.08-.03-.15-.04-.23,0-.04-.01-.08-.02-.13,0-.05-.03-.13,0-.03-.07-.35-.07-.72-.08-1.08-.06-1.52.08-3.03.17-4.55.05-.8.04-1.61.04-2.41,0-1.11,0-2.22,0-3.33s0-2.24,0-3.36c0-1.04-.02-2.08,0-3.12.02-1.63.18-3.26.21-4.89s.03-3.31-.43-4.9c-.1-.34-.22-.65-.39-.96-.12-.22-.42-.06-.38.16h0Z"/>
            <path class="cls-4" d="M178.18,201.2c-.12.87-.32,1.74-.39,2.61-.06.77-.11,1.54-.1,2.31.01.81.06,1.62.05,2.44-.01.9-.05,1.8-.11,2.7-.12,1.79-.26,3.58-.28,5.37s.05,3.62.06,5.43.13,3.45.16,5.17c.02.87.01,1.74-.04,2.61-.01.2-.03.4-.05.6,0,.1-.02.19-.03.29,0,.06-.01.11-.02.17,0,.02-.03.21-.01.13.01-.09,0,.05,0,.05,0,.04-.01.08-.02.13-.01.07-.03.14-.04.21-.04.15-.08.31-.13.45-.02.07-.05.14-.08.21,0,0-.05.13-.02.04s-.02.03-.02.04c-.06.14-.14.28-.21.41-.06.11-.13.22-.21.32-.04.06-.08.11-.12.17-.05.07.09-.11,0,0-.03.04-.06.08-.1.12-.18.21-.38.41-.59.6-.1.09-.2.17-.3.25s.1-.07,0,0c-.03.02-.06.05-.09.07-.06.05-.13.09-.19.14-.49.34-1,.62-1.53.88-.27.13-.54.26-.82.38-.13.06-.26.12-.4.17-.07.03-.14.06-.21.09-.09.04,0,0,.02,0-.05.02-.1.04-.15.06-.62.26-1.24.51-1.85.79-.7.32-1.39.68-2.09,1.02s-1.43.71-2.15,1.04c-.09.04-.18.08-.27.12-.02,0-.13.06-.04.02-.08.03-.15.07-.23.1,0,0-.15.06-.08.03s-.09.04-.08.03c-.1.04-.19.08-.29.12-.35.14-.7.26-1.06.37-.17.05-.34.12-.51.17-.08.03-.15.05-.23.08-.05.02-.09.03-.14.05-.03,0-.21.05-.14.04-.22.04-.35.31-.29.51.07.24.29.33.51.29-.07.01.08,0,.08,0,.05,0,.09,0,.14,0,.08,0,.16-.01.24-.02.22-.03.45-.06.67-.11.36-.1.72-.21,1.07-.34.78-.28,1.53-.63,2.27-.98s1.44-.72,2.16-1.07c.34-.17.68-.33,1.03-.49.17-.08.33-.15.5-.22.05-.02.09-.04.14-.06.03-.01.1-.04-.02,0,.08-.03.16-.07.24-.1,2.21-.92,4.79-1.85,6.08-4.03.77-1.31.82-2.87.86-4.35.04-1.75-.06-3.5-.12-5.26-.03-.87-.02-1.74-.03-2.6,0-.93-.03-1.86-.04-2.78s-.02-1.81,0-2.72.07-1.83.13-2.74c.11-1.81.23-3.63.12-5.45-.05-.75-.09-1.5-.1-2.25-.01-.81.03-1.63-.03-2.44-.03-.44-.04-.88-.03-1.33,0-.24-.39-.3-.42-.06h0Z"/>
            <path class="cls-4" d="M105.05,182.14s.05.08.05.08c0,0-.02-.05,0,0,0,.01,0,.02.01.04.06.14.17.23.29.31.09.06.2.09.31.12.12.03.23.05.35.07.38.03.77-.01,1.15-.07.78-.12,1.54-.39,2.3-.6.44-.12.88-.23,1.32-.29l-.14.02c.16-.02.32-.04.49-.04.08,0,.16,0,.23,0,.12,0,.24-.02.35-.04l-.14.02c.06,0,.12-.01.18-.02.2-.04.37-.27.37-.48-.01-.23-.15-.4-.37-.48-.19-.07-.4-.07-.59-.06s-.41.04-.61.06c-.33.05-.66.12-.99.21-.68.18-1.33.41-2.01.6-.35.1-.71.18-1.07.23l.13-.02c-.26.03-.51.04-.77.04-.06,0-.12,0-.17,0-.03,0-.06,0-.09,0-.04,0-.09.01-.13.02-.07.01.09,0,.04,0-.1,0-.2.02-.29.07-.02.01-.08.03,0,.01.02,0,.04,0,0,0-.02,0-.03,0-.05,0-.12.01-.21.13-.14.25h0Z"/>
          </g>
        </g>
        <g>
          <path class="cls-4" d="M59.73,160.58c-.03.23-.06.45-.08.68s-.08.47-.09.71c-.03.45-.07.9-.12,1.35s-.12.89-.17,1.36-.1.82-.17,1.28c-.03.22-.06.43-.09.65-.04.29-.06.42-.1.71-.07.48-.13.97-.19,1.45-.12.93-.22,1.86-.25,2.79s0,1.81.05,2.72.11,1.8.2,2.7c.17,1.85.45,3.7.83,5.52.42,2.01,1,3.98,1.85,5.86.07.15.28.2.42.14.15-.07.24-.23.2-.4-.45-1.75-.87-3.51-1.21-5.28-.17-.89-.32-1.78-.45-2.67-.02-.12-.03-.23-.05-.35,0-.06-.02-.12-.02-.18-.03-.19,0,.07,0-.04-.03-.22-.06-.45-.08-.67-.05-.45-.1-.9-.15-1.35-.09-.9-.18-1.8-.24-2.7s-.12-1.81-.12-2.71c0-1.83.23-3.64.42-5.46.1-1.02.22-2.04.22-3.07,0-.51,0-1.02-.04-1.53s-.14-1.02-.29-1.5c-.03-.11-.23-.13-.25,0h0Z"/>
          <path class="cls-4" d="M58.75,186.6c-.1.63-.18,1.27-.29,1.9-.06.34-.13.68-.14,1.02s-.02.68-.03,1.02c-.04,1.31-.04,2.62-.04,3.92s.05,2.63.09,3.94.1,2.61.18,3.92c.16,2.63.4,5.25.83,7.85s.97,5.08,1.51,7.61,1.04,5.01,1.54,7.52c.06.31.16.61.25.92.1.37.65.29.66-.09,0-.32.02-.63-.01-.95s-.06-.63-.1-.95c-.07-.66-.17-1.33-.29-1.98-.23-1.27-.49-2.54-.75-3.81-.52-2.52-1.07-5.03-1.5-7.56-.11-.63-.21-1.26-.3-1.9-.02-.15-.04-.3-.06-.45-.02-.12,0-.05,0-.02,0-.04-.01-.08-.02-.12-.01-.09-.02-.18-.03-.27-.04-.32-.08-.64-.11-.95-.14-1.31-.24-2.63-.34-3.95-.18-2.61-.28-5.22-.33-7.83-.03-1.31-.04-2.61-.09-3.92-.03-.66-.05-1.31-.07-1.97-.01-.35-.08-.69-.14-1.02-.06-.32-.1-.63-.15-.95s-.1-.63-.15-.95c0-.06-.12-.06-.13,0h0Z"/>
          <path class="cls-4" d="M62.39,226.95c-.06.29-.12.57-.15.85s-.06.56-.09.84c-.05.47-.08.97-.11,1.46-.06.83-.11,1.65-.16,2.48-.1,1.59-.16,3.18-.18,4.78-.02,2.05.02,4.09.04,6.14.02,2.16.02,4.32-.04,6.47s-.17,4.13-.43,6.19c-.01.12-.03.23-.04.35s.01-.08,0,.04c-.01.07-.02.15-.03.22-.04.27-.08.53-.11.8-.08.6-.16,1.19-.22,1.79-.12,1.15-.21,2.29-.27,3.44-.12,2.33-.13,4.66-.1,6.98s.12,4.68.19,7.02.14,4.62.16,6.93.06,4.81.24,7.21c.02.31.06.62.1.93.04.28.11.56.13.84.01.21.17.39.39.39.2,0,.4-.18.39-.39-.02-.29.01-.6.02-.9,0-.31,0-.62,0-.93-.02-.6-.03-1.2-.04-1.8-.02-1.2-.05-2.41-.06-3.61s0-2.34,0-3.51-.04-2.31-.07-3.47c-.07-2.34-.15-4.67-.21-7.01s-.07-4.67,0-7c.04-1.16.1-2.31.18-3.46.04-.57.1-1.14.16-1.7.03-.28.06-.56.1-.85.02-.14.03-.27.05-.41,0-.04.01-.08.02-.12,0,0,.01-.1,0-.04,0,.07,0-.05,0-.07,0-.05.01-.1.02-.15.14-1.02.28-2.04.37-3.07s.16-2.07.2-3.1c.1-2.15.11-4.31.1-6.46s-.04-4.19-.06-6.28c-.02-1.7,0-3.4.06-5.11.03-.77.03-1.55.04-2.32.01-.92,0-1.87-.07-2.78-.02-.26-.05-.52-.07-.78-.03-.29-.09-.57-.14-.85-.03-.15-.27-.15-.3,0h0Z"/>
        </g>
      </g>
    </g>
    <g>
      <path class="cls-7" d="M144.43,132.6c.07-2.54.16-5.09.25-7.58.26-7.2-5.96-12.94-13.11-12.11l-17.97,2.05c-4.89-.2-8.79,4.05-8.15,8.89.38,2.85.68,5.8.88,8.46.14,2.07.25,3.98.27,5.51.06,3.89.43,7.94.3,11.9.39.42.82.84,1.33,1.27,2.42,2.11,4.51,4.46,6.43,7,.23.31.47.61.7.92,3.37,4.67,6.92,9.41,9.66,14.53,2.72-5.12,6.27-9.86,9.64-14.53.23-.32.47-.62.71-.94,1.91-2.54,4-4.88,6.42-6.99,1.26-1.1,2.08-2.08,2.73-3.17-.27-4.7-.23-9.95-.09-15.22Z"/>
      <g>
        <path class="cls-3" d="M114.65,157.99c.23.31.47.61.7.92,3.37,4.67,6.92,9.41,9.66,14.53,2.72-5.12,6.27-9.86,9.64-14.53.23-.32.47-.62.71-.94-6.76.98-13.71.45-20.71.01Z"/>
        <g class="cls-11">
          <path class="cls-2" d="M112.51,161.71c.36.15.71.32,1.08.46s.73.24,1.1.34c.8.21,1.62.32,2.44.43,1.64.21,3.28.29,4.93.31s3.38,0,5.06-.09c1.9-.09,3.79-.27,5.67-.46,2.13-.21,4.26-.45,6.4-.66.16-.02.3-.12.3-.3,0-.16-.14-.29-.3-.3-3.79-.05-7.56.46-11.34.7-1.72.11-3.45.15-5.18.17-1.64.02-3.28.04-4.92-.05-.91-.05-1.8-.15-2.7-.26-.42-.05-.84-.11-1.26-.17s-.86-.1-1.27-.22c-.05-.01-.07.06-.02.08h0Z"/>
        </g>
      </g>
    </g>
  </g>
  <g>
    <path class="cls-2" d="M184.01,247.59c-2.27.71-4.55,1.11-4.55,1.11,0,0-1.85-.97-3.59.42-.85.69-1.26,1.89-.84,2.91.46,1.14,1.66,1.75,2.85,1.68,1.32-.09,2.69-1.55,2.69-1.55,0,0,2.5-.7,4.62-1.32l-.96-3.32c-.07.02-.15.05-.22.07Z"/>
    <path class="cls-17" d="M192.93,247.41c3.37-2.98,2-8.59,1.43-12.46-.85-5.91-2.2-12.06-3.61-17.88-1.82-7.42-4.71-16.42-10.28-21.96-2.91-2.91-6.09-4.22-9.63-5.19-.79-.22-1.35-.91-1.37-1.73-.18-8.62-.82-17.43-2.49-26.33-2.07-11.03-4.45-20.14-12.65-28.38-14.1-14.15-41.17-14.14-56.08-.46-.65.59-1.29,1.21-1.89,1.85-5.67,5.9-9.32,15.96-10.57,23.93-2.37,15.17-1.5,30.53-1.24,45.81,1.21-.3,2.46-.42,3.69-.33-.01-.68-.01-1.37-.01-2.07,0-14.05-.51-28.52,1.72-42.39,1.94-12,6.59-24.45,18.36-29.88,4.99-2.3,10.7-3.05,16.16-3.04,5.77.01,12.33.42,17.67,2.73,1.14.51,2.26,1.07,3.33,1.72,8.63,5.29,13.18,15.35,15.87,24.72,3,10.45,4.12,21.32,4.37,32.18.02.75-.47,1.42-1.2,1.61-3.62.97-6.84,2.27-9.79,5.21-5.58,5.52-8.49,14.53-10.32,21.93-1.43,5.83-2.79,11.97-3.66,17.88-.56,3.87-1.97,9.48,1.4,12.46,1.58,1.4,3.77,2.23,5.75,2.85.51.16,1.19.36,1.91.58l.93-3.34c-4.01-1.27-6.87-2.41-6.41-7.5.61-6.79,1.69-13.1,3.53-19.65,2.31-8.24,5.12-20.02,13.03-24.69,1.52-.91,3.17-1.69,4.89-2.15.43-.11.85-.21,1.29-.28.36-.06.74-.06,1.1,0,.47.08.94.19,1.4.33,1.68.46,3.28,1.24,4.77,2.13,7.91,4.7,10.68,16.48,12.97,24.72,1.82,6.56,2.89,12.85,3.5,19.66.45,5.14-2.47,6.24-6.55,7.52l.96,3.32c.75-.22,1.46-.43,1.99-.59,1.98-.62,4.19-1.45,5.75-2.83Z"/>
    <path class="cls-2" d="M154.48,252.13s1.37,1.47,2.7,1.55c1.17.09,2.37-.52,2.83-1.66.43-1.01.03-2.21-.82-2.91-1.73-1.4-3.59-.43-3.59-.43,0,0-2.28-.4-4.55-1.13-.11-.04-.22-.07-.33-.1l-.93,3.34c2.13.63,4.68,1.34,4.68,1.34Z"/>
    <g>
      <path class="cls-2" d="M95.72,224.34c-6.68,7.39-18.87,4.37-20.05-6.58-.48-4.32,1.58-9.25,5.28-11.62,1.11-.71,2.34-1.23,3.6-1.53,1.21-.3,2.46-.42,3.69-.33,3.06.23,5.99,1.72,7.76,4.51,2.65,4.12,3.14,11.77-.27,15.56Z"/>
      <g class="cls-9">
        <path class="cls-15" d="M88.74,212.06c-.16-.11-.34-.23-.53-.3-.08-.03-.16-.06-.25-.09-.04-.01-.08-.03-.12-.04-.01,0-.02,0-.03,0-.04-.01-.02,0,.06.03l-.12-.05c-.05,0-.1-.02-.16-.02l.13.02c-.25-.04-.5-.06-.75-.06s-.51.03-.75.08c-.47.08-.93.25-1.34.48s-.8.55-1.11.91c-.37.43-.65.9-.86,1.42-.39.94-.48,2.01-.26,3.01.21.94.74,1.84,1.49,2.43.19.15.38.29.59.41s.42.21.64.3c.41.16.84.24,1.27.27.88.07,1.75-.13,2.54-.52s1.52-1.07,1.97-1.85c.43-.74.65-1.6.62-2.45s-.27-1.64-.7-2.33c-.21-.34-.46-.67-.77-.94-.17-.15-.34-.28-.53-.4s-.37-.21-.58-.29c-.23-.09-.51-.16-.74-.05l.26-.03h-.02c-.16-.07-.38.06-.41.23-.04.19.06.35.23.41h.02c-.08-.07-.16-.15-.23-.23.04.09.08.15.15.22.03.03.05.06.08.08.1.08.12.09.03.02l.09.07s.04.03.06.04c.04.03.07.05.11.08.02.01.03.02.05.04.07.05-.09-.07-.03-.02.06.05.13.11.2.15.03.02.07.05.1.07-.15-.11-.02-.01.02.02.27.22.51.49.72.76l-.09-.11c.22.29.4.6.54.93l-.06-.14c.14.34.24.7.29,1.06l-.02-.16c.05.36.05.73,0,1.09l.02-.16c-.05.35-.14.69-.28,1.02l.06-.15c-.14.33-.32.64-.54.92l.1-.13c-.23.29-.49.56-.78.78l.13-.1c-.29.23-.61.41-.95.56l.15-.06c-.39.16-.8.27-1.22.33l.17-.02c-.37.05-.75.05-1.12,0l.16.02c-.33-.05-.66-.13-.97-.27l.14.06c-.26-.11-.51-.25-.73-.42l.12.09c-.24-.19-.45-.4-.64-.64l.09.12c-.21-.27-.37-.56-.51-.86l.06.14c-.14-.33-.23-.68-.28-1.03l.02.15c-.05-.39-.05-.78,0-1.17l-.02.15c.06-.4.16-.79.32-1.17l-.06.14c.15-.36.35-.7.59-1.01l-.09.12c.2-.26.43-.49.69-.68l-.12.09c.3-.23.64-.42.99-.57l-.14.06c.34-.14.7-.24,1.06-.29l-.15.02c.1-.01.19-.03.29-.04l-.14.02c.12-.02.25-.03.37-.03.16,0,.32.01.48-.02l-.13.02c.08,0,.16,0,.24,0,.04,0,.08,0,.12,0,.02,0,.05,0,.07,0h-.07c.06,0,.11,0,.17,0,.07,0,.08-.01.02,0-.04,0-.04,0-.01,0,.02,0,.04,0,.06,0,.04,0,.08,0,.11,0,.08,0,.16,0,.24.01.12.01.26-.1.29-.22.03-.14-.02-.26-.14-.34h0Z"/>
        <path class="cls-15" d="M90.62,207.1c-.24-.12-.48-.22-.73-.32-.27-.11-.42-.16-.72-.24-.52-.13-1.04-.21-1.58-.24-1.05-.05-2.11.07-3.11.36-2.13.61-3.96,1.94-5.21,3.76s-1.99,4.22-1.93,6.52.9,4.52,2.43,6.23c1.28,1.43,3.06,2.41,4.94,2.78s3.89.2,5.69-.51c1.92-.76,3.56-2.03,4.77-3.7,1.11-1.55,1.73-3.44,1.77-5.34s-.42-3.63-1.3-5.2-2.18-2.94-3.8-3.71c-.22-.1-.44-.2-.66-.29-.09-.04-.19-.06-.29-.08-.05-.01-.1-.02-.15-.04-.03,0-.06-.01-.09-.02s-.15-.04-.09-.02c-.17-.06-.37.07-.41.23-.05.19.06.35.23.41h.04s-.1-.04-.15-.07c.34.28.76.47,1.13.7.18.12.35.24.53.36.08.06.16.12.24.18.03.02.15.12.04.03.04.04.09.07.13.1.33.27.63.55.92.86.14.15.27.3.41.46.06.08.13.15.19.23.01.02.03.04.05.06-.07-.12-.03-.04,0-.01.03.04.07.09.1.13.25.34.47.7.67,1.06.1.18.19.36.27.55.02.05.05.1.07.15,0,.02.02.05.03.07.03.08-.02-.02-.01-.03-.02.03.1.25.12.29.15.39.27.78.37,1.19.05.21.09.41.13.62.02.1.02.2.05.29-.04-.16,0-.02,0,.03,0,.06.01.12.02.19.04.42.06.85.04,1.27,0,.21-.02.41-.04.62,0,.05-.01.1-.02.15-.02.15.02-.12,0,.03-.02.11-.03.23-.05.34-.08.42-.18.84-.32,1.24-.03.1-.07.2-.1.29-.02.05-.04.1-.06.15,0,.02-.02.05-.03.07-.02.06-.08.1,0,0-.06.08-.09.2-.13.29-.05.11-.1.22-.16.32-.21.4-.45.79-.71,1.16-.03.05-.06.09-.1.13-.02.03-.14.21-.04.06-.06.1-.15.19-.23.28-.15.18-.31.36-.48.53-.18.18-.36.36-.55.52-.08.07-.17.15-.25.22-.04.03-.08.07-.13.1-.02.02-.04.03-.06.05-.11.09,0,.03,0,0,0,.03-.23.17-.26.19-.1.07-.2.14-.3.2-.19.13-.39.24-.58.35s-.39.21-.59.3c-.1.05-.21.1-.31.14-.02,0-.05.02-.07.03.01,0,.14-.06.04-.02-.06.02-.11.05-.17.07-.41.16-.84.3-1.27.4-.22.05-.44.1-.66.14-.1.02-.21.04-.31.05-.03,0-.05,0-.08.01-.11.02.04,0,.05,0-.06,0-.13.02-.2.02-.44.05-.88.07-1.32.05-.22,0-.44-.02-.67-.04-.05,0-.1-.01-.16-.02-.02,0-.2-.02-.09-.01s-.07-.01-.09-.01c-.06,0-.13-.02-.19-.03-.43-.08-.86-.18-1.27-.32-.1-.03-.2-.07-.29-.1-.05-.02-.1-.04-.15-.06-.02,0-.05-.02-.07-.03-.13-.05.12.05,0,0-.2-.09-.41-.18-.6-.29s-.39-.22-.58-.34c-.09-.06-.18-.12-.26-.18-.04-.03-.09-.06-.13-.09-.02-.02-.04-.03-.06-.05-.09-.06.06.05,0,0-.36-.29-.69-.59-1-.93-.08-.09-.16-.18-.23-.27-.04-.04-.07-.09-.11-.13-.02-.02-.04-.04-.05-.07-.04-.06.06.09,0,0-.15-.21-.3-.41-.43-.63-.15-.23-.28-.47-.4-.72-.06-.11-.11-.23-.16-.35-.01-.03-.09-.2-.04-.08-.03-.07-.06-.15-.09-.22-.19-.5-.34-1.01-.44-1.53-.02-.12-.05-.25-.07-.37,0-.03,0-.06-.01-.09,0-.02-.02-.12,0-.04s0-.02,0-.04c0-.04,0-.08-.01-.12-.03-.27-.05-.54-.06-.81s0-.54,0-.81c0-.13.02-.25.03-.38,0-.06.01-.13.02-.19,0-.03,0-.06.01-.09,0-.02.02-.18,0-.04.07-.53.19-1.05.34-1.57.08-.26.17-.52.26-.77.02-.06.05-.12.07-.18.01-.03.02-.06.04-.09.03-.08-.04.09,0,0,.06-.12.11-.25.17-.37.24-.5.51-.97.82-1.42.07-.11.15-.21.23-.31.02-.02.04-.05.06-.07-.07.1-.02.03,0,0,.05-.06.1-.12.14-.18.17-.2.34-.39.52-.57s.36-.34.55-.5c.05-.04.1-.09.16-.13.03-.02.17-.13.06-.05.1-.08.2-.15.3-.22.4-.28.83-.53,1.27-.75.1-.05.21-.1.32-.15.03-.01.07-.03.1-.04.02,0,.11-.05.03-.01s.01,0,.03-.01c.03-.01.07-.03.1-.04.23-.09.46-.17.7-.25.47-.14.95-.25,1.44-.32.03,0,.11-.01-.02,0,.03,0,.06,0,.09-.01.09-.01.18-.02.28-.03-.13.01.03,0,.07,0,.06,0,.13-.01.19-.02.25-.02.49-.03.74-.03.48,0,.96.02,1.44.08.03,0,.06,0,.08.01-.07,0,0,0,.01,0,.08.01.16.03.24.04.12,0,.14.01.28.03.24.04.48.09.72.14.31.08.54-.39.23-.54h0Z"/>
      </g>
    </g>
  </g>
  <g>
    <g>
      <g>
        <path class="cls-7" d="M166.54,90.9c.03,3.47-1.21,6.88-3.27,9.66-1.69,2.3-4.87,5.62-8.07,5.2-.62,3.54-1.47,6.98-2.57,10.21-2.96,8.66-11.12,13.98-18.23,18.26-3.59,2.15-6.78,2.85-10.84,2.98-4.06-.16-7.26-.87-10.86-3.05-5.02-3.04-10.09-6.3-13.92-10.81-4.02-4.76-5.42-10.97-6.82-16.99-3.3.84-6.72-2.59-8.54-4.93-2.13-2.72-3.44-6.1-3.5-9.56-.07-5.03,3.33-12.04,8.43-9.35-.4-5.97-.91-12.64.26-18.59.16-.8.33-1.58.56-2.34,6.59-22.93,41.88-29.69,58.2-13.26,8.31,8.37,9.74,21.29,9.71,32.56,0,.45,0,.91-.01,1.37,5.48-4.03,9.43,3.35,9.47,8.65Z"/>
        <g class="cls-10">
          <path class="cls-17" d="M88.59,86.87c-.06.36-.18.71-.22,1.08s-.06.73-.08,1.1c-.02.74,0,1.48.02,2.22.06,1.49.22,2.98.38,4.46.34,3,.86,5.98,1.51,8.93.18.81.37,1.62.57,2.42.1.39.23.77.36,1.15.07.2.14.39.22.59.04.09.07.18.11.26.05.11.13.19.21.27.1.1.28.05.31-.08.02-.09.06-.18.06-.27,0-.07-.01-.15-.02-.22-.02-.2-.04-.4-.06-.6-.05-.36-.09-.73-.15-1.09-.13-.72-.29-1.44-.44-2.16-.29-1.45-.54-2.91-.79-4.36-.12-.73-.24-1.46-.35-2.19-.06-.37-.11-.74-.16-1.11,0-.05-.01-.1-.02-.15-.02-.11.02.14,0-.05-.01-.11-.03-.22-.05-.33-.01-.1-.03-.2-.04-.29,0-.02-.02-.12,0-.02,0-.06-.02-.12-.02-.18-.2-1.48-.36-2.97-.47-4.46-.06-.82-.13-1.64-.22-2.45-.04-.42-.08-.85-.15-1.27-.03-.2-.06-.41-.11-.61s-.12-.39-.15-.59c-.02-.13-.24-.13-.26,0h0Z"/>
          <path class="cls-17" d="M157.03,85.24c-.15.41-.18.86-.23,1.29s-.1.86-.13,1.29c-.08.87-.1,1.75-.14,2.62-.09,1.73-.14,3.46-.21,5.19-.07,1.63-.14,3.25-.23,4.88s-.17,3.15-.33,4.72c-.05.45-.1.89-.15,1.34-.01.1-.03.2-.04.3,0,.02-.02.14,0,.05,0,.06-.02.11-.02.17-.03.22-.06.44-.1.66-.07.43-.15.86-.23,1.29s-.16.87-.21,1.32c-.04.34.5.47.65.18.18-.36.32-.73.43-1.11s.21-.75.3-1.13c.18-.75.33-1.52.44-2.29.23-1.61.38-3.23.47-4.86.19-3.35.33-6.7.37-10.05,0-.48,0-.97,0-1.45s0-.99-.03-1.48-.07-.99-.12-1.48-.07-.99-.24-1.45c-.04-.11-.19-.11-.23,0h0Z"/>
          <path class="cls-17" d="M161.94,85.4s-.1-.02.04.02l-.11-.04c-.08-.02-.16-.02-.24,0,0,0,.13-.02.06,0-.05,0-.11.01-.16.02-.07,0-.14.02-.21.03-.13.03-.26.07-.39.12-.16.07-.33.14-.48.23s-.29.2-.43.31c-.5.39-.9.9-1.25,1.43-.73,1.12-1.21,2.39-1.57,3.67-.05.16-.08.33-.11.5-.02.08-.03.17-.04.25-.01.07-.02.14-.02.2,0,.02,0,.04,0,.06,0-.03.01-.09,0-.03-.04.18-.06.35-.08.53-.01.14,0,.27.01.41,0,.07.04.13.11.16.06.02.14.02.19-.04.09-.1.18-.2.24-.31.07-.14.15-.27.2-.42.01-.03.02-.06.04-.09,0-.01.01-.03.02-.04.02-.04.03-.02-.01.03.04-.05.07-.13.1-.19.06-.13.12-.27.18-.4.14-.31.25-.65.37-.97.12-.3.24-.6.36-.9.03-.07.06-.14.08-.21.01-.02.07-.16.03-.06-.04.09,0,.02,0,0,.01-.02.02-.05.03-.07.06-.15.13-.29.2-.44.14-.29.29-.58.45-.86.08-.13.16-.26.24-.38.04-.06.09-.13.13-.19.02-.03.04-.06.06-.08.03-.04.13-.16,0-.01.18-.23.37-.44.58-.64.06-.05.12-.11.18-.16.01-.01.03-.02.04-.03.07-.05-.12.09-.04.03.03-.02.07-.05.1-.07.12-.09.25-.17.38-.24.06-.04.13-.07.2-.1.04-.02.18-.08,0,0,0,0,.33-.13.1-.05.07-.03.14-.05.21-.08.04-.01.07-.02.11-.03.08-.03.15-.06.22-.12.09-.11.09-.12.02-.02,0,0,.02-.01.02-.02.11-.09.14-.26.1-.39-.04-.15-.15-.23-.28-.28h0Z"/>
          <path class="cls-17" d="M82.69,86.67c.08.14.16.24.32.29.05.02.11.03.16.05.06.02.12.05.18.07l-.07-.03s.1.05.15.06c.03,0,.05.01.08.02.05.01.1.02.16.03.11.03.22.05.33.07.19.04.38.09.57.15.09.03.18.06.26.09.02,0,.04.02.06.03.09.04-.14-.06-.05-.02.05.02.1.04.14.06.16.08.32.17.47.27.07.04.13.09.19.13.02.01.03.03.05.04l-.09-.07s.02.02.03.03c.04.03.08.06.11.09.13.11.26.23.37.36.06.06.11.12.16.19.02.03.04.05.07.08.03.04.08.11-.04-.06.02.02.03.04.05.07.21.29.4.58.57.9.08.15.16.31.23.47.02.04.04.08.05.12.02.05.09.22,0,0,.04.09.07.18.11.27.28.71.49,1.44.72,2.17.13.42.26.83.39,1.24.07.21.14.42.21.62.05.13.11.27.19.39s.17.2.27.28c.1.08.21.13.34.09.11-.03.22-.13.24-.24s.05-.23.04-.34c0-.14-.04-.27-.07-.4-.04-.19-.11-.38-.17-.56-.11-.39-.22-.78-.32-1.16-.2-.76-.41-1.52-.68-2.26s-.58-1.46-1.04-2.1-1.06-1.2-1.78-1.55c-.39-.19-.8-.34-1.22-.43-.26-.05-.51-.09-.77-.09-.15,0-.29.02-.44.05-.16.04-.34.05-.46.17-.08.08-.18.24-.12.36h0Z"/>
          <circle class="cls-17" cx="107.57" cy="85.4" r="3.53"/>
          <circle class="cls-17" cx="139.35" cy="85.4" r="3.53"/>
          <path class="cls-17" d="M122.83,123.17c.1.04.19.07.29.1s.2.04.29.05c.14.02.28.05.43.05.1,0,.21.01.31.02.42.03.84.04,1.25.05.86.02,1.73-.03,2.54-.34.25-.1.5-.23.73-.38.13-.08.25-.17.36-.28.1-.1.19-.21.2-.34,0-.07,0-.12,0-.19-.01-.06,0,.08,0,.02,0-.12-.08-.22-.19-.25-.05-.01.07.03,0,0-.11-.06-.23-.08-.36-.04-.11.03-.21.08-.31.13l.11-.05c-.16.07-.31.14-.46.21l.12-.05c-.44.18-.91.31-1.39.38l.15-.02c-.51.07-1.04.08-1.55.08-.26,0-.52,0-.78,0s-.54.02-.81.04c-.35.03-.7.13-1,.32-.1.06-.15.16-.13.28s.09.19.2.23h0Z"/>
          <path class="cls-17" d="M148.66,73.55c-.43-.49-.9-.93-1.42-1.31s-1.05-.67-1.63-.93c-1.17-.53-2.42-.86-3.7-1.03-2.49-.35-5.06-.35-7.49.36-.73.21-1.45.5-2.12.86s-1.36.8-1.9,1.38c-.38.41.1,1.01.59.76.58-.3,1.16-.61,1.75-.88.03-.01.06-.03.09-.04,0,0,.16-.07.06-.03-.13.06.13-.05.18-.07.06-.03.05-.05-.02,0,.04-.04.16-.06.21-.09.09-.03.17-.07.26-.1.3-.11.6-.2.9-.3.57-.18,1.16-.33,1.75-.44.14-.03.27-.05.41-.07.07-.01.13-.02.2-.03.03,0,.06,0,.09-.01-.21.04-.07,0-.02,0,.27-.03.54-.06.81-.08,1.2-.09,2.41-.08,3.61.03.15.01.31.03.46.05.06,0,.13.02.19.02.04,0,.08.01.12.02.05,0,.03,0-.05,0,.02,0,.05,0,.07.01.3.04.6.09.9.15.61.11,1.2.27,1.8.44.32.09.64.2.96.32.08.03.16.06.24.1.02,0,.12.05.03.01.07.03.14.06.21.09.03.01.06.02.09.04-.08-.03.06.03.06.03.07.03.15.07.22.1.63.29,1.24.62,1.81,1.01.22.15.43-.17.27-.35h0Z"/>
          <path class="cls-17" d="M98.81,75.34c.5-.35,1.04-.64,1.59-.91.13-.06.26-.13.39-.18.03-.01.06-.03.09-.04.14-.06-.04.02.04-.02.04-.02.07-.03.11-.05.02,0,.22-.09.13-.06.28-.12.57-.22.85-.32.58-.19,1.16-.35,1.76-.48.3-.06.59-.12.89-.16.15-.02.29-.05.44-.07,0,0,.17-.02.06,0s.05,0,.06,0c.08-.01.16-.02.24-.03,1.22-.14,2.44-.16,3.66-.1.27.01.54.03.81.06.13.01.26.03.39.04.04,0,.07.01.11.01-.01,0-.18-.03-.06,0,.07.01.15.02.22.03.59.09,1.18.22,1.76.39.33.1.67.2.99.31.17.06.35.12.52.19.08.03.16.06.24.09.11.05,0,0-.02,0,.09.03.17.07.26.11-.14-.06-.03-.01,0,0,.05.02.09.04.14.06.09.04.17.08.26.12.16.08.32.16.48.25.33.18.66.34.99.51.49.25.97-.35.59-.76-.48-.52-1.06-.91-1.67-1.26s-1.26-.63-1.92-.85c-1.16-.38-2.4-.63-3.62-.69s-2.48-.02-3.7.13c-1.29.15-2.59.4-3.8.9-.67.28-1.32.6-1.92,1.01s-1.14.89-1.62,1.45c-.16.18.05.5.27.35h0Z"/>
          <g>
            <path class="cls-3" d="M128.1,118.49c2.74-.68,7.96-3.73,7.7-7.12-.11-1.42-1.54-2.01-2.8-1.59-.65.21-1.22.62-1.8.97-2.92,1.76-6.68,2.44-9.99,1.54-1.19-.32-2.3-.96-3.58-.79-2.34.32-2.39,3.05-.71,4.68.75.73,1.62,1.33,2.58,1.73,2.73,1.16,5.75,1.29,8.61.58Z"/>
            <g class="cls-14">
              <path class="cls-5" d="M137.12,110.3c-4.4,4.19-11.84,5.4-17.66,4.42-1.51-.26-2.9-.83-4.39-1.18-.26,4.87,5.65,6.45,8.54,6.55,3.68.12,8.4-1.18,11.29-3.6,1.51-1.27,2.41-4.26,3.02-6.16l-.78-.02Z"/>
            </g>
          </g>
        </g>
      </g>
      <path class="cls-17" d="M107.55,130.9c.2.25.4.49.65.7s.53.41.79.61c.49.38,1,.74,1.51,1.1,1.02.73,2.06,1.44,3.16,2.06,1.17.66,2.39,1.21,3.68,1.6s2.6.62,3.93.76,2.63.2,3.94.23c1.2.02,2.41-.15,3.58-.44,2.41-.6,4.7-1.72,6.77-3.08,1.02-.67,1.95-1.4,2.91-2.11.53-.39,1.05-.78,1.56-1.19.24-.19.48-.39.71-.59s.45-.44.66-.67c.1-.11.2-.2.29-.31.1-.12.15-.29.21-.44.06-.15-.14-.26-.26-.2-.14.07-.29.12-.4.22s-.23.2-.35.3c-.24.19-.49.37-.73.56-.47.38-.97.73-1.47,1.08-.98.69-1.94,1.41-2.95,2.06s-2.05,1.23-3.12,1.75c-.27.13-.55.26-.83.38-.07.03-.13.06-.2.09-.03.01-.07.03-.1.04.09-.04-.02,0-.04.02-.14.06-.28.12-.42.17-.56.22-1.14.42-1.72.59s-1.15.32-1.73.42c-.14.03-.29.05-.43.07-.07.01-.14.02-.2.03-.09.01.09-.01,0,0-.04,0-.08.01-.13.02-.28.03-.57.06-.86.07-.61.03-1.22,0-1.84-.01-.65-.02-1.3-.05-1.94-.11-.32-.03-.64-.06-.96-.09-.16-.02-.32-.04-.48-.06-.01,0-.13-.02-.07,0s-.05,0-.07,0c-.08-.01-.17-.02-.25-.04-.63-.1-1.27-.22-1.89-.37s-1.25-.34-1.86-.57c-.15-.06-.31-.12-.46-.18-.04-.01-.07-.03-.11-.04-.09-.04.06.03-.02-.01-.06-.03-.12-.05-.19-.08-.04-.02-.03-.01,0,0l-.05-.02c-.29-.13-.58-.26-.86-.4-1.12-.54-2.18-1.19-3.23-1.85s-2.07-1.39-3.19-1.92c-.29-.13-.58-.21-.89-.27-.07-.01-.11.06-.07.12h0Z"/>
      <path class="cls-5" d="M161.48,103.68c0,1.22-.99,2.22-2.22,2.22s-2.22-.99-2.22-2.22.99-2.22,2.22-2.22,2.22.99,2.22,2.22Z"/>
      <path class="cls-5" d="M90.26,104.68c0,1.22-.99,2.22-2.22,2.22s-2.22-.99-2.22-2.22.99-2.22,2.22-2.22,2.22.99,2.22,2.22Z"/>
    </g>
    <g>
      <path class="cls-7" d="M128.26,87.37c.56,2.17,2.79,3.47,4.73,4.88,2.15,1.56,4.03,2.83,1.86,5.02-1.4,1.42-3.9,2.12-5.57,3.33-.96.7-1.87,1.29-3.03.45-1.95-1.4-2.53-4.48-2.76-6.45-.01-.11-.02-.22-.03-.33-.18-2.91.18-5.93,1.71-8.59.33-.58,1.13-1.89,2.16-1.39,1.01.5.71,2.28.92,3.08Z"/>
      <path class="cls-17" d="M127.5,81.54c-.12.3-.21.61-.3.93s-.1.65-.11.97c-.03.56,0,1.11.06,1.67s.18,1.13.31,1.68c.1.47.19.94.38,1.39.84,2.03,2.78,3.26,4.49,4.5.23.16.45.33.68.5.11.08.21.15.31.23.05.04.11.08.16.12.03.02.05.04.08.06.08.06.06.03-.01,0,.21.13.41.32.59.49s.35.32.51.5c.04.04.07.08.11.12.11.13-.09-.13,0,0,.06.09.12.18.17.27.02.04.05.09.07.13,0,.02.01.03.02.05.04.08-.06-.16-.03-.08.03.09.06.19.08.28,0,0,.02.06.01.07,0,0-.02-.21-.01-.09,0,.05,0,.09,0,.14s0,.09,0,.14c0,.06-.04.09.01-.09,0,.02,0,.05-.01.07-.02.1-.05.2-.09.3-.04.11.02-.05.03-.06-.01.02-.02.05-.04.08-.03.06-.06.12-.1.18-.03.05-.07.11-.1.16-.01.02-.13.2-.08.11s0,.01-.03.03c-.02.02-.04.04-.05.06-.06.07-.13.15-.19.22-.1.11-.21.21-.33.31s.13-.1.05-.03c-.03.02-.06.04-.09.06-.06.05-.13.09-.2.14-.14.09-.28.18-.42.26-.68.4-1.39.75-2.08,1.12s-1.38.74-2,1.2c-.3.22-.58.45-.81.74s-.43.57-.48.92c-.01.1-.03.2-.03.31,0,.02,0,.05,0,.07,0,.07.02.35.01.09,0,.3.26.58.57.57s.57-.25.57-.57c0,.18-.02.12,0,.05,0-.03.01-.05.02-.08.03-.09.06-.05-.02.05.02-.02.03-.06.04-.08.06-.11.13-.2.2-.3.01-.02-.12.15-.03.04.02-.03.04-.05.07-.08.05-.06.1-.11.16-.16s.11-.1.17-.15c.03-.02.05-.04.08-.06.06-.05-.13.11-.07.05.06-.05.12-.09.18-.14.02-.01.03-.03.05-.04.08-.07-.07.05-.07.05.03-.02.07-.05.1-.08.07-.05.15-.11.23-.16.15-.1.31-.2.47-.3.34-.21.69-.4,1.05-.59.7-.37,1.42-.72,2.12-1.11.65-.36,1.28-.77,1.76-1.34.37-.44.71-.94.81-1.52s.02-1.07-.22-1.58c-.2-.43-.53-.81-.87-1.14-.41-.39-.87-.73-1.32-1.06-.86-.63-1.75-1.23-2.62-1.86-.1-.07-.21-.15-.31-.23-.03-.02-.05-.04-.08-.06-.02-.01-.08-.06,0,0,.08.06,0,0-.02-.02-.03-.02-.06-.05-.09-.07-.2-.16-.4-.33-.59-.5s-.36-.35-.53-.53c-.07-.08-.15-.17-.22-.25-.02-.02-.04-.05-.06-.07-.06-.07.08.1.02.03-.04-.05-.08-.11-.12-.16-.13-.19-.26-.39-.36-.6-.03-.05-.05-.1-.08-.16,0-.02-.03-.06-.04-.08.01.1.04.09.02.04-.04-.12-.09-.24-.12-.36-.15-.48-.3-.96-.43-1.45-.14-.52-.28-1.05-.37-1.59-.05-.3-.08-.47-.11-.77-.03-.31-.02-.62-.05-.92s-.03-.63-.02-.94c0-.26-.34-.27-.42-.06h0Z"/>
    </g>
    <g>
      <g>
        <path class="cls-19" d="M157.05,86.63c-.78-3.66-.65-7.32-1.86-10.91-.65-1.89-1.47-3.57-2.41-5.31-.91-1.68-1.94-3.11-3.08-4.67-.25-.33-.48-.67-.69-1-1.4-.26-2.78-.58-4.02-.84-9.01-1.85-17.55-7.21-22.9-14.79-.49,3.34-2.23,6.64-4.12,9.09-1.68,2.17-3.54,4.06-5.68,5.8-.81.65-1.68,1.23-2.57,1.76-.69.77-1.43,1.52-2.23,2.26-2.43,2.26-4.96,4.61-7.03,7.2-2,2.5-1.97,5.48-2.36,8.49-.43,3.33-1.39,6.69-3.64,9.28-1.89,2.18-4.44,3.34-6.64,5.12-2.31,1.85-4.21,4.32-4.55,7.37-.35,3.02.87,5.87.48,8.99-.49,3.79-1.95,7.89-5.38,9.99-2.49,1.5-7.32,1-7.2-2.83,2.18,2.34,4.94,1.91,6.49-.88,1.36-2.41.93-5.15.32-7.71-.27-1.14-.56-2.3-.78-3.46-.75-.74-1.5-1.46-2.15-2.27-1.65-2.02-2.67-4.61-3.15-7.18-.66-3.59-.48-7.2.71-10.52-.55-4.55.19-9.02,2.75-13.11,1.17-1.88,1.19-2.17.97-4.28-.23-2.17-.12-4.58.01-6.77.27-4.8,2.47-10.41,5.68-14.01,2.3-2.56,5.03-4.86,8.07-6.68.71-1.06,1.53-2.05,2.53-2.98,2.3-2.11,4.8-3.44,7.56-4.81.01,0,.01-.01.03-.01,3.48-1.73,7.37-2.86,11.26-3.33.38-.04.75-.09,1.11-.13,3.18-.3,6.1-.33,9.06.1,2.18-.82,4.55-1.14,6.94-1.08,2.76.07,5.57.68,8.17,1.63,1.58.58,3.08,1.29,4.47,2.1,7.92,4.61,13.88,11.13,17.28,19.65,3.44,8.57,1.59,22.08-1.43,30.73Z"/>
        <g class="cls-13">
          <path class="cls-6" d="M106.07,57.89c-.95.47-1.89.97-2.77,1.55s-1.68,1.24-2.42,1.97c-1.45,1.43-2.73,3.05-3.8,4.78s-1.96,3.61-2.71,5.52-1.35,3.87-1.84,5.85c-.54,2.18-.96,4.38-1.64,6.52-.18.56-.37,1.11-.58,1.65-.05.13-.1.26-.16.39-.03.07-.05.13-.08.2-.01.03-.03.06-.04.1.03-.08,0-.02-.01.03-.11.27-.23.53-.36.79-.25.52-.53,1.03-.83,1.53-.15.25-.31.49-.48.73-.08.12-.16.23-.25.35-.04.06-.09.11-.13.17s0,0,.01-.02c-.03.04-.06.08-.09.11-1.43,1.81-3.14,3.38-4.81,4.96s-3.35,3.1-4.74,4.9c-1.13,1.46-1.95,3.16-2.36,4.96-.24,1.03-.35,2.1-.35,3.16,0,.56.04,1.12.12,1.68.08.63.17,1.27.35,1.88.09.29.19.57.29.85.06.17.13.34.2.5.06.14.14.28.19.42.07.21.28.35.5.29.2-.06.36-.29.29-.5-.1-.3-.15-.66-.22-.97s-.12-.63-.18-.94c-.05-.29-.12-.58-.17-.88-.01-.07-.02-.14-.03-.22,0-.03-.03-.23-.02-.11-.02-.15-.04-.3-.05-.45-.11-1.07-.11-2.15.02-3.22,0-.03,0-.06.01-.09-.02.14,0,.05,0,.02,0-.06.02-.12.03-.18.02-.13.04-.25.07-.38.05-.24.1-.48.16-.72.11-.45.25-.89.41-1.33.04-.1.08-.21.12-.31,0-.02.08-.19.04-.1-.04.08,0,0,0-.02.01-.03.03-.06.04-.09.09-.2.18-.4.29-.6.19-.38.4-.74.63-1.1.11-.17.23-.34.35-.51.06-.08.12-.16.18-.24.09-.12-.06.08,0,0,.04-.06.09-.11.14-.17.34-.42.69-.83,1.05-1.22.78-.85,1.6-1.66,2.43-2.45,1.68-1.61,3.43-3.17,4.97-4.91.77-.86,1.48-1.78,2.08-2.77s1.11-2.1,1.52-3.21c.8-2.16,1.28-4.41,1.76-6.66.42-1.99.95-3.95,1.61-5.88.16-.48.34-.96.52-1.44.09-.23.18-.46.27-.69.05-.11.09-.23.14-.34.02-.06.05-.11.07-.17,0,.02-.04.09,0,0,.02-.04.03-.07.05-.11.4-.92.83-1.83,1.31-2.72s.99-1.74,1.55-2.57c.28-.41.56-.81.86-1.21.04-.05.07-.1.11-.15-.04.06,0,0,0-.01.02-.02.04-.05.06-.07.08-.11.17-.22.26-.32.15-.19.31-.38.47-.56.66-.76,1.36-1.49,2.1-2.18s1.52-1.38,2.33-2.02c.41-.32.83-.62,1.27-.9.12-.08.02-.25-.11-.19h0Z"/>
          <path class="cls-6" d="M92.27,64.86c-.32.23-.62.51-.86.83-.12.16-.25.32-.35.5s-.2.36-.28.55c-.35.76-.58,1.59-.8,2.4-.12.44-.22.89-.34,1.33-.14.52-.29,1.05-.44,1.57-.31,1.03-.64,2.06-1.01,3.07-.18.49-.36.98-.55,1.46-.05.12-.09.23-.14.35-.03.06-.05.12-.08.19,0-.01.03-.08,0-.01-.01.03-.03.07-.04.11-.04.09-.08.19-.12.28,0,0-.04.09-.01.03s-.01.03-.01.03c-.05.12-.11.24-.16.37-.41.93-.85,1.85-1.33,2.75-.94,1.78-2,3.5-3.14,5.16-.11.16-.22.32-.34.48-.06.08-.11.16-.17.23-.03.04-.06.08-.09.12-.01.02-.03.04-.04.05-.01.02-.07.1-.02.02.06-.08-.05.06-.06.07-.03.04-.06.07-.08.11-.06.08-.13.16-.2.24-.13.16-.25.31-.38.46-.51.6-1.04,1.19-1.58,1.77-1.06,1.14-2.16,2.26-3.16,3.46s-1.95,2.51-2.63,3.94c-.77,1.61-1.21,3.33-1.33,5.11s.12,3.69.71,5.43c.3.88.68,1.73,1.13,2.54s1.01,1.59,1.63,2.29c.3.33.63.64.93.97.28.31.74-.15.46-.46s-.53-.72-.77-1.08-.48-.76-.71-1.15-.44-.78-.65-1.18c-.1-.2-.19-.39-.28-.59-.05-.1-.09-.2-.13-.3.04.09,0-.02-.02-.05-.03-.06-.05-.12-.08-.19-.33-.82-.57-1.67-.75-2.54-.04-.21-.08-.43-.12-.64,0-.06-.02-.12-.03-.17,0-.02-.02-.17-.01-.09s0-.07-.01-.09c0-.07-.02-.13-.02-.2-.05-.44-.07-.89-.08-1.34s.01-.9.05-1.36c0-.1.02-.21.03-.31,0-.06.01-.12.02-.18,0-.01.01-.1,0-.02s0-.03,0-.05c.03-.23.07-.46.11-.68.15-.8.39-1.58.69-2.33.02-.04.04-.08.05-.12,0,0-.05.12-.02.05,0-.02.02-.04.03-.06.04-.09.08-.19.13-.28.08-.17.16-.34.25-.51.17-.34.36-.67.56-1s.41-.64.63-.95c.11-.16.23-.32.34-.47.03-.03.05-.07.08-.1s.13-.16.02-.02c.06-.07.12-.15.17-.22.96-1.21,2.02-2.32,3.08-3.45s2.19-2.35,3.17-3.63c1.15-1.5,2.13-3.14,3.04-4.79.99-1.79,1.88-3.65,2.59-5.57s1.32-4.01,1.8-6.06c.11-.45.21-.9.3-1.36.08-.4.14-.81.22-1.21.16-.79.37-1.58.7-2.32.16-.36.37-.7.62-1,.07-.08-.02-.24-.13-.17h0Z"/>
          <path class="cls-6" d="M68.87,97.15c.04-.23.07-.47.16-.69s.17-.43.24-.66c.14-.44.3-.87.46-1.3.31-.86.67-1.64,1.1-2.43.22-.4.46-.78.71-1.16.13-.19.26-.38.39-.57.16-.22.22-.3.37-.49.6-.74,1.26-1.43,1.93-2.11,1.34-1.34,2.74-2.61,3.91-4.11,1.24-1.59,2.18-3.39,2.74-5.33.53-1.8.74-3.68.85-5.54s.09-3.82.18-5.72c.02-.45.05-.9.1-1.35.01-.1.02-.2.03-.29,0-.02.02-.16.01-.08s0,0,0-.01c0-.04.01-.08.02-.11.03-.2.06-.41.1-.61.15-.82.35-1.63.61-2.43.13-.4.27-.8.42-1.19.04-.1.08-.2.12-.3.02-.04.04-.09.05-.13-.04.11.02-.06.04-.09.08-.19.17-.39.26-.58.36-.77.77-1.52,1.22-2.24.22-.36.46-.72.71-1.06.12-.17.25-.35.38-.51.03-.04.07-.09.1-.13.04-.05,0,0,0,.01.02-.02.04-.05.06-.07.07-.09.14-.17.21-.26.53-.66,1.1-1.28,1.71-1.87.3-.29.61-.57.94-.84.16-.14.32-.27.48-.4.04-.03.08-.07.13-.1.07-.05-.02.01.05-.04.09-.07.17-.13.26-.19.67-.5,1.38-.94,2.12-1.34.35-.19.7-.4,1.07-.56.2-.09.25-.38.15-.56-.12-.21-.35-.23-.56-.15.01,0,.03-.02,0,0-.03.01-.06.02-.08.03-.04.02-.08.03-.13.05-.12.05-.24.1-.35.15-.2.08-.39.17-.58.27-.37.19-.73.39-1.08.6-.74.45-1.45.96-2.12,1.5-1.35,1.1-2.53,2.39-3.55,3.79s-1.89,2.95-2.56,4.56-1.11,3.19-1.33,4.86c-.26,1.9-.26,3.84-.34,5.75-.04.93-.07,1.87-.16,2.8-.02.24-.04.47-.07.71-.01.11-.02.22-.04.33,0,.05-.01.1-.02.15,0,.03-.01.13,0-.02,0,.03,0,.07-.01.1-.06.45-.14.9-.23,1.35-.19.93-.45,1.84-.8,2.72-.04.11-.08.21-.13.32-.01.02-.02.05-.03.07,0,0,.04-.1.01-.03s-.06.13-.09.2c-.1.22-.2.45-.32.66-.22.45-.47.88-.74,1.3-.13.21-.27.41-.41.61-.07.09-.13.18-.2.28-.03.04-.06.08-.09.13-.01.01-.08.1-.03.04.05-.06-.02.03-.03.04-.3.38-.61.74-.93,1.1-.64.71-1.31,1.38-1.97,2.06-1.35,1.38-2.68,2.78-3.66,4.45-.47.8-.86,1.66-1.15,2.54-.14.43-.27.86-.37,1.3-.11.46-.18.92-.24,1.39-.03.23-.05.44-.05.67,0,.25-.05.48-.08.73-.02.11.15.16.17.05h0Z"/>
          <path class="cls-6" d="M157.5,67.03c-.14-.15-.29-.3-.43-.44-.16-.15-.34-.27-.52-.38-.37-.24-.8-.43-1.21-.58-.81-.28-1.65-.48-2.5-.62-1.78-.29-3.59-.28-5.38-.13-.98.08-1.96.21-2.93.36-.2.03-.32.27-.29.45.03.19.19.36.4.35,1.68-.1,3.38-.19,5.06-.13.87.03,1.74.07,2.6.17.05,0,.1.01.15.02.07,0-.02,0-.03,0,.06,0,.12.02.18.02.05,0,.1.01.15.02.07,0-.02,0-.02,0,.03,0,.07,0,.1.01.21.03.42.06.63.1.41.07.83.17,1.23.28.45.12.9.24,1.34.37s.9.21,1.36.31c.11.02.18-.1.11-.18h0Z"/>
          <path class="cls-6" d="M121.82,43.71c.05,0,.1.02.16.03.02,0,.04.01.06.02.11.02-.1-.02.05.01.06.01.11.03.18.03.02,0,.08,0,0,0,.06,0,.11.02.17.03.21.04.42.11.63.19.12.05-.14-.06.04.02,0,0,.17.07.04.02.05.02.1.04.15.07.1.05.21.1.31.16.21.12.41.25.61.39.1.07.2.14.3.22.03.02.19.13.06.04.06.04.11.08.16.13.2.17.4.34.59.52.4.37.77.77,1.14,1.17.71.77,1.36,1.59,2.01,2.4s1.3,1.56,2,2.3c1.75,1.84,3.65,3.54,5.7,5.04s4.26,2.75,6.62,3.68,4.86,1.46,7.39,1.43c.33,0,.66-.07.99-.11.14-.02.22-.19.2-.31-.02-.15-.13-.23-.28-.24-.32-.03-.64-.09-.96-.12s-.63-.05-.95-.09c-.56-.06-1.18-.17-1.79-.29-1.22-.24-2.42-.58-3.59-1.01-.29-.11-.58-.22-.87-.34-.03-.01-.06-.03-.09-.04.09.04,0,0-.03-.01-.07-.03-.14-.06-.2-.09-.15-.07-.3-.13-.45-.2-.57-.26-1.12-.54-1.67-.84-1.1-.6-2.16-1.28-3.18-2.01-.26-.18-.51-.37-.76-.56-.03-.02-.05-.04-.08-.06,0,0-.13-.1-.06-.04s-.06-.05-.06-.05c-.03-.02-.05-.04-.08-.06-.13-.1-.26-.21-.39-.31-.49-.39-.97-.8-1.44-1.22-.93-.83-1.83-1.7-2.69-2.61-.73-.77-1.44-1.56-2.11-2.38s-1.28-1.58-1.95-2.33c-.74-.83-1.55-1.6-2.46-2.24-.79-.56-1.75-.98-2.74-.98-.14,0-.28,0-.41.04-.15.04.06-.01-.05.01-.02,0-.04.01-.06.02-.05.02-.1.04-.16.06-.11.05-.2.13-.2.26,0,.11.08.24.2.26h0Z"/>
          <path class="cls-6" d="M121.29,39.99c.18-.03.36-.07.57-.1.04,0,.09-.02.13-.02.02,0,.04,0,.06,0-.1.01.07,0,.08-.01.03,0,.05,0,.08-.01,0,0-.06,0-.02,0,.06,0,.11-.01.17-.02.18-.01.37-.02.55-.01.09,0,.18,0,.27.02.04,0,.09,0,.13.01-.15-.02.06,0,.08.01.03,0,.06,0,.1.01.06,0-.03,0-.04,0,.03,0,.05,0,.08.01.04,0,.09.01.13.02.1.02.19.04.29.06.2.04.39.1.58.16s.39.13.58.21c.05.02.09.04.14.05.02,0,.04.02.06.02-.12-.05-.04-.02-.02,0,.1.05.2.09.31.14.77.37,1.5.83,2.18,1.34.08.06.16.12.25.19.02.02.05.04.07.05-.01-.01-.11-.08-.02-.02.05.04.09.07.14.11.17.13.33.27.49.41.33.28.64.57.95.87.55.54,1.07,1.1,1.55,1.7.05.07.11.14.16.2.07.08-.1-.13,0-.01.03.04.06.08.09.11.16.21.31.43.46.65.29.44.57.88.83,1.34,1.05,1.85,1.85,3.83,2.76,5.74.42.89.87,1.78,1.43,2.59s1.27,1.59,2.17,2.05c.2.1.44.16.65.22.14.04.27-.16.15-.26-.17-.15-.3-.32-.46-.48-.17-.17-.32-.35-.47-.53-.3-.37-.57-.72-.85-1.12-.56-.81-1.03-1.67-1.46-2.56-.23-.48-.45-.97-.67-1.47-.05-.12-.11-.25-.16-.37-.03-.06-.05-.12-.08-.17.05.11-.07-.16-.08-.2-.11-.25-.21-.5-.32-.75-.42-.99-.85-1.98-1.34-2.94-.83-1.63-1.88-3.12-3.19-4.41s-2.69-2.36-4.29-3.12c-1.48-.7-3.3-1.18-4.88-.54-.2.08-.38.17-.55.3-.26.2-.11.58.22.52h0Z"/>
          <path class="cls-6" d="M121.54,35.82c.29-.17.58-.29.9-.39.17-.05.34-.09.51-.12.04,0,.08-.01.12-.02.08-.01-.02,0,.05,0,.1-.01.2-.02.3-.03.03,0,.07,0,.1-.01,0,0-.07,0-.02,0,.04,0,.08,0,.12-.01.09,0,.18-.02.27-.02.18-.01.36-.01.53-.01.37,0,.75.03,1.12.07.04,0,.09,0,.13.02s.13.02.04,0c.1.01.19.03.29.04.19.03.37.07.56.1.38.08.75.18,1.13.28.72.21,1.42.45,2.11.73.08.03.15.06.23.1.06.03.1.04.01,0,.04.02.09.04.13.06.15.07.3.13.45.2.31.14.62.29.92.44.36.19.72.4,1.06.62.16.11.33.22.49.33.08.05.15.11.23.16.04.03.07.06.11.08.01,0,.07.06.01,0s.02.01.03.02c.61.48,1.18.99,1.71,1.55.27.28.52.57.77.87.06.07.12.14.17.21.03.04.06.07.08.11.01.02.03.04.04.05-.03-.04-.05-.06,0,0,.12.15.23.31.34.46.46.63.89,1.29,1.3,1.95.2.34.4.68.6,1.02s.39.71.61,1.05c.11.17.22.34.32.51.1.16.3.23.48.16.16-.07.29-.27.22-.45-.57-1.54-1.36-3.02-2.25-4.4s-1.93-2.61-3.15-3.65-2.68-1.81-4.18-2.43-2.96-1.05-4.52-1.24c-.79-.09-1.57-.09-2.35.05-.71.12-1.39.43-1.97.86-.15.11-.29.23-.42.35-.17.16.05.43.24.31h0Z"/>
          <path class="cls-6" d="M120.47,43.51c-.13-.04-.25-.1-.37-.14-.14-.05-.31-.05-.47-.06-.28-.03-.56-.03-.85-.04-.58-.01-1.18.04-1.76.13s-1.11.2-1.65.36-1.03.37-1.54.58c-1.71.72-3.3,1.72-4.68,2.97-.38.35-.75.71-1.11,1.08-.41.43-.75.86-1.09,1.32-.12.16-.04.41.1.51.16.12.37.1.52-.03.36-.32.72-.63,1.06-.96s.67-.62,1.01-.92c.17-.14.34-.28.5-.42.08-.07.17-.14.25-.2.04-.03.07-.06.11-.09.08-.06.01-.01,0,0,.02-.02.05-.04.07-.06.35-.26.71-.52,1.07-.75.75-.48,1.53-.91,2.34-1.27.05-.02.11-.05.16-.07.03-.01.17-.07.07-.03.12-.05.23-.1.35-.14.22-.09.45-.17.68-.25.52-.19,1.06-.35,1.6-.47.57-.13,1.21-.25,1.75-.32.31-.04.62-.09.93-.14.16-.02.32-.04.48-.07s.3-.12.45-.16c.17-.05.17-.28,0-.34h0Z"/>
          <path class="cls-6" d="M119.92,39.05c-.2-.13-.42-.25-.59-.43s-.41-.29-.62-.4c-.42-.24-.9-.43-1.35-.57-.92-.29-1.87-.45-2.83-.5-1.96-.1-3.94.37-5.72,1.17-1.05.47-2,1.1-2.87,1.85-.41.35.13,1.06.58.75.8-.53,1.64-1.01,2.51-1.42.11-.05.22-.1.32-.15.02-.01.05-.02.07-.03,0,0,.09-.04.02-.01-.07.03.03-.01.05-.02.03-.01.06-.03.09-.04.22-.09.44-.17.66-.25.43-.15.87-.27,1.31-.37.22-.05.45-.1.67-.14.11-.02.23-.04.34-.06.05,0,.1-.01.15-.02.03,0,.12-.02-.01,0,.03,0,.06,0,.1-.01.45-.06.91-.09,1.36-.09s.89,0,1.34.04c.23.02.45.04.68.07.03,0,.18.03.08,0,.05,0,.1.01.15.02.12.02.24.04.36.06.5.09,1,.2,1.5.34.25.07.5.14.75.19.07.01.14,0,.2.02s.13.03.19.05c.14.04.26.09.4.14s.25-.12.12-.2h0Z"/>
          <path class="cls-6" d="M148.44,66.81c.45.5.88,1.01,1.37,1.48.23.22.46.45.71.65.27.22.54.44.82.64.47.35,1.1.71,1.65,1.03s1.14.67,1.7,1.02c.28.17.56.34.83.52.13.09.27.18.4.27.06.04.12.09.18.13.03.02.07.05.1.07.13.1-.05-.04.05.04.48.38.92.81,1.34,1.26.09.1.18.2.27.31.05.06.1.12.14.17.02.03.05.06.07.09.01.01.11.14.05.06-.06-.08.03.04.03.05.02.02.04.05.05.07.04.06.09.12.13.18.09.12.17.25.26.37.33.5.63,1.01.91,1.54.32.6.6,1.22.88,1.84.14.32.28.64.42.96s.3.67.51.96c.1.15.28.22.45.15s.23-.24.21-.42c-.09-.63-.36-1.24-.58-1.83s-.46-1.2-.72-1.79c-.49-1.14-1.09-2.2-1.86-3.18-.82-1.04-1.85-1.86-2.97-2.54s-2.35-1.21-3.52-1.81c-1.32-.68-2.77-1.24-3.78-2.38-.06-.07-.16.03-.1.1h0Z"/>
          <path class="cls-6" d="M151.93,73.17c.39.34.75.71,1.11,1.08s.67.75,1.03,1.11c.71.71,1.38,1.46,2.04,2.21.33.37.64.75.95,1.13.07.09.15.18.22.28-.07-.09.04.06.06.07.04.06.08.11.13.17.03.04.07.09.1.13.06.08.01.01,0,0,.04.05.08.1.11.15.08.1.15.2.22.3.59.8,1.14,1.64,1.64,2.5.29.49.54,1,.82,1.49.14.25.28.51.42.76.15.27.29.54.49.77.18.21.57.04.56-.23-.02-.52-.25-1.05-.44-1.53-.2-.51-.44-.99-.7-1.47-.48-.9-1.02-1.76-1.62-2.58s-1.27-1.63-1.97-2.38-1.43-1.42-2.2-2.07c-.89-.76-1.9-1.37-2.85-2.05-.09-.06-.2.08-.12.15h0Z"/>
          <path class="cls-6" d="M85.04,83.55c.08-.56.29-1.09.41-1.64s.23-1.1.27-1.66.06-1.15,0-1.71c-.07-.6-.13-1.2-.19-1.8-.21-2.36-.43-4.72-.15-7.08,0-.07.02-.13.02-.2,0-.03,0-.06.01-.08,0,.02-.01.09,0-.02.02-.14.04-.28.06-.42.04-.27.09-.54.15-.81.11-.56.25-1.12.4-1.67s.32-1.08.5-1.61c.08-.23.16-.45.25-.67,0,0,.03-.08.01-.03-.02.05.02-.04.02-.05.02-.05.04-.1.07-.15.05-.11.1-.21.15-.31.2-.4.41-.78.65-1.16.12-.18.24-.37.37-.54.03-.04.06-.08.09-.12.01-.02.03-.03.04-.05-.05.06,0,0,0,0,.07-.09.14-.17.2-.25.54-.65,1.16-1.25,1.81-1.79.34-.28.6-.48.97-.74s.72-.49,1.09-.72c.76-.48,1.54-.91,2.33-1.33.2-.11.39-.22.59-.32.25-.14.08-.59-.2-.48-1.67.68-3.32,1.49-4.79,2.53s-2.75,2.3-3.68,3.84c-.52.86-.9,1.78-1.22,2.72-.37,1.09-.67,2.2-.88,3.33s-.33,2.32-.34,3.49c-.01,1.23.08,2.46.21,3.68.07.63.15,1.26.25,1.88.05.3.09.61.14.91s.08.52.11.82c.11,1.11,0,2.22-.02,3.33,0,.3,0,.58-.05.87-.02.17.27.21.3.04h0Z"/>
        </g>
      </g>
      <path class="cls-16" d="M128.57,32.52c-2.39-.06-4.76.26-6.94,1.08-2.96-.43-5.88-.4-9.06-.1,2.36-2.91,5.75-4.71,9.82-4.22,2.36.3,4.71,1.39,6.19,3.24Z"/>
      <g>
        <path class="cls-19" d="M136.74,34.15c-2.6-.95-5.41-1.56-8.17-1.63-1.47-1.85-3.83-2.93-6.19-3.24-4.06-.49-7.46,1.32-9.82,4.22-.36.04-.74.09-1.11.13-3.89.46-7.78,1.59-11.26,3.33.32-3.21,1.01-4.97,2.46-7.75,2.56-4.97,7.71-8.08,13.17-8.76,5.32-.67,11.29.61,15.61,3.77,3.21,2.34,5.29,5.35,5.31,9.93Z"/>
        <g class="cls-12">
          <path class="cls-6" d="M116.53,32.23c-.04-.29-.06-.58-.15-.86s-.25-.58-.39-.85c-.29-.53-.63-1.03-1-1.51-.76-.98-1.62-1.84-2.62-2.58-1.87-1.39-4.24-2.25-6.59-1.95-1.45.18-2.8.76-3.96,1.66-.22.17-.36.46-.19.72.15.23.48.36.72.19.52-.36,1.08-.66,1.67-.91-.11.05.04-.01.08-.03.07-.03.14-.05.21-.08.14-.05.28-.1.43-.14.27-.08.54-.14.81-.19.07-.01.14-.02.21-.03.03,0,.06,0,.09-.01-.13.03-.07,0-.03,0,.14-.02.28-.03.43-.04.28-.02.55-.02.83,0,.13,0,.27.02.4.03.06,0,.11.01.17.02.14.02-.1-.02,0,0,.05,0,.1.01.15.02.27.04.53.1.79.17s.52.15.77.24c.12.04.24.09.36.14,0,0,.14.06.05.02s.04.02.05.02c.07.03.13.06.2.09.52.24,1.02.51,1.49.83.24.15.47.32.69.49.02.02.05.04.07.05-.09-.07,0,0,.01.01.05.04.11.08.16.13.12.09.23.19.34.29.44.38.86.78,1.25,1.21.22.24.43.49.63.74.08.1.06.08.14.18.06.07.11.14.17.21-.01-.02-.04-.05.01.02.03.04.05.07.08.11.05.07.1.13.15.2.19.26.38.52.56.78s.44.47.65.71c.05.06.12,0,.11-.06h0Z"/>
          <path class="cls-6" d="M118.42,31.91c.1-1.35.07-2.71-.22-4.04-.26-1.17-.7-2.29-1.33-3.31-1.2-1.94-2.97-3.56-5.12-4.34-1.21-.44-2.54-.52-3.79-.22-.26.06-.43.37-.35.62.09.28.34.4.62.35,0,0,.14-.02.06-.01-.07,0,.03,0,.04,0,.06,0,.13-.01.19-.02.14-.01.27-.02.41-.02.26,0,.53,0,.79.03.05,0,.12,0,.17.02-.15-.04.04,0,.08.01.13.02.26.05.39.08.25.06.49.13.73.2.12.04.24.08.36.13.06.02.12.05.18.07.08.03-.14-.06,0,0,.03.01.06.03.1.04.24.11.47.23.7.36s.44.27.65.41c.11.07.21.15.31.23.09.07-.01,0-.02-.02.02.02.05.04.07.05.06.05.12.1.18.15.4.34.78.71,1.14,1.1.17.19.36.38.5.59-.09-.15.04.05.06.08.03.05.07.09.1.14.08.11.16.22.23.33.28.42.53.86.75,1.32.05.11.1.22.15.33-.1-.2.08.1.06.15l-.03-.07s.02.05.03.07c.02.04.03.08.05.12.12.3.22.61.32.92.2.68.36,1.37.47,2.07.02.09.03.19.04.28,0,.03,0,.07.01.1-.01-.08,0,.06,0,.07.01.11.03.22.05.34s.01.07.03.19c.05.37.08.74.11,1.11.04.48.71.48.74,0h0Z"/>
          <path class="cls-6" d="M120.27,31.11c.45-.87.7-1.86.86-2.83.17-1.05.25-2.12.23-3.19-.05-2.11-.56-4.26-1.88-5.95-.34-.43-.73-.82-1.16-1.16-.53-.41-1.1-.71-1.72-.95-.24-.09-.52.08-.61.3s-.02.54.21.65c.47.22.89.5,1.31.81.08.06-.02-.02-.03-.02.03,0,.07.05.09.07.04.03.08.06.11.09.1.09.2.18.3.27.17.16.33.33.48.51.03.04.07.08.1.13.08.1-.06-.08-.01-.02.02.02.04.05.05.07.07.1.14.19.2.29.13.2.25.4.36.62s.21.43.31.65c.02.03.03.1-.02-.04,0,.03.02.06.03.08.02.05.04.1.06.15.05.12.09.24.13.36.16.46.28.94.37,1.42.02.12.04.25.06.37,0,.05.02.1.02.15v.04c.01.06.01.05,0-.04.02.02.01.09.01.11.03.25.05.51.07.76.08,1.01.05,2.02-.03,3.02-.04.54-.1,1.08-.17,1.62,0,.07-.02.14-.03.21,0,.01-.01.08,0,0,0,.06-.02.12-.02.17-.01.13-.02.25-.04.38-.03.27-.06.5-.08.77-.01.21.3.29.4.11h0Z"/>
          <path class="cls-6" d="M124.76,32.11c.24-.45.58-.9.87-1.28.35-.45.66-.86,1.06-1.3s.79-.84,1.22-1.22c.22-.19.44-.38.67-.56.08-.06.02-.01,0,0,.03-.03.07-.05.1-.08.05-.04.1-.08.16-.12.12-.09.25-.18.37-.27.48-.34.98-.64,1.5-.91.26-.13.52-.26.79-.38,0,0,.13-.06.05-.02s.05-.02.05-.02c.07-.03.13-.05.2-.08.13-.05.27-.1.4-.15.54-.18,1.09-.32,1.64-.42.07-.01.14-.02.21-.03.14-.02-.13.01.01,0,.03,0,.06,0,.08,0,.14-.02.29-.03.44-.04.28-.02.55-.02.83,0,.16,0,.32.02.47.03.03,0,.05,0,.08,0,.03,0,.05,0,.08.01-.08-.01-.1-.01-.05,0,.07.01.15.02.22.04.31.05.61.13.91.22s.6.2.9.31c.36.13.59.27.93.33.15.03.29,0,.39-.13.08-.11.11-.28.03-.41-.19-.29-.48-.5-.78-.69s-.58-.32-.9-.44c-.57-.22-1.17-.33-1.77-.4-1.18-.12-2.4.04-3.54.39-2.37.73-4.5,2.23-6.11,4.1-.44.51-.83,1.07-1.17,1.65-.31.55-.5,1.15-.71,1.74-.06.19.23.31.32.14h0Z"/>
          <path class="cls-6" d="M126.24,33.54c.17-.19.34-.36.55-.5.2-.12.4-.23.61-.34.43-.21.85-.41,1.31-.57.93-.33,1.88-.58,2.84-.79.49-.11.98-.23,1.48-.32.29-.06.59-.11.88-.15.15-.02.21-.03.38-.05.15-.02.3-.03.46-.05,1.2-.11,2.41-.12,3.6,0,.09,0,.17.02.26.03.03,0,.06,0,.09.01,0,0,.18.02.08,0,.16.02.32.04.48.07.33.05.66.11.99.18.67.15,1.35.31,2.01.5.24.07.53-.09.59-.33.06-.28-.09-.48-.33-.59-2.3-.96-4.89-1.21-7.35-.96-1.2.12-2.37.37-3.53.68-.97.25-1.96.55-2.87.99-.51.25-1,.54-1.45.89-.21.17-.41.37-.59.57s-.38.41-.56.62c-.05.06.04.15.09.09h0Z"/>
          <path class="cls-6" d="M115.31,34.65c-.28-.26-.55-.54-.85-.79s-.65-.46-1-.65c-.67-.37-1.39-.63-2.13-.81-1.55-.37-3.18-.29-4.74-.03-1.64.27-3.22.82-4.74,1.48s-2.91,1.42-4.27,2.3c-1.24.8-2.42,1.69-3.53,2.68-.12.11-.24.21-.35.32-.19.18-.19.53,0,.71.21.2.49.18.71,0,.24-.2.49-.4.74-.6.01-.01.03-.02.04-.03,0,0-.08.06-.04.03.03-.03.07-.05.1-.08.07-.05.14-.1.2-.15.14-.1.27-.2.41-.3.59-.43,1.19-.85,1.8-1.25,1.31-.86,2.69-1.63,4.11-2.29.18-.08.36-.17.54-.25.07-.03.2-.12.28-.12,0,0-.1.04-.04.02.02,0,.04-.02.06-.03.05-.02.11-.05.16-.07.37-.15.74-.29,1.11-.42.75-.26,1.51-.49,2.29-.66.37-.08.75-.15,1.12-.21.05,0,.1-.01.14-.02.02,0,.15-.02.07,0-.09.01.07,0,.09-.01.06,0,.11-.01.17-.02.19-.02.37-.04.56-.05.73-.05,1.47-.03,2.2.05.1.01-.1-.02.03,0,.04,0,.08.01.12.02.1.02.2.03.29.05.18.03.35.06.53.1.35.08.7.18,1.04.3.17.06.33.12.5.19.05.02-.01,0-.02,0,.02,0,.04.02.06.02.04.02.09.04.13.06.09.04.17.08.26.12.33.17.67.35.99.54.15.09.3.19.44.3.12.1.29.12.41,0,.11-.11.12-.31,0-.41h0Z"/>
        </g>
      </g>
    </g>
  </g>
</svg>