<?xml version="1.0" encoding="UTF-8"?>
<svg id="Layer_1" data-name="Layer 1" xmlns="http://www.w3.org/2000/svg" xmlns:xlink="http://www.w3.org/1999/xlink" viewBox="0 0 500 500">
  <defs>
    <style>
      .cls-1 {
        fill: #316bf6;
      }

      .cls-2 {
        fill: #e3ba8e;
      }

      .cls-3 {
        clip-path: url(#clippath-1);
      }

      .cls-4 {
        fill: #031163;
      }

      .cls-5 {
        fill: #28318c;
      }

      .cls-6 {
        clip-path: url(#clippath);
      }
    </style>
    <clipPath id="clippath">
      <path class="cls-2" d="M400.87,307.21c.11,11.82-4.42,23.45-11.9,32.91-6.16,7.83-17.74,19.16-29.38,17.73-2.26,12.07-5.37,20.34-9.37,31.33-10.79,29.51-40.49,47.63-66.4,62.22-13.06,7.34-24.7,9.7-39.49,10.15-14.8-.54-26.43-2.96-39.54-10.39-18.27-10.34-36.75-21.48-50.71-36.85-14.64-16.21-19.75-33.94-24.85-54.43-12.01,2.86-24.48-8.82-31.12-16.8-7.74-9.26-12.53-20.79-12.74-32.56-.26-17.14,12.11-41.03,30.7-31.87-1.47-20.34-3.32-46.51.95-66.8.58-2.71,1.21-5.37,2.05-7.98,24.01-78.13,152.54-101.18,211.99-45.17,30.28,28.52,35.49,76.01,35.38,114.39,0,1.53,0,3.1-.05,4.68,19.96-13.74,34.33,11.43,34.49,29.46Z"/>
    </clipPath>
    <clipPath id="clippath-1">
      <path class="cls-5" d="M419.68,180.05c-7.74,4.22-13.9,7.7-18.54,15.76-8.7,15.06-.77,31.06-2.9,47.07-1.97,14.57-10.74,29.08-21.94,38.14-.37,3.97-1.1,7.98-2.3,12.38-1.9,6.94-5.43,12.17-7.97,18.76.73-12.52-8.44-29.74-12.07-40.96-2.3-7.18-3.17-13.88-3.47-20.6-10.17-5.3-18.27-15.97-22.44-26.78-3.37-8.68-3.77-17.78-5.73-26.71-4.43,15.13-2.83,33.05-1.87,48.46-11.47-8.12-21.24-16.21-24.74-30.92-1.7-7.15-2.61-12.24-1.5-21.69-6.03,13.77-12.37,33.75-29.27,36.78,2.31-2.56,5.01-8.88,5.79-10.74,1.32-3.14,1.97-5.94,2.33-9.37-5.13,10.05-14.08,21.9-24.1,27.33-.88-4.23-3.6-8.66-3.07-12.95-4.57,8.83-1.33,21.02,3.45,28.95-17.87,1.95-31.84-19.38-32.21-35.94-5.94,15.27-5.63,34.1,1.07,48.7-13.04-4.81-22.41-17.75-27.64-30.44-2.57-6.17-4.27-13.84-4.67-21.55-2.37,6.38-5.57,12.45-10.37,17.89-4.93,5.58-12.54,9.59-20.31,11.44-2.47,7.91-6.3,15.2-11.64,22.17-10.97,14.47-20.91,33.23-20.91,52.16-5.47-5.61-6.97-12.48-10.9-18.86-3.7-5.93-9.4-9.97-13.8-15.31-4-4.85-6.9-11.02-9.04-17.05-5.3-14.85-2.03-28.9,5.77-41.38-6.84-13.46-8.34-29.18-4-44.21,2.23-7.67,5.83-16.07,11.24-21.89.27-.28.5-.56.77-.8-8.67-.77-17.97-3.94-22.37-11.64,7.27.96,11.31,1.43,17.11.55,6.8-1.05,11.2-6.83,16.5-11.05,4.8-3.84,9.8-6.48,15.14-8.16-3.13-2.02-5.7-4.95-7.4-9.31-2.93-7.36-2.5-17.4.5-24.65,3,6.9,2.97,13.53,11.77,15.51,8.84,1.99,17.57-2.58,24.14-8.19,5.47-4.64,9.8-8.86,16.77-10.56,1-.24,2.07-.45,3.23-.66-2.33-2.34-4.37-5.51-5.57-8.23-3.03-6.97-2.37-19.07,3.87-24.09-.17,5.19-.4,10.46,3.47,14.68,8.97,9.76,23.47,1.95,34.48,2.61,1.6.1,3.23.31,4.9.7-1.4-5.65-1.5-11.3.43-17.71,2.1-6.9,7.74-17.47,14.67-19.21-5.53,9.41-.4,20.19,7.3,26.22,3.83,3,7.2,6.03,9.74,10.53,2.3,4.08,3.07,6.42,3.5,10.67,5.47-11.92,16.64-20.92,28.17-25.56,9.5-3.84,25.64-5.4,32.34,0-7.77.49-11.37,1.92-20.21,5.47-6.87,2.75-15.64,10.81-18.61,17.99,22.97-8.33,52.78,1.71,58.52,27.96,10.8-6.66,24.07-8.44,36.38-2.09,8.7,4.46,17.24,13.21,17.4,23.74-4.83-6.87-9.24-10.08-17.44-10.88-5.2-.52-11.3.1-16.54,2.41,25.54,5.19,45.95,29.77,39.34,56.97,2.57-2.48,5.67-4.32,9.3-5.44,4.9-1.5,12.84-1.12,16.14,3.59Z"/>
    </clipPath>
  </defs>
  <g>
    <path class="cls-2" d="M400.87,307.21c.11,11.82-4.42,23.45-11.9,32.91-6.16,7.83-17.74,19.16-29.38,17.73-2.26,12.07-5.37,20.34-9.37,31.33-10.79,29.51-40.49,47.63-66.4,62.22-13.06,7.34-24.7,9.7-39.49,10.15-14.8-.54-26.43-2.96-39.54-10.39-18.27-10.34-36.75-21.48-50.71-36.85-14.64-16.21-19.75-33.94-24.85-54.43-12.01,2.86-24.48-8.82-31.12-16.8-7.74-9.26-12.53-20.79-12.74-32.56-.26-17.14,12.11-41.03,30.7-31.87-1.47-20.34-3.32-46.51.95-66.8.58-2.71,1.21-5.37,2.05-7.98,24.01-78.13,152.54-101.18,211.99-45.17,30.28,28.52,35.49,76.01,35.38,114.39,0,1.53,0,3.1-.05,4.68,19.96-13.74,34.33,11.43,34.49,29.46Z"/>
    <g class="cls-6">
      <ellipse class="cls-4" cx="195.5" cy="303.45" rx="12.73" ry="13.18"/>
      <ellipse class="cls-4" cx="296.21" cy="303.45" rx="12.73" ry="13.18"/>
      <path class="cls-4" d="M252.81,293.33c-.06.4-.13.8-.17,1.2s-.08.8-.13,1.21-.1.82-.15,1.22c-.02.2-.05.39-.07.59-.01.1-.03.21-.04.31-.02.14-.03.19-.04.34-.1.82-.23,1.64-.3,2.47s-.13,1.65-.17,2.48c-.14,3.19.08,6.5,1.39,9.44.5,1.12,1.2,2.15,2.06,3.04.79.81,1.72,1.5,2.69,2.07,2.06,1.2,4.35,1.97,6.54,2.87.14.06.28.11.41.17.04.02.15.06-.03-.01.04.02.08.03.12.05.08.03.16.07.24.1.29.13.58.26.87.39.62.29,1.23.59,1.81.94.28.17.56.35.83.54.13.09.27.19.4.29.01.01.12.1.03.03s.02.02.03.03c.07.05.14.11.2.16.48.39.93.82,1.34,1.28.1.11.19.21.28.32.05.06.09.11.14.17.02.02.03.04.05.06.05.06.03.04-.04-.05.02.02.03.04.05.06.18.23.34.47.5.72.3.47.56.97.78,1.48.06.13-.07-.16-.01-.03.01.04.03.07.04.11.02.06.05.12.07.18.05.13.1.27.14.4.09.27.17.54.24.82s.13.56.18.84c.01.06.02.13.03.19,0,.04.01.08.02.12.02.14-.02-.15,0-.05.02.15.04.3.05.45.05.59.07,1.18.04,1.76-.01.29-.04.59-.07.88,0,.08-.02.15-.03.23,0,.06-.05.3,0,.06-.03.15-.04.31-.07.46-.21,1.27-.59,2.52-1.07,3.72-.03.07-.06.14-.09.21l-.02.04c-.03.07-.02.06.02-.04,0,0-.04.09-.04.09-.07.17-.15.34-.23.51-.15.32-.3.63-.46.95-.35.69-.73,1.36-1.13,2.02s-.83,1.32-1.29,1.96c-.23.32-.45.64-.7.94.12-.15-.06.08-.09.11-.05.07-.11.14-.17.21-.13.17-.27.33-.4.49-.98,1.18-2.05,2.28-3.21,3.29-.25.22-.5.43-.75.63-.11.08.14-.11.03-.02-.02.01-.04.03-.06.04-.05.04-.11.08-.16.12-.11.08-.23.16-.34.24-.45.32-.91.62-1.37.93-1.86,1.23-3.96,2.68-4.53,4.98-.15.59-.17,1.19-.14,1.79.01.31.26.6.59.59.31-.01.61-.26.59-.59,0-.15,0-.31.01-.46,0-.07.01-.13.02-.2,0-.04.02-.08.01-.12,0,.15,0,.07,0,0,.04-.27.11-.54.2-.8.02-.06.04-.12.06-.17.02-.04.08-.16-.01.02.02-.03.03-.07.04-.1.05-.12.11-.24.17-.36.12-.23.26-.46.42-.67.01-.02.03-.04.04-.06.08-.11-.1.13-.02.02.04-.05.08-.09.11-.14.09-.11.19-.22.29-.33.18-.19.37-.38.57-.55.1-.09.2-.17.3-.26.05-.04.1-.08.15-.12.03-.02.06-.05.09-.07.11-.08-.12.09-.02.02.22-.17.45-.33.68-.5.91-.64,1.86-1.21,2.75-1.87,1.16-.85,2.22-1.84,3.21-2.88,2.17-2.28,3.99-4.89,5.4-7.7,1.19-2.37,2.02-4.97,2.12-7.64.09-2.38-.46-4.79-1.73-6.83-1.4-2.25-3.54-3.89-5.91-5.01-1.18-.55-2.39-1.04-3.6-1.52-.55-.21-1.09-.43-1.64-.65-.14-.06-.27-.11-.41-.17-.06-.03-.12-.05-.18-.08-.14-.06.16.07.02,0-.04-.02-.07-.03-.11-.05-.27-.11-.53-.23-.79-.35-1.01-.46-1.99-.99-2.89-1.64-.06-.04-.11-.08-.17-.12-.02-.01-.04-.03-.06-.05-.11-.08.13.1.02.02s-.21-.17-.32-.26c-.21-.18-.41-.36-.61-.56s-.39-.4-.57-.61c-.09-.1-.17-.21-.26-.32-.06-.07.11.14.02.03-.02-.03-.05-.06-.07-.09-.05-.06-.09-.13-.14-.19-.35-.5-.66-1.03-.92-1.58-.06-.13-.12-.27-.18-.4-.06-.15.06.15,0,0-.01-.03-.02-.06-.03-.08-.04-.09-.07-.19-.11-.28-.12-.32-.23-.65-.32-.98-.23-.77-.39-1.57-.51-2.36-.01-.09-.03-.18-.04-.27.02.16,0-.02,0-.05,0-.05-.01-.09-.02-.14-.03-.21-.05-.43-.07-.64-.04-.41-.07-.82-.09-1.23-.08-1.65,0-3.29.08-4.94s.17-3.28.24-4.92c.02-.38.03-.77.04-1.15s-.01-.77-.04-1.16c0-.13-.09-.24-.22-.25-.11-.01-.26.06-.28.18h0Z"/>
      <path class="cls-4" d="M275.7,377.76c-.47.91-.93,1.83-1.44,2.73s-1.04,1.72-1.63,2.52c-.07.1-.15.19-.22.29-.01.02-.06.08,0,0-.02.02-.03.04-.05.07-.04.06-.09.11-.13.17-.15.19-.3.37-.46.56-.32.38-.66.74-1,1.1-.67.71-1.39,1.39-2.15,2.01-.19.16-.38.31-.58.47-.02.02-.04.04-.07.05.12-.08.05-.04.03-.02-.04.03-.09.07-.13.1-.11.08-.21.16-.32.24-.39.29-.79.57-1.2.84-.83.55-1.68,1.05-2.56,1.51-.43.23-.87.44-1.32.65-.23.1-.45.21-.68.3-.05.02-.1.04-.16.07-.1.04.02-.01.04-.02-.03.01-.05.02-.08.03-.12.05-.25.1-.37.15-.92.37-1.85.69-2.8.98s-1.9.52-2.87.72c-.48.1-.96.18-1.44.26-.25.04-.5.08-.75.11-.03,0-.06,0-.08.01.01,0,.17-.02.05,0-.06,0-.11.01-.17.02-.13.02-.25.03-.38.05-2.03.24-4.09.29-6.13.14-.55-.04-1.09-.09-1.64-.16-.06,0-.12-.01-.19-.02.2.03-.04,0-.08-.01-.14-.02-.28-.04-.41-.06-.27-.04-.53-.09-.8-.14-1.04-.19-2.07-.44-3.08-.74-.5-.15-.99-.31-1.48-.49-.25-.09-.51-.19-.76-.28-.11-.04-.22-.09-.33-.13-.06-.02-.11-.05-.17-.07-.03-.01-.06-.02-.08-.03-.08-.03-.1-.04,0,0-.95-.44-1.9-.87-2.81-1.38s-1.78-1.05-2.63-1.64c-.43-.3-.87-.61-1.28-.94.14.11-.01,0-.05-.04-.05-.04-.11-.08-.16-.13-.11-.09-.21-.17-.32-.26-.21-.17-.41-.34-.62-.51-1.66-1.41-3.22-2.95-4.66-4.59-.18-.21-.36-.41-.54-.62-.08-.1-.17-.2-.25-.3-.04-.05-.08-.1-.12-.15-.03-.03-.05-.06-.08-.09-.01-.01-.08-.1-.03-.03-.16-.21-.44-.34-.68-.18-.2.13-.35.46-.18.68s.34.47.52.71c.08.1.16.21.23.31l.08.11c-.04-.05-.03-.04.02.02.03.04.06.07.09.11.05.06.1.13.15.19.35.44.7.87,1.07,1.3.72.84,1.49,1.64,2.29,2.41,1.57,1.51,3.34,2.85,5.18,4s3.77,2.08,5.79,2.81,4.19,1.23,6.36,1.51,4.27.32,6.4.17c2.02-.15,4.02-.47,5.98-.97s3.92-1.2,5.77-2.06,3.54-1.86,5.13-3.08,3.09-2.65,4.34-4.26c.63-.82,1.21-1.67,1.73-2.56.26-.45.5-.9.71-1.37.11-.23.21-.47.31-.7.12-.29.2-.5.3-.8.07-.23.15-.46.23-.7.08-.25.13-.51.18-.76.04-.21-.26-.37-.36-.15h0Z"/>
      <path class="cls-4" d="M219.15,269.9c-.03-.1-.06-.21-.09-.31,0-.02,0-.04-.02-.06l.02.11-.03-.2c-.04-.16-.15-.28-.26-.4-.04-.05-.09-.1-.13-.16-.02-.02-.15-.18-.07-.08.12.14-.1-.13-.1-.13.05.01.1.14.04.05-.03-.05-.07-.11-.11-.16-.11-.16-.2-.32-.34-.46-.09-.09-.18-.18-.27-.27-.18-.18-.36-.36-.54-.54-.72-.71-1.45-1.39-2.2-2.06-1.56-1.39-3.21-2.67-4.93-3.86-1.61-1.11-3.3-2.09-5.07-2.93-1.89-.89-3.86-1.64-5.89-2.16s-4.11-.85-6.19-.97c-1.84-.11-3.69-.08-5.52.09-2,.18-3.99.48-5.94.94s-3.68,1.02-5.44,1.75-3.63,1.64-5.32,2.71-3.2,2.27-4.6,3.63c-.33.32-.61.67-.93,1-.22.23-.36.55-.36.88,0,.3.14.67.36.88.49.45,1.28.5,1.76,0,.39-.4.83-.76,1.25-1.13s.86-.73,1.3-1.08l-.27.21c1.68-1.29,3.5-2.41,5.41-3.34.54-.27,1.1-.51,1.66-.75l-.35.15c2.43-1.02,4.98-1.78,7.57-2.28.73-.14,1.46-.26,2.19-.36l-.4.05c2.59-.35,5.2-.42,7.8-.26.75.05,1.5.12,2.25.22l-.41-.05c2.13.29,4.23.8,6.25,1.53.55.2,1.1.41,1.64.64l-.36-.15c1.75.74,3.41,1.64,5.05,2.6.83.48,1.64.99,2.43,1.52s1.57,1.1,2.35,1.64c.9.63,1.79,1.27,2.66,1.94l-.23-.18c.36.3.76.57,1.14.85.32.24.63.47.95.71l-.2-.15c.17.14.3.23.52.3l-.23-.1c.1.05.2.09.29.14.02.01.05.02.07.03.08.04.06.02-.04-.05.03,0,.21.15.26.18.09.05.17.11.25.16.23.15.44.21.72.15h-.37c.15.02.31.05.46.07.31.05.61-.18.52-.52h0Z"/>
      <path class="cls-4" d="M270.23,271.4c.15-.03.29-.06.44-.08h-.37c.18.05.34.04.51-.03.09-.03.17-.08.24-.15-.08.06-.1.07-.05.04.09-.06.18-.12.26-.19.18-.12.37-.22.56-.32l-.23.1c.32-.08.58-.35.83-.55.16-.13.33-.27.49-.4.32-.26.64-.52.97-.77l-.23.18c.41-.29.79-.63,1.19-.95.33-.26.67-.53,1-.79l-.26.2c.58-.45,1.17-.9,1.75-1.35l-.27.21c1.22-.94,2.47-1.84,3.77-2.68s2.57-1.6,3.91-2.3c.76-.39,1.54-.76,2.32-1.09l-.36.15c1.95-.82,3.98-1.45,6.06-1.85.59-.11,1.18-.21,1.77-.29l-.41.05c2.67-.36,5.38-.44,8.07-.24.77.06,1.54.14,2.31.24l-.4-.05c2.56.35,5.1.94,7.54,1.79.69.24,1.36.5,2.03.78l-.34-.14c1.89.8,3.7,1.77,5.4,2.92.47.32.94.66,1.39,1l-.27-.21c.31.24.62.49.92.75s.62.49.9.76c.23.22.55.36.88.36.3,0,.67-.14.88-.36.45-.49.5-1.27,0-1.76-.33-.32-.63-.66-.96-.97s-.67-.59-1.02-.88c-.79-.64-1.6-1.25-2.45-1.81-1.57-1.04-3.27-1.9-5.01-2.63s-3.59-1.37-5.45-1.82-3.87-.78-5.83-.97c-1.81-.17-3.64-.22-5.46-.14-1.97.09-3.95.34-5.88.77s-3.93,1.11-5.82,1.92c-1.74.75-3.41,1.65-5.01,2.66-.8.51-1.57,1.07-2.32,1.64-.84.64-1.67,1.29-2.48,1.97-1.49,1.25-2.88,2.61-4.21,4.03-.16.17-.32.34-.48.51-.08.09-.16.17-.24.26-.04.04-.08.09-.12.13-.14.16-.24.31-.3.51l.1-.23c-.05.09-.11.18-.16.27-.01.02-.1.13-.09.14l.07-.09s-.04.05-.06.08c-.06.08-.12.16-.19.24-.06.07-.13.15-.18.23-.12.18-.12.4-.07.6v-.37c-.03.14-.07.28-.1.43-.08.33.2.58.52.52h0Z"/>
      <path class="cls-4" d="M367.12,317.47c-.22,1.68-.48,3.36-.63,5.01s-.33,3.35-.52,5.02-.35,3.35-.54,5.03c-.1.85-.2,1.7-.31,2.54-.05.41-.11.83-.16,1.24-.03.2-.05.39-.08.59s.02-.13,0,.06c0,.04-.01.08-.02.12-.02.12-.03.24-.05.35-.46,3.35-.96,6.69-1.54,10.01s-1.23,6.62-1.96,9.9-1.53,6.5-2.34,9.74c-.1.4-.2.8-.29,1.2-.05.23.07.48.31.54s.46-.08.54-.31c.58-1.57,1.04-3.19,1.48-4.8s.85-3.25,1.24-4.89c.78-3.27,1.47-6.56,2.07-9.87s1.15-6.73,1.6-10.12.83-6.74,1.14-10.11c.16-1.67.27-3.35.37-5.02.05-.83.12-1.67.13-2.51s.01-1.67,0-2.5c0-.41,0-.82-.01-1.23,0-.3-.42-.28-.45,0h0Z"/>
      <path class="cls-4" d="M121.07,317.47c-.02,1.68-.04,3.36.05,5.04s.21,3.37.34,5.05.31,3.36.49,5.03.38,3.35.59,5.03c.43,3.39.95,6.77,1.54,10.13s1.26,6.65,2.02,9.95,1.58,6.49,2.6,9.67c.12.39.25.78.4,1.17.08.22.3.38.54.31s.36-.31.31-.54c-.36-1.62-.79-3.24-1.18-4.85s-.8-3.25-1.17-4.88c-.75-3.28-1.41-6.58-2.01-9.89s-1.12-6.66-1.59-10c-.06-.42-.12-.85-.18-1.27-.01-.1-.03-.2-.04-.3,0-.05-.01-.1-.02-.15-.03-.2.02.13,0-.06-.03-.22-.06-.43-.09-.65-.11-.83-.21-1.66-.31-2.48-.2-1.67-.39-3.35-.56-5.03s-.36-3.35-.53-5.02c-.08-.85-.16-1.74-.26-2.54s-.22-1.65-.33-2.47c-.05-.41-.11-.82-.16-1.23-.04-.28-.45-.3-.45,0h0Z"/>
      <path class="cls-4" d="M389.79,310.53c.17-1.28.33-2.56.39-3.86s.06-2.6,0-3.9c-.13-2.65-.64-5.26-1.68-7.71-.5-1.17-1.15-2.28-1.89-3.31s-1.51-1.93-2.42-2.75c-1.68-1.53-3.73-2.75-6.01-3.08-1.15-.17-2.3-.14-3.44.13-1.21.29-2.37.83-3.38,1.57-.29.21-.57.43-.84.66-.21.18-.2.52-.04.72s.49.3.71.14c.52-.38,1.06-.73,1.63-1.03.12-.07.25-.13.38-.19.07-.04.15-.07.22-.1.03-.01.06-.03.09-.04.12-.05-.1.04.03-.01.26-.11.52-.21.79-.3s.52-.16.79-.21c.13-.03.26-.05.39-.08.06,0,.12-.02.17-.03.11-.02-.02,0-.04,0,.04,0,.09-.01.13-.02.52-.06,1.05-.07,1.57-.03.12,0,.24.02.36.04h.04q.06.01,0,0h-.04s.06,0,.08,0c.07.01.14.02.21.03.25.04.5.1.75.17s.5.14.74.23c.12.04.24.09.36.14.03.01.05.02.08.03.11.04-.02-.01-.04-.01.06,0,.14.06.2.09.49.22.96.48,1.42.77.24.15.47.31.69.47.05.04.1.07.15.11.02.02.05.04.07.05,0,0,.13.1.04.03s.03.03.04.03c.02.02.05.04.07.06.06.05.12.1.18.15.89.74,1.69,1.58,2.41,2.49.02.02.05.05.06.08,0-.02-.08-.11-.01-.02.04.06.09.12.13.18.09.12.18.25.27.38.17.24.34.49.5.74.34.53.65,1.07.93,1.63.14.29.28.58.41.87.01.03.1.25.05.11.03.06.05.13.08.19.06.16.13.32.19.48.22.58.4,1.18.57,1.78s.3,1.21.41,1.82c.06.32.11.63.16.95.02.15.05.29.07.44.01.08.02.15.03.23,0,.04.01.09.02.13-.01-.1,0,.04,0,.06.32,2.51.3,5.04.37,7.57,0,.31.02.61.02.92,0,.23.32.21.34,0h0Z"/>
      <path class="cls-4" d="M116.07,294.44c-.1-.18-.22-.35-.34-.53.02.02-.03-.06-.04-.07-.02-.04-.05-.07-.07-.11s-.05-.07-.08-.1c-.02-.03-.04-.06-.06-.08-.1-.13.06.07-.04-.06-.24-.31-.59-.57-.9-.8-.62-.46-1.33-.8-2.06-1.05s-1.56-.38-2.35-.44-1.56-.04-2.34.05c-1.57.18-3.09.58-4.5,1.3-1.65.84-3.13,2.05-4.33,3.45s-2.24,3.14-2.98,4.92-1.19,3.72-1.41,5.66c-.26,2.19-.26,4.41-.03,6.6s.66,4.36,1.27,6.49,1.38,4.19,2.25,6.22,1.78,3.98,2.83,5.88c.13.23.26.47.39.7s.28.46.4.69c.18.36.72.04.54-.32-.12-.24-.21-.5-.31-.74s-.21-.49-.32-.74c-.21-.49-.43-.99-.65-1.48-.44-.98-.87-1.97-1.29-2.95.03.06,0-.02-.01-.03-.01-.03-.02-.05-.03-.08-.02-.06-.05-.12-.07-.18-.05-.13-.11-.26-.16-.38-.1-.25-.2-.49-.3-.74-.2-.5-.39-.99-.57-1.49-.37-1-.72-2.01-1.03-3.02-.63-2.02-1.14-4.09-1.46-6.19-.02-.13-.04-.25-.06-.38,0-.06-.02-.13-.03-.19-.01-.1.01.1,0,0,0-.05-.01-.09-.02-.14-.03-.25-.06-.51-.09-.77-.06-.53-.1-1.06-.13-1.6-.06-1.09-.06-2.18,0-3.27.03-.55.07-1.1.13-1.64.01-.12.03-.25.04-.37,0-.08.02-.15.03-.23,0,0-.01.1,0,.03,0-.05.01-.1.02-.14.03-.23.07-.46.11-.7.16-.9.38-1.79.66-2.66.14-.44.3-.87.47-1.29.02-.05.04-.1.06-.15,0-.02.02-.04.03-.07.03-.08-.05.11,0,.02.05-.11.09-.22.14-.32.09-.21.19-.41.29-.62.4-.81.86-1.6,1.39-2.34.13-.18.26-.37.4-.55,0,0-.08.1-.03.04.02-.02.04-.05.06-.07.03-.04.07-.09.1-.13.07-.09.15-.18.22-.27.29-.34.6-.67.91-.99s.65-.62,1-.91c.08-.07.17-.14.25-.21.02-.01.04-.03.05-.04.1-.08,0,.01-.02.02.04,0,.11-.09.15-.11.18-.14.37-.27.55-.39.37-.25.75-.48,1.14-.69.15-.08.3-.15.45-.22.07-.04.15-.07.22-.1.04-.02.08-.03.11-.05.13-.06-.12.05.01,0,.68-.27,1.37-.5,2.08-.67.37-.09.74-.16,1.12-.22.05,0,.09-.01.14-.02.02,0,.07-.02.08-.01,0,0-.13.02-.06,0,.1-.01.2-.02.3-.04.19-.02.38-.04.58-.05.38-.02.77-.03,1.15-.02.19,0,.38.02.57.03.09,0,.18.02.27.03.05,0,.09.01.14.02.02,0,.04,0,.06,0-.14-.02-.04,0,0,0,.37.06.73.13,1.1.22.18.05.35.1.53.16.08.03.17.06.25.09.04.02.08.03.12.05.02,0,.15.06.1.04-.06-.02.06.03.08.04.04.02.08.04.12.05.08.04.17.08.25.12.16.08.31.17.47.27.07.05.14.09.22.14.04.02.07.05.11.08.02.02.13.09.06.04.15.12.29.26.44.37.14.1-.03-.03.04.02.01.01.03.02.04.04.03.03.07.06.1.09.07.06.13.12.19.18.13.13.25.27.36.42.22.28.65-.08.48-.37h0Z"/>
    </g>
  </g>
  <g>
    <path class="cls-5" d="M419.68,180.05c-7.74,4.22-13.9,7.7-18.54,15.76-8.7,15.06-.77,31.06-2.9,47.07-1.97,14.57-10.74,29.08-21.94,38.14-.37,3.97-1.1,7.98-2.3,12.38-1.9,6.94-5.43,12.17-7.97,18.76.73-12.52-8.44-29.74-12.07-40.96-2.3-7.18-3.17-13.88-3.47-20.6-10.17-5.3-18.27-15.97-22.44-26.78-3.37-8.68-3.77-17.78-5.73-26.71-4.43,15.13-2.83,33.05-1.87,48.46-11.47-8.12-21.24-16.21-24.74-30.92-1.7-7.15-2.61-12.24-1.5-21.69-6.03,13.77-12.37,33.75-29.27,36.78,2.31-2.56,5.01-8.88,5.79-10.74,1.32-3.14,1.97-5.94,2.33-9.37-5.13,10.05-14.08,21.9-24.1,27.33-.88-4.23-3.6-8.66-3.07-12.95-4.57,8.83-1.33,21.02,3.45,28.95-17.87,1.95-31.84-19.38-32.21-35.94-5.94,15.27-5.63,34.1,1.07,48.7-13.04-4.81-22.41-17.75-27.64-30.44-2.57-6.17-4.27-13.84-4.67-21.55-2.37,6.38-5.57,12.45-10.37,17.89-4.93,5.58-12.54,9.59-20.31,11.44-2.47,7.91-6.3,15.2-11.64,22.17-10.97,14.47-20.91,33.23-20.91,52.16-5.47-5.61-6.97-12.48-10.9-18.86-3.7-5.93-9.4-9.97-13.8-15.31-4-4.85-6.9-11.02-9.04-17.05-5.3-14.85-2.03-28.9,5.77-41.38-6.84-13.46-8.34-29.18-4-44.21,2.23-7.67,5.83-16.07,11.24-21.89.27-.28.5-.56.77-.8-8.67-.77-17.97-3.94-22.37-11.64,7.27.96,11.31,1.43,17.11.55,6.8-1.05,11.2-6.83,16.5-11.05,4.8-3.84,9.8-6.48,15.14-8.16-3.13-2.02-5.7-4.95-7.4-9.31-2.93-7.36-2.5-17.4.5-24.65,3,6.9,2.97,13.53,11.77,15.51,8.84,1.99,17.57-2.58,24.14-8.19,5.47-4.64,9.8-8.86,16.77-10.56,1-.24,2.07-.45,3.23-.66-2.33-2.34-4.37-5.51-5.57-8.23-3.03-6.97-2.37-19.07,3.87-24.09-.17,5.19-.4,10.46,3.47,14.68,8.97,9.76,23.47,1.95,34.48,2.61,1.6.1,3.23.31,4.9.7-1.4-5.65-1.5-11.3.43-17.71,2.1-6.9,7.74-17.47,14.67-19.21-5.53,9.41-.4,20.19,7.3,26.22,3.83,3,7.2,6.03,9.74,10.53,2.3,4.08,3.07,6.42,3.5,10.67,5.47-11.92,16.64-20.92,28.17-25.56,9.5-3.84,25.64-5.4,32.34,0-7.77.49-11.37,1.92-20.21,5.47-6.87,2.75-15.64,10.81-18.61,17.99,22.97-8.33,52.78,1.71,58.52,27.96,10.8-6.66,24.07-8.44,36.38-2.09,8.7,4.46,17.24,13.21,17.4,23.74-4.83-6.87-9.24-10.08-17.44-10.88-5.2-.52-11.3.1-16.54,2.41,25.54,5.19,45.95,29.77,39.34,56.97,2.57-2.48,5.67-4.32,9.3-5.44,4.9-1.5,12.84-1.12,16.14,3.59Z"/>
    <g class="cls-3">
      <path class="cls-1" d="M201.15,161.2c-.49.27-.95.57-1.42.86-.26.15-.5.31-.73.49s-.46.36-.68.55c-.9.75-1.74,1.62-2.52,2.51-1.66,1.89-3.1,3.96-4.39,6.12-1.21,2.02-2.28,4.11-3.24,6.26-1.2,2.72-2.25,5.52-3.11,8.37s-1.52,5.72-1.98,8.63c-.37,2.34-.61,4.69-.64,7.06s.09,4.68.27,7.01c.2,2.49.47,4.97.79,7.44s.69,4.92,1.09,7.37c.19,1.13.37,2.27.57,3.4.09.53.18,1.06.28,1.58s.17,1.01.29,1.5c.11.46.25.92.33,1.39.03.19.26.29.43.24.2-.05.27-.24.24-.43-.02-.12,0,.03,0-.04,0-.03,0-.06,0-.09,0-.05,0-.1-.01-.15-.01-.13-.02-.25-.04-.38-.02-.25-.04-.49-.07-.74,0-.05-.01-.11-.02-.16.02.12,0-.07-.01-.08,0-.07-.02-.13-.03-.2-.02-.13-.04-.26-.05-.38-.04-.25-.07-.51-.11-.76-.02-.15.02.15,0-.06,0-.05-.01-.1-.02-.15,0-.06-.02-.11-.02-.17-.02-.14-.04-.28-.06-.42-.04-.27-.08-.55-.12-.82-.08-.55-.17-1.09-.25-1.64-.17-1.16-.34-2.32-.51-3.48-.04-.3-.08-.61-.13-.91-.02-.14-.04-.29-.06-.43,0-.07-.02-.14-.03-.22v-.02c.01.11,0,.07-.02-.1,0-.05-.01-.1-.02-.15-.02-.15-.04-.29-.06-.44,0-.06-.02-.13-.03-.19,0-.04-.01-.08-.02-.12,0-.02,0-.05,0-.07,0,.06,0,.07,0,.03-.04-.3-.08-.6-.12-.9-.32-2.46-.6-4.93-.81-7.4s-.34-4.75-.37-7.13c-.03-2.13.03-4.26.29-6.37.02-.17.04-.35.07-.52,0-.05.01-.1.02-.14.01-.11-.02.15,0-.03.01-.1.03-.19.04-.29.05-.37.11-.73.16-1.1.11-.72.24-1.44.38-2.16.28-1.44.61-2.87.98-4.29.74-2.84,1.65-5.63,2.74-8.35.13-.33.27-.67.41-1,.04-.09.07-.18.11-.27-.01.02-.04.09,0-.02.02-.04.03-.07.05-.11.08-.18.15-.36.23-.53.22-.51.45-1.03.69-1.53.49-1.06,1.02-2.1,1.57-3.13,1.16-2.18,2.46-4.28,3.91-6.28.38-.52.68-.92,1.07-1.4s.77-.92,1.17-1.37.8-.86,1.21-1.27c.2-.2.41-.41.62-.6s.39-.39.59-.58c.38-.37.81-.7,1.23-1.01.13-.09.02-.3-.13-.22h0Z"/>
      <path class="cls-1" d="M223.85,183.95c-1.1,1.08-2.08,2.27-2.96,3.53s-1.65,2.69-2.32,4.11-1.3,3.01-1.81,4.58-.92,3.12-1.26,4.71-.63,3.22-.83,4.85c-.19,1.54-.32,3.08-.39,4.63-.09,1.97-.09,3.94-.01,5.91s.25,3.93.51,5.88.61,3.94,1.07,5.88,1.02,3.82,1.69,5.68c.16.45.34.9.52,1.35.08.19.25.32.47.26.19-.05.33-.27.26-.47-1.21-3.72-2.13-7.53-2.7-11.4-.03-.23-.07-.46-.1-.7-.03-.19.01.11-.01-.08,0-.06-.02-.12-.02-.17-.02-.14-.03-.27-.05-.41-.06-.49-.11-.97-.16-1.46-.1-.97-.17-1.95-.23-2.93-.11-1.96-.14-3.92-.08-5.88.05-1.63.15-3.26.32-4.89.04-.37.08-.74.13-1.12.01-.09.02-.19.04-.28,0-.03.02-.19,0-.02,0-.05.01-.09.02-.14.02-.13.04-.26.05-.4-.02.16,0,0,0-.03,0-.06.02-.13.03-.19.11-.79.24-1.58.38-2.36.58-3.17,1.44-6.29,2.65-9.28.04-.09.07-.18.11-.27.02-.04.04-.09.05-.13,0-.01.07-.16.02-.05.08-.19.16-.38.25-.57.16-.36.33-.72.5-1.07.34-.7.71-1.39,1.1-2.07.76-1.3,1.6-2.58,2.55-3.71.23-.28.47-.55.71-.81.31-.33-.17-.82-.5-.5h0Z"/>
      <path class="cls-1" d="M219.23,156.6c-.49.54-1,1.06-1.49,1.6s-.94,1.1-1.4,1.65c-.96,1.15-1.88,2.34-2.73,3.57s-1.63,2.47-2.32,3.77-1.29,2.69-1.77,4.1c-.94,2.78-1.49,5.68-1.72,8.61s-.11,5.92.32,8.85,1.15,5.71,2.29,8.4c.14.32.28.64.42.96.18.4.87.12.72-.3-.94-2.68-1.65-5.47-2.1-8.27-.03-.18-.06-.36-.08-.54-.01-.08-.02-.16-.03-.24,0-.04-.01-.09-.02-.13-.02-.18.02.13,0-.05-.05-.36-.09-.72-.13-1.08-.08-.72-.13-1.44-.17-2.16-.07-1.45-.08-2.9-.01-4.34.04-.72.09-1.44.17-2.16.02-.17.04-.34.06-.51,0-.08.02-.16.03-.24,0-.05.01-.11.02-.16-.02.11,0,.01,0-.04.05-.36.1-.71.16-1.07.24-1.41.56-2.81.96-4.18.2-.68.42-1.36.67-2.03.13-.34.26-.68.4-1.01,0-.02.05-.11,0,0,.02-.04.04-.08.05-.13.03-.08.06-.15.1-.22.04-.08.07-.16.11-.25,0,.02-.05.1,0,0,.04-.1.09-.2.13-.3.6-1.32,1.29-2.59,2.05-3.83s1.59-2.44,2.44-3.63,1.71-2.29,2.55-3.45c.21-.28.42-.56.64-.83.08-.1.1-.24,0-.34-.09-.09-.25-.1-.34,0h0Z"/>
      <path class="cls-1" d="M259.08,185.63c-.02.47-.03.93-.07,1.4-.04.44-.1.88-.14,1.32-.09.88-.16,1.76-.27,2.63-.21,1.66-.48,3.32-.81,4.96-.68,3.33-1.6,6.6-2.74,9.8-.61,1.71-1.27,3.41-1.98,5.09.06-.14-.02.04-.03.06-.02.04-.03.07-.05.11-.05.11-.09.22-.14.33-.1.22-.19.44-.29.66-.19.42-.37.85-.56,1.27-.39.86-.78,1.72-1.16,2.58-1.49,3.34-2.97,6.7-4.12,10.17-.54,1.64-.99,3.3-1.33,5-.18.88-.32,1.77-.43,2.66s-.14,1.75-.13,2.62c0,.44.06.89.11,1.33.05.39.56.39.6,0,.06-.46.13-.92.18-1.39.02-.22.04-.4.07-.63.03-.24.05-.39.08-.6.03-.23.07-.47.1-.7,0-.06.01-.11.02-.17,0,0,.02-.19.01-.08.02-.11.03-.22.05-.33.07-.44.14-.88.22-1.32.32-1.7.79-3.36,1.32-5s1.17-3.29,1.84-4.9c.08-.19.16-.39.24-.58.04-.11.09-.21.13-.32.02-.05.04-.11.07-.16.03-.07.03-.07,0,0,.01-.04.03-.07.04-.11.18-.41.35-.83.53-1.24.37-.85.75-1.7,1.14-2.55,1.55-3.42,3.08-6.84,4.31-10.39,1.12-3.24,2.04-6.54,2.64-9.91.3-1.68.51-3.38.63-5.08.06-.86.1-1.72.12-2.57s0-1.76-.04-2.65c-.02-.45-.03-.89-.04-1.34,0-.08-.12-.08-.12,0h0Z"/>
      <path class="cls-1" d="M265.57,226.51c.56-.61,1.12-1.23,1.65-1.87.56-.67,1.14-1.37,1.64-2.06,1.07-1.47,2.06-3,2.97-4.57s1.8-3.34,2.59-5.06,1.56-3.63,2.21-5.5,1.19-3.72,1.65-5.61.82-3.88,1.06-5.84.35-3.77.32-5.67-.19-3.77-.51-5.63-.77-3.54-1.42-5.23-1.46-3.37-2.52-4.87c-.26-.37-.55-.71-.81-1.08-.09-.13-.26-.19-.41-.11-.13.08-.2.28-.11.41.26.37.47.78.68,1.17s.42.8.63,1.2.4.8.59,1.21c.04.1.09.2.13.29.02.05.05.1.07.16.01.03.07.17.03.08.09.21.17.42.26.63.66,1.66,1.16,3.39,1.51,5.14.09.44.17.89.24,1.34.02.11.03.21.05.32,0,.05.01.1.02.15,0,.03,0,.06.01.09.02.15-.02-.13,0,.02.03.22.06.45.08.67.1.91.17,1.82.21,2.73.07,1.88,0,3.75-.18,5.62-.04.47-.09.95-.15,1.42-.01.11-.03.23-.04.34,0,.06-.02.12-.02.18,0,0,.02-.12,0-.05,0,.04-.01.08-.02.11-.03.24-.07.48-.11.72-.15.95-.32,1.9-.52,2.84-.4,1.89-.9,3.76-1.48,5.61s-1.25,3.65-1.98,5.44c-.05.11-.09.23-.14.34-.02.05-.04.1-.06.15-.03.08.04-.09,0,0-.01.04-.03.07-.04.11-.09.22-.19.43-.28.65-.19.44-.39.87-.59,1.31-.4.86-.82,1.7-1.25,2.55-.82,1.63-1.7,3.23-2.63,4.8-.88,1.47-1.77,2.94-2.75,4.36-.22.32-.45.65-.68.96-.03.04.03.09.07.05h0Z"/>
      <path class="cls-1" d="M303.92,165.46c-.15.07-.29.15-.43.23s-.29.12-.44.19c-.31.14-.6.37-.87.58-.55.43-1.06.91-1.52,1.43-.99,1.1-1.85,2.33-2.63,3.59s-1.43,2.51-2.08,3.81c-.72,1.44-1.42,2.89-2.03,4.38-1.4,3.42-2.3,7.02-2.8,10.68s-.72,7.31-.65,10.98.41,7.35,1.2,10.94c.09.42.19.83.29,1.25.05.19.26.31.45.26.21-.06.29-.26.26-.45-.63-3.51-.94-7.08-1.02-10.66s.1-7.22.53-10.8c.05-.45.11-.89.17-1.34-.02.15,0-.04,0-.05,0-.06.02-.11.02-.17.01-.09.03-.18.04-.28.03-.25.07-.49.11-.73.14-.9.31-1.8.51-2.69.4-1.78.91-3.53,1.53-5.25.31-.85.63-1.7.98-2.54.07-.17-.04.1.03-.07.02-.05.05-.11.07-.16.04-.09.08-.18.11-.26.1-.23.2-.46.31-.68.13-.29.26-.58.4-.86.59-1.27,1.2-2.53,1.84-3.77.67-1.31,1.41-2.6,2.27-3.79.4-.55.82-1.08,1.28-1.6.22-.25.45-.48.69-.71s.5-.44.73-.68c.1-.11.2-.23.32-.32.12-.1.27-.19.4-.27.1-.07.01-.22-.09-.16h0Z"/>
      <path class="cls-1" d="M329.8,241.75c.38.23.78.45,1.14.72s.74.56,1.12.84c.73.55,1.47,1.09,2.22,1.61,1.52,1.04,3.04,2.08,4.59,3.07s3.12,1.92,4.75,2.77,3.35,1.61,5.11,2.21,3.61,1.05,5.49,1.28,3.64.25,5.46.1,3.69-.48,5.49-.95,3.58-1.1,5.3-1.83,3.35-1.57,4.96-2.49c.8-.46,1.58-.94,2.35-1.44s1.58-1.02,2.3-1.61c.16-.13.32-.27.48-.41s.33-.31.51-.44c.11-.08.16-.21.09-.34-.06-.11-.23-.17-.34-.09-.18.13-.38.23-.57.34-.2.11-.4.23-.6.34-.4.22-.78.47-1.16.71-.77.48-1.54.95-2.33,1.4-1.6.91-3.25,1.75-4.94,2.48-.21.09-.41.18-.62.27,0,0-.08.04-.03.01s-.03.01-.03.01c-.05.02-.1.04-.15.06-.12.05-.23.1-.35.14-.43.17-.85.34-1.28.5-.85.31-1.71.6-2.58.85s-1.76.47-2.65.66c-.44.09-.89.17-1.34.25-.22.04-.44.07-.66.1-.05,0-.11.01-.16.02-.13.02.08-.01-.04,0s-.25.03-.37.05c-1.79.21-3.6.26-5.4.11-.23-.02-.46-.04-.69-.06-.11-.01-.21-.02-.32-.04-.05,0-.11-.01-.16-.02s-.2-.02-.07,0c-.46-.05-.91-.14-1.36-.22-.9-.17-1.8-.39-2.68-.65s-1.71-.54-2.55-.86c-.22-.08-.43-.17-.64-.25-.1-.04-.2-.08-.3-.12-.05-.02-.1-.04-.15-.06-.01,0-.09-.04-.02,0,.1.04-.12-.05-.1-.04-.07-.03-.13-.06-.2-.08-.02,0-.16-.07-.09-.04s-.07-.03-.1-.04c-.06-.02-.11-.05-.17-.07-.21-.09-.42-.19-.64-.28-1.65-.75-3.26-1.6-4.84-2.48s-3.17-1.83-4.74-2.77c-.78-.46-1.55-.93-2.34-1.36s-1.6-.86-2.4-1.28c-.39-.2-.76-.45-1.14-.68-.06-.04-.12.06-.06.1h0Z"/>
      <path class="cls-1" d="M336.59,203.46c.44,1.03.87,2.06,1.24,3.12.18.51.36,1.02.54,1.53s.39,1.02.59,1.52c.78,1.99,1.6,3.96,2.49,5.89s1.83,3.7,2.94,5.44c.58.9,1.2,1.77,1.85,2.62.02.03.17.21.05.07.06.08.12.16.19.24.08.1.17.2.25.3.16.2.33.39.49.58.35.4.71.79,1.07,1.17,1.55,1.6,3.29,3.02,5.16,4.22s3.69,2.11,5.65,2.91,3.97,1.39,6.03,1.77,4.23.59,6.36.51,4.18-.43,6.16-1.07,3.89-1.61,5.58-2.86c.22-.16.41-.32.63-.51.2-.17.39-.37.6-.54.13-.1.11-.32,0-.43-.13-.13-.3-.1-.43,0-.2.16-.44.29-.65.42s-.44.27-.66.41c-.44.28-.9.53-1.36.77s-.91.45-1.38.66c-.06.02-.11.05-.17.07-.09.04-.02,0,0,0-.03.01-.06.02-.08.04-.13.05-.25.1-.38.15-.23.09-.47.18-.71.26-.95.33-1.93.6-2.92.8-.5.1-1,.19-1.51.26-.09.01.13-.02.03,0-.03,0-.06,0-.09.01-.06,0-.12.02-.18.02-.13.02-.26.03-.39.04-.26.03-.52.05-.77.07-1.02.07-2.04.1-3.05.06-.52-.02-1.03-.05-1.55-.1-.25-.02-.51-.05-.76-.08-.06,0-.12-.02-.18-.02-.03,0-.06,0-.09-.01s-.12-.03-.02,0,0,0-.02,0-.06,0-.09-.01c-.07,0-.14-.02-.21-.03-2.06-.31-4.08-.84-6.04-1.54-.49-.18-.98-.36-1.46-.56-.06-.02-.12-.05-.17-.07-.03-.01-.06-.02-.09-.04.01,0,.16.07.04.02-.12-.05-.24-.1-.36-.16-.23-.1-.47-.21-.7-.32-.94-.44-1.85-.92-2.75-1.44s-1.8-1.11-2.66-1.73c-.22-.16-.44-.32-.66-.49-.03-.02-.05-.04-.08-.06.12.1.05.04.02.02-.05-.04-.1-.08-.15-.12-.12-.09-.23-.18-.34-.27-.41-.33-.81-.68-1.2-1.04-.77-.7-1.51-1.45-2.21-2.24-.34-.38-.66-.77-.98-1.16-.16-.2-.33-.4-.49-.61,0-.01-.06-.07-.06-.07,0,0,.09.12.01.02-.04-.05-.07-.1-.11-.15-.08-.1-.16-.21-.23-.31-1.22-1.64-2.29-3.38-3.28-5.17s-1.9-3.69-2.79-5.56c-.46-.97-.88-1.95-1.36-2.91s-.99-1.92-1.43-2.91c-.22-.49-.44-.98-.66-1.47-.03-.06-.1,0-.08.05h0Z"/>
      <path class="cls-1" d="M358.86,218.67c1.66,1.03,3.36,2.02,5.13,2.84s3.68,1.52,5.61,1.97,3.87.69,5.84.64,3.86-.4,5.65-1.08c1.91-.72,3.75-1.86,5.14-3.36.18-.19.35-.4.51-.6.13-.16.16-.38,0-.54s-.38-.13-.54,0c-.39.3-.8.59-1.2.89s-.81.59-1.23.85-.83.51-1.26.74c-.21.11-.43.22-.64.32-.1.05-.2.09-.3.14-.05.02-.11.05-.16.07-.03.01-.05.02-.08.04-.08.03.15-.06,0,0-.87.35-1.75.66-2.66.88-.45.11-.91.2-1.37.27-.05,0-.1.02-.15.02-.03,0-.06,0-.09.01-.02,0-.12.01-.03,0,.1-.01-.07,0-.09.01-.07,0-.14.02-.22.03-.23.03-.46.05-.7.06-.93.07-1.86.08-2.79.03-.47-.03-.95-.07-1.42-.12-.11-.01-.22-.02-.33-.04-.06,0-.12-.01-.18-.02-.03,0-.06,0-.09-.01-.11-.01.06,0,0,0-.24-.03-.48-.07-.71-.11-1.92-.32-3.8-.82-5.64-1.45s-3.61-1.33-5.32-2.23c-.21-.11-.42-.22-.63-.34-.06-.03-.11.06-.06.09h0Z"/>
      <path class="cls-1" d="M128.5,237.92c.21.26.45.51.66.77s.41.52.64.75c.48.49.99.95,1.53,1.39,1.12.92,2.37,1.71,3.64,2.42,2.54,1.42,5.29,2.48,8.13,3.12s6.06.79,9.08.41c1.59-.2,3.16-.52,4.71-.96s3.07-1.02,4.56-1.66c2.96-1.28,5.8-2.88,8.46-4.7.33-.23.66-.45.99-.68.22-.15.34-.46.18-.71-.15-.23-.46-.34-.71-.18-2.7,1.72-5.47,3.36-8.39,4.69-.35.16-.71.32-1.07.47-.16.07.12-.05-.05.02-.05.02-.1.04-.15.06-.08.03-.16.07-.24.1-.2.08-.39.16-.59.23-.72.28-1.45.54-2.18.77-1.48.47-2.99.85-4.53,1.11-.19.03-.38.06-.57.09-.09.01-.17.02-.26.04-.18.02.14-.02-.04,0-.05,0-.1.01-.16.02-.38.05-.77.09-1.15.12-.79.06-1.59.1-2.39.09s-1.59-.05-2.38-.12c-.18-.02-.37-.04-.55-.06-.07,0-.14-.02-.21-.03h-.04c-.07-.01-.06-.01.04,0-.03-.02-.09-.01-.13-.02-.33-.05-.66-.1-.99-.16-1.35-.23-2.68-.57-3.98-.98-.68-.22-1.36-.45-2.03-.7-.33-.12-.67-.25-1-.39-.08-.03-.17-.07-.25-.1-.02,0-.12-.05-.03-.01-.05-.02-.09-.04-.14-.06-.17-.07-.33-.14-.49-.22-1.31-.59-2.6-1.25-3.82-2.01-.59-.37-1.18-.75-1.76-1.15-.27-.19-.54-.38-.8-.58s-.54-.39-.8-.59-.48-.43-.7-.66c-.04-.04-.1.02-.06.06h0Z"/>
      <path class="cls-1" d="M107.78,232.06c.38,1.77.89,3.52,1.61,5.18s1.62,3.28,2.67,4.79,2.22,2.93,3.52,4.22,2.72,2.46,4.32,3.36,3.39,1.57,5.19,2.06,3.64.8,5.49,1.02,3.71.31,5.57.2,3.73-.4,5.54-.87,3.56-1.11,5.25-1.89c.85-.39,1.67-.81,2.49-1.26s1.63-.98,2.41-1.53c.19-.13.37-.26.55-.4.13-.1.2-.15.34-.26.08-.06.18-.16.24-.2.2-.14.29-.39.16-.61-.12-.2-.41-.3-.61-.16s-.41.23-.62.35-.42.25-.63.37c-.41.24-.82.48-1.23.71-.81.44-1.61.9-2.44,1.3-.41.2-.83.4-1.25.58-.1.05-.2.09-.31.14-.05.02-.09.04-.14.06-.02.01-.05.02-.07.03.05-.02.08-.03.01,0-.21.09-.43.18-.64.26-.83.33-1.68.62-2.53.87s-1.74.47-2.62.65c-.44.09-.89.16-1.33.23-.11.02-.22.04-.33.05,0,0,.14-.02.06,0-.03,0-.05,0-.08,0-.06,0-.12.02-.18.02-.23.03-.46.05-.69.08-1.84.19-3.71.19-5.55.03-.44-.04-.87-.08-1.31-.13-.22-.02-.43-.05-.65-.08-.05,0-.1-.01-.15-.02.2.02,0,0-.04,0-.12-.02-.23-.03-.35-.05-.88-.13-1.77-.28-2.64-.47s-1.77-.42-2.63-.69c-.43-.14-.86-.28-1.28-.44-.21-.08-.41-.16-.62-.24-.02,0-.17-.07-.08-.03s0,0-.01,0c-.03-.01-.06-.03-.09-.04-.1-.04-.2-.09-.3-.13-.82-.37-1.62-.78-2.38-1.26-.38-.24-.75-.49-1.11-.76-.08-.06-.16-.12-.24-.18-.09-.07-.01,0,0,0-.03-.03-.07-.05-.1-.08-.06-.05-.12-.09-.18-.14.09.07-.02-.02-.06-.04-.04-.03-.08-.06-.12-.09-.09-.07-.18-.15-.27-.22-1.38-1.12-2.65-2.38-3.78-3.75s-2.16-2.85-3.04-4.4c-.45-.78-.86-1.59-1.23-2.41s-.72-1.62-1.01-2.47c-.14-.41-.26-.83-.37-1.25-.02-.07-.12-.04-.11.03h0Z"/>
      <path class="cls-1" d="M109.19,275.65c1.13.37,2.29.59,3.47.72s2.36.13,3.54,0c2.43-.28,4.77-.97,7.01-1.95,1.97-.86,3.81-1.99,5.4-3.46s2.78-3.02,3.93-4.72,2.2-3.59,3.2-5.43c.13-.23.25-.47.38-.7.14-.25.07-.62-.2-.76s-.6-.07-.76.2c-1.07,1.79-2.1,3.61-3.24,5.36-.54.84-1.1,1.67-1.7,2.46-.04.05-.07.1-.11.15.1-.12-.03.03-.05.06-.08.1-.16.2-.24.3-.15.19-.31.38-.47.56-.32.38-.66.74-1,1.09s-.7.69-1.06,1.01c-.19.17-.38.34-.58.5-.09.07-.18.15-.27.22-.05.04-.1.08-.15.12.1-.08-.07.05-.09.07-.83.63-1.72,1.18-2.64,1.65-1.06.54-2.06.98-3.16,1.39s-2.23.76-3.38,1.01c-2.27.5-4.65.71-6.94.24-.28-.06-.57-.13-.84-.2-.07-.02-.1.09-.03.11h0Z"/>
      <path class="cls-1" d="M86.06,156.63c.82.44,1.65.84,2.51,1.19s1.7.63,2.58.87c1.71.48,3.46.77,5.23.91s3.47.13,5.19-.03,3.5-.45,5.21-.86,3.4-.94,5.04-1.56,3.36-1.38,4.98-2.2,3.19-1.71,4.73-2.67,3.03-1.98,4.49-3.05,2.92-2.23,4.33-3.42,2.66-2.31,3.93-3.54c.31-.3.61-.6.92-.89.17-.17.17-.46,0-.63s-.45-.17-.63,0c-.63.59-1.29,1.16-1.94,1.72s-1.33,1.15-2,1.72-1.37,1.13-2.07,1.68c-.17.13-.34.27-.51.4,0,0-.07.06-.03.02.05-.04-.04.03-.05.04-.04.03-.08.06-.12.1-.09.07-.18.14-.27.21-.36.27-.72.54-1.09.82-1.44,1.07-2.91,2.1-4.41,3.07s-3.06,1.88-4.64,2.74c-.78.42-1.58.83-2.38,1.22-.4.19-.79.38-1.19.56-.2.09-.41.18-.61.27-.09.04-.19.08-.28.12-.06.02-.11.05-.17.07,0,0-.09.04-.02,0s-.04.01-.05.02c-1.62.68-3.27,1.26-4.95,1.76s-3.33.86-5.03,1.12c-.11.02-.21.03-.32.05-.02,0-.15.02-.1.01.06,0-.02,0-.03,0-.03,0-.07,0-.1.01-.21.03-.43.05-.65.08-.42.05-.85.08-1.27.11-.86.06-1.71.09-2.57.09-1.73,0-3.43-.17-5.12-.45-1.78-.29-3.5-.78-5.23-1.3-.43-.13-.85-.28-1.28-.43-.05-.02-.08.06-.03.08h0Z"/>
      <path class="cls-1" d="M150.69,141.47c-.56.24-1.12.48-1.68.72s-1.07.48-1.6.73c-1.07.5-2.14,1-3.19,1.52-2.09,1.03-4.17,2.12-6.13,3.4s-3.9,2.79-5.59,4.49-3.25,3.72-4.59,5.78-2.48,4.26-3.44,6.52-1.76,4.69-2.31,7.13-.84,4.76-1.01,7.17-.19,4.74-.02,7.1.54,4.76,1.16,7.07,1.47,4.47,2.63,6.51c.28.49.57.97.88,1.44.23.35.73.28.87-.11.24-.69.3-1.45.33-2.18.03-.77,0-1.54,0-2.31,0-.81.06-1.62.12-2.43.07-.87.16-1.74.27-2.61,0-.06.02-.12.02-.18-.01.08,0-.05,0-.06.01-.11.03-.22.05-.32.03-.22.07-.43.1-.65.07-.43.14-.86.22-1.29.16-.86.36-1.71.59-2.55.21-.78.46-1.55.73-2.31.13-.35.26-.7.4-1.05.07-.17.14-.34.21-.52.01-.03.03-.06.04-.09.06-.15-.04.1.02-.05.04-.09.08-.19.12-.28,1.17-2.68,2.68-5.22,4.41-7.57.1-.13.2-.27.3-.4.06-.08.12-.16.18-.24.02-.03.04-.05.06-.08.02-.03.04-.05.06-.08-.04.05-.04.05,0,0,.22-.29.45-.57.68-.86.46-.57.93-1.12,1.42-1.67.97-1.09,1.98-2.14,3.03-3.17s2.11-1.99,3.19-2.96,2.19-1.87,3.28-2.82c.27-.24.53-.49.81-.71.17-.13.14-.43,0-.57-.17-.17-.4-.13-.57,0-.25.2-.58.4-.86.6-.14.1-.25.19-.41.31-.15.11-.3.23-.45.34-.6.46-1.2.93-1.79,1.42-1.13.93-2.22,1.89-3.29,2.89-2.15,2.01-4.15,4.18-5.96,6.51s-3.39,4.83-4.64,7.51c-1.39,2.98-2.36,6.13-2.84,9.38-.06.39-.13.92-.18,1.38-.05.43-.09.87-.13,1.3-.08.87-.13,1.74-.17,2.61-.03.76-.01,1.52.01,2.28.01.39.02.77.02,1.16,0,.19,0,.38-.02.57,0,.08-.01.17-.02.25,0,.05,0,.1-.01.15.01-.12-.03.19,0,.07-.05.34-.12.67-.24,1l.87-.11c-.63-.97-1.18-1.98-1.67-3.02-.26-.55-.43-.96-.65-1.53-.21-.53-.39-1.07-.57-1.62-.35-1.1-.64-2.23-.86-3.37-.12-.58-.22-1.16-.3-1.74-.02-.14-.04-.27-.06-.41,0-.03,0-.07-.01-.1,0,.02.01.1,0,0-.01-.08-.02-.17-.03-.25-.04-.29-.07-.58-.1-.87-.24-2.34-.28-4.7-.16-7.05.06-1.16.15-2.31.28-3.46.03-.29.07-.57.1-.85.02-.14.03-.28.05-.43,0-.07.02-.13.03-.2,0-.03,0-.07.01-.1,0-.02,0-.05,0-.07,0,.07-.01.08,0,.03.08-.59.17-1.18.27-1.76.43-2.41,1.08-4.78,1.92-7.07.21-.57.43-1.14.66-1.7.02-.04.03-.08.05-.12,0-.02.04-.1,0-.01.03-.07.06-.13.08-.2.06-.15.13-.3.19-.44.12-.28.25-.56.38-.83.51-1.1,1.08-2.18,1.68-3.23s1.27-2.09,1.97-3.09c.34-.49.7-.97,1.06-1.44.02-.03.04-.06.06-.08-.01.02-.05.07.01-.02.04-.06.09-.11.13-.17.1-.12.2-.25.29-.37.19-.23.38-.47.58-.7.79-.92,1.63-1.79,2.52-2.61.44-.4.89-.79,1.35-1.17s.85-.68,1.32-1.03c1.87-1.38,3.85-2.59,5.88-3.71,1.01-.56,2.03-1.1,3.06-1.63s2.09-1.07,3.11-1.65c.5-.29,1-.58,1.5-.87.12-.07.01-.23-.11-.18h0Z"/>
      <path class="cls-1" d="M154.92,153.84c-.79.23-1.56.54-2.27.94s-1.39.9-2.02,1.46-1.19,1.15-1.72,1.79c-.13.16-.26.31-.38.47-.05.06-.1.13-.15.19,0,.01-.07.09-.03.03.06-.08-.08.1-.07.09-.07.09-.13.18-.19.27-.25.35-.49.7-.71,1.06-.94,1.48-1.7,3.05-2.37,4.66s-1.21,3.13-1.68,4.73c-.5,1.69-.81,3.44-.97,5.2s-.14,3.39.04,5.07.51,3.4,1.03,5.04,1.19,3.17,2.02,4.64,1.84,2.82,2.99,4.05,2.51,2.35,3.96,3.25c.35.22.72.42,1.08.63.22.13.53.05.66-.17s.05-.53-.17-.66c-.37-.21-.72-.46-1.06-.7-.17-.12-.34-.24-.5-.37-.04-.03-.08-.06-.12-.09-.02-.02-.05-.04-.07-.05,0,0-.07-.05-.02-.01s0,0-.01-.01c-.02-.02-.05-.04-.07-.05-.05-.04-.09-.07-.14-.11-.64-.51-1.25-1.06-1.83-1.64s-1.13-1.19-1.64-1.83c-.03-.04-.06-.08-.09-.12-.04-.06-.07-.09,0,0-.06-.09-.13-.17-.19-.26-.12-.17-.25-.33-.36-.5-.23-.33-.45-.66-.67-1-.44-.69-.83-1.4-1.19-2.13-.18-.36-.34-.72-.5-1.09-.05-.11.05.12,0-.02-.02-.05-.04-.09-.06-.14-.04-.1-.08-.2-.12-.3-.07-.19-.14-.37-.21-.56-.56-1.54-.96-3.14-1.21-4.76-.02-.1-.03-.2-.04-.3,0-.03-.03-.2-.01-.08s-.01-.08-.01-.11c-.03-.2-.05-.41-.07-.61-.04-.41-.08-.83-.1-1.25-.05-.83-.05-1.66-.02-2.49.02-.42.04-.84.08-1.26.02-.21.04-.41.06-.62.01-.1.02-.21.04-.31,0-.05.01-.1.02-.16,0-.02,0-.04,0-.07-.02.19,0,.07,0,.02.12-.84.27-1.67.47-2.49.38-1.61.88-3.19,1.43-4.74.14-.4.29-.79.44-1.18.08-.19.15-.39.23-.58.04-.09.1-.19.12-.29,0,.02-.05.12,0,.02,0-.02.02-.04.03-.06.02-.05.05-.11.07-.16.33-.77.69-1.54,1.09-2.28s.82-1.47,1.28-2.17c.23-.34.47-.68.71-1.02.06-.08.11-.15.17-.22-.06.08.03-.03.04-.05.04-.05.07-.09.11-.14.13-.16.26-.32.4-.48,1.04-1.2,2.25-2.24,3.59-3.06.34-.21.69-.39,1.05-.56.17-.08.05-.36-.13-.31h0Z"/>
      <path class="cls-1" d="M159.6,168.49c-.31.76-.57,1.54-.84,2.32s-.52,1.53-.71,2.31-.37,1.53-.49,2.31-.21,1.58-.29,2.38c-.27,2.79-.13,5.63.22,8.41.27,2.15.68,4.28,1.31,6.35s1.5,4.17,2.78,5.96,2.86,3.16,4.9,3.75c.24.07.49.12.73.18.27.06.6-.09.66-.38.06-.28-.08-.59-.38-.66-.24-.06-.48-.15-.72-.23-.06-.02-.11-.04-.17-.07-.04-.02-.13-.08,0,0-.02-.01-.04-.02-.06-.03-.12-.05-.23-.11-.35-.16-.43-.21-.85-.45-1.24-.73-.1-.07-.19-.13-.28-.2-.03-.03-.1-.09.03.02-.02-.01-.04-.03-.05-.04-.05-.04-.11-.09-.16-.13-.19-.16-.37-.32-.55-.49-.36-.34-.69-.71-1-1.09-.04-.05-.07-.09-.11-.14-.05-.07.1.13.02.03-.02-.02-.04-.05-.05-.07-.08-.1-.15-.2-.23-.31-.15-.21-.3-.42-.44-.64-.28-.45-.55-.91-.79-1.37-.12-.23-.24-.47-.35-.71-.05-.12-.11-.23-.16-.35-.03-.06-.05-.12-.08-.18-.01-.03-.03-.06-.04-.09-.05-.12.01-.04,0,0,0-.03-.06-.14-.07-.18-.02-.06-.05-.12-.07-.18-.05-.13-.11-.27-.16-.4-.1-.26-.19-.51-.28-.77-.7-2-1.18-4.08-1.52-6.17-.04-.24-.08-.49-.11-.73-.02-.11-.03-.23-.05-.34,0-.04-.02-.23,0-.07,0-.07-.02-.13-.03-.2-.07-.56-.13-1.13-.19-1.69-.15-1.58-.25-3.17-.24-4.75s.1-3.12.31-4.67.52-3.12,1.02-4.61c.13-.38.27-.75.41-1.12.03-.08-.1-.12-.14-.04h0Z"/>
      <path class="cls-1" d="M221.63,98.18c-.43-.19-.86-.38-1.28-.58s-.83-.38-1.24-.57-.88-.32-1.32-.46-.85-.26-1.28-.37c-1.68-.44-3.4-.72-5.14-.85-3.43-.25-6.87.11-10.23.82-1.74.37-3.46.84-5.16,1.38-.88.28-1.74.58-2.62.85s-1.75.5-2.64.7c-.84.19-1.68.36-2.53.49-.2.03-.41.06-.61.09-.06,0-.11.02-.17.02-.19.03.15-.02-.04,0-.11.01-.22.03-.33.04-.42.05-.85.1-1.27.13-1.66.14-3.33.17-4.99.12s-3.36-.21-5.03-.43c-.01,0-.2-.03-.06,0-.06,0-.11-.02-.17-.02-.09-.01-.19-.03-.28-.04-.23-.03-.45-.07-.68-.1-.44-.07-.87-.14-1.31-.21-.89-.15-1.78-.31-2.67-.48-.43-.08-.87-.16-1.31-.24-.18-.03-.35,0-.49.13-.12.12-.19.32-.13.49.02.04.09.25.04.12,0,.03.02.05.03.08.04.1.08.19.13.29.06.14.13.28.21.42.14.27.28.54.44.8.34.58.73,1.11,1.16,1.63.86,1.04,1.83,1.97,2.87,2.83,2.16,1.79,4.55,3.38,7.09,4.56,2.78,1.29,5.73,2.08,8.77,2.45s5.9.28,8.84-.02,6.07-.86,9.06-1.58c.37-.09.74-.22,1.11-.3.2-.04.31-.27.26-.46-.06-.2-.26-.3-.46-.26-.38.08-.77.11-1.15.18s-.76.14-1.13.2c-.74.13-1.49.26-2.23.39s-1.48.25-2.22.36c-.37.06-.74.11-1.12.17-.09.01-.18.03-.27.04-.04,0-.09.01-.13.02-.02,0-.13.02-.05,0-.19.03-.39.05-.58.08-2.89.36-5.82.51-8.73.3-.36-.03-.73-.06-1.09-.1-.17-.02-.35-.04-.52-.06-.22-.03-.27-.03-.49-.07-.72-.1-1.43-.23-2.14-.39-1.45-.32-2.88-.76-4.26-1.31-2.55-1.02-4.98-2.51-7.18-4.19-.48-.37-1.02-.81-1.51-1.24s-.97-.89-1.43-1.37-.85-.96-1.21-1.48c-.18-.26-.35-.52-.51-.8-.07-.13-.14-.26-.21-.39-.03-.06-.07-.13-.1-.19,0-.01-.03-.08,0-.02-.02-.05-.04-.09-.05-.14-.1-.27-.18-.55-.25-.82l-.62.62c1.72.45,3.47.81,5.23,1.11s3.45.53,5.19.67c3.39.27,6.81.12,10.16-.49,1.77-.32,3.51-.8,5.21-1.37s3.43-1.11,5.18-1.57,3.36-.8,5.07-1.04c.09-.01.18-.03.28-.04-.14.02.04,0,.06,0,.05,0,.09-.01.14-.02.21-.03.43-.05.64-.08.42-.05.85-.08,1.28-.12.85-.07,1.7-.1,2.55-.1s1.67.04,2.5.11c.43.04.85.08,1.28.14.05,0,.1.01.2.03.16.02.18.02.34.05.22.03.45.07.67.11.85.14,1.7.33,2.53.55.44.12.87.26,1.3.37s.89.23,1.33.36.85.3,1.26.47c.11.05.24.03.31-.08.06-.1.03-.26-.08-.31h0Z"/>
      <path class="cls-1" d="M232.96,102.68c-.3-.18-.61-.35-.93-.45-.35-.1-.71-.18-1.07-.23-.21-.03-.41-.05-.62-.07-.09,0-.18-.01-.27-.02-.05,0-.09,0-.14,0-.03,0-.05,0-.08,0,0,0-.11,0-.06,0s-.14,0-.17,0c-.05,0-.11,0-.16,0-.1,0-.2,0-.3.01-.21,0-.41.02-.62.04-1.8.16-3.56.59-5.28,1.14s-3.29,1.15-4.89,1.85c-1.7.74-3.37,1.54-4.98,2.47-1.9,1.1-3.69,2.38-5.31,3.86s-2.99,3.14-4.31,4.86c-.65.84-1.28,1.7-1.91,2.56-.32.44-.64.87-.96,1.3-.16.21-.32.42-.48.64-.07.1-.15.2-.23.29-.02.03-.04.06-.06.08-.01.02-.07.09,0,0-.04.06-.09.11-.13.17-1.29,1.66-2.67,3.28-4.28,4.65-.1.09-.2.17-.31.25-.05.04-.1.08-.15.12-.02.02-.04.03-.06.05-.14.11.11-.09-.07.05.03-.02-.15.12-.08.06.04-.03-.02.02-.03.02-.06.04-.11.09-.17.13-.11.08-.21.16-.32.23-.43.31-.87.6-1.33.88-.88.55-1.8,1.04-2.72,1.5-1.86.94-3.76,1.79-5.59,2.79-.45.25-.9.5-1.33.78-.17.11-.22.31-.13.49.59,1.14,1.68,1.9,2.82,2.44s2.36.9,3.58,1.23c1.68.46,3.42.55,5.15.33s3.5-.71,5.17-1.35c1.87-.72,3.65-1.6,5.46-2.46.23-.11.3-.45.17-.66-.14-.24-.42-.28-.66-.17-1.55.74-3.11,1.45-4.66,2.05s-3.22,1.15-4.9,1.44c-.44.08-.71.11-1.16.16-.42.04-.83.06-1.25.06s-.86-.01-1.28-.05-.72-.08-1.15-.16c-.61-.12-1.21-.28-1.8-.44s-1.19-.34-1.77-.56c-.37-.14-.58-.22-.94-.4-.31-.15-.61-.32-.89-.51-.49-.33-.97-.77-1.25-1.32l-.13.49c.93-.48,1.85-.97,2.79-1.41s1.9-.85,2.85-1.28c1.89-.86,3.78-1.75,5.5-2.93s3.27-2.71,4.66-4.32,2.68-3.38,3.98-5.1c.32-.43.64-.85.97-1.27.01-.01.08-.1.03-.04-.04.06,0-.01.02-.02.04-.06.09-.11.13-.17.08-.1.16-.21.25-.31.16-.21.33-.42.5-.62.66-.82,1.35-1.62,2.08-2.38s1.54-1.5,2.37-2.18c.1-.08.19-.16.29-.23.05-.04.1-.08.15-.12.03-.02.06-.04.08-.07-.07.06-.03.03.02-.01.21-.16.43-.32.64-.48.43-.31.86-.6,1.3-.89,1.73-1.12,3.54-2.1,5.4-2.97.67-.31,1.34-.61,2.01-.91.19-.08.37-.16.56-.25.09-.04.18-.08.27-.12.05-.02.1-.04.15-.07.01,0,.08-.03,0,0-.09.04.03-.01.05-.02.4-.17.8-.33,1.21-.49,1.67-.65,3.38-1.21,5.12-1.6.42-.09.84-.17,1.26-.24.05,0,.1-.01.14-.02.02,0,.04,0,.06,0-.08.01,0,0,0,0,.11-.01.22-.03.33-.04.2-.02.4-.03.6-.05-.02,0,.16-.02.09-.01-.05,0,.03,0,.04,0,.05,0,.09,0,.14,0,.1,0,.21-.01.31-.02.19,0,.38,0,.57,0,.35,0,.7.04,1.03.09s.64.09.97.18c.16.04.24-.17.11-.26h0Z"/>
      <path class="cls-1" d="M255.41,101.46c.86-.53,1.75-.99,2.66-1.42s1.89-.78,2.84-1.16c1.95-.77,3.96-1.42,5.99-1.93,1.03-.26,2.07-.49,3.12-.68.53-.1,1.06-.19,1.59-.28.27-.04.54-.08.81-.12.07,0,.13-.02.2-.03.02,0,.05,0,.07-.01.09-.01-.09.01,0,0,.14-.02.28-.04.42-.05,2.11-.26,4.24-.38,6.37-.35,1.05.02,2.11.06,3.16.15.52.04,1.04.1,1.56.16.12.01.24.03.36.05.17.02-.11-.02.06,0,.07,0,.14.02.21.03.25.04.5.07.75.12,2,.33,3.98.82,5.9,1.51.53.19,1.06.39,1.58.61.03.01.06.03.1.04-.14-.06-.05-.02-.02,0,.06.03.13.05.19.08.13.06.27.12.4.18.26.12.51.23.76.36.97.46,1.91.97,2.83,1.52s1.78,1.12,2.64,1.74c.21.15.42.3.62.46.1.07.19.14.29.22.05.04.1.08.15.12.03.02.05.04.08.06-.14-.11,0,0,.02.01.4.31.8.64,1.2.96,1.62,1.34,3.16,2.78,4.67,4.24s3.1,3.05,4.67,4.56c.39.38.79.76,1.18,1.14l.44-1.07c-.82.03-1.65,0-2.47-.05-.4-.03-.81-.06-1.21-.11-.19-.02-.39-.04-.58-.07-.1-.01-.19-.02-.29-.04-.06,0-.12-.02-.17-.02-.19-.03.13.02-.06,0-1.65-.23-3.3-.53-4.94-.82s-3.37-.56-5.07-.69-3.31-.11-4.97-.09c-3.24.04-6.49.19-9.71.51s-6.44.79-9.62,1.44c-1.58.32-3.14.69-4.7,1.1-.81.22-1.62.44-2.42.69-.4.12-.79.24-1.19.37-.42.14-.82.31-1.23.46-.38.14-.75.31-1.14.43-.43.14-.25.82.19.68.39-.13.83-.22,1.23-.31.43-.1.85-.18,1.28-.3.8-.22,1.6-.42,2.4-.62,1.58-.4,3.17-.77,4.76-1.1s3.14-.61,4.73-.85c.39-.06.78-.12,1.17-.17.19-.03.37-.05.56-.08-.15.02.04,0,.06,0,.05,0,.09-.01.14-.02.1-.01.21-.03.31-.04.8-.1,1.61-.2,2.41-.29,3.2-.35,6.42-.54,9.64-.6,1.65-.03,3.32-.07,4.97,0,.83.03,1.66.11,2.48.2.19.02.39.05.58.07,0,0,.18.02.09.01s.1.01.09.01c.12.02.23.03.35.05.41.06.82.12,1.23.19,3.29.54,6.57,1.26,9.91,1.34.4,0,.8,0,1.21,0,.53-.02.85-.69.44-1.07-1.61-1.54-3.16-3.14-4.75-4.7s-3.04-2.97-4.64-4.37-3.29-2.74-5.07-3.91-3.82-2.26-5.87-3.11c-1.94-.8-3.96-1.4-6.01-1.82s-4.23-.66-6.36-.75-4.29.02-6.41.26-4.34.62-6.46,1.17-4.14,1.22-6.1,2.06c-.48.2-.95.41-1.42.64s-.93.47-1.39.73c-.89.5-1.76,1.01-2.62,1.56-.41.27-.83.53-1.24.8-.05.03,0,.11.05.08h0Z"/>
      <path class="cls-1" d="M334.51,133.14c.29.06.58.12.87.21s.58.19.88.27c.59.15,1.19.27,1.79.41,1.19.27,2.37.56,3.54.91,2.17.65,4.22,1.46,6.13,2.71.43.28.84.57,1.25.88.03.02.17.13.07.05.04.03.09.07.13.1.11.08.21.17.31.25.2.16.39.33.58.49.8.69,1.55,1.43,2.28,2.19s1.43,1.59,2.09,2.42c.08.1.15.2.23.29.03.04.14.18.05.06.05.06.09.12.14.18.17.22.33.44.49.66.32.43.62.86.92,1.3,1.19,1.72,2.26,3.52,3.28,5.34.56,1,1.09,2,1.6,3.03.26.53.52,1.06.76,1.6.12.27.25.55.37.82.05.12.11.25.16.37.03.07.06.13.09.2,0,.02.05.09.04.1l-.03-.07s.02.05.03.07c.88,2.09,1.63,4.24,2.23,6.42s1.01,4.28,1.32,6.45c0,.07.02.14.03.2,0-.02-.02-.16,0-.03,0,.03,0,.07.01.1.02.14.03.27.05.41.03.28.07.56.09.84.06.55.1,1.09.14,1.64.08,1.12.13,2.24.15,3.35.04,2.33-.06,4.65-.25,6.97-.05.57-.08,1.15-.15,1.71-.03.2.05.41.26.47.18.05.44-.06.47-.26.08-.61.2-1.21.29-1.82s.17-1.22.24-1.85c.13-1.16.23-2.33.29-3.5.12-2.26.09-4.53-.1-6.79s-.54-4.5-1.05-6.71-1.17-4.37-1.99-6.48c-.88-2.26-1.9-4.46-3.05-6.59-1-1.86-2.08-3.67-3.25-5.42s-2.55-3.61-4.02-5.26-2.99-3.08-4.74-4.34-3.81-2.26-5.94-2.91c-1.17-.36-2.37-.64-3.58-.87-.6-.12-1.21-.22-1.82-.32s-1.22-.21-1.83-.27c-.3-.03-.59-.05-.88-.06s-.61-.06-.91-.11c-.11-.02-.16.14-.05.17h0Z"/>
      <path class="cls-1" d="M377.86,180.69c.29-1.69.55-3.4.65-5.11s.09-3.35-.05-5.02-.39-3.33-.79-4.95-.9-3.14-1.53-4.64-1.42-3.05-2.32-4.47-1.97-2.82-3.11-4.1c-1.02-1.14-2.13-2.19-3.3-3.17s-2.44-1.95-3.74-2.81-2.78-1.67-4.29-2.27c-.69-.27-1.4-.5-2.12-.65s-1.42-.25-2.13-.21c-.34.02-.67.08-1.01.12-.22.03-.33.3-.28.49.06.23.28.31.49.28-.07,0,.02,0,.04,0,.04,0,.07,0,.11,0,.08,0,.16,0,.24,0,.17,0,.33,0,.5.01s.32.02.49.04c.04,0,.08,0,.12.01s.12.02.03,0c.09.01.17.03.26.04.7.12,1.39.32,2.05.56.17.06.34.13.51.2.04.02.08.03.12.05.1.04-.06-.03.03.01s.19.08.29.13c.34.16.68.32,1.02.5.7.37,1.38.78,2.04,1.2s1.31.86,1.94,1.32c.15.11.31.23.46.34.08.06.16.12.23.18.02.01.04.03.05.04,0,0-.1-.07-.04-.03.04.03.08.06.12.1.29.22.57.45.85.68,1.12.92,2.2,1.89,3.21,2.93.59.61,1.15,1.24,1.69,1.89.13.16.26.32.38.48.03.04.06.08.09.12.02.02.03.04.05.06.05.06-.02-.03-.03-.04.07.07.13.17.19.25.25.33.49.67.72,1.01.92,1.34,1.73,2.75,2.43,4.21.17.36.34.73.5,1.1.01.03.06.09.06.13,0,0-.05-.11-.02-.04,0,.02.02.04.03.07.04.1.08.19.12.29.07.18.15.37.22.55.29.75.55,1.52.78,2.3.46,1.55.82,3.13,1.07,4.73.03.2.06.4.09.59,0,.05.01.1.02.14.01.1,0-.06,0,.05s.03.21.04.31c.05.41.09.82.13,1.23.07.82.13,1.64.17,2.46s.02,1.68.03,2.51,0,1.68-.09,2.51c-.04.42-.08.83-.13,1.25-.02.19.3.23.33.04h0Z"/>
    </g>
  </g>
</svg>