<?xml version="1.0" encoding="UTF-8"?>
<svg id="Layer_1" data-name="Layer 1" xmlns="http://www.w3.org/2000/svg" xmlns:xlink="http://www.w3.org/1999/xlink" viewBox="0 0 500 500">
  <defs>
    <style>
      .cls-1 {
        fill: #80acff;
      }

      .cls-2 {
        fill: #f5f6dd;
      }

      .cls-3 {
        fill: #a8c8ff;
      }

      .cls-4 {
        fill: #28318c;
      }

      .cls-5 {
        fill: #e2e92e;
      }

      .cls-6 {
        clip-path: url(#clippath);
      }
    </style>
    <clipPath id="clippath">
      <path class="cls-3" d="M397.34,387.53c-1.86-6.25-5.92-14.93-11.78-19.56-.45-5.53-1.62-10.82-4.15-15.95-3.15-6.34-8.53-13.91-14.93-18.42-.12-4.69.33-9.58.27-13.64-.09-9.82-.75-19.71-.84-29.5-.15-15.29-1.56-30.73-2.55-46.03-.78-12.35-1.41-24.82-3.94-37.01-4.03-19.35-10.52-37.13-22.08-53.21-15.89-22.08-40.38-35.99-66.52-40.8,7.63-6.1,12.5-15.47,12.5-25.99,0-18.39-14.9-33.29-33.32-33.29s-33.29,14.9-33.29,33.29c0,10.52,4.87,19.89,12.5,25.99-26.14,4.81-50.62,18.72-66.52,40.8-11.57,16.07-18.06,33.86-22.08,53.21-2.52,12.2-3.15,24.67-3.94,37.01-.99,15.29-2.4,30.73-2.55,46.03-.09,9.79-.75,19.68-.84,29.5-.06,4.06.39,8.95.27,13.64-6.4,4.51-11.81,12.08-14.93,18.42-2.55,5.11-3.7,10.43-4.15,15.92-5.86,4.66-9.91,13.34-11.78,19.59-1.05,3.43-2.49,8.56-.87,11.99,1.86,3.94,5.02,4.84,9.28,4.72h277.82c4.27.12,7.39-.78,9.28-4.72,1.59-3.43.18-8.56-.87-11.99ZM250,69.78c9.76,0,17.64,7.9,17.64,17.64s-7.87,17.64-17.64,17.64-17.64-7.9-17.64-17.64,7.9-17.64,17.64-17.64Z"/>
    </clipPath>
  </defs>
  <g>
    <g>
      <path class="cls-3" d="M397.34,387.53c-1.86-6.25-5.92-14.93-11.78-19.56-.45-5.53-1.62-10.82-4.15-15.95-3.15-6.34-8.53-13.91-14.93-18.42-.12-4.69.33-9.58.27-13.64-.09-9.82-.75-19.71-.84-29.5-.15-15.29-1.56-30.73-2.55-46.03-.78-12.35-1.41-24.82-3.94-37.01-4.03-19.35-10.52-37.13-22.08-53.21-15.89-22.08-40.38-35.99-66.52-40.8,7.63-6.1,12.5-15.47,12.5-25.99,0-18.39-14.9-33.29-33.32-33.29s-33.29,14.9-33.29,33.29c0,10.52,4.87,19.89,12.5,25.99-26.14,4.81-50.62,18.72-66.52,40.8-11.57,16.07-18.06,33.86-22.08,53.21-2.52,12.2-3.15,24.67-3.94,37.01-.99,15.29-2.4,30.73-2.55,46.03-.09,9.79-.75,19.68-.84,29.5-.06,4.06.39,8.95.27,13.64-6.4,4.51-11.81,12.08-14.93,18.42-2.55,5.11-3.7,10.43-4.15,15.92-5.86,4.66-9.91,13.34-11.78,19.59-1.05,3.43-2.49,8.56-.87,11.99,1.86,3.94,5.02,4.84,9.28,4.72h277.82c4.27.12,7.39-.78,9.28-4.72,1.59-3.43.18-8.56-.87-11.99ZM250,69.78c9.76,0,17.64,7.9,17.64,17.64s-7.87,17.64-17.64,17.64-17.64-7.9-17.64-17.64,7.9-17.64,17.64-17.64Z"/>
      <g class="cls-6">
        <path class="cls-4" d="M124.36,375.81c.4.12.78.25,1.19.3.47.06.72.08,1.24.09.75.02,1.5.03,2.25.03,1.53,0,3.05,0,4.58.01,3.03.03,6.06.09,9.09.17,6.08.16,12.16.34,18.25.46,5.63.11,11.26.12,16.89.07,5.57-.05,11.13-.12,16.7-.06,5.29.06,10.59.23,15.85.73.61.06,1.21.1,1.82.1.74,0,1.37-.57,1.47-1.29s-.34-1.48-1.07-1.64c-1.32-.28-2.66-.38-4.01-.49s-2.58-.19-3.88-.26c-2.69-.15-5.38-.23-8.08-.28-5.56-.1-11.12-.04-16.68.01-5.56.05-11.12.09-16.69,0-6.11-.1-12.21-.32-18.32-.42-3.03-.05-6.06-.09-9.09-.09-3.05,0-6.11-.03-9.16.14-.83.05-1.58.2-2.36.49-.91.33-.98,1.61,0,1.92h0Z"/>
        <path class="cls-4" d="M218.48,377.14c.67.14,1.35.35,2.04.38s1.33.08,1.99.11c1.31.06,2.61.04,3.92.04,2.61,0,5.23,0,7.84,0,5.22,0,10.43,0,15.65.03s10.51.07,15.77.12c5.24.05,10.48.12,15.72.19,5.27.07,10.54.15,15.81.22,5.27.08,10.54.15,15.8.23s10.47.14,15.71.2c5.22.06,10.44.07,15.65.14,5,.07,9.99.32,14.98.45s9.95.15,14.9-.26c1.19-.1,2.38-.22,3.56-.38.45-.06.82-.14,1.16-.48.28-.28.5-.75.48-1.16-.04-.79-.73-1.76-1.64-1.64-4.91.64-9.88.76-14.83.71-5-.05-10-.3-14.99-.44-5.13-.14-10.27-.13-15.41-.18-5.24-.05-10.47-.11-15.71-.18-5.27-.07-10.53-.15-15.8-.22-5.27-.08-10.54-.15-15.81-.23s-10.48-.14-15.72-.2c-5.26-.06-10.52-.11-15.77-.14-5.25-.03-10.49-.05-15.74-.04-2.59,0-5.18.03-7.77.06-2.61.03-5.23-.02-7.84.15-.64.04-1.28.1-1.92.14-.69.05-1.36.26-2.04.42-.96.23-.99,1.76,0,1.98h0Z"/>
        <path class="cls-4" d="M153.73,345.94c.84.14,1.69.28,2.54.37.4.04.79.08,1.19.12-.33-.03.41.04.52.04.22.01.45.02.67.03,1.6.08,3.19.11,4.79.12,3.22.02,6.44-.12,9.66-.25,3.21-.13,6.41-.27,9.62-.31s6.42.04,9.62.06c6.57.05,13.15.1,19.73.06,6.55-.03,13.11-.21,19.66-.3,6.6-.09,13.21-.12,19.81-.13,6.61-.01,13.23-.01,19.84-.05,6.58-.03,13.16-.1,19.74-.25,6.55-.15,13.09-.47,19.64-.56,3.3-.05,6.59-.06,9.89-.08,1.65-.01,3.3-.03,4.96-.05,1.4-.02,2.81-.07,4.22-.04,4.93.11,9.89.99,14.83.57,1.08-.09,2.18-.24,3.22-.55.83-.25,1.43-1.17,1.15-2.03s-1.14-1.41-2.03-1.15c-.46.14-.93.24-1.41.32-.13.02-.26.03-.38.06.02,0,.43-.05.15-.02-.07,0-.13.02-.2.02-.27.03-.54.05-.82.07-1.19.09-2.38.09-3.57.05-2.55-.07-5.09-.31-7.64-.48-2.65-.18-5.27-.15-7.91-.12-3.28.04-6.55.05-9.83.08-3.29.02-6.57.06-9.86.16s-6.52.24-9.78.33c-6.57.19-13.15.28-19.72.34-6.59.05-13.17.06-19.76.07-6.58,0-13.17.02-19.75.09s-13.12.24-19.67.32c-6.55.08-13.11.06-19.66.01-6.45-.04-12.89-.16-19.34.11s-12.8.72-19.2.61c-1.53-.03-3.06,0-4.59-.03-.61,0-1.12.47-1.2,1.06-.07.55.27,1.24.87,1.34h0Z"/>
        <path class="cls-4" d="M323.02,249.66c-.06.08-.12.16-.18.24-.14.2.18-.21.07-.09-.1.12-.2.24-.28.37-.11.19-.22.38-.32.58-.21.43-.46.85-.69,1.28-.5.91-1.07,1.77-1.67,2.61-.37.51-.74,1.01-1.13,1.51l.24-.31c-1.11,1.44-2.27,2.85-3.37,4.29-.93,1.21-1.84,2.44-2.58,3.78-.18.33-.36.67-.51,1.02-.09.19-.17.39-.25.58-.14.33-.09.66-.03,1,.02.14.05.28.09.42.1.43.47.78.89.89.46.13.89-.02,1.24-.33.1-.09.2-.17.3-.25.32-.25.44-.61.59-.97l-.16.38c.85-2.01,2.23-3.78,3.56-5.5l-.24.32c1.05-1.36,2.12-2.71,3.14-4.11.89-1.22,1.74-2.47,2.44-3.81.23-.44.42-.89.59-1.35.06-.17.12-.35.18-.52.09-.28.11-.58.14-.88l-.05.34c.05-.33.04-.61,0-.94-.05-.46-.3-.93-.8-1.04s-.93.09-1.22.5h0Z"/>
        <path class="cls-4" d="M184.51,225.83c.14.18.26.41.43.55.13.1.26.2.39.3.35.28.73.52,1.1.77.62.42,1.25.82,1.89,1.22,1.24.78,2.5,1.53,3.85,2.1.35.15.7.29,1.07.39.26.07.52.13.79.14.04,0,.07,0,.11,0,.13,0,.58-.1.42-.06.24-.06.36-.14.53-.27.08-.06.17-.13.24-.19.13-.12.23-.27.28-.44.09-.16.12-.34.12-.53l-.05-.36c-.06-.23-.18-.43-.35-.6-.02-.03-.04-.05-.06-.08l.23.29c-.17-.23-.31-.42-.57-.58-.14-.08-.3-.14-.45-.18-.08-.02-.15-.04-.23-.06-.17-.03-.34-.08-.51-.13-.38-.11-.75-.25-1.12-.41l.36.15c-.94-.4-1.85-.88-2.75-1.38s-1.86-1.06-2.81-1.55c-.33-.17-.67-.33-1.02-.46-.22-.08-.4-.16-.65-.17-.12,0-.24-.01-.36-.02-.35-.02-.7.21-.88.5-.09.16-.14.33-.14.51,0,.18.05.35.14.51h0Z"/>
        <path class="cls-4" d="M280.05,136.05c-.05.06-.09.13-.14.19l.15-.19s-.04.04-.06.06c-.08.08-.14.18-.21.27-.04.05-.08.11-.12.16l.18-.23c-.1.12-.21.24-.28.39-.03.07-.06.13-.09.2-.1.23-.22.45-.3.68-.1.29-.21.57-.33.85l.13-.32c-.16.38-.34.76-.53,1.13-.09.17-.18.34-.28.5-.09.15-.17.31-.27.46-.05.08-.1.15-.15.23-.03.04-.04.07-.06.11,0,0,0,.02-.01.03-.05.11-.1.23-.15.34l-.05.38c0,.14.02.28.06.41l.14.33c.09.16.2.29.35.39.09.09.19.14.3.18.16.09.34.13.53.12.06,0,.2-.02.21-.03.34-.05.12-.01.2-.03l.34-.14.29-.22c.07-.07.12-.13.18-.21.08-.1.15-.2.22-.31.08-.13.16-.26.24-.39.08-.15.15-.3.22-.46.12-.27.23-.54.33-.81.13-.35.25-.7.36-1.05.05-.18.11-.36.15-.55.02-.09.05-.18.07-.27.03-.15.04-.3.06-.46,0-.05.01-.09.01-.14,0-.1.02-.2.03-.3,0-.02,0-.05,0-.07,0-.08,0-.13-.02-.22-.01-.1-.03-.18-.05-.28-.02-.09-.03-.17-.06-.25s-.05-.17-.08-.25c-.04-.13-.12-.27-.22-.37l-.17-.13c-.1-.06-.2-.09-.31-.1-.07-.02-.15-.02-.22,0-.08,0-.15.02-.21.06-.07.02-.13.06-.19.11-.09.06-.16.14-.22.24h0Z"/>
        <path class="cls-4" d="M233.5,113.72c1.47,1.01,3.33.98,5.05.94,1.88-.05,3.75-.23,5.63-.36s3.74-.09,5.63-.03c2.54.08,5.08.14,7.63.16,2.85.03,5.71.04,8.56-.08.72-.03,1.42-.62,1.39-1.39s-.61-1.39-1.39-1.39c-5.03.03-10.06.04-15.1-.11-1.99-.06-3.96-.18-5.95-.02-1.83.14-3.66.36-5.49.48-.98.06-1.97.1-2.95.07-.45-.02-.9-.04-1.36-.04-.39,0-.79.03-1.18.03-.98-.01-1.2,1.24-.47,1.75h0Z"/>
        <path class="cls-2" d="M194.91,139.62s-.04.05-.05.07l.14-.04c-.23-.09-.44-.09-.67-.03l.65.09c-.36-.18-.76-.23-1.12,0l.53-.14c-.3-.02-.58.08-.84.21-.11.06-.23.11-.34.17l.32-.14c-.12.04-.26.1-.37.16l.33-.14c-.33.12-.64.28-.96.42l.37-.16c-.27.11-.4.17-.6.32-.09.06-.18.13-.26.19-.19.13-.38.27-.58.4-.41.28-.81.57-1.22.85-.92.63-1.84,1.24-2.74,1.88-1.04.74-2.07,1.5-3.05,2.33-.85.71-1.63,1.5-2.31,2.38-.43.55-.79,1.14-1.09,1.76-.16.35-.33.7-.44,1.06-.11.34-.14.73-.17,1.07l.04.31c.04.15.1.28.21.39.15.19.36.36.6.41.51.12,1.02-.08,1.3-.53.15-.24.33-.46.48-.7s.32-.49.5-.72l-.22.29c.24-.3.49-.59.75-.87.28-.29.55-.59.84-.88.6-.6,1.25-1.17,1.9-1.72.38-.32.76-.63,1.15-.93l-.33.25c1.42-1.1,2.91-2.1,4.39-3.12.47-.33.94-.65,1.39-1.01l-.33.25c.36-.28.72-.55,1.07-.84.06-.05.12-.1.17-.14.15-.13.25-.3.37-.45.08-.11.16-.22.24-.33l-.22.29c.21-.25.29-.37.39-.67l-.14.34c.07-.14.16-.28.24-.42s.17-.3.21-.46c.07-.26.03-.47,0-.73l-.11.82v-.02c.17-.32.23-.75,0-1.06l-.04-.06.12.43c.03-.31-.09-.55-.34-.75l.04.1s0-.08,0-.12c0-.1-.13-.13-.18-.05h0Z"/>
        <path class="cls-2" d="M134.14,349.42c-.06.03-.13.05-.19.08h.95l-.09-.06c-.39-.25-.91-.22-1.3,0-.2.11-.4.22-.59.34-.09.06-.18.12-.27.18-.04.03-.09.05-.14.08-.03.01-.05.02-.07.04-.07.04-.26.2-.32.25-.02.01-.03.03-.05.04-.34.28-.67.57-.96.89-.38.41-.73.85-1.06,1.3-.25.34-.49.69-.7,1.06-.19.33-.33.67-.47,1.02-.04.11-.09.22-.12.34,0,.03-.02.06-.02.09,0,.01,0,.02,0,.04,0,.01,0,.02,0,.04l-.06.41c0,.15.04.31.06.46,0,.03,0,.06.02.09v-.78c-.03.19-.05.37-.07.56,0,.04,0,.07,0,.11,0,.1,0,.17.02.28.02.14.03.22.08.34.06.15.11.29.2.42l.17.22c.1.11.22.18.35.23.09.05.18.07.28.07.15.03.29.03.44-.02.02,0,.04-.02.06-.02.11-.04.24-.08.33-.15.13-.09.3-.2.4-.3.16-.18.31-.4.44-.61l-.52.52c.29-.19.44-.34.64-.62.04-.05.07-.11.1-.16.06-.11.11-.21.17-.32.12-.21.24-.43.36-.64.24-.42.51-.82.8-1.2l-.25.33c.15-.19.3-.38.46-.56s.34-.36.5-.55.32-.38.49-.57.33-.37.46-.59c.06-.11.15-.21.23-.31l-.23.29c.22-.29.44-.58.65-.88.12-.2.18-.42.18-.65,0-.23-.06-.45-.18-.65l-.03-.06v.95c.03-.06.07-.11.1-.17.1-.17.13-.37.1-.56-.02-.18-.1-.37-.24-.5-.11-.1-.24-.18-.39-.23-.12-.04-.23-.04-.35-.02-.12,0-.23.04-.33.1h0Z"/>
        <path class="cls-2" d="M115.21,384.32c-.14.07-.27.15-.4.24l.64-.17h0c.11.02.23.03.34.05-.01,0-.03,0-.04-.01,0,0,0,0,0,0l-.37-.05-.37.05-.17.07c-.12.03-.22.09-.31.18-.06.05-.11.08-.16.13-.05.04-.09.09-.14.13-.09.09-.19.18-.28.27s-.18.18-.26.28c-.16.2-.31.4-.46.6s-.29.41-.42.62c-.06.1-.11.21-.16.32-.1.22-.19.44-.28.66-.04.11-.09.22-.11.34-.03.18-.05.37-.08.55,0,0,0,.01,0,.02h0c.02.14.04.27.05.41,0,.01,0,.02.01.03,0,.02.02.04.02.07.07.24.19.45.37.63.18.18.39.3.63.37.25.07.5.07.76,0,.24-.07.45-.19.63-.37.12-.11.23-.19.31-.37.02-.04.04-.08.06-.12.1-.2.17-.42.26-.62l-.15.37c.07-.16.15-.33.23-.48.05-.08.09-.17.13-.25s.09-.18.13-.26c.09-.18.2-.36.3-.53.05-.09.11-.17.17-.26s.11-.18.16-.27c.06-.1.13-.2.19-.29.03-.05.06-.09.1-.14.08-.11.1-.15.16-.35.06-.22.07-.53,0-.74,0-.02-.01-.03-.02-.05l.05.34h0c-.06.2-.12.42-.17.63.07-.14.15-.27.23-.41l.12-.27c.05-.15.05-.31.02-.46,0-.1-.03-.2-.08-.29-.05-.14-.13-.27-.24-.37l-.23-.18-.27-.12c-.15-.05-.31-.05-.46-.02-.15,0-.3.05-.43.14h0Z"/>
      </g>
    </g>
    <path class="cls-5" d="M283.32,412.58c0,18.39-14.9,33.29-33.32,33.29s-33.29-14.9-33.29-33.29c0-2.88.36-5.68,1.05-8.35h64.5c.69,2.67,1.05,5.47,1.05,8.35Z"/>
  </g>
  <g>
    <path class="cls-1" d="M115.47,190.91c.08-.35.16-.69.25-1.04l-.27.63c.28-.55.4-.99.43-1.61l-.1.72c.14-.71.32-1.39.4-2.11l-.1.78c.14-.82.28-1.63.39-2.45l-.11.81c.79-5.7,3.01-11.06,5.12-16.37.58-1.45,1.15-2.91,1.76-4.35l-.31.74c2.73-6.47,5.99-12.75,9.91-18.59,1.09-1.62,2.23-3.2,3.42-4.75l-.49.63c3.19-4.12,6.57-8.09,10.14-11.88s7.25-7.32,11.14-10.7c2.2-1.91,4.45-3.75,6.75-5.53l-.63.49c3.72-2.87,7.57-5.57,11.53-8.08,2.04-1.29,4.12-2.51,6.2-3.73,2.31-1.35,4.6-2.73,6.92-4.06,2.48-1.43,4.98-2.87,7.62-3.99l-.75.31c1.76-.74,3.51-1.47,5.26-2.24.62-.27,1.24-1.16,1.38-1.8.15-.67.12-1.32-.15-1.96-.54-1.27-2.14-2.27-3.54-1.74-2.21.83-4.45,1.57-6.59,2.57s-4.15,2.17-6.18,3.33-4.18,2.45-6.27,3.68c-1.87,1.1-3.75,2.18-5.59,3.32-7.31,4.52-14.24,9.67-20.71,15.32-6.32,5.52-12.17,11.56-17.52,18.02-2.9,3.5-5.69,7.11-8.16,10.93-2.47,3.81-4.66,7.8-6.62,11.9-2.01,4.19-3.72,8.5-5.41,12.82-1.66,4.24-3.23,8.58-3.94,13.1-.23,1.47-.49,3.02-.18,4.5l-.1-.77c.07.61.15,1.22.24,1.83l-.1-.72c0,.62.16,1.05.42,1.61l-.27-.63c.08.35.17.69.27,1.04.27.96,1.24,1.78,2.28,1.73s2.05-.69,2.28-1.73h0Z"/>
    <path class="cls-1" d="M97.82,161.13c.23-.18.46-.37.69-.55l-1.94.8h.04c.51,0,.99-.14,1.44-.39.43-.25.77-.59,1.02-1.02.24-.56.58-1.09.88-1.62.15-.26.29-.52.44-.78.29-.5.52-.97.75-1.52l-.33.79c1.02-2.34,2.1-4.65,3.25-6.93s2.3-4.59,3.52-6.85c2.45-4.52,5.13-8.92,8.04-13.16,1.65-2.41,3.37-4.77,5.15-7.09l-.55.71c3.08-3.99,6.35-7.85,9.79-11.53,3.45-3.7,7.09-7.23,10.89-10.56,2.14-1.87,4.33-3.69,6.58-5.43l-.66.51c3.27-2.52,6.64-4.91,10.12-7.15,3.74-2.41,7.59-4.7,11.58-6.69,2.45-1.23,4.96-2.33,7.36-3.64,1.2-.65,1.63-2.2,1.12-3.41s-1.9-1.94-3.22-1.58c-2.65.72-5.24,1.81-7.74,2.94-2.29,1.04-4.56,2.14-6.74,3.4-3.73,2.14-7.36,4.44-10.88,6.91-2.19,1.53-4.33,3.13-6.44,4.77l.66-.51c-4.44,3.41-8.71,7.02-12.76,10.89-3.83,3.65-7.49,7.5-10.89,11.56-3.58,4.27-6.94,8.72-10.06,13.34-2.94,4.36-5.65,8.88-8.11,13.53-1.22,2.31-2.36,4.65-3.41,7.04-.63,1.43-1.23,2.87-1.82,4.32-.25.61-.49,1.23-.73,1.85s-.35,1.23-.5,1.85-.26,1.26-.46,1.86c-.33.97.07,2.05.73,2.77l.03.04-.7-1.21c.05.26.09.51.14.77.14.75.86,1.37,1.57,1.57.84.23,1.54-.06,2.18-.58h0Z"/>
    <path class="cls-1" d="M389.08,190.91c.1-.34.19-.69.27-1.04l-.27.63c.26-.55.41-.98.42-1.61l-.1.72c.09-.61.17-1.22.24-1.83l-.1.77c.32-1.53.04-3.13-.21-4.64-.18-1.12-.42-2.24-.7-3.34-.56-2.23-1.28-4.41-2.07-6.57-1.59-4.36-3.31-8.69-5.21-12.92s-3.93-8.19-6.27-12.09-5.08-7.7-7.96-11.32c-5.23-6.57-10.98-12.73-17.19-18.39s-13.19-11.05-20.4-15.71c-3.73-2.41-7.59-4.62-11.42-6.87-4.1-2.42-8.23-4.93-12.72-6.55-1.02-.37-2.04-.73-3.06-1.11-.66-.25-1.73-.07-2.32.3s-.97.82-1.23,1.44-.36,1.32-.15,1.96c.23.7.68,1.49,1.38,1.8,1.74.77,3.5,1.5,5.26,2.24l-.75-.31c2.32.98,4.52,2.22,6.7,3.46,2.35,1.33,4.67,2.72,7,4.09,4.13,2.43,8.22,4.89,12.16,7.62,2.18,1.51,4.32,3.08,6.42,4.7l-.63-.49c4.09,3.16,8.01,6.52,11.76,10.08,3.74,3.55,7.31,7.29,10.68,11.2,1.92,2.23,3.78,4.5,5.58,6.83l-.49-.63c4.29,5.55,7.87,11.62,10.9,17.94.85,1.78,1.66,3.58,2.43,5.39l-.31-.74c1.09,2.58,2.1,5.19,3.12,7.8,1.05,2.69,2.04,5.41,2.79,8.21.41,1.55.75,3.13.97,4.72l-.11-.81c.11.82.26,1.63.39,2.45l-.1-.78c.08.72.26,1.4.4,2.11l-.1-.72c.03.62.15,1.05.43,1.61l-.27-.63c.09.34.17.69.25,1.04.21.97,1.29,1.78,2.28,1.73,1.05-.05,1.98-.7,2.28-1.73h0Z"/>
    <path class="cls-1" d="M405.93,160.14c.05-.26.09-.51.14-.77l-.7,1.21.03-.04c.66-.72,1.07-1.8.73-2.77-.42-1.22-.52-2.56-.99-3.76s-.96-2.42-1.47-3.63c-1.12-2.66-2.28-5.29-3.6-7.86-2.39-4.66-5.03-9.19-7.9-13.57-3.05-4.66-6.37-9.14-9.89-13.46-3.36-4.12-6.97-8.03-10.77-11.75s-7.82-7.26-12.01-10.57c-.71-.56-1.42-1.11-2.13-1.65l.66.51c-3.58-2.78-7.26-5.42-11.07-7.88s-7.86-4.82-12.05-6.77c-2.8-1.3-5.69-2.56-8.68-3.37-1.32-.36-2.7.34-3.22,1.58-.51,1.21-.08,2.76,1.12,3.41,2.14,1.17,4.38,2.17,6.57,3.25,2.19,1.07,4.32,2.25,6.44,3.47,3.58,2.07,7.07,4.29,10.46,6.66,1.89,1.32,3.76,2.69,5.59,4.11l-.66-.51c4.01,3.1,7.84,6.43,11.49,9.93,3.65,3.5,7.12,7.18,10.41,11.02,1.84,2.15,3.63,4.33,5.36,6.57l-.55-.71c3.16,4.1,6.12,8.36,8.85,12.77,1.35,2.18,2.64,4.38,3.87,6.63s2.38,4.55,3.55,6.84c1.31,2.56,2.53,5.16,3.68,7.8l-.33-.79c.23.55.46,1.01.75,1.52.15.26.29.52.44.78.3.53.64,1.06.88,1.62.25.43.59.77,1.02,1.02.44.26.92.39,1.44.39h.04c-.65-.26-1.29-.53-1.94-.8.23.18.46.37.69.55.64.52,1.34.81,2.18.58.7-.19,1.43-.82,1.57-1.57h0Z"/>
  </g>
</svg>