<?xml version="1.0" encoding="UTF-8"?>
<svg id="Layer_1" data-name="Layer 1" xmlns="http://www.w3.org/2000/svg" xmlns:xlink="http://www.w3.org/1999/xlink" viewBox="0 0 500 500">
  <defs>
    <style>
      .cls-1 {
        fill: #f5f6dd;
      }

      .cls-2 {
        fill: #e2f6eb;
      }

      .cls-3 {
        fill: #5fd991;
      }

      .cls-4 {
        fill: #ff7868;
      }

      .cls-5 {
        fill: #28318c;
      }

      .cls-6 {
        fill: #e7ec9e;
      }

      .cls-7 {
        clip-path: url(#clippath);
      }
    </style>
    <clipPath id="clippath">
      <circle class="cls-4" cx="297.82" cy="132.09" r="34.16" transform="translate(84.19 378.07) rotate(-72.94)"/>
    </clipPath>
  </defs>
  <g>
    <path class="cls-6" d="M453.74,401.23c-10.3.11-20.62.37-30.92.39-12.86,0-25.73-.02-38.56,0-17.49,0-143.85-.11-147.58,0-13.48,0-26.96.46-40.46.46s-25.73-.02-38.54,0c-11.65,0-71.57-.05-111.42-.05,1.99-3.68,3.98-7.39,5.97-11.1,6.39-11.88,12.38-23.99,18.77-35.84,1.1-2.2,27.17-50.58,47.38-88.09,33,.02,66.53.02,74.93.02h38.54c13.5,0,27.01-.46,40.46-.46,2.63-.07,66.08-.02,109.49-.02,20.26,37.58,46.53,86.35,47.63,88.55,6.36,11.86,12.36,23.96,18.77,35.84,1.85,3.43,3.68,6.87,5.54,10.3Z"/>
    <path class="cls-1" d="M170.5,392.91h-12.85s-73.03-.03-96.09-.04c2.75-5.17,5.46-10.41,8.08-15.49,3.06-5.92,6.22-12.04,9.4-17.95l.13-.25c1.2-2.37,26.27-48.9,44.65-83.03,31.16.02,61.53.02,69.47.02h38.54c6.83,0,13.74-.12,20.42-.23,6.59-.11,13.4-.23,20.04-.23h.24c1.01-.03,11.05-.04,29.82-.04l73.96.02c37.74,70.02,44.37,82.42,44.91,83.5l.12.22c3.03,5.65,6.05,11.5,8.96,17.15,2.67,5.17,5.41,10.48,8.21,15.74-5.25.08-10.5.15-15.75.17h-25.7s-12.86,0-12.86,0h-27.17c-24.13-.03-58.5-.05-84.35-.05-31.8,0-35.37.03-36.16.05-6.78,0-13.62.12-20.25.23-6.6.11-13.42.23-20.09.23h-25.71Z"/>
    <path class="cls-3" d="M108.18,390.03c2.75-5.28,5.48-10.56,8.26-15.82,5.53-10.46,10.99-20.95,16.55-31.39,2.06-3.86,4.12-7.72,6.19-11.57-3.7-.22-7.41-.38-11.1-.68-8.12-.66-16.22-1.63-24.34-2.24-2.59-.2-5.18-.33-7.77-.42-9.16,17.01-16.16,30.05-16.78,31.28l-.13.25c-3.19,5.92-6.35,12.04-9.4,17.95-2.63,5.08-5.33,10.32-8.08,15.49,9.45,0,27.28,0,45.05.02.53-.95,1.06-1.9,1.56-2.86Z"/>
    <path class="cls-3" d="M211.77,387.71c-1.93-3.82-3.85-7.64-5.77-11.45-1.6-3.18-3.29-6.33-4.82-9.54-1.21-2.55-2.28-5.17-3.37-7.78-.56-1.34-1.11-2.68-1.67-4.02-.13-.31-.76-1.8-.22-.52-.13-.3-.26-.6-.38-.9-.28-.67-.57-1.33-.86-1.99-.7-1.6-1.44-3.18-2.2-4.75-.43-.3-.82-.68-1.03-1.08-.6-1.14-1.06-2.36-1.45-3.59-.45-.78-.88-1.56-1.37-2.31-.37-.57-.76-1.13-1.16-1.68-.05-.06-.1-.13-.14-.19-.17-.21-.33-.41-.5-.61-.7-.83-1.47-1.57-2.29-2.28-.03-.02-.06-.04-.09-.06-.21-.14-.43-.25-.65-.37,0,0-.01,0-.02,0-.31-.11-.62-.19-.93-.27-.26-.07-.53-.12-.8-.17-.04,0-.2-.03-.53-.09-.66-.07-1.32-.12-1.99-.15-1.5-.07-3.01-.05-4.51-.03-1.38.02-2.76.06-4.14.03-1.64-.04-3.28-.22-4.92-.36-4.24-.36-8.47-.76-12.7-1.15-1.81-.17-3.63-.32-5.45-.47-3.24,6.07-6.47,12.14-9.7,18.21-5.55,10.44-11.08,20.89-16.65,31.32-1.38,2.58-2.79,5.15-4.18,7.72-.68,1.25-1.35,2.52-2.03,3.77,22.38.01,42.4.02,42.4.02h12.85s25.71,0,25.71,0c6.01,0,12.13-.1,18.11-.2-.85-1.67-1.71-3.34-2.55-5.02Z"/>
    <path class="cls-3" d="M134.01,323.39c3.02.16,6.04.38,9.05.58,2.19-4.11,4.38-8.21,6.54-12.33,5.33-10.18,10.33-20.54,15.22-30.94.71-1.5,1.4-3.02,2.1-4.53-12.42,0-27.65,0-43.08-.02-7.58,14.06-16.29,30.23-23.99,44.55,3.26.15,6.51.39,9.74.65,8.14.65,16.26,1.61,24.42,2.04Z"/>
    <path class="cls-3" d="M193.31,276.17c-3.03,0-9.33,0-17.7,0-1.85,4.01-3.7,8.03-5.58,12.02-4.88,10.35-9.93,20.63-15.31,30.73-1.01,1.9-2.02,3.79-3.03,5.69,2.74.22,5.48.44,8.22.69,3.69.34,7.42.84,11.13.91,2.96.06,5.92-.14,8.88.02,1.85.1,3.81.29,5.62.85.02-.01.03-.03.05-.04.35-.32.69-.58,1.07-.88,0,0-.74.59-.32.25,1.12-.91,2.18-1.88,3.22-2.89,2.35-2.26,4.5-4.72,6.61-7.2,3.64-4.26,7-8.75,10.66-12.98,5.14-5.94,10.32-11.85,15.49-17.77,2.74-3.14,5.5-6.27,8.24-9.4h-37.26Z"/>
    <path class="cls-3" d="M226.35,293.1c.04.54.08,1.08.13,1.61.01.07.02.14.03.21.04.25.08.5.13.75.2,1.03.45,2.05.76,3.05.16.52.33,1.04.52,1.55.1.27.2.55.31.82.02.04.03.09.05.13.78,1.75,1.67,3.44,2.68,5.06.51.82,1.04,1.63,1.61,2.41.15.21.31.42.46.63.03.04.04.05.06.08.26.33.52.66.79.98,1.27,1.52,2.64,2.94,4.08,4.29.7.66,1.42,1.3,2.16,1.92.39.33.78.65,1.18.96.14.11.28.21.42.32,1.51,1.12,3.08,2.15,4.72,3.08.82.47,1.65.9,2.5,1.29.41.19.84.4,1.27.57.03.01.06.02.09.04.25.1.5.2.75.3,3.63,1.39,7.41,2.34,11.25,2.91,4.68.58,9.41.58,14.08,0,2.84-.42,5.64-1.03,8.38-1.89,1.25-.39,2.61-.79,3.81-1.37.05-.02.11-.05.16-.07.14-.06.28-.12.42-.18.31-.14.62-.28.93-.43.53-.25,1.06-.51,1.58-.79,1.75-.92,3.44-1.96,5.05-3.11.39-.27.76-.56,1.14-.84,0,0,.02-.02.03-.02.21-.17.42-.34.63-.51.79-.65,1.56-1.33,2.31-2.02,1.55-1.44,3.01-2.97,4.39-4.58.34-.4.68-.81,1.01-1.22.16-.2.32-.4.47-.59.64-.84,1.25-1.7,1.85-2.57,1.2-1.77,2.31-3.59,3.31-5.48.5-.94.98-1.9,1.43-2.87.23-.5.45-1,.68-1.5.1-.24.2-.48.29-.73,1.5-3.78,2.57-7.73,3.16-11.75.32-2.61.4-5.25.25-7.87h-15.29c-18.77,0-28.81,0-29.82.03h-.24c-6.64,0-13.46.12-20.04.23-3.69.06-7.46.12-11.24.17-4.92,5.57-9.82,11.16-14.72,16.76,0,.08.03.15.04.23Z"/>
    <path class="cls-3" d="M316.23,379.76c-3.11-5.71-6.08-11.49-9.07-17.26-3.02-5.84-6.03-11.68-8.97-17.56-2.4-4.81-4.78-9.62-6.91-14.55-5.01,2.03-10.28,3.29-15.68,3.89-13.33,1.47-27.58-1.61-38.33-9.83-5.43-4.15-10.17-9.23-13.45-15.26-1.6-2.95-2.83-6.23-3.45-9.53,0,0,0-.01,0-.02-3.15,3.57-6.29,7.15-9.36,10.79-3.74,4.43-7.31,9.01-11.21,13.3-.8.88-1.64,1.75-2.49,2.61-.68,1.72-1.21,3.52-1.51,5.35-.2,1.69-.21,3.4-.01,5.09,0,.05.02.1.03.14,2.9,4.66,5.09,9.77,7.21,14.81.58,1.38,1.16,2.77,1.73,4.16.28.68.56,1.36.84,2.03.11.26.21.51.32.77.05.12.09.22.12.29,1.03,2.41,2.15,4.75,3.34,7.08,3.84,7.55,7.59,15.13,11.41,22.69.65,1.29,1.33,2.58,1.99,3.87,4.57-.07,9.17-.13,13.77-.13.79-.02,4.36-.05,36.16-.05,15.2,0,33.33,0,50.6.02-2.38-4.21-4.76-8.42-7.08-12.67Z"/>
    <path class="cls-3" d="M315.37,359.47c1.59-.85,3.16-1.76,4.7-2.69,3.26-1.98,6.47-4.01,9.65-6.11,5.65-3.73,11.23-7.53,17.04-11.01,6.93-4.16,13.81-8.4,20.69-12.65,6.88-4.24,13.73-8.53,20.69-12.64,2.28-1.35,4.65-2.54,7.01-3.76-5.2-9.66-11.4-21.16-18.82-34.92h-50.69c.25,4.67-.17,9.4-1.2,13.92-2.46,10.87-8.23,21.14-16.01,29.1-3.19,3.27-6.85,6.19-10.81,8.52,3.01,5.34,5.75,10.83,8.57,16.27,2.83,5.45,5.63,10.92,8.46,16.38.24-.13.46-.28.7-.41Z"/>
    <path class="cls-3" d="M383.05,386.38c-1.25-1.97-2.39-4.01-3.47-6.07-1.93-3.67-3.65-7.46-5.64-11.1-2.34-4.29-4.74-8.55-7.22-12.76-1.1-1.86-2.17-3.75-3.32-5.58-.94-1.5-1.97-2.95-2.96-4.42-.9-1.35-1.8-2.77-2.55-4.26-3.11,1.92-6.21,3.84-9.33,5.74-5.78,3.54-11.35,7.4-17.04,11.08-2.86,1.85-5.75,3.67-8.74,5.32-1.49.82-3,1.62-4.57,2.29,2.01,3.82,4.04,7.63,6.13,11.41,2.65,4.81,5.35,9.6,8.02,14.4,8.84,0,17.26.01,24.7.02h19.82c2.46-1.43,4.94-2.83,7.44-4.2-.43-.62-.87-1.23-1.28-1.87Z"/>
    <path class="cls-3" d="M421.37,359.41l-.12-.22c-.41-.81-4.29-8.08-22.35-41.61-3.09,1.63-6.18,3.26-9.17,5.07-8.66,5.25-17.28,10.56-25.9,15.88.14.23.27.46.41.69,1.12,1.75,2.37,3.42,3.6,5.11,2.38,3.28,4.46,6.74,6.52,10.22,2.41,4.07,4.86,8.16,7.02,12.38,1.84,3.6,3.56,7.27,5.48,10.84.98,1.81,2.01,3.6,3.13,5.33.34.52.7,1.02,1.06,1.53,5.38-2.87,10.8-5.67,16.19-8.52,5.67-3,11.35-5.99,16.94-9.14.3-.17.59-.35.89-.53-1.23-2.35-2.46-4.7-3.7-7.01Z"/>
    <path class="cls-3" d="M428.66,373.32c-.81.46-1.6.94-2.41,1.4-10.95,6.08-22.09,11.81-33.2,17.59-.09.05-.19.1-.28.15h4.34s25.7,0,25.7,0c5.25-.01,10.5-.08,15.75-.17-2.8-5.26-5.55-10.57-8.21-15.74-.55-1.07-1.12-2.16-1.68-3.24Z"/>
  </g>
  <g>
    <path class="cls-2" d="M284.34,158.92l-54.81,178.65c-.81,2.65.67,5.45,3.32,6.26s5.47-.67,6.28-3.32l54.81-178.65c-1.6-.4-3.23-.85-4.85-1.35s-3.2-1.03-4.75-1.6Z"/>
    <g>
      <circle class="cls-4" cx="297.82" cy="132.09" r="34.16" transform="translate(84.19 378.07) rotate(-72.94)"/>
      <g class="cls-7">
        <path class="cls-5" d="M293.18,158.43c-.08-.1-.16-.18-.28-.24s-.24-.12-.37-.16c-.16-.05-.33-.09-.5-.13-.33-.08-.66-.14-.99-.2-.64-.11-1.28-.2-1.91-.36-.36-.09-.71-.21-1.05-.35l.21.09c-.19-.08-.37-.17-.54-.26-.09-.05-.18-.1-.26-.16-.05-.03-.09-.06-.14-.09-.18-.09-.37-.13-.56-.12-.31.01-.59.16-.75.43-.08.14-.12.28-.12.44,0,.16.04.3.12.44.14.33.45.48.76.62.24.11.48.21.72.29.35.12.7.21,1.07.27.78.14,1.58.18,2.37.24.43.03.86.07,1.28.12l-.18-.02c.16.02.32.06.48.06.1,0,.2,0,.29-.02.05-.02.1-.04.15-.05.17-.06.3-.17.35-.35s-.01-.34-.13-.48h0Z"/>
        <path class="cls-5" d="M280.19,118.9s-.1.05-.14.08-.1.05-.15.08-.09.07-.13.1c-.02.02-.04.03-.06.05-.1.07-.2.14-.28.23-.16.17-.33.33-.5.49-.34.33-.7.65-1.06.96-.2.17-.41.34-.62.5l.25-.2c-.08.06-.16.12-.24.18-.04.03-.08.06-.12.09,0,0-.02.01-.03.02,0,0-.01,0-.02.01l-.26.2s-.04.04-.05.06c-.12.11-.21.25-.26.41-.08.15-.12.31-.11.49l.05.34c.04.16.11.31.23.43.06.09.13.17.23.23.12.11.27.19.43.23l.34.05c.23,0,.44-.06.64-.17.01,0,.03-.02.04-.02,0,0,.02,0,.02-.01.04-.02.23-.17.26-.2.03-.02.05-.05.08-.07.05-.05.1-.09.15-.14.1-.09.2-.19.3-.28.2-.19.39-.39.59-.58.39-.4.76-.81,1.12-1.23.05-.06.1-.11.14-.17.08-.1.17-.2.23-.31.02-.03.04-.06.06-.09.12-.2.19-.42.26-.64l.03-.25-.03-.25-.09-.23c-.06-.11-.14-.2-.24-.26-.06-.06-.13-.1-.21-.12-.07-.04-.15-.06-.24-.06-.08-.02-.17-.02-.25,0-.13,0-.24.04-.35.11h0Z"/>
        <path class="cls-5" d="M293.43,131.66c-.13-.19-.24-.4-.33-.61l.06.14s-.03-.08-.04-.13-.02-.09-.03-.13c-.02-.09-.04-.17-.05-.26l.03.19c0-.07-.01-.14-.01-.21,0-.04,0-.07,0-.11,0,0,0-.02,0-.03,0,0,0,0,0-.01,0-.04,0-.08-.02-.12,0-.04,0-.08-.02-.12,0-.02,0-.04,0-.06l.03.23s0-.04,0-.06c0-.05-.01-.09-.02-.14,0-.08-.02-.15-.06-.22-.01-.04-.03-.07-.05-.11-.02-.03-.04-.06-.07-.09-.06-.09-.14-.17-.24-.22-.02-.02-.04-.03-.07-.05l.16.12s0,0,0,0c-.1-.1-.21-.16-.34-.2-.1-.03-.21-.04-.31-.01-.1,0-.2.04-.29.09-.12.07-.21.16-.28.28-.01.02-.02.04-.03.06,0,0,0,0,0,.01,0,0,0,0,0,0h0c-.03.07-.06.14-.09.21,0,.01-.03.22-.03.23,0,0,.03.23.03.23,0,0,0,.02.01.03.04.09.08.19.12.28.01.03.03.05.05.08.11.15.23.29.34.43.08.1.16.19.25.27.02.02.04.04.07.06s.04.05.06.07c.04.05.09.09.13.14.13.13.28.24.42.35l.11.05c.06.02.13.02.19,0,.04,0,.08-.01.12-.03.06-.02.11-.05.15-.1l.07-.1.05-.11c.02-.06.02-.13,0-.19,0-.06-.02-.12-.06-.18h0Z"/>
        <path class="cls-1" d="M323.41,119.04v-.02c-.03.19-.05.39-.08.58,0-.06.02-.11.03-.17,0-.01,0-.03,0-.04l.09-.63-.09-.63s-.02-.1-.03-.15c-.03-.16-.06-.31-.08-.47s-.05-.32-.08-.48c-.07-.4-.27-.76-.45-1.12-.3-.6-.6-1.2-.94-1.78-.45-.78-.97-1.5-1.53-2.2-.2-.25-.44-.47-.68-.68-.29-.26-.61-.49-.92-.73-.13-.1-.26-.2-.41-.26-.52-.24-1.07-.48-1.63-.62-.73-.19-1.67-.22-2.32.2-.08.05-.42.32-.48.38-.29.29-.49.63-.6,1.03l-.08.62c-.02.44.06.58.2.92.1.29.26.55.49.76.01.01.02.02.03.03.03.03.06.06.09.09.18.18.39.32.59.47l-.5-.39c.26.21.52.39.78.59l-.52-.4c.17.13.33.27.49.42.08.08.15.15.23.23s.16.14.24.22c.32.29.61.62.88.96l-.44-.57c.26.34.53.67.79,1.01l-.44-.57c.45.58.83,1.2,1.19,1.84.18.33.36.66.54.99.09.16.17.32.26.48.07.13.39.54.58.74.06.07.13.13.19.19.14.14.28.27.42.41.21.2.43.42.68.55.2.11.43.18.64.27.04.01.07.03.11.04l-.52-.22h.02c.68.39,1.51.41,2.2.01.33-.19.59-.45.78-.78.2-.34.3-.71.3-1.1h0Z"/>
      </g>
    </g>
  </g>
</svg>