<?xml version="1.0" encoding="UTF-8"?>
<svg id="Layer_1" data-name="Layer 1" xmlns="http://www.w3.org/2000/svg" xmlns:xlink="http://www.w3.org/1999/xlink" viewBox="0 0 374.15 335.86">
  <defs>
    <style>
      .cls-1 {
        fill: #f5f6dd;
      }

      .cls-2 {
        fill: #326bf5;
      }

      .cls-3 {
        fill: #ffa75d;
      }

      .cls-4 {
        fill: #00003f;
      }

      .cls-5 {
        clip-path: url(#clippath-1);
      }

      .cls-6 {
        fill: #ff7868;
      }

      .cls-7 {
        fill: #63d991;
      }

      .cls-8 {
        fill: #00aec7;
      }

      .cls-9 {
        fill: #28318c;
      }

      .cls-10 {
        clip-path: url(#clippath);
      }
    </style>
    <clipPath id="clippath">
      <path class="cls-9" d="M195.33,180.76h-2.56c-5.92.01-11.87,0-17.8,0,.01,6.06.01,18.88,0,31.98h-1.46c-4.37,0-8.75.1-13.13.16-2.79.04-5.02,2.31-5.02,5.1v.04c0,.76.62,1.37,1.37,1.36,5.59-.05,11.19-.21,16.78-.21h1.46c5.4-.01,10.81,0,16.2,0,.25-2.85,1.46-4.89,3.63-6.46h.53c.01-13.1.01-25.92,0-31.98Z"/>
    </clipPath>
    <clipPath id="clippath-1">
      <path class="cls-9" d="M106.24,196.64c-3.44,0-6.58,0-9.23,0v-4.11c0-3.22,0-13.83,0-26.03.01-26.38.02-46.64,0-47.77,0-3.31-.06-6.75-.11-10.08-.05-3.14-.11-6.38-.11-9.56,2.63,0,5.76,0,9.19,0,9.55,0,56.11.02,56.11.02h6.41s12.85,0,12.85,0c3.4,0,6.84-.06,10.16-.11,3.3-.06,6.71-.11,10.05-.11.45-.01,3.35-.02,15.17-.02,9.85,0,22.92,0,34.3.01,8.79,0,26.11,0,26.11,0,0,3.31.06,6.65.11,9.89.06,3.3.11,6.71.11,10.05.03,1.24.02,28.08,0,47.68,0,12.21-.01,22.82,0,26.04v3.89s-51.85-.02-61.26-.02c-12.29,0-14.28.01-14.64.02h-.09c-3.28,0-6.69.06-9.99.11-3.3.06-6.71.11-10.05.11h-23.19s-42.33-.02-51.91-.02Z"/>
    </clipPath>
  </defs>
  <g>
    <g>
      <path class="cls-9" d="M195.33,180.76h-2.56c-5.92.01-11.87,0-17.8,0,.01,6.06.01,18.88,0,31.98h-1.46c-4.37,0-8.75.1-13.13.16-2.79.04-5.02,2.31-5.02,5.1v.04c0,.76.62,1.37,1.37,1.36,5.59-.05,11.19-.21,16.78-.21h1.46c5.4-.01,10.81,0,16.2,0,.25-2.85,1.46-4.89,3.63-6.46h.53c.01-13.1.01-25.92,0-31.98Z"/>
      <g class="cls-10">
        <path class="cls-4" d="M197.54,211.99c-.26-.11-.51-.22-.8-.26-.31-.05-.62-.07-.94-.09-.59-.04-1.19-.04-1.78-.05-1.2-.02-2.4,0-3.59,0-2.39,0-4.79,0-7.18,0h-7.18c-2.39,0-4.79,0-7.18,0s-4.77.02-7.15.06l-.91.02c-.53,0-.53.81,0,.82,2.4.04,4.79.08,7.18.08h7.18c2.39,0,4.79,0,7.18,0s4.79,0,7.18,0h3.56c.6,0,1.21-.01,1.81-.02s1.22-.03,1.81-.13c.28-.05.54-.15.8-.26.06-.03.06-.13,0-.16h0Z"/>
      </g>
    </g>
    <path class="cls-4" d="M213.7,212.75c-5,0-9.56,0-13.21-.01.01-13.1.01-25.92,0-31.98h-5.17c.01,6.06.01,18.88,0,31.98h-.53c-2.18,1.57-3.39,3.61-3.63,6.46.53,0,1.07,0,1.6,0h7.73c4.54,0,10.49,0,16.95.01.75,0,1.36-.61,1.36-1.36,0-2.82-2.29-5.1-5.11-5.1Z"/>
  </g>
  <path class="cls-4" d="M280.79,192.53v5.97c0,.75-.61,1.36-1.36,1.36h-4.16c-8.73.01-71.87-.05-73.72,0-6.73,0-13.48.23-20.21.23h-19.26c-7.12.01-50.38-.03-67.14-.01-.75,0-1.35-.61-1.35-1.36v-6.19c-.01-8.73.05-71.85,0-73.72,0-6.73-.23-13.48-.23-20.21v-1.58c0-.75.6-1.36,1.35-1.36,16.59-.02,60.21.02,67.37.01,6.41-.01,12.84,0,19.26,0s13.48-.23,20.21-.23c1.85-.06,64.98.01,73.72,0h3.93c.75,0,1.36.61,1.36,1.36v1.8c0,6.73.23,13.48.23,20.21.05,1.86-.01,64.98,0,73.72Z"/>
  <g>
    <path class="cls-9" d="M106.24,196.64c-3.44,0-6.58,0-9.23,0v-4.11c0-3.22,0-13.83,0-26.03.01-26.38.02-46.64,0-47.77,0-3.31-.06-6.75-.11-10.08-.05-3.14-.11-6.38-.11-9.56,2.63,0,5.76,0,9.19,0,9.55,0,56.11.02,56.11.02h6.41s12.85,0,12.85,0c3.4,0,6.84-.06,10.16-.11,3.3-.06,6.71-.11,10.05-.11.45-.01,3.35-.02,15.17-.02,9.85,0,22.92,0,34.3.01,8.79,0,26.11,0,26.11,0,0,3.31.06,6.65.11,9.89.06,3.3.11,6.71.11,10.05.03,1.24.02,28.08,0,47.68,0,12.21-.01,22.82,0,26.04v3.89s-51.85-.02-61.26-.02c-12.29,0-14.28.01-14.64.02h-.09c-3.28,0-6.69.06-9.99.11-3.3.06-6.71.11-10.05.11h-23.19s-42.33-.02-51.91-.02Z"/>
    <g class="cls-5">
      <path class="cls-6" d="M116.37,147.52c-10.83-4.54-22.62-7.41-34.43-6.97-5.32.2-26.08,1.39-24.33,10.75.43,2.3,2.16,2.83,4.19,3.01,6.82.6,13.52.57,20.3,1.92,14.81,2.94,29.45,8.39,43.87,12.85,10.96,3.39,21.73,7.98,33.08,10,13.33,2.37,27.47,3.15,40.99,2.11,22.47-1.74,44.53-7.11,67-8.86,6.19-.48,12.45-.88,18.56-1.87,2.2-.36,4.82-1,6.97-.5.17-3.87,1.38-7.91,2.38-11.64,1.49-5.53,2.79-11.07,4.2-16.62.26-1.04,2.28-5.13,2-6.16-.39-1.43-3.34-2.04-4.57-2.56-32.33-13.54-63.44,8.33-93,19.1-17.5,6.38-37.59,9.37-56.14,6.75-11.42-1.61-20.63-6.95-31.07-11.32Z"/>
      <path class="cls-3" d="M296.91,161.32c-2.78.16-5.82-.65-8.63-.79-5.28-.26-10.88-.15-16.14.6-10.12,1.43-19.87,4.07-29.69,6.79-17.25,4.77-34.67,9-52.56,10.41-10.51.82-20.88.21-31.25-1.57-12.31-2.11-23.69-6.28-35.44-10.42-6.6-2.32-12.99-4.97-19.7-6.96-2.91-.86-5.79-1.77-8.71-2.67-1.39-.43-3.63-1.74-4.83-1.16.47,1.87.37,4.35,0,6.21,7.59,2.39,15.2,5.31,22.54,8.52,8.87,3.88,18.16,6.7,27.16,10.29,13.42,5.37,27.33,9.81,41.66,12.1,21.38,3.42,42.87-.32,63.75-5.03,16.62-3.74,32.13-5.83,48.95-3.09l2.91-23.24Z"/>
      <path class="cls-7" d="M282.39,100.56c-5.62,1.69-11.43,2.6-17.05,4.24-6.28,1.83-12.49,4.53-18.58,6.96-17.14,6.82-34.61,12.86-51.76,19.6-15.59,6.13-32.44,10.02-49.08,11.86-10.61,1.17-21.06-.64-31.51-2.17-5.44-.8-10.81-1.01-16.33-1.03-3.19,0-6.09.3-9.11,1.22-2.16.66-4.52,2.21-6.71,2.38,1.15-1.87,1.26-4.82,1.17-6.98,2.73.8,6.33-.15,9.17-.25,4.72-.17,9.51.23,14.17.75,10.66,1.19,21.29,3.6,32.08,3.61,16.06,0,32.29-3.97,47.08-10.11s27.16-17.3,41.54-24.69c7.4-3.8,14.75-7.71,22.65-10.42,8.36-2.86,19.23-6.54,28.14-5.38l4.12,10.41Z"/>
      <rect class="cls-7" x="103.32" y="105.25" width="5.31" height="5.31" rx=".84" ry=".84"/>
      <rect class="cls-2" x="103.32" y="117.66" width="5.31" height="5.31" rx=".84" ry=".84"/>
      <rect class="cls-8" x="103.32" y="129.12" width="5.31" height="5.31" rx=".84" ry=".84"/>
      <path class="cls-1" d="M102.15,113.27c.09.02.17.05.26.07s.19.03.28.05c.07.02.14.03.21,0,.07,0,.14-.02.2-.06l.11-.08c.07-.07.11-.14.14-.23,0-.01.01-.03.02-.04l-.05.13s.04-.1.07-.14l-.08.11s.03-.03.04-.04l-.11.08s.03-.02.04-.02l-.13.05s.03-.01.05-.01l-.14.02s.05,0,.08,0l-.14-.02s.08.02.12.03c.05.01.1.02.14.03.07.02.14.02.21,0,.07,0,.13-.02.19-.06l.11-.08c.05-.05.09-.1.11-.17.02-.04.04-.08.04-.13.02-.07.01-.14,0-.21l-.05-.13c-.05-.08-.11-.14-.19-.19-.09-.05-.18-.1-.28-.12-.09-.03-.18-.04-.28-.04-.07,0-.14.01-.2.02,0,0-.02,0-.03,0,0,0,0,0-.01,0-.05.02-.1.04-.14.06-.06.03-.11.07-.15.11,0,0-.01.01-.02.02,0,0,0,0-.01.01-.03.04-.06.08-.09.12,0,.01-.01.02-.02.03-.03.05-.05.11-.07.17-.01.04-.02.07-.02.11l.51-.39c-.1,0-.19,0-.29.01s-.18.01-.27.02c-.06,0-.12.01-.17.04-.06.02-.1.05-.15.09l-.07.09c-.03.05-.05.11-.05.17-.01.04-.01.08,0,.12,0,.06.02.12.05.17l.07.09c.06.06.12.1.2.12h0Z"/>
      <path class="cls-1" d="M104.7,112.98s.02.03.03.05l-.04-.09s.01.06.02.09c.01.05.03.1.06.14.02.04.05.07.08.1,0,0,0,0,0,0l.09.07s.01,0,.02,0l.11.05c.06.02.12.02.18,0,.04,0,.08-.01.11-.03.06-.02.1-.05.15-.09,0,0,.02-.01.03-.02l-.09.07s.07-.04.11-.07c.04-.02.08-.05.12-.07s.08-.04.11-.07c.05-.04.1-.07.14-.11s.08-.1.12-.14h-.84c.06.07.11.16.19.22.04.03.08.06.12.09,0,0,.02.01.03.02.05.03.11.05.17.07s.12.03.18.04c.04,0,.08,0,.12.01.02,0,.04,0,.06,0,.02,0,.05,0,.07,0,.06,0,.14-.02.2-.03l-.12.02s.02,0,.03,0l.11-.02.1-.04.09-.07s.07-.09.09-.14c.02-.03.03-.07.03-.11.01-.04.01-.08,0-.11,0-.04,0-.07-.03-.11-.02-.05-.05-.1-.09-.14-.05-.05-.11-.09-.16-.13-.02-.02-.04-.02-.07-.04-.03-.01-.05-.02-.08-.03-.01,0-.03,0-.04-.01-.03,0-.05-.01-.08-.02-.07-.01-.14-.02-.21-.03l.13.02s-.08-.01-.12-.03l.12.05s-.06-.03-.09-.05l.1.08s-.07-.06-.1-.1c-.06-.06-.13-.1-.21-.12-.06-.02-.13-.02-.19,0-.06,0-.12.02-.18.06-.07.04-.13.1-.17.17,0,0,0,.01-.02.02l.08-.1s-.06.06-.09.09l.1-.08c-.05.04-.11.08-.17.12,0,0-.01,0-.02.01,0,0,0,0-.01,0-.02.01-.03.03-.05.04-.02.01-.03.03-.05.04-.01.01-.02.02-.03.03s-.02.02-.03.04c-.03.04-.07.08-.1.13l.51-.21s-.09-.02-.14-.02l.12.02s-.02,0-.02,0l.1.04s-.02,0-.03-.02l.09.07s-.03-.03-.05-.05c-.03-.03-.06-.05-.09-.07,0,0-.01,0-.02-.01-.04-.02-.09-.04-.14-.06h-.1s-.07,0-.1,0l-.09.04s-.08.06-.11.1c-.02.02-.04.05-.05.08-.02.03-.03.06-.03.1,0,.03,0,.07,0,.1,0,.05.02.1.04.14h0Z"/>
      <path class="cls-1" d="M107.89,113.29s.02,0,.04,0l-.12.02s.09,0,.12-.02c.03,0,.09-.03.12-.05,0,0,.02,0,.03-.01.02,0,.03-.02.05-.02l-.11.05s.09-.03.13-.04c.04,0,.08-.02.12-.03l-.13.02c.06,0,.13,0,.19,0l-.13-.02c.17.02.33.09.49.15l-.13-.05s.04.02.06.03c.05.02.1.04.15.06.01,0,.02,0,.03.01.09.02.18.03.26.04.04,0,.09,0,.13,0,.07,0,.14-.02.21-.02.02,0,.05,0,.07-.01.1-.02.19-.07.29-.11.06-.03.12-.08.15-.14.05-.05.08-.12.1-.19.02-.07.03-.15,0-.22,0-.07-.03-.14-.07-.2l-.09-.11c-.07-.07-.15-.12-.24-.14l-.15-.02c-.1,0-.19.03-.28.08-.01,0-.03.01-.04.02l.13-.06c-.07.03-.13.05-.2.06l.15-.02c-.08,0-.15,0-.23,0l.14.02c-.08-.01-.15-.03-.23-.03-.03,0-.06,0-.09,0l.14.02c-.14-.03-.27-.07-.41-.1-.11-.02-.22-.04-.33-.02-.08,0-.16.02-.23.04-.02,0-.03,0-.05.01,0,0-.02,0-.03.01-.05.02-.1.04-.14.06-.07.04-.14.1-.2.15-.02.02-.04.03-.05.05,0,0,0,0-.01.01-.03.03-.06.06-.07.1l-.04.11s0,.02-.01.04c-.02.07-.02.15,0,.22.02.07.06.13.11.19.05.05.11.09.19.11.07.02.15.02.22,0h0Z"/>
      <path class="cls-1" d="M102.37,125.19s0,0,0,0v-.05s0,.04,0,.05v-.06s0,.07-.02.1c-.02.07-.03.15,0,.22,0,0,0,0,0,.01,0,.03.02.05.03.08.03.06.08.09.13.13.02.02.05.03.08.04l.08.03h.09s.06,0,.09,0c0,0,.01,0,.02,0,.01,0,.03,0,.04-.01.03,0,.05-.02.08-.03.09-.04.18-.07.26-.12h-.42s.1.06.15.09c.06.03.12.05.18.07.01,0,.02,0,.04,0,.05,0,.11.02.16.02.15.02.31,0,.46-.04.04,0,.07-.02.1-.04.03-.01.05-.02.08-.04,0,0,.01,0,.02-.01.03-.02.06-.04.09-.06l.08-.07s.07-.08.09-.13c.02-.03.03-.07.03-.11.01-.06,0-.11,0-.17l-.04-.1-.07-.08s-.08-.07-.13-.09c-.05-.03-.1-.04-.16-.04-.01,0-.03,0-.04,0l.12.02s-.05,0-.07-.01c-.05,0-.12-.03-.16-.02-.01,0-.03,0-.04,0-.02,0-.05,0-.07,0-.07,0-.13.02-.2.03l.13-.02c-.08.01-.15.01-.23.01-.04,0-.07,0-.11,0s-.08,0-.11,0l.11.02s-.04,0-.06-.01h-.11c-.06-.02-.11,0-.16.02-.04,0-.07.03-.09.05-.05.03-.08.07-.11.12-.01.02-.02.04-.04.05l.06-.08c-.06.07-.12.15-.19.21l.24-.1s-.05,0-.08,0h.08s-.07,0-.11,0c0,0-.01,0-.02,0h.08s-.01,0-.02,0l.07.03s-.01,0-.02-.01l.05.04s0,0-.01-.01l.04.05s0-.02-.01-.03l.02.06s-.03-.08-.05-.12-.05-.08-.08-.11l-.04-.03s-.05-.02-.07-.02c-.04,0-.09,0-.12.02-.03.02-.05.04-.07.07-.01.02-.02.05-.02.07,0,.03,0,.05,0,.08h0Z"/>
      <path class="cls-1" d="M104.73,125.31c.07.16.25.22.4.28.08.03.16.06.25.07.21.03.42.04.64.03s.43-.07.64-.12c.17-.04.35-.08.52-.13s.36-.11.55-.13l-.12.02c.14-.02.29-.02.44,0h-.11c.16,0,.33.05.49.1.17.05.33.12.5.18.15.06.3.12.45.17.07.02.13.04.2.06.11.03.23.05.35.02.03,0,.06-.02.09-.03.08-.03.16-.06.22-.13.08-.08.12-.18.14-.28.01-.09,0-.17-.03-.26-.04-.09-.11-.2-.2-.24-.02,0-.04-.02-.06-.03-.1-.05-.19-.08-.31-.08-.05,0-.1,0-.15,0-.11,0-.23-.02-.34-.03l.12.02c-.11-.02-.23-.04-.34-.06s-.24-.04-.35-.07c-.21-.06-.43-.11-.65-.18-.24-.07-.49-.11-.74-.09-.3.02-.59.11-.87.19-.14.04-.29.09-.43.12s-.3.08-.45.1l.12-.02c-.19.02-.39.03-.58,0h.1c-.07,0-.13,0-.19,0-.06,0-.11.03-.17.06-.07.03-.14.13-.16.21-.02.1,0,.18.04.27h0Z"/>
      <path class="cls-1" d="M102.29,136.89c.13.13.32.19.5.26.15.06.31.1.47.14.35.08.7.1,1.06.11.66.01,1.32-.07,1.98-.09.33,0,.66-.03.98.02l-.16-.02c.47.06.92.2,1.39.27.26.04.54.08.81.06.41-.03.94-.21.96-.7,0-.18-.11-.39-.27-.47-.12-.06-.23-.09-.37-.07-.09.01-.16.04-.24.08l.14-.06c-.06.03-.13.04-.2.05l.15-.02c-.21.02-.42.01-.63-.01l.16.02c-.49-.07-.96-.21-1.45-.29-.67-.11-1.33-.05-1.99.03-.43.05-.86.11-1.3.17l.14-.02c-.33.04-.67.07-1,.09-.16.01-.32.01-.49.02-.18,0-.36-.02-.53.01s-.23.28-.11.4h0Z"/>
    </g>
  </g>
</svg>