<?xml version="1.0" encoding="UTF-8"?>
<svg id="Layer_1" data-name="Layer 1" xmlns="http://www.w3.org/2000/svg" xmlns:xlink="http://www.w3.org/1999/xlink" viewBox="0 0 384.67 508.86">
  <defs>
    <style>
      .cls-1 {
        fill: #c7966e;
      }

      .cls-2 {
        fill: #28318c;
      }

      .cls-3 {
        clip-path: url(#clippath);
      }
    </style>
    <clipPath id="clippath">
      <path class="cls-1" d="M313.93,389.26c0,2.54-1.54,4.84-3.89,5.8-2.32.95-4.67,1.85-6.93,2.77-2.45,1-5.64,2.72-8.56,3.83.04,1.43.05,2.83-.02,4.03-.11,1.83-1.63,3.25-3.47,3.25H75c-1.95,0-3.56-1.62-3.45-3.6.16-3.74-.44-9.16-.44-11.59v-57.7c0-23.89,1.41-47.85.38-71.74-.42-10.35.38-20.57.38-30.9s-1.13-19.73-1.13-29.65c0-17.77.75-35.44.75-53.2v-28.65c0-5.64.66-12.7.36-18.43-.11-1.97,1.48-3.6,3.45-3.6h216.08c1.81,0,3.34,1.38,3.45,3.19.35,5.8-.33,13.08-.33,18.84v28.65c0,17.76-.77,35.42-.77,53.2,0,9.93,1.13,19.73,1.15,29.65,0,10.33-.82,20.55-.38,30.9.46,10.78.42,21.59.26,32.39,3.81,2.17,8.3,4.96,9.49,5.69,1.35.83,4.13,2.45,6.36,3.74,1.96,1.13,3.15,3.2,3.14,5.46-.1,15.96.17,62.65.17,77.65Z"/>
    </clipPath>
  </defs>
  <path class="cls-1" d="M313.93,389.26c0,2.54-1.54,4.84-3.89,5.8-2.32.95-4.67,1.85-6.93,2.77-2.45,1-5.64,2.72-8.56,3.83.04,1.43.05,2.83-.02,4.03-.11,1.83-1.63,3.25-3.47,3.25H75c-1.95,0-3.56-1.62-3.45-3.6.16-3.74-.44-9.16-.44-11.59v-57.7c0-23.89,1.41-47.85.38-71.74-.42-10.35.38-20.57.38-30.9s-1.13-19.73-1.13-29.65c0-17.77.75-35.44.75-53.2v-28.65c0-5.64.66-12.7.36-18.43-.11-1.97,1.48-3.6,3.45-3.6h216.08c1.81,0,3.34,1.38,3.45,3.19.35,5.8-.33,13.08-.33,18.84v28.65c0,17.76-.77,35.42-.77,53.2,0,9.93,1.13,19.73,1.15,29.65,0,10.33-.82,20.55-.38,30.9.46,10.78.42,21.59.26,32.39,3.81,2.17,8.3,4.96,9.49,5.69,1.35.83,4.13,2.45,6.36,3.74,1.96,1.13,3.15,3.2,3.14,5.46-.1,15.96.17,62.65.17,77.65Z"/>
  <g class="cls-3">
    <path class="cls-2" d="M137.5,371.67c.1,0,.21,0,.31.02l-.26-.03c.26.03.5.11.74.21l-.23-.1c.45.19.87.48,1.26.78l-.2-.16c.31.24.61.5.92.75.16.13.31.26.47.39.14.11.28.22.43.32.02.01.04.03.06.04.17.11.33.13.53.14.12,0,.22-.01.35-.03.12-.03.22-.08.31-.16.1-.06.18-.15.23-.25l.09-.22c.04-.16.04-.32,0-.48,0-.04-.02-.07-.03-.1-.07-.19-.12-.32-.27-.46-.02-.02-.03-.03-.05-.04-.13-.11-.26-.22-.4-.32l.2.16c-.56-.43-1.09-.89-1.65-1.31-.51-.38-1.06-.71-1.67-.92-.14-.05-.28-.08-.43-.11-.23-.04-.47-.07-.7-.07-.25,0-.51.11-.69.29-.09.09-.16.19-.2.31-.06.12-.09.24-.08.38.01.25.09.51.29.69s.42.28.69.29h0Z"/>
    <path class="cls-2" d="M267.6,153.95s-.02.01-.03.02h.27l-.04-.02c-.18-.1-.41-.12-.59,0-.06.04-.13.08-.19.12l.51-.07-.08-.03c-.15-.04-.31-.04-.46,0-.15.04-.27.11-.38.22-.1.09-.19.17-.29.26s-.19.18-.28.28c-.18.2-.37.4-.56.6-.4.42-.8.84-1.2,1.26-.76.79-1.51,1.6-2.21,2.44-.21.25-.41.51-.61.78-.07.09-.14.18-.2.28-.03.04-.05.09-.08.14-.01.02-.02.04-.03.06-.04.08-.1.21-.11.26-.04.19-.03.34,0,.54.03.13.09.24.18.33.07.11.16.19.28.25.23.12.5.18.76.1.17-.05.34-.13.46-.27.06-.07.12-.15.17-.23.02-.03.04-.06.07-.09l-.16.2c.21-.27.4-.55.61-.82l-.16.2c.54-.69,1.12-1.35,1.71-1.99.66-.72,1.31-1.45,1.95-2.18.17-.19.34-.39.5-.58.21-.24.38-.5.55-.77.16-.25.16-.62,0-.87l-.04-.06.07.51c.03-.07.05-.14.08-.21.08-.2-.02-.42-.15-.57l-.03-.03.07.26s0-.02,0-.03c.05-.22-.18-.39-.37-.29h0Z"/>
    <path class="cls-2" d="M120.46,121.96c.04.08.08.17.12.25l-.06-.14s0,.03,0,.05c0,0,0,0,0,.01l.06.15s0,.02.01.03c.02.03.03.06.05.09.04.06.07.12.11.18v-.69c-.06.13-.13.27-.11.42.03.31,0,.14.03.21.04.15.1.23.21.35.03.03.06.06.08.09.05.06.11.11.16.17.11.11.22.23.34.33.3.25.61.48.94.69.15.09.3.18.45.26.1.06.21.1.33.11.12.03.24.02.35-.02.12-.03.22-.08.3-.16.1-.06.17-.15.23-.25l.09-.21c.04-.16.04-.31,0-.47l-.09-.21c-.08-.13-.18-.24-.32-.32-.24-.11-.48-.23-.71-.37s-.45-.3-.67-.45c-.13-.09-.25-.17-.37-.27l.16.13s-.09-.07-.14-.11c-.01,0-.02-.02-.03-.03,0,0-.01,0-.02-.01-.03-.02-.05-.04-.08-.06-.05-.05-.11-.08-.17-.1-.12-.05-.07-.04-.21-.06.01,0-.08-.01-.11-.01-.04,0-.07,0-.11.01-.07,0-.13.02-.19.05-.09.04-.06.03-.11.05h.69c-.06-.04-.11-.08-.17-.12-.03-.02-.05-.04-.08-.06-.04-.03-.06-.04-.11-.06-.04-.02-.07-.03-.11-.04l.14.06c-.05-.02-.1-.07-.14-.1l.11.08s-.05-.04-.08-.06c-.05-.05-.1-.08-.16-.1-.06-.03-.13-.05-.2-.04l-.13.02c-.07.02-.12.05-.17.09-.04.02-.07.05-.09.09-.04.05-.08.11-.09.17l-.02.13c0,.09.02.18.07.26h0Z"/>
    <path class="cls-2" d="M306.61,384.44s-.07-.04-.11-.06l.34.34h0c-.05-.07-.1-.14-.15-.2-.09-.09-.19-.16-.31-.2-.08-.04-.16-.07-.25-.07-.13-.03-.26-.02-.39.02h-.01c.09-.01.17-.02.26-.03-.08,0-.17,0-.25,0-.18,0-.35.03-.53.07-.21.04-.42.08-.62.12-.46.09-.92.19-1.39.27-.26.05-.53.09-.79.13l.28-.04c-.26.04-.53.06-.79.07-.22,0-.44.02-.65-.01l.27.04c-.12-.02-.23-.04-.34-.09l.24.1c-.1-.04-.2-.1-.29-.17l.2.16c-.1-.08-.18-.16-.26-.26l.16.2c-.09-.12-.17-.26-.23-.4l.1.24c-.09-.21-.14-.43-.17-.66l.04.26c-.04-.33-.04-.67,0-1l-.03.26c.05-.38.15-.75.3-1.1l-.1.23c.12-.27.26-.54.44-.77l-.15.19c.12-.16.26-.3.42-.42l-.19.15c.17-.13.36-.24.56-.32l-.22.09c.28-.12.57-.19.87-.23l-.25.03c.35-.05.71-.05,1.06,0l-.24-.03c.34.05.68.14,1,.27l-.21-.09c.17.07.34.16.49.27l-.17-.13c.12.1.23.2.33.33l-.13-.17c.14.18.25.39.34.6l-.09-.2c.21.51.32,1.05.39,1.59l-.03-.22c.06.48.09.97.16,1.45l-.03-.22c.03.24.02.22.12.43,0,0,0,.02.01.03,0,.02.01.03.02.05.04.08.1.17.17.23l-.2-.34s0,0,0,0c.05.19.19.36.35.46s.41.14.59.08.36-.18.46-.35.13-.39.08-.59c0,0,0,0,0,0l-.08.59s.03-.07.04-.1c.05-.09.07-.19.07-.3,0,0,0,0,0-.01,0-.01,0-.02,0-.03l-.03.21s.01-.06.02-.1c.02-.12.03-.22.02-.34-.01-.11-.02-.21-.03-.32-.02-.27-.04-.55-.08-.82-.05-.38-.1-.77-.19-1.14s-.22-.73-.38-1.08c-.07-.15-.15-.29-.25-.42-.09-.12-.18-.24-.28-.34s-.23-.2-.35-.29l.17.13c-.25-.23-.56-.42-.88-.56-.2-.09-.39-.17-.6-.22-.14-.04-.28-.06-.43-.08-.37-.05-.74-.09-1.12-.06s-.72.08-1.06.2c-.62.21-1.2.55-1.61,1.07-.19.25-.37.5-.51.78s-.27.6-.36.91-.14.66-.18.99c-.03.24-.03.48-.01.72.03.3.07.62.17.91.06.18.13.36.22.52s.2.31.32.45c.06.08.13.15.21.22.14.12.29.24.45.32.15.08.31.15.47.2s.35.07.52.09c.55.07,1.1-.02,1.64-.1s1.1-.19,1.64-.31c.26-.05.51-.11.77-.16.12-.02.24-.05.36-.07.11-.02.21-.05.32-.08.04-.01.09-.02.13-.04.02,0,.04-.01.07-.02.17-.04.32-.13.44-.25.16-.16.17-.24.25-.44l-.25.42s.06-.05.09-.08c.11-.11.18-.24.22-.38.04-.12.04-.23.02-.35,0-.12-.04-.22-.1-.32-.08-.13-.18-.23-.31-.31h0Z"/>
    <path class="cls-2" d="M300.31,372.3c-.34.27-.64.61-.85.99-.11.2-.2.41-.28.63s-.09.45-.1.68c-.01.38.05.79.18,1.15.08.22.17.43.29.63s.26.39.4.57c.25.32.56.59.88.84.27.21.57.39.88.52.38.16.76.3,1.17.36.24.03.47.06.71.06s.47-.04.71-.08c.16-.03.32-.08.48-.14.22-.09.44-.18.64-.31.44-.28.78-.64,1.08-1.06s.51-.89.66-1.36c.06-.19.11-.38.14-.58.04-.25.07-.5.07-.76s-.03-.49-.08-.73c-.03-.16-.07-.32-.13-.48-.08-.21-.17-.43-.29-.63s-.25-.38-.4-.55c-.24-.29-.55-.54-.87-.75s-.69-.37-1.07-.47-.78-.16-1.18-.16c-.24,0-.48.03-.71.07-.17.03-.34.07-.5.12-.4.13-.8.31-1.15.56-.21.15-.42.31-.61.5-.2.19-.37.4-.54.62s-.3.47-.41.74l.08-.2c-.07.12-.11.26-.15.39s-.07.26-.08.4l.1-.37v.02c-.09.18-.14.37-.08.57.05.17.18.35.34.44.17.09.38.14.57.07.17-.06.36-.17.44-.34v-.02s-.07.1-.11.15c.07-.06.11-.14.16-.21l-.12.15c.11-.14.25-.28.34-.43l-.13.17c.1-.12.19-.26.29-.38l-.13.17c.11-.15.23-.3.34-.45l-.13.17c.21-.27.45-.52.73-.73l-.17.13c.24-.18.5-.34.77-.45l-.2.09c.28-.12.57-.2.86-.24l-.23.03c.29-.04.59-.04.89,0l-.23-.03c.29.04.58.12.85.23l-.21-.09c.25.11.49.25.71.42l-.17-.13c.2.16.38.33.53.54l-.13-.17c.15.19.27.4.36.62l-.09-.21c.1.23.16.47.19.72l-.03-.23c.04.27.03.55,0,.82l.03-.23c-.05.35-.15.68-.28,1.01l.09-.2c-.14.33-.31.65-.53.93l.13-.17c-.15.2-.32.37-.52.53l.17-.13c-.18.14-.37.25-.57.34l.2-.09c-.21.09-.44.15-.67.18l.23-.03c-.27.04-.54.03-.81,0l.23.03c-.32-.04-.64-.13-.94-.26l.2.09c-.33-.14-.64-.32-.93-.54l.17.13c-.27-.21-.51-.44-.72-.71l.13.17c-.2-.26-.36-.54-.49-.84l.08.2c-.09-.21-.15-.44-.19-.67l.03.21c-.03-.2-.03-.4,0-.6l-.03.21c.02-.14.03-.28.05-.43l-.03.2c.03-.22.09-.44.18-.65l-.07.16c.11-.25.25-.49.42-.71.08-.11.1-.32.06-.44s-.1-.22-.21-.3-.22-.13-.35-.12l-.15.02c-.1.03-.18.08-.25.15h0Z"/>
    <path class="cls-2" d="M300.79,362.67s-.1.02-.15.03l.16-.02c-.14.02-.28.03-.42.06l.2-.03c-.14,0-.26.04-.39.1-.01,0-.03.01-.04.02-.03.01-.06.03-.08.05-.05.03-.1.06-.15.09-.1.07-.21.14-.29.23s-.16.19-.23.29c-.06.08-.12.18-.16.27-.07.15-.15.32-.19.49s-.06.35-.06.53.03.36.05.53c.04.28.15.55.27.8.09.21.21.4.34.58.19.25.38.49.61.71s.49.43.75.61c.2.14.42.27.64.39.28.14.58.27.88.36s.6.14.9.17.6,0,.91-.04c.27-.04.53-.11.77-.21.3-.12.59-.26.86-.45s.5-.39.7-.63.39-.49.53-.77.25-.57.32-.87c.14-.62.14-1.26-.02-1.88-.03-.12-.07-.24-.12-.36-.07-.19-.15-.37-.25-.55-.16-.3-.38-.57-.61-.82-.09-.1-.21-.18-.33-.25-.21-.12-.45-.15-.69-.09-.02,0-.04.01-.06.02-.12.03-.23.1-.32.19-.09.09-.15.2-.19.32,0,.01,0,.03,0,.04-.03.17-.05.31,0,.48.05.18.17.37.3.5.08.09.16.17.23.27l-.14-.18c.16.21.3.44.4.69l-.09-.21c.1.24.17.5.21.76l-.03-.24c.03.26.03.52,0,.77l.03-.24c-.04.26-.11.52-.21.77l.09-.22c-.1.24-.23.46-.39.66l.14-.18c-.15.2-.33.38-.53.53l.18-.14c-.21.16-.43.29-.67.39l.22-.09c-.26.11-.54.18-.82.22l.24-.03c-.24.03-.49.03-.73,0l.24.03c-.33-.05-.65-.14-.96-.27l.22.09c-.4-.17-.78-.39-1.13-.66l.19.14c-.3-.23-.58-.5-.82-.81l.14.18c-.17-.22-.31-.45-.42-.7l.09.22c-.07-.18-.13-.36-.15-.55l.03.24c-.02-.15-.02-.3,0-.45l-.03.24c.02-.13.05-.26.06-.39l-.03.24c.02-.13.06-.25.1-.36l-.09.21c.04-.1.1-.2.16-.3l-.13.17c.1-.13.2-.23.23-.4l-.09.2c.06-.12.12-.23.2-.34l-.12.15c.07-.09.12-.15.16-.25.02-.04.03-.08.05-.11l-.07.17c.05-.11.1-.22.17-.32l-.09.11h.01c.08-.11.13-.2.15-.33.02-.12,0-.25-.06-.35-.13-.21-.38-.31-.62-.25h0Z"/>
    <path class="cls-2" d="M301.19,354.84s-.03-.03-.05-.04l.09.11v-.02s-.07-.08-.1-.12c-.05-.06-.12-.1-.2-.13-.13-.06-.25-.06-.4-.03h-.01c.05,0,.11-.01.16-.02h-.01c.05,0,.11.01.16.02-.17-.02-.33-.05-.49-.03s-.33.04-.49.09l.22-.03c-.15,0-.21.02-.33.07-.07.02-.13.06-.18.11-.03.02-.06.05-.09.07l.17-.13c-.28.18-.47.38-.66.65l.14-.18c-.16.17-.21.32-.3.53-.02.05-.04.11-.06.16-.06.19-.08.39-.1.58-.04.33,0,.66.06.98s.18.64.33.94c.06.11.12.22.2.33.11.16.24.32.38.46.28.28.6.47.96.61s.78.13,1.17.06c.21-.04.4-.12.59-.21.14-.06.28-.15.4-.24.21-.15.41-.31.59-.5.21-.21.39-.45.56-.68.24-.32.43-.66.61-1.02.17-.33.34-.67.54-.98.05-.07.1-.14.15-.21l-.14.18c.1-.12.2-.24.32-.33l-.18.14c.07-.05.14-.1.23-.13l-.22.09c.07-.03.14-.05.21-.06l-.24.03c.08-.01.16,0,.23,0l-.24-.03c.1.01.19.04.28.08l-.22-.09c.15.07.3.16.43.26l-.18-.14c.2.16.4.34.56.55l-.14-.19c.11.15.21.3.28.47l-.09-.22c.07.17.12.36.15.54l-.03-.24c.03.25.03.49,0,.74l.03-.25c-.05.39-.17.76-.32,1.12l.09-.22c-.16.37-.35.72-.57,1.06-.07.11-.11.22-.11.35-.03.12-.02.25.02.37.06.22.23.45.43.56.22.11.48.17.72.09s.42-.22.56-.43c.19-.31.37-.63.52-.97.18-.42.35-.85.42-1.3.04-.26.08-.52.08-.78s-.04-.52-.09-.77-.16-.5-.29-.73c-.05-.08-.1-.16-.15-.24-.1-.14-.21-.28-.33-.41-.19-.2-.41-.37-.63-.54-.19-.14-.4-.24-.62-.33-.19-.08-.39-.11-.59-.12-.06,0-.11,0-.17,0-.13.01-.26.03-.38.06-.71.23-1.16.82-1.51,1.45-.28.5-.5,1.04-.84,1.51-.05.08-.11.15-.16.22l.14-.18c-.21.28-.45.54-.73.75l.18-.14c-.15.12-.32.22-.5.3l.22-.09c-.13.05-.26.09-.4.11l.24-.03c-.12.02-.24.02-.35,0l.24.03c-.12-.02-.23-.05-.33-.09l.22.09c-.12-.05-.23-.12-.33-.2l.19.14c-.13-.1-.25-.22-.35-.35l.14.19c-.14-.19-.26-.39-.35-.61l.09.22c-.1-.23-.16-.47-.2-.72l.03.24c-.03-.21-.03-.43,0-.64l-.03.24c.02-.15.06-.31.12-.45l-.09.21c.05-.12.11-.25.16-.37l-.09.21c.04-.1.1-.2.16-.28l-.13.17s.03-.04.05-.06c0,0,.02-.02.02-.03.03-.03.02-.02.07-.09.05-.05.09-.11.11-.18.02-.03.04-.07.04-.11l-.08.2s.03-.05.05-.08l-.12.16c.07-.08.14-.16.22-.22l-.14.11c.06-.04.12-.09.19-.12l-.15.06s.01,0,.02,0l.14-.06c.07-.04.13-.09.17-.16.09-.11.12-.22.13-.37h0c-.03.08-.05.18-.08.27.01-.02.02-.03.03-.05.06-.08.07-.2.06-.3-.01-.1-.06-.2-.13-.27h0Z"/>
  </g>
</svg>