<?xml version="1.0" encoding="UTF-8"?>
<svg id="Layer_1" data-name="Layer 1" xmlns="http://www.w3.org/2000/svg" xmlns:xlink="http://www.w3.org/1999/xlink" viewBox="0 0 500 500">
  <defs>
    <style>
      .cls-1 {
        fill: #e3e82a;
      }

      .cls-2 {
        fill: #80acff;
      }

      .cls-3 {
        fill: #e2f6eb;
      }

      .cls-4 {
        fill: #316bf6;
      }

      .cls-5 {
        clip-path: url(#clippath-1);
      }

      .cls-6 {
        clip-path: url(#clippath-3);
      }

      .cls-7 {
        clip-path: url(#clippath-4);
      }

      .cls-8 {
        clip-path: url(#clippath-2);
      }

      .cls-9 {
        clip-path: url(#clippath-5);
      }

      .cls-10 {
        fill: #f8d1b0;
      }

      .cls-11 {
        fill: #ffa65c;
      }

      .cls-12 {
        fill: #28318c;
      }

      .cls-13 {
        fill: #e8ec9d;
      }

      .cls-14 {
        clip-path: url(#clippath);
      }

      .cls-15 {
        fill: #765238;
      }
    </style>
    <clipPath id="clippath">
      <path class="cls-10" d="M306.42,155.44c-1.3,4.06-3.58,8.44-6.63,11.49-1.69,1.69-4.96,3.31-7.89,3.73-.67,5.15-1.76,10.21-3.79,14.57-2.57,5.53-6.89,10.21-11.83,14.09,0,2.83.04,5.67.11,8.52.06,2.89.13,5.8.19,8.69-2.89,3.14-5.57,6.26-8.96,9.04-3.33,2.74-6.3,5.69-9.29,8.79-2.57,2.68-5.23,5.07-6.34,8.69-1.19,3.83-1.36,7.7-1.99,11.6-.63-3.91-.82-7.77-1.99-11.6-1.11-3.62-3.79-6.01-6.36-8.69-2.99-3.1-5.96-6.05-9.29-8.79-3.12-2.57-5.65-5.44-8.31-8.33,0-3.22.04-6.43,0-9.69,0-3.14-.06-6.28-.25-9.4-4.33-3.64-8.1-7.93-10.4-12.93-2.01-4.35-3.1-9.36-3.77-14.46-3.2-.04-7.24-1.9-9.19-3.85-3.04-3.04-5.32-7.43-6.63-11.49-1.46-4.46-1.88-10.26-.44-14.99.23-.79.52-1.53.86-2.24,2.01-4.21,8.31-6.43,12.12-3.94-.3-1.22-1.37-9.75-1.42-11.75-.32-12.34,5.46-24.35,14.86-32.29,9.59-8.11,20.69-9.88,32.81-10.36,16.91-.68,34.71,8.48,40.82,24.41,1.57,4.08,2.13,14.34,2.12,18.7,0,2.58-.34,7.33-1.06,10.95,3.85-1.91,9.59.29,11.51,4.29.4.84.73,1.74,1,2.68,1.26,4.63.8,10.23-.57,14.55Z"/>
    </clipPath>
    <clipPath id="clippath-1">
      <path class="cls-2" d="M169.84,234.43c-.75,2.13-1.15,4.39-1.59,7.05-1.42,8.56-1.61,17.45-2.2,26.12-1.13,16.33-2.89,32.96-2.22,49.35.27,6.7.5,13.52.61,20.32-2.62,5.21-5.23,10.46-8.35,15.42-1.84,2.91-7.49,8.43-7.49,8.43,0,0,.54,4.96,1.74,9.54.8,3.06,1.72,6.07,2.53,9.12.94,3.58.34,6.89-.11,10.47-1.09,8.41-.42,17.31,1.9,25.51,1.19,4.21,1.4,6.95,1.28,11.34-.25,9.15.17,18.31.23,27.44-2.85-.08-5.73-.29-8.58-.65-8.46-1.09-14.78-3.33-22.42-7.18-7.81-3.93-15.74-7.81-24.22-9.71.1-9.13,1.09-18.56,2.24-27.4.63-5.06,2.3-9.75,4.02-14.46v-.02c-.11-10.86-1.55-21.39-2.01-32.25-.48-11.55,3.31-22.81,5.38-34.09,1.15-6.3,2.22-12.75,4.14-18.86,1.99-6.38,4.75-12.49,6.87-18.8,3.85-11.45,8.77-22.12,17.62-30.52,3.7-3.54,7.49-7.01,11.37-10.36,2.13-1.84,4.52-3.39,6.76-5.02v-.02c1.82-3.58,4.35-6.78,7.87-8.64,1.49-.79,3.04-1.47,4.63-2.11Z"/>
    </clipPath>
    <clipPath id="clippath-2">
      <path class="cls-2" d="M291.85,259c-.56-.48-1.07-1-1.57-1.55-.08,5.99-.44,12.03-.44,17.96,0,9.36-.15,18.77-.71,28.09-.17,3.1-.31,6.2-2.05,8.73-2.55,3.73-5.02,7.56-7.58,11.3-4.79,6.91-10.26,13.04-15.51,19.51-4.39,5.42-9.67,10.09-13.98,15.49-4.33-5.4-9.59-10.07-13.98-15.49-5.27-6.47-10.74-12.6-15.51-19.51-2.57-3.73-5.04-7.56-7.6-11.3-1.74-2.53-1.86-5.63-2.05-8.73-.54-9.33-.71-18.73-.71-28.09,0-5.94-.36-11.97-.44-17.94-.5.56-1.01,1.07-1.57,1.53-1.19-3.96-.54-9.42-.73-13.67-.27-6.17-1.07-13.86.86-19.78.48-1.46,1.17-3.03,1.99-4.58,1.72-3.26,4.08-6.47,6.45-8.64,2.26-2.07,4.86-3.27,7.33-4.75.04,3.24,0,6.45,0,9.67,2.66,2.89,5.19,5.76,8.31,8.33,3.33,2.74,6.3,5.69,9.29,8.79,2.57,2.68,5.25,5.07,6.36,8.69,1.17,3.83,1.36,7.7,1.99,11.6.63-3.91.8-7.77,1.99-11.6,1.11-3.62,3.77-6.01,6.34-8.69,2.99-3.1,5.96-6.05,9.29-8.79,3.39-2.78,6.07-5.9,8.96-9.04-.06-2.89-.13-5.8-.19-8.69,2.34,1.36,4.77,2.55,6.87,4.48,2.39,2.16,4.73,5.38,6.47,8.64.82,1.55,1.49,3.12,1.97,4.58,1.93,5.92,1.15,13.62.86,19.78-.19,4.25.48,9.71-.73,13.67Z"/>
    </clipPath>
    <clipPath id="clippath-3">
      <path class="cls-11" d="M347.13,379.76c-.96,3.58-.36,6.89.1,10.47,1.09,8.41.44,17.31-1.88,25.51-1.21,4.21-1.42,6.95-1.3,11.34.19,6.72,0,13.44-.13,20.16-8.87.11-17.66,1.36-26.31,3.58-12.85,3.26-26.06,5.02-39.14,7.14-14.07,2.26-26.68,1.55-40.64-.52-11.32-1.67-22.31-3.14-33.66-4.25-16.03-1.55-32.06,1.74-47.99,1.32-.06-9.13-.48-18.29-.23-27.44.11-4.39-.1-7.12-1.28-11.34-2.32-8.2-2.99-17.1-1.9-25.51.46-3.58,1.05-6.89.11-10.47-.8-3.04-1.72-6.05-2.53-9.12-1.21-4.58-1.74-9.54-1.74-9.54,0,0,5.65-5.52,7.49-8.43,3.12-4.96,5.73-10.21,8.35-15.42-.11-6.8-.34-13.62-.61-20.32-.67-16.39,1.09-33.01,2.22-49.35.59-8.67.79-17.56,2.2-26.12.44-2.66.84-4.92,1.59-7.05,6.89-2.68,14.52-4.06,21.35-6.64,6.24-2.34,12.77-4.75,19.07-6.82-.82,1.55-1.51,3.12-1.99,4.58-1.93,5.92-1.13,13.62-.86,19.78.19,4.25-.46,9.71.73,13.67.56-.46,1.07-.98,1.57-1.53.08,5.97.44,12.01.44,17.94,0,9.36.17,18.77.71,28.09.19,3.1.31,6.2,2.05,8.73,2.57,3.73,5.04,7.56,7.6,11.3,4.77,6.91,10.25,13.04,15.51,19.51,4.39,5.42,9.65,10.09,13.98,15.49,4.31-5.4,9.59-10.07,13.98-15.49,5.25-6.47,10.72-12.6,15.51-19.51,2.57-3.73,5.04-7.56,7.58-11.3,1.74-2.53,1.88-5.63,2.05-8.73.56-9.33.71-18.73.71-28.09,0-5.94.36-11.97.44-17.96.5.56,1.01,1.07,1.57,1.55,1.21-3.96.54-9.42.73-13.67.29-6.17,1.07-13.86-.86-19.78-.48-1.46-1.15-3.03-1.97-4.58,6.28,2.07,12.81,4.48,19.05,6.82,6.86,2.59,14.46,3.96,21.35,6.64.77,2.13,1.15,4.39,1.59,7.05,1.42,8.56,1.61,17.45,2.2,26.12,1.13,16.33,2.91,32.96,2.22,49.35-.27,6.7-.5,13.52-.61,20.32,2.62,5.21,5.23,10.46,8.37,15.42,1.84,2.91,7.47,8.43,7.47,8.43,0,0-.54,4.96-1.74,9.54-.79,3.06-1.7,6.07-2.51,9.12Z"/>
    </clipPath>
    <clipPath id="clippath-4">
      <path class="cls-2" d="M399.04,439.87c-14.25,8.12-32.27,8.2-48.39,7.45-2.26-.1-4.5-.13-6.74-.08.13-6.72.33-13.44.13-20.16-.11-4.39.1-7.12,1.3-11.34,2.32-8.2,2.97-17.1,1.88-25.51-.46-3.58-1.05-6.89-.1-10.47.8-3.04,1.72-6.05,2.51-9.12,1.21-4.58,1.74-9.54,1.74-9.54,0,0-5.63-5.52-7.47-8.43-3.14-4.96-5.74-10.21-8.37-15.42.11-6.8.34-13.62.61-20.32.69-16.39-1.09-33.01-2.22-49.35-.59-8.67-.79-17.56-2.2-26.12-.44-2.66-.82-4.92-1.59-7.05,1.59.63,3.16,1.32,4.65,2.11,3.54,1.86,6.07,5.07,7.85,8.66l.02.02c2.24,1.63,4.61,3.16,6.74,5,3.89,3.35,7.68,6.82,11.39,10.36,8.83,8.41,13.77,19.07,17.6,30.52,2.14,6.32,4.88,12.43,6.87,18.8,1.93,6.11,3.01,12.56,4.16,18.86,2.07,11.28,5.86,22.54,5.36,34.09-.46,10.86-1.9,21.39-2.01,32.25v.02c1.72,4.71,3.39,9.4,4.04,14.46,1.24,9.79,2.36,20.26,2.22,30.29Z"/>
    </clipPath>
    <clipPath id="clippath-5">
      <path class="cls-1" d="M321.72,135.2c-.44-.71-.84-1.55-1.44-2.07-1.3-1.15-3.37-2.07-4.92-2.91-3.64-1.95-7.54-3.31-11.22-5.13-2.83-1.4-6.32-.86-9.65-.38-1.11.17-2.18.33-3.22.4-4.81.36-9.73.25-14.57.33-23.38.29-46.74-.92-70.16-1.15-.82-.02-1.65-.04-2.47-.04-6.68-.06-11.64,1.11-17.31,4.9-2.2,1.47-5.11,3.18-7.1,5.38-1.51-2.68,2.89-6.59,4.46-8.23,3.27-3.43,4.31-7.7,4.79-12.27.86-8.25.75-16.72,2.91-24.82,2.83-10.63,9.04-20.01,17.22-27.4-.25-.57-.46-1.13-.54-1.49-.29-1.42.46-2.24,1.69-3.26.65-.54,2.41-2.07,3.24-2.14.88-.08,1.74.69,2.49,1.49,5.9-4.06,12.47-7.14,19.28-9.06-.06-.52-.1-1.03-.11-1.55-.08-2.8,2.28-3.31,4.69-4.02,3.37-.98,6.74-1.11,10.15-1.13h2.09c3.41.02,6.76.13,10.15,1.13,2.41.71,4.77,1.23,4.69,4.02-.02.52-.06,1.03-.1,1.55,6.82,1.91,13.37,5,19.26,9.06.75-.8,1.61-1.57,2.49-1.49.82.08,2.59,1.61,3.24,2.14,1.23,1.01,1.97,1.84,1.69,3.26-.08.36-.27.9-.54,1.47,8.16,7.39,14.38,16.79,17.22,27.42,2.16,8.1,2.07,16.56,2.91,24.82.48,4.58,1.51,8.85,4.79,12.27,1.72,1.8,6.8,6.26,3.93,8.9Z"/>
    </clipPath>
  </defs>
  <g>
    <path class="cls-2" d="M320.28,133.13c-1.3-1.15-3.37-2.07-4.92-2.91-3.64-1.95-7.54-3.31-11.22-5.13-2.83-1.4-6.32-.86-9.65-.38-1.11.17-2.18.33-3.22.4-4.81.36-9.73.25-14.57.33-23.38.29-46.74-.92-70.16-1.15-.82-.02-1.65-.04-2.47-.04-6.68-.06-11.64,1.11-17.31,4.9-2.2,1.47-5.11,3.18-7.1,5.38.19.34.48.65.88.96,3.14,1.7,7.81,3.47,12.85,4.96,0,0,58.35,12.51,113.61.44,5.61-1.59,10.92-3.52,14.38-5.4l.34-.29c-.44-.71-.84-1.55-1.44-2.07Z"/>
    <g>
      <g>
        <path class="cls-10" d="M306.42,155.44c-1.3,4.06-3.58,8.44-6.63,11.49-1.69,1.69-4.96,3.31-7.89,3.73-.67,5.15-1.76,10.21-3.79,14.57-2.57,5.53-6.89,10.21-11.83,14.09,0,2.83.04,5.67.11,8.52.06,2.89.13,5.8.19,8.69-2.89,3.14-5.57,6.26-8.96,9.04-3.33,2.74-6.3,5.69-9.29,8.79-2.57,2.68-5.23,5.07-6.34,8.69-1.19,3.83-1.36,7.7-1.99,11.6-.63-3.91-.82-7.77-1.99-11.6-1.11-3.62-3.79-6.01-6.36-8.69-2.99-3.1-5.96-6.05-9.29-8.79-3.12-2.57-5.65-5.44-8.31-8.33,0-3.22.04-6.43,0-9.69,0-3.14-.06-6.28-.25-9.4-4.33-3.64-8.1-7.93-10.4-12.93-2.01-4.35-3.1-9.36-3.77-14.46-3.2-.04-7.24-1.9-9.19-3.85-3.04-3.04-5.32-7.43-6.63-11.49-1.46-4.46-1.88-10.26-.44-14.99.23-.79.52-1.53.86-2.24,2.01-4.21,8.31-6.43,12.12-3.94-.3-1.22-1.37-9.75-1.42-11.75-.32-12.34,5.46-24.35,14.86-32.29,9.59-8.11,20.69-9.88,32.81-10.36,16.91-.68,34.71,8.48,40.82,24.41,1.57,4.08,2.13,14.34,2.12,18.7,0,2.58-.34,7.33-1.06,10.95,3.85-1.91,9.59.29,11.51,4.29.4.84.73,1.74,1,2.68,1.26,4.63.8,10.23-.57,14.55Z"/>
        <g class="cls-14">
          <path class="cls-15" d="M289.97,106.69c.38,2.06.39,4.29-.13,6.34-.5,1.97-1.92,3.37-2.56,5.16,3.27,6.94,4.24,18.35,4.62,24.92.42-.17.83-.34,1.25-.5.57-3.56.94-6.68,1.34-8.7.65-3.33,2.33-6.77,3-10.09,1.14-5.69,1.64-11.44,1.59-17.25-.07-8.44-1.54-16.47-5.61-23.89-3.86-7.03-10.79-11.58-18.23-14.26-7.6-2.74-15.42-3.19-23.39-3.36-8.38-.18-17.01,2.59-25.05,4.72-6.65,1.76-13,6.89-16.77,12.55-3.93,5.9-5.82,11.68-6.54,18.67-.8,7.67-1.14,15.51.14,23.15.63,3.8,1.86,6.26,2.75,10.1.48,2.06,1.01,6.2,1.59,10.13.54.17,1.09.34,1.62.52.37-7.98,1.01-16.84,3.32-22.86-1.02-.63-2.14-2.55-2.85-3.54-.86-1.22-.83-2.53-.63-3.97.46-3.33,1.63-6.8,3.22-9.74,1.42-2.62,3.35-4.99,6.29-5.74,2.09-.54,4.07-.26,6.09.26,1.48.38,3,.5,4.49.78,5.11.97,9.98,2.03,15.22,1.88,9.31-.28,18.6-.87,27.87-1.74,5.8-.55,15.96-1.24,17.37,6.46Z"/>
          <circle class="cls-12" cx="230.43" cy="144.78" r="3.86"/>
          <circle class="cls-12" cx="270.28" cy="144.78" r="3.86"/>
          <path class="cls-12" d="M262.67,179.4c-.13.03-.25.07-.38.12-.21.09-.37.26-.55.4-.1.08-.18.14-.31.23-.16.11-.33.22-.5.33-.62.42-1.26.82-1.92,1.17-.34.18-.68.35-1.04.5-.03.01-.19.08-.07.03.11-.05-.02,0-.03.01-.09.04-.18.07-.27.11-.19.08-.39.15-.58.22-.73.28-1.48.51-2.24.69-.37.09-.75.17-1.13.23-.17.03-.35.07-.53.08.21-.02.05,0-.06,0-.1.01-.2.02-.29.03-.75.07-1.5.07-2.25.05-.92-.03-1.84-.1-2.75-.21-.03,0-.23-.03-.1-.01.12.02-.04,0-.05,0-.11-.02-.23-.03-.34-.05-.24-.04-.48-.08-.72-.12-.46-.09-.93-.19-1.38-.3-.5-.13-1-.28-1.5-.44-.25-.08-.49-.16-.74-.26-.12-.05-.24-.09-.36-.14-.05-.02-.09-.04-.14-.05-.17-.07.03.02-.07-.03-.29-.13-.57-.26-.86-.38-.1-.04,0,0,.01,0-.08-.03-.15-.07-.22-.1-.12-.05-.24-.11-.36-.17-.25-.12-.5-.27-.76-.38s-.54-.19-.81-.29-.61.07-.75.31c-.16.27-.08.57.1.81.14.18.28.36.44.52.21.21.48.38.72.55.4.28.81.55,1.25.76.93.45,1.89.83,2.88,1.12,1.91.54,3.91.81,5.9.91,1.66.08,3.29,0,4.93-.35s3.26-.92,4.74-1.75c.83-.47,1.59-1.01,2.26-1.69.32-.33.59-.72.83-1.11.11-.17.25-.37.31-.57s.03-.42,0-.62c-.02-.13-.18-.2-.29-.17h0Z"/>
          <path class="cls-12" d="M255.07,137.94c-.29.58-.42,1.29-.52,1.93-.12.75-.23,1.5-.29,2.27-.1,1.38-.13,2.78-.09,4.17.04,1.31.25,2.52.81,3.71.47.99,1.18,1.87,1.96,2.63s1.59,1.35,2.43,1.97c.04.03.08.06.12.09.02.02.23.17.06.04-.15-.11-.01,0,.02.02.05.04.1.08.15.12.17.14.34.29.5.44s.3.31.44.47c.08.1,0,.09-.06-.08.01.03.06.08.08.12.07.1.13.2.18.3.03.05.19.36.09.18s.04.14.06.2c.03.1.05.19.07.29.06.25-.01-.22,0-.05,0,.07.01.13.01.2.01.26-.03.5-.04.76,0-.32,0,0-.02.1-.03.14-.06.27-.09.41-.06.24-.14.48-.23.72-.04.1-.07.22-.12.32.14-.24.03-.08,0,0-.04.08-.07.16-.11.23-.23.47-.49.93-.76,1.38-1.25,2.05-2.84,3.88-3.66,6.18-.12.35.11.75.43.88.35.14.73.02.93-.31.13-.21.26-.41.4-.6.06-.09.13-.18.2-.27.04-.06.08-.11.12-.17.02-.02.16-.21.11-.14-.07.1.09-.12.08-.11.04-.04.07-.09.11-.13.07-.09.14-.18.22-.26.18-.22.37-.45.55-.67.73-.87,1.45-1.75,2.12-2.68,1.31-1.82,2.47-4.1,2.07-6.41-.17-1.02-.8-1.94-1.54-2.64-.39-.37-.83-.7-1.26-1.02-.17-.13-.35-.26-.52-.39-.09-.07-.18-.14-.28-.21-.08-.06-.08-.12.07.05-.04-.05-.13-.1-.18-.14-.4-.32-.78-.67-1.14-1.04-.18-.19-.36-.38-.53-.58-.07-.08-.16-.17-.22-.27.15.25.06.08.01.01s-.1-.14-.15-.21c-.13-.2-.26-.4-.37-.6-.06-.11-.12-.22-.17-.33-.02-.05-.09-.14-.09-.19,0,.1.09.22.01.02-.2-.51-.32-1.03-.4-1.57,0-.03-.02-.18-.03-.18.02.16.03.19.01.09,0-.05-.01-.11-.02-.16-.02-.19-.04-.38-.05-.57-.03-.38-.06-.77-.08-1.15-.04-.81-.06-1.62-.07-2.44s-.05-1.55-.14-2.32-.17-1.68-.53-2.4c-.13-.26-.56-.26-.7,0h0Z"/>
          <path class="cls-12" d="M243.35,129.25c-.02-.7-.25-1.26-.71-1.8-.13-.15-.27-.31-.41-.45-.42-.4-.95-.7-1.46-.99-.91-.51-1.89-.89-2.88-1.21-.8-.26-1.62-.47-2.45-.63-1.04-.2-2.11-.37-3.17-.41-1.89-.07-3.77.15-5.61.58-1.66.38-3.23.98-4.76,1.74-.38.19-.76.37-1.13.57-.48.25-.9.63-1.32.96-.34.27-.7.54-1.02.84s-.64.65-.97.97c-.69.68.02,1.79.92,1.58,1.41-.34,2.86-.57,4.24-1.02s2.74-.71,4.14-.9l-.61.08c1.2-.16,2.4-.22,3.61-.18,1.28.04,2.55.07,3.83.24l-.71-.1c2.2.3,4.3,1,6.34,1.86l-.62-.26c.47.2.92.43,1.42.54.23.05.44.1.67.13.33.04.67.04,1-.05.21-.06.42-.18.62-.27.65-.29,1.06-1.15,1.05-1.82h0Z"/>
          <path class="cls-12" d="M259.47,131.07c.42.19.83.38,1.31.36.33-.01.66-.1.98-.17.5-.11.95-.34,1.42-.54l-.62.26c2.04-.86,4.14-1.56,6.34-1.86l-.71.1c1.28-.17,2.55-.21,3.83-.24,1.21-.03,2.41.02,3.61.18l-.61-.08c1.39.19,2.8.46,4.14.9s2.83.68,4.24,1.02c.9.22,1.6-.9.92-1.58-.56-.55-1.1-1.1-1.71-1.59-.4-.32-.8-.63-1.21-.94-.3-.23-.66-.39-1-.55-1.51-.75-3.05-1.42-4.69-1.85-1.81-.47-3.68-.74-5.55-.73-1.9,0-3.83.34-5.65.87-1.07.31-2.18.69-3.16,1.22-1.36.72-2.88,1.7-2.92,3.42-.02.68.4,1.54,1.05,1.82h0Z"/>
          <path class="cls-12" d="M206.59,150.28c-.6,1.47-.53,3.14-.57,4.7s.02,3.16.12,4.73c.2,3.16.54,6.32,1.15,9.43.16.85.35,1.68.58,2.51.12.43.23.87.39,1.29s.37.85.57,1.27c.25.51,1.1.27,1.07-.29-.04-.82-.12-1.61-.25-2.42-.12-.76-.24-1.52-.36-2.28-.26-1.57-.42-2.87-.61-4.47-.36-3.06-.5-6.14-.7-9.22-.06-.86-.13-1.73-.18-2.59-.05-.91-.18-1.83-.52-2.68-.13-.33-.54-.33-.68,0h0Z"/>
          <path class="cls-12" d="M294.17,150.28c-.58,1.46-.54,3.1-.66,4.65s-.19,3.12-.29,4.67-.23,3.07-.4,4.6c-.09.78-.19,1.56-.29,2.34-.05.38-.08.62-.12.9-.05.39-.11.78-.17,1.17-.13.85-.28,1.7-.41,2.56-.07.48-.17.96-.22,1.44-.05.43-.06.87-.08,1.31-.03.56.83.8,1.07.29.35-.73.65-1.46.87-2.24s.4-1.51.56-2.28c.32-1.6.59-3.2.79-4.82.37-3.09.63-6.22.61-9.33,0-.86-.05-1.73-.08-2.59-.03-.91-.16-1.83-.51-2.68-.13-.33-.54-.33-.68,0h0Z"/>
          <path class="cls-12" d="M201.43,158.71c-.31-.59-.65-1.17-.93-1.77-.13-.28-.27-.55-.4-.83-.07-.15-.13-.29-.2-.44l-.03-.07c.06.14.04.1-.06-.15-.04-.08-.08-.17-.12-.25-.13-.27-.26-.55-.38-.82.09.21-.01-.03-.02-.06-.03-.07-.06-.14-.09-.22-.07-.17-.13-.34-.19-.51-.21-.59-.41-1.18-.58-1.78s-.32-1.22-.43-1.84c-.05-.29-.1-.58-.15-.86-.01-.08-.02-.16-.03-.24-.04-.27.03.23,0-.04-.02-.19-.05-.37-.07-.56-.1-.94-.16-1.89-.11-2.84,0-.18.02-.36.04-.54,0-.1.02-.2.03-.3,0-.05.01-.1.02-.15.03-.28-.03.21,0,.03.06-.42.13-.83.24-1.24s.22-.81.38-1.2c.03-.07.12-.24-.03.07.02-.04.03-.08.05-.12.04-.08.08-.17.12-.25.1-.19.2-.37.32-.55.05-.08.12-.15.17-.23,0,0-.18.22-.08.1.03-.03.06-.07.09-.11.13-.15.31-.26.43-.41-.15.19-.17.13-.07.06.04-.03.07-.05.11-.08.06-.04.13-.08.19-.12.04-.02.08-.04.12-.06.1-.05.18-.02-.09.03.1-.02.21-.08.31-.1.09-.03.19-.04.28-.06.15-.04-.13.02-.14.02.05,0,.1-.01.15-.01.23-.02.46.01.69.02-.32,0-.14-.02-.05,0,.06.01.12.02.17.04.09.02.18.05.28.08.05.02.11.04.16.05.2.07-.23-.11-.05-.02.11.06.23.11.33.18.05.03.09.06.13.09.15.1-.2-.17,0,0,.08.07.16.14.24.22.09.09.18.19.26.29.04.04.07.09.1.13-.2-.24-.02-.03.02.03.31.43.54.9.76,1.39.02.05.05.11.07.16.08.19-.07-.18,0,.01.05.13.11.26.16.39.1.26.19.52.28.78.17.5.35.99.56,1.47.13.3.55.39.82.27.32-.14.44-.44.38-.78-.33-1.96-.69-4.22-2.13-5.7-1.57-1.62-4.24-1.6-5.83-.04-1.39,1.37-1.88,3.46-2.07,5.34-.08.83-.09,1.67-.02,2.5.11,1.41.31,2.83.64,4.21s.78,2.63,1.4,3.87c.3.61.63,1.18,1.03,1.72.47.62.84,1.07,1.4,1.64.24.25.5.47.77.69.36.29.89-.06.66-.51h0Z"/>
          <path class="cls-12" d="M297.8,161.59c1.28-1.2,2.36-2.59,3.28-4.07s1.59-3.25,2.1-4.95c.71-2.34,1.1-4.79,1.01-7.24-.04-1.05-.17-2.11-.37-3.14s-.47-2-.93-2.91c-.41-.81-1.01-1.59-1.81-2.06-.86-.51-1.91-.55-2.85-.25-1.35.42-2.53,1.3-3.16,2.58-.67,1.35-.83,2.83-.98,4.3-.02.17-.03.33-.05.5,0,.03-.03.2-.01.1-.01.09-.03.18-.04.27-.06.35.09.7.45.8s.7-.12.8-.45c.38-1.26.52-2.58.91-3.84.05-.15.1-.3.16-.45.02-.05.08-.2.03-.08.04-.09.08-.18.12-.26.06-.13.13-.25.21-.38.04-.07.09-.14.14-.21.02-.03.04-.06.06-.09-.05.06-.05.05,0,0,.1-.12.21-.23.32-.34.05-.05.11-.1.16-.15.1-.08-.1.07,0,0,.04-.03.08-.06.12-.09.25-.17.51-.3.78-.43.15-.07-.14.05,0,0,.05-.02.1-.04.16-.06.12-.04.23-.08.35-.11.1-.03.21-.05.31-.07.17-.03-.09,0-.04,0,.06,0,.12-.01.18-.02.09,0,.19,0,.28,0,.04,0,.08,0,.12,0,.12,0-.23-.05-.03,0,.08.02.16.03.23.06.04.01.09.03.13.04.15.05.03.04-.05-.02.11.1.32.19.45.26.04.03-.17-.14-.05-.04.03.03.07.06.11.09.07.06.14.13.2.2.03.03.05.06.08.09.1.11-.12-.17-.04-.05.06.08.12.16.17.25.11.17.21.35.29.53.03.07.07.23.13.28-.06-.05-.08-.2-.02-.05.02.06.05.12.07.18.08.2.15.41.21.61.14.45.24.91.33,1.37.04.23.06.46.11.69-.07-.34,0,.04.02.14.01.12.03.25.04.37.04.46.07.92.09,1.39.03.8.03,1.6-.02,2.4-.01.15-.02.31-.04.46-.01.12-.03.23-.04.34-.01.12,0-.04,0-.06,0,.04-.01.09-.02.13-.02.12-.03.24-.05.36-.12.8-.28,1.6-.46,2.39s-.4,1.6-.66,2.38c-.13.4-.27.8-.42,1.19-.07.19-.15.38-.22.56-.02.04-.04.09-.05.13,0-.02.05-.12,0-.02-.05.11-.1.23-.15.34-.1.22-.2.43-.29.65,0,.02-.08.2-.04.1.04-.09-.02.06-.03.06-.04.1-.09.2-.13.3-.17.38-.36.76-.55,1.13-.38.72-.8,1.41-1.27,2.07-.22.32-.46.62-.7.92-.48.58.27,1.37.84.84h0Z"/>
          <path class="cls-12" d="M272.49,201.9c-.59.35-1.2.68-1.81,1s-1.22.66-1.83,1.02c-1.21.71-2.4,1.42-3.67,2.02-.64.3-1.29.6-1.94.88.16-.07-.01,0-.07.03-.08.03-.15.06-.23.09-.18.07-.36.14-.55.21-.33.13-.65.24-.98.36-1.35.47-2.74.85-4.14,1.14-.69.14-1.39.26-2.09.36-.03,0-.21.03-.08.01.12-.02-.02,0-.04,0-.08.01-.17.02-.25.03-.18.02-.37.04-.55.06-.35.04-.71.07-1.06.09-1.45.1-2.91.11-4.37.02-.73-.04-1.47-.12-2.19-.21-.12-.02.04,0,.05,0-.04,0-.09-.01-.13-.02-.09-.01-.17-.02-.26-.04-.19-.03-.37-.06-.56-.09-.37-.06-.75-.13-1.12-.21-1.46-.3-2.89-.71-4.29-1.22-.37-.13-.73-.27-1.09-.42-.08-.03-.17-.07-.25-.1-.1-.04.01,0,.03.01-.04-.02-.08-.04-.12-.05-.18-.08-.36-.16-.54-.24-.71-.32-1.42-.64-2.12-1-1.42-.73-2.8-1.58-4.13-2.47-.33-.22-.67-.44-1.01-.67-.62-.42-1.31.51-.79,1.02,2.38,2.33,5.29,4.11,8.36,5.37,2.87,1.18,5.91,1.91,8.99,2.22s6.06.16,9.04-.37,5.75-1.43,8.43-2.68c1.3-.61,2.55-1.36,3.74-2.16.15-.1.3-.2.44-.31.03-.02.07-.05.1-.07-.03.02.26-.2.15-.12s.18-.14.15-.12c.04-.03.09-.07.13-.1.28-.22.57-.43.82-.67.5-.5.96-1.05,1.4-1.6.21-.27.43-.54.63-.82.11-.14-.1-.32-.24-.24h0Z"/>
        </g>
      </g>
      <g>
        <path class="cls-2" d="M169.84,234.43c-.75,2.13-1.15,4.39-1.59,7.05-1.42,8.56-1.61,17.45-2.2,26.12-1.13,16.33-2.89,32.96-2.22,49.35.27,6.7.5,13.52.61,20.32-2.62,5.21-5.23,10.46-8.35,15.42-1.84,2.91-7.49,8.43-7.49,8.43,0,0,.54,4.96,1.74,9.54.8,3.06,1.72,6.07,2.53,9.12.94,3.58.34,6.89-.11,10.47-1.09,8.41-.42,17.31,1.9,25.51,1.19,4.21,1.4,6.95,1.28,11.34-.25,9.15.17,18.31.23,27.44-2.85-.08-5.73-.29-8.58-.65-8.46-1.09-14.78-3.33-22.42-7.18-7.81-3.93-15.74-7.81-24.22-9.71.1-9.13,1.09-18.56,2.24-27.4.63-5.06,2.3-9.75,4.02-14.46v-.02c-.11-10.86-1.55-21.39-2.01-32.25-.48-11.55,3.31-22.81,5.38-34.09,1.15-6.3,2.22-12.75,4.14-18.86,1.99-6.38,4.75-12.49,6.87-18.8,3.85-11.45,8.77-22.12,17.62-30.52,3.7-3.54,7.49-7.01,11.37-10.36,2.13-1.84,4.52-3.39,6.76-5.02v-.02c1.82-3.58,4.35-6.78,7.87-8.64,1.49-.79,3.04-1.47,4.63-2.11Z"/>
        <g class="cls-5">
          <path class="cls-12" d="M157.68,240.27c-.06.19-.15.33-.21.56-.07.27-.15.54-.24.81-.2.56-.39,1.13-.62,1.78-.4,1.14-.83,2.28-1.2,3.43-.55,1.7-1.16,3.39-1.74,5.09s-1.11,3.47-1.57,5.24c-.93,3.61-1.75,7.25-2.42,10.92-.34,1.85-.64,3.7-.89,5.56s-.48,3.71-.53,5.59c-.06,2.03-.04,4.07-.05,6.11s-.03,4.02-.28,6.01c-.08.61.91.72,1.06.14.45-1.8.7-3.63.81-5.48s.12-3.62.18-5.43c.13-3.68.61-7.26,1.24-10.87s1.46-7.39,2.38-11.05c.45-1.78.93-3.55,1.51-5.29s1.2-3.41,1.74-5.14c.43-1.38.92-2.75,1.29-4.15.19-.73.38-1.46.41-2.22.01-.3.02-.61,0-.91s-.14-.54-.3-.78c-.15-.22-.49-.19-.57.08h0Z"/>
          <path class="cls-12" d="M148.33,296.56c-.05.55-.07,1.1-.2,1.63s-.1,1.14-.12,1.7c-.04,1.11-.08,2.22-.1,3.33-.04,2.21-.05,4.42-.02,6.63.07,4.39.22,8.77.42,13.15.1,2.17.2,4.33.24,6.5s.05,4.32.08,6.49c.05,4.28.14,8.57.65,12.83s1.48,8.22,1.89,12.37c.05.51.08,1.02.11,1.52.04.86,1.24.84,1.32,0,.38-4.18-.62-8.35-1.22-12.46-.29-1.97-.48-4.15-.6-6.23s-.18-4.27-.21-6.41c-.06-4.32-.04-8.64-.23-12.95-.19-4.38-.33-8.77-.48-13.15-.07-2.21-.14-4.41-.23-6.62-.05-1.11-.08-2.22-.14-3.32-.03-.55-.06-1.11-.09-1.66s0-1.15-.14-1.7-.16-1.08-.2-1.63c-.04-.46-.68-.46-.72,0h0Z"/>
          <path class="cls-12" d="M126.62,319.95c.5,1.11,1.2,2.12,1.84,3.14s1.3,2.01,1.98,3c1.37,2.02,2.86,3.96,4.39,5.85s3.19,3.69,4.89,5.44c.84.87,1.69,1.73,2.51,2.62.41.44.81.89,1.2,1.35.19.22.38.45.56.68.21.26.31.39.48.61,1.59,2.11,2.95,4.38,4.91,6.18.34.31.88.34,1.22,0s.33-.89,0-1.22c-1.6-1.6-2.75-3.51-4.07-5.38-1.41-2.01-3.04-3.83-4.73-5.61s-3.28-3.57-4.84-5.42c-.77-.91-1.52-1.84-2.26-2.78-.14-.17-.37-.47-.45-.58-.11-.14-.35-.46-.51-.67-.4-.53-.81-1.06-1.22-1.58-.83-1.05-1.56-2.05-2.43-3.13s-1.65-2.2-2.64-3.14c-.46-.44-1.07.11-.83.64h0Z"/>
          <path class="cls-12" d="M151.19,394.13c-.52.14-.98.43-1.47.67s-.96.52-1.44.77c-.98.51-1.94,1.07-2.91,1.6-1.96,1.07-3.98,2.03-5.99,3s-3.99,1.93-5.92,3.01-3.99,2.34-6.01,3.49c-1.13.64-2.27,1.27-3.43,1.86-.55.28-1.11.55-1.68.81s-1.19.51-1.74.84c-.36.21-.51.67-.34,1.05.18.41.56.55.99.49,1.15-.17,2.26-.73,3.31-1.21s2.11-1.02,3.13-1.59c2.04-1.14,4.03-2.36,6.06-3.53,3.88-2.23,7.99-4.02,11.9-6.18,1.09-.6,2.17-1.24,3.19-1.96.52-.37,1.03-.79,1.51-1.21.45-.4.94-.84,1.24-1.37.15-.27-.1-.6-.4-.52h0Z"/>
          <path class="cls-12" d="M157.72,406.29c-3.45,6.55-7.1,13-10.89,19.36-1.88,3.17-3.83,6.3-5.85,9.39-.98,1.5-1.99,2.99-2.92,4.53s-1.86,3.13-2.77,4.7c-1,1.74-1.99,3.5-3,5.23-.51.87-1.02,1.73-1.55,2.59s-1.13,1.75-1.57,2.7c-.17.37-.14.79.21,1.05.31.23.79.24,1.07-.06.66-.71,1.19-1.52,1.71-2.34.47-.76.94-1.52,1.39-2.29.93-1.57,1.84-3.15,2.74-4.74s1.77-3.1,2.72-4.61,2.02-3.04,3.02-4.57c4.07-6.21,7.86-12.59,11.32-19.15,1.93-3.66,3.66-7.43,5.3-11.23.12-.27.08-.59-.2-.76-.25-.15-.62-.07-.76.2h0Z"/>
          <path class="cls-12" d="M154.65,325.76c.19.37.49.67.77.97s.56.61.84.91.56.63.83.95c.14.17.27.33.4.5.02.02.1.14,0,0,.03.04.06.08.1.13.06.09.13.17.19.26,1.06,1.42,2.08,2.89,3.24,4.23,1.25,1.44,2.66,2.76,4.08,4.04s2.98,2.57,4.5,3.82c1.73,1.41,3.48,2.8,5.18,4.25.3.26.74.3,1.04,0s.28-.75,0-1.04c-1.39-1.42-2.83-2.76-4.33-4.06s-3-2.58-4.48-3.9-2.92-2.67-4.25-4.14c-1.14-1.26-2.14-2.63-3.22-3.95-.61-.75-1.28-1.47-1.98-2.13-.37-.35-.76-.66-1.19-.94s-.88-.51-1.37-.54c-.33-.02-.49.36-.36.62h0Z"/>
        </g>
      </g>
      <g>
        <path class="cls-2" d="M291.85,259c-.56-.48-1.07-1-1.57-1.55-.08,5.99-.44,12.03-.44,17.96,0,9.36-.15,18.77-.71,28.09-.17,3.1-.31,6.2-2.05,8.73-2.55,3.73-5.02,7.56-7.58,11.3-4.79,6.91-10.26,13.04-15.51,19.51-4.39,5.42-9.67,10.09-13.98,15.49-4.33-5.4-9.59-10.07-13.98-15.49-5.27-6.47-10.74-12.6-15.51-19.51-2.57-3.73-5.04-7.56-7.6-11.3-1.74-2.53-1.86-5.63-2.05-8.73-.54-9.33-.71-18.73-.71-28.09,0-5.94-.36-11.97-.44-17.94-.5.56-1.01,1.07-1.57,1.53-1.19-3.96-.54-9.42-.73-13.67-.27-6.17-1.07-13.86.86-19.78.48-1.46,1.17-3.03,1.99-4.58,1.72-3.26,4.08-6.47,6.45-8.64,2.26-2.07,4.86-3.27,7.33-4.75.04,3.24,0,6.45,0,9.67,2.66,2.89,5.19,5.76,8.31,8.33,3.33,2.74,6.3,5.69,9.29,8.79,2.57,2.68,5.25,5.07,6.36,8.69,1.17,3.83,1.36,7.7,1.99,11.6.63-3.91.8-7.77,1.99-11.6,1.11-3.62,3.77-6.01,6.34-8.69,2.99-3.1,5.96-6.05,9.29-8.79,3.39-2.78,6.07-5.9,8.96-9.04-.06-2.89-.13-5.8-.19-8.69,2.34,1.36,4.77,2.55,6.87,4.48,2.39,2.16,4.73,5.38,6.47,8.64.82,1.55,1.49,3.12,1.97,4.58,1.93,5.92,1.15,13.62.86,19.78-.19,4.25.48,9.71-.73,13.67Z"/>
        <g class="cls-8">
          <path class="cls-12" d="M242.74,256.67c-.18-.37-.35-.75-.58-1.09s-.47-.69-.7-1.04c-.51-.74-1.06-1.44-1.65-2.13-1.11-1.31-2.29-2.57-3.56-3.73s-2.55-2.15-3.91-3.1-2.85-1.76-4.48-2.05c-.8-.14-1.6-.16-2.39.06-.66.19-1.28.53-1.84.92-1.35.94-2.64,1.99-3.91,3.03-2.78,2.27-5.27,4.82-7.71,7.44-1.36,1.46-2.71,2.92-4.03,4.42s-2.7,3.15-3.84,4.87c-.47.71.6,1.53,1.17.91,2.37-2.57,4.61-5.25,7.01-7.79,2.39-2.53,4.79-5.04,7.44-7.29,1.27-1.08,2.55-2.08,3.81-3.05.52-.4,1.04-.82,1.61-1.15.13-.08.27-.15.41-.22.05-.02.09-.04.14-.06-.24.1,0,0,.05-.01.15-.05.29-.09.44-.13.06-.01.13-.02.19-.04.07-.01.05,0-.07,0,.05,0,.11-.01.16-.01.17-.01.34,0,.51,0,.09,0,.18.01.27.03-.05,0-.18-.03.02,0,.4.08.8.18,1.19.32.1.03.19.07.28.1,0,0,.31.12.13.05.17.07.33.15.5.23.35.17.7.37,1.03.58.67.41,1.3.87,1.92,1.34s1.09.83,1.74,1.38c1.41,1.21,2.72,2.53,3.97,3.9,1.23,1.35,2.4,2.76,3.75,3.99.49.44,1.18-.11.89-.69h0Z"/>
          <path class="cls-12" d="M257.43,256.71c1.22-1.11,2.29-2.36,3.39-3.59,1.1-1.23,2.25-2.42,3.46-3.53.59-.55,1.21-1.07,1.84-1.57.27-.21-.14.11.12-.1.08-.06.16-.12.24-.19.13-.1.27-.21.4-.31.32-.24.64-.48.97-.71.63-.45,1.29-.86,1.99-1.21.16-.08.33-.16.5-.23-.18.07.13-.05.13-.05.09-.04.19-.07.28-.1.39-.13.78-.24,1.19-.32.2-.04.07-.01.02,0,.09-.01.18-.02.27-.03.17-.01.34-.01.51,0,0,0,.28.02.11,0s.09.02.1.02c.18.03.35.08.52.14.04.02.28.11.05.01.05.02.09.04.14.06.14.07.28.14.41.22.28.17.55.35.82.55,1.3.95,2.4,1.83,3.66,2.87,1.33,1.09,2.63,2.23,3.87,3.43s2.45,2.48,3.66,3.74c1.35,1.41,2.68,2.85,3.98,4.31s2.57,2.95,3.89,4.39c.57.62,1.65-.19,1.17-.91-2-3.04-4.55-5.71-7.02-8.38s-4.84-5.18-7.54-7.5c-1.35-1.16-2.76-2.23-4.16-3.31-1.12-.86-2.28-1.6-3.74-1.66-1.65-.07-3.35.68-4.74,1.51-1.42.86-2.77,1.91-4.04,2.98-1.45,1.22-2.77,2.58-4.01,4.01-.66.76-1.31,1.54-1.89,2.37-.26.37-.51.75-.77,1.13-.27.4-.48.83-.69,1.26-.28.57.4,1.14.89.69h0Z"/>
          <path class="cls-12" d="M249.79,243.77c-.1.48-.22.96-.26,1.45s-.08.99-.12,1.48c-.08,1.01-.15,2.01-.18,3.01-.05,2.01-.1,4.01-.09,6.02.03,4.01.14,8.01.27,12.02s.25,8.02.29,12.03-.02,8.06-.19,12.09-.25,8.12-.28,12.18,0,8.11.02,12.17.05,8.11.05,12.16c0,4.05-.05,8.1-.17,12.15-.12,3.98-.4,7.96-.33,11.95s.31,7.94.64,11.9c.04.52.12,1.04.19,1.56.03.23.07.45.12.67.05.2.15.45.16.65.03.36.29.67.67.67.34,0,.7-.31.67-.67-.02-.22.03-.47.05-.69.02-.27.04-.54.04-.81,0-.48,0-.96-.03-1.45-.06-.99-.11-1.98-.16-2.97-.1-1.99-.22-3.97-.28-5.96s-.09-3.96-.07-5.94.13-3.97.2-5.96c.14-4.05.19-8.09.2-12.14s-.04-8.1-.08-12.16c-.05-4.06-.09-8.11-.1-12.17s.03-8.12.14-12.18.29-8.07.28-12.12-.11-8.03-.24-12.04-.29-8.01-.45-12.02-.27-8.03-.48-12.04c-.03-.49-.06-.99-.07-1.48-.02-.46-.12-.93-.19-1.39-.02-.11-.2-.1-.22,0h0Z"/>
          <path class="cls-12" d="M296.5,291.8c-.5.05-1.01,0-1.5.08s-.94.11-1.42.13c-1.04.05-2.06.12-3.1.12s-2.11,0-3.17.02-2.1.12-3.15.17c-2.38.13-4.76.06-7.12.38-.81.11-1.73.2-2.37.77-.47.42-.59,1.05-.56,1.66.03.81.1,1.62.12,2.43.02,1.16.09,2.32.12,3.48.08,2.36.04,4.72.08,7.07s.07,4.77.07,7.15-.05,4.75-.06,7.13-.03,4.81-.05,7.21-.04,4.77.09,7.16c.03.6.07,1.19.1,1.79.05.79,1.18.79,1.23,0,.14-2.36.26-4.73.3-7.1s.08-4.69.12-7.03c.08-4.69.03-9.37-.1-14.05-.06-2.33-.11-4.66-.12-6.99s-.22-4.58-.17-6.87c0-.34,0-.69,0-1.03,0-.14,0-.28,0-.42,0-.06,0-.11.01-.17,0-.12-.05.22,0,.02.01-.05.03-.09.04-.14.04-.18-.08.17-.02.06.02-.04.11-.15,0-.03-.15.17.05-.05.06-.05,0,0-.22.14-.02.03.02-.01.04-.02.06-.03.13-.09-.08.04-.08.03.03-.06.37-.12.43-.13,1-.24,2.05-.29,3.08-.34,1.18-.06,2.35-.07,3.53-.12,1.1-.04,2.18-.15,3.28-.2,1.01-.05,2.02-.05,3.03-.07,2.05-.04,4.16-.12,6.12-.76.47-.15.91-.47,1.32-.75.23-.16.18-.62-.16-.59h0Z"/>
          <path class="cls-12" d="M203.44,292.39c.41.27.85.59,1.32.75s.93.27,1.41.37c1.04.23,2.13.28,3.2.33s2.05.06,3.07.08,2.03.09,3.04.16c2.33.17,4.68.09,7.01.34.44.05.88.1,1.31.21.14.03.27.09.41.12.03,0-.16-.09-.01,0,.02.01.05.03.08.05.12.05-.1-.12-.07-.05,0,.01.09.1.09.1-.04,0-.14-.21-.05-.04.08.14-.04-.19-.02-.06,0,.05.03.1.04.15.05.21,0-.14,0-.02,0,.05,0,.1,0,.15,0,.15,0,.29,0,.44-.01.91.01,1.82-.02,2.73-.04,1.14-.1,2.28-.13,3.42-.06,2.34-.04,4.68-.09,7.02-.1,4.68-.24,9.36-.17,14.04.03,2.34.08,4.69.12,7.03s.07,4.69.22,7.04c.04.6.07,1.19.11,1.79.05.79,1.18.79,1.23,0,.14-2.39.22-4.77.21-7.16s-.04-4.81-.05-7.21c-.03-4.76-.08-9.52-.02-14.29.03-2.37.08-4.74.08-7.1,0-1.16.05-2.32.1-3.48.04-1.08.04-2.15.11-3.23.04-.59.15-1.23-.02-1.82-.2-.7-.8-1.1-1.47-1.3-.45-.13-.92-.19-1.38-.25-.61-.08-1.22-.14-1.83-.18-1.18-.08-2.35-.1-3.53-.13s-2.3-.12-3.46-.19c-1.02-.06-2.04-.07-3.07-.07s-2.09.01-3.13-.03c-.98-.04-1.99-.07-2.96-.22-.49-.08-1-.03-1.5-.08-.34-.03-.39.43-.16.59h0Z"/>
          <path class="cls-12" d="M240.53,323.73c.2.03.4.08.6.08.17,0,.35-.04.52-.06.4-.05.79-.15,1.19-.26.69-.19,1.38-.39,2.06-.62,1.43-.47,2.82-1.06,4.2-1.67,2.7-1.18,5.3-2.57,7.95-3.84.74-.35,1.49-.7,2.24-1.04.17-.07.33-.15.5-.22.08-.04.17-.07.25-.11.03-.01.37-.16.18-.08.44-.18.88-.38,1.32-.57s.56-.81.39-1.2c-.18-.42-.68-.72-1.14-.56-2.78.98-5.44,2.34-8.09,3.62-1.32.64-2.66,1.27-3.99,1.9-.66.31-1.32.62-1.99.91-.14.06-.28.12-.42.18-.08.04-.17.07-.25.11.2-.09-.07.03-.09.04-.33.14-.67.27-1.01.41-.75.31-1.51.6-2.27.86s-1.62.46-2.31.94c-.21.15-.35.37-.31.64.03.23.21.5.46.53h0Z"/>
        </g>
      </g>
      <g>
        <path class="cls-11" d="M347.13,379.76c-.96,3.58-.36,6.89.1,10.47,1.09,8.41.44,17.31-1.88,25.51-1.21,4.21-1.42,6.95-1.3,11.34.19,6.72,0,13.44-.13,20.16-8.87.11-17.66,1.36-26.31,3.58-12.85,3.26-26.06,5.02-39.14,7.14-14.07,2.26-26.68,1.55-40.64-.52-11.32-1.67-22.31-3.14-33.66-4.25-16.03-1.55-32.06,1.74-47.99,1.32-.06-9.13-.48-18.29-.23-27.44.11-4.39-.1-7.12-1.28-11.34-2.32-8.2-2.99-17.1-1.9-25.51.46-3.58,1.05-6.89.11-10.47-.8-3.04-1.72-6.05-2.53-9.12-1.21-4.58-1.74-9.54-1.74-9.54,0,0,5.65-5.52,7.49-8.43,3.12-4.96,5.73-10.21,8.35-15.42-.11-6.8-.34-13.62-.61-20.32-.67-16.39,1.09-33.01,2.22-49.35.59-8.67.79-17.56,2.2-26.12.44-2.66.84-4.92,1.59-7.05,6.89-2.68,14.52-4.06,21.35-6.64,6.24-2.34,12.77-4.75,19.07-6.82-.82,1.55-1.51,3.12-1.99,4.58-1.93,5.92-1.13,13.62-.86,19.78.19,4.25-.46,9.71.73,13.67.56-.46,1.07-.98,1.57-1.53.08,5.97.44,12.01.44,17.94,0,9.36.17,18.77.71,28.09.19,3.1.31,6.2,2.05,8.73,2.57,3.73,5.04,7.56,7.6,11.3,4.77,6.91,10.25,13.04,15.51,19.51,4.39,5.42,9.65,10.09,13.98,15.49,4.31-5.4,9.59-10.07,13.98-15.49,5.25-6.47,10.72-12.6,15.51-19.51,2.57-3.73,5.04-7.56,7.58-11.3,1.74-2.53,1.88-5.63,2.05-8.73.56-9.33.71-18.73.71-28.09,0-5.94.36-11.97.44-17.96.5.56,1.01,1.07,1.57,1.55,1.21-3.96.54-9.42.73-13.67.29-6.17,1.07-13.86-.86-19.78-.48-1.46-1.15-3.03-1.97-4.58,6.28,2.07,12.81,4.48,19.05,6.82,6.86,2.59,14.46,3.96,21.35,6.64.77,2.13,1.15,4.39,1.59,7.05,1.42,8.56,1.61,17.45,2.2,26.12,1.13,16.33,2.91,32.96,2.22,49.35-.27,6.7-.5,13.52-.61,20.32,2.62,5.21,5.23,10.46,8.37,15.42,1.84,2.91,7.47,8.43,7.47,8.43,0,0-.54,4.96-1.74,9.54-.79,3.06-1.7,6.07-2.51,9.12Z"/>
        <g class="cls-6">
          <path class="cls-4" d="M249.47,356.17c-.28,1.69-.42,3.29-.45,5.02s-.05,3.43-.07,5.15c-.05,3.55-.02,7.1-.01,10.65s.01,7.39.02,11.08.04,7.5.06,11.24.05,7.56.08,11.33c.03,3.72.05,7.43.06,11.15s.04,7.26.06,10.89c.02,3.45.05,6.9.07,10.35.03,3.78.09,7.55.27,11.33.2,4.21.42,8.43.66,12.64.06,1.05.12,2.09.24,3.13.11.92,1.32.92,1.44,0,.26-2.11.18-4.25.13-6.37s-.15-4.23-.25-6.34c-.19-3.98-.3-7.95-.33-11.93-.03-3.42-.08-6.84-.12-10.26s-.08-7.16-.12-10.73-.08-7.42-.1-11.14-.04-7.51-.06-11.26-.03-7.55-.05-11.32c-.01-3.7-.04-7.4-.06-11.1s-.03-7.2-.05-10.81c0-1.74-.04-3.48-.07-5.22-.01-.84-.03-1.67-.04-2.51s-.09-1.68-.12-2.51c-.03-.77-.19-1.64-.33-2.46-.07-.44-.81-.44-.88,0h0Z"/>
          <path class="cls-4" d="M166.22,372.59c-.27.26-.53.49-.84.7s-.61.43-.92.66c-.66.49-1.29,1.02-1.93,1.53-.14.11-.28.22-.43.33-.08.06-.15.12-.23.18-.08.06,0,0,.02-.01-.1.07-.19.15-.28.22-.3.24-.6.49-.91.73s-.61.48-.91.72c-.15.12-.3.24-.46.36-.08.06-.15.12-.23.18-.01.01-.12.09-.03.02.11-.08-.09.07-.09.07-1.21.94-2.43,1.87-3.6,2.86-1.1.93-2.17,1.9-3.26,2.84-.3.26-.6.51-.91.76-.15.13-.33.24-.47.38.02-.02.19-.14.04-.03-.04.03-.08.06-.12.09-.08.06-.16.12-.24.18-.68.5-1.41.93-2.05,1.5-.71.62.04,1.83.91,1.56.75-.23,1.37-.63,2-1.08s1.26-.94,1.86-1.43c1.12-.92,2.17-1.9,3.25-2.85s2.26-1.87,3.38-2.83c1.19-1.01,2.39-2.02,3.52-3.11.63-.61,1.29-1.21,1.87-1.86.3-.34.59-.68.86-1.04s.54-.66.84-.98c.41-.42-.22-1.05-.65-.65h0Z"/>
          <path class="cls-4" d="M174.43,413.82c-.15-.07-.12-.1-.04-.04s.15.14.24.19c.08.04.17.07.26.11.18.07-.04.02-.05-.02,0,.02.18.08.22.1.09.04.18.09.27.13.37.17.74.38,1.09.59.83.5,1.65,1.01,2.45,1.56,1.56,1.07,3.06,2.26,4.71,3.19,1.08.61,2.17,1.19,3.24,1.79,1.41.79,2.82,1.59,4.27,2.31.69.34,1.39.67,2.11.95.2.08.41.16.63.2.53.11,1.08-.04,1.38-.52l-.34.34h0c.44-.24.61-.88.34-1.3s-.83-.6-1.3-.34h0c.24-.03.49-.06.73-.09h-.01c-.33-.05-.34-.05-.02,0,0,0-.02,0-.03,0-.09-.02.29.16.17.07s-.27-.12-.41-.16c-.08-.02-.16-.05-.24-.07-.11-.04-.5-.21-.09-.03-.54-.24-1.08-.51-1.6-.79-1.41-.74-2.8-1.52-4.18-2.31-1.07-.61-2.13-1.23-3.21-1.8-1.61-.86-3.08-1.97-4.59-2.98-.9-.6-1.82-1.23-2.79-1.72-.47-.24-.96-.45-1.45-.63-.19-.07-.38-.12-.58-.16-.09-.02-.18-.03-.27-.05-.22-.03-.3-.04-.52,0-.08.02-.23.02.02.01-.34.01-.69.24-.76.58-.07.32.04.75.36.9h0Z"/>
          <path class="cls-4" d="M343.65,383.63s-.07-.04-.1-.05c-.06-.03-.11-.05-.18-.06-.16-.02,0,0,.01,0-.03-.01-.06-.01-.09-.02-.29-.05-.54.04-.79.15-.27.12-.54.25-.81.39-.56.28-1.09.59-1.62.92-1.09.68-2.17,1.36-3.28,2-.61.35-1.23.67-1.87.94l.23-.1c-.26.11-.53.21-.8.3-.41.14-.69.48-.7.92,0,.27.12.48.28.68.2.24.64.35.93.25,1.34-.47,2.62-1.15,3.79-1.95.58-.39,1.16-.81,1.73-1.21s1.12-.79,1.67-1.2c.3-.22.61-.44.92-.65.18-.12.36-.24.53-.39.1-.09.15-.19.21-.31,0-.01-.06.14-.03.08.01-.02.02-.04.03-.07.01-.03.03-.05.04-.08.02-.04.03-.08.03-.12.01-.08.01-.09,0-.02,0,.09,0-.02.01-.05.03-.13-.02-.3-.15-.36h0Z"/>
          <path class="cls-4" d="M289.48,347.63c-.34.2-.67.4-1,.62s-.68.46-1.01.7c-.81.55-1.55,1.2-2.32,1.8l.21-.16c-1.04.8-2.1,1.59-3.19,2.33-1.03.7-2.06,1.39-3.15,1.99-.55.3-1.1.58-1.68.82l.25-.11c-.39.17-.84.27-1.16.57s-.37.76-.21,1.12c.17.39.52.6.94.63.28.02.57-.11.83-.22.27-.11.55-.23.82-.35.43-.2.84-.41,1.26-.64.91-.5,1.79-1.05,2.64-1.63,1.86-1.26,3.62-2.68,5.35-4.12.43-.36.81-.76,1.2-1.15.18-.19.37-.37.55-.56l.13-.16-.07.1s.05-.05.07-.08c.04-.05.08-.09.12-.14.08-.1.17-.2.25-.31.21-.26.27-.6.05-.87-.2-.26-.57-.34-.86-.17h0Z"/>
          <path class="cls-13" d="M215.26,266.63c.1.36,0,.61.13.99-20.16,1.3-43.52,7.87-46.74,8.81-1.02.3-8.58,3.45-8.37,4.4-1.08-4.87-.03-11.84.61-16.76.3-2.29.73-4.63.95-6.92.13-1.38-.23-3.23.34-4.55,1.05-2.43,3.65-2.46,5.84-2.99,2.94-.71,5.78-1.98,8.68-2.85,5.74-1.72,11.59-3.09,17.55-3.99,3.3-.5,6.5-1.11,9.86-1.33,2.23-.15,6.71-1.6,8.56.02l2.57,25.18Z"/>
          <path class="cls-13" d="M215.06,306.73c.09.36-.03.61.09.98-20.23,1.47-43.9,8.22-47.16,9.18-1.03.31-8.74,3.52-8.56,4.47-.88-4.86.46-11.83,1.3-16.75.39-2.29.92-4.63,1.24-6.93.19-1.38-.09-3.23.53-4.55,1.15-2.43,3.76-2.49,5.97-3.03,2.97-.73,5.87-2.03,8.81-2.92,5.81-1.76,11.73-3.18,17.74-4.13,3.33-.53,6.56-1.16,9.93-1.41,2.23-.17,6.78-1.65,8.57-.05l1.54,25.14Z"/>
          <path class="cls-13" d="M284.75,266.63c-.1.36,0,.61-.13.99,20.16,1.3,43.52,7.87,46.74,8.81,1.02.3,8.58,3.45,8.37,4.4,1.08-4.87.03-11.84-.61-16.76-.3-2.29-.73-4.63-.95-6.92-.13-1.38.23-3.23-.34-4.55-1.05-2.43-3.65-2.46-5.84-2.99-2.94-.71-5.78-1.98-8.68-2.85-5.74-1.72-11.59-3.09-17.55-3.99-3.3-.5-6.5-1.11-9.86-1.33-2.23-.15-6.71-1.6-8.56.02l-2.57,25.18Z"/>
          <path class="cls-13" d="M284.95,306.73c-.09.36.03.61-.09.98,20.23,1.47,43.9,8.22,47.16,9.18,1.03.31,8.74,3.52,8.56,4.47.88-4.86-.46-11.83-1.3-16.75-.39-2.29-.92-4.63-1.24-6.93-.19-1.38.09-3.23-.53-4.55-1.15-2.43-3.76-2.49-5.97-3.03-2.97-.73-5.87-2.03-8.81-2.92-5.81-1.76-11.73-3.18-17.74-4.13-3.33-.53-6.56-1.16-9.93-1.41-2.23-.17-6.78-1.65-8.57-.05l-1.54,25.14Z"/>
          <path class="cls-4" d="M187.72,306.4c.04.13.08.27.12.4.07.19.19.34.31.51.22.32.42.66.66.96l-.13-.16c.43.57.85,1.15,1.27,1.74s.89,1.2,1.34,1.79c.9,1.17,1.81,2.34,2.9,3.33.31.28.65.55.99.8.13.1.26.19.4.27.06.04.13.07.2.1.26.13.57.21.85.11.1-.04.2-.08.3-.13l.2-.15c.09-.09.16-.19.2-.31.04-.08.07-.16.07-.25.03-.13.02-.26-.02-.39-.02-.12-.06-.23-.12-.34-.11-.2-.29-.32-.47-.44-.08-.06-.16-.12-.25-.17-.18-.12-.36-.24-.53-.37l.22.17c-.53-.41-1.02-.88-1.49-1.36-.52-.53-1.03-1.07-1.52-1.64s-1.01-1.17-1.51-1.77-1-1.14-1.51-1.69c-.27-.29-.56-.55-.86-.81-.14-.12-.29-.25-.44-.37-.2-.16-.45-.24-.69-.31-.29-.09-.58.2-.5.5h0Z"/>
          <path class="cls-4" d="M319.09,238.67c-.46.56-.96,1.08-1.44,1.61-.52.58-1.01,1.2-1.52,1.78-1.02,1.18-2.02,2.38-2.99,3.6-.3.37-.59.75-.88,1.14-.11.15-.22.3-.33.46-.05.07-.1.15-.16.22-.19.28-.28.61-.19.95.07.24.25.49.47.61l.24.1c.18.05.36.05.54,0,.44-.06.67-.53.9-.86.12-.17.24-.35.36-.52.26-.36.53-.71.8-1.06l-.16.21c.73-.94,1.48-1.86,2.22-2.8.42-.53.81-1.1,1.2-1.65.17-.24.34-.48.5-.73s.3-.49.44-.74c.32-.58.58-1.21.82-1.83.08-.2-.05-.47-.23-.57s-.46-.1-.61.08h0Z"/>
        </g>
      </g>
      <g>
        <path class="cls-2" d="M399.04,439.87c-14.25,8.12-32.27,8.2-48.39,7.45-2.26-.1-4.5-.13-6.74-.08.13-6.72.33-13.44.13-20.16-.11-4.39.1-7.12,1.3-11.34,2.32-8.2,2.97-17.1,1.88-25.51-.46-3.58-1.05-6.89-.1-10.47.8-3.04,1.72-6.05,2.51-9.12,1.21-4.58,1.74-9.54,1.74-9.54,0,0-5.63-5.52-7.47-8.43-3.14-4.96-5.74-10.21-8.37-15.42.11-6.8.34-13.62.61-20.32.69-16.39-1.09-33.01-2.22-49.35-.59-8.67-.79-17.56-2.2-26.12-.44-2.66-.82-4.92-1.59-7.05,1.59.63,3.16,1.32,4.65,2.11,3.54,1.86,6.07,5.07,7.85,8.66l.02.02c2.24,1.63,4.61,3.16,6.74,5,3.89,3.35,7.68,6.82,11.39,10.36,8.83,8.41,13.77,19.07,17.6,30.52,2.14,6.32,4.88,12.43,6.87,18.8,1.93,6.11,3.01,12.56,4.16,18.86,2.07,11.28,5.86,22.54,5.36,34.09-.46,10.86-1.9,21.39-2.01,32.25v.02c1.72,4.71,3.39,9.4,4.04,14.46,1.24,9.79,2.36,20.26,2.22,30.29Z"/>
        <g class="cls-7">
          <path class="cls-12" d="M342.53,243.9c-.09.4-.03.78.03,1.18.05.36.11.73.21,1.08.19.68.39,1.35.64,2.01.5,1.37.93,2.73,1.26,4.15s.56,2.88.85,4.32.57,2.88.86,4.33c.16.8.33,1.6.52,2.4s.5,1.63.8,2.42c.24.64,1.11.38,1.01-.28-.11-.75-.17-1.5-.28-2.25s-.23-1.42-.33-2.14c-.19-1.34-.35-2.84-.53-4.25-.37-2.95-.98-5.88-2.05-8.66-.31-.8-.65-1.58-1-2.36-.17-.38-.35-.74-.53-1.11s-.34-.76-.63-1.06c-.25-.27-.74-.14-.83.22h0Z"/>
          <path class="cls-12" d="M348.3,270.19c.01.77.19,1.52.28,2.29.04.4.05.8.11,1.2s.12.78.18,1.17c.2,1.46.35,2.98.48,4.46.26,3.09.35,6.21.4,9.31s.15,6.41.15,9.62c0,1.61-.03,3.22-.12,4.82-.04.81-.1,1.61-.18,2.41-.07.74-.15,1.29-.25,1.97-.25,1.73-.56,3.46-.77,5.2s-.31,3.39,0,5.06c.07.35.47.57.8.53.37-.06.62-.35.64-.72.06-1.48.16-2.95.34-4.43.17-1.38.45-2.93.69-4.38.51-3.12.76-6.25.82-9.41s0-6.51-.03-9.77-.08-6.18-.39-9.27c-.18-1.77-.42-3.53-.8-5.27-.19-.87-.39-1.71-.71-2.54s-.55-1.69-1.02-2.44c-.17-.27-.62-.17-.61.17h0Z"/>
          <path class="cls-12" d="M348.36,320.98c-.04.74-.21,1.46-.23,2.2s0,1.47.01,2.2c.04,1.43.16,2.86.28,4.28s.18,2.94.24,4.42.16,2.9.23,4.34c.15,2.95.24,5.9.08,8.85-.08,1.43-.2,2.86-.35,4.29-.08.72-.16,1.44-.25,2.16s-.17,1.3-.26,1.95c-.23,1.64-.48,3.28-.67,4.93s-.41,3.28-.29,4.91c.05.66.97.83,1.18.16.42-1.4.62-2.87.87-4.31s.46-2.84.68-4.26c.45-2.96.85-5.72,1.11-8.73s.26-5.84.16-8.77c-.1-2.93-.2-5.87-.49-8.78-.16-1.67-.42-3.33-.68-4.99-.12-.79-.26-1.57-.35-2.36-.05-.43-.1-.85-.18-1.27s-.13-.8-.13-1.22c0-.63-.93-.62-.97,0h0Z"/>
          <path class="cls-12" d="M373.01,320.72c-.8.76-1.47,1.64-2.2,2.47s-1.49,1.59-2.23,2.39c-1.49,1.62-3.06,3.18-4.64,4.71s-3.17,3.01-4.72,4.56c-1.43,1.43-3.01,2.66-4.59,3.91-.89.7-1.76,1.42-2.59,2.19-.4.38-.78.78-1.13,1.2-.39.47-.8.98-1.06,1.54-.17.38-.14.81.21,1.07.33.25.79.23,1.09-.06.36-.34.67-.73,1.02-1.08s.71-.71,1.08-1.06c.73-.69,1.5-1.34,2.29-1.97,1.57-1.25,3.2-2.43,4.64-3.83,1.57-1.52,3.13-3.07,4.69-4.61,1.57-1.55,3.13-3.11,4.57-4.77.84-.97,1.61-1.99,2.34-3.05s1.41-2.08,1.83-3.25c.13-.36-.36-.59-.61-.36h0Z"/>
          <path class="cls-12" d="M376.14,356.49c-1.25,1.54-2.57,3.02-3.81,4.56s-2.54,3.1-3.74,4.65c-2.43,3.11-4.89,6.21-7.42,9.24-2.47,2.97-5.09,5.83-7.51,8.85s-4.45,5.87-6.32,9.05c-.92,1.55-1.73,3.16-2.48,4.8-.77,1.69-1.52,3.43-1.99,5.24-.12.45-.22.9-.29,1.37-.05.33.05.65.39.79.29.12.67.03.83-.27.85-1.62,1.48-3.27,2.27-4.95s1.61-3.22,2.53-4.78,1.85-3.08,2.86-4.57c.5-.74,1.02-1.46,1.55-2.18.27-.37.54-.73.82-1.09.13-.17.27-.35.4-.52-.11.14.04-.05.07-.1.08-.11.17-.21.25-.32,2.36-3,4.91-5.83,7.35-8.77,2.56-3.09,5.06-6.22,7.43-9.46,1.16-1.58,2.27-3.17,3.33-4.82.54-.84,1.07-1.69,1.6-2.54s.97-1.72,1.46-2.58c.25-.44.51-.88.77-1.31.12-.21-.18-.46-.34-.26h0Z"/>
        </g>
      </g>
    </g>
    <g>
      <path class="cls-1" d="M321.72,135.2c-.44-.71-.84-1.55-1.44-2.07-1.3-1.15-3.37-2.07-4.92-2.91-3.64-1.95-7.54-3.31-11.22-5.13-2.83-1.4-6.32-.86-9.65-.38-1.11.17-2.18.33-3.22.4-4.81.36-9.73.25-14.57.33-23.38.29-46.74-.92-70.16-1.15-.82-.02-1.65-.04-2.47-.04-6.68-.06-11.64,1.11-17.31,4.9-2.2,1.47-5.11,3.18-7.1,5.38-1.51-2.68,2.89-6.59,4.46-8.23,3.27-3.43,4.31-7.7,4.79-12.27.86-8.25.75-16.72,2.91-24.82,2.83-10.63,9.04-20.01,17.22-27.4-.25-.57-.46-1.13-.54-1.49-.29-1.42.46-2.24,1.69-3.26.65-.54,2.41-2.07,3.24-2.14.88-.08,1.74.69,2.49,1.49,5.9-4.06,12.47-7.14,19.28-9.06-.06-.52-.1-1.03-.11-1.55-.08-2.8,2.28-3.31,4.69-4.02,3.37-.98,6.74-1.11,10.15-1.13h2.09c3.41.02,6.76.13,10.15,1.13,2.41.71,4.77,1.23,4.69,4.02-.02.52-.06,1.03-.1,1.55,6.82,1.91,13.37,5,19.26,9.06.75-.8,1.61-1.57,2.49-1.49.82.08,2.59,1.61,3.24,2.14,1.23,1.01,1.97,1.84,1.69,3.26-.08.36-.27.9-.54,1.47,8.16,7.39,14.38,16.79,17.22,27.42,2.16,8.1,2.07,16.56,2.91,24.82.48,4.58,1.51,8.85,4.79,12.27,1.72,1.8,6.8,6.26,3.93,8.9Z"/>
      <g class="cls-9">
        <path class="cls-4" d="M307.78,123.24c-1.94-.78-3.82-1.7-5.7-2.6s-3.79-1.85-5.69-2.77c-3.84-1.85-7.7-3.7-11.7-5.19-4.14-1.54-8.29-3.04-12.49-4.39s-8.15-2.56-12.34-3.26c-3.9-.65-7.87-.87-11.83-.73s-8.05.66-12.01,1.42-7.89,1.78-11.75,2.98-7.5,2.53-11.17,4.01c-3.68,1.48-7.33,3.08-10.92,4.77-1.83.86-3.62,1.78-5.37,2.79s-3.47,2.13-5.04,3.4c-.38.31-.75.61-1.11.94s-.7.69-1.07.99.16.86.55.55.82-.54,1.23-.79c.43-.27.85-.54,1.29-.8.86-.51,1.71-1.04,2.57-1.54,1.73-1,3.52-1.91,5.31-2.78s3.6-1.73,5.42-2.55c1.72-.77,3.58-1.59,5.22-2.28,3.6-1.51,7.25-2.9,10.95-4.14s7.65-2.37,11.56-3.23,7.69-1.47,11.63-1.77,7.83-.28,11.71.16c.94.11,1.77.22,2.75.39s1.91.36,2.85.58c2.1.49,4.18,1.08,6.25,1.7,4.23,1.27,8.39,2.73,12.54,4.22,1.99.71,3.97,1.42,5.92,2.23s3.81,1.67,5.7,2.52c3.84,1.72,7.66,3.48,11.72,4.63.98.28,1.96.53,2.95.76.14.03.19-.16.06-.22h0Z"/>
        <path class="cls-4" d="M233.68,45.8c0,.19-.03.41,0,.6.03.2.08.39.11.59.06.41.11.81.16,1.22.1.77.16,1.55.21,2.33.06.82.17,1.64.24,2.46s.14,1.67.24,2.51c.21,1.74.52,3.45.84,5.18.33,1.82.66,3.63.98,5.45,1.29,7.32,2.54,14.65,3.75,21.99.68,4.12,1.25,8.25,1.84,12.38.05.38.52.61.86.56.36-.05.7-.38.68-.77-.23-3.78-.73-7.54-1.28-11.28s-1.16-7.36-1.8-11.04-1.26-7.35-1.91-11.03c-.32-1.84-.65-3.67-.99-5.51-.32-1.72-.68-3.43-.92-5.16-.1-.7-.22-1.78-.32-2.54-.13-.99-.26-1.98-.41-2.96-.14-.89-.37-1.76-.62-2.63-.12-.43-.27-.84-.43-1.25-.09-.23-.19-.45-.28-.68s-.23-.38-.37-.57c-.17-.23-.58-.18-.57.15h0Z"/>
        <path class="cls-4" d="M268.08,43.61c-.08.17-.22.36-.27.53-.05.19-.06.41-.1.61-.08.45-.18.89-.28,1.33-.2.84-.42,1.67-.63,2.51-.44,1.74-.93,3.47-1.39,5.21-.95,3.57-1.57,7.22-2.24,10.85s-1.36,7.53-2.07,11.29-1.39,7.46-2.02,11.21c-.35,2.08-.68,4.16-.97,6.25s-.6,4.29-.69,6.44c-.02.38.31.72.67.76.35.04.8-.17.85-.56.28-1.87.49-3.74.77-5.61s.59-3.77.93-5.65c.66-3.74,1.42-7.45,2.14-11.18s1.38-7.52,2.07-11.28c.34-1.87.69-3.73,1.04-5.6s.66-3.6,1.08-5.38c.45-1.92.99-3.83,1.37-5.77.2-1,.36-1.99.44-3,.04-.49.07-.98.08-1.47,0-.24.01-.49,0-.73,0-.26-.11-.46-.19-.7s-.46-.35-.59-.08h0Z"/>
        <path class="cls-4" d="M206.75,60.79s.01.02.02.03c.01.02.02.04,0,0v-.09c-.02.07,0,.13.03.2.01.03.03.06.04.09l-.03-.07s.01.03.02.04l.03-.24h0c-.04.09-.06.17-.05.26s.05.16.11.23h0s-.04-.04-.06-.07c.05.08.1.16.15.24.07.12.17.23.26.34l-.08-.11c.29.38.53.79.76,1.21s.45.86.68,1.29c.15.28.29.58.5.82.08.09.18.15.29.19.11.06.23.08.35.08l.24-.03c.12-.03.22-.08.31-.16.07-.04.12-.09.16-.16.08-.09.13-.19.16-.31l.03-.24c0-.16-.04-.32-.12-.46-.11-.17-.25-.31-.38-.46-.09-.1-.17-.2-.25-.3-.18-.22-.35-.44-.53-.66-.36-.44-.72-.88-1.14-1.27-.11-.1-.23-.2-.35-.3-.06-.05-.12-.1-.19-.13-.07-.03-.13-.06-.2-.09-.06-.03-.12-.05-.19-.07l.1.04h-.01c-.08-.04-.16-.06-.25-.05-.09.01-.17.05-.23.11h0c.07-.02.15-.05.22-.08-.04,0-.08,0-.11,0-.08,0-.14.01-.21.07l.08-.04s.02,0,0,0c-.01,0-.03,0-.04,0-.09,0-.15.1-.1.18h0Z"/>
        <path class="cls-4" d="M214.46,54.17s0,.08-.01.12l.02-.17c-.03.14-.03.21,0,.35,0,.02,0,.03.01.05,0,.03.01.05.02.08.03.13.09.24.15.35.07.12.14.25.2.37.14.25.28.51.44.76.33.5.64,1,.92,1.52.15.29.31.57.44.87l-.1-.23c.05.11.09.22.13.34.06.18.12.37.23.53l.14.18c.08.09.18.15.29.19.07.04.15.06.23.06.12.03.24.02.36-.02.15-.05.29-.13.4-.23.09-.08.15-.18.19-.29.06-.11.08-.23.08-.35,0-.04,0-.08,0-.12,0,0,0-.02,0-.03,0-.05-.02-.22-.03-.26,0-.02-.01-.05-.02-.07-.03-.08-.05-.16-.08-.24-.09-.23-.18-.45-.29-.67-.15-.32-.32-.62-.52-.91-.24-.36-.51-.7-.77-1.05-.11-.14-.21-.28-.33-.42s-.24-.26-.36-.39c-.13-.14-.26-.28-.38-.42-.03-.03-.06-.07-.09-.1-.07-.07-.16-.13-.24-.18-.08-.05-.16-.09-.25-.12-.03,0-.07-.02-.1-.03-.17-.05-.33,0-.47.1-.06.04-.1.09-.14.15-.05.08-.07.17-.07.27h0Z"/>
        <path class="cls-4" d="M286.35,53.73h0c.05,0,.1-.01.15-.02-.12.02-.25.03-.37.06l.51.07-.02-.02c-.12-.07-.24-.1-.37-.1-.13,0-.26.03-.37.1-.05.03-.1.05-.15.08-.1.06-.19.13-.28.21s-.17.15-.25.23c-.16.16-.32.33-.47.51-.33.38-.63.78-.93,1.18-.06.08-.12.16-.19.25s-.07.12-.12.25c0,.02-.02.04-.02.06-.02.04-.03.08-.05.11l.08-.18s-.02.04-.02.05c-.03.06-.06.13-.08.2l-.03.2c0,.07.01.14.03.2,0,.03.02.06.04.09.01.04.03.08.06.11l-.07-.51s-.02.06-.02.1c-.06.21,0,.44.16.59.08.08.16.13.27.16.11.03.21.03.32,0,.03-.01.06-.02.09-.03l-.51-.07c.09.07.18.08.29.1.12.02.17.03.3-.01.03,0,.16-.06.18-.08,0,0,0,0,0,0,.02-.01.03-.02.05-.04.03-.02.06-.05.1-.07.07-.05.14-.11.21-.16s.12-.15.17-.22c.03-.04.06-.08.09-.12.13-.19.27-.37.4-.56.08-.11.17-.23.26-.34l-.13.16c.24-.3.48-.6.76-.87.04-.04.08-.07.11-.11.02-.02.04-.04.06-.06.07-.06.12-.13.17-.21l-.12.16c.05-.06.1-.12.15-.17.09-.09.16-.2.19-.33.04-.13.04-.26,0-.39v-.03c-.03.17-.06.34-.08.51.04-.07.07-.13.11-.19l.06-.13.02-.15-.02-.15c-.02-.07-.05-.14-.1-.19-.02-.04-.06-.08-.1-.1-.04-.03-.08-.06-.12-.07-.04-.03-.09-.04-.14-.04-.07-.02-.15-.01-.22.01h0Z"/>
        <path class="cls-4" d="M295.03,60.33c-.28.21-.56.43-.84.66-.25.2-.48.41-.71.63-.12.11-.23.22-.35.32s-.24.21-.34.33c-.2.24-.41.48-.61.72-.11.14-.23.27-.34.41-.06.07-.11.13-.16.2-.07.08-.14.16-.18.26s-.1.19-.12.3l-.03.2.03.2.08.18c.05.09.11.16.19.21.05.05.1.08.17.1.06.03.12.05.19.05.07.02.13.02.2,0,.1,0,.19-.03.28-.09.03-.02.06-.03.09-.06.08-.06.17-.11.24-.19.05-.06.1-.12.15-.18.1-.12.19-.24.29-.36.2-.24.39-.49.59-.73.09-.11.18-.22.26-.33.04-.06.09-.13.13-.19.09-.13.18-.26.27-.39.18-.25.37-.5.55-.76.2-.29.41-.57.62-.84l.05-.11c.02-.06.02-.12,0-.18-.01-.1-.05-.2-.13-.27-.06-.05-.13-.09-.2-.12-.06-.02-.12-.02-.18,0-.06,0-.12.02-.17.06h0Z"/>
        <path class="cls-4" d="M285.92,61.1c.01.06.03.11.04.17l.16-.61s-.03.04-.06.08l-.05.07-.07.17-.03.19h0s0,.07.01.1c0,.06.02.12.05.18.02.05.03.08.06.12.02.03.03.05.05.08.03.05.06.11.09.16.06.11.13.21.2.31.03.05.07.1.11.15.02.02.04.05.05.07,0,0,0,.01.01.02.02.03.05.06.07.1-.03-.03.05.07.07.09.01.01.02.02.03.03.09.09.18.17.27.26.05.05.1.09.16.14.03.02.05.04.08.07.01.01.03.02.04.03,0,0,.01.01.02.02.03.03.06.05.1.07.06.06.12.09.2.12.04.02.07.03.11.05l.24.03.24-.03.21-.09c.1-.06.19-.13.25-.23.06-.06.09-.12.12-.2.04-.07.06-.15.06-.23.02-.08.02-.16,0-.24,0-.12-.04-.23-.11-.33h0c-.06-.11-.13-.19-.23-.26-.04-.03-.07-.05-.1-.08,0,0-.02-.01-.03-.02-.02-.01-.04-.03-.05-.04-.04-.03-.07-.05-.1-.08l.18.14c-.11-.08-.22-.17-.32-.26-.03-.02-.05-.04-.08-.07-.01-.01-.02-.02-.04-.03,0,0,0,0-.01,0-.03-.03-.15-.12-.18-.14,0,0-.02-.01-.02-.02-.06-.04-.11-.08-.17-.12-.06-.04-.12-.09-.18-.14l.16.12c-.08-.06-.16-.13-.24-.19-.04-.03-.08-.06-.11-.1-.02-.02-.04-.03-.06-.05,0,0,0,0-.01-.01,0,0,0,0,0,0l-.14-.11c-.09-.06-.25-.1-.36-.1l-.19.03c-.06.02-.12.04-.18.08h.63c-.05-.03-.1-.06-.15-.08l-.13-.06-.15-.02-.15.02c-.07.02-.13.05-.19.1-.04.02-.07.06-.1.1-.03.03-.06.07-.07.12-.02.04-.04.09-.04.14-.02.07-.01.15,0,.22h0Z"/>
        <path class="cls-4" d="M204.66,100.8c.09.06.18.12.27.18l-.1-.07s.07.06.1.08c.03.02.08.04.12.05.01,0,.02,0,.03.01.02,0,.05.02.07.03.05.02.09.04.14.06.1.04.19.08.29.12.1.04.2.08.3.13s.2.07.3.11c.37.13.74.26,1.1.4.08.03.15.06.23.09.06.02.08.02.16.03.05,0,.11.01.16.02.01,0,.03,0,.04,0,0,0,.01,0,.02,0,0,0,0,0,0,0,.02,0,.22-.02.24-.03.15-.04.27-.12.38-.22.08-.08.14-.17.18-.28.05-.1.08-.21.07-.33,0-.16-.04-.3-.12-.44-.09-.12-.17-.24-.32-.32,0,0-.01,0-.02,0-.01,0-.03-.01-.04-.02s-.03-.01-.04-.02c-.03-.01-.19-.09-.22-.09,0,0,0,0-.01,0,0,0-.02,0-.03,0-.15-.02-.31-.04-.46-.06-.2-.02-.4-.04-.6-.06-.23-.02-.47-.04-.7-.06s-.48,0-.71,0c-.06,0-.13,0-.19,0-.1,0-.2,0-.3.02-.1.03-.2.05-.3.08-.13.03-.22.15-.24.27-.02.14.05.25.16.33h0Z"/>
        <path class="cls-4" d="M281.99,73.23c-.17.22-.37.43-.55.65l.11-.14c-.23.29-.46.57-.7.85-.21.26-.43.51-.64.77-.13.17-.27.33-.39.5l.15-.19s-.12.14-.15.2c-.1.15-.09.21-.11.36,0,.07-.02.09-.02.14,0,.01,0,.02,0,.04,0,.01,0,.02,0,.03,0,0,0,0,0,0,0,.02.03.22.03.25,0,0,.09.21.09.22,0,0,0,0,0,0,.04.08.1.16.16.22l.17.13c.09.06.2.09.31.1.07.02.15.02.22,0,.11,0,.21-.04.31-.1,0,0,0,0,.01,0l-.2.08c.09-.04.17-.05.27-.11.01,0,.03-.02.04-.03.08-.05.15-.1.22-.17.15-.15.17-.24.25-.43,0,0,0-.01,0-.02l-.1.23c.15-.35.33-.68.5-1.02.11-.21.22-.42.33-.64.05-.11.11-.21.16-.32.08-.15.15-.31.21-.47.08-.2.15-.41.22-.62l.02-.15c0-.08-.01-.15-.05-.21-.01-.05-.04-.09-.07-.12-.04-.06-.09-.11-.15-.14-.09-.05-.18-.07-.28-.07-.08,0-.15.01-.21.05-.07.02-.13.06-.18.11h0Z"/>
        <path class="cls-4" d="M293.98,107.45s.03.02.04.04c0,0,.01.01.02.02.02.02.04.04.07.05.02.02.05.04.07.05l.15.06s.02,0,.02,0c.01,0,.02,0,.04,0,.02,0,.04,0,.07.01.15.03.31.06.46.07.2.02.4.04.6.06l-.21-.03c.46.06.91.16,1.34.34l-.22-.09s.06.03.1.04c.06.03.18.08.24.1.04.01.09.02.13.02.08.02.17.02.25,0,.07,0,.11-.01.17-.03.31-.08.56-.34.64-.64.04-.16.04-.33,0-.49-.04-.16-.12-.29-.24-.41-.06-.08-.14-.14-.23-.19l-.11-.05s-.08-.04-.13-.05c-.01,0-.02,0-.04,0-.05,0-.09-.02-.14-.02-.17-.03-.33-.05-.5-.07s-.35-.02-.53-.02c-.43,0-.85.06-1.28.12-.1.01-.19.04-.29.06-.05.01-.1.02-.15.04-.12.03-.22.1-.3.19-.01.02-.03.03-.04.05-.09.1-.16.24-.16.38s.05.28.16.38h0Z"/>
      </g>
    </g>
  </g>
  <g>
    <path class="cls-3" d="M295.83,135.99c.02,1.76-.13,3.53-.29,5.28s-.37,3.53-.6,5.29c-.32,2.48-.55,4.91-.95,7.33-.16,1-.3,2.02-.53,3.01-.05.21-.1.42-.17.62-.03.11-.07.21-.11.32-.06.17-.01.04,0,0-.03.06-.06.13-.09.19-.1.2-.21.4-.34.58-.01.02-.12.16-.05.08.06-.08-.03.03-.03.04-.1.11-.2.22-.31.32-.04.04-.09.08-.14.12-.02.01-.14.11-.03.03-.1.07-.2.14-.3.21-.24.17-.49.33-.74.48-.47.29-.96.55-1.46.79-.97.47-1.96.83-3.06,1.18s-2.14.63-3.23.9c-.57.14-1.14.26-1.72.36s-1.13.19-1.58.24c-2.24.27-4.51.29-6.75,0-.17-.02.12.02-.06,0-.07,0-.14-.02-.21-.03-.14-.02-.28-.04-.41-.07-.29-.05-.58-.1-.87-.16-.55-.11-1.09-.24-1.63-.4s-1.08-.32-1.61-.51c-.58-.21-.98-.37-1.5-.61-2.02-.92-3.65-2.09-5.22-3.54s-3.01-3.08-4.44-4.69-2.83-3.35-4.45-4.82c-.41-.38-.83-.77-1.35-1s-1.1-.39-1.69-.37-1.13.16-1.64.43-.93.67-1.35,1.06c-1.6,1.48-2.99,3.19-4.43,4.83s-2.86,3.23-4.45,4.68-3.23,2.6-5.26,3.5c-.46.2-.91.38-1.45.58s-1.1.37-1.66.52-1.12.28-1.68.4c-.51.1-1.12.2-1.5.25-2.26.28-4.55.24-6.81-.04-.01,0-.19-.02-.06,0-.07,0-.14-.02-.21-.03-.12-.02-.24-.04-.37-.06-.3-.05-.59-.1-.89-.15-.57-.11-1.15-.23-1.71-.37-1.1-.27-2.19-.57-3.27-.92s-2-.69-2.96-1.17c-.51-.25-1.01-.53-1.49-.83-.22-.14-.44-.28-.65-.43-.06-.04-.11-.08-.17-.12-.17-.12-.08-.06-.04-.03-.12-.1-.23-.2-.34-.31-.07-.07-.14-.15-.21-.23-.1-.11.08.11,0-.01-.03-.05-.07-.09-.1-.14-.13-.2-.24-.41-.35-.63-.02-.03-.06-.17,0,0-.02-.05-.04-.1-.06-.16-.04-.11-.07-.21-.11-.32-.07-.22-.12-.44-.17-.66-.22-1.01-.37-2.04-.53-3.05-.38-2.39-.61-4.81-.93-7.26-.23-1.77-.43-3.55-.6-5.33-.09-.95-.16-1.9-.22-2.85-.04-.78-.12-1.59-.06-2.37,0-.04,0-.07.01-.11,0-.12-.04.22-.01.1.01-.06.02-.12.03-.18.03-.14.07-.27.11-.4.01-.03.1-.26.03-.09s.02-.05.04-.08c.06-.12.13-.23.2-.34.02-.03.1-.11.11-.15,0,.01-.16.19-.06.08.02-.02.04-.05.06-.07.08-.09.17-.19.26-.27.05-.04.09-.09.14-.13.08-.07.22-.12,0,0,.12-.06.23-.17.35-.24.23-.15.48-.27.73-.39.21-.1-.2.08.02,0,.07-.03.14-.05.2-.08.15-.06.3-.11.45-.15.61-.19,1.23-.32,1.86-.42.08-.01.16-.03.25-.04.27-.04-.11.01.06,0,.18-.02.36-.04.54-.06.35-.04.7-.06,1.06-.09.68-.04,1.37-.06,2.05-.07,1.24-.01,2.49.03,3.73.04,1.71.02,3.42-.11,5.13-.1,2.53.02,5.06.19,7.57.48,1.21.14,2.38.31,3.62.52s2.39.43,3.57.71c4.68,1.1,9.33,2.8,14.19,2.83s9.13-1.83,13.66-2.92c2.37-.57,4.81-.92,7.18-1.18,2.52-.28,5.05-.44,7.58-.44,1.63,0,3.26.12,4.9.1,1.25-.02,2.5-.05,3.75-.03.71,0,1.42.03,2.12.08.34.02.68.05,1.02.09.08,0,.17.02.25.03.03,0,.09.02.13.02-.02,0-.24-.03-.07,0s.33.05.49.08c.64.11,1.27.25,1.89.46.13.04.26.09.39.14.03.01.07.03.1.04.11.04-.19-.09-.08-.03.07.03.15.06.22.1.25.12.48.25.71.4.05.04.11.08.16.11.11.08-.18-.15,0,0,.1.08.19.17.28.26.08.08.15.18.24.26s-.12-.18-.06-.08c.02.03.04.05.05.08.03.05.07.1.1.16.06.1.11.2.17.31.11.21-.05-.16,0-.01.02.06.04.12.06.18.04.13.07.25.1.38,0,.04.04.26.02.08s0,.1.01.14c.04.5.41.98.96.96.49-.02,1-.42.96-.96-.11-1.39-.76-2.53-1.88-3.36-1.02-.76-2.31-1.15-3.55-1.39-2.73-.52-5.52-.43-8.28-.39-1.56.02-3.12-.09-4.68-.09-2.59-.01-5.18.13-7.75.41-2.55.27-5.11.62-7.61,1.2-2.3.53-4.54,1.28-6.82,1.89-1.13.31-2.28.58-3.44.78-.14.02-.28.05-.42.07-.07.01-.14.02-.21.03-.01,0-.19.02-.06,0-.3.04-.6.07-.9.1-.59.05-1.18.07-1.77.07-2.41-.03-4.67-.5-7.05-1.08s-4.69-1.27-7.06-1.81c-2.51-.56-5.07-.94-7.63-1.22-2.57-.29-5.16-.44-7.75-.43-1.61,0-3.21.12-4.81.1-2.77-.04-5.56-.14-8.29.37-1.23.23-2.53.6-3.56,1.35-1.12.81-1.82,1.93-1.95,3.31-.07.79.01,1.61.06,2.39.05.97.13,1.93.22,2.9.17,1.8.37,3.59.61,5.38.34,2.58.58,5.16,1,7.73.17,1.02.31,2.07.54,3.08s.65,2,1.35,2.78c.76.85,1.87,1.47,2.88,1.99,1.06.55,2.17.99,3.3,1.37,2.19.74,4.45,1.33,6.74,1.66,4.7.68,9.56.31,13.98-1.51,1.09-.45,2.15-.95,3.15-1.58s1.86-1.3,2.72-2.04c1.66-1.43,3.14-3.06,4.59-4.7s2.85-3.36,4.42-4.9c.2-.2.41-.4.62-.59.11-.1.21-.19.32-.28.05-.05.11-.09.16-.14-.1.08,0,0,.06-.04.1-.06.2-.12.3-.17.13-.07-.13.04,0,0,.05-.02.11-.04.16-.06.11-.03.22-.05.33-.08.14-.03-.15,0,0,0,.07,0,.14,0,.21,0,.05,0,.38.03.17,0,.11.02.23.04.34.07.06.02.33.13.18.05.12.06.23.12.34.19.02.01.17.12.08.06-.09-.07.08.07.09.08.11.09.21.19.32.28.23.2.45.41.66.62,1.57,1.54,2.96,3.25,4.42,4.9s2.93,3.27,4.59,4.7c.86.74,1.76,1.44,2.72,2.04,1.01.64,2.09,1.15,3.2,1.6,2.19.9,4.51,1.44,6.86,1.68,4.67.49,9.38-.35,13.8-1.85,1.14-.39,2.27-.84,3.34-1.4.99-.51,2.08-1.12,2.83-1.96.71-.79,1.12-1.76,1.35-2.78s.38-2.05.54-3.08c.41-2.57.66-5.15,1-7.73.23-1.79.44-3.58.61-5.38s.31-3.46.29-5.19c0-.5-.44-.98-.96-.96s-.96.42-.96.96Z"/>
    <path class="cls-3" d="M207.49,135.21c-.43.32-.55.77-.61,1.29-.05.42-.1.85-.1,1.28.01.83.06,1.67.12,2.5.14,1.77.42,3.52.68,5.28s.49,3.47.74,5.2c.13.92.28,1.84.43,2.76.06.41.13.81.2,1.22.04.24-.02-.22,0,.03,0,.05.01.1.02.15.02.18.03.37.05.55.06.78.11,1.57.26,2.35s.41,1.6.98,2.15c.71.68,1.95-.2,1.4-1.08-.08-.12-.15-.25-.22-.37-.04-.06-.06-.13-.1-.2.09.15.02.06,0,.01-.11-.3-.19-.61-.25-.93-.01-.08-.03-.16-.04-.25-.04-.28.02.19-.01-.09-.01-.14-.03-.28-.04-.42-.03-.34-.05-.67-.07-1.01-.1-1.62-.39-3.22-.61-4.82-.02-.14-.05-.36-.08-.58-.03-.23-.06-.46-.1-.69-.06-.46-.13-.92-.19-1.38-.06-.41-.1-.75-.17-1.23-.06-.42-.12-.84-.18-1.26-.11-.79-.23-1.58-.34-2.37s-.21-1.63-.31-2.36c-.12-.94-.22-1.89-.27-2.83-.03-.47-.07-.93-.11-1.39-.04-.5-.07-1.06-.46-1.42-.16-.14-.44-.22-.63-.08h0Z"/>
    <path class="cls-3" d="M291.48,136.03s.03.09.05.13c.02.07,0,.18,0,0,0,.03.02.13,0,.16v-.12c-.01.09-.02.19-.01.29,0,.02-.03.16-.01.18-.02-.02.01-.35-.03.19-.01.16-.01.31-.03.47,0,.07,0,.15-.02.21.07-.27,0-.04,0,.02-.02.14-.05.29-.08.43-.06.3-.13.59-.19.89-.31,1.58-.35,3.23-.48,4.84-.14,1.78-.29,3.56-.43,5.34-.11,1.44-.06,2.88-.11,4.32-.01.41-.04.83-.07,1.24-.02.2-.04.41-.06.61,0,.03-.04.32,0,.08-.02.11-.03.23-.05.34-.07.38-.15.76-.26,1.13-.05.18-.11.36-.18.53.09-.21-.02.03-.03.06-.06.15-.12.3-.18.45-.17.43.15.94.54,1.1.44.18.91.01,1.17-.38.39-.61.62-1.38.78-2.08.18-.79.29-1.6.35-2.41.12-1.49.09-2.98.2-4.47.06-.86.17-1.71.23-2.57.07-.95.14-1.9.21-2.85s.13-1.86.2-2.8c.03-.46.06-.93.11-1.39,0-.05.03-.23,0-.03s0,0,0-.05c.02-.13.05-.26.07-.39.14-.74.27-1.49.27-2.24,0-.22,0-.45-.06-.66-.02-.07-.05-.14-.08-.21-.03-.07-.2-.43-.09-.19-.05-.11-.09-.19-.15-.29-.2-.29.14.18-.07-.08-.06-.07-.11-.15-.18-.21-.12-.11-.26-.22-.41-.29-.23-.11-.48-.11-.69.05-.18.14-.32.42-.22.65h0Z"/>
    <path class="cls-3" d="M235.76,157.9c.14-.14.3-.18.47-.27s.33-.24.48-.36c.35-.27.69-.56,1.02-.85.62-.54,1.21-1.11,1.79-1.69,1.19-1.19,2.3-2.44,3.36-3.75s2.08-2.71,2.99-4.16c.74-1.18,1.38-2.41,1.66-3.79.18-.86.23-1.7.1-2.58-.11-.77-.39-1.58-1.02-2.07-.26-.2-.6-.31-.91-.12-.26.17-.46.53-.34.84.05.13.07.26.11.39.02.06.04.11.06.16.11.25.03.03,0,0,.04.05.06.17.08.23.04.14.08.28.11.42,0,.03.01.06.02.09.01.07-.02.14,0,.03.02-.08,0-.06,0,0,0,.05,0,.11.01.16.02.31,0,.61-.02.91,0,.08-.02.16-.02.23-.02.19.03-.19,0,0-.03.17-.06.33-.09.5-.07.32-.16.64-.27.95-.05.14-.1.27-.14.41-.03.07-.05.14-.08.22-.01.03-.02.06-.04.09-.06.15-.02.04.02-.04-.27.57-.56,1.11-.89,1.65-.83,1.35-1.76,2.64-2.72,3.92-.12.16-.24.32-.36.48-.03.03-.05.07-.08.1.02-.03.12-.15,0,0-.07.09-.14.18-.21.27-.25.32-.5.63-.76.95-.51.63-1.02,1.25-1.53,1.88-.58.71-1.17,1.4-1.74,2.12-.29.36-.6.71-.86,1.08-.12.18-.26.35-.38.52-.13.19-.17.41-.33.58-.3.32.16.79.49.49h0Z"/>
  </g>
</svg>