<?xml version="1.0" encoding="UTF-8"?>
<svg id="Layer_1" data-name="Layer 1" xmlns="http://www.w3.org/2000/svg" xmlns:xlink="http://www.w3.org/1999/xlink" viewBox="0 0 250.26 317.87">
  <defs>
    <style>
      .cls-1 {
        fill: #d1f1f4;
      }

      .cls-2 {
        fill: #80acff;
      }

      .cls-3 {
        fill: #f5f6dd;
      }

      .cls-4 {
        fill: #316bf6;
      }

      .cls-5 {
        fill: #e3ba8e;
      }

      .cls-6 {
        clip-path: url(#clippath-1);
      }

      .cls-7 {
        clip-path: url(#clippath-3);
      }

      .cls-8 {
        clip-path: url(#clippath-4);
      }

      .cls-9 {
        clip-path: url(#clippath-2);
      }

      .cls-10 {
        clip-path: url(#clippath-5);
      }

      .cls-11 {
        fill: #0c30c8;
      }

      .cls-12 {
        fill: #031163;
      }

      .cls-13 {
        fill: #031163;
      }

      .cls-14 {
        clip-path: url(#clippath);
      }

      .cls-15 {
        fill: #765238;
      }
    </style>
    <clipPath id="clippath">
      <path class="cls-1" d="M225.58,273.48c-7.53,7.43-20.79,1.56-30.43,4.05-.81.22-1.62.45-2.41.69-6.75,2.13-12.98,5.49-19.82,7.39-7.89,2.17-17.38,2.47-25.53,1.79-13.08-1.1-25.49-7.3-38.61-4.79-12.98,2.49-25.39,7.58-38.61,4.55-1.18-.27-3.24-1.29-4.41-1.21-.53-10.14.1-20.35-.03-30.49-.07-5.34.64-10.86.21-16.21-.44-5.54-1.16-10.59-.66-16.17.42-4.66-.75-8.82-1.64-13.34s-1.09-8.89-1.29-13.27c-.26-5.66-.57-11.49-.06-17.14.34-3.82,1.12-6.98.62-10.7-.61-4.57-1.05-9.12-.81-13.78.26-5.1,3.38-8.94,7.88-11.08,6.39-3.06,13.27-4.8,19.79-7.63,2.5-1.08,5.13-1.88,7.68-2.89,1.07-.42,2.1-.93,3.11-1.45,2.18-3.92,5.54-7.62,9.31-8.98.14,2.07.25,3.98.27,5.51.06,3.89.43,7.94.3,11.9.39.42.82.84,1.33,1.27,2.72,2.37,5.03,5.02,7.13,7.92,3.37,4.67,6.92,9.41,9.66,14.53,2.72-5.12,6.27-9.86,9.64-14.53,2.1-2.91,4.41-5.55,7.13-7.92,1.26-1.1,2.08-2.08,2.73-3.17-.27-4.7-.23-9.95-.09-15.22,3.47,1.55,6.52,5.02,8.57,8.67,1.03.53,2.05,1.04,3.12,1.46,2.54,1.01,5.18,1.81,7.68,2.89,6.52,2.83,13.4,4.57,19.79,7.63,2.17,1.04,3.87,2.2,5.16,3.54,8.79,2.33,13.4,9.71,16.31,18.1,3.04,8.78,7.26,17.28,8.85,26.5,1.33,7.78,1.62,15.77,3.17,23.61.85,4.29,1.45,8.59,1.85,13,.42,4.55,0,9.22.22,13.82.27,5.74,1.69,11.46,2.21,17.17.32,3.57.61,7.05.61,10.7,0,1.04.04,2.14.1,3.27Z"/>
    </clipPath>
    <clipPath id="clippath-1">
      <path class="cls-3" d="M118.17,148.51c.23.31.47.61.7.92,3.37,4.67,6.92,9.41,9.66,14.53,2.72-5.12,6.27-9.86,9.64-14.53.23-.32.47-.62.71-.94-6.76.98-13.71.45-20.71.01Z"/>
    </clipPath>
    <clipPath id="clippath-2">
      <path class="cls-5" d="M170.06,81.41c.03,3.47-1.21,6.88-3.27,9.66-1.69,2.3-4.87,5.62-8.07,5.2-.62,3.54-1.47,6.98-2.57,10.21-2.96,8.66-11.12,13.98-18.23,18.26-3.59,2.15-6.78,2.85-10.84,2.98-4.06-.16-7.26-.87-10.86-3.05-5.02-3.04-10.09-6.3-13.92-10.81-4.02-4.76-5.42-10.97-6.82-16.99-3.3.84-6.72-2.59-8.54-4.93-2.13-2.72-3.44-6.1-3.5-9.56-.07-5.03,3.33-12.04,8.43-9.35-.4-5.97-.91-12.64.26-18.59.16-.8.33-1.58.56-2.34,6.59-22.93,41.88-29.69,58.2-13.26,8.31,8.37,9.74,21.29,9.71,32.56,0,.45,0,.91-.01,1.37,5.48-4.03,9.43,3.35,9.47,8.65Z"/>
    </clipPath>
    <clipPath id="clippath-3">
      <path class="cls-1" d="M86.67,178.72c-.4,7.79-.75,16.52-3.27,23.91-1.66,4.9-4.05,9.32-6.85,13.68-2.2,3.4-8.41,9.01-8.41,9.01,0,0-8.18,2.6-12.2,2.43-4.66-.22-9.85-1.42-13.92-3.73-4.7-2.67-9.05-8.07-11.58-12.78-2.05-3.8-3.09-7.98-3.6-12.27-1.53-3.86-2.31-7.95-2.11-12.26.4-8.63,7.07-24.62,7.07-24.62,0,0,3.46-5.45,5.87-7.72,2.14-2,4.71-4.67,7.5-5.7,11.28-4.93,27.37-.42,35.49,8.46,5.42,5.9,6.42,13.91,6.01,21.6Z"/>
    </clipPath>
    <clipPath id="clippath-4">
      <path class="cls-5" d="M91.6,155.15c-.62,4.8.51,9.51.22,14.37-.43,7.47-1.5,15.03-6.53,20.95-8.89,10.48-26.4,11.46-37.47,3.67-4.52-2.7-7.98-7.2-8.96-12.53-.74-3.98-.77-8.21-.51-12.23.23-3.44.26-6.91.84-10.32.52-3.05.71-6.55,1.88-9.43.68-1.72,2.37-4.08,4.35-5.13.33-5.12,1.78-10.03,6.07-13.75,2.3-2,5.09-3.67,7.59-5.39,2.08-1.43,5.13-2.7,6.29.48.06.16.1.3.14.46.19-.16.39-.29.59-.42,2.27-1.39,5.26-2.08,7.91-2.21,3.83-.19,7.07,2.02,6.39,4.76,2.72-.58,5.52-.29,7.4,1.32,2.69,2.28,1.9,4.67,1.14,7.43,2.13-.56,3.14-.65,4.46-.64,3.66.03,3.95,4.21,3.01,6.71-1.47,3.96-4.24,7.69-4.8,11.91Z"/>
    </clipPath>
    <clipPath id="clippath-5">
      <path class="cls-2" d="M88.6,166.51c-13.52,14.48-38.18,8.56-40.58-12.89-.97-8.47,3.19-18.14,10.68-22.78,2.25-1.39,4.74-2.41,7.28-3,2.46-.59,4.97-.82,7.46-.65,6.2.45,11.42,3.9,15.71,8.84,6.74,7.77,6.35,23.07-.56,30.49Z"/>
    </clipPath>
  </defs>
  <g>
    <g>
      <g>
        <path class="cls-1" d="M225.58,273.48c-7.53,7.43-20.79,1.56-30.43,4.05-.81.22-1.62.45-2.41.69-6.75,2.13-12.98,5.49-19.82,7.39-7.89,2.17-17.38,2.47-25.53,1.79-13.08-1.1-25.49-7.3-38.61-4.79-12.98,2.49-25.39,7.58-38.61,4.55-1.18-.27-3.24-1.29-4.41-1.21-.53-10.14.1-20.35-.03-30.49-.07-5.34.64-10.86.21-16.21-.44-5.54-1.16-10.59-.66-16.17.42-4.66-.75-8.82-1.64-13.34s-1.09-8.89-1.29-13.27c-.26-5.66-.57-11.49-.06-17.14.34-3.82,1.12-6.98.62-10.7-.61-4.57-1.05-9.12-.81-13.78.26-5.1,3.38-8.94,7.88-11.08,6.39-3.06,13.27-4.8,19.79-7.63,2.5-1.08,5.13-1.88,7.68-2.89,1.07-.42,2.1-.93,3.11-1.45,2.18-3.92,5.54-7.62,9.31-8.98.14,2.07.25,3.98.27,5.51.06,3.89.43,7.94.3,11.9.39.42.82.84,1.33,1.27,2.72,2.37,5.03,5.02,7.13,7.92,3.37,4.67,6.92,9.41,9.66,14.53,2.72-5.12,6.27-9.86,9.64-14.53,2.1-2.91,4.41-5.55,7.13-7.92,1.26-1.1,2.08-2.08,2.73-3.17-.27-4.7-.23-9.95-.09-15.22,3.47,1.55,6.52,5.02,8.57,8.67,1.03.53,2.05,1.04,3.12,1.46,2.54,1.01,5.18,1.81,7.68,2.89,6.52,2.83,13.4,4.57,19.79,7.63,2.17,1.04,3.87,2.2,5.16,3.54,8.79,2.33,13.4,9.71,16.31,18.1,3.04,8.78,7.26,17.28,8.85,26.5,1.33,7.78,1.62,15.77,3.17,23.61.85,4.29,1.45,8.59,1.85,13,.42,4.55,0,9.22.22,13.82.27,5.74,1.69,11.46,2.21,17.17.32,3.57.61,7.05.61,10.7,0,1.04.04,2.14.1,3.27Z"/>
        <g class="cls-14">
          <path class="cls-4" d="M101.45,127.64c-.12.17-.27.33-.38.5-.12.19-.23.4-.33.59-.21.39-.39.79-.58,1.19-.4.83-.77,1.67-1.11,2.52-.69,1.71-1.24,3.51-1.52,5.33-.3,1.96-.3,3.96-.34,5.94-.04,2.31-.06,4.61-.07,6.92,0,2.16,0,4.31.01,6.47.01,1.08,0,2.17.04,3.25,0,.01,0,.03,0,.04,0,.23.14.44.36.53.23.1.44.03.63-.12.1-.08-.13.1-.05.04.09-.07.19-.15.28-.22.04-.03.08-.06.12-.09.02-.02.04-.03.06-.05.01,0,.02-.02.03-.02.08-.06-.03.02-.05.04.12-.09.24-.18.36-.28.67-.51,1.33-1.02,2.01-1.52,1.59-1.16,3.2-2.28,4.94-3.21.3-.16.6-.31.91-.46.15-.07.31-.14.46-.21-.09.04.09-.04.12-.05.1-.04.19-.08.29-.11.63-.24,1.28-.42,1.94-.52.11-.02.02,0,0,0,.04,0,.08-.01.12-.01.07,0,.15-.02.22-.02.16-.01.31-.02.47-.02.3,0,.6.01.9.05.03,0,.06,0,.1.01-.13-.01-.04,0-.01,0,.07.01.14.02.22.03.15.03.3.06.45.09.29.07.58.15.86.25.13.05.26.09.39.15.04.02.08.03.11.05.09.04-.13-.06.01,0,.07.03.15.07.22.1.27.13.53.26.79.41s.52.31.78.49c.12.08.23.16.35.24.07.05.13.1.2.15.02.01.09.07,0,0,.04.03.08.06.12.09.94.75,1.75,1.62,2.51,2.55.84,1.02,1.73,2,2.58,3.01.22.26.44.52.65.78.1.13.21.25.31.38.05.06.09.11.14.17.02.03.04.06.07.09,0,0,.1.13.05.07.22.28.42.58.64.86.2.25.37.47.54.73s.36.51.5.78c.09.17.33.22.49.13.18-.1.22-.32.13-.49-.15-.29-.26-.6-.42-.89-.08-.15-.17-.29-.23-.41-.07-.15-.16-.3-.24-.44-.34-.58-.77-1.12-1.18-1.65-.84-1.1-1.76-2.13-2.63-3.21-.2-.25-.41-.5-.6-.76,0,0-.1-.13-.05-.06s-.05-.06-.05-.06c-.06-.08-.12-.15-.18-.23-.1-.13-.2-.25-.3-.37-.39-.46-.81-.9-1.26-1.3-.94-.85-2-1.6-3.16-2.12s-2.44-.85-3.73-.84c-1.41.02-2.77.45-4.05,1.04-1.93.88-3.68,2.09-5.39,3.33-1.17.85-2.34,1.7-3.48,2.58-.02.02-.04.03-.06.05l.87.5c0-.89-.01-1.79-.01-2.68,0-2.06-.02-4.13-.03-6.19,0-2.34,0-4.67.01-7.01.02-1.72.02-3.46.14-5.18.02-.23.04-.46.06-.69.01-.11.03-.23.04-.34,0-.04,0-.08.01-.11-.01.09.02-.12.02-.14.07-.47.15-.93.24-1.39.18-.91.42-1.8.69-2.69s.56-1.72.88-2.57c.16-.42.31-.84.47-1.25s.33-.82.47-1.23c.07-.19.16-.39.2-.59s.07-.41.12-.61c.03-.13-.14-.2-.21-.09h0Z"/>
          <path class="cls-4" d="M155.39,127.73c.04.2.07.41.12.61.05.21.14.44.22.64.15.41.32.82.48,1.23.32.84.64,1.68.93,2.53.6,1.76,1.09,3.54,1.35,5.38,0,0,.02.19.01.08,0,.04,0,.08.01.11.01.11.03.23.04.34.03.25.05.5.07.75.01.15.02.3.03.45.02.37.03.73.05,1.1.03.94.05,1.88.06,2.83.03,2.31.03,4.62.03,6.93,0,2.14-.02,4.28-.03,6.42,0,1.07-.04,2.15-.02,3.22,0,.01,0,.03,0,.04l.87-.5c-.97-.75-1.96-1.47-2.95-2.19-1.63-1.2-3.28-2.37-5.07-3.31-1.25-.66-2.59-1.22-4.01-1.41-1.26-.17-2.56-.02-3.76.4s-2.37,1.1-3.4,1.91c-.48.38-.93.79-1.36,1.23-.21.22-.42.45-.62.69-.09.1-.17.21-.26.32-.07.08-.13.17-.19.25-.02.03-.04.05-.06.08.07-.1-.02.02-.03.04-.83,1.06-1.72,2.08-2.57,3.12-.45.54-.87,1.1-1.29,1.67-.2.28-.41.55-.58.85-.08.14-.16.28-.23.42-.06.13-.16.28-.24.44-.15.28-.27.58-.41.87-.09.17-.05.39.13.49.16.09.4.04.49-.13.14-.28.34-.54.51-.81s.34-.48.54-.73c.44-.55.76-1.02,1.21-1.57.85-1.03,1.74-2.03,2.61-3.04.41-.47.79-.96,1.2-1.43.39-.44.8-.86,1.23-1.26.23-.21.47-.42.72-.61.03-.02.05-.04.08-.06-.02.01-.09.07,0,0,.06-.04.12-.09.18-.13.13-.09.26-.18.39-.27.5-.34,1.04-.65,1.59-.9.06-.03.12-.05.18-.08.1-.05.01,0,0,0,.04-.02.08-.03.11-.05.14-.06.29-.11.43-.16.28-.1.57-.18.87-.25.13-.03.27-.06.41-.08.07-.01.14-.02.22-.04.03,0,.15-.02.01,0,.05,0,.1-.01.15-.02.29-.03.59-.04.88-.04.15,0,.3,0,.45.02.07,0,.13.01.2.02.04,0,.08,0,.12.01.04,0,.03,0-.03,0,.03,0,.05,0,.07.01.33.05.66.13.98.22s.64.2.95.31c.08.03.16.06.23.09.04.02.09.04.13.05.01,0,.1.04.02,0,.16.07.33.14.49.22,1.87.88,3.57,2.04,5.24,3.24.73.53,1.45,1.07,2.17,1.62.26.2.52.4.78.6-.18-.14,0,0,.04.03.04.03.08.07.13.1.09.07.19.14.28.22.06.05-.15-.12-.05-.04.19.15.4.22.63.12.21-.09.35-.3.36-.53.01-.89.02-1.79.03-2.68.02-2.08.03-4.15.02-6.23,0-2.33-.02-4.67-.05-7-.03-1.75-.04-3.51-.18-5.26-.16-1.9-.6-3.75-1.22-5.56-.3-.88-.66-1.74-1.04-2.59-.18-.41-.37-.81-.56-1.22s-.37-.8-.59-1.19c-.1-.18-.19-.38-.3-.55s-.26-.33-.38-.5c-.08-.11-.24-.05-.21.09h0Z"/>
          <path class="cls-4" d="M128.49,159.97c-.07,1.16-.17,2.31-.23,3.46s-.06,2.29-.08,3.43-.01,2.31-.02,3.46,0,2.31,0,3.46c.01,2.3.03,4.59.05,6.89s.07,4.59.11,6.89.1,4.61.15,6.92.12,4.59.2,6.89.16,4.59.25,6.89.21,4.61.26,6.91.05,4.57.02,6.85-.09,4.57-.15,6.85-.13,4.59-.18,6.89-.06,4.57-.05,6.85.06,4.55.11,6.83.11,4.58.16,6.87.1,4.55.12,6.82,0,4.54-.02,6.81-.05,4.62-.07,6.93-.03,4.6-.04,6.9-.02,4.59,0,6.89.04,4.61.08,6.92c0,.55.02,1.1.04,1.65,0,.27.03.54.05.81.02.29.07.58.07.87,0,.46.71.46.71,0,0-.29.05-.58.07-.87s.05-.56.05-.84c.02-.58.03-1.16.04-1.74.02-1.14.04-2.28.06-3.43.04-2.31.03-4.61.04-6.92s.01-4.6.02-6.89.03-4.6.05-6.9.07-4.59.07-6.89-.02-4.54-.06-6.81-.1-4.56-.16-6.83-.11-4.58-.15-6.87-.06-4.55-.04-6.83.07-4.57.13-6.86.13-4.59.18-6.88.09-4.57.08-6.85-.07-4.58-.17-6.86-.2-4.61-.29-6.92-.16-4.59-.23-6.89-.13-4.59-.18-6.89-.1-4.61-.14-6.92-.08-4.59-.12-6.89-.07-4.59-.1-6.89-.05-4.62-.16-6.93c-.05-1.11-.16-2.23-.23-3.34-.01-.2-.29-.2-.3,0h0Z"/>
          <path class="cls-4" d="M79.7,237.15c.34.12.67.27.98.43.36.18.72.37,1.06.6.67.44,1.31.93,2.01,1.32,1.62.92,3.34,1.64,5.04,2.38,1.55.67,3.07,1.4,4.62,2.07s3.06,1.32,4.58,2c.79.36,1.58.72,2.36,1.1.36.17.72.35,1.08.53s.69.38,1.09.46c.44.09.73-.4.43-.74-.24-.28-.54-.45-.86-.63s-.62-.33-.93-.5c-.7-.36-1.4-.69-2.12-1.02-1.51-.69-3.04-1.35-4.56-2.02s-3.07-1.37-4.62-2.03c-.23-.1-.45-.19-.68-.29-.11-.05-.22-.09-.33-.14-.05-.02-.11-.05-.16-.07-.04-.02-.07-.03-.11-.05-.06-.03-.07-.03-.03-.01-.43-.18-.87-.37-1.3-.56-.86-.38-1.72-.77-2.56-1.19s-1.59-.94-2.39-1.39c-.41-.23-.84-.47-1.3-.61s-.86-.17-1.31-.07c-.22.05-.19.35,0,.41h0Z"/>
          <path class="cls-4" d="M107.45,129.83c-.02.11-.06.2-.11.3s-.12.17-.17.27c-.1.21-.18.42-.25.64-.15.44-.28.88-.4,1.32-.24.92-.38,1.85-.21,2.79.08.42.23.85.48,1.2.29.43.69.75,1.07,1.11.83.78,1.64,1.58,2.47,2.36.48.45.97.9,1.45,1.35.23.21.46.43.71.63.26.21.54.4.8.6.11.08.29.03.37-.07.09-.12.07-.26-.02-.37-.18-.21-.34-.43-.51-.64s-.37-.41-.56-.61c-.39-.41-.77-.83-1.16-1.24-.77-.82-1.55-1.62-2.36-2.4-.37-.35-.77-.68-1.12-1.05-.04-.04-.07-.08-.11-.12-.01-.02-.03-.03-.04-.05-.05-.06.05.08.01.02-.05-.09-.11-.16-.16-.25s-.09-.17-.13-.26c0-.01-.02-.04-.02-.05.01.09.03.07.01.02-.02-.05-.04-.1-.05-.15-.06-.19-.1-.38-.14-.58-.02-.1,0,0,0,.02,0-.03,0-.05,0-.08,0-.05,0-.1-.01-.14,0-.1-.01-.21-.01-.31,0-.43.02-.87.06-1.29.05-.5.14-.95.2-1.49.03-.23.07-.47.07-.7,0-.25-.08-.48-.05-.74,0-.06-.08-.09-.1-.03h0Z"/>
          <path class="cls-4" d="M193.55,155.61c.15.43.26.87.39,1.29s.25.88.36,1.32c.05.22.1.44.15.66.02.11.04.21.06.32-.02-.13.02.13.03.17.01.07.03.13.04.2.04.23.08.45.11.68,0,.05.01.1.02.15.02.11,0,.02,0,0,0,.04,0,.08.01.13.02.14.04.27.07.41.02.11.03.22.05.33,0,.06.02.12.03.18,0,.03,0,.05.01.08-.02-.13,0-.01,0,.02.03.23.06.46.08.69.05.47.09.94.12,1.42.06.95.09,1.91.09,2.87,0,1.89-.15,3.76-.29,5.64-.07.9-.14,1.8-.24,2.7-.02.21-.05.43-.07.64-.01.1-.02.2-.03.3,0,.05-.01.11-.02.16,0,.02,0,.05,0,.07,0-.05.01-.06,0,0-.07.54-.15,1.07-.2,1.61-.19,2.07-.1,4.16.03,6.23s.4,4.28.54,6.43.2,4.29,0,6.43c-.1,1.12-.22,2.25-.28,3.38s-.13,2.24-.2,3.35c-.16,2.26-.31,4.52-.45,6.78s-.24,4.51-.33,6.76-.16,4.51-.22,6.77-.1,4.54-.13,6.81-.04,4.52-.07,6.78-.04,4.51-.04,6.77-.01,4.45.04,6.67.16,4.33.27,6.49.24,4.26.33,6.4.16,4.24.14,6.36-.1,4.24-.31,6.35c-.05.53-.11,1.07-.17,1.6-.02.13-.03.25-.05.38,0,.04-.01.08-.02.12,0,0-.01.1,0,.03s0,.02,0,.03c0,.05-.01.1-.02.15-.04.26-.08.52-.12.79-.17,1.08-.37,2.15-.61,3.21s-.45,2.1-.77,3.12c-.08.26.1.58.37.64.28.06.56-.09.64-.37.33-1.06.69-2.11.95-3.19s.47-2.12.65-3.2c.36-2.15.58-4.32.69-6.49s.11-4.24.07-6.35-.16-4.27-.28-6.41-.25-4.3-.35-6.45-.15-4.37-.16-6.56-.02-4.51-.02-6.77-.02-4.54,0-6.8.05-4.54.09-6.81.09-4.54.16-6.81.15-4.53.25-6.8.19-4.5.31-6.76c.06-1.13.14-2.26.23-3.39.02-.29.04-.57.06-.86.02-.25.05-.53.08-.83.06-.56.11-1.13.17-1.69.12-1.12.2-2.25.3-3.37s.12-2.15.11-3.23c-.02-2.16-.21-4.31-.4-6.46s-.39-4.21-.44-6.33c-.02-1.03,0-2.07.06-3.09.02-.26.04-.52.07-.78.01-.12.03-.24.04-.36,0-.03,0-.06,0-.08,0,.02-.02.09,0,0,.01-.05.02-.11.03-.16.04-.22.07-.43.1-.65.02-.1.03-.2.05-.31.01-.08.01-.17.03-.24-.03.12.01-.05.02-.09.07-.44.13-.89.2-1.33.04-.27.07-.54.11-.81.01-.11.03-.22.04-.32,0-.01,0-.1,0-.02-.01.13.02-.15.02-.13,0-.07.02-.13.02-.2.11-.94.18-1.87.22-2.81.09-1.91.1-3.83-.07-5.73-.09-.98-.22-1.95-.4-2.92-.17-.9-.46-1.8-.77-2.67-.15-.41-.32-.82-.47-1.21-.09-.22-.2-.42-.32-.64-.1-.19-.21-.39-.32-.58-.15-.25-.58-.09-.48.2h0Z"/>
          <path class="cls-4" d="M201.64,173.64c-.16.54-.34,1.07-.51,1.61s-.35,1.07-.56,1.6c-.1.27-.21.53-.32.79-.05.13-.1.26-.16.38-.01.03-.03.06-.04.1,0,.01-.05.11-.02.05s-.01.03-.02.05c-.02.04-.03.08-.05.12-.23.52-.46,1.04-.71,1.56-.99,2.08-2.12,4.12-2.97,6.27-.23.57-.44,1.15-.62,1.74-.09.29-.19.59-.25.89-.04.2-.1.41-.05.61.02.1.04.09.07.15.05.1-.01-.08.02.05.02.07.05.14.07.21.05.14.21.19.33.09.04-.04.09-.08.13-.12.02-.02.04-.04.06-.06-.04.03,0,0,.02,0,.21-.14.27-.32.36-.54.1-.25.18-.5.27-.76.09-.27.19-.54.3-.8.05-.12.09-.24.14-.35.03-.06.05-.13.08-.19,0-.02.05-.12.02-.05-.03.07.02-.06.03-.07.44-1.04.92-2.07,1.41-3.08s1.02-2.07,1.51-3.12.97-2.14,1.34-3.25c.2-.6.38-1.21.52-1.82.14-.65.21-1.3.23-1.96,0-.36-.52-.42-.62-.08h0Z"/>
          <path class="cls-4" d="M207.23,202.7c-.34.41-.73.77-1.09,1.16-.38.41-.79.8-1.21,1.17s-.89.77-1.34,1.14c-.22.18-.45.36-.67.54-.11.09-.22.17-.33.26-.05.04-.11.08-.16.13-.07.05.07-.05,0,0-.03.03-.07.05-.1.08-.91.7-1.84,1.39-2.71,2.15-.92.8-1.8,1.64-2.7,2.46-.5.45-1.01.89-1.53,1.31-.26.21-.52.42-.79.63.02-.01.08-.06,0,0-.03.03-.07.05-.1.08-.06.05-.13.09-.19.14-.09.07-.2.13-.27.22-.09.1-.13.22-.18.35-.12.29.17.56.44.57.2,0,.37-.03.54-.14.13-.08.26-.17.39-.26.27-.18.53-.37.79-.57.48-.37.94-.77,1.39-1.17.92-.82,1.81-1.67,2.73-2.49,1.7-1.52,3.62-2.81,5.26-4.41.46-.45.91-.91,1.32-1.41.22-.26.42-.52.59-.8.15-.26.29-.52.41-.79.06-.13.05-.29-.08-.38-.11-.08-.29-.09-.39.02h0Z"/>
          <path class="cls-4" d="M212.31,235.91c-.69.31-1.43.48-2.16.65-.4.09-.8.15-1.2.21.1-.01-.01,0-.05,0-.08.01-.16.02-.25.03-.05,0-.1.01-.15.02-.02,0-.11.01,0,0-.03,0-.07,0-.1.01-.21.03-.41.05-.62.07-.81.09-1.63.14-2.44.22-.38.04-.77.08-1.15.13-.13.02-.25.03-.38.05-.04,0-.08.01-.12.02-.1.02.04,0,.07,0-.09,0-.17.02-.26.03-1.03.1-2.06.11-3.09.16-1.26.06-2.52.13-3.76.32-.51.08-1.03.17-1.53.34-.24.08-.48.18-.71.29-.08.04-.16.09-.24.14-.07.05-.14.1-.2.16-.01.01-.03.03-.04.04-.03.04-.16.21-.08.1.09-.13-.05.06-.05.07-.02.03-.05.1-.06.14,0,.02,0,.03-.01.05-.02.07-.02.15-.03.22l.06-.22c-.05.11-.11.23-.11.36l.05-.2h0c-.26.45.42.85.68.41h0s-.09.08-.14.13c.04-.02.07-.05.11-.08.05-.04,0,0-.03.02.01,0,.03-.02.04-.03-.04.02-.08.05-.02.02.06-.03-.09.01-.08,0,.11-.01.2-.03.3-.08-.03.01-.2.08-.03.01.03-.01.06-.02.08-.04.02,0,.04-.02.06-.03.05-.03-.11.05-.09.04.05-.02.1-.04.15-.06.02,0,.04-.02.05-.03.04-.02.08-.05.12-.07s.08-.04.12-.06c.02,0,.04-.02.06-.03.08-.04-.15.06-.04.02.46-.17.93-.29,1.41-.38.14-.03.27-.05.41-.07.07-.01.13-.02.2-.03.04,0,.08-.01.12-.02.14-.02-.11.01,0,0,.3-.04.6-.07.89-.1.63-.06,1.26-.1,1.89-.13,1.09-.06,2.18-.08,3.27-.17.23-.02.47-.04.7-.08.05,0,.11-.02.16-.02.04,0,.09-.01.13-.02.02,0,.04,0,.07,0,.09-.01-.11.01-.03,0,.19-.02.38-.05.57-.07.82-.09,1.64-.17,2.47-.26.86-.1,1.72-.22,2.57-.43.2-.05.41-.11.61-.17.09-.03.18-.06.27-.09.06-.02.12-.04.17-.06.12-.05.05-.02.03-.01.03-.01.06-.02.09-.04.38-.16.76-.33,1.11-.55.16-.1.31-.21.46-.32.32-.24.06-.7-.31-.53h0Z"/>
          <path class="cls-4" d="M212.32,258.09c-.42-.13-.83-.25-1.25-.37-.46-.13-.94-.21-1.41-.3-1.07-.2-2.16-.33-3.24-.42-2.06-.17-4.15-.24-6.22-.08-.49.04-.99.09-1.48.17-.43.06-.99.1-1.32.4-.12.1-.18.25-.2.4-.02.21.1.39.27.5.27.18.61.08.9.02.2-.04.4-.07.6-.11.1-.02.19-.03.29-.04.04,0,.12,0-.05,0,.03,0,.05,0,.08,0,.06,0,.13-.02.19-.02,2.02-.24,4.08-.2,6.1-.07s4.02.33,6.02.55c.2.02.41.05.61.07.17.02.33-.15.35-.3.02-.18-.08-.33-.25-.39h0Z"/>
          <path class="cls-4" d="M215.42,243.07c-1.33,1.03-2.8,1.88-4.27,2.7s-2.96,1.58-4.37,2.47c-.4.25-.78.51-1.16.79-.21.16-.42.32-.62.49s-.39.34-.52.57c-.16.29.1.65.43.56.22-.06.42-.18.61-.3.17-.11.34-.22.51-.33.35-.23.7-.45,1.05-.67.71-.45,1.44-.88,2.17-1.3,1.45-.85,2.92-1.66,4.29-2.62.8-.56,1.56-1.18,2.26-1.85.12-.11.12-.3.03-.43-.09-.11-.29-.18-.42-.08h0Z"/>
          <path class="cls-4" d="M75.66,191.12c.29.11.58.21.89.28.27.06.55.12.82.17.54.1,1.08.17,1.63.23.86.1,1.73.16,2.6.19.77.02,1.54.02,2.31.04,1.25.03,2.51.08,3.76.13,2.52.11,5.03.24,7.55.32s5.09.11,7.63.15,5.07.09,7.6.09c.31,0,.62,0,.93-.02.26-.01.51-.22.5-.5s-.22-.48-.5-.5c-1.26-.11-2.54-.1-3.8-.12s-2.54-.03-3.8-.05c-2.53-.03-5.07-.06-7.6-.13s-5.04-.2-7.55-.31c-2.14-.1-4.28-.17-6.42-.2-.83-.01-1.65-.04-2.48-.1-.48-.03-.96-.08-1.45-.14-.06,0-.12-.01-.18-.02-.03,0-.07,0-.1-.01.02,0,.09.01-.01,0-.16-.02-.32-.05-.48-.07-.01,0-.12-.02-.07,0,.05,0-.04,0-.04,0-.07-.01-.15-.02-.22-.03-.15-.02-.3-.04-.45-.07-.32-.05-.64-.06-.96-.09-.2-.01-.37.16-.4.35-.02.21.1.37.29.44h0Z"/>
          <path class="cls-4" d="M146.97,193.12c.31.04.62.08.94.08s.62,0,.94,0c.63,0,1.27-.02,1.9-.03,1.25-.02,2.49-.04,3.74-.07,2.5-.05,4.99-.08,7.49-.09s4.99-.01,7.48-.09c2.06-.07,4.12-.23,6.18-.37,1.82-.13,3.64-.19,5.46-.24.3,0,.6-.02.9-.04.26-.02.51-.22.5-.5s-.22-.48-.5-.5c-1.07-.07-2.16-.04-3.23,0-.85.03-1.7.07-2.55.13-1.95.13-3.9.3-5.86.38-2.49.1-4.98.12-7.48.12s-4.99.03-7.48.07-5.03.1-7.54.23c-.33.02-.66.08-.98.13-.19.03-.32.26-.29.44.03.21.19.32.4.35h0Z"/>
          <path class="cls-4" d="M75.41,192.18c-.12,1.04-.13,2.08-.13,3.13s.02,2.09.05,3.13c.06,2.09.14,4.18.25,6.26s.23,4.16.38,6.24c.13,1.69.27,3.37.33,5.07.06,1.59.11,3.19.37,4.77.23,1.44.66,2.85,1.57,4.01s2.15,1.98,3.42,2.65,2.73,1.25,4.13,1.8c1.58.62,3.13,1.32,4.72,1.91,1.83.68,3.74,1.21,5.7,1.3.5.02.97-.03,1.45-.16.19-.05.32-.25.29-.44-.03-.21-.19-.33-.4-.35-.23-.03-.44-.06-.69-.07s-.49-.02-.74-.03c-.48-.02-.91-.07-1.33-.14-.94-.15-1.87-.4-2.78-.69-1.73-.56-3.39-1.31-5.07-1.99-.64-.26-1.28-.5-1.91-.76-.15-.06-.3-.12-.44-.18-.08-.03-.16-.07-.24-.1-.04-.02-.08-.03-.12-.05.12.05-.06-.02-.08-.03-.34-.15-.68-.3-1.02-.45-.67-.31-1.32-.66-1.95-1.04-.3-.19-.6-.38-.89-.6-.03-.03-.07-.05-.1-.08.1.08-.01,0-.03-.02-.07-.05-.13-.1-.19-.16-.14-.11-.27-.23-.4-.36-.24-.23-.47-.48-.67-.74.08.1,0,0-.02-.02-.02-.03-.05-.06-.07-.1-.05-.06-.09-.13-.13-.2-.09-.14-.17-.28-.25-.43-.04-.07-.07-.14-.1-.21-.02-.04-.03-.07-.05-.11-.06-.12.04.1-.01-.03-.07-.16-.13-.33-.18-.5-.11-.34-.2-.68-.28-1.03s-.14-.71-.19-1.06c0-.05-.01-.09-.02-.14.02.12,0-.04,0-.05-.01-.09-.02-.18-.03-.28-.02-.2-.04-.4-.06-.61-.07-.78-.11-1.56-.13-2.34-.02-.73-.04-1.46-.07-2.19-.03-.84-.1-1.69-.16-2.53-.14-2.04-.27-4.07-.4-6.11s-.23-4.13-.31-6.2-.13-4.13-.21-6.2c-.02-.5-.06-.99-.12-1.49-.05-.43-.62-.43-.67,0h0Z"/>
          <path class="cls-4" d="M111.5,193.37c-.03.46-.07.91-.09,1.37s-.01.87-.02,1.31c-.01.87-.01,1.74,0,2.61.02,1.76.04,3.51.07,5.27s.06,3.51.07,5.27,0,3.5.03,5.25.07,3.48.01,5.23c-.01.4-.02.79-.06,1.19,0,.04,0,.08-.01.12,0,0-.02.15,0,.06s0,.06,0,.06c0,.04-.01.09-.02.13-.03.16-.06.32-.1.47-.07.29-.16.57-.26.84-.01.03-.03.06-.04.1-.03.08.05-.12,0,0-.03.06-.05.12-.08.18-.06.13-.13.26-.2.39-.14.25-.29.49-.46.72-.02.03-.04.05-.06.08-.08.1.05-.06,0,0-.05.06-.09.11-.14.17-.09.11-.19.22-.29.33-.39.42-.82.8-1.27,1.16-.03.03-.07.05-.1.08.09-.07.03-.02,0,0-.06.04-.11.09-.17.13-.13.09-.26.19-.38.28-.26.19-.53.37-.8.55-.48.32-.98.62-1.46.94-1.04.69-2.07,1.41-3.16,2.04-.57.33-1.15.61-1.75.87-.02,0-.09.04,0,0-.04.02-.08.03-.12.05-.07.03-.13.05-.2.08-.14.05-.29.1-.44.15-.27.08-.54.14-.81.19.1-.02-.08,0-.11.01-.09,0-.17.01-.26.03-.06.01-.12.03-.17.04-.03,0-.07.01-.1.02,0,0-.1,0-.05,0-.17-.02-.32.16-.32.32,0,.19.15.3.32.32h.04c-.05-.01-.11-.03-.16-.04.26.16.61.17.9.15.31-.02.62-.06.92-.13.65-.14,1.26-.38,1.86-.67,1.18-.56,2.29-1.28,3.38-2,2.03-1.33,4.27-2.51,5.78-4.47.76-.98,1.24-2.15,1.4-3.38.11-.83.12-1.68.14-2.52s.01-1.76,0-2.65c-.02-1.77-.05-3.53-.06-5.3s-.04-3.55-.07-5.33-.07-3.57-.12-5.36c-.02-.9-.03-1.8-.06-2.7s-.03-1.78-.09-2.67c-.03-.44-.06-.87-.09-1.31-.03-.48-.72-.48-.75,0h0Z"/>
          <path class="cls-4" d="M146.37,193.19c.28,1.51.27,3.09.21,4.63-.06,1.69-.21,3.38-.29,5.08-.1,2.03-.04,4.06-.04,6.09,0,1.12,0,2.24,0,3.36,0,.98.02,1.97,0,2.95-.04,1.49-.18,2.97-.17,4.46,0,.76.04,1.53.18,2.28.1.57.28,1.15.62,1.63.36.51.81.93,1.3,1.32.59.46,1.21.88,1.86,1.26,1.24.74,2.55,1.36,3.86,1.96s2.7,1.28,4.07,1.9c.93.42,1.86.82,2.83,1.15s1.9.57,2.9.56c.22,0,.45,0,.67-.01.24,0,.47-.06.71-.11s.26-.46,0-.5c-.24-.04-.47-.09-.71-.12-.22-.03-.41-.07-.63-.12-.45-.12-.9-.24-1.35-.36-.95-.24-1.88-.57-2.79-.95-.03-.01-.13-.06-.11-.05.05.02-.04-.02-.04-.02-.03-.01-.07-.03-.1-.04-.12-.05-.24-.1-.35-.15-.22-.1-.43-.19-.65-.29-.44-.2-.87-.41-1.31-.62-.62-.3-1.24-.59-1.87-.88-1.24-.56-2.47-1.13-3.67-1.77-.65-.35-1.3-.71-1.92-1.12-.14-.09-.28-.19-.42-.28-.07-.05-.13-.09-.2-.14-.03-.03-.07-.05-.1-.08-.01-.01-.03-.02-.04-.03-.06-.04.08.06.02.02-.24-.19-.48-.39-.69-.61-.1-.1-.19-.2-.28-.31-.02-.02-.04-.05-.06-.07,0,0-.03-.05-.04-.05,0,0,.07.09.04.05-.04-.05-.08-.1-.11-.16-.07-.1-.12-.2-.17-.31-.05-.1,0,.01,0,.01,0,0-.03-.08-.03-.08-.03-.07-.05-.14-.07-.21-.04-.14-.08-.29-.11-.44-.02-.08-.03-.15-.04-.23,0-.04-.01-.08-.02-.13,0-.05-.03-.13,0-.03-.07-.35-.07-.72-.08-1.08-.06-1.52.08-3.03.17-4.55.05-.8.04-1.61.04-2.41,0-1.11,0-2.22,0-3.33s0-2.24,0-3.36c0-1.04-.02-2.08,0-3.12.02-1.63.18-3.26.21-4.89s.03-3.31-.43-4.9c-.1-.34-.22-.65-.39-.96-.12-.22-.42-.06-.38.16h0Z"/>
          <path class="cls-4" d="M181.7,191.71c-.12.87-.32,1.74-.39,2.61-.06.77-.11,1.54-.1,2.31.01.81.06,1.62.05,2.44-.01.9-.05,1.8-.11,2.7-.12,1.79-.26,3.58-.28,5.37s.05,3.62.06,5.43.13,3.45.16,5.17c.02.87.01,1.74-.04,2.61-.01.2-.03.4-.05.6,0,.1-.02.19-.03.29,0,.06-.01.11-.02.17,0,.02-.03.21-.01.13.01-.09,0,.05,0,.05,0,.04-.01.08-.02.13-.01.07-.03.14-.04.21-.04.15-.08.31-.13.45-.02.07-.05.14-.08.21,0,0-.05.13-.02.04s-.02.03-.02.04c-.06.14-.14.28-.21.41-.06.11-.13.22-.21.32-.04.06-.08.11-.12.17-.05.07.09-.11,0,0-.03.04-.06.08-.1.12-.18.21-.38.41-.59.6-.1.09-.2.17-.3.25s.1-.07,0,0c-.03.02-.06.05-.09.07-.06.05-.13.09-.19.14-.49.34-1,.62-1.53.88-.27.13-.54.26-.82.38-.13.06-.26.12-.4.17-.07.03-.14.06-.21.09-.09.04,0,0,.02,0-.05.02-.1.04-.15.06-.62.26-1.24.51-1.85.79-.7.32-1.39.68-2.09,1.02s-1.43.71-2.15,1.04c-.09.04-.18.08-.27.12-.02,0-.13.06-.04.02-.08.03-.15.07-.23.1,0,0-.15.06-.08.03s-.09.04-.08.03c-.1.04-.19.08-.29.12-.35.14-.7.26-1.06.37-.17.05-.34.12-.51.17-.08.03-.15.05-.23.08-.05.02-.09.03-.14.05-.03,0-.21.05-.14.04-.22.04-.35.31-.29.51.07.24.29.33.51.29-.07.01.08,0,.08,0,.05,0,.09,0,.14,0,.08,0,.16-.01.24-.02.22-.03.45-.06.67-.11.36-.1.72-.21,1.07-.34.78-.28,1.53-.63,2.27-.98s1.44-.72,2.16-1.07c.34-.17.68-.33,1.03-.49.17-.08.33-.15.5-.22.05-.02.09-.04.14-.06.03-.01.1-.04-.02,0,.08-.03.16-.07.24-.1,2.21-.92,4.79-1.85,6.08-4.03.77-1.31.82-2.87.86-4.35.04-1.75-.06-3.5-.12-5.26-.03-.87-.02-1.74-.03-2.6,0-.93-.03-1.86-.04-2.78s-.02-1.81,0-2.72.07-1.83.13-2.74c.11-1.81.23-3.63.12-5.45-.05-.75-.09-1.5-.1-2.25-.01-.81.03-1.63-.03-2.44-.03-.44-.04-.88-.03-1.33,0-.24-.39-.3-.42-.06h0Z"/>
          <path class="cls-4" d="M108.57,172.65s.05.08.05.08c0,0-.02-.05,0,0,0,.01,0,.02.01.04.06.14.17.23.29.31.09.06.2.09.31.12.12.03.23.05.35.07.38.03.77-.01,1.15-.07.78-.12,1.54-.39,2.3-.6.44-.12.88-.23,1.32-.29l-.14.02c.16-.02.32-.04.49-.04.08,0,.16,0,.23,0,.12,0,.24-.02.35-.04l-.14.02c.06,0,.12-.01.18-.02.2-.04.37-.27.37-.48-.01-.23-.15-.4-.37-.48-.19-.07-.4-.07-.59-.06s-.41.04-.61.06c-.33.05-.66.12-.99.21-.68.18-1.33.41-2.01.6-.35.1-.71.18-1.07.23l.13-.02c-.26.03-.51.04-.77.04-.06,0-.12,0-.17,0-.03,0-.06,0-.09,0-.04,0-.09.01-.13.02-.07.01.09,0,.04,0-.1,0-.2.02-.29.07-.02.01-.08.03,0,.01.02,0,.04,0,0,0-.02,0-.03,0-.05,0-.12.01-.21.13-.14.25h0Z"/>
        </g>
      </g>
      <g>
        <path class="cls-4" d="M63.25,151.1c-.03.23-.06.45-.08.68s-.08.47-.09.71c-.03.45-.07.9-.12,1.35s-.12.89-.17,1.36-.1.82-.17,1.28c-.03.22-.06.43-.09.65-.04.29-.06.42-.1.71-.07.48-.13.97-.19,1.45-.12.93-.22,1.86-.25,2.79s0,1.81.05,2.72.11,1.8.2,2.7c.17,1.85.45,3.7.83,5.52.42,2.01,1,3.98,1.85,5.86.07.15.28.2.42.14.15-.07.24-.23.2-.4-.45-1.75-.87-3.51-1.21-5.28-.17-.89-.32-1.78-.45-2.67-.02-.12-.03-.23-.05-.35,0-.06-.02-.12-.02-.18-.03-.19,0,.07,0-.04-.03-.22-.06-.45-.08-.67-.05-.45-.1-.9-.15-1.35-.09-.9-.18-1.8-.24-2.7s-.12-1.81-.12-2.71c0-1.83.23-3.64.42-5.46.1-1.02.22-2.04.22-3.07,0-.51,0-1.02-.04-1.53s-.14-1.02-.29-1.5c-.03-.11-.23-.13-.25,0h0Z"/>
        <path class="cls-4" d="M62.27,177.12c-.1.63-.18,1.27-.29,1.9-.06.34-.13.68-.14,1.02s-.02.68-.03,1.02c-.04,1.31-.04,2.62-.04,3.92s.05,2.63.09,3.94.1,2.61.18,3.92c.16,2.63.4,5.25.83,7.85s.97,5.08,1.51,7.61,1.04,5.01,1.54,7.52c.06.31.16.61.25.92.1.37.65.29.66-.09,0-.32.02-.63-.01-.95s-.06-.63-.1-.95c-.07-.66-.17-1.33-.29-1.98-.23-1.27-.49-2.54-.75-3.81-.52-2.52-1.07-5.03-1.5-7.56-.11-.63-.21-1.26-.3-1.9-.02-.15-.04-.3-.06-.45-.02-.12,0-.05,0-.02,0-.04-.01-.08-.02-.12-.01-.09-.02-.18-.03-.27-.04-.32-.08-.64-.11-.95-.14-1.31-.24-2.63-.34-3.95-.18-2.61-.28-5.22-.33-7.83-.03-1.31-.04-2.61-.09-3.92-.03-.66-.05-1.31-.07-1.97-.01-.35-.08-.69-.14-1.02-.06-.32-.1-.63-.15-.95s-.1-.63-.15-.95c0-.06-.12-.06-.13,0h0Z"/>
      </g>
    </g>
    <g>
      <path class="cls-5" d="M147.94,123.12c.07-2.54.16-5.09.25-7.58.26-7.2-5.96-12.94-13.11-12.11l-17.97,2.05c-4.89-.2-8.79,4.05-8.15,8.89.38,2.85.68,5.8.88,8.46.14,2.07.25,3.98.27,5.51.06,3.89.43,7.94.3,11.9.39.42.82.84,1.33,1.27,2.42,2.11,4.51,4.46,6.43,7,.23.31.47.61.7.92,3.37,4.67,6.92,9.41,9.66,14.53,2.72-5.12,6.27-9.86,9.64-14.53.23-.32.47-.62.71-.94,1.91-2.54,4-4.88,6.42-6.99,1.26-1.1,2.08-2.08,2.73-3.17-.27-4.7-.23-9.95-.09-15.22Z"/>
      <g>
        <path class="cls-3" d="M118.17,148.51c.23.31.47.61.7.92,3.37,4.67,6.92,9.41,9.66,14.53,2.72-5.12,6.27-9.86,9.64-14.53.23-.32.47-.62.71-.94-6.76.98-13.71.45-20.71.01Z"/>
        <g class="cls-6">
          <path class="cls-2" d="M116.03,152.22c.36.15.71.32,1.08.46s.73.24,1.1.34c.8.21,1.62.32,2.44.43,1.64.21,3.28.29,4.93.31s3.38,0,5.06-.09c1.9-.09,3.79-.27,5.67-.46,2.13-.21,4.26-.45,6.4-.66.16-.02.3-.12.3-.3,0-.16-.14-.29-.3-.3-3.79-.05-7.56.46-11.34.7-1.72.11-3.45.15-5.18.17-1.64.02-3.28.04-4.92-.05-.91-.05-1.8-.15-2.7-.26-.42-.05-.84-.11-1.26-.17s-.86-.1-1.27-.22c-.05-.01-.07.06-.02.08h0Z"/>
        </g>
      </g>
    </g>
  </g>
  <g>
    <g>
      <g>
        <path class="cls-5" d="M170.06,81.41c.03,3.47-1.21,6.88-3.27,9.66-1.69,2.3-4.87,5.62-8.07,5.2-.62,3.54-1.47,6.98-2.57,10.21-2.96,8.66-11.12,13.98-18.23,18.26-3.59,2.15-6.78,2.85-10.84,2.98-4.06-.16-7.26-.87-10.86-3.05-5.02-3.04-10.09-6.3-13.92-10.81-4.02-4.76-5.42-10.97-6.82-16.99-3.3.84-6.72-2.59-8.54-4.93-2.13-2.72-3.44-6.1-3.5-9.56-.07-5.03,3.33-12.04,8.43-9.35-.4-5.97-.91-12.64.26-18.59.16-.8.33-1.58.56-2.34,6.59-22.93,41.88-29.69,58.2-13.26,8.31,8.37,9.74,21.29,9.71,32.56,0,.45,0,.91-.01,1.37,5.48-4.03,9.43,3.35,9.47,8.65Z"/>
        <g class="cls-9">
          <path class="cls-13" d="M92.11,77.38c-.06.36-.18.71-.22,1.08s-.06.73-.08,1.1c-.02.74,0,1.48.02,2.22.06,1.49.22,2.98.38,4.46.34,3,.86,5.98,1.51,8.93.18.81.37,1.62.57,2.42.1.39.23.77.36,1.15.07.2.14.39.22.59.04.09.07.18.11.26.05.11.13.19.21.27.1.1.28.05.31-.08.02-.09.06-.18.06-.27,0-.07-.01-.15-.02-.22-.02-.2-.04-.4-.06-.6-.05-.36-.09-.73-.15-1.09-.13-.72-.29-1.44-.44-2.16-.29-1.45-.54-2.91-.79-4.36-.12-.73-.24-1.46-.35-2.19-.06-.37-.11-.74-.16-1.11,0-.05-.01-.1-.02-.15-.02-.11.02.14,0-.05-.01-.11-.03-.22-.05-.33-.01-.1-.03-.2-.04-.29,0-.02-.02-.12,0-.02,0-.06-.02-.12-.02-.18-.2-1.48-.36-2.97-.47-4.46-.06-.82-.13-1.64-.22-2.45-.04-.42-.08-.85-.15-1.27-.03-.2-.06-.41-.11-.61s-.12-.39-.15-.59c-.02-.13-.24-.13-.26,0h0Z"/>
          <path class="cls-13" d="M160.55,75.76c-.15.41-.18.86-.23,1.29s-.1.86-.13,1.29c-.08.87-.1,1.75-.14,2.62-.09,1.73-.14,3.46-.21,5.19-.07,1.63-.14,3.25-.23,4.88s-.17,3.15-.33,4.72c-.05.45-.1.89-.15,1.34-.01.1-.03.2-.04.3,0,.02-.02.14,0,.05,0,.06-.02.11-.02.17-.03.22-.06.44-.1.66-.07.43-.15.86-.23,1.29s-.16.87-.21,1.32c-.04.34.5.47.65.18.18-.36.32-.73.43-1.11s.21-.75.3-1.13c.18-.75.33-1.52.44-2.29.23-1.61.38-3.23.47-4.86.19-3.35.33-6.7.37-10.05,0-.48,0-.97,0-1.45s0-.99-.03-1.48-.07-.99-.12-1.48-.07-.99-.24-1.45c-.04-.11-.19-.11-.23,0h0Z"/>
          <path class="cls-13" d="M165.46,75.91s-.1-.02.04.02l-.11-.04c-.08-.02-.16-.02-.24,0,0,0,.13-.02.06,0-.05,0-.11.01-.16.02-.07,0-.14.02-.21.03-.13.03-.26.07-.39.12-.16.07-.33.14-.48.23s-.29.2-.43.31c-.5.39-.9.9-1.25,1.43-.73,1.12-1.21,2.39-1.57,3.67-.05.16-.08.33-.11.5-.02.08-.03.17-.04.25-.01.07-.02.14-.02.2,0,.02,0,.04,0,.06,0-.03.01-.09,0-.03-.04.18-.06.35-.08.53-.01.14,0,.27.01.41,0,.07.04.13.11.16.06.02.14.02.19-.04.09-.1.18-.2.24-.31.07-.14.15-.27.2-.42.01-.03.02-.06.04-.09,0-.01.01-.03.02-.04.02-.04.03-.02-.01.03.04-.05.07-.13.1-.19.06-.13.12-.27.18-.4.14-.31.25-.65.37-.97.12-.3.24-.6.36-.9.03-.07.06-.14.08-.21.01-.02.07-.16.03-.06-.04.09,0,.02,0,0,.01-.02.02-.05.03-.07.06-.15.13-.29.2-.44.14-.29.29-.58.45-.86.08-.13.16-.26.24-.38.04-.06.09-.13.13-.19.02-.03.04-.06.06-.08.03-.04.13-.16,0-.01.18-.23.37-.44.58-.64.06-.05.12-.11.18-.16.01-.01.03-.02.04-.03.07-.05-.12.09-.04.03.03-.02.07-.05.1-.07.12-.09.25-.17.38-.24.06-.04.13-.07.2-.1.04-.02.18-.08,0,0,0,0,.33-.13.1-.05.07-.03.14-.05.21-.08.04-.01.07-.02.11-.03.08-.03.15-.06.22-.12.09-.11.09-.12.02-.02,0,0,.02-.01.02-.02.11-.09.14-.26.1-.39-.04-.15-.15-.23-.28-.28h0Z"/>
          <path class="cls-13" d="M86.21,77.18c.08.14.16.24.32.29.05.02.11.03.16.05.06.02.12.05.18.07l-.07-.03s.1.05.15.06c.03,0,.05.01.08.02.05.01.1.02.16.03.11.03.22.05.33.07.19.04.38.09.57.15.09.03.18.06.26.09.02,0,.04.02.06.03.09.04-.14-.06-.05-.02.05.02.1.04.14.06.16.08.32.17.47.27.07.04.13.09.19.13.02.01.03.03.05.04l-.09-.07s.02.02.03.03c.04.03.08.06.11.09.13.11.26.23.37.36.06.06.11.12.16.19.02.03.04.05.07.08.03.04.08.11-.04-.06.02.02.03.04.05.07.21.29.4.58.57.9.08.15.16.31.23.47.02.04.04.08.05.12.02.05.09.22,0,0,.04.09.07.18.11.27.28.71.49,1.44.72,2.17.13.42.26.83.39,1.24.07.21.14.42.21.62.05.13.11.27.19.39s.17.2.27.28c.1.08.21.13.34.09.11-.03.22-.13.24-.24s.05-.23.04-.34c0-.14-.04-.27-.07-.4-.04-.19-.11-.38-.17-.56-.11-.39-.22-.78-.32-1.16-.2-.76-.41-1.52-.68-2.26s-.58-1.46-1.04-2.1-1.06-1.2-1.78-1.55c-.39-.19-.8-.34-1.22-.43-.26-.05-.51-.09-.77-.09-.15,0-.29.02-.44.05-.16.04-.34.05-.46.17-.08.08-.18.24-.12.36h0Z"/>
          <circle class="cls-13" cx="111.09" cy="77.36" r="3.53"/>
          <circle class="cls-13" cx="142.87" cy="77.36" r="3.53"/>
          <path class="cls-13" d="M152.41,63.99c-.19-.29-.4-.57-.62-.84-.05-.06-.09-.11-.14-.17l-.02-.02c-.05-.06-.04-.05.03.05-.05-.02-.12-.15-.16-.19-.11-.11-.23-.21-.35-.31-.53-.45-1.08-.83-1.7-1.15-1.19-.63-2.52-1.01-3.85-1.21s-2.72-.31-4.09-.29c-1.28.02-2.57.24-3.79.6-.45.13-.87.3-1.3.49-.34.15-.68.31-.99.5s-.64.41-.94.63c-.44.33-.78.7-1.07,1.16-.21.33-.15.78.08,1.08s.64.46,1.02.35c.26-.08.51-.17.77-.26.35-.13.68-.3,1.02-.45l-.31.13c.77-.32,1.55-.57,2.35-.81.74-.23,1.51-.39,2.28-.5l-.38.05c1.86-.25,3.78-.26,5.64,0l-.35-.05c.26.04.52.07.78.11l-.34-.05c.82.11,1.61.3,2.41.5.4.1.78.23,1.17.36.19.06.37.12.56.19.09.03.18.07.26.1.03.01.18.08.05.02s.05.02.08.04c.15.07.31.13.47.19.05.02.1.04.15.06.03,0,.17.07.09.04s0,0,.01,0c.03.01.06.03.09.04.05.02.1.05.15.07.11.05.22.1.33.16.18.09.39.08.54-.07.13-.13.18-.38.07-.54h0Z"/>
          <path class="cls-13" d="M102.44,66.05c.18-.09.36-.18.55-.26.02,0,.05-.02.07-.03,0,0-.11.04-.04.02.04-.02.08-.03.13-.05.1-.04.2-.07.3-.11.14-.05.27-.12.41-.18.08-.04-.1.04-.09.04.02,0,.04-.02.06-.03.05-.02.1-.04.15-.06.18-.07.37-.14.55-.2.39-.13.77-.26,1.16-.37s.78-.2,1.18-.29c.46-.11.93-.19,1.4-.25l-.34.05c.26-.04.52-.07.78-.11l-.35.05c1.86-.25,3.78-.24,5.64,0l-.38-.05c.77.1,1.53.27,2.28.5.79.24,1.58.49,2.35.81l-.31-.13c.34.15.67.32,1.02.45.26.09.51.18.77.26.37.11.79-.05,1.02-.35s.28-.75.08-1.08-.47-.67-.78-.94-.67-.5-1.01-.72c-.29-.18-.58-.34-.89-.48-.38-.18-.77-.36-1.17-.5-.59-.2-1.21-.35-1.82-.47-.67-.13-1.36-.23-2.04-.26-1.24-.05-2.49.02-3.73.18-1.43.19-2.87.48-4.18,1.11-.69.33-1.33.73-1.92,1.21-.13.11-.26.22-.39.34-.06.05-.12.1-.18.16l-.12.16c.07-.1.08-.11.03-.05-.03.04-.06.07-.09.11-.24.29-.47.6-.69.91-.11.16-.06.41.07.54.15.15.36.16.54.07h0Z"/>
          <path class="cls-13" d="M122.43,106.12c.01.19.07.3.19.44.08.1.16.21.26.3.22.2.48.36.73.51.49.29,1.01.51,1.54.7,1,.37,2.04.61,3.11.7,2.09.19,4.19-.19,6.1-1.05.51-.23,1.03-.51,1.48-.84.26-.19.5-.38.72-.62.12-.13.26-.26.33-.42.06-.13.1-.23.15-.4.04-.14-.07-.33-.24-.32-.12.01-.23.04-.35.06-.15.03-.28.09-.42.16-.22.11-.44.22-.66.34-.43.24-.85.49-1.3.7-.11.05-.21.1-.32.15-.05.02-.1.04-.15.07-.11.05.01,0,.03-.01-.04.01-.07.03-.11.04-.22.09-.45.18-.68.25-.46.15-.93.28-1.4.37-.11.02-.23.04-.34.06-.05,0-.11.02-.16.03-.03,0-.06,0-.09.01-.16.02.11-.01.02,0-.24.03-.48.05-.72.07-.48.03-.97.03-1.45,0-.24-.02-.49-.04-.73-.07-.18-.02.1.02-.03,0-.06,0-.12-.02-.19-.03-.13-.02-.25-.04-.38-.06-.49-.09-.97-.2-1.44-.35-.27-.08-.54-.18-.8-.28-.07-.03-.14-.05-.2-.08-.02,0-.05-.02-.07-.03-.08-.03.11.05,0,0-.17-.08-.34-.15-.52-.22-.01,0-.09-.04-.01,0,.09.04-.04-.02-.06-.03-.07-.03-.14-.06-.21-.09-.16-.07-.32-.14-.49-.2-.1-.04-.02,0,0,0-.07-.03-.13-.06-.2-.08s-.14-.03-.21-.04c-.18-.04-.32-.08-.5-.01-.11.04-.21.14-.21.27h0Z"/>
          <path class="cls-15" d="M93.3,77.34s.43-2.38.81-4.26c.56-2.72,2.42-5.47,2.72-8.16.3-2.68-.69-5.53-.57-8.32s1.29-5.61,2.44-8.22c1.36-3.09,3.13-5.69,5.45-8.18,2.47-2.65,5.7-3.43,9.25-3.45,4.28-.02,8.56.32,12.85.61,4.29-.28,8.57-.63,12.85-.61,3.55.02,6.79.8,9.25,3.45,2.32,2.5,4.09,5.09,5.45,8.18,1.15,2.61,2.31,5.4,2.44,8.22s-.87,5.64-.57,8.32c.24,2.15,2.4,5.75,2.4,5.75,0,0,.65,3.94,1.3,6.27.36-1.59.72-2.56,1.22-4.18.57-1.83.83-4.5,1.35-6.36.48-1.72,1.01-2.27,1.04-4,.07-3.44-.25-6.88-1.03-10.24-1.55-6.7-4.88-12.97-9.79-17.81-.3-.3-.61-.59-.92-.87-4.39-4.03-10.7-6.05-16.4-7.2-6.87-1.39-14.25-.96-20.95,1.03-7.45,2.22-14.92,5.94-19.61,12.32-3.71,5.05-6.11,12.12-5.63,18.37.38,4.97,1.53,10.24,3.2,15.02.36,1.02,1.43,4.31,1.43,4.31Z"/>
        </g>
      </g>
      <path class="cls-13" d="M111.07,121.42c.2.25.4.49.65.7s.53.41.79.61c.49.38,1,.74,1.51,1.1,1.02.73,2.06,1.44,3.16,2.06,1.17.66,2.39,1.21,3.68,1.6s2.6.62,3.93.76,2.63.2,3.94.23c1.2.02,2.41-.15,3.58-.44,2.41-.6,4.7-1.72,6.77-3.08,1.02-.67,1.95-1.4,2.91-2.11.53-.39,1.05-.78,1.56-1.19.24-.19.48-.39.71-.59s.45-.44.66-.67c.1-.11.2-.2.29-.31.1-.12.15-.29.21-.44.06-.15-.14-.26-.26-.2-.14.07-.29.12-.4.22s-.23.2-.35.3c-.24.19-.49.37-.73.56-.47.38-.97.73-1.47,1.08-.98.69-1.94,1.41-2.95,2.06s-2.05,1.23-3.12,1.75c-.27.13-.55.26-.83.38-.07.03-.13.06-.2.09-.03.01-.07.03-.1.04.09-.04-.02,0-.04.02-.14.06-.28.12-.42.17-.56.22-1.14.42-1.72.59s-1.15.32-1.73.42c-.14.03-.29.05-.43.07-.07.01-.14.02-.2.03-.09.01.09-.01,0,0-.04,0-.08.01-.13.02-.28.03-.57.06-.86.07-.61.03-1.22,0-1.84-.01-.65-.02-1.3-.05-1.94-.11-.32-.03-.64-.06-.96-.09-.16-.02-.32-.04-.48-.06-.01,0-.13-.02-.07,0s-.05,0-.07,0c-.08-.01-.17-.02-.25-.04-.63-.1-1.27-.22-1.89-.37s-1.25-.34-1.86-.57c-.15-.06-.31-.12-.46-.18-.04-.01-.07-.03-.11-.04-.09-.04.06.03-.02-.01-.06-.03-.12-.05-.19-.08-.04-.02-.03-.01,0,0l-.05-.02c-.29-.13-.58-.26-.86-.4-1.12-.54-2.18-1.19-3.23-1.85s-2.07-1.39-3.19-1.92c-.29-.13-.58-.21-.89-.27-.07-.01-.11.06-.07.12h0Z"/>
    </g>
    <g>
      <path class="cls-5" d="M132.05,77.24c.32,2.51,1.39,3.57,3.62,4.68,1.47.73,4.61,2.09,4.94,3.85.36,1.9-1.56,3.99-2.84,5.13-1.17,1.04-2.48,2.02-3.51,3.19-.78.88-1.42,1.86-2.69,2.09-1.61.3-2.82-.74-3.31-2.17-.97-2.82-1.02-5.81-1.05-8.75-.03-2.31.01-4.58.54-6.84.27-1.15,1.17-5.36,3.08-5.16,1.54.16,1.09,2.95,1.22,3.97Z"/>
      <path class="cls-13" d="M131.68,71.05c-.32.55-.49,1.16-.56,1.78s-.04,1.23,0,1.84.09,1.19.16,1.78.12,1.16.24,1.72c.21.96.62,1.85,1.28,2.58s1.49,1.23,2.33,1.67c.79.41,1.61.78,2.38,1.22.43.24.84.5,1.23.79.03.02.05.04.08.06,0,0-.14-.11-.05-.04.04.03.08.07.12.1.09.08.19.16.28.24.16.15.3.3.44.47.08.1-.09-.12-.04-.05.01.02.03.04.04.06.03.04.06.08.09.13.05.08.1.17.14.26.08.16-.05-.15,0,0,.02.04.03.09.05.13.01.04.02.08.03.12.01.06.03.26.01.04,0,.12.02.24.02.36,0,.06,0,.13,0,.19,0,.03,0,.06,0,.09-.02.15.03-.17,0-.02-.05.26-.12.52-.22.76-.01.03-.02.06-.03.08.05-.16.03-.08.02-.04-.03.06-.06.13-.09.19-.07.13-.14.26-.21.39-.14.24-.29.47-.46.69-.03.04-.16.23-.05.07-.03.05-.08.1-.12.15-.09.12-.19.23-.29.34-.18.2-.36.39-.55.58-.87.87-1.83,1.65-2.74,2.48s-1.92,1.74-2.73,2.73c-.13.16-.26.32-.37.5s-.16.35-.22.54c-.12.43.35.74.72.55.18-.09.34-.19.5-.32.13-.11.24-.23.36-.35.23-.24.46-.48.69-.72.45-.47.92-.92,1.39-1.36.95-.88,1.95-1.71,2.9-2.59.83-.76,1.61-1.63,2.18-2.61s.99-2.23.59-3.34c-.35-.97-1.16-1.67-1.98-2.24s-1.65-.98-2.52-1.4c-.39-.19-.79-.38-1.17-.58-.43-.23-.82-.49-1.21-.76,0,0,.14.11.05.04-.02-.02-.04-.03-.06-.05-.04-.03-.08-.07-.12-.1-.08-.07-.17-.15-.25-.23-.07-.07-.14-.14-.2-.21-.03-.04-.07-.08-.1-.12-.04-.05-.15-.21-.02-.02-.12-.17-.24-.34-.34-.52-.05-.08-.09-.17-.13-.25-.01-.02-.09-.2-.04-.08s0,0,0-.02c-.01-.03-.03-.07-.04-.1-.17-.46-.27-.94-.35-1.42,0-.01,0-.11-.02-.11,0,0,.02.18,0,.05,0-.06-.02-.12-.02-.18-.02-.15-.04-.29-.06-.44-.04-.29-.07-.58-.11-.88-.07-.61-.12-1.23-.13-1.85,0-.3,0-.59,0-.89s0-.58,0-.87c0-.27.02-.54.04-.8.04-.43-.58-.55-.78-.21h0Z"/>
    </g>
  </g>
  <g>
    <path class="cls-2" d="M161.33,87.36l-.42,4.49c.78-.79,1.53-1.61,2.31-2.4-.64-.69-1.27-1.39-1.9-2.09Z"/>
    <path class="cls-13" d="M168.23,96.41c1.26,4.53-1.93,8.72-3.99,12.27-3.15,5.42-6.1,11.71-9.48,16.31-4.32,5.86-8.61,10.13-14.51,13.9-3.5,2.24-7.6,3.11-11.89,2.92-4.3-.19-8.3-2.29-11.97-4.76-6.12-4.12-11.66-8.2-16.49-14.11-3.8-4.64-7.07-9.8-10.45-15.08-2.21-3.46-5.66-7.34-4.5-11.88.54-2.13,2.14-3.61,3.45-5.32.34-.44.93-1,1.3-1.45.81.83,1.62,1.69,2.39,2.53-2.62,3.46-4.19,5.7-1.62,9.93,3.44,5.64,6.86,11.78,11.24,17,5.51,6.56,12.87,12.75,20.21,16.92,4.39,2.49,8.22,3.28,12.76,1.37,7.5-3.16,13.23-9.46,17.95-16.23,3.76-5.39,6.72-11.53,10.31-18.38,2.34-4.45.63-6.86-2.13-10.36.79-.84,1.6-1.7,2.43-2.53.4.47,1.04,1.06,1.4,1.51,1.35,1.7,3.01,3.34,3.59,5.44Z"/>
    <path class="cls-2" d="M89.7,89.22c.81.84,1.6,1.69,2.4,2.53.06-.07.16-.19.22-.25.17-.19.36-.37.53-.56l-.73-4.33c-.81.87-1.62,1.73-2.42,2.61Z"/>
    <g>
      <path class="cls-1" d="M86.67,178.72c-.4,7.79-.75,16.52-3.27,23.91-1.66,4.9-4.05,9.32-6.85,13.68-2.2,3.4-8.41,9.01-8.41,9.01,0,0-8.18,2.6-12.2,2.43-4.66-.22-9.85-1.42-13.92-3.73-4.7-2.67-9.05-8.07-11.58-12.78-2.05-3.8-3.09-7.98-3.6-12.27-1.53-3.86-2.31-7.95-2.11-12.26.4-8.63,7.07-24.62,7.07-24.62,0,0,3.46-5.45,5.87-7.72,2.14-2,4.71-4.67,7.5-5.7,11.28-4.93,27.37-.42,35.49,8.46,5.42,5.9,6.42,13.91,6.01,21.6Z"/>
      <g class="cls-7">
        <path class="cls-5" d="M74.94,177.95c-6.84-8.66-21.04-10.34-28.28-1.41-6.01,7.41-7.26,19.91-.12,27.04,4.45,4.45,10.43,6.95,16.56,5.44,6.66-1.64,12.89-7.12,15.46-13.53,2.4-5.97.15-12.75-3.63-17.54Z"/>
        <path class="cls-4" d="M85.33,186.13c-.3,1.32-.64,2.62-.98,3.91s-.68,2.67-1.08,3.99-.86,2.67-1.37,3.97c-.06.16-.13.32-.19.48-.01.03-.02.06-.04.09l-.02.04c.03-.07.02-.04-.04.09-.04.09-.07.18-.11.26-.06.14-.09.21-.17.4-.07.17-.14.33-.22.5-.29.64-.59,1.27-.9,1.89-.63,1.23-1.32,2.43-2.09,3.58-.2.29-.4.59-.61.87-.09.12-.18.25-.27.37-.05.07-.11.15-.17.22-.02.02-.04.05-.06.07-.02.02-.04.05-.06.07.04-.05.04-.05,0,0-.42.53-.85,1.06-1.3,1.56-.9,1.01-1.89,1.94-2.95,2.78-.02.02-.05.04-.07.06-.01.01-.13.1-.03.03-.06.05-.12.09-.18.14-.16.12-.33.25-.49.37-.29.22-.59.44-.89.65-.57.41-1.15.82-1.74,1.21-.54.36-1.1.69-1.66,1.01-.28.15-.56.3-.84.43-.13.06-.26.12-.4.18-.07.03-.14.06-.21.09.11-.05.03-.01,0,0-.04.02-.09.04-.13.05-.57.23-1.16.42-1.76.57-.3.07-.6.14-.91.19-.07.01-.14.02-.21.03-.04,0-.09.01-.13.02-.15.02.12-.01-.03,0-.16.02-.32.04-.48.05-.69.06-1.39.07-2.09.04-.37-.02-.74-.05-1.11-.09-.1-.01-.19-.02-.29-.03-.04,0-.09-.01-.13-.02.12.02-.06,0-.07,0-.2-.03-.4-.06-.6-.09-1.53-.23-3.06-.53-4.56-.92-.73-.19-1.46-.4-2.17-.64-.36-.12-.73-.25-1.09-.39-.17-.06-.33-.13-.5-.2-.1-.04-.19-.08-.28-.12-.02,0-.1-.04,0,0-.06-.03-.13-.05-.19-.08-1.41-.61-2.76-1.35-4.02-2.23-.16-.11-.32-.22-.47-.34-.07-.05-.14-.11-.21-.16-.04-.03-.08-.06-.13-.1-.14-.11.09.07-.05-.04-.3-.23-.59-.47-.88-.73-.48-.42-.93-.87-1.36-1.35-.21-.24-.42-.49-.62-.74-.02-.03-.04-.06-.07-.08.1.14.01.02,0,0-.04-.06-.09-.11-.13-.17-.1-.14-.2-.27-.3-.41-.35-.51-.68-1.04-.98-1.58s-.58-1.13-.83-1.71c-.06-.14.05.13,0,0-.01-.03-.02-.05-.03-.08-.03-.08-.06-.16-.1-.24-.06-.14-.11-.29-.17-.44-.11-.31-.22-.62-.32-.93-.4-1.22-.7-2.47-.92-3.73-.06-.32-.11-.63-.16-.95-.02-.16-.05-.32-.07-.48.02.19,0-.05-.01-.1-.01-.09-.02-.17-.03-.26-.08-.66-.14-1.32-.19-1.98-.1-1.3-.14-2.61-.15-3.92-.02-2.5.06-5.01.21-7.51.03-.6.08-1.2.15-1.79.03-.3.07-.59.1-.89,0-.04,0-.08.02-.12-.03.17,0,.03,0,0,0-.07.02-.13.03-.2.02-.16.05-.32.07-.49.19-1.2.44-2.4.75-3.57s.68-2.34,1.12-3.47c.11-.28.22-.56.34-.83-.06.15.04-.09.05-.13.03-.06.05-.12.08-.19.07-.15.13-.3.2-.44.25-.54.51-1.07.8-1.59.57-1.05,1.21-2.07,1.92-3.02.04-.06.09-.12.13-.17.02-.02.15-.2.06-.08.09-.13.2-.25.3-.37.18-.23.37-.45.56-.67.39-.45.8-.88,1.23-1.29s.86-.79,1.31-1.15c.06-.05.12-.1.19-.15.02-.02.04-.03.06-.05-.11.09,0,0,.02-.01.12-.09.24-.18.37-.27.24-.17.49-.34.74-.51.5-.32,1.01-.62,1.53-.89.28-.14.56-.28.84-.41.12-.06.25-.11.38-.17.02,0,.15-.06.02,0,.04-.02.08-.03.11-.05.08-.03.15-.06.23-.09,1.18-.47,2.41-.81,3.66-1.04.17-.03.34-.06.51-.09.09-.01.17-.03.26-.04.05,0,.1-.01.15-.02-.11.01.07,0,.09-.01.39-.05.78-.09,1.16-.11.76-.05,1.52-.07,2.28-.05s1.56.08,2.33.18c0,0,.18.02.06,0,.03,0,.07,0,.1.01.1.01.21.03.31.05.19.03.38.06.56.09.39.07.78.15,1.17.24,1.51.34,2.99.82,4.42,1.42-.08-.03,0,0,.02,0,.05.02.1.04.14.06.09.04.18.08.26.12.18.08.37.17.55.25.35.16.69.34,1.03.51.7.36,1.38.76,2.04,1.18.32.21.64.42.96.64.16.11.31.22.47.33.07.05.14.1.21.15.03.03.07.05.1.08.02.02.05.03.07.05-.05-.04-.05-.04-.02-.02.5.4.98.82,1.43,1.28s.88.96,1.28,1.47c-.07-.08-.02-.02,0,0,.03.03.05.07.08.1.04.06.09.12.13.18.1.14.21.28.31.43.19.27.36.54.54.81.71,1.13,1.33,2.33,1.88,3.56.07.15.13.29.19.44.04.08.07.17.11.25.01.03.02.06.04.08.02.05.02.06,0,0,.01.03.02.06.04.08.13.31.26.62.38.93.25.64.49,1.28.71,1.93.44,1.26.83,2.54,1.23,3.81.19.59.38,1.18.55,1.78.08.28.2.56.3.83.05.14.11.29.16.43.02.06.04.13.07.19,0,0,.08.18.04.07.01.04.02.08.03.12.08.28.51.16.43-.12-.01-.05-.03-.1-.04-.16v.12c.03-.16-.03-.33-.06-.49s-.06-.33-.09-.49c-.06-.31-.12-.62-.19-.93-.16-.64-.32-1.28-.49-1.92-.34-1.31-.73-2.61-1.15-3.89-.87-2.6-1.91-5.17-3.41-7.47-.74-1.13-1.58-2.2-2.54-3.14-1.05-1.03-2.27-1.88-3.51-2.66-2.69-1.67-5.67-2.89-8.76-3.55s-6.3-.75-9.41-.15c-2.49.48-4.9,1.44-7.01,2.84s-3.8,3.09-5.27,5.06-2.63,4.19-3.52,6.5-1.51,4.69-1.89,7.12-.49,4.99-.58,7.49-.1,5.24.11,7.86.64,5.3,1.5,7.82,2.12,4.84,3.92,6.79c2.08,2.24,4.77,3.89,7.58,5.05s5.96,1.87,9.05,2.31c1.49.21,2.98.32,4.47.16,1.29-.14,2.54-.44,3.74-.94s2.36-1.15,3.46-1.88c1.24-.82,2.45-1.7,3.61-2.62,2.17-1.73,3.99-3.85,5.51-6.17s2.8-4.97,3.81-7.64c.5-1.33.95-2.68,1.34-4.05.19-.67.37-1.35.54-2.03.08-.33.16-.66.24-.99.04-.18.05-.29.09-.5.03-.18.07-.36.1-.54.23-1.27.37-2.59.49-3.9.02-.2-.3-.24-.35-.05h0Z"/>
        <path class="cls-4" d="M48.57,155.65c-.58.2-1.12.45-1.65.76s-1.05.64-1.55,1.01c-1.07.79-2.07,1.67-3,2.61s-1.84,2.02-2.68,3.11c-.05.07-.1.13-.15.2l-.03.04c.05-.06.03-.03-.06.08-.02.03-.04.05-.06.08-.11.15-.21.29-.32.44-.2.28-.39.56-.59.84-.37.54-.72,1.09-1.06,1.65-1.44,2.36-2.59,4.92-3.5,7.54-1.05,3-1.81,6.1-2.29,9.25-.45,2.92-.67,5.88-.69,8.83s.18,5.65.67,8.44c0,.02.02.13,0,.04,0,.03,0,.07.01.1.01.11.03.23.05.34.01.08.02.17.04.25v.05c0-.1,0-.06.02.1,0,.05.02.1.03.15.07.34.14.69.21,1.03.15.67.31,1.33.5,1.99.39,1.37.86,2.71,1.43,4.02,1.16,2.65,2.69,5.12,4.5,7.37s3.92,3.96,6.37,5.3,5.11,2.23,7.84,2.71c.33.06.65.11.98.15.19.03.37.03.56.03.16,0,.4-.03.52-.02.21.02.4-.2.4-.4,0-.23-.18-.38-.4-.4.05,0-.09-.04-.08-.03-.03,0-.06-.02-.09-.02-.08-.02-.16-.04-.24-.06-.18-.05-.35-.09-.53-.11-.33-.05-.66-.1-.98-.16-.67-.12-1.34-.27-2-.44s-1.31-.37-1.96-.6c-.31-.11-.62-.23-.93-.35-.15-.06-.31-.12-.46-.19.09.04-.01,0-.03-.01-.04-.02-.08-.03-.11-.05-.09-.04-.18-.08-.27-.12-1.22-.55-2.4-1.2-3.5-1.95-.29-.2-.57-.4-.84-.61-.03-.02-.05-.04-.08-.06-.13-.1.05.04-.03-.02-.06-.05-.13-.1-.19-.15-.14-.11-.27-.22-.4-.33-.52-.44-1.01-.9-1.48-1.39s-.94-1.04-1.37-1.59c-.06-.07-.11-.14-.17-.21,0,0-.06-.08-.01-.02-.03-.04-.05-.07-.08-.11-.11-.15-.23-.3-.34-.45-.21-.29-.42-.59-.63-.89-.79-1.16-1.5-2.38-2.12-3.64-.16-.32-.31-.64-.46-.96-.07-.15-.13-.29-.2-.44-.03-.07-.06-.14-.09-.21,0-.02-.07-.17-.02-.05-.02-.05-.04-.09-.06-.14-.26-.63-.51-1.28-.74-1.92-.46-1.28-.84-2.59-1.14-3.92-.08-.33-.13-.67-.22-1s-.16-.65-.22-.98c-.06-.35-.11-.7-.16-1.04,0-.02-.01-.1,0-.01,0-.05-.01-.1-.02-.15,0-.07-.02-.15-.03-.22-.02-.17-.04-.35-.06-.52-.15-1.38-.25-2.76-.28-4.14-.07-2.81.08-5.64.4-8.43.09-.79.17-1.39.3-2.21s.27-1.54.43-2.31c.32-1.53.71-3.05,1.16-4.55s.97-2.96,1.55-4.41c.07-.18.14-.35.22-.53.01-.03.03-.07.04-.1.07-.17-.04.1.03-.07.04-.1.08-.19.12-.29.13-.3.27-.61.4-.91.25-.54.51-1.07.79-1.59.59-1.12,1.22-2.22,1.91-3.28.36-.56.74-1.11,1.12-1.66.2-.28.4-.56.61-.83.04-.06.09-.12.13-.18.02-.03.05-.07.07-.1.06-.08.03-.04.02-.02.11-.14.22-.29.34-.43.2-.24.41-.51.64-.78.22-.26.43-.51.66-.76.44-.49.89-.97,1.37-1.43.88-.86,1.83-1.65,2.85-2.34.48-.32.97-.63,1.46-.91.13-.08.04-.3-.11-.25h0Z"/>
        <path class="cls-4" d="M57.81,223.99c.29.08.58.17.88.22.32.05.65.09.97.11.65.05,1.29.07,1.94.04,1.36-.05,2.72-.26,4.04-.56,2.44-.54,4.71-1.6,6.91-2.77s4.34-2.47,6.37-3.93,4.05-3.13,5.84-4.96c.88-.91,1.71-1.86,2.48-2.87s1.42-1.97,1.94-3.06c.13-.27.26-.53.38-.8.18-.39-.34-.71-.58-.34-.33.5-.69.97-1.04,1.46-.17.24-.35.48-.53.72-.09.12-.17.23-.26.35-.04.06-.09.12-.13.17-.02.03-.04.05-.06.08-.01.02-.03.04-.04.06.03-.04.03-.04,0-.01-.75.96-1.55,1.88-2.38,2.76s-1.74,1.75-2.66,2.56c-.47.42-.96.82-1.45,1.22-.24.2-.49.39-.73.58-.03.02-.05.04-.08.06.1-.07,0,0-.02.01-.06.05-.12.09-.18.14-.13.1-.26.19-.38.29-1.98,1.48-4.08,2.81-6.24,4-1.05.58-2.12,1.12-3.2,1.64-.25.12-.51.24-.76.36-.13.06-.26.12-.4.18-.1.04-.02,0,0,0-.04.02-.08.03-.11.05-.08.03-.17.07-.25.1-.58.23-1.18.43-1.78.61-1.25.37-2.52.65-3.81.83-.24.03-.66.1-.92.13-.33.04-.67.08-.97.11-.63.08-1.27.13-1.91.17-.29.02-.59.07-.88.11-.09,0-.12.13-.02.16h0Z"/>
        <path class="cls-4" d="M35.12,164.33c-.88,1.33-1.55,2.8-2.27,4.23s-1.43,2.8-2.11,4.22-1.34,2.93-1.86,4.45-.91,3.22-1.27,4.85c-.77,3.48-1.43,7-1.68,10.57-.23,3.23-.03,6.47.4,9.67.21,1.6.48,3.19.84,4.76.34,1.48.75,2.96,1.32,4.37.13.33.29.65.42.98.05.11.15.19.27.16.11-.03.2-.16.16-.27-.28-.68-.46-1.4-.66-2.1s-.39-1.46-.54-2.2c-.33-1.53-.57-3.08-.75-4.61s-.3-3.07-.39-4.61c-.09-1.62-.13-3.25-.06-4.88.04-.88.11-1.76.2-2.63.04-.44.09-.87.15-1.3.03-.21.05-.42.07-.56.01-.1.03-.2.04-.3,0-.06.02-.12.03-.18,0-.04.01-.09.02-.13.01-.08.01-.1,0-.05.24-1.75.56-3.49.9-5.23s.66-3.34,1.15-4.96c.46-1.53,1.04-2.98,1.67-4.39s1.34-2.81,2.01-4.21c.35-.73.7-1.46,1.01-2.18s.64-1.48.84-2.25c.1-.39.19-.77.24-1.16.01-.09-.1-.15-.15-.06h0Z"/>
        <path class="cls-4" d="M33.03,164.32c.15-.18.31-.33.44-.51.06-.09.12-.17.19-.25.06-.08.13-.18.17-.22.25-.33.52-.64.79-.95.56-.64,1.16-1.23,1.8-1.79.08-.07.16-.14.24-.2.04-.03.08-.06.11-.09.03-.02.18-.13.07-.06.08-.05.16-.11.24-.16.04-.03.08-.05.12-.08.04-.02.11-.1.15-.1-.06.05-.07.06-.04.03.01-.01.03-.02.04-.03.08-.06.16-.11.24-.17.06-.04.12-.08.18-.13.19-.15-.07.05.01-.01.02-.02.05-.04.07-.06.17-.13.35-.26.52-.38.7-.5,1.43-.95,2.18-1.36s1.56-.8,2.37-1.15c.04-.02.2-.08.03-.01.05-.02.09-.04.14-.06.11-.04.21-.09.32-.13.2-.08.41-.16.61-.24.42-.16.85-.31,1.28-.44,1.73-.56,3.5-.96,5.3-1.22.11-.02.21-.03.32-.05.03,0,.07,0,.1-.01.03,0,.11-.03.02,0s0,0,.02,0c.03,0,.07,0,.1-.01.23-.03.46-.06.69-.08.46-.05.92-.09,1.37-.12.92-.07,1.84-.1,2.76-.1s1.85.03,2.77.1c.45.03.91.07,1.36.12.22.02.44.05.66.08.05,0,.1.01.16.02h.04q.05.01,0,0c-.07.02-.02,0,.02,0,.12.02.23.03.35.05,1.75.26,3.48.64,5.17,1.16.81.25,1.6.53,2.39.85.09.04.18.07.27.11s-.03-.01-.04-.02c.02.01.04.02.07.03.05.02.11.05.16.07.19.08.38.17.57.26.39.18.77.37,1.15.57.97.52,1.9,1.11,2.77,1.78-.09-.07.04.03.07.06.05.04.1.08.14.12.11.09.21.17.32.26.2.17.4.35.6.53.38.35.76.72,1.11,1.1s.71.79,1.04,1.2c.08.09.15.19.23.29-.06-.08.04.05.06.08.05.06.09.12.14.18.16.21.31.42.46.63.62.88,1.19,1.8,1.73,2.74.27.47.57.94.82,1.43.1.19.36.24.54.14.19-.11.24-.35.14-.54-.25-.49-.47-1.03-.73-1.54s-.53-.97-.81-1.45c-.56-.95-1.19-1.86-1.87-2.73-1.34-1.72-2.94-3.22-4.76-4.42-1.56-1.03-3.29-1.8-5.04-2.43-1.66-.59-3.36-1.04-5.09-1.36-1.85-.34-3.72-.55-5.59-.62s-3.73,0-5.59.19-3.73.54-5.55,1.04-3.51,1.12-5.16,1.94-3.1,1.73-4.44,2.9c-.02.02-.04.03-.06.05l-.09.11c.05-.06.05-.07.03-.04-.04.02-.07.07-.1.1-.08.08-.15.16-.23.24-.15.15-.31.29-.46.44-.3.3-.6.61-.88.93-.3.34-.58.69-.85,1.04-.13.17-.23.3-.37.52-.12.18-.24.35-.35.53s-.22.36-.32.53-.17.4-.25.6.22.37.36.21h0Z"/>
        <path class="cls-4" d="M82.72,190.03c-.3.74-.63,1.47-.89,2.23s-.54,1.48-.83,2.22c-.56,1.41-1.16,2.81-1.83,4.17-1.38,2.8-3.03,5.46-4.91,7.95-.92,1.22-1.94,2.39-3.1,3.39-.56.48-1.16.92-1.8,1.3-.31.18-.62.35-.94.51-.34.16-.63.29-.96.42-.68.27-1.38.49-2.09.68-.77.21-1.56.41-2.35.52-1.58.23-3.25.16-4.83-.1s-3.27-.74-4.84-1.31c-1.38-.5-2.64-1.02-3.93-1.76-1.15-.67-2.14-1.39-3.1-2.28-.48-.44-.93-.9-1.35-1.39-.45-.51-.79-.95-1.17-1.51s-.72-1.11-1.04-1.69c-.16-.29-.31-.59-.46-.9s-.29-.63-.39-.88c-.61-1.51-1.09-3.08-1.42-4.67s-.5-3.05-.58-4.65-.05-3.18.08-4.76c.25-3.17.86-6.32,1.66-9.43s1.76-6.19,2.73-9.26c.23-.73.45-1.47.7-2.19.07-.2-.08-.44-.28-.49-.22-.06-.42.07-.49.28-.51,1.54-1.07,3.06-1.57,4.6s-.99,3.11-1.43,4.68c-.9,3.17-1.63,6.39-2.05,9.65s-.49,6.51-.03,9.74c.23,1.6.59,3.19,1.09,4.72.47,1.45,1.06,2.87,1.8,4.2,1.32,2.36,3.14,4.4,5.32,5.98,1.09.79,2.27,1.45,3.5,1.99,1.54.68,3.14,1.25,4.77,1.69s3.35.73,5.06.76c.85.01,1.7-.05,2.54-.17s1.61-.32,2.4-.54c1.44-.4,2.85-.93,4.13-1.71,1.36-.82,2.54-1.91,3.59-3.1s2-2.48,2.9-3.8,1.74-2.65,2.5-4.04,1.42-2.8,2.02-4.25,1.12-2.96,1.58-4.47c.23-.74.36-1.51.51-2.28.03-.15-.16-.19-.22-.06h0Z"/>
      </g>
    </g>
    <g>
      <g>
        <g>
          <path class="cls-5" d="M91.6,155.15c-.62,4.8.51,9.51.22,14.37-.43,7.47-1.5,15.03-6.53,20.95-8.89,10.48-26.4,11.46-37.47,3.67-4.52-2.7-7.98-7.2-8.96-12.53-.74-3.98-.77-8.21-.51-12.23.23-3.44.26-6.91.84-10.32.52-3.05.71-6.55,1.88-9.43.68-1.72,2.37-4.08,4.35-5.13.33-5.12,1.78-10.03,6.07-13.75,2.3-2,5.09-3.67,7.59-5.39,2.08-1.43,5.13-2.7,6.29.48.06.16.1.3.14.46.19-.16.39-.29.59-.42,2.27-1.39,5.26-2.08,7.91-2.21,3.83-.19,7.07,2.02,6.39,4.76,2.72-.58,5.52-.29,7.4,1.32,2.69,2.28,1.9,4.67,1.14,7.43,2.13-.56,3.14-.65,4.46-.64,3.66.03,3.95,4.21,3.01,6.71-1.47,3.96-4.24,7.69-4.8,11.91Z"/>
          <g class="cls-8">
            <path class="cls-13" d="M70.79,164.07c-.62.56-1.24,1.15-1.76,1.81s-.98,1.3-1.4,2c-.82,1.35-1.49,2.79-2.02,4.27-1.06,2.96-1.54,6.09-1.72,9.22-.1,1.78-.03,3.56-.02,5.34,0,.5.78.5.78,0,0-1.58.12-3.16.25-4.74.06-.77.13-1.54.22-2.31.02-.19.04-.38.07-.57.01-.08.02-.16.03-.25-.02.14,0-.03,0-.05,0-.07.02-.13.03-.2.05-.37.11-.75.17-1.12.25-1.51.58-3.02,1.03-4.49.22-.72.47-1.43.75-2.13.04-.09.07-.18.11-.27.02-.05.04-.09.06-.14.04-.09.02-.04,0-.02.08-.2.17-.39.26-.59.16-.35.33-.69.5-1.03.4-.78.84-1.55,1.32-2.28.5-.77.99-1.56,1.54-2.3.1-.13-.11-.27-.21-.17h0Z"/>
            <path class="cls-13" d="M46.44,178.69c.6,0,1.16-.28,1.68-.56.58-.32,1.1-.71,1.61-1.12,1.01-.82,1.91-1.77,2.8-2.71.79-.84,1.61-1.66,2.36-2.53.85-.99,1.65-2.02,2.35-3.12.37-.57.71-1.16.99-1.78.27-.59.56-1.23.59-1.88.01-.25-.2-.46-.43-.49-.26-.04-.45.12-.55.36v.03c.01-.06.02-.07,0-.04,0,0-.11.27-.08.18-.02.05-.03.11-.05.16-.04.12-.08.24-.12.35-.02.06-.05.13-.07.19-.01.03-.02.05-.03.08-.05.13.03-.08,0,0-.06.12-.11.25-.17.37-.26.53-.55,1.05-.87,1.56-.33.53-.68,1.05-1.06,1.55-.09.13-.19.25-.28.38-.02.03-.04.05-.06.08.07-.09.01-.02,0,0-.06.08-.12.16-.18.23-.19.24-.39.48-.58.71-.73.86-1.52,1.66-2.28,2.49-.85.93-1.72,1.83-2.63,2.71-.26.25-.52.49-.79.72-.13.11-.26.22-.39.33-.03.02-.06.05-.09.07-.03.02-.03.02,0,0-.04.03-.08.06-.12.09-.07.05-.13.11-.2.16-.02.02-.05.04-.07.06-.08.06.02-.01-.05.04-.07.05-.14.1-.2.15-.14.1-.28.2-.39.27-.26.18-.53.35-.77.56-.14.12-.02.36.15.36h0Z"/>
            <path class="cls-13" d="M42.88,153.55s.06.07.08.11c.04.1-.01-.04,0,.02,0,.02.01.05.02.07.06.16.21.3.32.43.07.09.16.17.22.27-.08-.12.03.04.05.07.06.09.13.17.2.26,0-.01-.08-.1-.02-.02.02.03.04.06.07.09.03.04.07.09.1.14.08.11.15.21.23.32.15.21.29.41.44.61.34.45.7.89,1.12,1.27.46.42.98.75,1.56.98,1,.41,2.08.38,3.07-.04.93-.4,1.66-1.14,2.27-1.93.33-.43.63-.9.89-1.38.27-.51.48-1.05.68-1.6.08-.21-.07-.45-.26-.53s-.46-.01-.57.19c-.23.41-.48.81-.73,1.2-.13.2-.26.4-.39.6-.06.1-.13.19-.2.29-.03.04-.06.09-.1.13-.02.02-.04.05-.05.07-.03.03-.12.14,0,0-.15.17-.29.36-.44.52s-.32.34-.49.5c-.08.07-.15.14-.23.2-.04.03-.21.14-.03.03-.05.03-.1.07-.15.11-.18.12-.36.23-.55.33-.05.02-.1.05-.15.07-.02,0-.04.02-.06.03-.11.05.13-.05.05-.02-.1.04-.2.08-.3.11-.1.03-.19.05-.29.07-.05.01-.11.02-.16.03-.05,0-.11,0,.08-.01-.03,0-.06,0-.1,0-.21.02-.45.03-.66-.01,0,0,.18.03.07,0-.03,0-.06,0-.09-.01-.05,0-.1-.02-.16-.03-.12-.03-.24-.06-.35-.1-.06-.02-.12-.04-.18-.07-.13-.05.11.05.03.01-.03-.01-.06-.03-.09-.04-.13-.06-.25-.12-.37-.19-.1-.06-.21-.12-.31-.19-.05-.04-.11-.07-.16-.11-.03-.02-.05-.04-.08-.06-.05-.04.12.1,0,0-.39-.32-.74-.69-1.06-1.08-.35-.43-.7-.86-1.07-1.26-.18-.19-.38-.37-.59-.53-.14-.11-.33-.28-.52-.3-.04,0-.08-.01-.12-.01-.1,0,.08.01-.03,0-.07-.01-.13-.03-.2-.06-.26-.09-.4.25-.25.43h0Z"/>
            <path class="cls-13" d="M52.39,143.51c-.01-.35-.26-.68-.51-.92-.05-.04-.09-.09-.14-.13-.06-.05-.12-.09-.17-.14.16.14-.02-.02-.04-.04-.02-.01-.04-.02-.06-.04-.13-.08-.26-.14-.4-.2-.33-.14-.67-.26-1.03-.32s-.72-.1-1.08-.1c-.69,0-1.36.11-2,.36-.77.3-1.51.7-2.18,1.18-.36.25-.71.51-1.06.77-.2.15-.39.32-.59.47-.18.14-.36.3-.5.48-.15.19.05.5.28.49.41-.02.81-.24,1.17-.42.34-.16.66-.37.98-.57.64-.4,1.28-.81,1.98-1.11.02,0,.03-.01.05-.02.07-.03-.12.05-.04.02.04-.02.08-.03.12-.05.09-.04.19-.07.28-.1.17-.06.34-.11.51-.14.13-.03.27-.05.4-.08.01,0,.03,0,.04,0,.09-.01-.08.01-.08.01,0,0,.08,0,.1-.01.08,0,.15-.02.23-.02.3-.02.6-.02.91,0,.07,0,.14.01.21.02.1.01-.07,0-.07,0,.02,0,.04,0,.06,0,.04,0,.08.01.12.02.15.03.31.06.46.09.16.04.32.09.48.15.03.01.15.06.05.02s.04.02.06.03c.07.03.14.06.21.09.08.03-.05-.02-.05-.02.02.01.04.02.06.03.14.07.27.15.4.23.06.04.12.08.18.12.04.03,0-.01-.02-.01,0,0,.03.03.04.03.05.04.06.05.1.07l.09.04s-.06-.02-.02,0c.21.09.5-.01.49-.28h0Z"/>
            <path class="cls-13" d="M65.27,123.75c.02.06.03.12.05.18s.05.11.07.16c0,.02.01.03.02.05-.02-.05-.02-.03,0,0,.04.1.09.19.14.28.02.04.02.01,0-.02,0,0,.02.04.02.05.02.05.03.1.05.15.03.08.05.17.07.25.02.09.02.19.05.28-.04-.14,0-.01,0,.04v.02c.02.16.03.18,0,.06,0,.02,0,.05,0,.06.01.1.02.21.02.31.02.39.03.78.01,1.17-.01.18-.03.36-.05.54,0,.07.02-.16,0-.06,0,.02,0,.04,0,.05,0,.04-.01.08-.02.12-.01.08-.03.15-.04.23-.05.22-.1.43-.17.64-.03.1-.07.2-.11.3,0,.02-.02.04-.03.07-.04.09.01-.03.02-.04-.03.05-.05.12-.08.17-.09.19-.19.37-.3.55-.05.08-.11.17-.17.25-.03.04-.06.08-.09.12-.02.02-.04.04-.05.07l.05-.06s-.03.03-.04.05c-.25.32-.54.61-.84.89-.15.14-.31.27-.47.4-.04.03-.08.06-.12.1-.02.01-.04.03-.05.04,0,0-.1.08-.03.02.1-.08-.13.1-.16.13-.04.04-.09.07-.13.11-.08.06.03-.02.03-.02,0,.02-.06.05-.08.06-.05.04-.1.08-.15.12-.1.07-.2.15-.29.22-.2.15-.4.29-.6.44-.43.31-.86.63-1.27.97-.18.14-.16.44-.04.61s.41.25.59.12c1.47-1.06,3.14-1.89,4.33-3.29.62-.73,1.1-1.59,1.32-2.54.09-.38.14-.78.16-1.17.03-.44.03-.89-.03-1.32-.07-.47-.21-.92-.43-1.34-.21-.39-.52-.82-1.01-.81-.11,0-.2.11-.17.22h0Z"/>
            <path class="cls-13" d="M81.03,126.37c-.04.08-.07.16-.1.24-.01.04-.03.07-.04.11-.02.07-.02.15-.03.22l.02-.11c-.01.08-.03.17-.04.25-.03.12-.02.26-.04.38-.02.18-.03.36-.06.54l.02-.14c-.04.28-.1.55-.21.81l.05-.12c-.1.23-.22.44-.37.63l.08-.1c-.12.15-.25.3-.38.44-.15.16-.31.3-.46.45s-.29.32-.44.47c-.18.18-.4.4-.4.68,0,.14.11.22.23.23.13.02.26-.04.37-.09.09-.04.17-.1.25-.15.17-.11.34-.23.5-.34.34-.24.64-.55.91-.87.23-.27.46-.56.61-.88.09-.18.17-.38.21-.58.05-.23.08-.47.11-.71.01-.11,0-.22,0-.34,0-.06-.01-.12-.02-.17,0-.07-.02-.13-.04-.19,0-.03-.02-.05-.03-.08-.03-.08-.06-.16-.1-.24-.03-.07-.08-.14-.13-.2-.08-.08-.16-.15-.26-.2-.07-.04-.19-.02-.23.06h0Z"/>
            <path class="cls-13" d="M42.43,160.42c.16.3.4.56.69.74.15.09.34.15.5.21.15.05.3.08.45.1.35.05.7.07,1.05.05s.71-.08,1.06-.15c.62-.12,1.23-.33,1.78-.64.5-.28.95-.65,1.35-1.05.48-.49.86-1.06,1.2-1.65.1-.17.05-.38-.1-.5s-.37-.1-.51.03c-.39.36-.78.73-1.15,1.11-.18.17-.35.35-.54.51-.04.04-.09.07-.13.11-.01.01-.03.02-.04.03-.04.03.07-.06.07-.05,0,.01-.07.05-.08.06-.1.07-.2.14-.3.21-.24.15-.49.28-.75.4l.14-.06c-.59.25-1.22.39-1.85.48l.16-.02c-.49.06-.99.09-1.49.05-.06,0-.11-.01-.17-.02.17.01.06,0,.01,0-.03,0-.06-.01-.1-.02-.05-.01-.11-.02-.16-.04-.04,0-.27-.03-.15-.02.09,0-.02,0-.04,0-.23-.04-.45-.09-.67-.17-.2-.07-.34.17-.26.33h0Z"/>
          </g>
        </g>
        <path class="cls-13" d="M78.23,196.03c-.16.12-.23.13-.39.22s-.31.18-.46.27c-.08.05-.16.09-.24.13-.04.02-.08.04-.12.06-.03.01-.19.09-.08.04-.11.05-.23.1-.34.16-.02.01-.05.02-.07.03,0,0-.12.05-.05.02.06-.02-.02,0-.03.01-.03.01-.06.02-.09.04-.85.34-1.75.57-2.63.78s-1.74.41-2.61.61c-1.34.31-2.69.61-4.05.65-1.57.05-3.18-.13-4.71.3-.24.07-.18.41.06.42,1.42.1,2.83.26,4.26.27s2.87-.28,4.26-.59c.94-.21,1.88-.44,2.83-.66s1.8-.46,2.66-.81,1.89-.79,2.06-1.77c.02-.13-.12-.29-.25-.19h0Z"/>
        <path class="cls-13" d="M51.38,196.25c-.11-.06-.21-.12-.32-.18-.08-.04-.16-.08-.25-.11-.03-.01-.06-.02-.09-.04,0,0,.11.05.04.02-.02,0-.04-.02-.05-.02-.25-.11-.49-.23-.72-.36-.5-.28-.99-.6-1.45-.93-.12-.09-.25-.18-.37-.27-.06-.04-.11-.08-.17-.13-.05-.04.08.06.03.02-.01-.01-.03-.02-.04-.03-.03-.03-.07-.05-.1-.08-.24-.19-.47-.38-.7-.57-.46-.39-.9-.79-1.34-1.21s-.88-.84-1.31-1.27c-.17-.17-.49-.19-.66,0s-.18.47,0,.66c.78.83,1.6,1.63,2.47,2.38.93.8,1.92,1.58,3,2.17.3.16.61.3.93.44.13.05.26.12.4.15.17.04.34.06.51.06.37.01.5-.51.19-.69h0Z"/>
      </g>
      <path class="cls-12" d="M134.34,165.04c-.07-2.14-.15-4.28-.24-6.41-.1-2.42-.2-4.85-.3-7.27-.09-2.3-.24-4.6-.35-6.9-.03-.5-.05-.99-.08-1.49-.01-.23-.02-.45-.03-.68-.05-.99-.07-2.01-.26-2.99-.09-.46-.13-.66-.64-.77-.77-.17-1.95-.04-2.71.15-1,.24-.74.91-.73,1.76.02,1.7.06,3.39.11,5.1.04,1.5.08,2.99.12,4.49.09,3.11.26,6.23.39,9.34.1,2.58.21,5.17.27,7.75.08,3.23.05,6.47-.01,9.7-.09,4.62-.3,9.24-.84,13.83-.05.42-.1.84-.16,1.26-.4,2.94-.94,5.87-1.68,8.75-.47,1.85-1.02,3.69-1.65,5.5-.36,1.02-.75,2.03-1.16,3.02-.9,2.08-1.93,4.1-3.18,5.99-.3.46-.63.9-.96,1.34-1,1.27-2.12,2.43-3.38,3.44-.91.68-1.89,1.26-2.93,1.72-.99.39-2.01.67-3.05.83-1.42.16-2.85.16-4.27-.01-1.39-.22-2.75-.6-4.06-1.13-1.64-.72-3.17-1.65-4.6-2.73-1.82-1.44-3.47-3.09-4.96-4.86-.37-.44-.73-.89-1.08-1.34-1.31-1.72-2.53-3.52-3.66-5.37-1.26-2.06-2.44-4.18-3.52-6.33-.75-1.5-1.45-3.03-2.1-4.58-1.42-3.41-2.62-6.91-3.65-10.46-.99-3.4-1.83-6.83-2.62-10.28-.41-1.8-.81-3.61-1.22-5.41-.12-.53-.57-1.07-1.03-1.34-.48-.28-1.19-.4-1.72-.23-.54.18-1.06.51-1.34,1.03-.29.55-.36,1.11-.23,1.72.65,2.88,1.27,5.77,1.96,8.64.75,3.13,1.57,6.24,2.53,9.31,1.07,3.43,2.31,6.79,3.75,10.08,1.26,2.91,2.71,5.73,4.3,8.47,1.29,2.23,2.67,4.4,4.2,6.47,1.64,2.21,3.41,4.34,5.44,6.22,1.96,1.81,4.15,3.45,6.56,4.61,1.27.61,2.59,1.14,3.96,1.5,1.4.37,2.85.59,4.29.66,1.49.08,2.97-.03,4.44-.28,1.32-.22,2.56-.65,3.78-1.18,1.03-.44,2-1.01,2.91-1.66,1.06-.77,2.06-1.61,2.97-2.55,1.75-1.82,3.22-3.92,4.45-6.12,1.26-2.26,2.29-4.65,3.18-7.08.78-2.12,1.42-4.28,1.98-6.47.92-3.62,1.54-7.3,1.98-11,.42-3.55.66-7.13.78-10.7.13-3.54.15-7.09.15-10.63,0-1.48-.05-2.96-.1-4.44Z"/>
      <g>
        <path class="cls-2" d="M88.6,166.51c-13.52,14.48-38.18,8.56-40.58-12.89-.97-8.47,3.19-18.14,10.68-22.78,2.25-1.39,4.74-2.41,7.28-3,2.46-.59,4.97-.82,7.46-.65,6.2.45,11.42,3.9,15.71,8.84,6.74,7.77,6.35,23.07-.56,30.49Z"/>
        <g class="cls-10">
          <path class="cls-11" d="M74.31,142.69c-.21-.11-.43-.2-.65-.29-.24-.1-.36-.14-.62-.21-.46-.12-.92-.2-1.4-.22-.93-.05-1.86.05-2.76.29-1.88.5-3.51,1.64-4.65,3.21s-1.81,3.66-1.76,5.67.81,3.97,2.18,5.44c1.15,1.23,2.72,2.07,4.37,2.39s3.44.19,5.04-.41c1.71-.64,3.19-1.74,4.29-3.2.99-1.32,1.55-2.96,1.6-4.61s-.37-3.16-1.15-4.53-1.96-2.56-3.39-3.21c-.2-.09-.4-.18-.6-.25.1.04-.09-.03-.13-.04-.04-.01-.09-.02-.13-.03-.05-.01-.1-.02-.15-.03-.02,0-.04,0-.06-.01-.03,0-.15-.04-.1-.02-.17-.06-.37.07-.41.23-.05.19.06.35.23.41h.04s-.1-.04-.15-.07c.29.26.67.42,1,.63.16.1.31.2.46.31.07.05.15.1.22.15.04.03.07.05.11.08.01.01.08.06.02.02s.01,0,.02.02c.29.23.56.48.81.74.12.13.25.26.36.4.06.07.11.13.17.2.03.03.05.07.08.1.03.04.05.03-.02-.03.02.01.03.04.04.06.22.29.42.6.59.91.09.16.17.31.24.48.04.08.07.16.11.23,0,0,.02.06.03.07,0,0-.04-.11-.02-.05.02.05.04.1.06.15.13.33.24.67.32,1.02.04.17.08.35.11.52.02.09.02.19.04.27,0,0-.02-.13,0-.06,0,.02,0,.04,0,.05,0,.05.01.11.02.16.03.36.05.71.03,1.07,0,.18-.02.36-.04.54,0,.04-.04.21,0,.03,0,.04-.01.09-.02.13-.01.09-.03.19-.05.28-.07.36-.17.72-.29,1.06-.03.08-.06.17-.09.25-.02.04-.06.1-.06.14,0,0,.05-.12.02-.06-.01.03-.03.06-.04.09-.08.17-.16.34-.25.51-.19.35-.41.69-.65,1.01-.04.06-.07.08,0,0-.04.04-.07.09-.1.13-.07.08-.14.16-.21.24-.14.16-.28.31-.43.46s-.32.3-.48.44c-.08.07-.16.13-.24.19-.02.01-.03.02-.05.04-.05.04.05-.04.05-.04,0,.01-.14.1-.15.11-.32.23-.65.44-.99.62-.17.09-.35.18-.52.26-.05.02-.1.04-.15.07-.11.05.11-.05,0,0-.1.04-.2.08-.3.12-.36.14-.74.25-1.11.34-.19.05-.39.09-.59.12-.09.02-.18.03-.28.04-.11.02.15-.02-.01,0-.05,0-.11.01-.16.02-.39.04-.78.06-1.17.05-.19,0-.38-.02-.57-.03-.09,0-.18-.02-.28-.03-.07,0,.06,0,.06,0-.01,0-.06,0-.08-.01-.05,0-.1-.02-.16-.02-.38-.06-.76-.16-1.13-.28-.18-.06-.36-.13-.54-.2-.1-.04.11.05-.02-.01-.04-.02-.08-.04-.13-.06-.09-.04-.18-.08-.27-.13-.35-.18-.68-.38-1-.62-.02-.01-.03-.02-.05-.04-.06-.05.08.07.02.02-.04-.03-.07-.06-.11-.09-.08-.06-.16-.13-.23-.2-.15-.13-.29-.27-.43-.41-.14-.15-.28-.31-.41-.47,0-.01-.05-.07,0,0,.05.06,0-.01-.02-.03-.03-.04-.06-.08-.09-.12-.07-.09-.13-.19-.2-.29-.13-.2-.25-.4-.36-.61-.05-.1-.1-.2-.15-.3-.02-.05-.05-.1-.07-.15,0-.02-.05-.11-.02-.04.03.07-.03-.06-.03-.06-.17-.43-.3-.87-.4-1.32-.02-.11-.04-.22-.06-.33,0-.05-.02-.11-.03-.16-.01-.09.01.1,0,.01,0-.03,0-.06-.01-.09-.03-.23-.04-.45-.05-.68s0-.47.01-.71c0-.11.01-.22.03-.33,0-.06.01-.11.02-.17,0-.02,0-.05,0-.07.02-.15-.01.08,0-.01.07-.46.17-.92.31-1.37.07-.22.15-.44.23-.66.02-.04.07-.17.02-.06.02-.05.04-.1.07-.15.05-.11.1-.22.16-.33.21-.43.46-.84.75-1.22.03-.05.07-.09.1-.14,0,0,.06-.07.01-.02s.01-.02.02-.03c.07-.09.14-.18.22-.26.14-.16.29-.32.45-.47s.33-.3.5-.44c.03-.02.15-.12.04-.03.04-.03.08-.06.12-.09.09-.07.18-.13.27-.19.36-.24.73-.44,1.12-.63.09-.04.19-.09.28-.13s0,0-.02,0c.03-.01.06-.02.08-.03.05-.02.11-.04.16-.06.2-.08.4-.14.61-.2.41-.12.84-.21,1.26-.27-.11.02,0,0,.05,0s.1-.01.15-.02c-.01,0,.23-.02.12-.02-.08,0,.02,0,.04,0,.06,0,.12-.01.18-.02.21-.02.42-.02.63-.03.43,0,.86.01,1.28.06.2.02.36.04.57.06.17.02.4.06.59.1.31.07.55-.38.23-.54h0Z"/>
          <path class="cls-11" d="M78.04,132.93c-.96-.4-1.89-.7-2.86-.91-.24-.05-.48-.1-.73-.14-.12-.02-.24-.04-.36-.06-.06,0-.11-.02-.17-.03-.08-.01-.24,0-.3-.04s.14.02-.04,0c-.04,0-.09-.01-.13-.02-.06,0-.12-.01-.17-.02-.13-.01-.26-.02-.39-.03-.25-.02-.51-.03-.77-.04-2.05-.07-4.11.18-6.08.74s-3.89,1.42-5.59,2.59-3.32,2.73-4.58,4.49-2.32,3.87-2.97,6.02-.96,4.36-.89,6.57.51,4.4,1.35,6.44,1.99,3.85,3.47,5.43c1.29,1.37,2.83,2.53,4.49,3.41s3.39,1.46,5.2,1.79,3.72.42,5.58.25,3.72-.59,5.48-1.25,3.45-1.55,4.98-2.67c1.66-1.22,3.12-2.66,4.35-4.31,1.12-1.5,2-3.17,2.61-4.94.58-1.67.89-3.44.95-5.21s-.14-3.48-.57-5.16-1.08-3.29-1.94-4.79-1.93-2.92-3.17-4.12-2.7-2.29-4.27-3.07c-.4-.2-.81-.39-1.22-.56-.06-.02.06.02,0,0-.05-.02-.09-.04-.14-.06-.05-.02-.11-.04-.16-.06-.1-.03-.19-.07-.29-.1s-.2-.06-.3-.09c-.11-.03-.27-.07-.34-.1-.17-.06-.37.07-.41.23-.05.19.06.35.23.41.15.06.37.18.55.27.19.1.39.2.58.3.39.19.77.4,1.15.62s.72.44,1.08.68c.18.12.36.24.53.37.08.06.16.12.24.18.05.03.09.07.14.1.02.02.04.03.06.05.01,0,.1.08.04.03-.06-.04.07.05.08.06.04.03.08.06.12.09.09.07.17.14.26.21.16.13.31.27.47.4.32.28.62.57.92.88s.58.61.86.93c.14.16.27.32.4.48.06.08.12.15.18.23.02.03.07.07-.02-.03.02.02.03.04.05.06.04.05.07.1.11.15.5.67.95,1.37,1.36,2.09.2.36.39.73.57,1.1.09.19.18.38.26.57.02.04.03.1.06.14-.08-.12,0-.02.01.03.04.1.08.2.12.31.3.77.55,1.56.75,2.37.1.41.18.82.25,1.23.02.1.03.19.05.29,0,.05.01.1.02.15,0,.02,0,.05.01.07,0,.02.02.16,0,.05s0,.07.01.09c0,.05.01.1.02.15.01.1.02.21.03.31.08.84.11,1.68.07,2.52-.02.42-.05.84-.1,1.26,0,.05-.01.1-.02.15,0,.05-.03.21,0,.03-.02.1-.03.21-.05.32-.03.21-.07.42-.11.63-.16.84-.39,1.67-.68,2.48-.07.21-.15.41-.23.62-.04.09-.09.19-.12.29.04-.16,0-.02-.01.03-.03.06-.05.12-.08.18-.18.41-.38.81-.59,1.2-.44.81-.94,1.58-1.49,2.31-.03.04-.07.09-.1.13-.05.07.07-.09.02-.03-.02.02-.03.04-.05.07-.08.1-.16.2-.24.3-.15.18-.3.36-.46.54-.33.37-.67.73-1.02,1.07s-.74.7-1.13,1.02c-.18.15-.35.29-.53.43-.01.01-.05.05-.06.05,0,0,.12-.09.03-.02-.04.03-.09.07-.13.1-.1.07-.19.14-.29.22-.73.53-1.5,1.01-2.29,1.43-.4.21-.81.42-1.23.6-.1.04-.2.09-.29.13-.02.01-.05.02-.07.03-.1.04.03-.01.04-.02-.06.01-.13.05-.19.08-.21.09-.42.17-.64.25-.85.31-1.72.57-2.6.77-.44.1-.89.19-1.34.26-.11.02-.21.03-.32.05-.05,0-.11.02-.16.02-.03,0-.05,0-.08.01-.08.01.14-.02.03,0-.22.03-.45.05-.68.08-.9.09-1.8.12-2.7.08-.45-.02-.9-.05-1.34-.1-.1-.01-.21-.02-.31-.04-.05,0-.1-.01-.16-.02-.05,0-.09-.03.04,0-.03,0-.07,0-.1-.01-.22-.03-.44-.07-.66-.11-.87-.16-1.74-.37-2.58-.66-.21-.07-.42-.15-.63-.22-.1-.04-.2-.08-.29-.11-.05-.02-.1-.04-.15-.06-.04-.02-.24-.08-.08-.03-.21-.07-.41-.18-.61-.27s-.4-.2-.6-.3c-.8-.41-1.56-.89-2.27-1.43-.02-.01-.15-.12-.09-.07s-.07-.05-.08-.07c-.09-.07-.18-.14-.27-.22-.18-.15-.35-.3-.52-.45-.35-.31-.68-.64-1-.98s-.63-.71-.93-1.08c-.02-.02-.03-.04-.05-.07.01.01.07.1.01.02-.03-.05-.07-.09-.1-.14-.08-.1-.15-.21-.23-.31-.16-.22-.31-.44-.45-.66-.29-.45-.56-.92-.81-1.4-.13-.24-.24-.49-.36-.73-.05-.12-.11-.23-.16-.35-.01-.03-.03-.06-.04-.09-.03-.08.04.09,0,0-.03-.07-.05-.13-.08-.2-.4-1-.71-2.03-.92-3.08-.05-.26-.1-.53-.14-.79-.02-.12-.04-.25-.05-.37.02.13,0-.03,0-.08,0-.08-.02-.16-.03-.23-.06-.52-.09-1.05-.11-1.58s0-1.07.03-1.61c.02-.26.04-.52.06-.78.01-.13.03-.27.04-.4,0-.06.02-.13.02-.19.01-.09-.01.1,0,.01,0-.04.01-.08.02-.12.15-1.07.39-2.13.72-3.16.16-.52.35-1.03.55-1.53.02-.06.05-.12.07-.18,0-.02.04-.1,0,0,.01-.03.03-.06.04-.09.05-.13.11-.25.17-.37.11-.25.23-.5.35-.74.49-.98,1.06-1.91,1.7-2.8.08-.11.15-.21.23-.31.02-.03.13-.17.05-.07.05-.06.09-.12.14-.18.16-.2.33-.4.5-.6.34-.39.69-.76,1.06-1.11s.74-.68,1.13-.99c.05-.04.09-.07.14-.11.03-.02.06-.05.09-.07-.01.01-.1.08-.01.01.1-.08.2-.15.3-.23.2-.15.41-.29.62-.43.83-.56,1.7-1.04,2.61-1.46.11-.05.21-.1.32-.15.05-.02.11-.05.16-.07.03-.01.05-.02.08-.03.14-.06-.12.05.02,0,.23-.1.46-.19.7-.27.47-.17.94-.33,1.42-.47s.95-.25,1.43-.35c.24-.05.49-.1.74-.14.12-.02.23-.04.35-.06.06,0,.12-.02.17-.03.02,0,.11-.02.04,0-.08.01.04,0,.06,0,.99-.13,1.98-.19,2.98-.17.5,0,.99.04,1.48.07.25.02.49.04.74.07.12.01.23.03.35.04.01,0,.09.01,0,0,.03,0,.06,0,.09.01.07,0,.13.02.19.03.91.14,1.84.32,2.79.59.15.04.32-.05.37-.21.05-.17-.06-.3-.21-.37h0Z"/>
          <path class="cls-1" d="M55.14,136.64c.13.04.27.07.4.02.07-.03.13-.05.19-.08.18-.07.36-.15.51-.27.23-.18.47-.36.7-.54.17-.13.34-.27.51-.4l-.13.1c.47-.36.96-.68,1.5-.93.06-.03.11-.08.15-.14.05-.05.08-.11.1-.19l.02-.15c0-.08-.01-.15-.05-.21-.01-.05-.04-.09-.07-.12-.04-.06-.09-.11-.15-.14-.12-.07-.28-.1-.42-.06-.5.18-.99.41-1.44.68-.2.12-.4.24-.58.38-.23.17-.45.35-.67.52-.1.08-.21.15-.3.24-.05.04-.09.09-.14.13-.08.08-.14.17-.21.26l.09-.11c-.05.06-.09.12-.14.18l.08-.11s-.03.04-.05.07c0,.01-.02.02-.03.03-.03.04-.06.07-.09.11-.01.02-.02.05-.03.07-.03.07-.04.12-.04.2,0,0,0,.02,0,.02,0,.02,0,.04,0,.05,0,.17.12.3.27.36h0Z"/>
          <path class="cls-1" d="M73.16,156.09s.08,0,.12,0l-.24-.07s0,0,0,0c.03.02.09.04.12.05.08.03.2.02.29,0,.03,0,.06-.02.08-.03.09-.03.18-.06.27-.1.1-.05.19-.1.29-.15s.18-.1.27-.16.17-.12.26-.18c.21-.16.42-.32.61-.5s.38-.38.53-.6.3-.45.42-.69c.04-.06.06-.12.06-.19.01-.07.01-.13,0-.2l-.05-.12c-.03-.06-.07-.11-.13-.14-.03-.03-.07-.05-.11-.06-.06-.03-.12-.05-.19-.04-.13,0-.27.05-.35.15-.18.22-.38.42-.59.61-.1.09-.19.19-.28.28s-.19.17-.29.26c-.11.09-.21.18-.33.27l.12-.09c-.08.06-.16.12-.24.18-.04.03-.08.06-.12.08-.08.06-.16.12-.24.18l.12-.09c-.1.07-.19.15-.29.22-.06.04-.12.09-.17.14-.02.02-.04.04-.07.06s-.04.04-.06.06c0,0-.01.01-.02.02-.02.02-.03.03-.04.05-.02.02-.03.04-.04.06l-.05.12-.02.13s0,.01,0,.02l.07-.24s-.04.07-.06.1c-.08.12-.07.29,0,.41s.21.21.35.2h0Z"/>
          <path class="cls-1" d="M79.28,163.51s.02.01.03.02l-.16-.16h0c.04.07.1.13.17.17.07.04.15.06.23.06.05,0,.1,0,.14,0l-.14-.02s.08.01.12.02h.07s.1,0,.15,0c0,0,.01,0,.02,0,.01,0,.02,0,.03,0,.04,0,.08-.02.13-.03.07-.02.13-.05.19-.08.02-.01.04-.02.06-.03.04-.02.08-.04.12-.06.08-.04.16-.09.24-.14s.16-.1.23-.15c.19-.14.38-.29.56-.44.15-.12.29-.24.43-.37.04-.03.08-.07.12-.1s.08-.07.11-.11c.07-.08.14-.16.21-.23l.08-.1c.04-.06.06-.12.06-.19.01-.05.01-.09,0-.14,0-.07-.02-.13-.06-.19-.05-.07-.11-.14-.18-.18-.06-.04-.12-.06-.19-.06-.07-.02-.14-.01-.21,0-.12.05-.25.1-.37.16-.04.02-.09.04-.13.06s-.08.05-.11.08c-.19.14-.38.28-.57.42-.08.07-.17.13-.25.2l.13-.1c-.07.05-.14.11-.21.16-.11.08-.22.17-.32.25l.13-.1c-.11.08-.22.16-.33.24-.05.04-.11.07-.16.1-.09.06-.18.14-.26.21l.11-.09s-.02.01-.02.02l-.11.09s-.07.07-.09.12c0,.01-.01.03-.02.04l.08-.11s-.06.06-.1.09l.09-.07h0c-.07.05-.13.1-.17.17-.04.07-.06.15-.06.23h0s.01-.08.02-.12c0,0,0,.02,0,.03v.11c-.02.06,0,.11.02.16,0,.04.03.07.05.09.03.05.07.08.12.11h0Z"/>
        </g>
      </g>
    </g>
  </g>
</svg>