<?xml version="1.0" encoding="UTF-8"?>
<svg id="Layer_1" data-name="Layer 1" xmlns="http://www.w3.org/2000/svg" xmlns:xlink="http://www.w3.org/1999/xlink" viewBox="0 0 500 500">
  <defs>
    <style>
      .cls-1 {
        fill: #316bf6;
      }

      .cls-2 {
        fill: #c7966e;
      }

      .cls-3 {
        clip-path: url(#clippath-1);
      }

      .cls-4 {
        clip-path: url(#clippath-3);
      }

      .cls-5 {
        clip-path: url(#clippath-2);
      }

      .cls-6 {
        fill: #031163;
      }

      .cls-7 {
        fill: #60d991;
      }

      .cls-8 {
        clip-path: url(#clippath);
      }
    </style>
    <clipPath id="clippath">
      <path class="cls-2" d="M419.68,273.97c-.12,12.71-5.22,25.11-13.45,35.12-6.78,8.29-19.46,20.22-31.95,18.44-2.67,12.93-6.18,21.75-10.7,33.48-12.19,31.49-44.49,50.35-72.64,65.48-14.19,7.61-26.75,9.91-42.67,10.07-15.9-.9-28.37-3.74-42.32-12.01-19.44-11.51-39.1-23.87-53.8-40.69-15.42-17.73-20.56-36.9-25.65-59.04-12.97,2.82-26.16-10-33.13-18.72-8.14-10.12-13.06-22.61-13.06-35.28.06-18.43,13.84-43.86,33.64-33.61-1.18-21.9-2.64-50.07,2.35-71.8.68-2.9,1.41-5.75,2.37-8.54,27.37-83.48,166.05-105.54,228.87-44.06,31.99,31.31,36.66,82.47,35.78,123.73-.03,1.64-.06,3.34-.15,5.03,21.73-14.35,36.69,13.02,36.5,32.4Z"/>
    </clipPath>
    <clipPath id="clippath-1">
      <path class="cls-6" d="M189.1,414.21c-66.34-4.97-93.34-15.43-93.34-15.43,0,0,2.11-14.14,2.97-20.66,2.71-20.29,4.08-40.92,4.79-61.51,6.68,5.6,14.88,9.98,23,8.2,5.08,22.15,10.24,41.33,25.64,59.06,10.42,11.95,23.37,21.63,36.95,30.35Z"/>
    </clipPath>
    <clipPath id="clippath-2">
      <path class="cls-6" d="M402.92,239.61c-5.87-3.21-11.39-1.85-13.41-1.15-.78,5.6-3.26,11.22-4.97,16.48-.85,2.6-1.3,5.34-2,7.98-1.63-6.72-5.23-13.28-7.46-19.81-2.41-7.09-4.56-14.39-6.31-21.74-1.78-.74-3.56-1.48-5.42-2.15-.45-12.84-1.45-25.45-4.79-38.4-3.97-15.51-8.05-35.39-16.58-50.64,4.56,11.58,7.53,24.3,9.65,36.1,2.93,16.32,4.3,33.61,3.93,50.38-5.79-1.78-11.69-3.3-17.66-4.6-3.9-32.76-11.06-63.89-30.53-91.97,6.31,14.06,11.98,28.6,14.8,43.85,2.78,15.06,4.19,30.61,4.75,46.04-6.49-1.08-13.02-1.82-19.51-2.23-1.82-29.01-4.34-57.47-16.18-84.37,4.45,27.05,8.9,56.24,6.42,83.85-15.84-.67-31.79-.67-47.75-.11-.63-23.86-2.41-47.6-5.01-71.31.15,13.1-.33,26.3-.85,39.29-.41,10.68-.59,21.52-1.22,32.31-15.21.7-30.42,1.97-45.48,3.71-1.41-10.61-2.63-21.22-3.45-32.02-1.11-15.21-.82-30.24-.59-45.37-5.38,25.71-6.05,52.13-3.9,78.36-4.82.59-9.61,1.26-14.39,1.97-2.49-22.37-3.67-44.89-2.26-67.34-1.97,8.87-3.67,17.77-4.67,27.01-1.52,14.02-1.56,27.75-.85,41.55-3.19.52-6.38,1.04-9.57,1.6-2.93.52-5.82,1.08-8.76,1.71-.45-4.3-.85-8.61-.93-12.95-.22-10.24.63-20.78,1.45-30.98.71-8.68,1.71-17.55,3.38-26.34-7.9,18.7-13.58,38.58-15.1,58.73-.37,4.86-.52,9.65-.52,14.43-4.23,1.15-8.42,2.49-12.54,3.97-.15,13.39-.82,26.3-3,39.51-3.86-8.61-9.09-20.07-11.5-29.31v-.04s-.15-.04-.45-.11c-.37-.11-.78-.19-1.15-.26-.19-.07-.41-.11-.63-.11-.04-.04-.07-.04-.11-.04-1.08-.19-7.51-1.46-14.17,4.19.16-19.87.9-38.03,4.25-57.62,4.63-27.01,15.92-50.19,34.87-70.14,29.68-31.28,72.65-48.48,115.54-48.08,42.89-.4,85.86,16.8,115.54,48.08,18.95,19.95,30.24,43.13,34.87,70.14,3.51,20.63,4.11,37.04,4.23,57.95Z"/>
    </clipPath>
    <clipPath id="clippath-3">
      <path class="cls-6" d="M400.79,398.78s-25.41,9.83-87.48,14.95c21.22-13.02,41.25-29.42,50.27-52.72,4.53-11.72,8.01-20.55,10.68-33.46,6.82.8,12.74-1.8,18.95-6.03.74,18.96,2.12,37.9,4.6,56.6.85,6.53,2.97,20.66,2.97,20.66Z"/>
    </clipPath>
  </defs>
  <g>
    <path class="cls-2" d="M419.68,273.97c-.12,12.71-5.22,25.11-13.45,35.12-6.78,8.29-19.46,20.22-31.95,18.44-2.67,12.93-6.18,21.75-10.7,33.48-12.19,31.49-44.49,50.35-72.64,65.48-14.19,7.61-26.75,9.91-42.67,10.07-15.9-.9-28.37-3.74-42.32-12.01-19.44-11.51-39.1-23.87-53.8-40.69-15.42-17.73-20.56-36.9-25.65-59.04-12.97,2.82-26.16-10-33.13-18.72-8.14-10.12-13.06-22.61-13.06-35.28.06-18.43,13.84-43.86,33.64-33.61-1.18-21.9-2.64-50.07,2.35-71.8.68-2.9,1.41-5.75,2.37-8.54,27.37-83.48,166.05-105.54,228.87-44.06,31.99,31.31,36.66,82.47,35.78,123.73-.03,1.64-.06,3.34-.15,5.03,21.73-14.35,36.69,13.02,36.5,32.4Z"/>
    <g class="cls-8">
      <ellipse class="cls-6" cx="199.04" cy="265.57" rx="13.7" ry="14.17"/>
      <ellipse class="cls-6" cx="307.34" cy="267.71" rx="13.7" ry="14.17"/>
      <path class="cls-6" d="M260.89,255.92c-.07.43-.15.86-.19,1.3s-.08.85-.13,1.27c-.08.81-.16,1.61-.23,2.42-.14,1.51-.24,3.02-.21,4.53s.16,2.94.45,4.38.79,2.93,1.42,4.3c.72,1.56,1.66,3,2.71,4.36s2.23,2.56,3.5,3.7,2.65,2.23,4.02,3.28c.33.26.66.51,1,.77.17.13.33.26.5.38.08.06.16.12.24.18-.1-.07-.04-.03.02.01.05.04.11.08.16.12.66.51,1.32,1.03,1.97,1.56,1.3,1.07,2.56,2.2,3.7,3.44.29.31.57.64.84.96.13.15.25.31.37.46.08.1-.09-.12-.02-.03.02.03.04.06.07.09.05.06.1.13.14.19.34.48.65.98.91,1.51.06.12.12.25.18.38.01.03.03.06.04.09.05.12-.04-.09-.02-.05.03.07.06.14.09.21.1.25.18.5.26.76s.14.5.19.76c.03.13.05.26.07.4,0,.03,0,.06.01.09.02.13-.01-.11,0-.07,0,.07.02.13.02.2.06.51.07,1.03.04,1.55,0,.13-.02.26-.03.38,0,.06-.01.12-.02.18,0,.03,0,.06-.01.09,0,.03-.02.17,0,.03s0-.02,0,.01,0,.06-.01.09c-.01.07-.02.13-.03.2-.02.13-.05.27-.08.4-.11.53-.26,1.05-.43,1.56-.09.26-.18.52-.29.77-.02.06-.05.12-.08.18-.02.04.07-.17.02-.05-.02.04-.03.07-.05.11-.06.13-.11.26-.17.38-.5,1.08-1.1,2.1-1.76,3.09-.35.52-.71,1.03-1.09,1.53-.09.13-.19.25-.29.38-.05.06.06-.08.05-.07-.01.01-.02.03-.03.05-.03.04-.05.07-.08.11-.05.07-.1.13-.15.19-.2.25-.4.5-.6.75-.84,1.02-1.72,2-2.62,2.96s-1.84,1.91-2.78,2.85-1.83,1.81-2.75,2.71c-.85.84-1.7,1.68-2.53,2.54-.74.77-1.46,1.55-2.13,2.38-.17.21-.34.43-.51.65-.07.09-.13.17-.2.26-.03.04-.06.09-.1.13-.02.02-.08.09,0,.02.06-.07.03-.04.01-.02-.03.05-.07.09-.11.14-.19.25-.05.67.21.81.31.17.61.05.81-.21-.03.04-.09.11-.02.04.02-.02.03-.04.05-.06.04-.04.08-.09.11-.13.08-.09.16-.18.23-.27.16-.18.32-.36.48-.53.35-.38.71-.75,1.06-1.12.79-.83,1.6-1.63,2.42-2.43.9-.87,1.79-1.75,2.69-2.63.94-.92,1.87-1.85,2.79-2.79s1.85-1.93,2.73-2.92,1.75-2.04,2.55-3.12c.74-.98,1.43-2,2.03-3.07s1.1-2.12,1.48-3.24c.36-1.05.59-2.16.66-3.27s-.05-2.2-.35-3.25c-.32-1.13-.85-2.21-1.52-3.17-.94-1.34-2.08-2.54-3.27-3.65s-2.55-2.22-3.88-3.25c-.7-.55-1.41-1.09-2.12-1.63-.17-.13-.35-.27-.52-.4-.04-.03-.08-.06-.12-.09.09.07.04.03-.02-.01-.09-.07-.17-.13-.26-.2-.33-.26-.66-.52-.99-.78-1.32-1.06-2.61-2.16-3.8-3.37-.59-.61-1.16-1.24-1.69-1.9-.07-.09-.14-.17-.2-.26-.02-.02-.03-.04-.05-.06,0,0,.07.09.03.03-.04-.05-.08-.1-.11-.15-.13-.18-.26-.35-.39-.53-.25-.35-.5-.71-.73-1.08-.43-.68-.83-1.38-1.19-2.1-.08-.17-.16-.34-.24-.52-.04-.08-.07-.16-.11-.25-.02-.04-.03-.08-.05-.12.06.12.02.04-.01-.03-.14-.35-.28-.7-.4-1.05-.23-.68-.43-1.38-.58-2.09-.08-.34-.14-.69-.2-1.04-.03-.18-.06-.36-.09-.54,0-.04-.01-.08-.02-.13,0-.02-.02-.16,0-.06s0-.04,0-.06c0-.05-.01-.1-.02-.15-.18-1.46-.19-2.92-.21-4.38-.02-1.58.03-3.16.08-4.73.01-.4.03-.8.04-1.2.01-.43,0-.85-.03-1.28-.01-.27-.46-.37-.51-.07h0Z"/>
      <path class="cls-6" d="M278.51,355.53c-1.25.87-2.36,1.83-3.63,2.68s-2.59,1.61-3.96,2.28c-.34.17-.68.33-1.03.48-.08.04-.17.07-.25.11-.04.02-.08.03-.11.05-.03.01-.18.08-.03.01-.13.05-.25.11-.38.16-.03.01-.06.03-.09.04-.07.03-.06.03.02,0-.03.01-.06.03-.09.04-.71.29-1.42.56-2.15.81-1.44.49-2.92.88-4.41,1.18-.37.07-.74.14-1.11.2-.18.03-.36.06-.53.09-.1.01-.19.03-.29.04-.05,0-.1.01-.15.02-.02,0-.21.03-.11.01s-.05,0-.06,0c-.05,0-.1.01-.15.02-.1.01-.19.02-.29.04-.19.02-.39.04-.58.07-.37.04-.74.07-1.11.1-1.54.11-3.08.12-4.61.04-.81-.05-1.62-.13-2.43-.23-.18-.02.15.02-.03,0-.03,0-.07,0-.1-.01-.1-.01-.2-.03-.31-.04-.2-.03-.41-.06-.61-.1-.39-.07-.77-.14-1.15-.22-1.52-.32-3.02-.75-4.48-1.29-.36-.13-.71-.27-1.06-.42-.05-.02-.09-.04-.14-.06-.16-.06.13.06-.03-.01-.08-.03-.15-.06-.23-.1-.18-.08-.36-.16-.54-.24-.7-.32-1.4-.67-2.07-1.05-1.33-.73-2.64-1.52-3.9-2.38-.32-.22-.63-.44-.94-.67-.2-.15-.51-.05-.65.13s-.15.49.04.66c1.21,1.05,2.48,2,3.84,2.85s2.79,1.53,4.26,2.14c2.96,1.23,6.1,1.97,9.28,2.27s6.34.16,9.47-.38,6.11-1.44,8.92-2.79c1.38-.66,2.73-1.42,3.98-2.31.65-.46,1.28-.94,1.9-1.45s1.17-1.01,1.65-1.6c.11-.14.23-.28.35-.41.13-.15.24-.32.35-.49s-.11-.39-.27-.27h0Z"/>
      <path class="cls-6" d="M225.11,230.01c-.03-.11-.05-.23-.08-.34-.03-.1,0,.04,0,.07-.02-.13-.03-.26-.1-.37-.06-.1-.16-.19-.23-.29-.04-.05-.09-.11-.13-.16-.02-.02-.09-.11-.01-.02.14.17-.22-.25-.06-.08.08.09.01.01,0-.02s-.03-.05-.05-.08c-.04-.06-.08-.12-.12-.19l.1.23c-.09-.36-.4-.62-.65-.88-.16-.16-.32-.33-.47-.49-.32-.33-.64-.66-.97-.98-.66-.64-1.32-1.27-2-1.88-1.4-1.29-2.93-2.46-4.46-3.59-1.45-1.06-2.97-2.01-4.55-2.85-1.67-.9-3.41-1.68-5.2-2.32s-3.51-1.1-5.32-1.42c-1.91-.34-3.86-.51-5.8-.55s-3.72.05-5.56.26c-1.98.22-3.95.56-5.89,1.06-1.82.47-3.61,1.07-5.35,1.8s-3.57,1.65-5.23,2.72c-.46.29-.91.61-1.33.95l.25-.19-.04.03c-.27.18-.48.42-.57.74-.08.3-.04.69.13.96s.43.5.74.57.68.06.96-.13c.4-.27.84-.49,1.26-.74s.84-.47,1.26-.7c.87-.45,1.76-.85,2.65-1.24l-.33.14c.19-.08.38-.16.57-.24l-.33.14c2.59-1.09,5.31-1.89,8.07-2.4.78-.15,1.57-.28,2.35-.38l-.4.05c2.81-.38,5.66-.48,8.48-.27.78.06,1.55.14,2.32.24l-.41-.05c2.33.32,4.62.85,6.83,1.64.61.22,1.2.45,1.8.7l-.36-.15c1.59.67,3.14,1.46,4.63,2.34s2.94,1.82,4.36,2.82c.81.57,1.61,1.16,2.39,1.77l-.27-.21c.72.55,1.45,1.09,2.17,1.64l-.25-.19c.66.51,1.32,1.02,1.98,1.53l-.22-.17c.2.16.4.31.6.47.09.07.19.15.28.22.21.16.4.38.68.42l-.23-.1c.25.12.48.25.71.41.05.04.11.08.16.11.09.06.19.09.3.1.12.02.13.02.05,0-.06-.01-.07-.01-.03,0,.13.02.26.04.38.06.32.05.6-.18.52-.52h0Z"/>
      <path class="cls-6" d="M280.04,232.68s.23-.03.08-.01c.03,0,.05,0,.08-.01-.15-.03-.11-.02.11,0,.13,0,.26-.03.37-.1.17-.13.2-.15.08-.06,0-.02.12-.08.15-.1.05-.03.1-.07.15-.1.03-.02.06-.04.09-.05.19-.16.22-.17.08-.05.02.02.32-.16.36-.17l-.23.1c.3-.08.52-.3.76-.49.13-.1.27-.21.4-.31l-.21.16c.71-.55,1.43-1.1,2.14-1.65l-.24.19c.77-.59,1.56-1.17,2.33-1.76l-.27.21c1.39-1.07,2.82-2.1,4.3-3.06s2.93-1.87,4.48-2.67c.88-.46,1.77-.88,2.68-1.26l-.36.15c2.14-.9,4.36-1.57,6.63-2.02.68-.13,1.36-.25,2.04-.34l-.41.05c2.76-.37,5.56-.43,8.34-.22.8.06,1.61.15,2.41.25l-.39-.05c.18.02.37.05.55.07l-.39-.05c.17.02.33.05.5.07l-.39-.05c2.82.38,5.6,1.04,8.28,2,.76.27,1.52.56,2.26.87l-.32-.14c.52.22,1.03.45,1.54.69s1.03.46,1.51.74c.28.16.64.21.96.13.29-.08.6-.3.74-.57.31-.59.16-1.36-.45-1.7-.39-.22-.77-.48-1.17-.7s-.8-.43-1.21-.63c-.91-.45-1.84-.86-2.78-1.24-1.7-.69-3.48-1.22-5.26-1.65-1.89-.45-3.82-.77-5.76-.96-1.79-.18-3.59-.24-5.39-.18-1.89.06-3.78.25-5.64.59-1.71.31-3.39.77-5.02,1.36s-3.35,1.34-4.94,2.18c-1.48.78-2.95,1.64-4.31,2.62-1.47,1.05-2.89,2.17-4.27,3.34s-2.57,2.33-3.77,3.58c-.15.15-.29.3-.44.46-.07.07-.14.15-.21.22-.04.04-.08.08-.12.13-.14.15-.21.3-.29.49l.1-.23c-.03.06-.07.11-.1.17-.02.03-.11.13-.1.17.11-.15.09-.12-.06.08.08-.1.09-.11.04-.04-.04.05-.07.09-.11.14s-.07.09-.11.14c-.06.05-.11.12-.15.19-.07.12-.1.24-.1.37.07-.14,0,.02,0,.06-.01.06-.02.11-.04.17-.07.34.2.56.52.52h0Z"/>
      <path class="cls-6" d="M383.21,284.23c-.26,1.8-.56,3.59-.76,5.4s-.42,3.61-.65,5.41c0,.06-.02.12-.02.18,0-.07.02-.18-.02.12-.01.12-.03.24-.04.35-.03.24-.06.47-.08.71-.05.45-.11.9-.17,1.35s-.11.9-.17,1.35c-.03.22-.06.43-.09.65-.01.1-.03.2-.04.29-.03.19.02-.13,0,.07,0,.07-.02.14-.03.21-.24,1.8-.5,3.59-.78,5.38-.56,3.6-1.17,7.2-1.87,10.77s-1.45,7.08-2.3,10.59-1.78,6.97-2.72,10.43c-.12.42-.23.85-.33,1.27-.06.23.07.48.31.54.25.07.46-.08.54-.31.64-1.68,1.17-3.4,1.68-5.12s.98-3.47,1.43-5.22c.9-3.51,1.72-7.05,2.43-10.61s1.36-7.12,1.9-10.71,1.03-7.29,1.44-10.95c.2-1.8.36-3.61.51-5.41.07-.9.16-1.8.19-2.7s.05-1.78.07-2.67c0-.44.01-.88.02-1.32,0-.25-.41-.32-.45-.06h0Z"/>
      <path class="cls-6" d="M118.61,279.07c-.05,1.81-.09,3.62-.02,5.43s.16,3.6.27,5.39.27,3.64.44,5.46.34,3.6.54,5.4c.4,3.66.9,7.31,1.47,10.94s1.22,7.15,1.97,10.71c.37,1.76.76,3.51,1.18,5.25s.91,3.5,1.42,5.23c.12.41.25.82.39,1.23.08.23.3.37.54.31s.36-.31.31-.54c-.36-1.77-.8-3.52-1.2-5.28s-.79-3.5-1.16-5.26c-.74-3.53-1.38-7.08-1.96-10.64-.29-1.8-.56-3.6-.82-5.4-.06-.44-.12-.89-.18-1.33.02.15,0-.04,0-.06,0-.06-.02-.12-.02-.18-.01-.1-.03-.2-.04-.3-.03-.24-.06-.47-.09-.71-.12-.91-.23-1.82-.34-2.73-.44-3.59-.81-7.2-1.11-10.81-.15-1.8-.32-3.6-.46-5.4-.07-.91-.12-1.82-.22-2.72s-.2-1.81-.3-2.72c-.05-.43-.1-.86-.14-1.3-.03-.28-.45-.3-.45,0h0Z"/>
      <path class="cls-6" d="M407.68,277.35c.2-1.38.4-2.77.48-4.16s.11-2.81.07-4.22c-.1-2.81-.56-5.62-1.63-8.23s-2.6-4.84-4.57-6.7c-1.76-1.66-3.94-3-6.36-3.4-1.23-.2-2.48-.18-3.7.08s-2.51.83-3.59,1.58c-.32.22-.64.46-.94.71-.21.17-.19.52-.04.72s.48.3.71.14c.56-.4,1.15-.76,1.76-1.08.14-.07.28-.14.43-.21.07-.03.13-.06.2-.09-.14.06.01,0,.03-.01.04-.02.09-.04.13-.05.28-.11.56-.21.84-.3s.59-.16.88-.22c.13-.03.26-.05.4-.07.04,0,.07-.01.11-.02.1-.01-.16.02-.01,0,.07,0,.15-.02.22-.02.56-.05,1.12-.05,1.68,0,.07,0,.14.01.21.02,0,0,.08.01.08.01,0,0-.16-.02-.02,0,.15.02.29.05.44.07.27.05.53.12.79.19.28.08.55.17.82.27.05.02.11.04.16.06.04.02.26.12.09.03.13.06.27.12.4.18.52.25,1.02.53,1.5.85.25.16.49.33.72.51.03.02.06.05.09.07.09.07-.01,0-.02-.02.06.04.12.09.18.14.12.1.24.19.36.29.46.4.91.82,1.32,1.27.21.23.42.46.62.7.1.12.2.23.29.35.05.06.09.11.14.17.02.03.05.06.07.1-.1-.13,0,0,.02.02.8,1.05,1.5,2.18,2.07,3.37.07.14.13.29.2.43.04.08.07.16.11.24.01.03.03.06.04.1.03.07.03.06,0,0,.01.02.02.05.03.07.13.31.25.63.37.95.23.64.42,1.29.59,1.95s.3,1.33.41,2c.06.34.11.67.15,1.01.01.08.02.16.03.23-.01-.11,0,0,0,.03,0,.04.01.09.02.13.02.17.04.35.06.52.3,2.72.22,5.46.24,8.2,0,.33,0,.65,0,.98,0,.19.31.24.34.05h0Z"/>
      <path class="cls-6" d="M113.64,254.2c-.11-.19-.23-.38-.35-.56.02.03-.04-.07-.05-.08-.02-.04-.05-.07-.07-.11-.07-.1-.14-.22-.22-.31-.27-.31-.59-.58-.92-.83-.65-.5-1.39-.87-2.16-1.15s-1.65-.44-2.5-.52-1.67-.08-2.51,0c-1.67.15-3.31.55-4.82,1.27-1.77.84-3.38,2.09-4.69,3.54s-2.46,3.22-3.27,5.07-1.4,3.9-1.69,5.97c-.34,2.41-.42,4.85-.22,7.28s.61,4.73,1.22,7.03,1.37,4.5,2.26,6.69,1.86,4.41,2.97,6.52c.13.25.26.49.39.74.14.26.3.51.43.78.07.15.29.19.43.11.16-.09.19-.27.11-.43-.12-.26-.21-.53-.32-.8s-.21-.51-.32-.77c-.23-.56-.47-1.11-.7-1.68-.44-1.05-.87-2.07-1.31-3.16-.86-2.14-1.63-4.32-2.28-6.54-.32-1.11-.61-2.23-.85-3.36-.12-.56-.23-1.12-.33-1.68-.05-.28-.1-.56-.14-.85-.02-.14-.04-.27-.06-.41-.01-.07-.02-.15-.03-.22,0,0-.01-.1,0-.03.01.08,0-.07-.01-.08-.3-2.32-.38-4.66-.2-6.99.02-.29.05-.57.08-.86.02-.15.03-.31.05-.46,0-.07.02-.13.02-.2,0-.04.01-.08.01-.11.01-.11-.02.15,0-.03.07-.53.16-1.06.27-1.59.2-.96.46-1.91.78-2.84.08-.23.17-.46.25-.68.04-.11.09-.22.13-.33,0-.02.02-.04.03-.07.04-.11,0,0-.01.02.04-.06.06-.13.08-.19.19-.45.4-.88.63-1.31.45-.86.97-1.69,1.56-2.47.04-.05.07-.1.11-.15.07-.09-.07.09.03-.03.08-.1.15-.19.23-.29.15-.19.31-.37.47-.55.32-.36.66-.71,1.02-1.05s.71-.64,1.09-.94c.13-.1-.06.04.03-.03.05-.04.1-.07.15-.11.1-.07.2-.15.3-.22.2-.14.4-.27.6-.4.4-.25.81-.49,1.23-.7.16-.08.32-.15.48-.23.04-.02.08-.03.11-.05.08-.04-.14.06.01,0,.09-.04.18-.07.27-.11.73-.28,1.48-.5,2.24-.66.2-.04.41-.08.61-.12.1-.02.19-.03.29-.05.05,0,.09-.01.14-.02.11-.02-.03,0-.04,0,.03,0,.07,0,.1-.01.41-.05.81-.09,1.22-.1s.83-.01,1.24.01c.2.01.4.03.6.05.05,0,.09.01.14.02.04,0,.2.01.05,0,.1,0,.21.03.31.05.39.07.78.16,1.16.26.19.05.37.11.56.18.09.03.18.06.26.1.05.02.09.04.14.06-.1-.04.02,0,.06.03.35.16.7.35,1.02.56.08.05.15.1.23.16.03.03.07.05.1.08.05.04-.05-.04,0,0,.02.02.05.04.07.06.15.12.29.25.43.38.03.02.14.11.09.07-.04-.03.02.02.03.03.03.03.07.06.1.09.07.06.14.13.2.2.13.13.25.28.35.42.1.13.26.2.42.11.14-.08.19-.27.11-.42h0Z"/>
    </g>
  </g>
  <g>
    <g>
      <g>
        <path class="cls-6" d="M189.1,414.21c-66.34-4.97-93.34-15.43-93.34-15.43,0,0,2.11-14.14,2.97-20.66,2.71-20.29,4.08-40.92,4.79-61.51,6.68,5.6,14.88,9.98,23,8.2,5.08,22.15,10.24,41.33,25.64,59.06,10.42,11.95,23.37,21.63,36.95,30.35Z"/>
        <g class="cls-3">
          <path class="cls-1" d="M113.97,333.82c.02,1.47-.03,2.93-.13,4.4s-.2,2.9-.33,4.35c-.26,2.92-.62,5.83-1.03,8.73s-.88,5.82-1.35,8.73-.94,5.76-1.38,8.65-.84,5.89-1.24,8.83-.8,5.97-1.18,8.96-.76,5.95-1.13,8.93-.73,5.95-1.08,8.93-.68,5.96-1.01,8.94-.63,5.97-.92,8.96c-.07.72-.13,1.44-.2,2.17-.02.21.2.39.39.39.23,0,.37-.18.39-.39.16-1.51.36-3.01.54-4.51s.35-2.96.51-4.45c.34-2.98.69-5.96,1.03-8.94s.69-5.96,1.05-8.93.72-5.93,1.09-8.9.76-5.95,1.15-8.93.78-5.89,1.18-8.82.85-5.79,1.29-8.68.9-5.83,1.29-8.75.75-5.86.99-8.81.36-5.83.3-8.76c-.01-.7,0-1.41-.01-2.11,0-.15-.23-.15-.23,0h0Z"/>
          <path class="cls-1" d="M123.73,325.64c-.23,3.56-.48,7.12-.74,10.68s-.59,7.12-.89,10.68-.62,7.12-.92,10.68-.59,7.12-.86,10.68-.53,7.12-.77,10.68-.47,7.13-.62,10.7-.25,7.14-.31,10.71-.07,7.1-.05,10.66.06,7.11.12,10.66.1,7.14.19,10.71c.02.87.05,1.75.06,2.62,0,.25.22.5.48.48s.49-.21.48-.48c-.02-1.79-.02-3.57-.04-5.36s-.05-3.57-.08-5.35c-.06-3.56-.11-7.13-.14-10.69s-.05-7.12-.03-10.69.08-7.13.2-10.7.29-7.14.48-10.7.41-7.12.65-10.68.49-7.12.73-10.68.5-7.1.73-10.65.47-7.1.69-10.65.45-7.12.66-10.68c.05-.87.1-1.74.15-2.61,0-.13-.19-.12-.2,0h0Z"/>
          <path class="cls-1" d="M131.18,327.53c-.27,3.65-.57,7.3-.88,10.95s-.65,7.29-.99,10.94-.67,7.25-.98,10.87-.62,7.29-.91,10.93-.54,7.3-.77,10.95-.42,7.27-.56,10.9-.24,7.34-.29,11.01-.07,7.36-.06,11.04.03,7.32.06,10.98.08,7.36.14,11.04c.01.89.04,1.79.04,2.68,0,.48.74.48.74,0,0-1.85.05-3.7.06-5.55s0-3.66.01-5.49c0-3.68-.04-7.36-.04-11.04s0-7.32.03-10.98.1-7.35.2-11.02.25-7.32.44-10.97.4-7.26.64-10.89.51-7.29.79-10.94.57-7.29.85-10.93.57-7.25.85-10.87.58-7.3.84-10.94c.06-.89.13-1.77.19-2.66.02-.25-.37-.25-.39,0h0Z"/>
          <path class="cls-1" d="M138.11,341.68c-.01,3.31-.03,6.63-.04,9.94s-.04,6.61-.05,9.91-.03,6.59-.03,9.89,0,6.58.02,9.87.05,6.58.1,9.86.11,6.57.19,9.86.19,6.57.32,9.86.28,6.58.45,9.87.37,6.59.6,9.88.5,6.61.81,9.9c.08.81.16,1.61.23,2.42.02.23.18.43.43.43.22,0,.45-.2.43-.43-.15-1.65-.26-3.3-.39-4.96s-.24-3.3-.36-4.95c-.22-3.29-.44-6.59-.62-9.89s-.34-6.58-.49-9.87-.27-6.57-.37-9.86-.2-6.57-.28-9.86-.14-6.57-.2-9.86-.11-6.58-.15-9.87-.07-6.59-.1-9.89-.05-6.6-.07-9.91-.02-6.62-.04-9.93c0-.81,0-1.62,0-2.43,0-.25-.38-.25-.38,0h0Z"/>
          <path class="cls-1" d="M151.58,359.61c-.11,2.65-.23,5.31-.36,7.96s-.27,5.31-.39,7.97-.24,5.31-.32,7.97-.15,5.31-.17,7.97-.01,5.31.05,7.97.17,5.29.32,7.93.35,5.26.58,7.88.48,5.24.76,7.86.56,5.24.87,7.85.63,5.24.93,7.86c.07.64.15,1.27.22,1.91.02.14.11.27.27.27.13,0,.28-.12.27-.27-.28-2.62-.53-5.25-.8-7.87s-.55-5.24-.82-7.85-.53-5.24-.77-7.86-.45-5.25-.62-7.88-.33-5.28-.42-7.92-.14-5.31-.14-7.97.03-5.31.08-7.97.13-5.31.22-7.97.2-5.31.3-7.97.23-5.31.34-7.96c.03-.64.05-1.29.08-1.93.01-.31-.46-.31-.48,0h0Z"/>
          <path class="cls-1" d="M162.63,377.85c.08,4.06.18,8.11.28,12.17s.21,8.11.31,12.17.21,8.11.32,12.17.2,8.07.31,12.11.19,8.11.26,12.17c0,.5.02,1,.03,1.5,0,.35.54.35.54,0-.04-4.06-.11-8.11-.19-12.17s-.18-8.11-.3-12.17-.25-8.11-.38-12.17-.26-8.07-.39-12.11-.25-8.11-.35-12.17c-.01-.5-.03-1-.04-1.5,0-.26-.4-.26-.4,0h0Z"/>
          <path class="cls-1" d="M173.78,391.69c.12,2.78.23,5.57.36,8.35s.25,5.56.39,8.34.27,5.56.42,8.34.31,5.58.48,8.37.34,5.56.52,8.34c.02.34.04.68.07,1.03.01.18.15.34.34.34.18,0,.35-.16.34-.34-.15-2.78-.3-5.56-.45-8.34s-.3-5.56-.44-8.34-.29-5.56-.43-8.34-.28-5.58-.41-8.37-.26-5.57-.39-8.35c-.02-.34-.03-.69-.05-1.03,0-.2-.17-.38-.38-.38-.2,0-.38.17-.38.38h0Z"/>
        </g>
      </g>
      <g>
        <path class="cls-6" d="M402.92,239.61c-5.87-3.21-11.39-1.85-13.41-1.15-.78,5.6-3.26,11.22-4.97,16.48-.85,2.6-1.3,5.34-2,7.98-1.63-6.72-5.23-13.28-7.46-19.81-2.41-7.09-4.56-14.39-6.31-21.74-1.78-.74-3.56-1.48-5.42-2.15-.45-12.84-1.45-25.45-4.79-38.4-3.97-15.51-8.05-35.39-16.58-50.64,4.56,11.58,7.53,24.3,9.65,36.1,2.93,16.32,4.3,33.61,3.93,50.38-5.79-1.78-11.69-3.3-17.66-4.6-3.9-32.76-11.06-63.89-30.53-91.97,6.31,14.06,11.98,28.6,14.8,43.85,2.78,15.06,4.19,30.61,4.75,46.04-6.49-1.08-13.02-1.82-19.51-2.23-1.82-29.01-4.34-57.47-16.18-84.37,4.45,27.05,8.9,56.24,6.42,83.85-15.84-.67-31.79-.67-47.75-.11-.63-23.86-2.41-47.6-5.01-71.31.15,13.1-.33,26.3-.85,39.29-.41,10.68-.59,21.52-1.22,32.31-15.21.7-30.42,1.97-45.48,3.71-1.41-10.61-2.63-21.22-3.45-32.02-1.11-15.21-.82-30.24-.59-45.37-5.38,25.71-6.05,52.13-3.9,78.36-4.82.59-9.61,1.26-14.39,1.97-2.49-22.37-3.67-44.89-2.26-67.34-1.97,8.87-3.67,17.77-4.67,27.01-1.52,14.02-1.56,27.75-.85,41.55-3.19.52-6.38,1.04-9.57,1.6-2.93.52-5.82,1.08-8.76,1.71-.45-4.3-.85-8.61-.93-12.95-.22-10.24.63-20.78,1.45-30.98.71-8.68,1.71-17.55,3.38-26.34-7.9,18.7-13.58,38.58-15.1,58.73-.37,4.86-.52,9.65-.52,14.43-4.23,1.15-8.42,2.49-12.54,3.97-.15,13.39-.82,26.3-3,39.51-3.86-8.61-9.09-20.07-11.5-29.31v-.04s-.15-.04-.45-.11c-.37-.11-.78-.19-1.15-.26-.19-.07-.41-.11-.63-.11-.04-.04-.07-.04-.11-.04-1.08-.19-7.51-1.46-14.17,4.19.16-19.87.9-38.03,4.25-57.62,4.63-27.01,15.92-50.19,34.87-70.14,29.68-31.28,72.65-48.48,115.54-48.08,42.89-.4,85.86,16.8,115.54,48.08,18.95,19.95,30.24,43.13,34.87,70.14,3.51,20.63,4.11,37.04,4.23,57.95Z"/>
        <g class="cls-5">
          <path class="cls-1" d="M144.25,147.24c-.36.45-.69.91-1.02,1.38s-.68.96-.99,1.47c-.64,1.05-1.23,2.14-1.76,3.25-1.11,2.34-2.04,4.75-2.88,7.2s-1.46,4.69-2.07,7.07c-.74,2.84-1.42,5.7-2.09,8.56-.7,3.03-1.36,6.06-1.98,9.11s-1.18,6.12-1.67,9.2-.92,6.24-1.14,9.39-.3,6.26-.31,9.39.04,6.2.04,9.3c0,1.56,0,3.12-.03,4.68s-.08,3.12-.12,4.68c-.02.75-.02,1.52-.08,2.27-.02.21.19.39.39.39.23,0,.37-.18.39-.39.06-.78.16-1.55.23-2.33s.1-1.55.14-2.33c.07-1.55.1-3.1.11-4.65.03-3.11,0-6.22-.01-9.33s.02-6.22.17-9.32c.07-1.56.18-3.12.33-4.68s.34-3.05.57-4.59c.45-3.08.98-6.14,1.57-9.2s1.22-6.07,1.9-9.09,1.39-6.04,2.13-9.06c.57-2.34,1.19-4.68,1.89-6.99.74-2.45,1.53-4.88,2.49-7.25.46-1.14.97-2.28,1.5-3.39.26-.55.53-1.09.82-1.62s.55-1.04.84-1.55c.28-.47.59-.93.9-1.38.1-.15-.14-.34-.25-.19h0Z"/>
          <path class="cls-1" d="M167.12,131.8c-.77,3.21-1.92,6.31-3.07,9.41s-2.3,6.21-3.15,9.42-1.66,6.59-2.39,9.91-1.37,6.69-1.89,10.06-.89,6.81-1.17,10.24-.51,6.68-.71,10.03-.35,6.76-.42,10.15-.07,6.77.04,10.16.31,6.71.66,10.05.83,6.73,1.52,10.06c.17.8.41,1.58.57,2.38.07.35.61.2.53-.15-.09-.41-.13-.83-.19-1.25s-.12-.83-.19-1.25c-.13-.84-.26-1.68-.38-2.52-.24-1.65-.45-3.29-.64-4.95-.37-3.33-.62-6.68-.76-10.03s-.18-6.73-.14-10.09.16-6.75.33-10.13.4-6.72.66-10.08.53-6.73.98-10.08c.02-.15.04-.32.07-.52.03-.22.06-.44.09-.66.06-.42.12-.84.19-1.26.13-.84.26-1.68.41-2.51.29-1.67.6-3.34.93-5.01.67-3.34,1.44-6.66,2.26-9.97.4-1.63.79-3.26,1.27-4.87s.98-3.14,1.51-4.7c1.05-3.11,2.14-6.21,2.94-9.4.19-.77.37-1.55.52-2.33.05-.25-.33-.36-.39-.11h0Z"/>
          <path class="cls-1" d="M208.09,119.71c-.5,3.65-.96,7.31-1.35,10.98s-.67,7.31-.9,10.97-.4,7.37-.48,11.06-.08,7.33,0,10.99.26,7.16.43,10.74.36,7.1.58,10.64.47,7.1.78,10.64.68,7.13,1.11,10.68.94,7.05,1.55,10.62,1.29,6.99,2.16,10.44c.21.83.44,1.65.64,2.47.09.39.7.23.6-.17-.21-.87-.36-1.75-.53-2.63s-.34-1.73-.51-2.6c-.33-1.74-.64-3.48-.94-5.23s-.58-3.52-.84-5.28c-.13-.87-.25-1.74-.37-2.61-.01-.11-.03-.22-.04-.33,0-.02-.02-.14,0-.06,0-.06-.02-.12-.02-.18-.03-.22-.06-.43-.09-.65-.06-.45-.12-.91-.18-1.36-.45-3.53-.82-7.06-1.15-10.6s-.61-7.09-.85-10.64-.44-7.08-.63-10.63-.37-7.08-.52-10.62-.22-7.33-.2-10.99.11-7.35.27-11.03.39-7.34.67-11.01.56-7.3.9-10.94c.08-.88.17-1.76.25-2.64.02-.2-.33-.25-.35-.05h0Z"/>
          <path class="cls-1" d="M219.53,120.37c-.04,1.88-.11,3.77-.19,5.65s-.15,3.76-.23,5.64c-.15,3.75-.31,7.5-.45,11.25s-.27,7.45-.34,11.18-.1,7.51-.06,11.27.18,7.52.37,11.28.42,7.4.69,11.09.6,7.38.95,11.07.74,7.36,1.17,11.03.9,7.38,1.4,11.06,1.05,7.38,1.62,11.06c.14.89.3,1.78.43,2.68.04.24.34.38.56.32.26-.07.35-.31.32-.56-.14-.94-.25-1.9-.38-2.82s-.25-1.83-.38-2.75c-.12-.87-.24-1.79-.36-2.7-.06-.46-.12-.91-.18-1.37-.02-.12-.03-.24-.05-.36,0-.07-.02-.14-.03-.21-.03-.2.01.1-.01-.1-.03-.24-.06-.49-.1-.73-.49-3.66-.95-7.32-1.39-10.98s-.86-7.35-1.24-11.03-.72-7.33-1.03-11-.58-7.42-.81-11.13-.42-7.46-.52-11.2-.12-7.52-.09-11.28.11-7.46.2-11.18.21-7.48.31-11.21.18-7.49.2-11.24c0-.91.02-1.82.04-2.73,0-.27-.41-.27-.41,0h0Z"/>
          <path class="cls-1" d="M254.65,115.76c.28,1.65.55,3.3.86,4.94s.61,3.26.88,4.9.49,3.29.63,4.95c.07.87.13,1.74.2,2.6s.16,1.77.25,2.65c.34,3.49.75,6.97,1.15,10.45s.8,6.97,1.1,10.46.54,6.99.72,10.5.31,7.01.4,10.51.14,7.02.15,10.53,0,7.02-.02,10.53-.06,7.04-.1,10.56-.07,7.03-.07,10.55c0,.84.01,1.69,0,2.53,0,.26.23.5.49.49s.49-.21.49-.49c.02-1.76.07-3.52.11-5.29s.07-3.53.09-5.29c.05-3.51.11-7.02.14-10.53s.05-7.02.04-10.53-.04-7.06-.11-10.59-.18-7.01-.35-10.52-.39-7.01-.68-10.5-.66-7.03-1.07-10.54-.86-6.93-1.29-10.45c-.21-1.74-.41-3.49-.58-5.23s-.36-3.44-.63-5.15c-.53-3.28-1.32-6.51-2.05-9.75-.18-.79-.34-1.58-.49-2.38-.03-.17-.29-.1-.26.07h0Z"/>
          <path class="cls-1" d="M264.58,122.58c.24.87.48,1.74.69,2.61s.41,1.72.63,2.58c.44,1.75.87,3.5,1.27,5.26.82,3.53,1.58,7.08,2.28,10.64s1.35,7.16,1.94,10.76,1.11,7.22,1.57,10.8.88,7.29,1.23,10.94.65,7.32.88,10.98.41,7.32.53,10.98.18,7.3.19,10.94-.04,7.24-.14,10.87-.22,7.17-.4,10.75c-.04.86-.08,1.72-.14,2.58-.02.24.22.45.45.45.26,0,.44-.21.45-.45.24-3.59.49-7.17.63-10.77s.21-7.23.23-10.84-.03-7.29-.12-10.93-.25-7.32-.47-10.98-.49-7.37-.82-11.05-.72-7.31-1.18-10.96-.99-7.31-1.57-10.95-1.23-7.19-1.94-10.76-1.49-7.13-2.37-10.66-1.76-6.96-2.83-10.39c-.26-.82-.49-1.66-.74-2.48-.05-.17-.31-.1-.26.07h0Z"/>
          <path class="cls-1" d="M285.32,152.06c.3,1.29.58,2.59.83,3.9s.45,2.59.64,3.9c.38,2.59.7,5.2.95,7.81s.43,5.21.56,7.82.19,5.27.23,7.91.03,5.25-.01,7.87-.09,5.27-.18,7.91-.19,5.28-.3,7.92-.23,5.25-.34,7.88-.21,5.26-.3,7.9-.16,5.25-.16,7.88c0,.64.02,1.28,0,1.91,0,.23.2.43.43.43s.43-.2.43-.43c.02-1.32.11-2.63.17-3.95s.11-2.64.17-3.95c.11-2.62.24-5.24.36-7.86s.24-5.29.36-7.94.22-5.28.3-7.91.15-5.27.19-7.91.03-5.27-.02-7.9-.15-5.26-.3-7.89-.37-5.27-.65-7.89-.61-5.24-1.05-7.84-.96-5.18-1.52-7.75c-.14-.63-.28-1.26-.43-1.89-.05-.23-.4-.13-.35.1h0Z"/>
          <path class="cls-1" d="M320.97,123.58c.78,1.79,1.54,3.59,2.28,5.4s1.48,3.63,2.18,5.46,1.4,3.65,2.07,5.48,1.33,3.7,1.98,5.56,1.28,3.73,1.9,5.6,1.21,3.73,1.8,5.61,1.15,3.78,1.7,5.67,1.07,3.8,1.58,5.71.99,3.83,1.46,5.74.91,3.82,1.34,5.74.83,3.86,1.22,5.8.74,3.88,1.08,5.83.65,3.89.94,5.85c.14.97.28,1.94.42,2.92.03.25.07.5.1.74,0,.04.02.17,0,.07,0,.06.02.11.02.17.02.12.03.25.05.37.06.49.13.97.19,1.46.25,1.96.47,3.92.66,5.88s.37,3.93.51,5.89.26,3.93.35,5.9.16,3.92.19,5.88.05,3.94.04,5.92-.07,3.95-.12,5.92c-.02.95-.04,1.91-.09,2.86-.01.27.24.52.51.51.29-.01.49-.22.51-.51.05-.99.13-1.98.18-2.97s.08-1.96.11-2.94c.05-1.97.08-3.94.08-5.92s-.04-3.94-.1-5.91-.15-3.96-.27-5.94-.26-3.94-.43-5.9-.36-3.93-.58-5.89-.47-3.99-.75-5.98-.57-3.91-.89-5.85-.66-3.89-1.03-5.83-.75-3.88-1.16-5.81-.84-3.86-1.3-5.78-.93-3.86-1.44-5.78-1.02-3.82-1.56-5.72-1.1-3.79-1.68-5.68-1.18-3.77-1.8-5.64-1.26-3.74-1.93-5.6-1.34-3.71-2.05-5.55-1.42-3.67-2.16-5.5-1.5-3.65-2.26-5.47-1.55-3.62-2.34-5.41c-.38-.86-.77-1.72-1.16-2.58-.11-.25-.48-.03-.37.22h0Z"/>
          <path class="cls-1" d="M363.03,221.95c.42-.03.83-.02,1.25,0,.24.02.47.04.71.07s.46.05.72.1c.08.02.16.03.24.04-.06,0,.02,0,.03,0,.03,0,.06,0,.09.01.14.02.28.04.41.06.28.05.57.1.85.15.59.11,1.17.24,1.75.38,2.41.57,4.8,1.23,7.15,2.02,1.05.35,2.1.72,3.13,1.14.26.1.55-.12.62-.35.65-2.1.79-4.35.75-6.53-.04-2.4-.31-4.8-.64-7.18-.31-2.24-.65-4.48-.96-6.72-.38-2.72-.81-5.44-1.29-8.15s-.99-5.4-1.55-8.09-1.15-5.33-1.79-7.98-1.31-5.29-2.02-7.92-1.46-5.26-2.25-7.87-1.62-5.24-2.47-7.84-1.78-5.22-2.73-7.81c-.23-.64-.48-1.27-.71-1.91-.07-.2-.27-.33-.48-.27-.19.05-.34.28-.27.48.47,1.3.89,2.62,1.33,3.93s.87,2.61,1.3,3.92c.84,2.6,1.68,5.2,2.48,7.82s1.55,5.22,2.28,7.84,1.42,5.26,2.08,7.91,1.27,5.3,1.85,7.96,1.11,5.33,1.6,8.01.94,5.39,1.35,8.1c.35,2.36.68,4.72,1.02,7.08.08.56.16,1.13.24,1.69,0,.07.02.13.03.2,0,.02.02.13,0,.04,0,.03,0,.07.01.1.02.15.04.3.06.45.04.29.07.57.11.86.14,1.18.26,2.37.33,3.56s.1,2.32.06,3.48c-.02.55-.06,1.1-.11,1.65-.01.13-.03.26-.05.4,0,.03-.03.2-.01.1-.01.08-.02.15-.03.23-.04.25-.08.51-.13.76-.1.49-.22.97-.36,1.45l.62-.35c-2.03-.82-4.12-1.48-6.23-2.07-1.23-.34-2.46-.66-3.71-.9-.15-.03-.31-.06-.47-.09-.07-.01-.14-.03-.21-.04-.03,0-.07-.01-.1-.02-.03,0-.26-.04-.15-.02-.3-.05-.6-.1-.91-.14-.58-.08-1.16-.16-1.74-.21s-1.14-.04-1.71-.01c-.48.03-.96.08-1.43.19-.17.04-.14.32.04.31h0Z"/>
          <path class="cls-1" d="M376.07,224.9c-.02-.3-.02-.62.03-.92.04-.24.09-.56-.03-.78-.12-.24-.52-.07-.44.18.38,1.21.82,2.41,1.17,3.64s.66,2.46.96,3.7c.61,2.48,1.17,4.98,1.92,7.43s1.71,4.66,2.79,6.89,2.23,4.32,3.36,6.46,2.2,4.31,3.13,6.51c.11.25.22.54.33.81.08.21.28.36.52.3.21-.06.37-.3.3-.52-.77-2.34-1.81-4.56-2.93-6.75s-2.29-4.28-3.39-6.44-2.11-4.34-2.89-6.65c-.82-2.43-1.45-4.91-2.1-7.39s-1.33-4.96-2.34-7.32c-.12-.29-.25-.57-.4-.84l-.41.24c.07.12.18.19.24.32.05.1.09.2.11.31.06.27.02.56.04.83,0,.01.02.02.02,0h0Z"/>
          <path class="cls-1" d="M131.34,226.2c-1.05-.08-2.09-.07-3.13,0s-2.16.27-3.22.49c-2.11.44-4.18,1.1-6.17,1.91-1.1.45-2.19.94-3.25,1.49l.66.17c-.08-.11-.16-.22-.23-.34-.03-.06-.06-.12-.09-.18.04.08-.03-.09-.04-.11-.04-.12-.07-.24-.09-.36-.01-.06-.02-.11-.03-.17.01.09,0,.02,0,0,0-.04,0-.09-.01-.13-.05-.57-.02-1.14-.07-1.71-.1-1.41-.15-2.82-.17-4.24-.04-2.84.06-5.69.16-8.53.06-1.59.13-3.19.18-4.78.01-.41-.61-.41-.63,0-.14,2.87-.33,5.74-.45,8.62s-.18,5.75-.03,8.63c.03.66,0,1.31.05,1.97s.21,1.29.62,1.83c.16.22.41.31.66.17,1.86-.96,3.7-1.73,5.69-2.38s4.08-1.17,6.18-1.46c1.12-.16,2.28-.32,3.42-.38.32-.02.32-.48,0-.5h0Z"/>
        </g>
      </g>
      <g>
        <path class="cls-6" d="M400.79,398.78s-25.41,9.83-87.48,14.95c21.22-13.02,41.25-29.42,50.27-52.72,4.53-11.72,8.01-20.55,10.68-33.46,6.82.8,12.74-1.8,18.95-6.03.74,18.96,2.12,37.9,4.6,56.6.85,6.53,2.97,20.66,2.97,20.66Z"/>
        <g class="cls-4">
          <path class="cls-1" d="M341.09,369.71c.33.75.63,1.52.86,2.31s.44,1.62.62,2.43c.37,1.69.63,3.4.81,5.12s.28,3.58.33,5.37.06,3.57.06,5.36-.02,3.45,0,5.17.07,3.56.14,5.34c.08,2.19.15,4.38.22,6.57s.12,4.4.17,6.6.09,4.4.12,6.6.09,4.39.14,6.58c.01.54.02,1.08.04,1.62,0,.44.67.44.68,0,.03-2.2.06-4.41.04-6.61s-.08-4.42-.14-6.64-.13-4.4-.22-6.6-.18-4.42-.28-6.64c-.09-1.91-.2-3.81-.24-5.72-.04-1.7-.05-3.4-.06-5.09-.01-1.79-.03-3.59-.09-5.38s-.16-3.6-.33-5.39-.4-3.52-.78-5.24c-.18-.83-.39-1.65-.65-2.45s-.54-1.56-.85-2.32c-.14-.36-.3-.71-.46-1.07-.04-.08-.16-.01-.12.07h0Z"/>
          <path class="cls-1" d="M347.68,367.17c.28,2.06.55,4.12.82,6.17s.5,4.11.73,6.16.46,4.15.68,6.23.42,4.15.61,6.23.38,4.19.55,6.28.33,4.17.47,6.26.27,4.19.38,6.29.2,4.16.27,6.24.11,4.17.15,6.25.05,4.12.08,6.18c0,.5.03,1.01.02,1.52,0,.45.69.45.7,0,.02-1.03.09-2.06.13-3.1s.03-2.07.03-3.11c0-2.08-.03-4.16-.09-6.24s-.14-4.18-.26-6.27-.25-4.19-.41-6.29-.33-4.2-.53-6.29-.41-4.17-.64-6.26-.48-4.18-.74-6.27-.54-4.16-.83-6.24-.58-4.12-.88-6.18-.58-4.09-.88-6.14c-.07-.5-.15-1-.22-1.5-.01-.09-.16-.05-.14.04h0Z"/>
          <path class="cls-1" d="M358.57,334.13c.32,2.95.61,5.91.89,8.87s.54,5.9.79,8.86.47,5.9.68,8.85.41,5.9.6,8.86.38,5.89.56,8.84.35,5.93.52,8.89.37,5.89.59,8.83.47,5.85.68,8.77.42,5.89.55,8.83.21,5.87.18,8.81c0,.72-.02,1.44-.04,2.16,0,.25.22.48.47.47.26-.01.46-.21.47-.47.1-2.95.13-5.9.06-8.85s-.23-5.88-.44-8.81-.45-5.87-.69-8.8-.49-5.88-.7-8.82-.39-5.91-.59-8.86-.41-5.92-.63-8.88-.46-5.91-.71-8.86-.51-5.88-.78-8.82-.57-5.93-.87-8.89-.62-5.89-.96-8.83c-.08-.72-.17-1.44-.25-2.16-.03-.24-.4-.24-.38,0h0Z"/>
          <path class="cls-1" d="M366.55,311.51c.81,3.88,1.47,7.78,2.01,11.7s1.01,7.83,1.4,11.76.69,7.83.97,11.76.5,7.9.69,11.85.35,7.9.52,11.85.32,7.96.5,11.94.38,8.1.57,12.14.41,8.1.61,12.15.39,8.06.58,12.09.32,8.1.51,12.15c.05.97.11,1.95.13,2.93,0,.22.18.41.41.41s.41-.19.41-.41c-.05-2.03-.02-4.07-.08-6.1s-.12-4.03-.2-6.04c-.15-4.05-.31-8.1-.5-12.15s-.39-8.1-.59-12.15-.42-8.1-.63-12.15-.39-8.05-.56-12.08-.35-7.86-.56-11.79-.45-7.9-.74-11.85-.64-7.89-1.06-11.83-.93-7.86-1.52-11.78-1.33-7.78-2.1-11.66c-.19-.94-.38-1.87-.58-2.8-.02-.1-.18-.06-.16.04h0Z"/>
          <path class="cls-1" d="M375.69,288.54c.18,1.14.36,2.28.54,3.42s.33,2.33.49,3.5c.3,2.28.61,4.57.91,6.85s.6,4.59.91,6.89.6,4.59.89,6.89.58,4.58.86,6.87.56,4.6.83,6.9.54,4.6.81,6.91.52,4.59.77,6.88.5,4.61.74,6.91.48,4.61.71,6.92.46,4.59.68,6.89.43,4.62.65,6.93.43,4.62.63,6.93.4,4.6.6,6.9.39,4.62.57,6.93.37,4.6.55,6.9.36,4.62.53,6.94.34,4.63.5,6.94.33,4.61.49,6.91.32,4.63.47,6.94c.07,1.12.17,2.24.23,3.36.01.24.21.48.47.47.24-.01.48-.21.47-.47-.14-2.31-.25-4.63-.38-6.94s-.28-4.63-.42-6.94-.3-4.63-.46-6.94-.32-4.63-.49-6.94-.34-4.6-.52-6.91-.37-4.62-.56-6.93-.39-4.62-.59-6.93-.41-4.62-.62-6.93-.43-4.62-.65-6.93-.46-4.62-.69-6.92-.48-4.61-.73-6.92-.5-4.59-.76-6.89-.53-4.61-.81-6.91-.56-4.61-.85-6.91-.58-4.6-.88-6.9-.63-4.63-.95-6.94-.66-4.56-.99-6.85-.67-4.58-1.03-6.87-.73-4.57-1.11-6.86-.81-4.56-1.17-6.85c-.17-1.11-.35-2.22-.53-3.33-.01-.07-.12-.04-.11.03h0Z"/>
          <path class="cls-1" d="M325.89,386.52c.01,2.16.04,4.32.06,6.48s.06,4.32.1,6.48.08,4.32.12,6.48.08,4.32.11,6.48.06,4.32.08,6.48.04,4.3.05,6.45,0,4.32-.01,6.48-.04,4.32-.09,6.48-.11,4.32-.18,6.47-.16,4.32-.27,6.47c-.03.53-.06,1.06-.09,1.59-.01.19.17.34.34.34.2,0,.33-.16.34-.34.12-2.16.23-4.31.31-6.47s.14-4.32.18-6.47.06-4.32.07-6.48,0-4.32-.01-6.48-.04-4.32-.07-6.48-.07-4.3-.11-6.45-.1-4.32-.14-6.48-.09-4.32-.13-6.48-.08-4.32-.12-6.48-.06-4.32-.08-6.48c0-.53,0-1.06-.01-1.59,0-.29-.45-.29-.45,0h0Z"/>
        </g>
      </g>
    </g>
    <path class="cls-6" d="M97.87,311.25c-.15,3.48-.37,7.11-.71,10.59-.48,4.82-.86,9.66-1.31,14.48-.23,2.46-.49,4.92-.78,7.37-.14,1.21-.29,2.41-.45,3.62l-.06.45s0,.02,0,.03l-.12.86c-.06.45-.12.91-.18,1.36l.02-.12-.08.57c-.66,4.77-1.44,9.52-2.36,14.25-.91,4.66-1.92,9.31-3.04,13.93-.56,2.33-1.13,4.65-1.74,6.97-.59,2.28-1.29,4.53-1.84,6.82-.27,1.14-.56,2.28-.85,3.42-.34,1.32,1.66,2.28,2.28.96,4.1-8.69,6.92-18.01,9.08-27.36,2.2-9.54,3.81-19.2,4.92-28.93.56-4.87.94-9.76,1.44-14.65.33-3.26.62-6.52.84-9.79-1.72-1.52-3.4-3.13-5.04-4.83Z"/>
    <path class="cls-6" d="M411.75,392.82c-.29-1.14-.58-2.28-.85-3.42-.55-2.29-1.25-4.54-1.84-6.82-.6-2.31-1.17-4.64-1.74-6.97-1.11-4.62-2.13-9.26-3.04-13.93-.92-4.73-1.7-9.48-2.36-14.25l-.08-.57.02.12c-.06-.45-.12-.91-.18-1.36l-.12-.86s0-.01,0-.03l-.06-.45c-.16-1.21-.31-2.41-.45-3.62-.29-2.45-.55-4.91-.78-7.37-.45-4.83-.83-9.66-1.31-14.48-.06-.56-.12-1.26-.16-1.83-1.21,1.14-2.45,2.17-3.71,3.17-.4.32-.82.58-1.22.9.05.58.11,1.21.17,1.79.5,4.88.88,9.77,1.44,14.65,1.11,9.73,2.72,19.39,4.92,28.93,2.16,9.35,4.98,18.66,9.08,27.36.62,1.32,2.62.36,2.28-.96Z"/>
    <path class="cls-7" d="M371.6,134.08c-15.07-25.13-39.86-43.87-67.37-53.47-35.21-12.28-73.82-13.04-109.01-.28-26.84,9.73-51.55,27.04-68.17,50.44-1.6,2.26-2.99,4.7-4.3,7.14-1.51,2.81-2.91,5.68-3.95,8.69-.56,1.61-1.1,3.2-1.29,4.9.06-.41.11-.82.17-1.23-.4,2.2-.71,4.44-.84,6.67-.03.46-.04.91-.06,1.37,0,0,.04.67.04.69l.07.67c.13,1.04.27,2.09.48,3.12.15.75.91,1.31,1.63,1.4.7.09,1.63-.23,1.95-.93.35-.77.72-1.52,1.13-2.26l.32-.57.18-.28c.38-.89.42-1,.13-.31.23-.34.37-.78.56-1.15.86-1.67,1.83-3.28,2.88-4.84l-.73.94c.44-.57.84-1.12,1.2-1.74l.52-.89c.37-.63.75-1.24,1.14-1.86.77-1.22,1.53-2.44,2.3-3.66,1.56-2.47,3.26-4.86,5.04-7.17-.31.4-.62.81-.93,1.21.87-1.13,1.74-2.26,2.62-3.39,5.12-6.61,11.03-12.54,17.35-18,1.69-1.46,3.42-2.86,5.18-4.23,20.97-16.4,48.46-25.48,74.87-27.84,33.24-2.97,68.62,4.74,96.31,23.73,1.96,1.35,3.88,2.76,5.78,4.2,6.61,5.18,12.86,10.91,18.38,17.24,1.39,1.59,2.73,3.23,4.03,4.91.87,1.13,1.74,2.26,2.62,3.39-.31-.4-.62-.81-.93-1.21,1.79,2.32,3.48,4.7,5.04,7.17.77,1.22,1.53,2.44,2.3,3.66.37.59.74,1.18,1.09,1.78l.56.97c.36.63.74,1.15,1.2,1.74l-.73-.94c1.05,1.56,2.02,3.17,2.88,4.84.19.37.34.8.56,1.15-.29-.69-.25-.58.13.31l.18.28.33.57c.41.74.79,1.49,1.13,2.26.31.7,1.26,1.03,1.95.93.72-.1,1.47-.65,1.63-1.4.21-1,.35-2.02.47-3.03l.08-.68c.04-.44-.04.24-.05.32.04-.34.1-.66.1-1,0-.48-.03-.97-.06-1.45-.13-2.24-.45-4.47-.84-6.67.06.41.11.82.17,1.23-.2-1.73-.75-3.35-1.32-4.99-.59-1.7-1.29-3.36-2.08-4.98-1.22-2.55-2.58-5.03-4.03-7.45Z"/>
  </g>
</svg>