<?xml version="1.0" encoding="UTF-8"?>
<svg id="Layer_1" data-name="Layer 1" xmlns="http://www.w3.org/2000/svg" xmlns:xlink="http://www.w3.org/1999/xlink" viewBox="0 0 500 500">
  <defs>
    <style>
      .cls-1 {
        fill: #f5f6dd;
      }

      .cls-2 {
        fill: #a8c8ff;
      }

      .cls-3 {
        fill: #ff7868;
      }

      .cls-4 {
        fill: #28318c;
      }

      .cls-5 {
        fill: #e2e92e;
      }

      .cls-6 {
        clip-path: url(#clippath);
      }
    </style>
    <clipPath id="clippath">
      <path class="cls-2" d="M376.55,381.29c-1.78-5.97-5.65-14.25-11.24-18.67-.43-5.28-1.55-10.33-3.96-15.23-3.01-6.05-8.15-13.28-14.25-17.58-.11-4.47.32-9.15.26-13.02-.09-9.38-.72-18.81-.8-28.17-.14-14.6-1.49-29.34-2.44-43.94-.75-11.79-1.35-23.69-3.76-35.34-3.84-18.47-10.04-35.45-21.08-50.79-15.17-21.08-38.55-34.36-63.5-38.95,7.29-5.82,11.93-14.77,11.93-24.81,0-17.55-14.23-31.78-31.81-31.78s-31.78,14.23-31.78,31.78c0,10.04,4.65,18.99,11.93,24.81-24.95,4.59-48.33,17.87-63.5,38.95-11.04,15.34-17.24,32.32-21.08,50.79-2.41,11.64-3.01,23.55-3.76,35.34-.95,14.6-2.29,29.34-2.44,43.94-.09,9.35-.72,18.79-.8,28.17-.06,3.87.37,8.55.26,13.02-6.11,4.3-11.27,11.53-14.25,17.58-2.44,4.88-3.53,9.95-3.96,15.2-5.59,4.45-9.46,12.73-11.24,18.7-1,3.27-2.38,8.17-.83,11.44,1.78,3.76,4.79,4.62,8.86,4.5h265.22c4.07.11,7.06-.75,8.86-4.5,1.52-3.27.17-8.17-.83-11.44ZM235.9,77.95c9.32,0,16.84,7.54,16.84,16.84s-7.51,16.84-16.84,16.84-16.84-7.54-16.84-16.84,7.54-16.84,16.84-16.84Z"/>
    </clipPath>
  </defs>
  <g>
    <g>
      <path class="cls-2" d="M376.55,381.29c-1.78-5.97-5.65-14.25-11.24-18.67-.43-5.28-1.55-10.33-3.96-15.23-3.01-6.05-8.15-13.28-14.25-17.58-.11-4.47.32-9.15.26-13.02-.09-9.38-.72-18.81-.8-28.17-.14-14.6-1.49-29.34-2.44-43.94-.75-11.79-1.35-23.69-3.76-35.34-3.84-18.47-10.04-35.45-21.08-50.79-15.17-21.08-38.55-34.36-63.5-38.95,7.29-5.82,11.93-14.77,11.93-24.81,0-17.55-14.23-31.78-31.81-31.78s-31.78,14.23-31.78,31.78c0,10.04,4.65,18.99,11.93,24.81-24.95,4.59-48.33,17.87-63.5,38.95-11.04,15.34-17.24,32.32-21.08,50.79-2.41,11.64-3.01,23.55-3.76,35.34-.95,14.6-2.29,29.34-2.44,43.94-.09,9.35-.72,18.79-.8,28.17-.06,3.87.37,8.55.26,13.02-6.11,4.3-11.27,11.53-14.25,17.58-2.44,4.88-3.53,9.95-3.96,15.2-5.59,4.45-9.46,12.73-11.24,18.7-1,3.27-2.38,8.17-.83,11.44,1.78,3.76,4.79,4.62,8.86,4.5h265.22c4.07.11,7.06-.75,8.86-4.5,1.52-3.27.17-8.17-.83-11.44ZM235.9,77.95c9.32,0,16.84,7.54,16.84,16.84s-7.51,16.84-16.84,16.84-16.84-7.54-16.84-16.84,7.54-16.84,16.84-16.84Z"/>
      <g class="cls-6">
        <path class="cls-4" d="M115.96,370.11c.38.12.74.24,1.14.29.45.05.69.08,1.18.09.72.01,1.43.03,2.15.02,1.46,0,2.91,0,4.37.01,2.89.03,5.78.09,8.67.16,5.81.15,11.61.33,17.42.44,5.37.11,10.75.11,16.12.06,5.31-.05,10.63-.11,15.94-.06,5.05.06,10.11.22,15.13.7.58.06,1.15.09,1.74.1.71,0,1.31-.55,1.4-1.24s-.32-1.41-1.02-1.56c-1.26-.27-2.54-.36-3.83-.47s-2.47-.18-3.7-.25c-2.57-.14-5.14-.22-7.71-.27-5.31-.09-10.62-.04-15.92.01s-10.62.09-15.93,0c-5.83-.09-11.66-.3-17.49-.4-2.89-.05-5.78-.08-8.67-.09s-5.83-.03-8.74.14c-.79.05-1.51.19-2.25.46-.86.32-.94,1.54,0,1.83h0Z"/>
        <path class="cls-4" d="M205.81,371.37c.64.14,1.29.33,1.94.36s1.27.07,1.9.1c1.25.06,2.49.04,3.74.03,2.5,0,4.99,0,7.49,0,4.98,0,9.96,0,14.94.03,5.02.02,10.03.06,15.05.11s10,.11,15,.18c5.03.07,10.06.14,15.09.21,5.03.07,10.06.15,15.09.22,5,.07,10,.13,15,.19,4.98.05,9.96.06,14.94.13s9.53.3,14.3.43c4.74.12,9.5.14,14.23-.25,1.14-.09,2.27-.21,3.4-.36.43-.06.79-.14,1.11-.46.27-.27.48-.72.46-1.11-.03-.76-.7-1.68-1.56-1.56-4.69.61-9.43.73-14.16.68s-9.54-.28-14.31-.42c-4.9-.14-9.81-.12-14.71-.17s-10-.11-14.99-.18-10.06-.14-15.09-.21-10.06-.15-15.09-.22-10-.13-15.01-.19-10.04-.1-15.06-.13c-5.01-.03-10.02-.05-15.02-.04-2.47,0-4.95.03-7.42.06s-5-.02-7.48.14c-.61.04-1.22.09-1.83.14-.66.05-1.3.25-1.94.4-.92.22-.95,1.68,0,1.89h0Z"/>
        <path class="cls-4" d="M143.99,341.59c.81.13,1.61.27,2.42.35.38.04.75.08,1.13.11-.31-.03.39.04.5.04.21.01.43.02.64.03,1.52.07,3.05.11,4.57.11,3.08.02,6.15-.12,9.22-.24,3.06-.13,6.12-.26,9.18-.3s6.13.04,9.19.06c6.28.05,12.55.09,18.83.06,6.26-.03,12.51-.2,18.77-.29,6.31-.09,12.61-.12,18.92-.13,6.31-.01,12.63-.01,18.94-.04s12.56-.09,18.84-.24,12.5-.45,18.75-.54c3.15-.04,6.3-.06,9.44-.08,1.58-.01,3.15-.02,4.73-.05,1.34-.02,2.68-.07,4.02-.04,4.71.11,9.44.95,14.16.54,1.03-.09,2.08-.23,3.08-.52.79-.23,1.36-1.12,1.1-1.94s-1.09-1.35-1.94-1.1c-.44.13-.89.23-1.34.31-.12.02-.25.03-.36.06.02,0,.41-.05.14-.02-.06,0-.13.02-.19.02-.26.03-.52.05-.78.07-1.13.08-2.27.08-3.41.05-2.44-.07-4.86-.29-7.29-.46s-5.03-.14-7.56-.11c-3.13.04-6.26.05-9.39.07s-6.28.06-9.41.15-6.22.23-9.33.32c-6.27.18-12.55.27-18.83.32s-12.58.05-18.86.06c-6.28,0-12.57.02-18.85.08-6.26.06-12.52.23-18.78.31s-12.51.06-18.77.01c-6.15-.04-12.31-.15-18.46.1-6.1.25-12.22.69-18.33.58-1.46-.02-2.92,0-4.38-.02-.58,0-1.07.45-1.14,1.01-.07.52.26,1.18.83,1.28h0Z"/>
        <path class="cls-4" d="M305.61,249.67c-.05.08-.11.15-.17.23-.14.19.17-.2.07-.08-.1.11-.19.23-.27.36-.11.18-.21.36-.3.55-.2.41-.44.81-.66,1.22-.47.87-1.02,1.69-1.6,2.49-.35.49-.71.96-1.07,1.44l.23-.3c-1.06,1.37-2.16,2.72-3.22,4.1-.89,1.15-1.76,2.33-2.47,3.61-.18.32-.34.64-.49.97-.08.18-.16.37-.24.56-.13.31-.09.63-.03.95.02.13.05.27.08.4.1.41.45.74.85.85.44.12.85-.02,1.19-.31.09-.08.19-.16.28-.24.3-.24.42-.58.57-.93l-.15.36c.81-1.92,2.13-3.61,3.4-5.25l-.23.3c1.01-1.3,2.03-2.59,3-3.92.85-1.16,1.66-2.36,2.33-3.64.22-.42.4-.85.56-1.29.06-.17.12-.33.17-.5.08-.27.11-.56.13-.84l-.04.33c.05-.32.04-.58,0-.9-.04-.44-.29-.89-.76-1s-.89.08-1.17.48h0Z"/>
        <path class="cls-4" d="M173.38,226.93c.13.17.25.4.41.53.12.1.25.19.37.29.34.27.69.5,1.05.74.59.4,1.19.78,1.8,1.16,1.19.74,2.39,1.46,3.68,2.01.33.14.67.28,1.02.38.25.07.5.12.76.13.03,0,.07,0,.1,0,.12,0,.55-.09.4-.05.23-.06.34-.13.51-.26.08-.06.16-.12.23-.19.13-.12.22-.26.27-.42.08-.16.12-.32.11-.5l-.05-.35c-.06-.22-.17-.41-.34-.58-.02-.02-.04-.05-.06-.07l.22.28c-.17-.22-.3-.4-.55-.55-.14-.08-.28-.13-.43-.18-.07-.02-.14-.04-.22-.05-.16-.03-.33-.07-.49-.12-.36-.11-.72-.24-1.07-.39l.34.14c-.9-.38-1.77-.84-2.62-1.32s-1.78-1.01-2.68-1.48c-.32-.17-.64-.31-.98-.44-.21-.08-.38-.15-.62-.16-.11,0-.23-.01-.34-.02-.33-.02-.67.2-.84.48-.09.15-.13.31-.13.49,0,.17.04.34.13.49h0Z"/>
        <path class="cls-4" d="M264.59,141.22c-.04.06-.09.12-.13.18l.14-.18s-.04.04-.05.06c-.07.08-.13.17-.2.25-.04.05-.07.1-.11.15l.17-.22c-.1.12-.2.23-.26.37-.03.06-.06.12-.08.19-.1.22-.21.43-.29.65-.1.27-.2.54-.31.81l.13-.3c-.15.36-.32.72-.51,1.07-.09.16-.18.32-.27.48-.09.15-.17.29-.25.44-.05.07-.09.15-.14.22-.02.04-.04.07-.06.11,0,0,0,.02-.01.02-.05.11-.09.22-.14.33l-.05.36c0,.13.02.27.05.39l.13.31c.08.15.2.28.34.37.08.08.18.14.29.17.16.08.33.12.51.11.06,0,.19-.02.2-.03.32-.04.11,0,.19-.03l.32-.14.27-.21c.07-.06.11-.12.18-.2.08-.1.15-.19.21-.3.08-.12.15-.25.22-.37.08-.14.15-.29.21-.44.11-.26.22-.51.32-.77.13-.33.24-.67.34-1,.05-.17.1-.35.15-.52.02-.09.04-.17.06-.26.03-.14.04-.29.06-.44,0-.04,0-.09.01-.13,0-.1.02-.19.03-.29,0-.02,0-.05,0-.07,0-.07,0-.13-.02-.21-.01-.09-.03-.17-.05-.26-.02-.08-.03-.16-.06-.24s-.05-.16-.07-.24c-.04-.13-.11-.26-.21-.35l-.16-.13c-.09-.06-.19-.09-.3-.1-.07-.02-.14-.02-.21,0-.07,0-.14.02-.2.05-.07.02-.13.05-.18.1-.09.06-.16.13-.21.22h0Z"/>
        <path class="cls-4" d="M220.15,119.9c1.4.96,3.18.93,4.82.89,1.79-.04,3.58-.22,5.37-.34s3.57-.09,5.38-.03c2.43.08,4.85.13,7.28.16,2.72.03,5.45.04,8.17-.08.69-.03,1.36-.59,1.32-1.32s-.58-1.33-1.32-1.32c-4.81.03-9.61.04-14.41-.1-1.9-.06-3.79-.17-5.68-.02-1.75.13-3.49.34-5.24.46-.94.06-1.88.1-2.82.06-.43-.02-.86-.04-1.29-.04-.38,0-.75.03-1.13.02-.94-.01-1.15,1.19-.45,1.67h0Z"/>
        <path class="cls-1" d="M183.31,144.62s-.03.04-.05.06l.13-.03c-.22-.09-.42-.09-.64-.03l.62.08c-.34-.18-.73-.22-1.07,0l.51-.14c-.29-.02-.55.07-.81.21-.11.06-.22.11-.33.16l.31-.13c-.11.04-.25.09-.35.15l.31-.13c-.31.12-.61.26-.92.4l.36-.15c-.26.1-.38.16-.58.31-.08.06-.17.12-.25.18-.18.13-.37.25-.55.38-.39.27-.78.54-1.17.81-.87.6-1.75,1.19-2.62,1.8-1,.7-1.98,1.44-2.91,2.22-.81.68-1.55,1.43-2.21,2.27-.41.52-.75,1.08-1.04,1.68-.16.33-.31.67-.42,1.02-.1.32-.13.69-.17,1.03l.04.29c.03.14.1.27.2.37.14.18.34.34.57.39.49.11.98-.08,1.24-.51.14-.23.31-.44.46-.67s.31-.47.48-.69l-.21.27c.22-.29.47-.57.72-.83.27-.28.53-.57.8-.84.58-.57,1.19-1.12,1.81-1.64.36-.3.73-.6,1.1-.89l-.32.24c1.36-1.05,2.78-2,4.19-2.98.45-.31.9-.62,1.33-.96l-.31.24c.34-.26.69-.53,1.02-.8.06-.05.11-.09.17-.14.14-.12.24-.28.35-.43.08-.1.16-.21.23-.32l-.21.28c.2-.24.27-.35.38-.64l-.14.32c.07-.14.15-.27.22-.4s.16-.29.2-.44c.07-.25.03-.45,0-.7l-.1.78v-.02c.16-.31.22-.71,0-1.02l-.04-.05.11.41c.02-.29-.09-.53-.32-.71l.04.09s0-.07,0-.11c0-.1-.12-.12-.17-.05h0Z"/>
        <path class="cls-1" d="M125.29,344.91c-.06.03-.12.05-.18.08h.91l-.09-.06c-.37-.24-.87-.21-1.24,0-.19.1-.38.21-.56.33-.09.06-.17.11-.26.17-.04.03-.08.05-.13.07-.02.01-.05.02-.07.04-.07.04-.25.19-.31.24-.02.01-.03.03-.04.04-.32.27-.64.54-.92.85-.36.4-.69.81-1.01,1.24-.24.32-.46.66-.66,1.01-.18.31-.32.64-.45.98-.04.11-.08.21-.12.32,0,.03-.02.06-.02.09,0,.01,0,.02,0,.03,0,.01,0,.02,0,.03l-.05.39c0,.14.03.3.05.44,0,.03,0,.06.01.08v-.74c-.03.18-.05.36-.07.54,0,.03,0,.07,0,.1,0,.09,0,.16.02.26.02.13.03.21.08.33.05.14.1.28.19.4l.16.21c.09.1.21.17.34.22.08.05.17.07.26.07.14.03.28.02.42-.02.02,0,.04-.01.05-.02.1-.04.23-.08.32-.14.12-.08.29-.19.38-.29.16-.17.29-.38.42-.58l-.5.5c.28-.18.42-.32.61-.6.03-.05.07-.1.1-.16.05-.1.1-.2.16-.3.11-.2.22-.41.34-.61.23-.4.49-.78.77-1.15l-.24.31c.14-.18.29-.36.44-.54s.33-.35.48-.53.31-.36.47-.54.32-.35.44-.56c.06-.1.14-.2.22-.29l-.22.28c.21-.28.42-.55.62-.84.11-.19.17-.4.17-.62,0-.22-.06-.43-.17-.62l-.03-.06v.91c.03-.05.06-.11.09-.16.09-.16.12-.35.1-.53-.02-.18-.1-.36-.23-.48-.11-.1-.23-.17-.37-.22-.11-.03-.22-.04-.33-.01-.11,0-.22.04-.31.1h0Z"/>
        <path class="cls-1" d="M107.22,378.23c-.13.07-.26.15-.38.22l.62-.17h0c.11.02.22.03.33.04-.01,0-.03,0-.04,0,0,0,0,0,0,0l-.35-.05-.35.05-.16.07c-.11.03-.21.09-.29.17-.06.05-.1.08-.15.12-.04.04-.09.08-.13.12-.09.08-.18.17-.26.26s-.17.17-.24.27c-.15.19-.3.38-.44.57s-.28.39-.4.59c-.06.1-.1.2-.15.3-.09.21-.18.42-.26.63-.04.1-.09.21-.11.32-.03.17-.05.35-.07.52,0,0,0,.01,0,.02h0c.02.14.03.26.05.39,0,.01,0,.02.01.03,0,.02.02.04.02.06.06.23.18.43.35.6.17.17.37.29.6.35.24.06.48.06.72,0,.23-.06.43-.18.6-.35.12-.11.22-.19.3-.36.02-.04.04-.08.05-.12.09-.19.17-.4.25-.59l-.15.35c.07-.16.14-.31.22-.46.04-.08.09-.16.13-.24s.08-.17.13-.25c.09-.17.19-.34.29-.51.05-.08.11-.17.16-.25s.1-.17.15-.25c.06-.09.12-.19.18-.28.03-.04.06-.09.09-.13.07-.1.1-.14.15-.34.06-.21.07-.5,0-.71,0-.02-.01-.03-.02-.05l.04.33h0c-.06.2-.11.4-.17.61.07-.13.14-.26.22-.39l.11-.26c.05-.15.05-.29.02-.44,0-.1-.03-.19-.08-.28-.04-.14-.12-.25-.23-.35l-.22-.17-.26-.11c-.15-.05-.29-.05-.44-.02-.15,0-.28.05-.41.13h0Z"/>
      </g>
    </g>
    <path class="cls-5" d="M267.71,405.21c0,17.55-14.23,31.78-31.81,31.78s-31.78-14.23-31.78-31.78c0-2.75.34-5.42,1-7.97h61.58c.66,2.55,1,5.22,1,7.97Z"/>
  </g>
  <g>
    <circle class="cls-3" cx="345.06" cy="230.13" r="61.2"/>
    <path class="cls-1" d="M341.7,196.15c-.07.39-.14.75-.18,1.15l.11-.8c-.02.07-.04.14-.06.21l.32-.75c-.55,1.08-.47,1.94-.32,3.06l-.12-.87c.12.94.1,1.88.1,2.83,0,1.09-.07,2.19-.16,3.28-.2,2.34-.53,4.66-.82,6.99-.26,2.02-.45,4.01-.44,6.04l.07,9.09.04,4.89.02,2.31c0,1.21.03,2.4.74,3.45.62.9,1.49,1.5,2.62,1.5s2.01-.6,2.62-1.5c.68-.99.73-2.12.74-3.28l.02-2.12c.01-1.49.02-2.98.03-4.47.02-3.13.05-6.25.07-9.38.02-2.16.18-4.29.42-6.43.27-2.41.59-4.82.76-7.23.09-1.25.18-2.53.09-3.78-.06-.81-.17-1.61-.32-2.41-.23-1.26-.75-2.36-1.86-3.09l.64.49c-.27-.25-.53-.49-.85-.69l.59.46c-.07-.06-.14-.12-.22-.18-.35-.34-.76-.58-1.23-.71-.49-.13-.99-.13-1.48,0-.86.24-1.78,1.01-1.94,1.94h0Z"/>
    <path class="cls-1" d="M341.37,248.32c-.38.17-.72.44-1.01.73-.62.61-1,1.55-1,2.42s.37,1.84,1,2.42,1.51,1.04,2.42,1,1.77-.35,2.42-1c.3-.3.56-.63.73-1.01l.34-.8c.14-.44.16-.89.06-1.33-.09-.7-.38-1.42-.92-1.92-.43-.39-.92-.68-1.47-.86-.89-.29-1.76-.02-2.57.34h0Z"/>
  </g>
</svg>