<?xml version="1.0" encoding="UTF-8"?>
<svg id="Layer_1" data-name="Layer 1" xmlns="http://www.w3.org/2000/svg" xmlns:xlink="http://www.w3.org/1999/xlink" viewBox="0 0 500 500">
  <defs>
    <style>
      .cls-1 {
        fill: #d1f1f4;
      }

      .cls-2 {
        fill: #80acff;
      }

      .cls-3 {
        fill: #e2f6eb;
      }

      .cls-4 {
        fill: #316bf6;
      }

      .cls-5 {
        clip-path: url(#clippath-17);
      }

      .cls-6 {
        clip-path: url(#clippath-19);
      }

      .cls-7 {
        clip-path: url(#clippath-11);
      }

      .cls-8 {
        clip-path: url(#clippath-16);
      }

      .cls-9 {
        clip-path: url(#clippath-18);
      }

      .cls-10 {
        clip-path: url(#clippath-10);
      }

      .cls-11 {
        clip-path: url(#clippath-15);
      }

      .cls-12 {
        clip-path: url(#clippath-13);
      }

      .cls-13 {
        clip-path: url(#clippath-14);
      }

      .cls-14 {
        clip-path: url(#clippath-12);
      }

      .cls-15 {
        clip-path: url(#clippath-1);
      }

      .cls-16 {
        clip-path: url(#clippath-3);
      }

      .cls-17 {
        clip-path: url(#clippath-4);
      }

      .cls-18 {
        clip-path: url(#clippath-2);
      }

      .cls-19 {
        clip-path: url(#clippath-7);
      }

      .cls-20 {
        clip-path: url(#clippath-6);
      }

      .cls-21 {
        clip-path: url(#clippath-9);
      }

      .cls-22 {
        clip-path: url(#clippath-8);
      }

      .cls-23 {
        clip-path: url(#clippath-5);
      }

      .cls-24 {
        fill: #8089c4;
      }

      .cls-25 {
        fill: #28318c;
      }

      .cls-26 {
        clip-path: url(#clippath);
      }
    </style>
    <clipPath id="clippath">
      <path class="cls-2" d="M321.13,159.97v16.38c0,1.63-1.32,2.96-2.96,2.96h-.72v4.77c0,1.28-1.04,2.32-2.32,2.32h-17.82c-1.28,0-2.32-1.04-2.32-2.32v-4.77h-3.09c-1.72,0-3.11-1.39-3.11-3.11v-16.22h32.34Z"/>
    </clipPath>
    <clipPath id="clippath-1">
      <path class="cls-2" d="M276.5,129.24c-.27,3.49-.29,6.98-.44,10.47-.29,7.96.04,15.95.04,23.89,0,.42,0,.82.02,1.23-3.34-1.09-6.79-2.07-10.18-3.01-2.28-.65-4.56-1.32-6.84-2.03-.06.31-.15.59-.25.79-.44.96-1.09.86-2.09.86-1.61,0-3.51-.19-5.02-.75-.77-.29-1.42-.82-1.94-1.51-2.09-2.63-2.53-7.61-2.8-10.31v-.04c-.56-5.44-.92-12.25,1.23-17.39,1.19-2.86,3.7-5.21,5.81-7.38.27-.29.54-.56.84-.86,1.21-1.19,2.57-2.26,4.31-2.34,1.05-.06,2.09.27,2.49,1.36.13.29.15.56.1.82-.1.67-.63,1.19-1.05,1.82-1.3,1.94-2.4,3.45-3.11,5.39,3.55-.79,7.13-1.46,10.7-2.11,2.45-.46,4.87-.71,7.32-1.13.27-.04.56-.08.88-.13-.02.92.02,1.8-.02,2.34Z"/>
    </clipPath>
    <clipPath id="clippath-2">
      <path class="cls-24" d="M264.71,230.5v38.12c0,1.3-1.05,2.35-2.35,2.35h-7.37v4.59c0,1.3-1.05,2.35-2.35,2.35h-36.9v-4.95c0-1.61.21-3.41.29-5.23l29.85,1.61v-38.59c0-2.11,1.71-3.83,3.83-3.83h11.44c1.97,0,3.57,1.6,3.57,3.57Z"/>
    </clipPath>
    <clipPath id="clippath-3">
      <path class="cls-24" d="M264.66,309.36c-.56.52-1.42.86-2.36,1.07-1.4.33-2.99.42-4.06.56-.94.13-1.9.27-2.88.36-1.48.15-2.99.21-4.43,0-2.03-.29-3.07-1.51-5.21-.96-2.36.61-4.77,1.74-7.04,2.65-5.71,2.3-11.35,4.58-16.93,7.17-1.17.54-2.65,1.13-4.01,1.8v12.02c0,2.34.29,4.95,0,7.4-.17,1.38-.52,2.68-1.21,3.87-1.42,2.4-4.16,3.62-6.98,4.16-3.09.63-6.27.46-7.99.23-.15-.02-.31-.04-.46-.06-2.42-.4-5.04-1.32-7.02-2.78-1.97-1.42-2.8-3.3-3.11-5.41-.21-1.09-.25-2.24-.25-3.39v-73.71c1.15-5.54,5.62-6.5,10.77-6.96,3.68-.31,7.92-.02,11.2,1.8,3.14,1.74,3.47,5.12,3.34,8.57-.08,1.82-.29,3.62-.29,5.23v35.33c5.69-2.38,11.41-4.64,17.14-6.92,4.72,0,8.57,0,10.49-.02,7.15-.06,14.84-.73,21.91-2.95.04,1.38.33,2.82.44,4.01.19,1.86.5,5.52-1.05,6.94Z"/>
    </clipPath>
    <clipPath id="clippath-4">
      <path class="cls-2" d="M278.29,322.95v10.73c0,.34-.11.67-.33.93-1.18,1.39-2.69,2.37-4.73,3.17-3.24,1.23-6.54,1.61-9.95,2.07-3.51.46-7.3.23-10.85.08-2.84-.13-5.73-.73-8.47-1.51-.83-.24-1.89-.52-2.97-.87-1.36-.44-2.27-1.71-2.27-3.13v-9.68c0-.53.18-1.07.57-1.43.82-.76,1.86-1.34,2.84-1.86,3.34-1.84,6.98-3.11,10.7-3.87-.44.4-.79.88-.94,1.44-.65,2.36.75,4.01,2.88,4.72,3.3,1.09,9.24.73,10.83-3.03.48-1.15.27-2.42-.38-3.43,3.22.44,6.35,1.34,9.34,2.68,1.46.67,3.03,1.61,3.72,2.99Z"/>
    </clipPath>
    <clipPath id="clippath-5">
      <polygon class="cls-2" points="247 205.13 247 212.9 245.87 212.9 245.87 240.19 229.8 240.19 229.8 212.9 228.65 212.9 228.65 205.13 247 205.13"/>
    </clipPath>
    <clipPath id="clippath-6">
      <rect class="cls-25" x="228.65" y="159.2" width="18.35" height="23.35"/>
    </clipPath>
    <clipPath id="clippath-7">
      <path class="cls-2" d="M214.14,108.03v11.27c0,1.42-1.15,2.57-2.55,2.57h-74.78v-33.57c0-1.48,1.19-2.68,2.68-2.68h7.59c1.48,0,2.68,1.19,2.68,2.68v9.66c0,4.16,3.37,7.53,7.53,7.53h54.31c1.4,0,2.55,1.13,2.55,2.55Z"/>
    </clipPath>
    <clipPath id="clippath-8">
      <path class="cls-2" d="M190.68,215.25h-53.87v70.93c-1.36.02-2.47,1.15-2.47,2.51v11.41c0,3.11,2.24,5.75,5.21,6.33.42.08.84.13,1.28.13h6.81c.44,0,.86-.04,1.28-.13,2.95-.59,5.18-3.22,5.18-6.33v-11.41c0-1.36-1.09-2.49-2.45-2.51v-33.49c0-11.2,7.42-20.65,17.6-23.77,2.28-.69,4.72-1.07,7.23-1.07h14.19c1.99,0,3.6-1.61,3.6-3.6v-5.41c0-1.99-1.61-3.6-3.6-3.6Z"/>
    </clipPath>
    <clipPath id="clippath-9">
      <path class="cls-25" d="M159.85,333.94c0,2.53-.92,5.1-2.78,7.11l-8.15,8.86-9.37,10.18-10.79,11.73c-3.95,4.29-10.6,4.56-14.88.63-2.26-2.09-3.41-4.91-3.41-7.76,0-2.55.92-5.1,2.78-7.13l26.38-28.66c.15.92.61,1.61,1.28,2.09.86.63,2.03.92,3.32.92,2.59,0,4.68-1.17,4.68-3.76v-4.72c1.13-.04,2.26.08,3.34.4,1.51.44,2.95,1.23,4.18,2.36,1.59,1.46,2.63,3.28,3.09,5.25.21.82.31,1.67.31,2.51Z"/>
    </clipPath>
    <clipPath id="clippath-10">
      <path class="cls-2" d="M283.33,208.7v35.39h-15.85v-35.08h14.01c.65,0,1.25-.1,1.84-.31Z"/>
    </clipPath>
    <clipPath id="clippath-11">
      <path class="cls-25" d="M292.74,192.38v5.96c0,2.74-2.24,4.98-5,4.98h-.56c0,2.51-1.61,4.64-3.85,5.39-.59.21-1.19.31-1.84.31h-17.54c-3.85,0-6.98-3.14-6.98-6.98v-9.66c0-3.87,3.14-6.98,6.98-6.98h21.8c3.85,0,6.98,3.11,6.98,6.98Z"/>
    </clipPath>
    <clipPath id="clippath-12">
      <path class="cls-25" d="M186.31,374.16c-1.34,2.05-2.11,4.47-2.11,7.11v23.6c-6.58,1.99-12.52,2.22-12.52,2.22h-43.96c-1.26,0-2.28-1.02-2.28-2.28v-4.98c0-.58.22-1.14.62-1.56,1.58-1.66,6.05-6.36,11.78-12.39.96.84,2.19,1.34,3.55,1.34h5.69c2.97,0,5.39-2.43,5.39-5.39v-5.08h19.73c6.59,0,11.06-1.09,14.11-2.57Z"/>
    </clipPath>
    <clipPath id="clippath-13">
      <path class="cls-2" d="M258.66,381.27v11.33c0-7.23-5.85-13.09-13.07-13.09h-48.33c-7.21,0-13.07,5.85-13.07,13.09v-11.33c0-2.63.77-5.06,2.11-7.11,1.32-2.03,3.18-3.68,5.39-4.7.21-.1.42-.21.65-.29,1.53-.63,3.18-.96,4.91-.96h48.33c7.04,0,12.79,5.6,13.04,12.58.02.15.02.31.02.48Z"/>
    </clipPath>
    <clipPath id="clippath-14">
      <path class="cls-25" d="M345.19,339.98c-.04-3.03-2.47-5.5-5.5-5.62l-61.4-2.38v1.69c0,.34-.11.67-.33.93-1.18,1.39-2.69,2.37-4.73,3.17-3.24,1.23-6.54,1.61-9.95,2.07-3.51.46-7.3.23-10.85.08-2.84-.13-5.73-.73-8.47-1.51-.83-.24-1.89-.52-2.97-.87-1.36-.44-2.27-1.71-2.27-3.13v-4.07s-5.35-.21-5.35-.21c-3.18-.12-6.14,1.58-7.63,4.39l-3.66,6.9h-4.35c-.17,1.38-.52,2.68-1.21,3.87-1.42,2.4-4.16,3.62-6.98,4.16v4.39c0,1.17-.48,1.99-1.23,2.51-.84.58-2.08.8-3.41.74-2.12-.1-3.8-1.82-3.8-3.94v-3.54c-2.42-.4-5.04-1.32-7.02-2.78-1.97-1.42-2.8-3.3-3.11-5.41h-10.15c-.47,0-.92.19-1.25.53-1.27,1.34-9.26,9.75-11.43,12.04-.35.37-.54.86-.54,1.38v4c0,.66.54,1.2,1.2,1.2h8.79c2.17,0,4.35.25,6.42.92,3.07.96,6.77,2.95,8.17,7.04.08.19.15.42.19.63,1.53-.63,3.18-.96,4.91-.96h48.33c7.04,0,12.79,5.6,13.04,12.58h79.96c1.54,0,2.95-.84,3.67-2.19l2.93-5.44c.36-.63.52-1.34.5-2.07l-.52-31.11Z"/>
    </clipPath>
    <clipPath id="clippath-15">
      <path class="cls-25" d="M358.05,125.9v26.4c0,1.55-1.3,2.74-2.82,2.59l-17.75-1.59c-1.55-.15-2.72-1.42-2.72-2.95v-22.51c0-1.53,1.17-2.8,2.72-2.95l17.75-1.59c1.53-.15,2.82,1.05,2.82,2.59Z"/>
    </clipPath>
    <clipPath id="clippath-16">
      <path class="cls-25" d="M389.53,127.49v15.18c0,.82-.67,1.46-1.46,1.46h-4.31c-.77,0-1.42-.63-1.44-1.42h-7.48v-15.26h7.48c.02-.79.67-1.42,1.44-1.42h4.31c.79,0,1.46.65,1.46,1.46Z"/>
    </clipPath>
    <clipPath id="clippath-17">
      <path class="cls-3" d="M362.31,105.75h-1.21c-.56,0-1.02.46-1.02,1.02v1.46h-35.39v5.56h35.39v.92c0,.56.46,1.02,1.02,1.02h1.21c1.46,0,2.65-1.17,2.65-2.63v-4.72c0-1.44-1.19-2.63-2.65-2.63Z"/>
    </clipPath>
    <clipPath id="clippath-18">
      <path class="cls-3" d="M270.06,96.67v1.21c0,.56-.44,1.02-1,1.02h-1.57v3.76h-4.81v-3.76h-1.59c-.56,0-1.02-.46-1.02-1.02v-1.21c0-1.46,1.19-2.65,2.65-2.65h4.7c1.46,0,2.63,1.19,2.63,2.65Z"/>
    </clipPath>
    <clipPath id="clippath-19">
      <path class="cls-3" d="M325.92,96.67v1.21c0,.56-.44,1.02-1,1.02h-1.28v3.76h-4.81v-3.76h-1.88c-.56,0-1.02-.46-1.02-1.02v-1.21c0-1.46,1.19-2.65,2.63-2.65h4.72c1.46,0,2.63,1.19,2.63,2.65Z"/>
    </clipPath>
  </defs>
  <g>
    <path class="cls-24" d="M311.45,245.14c-3.68,8.01-9.26,15.76-14.07,23.14-5.02,7.73-10.54,15.24-17.2,21.66-4.22,4.08-9.37,6.75-14.91,8.47-7.07,2.22-14.76,2.88-21.91,2.95-1.92.02-5.77.02-10.49.02-5.14,0-11.31-.02-17.14-.02v-15.22c3.11.04,5.67.04,8.76.02h15.2c7.25.02,14.47.33,21.26-2.3,6.73-2.63,11.48-8.4,16.24-13.61,5.23-5.71,10.16-12,14.51-18.42,2.86-4.22,6.21-8.42,7.65-13.42,1.51-5.21.71-11.27.71-16.64v-35.37h13.02c-.02,15.05-.15,31.65.46,46.55.19,4.54-.15,8.09-2.09,12.19Z"/>
    <g>
      <path class="cls-2" d="M321.13,159.97v16.38c0,1.63-1.32,2.96-2.96,2.96h-.72v4.77c0,1.28-1.04,2.32-2.32,2.32h-17.82c-1.28,0-2.32-1.04-2.32-2.32v-4.77h-3.09c-1.72,0-3.11-1.39-3.11-3.11v-16.22h32.34Z"/>
      <g class="cls-26">
        <path class="cls-25" d="M292.36,180.93c.45.09.89.19,1.34.28.53.1,1.1.1,1.63.13,1.09.07,2.19.08,3.28.08,2.49,0,4.98,0,7.47,0,5.12,0,10.23.04,15.35-.02,2.31-.03,4.63-.33,6.93-.54.71-.07.71-1.04,0-1.11-.93-.09-1.87-.18-2.8-.26-1.07-.1-2.16-.26-3.24-.27-2.47-.03-4.94-.05-7.42-.04-5.13,0-10.26.01-15.39.02-1.26,0-2.51.03-3.76.07-.57.01-1.13.06-1.7.11s-1.13.2-1.69.32c-.61.13-.61,1.11,0,1.23h0Z"/>
      </g>
    </g>
    <path class="cls-24" d="M323.64,127.03v32.95h-39.26c-.02-.19-.02-.36-.02-.54v-23.66c0-2.65.27-5.44.13-8.07-.02-.23-.04-.44-.08-.67h2.4c.33,1.34.82,2.57,1.57,3.39,1.61,1.74,4.12,2.32,6.38,2.57,2.7.29,5.69.25,8.34-.38,1.84-.44,3.18-1.42,4.14-3.07.44-.75.71-1.59.88-2.51h15.53Z"/>
    <path class="cls-3" d="M306.77,123.06c.89,0,1.58.74,1.56,1.63-.02.8-.09,1.59-.22,2.34-.17.92-.44,1.76-.88,2.51-.96,1.65-2.3,2.63-4.14,3.07-2.65.63-5.64.67-8.34.38-2.26-.25-4.77-.84-6.38-2.57-.75-.82-1.23-2.05-1.57-3.39-.17-.76-.28-1.55-.34-2.31-.08-.9.65-1.66,1.55-1.66h18.76Z"/>
    <path class="cls-3" d="M284.48,164.53c-.27,2.99-1.42,5.98-4.29,7.34-.88.44-3.09,1.53-3.78.65-.36-.46-.1-2.68-.13-3.24-.08-1.46-.17-2.95-.17-4.43-.02-.42-.02-.82-.02-1.23,0-7.94-.33-15.93-.04-23.89.15-3.49.17-6.98.44-10.47.04-.54,0-1.42.02-2.34.02-1.51.15-3.2.96-3.89,1.02-.86,3.16-.13,4.22.33,1.44.65,2.4,2.13,2.7,3.68.04.23.06.44.08.67.15,2.63-.13,5.41-.13,8.07v23.66c0,.19,0,.36.02.54.04,1.53.25,3.07.1,4.56Z"/>
    <g>
      <path class="cls-2" d="M276.5,129.24c-.27,3.49-.29,6.98-.44,10.47-.29,7.96.04,15.95.04,23.89,0,.42,0,.82.02,1.23-3.34-1.09-6.79-2.07-10.18-3.01-2.28-.65-4.56-1.32-6.84-2.03-.06.31-.15.59-.25.79-.44.96-1.09.86-2.09.86-1.61,0-3.51-.19-5.02-.75-.77-.29-1.42-.82-1.94-1.51-2.09-2.63-2.53-7.61-2.8-10.31v-.04c-.56-5.44-.92-12.25,1.23-17.39,1.19-2.86,3.7-5.21,5.81-7.38.27-.29.54-.56.84-.86,1.21-1.19,2.57-2.26,4.31-2.34,1.05-.06,2.09.27,2.49,1.36.13.29.15.56.1.82-.1.67-.63,1.19-1.05,1.82-1.3,1.94-2.4,3.45-3.11,5.39,3.55-.79,7.13-1.46,10.7-2.11,2.45-.46,4.87-.71,7.32-1.13.27-.04.56-.08.88-.13-.02.92.02,1.8-.02,2.34Z"/>
      <g class="cls-15">
        <path class="cls-25" d="M260.57,125.97c-.34.13-.71.24-1.01.45-.33.24-.67.49-.98.75-.59.48-1.16,1.02-1.71,1.55-1.04,1.01-2.02,2.12-2.62,3.45s-.92,2.71-1.17,4.13c-.23,1.32-.46,2.65-.63,3.98-.35,2.67-.41,5.4-.16,8.07.26,2.75.85,5.47,2.08,7.96,1.4,2.83,3.9,5.07,6.92,6.02.56.17.94-.69.4-.96-2.33-1.16-4.31-2.9-5.52-5.22-1.1-2.11-1.75-4.74-2.03-7.07-.31-2.6-.28-5.23.03-7.83.02-.13.03-.26.05-.39.04-.31-.01.09.01-.1.01-.08.02-.16.03-.24.04-.32.09-.63.15-.95.1-.62.22-1.24.32-1.86.21-1.29.44-2.58.86-3.81.12-.36.21-.59.35-.87.16-.34.34-.67.55-.98.39-.58.88-1.14,1.39-1.69.55-.59,1.14-1.14,1.73-1.69.31-.28.59-.59.88-.89.3-.32.48-.68.67-1.07.18-.36-.13-.94-.58-.76h0Z"/>
        <path class="cls-25" d="M264.37,154.82c-.05.07-.07.18-.09.26-.03.14-.03.21,0,.35,0,0,0,.01,0,.02,0,.01,0,.03,0,.04,0,.03.01.06.02.09.02.12.05.24.07.35,0,.03.01.05.02.08.01.07.02.1.08.2.06.11.17.22.28.28l.09.04c.09.05.19.07.29.07.07,0,.14,0,.2-.03,0,0,0,0,0,0,.03,0,.15-.06.18-.07,0,0,0,0,0,0l.15-.12.12-.15c.07-.11.11-.27.11-.39,0-.14-.04-.28-.11-.39,0-.01-.02-.03-.03-.04-.06-.1-.13-.2-.19-.3-.04-.06-.07-.11-.11-.17-.07-.11-.13-.17-.24-.24,0,0-.01,0-.02-.01-.01,0-.02-.01-.03-.02-.06-.04-.12-.08-.2-.09l-.14-.02c-.07,0-.14.01-.21.05-.05.01-.09.04-.12.07-.06.04-.11.09-.14.15h0Z"/>
      </g>
    </g>
    <path class="cls-2" d="M247,148.89v10.31h-19.23v-19.86c0-1.36-.42-3.57,1.09-4.33.92-.44,1.78-.13,2.57.29,2.24,1.19,4.01,3.18,5.92,4.77,3.32,2.8,6.61,5.75,9.66,8.82Z"/>
    <g>
      <path class="cls-24" d="M264.71,230.5v38.12c0,1.3-1.05,2.35-2.35,2.35h-7.37v4.59c0,1.3-1.05,2.35-2.35,2.35h-36.9v-4.95c0-1.61.21-3.41.29-5.23l29.85,1.61v-38.59c0-2.11,1.71-3.83,3.83-3.83h11.44c1.97,0,3.57,1.6,3.57,3.57Z"/>
      <g class="cls-18">
        <path class="cls-25" d="M255.49,220.9c-.29.97-.32,1.98-.37,2.99s-.1,2-.12,3c-.05,1.96-.09,3.92-.11,5.87-.03,3.96-.08,7.92-.07,11.88.02,7.88.04,15.75.1,23.63.02,2.22.04,4.44.09,6.66.02,1.09.05,2.18.07,3.26.01.56,0,1.14.06,1.7s.16,1.14.25,1.71c.09.52.97.52,1.06,0,.17-1.01.28-1.99.31-3.02s.05-2,.07-3c.04-1.96.08-3.92.09-5.87.03-3.96.07-7.92.08-11.88.02-7.88.04-15.75-.03-23.63-.02-2.22-.04-4.44-.1-6.66-.03-1.09-.07-2.18-.12-3.26s-.07-2.29-.39-3.38c-.13-.43-.74-.43-.87,0h0Z"/>
        <path class="cls-25" d="M244.03,264.19c-.04.24-.14.47-.22.71-.08.26-.12.53-.16.8-.1.58-.11,1.18-.14,1.77-.05,1.07-.03,2.15.02,3.22.03.55.07,1.09.08,1.63s.01,1.12.02,1.67c.03,1.11.04,2.23.13,3.34.05.62.1,1.25.18,1.87.08.71.12,1.51.49,2.14.31.54,1.15.42,1.31-.17s.09-1.21.07-1.81c-.02-.54-.02-1.08-.01-1.62.01-1.13.04-2.26.07-3.38s.03-2.16-.03-3.25c-.03-.54-.09-1.07-.16-1.61-.07-.6-.13-1.2-.23-1.8-.05-.29-.09-.58-.13-.88,0,0-.03-.25-.02-.11.01.11-.02-.16-.02-.19-.02-.14-.03-.28-.05-.43-.04-.33-.1-.66-.15-.99-.04-.27-.15-.53-.16-.8,0-.23-.17-.42-.4-.45-.21-.02-.46.1-.5.33h0Z"/>
        <path class="cls-25" d="M219.58,265.18s0,.06,0,.09c0,.02-.01.09,0,.1,0,.01.01-.02,0,0,0,0,0,.01,0,.02,0,.01-.01.03-.02.04-.01.03-.03.06-.04.08-.04.1-.09.18-.09.29,0,.07,0,.15,0,.22,0,.34.02.69.07,1.03.09.63.24,1.26.44,1.87.06.19.12.4.22.57.06.11.11.21.19.3.06.07.16.13.25.16.09.04.15.04.26.05.15.02.35-.1.42-.24.03-.06.06-.12.07-.17.02-.07.02-.14.02-.22,0-.14-.04-.23-.1-.36-.01-.03-.03-.06-.04-.09-.06-.13-.13-.25-.19-.37-.14-.27-.27-.55-.39-.83l.05.12c-.15-.37-.28-.74-.41-1.11-.06-.18-.12-.36-.17-.55-.02-.09-.05-.17-.07-.26-.02-.1-.04-.22-.08-.31-.04-.08-.09-.15-.13-.22,0,0,0-.01-.01-.02,0,0,0-.01,0-.02,0-.01,0,0,0,.01,0-.02,0-.05,0-.07,0-.04,0-.09,0-.13,0-.14-.2-.13-.21,0h0Z"/>
      </g>
    </g>
    <g>
      <path class="cls-24" d="M264.66,309.36c-.56.52-1.42.86-2.36,1.07-1.4.33-2.99.42-4.06.56-.94.13-1.9.27-2.88.36-1.48.15-2.99.21-4.43,0-2.03-.29-3.07-1.51-5.21-.96-2.36.61-4.77,1.74-7.04,2.65-5.71,2.3-11.35,4.58-16.93,7.17-1.17.54-2.65,1.13-4.01,1.8v12.02c0,2.34.29,4.95,0,7.4-.17,1.38-.52,2.68-1.21,3.87-1.42,2.4-4.16,3.62-6.98,4.16-3.09.63-6.27.46-7.99.23-.15-.02-.31-.04-.46-.06-2.42-.4-5.04-1.32-7.02-2.78-1.97-1.42-2.8-3.3-3.11-5.41-.21-1.09-.25-2.24-.25-3.39v-73.71c1.15-5.54,5.62-6.5,10.77-6.96,3.68-.31,7.92-.02,11.2,1.8,3.14,1.74,3.47,5.12,3.34,8.57-.08,1.82-.29,3.62-.29,5.23v35.33c5.69-2.38,11.41-4.64,17.14-6.92,4.72,0,8.57,0,10.49-.02,7.15-.06,14.84-.73,21.91-2.95.04,1.38.33,2.82.44,4.01.19,1.86.5,5.52-1.05,6.94Z"/>
      <g class="cls-16">
        <path class="cls-25" d="M265.87,297.44c.03.34.02.58-.1.9.04-.11-.05.15-.06.19-.02.07-.04.14-.06.22-.02.06-.04.12-.06.19-.01.03-.03.07-.04.1-.04.12.03-.06,0,.02-.11.25-.23.5-.37.74-.07.12-.15.24-.24.36-.02.02-.03.04-.05.07-.06.09.1-.12.03-.03-.05.06-.1.12-.16.19-.09.1-.19.2-.29.3-.05.05-.09.09-.14.13-.03.02-.06.05-.08.07-.14.13.22-.17-.04.04-.13.11-.26.22-.39.33-.1.08.14-.1-.05.04-.06.05-.13.09-.19.14-.54.37-1.13.65-1.72.93-.11.05.15-.06.03-.01-.04.02-.08.03-.12.05-.07.03-.14.06-.21.08-.17.06-.33.13-.5.19-.34.12-.69.24-1.03.34-.7.21-1.42.36-2.13.49-.35.06-.71.12-1.06.17-.06,0-.33.05-.1.02-.08.01-.16.02-.24.03-.19.02-.38.05-.57.07-.66.07-1.33.12-1.99.15-1.27.05-2.6.08-3.81-.18s-2.29-.69-3.45-.93-2.4-.25-3.6.07c-1.11.3-2.16.78-3.23,1.19s-2.27.75-3.4,1.16c-2.45.88-4.84,1.91-7.24,2.91s-4.67,1.86-7.03,2.72-4.63,1.69-6.87,2.71c-.52.23-1.03.48-1.53.73-.43.22-.56.83-.32,1.23.26.44.79.54,1.23.32,4.37-2.21,9.15-3.57,13.69-5.42,2.43-.99,4.83-2.05,7.28-2.98,1.23-.47,2.46-.89,3.71-1.28,1.07-.34,2.1-.83,3.16-1.21.54-.19,1.09-.37,1.66-.47.41-.08.98-.09,1.47-.03,1.15.14,2.31.59,3.45.88,1.48.38,2.97.44,4.49.39s2.9-.2,4.32-.44,2.87-.56,4.21-1.11c1.27-.51,2.61-1.18,3.52-2.23.45-.53.8-1.09,1.05-1.74.22-.56.3-1.33.14-1.92-.09-.31-.14-.62-.21-.94-.08-.38-.73-.3-.69.09h0Z"/>
        <path class="cls-25" d="M216.41,304.6c-.05.14-.11.27-.17.41s-.13.29-.16.43c-.06.3-.13.6-.19.9-.13.59-.25,1.19-.36,1.79-.23,1.28-.45,2.57-.59,3.87-.04.34-.04.69-.05,1.03,0,.17-.01.34-.01.51,0,.23-.02.47.05.69.12.34.43.64.82.62.15,0,.3-.05.43-.12.2-.11.31-.3.39-.51s.07-.42.08-.63c0-.16.02-.31.03-.47.02-.3.05-.6.07-.9.06-.61.07-1.23.12-1.85.09-1.22.22-2.43.33-3.65.03-.34.06-.68.1-1.02s-.03-.67-.05-1c-.02-.21-.15-.39-.37-.42s-.39.1-.47.3h0Z"/>
        <path class="cls-25" d="M221.28,321.36c-.05.03-.06.03-.1.04.03,0,.04,0,.02,0h-.02c.08.02.08.02,0,0-.06,0-.12,0-.19,0-.19.04-.13.05-.07.03-.05.02-.11.04-.16.06-.02,0-.04.01-.06.02-.11.04.04-.01.04,0,0-.01-.11-.01-.13-.01h-.02c.16.01.17.01.03,0-.11-.02-.2-.01-.32.02-.05.01-.1.03-.16.05-.41.11-.83.2-1.23.34-.8.26-1.62.53-2.36.95-.83.47-1.55,1.12-2.24,1.77-.72.69-1.42,1.41-2.07,2.17-.74.87-1.47,1.75-2.22,2.61-.15.17-.25.37-.25.61,0,.21.09.46.25.61.34.31.88.34,1.21,0,.78-.79,1.53-1.6,2.3-2.39.77-.79,1.52-1.59,2.33-2.34.43-.4.87-.79,1.33-1.15l-.2.15c.49-.37,1.02-.66,1.58-.9l-.22.09c.65-.27,1.32-.49,1.94-.81.14-.07.27-.15.4-.24.07-.05.14-.1.2-.15.19-.14.25-.24.35-.45l-.05.11s.02-.04.03-.06v-.03s.03-.04,0,0c-.03.04-.03.04,0,0,.01-.02.03-.03.04-.05.07-.08.13-.16.19-.24-.04.05-.03.05.01-.01.04-.05.07-.1.08-.16.02-.14.02-.17.01-.1,0,.04,0,.04,0,0,.03-.07.03-.1.06-.16.12-.24-.13-.52-.38-.38h0Z"/>
        <path class="cls-25" d="M246.47,306.77h0c0-.05.02-.12.02-.18-.03.08-.05.14-.04.24,0,.09.02.18.04.26l-.03-.2c.04.28,0,.58-.03.86l.03-.24c-.03.22-.08.43-.1.65-.01.15-.03.29-.05.44l.04-.28c-.03.2-.07.41-.08.62,0,.11-.01.23-.02.34-.01.21-.03.42-.04.63,0,.01,0,.03,0,.04,0,0,0,.01,0,.02,0,.04.03.26.04.3.02.08.09.21.13.31s.15.2.23.28c.09.09.19.16.31.2.11.06.24.09.37.08l.25-.03c.16-.05.3-.13.42-.24.1-.09.15-.14.24-.28.01-.02.02-.04.03-.06.11-.2.11-.22.13-.41,0-.07.02-.1.02-.15,0-.02,0-.03,0-.05,0-.11.01-.22.02-.33,0-.12.01-.25.02-.37s.02-.26,0-.38-.02-.26-.03-.39c-.02-.21-.04-.43-.09-.63-.05-.23-.11-.46-.19-.68-.06-.17-.13-.33-.2-.49-.02-.05-.05-.09-.07-.13,0,0-.01-.02-.02-.03-.07-.11-.11-.16-.2-.22-.04-.03-.06-.05-.1-.07,0,0-.02,0-.03-.01-.21-.13-.49-.12-.69,0-.1.06-.19.14-.25.25-.06.11-.09.22-.09.35h0Z"/>
        <path class="cls-25" d="M189.53,300.88c-.16.66-.08,1.24.19,1.86.23.54.58,1.03.96,1.48.68.83,1.58,1.5,2.53,2,2.1,1.13,4.56,1.68,6.93,1.9,2.77.26,5.6-.01,8.28-.74,2.57-.7,5.18-1.83,7.33-3.43.61-.46,1.19-.94,1.66-1.55s.75-1.25,1-1.95c.22-.63.38-1.27.52-1.92.07-.32.14-.64.21-.96.02-.08.04-.15.05-.23.02-.1.03-.2.04-.3-.01.08-.01.09,0,.02.03-.21.05-.42.06-.63.03-.35-.27-.69-.59-.78-.36-.1-.71.07-.91.37-.64.95-.84,2.18-1.18,3.26-.09.27-.18.53-.28.79.07-.19-.07.15-.09.19-.07.14-.14.28-.22.42-.06.11-.12.21-.19.31-.03.05-.07.1-.1.15.11-.16.03-.03,0,0-.19.22-.39.42-.61.61-.1.09-.21.18-.31.26-.16.13-.07.05-.03.03-.06.04-.11.08-.17.13-.26.19-.52.36-.79.53-.49.31-1,.6-1.51.87-.28.15-.57.29-.86.43-.14.06-.28.13-.41.19-.07.03-.14.06-.21.09.12-.05-.07.03-.11.05-.61.25-1.24.47-1.87.67s-1.24.35-1.87.49c-.3.06-.59.12-.89.18-.17.03-.34.06-.5.08-.07.01-.15.02-.22.03-.08.01-.07.01.01,0h-.11c-1.3.17-2.6.23-3.91.16-.32-.02-.64-.04-.96-.07-.15-.01-.3-.03-.45-.05-.08,0-.15-.02-.23-.03,0,0-.37-.05-.15-.02-.57-.08-1.14-.19-1.71-.31-.98-.21-1.95-.49-2.88-.84-.12-.05-.24-.09-.36-.14.22.09.07.03.02,0-.08-.04-.16-.07-.23-.11-.26-.12-.51-.25-.75-.4-.22-.13-.43-.26-.63-.41-.06-.04-.11-.08-.17-.12-.1-.07.13.11-.02-.02-.11-.09-.21-.18-.32-.27-.19-.18-.38-.37-.55-.57-.04-.05-.09-.11-.13-.16.09.11.03.03-.02-.04-.07-.1-.14-.21-.21-.32-.15-.25-.3-.49-.45-.74-.16-.28-.4-.51-.61-.74-.3-.32-.87-.16-.97.26h0Z"/>
        <path class="cls-25" d="M216.2,306.53c-.22.53-.38.91-.58,1.32-.11.21-.22.41-.35.61-.04.06-.25.39-.09.15-.1.15-.2.29-.3.44-.06.1-.13.19-.19.29-.03.05-.07.09-.1.14-.12.17.14-.17,0-.01-.16.19-.32.38-.49.56-.16.17-.33.32-.51.47-.07.06-.15.12-.23.19-.05.04-.09.07-.14.11-.13.11.2-.14-.03.02-.4.29-.82.56-1.27.79-.22.12-.44.22-.66.32-.07.03-.39.2-.1.04-.13.07-.28.11-.41.16-1,.38-2.05.64-3.11.81-.13.02-.27.04-.4.06-.08.01-.29,0,.01,0-.07,0-.14.02-.2.03-.3.04-.59.07-.89.1-.55.05-1.11.08-1.66.09-1.13.02-2.26-.04-3.39-.16-.14-.02-.27-.03-.41-.05-.24-.03.26.04.02,0-.07,0-.13-.02-.2-.03-.28-.04-.55-.09-.82-.14-.52-.09-1.04-.21-1.55-.33-.48-.12-.95-.26-1.42-.41-.22-.07-.44-.15-.66-.23-.11-.04-.21-.08-.32-.12-.05-.02-.1-.04-.16-.06-.17-.07.26.11,0,0-.43-.19-.85-.4-1.25-.64-.24-.14-.47-.3-.7-.46-.08-.06-.16-.12-.25-.18.16.12-.15-.12-.18-.15-.18-.15-.35-.3-.51-.46-.3-.29-.59-.6-.85-.92-.01-.02-.21-.27-.07-.09-.08-.1-.15-.21-.23-.31-.13-.18-.25-.37-.37-.56-.24-.39-.45-.8-.67-1.19-.14-.25-.3-.46-.47-.69.09.12-.1-.15-.09-.14-.07-.11-.15-.23-.22-.34-.2-.32-.61-.47-.96-.31-.38.17-.5.52-.44.91.03.2.07.41.1.61-.02-.12,0,.1,0,.14.02.2.06.36.14.55.17.44.36.86.6,1.27.44.76.96,1.47,1.55,2.12.89.98,1.98,1.8,3.16,2.4,1.91.97,4.03,1.52,6.14,1.83,2.47.36,4.97.42,7.45.07,2.2-.31,4.45-.97,6.31-2.23.94-.64,1.73-1.41,2.37-2.34s.96-2.02,1.01-3.12c.01-.29-.04-.59-.09-.88-.03-.2-.26-.34-.45-.34-.22,0-.37.15-.45.34h0Z"/>
        <path class="cls-25" d="M215.39,260.58s-.02.07-.04.11c0,.02.03-.08-.01.01-.04.07-.05.13-.07.2,0,.02-.02.04-.02.06-.02.06.07-.12.01-.03-.04.06-.08.13-.11.19-.04.08.11-.11.01-.02-.03.03-.06.06-.09.09-.03.03-.06.05-.09.08-.11.1.05-.03.03-.02-.08.04-.14.1-.22.14-.17.1-.34.2-.51.29-.04.02-.09.04-.14.06-.03.01.22-.09.04-.02s-.33.15-.5.22c-.15.07-.08.03.03-.01-.05.02-.11.04-.16.06-.12.05-.25.09-.38.14-.51.17-1.03.31-1.56.42-.56.12-1.13.22-1.7.31-.14.02-.28.04-.42.06-.04,0-.08.01-.12.02.01,0,.26-.03.09-.01-.08.01-.16.02-.24.03-.29.04-.58.07-.87.1-1.05.11-2.1.17-3.16.21-1.5.05-3.01.08-4.52.1-1.07.02-2.14.01-3.2-.06-.27-.02-.53-.04-.79-.07-.13-.01-.25-.03-.38-.04-.04,0-.15-.04-.19-.02.08-.03.24.03.11.01-.04,0-.09-.01-.13-.02-.49-.07-.97-.17-1.45-.31-.21-.06-.42-.13-.63-.21-.02,0-.04-.02-.06-.02-.14-.05.12.05.12.05-.04-.02-.09-.04-.14-.06-.09-.04-.19-.09-.28-.14-.08-.05-.16-.09-.24-.14-.04-.03-.08-.06-.13-.09-.11-.06.21.18.05.04-.06-.06-.13-.11-.19-.17-.05-.05-.24-.28-.11-.11s-.04-.06-.07-.11c-.04-.07-.07-.17-.12-.23.14.16.08.22.04.07-.01-.04-.03-.08-.04-.12s-.02-.08-.03-.12c0-.02,0-.04-.01-.05-.04-.15.02.11.02.13.01-.08-.01-.19-.01-.27,0-.05,0-.09,0-.14,0-.04.03-.26,0-.06-.02.17,0,.06,0,.02.01-.09.03-.18.04-.28.03-.23-.03.16,0,.02.02-.12.04-.24.07-.36.06-.26.15-.52.25-.76.14-.36-.13-.8-.46-.93-.38-.15-.76,0-.99.32-.65.93-1.08,2.06-.73,3.19.3.97,1.08,1.66,1.98,2.07,2.07.94,4.49,1.01,6.72,1.01,1.65,0,3.3-.05,4.94-.09,2.32-.06,4.68-.22,6.95-.69.57-.12,1.14-.27,1.69-.46s1.09-.37,1.57-.67c.8-.5,1.52-1.37,1.45-2.37,0-.08-.02-.15-.03-.23,0-.06,0,.07,0,.06-.01-.11-.03-.17-.07-.26-.04-.07-.08-.15-.12-.21-.19-.29-.63-.24-.73.1h0Z"/>
        <path class="cls-1" d="M206.35,275.62c0,3.6-2.92,6.52-6.52,6.52s-6.52-2.92-6.52-6.52,2.92-6.52,6.52-6.52,6.52,2.92,6.52,6.52Z"/>
        <path class="cls-1" d="M206.35,294.85c0,3.6-2.92,6.52-6.52,6.52s-6.52-2.92-6.52-6.52,2.92-6.52,6.52-6.52,6.52,2.92,6.52,6.52Z"/>
        <path class="cls-25" d="M192.87,331.95c.19.42.41.83.63,1.23.03.05.05.1.08.15s.06.09.1.14c.07.09.13.19.2.28.13.19.26.38.39.57.07.11.15.21.23.32.04.05.08.11.11.16.02.03.04.05.06.08,0,0,0,.01.01.02l.14.18.18.14s.07.03.12.05c.07.03.08.04.13.05.16.04.31.04.47,0,.11-.03.21-.08.3-.16.1-.06.17-.14.23-.25.08-.14.12-.29.12-.45,0,0,0-.01,0-.02,0-.02-.03-.22-.03-.25-.01-.05,0-.03-.05-.12s-.02-.08-.05-.12c-.02-.02-.04-.05-.05-.07-.08-.1-.16-.21-.24-.31-.07-.09-.14-.18-.22-.27-.14-.18-.3-.35-.45-.52-.07-.08-.15-.17-.22-.25s-.15-.18-.23-.25c-.17-.16-.33-.31-.5-.47-.18-.18-.37-.36-.54-.55-.05-.06-.11-.1-.18-.12-.07-.04-.14-.05-.22-.05l-.15.02c-.07.02-.14.05-.19.1-.04.03-.08.06-.1.1-.05.06-.08.12-.1.19l-.02.15c0,.1.03.2.08.29h0Z"/>
        <path class="cls-25" d="M212.82,285.85h0c-.08,0-.17.02-.25.03.05,0,.09,0,.14,0,.15,0,.29-.04.43-.06l-.27.04c.18-.02.36-.03.55-.02.11,0,.21,0,.32-.01.11,0,.22,0,.33,0,.48,0,.96.05,1.43.09.25.02.5.05.75.08l-.29-.04c.18.02.35.05.53.08.23.04.52.08.75.01.19-.05.35-.15.48-.29,0,0,0,0,.01-.01,0,0,0,0,0,0,.11-.11.19-.25.23-.4.04-.16.04-.32,0-.48-.14-.72-.88-.87-1.48-1-.95-.19-1.92-.31-2.89-.25-.3.02-.6.07-.88.18-.16.06-.32.12-.47.2-.2.1-.36.31-.48.49l.15-.19h0c-.05.07-.1.13-.15.19-.07.11-.1.22-.11.35-.02.08-.02.16,0,.25,0,.12.04.24.11.35.09.13.2.25.33.33.11.07.22.1.35.11.12.03.25.02.37-.02h0Z"/>
        <path class="cls-25" d="M211.79,278.7s0,.04,0,.06l-.04-.27s0,.09.02.14c0,.14.05.26.12.38l.16.21c.07.06.14.11.22.17l-.21-.16c.15.12.3.24.47.34.05.03.1.06.16.09.03.01.06.03.08.04,0,0,.01,0,.02.01.07.03.21.1.29.12.02,0,.03,0,.05.01.38.09.78.14,1.17.19.16.02.31.04.47.05s.32.02.48.01c.31,0,.61-.02.92-.04.24-.01.48-.04.71-.1.12-.03.24-.09.36-.13l.21-.09c.1-.05.18-.13.24-.22.05-.05.09-.12.11-.19.05-.1.08-.21.07-.33l-.03-.23-.09-.21c-.05-.1-.13-.18-.22-.24-.08-.08-.18-.13-.29-.15-.1-.04-.21-.08-.31-.12-.21-.08-.43-.09-.65-.12-.3-.03-.6-.06-.9-.1l.3.04c-.11-.01-.21-.03-.32-.05-.21-.03-.41-.05-.62-.07s-.43-.04-.64-.07l.31.04c-.19-.03-.38-.06-.57-.1s-.37-.07-.55-.08c-.08,0-.16-.01-.24-.02l.29.04c-.07,0-.13-.02-.2-.03-.03,0-.06-.01-.08-.02-.14-.04-.27-.05-.41-.02-.09,0-.18.02-.26.07-.09.04-.09.04-.13.06,0,0-.01,0-.02,0l.23-.1s-.01,0-.02,0c-.12.03-.23.09-.32.17-.1.07-.19.16-.25.27-.12.23-.16.48-.1.74h0Z"/>
        <path class="cls-25" d="M213.06,267.1h0c-.06-.05-.11-.11-.17-.16,0,0,.01.02.02.03,0,0,0,.01.01.02.09.13.12.16.25.25.11.08.23.11.36.14.08.02.15.04.23.06.16.05.32.06.48.08l-.26-.03c.11.01.21.03.32.05.2.03.4.04.6.06.23.02.47.05.7.08l-.29-.04c.27.04.54.07.82.1.18.02.37.03.55.05.26.02.53.01.79-.04.16-.03.32-.07.48-.12l.22-.09c.11-.06.19-.14.26-.24.06-.06.1-.13.12-.2.06-.11.08-.23.08-.36l-.03-.25-.09-.22c-.06-.11-.14-.19-.24-.26-.09-.08-.19-.14-.31-.17-.14-.04-.27-.08-.4-.13s-.27-.06-.41-.09c-.39-.07-.79-.09-1.18-.13-.3-.03-.61-.02-.92-.02-.24,0-.48.01-.72.06-.14.03-.27.06-.41.1-.22.06-.41.17-.6.29-.08.05-.17.11-.24.17-.05.05-.11.13-.15.2-.07.13-.09.25-.1.39l.02-.13h0s-.01.09-.02.13c0,.06.01.12.04.18.04.1.1.16.19.22h0Z"/>
      </g>
    </g>
    <path class="cls-3" d="M262.3,310.43v8.53c-1,1.25-2.57,1.28-4.26,1.23-.82-.02-1.88-.29-2.68-.82v-8.03c.98-.08,1.94-.23,2.88-.36,1.07-.15,2.65-.23,4.06-.56Z"/>
    <path class="cls-25" d="M265.61,320.71c-1.59,3.76-7.53,4.12-10.83,3.03-2.13-.71-3.53-2.36-2.88-4.72.15-.56.5-1.05.94-1.44.69-.65,1.65-1.11,2.53-1.4v3.2c.79.52,1.86.79,2.68.82,1.69.04,3.26.02,4.26-1.23v-3.47c1.21.06,2.28.77,2.93,1.78v.02c.65,1,.86,2.28.38,3.43Z"/>
    <g>
      <path class="cls-2" d="M278.29,322.95v10.73c0,.34-.11.67-.33.93-1.18,1.39-2.69,2.37-4.73,3.17-3.24,1.23-6.54,1.61-9.95,2.07-3.51.46-7.3.23-10.85.08-2.84-.13-5.73-.73-8.47-1.51-.83-.24-1.89-.52-2.97-.87-1.36-.44-2.27-1.71-2.27-3.13v-9.68c0-.53.18-1.07.57-1.43.82-.76,1.86-1.34,2.84-1.86,3.34-1.84,6.98-3.11,10.7-3.87-.44.4-.79.88-.94,1.44-.65,2.36.75,4.01,2.88,4.72,3.3,1.09,9.24.73,10.83-3.03.48-1.15.27-2.42-.38-3.43,3.22.44,6.35,1.34,9.34,2.68,1.46.67,3.03,1.61,3.72,2.99Z"/>
      <g class="cls-17">
        <path class="cls-25" d="M240,320.55c-.63.63-1.15,1.39-1.38,2.25-.21.78-.11,1.64.18,2.38.73,1.86,2.56,3.02,4.28,3.85,3.85,1.85,8.06,2.53,12.29,2.74,1.98.1,3.98.15,5.96.03,2.01-.13,4.03-.41,6-.85,3.78-.86,7.39-2.4,10.52-4.71.83-.61,1.62-1.32,2.11-2.25.42-.8.62-1.72.55-2.63s-.33-1.78-.81-2.56-1.11-1.55-1.96-1.92c-.35-.15-.73-.28-1.1-.36-.79-.16-1.23.84-.55,1.3.07.05.13.09.2.14-.01-.01-.07-.05,0,0,.06.05.14.1.19.15-.08-.08.04.08.07.1.07.07.13.15.19.22.12.14.24.28.36.41.06.06.12.12.17.19.03.04.2.24.14.16-.07-.09.07.1.1.14.05.07.1.14.14.22.1.16.19.32.27.49.02.04.03.08.06.12.08.14-.06-.17,0-.02.03.08.06.16.09.24.07.17.12.35.17.53.02.08.04.17.06.25.02.11.04.24.02.04.02.18.03.36.03.54,0,.08,0,.17,0,.25,0,.11-.05.3,0,.08-.04.18-.07.35-.13.53-.01.04-.1.27-.05.15s-.05.1-.07.14c-.1.19-.22.37-.34.54.1-.14-.05.05-.08.09-.07.08-.13.15-.21.22-.16.17-.34.32-.52.47-.04.03-.23.18-.1.08-.08.06-.16.12-.24.18-.18.13-.36.25-.54.37-.36.24-.73.49-1.1.72-.74.48-1.51.9-2.3,1.29-.19.09-.38.18-.57.27-.1.04-.19.09-.29.13-.05.02-.1.04-.15.06-.16.07.13-.05-.03.01-.41.17-.82.33-1.24.48-.86.31-1.73.58-2.62.81s-1.78.43-2.69.59c-.46.08-.92.15-1.38.22.17-.02-.09.01-.14.02-.11.01-.21.03-.32.04-.23.03-.46.05-.69.07-1.81.18-3.62.19-5.44.14-1.94-.05-3.88-.16-5.8-.4-.06,0-.11-.01-.17-.02.02,0,.13.02,0,0-.11-.02-.22-.03-.33-.05-.24-.04-.48-.07-.72-.12-.48-.08-.96-.18-1.43-.28-.94-.21-1.86-.47-2.77-.78-.94-.32-1.7-.65-2.59-1.09-.42-.21-.83-.41-1.22-.65s-.58-.38-.91-.69c-.13-.12-.26-.26-.38-.39-.03-.04-.15-.18-.13-.15.05.06-.04-.05-.04-.05-.03-.05-.07-.09-.1-.14-.1-.14-.19-.28-.27-.42-.11-.2-.13-.24-.19-.41-.21-.61-.23-1.27-.05-1.95.11-.41.28-.79.48-1.16.17-.3-.23-.63-.49-.38h0Z"/>
      </g>
    </g>
    <g>
      <polygon class="cls-2" points="247 205.13 247 212.9 245.87 212.9 245.87 240.19 229.8 240.19 229.8 212.9 228.65 212.9 228.65 205.13 247 205.13"/>
      <g class="cls-23">
        <path class="cls-25" d="M248.89,213.8c-.18-.12-.31-.15-.51-.2-.12-.03-.23-.11-.36-.13-.11-.02-.23-.02-.34-.03-.42-.03-.83-.08-1.25-.1-.83-.05-1.67-.06-2.5-.08-1.66-.04-3.33-.03-4.99-.05-3.29-.03-6.57-.05-9.86-.07-.92,0-1.83,0-2.74.03-.5.02-.99.04-1.49.11l-1.44.21c-.65.1-.66,1.22,0,1.32.85.13,1.69.28,2.55.31s1.66.06,2.5.05l4.99-.02c3.29-.01,6.57-.06,9.86-.09.92,0,1.83-.05,2.74-.08.46-.01.91-.06,1.37-.09.5-.04,1.03-.1,1.46-.38.27-.18.27-.54,0-.72h0Z"/>
        <path class="cls-25" d="M226.79,226.33s.05.06.08.1c.01.01.02.03.04.04,0,0,.01.02.02.02.04.04-.03-.05-.03-.06,0,.02.01.04.02.05.02.06.05.11.09.15.03.03.05.06.08.09.11.13.22.26.33.39s.22.26.33.38c.06.07.11.13.18.19s.12.12.18.17c.25.24.49.47.73.71s.47.49.72.72c.14.13.27.25.41.38.18.17.36.36.58.48l.19.08c.1.03.21.04.31.01.07,0,.14-.02.2-.05.1-.03.18-.09.25-.16.09-.1.16-.22.2-.35.03-.1.04-.21.01-.31,0-.1-.04-.2-.09-.29-.08-.12-.16-.24-.27-.33-.07-.06-.13-.11-.2-.17-.13-.11-.26-.22-.39-.33-.18-.15-.36-.29-.55-.43-.14-.1-.27-.19-.41-.29-.28-.2-.56-.39-.85-.58-.07-.05-.14-.09-.21-.14s-.14-.1-.22-.14c-.15-.08-.31-.15-.46-.23-.17-.08-.34-.17-.51-.25-.04-.02-.09-.04-.13-.06-.04-.02-.08-.04-.12-.05s-.08,0-.12-.01c-.01,0-.04,0,0,0,.03,0,.01,0,0,0-.02,0-.04-.02-.06-.02-.04-.02-.09-.04-.13-.05-.08-.03-.18.02-.22.09-.04.08-.03.17.03.24h0Z"/>
      </g>
    </g>
    <path class="cls-25" d="M285.84,176.72v3.32c0,1.23-.98,2.24-2.22,2.24h-16.68c-1.23,0-2.24-1-2.24-2.24v-3.32c0-1.23,1-2.24,2.24-2.24h16.68c1.23,0,2.22,1,2.22,2.24Z"/>
    <rect class="cls-2" x="228.65" y="182.55" width="18.35" height="11.48"/>
    <g>
      <rect class="cls-25" x="228.65" y="159.2" width="18.35" height="23.35"/>
      <g class="cls-20">
        <path class="cls-2" d="M249.81,164.16c-.84-.3-1.77-.29-2.66-.32s-1.74-.05-2.6-.08c-1.76-.06-3.52-.04-5.27-.06l-10.41-.12c-2-.02-3.99.02-5.99.07-.51.01-.94.42-.94.94s.43.93.94.94c6.98.17,13.97-.02,20.96-.1,1-.01,2-.05,2.99-.08s2.04,0,2.98-.33c.42-.15.42-.7,0-.85h0Z"/>
        <path class="cls-2" d="M251.63,170.89c-.23-.1-.46-.21-.7-.3-.2-.07-.41-.09-.62-.11-.49-.07-.98-.1-1.48-.15-.95-.09-1.91-.07-2.86-.09-1.91-.05-3.82-.04-5.73-.05-3.82-.02-7.63-.06-11.45-.04-2.17.01-4.34-.04-6.51.17-1.02.1-1.02,1.48,0,1.58,1.91.19,3.81.16,5.73.17,1.91.01,3.82,0,5.73,0,3.82-.02,7.64.02,11.45-.06,1.08-.02,2.17-.05,3.25-.09.52-.02,1.04-.08,1.56-.14.26-.03.55-.04.81-.11.28-.07.55-.23.82-.34.22-.09.22-.35,0-.44h0Z"/>
        <path class="cls-2" d="M252.39,177.69c-.15-.14-.28-.29-.46-.38-.19-.1-.42-.12-.62-.15-.53-.09-1.06-.17-1.6-.21-.95-.08-1.91-.11-2.86-.14-1.93-.05-3.86-.05-5.79-.06-3.88-.01-7.77-.02-11.65-.02-1.06,0-2.13-.04-3.19.01s-2.21.13-3.32.23c-1.03.09-1.03,1.51,0,1.6s1.99.17,2.99.21,1.91.03,2.86.03c1.93,0,3.86,0,5.79,0,3.88-.01,7.77.05,11.65-.05,1.06-.03,2.13-.03,3.19-.13.56-.05,1.12-.11,1.68-.2.24-.04.51-.06.74-.13.25-.08.41-.26.59-.44.05-.05.05-.13,0-.17h0Z"/>
      </g>
    </g>
    <path class="cls-25" d="M250.43,195.26v5.94c0,2.17-1.76,3.93-3.93,3.93h-17.33c-2.17,0-3.95-1.76-3.95-3.93v-5.94c0-.69.54-1.23,1.23-1.23h22.77c.67,0,1.21.54,1.21,1.23Z"/>
    <rect class="cls-3" x="228.65" y="240.19" width="17.23" height="3.91"/>
    <path class="cls-25" d="M245.87,244.09v19.88l-18.31-15.59c-.61-.5-.94-1.23-.94-2.03v-2.26h19.25Z"/>
    <path class="cls-25" d="M283.33,244.09v2.26c0,.79-.33,1.53-.94,2.03l-17.69,15.07v-19.36h18.63Z"/>
    <rect class="cls-24" x="136.81" y="121.86" width="11.73" height="93.38"/>
    <g>
      <path class="cls-2" d="M214.14,108.03v11.27c0,1.42-1.15,2.57-2.55,2.57h-74.78v-33.57c0-1.48,1.19-2.68,2.68-2.68h7.59c1.48,0,2.68,1.19,2.68,2.68v9.66c0,4.16,3.37,7.53,7.53,7.53h54.31c1.4,0,2.55,1.13,2.55,2.55Z"/>
      <g class="cls-19">
        <path class="cls-25" d="M148.6,106.93c-.16.03-.32.17-.41.28s-.13.25-.17.38l-.1.35c-.07.25-.1.52-.14.78-.06.37-.07.74-.08,1.11l-.04.91c-.03.62,0,1.25.01,1.86s.01,1.21.03,1.82l.02.96v.44c.01.07.01.14.01.21,0,.12,0,.25.04.36.03.11.09.21.14.31.33.65,1.39.65,1.72,0,.01-.02.02-.04.03-.07.09-.18.14-.36.14-.57,0-.06,0-.13,0-.19v-.39c.01-.28.02-.57.03-.85.01-.61.02-1.22.03-1.82l.02-1.88c0-.3-.02-.61-.03-.91s-.02-.6-.04-.89c-.01-.23-.06-.47-.1-.7-.02-.14-.04-.29-.08-.43s-.08-.27-.12-.41c-.05-.17-.1-.33-.23-.46-.19-.19-.44-.26-.7-.21h0Z"/>
      </g>
    </g>
    <path class="cls-3" d="M190.7,176.07c0,1.8-1.44,3.24-3.24,3.24h-38.92v-6.46h38.92c1.8,0,3.24,1.44,3.24,3.22Z"/>
    <path class="cls-3" d="M177.72,311.57v22.58c0,1.17-.48,1.99-1.23,2.51-.77.52-1.84.75-3.01.75-2.32,0-4.22-.92-4.22-3.26v-13.32l8.47-9.26Z"/>
    <g>
      <path class="cls-2" d="M190.68,215.25h-53.87v70.93c-1.36.02-2.47,1.15-2.47,2.51v11.41c0,3.11,2.24,5.75,5.21,6.33.42.08.84.13,1.28.13h6.81c.44,0,.86-.04,1.28-.13,2.95-.59,5.18-3.22,5.18-6.33v-11.41c0-1.36-1.09-2.49-2.45-2.51v-33.49c0-11.2,7.42-20.65,17.6-23.77,2.28-.69,4.72-1.07,7.23-1.07h14.19c1.99,0,3.6-1.61,3.6-3.6v-5.41c0-1.99-1.61-3.6-3.6-3.6Z"/>
      <g class="cls-22">
        <path class="cls-25" d="M135.52,284c-.15.4-.21.82-.2,1.24.01.49.15.92.36,1.36.32.7.84,1.31,1.44,1.79,1.33,1.07,2.97,1.71,4.64,2.03.81.15,1.63.25,2.46.25s1.72-.14,2.55-.33c1.81-.42,3.56-1.21,4.92-2.49.72-.68,1.32-1.51,1.74-2.41.24-.52.48-1.07.61-1.64.14-.61.21-1.24.25-1.87.02-.45-.37-.84-.79-.9s-.92.21-1,.66c-.09.48-.2.95-.34,1.41-.06.2-.12.4-.19.6-.03.11-.07.21-.11.31-.02.05-.04.1-.06.15-.03.07-.15.3,0,0-.18.36-.34.72-.56,1.06-.1.16-.22.32-.33.48-.07.11.17-.21.05-.07-.03.04-.06.08-.09.12-.07.09-.15.18-.23.26-.26.28-.53.54-.83.78-.06.05-.21.15.05-.04-.04.03-.08.06-.12.09-.08.06-.16.12-.25.17-.17.11-.34.22-.51.32-.16.09-.33.18-.5.26-.09.05-.19.09-.28.13-.05.02-.1.04-.14.06-.16.07.25-.1,0,0-.38.16-.78.29-1.18.4-.44.12-.88.22-1.33.31-.21.04-.42.08-.64.11-.04,0-.07,0-.11.02.36-.06.21-.03.12-.02-.08,0-.15.02-.23.02-.68.06-1.37.03-2.05-.04-.08,0-.41-.06-.04,0-.09-.01-.19-.03-.28-.04-.19-.03-.38-.07-.57-.1-.38-.08-.76-.18-1.13-.29-.17-.05-.34-.11-.51-.17-.09-.03-.18-.07-.27-.1-.03-.01-.06-.02-.09-.04-.15-.06.23.1,0,0-.35-.15-.68-.33-1.01-.52-.17-.1-.33-.22-.49-.33-.14-.1.18.14.04.03-.05-.04-.09-.08-.14-.11-.07-.06-.13-.12-.2-.18-.14-.13-.27-.26-.4-.4-.03-.03-.06-.06-.08-.1-.02-.02-.04-.04-.05-.07-.06-.07-.04-.04.06.08-.02-.08-.13-.18-.17-.24-.1-.16-.19-.32-.27-.48s.04.03.02.04c0,0-.05-.13-.05-.14-.03-.09-.06-.17-.1-.26-.01-.03-.08-.12-.07-.15-.02.08.07.16.01.03-.02-.06-.04-.11-.06-.17-.03-.08-.05-.17-.07-.26-.05-.2-.11-.41-.15-.62-.04-.23-.29-.39-.51-.39-.25,0-.43.17-.51.39h0Z"/>
        <path class="cls-25" d="M141.96,259.04c.1.03.2.07.31.06.06,0,.13-.01.19-.02.03,0,.07,0,.1-.01.02,0,.03,0,.05,0h0c.07-.01.14-.02.22-.03.07-.02.14-.05.2-.08.01,0,.02,0,.03-.01.07-.03.14-.06.22-.1.27-.12.54-.26.78-.42.12-.08.24-.17.35-.26.02-.02.04-.04.07-.06l.08-.1c.09-.09.14-.2.17-.33,0,0,0,0,0-.01,0,0,0-.01,0-.02.03-.09.04-.19.04-.28,0-.17-.04-.33-.13-.47-.06-.11-.14-.2-.24-.26-.09-.08-.2-.14-.32-.17-.17-.04-.33-.04-.5,0-.11.03-.19.07-.28.12-.01,0-.19.14-.2.15-.02.02-.13.17-.15.2,0,0,0,0-.01.01,0,.01-.02.02-.02.03l.15-.19c-.14.18-.31.33-.48.47-.06.05-.12.09-.17.14l.18-.14c-.12.09-.24.18-.36.27,0,0-.02.01-.02.02l-.08.06s-.06.04-.09.07c0,0,0,0,0,0-.01.01-.02.03-.03.04-.02.03-.04.05-.07.08-.04.05-.08.1-.12.15s-.09.1-.12.15c-.02.03-.06.13-.07.16,0,0,0,0,0,.01,0,.01,0,.02-.01.03,0,.02-.01.04-.02.06-.02.07-.03.14,0,.21,0,.07.02.14.06.2l.08.11c.07.07.15.11.24.14h0Z"/>
        <path class="cls-25" d="M163.12,221.02c-.02.11-.04.23-.05.34l.02-.13c-.02.06-.05.13-.06.2-.02.09-.03.17-.04.26,0,.04,0,.07-.01.11,0,.07,0,.14-.01.21,0,.06,0,.13,0,.19,0,.02,0,.03,0,.05,0,0,0,.02,0,.03,0,0,0,0,0,0,0,.04,0,.07.01.11,0,.04,0,.07.01.11.03.14.07.18.14.27.05.06.04.06.07.09,0,0,.01,0,.02.01.01,0,.02.02.04.03.09.09.2.16.33.19.13.04.27.04.4,0,.26-.07.45-.27.52-.52,0-.02.01-.05.02-.07v-.11c.04-.11.03-.21,0-.32,0-.02-.07-.18-.08-.19,0,0,0-.01-.01-.02,0-.01-.02-.03-.02-.04-.02-.03-.03-.05-.05-.08s-.04-.05-.05-.08c-.08-.11-.15-.23-.21-.35-.03-.07-.07-.13-.1-.2l.05.12h0s.01.08.02.13c0-.07,0-.14,0-.21,0-.07-.01-.13-.04-.19-.02-.06-.05-.11-.1-.16l-.1-.08c-.06-.04-.12-.06-.18-.06-.04-.01-.09-.01-.13,0-.07,0-.13.02-.18.06l-.1.08c-.06.06-.1.13-.13.22h0Z"/>
      </g>
    </g>
    <path class="cls-2" d="M152.47,372.3v9.51c0,2.97-2.42,5.39-5.39,5.39h-5.69c-1.36,0-2.59-.5-3.55-1.34-1.13-.98-1.84-2.45-1.84-4.06v-9.51c0-1.15.94-2.09,2.09-2.09h1.46v2.76c0,1.3.52,2.24,1.36,2.84.86.63,2.03.92,3.32.92,2.59,0,4.68-1.17,4.68-3.76v-2.76h1.46c1.15,0,2.09.94,2.09,2.09Z"/>
    <path class="cls-3" d="M148.92,349.91v23.06c0,2.59-2.09,3.76-4.68,3.76-1.3,0-2.47-.29-3.32-.92-.84-.61-1.36-1.55-1.36-2.84v-12.88l9.37-10.18Z"/>
    <g>
      <path class="cls-25" d="M159.85,333.94c0,2.53-.92,5.1-2.78,7.11l-8.15,8.86-9.37,10.18-10.79,11.73c-3.95,4.29-10.6,4.56-14.88.63-2.26-2.09-3.41-4.91-3.41-7.76,0-2.55.92-5.1,2.78-7.13l26.38-28.66c.15.92.61,1.61,1.28,2.09.86.63,2.03.92,3.32.92,2.59,0,4.68-1.17,4.68-3.76v-4.72c1.13-.04,2.26.08,3.34.4,1.51.44,2.95,1.23,4.18,2.36,1.59,1.46,2.63,3.28,3.09,5.25.21.82.31,1.67.31,2.51Z"/>
      <g class="cls-21">
        <path class="cls-2" d="M125.8,357.74s.03.03.04.05l-.09-.11c.06.08.11.13.17.2.02.02.03.03.05.05.11.12.22.15.37.21l-.17-.07c.06.03.12.05.17.08.03.01.05.03.08.04.09.05.18.09.27.13l-.19-.08c.2.09.39.2.56.33l-.17-.13c.15.12.29.25.42.38s.26.28.38.44l-.14-.18c.29.38.53.78.77,1.2.12.2.23.4.35.59.12.18.23.35.36.52.11.14.22.29.34.42.03.04.07.08.11.11.07.07.14.14.22.18l.1.04c.06.04.14.06.21.06.05,0,.08.01.12.02.01,0,.02,0,.03,0,.11,0,.21-.02.31-.07.1-.03.18-.09.25-.16.14-.15.24-.35.23-.56,0,0,0-.02,0-.03,0,0,0,0,0-.01l-.03-.22c-.03-.11-.08-.2-.15-.28-.04-.05-.08-.1-.12-.14-.04-.04-.07-.09-.11-.13l.13.17c-.2-.27-.37-.56-.53-.85-.18-.33-.38-.66-.58-.98-.24-.38-.5-.76-.8-1.1-.12-.14-.25-.28-.4-.4-.2-.16-.4-.31-.62-.43-.14-.07-.29-.14-.44-.19-.04-.02-.09-.03-.13-.05-.11-.04-.22-.04-.34-.05-.09,0-.19-.01-.28-.01-.01,0-.02,0-.03,0-.07,0-.15,0-.21.03-.06.01-.14.05-.19.08,0,0-.02.01-.03.02-.04.02-.07.04-.11.07-.07.05-.13.1-.19.16-.08.09-.15.22-.14.34l.02.13c.02.08.06.15.12.21h0Z"/>
      </g>
    </g>
    <path class="cls-3" d="M148.92,306.43v21.72c0,2.59-2.09,3.76-4.68,3.76-1.3,0-2.47-.29-3.32-.92-.67-.48-1.13-1.17-1.28-2.09-.06-.23-.08-.48-.08-.75v-21.72c.42.08.84.13,1.28.13h6.81c.44,0,.86-.04,1.28-.13Z"/>
    <path class="cls-3" d="M177.72,227.85v78.16c0,1.17-.48,1.99-1.23,2.51-.77.52-1.84.75-3.01.75-2.32,0-4.22-.92-4.22-3.26v-77.1c2.28-.69,4.72-1.07,7.23-1.07h1.23Z"/>
    <path class="cls-2" d="M190.39,295.83c0,1.19-.44,2.38-1.3,3.32l-11.37,12.42-8.47,9.26-9.72,10.6c-.46-1.97-1.51-3.78-3.09-5.25-1.23-1.13-2.68-1.92-4.18-2.36l17-17.98v.17c0,2.34,1.9,3.26,4.22,3.26,1.17,0,2.24-.23,3.01-.75.75-.52,1.23-1.34,1.23-2.51v-9.11l4.18-4.43c1.78-1.86,4.68-2.05,6.67-.42,1.19.96,1.82,2.38,1.82,3.78Z"/>
    <g>
      <path class="cls-2" d="M283.33,208.7v35.39h-15.85v-35.08h14.01c.65,0,1.25-.1,1.84-.31Z"/>
      <g class="cls-10">
        <path class="cls-25" d="M285.62,218.62c-.75-.11-1.49-.26-2.25-.32s-1.45-.13-2.18-.14l-4.42-.09c-2.92-.06-5.85-.03-8.77-.04h-2.46c-.84-.01-1.68-.05-2.51.04-.52.06-1.04.42-1.01,1.01s.45.95,1.01,1.01c.74.08,1.49.05,2.24.05h2.18c1.47-.01,2.94-.02,4.42-.03,2.93-.01,5.85-.04,8.77-.1.82-.02,1.64-.08,2.46-.14.41-.03.82-.07,1.23-.13.44-.06.86-.15,1.3-.21.46-.07.46-.86,0-.93h0Z"/>
      </g>
    </g>
    <rect class="cls-2" x="267.49" y="182.28" width="15.85" height="3.11"/>
    <g>
      <path class="cls-25" d="M292.74,192.38v5.96c0,2.74-2.24,4.98-5,4.98h-.56c0,2.51-1.61,4.64-3.85,5.39-.59.21-1.19.31-1.84.31h-17.54c-3.85,0-6.98-3.14-6.98-6.98v-9.66c0-3.87,3.14-6.98,6.98-6.98h21.8c3.85,0,6.98,3.11,6.98,6.98Z"/>
      <g class="cls-7">
        <path class="cls-2" d="M263.66,183.53c-.89.54-1.85,1.01-2.65,1.67-.72.59-1.32,1.32-1.7,2.18-.54,1.2-.71,2.52-.84,3.82-.14,1.45-.14,2.92-.14,4.38,0,3.79-.25,7.8,1.22,11.39.38.94.87,1.83,1.58,2.57.63.65,1.78,1.41,2.71,1.14.35-.1.5-.57.22-.83-.31-.29-.66-.42-1.01-.64-.07-.04-.14-.09-.21-.14-.11-.08-.02-.02,0,0-.03-.03-.06-.05-.1-.08-.15-.13-.29-.27-.43-.41-.13-.13-.25-.26-.36-.4-.02-.02-.09-.12,0,0-.03-.04-.05-.07-.08-.11-.06-.09-.13-.18-.19-.27-.22-.34-.4-.7-.56-1.06-.06-.13.07.17-.02-.04-.02-.04-.04-.09-.05-.13-.04-.09-.07-.18-.1-.27-.07-.21-.14-.42-.21-.63-.13-.43-.24-.87-.33-1.31s-.16-.88-.23-1.32c-.02-.13.02.12,0-.01,0-.05-.01-.1-.02-.15-.01-.11-.03-.23-.04-.34-.02-.22-.05-.45-.07-.67-.15-1.72-.15-3.42-.17-5.15-.01-1.42-.05-2.84,0-4.26.04-1.28.07-2.59.4-3.83.25-.94.69-1.69,1.38-2.35.78-.76,1.63-1.44,2.45-2.16.31-.28-.09-.79-.45-.58h0Z"/>
        <path class="cls-2" d="M265.43,183.56c-1.82,1.09-2.72,3.16-3.08,5.19-.38,2.11-.31,4.26-.19,6.38.1,1.72.15,3.42.15,5.14-.01,1.97.02,3.94.32,5.89.16,1.06.42,2.09.87,3.07.39.86.98,1.8,1.89,2.17.48.19.96-.47.67-.88-.12-.17-.24-.34-.38-.5-.06-.06-.11-.13-.17-.19-.01-.01-.09-.12-.05-.06s-.05-.07-.06-.09c-.22-.32-.4-.65-.55-1.01.04.1-.04-.11-.06-.15-.04-.1-.07-.2-.11-.31-.07-.2-.13-.4-.18-.61-.12-.43-.22-.86-.29-1.3-.09-.5-.12-.75-.17-1.26-.05-.47-.08-.95-.1-1.42-.05-.93-.07-1.85-.08-2.78-.01-1.63-.02-3.24-.13-4.87-.13-2-.28-4.01-.08-6,.1-.97.33-2.11.73-3.04s.99-1.81,1.69-2.57c.38-.42-.11-1.12-.62-.81h0Z"/>
        <path class="cls-2" d="M269.27,183.83c-.53.08-1.01.53-1.35.93-.39.46-.73.95-.96,1.5-.45,1.08-.66,2.24-.78,3.4-.23,2.32-.01,4.65.11,6.97.08,1.49.03,2.98.05,4.47.02,1.87.14,3.74.5,5.58.28,1.41.94,3.92,2.83,3.77.35-.03.65-.25.69-.61.04-.32-.15-.71-.5-.77-.06-.01-.11-.03-.17-.04-.17-.04.13.09-.01,0-.03-.02-.2-.1-.07-.03.12.06-.04-.04-.08-.08-.09-.08-.16-.18-.25-.26-.07-.07.11.18.04.05-.01-.02-.03-.05-.05-.07-.05-.07-.09-.15-.14-.23-.04-.07-.07-.14-.11-.21-.05-.1-.08-.19-.02-.03-.07-.18-.14-.36-.19-.55-.11-.37-.2-.74-.28-1.12-.04-.2-.07-.4-.11-.6-.02-.11-.03-.22-.05-.32,0-.04-.02-.17,0,.03,0-.07-.02-.13-.03-.2-.06-.45-.1-.9-.13-1.36-.06-.87-.11-1.75-.13-2.62-.04-1.37,0-2.74-.06-4.11-.11-2.21-.36-4.42-.29-6.64.01-.31.03-.63.05-.94s.06-.58.09-.78c.09-.58.22-1.16.4-1.73.09-.27.2-.53.3-.8.11-.31.13-.36.28-.66.26-.51.66-.98.82-1.53.08-.27-.17-.46-.42-.42h0Z"/>
        <path class="cls-2" d="M272.69,183.89c-.2.28-.42.57-.58.88-.17.34-.28.77-.34,1.14-.13.81-.2,1.61-.22,2.43-.01.76,0,1.51-.04,2.27-.04.89-.14,1.77-.17,2.65-.15,3.97.02,7.94.23,11.9.06,1.11.14,2.22.19,3.33.03.53.05,1.07.07,1.61.02.61-.04,1.3.3,1.83.28.45.92.45,1.2,0s.26-.98.26-1.51-.01-1.03-.02-1.54c-.02-.98-.06-1.97-.1-2.95-.08-1.97-.23-3.93-.31-5.89s-.13-3.92-.11-5.88c.02-1.67.11-3.33.06-5-.03-.89-.07-1.78-.07-2.67,0-.42,0-.85.03-1.27.02-.39-.04-.77.04-1.15.05-.26-.27-.39-.42-.18h0Z"/>
        <path class="cls-2" d="M276.02,184.02c-.11.21-.16.35-.2.6s-.07.47-.1.7c-.06.47-.09.94-.11,1.42-.04.9-.04,1.81-.04,2.71-.02,1.85-.07,3.71-.05,5.56.04,3.69.06,7.38.1,11.07.01,1.04.02,2.07.03,3.11s-.07,2.13.05,3.17c.05.46.36.87.87.87s.81-.4.87-.87c.11-.93.04-1.9.05-2.84s0-1.81,0-2.72c0-1.86,0-3.71-.02-5.57s-.05-3.71-.08-5.57c-.03-1.83-.12-3.67-.2-5.5-.04-1.03-.06-2.07-.15-3.1-.05-.53-.09-1.05-.17-1.58-.07-.5-.11-1.03-.37-1.46-.1-.17-.38-.19-.48,0h0Z"/>
        <path class="cls-2" d="M278.52,183.99c1.14,2.24,1.55,4.59,1.6,7.05.05,2.62-.16,5.22-.18,7.83-.03,3.08.14,6.15-.16,9.22,0,.1-.02.21-.03.31,0,.06-.02.12-.02.18-.03.21.03-.19,0,.01s-.06.41-.1.62c-.07.37-.14.74-.26,1.09-.02.08-.05.15-.08.23,0,.02-.02.05-.03.07-.05.14.1-.21.02-.05-.02.04-.19.28-.18.31-.02-.09.18-.18.02-.04-.14.13.19-.13.05-.04h-.02c-.2.16-.23.19-.1.09,0-.05.11-.07.02-.02.25-.13.21-.08.14-.06-.1.03-.1-.03.11,0-.43-.05-.8.4-.8.8,0,.47.37.75.8.8h.02c-.13-.03-.27-.07-.4-.11.77.39,1.48-.16,1.81-.84.3-.64.45-1.35.55-2.04.28-1.87.39-3.77.44-5.67.04-1.33.03-2.65.03-3.98,0-2.61.26-5.21.21-7.81-.03-1.55-.2-3.14-.56-4.65s-.96-2.89-2-3.99c-.47-.49-1.2.13-.91.7h0Z"/>
        <path class="cls-2" d="M283.38,183.44c-.14.4-.13.79.07,1.16.08.14.17.28.27.41.11.14.16.17.26.38.34.73.41,1.66.43,2.47.02,1.02-.06,2.04-.11,3.05-.05,1.07-.08,2.15-.1,3.22-.04,1.96-.03,3.92.02,5.88s.1,3.74.03,5.61c-.04,1.03-.11,2.06-.24,3.09-.12.9-.35,1.89-.53,2.83-.08.41.11.83.54.94s.79-.15.94-.54c.34-.82.51-1.7.66-2.58.16-.94.27-1.89.35-2.85.15-1.91.17-3.82.16-5.73,0-1.92-.03-3.83,0-5.75.03-2.15.1-4.31.08-6.46-.01-1.09-.11-2.21-.52-3.23-.2-.48-.43-.94-.82-1.3-.25-.23-.55-.36-.76-.71-.19-.31-.62-.22-.73.1h0Z"/>
        <path class="cls-2" d="M287.34,184.4c.25.44.38.92.53,1.46.08.29.14.58.19.87.02.15.05.29.07.44.03.16,0-.1,0,.06,0,.09.02.19.03.28.13,1.33.03,2.68-.06,4.01s-.26,2.6-.32,3.91c-.08,1.52-.04,3.04-.09,4.56-.03,1.05-.07,2.09-.07,3.14s0,2.1.22,3.13c.07.33.44.54.75.49.35-.05.57-.32.59-.67.06-.92.04-1.83.07-2.75s.09-1.85.15-2.78.11-1.88.14-2.82c.02-.67.02-1.35.07-2.02.19-2.7.57-5.4.2-8.1-.1-.72-.24-1.41-.52-2.08s-.68-1.23-1.23-1.7c-.4-.34-1.02.08-.74.57h0Z"/>
      </g>
    </g>
    <path class="cls-3" d="M209.54,349.45v4.39c0,1.17-.48,1.99-1.23,2.51s-1.82.75-2.99.75c-2.34,0-4.22-.92-4.22-3.26v-4.22c.15.02.31.04.46.06,1.71.23,4.89.4,7.99-.23Z"/>
    <g>
      <path class="cls-25" d="M186.31,374.16c-1.34,2.05-2.11,4.47-2.11,7.11v23.6c-6.58,1.99-12.52,2.22-12.52,2.22h-43.96c-1.26,0-2.28-1.02-2.28-2.28v-4.98c0-.58.22-1.14.62-1.56,1.58-1.66,6.05-6.36,11.78-12.39.96.84,2.19,1.34,3.55,1.34h5.69c2.97,0,5.39-2.43,5.39-5.39v-5.08h19.73c6.59,0,11.06-1.09,14.11-2.57Z"/>
      <g class="cls-14">
        <path class="cls-2" d="M122.08,401.05c.65.15,1.31.31,1.98.36s1.32.08,1.98.11c1.33.06,2.66.05,3.98.04,2.63-.01,5.26-.1,7.89-.1,5.35.01,10.7-.01,16.05-.11,5.28-.09,10.55-.03,15.83-.11,4.56-.07,9.41-.29,13.49-2.55,1.86-1.03,3.55-2.39,5.08-3.85.78-.75,1.52-1.54,2.21-2.38s1.38-1.67,1.84-2.61c.21-.44.41-.89.59-1.35.15-.37-.13-.82-.47-.95-.39-.16-.78-.01-1.01.33-.12.18-.25.36-.38.54-.18.24-.16.22-.33.43-.34.43-.63.89-.97,1.33-.07.09,0,.01,0,0-.04.05-.08.1-.12.16-.08.11-.17.21-.25.31-.16.2-.32.4-.48.59-.35.41-.71.81-1.08,1.21-.72.77-1.49,1.5-2.29,2.18-.2.17-.4.33-.6.5-.24.2-.26.21-.49.38-.41.31-.84.6-1.27.88-1.77,1.14-3.55,1.79-5.64,2.21-1.16.23-2.09.35-3.28.45s-2.3.14-3.44.16c-5.12.11-10.25.03-15.37.09-5.26.06-10.53.11-15.79.17-2.59.03-5.18.1-7.78.19s-5.22.22-7.83.24c-.64,0-1.27.11-1.91.18-.52.05-.72.84-.13.98h0Z"/>
      </g>
    </g>
    <path class="cls-1" d="M258.66,392.6v12.35c0,5.21-4.22,9.44-9.44,9.44h-55.59c-5.21,0-9.44-4.22-9.44-9.44v-12.35c0-7.23,5.85-13.09,13.07-13.09h48.33c7.21,0,13.07,5.85,13.07,13.09Z"/>
    <g>
      <path class="cls-2" d="M258.66,381.27v11.33c0-7.23-5.85-13.09-13.07-13.09h-48.33c-7.21,0-13.07,5.85-13.07,13.09v-11.33c0-2.63.77-5.06,2.11-7.11,1.32-2.03,3.18-3.68,5.39-4.7.21-.1.42-.21.65-.29,1.53-.63,3.18-.96,4.91-.96h48.33c7.04,0,12.79,5.6,13.04,12.58.02.15.02.31.02.48Z"/>
      <g class="cls-12">
        <path class="cls-25" d="M189.23,367.68c.07,1.23.18,2.45.18,3.68,0,1.33-.11,2.65-.2,3.97s-.18,2.55-.18,3.82c0,1.37.1,2.74.17,4.11.04.8.08,1.6.11,2.4.01.41,0,.82.02,1.23.01.2.01.43.05.63s.12.39.18.58c.09.28.54.4.69.09.07-.15.14-.3.2-.45.08-.19.11-.37.13-.57.05-.38.06-.75.06-1.13,0-.74,0-1.47-.02-2.21-.03-1.43-.09-2.86-.07-4.28.04-2.6.16-5.2.01-7.8-.08-1.42-.21-2.91-.78-4.22-.12-.28-.58-.13-.56.15h0Z"/>
        <path class="cls-25" d="M202.64,365.15c-.09,1.26-.31,2.51-.44,3.77s-.28,2.51-.41,3.76c-.26,2.47-.43,4.95-.49,7.43-.01.69-.04,1.38,0,2.07.04.75.12,1.49.25,2.23.05.28.37.45.63.41.3-.05.46-.27.5-.56.16-1.26.23-2.51.28-3.77s.15-2.45.21-3.67c.12-2.48.27-4.95.37-7.43.06-1.41,0-2.82.05-4.24.02-.61-.9-.6-.95,0h0Z"/>
        <path class="cls-25" d="M215.76,364.77c.22,2.64-.25,5.28-.6,7.89-.38,2.79-.46,5.58-.52,8.39-.03,1.62-.05,3.25.02,4.87.02.39.32.73.73.73.43,0,.68-.34.73-.73.33-2.88.36-5.79.41-8.68.02-1.34.07-2.68.16-4.03s.19-2.67.22-4.02c.03-1.52-.03-3.04-.3-4.54-.08-.47-.87-.36-.83.11h0Z"/>
        <path class="cls-25" d="M231.05,364.91c-.15,1.28-.34,2.56-.45,3.85-.11,1.28-.21,2.56-.29,3.83-.17,2.6-.29,5.2-.29,7.8,0,1.48,0,2.95.28,4.41.06.33.44.54.75.49.35-.05.57-.32.59-.67.11-1.27.03-2.54,0-3.81-.04-1.29-.05-2.59-.07-3.88-.03-2.57.01-5.14.1-7.71.05-1.44.05-2.87.1-4.31,0-.2-.17-.36-.36-.36-.21,0-.34.17-.36.36h0Z"/>
        <path class="cls-25" d="M242.73,363.6c.09,1.57.14,3.14.21,4.71.07,1.61.1,3.23.09,4.84-.01,3.21-.18,6.42-.45,9.62-.08.9-.14,1.8-.22,2.69s-.11,1.76-.15,2.64c-.03.72,1.11.89,1.27.17.35-1.59.59-3.2.71-4.83s.2-3.22.22-4.84c.04-3.27-.07-6.53-.33-9.79-.15-1.79-.38-3.54-.7-5.31-.07-.37-.68-.29-.66.09h0Z"/>
        <path class="cls-25" d="M255.28,364.95c-.88,7.74-.33,15.52-.53,23.29-.06,2.19-.14,4.38-.24,6.57-.04.81,1.28,1.01,1.43.19.72-3.85.77-7.82.64-11.73-.13-3.91-.37-7.82-.41-11.73-.02-2.2-.03-4.39.11-6.6.02-.27-.24-.5-.5-.5-.29,0-.47.23-.5.5h0Z"/>
      </g>
    </g>
    <g>
      <path class="cls-25" d="M345.19,339.98c-.04-3.03-2.47-5.5-5.5-5.62l-61.4-2.38v1.69c0,.34-.11.67-.33.93-1.18,1.39-2.69,2.37-4.73,3.17-3.24,1.23-6.54,1.61-9.95,2.07-3.51.46-7.3.23-10.85.08-2.84-.13-5.73-.73-8.47-1.51-.83-.24-1.89-.52-2.97-.87-1.36-.44-2.27-1.71-2.27-3.13v-4.07s-5.35-.21-5.35-.21c-3.18-.12-6.14,1.58-7.63,4.39l-3.66,6.9h-4.35c-.17,1.38-.52,2.68-1.21,3.87-1.42,2.4-4.16,3.62-6.98,4.16v4.39c0,1.17-.48,1.99-1.23,2.51-.84.58-2.08.8-3.41.74-2.12-.1-3.8-1.82-3.8-3.94v-3.54c-2.42-.4-5.04-1.32-7.02-2.78-1.97-1.42-2.8-3.3-3.11-5.41h-10.15c-.47,0-.92.19-1.25.53-1.27,1.34-9.26,9.75-11.43,12.04-.35.37-.54.86-.54,1.38v4c0,.66.54,1.2,1.2,1.2h8.79c2.17,0,4.35.25,6.42.92,3.07.96,6.77,2.95,8.17,7.04.08.19.15.42.19.63,1.53-.63,3.18-.96,4.91-.96h48.33c7.04,0,12.79,5.6,13.04,12.58h79.96c1.54,0,2.95-.84,3.67-2.19l2.93-5.44c.36-.63.52-1.34.5-2.07l-.52-31.11Z"/>
      <g class="cls-13">
        <path class="cls-2" d="M204.47,346.31c-.25.18-.51.31-.79.44-.3.14-.55.31-.81.5-.53.39-1.03.81-1.53,1.23-.96.81-1.84,1.68-2.73,2.56s-1.76,1.76-2.64,2.65c-.67.68-1.4,1.31-2.09,1.96-.76.72-1.5,1.48-2.08,2.35s-.86,1.84-.94,2.87.09,2.17.27,3.23c.17,1,.37,1.99.54,2.99.23,1.38.49,2.75.71,4.13.11.71.24,1.41.36,2.12.06.34.1.68.16,1.01.06.4.2.68.45,1,.22.27.65.15.81-.1.36-.56.29-1.19.27-1.83s-.05-1.23-.12-1.84c-.15-1.28-.34-2.55-.51-3.82-.08-.6-.14-1.04-.22-1.62-.07-.51-.15-1.02-.23-1.52s-.17-.99-.24-1.49c0,0-.02-.18,0-.06.02.12-.01-.09-.01-.11-.01-.12-.03-.24-.04-.36-.03-.27-.05-.54-.06-.81,0-.23-.01-.46,0-.69,0-.11,0-.22.02-.33,0-.06.01-.12.02-.19.01-.17-.05.25,0-.04.04-.2.09-.4.15-.6.01-.05.08-.18-.01.02.02-.03.03-.07.05-.1.06-.11.11-.21.17-.32.1-.17.22-.34.34-.5-.13.17.04-.04.09-.1.08-.1.16-.19.25-.28.33-.37.67-.72,1.03-1.07.68-.66,1.39-1.27,2.08-1.92.84-.8,1.64-1.64,2.41-2.5.92-1.02,1.87-2.05,2.71-3.1.45-.56.92-1.11,1.35-1.68.19-.25.41-.5.56-.77.19-.33.33-.67.58-.96.16-.19-.05-.54-.29-.37h0Z"/>
        <path class="cls-2" d="M192.46,361.81c.35-.89-.13-1.86-.66-2.58-.6-.82-1.34-1.5-2.16-2.1-1.58-1.15-3.37-1.87-5.26-2.31-2.62-.6-5.3-.91-7.99-1.04-2.65-.12-5.33-.14-7.95.27-1.44.22-2.85.53-4.28.82s-2.85.56-4.28.72c-.74.08-.77,1.16,0,1.18,1.3.03,2.55-.09,3.83-.29,1.23-.2,2.46-.44,3.69-.64s2.41-.34,3.63-.37c1.29-.03,2.58,0,3.87.05,2.5.09,4.97.37,7.44.79,1.07.19,2.17.38,3.21.71.19.06.38.13.57.2.09.03.18.07.27.11.05.02.11.04.16.06.15.06-.02-.01.07.03.42.19.83.39,1.24.61.45.25.88.53,1.29.83,0,0,.12.09.04.03.05.04.09.07.14.11.1.08.2.17.3.26.18.16.36.33.53.51.09.09.17.19.25.28.03.03.05.06.08.1.17.21-.08-.12.07.1.13.18.25.38.36.57.25.42.36.69.68,1.11.26.34.71.28.87-.11h0Z"/>
        <path class="cls-2" d="M194.3,361c.22.13.47.27.72.33.29.08.62.09.92.1.52.02,1.03-.02,1.54-.04,1.11-.04,2.23.06,3.34.12s2.22.14,3.33.19,2.24.03,3.36.02c.63,0,1.25-.02,1.88-.04.67-.02,1.38.02,2.01-.21.29-.11.55-.37.53-.7s-.22-.6-.53-.7c-.59-.18-1.2-.13-1.81-.13-.54,0-1.09,0-1.63,0-1.12,0-2.24-.03-3.36-.06s-2.17-.05-3.25-.09-2.22-.06-3.33.02c-.63.04-1.26.14-1.88.24-.23.04-.44.07-.73.08-.31.01-.58.06-.89.05-.43,0-.58.59-.22.81h0Z"/>
        <path class="cls-2" d="M223.42,336.1c-.08.23-.15.56-.34.72-.27.23-.45.49-.61.8-.31.58-.66,1.14-.97,1.71-.62,1.13-1.3,2.23-1.93,3.36-1.35,2.43-2.62,4.92-3.91,7.38-2.4,4.58-5.23,9.16-5.77,14.41-.16,1.56-.17,3.16-.16,4.72.01,1.66.1,3.31.4,4.94.07.39.52.63.88.57.4-.06.68-.38.69-.79.1-2.84-.1-5.68-.03-8.51.06-2.38.72-4.7,1.7-6.84,1.07-2.34,2.36-4.59,3.59-6.85.67-1.24,1.34-2.49,1.98-3.75s1.19-2.46,1.8-3.68c.66-1.3,1.34-2.59,1.97-3.91.32-.67.59-1.36.83-2.06.11-.32.24-.67.24-1.01,0-.21-.07-.33,0-.55.05-.18.1-.35.15-.52.09-.33-.39-.45-.5-.14h0Z"/>
        <path class="cls-2" d="M212.52,360.81c-.11.09-.24.14-.38.16-.02,0-.03.03-.03.05,0,.02.03.03.05.03.15-.03.28-.09.4-.19.01-.01.01-.03,0-.05-.01-.01-.03-.01-.05,0h0Z"/>
        <path class="cls-2" d="M211.17,361.32c.34-.33.75-.64,1.06-1s.62-.75.92-1.12c.59-.74,1.26-1.43,2-2.03,1.56-1.28,3.49-2.03,5.46-2.37,2.08-.36,4.26-.28,6.35,0,2.21.3,4.39.83,6.49,1.57,2.15.75,4.2,1.75,6.15,2.93.96.58,1.87,1.25,2.82,1.86s1.97,1,3.01,1.3,2.06.5,3.09.7c1.18.23,2.36.46,3.54.65,2.46.4,4.94.7,7.42.96,4.91.51,9.84.83,14.75,1.41,2.46.29,4.9.66,7.36.94,2.5.29,5.01.54,7.52.77,5.02.46,10.05.88,15.07,1.4,5.03.52,10.06,1.09,15.09,1.61s10.08.97,15.11,1.46c2.46.24,4.94.4,7.4.68,2.38.27,4.75.58,7.15.7,1.15.05,2.28-.08,3.42-.14.7-.04.7-1.13,0-1.09-1.17.06-2.38-.12-3.55-.22s-2.35-.26-3.52-.42c-2.44-.34-4.89-.57-7.34-.79s-5.05-.49-7.57-.74c-2.54-.26-5.08-.48-7.62-.73-5.06-.5-10.1-1.06-15.16-1.58-5.07-.52-10.14-.98-15.21-1.41-5.01-.43-10.03-.89-15.01-1.59-4.96-.69-9.95-1.08-14.93-1.53-2.46-.23-4.92-.47-7.36-.8s-4.68-.73-7-1.19c-1.05-.21-2.11-.44-3.12-.81s-1.88-.94-2.77-1.54c-1.92-1.3-3.95-2.45-6.09-3.36s-4.33-1.6-6.6-2.07c-2.17-.44-4.39-.71-6.61-.64s-4.47.48-6.44,1.5c-1.74.9-3.34,2.31-4.45,3.93-.26.38-.6.81-.78,1.24s-.31.9-.46,1.35c-.08.23.23.39.4.23h0Z"/>
        <path class="cls-2" d="M233.24,369.67c.27-.23.52-.48.68-.79s.28-.64.35-.98c.15-.71.15-1.47,0-2.18-.3-1.31-1.01-2.54-1.83-3.59-1.71-2.21-4.31-3.55-7.04-4.02-1.39-.24-2.76-.3-4.16-.1-1.14.16-2.25.55-3.27,1.1-1.95,1.06-3.47,2.81-4.21,4.91s-.46,4.55.61,6.54c.16.3.4.57.63.83.26.3.75.29,1.04.06.33-.25.38-.66.2-1.02-.06-.12-.11-.25-.17-.37-.04-.09.03.06.03.06,0-.03-.03-.08-.04-.11-.05-.12-.1-.23-.16-.34s-.12-.23-.17-.35c-.03-.06-.06-.13-.08-.19-.04-.09.03.08.03.08-.02-.01-.04-.11-.05-.13-.18-.47-.32-.95-.41-1.45-.01-.06-.02-.12-.03-.19-.03-.17.02.19,0,.03-.01-.12-.03-.25-.03-.37-.02-.24-.02-.49,0-.73,0-.11.01-.22.02-.34,0-.05.01-.1.02-.15.02-.21-.03.19,0-.01.04-.23.08-.45.14-.68s.13-.46.21-.68c.02-.05.04-.1.05-.14.01-.04.1-.23.03-.08s0-.02.03-.05c.03-.06.06-.12.09-.18.21-.41.46-.8.73-1.17.07-.1-.13.16-.05.07.02-.02.03-.04.05-.06.03-.04.07-.08.1-.12.08-.1.17-.2.26-.29.16-.17.33-.34.5-.5.08-.08.17-.15.26-.22.05-.04.1-.08.14-.12.12-.1-.18.13,0,0,.19-.14.39-.28.59-.41.21-.13.44-.26.66-.37.11-.05.21-.11.32-.16.05-.02.1-.04.15-.07.12-.05-.21.08-.09.04.03-.01.07-.03.1-.04.48-.19.98-.34,1.49-.45.12-.03.25-.05.37-.07.06-.01.12-.02.17-.03.03,0,.06,0,.09-.01.18-.03-.21.02-.07,0,.27-.03.53-.06.8-.07.58-.03,1.16,0,1.74.07.08,0,.16.02.24.03.25.03-.17-.03.02,0,.16.02.31.05.47.08.3.06.6.12.9.2.61.15,1.2.36,1.78.59.19.08-.19-.09-.01,0,.07.03.14.06.22.1.14.07.29.14.43.21.27.14.53.29.79.45.12.08.25.16.36.24.06.05.13.09.19.14.03.02.05.04.08.06.11.08-.17-.13-.06-.04.25.2.48.4.71.62.21.2.42.41.61.63.09.1.18.2.26.3.05.06.09.11.14.17.11.13-.12-.16.02.02.36.49.69,1,.95,1.55.03.06.06.12.08.18.02.04.03.08.05.12,0,0-.07-.18-.03-.08.05.15.11.29.16.44.09.28.18.55.24.84.02.07.03.15.04.22.02.1,0-.07,0-.07,0,.03,0,.07.01.1.02.16.02.31.02.47,0,.06,0,.12,0,.19,0,.03-.02.25-.01.15s-.02.09-.02.12c-.02.08-.04.17-.06.25-.02.06-.04.12-.06.18s-.06.31-.03.19c.02-.08,0,.03-.01.03-.04.15-.08.29-.13.44-.08.21.05.48.24.59.21.12.45.07.63-.08h0Z"/>
        <path class="cls-2" d="M231.04,369.89c.07-.22.14-.45.19-.68.06-.26.07-.55.08-.81.02-.49-.02-.97-.11-1.46-.16-.87-.5-1.69-1.01-2.41-.54-.76-1.19-1.41-1.99-1.91-.75-.47-1.61-.81-2.48-1-.95-.21-1.92-.27-2.89-.16-1.03.11-2.04.33-2.96.82-.81.44-1.56,1.05-2.19,1.73-.67.73-1.19,1.56-1.55,2.47-.33.83-.5,1.76-.43,2.65.08,1.07.42,2.07,1.09,2.91.15.19.31.36.48.53.27.26.69.29.99.06.27-.21.42-.67.19-.97-.27-.36-.48-.75-.68-1.15-.02-.04-.04-.09-.06-.13-.06-.13.08.19.01.03-.04-.1-.08-.2-.12-.3-.07-.19-.13-.39-.17-.6-.02-.09-.04-.18-.05-.27,0-.02-.01-.06-.01-.08s.02.22.02.13c0-.06-.01-.12-.02-.18-.02-.19-.02-.39-.01-.58,0-.1,0-.19.02-.29,0-.05,0-.09.01-.14,0-.06.03-.15-.01.11,0-.03,0-.05.01-.08.03-.2.07-.4.12-.59s.11-.38.18-.56c.02-.04.03-.09.05-.13.05-.12-.04.09-.04.09,0-.02.02-.05.03-.07.04-.09.08-.18.13-.27.18-.37.4-.72.64-1.04.02-.02.03-.04.05-.06,0-.01-.12.15-.07.09.03-.04.06-.07.09-.11.07-.08.14-.17.21-.25.14-.15.28-.3.43-.44.04-.04.08-.07.12-.11.03-.03.16-.13.04-.04-.2.14.26-.2.06-.05-.1.08-.04.03-.02.01.05-.04.1-.07.15-.11.17-.12.34-.23.51-.33.2-.12.4-.23.61-.32.1-.05.21-.12.32-.14,0,0-.22.09-.1.04.03-.01.06-.03.09-.04.05-.02.1-.04.15-.06.45-.16.92-.26,1.4-.33l-.24.03c.83-.11,1.68-.11,2.51,0l-.25-.03c.34.05.68.11,1.02.2.16.04.31.09.47.14.08.03.16.06.24.09.04.01.07.03.11.04.04.02.2.08.03.01s-.03-.01.01,0c.03.02.07.03.1.05.08.04.16.08.24.12.14.07.28.15.41.23s.27.17.4.27c.03.02.06.04.09.07.01.01.03.02.04.03.08.06-.14-.1-.11-.09.09.07.17.14.26.2.07.05-.13-.1-.11-.09.01.02.04.03.06.05.24.2.47.41.69.64.05.06.11.12.16.18.02.03.05.06.07.09.02.03.13.16.02.03s-.01-.01.01.02.04.06.07.09c.05.07.1.14.15.22.18.27.32.56.47.84.04.07.07.15.11.22.02.03.03.07.05.1,0,.02.02.04.02.05.04.1-.03-.07-.03-.08.06.16.13.32.18.49.12.37.23.75.3,1.13.02.1.04.21.05.31,0,.02,0,.04,0,.06.01.08-.01-.1,0-.02s.02.17.04.25c.05.21.08.43.11.64.02.16.21.28.36.28.17,0,.31-.12.36-.28h0Z"/>
        <path class="cls-2" d="M240.19,347.98c-.04.06-.08.13-.13.19-.07.1-.14.19-.17.31-.04.16-.08.33-.12.49-.02.08-.03.16-.04.25s-.03.16-.04.25c-.03.22-.06.44-.08.66,0,.09-.02.18-.02.27,0,.15.03.31.07.45.02.09.06.17.13.24.05.08.12.14.2.18l.17.07c.09.03.19.03.28.01.06,0,.12-.02.18-.05.09-.03.16-.08.23-.15l.11-.14c.06-.11.1-.23.1-.36,0-.04,0-.08.01-.11,0-.04.01-.08,0-.13,0-.08-.02-.16-.02-.23-.01-.17-.02-.33-.02-.5s0-.34,0-.5c0-.08-.01-.17-.02-.25s-.01-.17-.02-.25c0-.02,0-.05,0-.07-.01-.14-.02-.17-.08-.29,0,0,0-.02-.01-.03-.02-.03-.04-.07-.06-.1-.04-.07-.08-.14-.12-.21-.05-.09-.16-.15-.26-.15-.11,0-.2.06-.26.15h0Z"/>
        <path class="cls-2" d="M307.74,359.68s-.06,0-.09,0c-.01,0-.03,0-.04,0,0,0-.01,0-.02,0-.03,0,0,0-.07,0-.04,0-.05,0-.08.01-.06.02-.11.03-.17.05-.16.05-.31.12-.46.19-.11.05-.22.11-.32.18s-.2.13-.3.21-.2.15-.29.23c-.1.09-.15.2-.2.32l-.06.15c-.03.08-.03.16-.01.25,0,.06.01.11.04.16.03.08.07.14.13.2l.13.1.15.06c.08.03.16.03.25.01.08,0,.16-.03.23-.07.04-.02.07-.05.11-.07,0,0,.02,0,.03-.01.03-.02.04-.03.08-.06.02-.02.05-.04.07-.06l.11-.14s.03-.04.04-.05l-.1.14c.1-.13.21-.26.33-.38.06-.06.12-.11.18-.17s.12-.11.18-.16c.07-.06.14-.12.21-.17l-.1.08s.05-.04.08-.06c.01,0,.03-.02.04-.03,0,0,.01,0,.02-.01.04-.02.07-.05.1-.08.03-.03.05-.07.08-.1l-.07.1s.07-.07.1-.11l.06-.08.04-.1v-.11c.02-.06,0-.11-.02-.16,0-.03-.03-.06-.05-.09-.02-.03-.04-.06-.07-.07-.03-.03-.06-.04-.09-.05-.05-.03-.1-.04-.16-.04h0Z"/>
      </g>
    </g>
    <g>
      <path class="cls-25" d="M358.05,125.9v26.4c0,1.55-1.3,2.74-2.82,2.59l-17.75-1.59c-1.55-.15-2.72-1.42-2.72-2.95v-22.51c0-1.53,1.17-2.8,2.72-2.95l17.75-1.59c1.53-.15,2.82,1.05,2.82,2.59Z"/>
      <g class="cls-11">
        <path class="cls-2" d="M353.66,110.14c-.12.35-.28.72-.34,1.09s-.12.72-.14,1.1c-.05.77-.13,1.55-.16,2.33-.06,1.66-.11,3.32-.14,4.98-.07,3.63-.09,7.27-.11,10.9-.01,3.78-.03,7.57,0,11.35s.04,7.34.09,11.01c.02,1.69.04,3.39.06,5.08l.03,2.38c0,.38.01.75.03,1.13.02.42,0,.88.09,1.29.07.33.18.66.25,1,.12.59,1.08.59,1.2,0,.07-.35.19-.69.25-1.03.08-.4.06-.84.08-1.25.04-.78.04-1.55.05-2.33.02-1.66.04-3.32.06-4.98.04-3.63.06-7.27.09-10.9.03-3.78.02-7.57,0-11.35s-.01-7.34-.09-11.01c-.03-1.69-.06-3.39-.12-5.08-.03-.8-.07-1.59-.12-2.38s-.06-1.55-.23-2.3c-.08-.34-.22-.68-.33-1.01-.08-.23-.4-.23-.47,0h0Z"/>
      </g>
    </g>
    <rect class="cls-3" x="323.64" y="135.49" width="11.12" height="14.86"/>
    <path class="cls-2" d="M367.62,127.45v15.26h-9.57v-15.26h9.57Z"/>
    <path class="cls-3" d="M374.83,127.45v15.26c-.02.79-.67,1.42-1.46,1.42h-4.29c-.79,0-1.44-.63-1.46-1.42v-15.26c.02-.79.67-1.42,1.46-1.42h4.29c.79,0,1.44.63,1.46,1.42Z"/>
    <g>
      <path class="cls-25" d="M389.53,127.49v15.18c0,.82-.67,1.46-1.46,1.46h-4.31c-.77,0-1.42-.63-1.44-1.42h-7.48v-15.26h7.48c.02-.79.67-1.42,1.44-1.42h4.31c.79,0,1.46.65,1.46,1.46Z"/>
      <g class="cls-8">
        <path class="cls-2" d="M381.27,121.76c0,.22-.12.34-.18.54-.07.22-.08.47-.1.7-.04.48-.09.95-.12,1.43l-.2,2.73c-.13,1.84-.14,3.69-.2,5.53-.12,3.64-.08,7.29-.04,10.94,0,1.04.02,2.08.06,3.12s.18,2.12.35,3.18c.11.66,1.23.66,1.34,0,.15-.95.3-1.89.34-2.85.03-.91.05-1.82.06-2.73.02-1.84.04-3.69.03-5.53s0-3.65-.05-5.47c-.05-1.82-.12-3.65-.18-5.47-.03-1.04-.14-2.08-.22-3.12-.04-.52-.08-1.04-.13-1.56-.02-.26-.03-.52-.09-.77s-.21-.41-.21-.66c0-.29-.46-.29-.46,0h0Z"/>
      </g>
    </g>
    <rect class="cls-2" x="260.53" y="102.67" width="64.16" height="11.12"/>
    <g>
      <path class="cls-3" d="M362.31,105.75h-1.21c-.56,0-1.02.46-1.02,1.02v1.46h-35.39v5.56h35.39v.92c0,.56.46,1.02,1.02,1.02h1.21c1.46,0,2.65-1.17,2.65-2.63v-4.72c0-1.44-1.19-2.63-2.65-2.63Z"/>
      <g class="cls-5">
        <path class="cls-4" d="M358.71,106.54c-.02.17-.06.32-.05.5,0,.15,0,.31-.01.46-.02.33-.05.66-.09,1l.03-.19c-.07.49-.11.99-.17,1.48l.03-.22c-.06.42-.07.85-.08,1.27s-.03.82,0,1.23c.04.87.11,1.75.17,2.62.02.24.04.48.06.72.02.16.02.33.08.49.04.12.08.24.12.36.08.23.29.43.55.42s.47-.17.55-.42c.07-.21.14-.4.16-.62.02-.18.03-.36.05-.54.02-.34,0-.69.01-1.03,0-.69.03-1.39.01-2.08-.01-.62-.03-1.23-.02-1.85s-.03-1.29-.14-1.91c-.06-.31-.12-.63-.23-.93-.06-.17-.13-.33-.2-.49s-.18-.28-.3-.39c-.15-.14-.47-.1-.5.13h0Z"/>
      </g>
    </g>
    <g>
      <path class="cls-3" d="M270.06,96.67v1.21c0,.56-.44,1.02-1,1.02h-1.57v3.76h-4.81v-3.76h-1.59c-.56,0-1.02-.46-1.02-1.02v-1.21c0-1.46,1.19-2.65,2.65-2.65h4.7c1.46,0,2.63,1.19,2.63,2.65Z"/>
      <g class="cls-9">
        <path class="cls-4" d="M270.02,99.46c-.13-.07-.25-.13-.38-.2-.18-.09-.38-.1-.58-.13-.38-.06-.75-.1-1.13-.14-.66-.06-1.33-.05-2-.06-1.31-.02-2.63-.02-3.94-.01h-1.1c-.25,0-.48.02-.72.05l-.58.08-.18.08c-.09.05-.16.11-.21.2-.1.13-.17.29-.16.46,0,.13.04.26.1.38.08.14.29.33.45.35.38.05.76.12,1.15.13h1c.67,0,1.33,0,2,.01s1.3,0,1.95-.01l1-.02c.33,0,.67,0,1-.02.41-.03.83-.08,1.24-.14.17-.03.35-.05.53-.08.2-.04.4-.17.58-.27.25-.13.25-.53,0-.66h0Z"/>
      </g>
    </g>
    <g>
      <path class="cls-3" d="M325.92,96.67v1.21c0,.56-.44,1.02-1,1.02h-1.28v3.76h-4.81v-3.76h-1.88c-.56,0-1.02-.46-1.02-1.02v-1.21c0-1.46,1.19-2.65,2.63-2.65h4.72c1.46,0,2.63,1.19,2.63,2.65Z"/>
      <g class="cls-6">
        <path class="cls-4" d="M326.35,99.49c-.19-.05-.37-.1-.56-.14-.22-.06-.44-.07-.66-.09l-1.14-.13c-.78-.09-1.58-.13-2.37-.14-1.57-.03-3.14-.09-4.72-.08-.43,0-.87-.02-1.29.03l-1.35.16c-.19.02-.35.06-.49.2-.12.12-.21.32-.2.49.02.41.31.65.69.69l1.2.14c.38.04.76.04,1.14.05.79,0,1.58-.01,2.37-.03l2.34-.04c.39,0,.78-.02,1.17-.04s.8-.03,1.2-.07l1.29-.14c.24-.03.49-.04.73-.09.22-.05.43-.11.65-.17.3-.08.3-.52,0-.6h0Z"/>
      </g>
    </g>
    <path class="cls-24" d="M270.79,113.8v7.82c0,.79-.64,1.44-1.44,1.44h-7.57c.04-.25.02-.52-.1-.82-.4-1.09-1.44-1.42-2.49-1.36-1.74.08-3.09,1.15-4.31,2.34v-19.11c0-.79.64-1.44,1.44-1.44h4.21v11.12h10.26Z"/>
  </g>
  <path class="cls-25" d="M266.42,297.56c-.47-.05-.93-.05-1.39.06s-.92.26-1.39.38c-.96.26-1.95.45-2.94.61-.24.04-.48.08-.72.11-.12.02-.24.03-.36.05.19-.03-.18.02-.23.03-.51.06-1.02.12-1.53.17-.94.09-1.88.17-2.82.26-2.48.23-4.95.49-7.44.67-1.25.09-2.5.17-3.76.22-1.26.05-2.52.04-3.77.08-.71.02-1.42.06-2.13.09-.63.02-1.26,0-1.89.05-.56.04-1.12.11-1.68.14-.26.01-.53.03-.79.01-.06,0-.12,0-.18-.01-.19,0,.06.03-.04,0-.11-.04-.24-.05-.35-.09-.49-.17-1.11.2-1.23.7-.13.57.17,1.02.7,1.23.96.38,2.08.21,3.08.12,1.15-.1,2.31-.08,3.46-.13,2.57-.11,5.14-.09,7.71-.26,2.56-.17,5.11-.42,7.66-.66,2.07-.19,4.15-.34,6.21-.64,1.13-.16,2.25-.38,3.34-.73.56-.18,1.16-.36,1.67-.67.28-.17.57-.41.69-.56.17-.21.33-.42.44-.66.13-.26-.03-.53-.32-.55h0Z"/>
  <circle class="cls-1" cx="273.67" cy="235.18" r="8.17"/>
</svg>