<?xml version="1.0" encoding="UTF-8"?>
<svg id="Layer_1" data-name="Layer 1" xmlns="http://www.w3.org/2000/svg" xmlns:xlink="http://www.w3.org/1999/xlink" viewBox="0 0 500 600">
  <defs>
    <style>
      .cls-1 {
        fill: #d1f1f4;
      }

      .cls-2 {
        fill: #316bf6;
      }

      .cls-3 {
        fill: #ff7768;
      }

      .cls-4 {
        fill: #c7966e;
      }

      .cls-5 {
        fill: #0a1b8d;
      }

      .cls-6 {
        clip-path: url(#clippath-1);
      }

      .cls-7 {
        clip-path: url(#clippath-3);
      }

      .cls-8 {
        clip-path: url(#clippath-4);
      }

      .cls-9 {
        clip-path: url(#clippath-2);
      }

      .cls-10 {
        clip-path: url(#clippath-7);
      }

      .cls-11 {
        clip-path: url(#clippath-6);
      }

      .cls-12 {
        clip-path: url(#clippath-5);
      }

      .cls-13 {
        fill: #ffa65d;
      }

      .cls-14 {
        fill: #e2e92d;
      }

      .cls-15 {
        fill: #28318c;
      }

      .cls-16 {
        fill: #031163;
      }

      .cls-17 {
        clip-path: url(#clippath);
      }
    </style>
    <clipPath id="clippath">
      <path class="cls-4" d="M327.47,201.45c-1.17,2.51-2.51,4.91-4.1,7.06,2.82-.2,5.19.64,6.36,3.43,2.93,7.06-12.59,17.16-17.14,20.9-3.27,2.65-6.75,5-10.77,5.3-3.96,5.69-10.27,10.74-15.1,14.46-6.87,5.3-16.1,7.81-24.5,9.38-3.88.73-7.67.89-11.5.92-4.66,4.05-10.97,10.74-17.44,7.7-4.58-2.18-5.86-9.21-6.2-15.07-3.6-2.65-7.4-4.88-10.74-7.95-9.46-8.74-13.67-20.32-15.29-32.62-3.07-2.93-5-6.39-6.5-10.1-1.98-4.94-3.18-10.35-5.16-15.71-1.93-5.19-1.42-10.97,2.48-15.21,1.9-2.07,4.24-3.24,6.53-2.99.53-17.08,7.4-34.83,16.97-48.03,15.88-21.94,42-29.53,67.96-27.18,20.18,1.84,39.85,13.98,48.2,32.85,6.28,14.18,6.75,30.78,3.88,45.71-1.59,8.26-3.85,18.5-7.93,27.15Z"/>
    </clipPath>
    <clipPath id="clippath-1">
      <path class="cls-4" d="M136.58,374.76c-3.24,3.52-7.03,3.1-11.47,2.93-2.82-.14-5.67-.28-8.43-.92-.95-.22-2.01-.75-3.04-1.17-1.53,3.8-2.48,7.7-2.2,11.72,1.67.64,3.13,1.65,3.74,3.35.98,2.79.53,6.45-1.17,9.01,1.48,6.45,3.15,12.59,6.08,18.81.06.11.11.22.17.33-5.13,5.16-12.75,7.79-20.21,7.06-3.13-.31-6.36-1.03-9.24-2.37-.28-.11-.56-.25-.84-.42-1.59.08-3.4-.06-5.02-.33-.03-.03-.06-.03-.08-.03-1.09-.2-2.09-.47-2.93-.81-1.48-.61-2.82-1.7-4.13-2.79-7.87-6.56-9.63-17.61-9.54-27.38.06-7.2,3.57-15.29,7.73-21.07,2.82-3.91,7.26-8.01,12.28-8.68,2.37-.33,4.86-.42,7.37-.42.84-3.07,1.4-6.39,2.2-9.32.73-2.62,1.48-5.27,2.2-7.93,1.81,1.09,3.43,1.98,4.58,2.68,6,3.6,11.86,6.87,18.08,9.94-.92,2.01-1.87,4.05-2.87,6.03.5.14,1.03.31,1.56.47,2.4.84,4.86,1.62,7.34,2.12,2.18.47,4.86.33,6.89,1.09,3.85,1.45,3.13,5.75.95,8.09Z"/>
    </clipPath>
    <clipPath id="clippath-2">
      <path class="cls-1" d="M417.59,361.64c-.92-2.37-1.9-4.72-2.82-7.06-6.28-1.79-15.71.45-20.93,1.62-10.16,2.23-21.18,5.64-30.62,10.13-1.62.78-3.15,1.67-4.63,2.71.61,2.73,1.31,5.44,1.95,8.15.2.78.36,1.56.5,2.4-1.51.36-3.01.67-4.33,1-2.01.53-4.24,1.45-6.47,2.04.06,1.79.11,3.6.22,5.39-.75,0-1.53-.03-2.23-.17-4.33-.73-8.43-4.38-11.89-7-4.21-3.15-8.65-5.97-13.14-8.82-7.2-4.58-15.27-4.33-22.91-7.23-3.68-1.37-7.26-3.13-10.94-4.6-1.95-.75-6.17-3.85-9.27-4.74,1.09,4.1,2.46,8.26,3.54,12.34.25,1.03,1.03,3.49,1.67,5.67-5.16,2.01-10.07,4.91-14.71,7.67-3.99,2.34-8.37,3.85-12.31,6.25-3.38,2.07-5.19,6.73-.25,8.65,6.45,2.51,15.63-3.6,21.43-6,1.28-.53,2.54-1.06,3.82-1.56-3.74,2.15-6.95,4.86-7.62,8.43-.45,2.34.25,7.79,2.79,8.68.67.22,1.65.14,2.71-.11-1.26,1.17-2.09,2.6-2.04,4.33.11,3.21,3.27,9.63,7.14,10.49-.33,1.17-.17,2.57.47,4.38,2.48,6.89,11.92,6.59,18.08,3.4.25.03.47.03.67.06,3.71.39,7.23.11,10.88-.59,7.67-1.51,15.63-2.74,22.97-5.75,2.12.64,4.21,1.62,6.11,2.2,2.6.84,5.25,1.62,7.87,2.46.53,6.39,1,12.78,1.34,19.14.28,5.33.14,10.58.42,15.88.25,5.05,4.19,30.61,6.47,40.89-2.12.53-4.27.98-6.28,1.65-7.51,2.51-15.18,3.57-23.14,4.07-9.07.56-18.17-.61-27.21-1.06-8.96-.42-17.44.95-26.15,2.73-18.59,3.85-37.79,8.6-56.88,5.47-9.38-1.53-18.84-3.32-28.33-2.71-8.54.53-16.24,3.27-24.61,4.52-8.07,1.2-15.85-.39-23.64-2.4-6.95-1.81-14.21-1.65-20.99.33,1.48-16.83,3.63-33.91,4.24-50.96-1.7-7.17-3.6-14.51-4.33-21.77-.5-4.88-1.06-11.02-.56-16.49-1.2-2.26-2.37-4.58-3.46-6.92-.06-.11-.11-.22-.17-.33-2.93-6.22-4.6-12.36-6.08-18.81,1.7-2.57,2.15-6.22,1.17-9.01-.61-1.7-2.07-2.71-3.74-3.35-.28-4.02.67-7.93,2.2-11.72,1.03.42,2.09.95,3.04,1.17,2.76.64,5.61.78,8.43.92,4.44.17,8.23.59,11.47-2.93,2.18-2.34,2.9-6.64-.95-8.09-2.04-.75-4.72-.61-6.89-1.09-2.48-.5-4.94-1.28-7.34-2.12-.53-.17-1.06-.33-1.56-.47,1-1.98,1.95-4.02,2.87-6.03-6.22-3.07-12.08-6.34-18.08-9.94-1.14-.7-2.76-1.59-4.58-2.68-5.83-3.49-13.51-8.68-12.64-13.54.56-3.21,3.66-6.45,5.25-9.18,1.7-2.93,3.35-5.92,4.97-8.85,3.18-5.8,6.89-11.19,9.91-17.11,7.06-13.76,15.68-26.85,22.66-40.83,7.06-14.18,14.96-26.96,28.41-35.89,10.66-7.06,23.25-12.42,35.95-14.09,1.51,3.71,3.43,7.17,6.5,10.1,1.62,12.31,5.83,23.89,15.29,32.62,3.35,3.07,7.14,5.3,10.74,7.95.33,5.86,1.62,12.89,6.2,15.07,6.47,3.04,12.78-3.66,17.44-7.7,3.82-.03,7.62-.2,11.5-.92,8.4-1.56,17.64-4.07,24.5-9.38,4.83-3.71,11.14-8.76,15.1-14.46,4.02-.31,7.51-2.65,10.77-5.3,4.55-3.74,20.07-13.84,17.14-20.9-1.17-2.79-3.54-3.63-6.36-3.43,1.59-2.15,2.93-4.55,4.1-7.06,10.1,3.91,19.87,8.76,29.61,14.01,14.43,7.84,24.56,17.78,32.04,32.57,5.78,11.44,10.63,23.78,13.54,36.25,2.93,12.61,4.94,25.37,8.74,37.9,1.93,6.39,3.77,12.81,6.03,19.01,1.2,3.21,2.96,7,3.29,10.38.39,3.63-1.28,6.95-3.13,10.07Z"/>
    </clipPath>
    <clipPath id="clippath-3">
      <path class="cls-4" d="M430.45,419.44c-4.19,11.36-15.96,14.09-26.85,14.96-11.75.92-22.1.08-33.63-2.79-5.36-1.34-10.58-3.21-15.82-4.91-.28-.08-.53-.17-.81-.25-2.62-.84-5.27-1.62-7.87-2.46-1.9-.59-3.99-1.56-6.11-2.2-7.34,3.01-15.29,4.24-22.97,5.75-3.66.7-7.17.98-10.88.59-.2-.03-.42-.03-.67-.06-6.17,3.18-15.6,3.49-18.08-3.4-.64-1.81-.81-3.21-.47-4.38-3.88-.87-7.03-7.28-7.14-10.49-.06-1.73.78-3.15,2.04-4.33-1.06.25-2.04.33-2.71.11-2.54-.89-3.24-6.33-2.79-8.68.67-3.57,3.88-6.28,7.62-8.43-1.28.5-2.54,1.03-3.82,1.56-5.8,2.4-14.99,8.51-21.43,6-4.94-1.93-3.13-6.59.25-8.65,3.93-2.4,8.32-3.91,12.31-6.25,4.63-2.76,9.54-5.67,14.71-7.67-.64-2.18-1.42-4.63-1.67-5.67-1.09-4.07-2.46-8.23-3.54-12.34,3.1.89,7.31,3.99,9.27,4.74,3.68,1.48,7.26,3.24,10.94,4.6,7.65,2.9,15.71,2.65,22.91,7.23,4.49,2.85,8.93,5.67,13.14,8.82,3.46,2.62,7.56,6.28,11.89,7,.7.14,1.48.17,2.23.17,3.35.03,7.06-.87,10.19-1.17.61-.06,1.23-.14,1.84-.22-.59-2.32-.98-4.74-1.45-7.03-.14-.84-.31-1.62-.5-2.4-.64-2.71-1.34-5.41-1.95-8.15,1.48-1.03,3.01-1.93,4.63-2.71,9.43-4.49,20.46-7.9,30.62-10.13,5.22-1.17,14.65-3.4,20.93-1.62.92,2.34,1.9,4.69,2.82,7.06,3.6,8.93,7.09,17.97,9.4,27.35,2.34,9.57,7,20.82,3.46,30.45Z"/>
    </clipPath>
    <clipPath id="clippath-4">
      <path class="cls-15" d="M344.25,146.47c.14-4.47-.42-10.05-3.04-13.79-2.46-3.52-5.92-4.74-7.31-9.32-1.31-4.24-2.51-8.01-4.8-11.89-3.18-5.44-8.4-8.65-14.18-10.77,1.76-1,3.35-2.23,4.66-3.88.95-1.2,5.25-7.59,2.43-8.23-1.45-.33-6.39,3.07-8.04,3.54-2.85.87-5.69,1.2-8.62.89-9.04-.89-16.38-6.59-25.09-8.85-7.76-2.04-16.83-2.29-24.5,0-4.55,1.37-9.1,3.52-13.03,6.25-2.04,1.45-3.88,2.96-5.64,4.8-2.71,2.82-4.86,6.22-7.37,9.21-16.35,13.73-35.69,27.15-34.27,50.29.2,3.27.84,6.33,1.84,9.32-.95,3.94-1.34,7.93-.73,12.03.38,2.44,1.03,4.56,1.89,6.51.04,2.2.22,4.41.42,6.59.35,3.81,1.8,7.89,3.64,12.81.28-3.66.72-5.88,1.32-8.58,1.39,9.57,4.94,18.74,13.48,24.19,1.81,1.14,3.74,1.93,5.75,2.4,1.42,2.09,2.76,4.16,3.88,6.5,1.12,2.34,1.79,5.39,3.32,7.45,2.43-2.43,2.51-7.03,2.79-10.21.17-1.79.2-3.49.11-5.19,2.57,4.8,5.92,9.21,9.54,12.36,5.39,4.72,12.53,6.73,19.62,5.72,1.9-.28,3.85-.59,5.75-1.14,4.24,2.26,8.51,4.38,12.31,6.87,1.09-2.82-.31-7.34-1.09-10.21-.45-1.56-.98-3.1-1.59-4.63,3.21,2.26,6.75,3.71,10.49,3.63,3.43-.06,7.17-.92,10.44-2.12,2.27-.83,4.18-1.95,5.9-3.25-.74,2.35-1.55,4.84-2.61,7.68,2.35-2.9,4.69-5.26,6.77-8.21.77-1.09,1.49-2.16,2.2-3.27,1.09-.61,2.12-1.33,3.09-2.14,2.85-2.37,6.64-5.53,8.65-8.65,1.26-1.95,1.84-4.41,2.12-6.95.11-.08.2-.17.31-.25,3.49-2.62,6.78-5.8,9.35-9.46,4.3-6.08,7.12-11.97,8.18-19.45.73-5.02-.22-9.71-1.84-14.43.7-1.51,1.37-3.01,1.76-4.63.78-3.13,1.62-6.34,1.73-9.54Z"/>
    </clipPath>
    <clipPath id="clippath-5">
      <path class="cls-2" d="M224.21,317.83c-1.17-.89-1.79-2.26-1.79-3.63,0-1.06.36-2.12,1.09-2.99.67-.78.98-1.7.98-2.6,0-1.76-1.14-3.46-3.07-3.91-2.12-.5-3.52-2.37-3.52-4.44,0-.42.06-.87.2-1.31.75-2.62-1.23-5.16-3.82-5.16l-.75.08c-.28.06-.56.08-.84.08-2.26,0-4.24-1.67-4.55-3.99-.28-2.12-2.07-3.52-3.99-3.52-.75,0-1.53.22-2.26.73-2.15,1.51-5.13.87-6.5-1.37-.78-1.28-2.09-1.93-3.4-1.93s-2.62.64-3.4,1.93c-.87,1.42-2.37,2.18-3.91,2.18-.89,0-1.81-.25-2.6-.81-.73-.5-1.51-.73-2.26-.73-1.93,0-3.71,1.4-3.99,3.52-.31,2.32-2.29,3.99-4.55,3.99-.28,0-.56-.03-.84-.08-2.54-.47-4.74,1.53-4.74,3.93,0,.39.06.75.17,1.14.14.45.2.89.2,1.31,0,2.07-1.4,3.93-3.52,4.44-1.93.45-3.07,2.15-3.07,3.91,0,.89.31,1.81.98,2.6.73.87,1.09,1.93,1.09,2.99,0,1.37-.61,2.73-1.79,3.63-1.06.81-1.59,1.98-1.59,3.18,0,1.45.78,2.9,2.29,3.6,1.65.81,2.62,2.46,2.62,4.16,0,.73-.17,1.48-.56,2.18-.33.61-.5,1.28-.5,1.93,0,2.04,1.62,3.94,3.91,3.99,2.51.06,4.47,2.12,4.47,4.6v.33c-.17,1.9,1,3.49,2.6,4.05.45.2.92.28,1.4.28.5,0,1.03-.08,1.53-.31.59-.25,1.17-.36,1.76-.36,1.87,0,3.63,1.17,4.3,3.07.61,1.7,2.2,2.68,3.8,2.68,1.03,0,2.09-.39,2.9-1.26.89-.95,2.09-1.45,3.32-1.45s2.4.5,3.32,1.45c.45.47.95.78,1.48.98.47.2.95.28,1.42.28,1.59,0,3.18-.98,3.8-2.68.67-1.9,2.43-3.07,4.3-3.07.59,0,1.17.11,1.76.36,1.9.78,3.91,0,4.88-1.53v-.03c.42-.61.67-1.31.67-2.12l-.03-.33v-.36c0-2.46,1.93-4.52,4.47-4.58,2.29-.06,3.91-1.95,3.91-4.02,0-.61-.17-1.28-.5-1.9-.39-.7-.56-1.45-.56-2.2,0-1.7.95-3.32,2.62-4.13,1.51-.7,2.29-2.15,2.29-3.6,0-1.2-.53-2.37-1.59-3.18Z"/>
    </clipPath>
    <clipPath id="clippath-6">
      <path class="cls-13" d="M196.77,350.93c-1.17,4.6-1.93,9.35-2.48,14.07v.03c-.25,2.18-.47,4.3-.67,6.42-1.12,11.83-2.04,23.64-2.04,35.53,0,1.87.59,3.91-1.67,2.65-2.12-1.17-3.82-3.82-5.36-5.67-2.18-2.62-4.44-5.05-6.73-7.51-2.82,1.76-5.5,3.82-7.95,5.97-3.18,2.79-6.2,6.36-9.54,8.87-1.65-3.82-.36-9.8-.11-13.9.45-7.51,1.81-14.96,3.38-22.33,2.12-9.99,4.66-20.07,9.38-29.22.45.2.92.28,1.4.28.5,0,1.03-.08,1.53-.31.59-.25,1.17-.36,1.76-.36,1.87,0,3.63,1.17,4.3,3.07.61,1.7,2.2,2.68,3.8,2.68,1.03,0,2.09-.39,2.9-1.26.89-.95,2.09-1.45,3.32-1.45s2.4.5,3.32,1.45c.45.47.95.78,1.48.98Z"/>
    </clipPath>
    <clipPath id="clippath-7">
      <path class="cls-3" d="M225.6,393.82c-4.83-4.77-10.07-9.01-15.15-13.51-2.09,3.4-3.52,7.37-5.64,10.63-1.84,2.82-3.35,6.03-4.44,9.24-1.56-4.47-1.84-9.82-2.6-14.48-.92-5.8-2.12-11.53-2.99-17.33-.17-1.09-.33-2.2-.5-3.35v-.03c.56-4.72,1.31-9.46,2.48-14.07.47.2.95.28,1.42.28,1.59,0,3.18-.98,3.8-2.68.67-1.9,2.43-3.07,4.3-3.07.59,0,1.17.11,1.76.36,1.9.78,3.91,0,4.88-1.53,1.34,3.68,2.29,7.59,3.49,11.22,1.28,3.82,2.26,7.76,3.35,11.67,1.59,5.75,2.79,11.64,3.91,17.47.56,2.99,1.93,4.49,1.93,9.18Z"/>
    </clipPath>
  </defs>
  <g>
    <g>
      <path class="cls-4" d="M327.47,201.45c-1.17,2.51-2.51,4.91-4.1,7.06,2.82-.2,5.19.64,6.36,3.43,2.93,7.06-12.59,17.16-17.14,20.9-3.27,2.65-6.75,5-10.77,5.3-3.96,5.69-10.27,10.74-15.1,14.46-6.87,5.3-16.1,7.81-24.5,9.38-3.88.73-7.67.89-11.5.92-4.66,4.05-10.97,10.74-17.44,7.7-4.58-2.18-5.86-9.21-6.2-15.07-3.6-2.65-7.4-4.88-10.74-7.95-9.46-8.74-13.67-20.32-15.29-32.62-3.07-2.93-5-6.39-6.5-10.1-1.98-4.94-3.18-10.35-5.16-15.71-1.93-5.19-1.42-10.97,2.48-15.21,1.9-2.07,4.24-3.24,6.53-2.99.53-17.08,7.4-34.83,16.97-48.03,15.88-21.94,42-29.53,67.96-27.18,20.18,1.84,39.85,13.98,48.2,32.85,6.28,14.18,6.75,30.78,3.88,45.71-1.59,8.26-3.85,18.5-7.93,27.15Z"/>
      <g class="cls-17">
        <path class="cls-16" d="M201.44,187.31c-.02.27-.03.56-.07.83-.04.25-.14.49-.19.73-.12.53-.22,1.08-.29,1.62-.15,1.05-.31,2.09-.45,3.14-.28,2.1-.62,4.19-.89,6.3s-.56,4.13-.64,6.22.05,4.16.31,6.24c.29,2.3.67,4.64,1.32,6.87.12.42.73.33.75-.1.1-2.04-.09-4.12-.22-6.16s-.2-4.11-.11-6.16c.04-1.01.16-2.02.24-3.03s.17-2.12.25-3.18c.17-2.08.29-4.16.4-6.24.06-1.16.1-2.31.12-3.47s-.16-2.4-.13-3.61c0-.26-.39-.26-.41,0h0Z"/>
        <path class="cls-16" d="M301.57,241.18s.05,0,.08,0l.13-.02c-.13.02-.1.02.08,0l.14-.06c.13-.1.16-.12.08-.06.04-.03.08-.06.12-.09.22-.16.4-.36.59-.55.08-.07.16-.14.23-.22s.3-.37.1-.13c.03-.04.07-.08.1-.13.14-.18.29-.37.43-.55.33-.41.65-.81.95-1.24.26-.37.52-.74.77-1.12,1.05-1.57,1.89-3.26,2.77-4.93.25-.48.49-.95.74-1.43.09-.18.2-.36.27-.56.04-.12.07-.25.11-.37s.07-.25.11-.37c.05-.2.04-.34.02-.53-.03-.26-.11-.47-.35-.61s-.48-.11-.71,0c-.15.07-.28.12-.4.24-.08.08-.16.18-.24.26-.21.23-.41.47-.57.74-.23.42-.46.84-.68,1.26-.45.87-.89,1.75-1.35,2.62s-.89,1.65-1.39,2.44-1.04,1.51-1.51,2.29c-.13.22-.27.45-.4.68-.16.27-.28.54-.39.84-.09.24-.19.47-.23.72-.01.09-.04.19-.04.28,0,.08.02.15.05.22.1.23-.06-.14.02.06.07.16.18.29.37.3h0Z"/>
        <path class="cls-16" d="M202.34,188.98c.01-.22.03-.44.03-.66,0-.03,0-.06,0-.08,0-.01,0-.07,0,0,0-.05.03-.11.04-.16.03-.11.05-.21.08-.32.05-.2.09-.4.13-.6.05-.25.04-.52.04-.78,0-.49-.06-.98-.13-1.47-.06-.41-.13-.82-.23-1.23-.13-.52-.32-1.02-.53-1.52l.09.21c-.42-.99-.98-1.89-1.81-2.6-.43-.37-.89-.69-1.39-.95-.53-.27-1.09-.52-1.68-.62-.63-.11-1.22-.12-1.85.02-.48.11-.97.32-1.38.59-.88.58-1.55,1.41-1.97,2.37-.27.62-.5,1.26-.56,1.94-.02.26-.04.52,0,.79.04.32.09.64.17.96.06.25.32.45.58.44s.52-.18.58-.44c.09-.4.24-.79.36-1.19s.25-.8.41-1.19l-.1.23c.2-.47.45-.92.76-1.33l-.16.21c.27-.35.57-.69.92-.96l-.21.16c.25-.19.52-.35.81-.48l-.25.11c.27-.11.54-.19.83-.23l-.28.04c.33-.04.67-.04,1.01,0l-.28-.04c.4.06.79.18,1.17.34l-.25-.1c.51.22,1,.49,1.44.83l-.2-.16c.48.37.91.82,1.28,1.3l-.15-.19c.38.5.69,1.04.93,1.62l-.09-.2c.28.66.48,1.35.62,2.05.07.35.13.71.19,1.07.01.09.03.18.04.26.02.1,0-.07-.01-.07.02.13.03.2.09.33,0,0-.06-.16-.03-.06,0,.03.02.05.02.08.05.17.11.35.15.52.03.09.05.19.08.28,0,.02.01.04.02.06,0,0,.02.09.01.05s0,.03,0,.04c0,.03,0,.06,0,.08,0,.21,0,.43,0,.64,0,.17.15.32.32.32.18,0,.31-.15.32-.32h0Z"/>
        <path class="cls-16" d="M317.7,224.23c.45-.33.9-.68,1.33-1.03.2-.16.4-.32.6-.49s.37-.36.54-.54c.72-.76,1.38-1.57,1.9-2.48.48-.84.85-1.77.88-2.75s-.38-1.98-1.11-2.65c-.4-.37-.86-.66-1.35-.88-.34-.15-.68-.29-1.03-.4-.38-.12-.81-.19-1.21-.21-.18-.01-.35,0-.53,0-.48,0-.88.36-.95.83-.03.21,0,.43.11.61l.15.19c.12.12.26.2.42.25.1.04.2.08.3.12l-.24-.1c.35.15.71.28,1.07.42.25.1.51.17.75.28l-.27-.12c.39.16.76.36,1.1.62l-.24-.18c.2.15.38.33.53.52l-.18-.24c.13.17.25.37.34.57l-.12-.28c.08.19.13.38.15.58l-.04-.31c.03.25.03.5,0,.75l.04-.31c-.06.4-.18.78-.33,1.15l.12-.27c-.35.83-.87,1.56-1.39,2.29-.16.23-.33.45-.5.67l.17-.21c-.2.26-.43.51-.62.79-.15.21-.29.42-.44.63s-.29.4-.44.6c-.07.1-.15.2-.22.29-.02.02-.03.04-.05.06-.1.13.1-.14.03-.04-.04.05-.08.1-.12.15-.11.15-.22.3-.21.5,0,.16.05.3.15.43.2.25.63.39.91.18h0Z"/>
        <path class="cls-16" d="M237.67,244.48c-.14.14-.29.27-.44.4-.17.14-.3.3-.45.46-.25.28-.52.56-.78.83s-.52.52-.8.77c-.14.12-.28.24-.42.35-.07.05-.14.1-.2.16.2-.17.09-.07.04-.03s-.11.08-.16.12c-.11.08-.22.17-.33.26-.16.13.19-.14.02-.02-.03.02-.06.05-.09.07-.15.11-.3.22-.45.33-.29.21-.59.4-.89.6-.62.4-1.25.79-1.87,1.18-1.35.85-2.68,1.74-3.85,2.84-1.01.95-2,2.11-2.37,3.48-.19.69-.25,1.42-.23,2.13,0,.38.04.76.09,1.14.06.49.16.94.29,1.41.09.32.41.52.74.48s.56-.32.58-.66c.02-.38.06-.75.06-1.12,0-.34,0-.69.03-1.03,0-.15.02-.31.04-.46,0-.03,0-.06.01-.09.02-.15-.01.1-.01.11.02-.08.02-.17.04-.25.05-.28.12-.56.21-.84.01-.03.14-.36.13-.37,0,0-.11.25-.05.12.05-.1.09-.2.13-.3.03-.07.09-.19-.04.1.02-.04.03-.08.05-.12.12-.26.26-.51.41-.75.08-.12.16-.24.25-.35.09-.13-.07.09-.07.09.03-.04.06-.08.09-.12.05-.07.11-.13.16-.2.23-.27.48-.52.73-.77.28-.27.57-.53.87-.78.14-.11.28-.23.42-.34.06-.05.34-.25.07-.06.08-.06.16-.12.24-.18.6-.45,1.22-.86,1.84-1.26,1.27-.82,2.55-1.61,3.74-2.55.64-.51,1.22-1.11,1.74-1.74.3-.37.58-.75.81-1.17.13-.24.26-.47.33-.74.06-.22.11-.44.16-.67.1-.47-.45-.82-.81-.47h0Z"/>
        <path class="cls-16" d="M232.52,244.59c.12-.33.1-.64.1-.97,0-.06.02-.12.02-.18.01-.31-.1-.56-.22-.83-.07-.15-.13-.3-.22-.44-.44-.68-1.02-1.28-1.65-1.78-1.39-1.09-2.9-2-4.47-2.81-1.29-.66-2.6-1.26-3.86-1.97-.83-.47-1.61-1.03-2.37-1.61-.22-.16-.44-.31-.66-.47-.09-.07-.18-.13-.27-.2-.06-.04-.11-.09-.17-.13-.04-.03-.29-.22-.09-.07s-.03-.02-.06-.04c-.05-.04-.09-.07-.14-.11-.1-.08-.2-.16-.3-.24-.2-.18-.4-.37-.59-.55-.87-.82-1.71-1.66-2.57-2.48-.95-.92-1.96-1.9-3.28-2.24-.36-.09-.73.04-.95.33-.24.31-.23.67-.07,1.01.08.18.19.35.29.52.08.15.19.28.29.41.03.04.07.09.11.13.03.03.18.23.06.07-.11-.14-.02-.03,0,0,.08.11.17.22.25.33.07.09.15.17.23.25.16.16.31.32.47.48.62.6,1.22,1.21,1.83,1.82s1.22,1.23,1.85,1.82,1.19,1.27,1.85,1.84c1.12.96,2.34,1.8,3.64,2.5,1.11.6,2.23,1.17,3.33,1.79,1.31.72,2.62,1.43,3.81,2.34l-.33-.26c.31.24.61.49.92.73l-.33-.25c.2.16.4.32.59.49.09.08.17.17.26.25l.31.24c-.24-.19-.31-.24-.2-.14.04.04.08.08.12.12.25.24.46.38.79.51.12.05.24.15-.15-.07.15.09-.27-.22-.12-.09.07.06.14.13.22.19s.17.18.27.21c-.21-.07-.18-.14-.06-.04.54.46,1.28.27,1.52-.4h0Z"/>
        <path class="cls-16" d="M278.24,247.84c-1.02.03-2,.4-2.98.66-.22.06-.44.12-.67.17-.1.02-.2.04-.29.06-.07.01-.33.1-.4.07.09.04.21-.02.04,0-.05,0-.1.01-.16.02-.12.01-.25.02-.37.03-.29.03-.58.06-.87.09-1.13.1-2.27.17-3.4.25-.89.06-1.78.11-2.68.12-1.47.01-2.93-.05-4.4-.01-.79.02-1.57.07-2.35.15-.84.09-1.71.19-2.53.44-.93.28-1.82.72-2.5,1.43-.08.08.09-.08.1-.08-.04,0-.11.08-.14.1-.13.1-.26.2-.39.3-.15.12-.27.24-.39.38-.31.37-.55.79-.63,1.27s.32,1.09.87.87c.09-.03.17-.07.26-.1.21-.09.05-.03.01,0,.09-.04.18-.08.27-.12.03-.01.06-.03.09-.04.12-.06-.17.07-.05.02.15-.06.28-.12.41-.2.27-.16.59-.29.84-.47.09-.07-.1.06-.12.05,0,0,.11-.03.13-.04.08-.02.16-.04.24-.06.17-.04.35-.07.52-.11.07-.01.14-.03.21-.04.04,0,.1-.02.15-.02-.08,0-.52.07-.05,0,.24-.03.47-.1.7-.15.35-.08.7-.15,1.05-.22.18-.03.36-.06.54-.09.05,0,.11-.02.16-.02.03,0-.38.05-.21.03.11-.01.21-.03.32-.04.77-.08,1.54-.12,2.31-.14,1.47-.03,2.93,0,4.4-.02,2.06-.03,4.11-.24,6.15-.57.58-.1,1.18-.17,1.74-.35s1.15-.43,1.7-.69c1-.49,2.01-1.06,2.88-1.74.48-.38.07-1.19-.49-1.18h0Z"/>
      </g>
    </g>
    <g>
      <path class="cls-4" d="M136.58,374.76c-3.24,3.52-7.03,3.1-11.47,2.93-2.82-.14-5.67-.28-8.43-.92-.95-.22-2.01-.75-3.04-1.17-1.53,3.8-2.48,7.7-2.2,11.72,1.67.64,3.13,1.65,3.74,3.35.98,2.79.53,6.45-1.17,9.01,1.48,6.45,3.15,12.59,6.08,18.81.06.11.11.22.17.33-5.13,5.16-12.75,7.79-20.21,7.06-3.13-.31-6.36-1.03-9.24-2.37-.28-.11-.56-.25-.84-.42-1.59.08-3.4-.06-5.02-.33-.03-.03-.06-.03-.08-.03-1.09-.2-2.09-.47-2.93-.81-1.48-.61-2.82-1.7-4.13-2.79-7.87-6.56-9.63-17.61-9.54-27.38.06-7.2,3.57-15.29,7.73-21.07,2.82-3.91,7.26-8.01,12.28-8.68,2.37-.33,4.86-.42,7.37-.42.84-3.07,1.4-6.39,2.2-9.32.73-2.62,1.48-5.27,2.2-7.93,1.81,1.09,3.43,1.98,4.58,2.68,6,3.6,11.86,6.87,18.08,9.94-.92,2.01-1.87,4.05-2.87,6.03.5.14,1.03.31,1.56.47,2.4.84,4.86,1.62,7.34,2.12,2.18.47,4.86.33,6.89,1.09,3.85,1.45,3.13,5.75.95,8.09Z"/>
      <g class="cls-6">
        <path class="cls-16" d="M124.59,361.38c-.2.02-.41.03-.62,0,0,0-.22-.04-.12-.01-.22-.07-.4-.09-.62-.11-.48-.03-.93-.11-1.52-.17-.02,0-.18-.02-.04,0-.06,0-.13-.02-.19-.03-.13-.02-.25-.04-.38-.07-.29-.05-.58-.12-.87-.19-.55-.13-1.09-.29-1.63-.45-2.13-.65-4.24-1.48-6.45-1.77-3.05-.39-6.16-.36-9.23-.24-1.54.06-3.08.15-4.63.24-1.4.08-2.79.2-4.19.14s-2.87-.22-4.31-.25-2.9.04-4.12.83c-.33.21-.49.62-.33.99.17.39.53.52.94.46-.05,0,.18-.02.24-.02.13,0,.25-.01.38-.02.3-.03.6-.07.91-.09.62-.04,1.24-.05,1.86-.04,1.28.03,2.55.16,3.82.25,2.88.19,5.79-.17,8.66-.32,3.09-.16,6.19-.22,9.27.07.19.02.37.04.56.06.05,0,.1.01.16.02-.03,0-.23-.04-.03,0,.25.04.5.09.75.14.5.11.99.24,1.48.38,1.1.31,2.18.66,3.28.96,1.28.35,2.57.65,3.89.78.62.06,1.21.02,1.83-.12.53-.12.95-.4,1.42-.74.26-.19.21-.71-.18-.67h0Z"/>
        <path class="cls-16" d="M114.34,386.88c-.15-.05.03,0,.01.03,0,0-.07-.06-.07-.07-.1-.08-.2-.15-.31-.21-.16-.1-.31-.21-.48-.29-.41-.19-.82-.39-1.23-.56-.74-.3-1.49-.54-2.26-.74-.83-.22-1.66-.41-2.49-.61s-1.62-.43-2.44-.62c-1.73-.42-3.49-.71-5.26-.88-.73-.07-1.48-.16-2.22-.13-.28,0-.57.03-.85.03-.14,0-.27,0-.41-.01-.19,0,.25.05.02,0-.07-.02-.14-.05-.21-.06-.09-.01.13.06.14.06-.02-.02-.06-.03-.09-.05-.14-.07.1.08.11.08-.02-.02-.04-.04-.06-.06,0,0,.2.22.09.11-.02-.02-.02-.07-.04-.08.02.02.16.38.02.04-.03-.07-.06-.15-.1-.22-.02-.03-.06-.13.01.03.08.18,0,0,0-.02-.02-.06-.04-.13-.06-.19-.04-.15-.08-.31-.11-.46-.13-.63-.16-1.31-.69-1.76-.4-.34-.9-.09-.97.4.01-.12.01-.06-.01,0-.01.05-.03.1-.04.14-.05.18-.05.36-.06.55-.02.28-.05.56-.07.85s-.04.56-.01.84c.05.48.17.87.48,1.25.49.6,1.36.7,2.08.7.28,0,.56-.02.85-.03.35-.01.7.02,1.05.04.87.06,1.73.14,2.59.25.05,0,.09.01.14.02.03,0,.23.03.09.01-.13-.02.02,0,.04,0,.05,0,.09.01.14.02.23.03.46.07.68.1.44.07.88.15,1.31.24.85.17,1.69.39,2.54.59s1.7.38,2.56.58c.91.21,1.83.43,2.71.77.42.16.85.31,1.29.43.26.07.53.08.79.08.14,0,.28,0,.42-.04.03,0,.07-.02.1-.03-.06.01.12-.01.13-.01.66-.04.77-.91.15-1.13h0Z"/>
        <path class="cls-16" d="M116.63,377.97c-.06-.07-.14-.13-.19-.21-.05-.07-.06-.15-.1-.22-.11-.2-.35-.33-.53-.47-.3-.22-.61-.45-.93-.63-.69-.38-1.55-.59-2.32-.76-1.61-.36-3.33-.4-4.97-.24s-3.36.47-5.02.83c-1.49.33-3,.68-4.48,1.09s-3.43,1.12-3.63,2.82c-.05.45.07,1.03.57,1.17.46.13.85-.26,1.14-.56.11-.11.21-.22.32-.32.08-.08-.09.07-.09.07.09-.06.18-.14.27-.21.02-.02.05-.04.08-.06.09-.09-.22.15-.03.03.12-.08.24-.16.37-.23.07-.04.14-.07.21-.11.02,0,.12-.05.13-.06,0,.02-.23.09-.07.03.62-.24,1.27-.39,1.91-.55.74-.19,1.48-.38,2.22-.56,1.58-.39,3.17-.75,4.78-1,.1-.02.2-.03.3-.04.04,0,.35-.05.19-.03s.16-.02.19-.02c.11-.01.23-.03.34-.04.39-.04.79-.08,1.19-.1.8-.05,1.59-.1,2.39-.08.4.01.79.04,1.19.07.19.01.38.03.56.05.07,0,.24.03.07,0,.11.02.22.03.32.05.39.06.76.16,1.15.25s.77.13,1.15.22c.19.05.37.12.56.12.09,0,.17-.04.24-.04.1,0,.21.05.31.08.2.05.33-.19.2-.34h0Z"/>
        <path class="cls-16" d="M115.81,397.29c-.15.37-.48.7-.7.94-.13.14-.26.27-.4.4-.03.03-.06.05-.09.08-.11.09.12-.09.01,0-.13.1-.25.2-.38.3-.09.07.04-.03.05-.04-.04.03-.08.06-.12.09-.07.05-.15.1-.22.15-.16.1-.33.18-.5.27s.16-.05-.07.03c-.08.03-.17.06-.25.09-.2.07-.4.13-.6.18-.18.05-.36.09-.54.12-.09.02-.19.03-.28.05-.04,0-.08.01-.12.02.14-.02.13-.02,0,0-.4.04-.81.07-1.22.09-.85.03-1.71,0-2.56-.04-2.26-.1-4.51-.1-6.76-.29-1.37-.11-2.74-.26-4.11-.4s-2.72-.25-4.08-.4c-.62-.07-1.42-.22-2.14-.25s-1.35.08-1.97.36c-.46.21-.86.54-1.2.92-.19.21-.41.45-.55.69-.21.38-.24.72-.18,1.14.05.29.38.5.66.5.66,0,1.03-.38,1.46-.82.07-.07.14-.14.21-.2.06-.06.24-.18.07-.07.08-.05.15-.1.23-.15.05-.03.1-.04.14-.08.1-.07-.22.06,0,0,.08-.02.16-.05.25-.07.06-.01.12-.02.18-.04-.05,0-.22.01,0,0,.3-.01.59-.01.89.02.61.05,1.32.2,2.01.28,1.35.17,2.72.26,4.08.39s2.74.27,4.11.37c2.27.17,4.54.16,6.82.24,1.71.06,3.49.11,5.16-.34.94-.26,1.84-.74,2.55-1.42.35-.33.62-.78.83-1.22.11-.24.23-.49.29-.75.06-.28.09-.55.17-.83.2-.74-.85-.99-1.12-.31h0Z"/>
        <path class="cls-16" d="M110.29,400.5c-.44.66-.51,1.46-.67,2.23-.17.83-.31,1.67-.5,2.5-.1.43-.22.85-.35,1.27-.06.2-.13.39-.2.59-.04.11-.08.21-.12.32-.02.04-.03.08-.05.13-.09.23.11-.24,0-.01-.17.38-.35.76-.57,1.12-.1.17-.2.33-.31.49-.05.08-.11.15-.17.23-.08.12.17-.21.03-.04-.04.05-.08.1-.12.14-.12.14-.25.27-.38.4-.07.06-.13.12-.2.18-.04.03-.08.06-.12.1-.15.13.2-.14.02-.02-.15.1-.3.2-.45.29-.08.04-.16.09-.24.13-.04.02-.1.04-.14.06.08-.07.2-.08.02-.01s-.36.12-.54.16c-.09.02-.19.04-.28.05-.08.01-.15.02-.23.03.19-.03-.08,0-.12.01-.65.08-1.3.13-1.96.16-2.69.12-5.37-.1-8.05-.32-.37-.03-.74-.06-1.11-.1.03,0-.33-.04-.19-.02.07,0,.04,0-.08-.01-.06,0-.11-.02-.17-.02-.2-.03-.41-.06-.61-.09-.76-.11-1.57-.27-2.35-.18-.62.07-1.18.29-1.69.64-.1.07-.2.14-.3.21s-.19.15-.29.22c.13-.1.08-.06-.02.01-.24.18-.5.33-.76.48-.39.24-.55.73-.38,1.15s.63.63,1.08.53c.56-.12,1.07-.4,1.53-.73.16-.11.32-.22.49-.32.04-.02.08-.04.11-.06.19-.11-.22.07,0,0,.11-.03.23-.07.34-.09.24-.06-.16,0,0,0,.07,0,.14,0,.21-.01.13,0,.26,0,.4.02.19.01.37.03.56.06.22.03.11.01.06,0,.13.02.26.04.39.06.77.12,1.54.24,2.32.31,2.74.25,5.5.46,8.25.35.67-.03,1.35-.07,2.02-.15.57-.06,1.15-.12,1.7-.28.89-.27,1.7-.76,2.38-1.4,1.34-1.28,2.11-3.07,2.65-4.81.31-1.02.57-2.06.68-3.12.05-.45.09-.9.12-1.35,0-.04,0-.08,0-.12.01-.11,0-.23-.03-.34l.02.17c.02-.09-.02-.24-.03-.33-.02-.23-.05-.42-.15-.63.13.32,0,.02,0-.02-.03-.07-.06-.15-.09-.22-.25-.59-1.07-.43-1.36,0h0Z"/>
        <path class="cls-16" d="M106.42,410.5c-.12.32-.22.65-.27.99-.07.44-.21.89-.21,1.34,0-.02.04-.28.01-.09,0,.05-.01.09-.02.14-.01.09-.03.18-.05.28-.03.2-.07.39-.12.59-.09.39-.17.77-.28,1.16s-.23.79-.38,1.17c-.03.09-.07.18-.11.27-.07.18.02-.06.03-.08-.02.03-.04.09-.06.13-.09.19-.18.39-.28.57-.17.34-.37.67-.58.98-.05.07-.1.15-.16.22-.16.22.15-.18-.02.03-.12.14-.24.29-.37.42-.12.12-.24.25-.37.36-.07.06-.15.12-.22.19-.11.09.2-.14.08-.06-.04.03-.09.06-.13.09-.14.1-.28.18-.43.27-.08.05-.17.09-.26.13-.06.03-.12.05-.18.08.23-.11-.06.02-.09.03-1.01.39-2.09.55-3.15.77-2.27.47-4.48,1.19-6.67,1.93-.6.2-1.21.4-1.82.58-.28.08-.56.15-.85.2-.14.02-.27.04-.41.07.18-.03.02,0-.01,0-.09.01-.19.02-.28.03-.64.07-1.28.13-1.92.22-.6.08-1.16.3-1.7.57-.32.16-.44.6-.3.92.16.35.49.49.87.42.19-.03.35-.05.61-.06s.54-.03.81-.05c.54-.04,1.09-.05,1.63-.08,1.17-.06,2.27-.3,3.4-.6,2.31-.61,4.59-1.35,6.92-1.87,1.1-.25,2.23-.39,3.3-.77.94-.33,1.78-.79,2.52-1.47,1.28-1.18,2.1-2.82,2.63-4.45.31-.97.49-1.95.57-2.97.08-.95-.02-1.93-.5-2.76-.3-.51-1.01-.36-1.19.16h0Z"/>
        <path class="cls-16" d="M105.33,418.56c.08,0,.17-.01.24,0-.2-.06.09.02.12.02.13,0,.17-.02.26-.05.19-.05.4-.08.59-.15.36-.12.71-.27,1.06-.41.76-.29,1.52-.63,2.26-.98,1.44-.67,2.79-1.61,3.97-2.68,2.12-1.92,3.67-4.4,4.64-7.08.26-.72.46-1.44.6-2.2.08-.45.14-.9.18-1.36.01-.19.04-.39.03-.57,0-.2-.04-.41-.07-.61-.05-.38-.26-.7-.67-.75s-.7.19-.84.55c-.13.33-.25.64-.35.98s-.19.64-.28.96c-.18.64-.38,1.27-.6,1.89-.11.31-.22.62-.34.92-.03.07-.06.15-.09.22.14-.34.03-.08,0,0-.07.16-.15.32-.22.48-.28.59-.59,1.16-.94,1.71-.18.28-.37.56-.56.84-.09.13-.19.26-.28.38-.04.06-.14.16.07-.09-.03.03-.05.06-.07.09-.06.07-.11.14-.17.21-.42.51-.87,1-1.34,1.47-.24.24-.49.46-.74.69-.14.12-.28.24-.43.36-.02.02-.09.06-.11.09.09-.13.16-.12.06-.05s-.19.14-.28.21c-.6.44-1.24.82-1.9,1.18-.72.39-1.43.78-2.15,1.17-.37.2-.74.44-1.09.67-.21.14-.4.31-.59.48-.03.03-.07.06-.1.09-.12.12-.16.22-.24.37.01-.03.07-.13,0-.02-.03.05-.06.1-.09.16-.2.34.06.78.45.78h0Z"/>
        <path class="cls-16" d="M78.05,382.98c-.04.08-.07.16-.11.24l.16-.16c-.06.04-.12.08-.18.12.14-.11-.13.11-.16.15,0,0-.15.2-.09.11.06-.07,0,0,0,0-.02.02-.04.05-.06.07-.1.12-.21.24-.29.38-.06.09-.1.19-.16.28-.15.26-.28.51-.38.79-.07.2-.15.39-.21.59-.31.88-.45,1.85-.46,2.79,0,.98.14,1.99.51,2.9.35.85.79,1.64,1.25,2.43.23.39.47.77.7,1.16.12.2.23.4.35.6.09.14.16.29.28.41.07.08.16.15.23.24.34.37.96.17,1.09-.29.07-.24.13-.47.1-.72-.03-.27-.06-.53-.13-.79-.13-.46-.29-.92-.51-1.35-.36-.73-.76-1.45-1.08-2.2l.12.28c-.27-.65-.48-1.33-.58-2.02l.04.31c-.09-.7-.09-1.4,0-2.1l-.04.3c.09-.64.23-1.28.38-1.91.09-.39.1-.79.13-1.19,0-.12,0-.15-.02-.31,0,.06.03.21.01.06,0-.08-.02-.17-.03-.25-.01-.12-.02-.26-.05-.37-.03-.09-.12-.23-.04-.11-.04-.06-.06-.13-.1-.19l.06.23c0-.09,0-.18.01-.27.01-.18-.14-.35-.3-.39s-.39.02-.46.19h0Z"/>
        <path class="cls-16" d="M76.8,400.37s-.06.13-.05.15c0,0,.17-.23.11-.17-.02.02-.03.04-.04.05-.06.08-.13.15-.19.23-.13.16-.27.31-.35.5-.06.14-.11.29-.16.43-.15.42-.27.85-.37,1.29-.12.53-.19,1.06-.19,1.6s.07,1.07.19,1.59c.09.37.2.74.34,1.09.18.46.38.91.63,1.33.2.34.42.68.66,1,.28.39.57.79.89,1.15.61.7,1.27,1.37,2.07,1.84.25.15.58.12.81-.06.21-.16.37-.5.26-.77-.2-.47-.43-.95-.72-1.37s-.54-.82-.81-1.23c-.55-.82-1.03-1.69-1.42-2.6l.12.3c-.25-.58-.43-1.19-.52-1.81l.04.33c-.06-.45-.05-.91-.03-1.36s.05-.9.11-1.35l-.04.31c.06-.42.12-.84.15-1.26.02-.22-.05-.44-.1-.66-.02-.08-.03-.15-.05-.23-.04-.14,0,.17-.01.19.02-.03.02-.12.02-.16.03-.2.03-.37-.07-.54-.09-.15-.25-.29-.42-.32-.38-.09-.76.11-.87.49h0Z"/>
        <path class="cls-16" d="M80.15,377.2c0-.12.02-.25.04-.37l-.03.2c.01-.1.04-.21.03-.31,0-.05-.01-.1-.02-.15-.01-.11-.02-.21-.02-.32-.01-.21-.01-.41,0-.62.02-.42.01-.83.07-1.24l-.04.27c.06-.45.18-.88.29-1.32s.26-.88.44-1.3l-.11.26c.13-.31.27-.61.43-.9s.33-.56.5-.84c.33-.56.7-1.09,1.09-1.61l-.15.19c.14-.18.28-.35.42-.53l-.14.18c.19-.25.4-.49.58-.74.07-.1-.1.13-.04.05.02-.02.04-.05.06-.07.04-.05.08-.09.11-.14.11-.13.2-.28.29-.42.13-.19.09-.46-.04-.63s-.38-.27-.59-.2c-.82.25-1.51.76-2.14,1.32s-1.18,1.23-1.61,1.95-.79,1.52-1.05,2.33-.36,1.65-.34,2.49c.01.5.07,1,.22,1.48.06.21.13.41.22.61.04.1.08.21.13.31.05.09.12.16.19.24.07.08.14.16.21.23.16.17.44.21.65.12.23-.1.35-.3.36-.54h0Z"/>
      </g>
    </g>
    <g>
      <path class="cls-1" d="M417.59,361.64c-.92-2.37-1.9-4.72-2.82-7.06-6.28-1.79-15.71.45-20.93,1.62-10.16,2.23-21.18,5.64-30.62,10.13-1.62.78-3.15,1.67-4.63,2.71.61,2.73,1.31,5.44,1.95,8.15.2.78.36,1.56.5,2.4-1.51.36-3.01.67-4.33,1-2.01.53-4.24,1.45-6.47,2.04.06,1.79.11,3.6.22,5.39-.75,0-1.53-.03-2.23-.17-4.33-.73-8.43-4.38-11.89-7-4.21-3.15-8.65-5.97-13.14-8.82-7.2-4.58-15.27-4.33-22.91-7.23-3.68-1.37-7.26-3.13-10.94-4.6-1.95-.75-6.17-3.85-9.27-4.74,1.09,4.1,2.46,8.26,3.54,12.34.25,1.03,1.03,3.49,1.67,5.67-5.16,2.01-10.07,4.91-14.71,7.67-3.99,2.34-8.37,3.85-12.31,6.25-3.38,2.07-5.19,6.73-.25,8.65,6.45,2.51,15.63-3.6,21.43-6,1.28-.53,2.54-1.06,3.82-1.56-3.74,2.15-6.95,4.86-7.62,8.43-.45,2.34.25,7.79,2.79,8.68.67.22,1.65.14,2.71-.11-1.26,1.17-2.09,2.6-2.04,4.33.11,3.21,3.27,9.63,7.14,10.49-.33,1.17-.17,2.57.47,4.38,2.48,6.89,11.92,6.59,18.08,3.4.25.03.47.03.67.06,3.71.39,7.23.11,10.88-.59,7.67-1.51,15.63-2.74,22.97-5.75,2.12.64,4.21,1.62,6.11,2.2,2.6.84,5.25,1.62,7.87,2.46.53,6.39,1,12.78,1.34,19.14.28,5.33.14,10.58.42,15.88.25,5.05,4.19,30.61,6.47,40.89-2.12.53-4.27.98-6.28,1.65-7.51,2.51-15.18,3.57-23.14,4.07-9.07.56-18.17-.61-27.21-1.06-8.96-.42-17.44.95-26.15,2.73-18.59,3.85-37.79,8.6-56.88,5.47-9.38-1.53-18.84-3.32-28.33-2.71-8.54.53-16.24,3.27-24.61,4.52-8.07,1.2-15.85-.39-23.64-2.4-6.95-1.81-14.21-1.65-20.99.33,1.48-16.83,3.63-33.91,4.24-50.96-1.7-7.17-3.6-14.51-4.33-21.77-.5-4.88-1.06-11.02-.56-16.49-1.2-2.26-2.37-4.58-3.46-6.92-.06-.11-.11-.22-.17-.33-2.93-6.22-4.6-12.36-6.08-18.81,1.7-2.57,2.15-6.22,1.17-9.01-.61-1.7-2.07-2.71-3.74-3.35-.28-4.02.67-7.93,2.2-11.72,1.03.42,2.09.95,3.04,1.17,2.76.64,5.61.78,8.43.92,4.44.17,8.23.59,11.47-2.93,2.18-2.34,2.9-6.64-.95-8.09-2.04-.75-4.72-.61-6.89-1.09-2.48-.5-4.94-1.28-7.34-2.12-.53-.17-1.06-.33-1.56-.47,1-1.98,1.95-4.02,2.87-6.03-6.22-3.07-12.08-6.34-18.08-9.94-1.14-.7-2.76-1.59-4.58-2.68-5.83-3.49-13.51-8.68-12.64-13.54.56-3.21,3.66-6.45,5.25-9.18,1.7-2.93,3.35-5.92,4.97-8.85,3.18-5.8,6.89-11.19,9.91-17.11,7.06-13.76,15.68-26.85,22.66-40.83,7.06-14.18,14.96-26.96,28.41-35.89,10.66-7.06,23.25-12.42,35.95-14.09,1.51,3.71,3.43,7.17,6.5,10.1,1.62,12.31,5.83,23.89,15.29,32.62,3.35,3.07,7.14,5.3,10.74,7.95.33,5.86,1.62,12.89,6.2,15.07,6.47,3.04,12.78-3.66,17.44-7.7,3.82-.03,7.62-.2,11.5-.92,8.4-1.56,17.64-4.07,24.5-9.38,4.83-3.71,11.14-8.76,15.1-14.46,4.02-.31,7.51-2.65,10.77-5.3,4.55-3.74,20.07-13.84,17.14-20.9-1.17-2.79-3.54-3.63-6.36-3.43,1.59-2.15,2.93-4.55,4.1-7.06,10.1,3.91,19.87,8.76,29.61,14.01,14.43,7.84,24.56,17.78,32.04,32.57,5.78,11.44,10.63,23.78,13.54,36.25,2.93,12.61,4.94,25.37,8.74,37.9,1.93,6.39,3.77,12.81,6.03,19.01,1.2,3.21,2.96,7,3.29,10.38.39,3.63-1.28,6.95-3.13,10.07Z"/>
      <g class="cls-9">
        <path class="cls-2" d="M309.78,228.87c-.91,2.34-1.94,4.64-3.08,6.89s-2.15,4.38-3.37,6.49c-2.44,4.24-5.27,7.96-8.72,11.42-3.67,3.68-7.79,6.82-12.31,9.4-4.57,2.61-9.31,4.5-14.33,6.09-5.4,1.71-10.87,2.9-16.5,3.16s-10.95-.3-16.19-2.09c-2.27-.77-4.29-1.69-6.43-2.91-1.01-.58-2-1.21-2.96-1.88s-1.74-1.28-2.68-2.09c-3.8-3.25-6.95-7.06-9.35-11.41-1.36-2.46-2.4-5.01-3.34-7.65-1-2.79-1.87-5.62-2.26-8.57-.78-5.94-.11-11.98.74-17.88.21-1.48.35-2.98.58-4.46.05-.33-.09-.67-.44-.77-.3-.08-.72.1-.77.44-.25,1.56-.62,3.1-.87,4.66s-.48,3.05-.68,4.58c-.4,3.04-.66,6.09-.6,9.16s.43,6.2,1.18,9.2,1.7,5.7,2.87,8.43c2.11,4.93,5.16,9.43,8.92,13.26,3.41,3.48,7.44,6.38,11.88,8.4,5.01,2.27,10.4,3.44,15.88,3.66,5.88.24,11.85-.51,17.53-2.05,2.67-.73,5.32-1.62,7.92-2.57s5.06-1.97,7.49-3.16c4.84-2.37,9.35-5.4,13.4-8.96,3.77-3.31,7.1-7.12,9.84-11.32,1.33-2.04,2.62-4.19,3.61-6.42.53-1.19,1.06-2.4,1.48-3.63s.76-2.37,1.08-3.57.63-2.47.89-3.72c.06-.28-.32-.38-.43-.12h0Z"/>
        <path class="cls-2" d="M158.68,231.24c-.1.51-.38,1.02-.62,1.48-.26.5-.49.99-.72,1.51-.48,1.09-.96,2.17-1.28,3.32-.66,2.33-.8,4.83-.96,7.24-.32,4.86-.14,9.7.49,14.53.36,2.77.84,5.51,1.77,8.15.11.32.4.54.75.49.32-.05.61-.32.59-.67-.14-2.37-.41-4.73-.65-7.09s-.37-4.81-.45-7.22-.02-4.84.08-7.27c.04-1.17.09-2.34.17-3.5.04-.6.09-1.19.16-1.79.02-.15.04-.31.05-.46,0-.07.02-.13.03-.2,0,.03-.02.15,0,0,.02-.13.04-.26.06-.39.01-.09.07-.55.05-.36-.01.09.02-.14.02-.16.18-1.26.57-2.46.87-3.69.16-.66.3-1.29.31-1.96,0-.3.02-.61-.01-.91-.04-.33-.11-.65-.13-.98-.02-.31-.51-.42-.57-.08h0Z"/>
        <path class="cls-2" d="M156.82,272.01c-.21.36-.4.73-.64,1.06s-.47.67-.67,1.04c-.39.73-.77,1.45-1.11,2.2-.71,1.56-1.39,3.12-2,4.72-1.18,3.1-2.17,6.28-2.88,9.53-.34,1.55-.76,3.07-1.3,4.57s-1.09,2.8-1.76,4.25c-1.34,2.89-2.85,5.69-4.24,8.56-2.91,6.03-5.2,12.34-7.64,18.57-1.22,3.12-2.42,6.09-3.8,9.11s-2.97,5.98-4.57,8.92c-3.14,5.79-6.12,11.66-9.7,17.2-.45.7-.85,1.43-1.28,2.15s.56,1.47,1.12.87c.59-.63,1.18-1.26,1.7-1.95s1.02-1.37,1.5-2.07c.95-1.37,1.8-2.81,2.65-4.25,1.67-2.83,3.19-5.74,4.74-8.64s3.26-5.86,4.72-8.89,2.81-6.19,4.08-9.35c2.48-6.16,4.73-12.44,7.45-18.41s6.08-11.44,7.84-17.67c.44-1.57.72-3.17,1.13-4.74s.89-3.22,1.42-4.8c1.05-3.11,2.33-6.13,3.5-9.2.14-.37.24-.73.34-1.11.11-.42.27-.82.42-1.23.22-.6-.71-.96-1.02-.43h0Z"/>
        <path class="cls-2" d="M126.04,347.38c-.17-.15-.32-.35-.52-.46s-.43-.16-.64-.23c-.4-.15-.75-.31-1.15-.51-.79-.4-1.57-.81-2.33-1.27-1.52-.93-2.96-1.98-4.45-2.94-3.43-2.22-6.97-4.26-10.46-6.36s-6.69-4.19-9.85-6.54c-.09-.07-.18-.14-.28-.21-.3-.22.16.13-.13-.1-.15-.12-.3-.24-.45-.36-.34-.28-.67-.56-.99-.86-.63-.57-1.22-1.17-1.8-1.79-1.12-1.21-2.19-2.52-3.11-3.74-2.29-3.06-4.35-6.37-6.98-9.16-.45-.48-1.26.14-.92.71.9,1.46,1.83,2.91,2.75,4.37s1.83,2.92,2.8,4.35c1.95,2.84,4.07,5.58,6.73,7.79,1.51,1.26,3.17,2.35,4.81,3.45s3.34,2.18,5.04,3.22c3.52,2.14,7.12,4.16,10.62,6.33,1.75,1.09,3.45,2.26,5.22,3.33.9.55,1.82,1.08,2.8,1.48.46.19.94.36,1.42.5.21.06.43.12.65.17.34.06.62-.04.93-.15.41-.13.62-.69.27-1h0Z"/>
        <path class="cls-2" d="M147.26,263.16c-.42,1.66-.96,3.29-1.36,4.96s-.69,3.22-1.01,4.83c-.64,3.32-1.18,6.64-1.57,10s-.64,6.59-.56,9.9c.06,2.63.42,5.25.53,7.88.06,1.48.09,2.97-.08,4.44,0,.05-.04.28,0,.07-.01.1-.03.2-.05.3-.03.17-.06.33-.09.5-.07.34-.15.68-.24,1.01-.19.65-.34,1.32-.49,1.98s.66,1.18,1.18.69c.99-.94,1.43-2.19,1.71-3.5s.42-2.78.44-4.17c.04-2.68-.32-5.36-.45-8.03-.15-3.17.07-6.38.34-9.54.29-3.35.75-6.56,1.18-9.78.25-1.9.51-3.79.74-5.69s.24-3.85.34-5.77c.02-.32-.48-.38-.56-.08h0Z"/>
        <path class="cls-2" d="M151.22,350.93c-1.86.31-3.52,1.25-5.07,2.3-.87.6-1.7,1.24-2.52,1.9s-1.38,1.11-2.16,1.67-1.63,1.07-2.46,1.59c-.95.6-1.89,1.22-2.81,1.85-1.83,1.27-3.63,2.57-5.47,3.84-2.06,1.43-4.17,2.79-6.27,4.15-.4.26-.57.78-.32,1.21.26.45.77.51,1.21.32,2.02-.91,3.87-2.09,5.7-3.34s3.64-2.57,5.46-3.85c.9-.63,1.81-1.26,2.73-1.88.85-.57,1.72-1.1,2.56-1.69,1.6-1.13,3.13-2.42,4.61-3.7.81-.7,1.62-1.36,2.48-1.98.8-.58,1.66-1.14,2.58-1.51.56-.22.35-1-.25-.9h0Z"/>
        <path class="cls-2" d="M130.07,372.63c.36.25.72.49,1.09.73s.77.43,1.16.64c.77.42,1.52.87,2.28,1.32,1.56.91,3.08,1.87,4.6,2.85,3.06,1.99,5.98,4.19,9.05,6.16,1.67,1.07,3.36,2.16,5.15,3.02.52.25,1.23.16,1.52-.4s.13-1.19-.4-1.52c-1.51-.94-3.02-1.87-4.49-2.86s-2.99-2.02-4.48-3.05c-3.01-2.06-6-4.14-9.23-5.86-.95-.5-1.93-.93-2.92-1.34-.45-.19-.91-.41-1.37-.53-.49-.12-.99-.21-1.49-.28-.3-.04-.6.05-.72.35s0,.59.25.76h0Z"/>
        <path class="cls-2" d="M120.43,372.93c.11.48.13.97.27,1.44.15.51.26,1.03.41,1.53.3.97.65,1.94,1.03,2.88.78,1.96,1.58,3.92,2.41,5.85,1.62,3.75,3.32,7.48,5.13,11.13s3.71,7.29,5.66,10.88c1.92,3.53,3.97,6.99,5.99,10.46,1,1.71,1.98,3.44,3.03,5.12s2.35,3.34,3.93,4.61c.23.19.54.25.79.05.22-.17.33-.53.15-.77-.49-.69-.91-1.42-1.36-2.13-.48-.76-.92-1.54-1.34-2.33-.84-1.56-1.69-3.11-2.53-4.67-.9-1.7-1.89-3.35-2.83-5.03s-1.96-3.52-2.92-5.29c-3.91-7.17-7.58-14.49-11-21.9-.96-2.07-1.92-4.13-2.85-6.21-.46-1.01-.94-2.01-1.42-3.01-.25-.52-.55-1-.83-1.51s-.63-.95-.92-1.45c-.25-.43-.9-.14-.79.33h0Z"/>
        <path class="cls-2" d="M114.47,413.32c1.01,1.49,1.74,3.16,2.52,4.78s1.57,3.34,2.36,5.01c1.59,3.34,3.26,6.6,5.21,9.75,2.05,3.3,4.15,6.57,6.38,9.76s4.69,6.38,7.24,9.43c1.42,1.69,2.83,3.4,4.34,5,.77.82,1.55,1.64,2.34,2.45.38.39.77.78,1.15,1.16.21.2.4.42.65.58.27.17.52.32.77.52.38.31,1.05-.09.74-.57-.29-.43-.47-.92-.79-1.32s-.62-.79-.94-1.19c-.62-.78-1.26-1.55-1.89-2.33-1.24-1.55-2.52-3.08-3.77-4.63-2.44-3.02-4.72-6.05-6.97-9.27-2.22-3.18-4.34-6.43-6.44-9.69-1.02-1.58-2.04-3.15-2.96-4.78s-1.71-3.21-2.56-4.82c-.94-1.8-1.87-3.6-2.94-5.33s-2.35-3.36-3.61-5c-.37-.48-1.2-.04-.84.49h0Z"/>
        <path class="cls-2" d="M119.56,445.33c.59,2.26,1.19,4.51,1.89,6.75s1.47,4.45,2.31,6.64c1.7,4.43,3.51,8.81,5.45,13.15s3.96,8.56,6.04,12.79,4.2,8.31,6.36,12.43c1.01,1.93,2.13,3.79,3.29,5.64s2.22,3.75,3.3,5.64c.25.44.49.89.71,1.36.16.34.65.09.58-.25-.2-1.03-.48-2.02-.89-2.99-.43-1.03-.93-2.01-1.47-2.99-1.04-1.9-2.17-3.75-3.17-5.67-1.06-2.03-2.02-4.12-3.01-6.18s-2-4.2-3-6.29c-2.03-4.26-3.99-8.55-5.94-12.84-1.92-4.23-3.8-8.5-5.6-12.76-1.82-4.32-3.61-8.66-5.5-12.95-.24-.54-.46-1.09-.69-1.64-.16-.4-.78-.26-.66.18h0Z"/>
        <path class="cls-2" d="M145.45,397.05c.38.43.67.9,1.01,1.36s.71.91,1.08,1.35c.72.85,1.43,1.71,2.17,2.55,1.5,1.71,2.97,3.45,4.46,5.18,2.95,3.44,5.84,6.94,8.74,10.43,2.92,3.51,5.86,7.01,8.74,10.55,1.47,1.8,2.92,3.62,4.38,5.43,1.38,1.71,2.73,3.48,4.19,5.12,2.36,2.64,5.23,4.84,7.22,7.78.23.34.48.58.77.86.25.24.66.06.68-.28.02-.46-.03-.82-.22-1.25-.16-.37-.34-.73-.56-1.08-.5-.79-1.08-1.53-1.67-2.25-1.19-1.44-2.51-2.76-3.78-4.13-1.37-1.47-2.62-3.05-3.88-4.62-1.47-1.83-2.93-3.67-4.4-5.51-2.88-3.6-5.84-7.14-8.79-10.68-2.91-3.5-5.85-6.98-8.87-10.38-1.51-1.7-3.04-3.38-4.62-5.01s-3.17-3.27-4.93-4.69c-.46-.37-.94-.67-1.38-1.07-.23-.21-.54.11-.34.34h0Z"/>
        <path class="cls-2" d="M281.08,396.31c-.69.79-1.35,1.59-1.82,2.53-.5.99-.95,2-1.36,3.04-.79,1.98-1.48,3.84-2.41,5.72-2.1,4.22-4.32,8.38-6.34,12.65-2,4.22-4.04,8.43-6.21,12.57-2.14,4.08-4.55,8.01-6.79,12.03-2.28,4.09-4.42,8.32-6.08,12.71-.2.53-.35,1.08-.51,1.63-.14.47.55.76.79.33,1.15-2.01,2.17-4.08,3.28-6.12s2.28-4.05,3.44-6.07c2.3-3.99,4.77-7.87,6.97-11.92,2.23-4.11,4.29-8.31,6.29-12.54,1-2.11,1.98-4.21,3.03-6.3s2.17-4.23,3.24-6.36c1.94-3.86,3.38-7.95,4.83-12.01.17-.47.28-.96.44-1.44.16-.44-.48-.8-.78-.46h0Z"/>
        <path class="cls-2" d="M274.43,326.53c-.16.21-.27.41-.37.65-.14.34-.13.74-.14,1.11,0,.66.05,1.31.14,1.96.18,1.28.46,2.54.78,3.79.69,2.73,1.2,5.5,1.86,8.24,1.38,5.77,2.76,11.62,4.96,17.15,1.21,3.04,2.6,6.02,4.16,8.89.2.37.89.23.84-.23-.16-1.43-.51-2.77-.99-4.12s-1.02-2.7-1.52-4.06c-1.02-2.75-1.78-5.6-2.53-8.43s-1.48-5.71-2.22-8.56-1.38-5.63-2.15-8.42c-.38-1.36-.8-2.71-1.16-4.07-.18-.67-.33-1.35-.46-2.04-.06-.31-.08-.62-.13-.92-.06-.33-.24-.64-.4-.94s-.51-.22-.67,0h0Z"/>
        <path class="cls-2" d="M269.31,389.05c-.33.25-.7.42-1.01.68-.34.28-.68.58-1.02.87-.64.55-1.23,1.17-1.81,1.78-1.14,1.2-2.22,2.46-3.28,3.72-2.17,2.56-4.33,5.14-6.57,7.65-4.57,5.13-9.37,10.04-14.11,15-1.32,1.38-2.65,2.76-3.97,4.14-.67.7-1.31,1.43-1.96,2.15s-1.32,1.5-1.88,2.32c-.3.43.29,1.02.73.73,1.45-.98,2.74-2.22,4.03-3.4s2.47-2.35,3.7-3.53c2.49-2.39,4.96-4.79,7.37-7.26s4.79-4.97,7.09-7.54c2.24-2.51,4.36-5.13,6.5-7.72,1.2-1.45,2.37-2.93,3.56-4.39.61-.75,1.25-1.52,1.77-2.33.25-.38.51-.77.76-1.15.27-.4.43-.85.7-1.26.25-.38-.28-.69-.58-.45h0Z"/>
        <path class="cls-2" d="M277.61,380.8c-2.58-.23-5.12-1.04-7.59-1.77-2.57-.76-5.09-1.69-7.68-2.37-1.38-.36-2.79-.65-4.18-.99-1.5-.37-2.99-.76-4.49-1.15-2.98-.79-5.95-1.65-8.97-2.28-3.39-.71-6.8-1.35-10.24-1.83-.48-.07-.71.62-.21.75,3.01.79,5.99,1.7,8.95,2.65,2.94.94,5.89,1.82,8.87,2.62,2.97.8,5.96,1.53,8.95,2.25,2.6.62,5.13,1.54,7.7,2.29,2.93.85,5.98,1.43,9.01.79.57-.12.38-.91-.13-.95h0Z"/>
        <path class="cls-2" d="M353.73,238.15c.06,1.01.12,2.02.15,3.03s0,2.06,0,3.09c.01,2.11-.1,4.22-.22,6.33-.11,1.95-.23,3.9-.4,5.85-.09.97-.2,1.93-.32,2.89-.05.4.04-.26-.02.14-.02.12-.03.25-.05.37-.04.25-.07.49-.11.74-.08.53-.16,1.06-.25,1.6-.35,2.15-.87,4.26-1.31,6.39-.1.48.1.99.58,1.18.42.17,1.04.05,1.25-.41.41-.93.74-1.86,1.02-2.84s.52-1.95.74-2.93c.47-2.08.79-4.18,1.04-6.29.24-1.97.35-3.95.44-5.93.1-2.13.15-4.25.07-6.38-.05-1.24-.2-2.47-.4-3.7-.18-1.13-.43-2.23-.83-3.31-.12-.32-.4-.55-.77-.5-.32.05-.62.33-.61.69h0Z"/>
        <path class="cls-2" d="M350.85,274.82c-.14.95-.34,1.88-.54,2.82s-.36,1.83-.53,2.75c-.36,1.86-.68,3.72-1.01,5.58s-.67,3.7-1.11,5.53c-.41,1.71-.96,3.38-1.53,5.05s-1.15,3.35-1.49,5.08c-.32,1.64-.37,3.3-.24,4.96.06.81.15,1.61.25,2.41.06.47.12.94.19,1.41.02.12.03.24.05.35,0,.05.03.25,0,.01.03.23.06.46.09.69.22,1.74.34,3.5.48,5.25.15,1.87.27,3.75.31,5.62s0,3.87-.06,5.8c-.1,3.85-.27,7.71-.19,11.56s.56,7.47,1.27,11.17c.35,1.85.75,3.69,1.11,5.54.17.88.34,1.76.49,2.64.08.44.15.88.22,1.32.03.22.07.44.1.66.02.11.03.22.05.33,0,.04.06.44.04.27.25,1.83.34,3.68.52,5.52s.41,3.75.65,5.61.48,3.79.7,5.69.36,3.78.53,5.67c.09.91.29,1.8.39,2.72.11,1.02,1.53,1.05,1.61,0,.07-.95.21-1.9.19-2.85s-.09-1.87-.17-2.8c-.15-1.9-.35-3.79-.57-5.68-.42-3.74-.83-7.47-1.13-11.21s-1.03-7.39-1.77-11.05c-.37-1.82-.74-3.64-1.04-5.48-.15-.89-.28-1.78-.37-2.52-.11-.93-.2-1.86-.26-2.79-.46-7.62.51-15.24.09-22.86-.1-1.9-.27-3.79-.42-5.69-.07-.82-.14-1.64-.24-2.45-.05-.39-.1-.77-.15-1.16-.02-.14-.04-.27-.05-.41,0,.02-.07-.5-.03-.19-.04-.31-.08-.62-.13-.94-.03-.2-.06-.4-.08-.6,0-.04-.03-.25,0-.03-.02-.12-.03-.24-.05-.36-.05-.4-.1-.8-.14-1.2-.08-.81-.13-1.63-.11-2.45,0-.18,0-.37.02-.55,0-.07.01-.15.02-.22,0-.04.05-.4,0-.1.06-.41.14-.82.23-1.23.19-.84.44-1.67.71-2.49.55-1.68,1.2-3.33,1.74-5.01s.92-3.54,1.26-5.33c.72-3.78,1.15-7.63,1.32-11.47.04-.92.09-1.82.2-2.73.1-.8-1.3-1-1.42-.19h0Z"/>
        <path class="cls-2" d="M364.01,338.92c-.28,1.13-.85,2.16-1.23,3.26s-.77,2.17-1.17,3.26c-.79,2.14-1.64,4.25-2.5,6.36s-1.76,4.28-2.65,6.42c-.23.55-.38.91-.62,1.48s-.47,1.09-.72,1.63c-.46,1.01-.91,2.03-1.46,3s-1.2,1.95-1.76,2.95-1.18,2.1-1.34,3.23c-.08.55.13,1.1.72,1.26s1.07-.19,1.26-.72c.07-.2.14-.4.22-.6.11-.3.1-.27.24-.56.22-.46.47-.9.73-1.33.54-.89,1.13-1.74,1.67-2.62,1.17-1.9,2.06-3.98,2.96-6.02,1.88-4.27,3.74-8.6,5.12-13.06.38-1.23.72-2.46,1-3.71.15-.66.27-1.32.35-1.99s.09-1.29.21-1.94-.86-.95-1.02-.28h0Z"/>
        <path class="cls-2" d="M363.81,368.49c-.26-.07-.51-.1-.78-.13-.24-.02-.46.02-.7.05-.18.02-.37.04-.55.09-.13.04-.25.07-.38.11-.31.1-.6.22-.9.34-.89.38-1.75.8-2.6,1.27s-1.66,1-2.46,1.56c-.85.6-1.69,1.23-2.48,1.9-.42.36-.82.72-1.23,1.09-.2.18-.36.41-.52.62-.08.1-.18.2-.24.31-.05.1-.09.21-.12.32-.03.12-.05.24-.07.37-.03.18-.02.34.1.49.1.13.26.23.44.22.21,0,.42-.03.62-.07.24-.05.47-.22.68-.35.4-.24.76-.53,1.12-.82l-.22.17c2.55-1.97,5.2-3.84,8.14-5.18.41-.19.83-.39,1.2-.64.24-.16.48-.31.69-.51.16-.15.3-.3.44-.47.21-.25.15-.66-.2-.75h0Z"/>
        <path class="cls-2" d="M423.61,352.04c-.02-1.01-.12-1.76-.49-2.69-.32-.82-.76-1.56-1.34-2.23-1.12-1.28-2.65-2.11-4.22-2.68-3.47-1.25-7.3-1.29-10.94-1.09-4.37.24-8.76.81-13.05,1.66-6.39,1.27-12.64,3.19-18.76,5.43-3.02,1.1-6.03,2.26-8.97,3.57-2.71,1.21-5.34,2.58-7.77,4.3-.34.24-.66.48-.93.8-.24.29-.48.59-.71.9-.29.38.19.95.62.8.34-.12.68-.23,1.01-.35.4-.14.73-.33,1.08-.55.63-.38,1.26-.75,1.9-1.12,1.26-.72,2.55-1.4,3.85-2.03,2.7-1.3,5.42-2.36,8.25-3.43,5.96-2.25,12.05-4.21,18.27-5.62,4.56-1.03,8.99-1.65,13.62-2.09,1.76-.17,3.53-.28,5.31-.27.9,0,1.8.05,2.69.12.45.03.89.08,1.33.13.18.02,0,0-.04,0,.06,0,.12.02.18.03.11.02.22.03.33.05.21.04.43.07.64.12.82.16,1.62.39,2.4.7.07.03.28.12.1.04.09.04.18.08.27.12.19.09.37.18.56.28.34.18.66.39.97.61.03.02.07.05.1.08-.02-.02-.14-.11-.02-.02.06.05.13.11.19.16.15.13.3.26.44.41.13.13.25.26.36.39.06.07.12.15.18.22.03.03.11.15.01.01.03.04.06.09.09.13.23.32.43.65.59,1,.04.09.09.18.12.27-.06-.14.04.11.05.14.07.2.14.4.2.6.14.42.25.85.32,1.29.12.67,1.19.51,1.18-.16h0Z"/>
        <path class="cls-2" d="M360.64,292.15c-.11.45-.21.9-.34,1.35-.14.49-.34.95-.49,1.4-.31.9-.6,1.79-.74,2.74-.34,2.2-.5,4.41-.76,6.62-.07.55-.09.74-.17,1.29s-.17,1.07-.27,1.61c-.19,1.08-.41,2.15-.65,3.22-.46,2.08-.98,4.16-1.5,6.23-1.01,4.06-1.91,8.15-2.99,12.2-.55,2.04-1.14,4.07-1.81,6.07-.5,1.49-1.09,2.96-1.59,4.45s-.96,2.97-1.49,4.43c-.12.33-.24.66-.36.99-.06.16-.12.32-.18.48-.03.08-.17.51-.06.17-.12.38-.35.67-.37,1.09,0,.08-.02.18,0,.25.02.13.04-.24.02-.11-.03.22-.05.45.09.64l.12-.96-.02.02c-.69.75.43,1.88,1.12,1.12l.02-.02-.96.12c.66.35,1.44-.24,1.74-.8s.55-1.12.78-1.7c.53-1.3,1-2.62,1.48-3.94,1.19-3.31,2.42-6.59,3.39-9.97,1.17-4.11,2.11-8.27,3.13-12.42s2.12-8.29,2.71-12.52c.35-2.47.48-4.96.73-7.44.07-.65.11-1,.23-1.61.11-.53.22-1.05.34-1.58.12-.55.18-1.12.22-1.72s0-1.14-.21-1.7c-.2-.51-1.01-.63-1.16,0h0Z"/>
        <path class="cls-2" d="M311.92,442.41c-1.52,2.38-3.04,4.77-4.34,7.28s-2.5,5.17-3.64,7.8c-2.32,5.34-4.46,10.75-6.59,16.17-1.06,2.69-2.14,5.38-3.26,8.05-.06.16-.13.31-.2.47-.03.08-.07.16-.1.23.02-.05.09-.2-.02.04-.15.35-.3.7-.44,1.04-.28.66-.57,1.31-.85,1.96-.57,1.3-1.16,2.6-1.76,3.88-1.14,2.45-2.27,4.89-3.28,7.4-.99,2.46-1.93,4.95-2.9,7.42-.49,1.24-.98,2.48-1.49,3.71-.02.04-.19.46-.1.24-.06.14-.12.29-.18.43-.14.32-.28.64-.42.97-.27.6-.54,1.2-.82,1.8-1.1,2.34-2.28,4.62-3.69,6.79-.34.52-.67,1.06-1.01,1.58-.66,1.01.89,2.24,1.69,1.31,1.7-2,3.05-4.29,4.26-6.61s2.33-4.9,3.36-7.41,1.98-4.99,2.97-7.49c.24-.61.49-1.22.74-1.83.12-.28.23-.57.35-.85.06-.14.12-.28.18-.42.1-.23.02-.06,0,0,.04-.11.09-.21.13-.32.5-1.18,1.02-2.34,1.58-3.49,2.51-5.22,4.74-10.56,6.86-15.95,2.12-5.37,4.14-10.79,6.31-16.14,1.07-2.63,2.11-5.07,3.32-7.72s2.29-5.15,3.51-7.78c.3-.64.63-1.27.95-1.89.39-.74-.67-1.35-1.11-.65h0Z"/>
      </g>
    </g>
    <g>
      <path class="cls-4" d="M430.45,419.44c-4.19,11.36-15.96,14.09-26.85,14.96-11.75.92-22.1.08-33.63-2.79-5.36-1.34-10.58-3.21-15.82-4.91-.28-.08-.53-.17-.81-.25-2.62-.84-5.27-1.62-7.87-2.46-1.9-.59-3.99-1.56-6.11-2.2-7.34,3.01-15.29,4.24-22.97,5.75-3.66.7-7.17.98-10.88.59-.2-.03-.42-.03-.67-.06-6.17,3.18-15.6,3.49-18.08-3.4-.64-1.81-.81-3.21-.47-4.38-3.88-.87-7.03-7.28-7.14-10.49-.06-1.73.78-3.15,2.04-4.33-1.06.25-2.04.33-2.71.11-2.54-.89-3.24-6.33-2.79-8.68.67-3.57,3.88-6.28,7.62-8.43-1.28.5-2.54,1.03-3.82,1.56-5.8,2.4-14.99,8.51-21.43,6-4.94-1.93-3.13-6.59.25-8.65,3.93-2.4,8.32-3.91,12.31-6.25,4.63-2.76,9.54-5.67,14.71-7.67-.64-2.18-1.42-4.63-1.67-5.67-1.09-4.07-2.46-8.23-3.54-12.34,3.1.89,7.31,3.99,9.27,4.74,3.68,1.48,7.26,3.24,10.94,4.6,7.65,2.9,15.71,2.65,22.91,7.23,4.49,2.85,8.93,5.67,13.14,8.82,3.46,2.62,7.56,6.28,11.89,7,.7.14,1.48.17,2.23.17,3.35.03,7.06-.87,10.19-1.17.61-.06,1.23-.14,1.84-.22-.59-2.32-.98-4.74-1.45-7.03-.14-.84-.31-1.62-.5-2.4-.64-2.71-1.34-5.41-1.95-8.15,1.48-1.03,3.01-1.93,4.63-2.71,9.43-4.49,20.46-7.9,30.62-10.13,5.22-1.17,14.65-3.4,20.93-1.62.92,2.34,1.9,4.69,2.82,7.06,3.6,8.93,7.09,17.97,9.4,27.35,2.34,9.57,7,20.82,3.46,30.45Z"/>
      <g class="cls-7">
        <path class="cls-16" d="M302.61,378.57c-.38-.24-.85-.42-1.3-.41-.5.01-.98.18-1.43.38-.88.39-1.56,1.1-2.29,1.72-.04.03-.08.07-.12.1.18-.16.08-.06.04-.03-.08.06-.16.12-.25.17s-.17.09-.26.14c-.15.08-.01,0,.02,0-.11.05-.22.09-.34.13-.64.23-1.31.4-1.97.54-1.31.27-2.64.46-3.93.8-1.46.38-2.77,1.06-4.1,1.75s-2.61,1.42-3.9,2.18c-2.52,1.49-5.04,3.06-7.3,4.94-1.15.96-2.2,2-3.1,3.2s-1.7,2.46-2.19,3.83c-.15.43.5.84.8.46.78-1,1.51-2.02,2.4-2.94s1.78-1.74,2.73-2.53,2.07-1.53,3.18-2.23c1.22-.78,2.43-1.56,3.68-2.29s2.51-1.44,3.78-2.12c.63-.33,1.25-.66,1.89-.98s1.16-.59,1.75-.79c2.51-.86,5.28-.84,7.69-2.03.94-.47,1.61-1.32,2.29-2.09.12-.13.22-.27.32-.42.01-.02.11-.15.05-.07s.07-.08.08-.1c.15-.17.3-.34.48-.48.29-.22.76-.41,1.2-.42.22,0,.3-.29.11-.41h0Z"/>
        <path class="cls-16" d="M297.62,396.96c-1.55.33-2.98,1.14-4.4,1.83s-2.85,1.37-4.29,2.02c-.73.33-1.46.67-2.19.99-.37.16-.73.32-1.1.48.25-.11-.06.02-.09.04-.06.03-.12.05-.18.08-.22.09-.43.18-.65.26-1.46.59-2.95,1.13-4.46,1.6-.83.25-1.66.48-2.5.69-.43.11-.86.2-1.28.33-.21.07-.41.13-.62.19-.32.09-.55.22-.79.45-.38.35-.32,1.12.17,1.35.27.12.5.21.8.21.18,0,.37-.02.55-.03.48-.03.94-.1,1.41-.2.75-.15,1.49-.34,2.23-.56,1.54-.44,3.06-.98,4.55-1.56,3.09-1.21,6.09-2.64,9.05-4.13,1.57-.79,3.23-1.51,4.6-2.64.28-.23.3-.71.13-1.01-.19-.33-.58-.46-.94-.38h0Z"/>
        <path class="cls-16" d="M302.5,412.8c-.36.05-.71.09-1.07.16s-.7.17-1.04.31c-.72.3-1.41.6-2.1.96-1.24.65-2.47,1.32-3.73,1.93-.62.3-1.25.61-1.89.87.29-.11-.02,0-.06.03-.09.04-.18.07-.27.11-.15.06-.3.12-.45.17-.36.13-.71.26-1.07.38-1.35.45-2.72.83-4.09,1.2-.77.21-1.53.44-2.29.69-.45.15-.92.27-1.34.49-.39.2-.75.48-1.09.76-.24.19-.27.6-.16.86.12.29.4.47.72.48.34,0,.67,0,1-.01.44-.02.88-.18,1.31-.29.7-.18,1.41-.33,2.1-.51,1.37-.37,2.74-.73,4.09-1.17,1.43-.46,2.84-1.01,4.19-1.68,1.25-.62,2.46-1.32,3.68-2.01.68-.39,1.36-.78,2.02-1.2.38-.24.76-.47,1.1-.77.29-.24.57-.5.85-.74.37-.32.09-1.09-.42-1.03h0Z"/>
        <path class="cls-16" d="M306.32,368.21c-.33-.2-.67-.43-1.04-.56s-.81-.19-1.21-.25c-.88-.14-1.74-.16-2.63-.13-1.8.05-3.59.28-5.36.58-1.65.28-3.29.63-4.92,1.01-1.84.43-3.68.91-5.46,1.54-1.03.36-2.08.74-3.07,1.21-.49.23-.97.49-1.44.76-.51.29-.91.69-1.28,1.14-.29.35-.14,1.03.41,1,.49-.03.95-.08,1.42-.22.44-.13.87-.33,1.31-.48.87-.31,1.73-.65,2.61-.95,1.75-.59,3.54-1.1,5.33-1.54,1.63-.4,3.26-.76,4.91-1.06.82-.15,1.64-.28,2.46-.4-.27.04.08,0,.11-.01.11-.01.21-.03.32-.04.18-.02.35-.05.53-.07.46-.06.92-.1,1.38-.14.93-.08,1.86-.07,2.79-.12.42-.02.84-.04,1.26-.03s.85-.11,1.27-.16c.54-.07.81-.75.29-1.07h0Z"/>
        <path class="cls-16" d="M393.24,383.27c-.28-.13-.59-.33-.89-.38-.27-.04-.55-.07-.83-.11-.65-.09-1.31-.08-1.97-.09-1.22-.03-2.43-.03-3.64,0-2.42.04-4.83.1-7.25.18s-4.81.19-7.21.32c-2.36.13-4.73.23-7.07.5-1.31.15-2.61.38-3.92.56-.22.03-.48.06-.81.1-.36.05-.59.09-.86.12-.62.07-1.24.21-1.86.28-.41.05-.76.28-.82.72-.05.39.18.83.59.91,1.12.23,2.21.3,3.35.18.61-.07,1.23-.15,1.84-.24.28-.04.55-.08.83-.12.13-.02.25-.04.38-.05.14-.02.04,0,.01,0,.11-.01.21-.03.32-.04,2.31-.29,4.65-.37,6.97-.51,4.83-.29,9.68-.47,14.52-.56,1.35-.03,2.71-.04,4.06-.09.7-.03,1.41-.02,2.11-.08.37-.03.73-.1,1.1-.15s.69-.23,1.04-.4c.4-.19.4-.86,0-1.05h0Z"/>
      </g>
    </g>
  </g>
  <g>
    <path class="cls-15" d="M344.25,146.47c.14-4.47-.42-10.05-3.04-13.79-2.46-3.52-5.92-4.74-7.31-9.32-1.31-4.24-2.51-8.01-4.8-11.89-3.18-5.44-8.4-8.65-14.18-10.77,1.76-1,3.35-2.23,4.66-3.88.95-1.2,5.25-7.59,2.43-8.23-1.45-.33-6.39,3.07-8.04,3.54-2.85.87-5.69,1.2-8.62.89-9.04-.89-16.38-6.59-25.09-8.85-7.76-2.04-16.83-2.29-24.5,0-4.55,1.37-9.1,3.52-13.03,6.25-2.04,1.45-3.88,2.96-5.64,4.8-2.71,2.82-4.86,6.22-7.37,9.21-16.35,13.73-35.69,27.15-34.27,50.29.2,3.27.84,6.33,1.84,9.32-.95,3.94-1.34,7.93-.73,12.03.38,2.44,1.03,4.56,1.89,6.51.04,2.2.22,4.41.42,6.59.35,3.81,1.8,7.89,3.64,12.81.28-3.66.72-5.88,1.32-8.58,1.39,9.57,4.94,18.74,13.48,24.19,1.81,1.14,3.74,1.93,5.75,2.4,1.42,2.09,2.76,4.16,3.88,6.5,1.12,2.34,1.79,5.39,3.32,7.45,2.43-2.43,2.51-7.03,2.79-10.21.17-1.79.2-3.49.11-5.19,2.57,4.8,5.92,9.21,9.54,12.36,5.39,4.72,12.53,6.73,19.62,5.72,1.9-.28,3.85-.59,5.75-1.14,4.24,2.26,8.51,4.38,12.31,6.87,1.09-2.82-.31-7.34-1.09-10.21-.45-1.56-.98-3.1-1.59-4.63,3.21,2.26,6.75,3.71,10.49,3.63,3.43-.06,7.17-.92,10.44-2.12,2.27-.83,4.18-1.95,5.9-3.25-.74,2.35-1.55,4.84-2.61,7.68,2.35-2.9,4.69-5.26,6.77-8.21.77-1.09,1.49-2.16,2.2-3.27,1.09-.61,2.12-1.33,3.09-2.14,2.85-2.37,6.64-5.53,8.65-8.65,1.26-1.95,1.84-4.41,2.12-6.95.11-.08.2-.17.31-.25,3.49-2.62,6.78-5.8,9.35-9.46,4.3-6.08,7.12-11.97,8.18-19.45.73-5.02-.22-9.71-1.84-14.43.7-1.51,1.37-3.01,1.76-4.63.78-3.13,1.62-6.34,1.73-9.54Z"/>
    <g class="cls-8">
      <path class="cls-2" d="M212.11,192.01c-.32,1-.52,2.01-.52,3.06s.06,2.09.19,3.12c.27,2.16.78,4.27,1.47,6.33,1.41,4.24,3.55,8.21,6.01,11.93,1.29,1.95,2.64,3.91,4.16,5.69.42.5,1.09-.14.85-.65-.84-1.82-1.91-3.52-2.86-5.29-1.01-1.89-2.07-3.75-3.08-5.64s-1.98-3.9-2.85-5.9c-.36-.82-.76-1.88-1.08-2.82-.34-1-.63-2.01-.88-3.04-.26-1.08-.46-2.18-.57-3.29s-.22-2.29-.33-3.43c-.03-.29-.43-.37-.52-.07h0Z"/>
      <path class="cls-2" d="M224.46,194.91c-.16,1.14-.28,2.25-.28,3.4s.02,2.29.14,3.43c.24,2.34.64,4.65,1.25,6.92,1.2,4.46,3.15,8.78,5.79,12.57.76,1.09,1.59,2.14,2.48,3.14s1.9,1.83,2.98,2.63c.29.21.74.08.93-.19.23-.31.18-.66-.06-.95-.71-.87-1.36-1.78-2.08-2.64-.39-.47-.61-.75-.93-1.18-.34-.46-.67-.93-1-1.4-1.27-1.82-2.38-3.76-3.34-5.77-.24-.5-.47-1.01-.7-1.52-.02-.05-.15-.36-.08-.18-.06-.14-.11-.27-.17-.41-.11-.26-.21-.52-.31-.78-.41-1.06-.79-2.14-1.13-3.22-.68-2.13-1.22-4.31-1.64-6.5-.24-1.23-.47-2.46-.66-3.7-.09-.59-.14-1.2-.25-1.79s-.23-1.23-.32-1.85c-.05-.31-.59-.31-.63,0h0Z"/>
      <path class="cls-2" d="M242.51,207.72c.08.41.06.81.11,1.22s.11.83.17,1.24c.11.77.27,1.52.44,2.28.35,1.55.87,3.09,1.5,4.55,1.24,2.88,2.83,5.63,4.85,8.03,2.18,2.58,4.83,4.7,7.76,6.37,1.52.87,3.09,1.66,4.61,2.53,1.44.83,2.82,1.74,4.15,2.74.09.07.19.14.28.21-.15-.11.13.1.14.11.19.15.38.3.56.45.38.31.75.62,1.13.93.76.63,1.53,1.25,2.28,1.91s1.45,1.29,2.16,1.96c.66.63,1.34,1.23,2.03,1.83.5.44,1.37-.13.97-.75-.45-.71-.92-1.38-1.47-2.02s-1.14-1.29-1.74-1.92c-1.19-1.25-2.41-2.45-3.73-3.56s-2.61-2.13-4.01-3.05-3-1.79-4.52-2.64-3.07-1.73-4.49-2.77c-.07-.05-.13-.1-.2-.15,0,0-.33-.25-.14-.1-.15-.12-.3-.24-.45-.36-.32-.26-.64-.53-.95-.8-.58-.52-1.14-1.06-1.67-1.62s-1.02-1.13-1.5-1.73c-.11-.14-.23-.28-.34-.42-.22-.28.14.19-.07-.09-.05-.07-.11-.14-.16-.22-.24-.32-.47-.64-.69-.96-.86-1.25-1.63-2.57-2.31-3.93-.38-.75-.74-1.52-1.09-2.29-.4-.85-.64-1.5-1.01-2.33-.35-.79-.68-1.59-1.03-2.38-.17-.39-.34-.78-.51-1.18-.18-.42-.41-.8-.54-1.24-.11-.34-.6-.2-.53.15h0Z"/>
      <path class="cls-2" d="M262.99,208.26c1.53,2.03,3.41,3.77,5.28,5.48.93.85,1.85,1.73,2.7,2.66.21.23.41.46.61.7.02.03.3.37.17.21.05.06.09.12.14.19.2.25.25.33.17.22-.04-.06-.03-.03.05.07.41.55.78,1.11,1.13,1.7,1.48,2.46,2.69,5.1,3.91,7.7.63,1.34,1.23,2.7,1.98,3.97.69,1.18,1.51,2.27,2.42,3.29,1.95,2.2,4.37,3.97,6.72,5.69.43.31.88-.35.55-.71-.88-.96-1.77-1.91-2.66-2.86-.45-.49-.89-.98-1.33-1.48-.2-.24-.4-.47-.6-.72-.24-.29-.42-.53-.61-.78s-.36-.45-.47-.6c-.2-.26-.39-.53-.57-.8-.36-.53-.72-1.07-1.04-1.62-.74-1.24-1.31-2.57-1.91-3.88-1.19-2.62-2.31-5.31-3.8-7.78-.72-1.2-1.53-2.38-2.51-3.39-.92-.95-1.94-1.79-3.01-2.56-1.16-.83-2.35-1.63-3.56-2.38s-2.34-1.63-3.37-2.63c-.19-.19-.56.07-.39.3h0Z"/>
      <path class="cls-2" d="M283.56,218.72c-.98-6.51-5.94-11.88-11.55-14.95-1.63-.89-3.33-1.6-5.1-2.16s-3.4-.84-5.1-1.27c-3.21-.81-6.09-2.07-8.94-3.73-3.21-1.86-6.24-4.04-9.23-6.23-.26-.19-.57.23-.34.44,1.22,1.16,2.45,2.31,3.72,3.43s2.54,2.08,3.87,3.03c2.67,1.92,5.56,3.53,8.64,4.68,1.62.61,3.3,1.01,4.95,1.52.83.25,1.64.53,2.45.84.19.07.38.15.57.23.02,0,.39.16.14.06.08.03.15.06.22.1.41.18.83.37,1.24.56,1.5.7,2.95,1.52,4.29,2.48.15.11.3.22.45.33.05.04.25.19.04.03.09.07.18.14.26.21.32.26.63.52.94.79.59.52,1.16,1.06,1.71,1.62.62.62,1.2,1.28,1.75,1.96.06.07.12.15.17.22.17.22-.07-.09.09.11.17.23.35.45.53.68.27.33.4.51.7.92,1.02,1.42,1.94,2.9,2.74,4.45.24.47.86.12.79-.33h0Z"/>
      <path class="cls-2" d="M217.74,168.49c-.23,2.8-.06,5.68.49,8.43.59,2.93,1.79,5.75,3.22,8.37s3.36,5.12,5.43,7.3,4.35,4.07,6.87,5.64c1.4.87,2.86,1.61,4.41,2.19,1.45.54,3.06.92,4.61.91.45,0,.7-.69.25-.91-1.29-.61-2.39-1.08-3.64-1.66s-2.41-1.22-3.56-1.93c-.61-.38-1.21-.78-1.79-1.2-.13-.1-.27-.19-.4-.29-.05-.04-.11-.08-.16-.12-.03-.02-.29-.22-.07-.06-.29-.22-.57-.45-.85-.68-1.08-.9-2.1-1.87-3.07-2.89-.51-.54-1.01-1.1-1.48-1.67-.22-.26-.43-.53-.64-.79-.11-.13-.21-.27-.32-.4,0,0-.21-.27-.08-.11.12.15-.12-.16-.14-.19-.86-1.14-1.66-2.33-2.39-3.56s-1.48-2.51-2.12-3.83c-.31-.63-.63-1.26-.92-1.9-.07-.15-.14-.3-.2-.46-.04-.09-.08-.18-.12-.27.02.04.09.22,0,0-.14-.34-.28-.68-.41-1.02-.56-1.47-1.13-2.94-1.6-4.44s-.71-2.96-.86-4.46c-.03-.28-.42-.29-.44,0h0Z"/>
      <path class="cls-2" d="M204.26,165.66c-.57,2.08-1.41,4.08-1.96,6.17-.52,1.98-.98,3.97-1.3,6s-.58,4.19-.61,6.31.04,4.17.53,6.17c.28,1.15.54,2.3.9,3.43.18.56.36,1.12.54,1.68.1.31.2.61.32.91.12.33.33.56.5.86.28.51.98.14.89-.37-.05-.28-.02-.56-.09-.84-.07-.27-.15-.53-.22-.8-.14-.53-.27-1.05-.37-1.59-.17-.96-.34-1.94-.39-2.91-.09-1.96-.2-3.93-.16-5.9.08-4.08.62-7.77,1.33-11.74.42-2.35.66-4.74,1.21-7.07.17-.73-.93-1.04-1.12-.31h0Z"/>
      <path class="cls-2" d="M209.29,164.24c-.52,2.09-.89,4.24-.9,6.4,0,.62.09,1.25.18,1.86.07.52.15,1.05.28,1.55.28,1.09.73,2.16,1.32,3.12.34.55.72,1.08,1.14,1.56s.96.85,1.49,1.2c.22.14.53.09.71-.09s.24-.5.09-.71c-.31-.41-.55-.86-.83-1.29s-.54-.88-.77-1.34c-.05-.1-.1-.21-.15-.31-.03-.06-.05-.11-.08-.17-.07-.15.03.08.04.09-.02-.03-.03-.07-.04-.1-.1-.24-.18-.48-.27-.72-.18-.49-.34-.98-.47-1.48s-.26-1.01-.37-1.53c-.05-.26-.1-.52-.14-.78-.02-.12-.04-.23-.05-.35-.02-.13.03.24.02.11,0-.03,0-.05-.01-.08,0-.07-.02-.15-.03-.22-.02-.2-.05-.4-.08-.6,0-.06-.02-.13-.03-.19,0-.04-.04-.3-.02-.11s0-.05-.01-.09c0-.06-.02-.13-.02-.19-.02-.14-.03-.27-.05-.41-.06-.53-.11-1.06-.14-1.59-.07-1.14-.06-2.29,0-3.44.02-.47-.7-.56-.82-.11h0Z"/>
      <path class="cls-2" d="M286.31,213.62c.54.98,1.18,1.91,1.88,2.78.67.82,1.39,1.63,2.22,2.29,1.81,1.42,3.91,2.42,6.15,2.96,4.39,1.05,9.19.48,12.98-2.06,1.06-.71,2.01-1.57,2.83-2.55.9-1.08,1.55-2.32,2.08-3.62.13-.31-.11-.7-.4-.81-.33-.13-.67-.01-.86.28-.6.91-1.27,1.63-2.06,2.45-.37.38-.76.74-1.17,1.08-.05.04-.4.31-.14.12-.1.08-.21.16-.31.23-.21.15-.42.29-.64.44-.43.29-.87.55-1.32.78-.22.11-.43.22-.65.32-.1.05-.22.08-.32.14.29-.17.1-.04.01,0-.07.03-.14.06-.21.08-.95.36-1.93.64-2.93.82-.11.02-.23.04-.34.06-.06,0-.13.02-.19.03-.22.03.1-.01.11-.01-.28.02-.56.07-.84.09-.51.04-1.02.05-1.54.05s-1-.01-1.5-.05c-.24-.02-.49-.04-.73-.07-.37-.04.25.04-.12-.02-.14-.02-.28-.04-.42-.07-1.01-.17-1.99-.45-2.97-.76-.48-.15-1.01-.3-1.46-.53.29.15-.09-.04-.16-.07-.12-.05-.24-.11-.36-.16-.24-.11-.47-.23-.7-.34-1.04-.5-2.09-1.07-3.02-1.76s-1.75-1.51-2.47-2.42c-.2-.25-.57.07-.43.33h0Z"/>
      <path class="cls-2" d="M277.67,125.92c.07-.73.08-1.47.04-2.2-.05-.83-.18-1.63-.39-2.43-.39-1.53-1.04-2.99-1.82-4.37-.38-.67-.79-1.33-1.29-1.92-.42-.49-.89-.94-1.39-1.35-1.04-.85-2.17-1.56-3.29-2.3-.3-.2-.59-.39-.88-.6-.14-.1-.28-.2-.42-.3-.03-.02-.06-.05-.1-.07-.15-.11.14.11.04.03-.07-.06-.15-.11-.22-.17-.57-.46-1.1-.97-1.57-1.53v1.35c.14-.11-.2.14-.05.04.04-.03.08-.05.12-.08.08-.05.17-.1.26-.14.1-.05.17-.02-.04.01.05,0,.1-.04.15-.05.12-.04.24-.07.36-.1.11-.03.21-.05.32-.07.05,0,.11-.01.17-.03-.26.07-.11.01-.03,0,.24-.03.49-.04.73-.05.49-.01.99,0,1.48.05.24.02.47.04.71.07.08.01.49.07.13.01.12.02.25.04.37.05.47.07.93.14,1.39.26.25.06.49.14.73.22.11.04.22.08.33.12.05.02.11.04.16.06-.32-.11-.06-.03,0,0,.39.18.76.4,1.1.65.17.12.34.24.5.37.08.06.17.12.25.19.16.12-.19-.15-.03-.03.06.04.11.09.17.13.44.35.85.75,1.31,1.08s1,.64,1.51.92c.58.32,1.1-.41.69-.89-.19-.22-.38-.44-.56-.67-.08-.1-.16-.2-.24-.3.08.11.02.03-.02-.03s-.08-.11-.12-.16c-.32-.43-.72-.81-1.09-1.2-.67-.71-1.4-1.34-2.27-1.79-.51-.26-1.04-.48-1.59-.62s-1.16-.22-1.75-.29c-.99-.12-1.99-.2-2.98-.16-.61.03-1.23.09-1.83.24-.52.13-1.07.34-1.5.66-.2.15-.38.32-.44.57-.05.23-.05.54.1.74.85,1.14,1.88,2.06,3,2.92.49.38,1,.74,1.5,1.11.25.18.49.36.74.54.07.05.13.1.2.15.15.12-.2-.16-.01,0,.13.1.26.2.38.31.48.4.95.83,1.37,1.29.11.12.21.24.31.36.05.06.09.12.14.17-.21-.26-.12-.15-.07-.09.08.11.16.22.25.32s-.1-.13-.09-.12c.03.03.05.07.08.1.05.07.1.14.15.21.1.15.2.3.3.45.38.61.73,1.24,1.05,1.88.16.33.32.66.46.99.02.05.04.09.06.14.06.14-.09-.22-.03-.07s.12.3.19.45c.08.18.16.36.24.54.03.06.06.19-.03-.06.02.05.04.09.06.14.04.1.08.21.12.31.08.2.15.39.22.59.08.23.14.46.24.68l.05.12c-.05-.12-.06-.14-.03-.07.02.06.04.12.06.17.03.09.07.18.1.28.27.78.48,1.59.6,2.41.04.29.39.47.66.43.31-.05.49-.28.52-.59h0Z"/>
      <path class="cls-2" d="M276.14,102.52c.73-.15,1.47-.17,2.23-.1.05,0,.09,0,.14.01.06,0,.24.04-.02,0,.08.01.15.02.23.04.18.03.35.06.53.1.34.08.67.19.99.32l-.23-.1c.68.29,1.32.66,1.91,1.11l-.24-.19c.4.31.75.66,1.11,1.01s.72.76,1.04,1.17l-.22-.28c.38.49.75,1,1.08,1.53s.63,1.1.91,1.66c.16.32.31.64.45.97l-.14-.33c.23.56.44,1.12.61,1.7.08.28.17.57.25.85.07.27.11.55.21.81.14.36.25.72.39,1.07l-.1-.24c.03.13.09.25.13.37.13.36.46.68.87.66s.74-.27.87-.66c.07-.22.11-.41.14-.64l-.04.27c.04-.13.05-.27.07-.4.03-.23.06-.46.09-.69.03-.29-.02-.6-.06-.9-.05-.41-.11-.82-.2-1.23-.08-.31-.16-.62-.26-.93-.42-1.36-1.01-2.67-1.78-3.86-.81-1.25-1.81-2.4-3.04-3.25-.58-.4-1.2-.72-1.85-.99-.28-.11-.56-.22-.85-.29-.36-.08-.73-.13-1.1-.17-.65-.06-1.32-.02-1.96.13s-1.26.45-1.84.8c-.15.09-.3.19-.44.29-.18.13-.07.4.15.36h0Z"/>
      <path class="cls-2" d="M291.24,101.23c.08.25.14.49.19.74s.09.5.14.75c.09.48.18.95.24,1.43l-.03-.21c.04.35.13.7.19,1.05.05.29.1.58.14.87l-.03-.24c.23,1.74.29,3.48.24,5.23-.02.57-.05,1.13-.11,1.69-.02.21.11.5.27.64s.32.22.52.25c.41.05.93-.2,1-.65.27-1.64.43-3.28.27-4.94-.08-.78-.19-1.57-.38-2.33-.09-.35-.18-.7-.29-1.04-.05-.18-.11-.35-.16-.52-.03-.08-.22-.56-.09-.26-.06-.13-.11-.27-.17-.4-.16-.39-.33-.77-.52-1.15-.1-.2-.21-.4-.32-.6s-.2-.42-.3-.64c-.08-.19-.36-.25-.54-.18-.19.08-.32.3-.25.51h0Z"/>
      <path class="cls-2" d="M295.29,116.1c1.37-.6,2.77-1.14,4.25-1.4.08-.01.17-.03.25-.04.04,0,.17-.02-.02,0-.28.04.19-.03.14-.02.11-.01.22-.03.33-.05.05,0,.37-.05.15-.02s.05,0,.11-.01c.07,0,.13-.01.2-.02.17-.01.33-.02.5-.03.3,0,.61,0,.91.02.14,0,.28.02.42.04.03,0,.06,0,.1.01.16.02-.32-.05-.16-.02.07.01.15.02.22.03,1.22.2,2.38.55,3.53,1.02.22.09-.29-.13-.07-.03.07.03.15.06.22.1.15.07.3.13.44.2.3.14.61.27.91.41.63.29,1.25.59,1.87.9.79.39,1.61.75,2.43,1.08s1.76.74,2.69.55c.44-.09.62-.65.41-1.01-.43-.75-1.26-1.16-1.97-1.6-.63-.39-1.27-.79-1.92-1.14-1.31-.7-2.62-1.41-3.99-1.97-1.25-.52-2.55-.93-3.9-1.08-.61-.07-1.23-.08-1.84-.03-.71.06-1.48.15-2.15.39-1.75.62-3.32,1.68-4.59,3.03-.37.39.09.91.55.71h0Z"/>
      <path class="cls-2" d="M313.95,123.17c-.21-.07-.5-.18-.64-.24-.26-.11-.49-.27-.72-.43-.43-.29-.9-.52-1.35-.78-.99-.58-1.97-1.13-3.07-1.47-2.23-.67-4.68-.78-6.99-.47-.69.09-1.41.16-2.09.33-.31.08-.63.15-.93.27-.36.15-.72.3-1.07.46-.31.15-.48.61-.38.93.12.37.42.57.79.6s.73.07,1.09.08.72-.02,1.07-.06c.72-.08,1.43-.14,2.15-.19,1.42-.1,2.83-.13,4.24.06l-.33-.04c1.39.19,2.74.54,4.07,1,.62.22,1.24.45,1.87.66.31.1.64.14.97.21s.66.16,1,.22c.31.05.63-.08.72-.41s-.11-.62-.41-.72h0Z"/>
      <path class="cls-2" d="M291.63,124.52c.11.17.22.33.33.51.05.08.1.16.14.24.06.11-.04-.09,0,.02.02.06.05.11.07.17.14.36.26.72.38,1.08.24.75.47,1.49.65,2.26.36,1.55.59,3.13.95,4.68.1.42.24.84.39,1.25.18.49.38.98.61,1.45.11.21.38.42.61.47s.45.04.67-.05c.45-.19.75-.72.59-1.21-.5-1.5-.86-3.05-1.29-4.57s-.87-3.18-1.59-4.65c-.19-.4-.43-.77-.69-1.13-.07-.09-.14-.19-.21-.28-.03-.03-.05-.07-.08-.1-.02-.03-.04-.05-.06-.08-.02-.03-.02-.02,0,0,.03.07,0,0,0-.01-.02-.03-.03-.05-.05-.08-.13-.2-.26-.39-.4-.57-.1-.13-.2-.23-.36-.28-.14-.04-.34-.02-.46.06-.26.17-.41.54-.22.82h0Z"/>
      <path class="cls-2" d="M268,121.86c-.57-.44-1.07-.96-1.54-1.5-.11-.13-.22-.26-.33-.39-.06-.07-.12-.14-.17-.22-.02-.03-.05-.06-.07-.09-.06-.08.06.08-.03-.05-.26-.34-.51-.68-.77-1.01-.45-.58-.89-1.18-1.4-1.73-.56-.6-1.16-1.15-1.82-1.65-1.39-1.05-3.05-1.74-4.72-2.19s-3.45-.65-5.2-.71c-1.93-.06-3.84.09-5.76.25-.49.04-.97.41-.95.95.02.51.42.95.95.95,1.68,0,3.36,0,5.03.07.82.03,1.64.09,2.46.18.04,0,.37.05.21.03s.17.02.21.03c.21.03.42.06.63.1.4.07.8.15,1.2.24.81.19,1.61.43,2.38.74.04.02.08.03.13.05.16.06-.18-.08-.02-.01.08.04.17.07.25.11.2.09.39.17.59.27.38.18.75.38,1.1.6.15.09.3.19.44.29.07.05.13.09.2.14.18.13-.02-.03-.03-.03.03,0,.11.08.13.1.29.24.57.49.85.75.52.5,1.04,1.01,1.54,1.53,1.15,1.17,2.36,2.35,3.82,3.14.26.14.58.09.76-.15.16-.21.19-.59-.05-.78h0Z"/>
      <path class="cls-2" d="M325.94,142.51c.33.48.62.94.85,1.48s.48,1.06.72,1.6c.21.47.37.85.57,1.39.19.51.39,1.02.57,1.53.36,1.04.67,2.1.92,3.18.12.53.22,1.06.31,1.6.02.12.04.25.06.38.01.09.06.41.02.15.02.14.03.29.05.43.02.13.03.26.05.39.02.12.03.22,0,.04.58,4.39.25,8.83-.63,13.1-.51,2.45-1.16,4.87-1.98,7.23-.08.23.28.37.39.16,2.14-4.05,3.74-8.37,4.44-12.91.71-4.57.57-9.34-1.12-13.7-.49-1.26-1.06-2.46-1.8-3.6-.36-.56-.73-1.13-1.19-1.62-.22-.23-.46-.45-.67-.69-.24-.26-.44-.56-.67-.84-.41-.5-1.27.16-.9.7h0Z"/>
      <path class="cls-2" d="M334.49,168.25c-.02,2.35-.51,4.68-1.11,6.94-.3,1.14-.67,2.26-1.05,3.38-.19.56-.39,1.11-.6,1.66-.1.27-.21.55-.32.82-.05.13-.1.26-.16.38,0-.02.05-.13,0,0-.04.08-.07.17-.11.25-.39.88-.82,1.74-1.31,2.57-.23.38-.48.76-.73,1.13-.13.18-.25.36-.39.53-.05.07-.17.22-.05.06-.08.1-.15.19-.23.29-1.08,1.34-2.33,2.56-3.6,3.72-1.58,1.44-3.14,2.88-4.63,4.41-.33.34-.34.91,0,1.25.36.36.88.3,1.25,0,2.85-2.36,5.94-4.52,8.32-7.39,1.23-1.49,2.28-3.12,3.07-4.89.97-2.18,1.66-4.53,2.13-6.86.28-1.37.5-2.76.54-4.16s0-2.73-.13-4.08c-.05-.58-.91-.6-.92,0h0Z"/>
    </g>
  </g>
  <g>
    <g>
      <path class="cls-2" d="M224.21,317.83c-1.17-.89-1.79-2.26-1.79-3.63,0-1.06.36-2.12,1.09-2.99.67-.78.98-1.7.98-2.6,0-1.76-1.14-3.46-3.07-3.91-2.12-.5-3.52-2.37-3.52-4.44,0-.42.06-.87.2-1.31.75-2.62-1.23-5.16-3.82-5.16l-.75.08c-.28.06-.56.08-.84.08-2.26,0-4.24-1.67-4.55-3.99-.28-2.12-2.07-3.52-3.99-3.52-.75,0-1.53.22-2.26.73-2.15,1.51-5.13.87-6.5-1.37-.78-1.28-2.09-1.93-3.4-1.93s-2.62.64-3.4,1.93c-.87,1.42-2.37,2.18-3.91,2.18-.89,0-1.81-.25-2.6-.81-.73-.5-1.51-.73-2.26-.73-1.93,0-3.71,1.4-3.99,3.52-.31,2.32-2.29,3.99-4.55,3.99-.28,0-.56-.03-.84-.08-2.54-.47-4.74,1.53-4.74,3.93,0,.39.06.75.17,1.14.14.45.2.89.2,1.31,0,2.07-1.4,3.93-3.52,4.44-1.93.45-3.07,2.15-3.07,3.91,0,.89.31,1.81.98,2.6.73.87,1.09,1.93,1.09,2.99,0,1.37-.61,2.73-1.79,3.63-1.06.81-1.59,1.98-1.59,3.18,0,1.45.78,2.9,2.29,3.6,1.65.81,2.62,2.46,2.62,4.16,0,.73-.17,1.48-.56,2.18-.33.61-.5,1.28-.5,1.93,0,2.04,1.62,3.94,3.91,3.99,2.51.06,4.47,2.12,4.47,4.6v.33c-.17,1.9,1,3.49,2.6,4.05.45.2.92.28,1.4.28.5,0,1.03-.08,1.53-.31.59-.25,1.17-.36,1.76-.36,1.87,0,3.63,1.17,4.3,3.07.61,1.7,2.2,2.68,3.8,2.68,1.03,0,2.09-.39,2.9-1.26.89-.95,2.09-1.45,3.32-1.45s2.4.5,3.32,1.45c.45.47.95.78,1.48.98.47.2.95.28,1.42.28,1.59,0,3.18-.98,3.8-2.68.67-1.9,2.43-3.07,4.3-3.07.59,0,1.17.11,1.76.36,1.9.78,3.91,0,4.88-1.53v-.03c.42-.61.67-1.31.67-2.12l-.03-.33v-.36c0-2.46,1.93-4.52,4.47-4.58,2.29-.06,3.91-1.95,3.91-4.02,0-.61-.17-1.28-.5-1.9-.39-.7-.56-1.45-.56-2.2,0-1.7.95-3.32,2.62-4.13,1.51-.7,2.29-2.15,2.29-3.6,0-1.2-.53-2.37-1.59-3.18Z"/>
      <g class="cls-12">
        <path class="cls-5" d="M193.59,318.46c.18-.13.29-.17.39-.35.12-.2.17-.56.17-.79.02-.54-.08-1.11-.17-1.64-.19-1.15-.63-2.28-.99-3.39-.89-2.69-1.51-5.46-2.16-8.22-.75-3.17-1.45-6.35-2.25-9.51s-1.69-6.3-2.45-9.46c-.84-3.51-1.53-7.05-2.25-10.58-.13-.64-1.09-.47-1.11.15-.06,1.62.03,3.22.26,4.83s.5,3.2.82,4.78c.65,3.15,1.44,6.28,2.26,9.38s1.54,6.29,2.31,9.44c.39,1.61.84,3.2,1.28,4.8.35,1.25.67,2.5,1.13,3.72s1,2.49,1.43,3.77c.19.56.4,1.12.54,1.7.06.24.11.48.18.72.05.19.1.3.23.46.09.11.02.03,0,.01.02.02.05.08.07.11.06.09.19.14.29.08h0Z"/>
        <path class="cls-5" d="M194.58,315.49c.14-2.81.52-5.62.98-8.39s.93-5.65,1.47-8.47,1.23-5.86,1.84-8.79c.55-2.62.81-5.27.92-7.94.06-1.48.13-2.95.24-4.43.05-.68.12-1.37.2-2.05s.24-1.34.32-2.02c.06-.5-.68-.63-.91-.25-.61,1.04-.93,2.34-1.17,3.52-.27,1.33-.45,2.67-.58,4.01s-.24,2.65-.36,3.98-.23,2.35-.48,3.62c-.59,2.98-1.32,5.92-1.9,8.9-.28,1.44-.48,2.88-.7,4.33s-.47,2.93-.63,4.41c-.34,3.22-.51,6.45.09,9.65.07.39.64.27.66-.09h0Z"/>
        <path class="cls-5" d="M194.21,318.81c2.2-4.85,5.33-9.2,8.04-13.76,1.5-2.53,2.95-5.09,4.5-7.59,1.28-2.07,2.46-4.2,3.72-6.28.71-1.18,1.43-2.36,2.21-3.5.37-.54.77-1.06,1.15-1.6s.78-.99,1.13-1.52c.29-.43-.26-.9-.68-.68-1.01.55-1.87,1.45-2.6,2.32-.82.97-1.6,1.99-2.29,3.06-1.34,2.05-2.55,4.17-3.83,6.26-1.53,2.5-3.01,5.03-4.49,7.56-1.38,2.36-2.83,4.69-4.19,7.07-1.49,2.6-2.92,5.33-3.66,8.24-.15.58.74,1.01,1,.42h0Z"/>
        <path class="cls-5" d="M198.45,318.42c.91-.79,1.93-1.42,2.94-2.07,1.06-.68,2.11-1.38,3.21-2s2.22-1.27,3.33-1.91,2.24-1.26,3.3-1.97c1.21-.82,2.39-1.69,3.45-2.69.36-.33.36-.98,0-1.31-.4-.37-.91-.33-1.31,0-.11.09-.23.19-.35.28-.18.14.14-.11-.04.03-.07.05-.14.11-.21.16-.25.18-.49.36-.74.54-.5.37-1.02.71-1.54,1.05-1.08.7-2.15,1.39-3.24,2.06s-2.2,1.31-3.25,2.04-2.16,1.51-3.17,2.36c-1.06.9-1.92,2.05-2.69,3.19-.14.2.15.39.32.25h0Z"/>
        <path class="cls-5" d="M227.1,314.32c-1.88.52-3.8.85-5.7,1.31s-3.7.88-5.57,1.22c-3.52.65-7.1.81-10.62,1.46-.96.18-1.9.39-2.83.66-.98.28-1.91.66-2.83,1.11-.57.28-.16,1.15.42,1,3.4-.85,6.87-1.26,10.34-1.7,1.8-.23,3.59-.45,5.37-.78s3.67-.82,5.47-1.34c2.09-.6,4.11-1.42,6.17-2.13.51-.18.31-.96-.23-.82h0Z"/>
        <path class="cls-5" d="M197.29,322.36c1.06.07,2.07.27,3.09.56s1.94.54,2.9.86c1.97.66,3.92,1.34,5.87,2.05s3.91,1.31,5.9,1.85,4.08.99,6.12,1.48c1.13.27,2.26.54,3.38.84s2.32.65,3.5.84c.33.05.67-.06.8-.39.12-.31.02-.68-.28-.85-.94-.54-1.99-.92-3.01-1.26s-2.04-.64-3.07-.93c-2.02-.55-4.05-1.1-6.09-1.6s-4.07-1.1-6.09-1.7-3.95-1.27-5.97-1.69c-1.17-.24-2.36-.49-3.55-.56s-2.33-.09-3.49-.07c-.37,0-.36.54,0,.57h0Z"/>
        <path class="cls-5" d="M194.71,323.14c1.77,1.61,3.53,3.24,5.39,4.74s3.85,3.04,5.83,4.5c3.83,2.82,7.86,5.57,11.55,8.44,1.07.83,2.13,1.68,3.17,2.53s2.15,1.73,3.24,2.58c.32.25.74.31,1.05,0s.26-.74,0-1.05c-.79-.92-1.6-1.79-2.5-2.61s-1.8-1.6-2.73-2.37c-1.91-1.57-3.86-3.08-5.86-4.53-3.93-2.85-7.96-5.56-11.99-8.27-2.24-1.51-4.52-2.98-6.66-4.63-.38-.29-.87.34-.51.67h0Z"/>
        <path class="cls-5" d="M195.09,320.49c2.46,7.7,5.47,15.21,7.97,22.9.7,2.15,1.35,4.32,1.99,6.49.23.8,1.37.46,1.23-.34-.72-3.99-1.96-7.87-3.31-11.69s-2.85-7.56-4.26-11.34c-.79-2.12-1.55-4.26-2.25-6.41-.28-.86-1.64-.5-1.36.38h0Z"/>
        <path class="cls-5" d="M191.22,334.88c-.16.73-.29,1.45-.38,2.2-.08.71-.17,1.41-.22,2.12-.1,1.48-.2,2.96-.26,4.45-.14,2.98-.36,5.96-.72,8.92-.03.21-.05.42-.08.62-.02.19.04-.28,0,.03-.03.2-.06.39-.08.59-.04.38-.08.75-.13,1.13-.1.78-.11,1.59-.15,2.38-.02.32.24.63.54.72s.71-.04.84-.34c.3-.69.56-1.39.8-2.1s.35-1.43.46-2.14c.24-1.53.43-3.07.54-4.61.22-3.01.33-6.04.26-9.06-.02-.81-.07-1.61-.13-2.42s-.17-1.66-.3-2.49c-.08-.5-.89-.48-.99,0h0Z"/>
        <path class="cls-5" d="M176.27,350.64c1.2-1.72,2.45-3.41,3.65-5.13s2.31-3.5,3.44-5.27c2.26-3.53,4.47-7.1,6.67-10.67,1.24-2.01,2.44-4.04,3.54-6.13.16-.3.1-.67-.18-.88-.25-.18-.68-.22-.89.05-2.64,3.34-4.89,6.97-7.1,10.6-1.09,1.79-2.18,3.58-3.23,5.4s-2.15,3.6-3.13,5.45c-1.12,2.08-2.18,4.19-3.32,6.25-.2.36.32.65.55.32h0Z"/>
        <path class="cls-5" d="M165.73,344.63c3.83-1.55,6.58-4.87,9.41-7.74,1.56-1.58,3.13-3.15,4.67-4.75s3.17-3.32,4.77-4.95c1.8-1.84,3.65-3.66,5.52-5.43.37-.35.38-1.02,0-1.36-.42-.39-.94-.34-1.36,0-3.57,2.83-6.71,6.14-9.82,9.45-1.55,1.65-3.1,3.29-4.66,4.93-1.38,1.45-2.7,2.96-4.05,4.43-.76.83-1.55,1.64-2.39,2.4s-1.6,1.47-2.48,2.11c-.2.15-.31.38-.21.63.09.21.36.39.59.29h0Z"/>
        <path class="cls-5" d="M190.57,316.63c-.86.77-1.95,1.3-2.98,1.79-1.12.53-2.14.91-3.32,1.33-2.32.83-4.71,1.46-7.05,2.21-1.15.37-2.29.77-3.45,1.11s-2.44.69-3.66,1.02c-2.52.68-5.05,1.33-7.52,2.18-1.41.48-2.79,1.04-4.12,1.72-1.26.64-2.57,1.39-3.47,2.51-.18.23-.26.51-.1.78.14.23.46.39.73.3,1.21-.43,2.34-1.05,3.5-1.59.13-.06.27-.12.4-.18.07-.03.13-.06.2-.09.02,0,.19-.08.05-.02.31-.13.61-.25.92-.37.59-.23,1.18-.46,1.78-.67,2.47-.89,5.01-1.56,7.55-2.24s4.83-1.37,7.22-2.18,4.72-1.45,7.02-2.36c1.36-.53,2.67-1.12,3.91-1.9,1.17-.73,2.16-1.62,3.14-2.59.5-.49-.25-1.22-.76-.76h0Z"/>
        <path class="cls-5" d="M155.71,313.8c2.04.17,4.07.49,6.09.8s4.08.71,6.1,1.14,4.09.86,6.14,1.24,4.1.8,6.17,1.09c1.2.17,2.4.33,3.61.42,1.14.08,2.32.18,3.46.01.53-.08.4-.8,0-.95-.95-.35-1.98-.52-2.97-.73s-2.02-.42-3.03-.63c-2.04-.41-4.09-.8-6.13-1.2-4.13-.82-8.28-1.46-12.48-1.81-2.32-.19-4.64-.19-6.96-.05-.43.03-.43.64,0,.67h0Z"/>
        <path class="cls-5" d="M158.58,296.38c1.43,1.76,3.06,3.39,4.85,4.78,1.92,1.49,3.93,2.87,5.97,4.19,1.93,1.25,3.88,2.48,5.76,3.81,2.25,1.59,4.58,3.05,6.94,4.49,1.3.8,2.59,1.61,3.9,2.4s2.76,1.51,4.15,2.22c.57.29,1.21-.44.71-.92-1.01-.94-2.06-1.8-3.15-2.65s-2.32-1.62-3.49-2.41c-2.28-1.52-4.55-3.05-6.81-4.61-.97-.67-1.93-1.36-2.92-2s-1.99-1.24-3-1.84c-2.02-1.22-4.07-2.4-6.05-3.69-2.12-1.38-4.25-2.8-6.02-4.61-.54-.56-1.31.26-.84.84h0Z"/>
        <path class="cls-5" d="M169.76,286.06c.3.6.6,1.21.91,1.8s.55,1.24.87,1.83c.64,1.19,1.3,2.37,1.97,3.55,1.32,2.33,2.73,4.61,4.12,6.91s2.71,4.45,4.21,6.59,3.06,4.15,4.62,6.19c1.78,2.33,3.52,4.69,5.24,7.07.28.39.78.59,1.23.32.43-.25.56-.81.32-1.23-1.29-2.26-2.78-4.38-4.3-6.5s-3.02-4.16-4.51-6.26-2.89-4.31-4.28-6.5-2.95-4.48-4.46-6.7c-.85-1.25-1.73-2.49-2.57-3.74-.43-.64-.92-1.24-1.34-1.87s-.82-1.29-1.22-1.93c-.32-.52-1.07-.06-.81.47h0Z"/>
      </g>
    </g>
    <g>
      <path class="cls-13" d="M196.77,350.93c-1.17,4.6-1.93,9.35-2.48,14.07v.03c-.25,2.18-.47,4.3-.67,6.42-1.12,11.83-2.04,23.64-2.04,35.53,0,1.87.59,3.91-1.67,2.65-2.12-1.17-3.82-3.82-5.36-5.67-2.18-2.62-4.44-5.05-6.73-7.51-2.82,1.76-5.5,3.82-7.95,5.97-3.18,2.79-6.2,6.36-9.54,8.87-1.65-3.82-.36-9.8-.11-13.9.45-7.51,1.81-14.96,3.38-22.33,2.12-9.99,4.66-20.07,9.38-29.22.45.2.92.28,1.4.28.5,0,1.03-.08,1.53-.31.59-.25,1.17-.36,1.76-.36,1.87,0,3.63,1.17,4.3,3.07.61,1.7,2.2,2.68,3.8,2.68,1.03,0,2.09-.39,2.9-1.26.89-.95,2.09-1.45,3.32-1.45s2.4.5,3.32,1.45c.45.47.95.78,1.48.98Z"/>
      <g class="cls-11">
        <path class="cls-15" d="M186.7,338.81c-.55.97-1.04,1.94-1.43,2.98s-.74,2.07-1.07,3.12c-.68,2.18-1.26,4.39-1.76,6.62s-.94,4.35-1.43,6.53c-.54,2.39-1.11,4.78-1.61,7.18-1.04,5.03-1.78,10.08-2.42,15.18-.32,2.52-.61,5.04-.81,7.57-.19,2.38-.3,4.76-.41,7.15s-.18,4.68-.12,7.02.23,4.67.84,6.89c.15.54.38,1.03.64,1.52.22.42.84.2.86-.23.03-1.09-.07-2.16-.16-3.25s-.12-2.26-.16-3.39c-.07-2.32.02-4.65.13-6.97.24-4.82.6-9.63,1.18-14.42s1.26-9.83,2.24-14.75c.92-4.61,1.93-9.2,2.85-13.81.44-2.22.9-4.45,1.4-6.66.25-1.08.51-2.16.81-3.23s.65-2.07.93-3.11c.14-.51.29-1.01.45-1.51.18-.56-.66-.91-.95-.4h0Z"/>
      </g>
    </g>
    <g>
      <path class="cls-3" d="M225.6,393.82c-4.83-4.77-10.07-9.01-15.15-13.51-2.09,3.4-3.52,7.37-5.64,10.63-1.84,2.82-3.35,6.03-4.44,9.24-1.56-4.47-1.84-9.82-2.6-14.48-.92-5.8-2.12-11.53-2.99-17.33-.17-1.09-.33-2.2-.5-3.35v-.03c.56-4.72,1.31-9.46,2.48-14.07.47.2.95.28,1.42.28,1.59,0,3.18-.98,3.8-2.68.67-1.9,2.43-3.07,4.3-3.07.59,0,1.17.11,1.76.36,1.9.78,3.91,0,4.88-1.53,1.34,3.68,2.29,7.59,3.49,11.22,1.28,3.82,2.26,7.76,3.35,11.67,1.59,5.75,2.79,11.64,3.91,17.47.56,2.99,1.93,4.49,1.93,9.18Z"/>
      <g class="cls-10">
        <path class="cls-15" d="M199.42,340.38c.03.18.04.38.1.55.06.18.17.36.24.54.15.35.28.71.4,1.08.24.73.56,1.44.82,2.16.55,1.55,1.04,3.11,1.45,4.71s.82,3.12,1.22,4.68.93,3.23,1.41,4.84c1.11,3.73,2.04,7.52,2.95,11.3s1.82,7.68,2.72,11.52c.5,2.16.99,4.33,1.57,6.48.29,1.08.56,2.15.92,3.21s.62,2.17,1.21,3.11c.23.37.79.21.81-.22.05-1.02-.22-2.04-.39-3.05s-.36-1.92-.56-2.88c-.41-1.95-.83-3.9-1.26-5.85-.84-3.88-1.65-7.77-2.53-11.65s-1.77-7.64-2.86-11.41c-.49-1.69-1.04-3.35-1.52-5.04-.45-1.58-.9-3.15-1.38-4.72-.55-1.8-1.2-3.58-1.98-5.3-.37-.81-.77-1.67-1.32-2.38-.27-.35-.55-.7-.84-1.05-.13-.16-.27-.33-.41-.48s-.35-.24-.53-.35c-.13-.08-.26.05-.23.18h0Z"/>
      </g>
    </g>
    <polygon class="cls-14" points="201.55 322.41 203.75 334.49 192.98 328.66 182.18 334.49 184.38 322.41 175.51 313.95 187.68 312.33 192.98 301.25 198.28 312.33 210.42 313.95 201.55 322.41"/>
  </g>
</svg>