<?xml version="1.0" encoding="UTF-8"?>
<svg id="Layer_1" data-name="Layer 1" xmlns="http://www.w3.org/2000/svg" xmlns:xlink="http://www.w3.org/1999/xlink" viewBox="0 0 675.74 500">
  <defs>
    <style>
      .cls-1 {
        fill: #021f8b;
      }

      .cls-2 {
        fill: #f5f6dd;
      }

      .cls-3 {
        fill: #80abff;
      }

      .cls-4 {
        fill: #c2c4c5;
      }

      .cls-5 {
        fill: #e2f6eb;
      }

      .cls-6 {
        fill: #316bf6;
      }

      .cls-7 {
        fill: #ff7768;
      }

      .cls-8 {
        fill: #00003f;
      }

      .cls-9 {
        fill: #00003f;
      }

      .cls-10 {
        clip-path: url(#clippath-1);
      }

      .cls-11 {
        clip-path: url(#clippath-2);
      }

      .cls-12 {
        fill: #0332c6;
      }

      .cls-13 {
        fill: #e2e92d;
      }

      .cls-14 {
        fill: #28318c;
      }

      .cls-15 {
        clip-path: url(#clippath);
      }
    </style>
    <clipPath id="clippath">
      <path class="cls-14" d="M299.71,344.76c1.97-.06,3.52-1.12,3.42-3.27-.03-.51-.75-5.01-1.17-5.03,1.71.07,3.85-.38,3.99-2.4.12-1.66-.78-3.91-1.91-5.15,1.58-.01,4.64.44,4.77-1.81.18-3.05-3.08-4.91-3.19-7.73.21-.02.88-.07,1.05.1,3.56,3.59,7.36,7.02,10.93,10.52,3.88,3.78,8.5,7.04,13.02,9.99,3.7,2.42,7.73,3.91,12.22,3.7,1.61-.08,3.56-.04,4.98-.88.89-.52,1.8-1.04,2.56-1.76,1.38-1.32,2.36-3.34,1.91-5.28-.35-1.51-1.36-2.73-2.71-3.48-2.16-1.19-4.96-1.25-7.24-.35-.82-2.24-3.06-2.92-5.18-3.16-1.07-.11-1.84.06-2.89.16-1.49.13-1.39-.1-1.96-1.39-.98-2.21-2.13-4.36-3.53-6.35-.42-.59-2.02-2.18-2.15-2.77-.19-.91.93-2.45,1.22-3.32,1.19-3.54-1.65-2.84-4.12-3.46.53-1.2,2.39-3.37,1.68-4.73-.71-1.38-3.33-.64-4.63-1.14-1.78-.69.26-1.67-.37-3.35-.59-1.62-2.93-1.67-4.14-2.65,2.73-1.75.67-3.32-1.09-4.78.71-.56,1.41-1.14,2.1-1.72,1.3.4,2.69.59,3.8.59,2.05.02,4.14-.18,6.16-.45,2.32-.32,4.7-1.07,6.97-1.28,2.48-.24,5.18,2.2,7.81,3.24-.95,8.1.38,15.6,5.82,22.36,2.02,2.52,4.04,5.34,6.38,7.66,1.66,1.65,3.53,3.08,5.12,4.81.53.57,1.36,1.3,1.52,2.05.04.2.03.41-.04.61-.38,1.02-1.65,1.93-2.46,2.6-4.1,3.45-8.33,6.79-12.72,9.87-2.47,1.74-5.26,3.44-8.27,4.04-1.92.37-3.98.4-5.68,1.35-2.23,1.27-5.69,6.77-4.83,9.36.93,2.76,8,2.74,10.28,2.82,3.98.16,6.93-.27,10-2.89.34-.29.66-.59.96-.9.79.06,1.59.11,2.4.03,1.27-.13,2.52-.32,3.78-.5,1.67-.22,2.26-.06,3.62-1.22,1.3-1.11,2.34-2.37,3.45-3.7,3.43-4.1,8.08-7.23,12.22-10.5,3.14-2.48,10.21-5.68,9.6-10.42-.53-4.09-4.95-7.7-7.54-10.6-1.72-1.92-2.92-4.23-4.67-6.09-.85-.91-1.65-1.84-2.44-2.79,1.31-.32,2.58-.72,3.74-1.3.16-.95-.42-1.92-.83-2.81,2.53-.21,5.15.21,7.68-.02,3.32-.29,2.12-1.84,1.81-4.22,3.88,1.47,8.67-.61,11.86-2.76-.77-.16-2.5-.96-3.14-1.43,2.44,0,9.59-2.29,10.04-4.99-.67-.37-1.47-.63-2.23-.96,1.52-.42,3.93-1.96,4.6-3.58.77-1.88-1.09-2.97-2.31-4.18,1.52-.27,2.61-1.14,2.79-2.69.26-2.28-1.39-3.13-2.36-4.81.93-.95.83-2.05.74-3.32-.05-.59-.11-1.22-.19-1.86,2.31,1.97,4.75,3.7,7.41,4.91,1.56.71,5.11,2.55,5.72-.18,2.23.95,3.86,2.98,6.48,3.49,2.47.48,2.48-.91,3.4-2.55,2.05,1.12,10.95,6.43,10.4.72,3.25.16,6.2,2.2,9.67,1.46,2.42-.51,4.49-1.7,3.58-4.22,1.72.43,9.03.55,7.86-2.58,3.74-1.67,8.56.27,12.25-2.16,2.74-1.81,4.79-4.63,3.24-7.76,2.98-1.39,6.41-1.7,9.06-3.9.88-.74,4.54-5.15,1.92-5.47.48-1.44,3.11-2.52,4.12-3.78.96-1.19,1.68-2.82,1.97-4.31.53-2.71.64-5.5-2.79-6.01,1.07-2.81,3.14-5.13,3.43-8.29.27-2.98-1.96-2.44-3.99-1.39,1.25-1.75,2.31-3.62,3.06-5.79.32-.93,1.68-3.62.67-4.52-1.14-1.03-3.48,1.75-4.22,2.55-6.25,6.73-13.03,13.21-20.01,19.14-10.9,9.28-23.21,16.91-37.77,19.05-7.92,1.17-16.08-1.3-22.54-5.92-7.13-5.1-11.35-13.11-17.6-19.13-5.21-5.02-11.22-9.51-18.23-11.67-14.53-4.49-30.35-2.98-45.29-1.59-8.1.77-16.37,2.48-23.81,6.03.79-1.81,1.12-3.64.29-4.44-2.87,1.46-5.56,3.06-8.72,3.88-2.65.69-5.1,1.25-7.81,1.51-6.43.63-12.28-3.24-17.72-6.16-1.62-.87-3.17-1.91-4.73-2.95.59-.16,1.17-.35,1.73-.56,1.06-.38,2.5-.83,2.04-2.15-.55-1.52-2.82-1.54-4.02-2.2,1.04-.64,2.29-.58,3.43-.87,1.27-.32,2.36-1.07,3.38-1.91,1.33-1.07,3.58-4.57.46-5.02.69-.66,8.64-5.4,4.94-6.09-1.89-.37-4.06.3-5.96.46-1.22.11-2.47.21-3.7.26.27-.75.11-1.51-.88-1.88.64-1.07,7.57-5,3.69-6.4-.99-.35-2.66.19-3.66.38-1.52.29-3.01.4-4.57.46-3.56.14-7.07.06-10.6-.13-2.45-.13-4.95-.22-7.37.13-2.71.38-5.56,1.22-8.21,2.34-3.16-.67-6.46-.67-9.62-.03-5.96,1.2-10.76,3.91-15.02,8.21-2.48,2.52-4.91,6.04-8.26,7.28-3.75,1.39-7.84,1.31-11.82,1.38-1.78.03-3.58-.37-5.37-.17-2.05.22-3.37,1.43-3.87,3.44-.3,1.22-.18,2.49.02,3.71,2.6,16.4,25.39,17.03,36.79,10.16,1.47-.9,2.71-2.23,4.38-2.77,1.22-.4,1.97-.11,2.37.51.51.77.43,2.04-.02,3.09-.91,2.08-6.33,7.81-15.82,13.69-1.25.79-2.57,1.56-3.94,2.32-2.12,1.19-1.92,2.21-.64,2.89.46.24,1.06.43,1.73.58,1.75.37,4.14.69,5.88.18,3.56-1.01,6.48-3.32,9.54-5.19,1.49.99,2.63,3.17,3.67,4.6.98,1.35,1.7,2.89,2.52,4.36,1.52,2.77,2.58,6.14,1.96,9.33,1.19.14,2.5-.71,3.59-1.89.27.85.56,1.65.8,2.36.9,2.55,2,4.95,3.27,7.33,2.18,4.07,5.63,6.99,8.24,10.74,1.76,2.52,2.5-.53,3.24-2.21,1.99,3.48,3.96,6.64,7.1,9.25,3.17,2.65,7.09,4.06,10,7.1.72.77,1.92,2.87,2.32,1.2.19-.8-.38-2.08-.48-2.9.85,1.49,3.22,2.5,4.67,3.3,1.8,1.01,3.83,1.88,5.82,2.42,3.16.87,6.67,1.15,10.05.83.87.82,1.73,1.6,2.6,2.42,2.23,2.07,4.95,2.98,4.73,6.43-.42,6.54-1.19,13.08-2.28,19.56-.67,3.96-1.36,7.89-1.99,11.85-.46,3.01-1.38,5.27-4.34,6.56-3.38,1.46-7.95,2.66-10,6.04-.88,1.44-1.76,4.68-.61,6.06,1.67,1.97,9.92,1.43,11.93,1.46,2.98-.42,5.72-1.19,7.68-3.58,1.43-1.75,3.11-3.14,4.62-4.81,1.6-1.78.64-3.85,1.7-5.72.59-1.07,1.91-.85,2.42-1.56.67-.91-.5-3.29-.61-4.3Z"/>
    </clipPath>
    <clipPath id="clippath-1">
      <path class="cls-12" d="M568.19,377.56c-1.19-13.45-15.01-15.56-25.82-15.07-6.74.31-31.66-.06-38.44-.18-23.31-.41-82.89-1.35-106.3-.8-12.93.3-53.02.16-65.87.41-6.47.12-40.11.14-46.59.04-1.8-.03-10.09-.1-21.3-.17-1.78.51-3.46,1.27-4.87,2.41-2.3,1.86-4.54,5.33-5.62,8.09-3.52,9.01-.19,20.94,8.93,25.27,7.17-.01,14.34-.02,21.52-.01,9.75,0,46.45-.39,56.2-.24,6.94.1,13.9-.1,20.84-.08,13.48.06,81.35.17,94.85.13,13.97-.04,55.14.37,69.12.46,8.83.07,17.84.58,26.65-.47,9.58-1.14,17.59-9.67,16.7-19.78Z"/>
    </clipPath>
    <clipPath id="clippath-2">
      <path class="cls-4" d="M262.32,397.55c-11.8,0-39,.04-50.81.1-13.7.06-45.66-.35-59.35.43-4.05.23-19,.26-23.05.2-5.1-.08-9.94.46-14.42-2.51-11.1-7.38-8.76-26.22,2.75-31.94.39-.19.8-.38,1.21-.54,4.35-1.74,11.72-1.87,16.32-1.95,4.6-.08,99.22.22,128.92.44-1.78.51-3.46,1.27-4.87,2.41-2.3,1.86-4.54,5.33-5.62,8.09-3.52,9.01-.19,20.94,8.93,25.27Z"/>
    </clipPath>
  </defs>
  <g>
    <path class="cls-1" d="M225.33,128.29c-1.24,3-2.07,6.24-3.1,9.32-5.05,15.17-10.13,30.34-15.19,45.51-3.7,11.07-7.44,22.13-11,33.25-1.48,4.62-2.97,9.24-4.46,13.85-2.93,9.09-5.86,18.19-8.78,27.28-3.71,11.53-7.41,23.05-11.11,34.58-3.93,12.27-7.86,24.54-11.76,36.82-3.6,11.32-7.2,22.65-10.76,33.98-1.5,4.77-3,9.56-4.48,14.34-1.24,3.98-1.96,8.04-4.15,11.66-.83,1.38-1.67,1.84-3.1,2.41-2.01.8-4.08.64-6.15.36-.39-.06-.79-.13-1.19-.27,0,0-.03,0-.04,0-.89-.29-1.74-.77-2.25-1.56-.48-.73-.69-1.59-.91-2.43-.13-.55-.28-1.11-.34-1.67-.36-2.7.44-5.94,1.24-8.5.93-3.02,1.86-6.02,2.81-9.03,3.48-11.1,6.99-22.2,10.51-33.29,3.93-12.35,7.88-24.69,11.82-37.04,3.8-11.86,7.61-23.71,11.41-35.56,3.1-9.64,6.2-19.27,9.3-28.91,1.84-5.67,3.66-11.34,5.49-17.02,2.1-6.57,4.3-13.13,6.48-19.68,4.65-14,9.34-27.99,14.01-41.98,2.36-7.05,4.71-14.11,7.06-21.16,1.05-3.14,2.08-6.28,3.13-9.43,1.08-3.28,1.69-6.69,5.03-8.47,1.67-.89,3.9-1.59,5.79-1.42.73.08,1.39.25,1.98.51,0,0,.02,0,.03,0,1.94.88,3.16,2.71,3.77,4.9.89,3.24.13,5.72-1.07,8.64Z"/>
    <path class="cls-3" d="M222.61,114.75c-.59-.27-1.25-.44-1.98-.51-1.89-.17-4.12.52-5.79,1.42-3.34,1.79-3.95,5.19-5.03,8.47-1.05,3.15-2.08,6.29-3.13,9.43-2.35,7.06-4.7,14.11-7.06,21.16-4.67,13.99-9.36,27.98-14.01,41.98-2.18,6.55-4.38,13.11-6.48,19.68-1.83,5.68-3.65,11.35-5.49,17.02-3.1,9.64-6.2,19.27-9.3,28.91-3.8,11.85-7.62,23.7-11.41,35.56-3.95,12.35-7.89,24.69-11.82,37.04-3.52,11.09-7.03,22.19-10.51,33.29-.94,3.01-1.87,6.01-2.81,9.03-.8,2.57-1.6,5.8-1.24,8.5.07.56.21,1.12.34,1.67.22.85.44,1.7.91,2.43.51.79,1.36,1.27,2.25,1.56-2.08-.4-4.05-1.46-5.95-2.44-1.25-.64-2.48-1.36-3.41-2.41-2.34-2.63-1.04-6.36-.11-9.32.93-3.02,1.86-6.02,2.81-9.03,3.48-11.1,6.99-22.2,10.51-33.29,3.93-12.35,7.87-24.69,11.82-37.04,3.8-11.86,7.6-23.71,11.41-35.56,3.1-9.64,6.2-19.27,9.3-28.91,1.83-5.67,3.66-11.34,5.48-17.02,2.11-6.57,4.3-13.13,6.48-19.68,4.66-14,9.34-27.99,14.02-41.98,2.35-7.05,4.71-14.11,7.06-21.16,1.04-3.14,2.08-6.28,3.13-9.43,1.08-3.28,1.69-6.69,5.03-8.47,2.01-1.07,3.92-1.21,6.1-1.52,2.45-.35,4.85-.42,7.3.1.54.11,1.09.26,1.58.51Z"/>
  </g>
  <g>
    <g>
      <g>
        <path class="cls-14" d="M299.71,344.76c1.97-.06,3.52-1.12,3.42-3.27-.03-.51-.75-5.01-1.17-5.03,1.71.07,3.85-.38,3.99-2.4.12-1.66-.78-3.91-1.91-5.15,1.58-.01,4.64.44,4.77-1.81.18-3.05-3.08-4.91-3.19-7.73.21-.02.88-.07,1.05.1,3.56,3.59,7.36,7.02,10.93,10.52,3.88,3.78,8.5,7.04,13.02,9.99,3.7,2.42,7.73,3.91,12.22,3.7,1.61-.08,3.56-.04,4.98-.88.89-.52,1.8-1.04,2.56-1.76,1.38-1.32,2.36-3.34,1.91-5.28-.35-1.51-1.36-2.73-2.71-3.48-2.16-1.19-4.96-1.25-7.24-.35-.82-2.24-3.06-2.92-5.18-3.16-1.07-.11-1.84.06-2.89.16-1.49.13-1.39-.1-1.96-1.39-.98-2.21-2.13-4.36-3.53-6.35-.42-.59-2.02-2.18-2.15-2.77-.19-.91.93-2.45,1.22-3.32,1.19-3.54-1.65-2.84-4.12-3.46.53-1.2,2.39-3.37,1.68-4.73-.71-1.38-3.33-.64-4.63-1.14-1.78-.69.26-1.67-.37-3.35-.59-1.62-2.93-1.67-4.14-2.65,2.73-1.75.67-3.32-1.09-4.78.71-.56,1.41-1.14,2.1-1.72,1.3.4,2.69.59,3.8.59,2.05.02,4.14-.18,6.16-.45,2.32-.32,4.7-1.07,6.97-1.28,2.48-.24,5.18,2.2,7.81,3.24-.95,8.1.38,15.6,5.82,22.36,2.02,2.52,4.04,5.34,6.38,7.66,1.66,1.65,3.53,3.08,5.12,4.81.53.57,1.36,1.3,1.52,2.05.04.2.03.41-.04.61-.38,1.02-1.65,1.93-2.46,2.6-4.1,3.45-8.33,6.79-12.72,9.87-2.47,1.74-5.26,3.44-8.27,4.04-1.92.37-3.98.4-5.68,1.35-2.23,1.27-5.69,6.77-4.83,9.36.93,2.76,8,2.74,10.28,2.82,3.98.16,6.93-.27,10-2.89.34-.29.66-.59.96-.9.79.06,1.59.11,2.4.03,1.27-.13,2.52-.32,3.78-.5,1.67-.22,2.26-.06,3.62-1.22,1.3-1.11,2.34-2.37,3.45-3.7,3.43-4.1,8.08-7.23,12.22-10.5,3.14-2.48,10.21-5.68,9.6-10.42-.53-4.09-4.95-7.7-7.54-10.6-1.72-1.92-2.92-4.23-4.67-6.09-.85-.91-1.65-1.84-2.44-2.79,1.31-.32,2.58-.72,3.74-1.3.16-.95-.42-1.92-.83-2.81,2.53-.21,5.15.21,7.68-.02,3.32-.29,2.12-1.84,1.81-4.22,3.88,1.47,8.67-.61,11.86-2.76-.77-.16-2.5-.96-3.14-1.43,2.44,0,9.59-2.29,10.04-4.99-.67-.37-1.47-.63-2.23-.96,1.52-.42,3.93-1.96,4.6-3.58.77-1.88-1.09-2.97-2.31-4.18,1.52-.27,2.61-1.14,2.79-2.69.26-2.28-1.39-3.13-2.36-4.81.93-.95.83-2.05.74-3.32-.05-.59-.11-1.22-.19-1.86,2.31,1.97,4.75,3.7,7.41,4.91,1.56.71,5.11,2.55,5.72-.18,2.23.95,3.86,2.98,6.48,3.49,2.47.48,2.48-.91,3.4-2.55,2.05,1.12,10.95,6.43,10.4.72,3.25.16,6.2,2.2,9.67,1.46,2.42-.51,4.49-1.7,3.58-4.22,1.72.43,9.03.55,7.86-2.58,3.74-1.67,8.56.27,12.25-2.16,2.74-1.81,4.79-4.63,3.24-7.76,2.98-1.39,6.41-1.7,9.06-3.9.88-.74,4.54-5.15,1.92-5.47.48-1.44,3.11-2.52,4.12-3.78.96-1.19,1.68-2.82,1.97-4.31.53-2.71.64-5.5-2.79-6.01,1.07-2.81,3.14-5.13,3.43-8.29.27-2.98-1.96-2.44-3.99-1.39,1.25-1.75,2.31-3.62,3.06-5.79.32-.93,1.68-3.62.67-4.52-1.14-1.03-3.48,1.75-4.22,2.55-6.25,6.73-13.03,13.21-20.01,19.14-10.9,9.28-23.21,16.91-37.77,19.05-7.92,1.17-16.08-1.3-22.54-5.92-7.13-5.1-11.35-13.11-17.6-19.13-5.21-5.02-11.22-9.51-18.23-11.67-14.53-4.49-30.35-2.98-45.29-1.59-8.1.77-16.37,2.48-23.81,6.03.79-1.81,1.12-3.64.29-4.44-2.87,1.46-5.56,3.06-8.72,3.88-2.65.69-5.1,1.25-7.81,1.51-6.43.63-12.28-3.24-17.72-6.16-1.62-.87-3.17-1.91-4.73-2.95.59-.16,1.17-.35,1.73-.56,1.06-.38,2.5-.83,2.04-2.15-.55-1.52-2.82-1.54-4.02-2.2,1.04-.64,2.29-.58,3.43-.87,1.27-.32,2.36-1.07,3.38-1.91,1.33-1.07,3.58-4.57.46-5.02.69-.66,8.64-5.4,4.94-6.09-1.89-.37-4.06.3-5.96.46-1.22.11-2.47.21-3.7.26.27-.75.11-1.51-.88-1.88.64-1.07,7.57-5,3.69-6.4-.99-.35-2.66.19-3.66.38-1.52.29-3.01.4-4.57.46-3.56.14-7.07.06-10.6-.13-2.45-.13-4.95-.22-7.37.13-2.71.38-5.56,1.22-8.21,2.34-3.16-.67-6.46-.67-9.62-.03-5.96,1.2-10.76,3.91-15.02,8.21-2.48,2.52-4.91,6.04-8.26,7.28-3.75,1.39-7.84,1.31-11.82,1.38-1.78.03-3.58-.37-5.37-.17-2.05.22-3.37,1.43-3.87,3.44-.3,1.22-.18,2.49.02,3.71,2.6,16.4,25.39,17.03,36.79,10.16,1.47-.9,2.71-2.23,4.38-2.77,1.22-.4,1.97-.11,2.37.51.51.77.43,2.04-.02,3.09-.91,2.08-6.33,7.81-15.82,13.69-1.25.79-2.57,1.56-3.94,2.32-2.12,1.19-1.92,2.21-.64,2.89.46.24,1.06.43,1.73.58,1.75.37,4.14.69,5.88.18,3.56-1.01,6.48-3.32,9.54-5.19,1.49.99,2.63,3.17,3.67,4.6.98,1.35,1.7,2.89,2.52,4.36,1.52,2.77,2.58,6.14,1.96,9.33,1.19.14,2.5-.71,3.59-1.89.27.85.56,1.65.8,2.36.9,2.55,2,4.95,3.27,7.33,2.18,4.07,5.63,6.99,8.24,10.74,1.76,2.52,2.5-.53,3.24-2.21,1.99,3.48,3.96,6.64,7.1,9.25,3.17,2.65,7.09,4.06,10,7.1.72.77,1.92,2.87,2.32,1.2.19-.8-.38-2.08-.48-2.9.85,1.49,3.22,2.5,4.67,3.3,1.8,1.01,3.83,1.88,5.82,2.42,3.16.87,6.67,1.15,10.05.83.87.82,1.73,1.6,2.6,2.42,2.23,2.07,4.95,2.98,4.73,6.43-.42,6.54-1.19,13.08-2.28,19.56-.67,3.96-1.36,7.89-1.99,11.85-.46,3.01-1.38,5.27-4.34,6.56-3.38,1.46-7.95,2.66-10,6.04-.88,1.44-1.76,4.68-.61,6.06,1.67,1.97,9.92,1.43,11.93,1.46,2.98-.42,5.72-1.19,7.68-3.58,1.43-1.75,3.11-3.14,4.62-4.81,1.6-1.78.64-3.85,1.7-5.72.59-1.07,1.91-.85,2.42-1.56.67-.91-.5-3.29-.61-4.3Z"/>
        <g class="cls-15">
          <path class="cls-5" d="M220.5,224.75c2.01.33,3.91,1.99,4.66,4.06.98,2.7-.22,6.03,1.37,8.53,1.8,2.84,5.67,3.98,8.81,4.41,1.36.18,4.74-.53,5.79.28.64.5.18,1.54-.08,2.33-.37,1.15-1.19,1.98-1.72,2.97.86.44,1.91.54,2.86.63.7.07,3.24-.3,3.6.16.27.34-.04,2.16-.08,2.66-.11,1.19-.45,2.34-.9,3.44-.72,1.8-3.31,4.18-1.92,6.16,1.61,2.3,5,2.19,7.47,2.65,1.3.24,3.33.33,4.49.98,1.67.94.34,2.14-.54,3.17,3.98-.11,8.95,3.79,7.6,7.95-.66,2.04-1.26,2.96,1.25,3.85,3.28,1.17,6.98,2.4,8.01,6.2.39,1.43-.44,2.68-.44,4.07,0,1.14.67,2.38,1.23,3.34,1.27,2.18,3.11,3.99,4.96,5.68,2.68,2.46,4.39,3.54,6.94,6.06-1.88,1.95-4.56,2.14-6.91,1.98-6.8-.47-13.03-2.35-19.55-4.28-7.87-2.33-14.88-5.38-21.09-10.81-3.56-3.11-6.4-7.4-9.3-11.14-2.49-3.21-5.05-6.39-7.37-9.72-1.7-2.44-3.49-5.21-5.74-7.16-2-1.72-4.43-2.52-6.84-3.54-1.72-.73-3.42-1.61-4.88-2.78-2.18-1.75-3.35-3.96-4.95-6.18-2.38-3.28-5.99-4.52-9.53-6.22-4.16-2-11.87-5.96-9.63-11.8.92-2.39,2.55-2.6,4.63-1.74,1.8.74,3.55,1.9,5.49,2.27,5.34,1.01,9.81-2.45,15.11-1.95,1.81.17,3.59.8,5.41.85,3.97.1,5.67-3.77,8.06-6.14,1.12-1.11,2.45-1.44,3.74-1.23Z"/>
          <path class="cls-8" d="M271.95,293.31c-.03.08.01-.02.01-.03-.04.1-.07.16-.07.27,0,.09.04.2.07.29.07.18.17.34.26.51.06.12.13.25.2.37.09.14.2.27.3.4.39.52.8,1.03,1.22,1.53.8.94,1.63,1.86,2.52,2.71,1.59,1.53,3.36,2.85,5,4.32.45.41.91.82,1.33,1.25.2.21.41.42.61.63.24.24.44.51.74.67.19.1.4.11.59,0,.16-.09.31-.31.29-.5-.02-.21-.06-.39-.16-.57-.07-.12-.14-.23-.21-.35-.17-.27-.35-.52-.55-.77-.35-.42-.71-.83-1.1-1.22-.78-.79-1.65-1.51-2.52-2.21s-1.69-1.36-2.5-2.09c-.92-.83-1.78-1.72-2.6-2.64-.46-.51-.9-1.04-1.35-1.56-.23-.25-.44-.5-.7-.72-.13-.11-.25-.22-.38-.33-.1-.08-.25-.2-.38-.23-.12-.03-.23,0-.35.01-.13.02-.22.15-.26.26h0Z"/>
          <path class="cls-9" d="M184.24,215.07c1.69-.27,2.97,2.09,2.85,3.5-.17,1.97-2.78,3.3-4.4,3.93s-2.99.7-4.61.29c-2.09-.52-2.76-2.45-2.42-4.51s2.81-4.06,4.99-3.12l3.59-.09Z"/>
          <circle class="cls-8" cx="209.04" cy="214.01" r="2.53"/>
          <path class="cls-8" d="M225.29,240.33c1.03-1.62,1.47-3.61,1.64-5.49s-.08-3.75-.57-5.54c-.4-1.44-1.05-2.82-2.17-3.85-.97-.88-2.18-1.46-3.48-1.68-.75-.12-1.5-.17-2.25-.13-.42.02-.85.07-1.26.14s-.79.22-1.18.39c-.22.09-.32.41-.26.63.07.24.29.41.54.41.33,0,.66.02.99,0s.63-.04.95-.05.62,0,.92.02c.15,0,.29.02.44.04.03,0,.06,0,.1.01.14.02-.05,0-.07,0,.08.02.17.03.26.04.29.05.57.11.85.19s.55.2.83.29c0,0-.2-.09-.08-.03.03.01.06.02.08.04.06.03.12.06.19.09.13.06.26.13.38.21s.23.14.35.22c.06.04.11.08.17.12.05.04.13.12-.05-.04.03.03.07.06.11.09.22.18.42.37.61.58.1.11.18.22.28.33-.19-.21,0,0,.04.06.05.07.1.14.14.21.18.27.34.55.48.83.04.07.07.15.1.22.02.03.03.07.04.1.08.17-.06-.14-.01-.02.07.17.13.34.19.51.28.85.5,1.72.64,2.6.02.12.04.23.05.35-.03-.18,0,.08.02.13.03.23.05.46.06.69.03.41.03.83.04,1.24,0,.48,0,.96-.05,1.45-.02.24-.04.48-.07.73-.02.19-.06.43-.09.73,0,.06-.02.12-.03.25-.02.12-.04.24-.06.36-.04.27-.09.54-.13.8-.07.53-.17,1.05-.22,1.59-.03.3.4.37.54.15h0Z"/>
          <path class="cls-8" d="M213.11,225.52c-.07.05-.14.1-.21.14s-.13.08-.2.13c-.04.03-.07.06-.11.09l.1-.08c-.09.07-.18.13-.27.19s-.19.13-.29.19c-.2.13-.41.24-.63.35-.12.06-.25.12-.37.17l.13-.05c-.17.07-.34.14-.51.2-.08.03-.17.06-.25.08s-.16.06-.25.09c-.12.04-.25.08-.35.14-.13.07-.26.19-.29.35,0,.04-.02.1-.02.14,0,.13.06.23.14.33.1.12.27.17.42.17.09,0,.17-.02.25-.04s.17-.04.25-.06c.17-.05.34-.11.5-.18.21-.08.42-.17.62-.27.33-.16.65-.34.95-.55.11-.08.23-.17.33-.26.07-.07.14-.13.2-.2.03-.04.07-.08.1-.11.06-.07.1-.13.14-.2.05-.11.1-.22.15-.34v-.1s0-.06,0-.1c-.02-.08-.07-.14-.13-.19-.05-.04-.11-.06-.17-.07-.07,0-.17,0-.23.04h0Z"/>
          <g>
            <polygon class="cls-14" points="208.01 246.91 208.01 246.91 208 246.92 208.01 246.91"/>
            <path class="cls-14" d="M219.73,232.67c.05.16.03.07,0,0h0Z"/>
            <path class="cls-14" d="M219.92,233.36c-.01-.08-.04-.13,0,.06v-.02s0-.04,0-.04Z"/>
            <path class="cls-14" d="M218.88,231.81s.01.02.11.03h0s-.1-.03-.1-.03Z"/>
          </g>
          <path class="cls-8" d="M263.62,222.16c-.47.14-.97.06-1.45.11-.32.03-.65.04-.97.08.11-.01-.1.01-.1.01-.07,0-.14.02-.21.02-.15.01-.3.03-.46.03-.59.03-1.18.01-1.76-.05-.01,0-.23-.03-.07,0-.06,0-.13-.02-.19-.03-.14-.02-.28-.05-.42-.09-.11-.03-.22-.06-.33-.1-.05-.02-.1-.04-.16-.06-.07-.03-.07-.03.02.01-.03-.01-.06-.03-.09-.04-.29-.14-.62-.13-.86.11-.21.21-.28.6-.11.86.06.09.12.18.17.28.01.03.12.26.09.17.06.15.1.31.13.47-.02-.15,0,.04,0,.07,0,.08,0,.17,0,.25.02-.17-.02.08-.03.11-.02.06-.04.12-.06.18.05-.16-.04.08-.06.11-.03.05-.07.11-.1.16-.05.07-.05.07,0,0-.03.03-.05.07-.08.1-.06.07-.12.13-.18.19-.05.05-.1.09-.15.13.11-.09-.11.07-.13.09-.14.09-.29.17-.44.24.1-.05-.12.05-.15.06-.11.04-.21.07-.32.1-.2.06-.41.11-.62.15-.34.06-.74.09-1.16.09-.84,0-1.67-.07-2.51-.05-.53.01-1,.65-.65,1.14.06.08.12.17.17.26.03.05.12.27.07.13.02.07.04.14.06.21,0,.03.03.16.01.05-.01-.12,0,.05,0,.07,0,.08-.05.25,0,.07-.02.07-.04.14-.06.21-.03.12.07-.12-.02.04-.04.07-.09.14-.13.21.1-.16-.03.02-.06.06-.05.06-.11.11-.17.16-.1.09.1-.06-.06.04-.08.05-.15.1-.23.15-.07.04-.15.08-.22.11-.03.02-.14.06.01,0-.03.01-.06.02-.09.03-.17.06-.34.11-.51.15-.08.02-.16.03-.24.04.16-.02,0,0-.07,0-.21.01-.43,0-.64,0-.5-.02-.77-.06-1.23-.15-.9-.17-1.75-.47-2.6-.82.02,0,.08.03,0,0-.07-.03-.13-.06-.2-.09-.13-.06-.26-.12-.39-.18-.22-.11-.44-.21-.66-.33-.47-.24-.94-.51-1.39-.79-.28-.18-.67-.09-.86.17-.18.24-.21.67.05.88.85.65,1.72,1.25,2.69,1.72s1.98.8,3.03.98c.97.17,2.02.29,2.99.05.84-.21,1.63-.67,2.15-1.37.64-.87.52-1.99-.09-2.84l-.65,1.14c1.52-.05,3.05.18,4.54-.24,1.26-.36,2.58-1.19,2.83-2.58.15-.82-.08-1.62-.54-2.31l-.97.97c1.15.53,2.47.59,3.72.47.35-.03.7-.08,1.05-.14.31-.05.61-.18.9-.3.53-.22.93-.6,1.35-.98.08-.07,0-.21-.1-.18h0Z"/>
          <path class="cls-8" d="M243.79,230.91c-.09,0-.19.01-.29.01-.05,0-.1,0-.15,0-.05,0-.03,0,.06,0-.04-.01-.09-.02-.13-.02-.02,0-.05,0-.07,0-.02,0-.04,0-.06,0-.09,0,.15.03.04,0-.05,0-.09-.02-.14-.03-.1-.02-.19-.05-.28-.07l.16.07c-.15-.06-.22-.08-.38-.1l.18.02c-.34-.05-.66-.15-.98-.28l.19.08c-.44-.19-.87-.42-1.29-.65-.45-.26-.89-.55-1.3-.87l.18.14c-.23-.18-.46-.37-.7-.55l.18.14c-.53-.41-1.04-.86-1.53-1.33-.22-.22-.42-.45-.65-.66-.2-.19-.4-.38-.58-.58-.18-.19-.36-.37-.52-.56-.16-.18-.48-.22-.68-.09-.08.05-.15.12-.2.2-.07.11-.11.31-.06.43.26.63.6,1.24,1.03,1.78.46.59.96,1.14,1.5,1.66.61.6,1.29,1.12,2.02,1.57.38.23.78.43,1.2.59.39.15.79.23,1.21.28s.83.06,1.23-.07.73-.32,1.04-.59c.19-.16.05-.54-.21-.51h0Z"/>
          <path class="cls-8" d="M237.17,231.7c-.13-.1-.25-.21-.36-.32-.14-.13-.31-.23-.46-.35l.09.07c-.15-.11-.29-.23-.42-.36s-.28-.23-.41-.35c-.27-.24-.52-.5-.75-.77-.14-.15-.27-.31-.39-.48l.1.13c-.54-.7-1.01-1.46-1.48-2.22-.14-.22-.27-.45-.41-.68-.08-.13-.21-.24-.36-.28s-.34-.02-.47.06c-.29.19-.37.53-.22.83.47.91.95,1.81,1.58,2.61.29.36.59.71.93,1.02.2.19.42.36.64.52.18.14.37.28.58.38.27.13.55.25.84.35.06.02.13.04.19.06.09.03.18.03.27.04.14.02.27.03.41.03.15,0,.25-.21.13-.31h0Z"/>
          <path class="cls-8" d="M265.86,202.7c-.44.29-.9.42-1.4.57-.53.16-1.08.26-1.63.35-.22.04-.39.06-.68.08-.31.03-.62.05-.93.06-.53.03-1.06.03-1.6.05-1.4.04-2.8.19-4.2.24-1.53.06-3.07.05-4.6-.09-1.43-.13-2.84-.38-4.31-.65s-2.9-.51-4.36-.63-3.02-.07-4.51.21c-1.15.22-2.28.58-3.37.99-1.26.47-2.52,1.03-3.64,1.79-.56.38-1.11.82-1.59,1.3-.24.24-.45.5-.65.76-.09.12-.2.24-.27.38-.09.16-.13.35-.18.52-.06.23.04.49.25.62.23.13.47.06.66-.09-.06.05.1-.07.08-.06.08-.06.17-.11.24-.18.1-.09.18-.2.27-.3.19-.2.39-.38.6-.56.11-.09.21-.18.32-.27.18-.15-.12.08.07-.05.04-.03.08-.06.11-.08.25-.18.51-.36.78-.52.48-.3.97-.58,1.48-.83.27-.13.54-.26.81-.38.11-.05.23-.1.34-.15.23-.1-.15.06.07-.03.09-.04.18-.07.27-.11,1.04-.41,2.12-.77,3.22-1.03.76-.18,1.33-.27,2.09-.31s1.45-.04,2.18,0c.66.04,1.41.13,1.94.2.72.1,1.44.23,2.16.36,1.48.26,2.96.53,4.45.68,2.98.31,5.97,0,8.95-.23,1.27-.1,2.56-.16,3.81-.42.61-.12,1.22-.33,1.77-.64.52-.29.96-.76,1.3-1.25.13-.19-.13-.44-.32-.32h0Z"/>
          <path class="cls-8" d="M229.01,198.6c.08.14.19.25.31.36.13.12.26.25.41.34.31.2.64.37.99.49.65.24,1.32.46,1.98.67.36.11.72.24,1.07.38l-.19-.08c.33.14.65.32.96.49.36.2.73.39,1.09.59.73.41,1.46.83,2.14,1.31.19.13.37.26.55.39.09.06.17.13.26.19.14.11.3.15.46.2.27.08.58-.04.74-.25.18-.23.19-.53.06-.79-.07-.13-.13-.25-.23-.35-.08-.08-.17-.14-.25-.21-.2-.16-.41-.32-.62-.47-.33-.23-.68-.45-1.03-.66-.72-.43-1.45-.83-2.19-1.21-.33-.17-.65-.35-.99-.5s-.71-.29-1.08-.41c-.67-.22-1.36-.36-2.04-.53-.18-.05-.37-.11-.55-.14s-.36-.07-.54-.11c-.17-.04-.33-.07-.5-.1-.18-.04-.35-.08-.53-.11-.26-.03-.4.31-.29.5h0Z"/>
          <path class="cls-8" d="M270.27,207.81c-.36.38-.83.6-1.3.82-.03.01-.16.07-.13.06.03-.01-.1.04-.13.05-.16.06-.31.12-.47.2-.06.03-.12.06-.18.08-.03.01-.06.03-.09.04,0,0-.15.07-.06.03.08-.03-.01,0-.03.01-.03.01-.06.02-.09.04-.07.03-.14.05-.2.08-1.09.4-2.18.72-3.32.94-.29.06-.59.1-.88.15-.07.01-.14.02-.22.03-.11.02.15-.02.04,0-.04,0-.07,0-.11.01-.15.02-.31.04-.46.05-.62.07-1.24.11-1.86.15-1.18.06-2.36.1-3.54.11-.61,0-1.21.01-1.82.05-.28.02-.56.04-.84.08-.08,0-.16.02-.24.03-.25.03.16-.02-.08.01-.05,0-.1.01-.15.02-.13.02-.26.04-.39.06-.45.07-.46.85,0,.92.26.04.52.08.78.11.06,0,.11.02.17.02.14.02-.1-.01-.01,0,.03,0,.06,0,.08.01.17.02.33.04.5.06.55.04,1.1.08,1.65.09,1.2.03,2.4.06,3.59,0,2.51-.12,5.07-.42,7.37-1.51.57-.27,1.13-.66,1.57-1.13s.74-.98,1.11-1.47c.11-.15-.13-.33-.26-.2h0Z"/>
          <path class="cls-8" d="M266.62,216.23c-.17.08-.36.11-.54.15-.21.05-.43.09-.65.13-.19.04-.44.08-.57.09-.14.02-.28.03-.41.05-.06,0-.11.02-.17.03-.07,0-.08.01-.02,0-.04,0-.08,0-.11.01-.95.11-1.91.16-2.86.19-.88.03-1.76.04-2.65.06-1.25.03-2.5-.02-3.74-.13-.7-.06-1.41-.14-2.11-.23-.35-.04-.7-.09-1.04-.12s-.71-.05-1.07.03c-.28.07-.4.46-.17.66.49.43,1.18.6,1.8.76s1.3.29,1.96.37c1.3.17,2.6.27,3.91.25,1.97-.02,3.99-.18,5.9-.68.53-.14,1.04-.32,1.53-.55.23-.1.44-.22.65-.36.2-.13.36-.29.55-.42s.03-.42-.18-.31h0Z"/>
          <path class="cls-8" d="M234.35,221.04c.1.1.2.19.29.3s.15.2.22.32c.17.26.36.52.57.76s.4.45.63.66.47.41.71.61c.28.23.57.46.87.65.26.16.52.31.8.44.59.29,1.21.51,1.86.61.23.03.45.05.68.05.16,0,.33-.02.49-.04.23-.03.45-.06.67-.12s.42-.15.62-.24c.12-.06.22-.19.27-.31.05-.13.08-.29.03-.42-.03-.11-.09-.2-.17-.29-.1-.11-.31-.21-.46-.19-.5.05-1,.07-1.5,0l.21.03c-.2-.03-.4-.06-.6-.09l.22.03c-.61-.09-1.22-.27-1.79-.51l.19.08c-.32-.14-.63-.3-.95-.46s-.63-.33-.94-.51-.59-.39-.9-.56-.58-.33-.88-.49c-.16-.08-.34-.15-.49-.24-.08-.05-.15-.09-.23-.14s-.14-.11-.2-.17c-.16-.14-.4.09-.24.24h0Z"/>
          <path class="cls-8" d="M239.67,221.04c.36.19.71.39,1.07.58.33.18.66.38.99.56.64.35,1.32.7,2.02.93s1.37.38,2.07.46,1.51-.02,2.23-.17c.97-.2,1.89-.58,2.77-1.04.39-.2.53-.77.3-1.14-.26-.4-.72-.51-1.14-.3-.29.15-.58.28-.88.41l.2-.08c-.81.34-1.63.63-2.51.75l.21-.03c-.46.06-.93.07-1.39.07-.22,0-.44-.01-.66-.03-.11,0-.22-.02-.33-.04-.04,0-.13-.02.07,0-.02,0-.05,0-.07-.01-.07-.01-.14-.02-.2-.03-.96-.16-1.9-.41-2.84-.63-.61-.14-1.2-.36-1.8-.54-.16-.05-.26.19-.11.26h0Z"/>
          <path class="cls-8" d="M185.04,226.03l.07-.08c.27-.32.34-.82,0-1.14s-.79-.29-1.14,0l-.08.07c-.33.27-.3.87,0,1.15s.86.35,1.15,0h0Z"/>
          <path class="cls-8" d="M187.06,225.36s.02,0,.02,0l-.15.02c.08-.01.17-.01.25,0l-.17-.02s.06.02.09.03l-.16-.07c.09.04.17.09.27.11,0,0,.02,0,.03,0,0,0,.01,0,.02,0,.15.04.26.03.4,0,0,0,.02,0,.03,0,0,0,.01,0,.02,0l.18-.07c.05-.04.1-.08.15-.12.07-.07.12-.15.15-.24.05-.09.07-.18.06-.28l-.03-.2c-.03-.12-.1-.23-.19-.32-.09-.1-.22-.16-.36-.2-.14-.04-.29-.04-.43,0-.08.02-.17.05-.24.1-.09.06-.17.12-.25.2l.13-.1s-.04.03-.06.04c-.06.04-.12.09-.17.13-.04.03-.07.06-.1.1l-.08.11c-.04.06-.06.13-.06.2-.01.05-.01.1,0,.14,0,.07.02.14.06.2l.08.11.11.08c.06.04.13.06.2.06.07.02.14.01.21,0h0Z"/>
          <path class="cls-8" d="M184.95,228.7s.03.03.05.05c.09.09.19.15.31.18.12.03.25.03.37,0,.06-.02.11-.05.17-.07l.14-.11s0,0,0,0c0,0,.01,0,.02-.02.05-.05.09-.11.13-.16.06-.1.09-.21.09-.33,0-.12-.03-.23-.09-.33-.12-.2-.34-.33-.57-.33,0,0-.02,0-.03,0l.18.02s-.02,0-.02,0c-.07-.02-.14-.03-.21-.03-.13,0-.24.03-.35.09-.1.06-.19.14-.25.25,0,.02-.02.04-.03.06l-.06.15c-.03.08-.03.16-.01.24,0,.05.01.11.04.15.02.08.07.14.13.2h0Z"/>
          <path class="cls-8" d="M188.4,227.89l.14.07-.35-.46s.02.08.04.11c.03.1.09.19.17.26l.16.13c.06.04.13.06.2.08.14.04.29.04.43,0,.14-.04.26-.11.36-.21l.13-.17c.07-.13.11-.26.11-.41,0-.11-.02-.22-.07-.31-.03-.1-.09-.19-.17-.26-.1-.1-.22-.17-.36-.21-.14-.04-.29-.04-.43,0-.04.01-.07.02-.1.04-.1.03-.19.09-.26.17l-.13.16c-.04.07-.07.13-.09.21l.35-.46-.14.07c-.1.06-.19.14-.25.25-.06.11-.09.22-.09.35,0,.12.03.24.09.35.06.1.14.19.25.25h0Z"/>
          <path class="cls-8" d="M300.81,227.53c-.17.42-.4.82-.65,1.19-.13.19-.27.38-.41.56-.01.02-.03.04-.04.06-.05.06.03-.04-.01.02-.03.04-.07.08-.1.13-.09.11-.16.22-.25.34-.07.09-.13.18-.2.27-.02.03-.04.05-.06.08,0,0,.06-.08.02-.03-.05.06-.1.13-.15.19-.15.2-.29.4-.44.6-.07.09.07-.09-.03.04-.03.04-.07.09-.1.13-.07.09-.14.17-.21.25-.15.17-.31.34-.47.51-.18.18-.36.36-.55.54-.1.09-.19.17-.29.25-.05.04-.1.08-.15.12-.02.02-.04.03-.06.05-.13.11.12-.09-.02.01-.2.15-.34.33-.34.6s.14.45.34.6c-.18-.13.02.03.06.07.04.04.02.07-.04-.06.01.03.04.06.06.09s.03.07.05.09c0,0-.06-.17-.03-.07.02.07.04.14.05.21.03.14-.01-.18,0-.04,0,.04,0,.07,0,.11,0,.06,0,.12,0,.19-.02.2.03-.16,0,.04-.01.08-.03.15-.05.23-.04.14-.08.27-.13.4s.06-.14.02-.05c-.01.03-.02.06-.04.08-.03.07-.06.13-.09.19-.07.13-.14.25-.22.38-.04.06-.08.12-.12.17-.02.03-.05.07-.07.1.12-.18.05-.07.02-.02-.19.24-.41.45-.63.66-.11.1-.24.2-.35.3.19-.17,0,0-.05.03-.07.05-.14.1-.21.15-.26.18-.54.33-.82.48-.14.07-.28.14-.43.21-.07.03-.13.06-.2.09-.04.02-.08.03-.12.05.22-.1.07-.03.02-.01-.33.14-.67.24-1.01.37-.16.06-.32.12-.47.17-.12.05-.24.1-.36.15-.04.02-.18.07.02,0-.05.02-.1.04-.15.06-.31.13-.53.38-.48.74.04.3.33.62.66.58.38-.04.75-.1,1.12-.19.33-.08.65-.21.97-.33.69-.28,1.37-.59,1.99-1.01s1.2-.92,1.66-1.54c.4-.53.7-1.17.85-1.83.1-.43.13-.87.03-1.31-.11-.47-.41-.85-.8-1.12l.14,1.08c.77-.62,1.43-1.35,2-2.15.28-.39.52-.79.72-1.23s.36-.91.49-1.39c.14-.51.28-1.02.46-1.52.08-.22-.26-.31-.35-.1h0Z"/>
          <path class="cls-8" d="M295.44,239.26c-.04.21-.11.42-.19.62l.06-.15c-.05.13-.11.25-.15.38-.03.08-.06.17-.09.25l.07-.16c-.08.19-.18.36-.28.54s-.22.36-.34.52l.12-.15c-.28.36-.61.68-.98.96l.16-.12c-.57.44-1.2.8-1.87,1.08l.19-.08c-.4.17-.82.31-1.24.42-.2.05-.4.1-.61.15-.19.04-.39.07-.58.11s-.39.09-.59.12l-.16.07c-.08.04-.14.1-.18.17-.08.11-.15.25-.14.39,0,.12.03.23.09.33.07.13.24.27.39.3.28.06.58.12.88.1.32-.02.65-.05.97-.11.62-.12,1.21-.34,1.78-.59.53-.23,1.05-.5,1.52-.85.27-.2.54-.42.79-.65s.45-.49.66-.76c.21-.28.4-.59.53-.92s.19-.67.23-1.02l-.02.17c.01-.09.03-.17.02-.26,0-.03,0-.07,0-.1-.01-.12-.03-.23-.05-.34-.02-.14-.06-.28-.1-.41-.06-.18-.23-.34-.43-.33-.19,0-.39.13-.43.33h0Z"/>
          <path class="cls-8" d="M292.68,247.13c-.1.09-.2.17-.3.26-.05.04-.1.08-.15.12-.06.05.05-.04,0,0-.03.02-.05.04-.08.06-.05.04-.1.07-.15.11-.06.04-.12.06-.17.1-.11.07-.21.15-.31.23-.42.29-.86.55-1.31.79-.26.14-.53.27-.8.38l.16-.07c-.96.4-1.99.68-3.02.82l.2-.03c-.24.03-.47.07-.71.1l.19-.03c-.25.03-.5.06-.75.08-.19.01-.36.07-.49.2-.12.12-.21.32-.2.49.02.38.31.69.7.7,1.16,0,2.34-.18,3.42-.59s2.2-1.01,3.09-1.83c.11-.1.22-.21.33-.32.07-.07.13-.13.19-.21.03-.04.06-.09.09-.13,0,0,.02-.03.02-.04,0,.03-.06.08,0,.01.21-.27.4-.54.58-.83.08-.13.04-.31-.08-.4-.13-.1-.29-.08-.41.02h0Z"/>
          <path class="cls-8" d="M291.2,274.67c.67,1.49,1.37,2.97,2.06,4.46s1.41,2.98,2.3,4.38,1.79,2.86,2.68,4.29,1.69,2.84,2.65,4.18c.96,1.34,2.01,2.61,3.12,3.83.52.57,1.07,1.12,1.55,1.73.03.03.05.07.08.1,0-.01-.09-.12-.02-.03.06.08.12.16.18.24.12.16.23.33.34.49.21.31.4.63.58.95s.36.68.52,1.03c.02.04.03.08.05.12,0,.01.06.14.02.04s.01.03.02.04c.02.04.03.08.05.12.07.18.14.37.21.56.26.74.42,1.51.66,2.26.5,1.6,1.12,3.17,1.54,4.79.05.19.1.39.14.58.02.08.04.16.05.24,0,.03,0,.06.02.09.03.12-.01-.18-.01-.07s0,.23,0,.35c0,.16.05-.2.01-.06-.01.05-.03.11-.04.16-.03.13.1-.17.03-.07-.02.03-.05.08-.07.11-.02.06.14-.2.05-.07-.01.01-.03.02-.04.04-.08.1.17-.1.08-.06-.03.01-.06.04-.09.06-.12.08.12-.04.08-.03-.08.02-.18.04-.26.07-.02,0,.24-.02.05-.01-.04,0-.09,0-.13,0-.11,0-.21-.01-.32-.02-.15,0,.2.04.04,0-.05,0-.1-.02-.15-.03-.12-.02-.23-.05-.35-.08-.23-.07-.46-.15-.68-.24-.11-.04-.22-.09-.33-.13-.14-.06.14.06,0,0-.07-.03-.13-.06-.2-.09-.21-.1-.41-.21-.6-.32-.32-.19-.74-.1-.96.19-.21.27-.23.74.06.98.83.69,1.8,1.26,2.87,1.43.5.08,1.04.12,1.52-.07.58-.23,1.01-.66,1.18-1.27.2-.72.02-1.49-.14-2.19-.19-.84-.46-1.66-.74-2.47s-.57-1.64-.82-2.46-.41-1.6-.69-2.37c-.58-1.59-1.42-3.04-2.48-4.36-.51-.64-1.09-1.22-1.64-1.84s-1.08-1.23-1.59-1.87c-.12-.15-.24-.3-.36-.45-.03-.04-.05-.07-.08-.11.11.14.01.01,0-.01-.07-.09-.14-.19-.22-.28-.24-.32-.48-.65-.71-.98-.48-.7-.92-1.42-1.37-2.14-.93-1.51-1.86-3.03-2.86-4.5-.48-.71-.99-1.41-1.46-2.12s-.94-1.45-1.43-2.16c-.95-1.4-1.84-2.87-2.89-4.2-.26-.33-.54-.64-.83-.95-.13-.15-.33.04-.26.2h0Z"/>
          <path class="cls-8" d="M306.14,309.26c.11.51.35.99.59,1.45s.5.92.74,1.39.48.95.7,1.43c.11.24.22.49.33.73.03.06.05.12.08.18,0-.01-.07-.18-.02-.05,0,.02.02.04.03.07.05.13.1.25.15.38.19.53.35,1.08.43,1.64l-.03-.21c.04.31.05.62.01.92l.03-.21c-.02.15-.05.3-.1.44-.01.03-.02.06-.03.09-.05.13.08-.17.03-.07-.03.06-.06.12-.09.18s-.07.11-.11.17c-.02.03-.1.13,0,0s0-.01-.02.01c-.09.1-.18.19-.28.28-.03.02-.06.05-.09.07-.11.09.1-.08.06-.04-.06.04-.12.08-.17.13-.12.08-.25.16-.38.24-.27.16-.56.29-.83.45-.43.26-1.11.56-1.11,1.13l.08-.3c-.08.11-.1.24-.11.37l.07-.25s-.04.07-.05.11c-.13.31.03.6.36.63.04,0,.08.01.13,0l-.25-.07c.12.06.24.1.38.09l-.3-.08c.19.12.45.13.65.06.05-.02.1-.04.14-.06.02,0,.04-.02.06-.03l.17-.07c.05-.02.04-.02-.02,0-.13.06.04-.02.07-.03.04-.02.08-.03.12-.05.14-.06.29-.11.43-.18.33-.15.65-.33.96-.52.32-.2.64-.43.91-.7.31-.32.53-.67.69-1.08.36-.9.17-1.96-.08-2.87-.32-1.11-.81-2.21-1.46-3.17-.35-.52-.73-1.03-1.11-1.52-.21-.27-.42-.54-.64-.8-.1-.12-.23-.21-.34-.31-.12-.11-.24-.21-.37-.3-.2-.14-.43.09-.39.3h0Z"/>
          <path class="cls-8" d="M308.08,300.11c.11.03.22.06.34.06.08,0,.17,0,.25-.01.22-.01.43-.06.65-.11.31-.08.64-.16.94-.28.69-.27,1.39-.57,2.04-.93,1.2-.66,2.34-1.42,3.46-2.21.2-.14.4-.3.59-.46.14-.11.3-.22.43-.35.07-.07.12-.14.18-.21.08-.1.19-.2.26-.32.06-.1.12-.24.14-.35,0-.03,0-.07.01-.1,0,0,.02-.21.01-.09,0,.08,0,0,0-.02.06-.27-.12-.47-.38-.5-.05,0-.11-.04.01,0-.02,0-.05,0-.07-.01-.11-.02-.2-.03-.3-.02s-.22.02-.32.06c-.08.03-.15.06-.23.09-.18.07-.36.15-.53.25-.13.08-.26.16-.39.25-.51.32-1,.68-1.5,1.01-1.04.68-2.1,1.31-3.21,1.88-.3.16-.61.3-.92.44s-.6.29-.9.42l.19-.08c-.2.08-.39.16-.58.26-.06.04-.13.07-.19.11-.1.06-.18.15-.27.23-.32.3-.16.87.26.98h0Z"/>
          <path class="cls-8" d="M317.07,295.04c-.11.1-.04.03,0,0,.02-.02.05-.03.07-.04.09-.05.17-.11.25-.17l-.12.09c.07-.06.15-.11.23-.16.04-.02.08-.05.12-.07.09-.05.17-.13.25-.19l-.14.11c.19-.14.38-.27.58-.4s.39-.29.59-.43c.4-.28.81-.56,1.17-.89.76-.69,1.59-1.32,2.26-2.11.22-.26.44-.53.62-.82.11-.16.19-.34.25-.52.05-.16.07-.35,0-.52-.03-.09-.07-.17-.11-.26l-.09-.11c-.05-.05-.11-.09-.18-.11-.11-.05-.24-.06-.35-.03-.05.01-.09.03-.14.04-.14.04-.28.12-.38.23-.02.03-.05.06-.07.08-.15.16-.27.35-.4.53l.12-.16c-.37.48-.82.91-1.25,1.33s-.86.79-1.29,1.19c-.2.18-.4.36-.61.52l.16-.12c-.38.3-.77.58-1.16.87-.17.13-.31.29-.46.44-.07.07-.14.15-.2.23-.1.12-.17.24-.24.38-.06.12-.14.26-.16.39-.02.13-.03.25-.04.38-.01.16.11.31.25.37.16.07.32.03.44-.08h0Z"/>
          <path class="cls-8" d="M357.68,258.71c-.3.27-.61.53-.91.8s-.54.65-.8.98c-.53.69-1.02,1.41-1.52,2.12-.95,1.37-1.88,2.76-2.79,4.17-1.73,2.69-3.15,5.56-4.57,8.43s-2.81,5.75-3.93,8.75c-.55,1.48-1.04,2.99-1.42,4.52-.36,1.42-.61,2.87-.87,4.32-.54,2.94-1.04,5.94-.48,8.92.06.33.14.65.23.97.07.25.32.41.57.37.23-.03.48-.25.45-.51-.18-1.38-.1-2.8.04-4.19.02-.17.04-.35.06-.52.01-.09.02-.17.03-.26.01-.09,0-.03,0,0,0-.06.02-.12.02-.17.03-.22.06-.43.09-.65.01-.09.02-.17.03-.26,0,.02-.01.1,0,0,0-.06.02-.12.02-.17.1-.73.23-1.47.36-2.2.26-1.41.5-2.82.82-4.21.35-1.52.81-3.01,1.32-4.48,1.03-2.92,2.27-5.61,3.68-8.42,1.43-2.84,2.82-5.71,4.48-8.43.86-1.4,1.78-2.75,2.67-4.13.44-.69.88-1.37,1.33-2.06s.98-1.44,1.29-2.23c.14-.36.27-.73.4-1.1s-.36-.58-.62-.36h0Z"/>
          <path class="cls-5" d="M340.91,345.99c-.52.26-1.05.51-1.58.75-2.18.99-4.44,1.67-6.71,2.39-1.06.34-2,.71-2.97,1.27-1.6.91-2.62,2.6-3.62,4.08s-2.26,4.13-1.61,5.97c1.07,3.02,7.14,3.73,9.72,4.42,4.45,1.19,8.97,1.04,13.42-.18,2.22-.61,3.34-2.58,5.27-3.56s4.17-.68,5.97-1.96c2.25-1.6,3.67-4.23,5.42-6.3,1.27-1.5,2.24-3.5,3.96-4.55-1.16-.12-2.58-1.26-3.48-1.97-.98.97-2.26,1.8-3.46,2.44-.02-.54-.4-.62-.79-.91-.76-.58-1.16-.95-1.69-1.77-1.35-2.1-2.83-1.03-4.93-1.33s-3.26-2.05-5.46-2.08c-1.47-.02-2.56.74-3.82,1.41s-2.41,1.28-3.63,1.89Z"/>
          <path class="cls-8" d="M348.3,360.97c.26-.13.55-.25.77-.44s.42-.38.62-.58c.39-.39.75-.81,1.12-1.21.78-.85,1.67-1.61,2.54-2.36s1.86-1.54,2.78-2.31,1.83-1.55,2.77-2.3c1.85-1.46,3.83-2.91,5.74-4.39.95-.74,1.89-1.49,2.81-2.28.35-.3.7-.6,1.06-.89.09-.07.18-.14.27-.22.04-.03.07-.06.11-.09,0,0,.18-.14.08-.06s.09-.07.08-.06c.04-.03.08-.06.11-.09.11-.08.21-.16.32-.24,1.6-1.2,3.25-2.35,4.77-3.66.7-.6,1.38-1.25,1.98-1.95s1.19-1.47,1.57-2.33c1.65-3.74-1.64-7.39-3.99-9.95-1.48-1.6-2.9-3.26-4.26-4.97-.08-.11-.17-.21-.25-.32-.05-.06-.09-.12-.14-.18.11.13,0,.01-.01-.01-.18-.24-.37-.48-.55-.72-.35-.47-.69-.94-1.03-1.42-.66-.95-1.3-1.91-1.9-2.9-.3-.49-.58-.98-.86-1.49l-.85,1.49c.62-.03,1.25,0,1.87.03.71.04,1.41.06,2.12.1.75.05,1.5.08,2.24.08.35,0,.71,0,1.06-.03.23-.02.46-.06.69-.1.08-.01.16-.03.24-.05h-.04c-.12,0-.06,0,.18-.03.04,0,.09-.01.13-.02.37-.06.72-.15,1.08-.28s.7-.32,1.05-.49c.32-.16.41-.62.24-.92-.19-.33-.59-.4-.92-.24.12-.06-.05,0-.09.02-.07.02-.13.04-.2.06-.15.04-.3.08-.45.1-.07.01-.15.02-.22.04-.04,0-.15.02.02,0-.03,0-.06,0-.1.01-.08.01-.16.02-.24.03.24-.04-.11.02-.13.02.18-.02-.05,0-.12.01-.34.03-.67.02-1,.01s-.7.02-1.05,0c-.72-.01-1.45-.06-2.17-.12s-1.4-.15-2.1-.2-1.38-.08-2.07-.05c-.75.04-1.23.81-.85,1.49,2.25,4.06,5.12,7.73,8.19,11.19.58.66,1.18,1.3,1.77,1.95.3.33.59.66.88,1,.15.17.3.35.44.52.07.08.14.17.2.25.03.04.06.07.09.11-.14-.2,0-.01.02.03.27.36.54.74.77,1.13.12.19.22.38.33.58.05.09.09.19.14.28.02.04.04.08.06.12.05.1.09.16.01.03.19.35.29.81.36,1.2,0,.05.02.11.03.16.03.13-.02-.24,0-.02,0,.1.02.19.02.29,0,.2,0,.4-.02.61s.04-.15,0-.02c-.02.05-.02.11-.03.16-.02.1-.04.19-.07.29s-.06.19-.09.28c-.02.04-.03.08-.05.13.08-.21,0,0-.02.04-.19.38-.41.75-.65,1.1-.06.09-.13.19-.2.28-.03.04-.06.07-.08.11-.13.18.08-.09-.01.01-.14.17-.28.35-.43.52-.3.35-.62.68-.96.99-.69.66-1.43,1.27-2.19,1.86-.05.04-.1.08-.15.12-.03.02-.17.13-.04.03-.09.07-.18.14-.27.21-.19.15-.39.29-.58.44-.38.29-.77.57-1.15.86-.77.57-1.54,1.15-2.28,1.76-.84.69-1.64,1.41-2.48,2.09-1.85,1.5-3.72,2.88-5.64,4.37s-3.66,3-5.48,4.5c-.9.75-1.82,1.49-2.66,2.32-.79.78-1.52,1.66-2.18,2.51-.17.21-.34.43-.52.62s-.32.45-.49.67c-.33.42.07.99.58.75h0Z"/>
          <path class="cls-8" d="M375.08,310.05c-.07-.08-.13-.15-.2-.22-.1-.1-.21-.18-.34-.24-.23-.12-.48-.22-.72-.32l.16.07c-.28-.13-.59-.2-.89-.29-.25-.08-.5-.17-.74-.27l.17.07c-.43-.18-.85-.4-1.27-.62-.37-.2-.73-.43-1.07-.69l.15.12c-.17-.13-.34-.25-.5-.38l.15.11c-.15-.12-.3-.24-.45-.37-.19-.16-.4-.29-.6-.44l.12.09c-.1-.08-.21-.16-.31-.24s-.22-.15-.36-.15c-.11,0-.22.04-.31.11-.2.15-.26.43-.13.65.23.4.46.8.77,1.14.13.14.26.27.4.4.17.16.37.3.57.44.31.22.63.41.96.58.23.12.46.21.7.31.2.08.4.16.6.23.25.09.51.16.77.22.31.08.62.17.93.2l-.18-.02c.21.03.42.06.63.11.14.03.27.05.41.04.1,0,.2,0,.3,0,.15,0,.29-.1.34-.23.06-.15.02-.29-.08-.41h0Z"/>
          <path class="cls-8" d="M373.66,302.99c.32.18.6.41.91.61.19.12.37.23.57.32.18.08.36.15.54.21.41.15.84.29,1.27.34.38.04.77.06,1.16.06.43,0,.87-.07,1.29-.15.37-.07.73-.21,1.08-.38.64-.32,1.16-.82,1.6-1.38.24-.31.43-.64.59-.99.09-.21.21-.43.25-.65.03-.18.06-.35.09-.53.02-.15.03-.31-.06-.45-.07-.11-.16-.19-.28-.24-.27-.11-.57,0-.73.24-.14.22-.31.43-.44.66s-.29.45-.45.67l.12-.16c-.11.15-.23.29-.34.44l.13-.16c-.24.31-.51.59-.82.83l.17-.13c-.26.2-.55.37-.85.5l.2-.08c-.33.14-.68.21-1.04.26l.23-.03c-.33.04-.67.07-1,.08s-.68-.02-1.02,0-.68.02-1.02.02c-.16,0-.33,0-.49-.01s-.34.01-.5.02c-.36.02-.74.05-1.09-.01-.07-.01-.13.08-.05.13h0Z"/>
          <path class="cls-8" d="M379.28,299.54c.08.04.15.07.21.14s.12.12.19.17c.13.1.27.18.41.27.06.04.12.09.19.12.1.04.2.08.29.12.15.06.3.11.46.15.34.09.71.11,1.05.12.38,0,.75-.04,1.12-.11.71-.14,1.39-.38,2.04-.69.31-.15.61-.31.9-.49.34-.2.64-.44.95-.68.29-.23.57-.46.82-.72s.49-.52.72-.79c.1-.12.17-.24.17-.4,0-.14-.06-.31-.17-.4-.24-.22-.56-.21-.81,0-.12.1-.24.2-.36.29-.11.08.09-.07,0,0-.03.02-.05.04-.08.06-.07.05-.13.1-.2.15-.26.19-.52.38-.78.56-.28.19-.57.36-.85.54s-.57.35-.87.51c-.34.18-.68.34-1.03.49l.17-.07c-.58.24-1.17.41-1.78.53-.07.01-.14.03-.21.04-.04,0-.08.01-.11.02-.13.02.11-.01,0,0-.16.02-.31.02-.47.04s-.3.03-.45.03-.3-.01-.44,0c-.16.02-.32,0-.49,0-.09,0-.17-.03-.26-.03-.11,0-.18-.03-.28-.08-.09-.04-.16.08-.08.13h0Z"/>
          <path class="cls-8" d="M382.75,295.61c.21.05.4.1.6.19s.42.15.62.22c.42.15.84.33,1.27.45s.91.19,1.36.25c.42.06.84.07,1.27.04,1.54-.1,3.08-.62,4.41-1.38.76-.44,1.44-1.01,1.98-1.71.1-.14.13-.41.07-.57s-.13-.28-.26-.38-.29-.17-.45-.16c-.21,0-.36.09-.52.22-.11.09.15-.11.04-.03-.02.02-.05.04-.07.05s-.05.03-.07.05c-.05.04-.34.25-.09.07-.11.08-.21.16-.32.23-.24.16-.48.3-.73.44-.53.29-1.05.57-1.61.8l.21-.09c-.94.39-1.93.68-2.94.82l.22-.03c-.39.05-.79.07-1.19.09-.42.03-.85,0-1.27.04s-.84.08-1.27.12-.83.1-1.24.14c-.08,0-.11.13-.02.15h0Z"/>
          <path class="cls-8" d="M384.62,290.96c1.37-.01,2.75-.16,4.07-.56.31-.09.61-.2.91-.31.18-.07.35-.14.53-.22.03-.01.07-.03.1-.04l-.04.02c-.08.03-.05.02.1-.04.01,0,.03-.01.04-.02.07-.03.15-.06.22-.1.3-.13.58-.3.86-.47s.56-.34.83-.53c.34-.25.69-.5,1.01-.77.15-.12.31-.25.44-.39.16-.18.29-.39.43-.58.12-.17.07-.46-.08-.59-.17-.15-.39-.18-.59-.08-.16.08-.31.16-.47.24-.08.04-.14.09-.21.14-.02.02-.13.1-.05.04.09-.07-.03.02-.05.04-.04.03-.08.06-.11.09-.1.08-.2.15-.3.23-.03.03-.06.05-.1.08-.02.02-.15.12-.06.05s-.02.02-.04.03c-.03.02-.06.05-.1.07-.07.05-.14.1-.21.15-.52.38-1.03.76-1.58,1.1-.27.17-.53.35-.8.51s-.54.3-.82.44c-.14.07-.28.14-.42.2-.07.03-.14.06-.21.09-.01,0-.03.01-.04.02-.05.02.06-.03,0,0-.04.02-.08.03-.12.05-.06.02-.11.04-.17.07.07-.03-.02.01-.05.02-.08.03-.16.06-.23.09-.15.06-.31.12-.46.17-.74.26-1.5.46-2.26.61-.09.02-.07.16.02.16h0Z"/>
          <path class="cls-8" d="M387.59,285.01c.19.01.37,0,.56.03s.36.02.54.02c.37,0,.75-.04,1.12-.09.08-.01.16-.02.24-.04.04,0,.09-.02.13-.02.11-.03-.21.02.01,0,.05,0,.09-.02.14-.03.16-.05.32-.11.48-.18.37-.15.71-.34,1.04-.56.65-.42,1.25-.93,1.8-1.48.26-.26.5-.53.73-.82.26-.34.53-.67.75-1.04.21-.34.41-.69.58-1.05.07-.14.15-.3.2-.44.03-.09.05-.18.08-.27.05-.19.09-.38.11-.57.02-.15.03-.28-.03-.42-.05-.13-.14-.25-.27-.31-.25-.13-.59-.12-.79.1-.17.2-.34.4-.5.61l.13-.16c-.11.15-.24.29-.33.45-.07.11-.13.22-.2.33-.14.22-.27.46-.41.68-.28.45-.57.91-.87,1.35-.17.25-.34.5-.53.74l.12-.16c-.5.64-1.06,1.24-1.71,1.74l.13-.1c-.19.15-.39.29-.59.43-.1.07-.2.13-.3.2-.02.01-.05.03-.07.04-.04.02-.08.06-.11.09,0,0,.1-.08.04-.03-.05.04-.1.07-.15.11-.19.13-.39.25-.59.35-.12.06-.17.08-.29.13s-.23.09-.34.12c-.13.04-.26.08-.39.11-.14.03-.29.03-.44.04-.09,0-.09.13,0,.14h0Z"/>
          <path class="cls-8" d="M404.08,278.32c-.47-.69-1.06-1.29-1.59-1.93-.13-.16-.26-.31-.39-.47-.06-.08-.12-.15-.18-.23-.02-.03-.07-.06.01.01-.02-.01-.03-.04-.04-.05-.03-.04-.06-.08-.09-.12-.06-.08-.12-.17-.18-.25-.05-.07-.1-.14-.15-.21-.01-.02-.03-.03-.04-.05-.01-.02-.03-.03-.04-.05l.05.07c-.11-.15-.23-.31-.34-.46-.88-1.25-1.54-2.61-2.18-3.99-.18-.39-.37-.78-.55-1.18s-.45-.75-.69-1.12c-.14-.22-.4-.32-.65-.21s-.35.35-.3.61c.04.2.07.39.11.59s.07.39.13.58c.13.36.26.73.4,1.08.31.76.65,1.5,1.05,2.23s.84,1.38,1.35,2.02c.25.31.5.63.79.89.31.28.63.54.95.8.11.09.22.17.33.26.02.02.05.04.07.05.03.02.05.04,0,0,.05.04.1.07.14.11.11.09.22.17.34.26.1.07.14.1.22.17.38.29.76.59,1.14.88.18.13.42-.12.3-.3h0Z"/>
          <path class="cls-8" d="M403.08,270.7c.16.25.29.52.45.79.2.35.4.7.62,1.03.12.19.25.37.38.56.07.1.13.19.2.29.02.02.03.05.05.07.03.05.19.25.09.12-.07-.09,0,0,0,.01.02.03.04.06.06.08.32.45.68.86,1.06,1.27.34.36.72.7,1.1,1.01.42.34.85.67,1.3.95.43.26.88.48,1.36.62.43.12.89.2,1.33.17.51-.04,1-.18,1.42-.48.13-.09.27-.19.38-.3s.21-.25.31-.38c.13-.17.23-.36.32-.56.07-.17.11-.29.13-.48,0-.05,0-.11.01-.16.02-.45-.55-.8-.93-.54-.06.04-.13.08-.19.13-.12.08-.21.18-.31.28-.11.11-.23.21-.35.31l.17-.13c-.19.15-.41.28-.63.38l.22-.09c-.21.09-.43.14-.65.17l.25-.03c-.23.03-.46.03-.69,0l.25.03c-.43-.06-.85-.21-1.25-.38l.22.09c-.82-.34-1.56-.84-2.26-1.38l.17.13c-.22-.17-.45-.35-.67-.52l.16.12c-.36-.28-.69-.58-1.05-.85-.07-.05-.15-.11-.22-.16-.04-.03-.07-.06-.11-.08-.04-.03-.2-.17-.03-.02-.03-.03-.23-.19-.04-.03-.02-.02-.04-.03-.06-.05-.03-.03-.07-.05-.1-.08-.08-.06-.16-.13-.24-.19-.14-.11-.28-.23-.41-.35-.06-.05-.12-.1-.18-.15-.02-.02-.03-.03-.05-.05l-.08-.06c.05.04.06.05.03.02-.03-.03-.07-.06-.1-.09-.23-.2-.46-.39-.69-.6-.19-.17-.39-.33-.58-.54-.07-.09-.22.03-.16.12h0Z"/>
          <path class="cls-8" d="M409.4,272.12c.27.39.55.76.84,1.13.07.09.15.18.22.28.03.04.07.09.11.13.02.02.03.04.05.06.1.12-.05-.07.04.05.16.21.32.43.49.64.64.8,1.47,1.48,2.28,2.1,1.62,1.24,3.67,2.03,5.73,1.74,1.21-.17,2.34-.71,3.21-1.57.24-.24.26-.63.05-.9-.22-.28-.57-.33-.88-.18-.07.03-.13.06-.2.09-.04.02-.19.1-.02,0-.15.08-.32.13-.47.2-.14.07.16-.06,0,0-.05.02-.09.04-.14.05-.11.04-.21.09-.32.13-.4.15-.81.25-1.23.31l.24-.03c-.57.07-1.15.08-1.73,0l.25.03c-.75-.1-1.49-.34-2.19-.63l.23.1c-.9-.38-1.78-.86-2.6-1.4-.41-.27-.8-.58-1.22-.85s-.81-.52-1.2-.81c-.16-.12-.4-.31-.59-.47-.21-.17-.44-.33-.66-.5-.18-.13-.42.13-.3.3h0Z"/>
          <path class="cls-8" d="M422.05,273.02c.32.23.63.46.93.71.15.13.31.25.46.39s.26.28.41.41c.59.52,1.17,1.05,1.78,1.54s1.29,1.01,2.02,1.38c.4.2.82.37,1.25.51.37.12.76.24,1.15.31.22.04.43.07.65.1.27.04.56.1.84.1.47,0,.97-.04,1.41-.2.19-.07.33-.2.35-.41.03-.19-.06-.4-.24-.49-.36-.2-.75-.3-1.14-.41s-.78-.14-1.17-.21c-.77-.15-1.54-.29-2.28-.56-.18-.06-.36-.13-.53-.2-.07-.03.07.03.07.03-.02-.01-.04-.02-.06-.03-.04-.02-.08-.04-.13-.06-.09-.04-.18-.08-.27-.13-.35-.17-.7-.35-1.04-.54-.68-.38-1.34-.8-2-1.21-.37-.23-.75-.42-1.13-.64s-.78-.44-1.18-.63c-.17-.08-.3.14-.15.25h0Z"/>
          <path class="cls-5" d="M289.34,332.33c1.15.02,2.32.19,3.44-.07,1.69-.38,2.16-1.61,3.49-2.44.86-.54,2.39-.67,3.17.1,1.18-1.6.05-5.19,1.59-6.5.89.65,1.45,2.08,1.86,3.07.49,1.18,1.19,2.35,1.82,3.45,1.23,2.15,2.85,3.56,3.17,6.13.29,2.34-.27,4.67-1.58,6.63-2.28,3.43-2.77,7.85-4.29,11.64-2.05,5.11-6.02,9.81-11,12.19-3.09,1.48-6.2,2.56-9.64,2.94-3.49.38-8.05-.32-10.67-2.88-3.17-3.09-3.57-7.65-2.14-11.65s5.16-7.11,8.46-9.76c2.51-2.02,5.44-4.01,7.05-6.86,1.11-1.96,1.59-5.66,4.28-5.95.33-.04.66-.04.99-.04Z"/>
          <path class="cls-5" d="M322.46,305.21c-.77-.1-3.08-.11-3.75.29-2.15,1.3.98,3.41.53,4.89-.15.5-1.66.84-2.18,1.38s-1.15,1.32-1.2,2.08c-.11,1.83,1.49,3.29.89,5.19s-3.16,2.27-4.12,4.08c-1.04,1.96.13,3.43,1.62,4.66,3.58,2.97,6.96,6.3,10.65,9.06,5.28,3.93,11.74,9.51,18.82,8.11,3.34-.66,7.45-3.55,9.08-6.56,2.45-4.53-1.36-9.4-6.09-9.91-3.16-.34-6.53-.76-9.41-2.22-1.85-.94-4.66-2.46-5.65-4.33-1.27-2.38-.32-5.7-.41-8.29-.15-3.86-2.3-5.76-5.42-7.78l-3.36-.65Z"/>
          <path class="cls-6" d="M284.77,356.22c-.11.08-.23.12-.36.16s-.25.1-.37.15c-.11.05-.23.08-.35.1-.03,0-.06.01-.09.02h-.02c.1,0,.07,0-.08.01-.08.02-.15.04-.23.06-.52.11-1.02.27-1.53.42s-1.04.27-1.53.45c-.56.21-1.13.47-1.63.8-.92.6-1.59,1.48-1.91,2.54-.28.92-.31,1.92-.24,2.88.04.58.11,1.16.22,1.73.05.25.07.51.15.75.09.27.21.53.36.78.13.21.35.32.59.28.23-.03.44-.2.49-.43.08-.32.13-.66.09-.99-.04-.3-.07-.6-.11-.9-.08-.62-.14-1.25-.14-1.88,0-.35.02-.7.07-1.05l-.03.23c.06-.44.17-.88.34-1.29l-.09.21c.14-.32.3-.62.51-.9l-.13.17c.2-.25.42-.48.67-.67l-.17.13c.45-.34.96-.6,1.48-.82l-.2.08c.34-.14.67-.29,1-.43l-.19.08c.38-.16.76-.32,1.14-.48.32-.14.62-.29.91-.48.17-.11.33-.24.48-.38.03-.03.06-.05.09-.08.08-.11.1-.13.05-.06.02-.02.03-.04.05-.06.05-.06.1-.12.15-.18.12-.13.27-.25.36-.4s.17-.32.28-.47c.04-.06-.04-.14-.1-.1h0Z"/>
          <path class="cls-6" d="M280.74,354.27c-.27.11-.57.1-.86.14s-.57.04-.85.05c-.64.03-1.29.06-1.92.23s-1.3.37-1.9.65-1.12.66-1.6,1.09c-1.81,1.67-2.54,4.2-2.63,6.59-.03.69.04,1.39.16,2.07.05.3.11.6.21.88.11.32.24.63.38.94.1.22.42.33.64.26s.44-.29.41-.54c-.04-.35-.04-.71-.06-1.06-.03-.37-.04-.75-.05-1.12-.02-.78.02-1.56.13-2.33l-.03.23c.11-.79.3-1.58.59-2.33.02-.05.04-.09.06-.14.05-.14-.1.22-.02.04.04-.09.08-.18.12-.27.09-.18.18-.35.27-.52s.2-.34.31-.5c.05-.08.1-.15.15-.22.03-.04.06-.08.09-.12.06-.08-.09.11-.08.1.02-.02.03-.04.05-.07.25-.31.52-.59.82-.85.03-.02.18-.14.05-.04s0,0,.03-.02c.09-.07.18-.13.28-.19.18-.11.36-.22.55-.32.37-.2.74-.39,1.13-.56.02,0,.04-.02.06-.03.12-.05-.05.02-.06.03.04-.02.09-.04.13-.05.11-.04.22-.09.33-.13.25-.1.49-.22.73-.34.42-.2.83-.45,1.22-.69.19-.12.39-.24.59-.35.21-.12.38-.29.6-.38.07-.03.04-.15-.03-.12h0Z"/>
          <path class="cls-6" d="M341.34,352.44c-.33.1-.68.16-1.02.24s-.69.17-1.04.24c-.18.03-.35.06-.53.09-.06,0-.33.02-.09.01-.09,0-.19.02-.29.04-.35.04-.71.08-1.06.12-.76.09-1.52.22-2.24.46s-1.39.61-1.97,1.13c-.92.82-1.51,1.97-1.86,3.14s-.47,2.45-.51,3.69c-.02.64-.01,1.29,0,1.93,0,.31,0,.62.03.92.02.2.03.42.07.61.03.1.08.24.14.34l-.05-.13c.02.08.05.14.09.2.02.03.04.06.07.09.29.42.84.42,1.14,0,.02-.02.03-.05.05-.07.01-.02.02-.03.03-.05,0-.01.13-.31.05-.12-.05.14,0,.03,0,0,.07-.17.11-.3.13-.48.02-.15.03-.3.04-.45.03-.33,0-.67,0-1,0-.7.02-1.4.06-2.1.03-.41.07-.83.12-1.24l-.03.25c.12-.92.31-1.85.67-2.71l-.1.23c.11-.26.24-.52.39-.77.07-.12.14-.23.22-.34.05-.07.23-.29,0-.02.05-.06.09-.11.14-.17.19-.22.39-.41.61-.59.12-.1-.2.15-.07.06.03-.02.06-.04.09-.07.05-.04.11-.08.17-.11.16-.1.32-.2.49-.29.08-.04.17-.09.25-.13.07-.03.33-.12.04-.02.18-.06.35-.14.54-.2.35-.11.71-.2,1.07-.29.73-.17,1.46-.33,2.18-.54.43-.13.9-.26,1.29-.48s.72-.49,1.02-.83c.23-.26.01-.71-.35-.61h0Z"/>
          <path class="cls-6" d="M336.99,351.45c-.15-.03-.3-.07-.45-.11-.17-.04-.37-.05-.55-.06-.1,0-.33-.02-.51-.02-.19,0-.38-.01-.56-.01-.76,0-1.53.09-2.28.23s-1.5.34-2.2.66c-.6.27-1.13.64-1.64,1.06s-.94.92-1.34,1.44c-.37.47-.69.98-.97,1.51-.61,1.14-1.05,2.38-1.27,3.65-.13.73-.18,1.45-.13,2.2.04.68.18,1.36.4,2.01.09.28.34.46.64.42.27-.04.53-.28.51-.57-.04-.55-.01-1.1.02-1.65,0-.13.02-.27.03-.4,0-.07.01-.13.02-.2,0-.03,0-.05,0-.08.02-.15-.03.24,0,.02.04-.28.09-.57.14-.85.1-.58.24-1.15.42-1.72.09-.29.18-.57.29-.85.03-.07.06-.15.09-.22.01-.03.03-.07.04-.1-.1.26-.06.14-.03.08.06-.14.13-.28.19-.43.26-.54.56-1.05.9-1.54.08-.11.16-.22.24-.33-.19.26-.03.04.01-.01.05-.06.1-.13.16-.19.18-.22.38-.42.58-.62s.41-.38.63-.56c.05-.04.18-.13-.05.04.02-.02.04-.03.06-.05.06-.04.12-.09.18-.13.12-.08.24-.16.36-.24.29-.17.59-.32.9-.46.03-.01.06-.03.09-.04.16-.07-.19.07-.02,0,.08-.03.15-.06.23-.09.17-.06.34-.12.51-.18.74-.24,1.51-.43,2.27-.61.19-.05.38-.11.57-.16.21-.06.42-.12.62-.2-.05.02.02-.01.03-.01.06-.02.12-.05.18-.07.09-.04.21-.07.29-.12.15-.09.29-.19.44-.28.06-.04.06-.14-.02-.16h0Z"/>
          <path class="cls-6" d="M346.08,330.27c-.07-.03-.13-.06-.2-.08-.02,0-.16-.06-.09-.04.1.04-.15-.05-.17-.05-.05,0-.07,0-.12,0-.07,0-.14,0-.2,0-.28.01-.55.06-.82.12-.5.12-.96.31-1.42.54-.88.45-1.68,1.05-2.44,1.67-.41.34-.82.69-1.22,1.03h1.08c-1.32-1.08-2.92-1.98-4.66-2.06-.26-.01-.53,0-.79.05-.1.02-.21.05-.31.08-.19.07-.41.13-.54.29-.16.21-.26.43-.19.7.07.24.26.44.5.5.17.04.33.03.5,0,.03,0,.06,0,.09-.02.08-.02-.21.02-.07.01.12,0,.24-.02.35-.03.25-.02.51,0,.76.03l-.21-.03c.36.05.7.14,1.05.25.17.06.35.13.52.2.05.02.19.08-.03-.02.04.02.08.03.12.05.08.04.17.08.25.12.32.15.62.32.92.51.14.09.28.18.42.27.06.04.12.08.18.13.03.02.06.04.08.06.1.08-.17-.13-.02-.02.16.13.33.23.54.22s.38-.09.54-.22c.35-.3.69-.6,1.04-.89.18-.15.36-.29.54-.44.04-.03.08-.07.13-.1.07-.05-.07.05-.06.05.03-.02.05-.04.07-.06.09-.07.18-.14.28-.21.37-.27.74-.53,1.14-.77s.78-.43,1.18-.62c.06-.03.12-.06.18-.09.02,0,.04-.02.06-.03.14-.06-.09.04,0,0,.16-.06.31-.13.46-.2.04-.02.18-.08.07-.03.08-.04.18-.06.26-.1.12-.06.23-.2.34-.28.15-.12.12-.44-.07-.52h0Z"/>
          <path class="cls-6" d="M343.92,342.11c.27.08.54.06.81.07.22,0,.45-.02.67-.03.53-.03,1.06-.09,1.58-.17.97-.16,1.92-.4,2.81-.81.4-.19.78-.42,1.15-.67.45-.3.88-.63,1.28-.99.38-.34.72-.73.98-1.16s.44-.88.58-1.35c.29-1,.31-2.06.44-3.09l-.03.21c.04-.3.05-.59.07-.89.02-.28-.23-.59-.5-.65-.12-.03-.24-.03-.36,0-.15.03-.34.17-.4.31-.1.21-.19.42-.27.63-.06.17-.09.35-.13.52-.07.34-.13.67-.19,1.01-.12.67-.25,1.35-.51,1.98l.09-.21c-.14.32-.31.63-.53.91l.14-.18c-.3.39-.67.71-1.06,1.01l.18-.14c-.66.51-1.38.96-2.15,1.29l.22-.09c-.79.33-1.62.52-2.46.66-.42.07-.85.15-1.27.22s-.93.14-1.32.37c-.24.14-.36.41-.33.68s.23.5.49.57h0Z"/>
          <path class="cls-6" d="M321.48,316.68c.21.22.41.44.62.66s.37.44.58.64c.44.41.92.78,1.44,1.08.24.14.49.26.74.37.19.08.36.15.56.2.13.04.27.07.41.1.61.12,1.23.15,1.85.08.79-.08,1.52-.32,2.24-.65.15-.07.3-.28.33-.43s.03-.32-.04-.47c-.13-.31-.51-.54-.86-.42-.43.15-.88.26-1.34.32l.21-.03c-.37.05-.74.08-1.11.08s-.72-.04-1.08-.09l.22.03c-.32-.04-.63-.11-.95-.17s-.62-.14-.92-.23-.62-.2-.92-.32c-.03-.01-.07-.02-.1-.04,0,0,.1.04.02,0-.02,0-.04-.02-.06-.03-.08-.04-.16-.07-.24-.11-.09-.04-.18-.08-.27-.12-.01,0-.12-.05-.06-.03-.04-.02-.08-.03-.12-.05-.36-.16-.68-.38-.98-.62-.14-.11-.29.12-.18.24h0Z"/>
          <path class="cls-6" d="M230.62,258.73c-.23.91-.47,1.81-.69,2.72-.11.44-.23.88-.33,1.32s-.19.85-.3,1.26c-.14.47-.3.94-.49,1.4l.08-.2c-.29.68-.68,1.3-1.13,1.88l.13-.17c-.36.47-.76.91-1.2,1.3-.27.24-.26.67-.06.94s.62.38.92.18c.75-.48,1.43-1.05,1.95-1.77.43-.61.76-1.29,1.01-1.99.23-.64.36-1.32.46-1.99.06-.4.1-.79.12-1.2.02-.36.03-.71.04-1.07.02-.41.03-.81.05-1.22.01-.21.03-.41.04-.62,0-.02,0-.05,0-.07,0-.01.01-.1,0-.03,0-.05.02-.1.02-.15.02-.11.04-.22.06-.33.03-.19-.05-.39-.25-.45-.19-.05-.4.06-.45.25h0Z"/>
          <path class="cls-6" d="M234.19,256.91c.03.22.07.45.07.67s-.02.46-.02.69,0,.45,0,.67-.03.45-.04.68c-.01.25-.03.5-.07.75l.02-.18c-.03.21-.07.43-.1.64l.03-.2c-.07.47-.18.94-.37,1.38l.08-.19c-.16.38-.38.72-.63,1.05l.13-.17c-.25.32-.54.58-.86.83l.17-.13c-.41.31-.84.6-1.3.83-.14.07-.29.26-.32.42s-.03.31.04.46c.14.33.48.49.83.41.41-.1.8-.24,1.19-.4.34-.15.66-.4.94-.65s.5-.52.71-.81.34-.62.47-.94c.24-.59.34-1.23.37-1.86.01-.3-.03-.61-.06-.91-.05-.36-.11-.7-.21-1.05-.1-.37-.22-.73-.38-1.08-.07-.15-.16-.32-.21-.46-.07-.18-.13-.35-.2-.53s-.3-.11-.28.08h0Z"/>
          <path class="cls-6" d="M239.1,259.35c-.04.18.02.35.03.52,0,.09-.01.19-.01.28,0,.08,0,.16,0,.24,0,.33.05.66.07,1,.03.65.05,1.3-.04,1.95l.03-.19c-.02.16-.05.32-.07.48l.03-.19c-.1.72-.3,1.42-.58,2.1l.08-.19c-.08.19-.17.38-.25.58l.08-.2c-.22.52-.49,1.03-.79,1.51-.22.36-.09.9.29,1.1.4.21.85.09,1.1-.29.36-.56.7-1.16.94-1.79.2-.52.35-1.07.44-1.62.1-.59.14-1.18.1-1.78s-.13-1.19-.3-1.76c-.02-.08-.05-.15-.07-.23-.01-.03-.02-.07-.03-.1-.02-.05-.04-.1-.06-.15.03.07.03.07,0,.02-.08-.17-.14-.35-.24-.51-.05-.09-.1-.17-.15-.25.04.05-.03-.04-.03-.04-.03-.04-.06-.08-.08-.12-.09-.14-.15-.31-.28-.42-.07-.06-.19-.04-.21.06h0Z"/>
          <path class="cls-6" d="M241.52,272.6c.05.08.1.17.14.26l-.06-.22c.02.14.03.26.09.4.03.07.06.13.09.2.06.14-.04-.1.01.03.03.07.06.14.09.21.04.08.08.16.12.24.07.15.14.31.21.46.03.07.07.14.09.22-.06-.15,0,0,0,.02.02.06.05.12.07.18.28.69.52,1.39.74,2.1s.42,1.49.56,2.25c.07.39.15.78.21,1.17,0,.05.01.1.02.15-.05-.28-.02-.14-.01-.07.01.09.02.19.03.28.02.2.04.4.05.6.05.82.03,1.67-.07,2.48l.03-.26c-.06.42-.15.84-.26,1.25s-.2.8-.34,1.19.12.8.46.94c.39.17.75,0,.99-.33.31-.41.56-.83.73-1.32.15-.43.25-.88.32-1.33.08-.53.14-1.07.12-1.61,0-.48-.05-.97-.11-1.45-.14-1.07-.37-2.1-.73-3.12s-.74-1.93-1.23-2.84c-.25-.46-.51-.92-.79-1.36-.14-.23-.29-.46-.46-.67-.03-.04-.07-.09-.1-.13-.02-.02-.03-.04-.05-.07.08.1-.07-.08-.1-.1-.03-.03-.05-.04-.08-.05-.09-.05.05.09.03.03-.02-.05-.08-.11-.11-.15-.13-.18-.36-.27-.57-.15-.2.11-.26.37-.15.57h0Z"/>
          <path class="cls-6" d="M246.35,272.28s.02.04.02.05c-.02-.06,0,0,0,0,.02.04.03.07.05.11.03.08.07.17.1.25.06.15.11.31.16.46.1.32.18.64.25.97.03.16.07.32.09.48,0,.03.01.07.02.1,0,.02,0,.04,0,.06-.03-.11-.01-.09,0-.05,0,.09.01.17.02.26.02.31.05.63.05.94,0,.36-.01.71-.06,1.07l.03-.19c-.07.53-.21,1.07-.41,1.56l.08-.2c-.16.38-.38.74-.63,1.07l.14-.18c-.2.26-.42.5-.66.72-.12.11-.26.22-.38.33-.13.13-.28.25-.42.36l.15-.12s-.05.04-.08.06c-.15.12-.3.25-.34.45-.04.17-.03.33.04.49.13.31.53.57.88.43.23-.09.46-.18.68-.29s.41-.25.61-.41c.32-.26.58-.55.83-.88.42-.55.69-1.21.84-1.88.16-.74.14-1.49.04-2.24-.04-.33-.11-.65-.19-.98-.04-.16-.1-.32-.16-.47s-.11-.33-.17-.49c-.14-.39-.3-.77-.48-1.15-.16-.35-.33-.71-.5-1.06-.08-.16-.31-.21-.45-.12-.17.1-.19.29-.12.45h0Z"/>
          <path class="cls-6" d="M252,273.11c.06.24.11.48.17.72.05.21.12.45.14.64.02.24.05.47.09.71.02.1.05.22.05.32,0,0-.01-.11,0-.03,0,.03,0,.05,0,.08.01.09.03.18.04.27,0,.03,0,.06.01.09,0,0-.02-.13,0-.04,0,.05.01.1.02.15.01.11.02.21.03.32.02.21.03.42.04.62.02.41,0,.82,0,1.24-.02.5-.07,1.01-.13,1.51l.02-.18c-.04.26-.06.52-.1.78l.02-.19c-.05.34-.1.69-.16,1.03-.03.19-.03.37.07.55.09.15.25.29.42.33.18.04.38.03.55-.07.14-.09.3-.25.33-.42.18-1.18.33-2.38.25-3.57-.07-1.09-.29-2.15-.71-3.16-.07-.17-.14-.31-.24-.47-.08-.13-.15-.27-.22-.41-.16-.3-.33-.59-.52-.87-.06-.09-.2-.03-.17.07h0Z"/>
          <path class="cls-6" d="M258.75,291.1c.1.21.23.39.36.58.15.22.28.44.45.65.07.09.15.19.22.28.02.02.07.09-.02-.02.02.02.03.04.05.06.04.05.08.1.12.15.14.19.28.38.41.57.54.76,1.06,1.54,1.49,2.38.24.47.48.95.69,1.43l-.1-.24c.47,1.12.85,2.29,1.02,3.49l-.03-.26c.05.37.12.74.18,1.12l.09.2c.05.1.13.18.22.24.14.11.33.19.52.18.15,0,.3-.05.43-.12.16-.09.37-.32.39-.51.04-.26.07-.53.1-.8.02-.2,0-.4,0-.6-.03-.46-.08-.94-.18-1.39-.19-.83-.48-1.63-.87-2.38-.18-.34-.37-.68-.59-1-.26-.36-.53-.72-.81-1.06-.5-.6-1.04-1.17-1.62-1.69-.68-.61-1.39-1.23-2.24-1.58-.19-.08-.32.17-.25.32h0Z"/>
          <path class="cls-6" d="M262.46,288.17c.1.09.19.19.29.29.02.03.05.05.07.08.03.04.09.11.02.02.05.07.1.13.14.19.21.29.4.6.58.91.2.36.38.72.55,1.1.02.05.04.09.06.14.04.1-.04-.1-.03-.06.01.03.02.05.03.08.04.1.08.19.12.29.07.2.14.4.21.6.14.44.24.89.31,1.35l-.03-.22c.02.15.04.29.06.44l-.03-.23c.05.39.07.78.02,1.18l.03-.24c-.02.13-.03.27-.05.4l.03-.24c-.03.24-.09.48-.19.7l.09-.22c-.07.17-.17.34-.29.49l.15-.19c-.08.1-.16.2-.23.31l.14-.19c-.11.15-.25.28-.39.39l.18-.14c-.07.05-.13.1-.2.14-.13.08-.24.19-.35.28l.17-.13c-.13.1-.27.2-.42.3-.25.16-.41.48-.31.77s.35.49.66.5c.25,0,.5-.02.75-.07s.46-.15.66-.28c.39-.25.73-.56.95-.97.19-.33.32-.7.38-1.08.04-.24.07-.47.06-.71s-.04-.48-.08-.72c-.12-.8-.45-1.56-.83-2.27s-.83-1.39-1.33-2.02c-.39-.49-.82-.96-1.29-1.37-.05-.04-.09-.08-.14-.12-.15-.12-.37-.16-.51,0-.13.14-.15.37,0,.51h0Z"/>
          <path class="cls-6" d="M222.75,242.04c-.1.15-.2.29-.3.44-.05.07-.1.14-.16.21-.02.03-.05.06-.07.09-.03.04.03-.03,0,0-.03.04-.06.07-.08.11-.1.14-.19.28-.29.42-.05.07-.1.14-.15.21,0,0,.07-.09.02-.03-.01.01-.02.02-.03.03-.03.03-.06.07-.09.1-.22.24-.43.49-.65.72s-.46.46-.67.71c-.42.5-.86.99-1.31,1.47s-.97.93-1.43,1.41c-.55.56-1.1,1.11-1.65,1.67-.29.3-.32.84,0,1.13.15.14.35.24.57.23s.4-.09.57-.23c.58-.48,1.16-.96,1.73-1.45.54-.46,1.04-.98,1.53-1.5.32-.34.64-.69.92-1.06l-.14.18c.23-.3.46-.6.67-.91.17-.25.29-.56.41-.84.15-.34.29-.67.38-1.02.08-.3.18-.6.25-.91.09-.37.12-.77.14-1.15,0-.1-.13-.12-.18-.05h0Z"/>
          <path class="cls-6" d="M225.6,244.32s-.05.09-.08.13c-.03.06-.05.11-.07.17-.02.05-.04.1-.06.15-.01.03-.02.05-.03.08-.01.04,0,0,0-.01,0,.01-.01.03-.02.04-.08.19-.21.35-.34.51l.07-.09c-.11.15-.24.29-.36.43l.09-.12c-.06.08-.13.16-.19.23-.03.04-.07.07-.1.11-.07.08-.13.17-.2.26l.11-.14c-.15.2-.32.39-.51.56s-.37.36-.58.52l.16-.13c-.11.09-.22.17-.33.26l.16-.13c-.1.08-.21.15-.32.23-.05.03-.11.07-.16.1-.11.07-.21.15-.32.23l.16-.12c-.11.09-.23.17-.35.25-.15.1-.29.25-.33.43l-.03.19c0,.1.02.19.06.28.02.06.05.11.09.16.05.08.12.14.2.18.17.09.36.13.55.07.09-.03.18-.05.27-.09.04-.01.08-.03.12-.04.1-.04.21-.07.3-.13.16-.09.31-.19.45-.29.19-.14.38-.28.56-.45.12-.12.24-.24.35-.37.15-.17.28-.37.39-.57.11-.19.23-.39.29-.59.05-.16.09-.32.12-.48.04-.2.05-.41.05-.62,0-.19-.01-.38,0-.57,0-.1,0-.2,0-.3,0-.06,0-.12-.02-.17-.01-.05-.02-.1-.04-.15-.02-.08-.13-.09-.17-.02h0Z"/>
        </g>
      </g>
      <path class="cls-2" d="M204.53,247.75c-1.25.79-2.57,1.56-3.94,2.32-.72-2-1.78-5.02-.43-5.21.45-.06,1.51,1.03,1.84,1.28.67.51,1.41.99,2.15,1.41.13.08.26.14.38.19Z"/>
      <path class="cls-7" d="M220.35,234.06c-.91,2.08-6.33,7.81-15.82,13.69-.13-.05-.26-.11-.38-.19-.74-.42-1.47-.9-2.15-1.41-.34-.26-1.39-1.35-1.84-1.28-1.35.19-.29,3.21.43,5.21-2.12,1.19-1.92,2.21-.64,2.89-.87,1.47-.75,3.01-.75,5.03,0,1.31-.02,5.64-1.96,5.63-1.76,0-2.57-3.25-2.81-4.55-.37-1.97-.11-3.77.24-5.71.77-4.18,3.75-7.7,7.25-10.05,3.22-2.18,6.53-3.99,9.84-6.03,2.95-1.83,6.17-3.74,8.61-6.32.51.77.43,2.04-.02,3.09Z"/>
    </g>
    <path class="cls-13" d="M256.65,231.97c-.17.26-.33.5-.46.65-1.5,1.78-3.06,3.51-4.65,5.21.33.71.65,1.44.87,2.19.08.26.15.52.19.79.06.4.16.87.11,1.29-.08.63-.14,1.09-.47,1.65-.26.45-.68.9-1.15,1.13-.61.31-1.21.44-1.9.46-.3,0-.59-.03-.89-.07-.31-.04-.62-.09-.92-.16-.63-.16-1.24-.44-1.83-.72-.09-.04-.17-.09-.25-.13-3.37,3.36-6.79,6.67-10.13,10.07l4.5,5.19c4.55-3.29,8.5-8.08,12.33-12.22,3.59-3.88,7.8-7.9,10.27-12.62-1.88-.89-3.75-1.81-5.63-2.7Z"/>
    <path class="cls-8" d="M254.41,231.33c.22.18.48.32.72.47s.46.29.69.44.46.27.68.4.45.27.68.41c.91.55,1.85,1.08,2.83,1.51s1.95.75,2.96.91c.78.12,1.67.2,2.37-.25.42-.26.72-.68.84-1.16.08-.32.05-.61,0-.92-.05-.34-.19-.63-.43-.88-.33-.34-.85-.14-.99.26-.11.3-.1.61-.14.92l.03-.21c-.03.19-.07.38-.14.55l.08-.2c-.04.08-.08.16-.14.24l.13-.17c-.05.07-.12.13-.18.18l.17-.13c-.08.06-.16.1-.25.14l.2-.09c-.13.05-.27.09-.42.11l.23-.03c-.29.04-.58.02-.87-.02l.23.03c-.98-.13-1.93-.48-2.83-.86l.21.09c-.4-.17-.8-.32-1.2-.49l.21.09c-.43-.18-.86-.37-1.28-.57-.47-.22-.95-.4-1.43-.59-.43-.17-.86-.35-1.3-.48-.22-.06-.45-.12-.67-.18-.24-.06-.49-.13-.74-.14-.29,0-.48.4-.25.6h0Z"/>
    <path class="cls-8" d="M259.31,229.98c.55.34,1.1.68,1.63,1.06s1.09.68,1.65.97,1.21.58,1.84.79c.67.22,1.36.33,2.06.39.37.03.73.03,1.09,0,.24-.02.49-.05.73-.09.25-.05.48-.15.7-.28.27-.15.41-.47.37-.77-.02-.14-.07-.26-.15-.37-.09-.12-.25-.26-.4-.28-.19-.03-.39-.08-.58-.07-.14,0-.28.02-.42.03-.27.02-.53.02-.8.03-.53.01-1.05-.01-1.57-.08l.23.03c-.3-.04-.59-.08-.89-.12l.22.03c-.75-.1-1.49-.26-2.23-.44-.36-.09-.72-.19-1.08-.29s-.74-.17-1.11-.28c-.42-.13-.83-.26-1.24-.4-.08-.03-.13.09-.06.14h0Z"/>
    <path class="cls-6" d="M233.38,252.99c.08.1.13.23.21.34.1.15.19.31.29.46.14.22.31.41.47.62s.31.39.46.59.32.41.49.61.31.41.49.6c.31.33.61.66.92.97s.64.65.93,1.02l-.14-.18c.44.57.82,1.17,1.1,1.83l-.08-.2c.21.5.36,1,.52,1.52.04.13.09.26.13.39.02.07.04.13.06.2-.03-.07.07.21.1.22-.03-.09-.04-.11-.03-.07,0,.02.01.04.02.06.1.32.22.62.37.92.07.15.26.22.41.2s.32-.14.34-.3c.05-.31.09-.62.08-.94,0-.02,0-.05,0-.08-.02-.13-.03.15,0,.02.02-.11.03-.21.02-.32,0-.13-.02-.27-.03-.4-.04-.55-.16-1.13-.33-1.66s-.39-1.07-.66-1.56c-.29-.52-.65-1-1.05-1.44-.37-.41-.77-.78-1.18-1.14-.63-.55-1.31-1.02-1.97-1.52-.16-.12-.32-.24-.48-.36-.01,0-.02-.02-.04-.03.14.11.04.03,0,0-.04-.03-.07-.06-.11-.09-.1-.07-.19-.14-.29-.21-.06-.04-.12-.09-.18-.13-.03-.02-.06-.04-.09-.07-.02-.02-.05-.05.03.02-.01-.01-.03-.02-.05-.04-.09-.07-.19-.14-.26-.22-.21-.26-.66.09-.46.36h0Z"/>
  </g>
  <g>
    <g>
      <path class="cls-12" d="M568.19,377.56c-1.19-13.45-15.01-15.56-25.82-15.07-6.74.31-31.66-.06-38.44-.18-23.31-.41-82.89-1.35-106.3-.8-12.93.3-53.02.16-65.87.41-6.47.12-40.11.14-46.59.04-1.8-.03-10.09-.1-21.3-.17-1.78.51-3.46,1.27-4.87,2.41-2.3,1.86-4.54,5.33-5.62,8.09-3.52,9.01-.19,20.94,8.93,25.27,7.17-.01,14.34-.02,21.52-.01,9.75,0,46.45-.39,56.2-.24,6.94.1,13.9-.1,20.84-.08,13.48.06,81.35.17,94.85.13,13.97-.04,55.14.37,69.12.46,8.83.07,17.84.58,26.65-.47,9.58-1.14,17.59-9.67,16.7-19.78Z"/>
      <g class="cls-10">
        <path class="cls-3" d="M549.66,367.63c1.62.24,3.21.62,4.75,1.19.18.07.37.13.54.21l.11.04c-.16-.03-.09,0,.21.11.02.01.2.08.04.02.39.16.76.35,1.13.55s.69.4,1.02.62c.17.11.34.23.51.35.06.04.12.09.18.13-.19-.14.16.13.19.16.29.24.56.49.82.76.13.13.26.27.38.41.06.07.12.14.18.21.06.07.05.06-.03-.03.09.12.18.23.27.35.23.28-.09-.12.04.05.06.08.11.15.17.23.11.16.21.31.31.48.23.37.43.75.61,1.14,0,.01.16.38.07.15.03.08.06.15.09.23.08.22.16.43.23.65.15.47.28.95.38,1.43.05.21.09.43.12.64.01.09.03.17.04.26.07.42-.02-.25.02.18.05.48.09.96.1,1.44,0,.43,0,.87-.03,1.3-.02.21-.04.43-.06.64.03-.27-.02.14-.02.16-.02.12-.04.25-.07.37-.17.88-.46,1.71-.78,2.54-.02.04-.1.23,0,.02-.05.11-.09.22-.14.32-.08.18-.16.36-.25.53-.19.38-.4.76-.62,1.13-.2.33-.41.65-.64.96-.02.03-.25.33-.07.1-.05.06-.1.12-.14.18-.14.18-.29.35-.45.52-1.12,1.23-2.32,2.04-3.86,2.63-.97.37-1.97.68-2.98.92-.51.12-1.02.23-1.53.32s-1.08.18-1.44.23c-4.37.54-8.78.26-13.17.32-1.54.02-3.08.07-4.62.09-4.4.06-8.8.09-13.2.11-5.21.03-10.41.04-15.62.03-3.76,0-7.53,0-11.3-.1-4.29-.11-8.58-.31-12.87-.4-5.91-.13-11.83-.21-17.74-.26-6.53-.07-13.07-.11-19.6-.14-6.41-.03-12.83-.05-19.24-.08-5.68-.02-11.37-.05-17.05-.1-4.02-.03-8.05-.11-12.07-.13-4.8-.02-9.6,0-14.4.01-5.8.02-11.59.06-17.39.1-5.35.04-10.7.07-16.05.11-3.41.02-6.82.04-10.23.05-3.91.01-7.82.03-11.72.06-5.32.03-10.65.06-15.97.1-4.55.03-9.09.07-13.64.13-5.61.08-11.21.1-16.82.27-1.76.05-3.52.08-5.28-.04-.4-.03-.81-.06-1.21-.11-.1-.01-.2-.02-.3-.03-.07,0-.34-.04-.06,0-.24-.03-.48-.07-.71-.11-.82-.14-1.64-.33-2.44-.57-.4-.12-.79-.26-1.18-.41-.06-.02-.31-.13-.06-.02-.11-.05-.22-.1-.33-.15-.22-.1-.43-.21-.65-.32-.36-.19-.71-.39-1.05-.61-.17-.11-.34-.22-.51-.34-.08-.06-.17-.12-.25-.18-.05-.04-.1-.07-.15-.11.11.09.1.08-.02-.02-.58-.48-1.13-.98-1.62-1.55-.02-.02-.15-.2-.16-.2.04,0,.17.23.06.07-.09-.13-.19-.26-.27-.39-.18-.28-.36-.56-.51-.85-.07-.13-.13-.26-.2-.39-.04-.08-.12-.37-.18-.4.07.03.11.26.04.08-.03-.08-.06-.16-.1-.24-.06-.16-.12-.33-.18-.5-.19-.59-.34-1.2-.44-1.82-.02-.09-.03-.18-.04-.27-.04-.25.02.08.01.09.04-.06-.05-.42-.06-.5-.03-.35-.05-.7-.06-1.05-.02-.65,0-1.3.07-1.95.01-.16.03-.31.05-.47.04-.33-.05.32,0-.01,0-.06.02-.12.03-.19.05-.34.12-.68.19-1.02.14-.66.33-1.32.54-1.96.11-.31.22-.62.34-.93.02-.05.04-.13.07-.17-.18.31-.03.06.01-.02.08-.17.15-.34.23-.51.28-.59.6-1.15.94-1.7.17-.27.35-.53.54-.79.04-.06.09-.12.14-.18.18-.24-.15.17-.02.03.12-.13.23-.28.34-.42.41-.48.86-.93,1.34-1.34.11-.09.22-.19.34-.28.23-.19-.2.13-.04.03.06-.04.12-.09.17-.13.26-.18.52-.36.79-.52.25-.14.5-.28.75-.4.08-.04.15-.07.23-.11.27-.12-.23.08-.05.02.23-.08.45-.17.67-.25.98-.33,1.98-.58,3-.75.24-.04.47-.08.71-.11-.22.03.09,0,.14-.02.12-.01.24-.03.36-.04.53-.06,1.06-.09,1.59-.12,2.07-.11,4.14-.02,6.21.08,4.25.21,8.5-.19,12.74-.21,1.76,0,3.53-.01,5.29-.02,5.04-.01,10.09-.01,15.13-.02,5.88,0,11.76,0,17.63-.02,5.36,0,10.71-.02,16.07-.06,5-.03,10.01-.08,15.01-.2,2.27-.05,4.53-.19,6.8-.23,1.58-.03,3.16-.03,4.74-.04,4.72-.02,9.45-.02,14.17,0,4.3.01,8.6.03,12.91.08,1.08.01,2.16.02,3.23.06,2.03.09,4.04-.05,6.06-.21,2.27-.18,4.53-.26,6.81-.22,3.23.06,6.46.21,9.69.25,1.83.02,3.66.03,5.49.04,5.06.02,10.13.03,15.19.03,5.59,0,11.18,0,16.78.02,4.34.01,8.68.02,13.02.08,3.68.05,7.36.13,11.04.13,5.44.01,10.88-.02,16.33-.04,6.1-.02,12.21-.03,18.31,0,5.71.03,11.41.09,17.12.25,2.27.06,4.54.16,6.82.27,1.81.09,3.63.17,5.43.38.64.08,1.18-.6,1.18-1.18,0-.7-.55-1.11-1.18-1.18-.1-.01-.21-.02-.31-.04-.12-.01-.48,0-.06-.01-.29,0-.63-.08-.92-.12-.45-.05-.9-.1-1.35-.15-1.03-.1-2.05-.19-3.08-.27-2.41-.18-4.82-.28-7.24-.37-5.78-.22-11.57-.28-17.35-.31-6.13-.03-12.26-.02-18.39,0-5.4.02-10.79.05-16.19.03-3.61-.01-7.21-.1-10.82-.14-4.54-.06-9.09-.07-13.63-.08-5.63-.01-11.27-.02-16.9-.02-4.98,0-9.96,0-14.94-.04-1.7,0-3.4-.02-5.1-.05-3.87-.06-7.75-.31-11.62-.25-2.26.03-4.52.3-6.77.42-1.27.07-2.53.05-3.8,0s-2.59-.05-3.89-.06c-4.5-.05-9.01-.06-13.51-.07s-9.21-.01-13.82.01c-4.56.03-9.11.26-13.67.33s-8.99.12-13.48.14c-5.52.03-11.05.04-16.57.05-5.89,0-11.78.01-17.67.02-4.83,0-9.65,0-14.48.02-2.39,0-4.79,0-7.18.1-2.23.08-4.47.2-6.7.19-2.1-.01-4.19-.18-6.3-.19-2.14,0-4.3.13-6.41.55-1.65.33-3.32.84-4.77,1.73-2.34,1.43-4.15,3.66-5.34,6.11-1.26,2.58-1.97,5.45-1.96,8.33,0,2.7.64,5.53,2.22,7.76,2.02,2.87,5.27,4.72,8.63,5.56s7.11.81,10.67.68c4.09-.14,8.17-.08,12.26-.18,1.4-.04,2.8-.05,4.19-.07,4.66-.06,9.32-.1,13.98-.13,5.33-.04,10.66-.07,15.99-.1,3.79-.02,7.57-.04,11.36-.05,3.57-.01,7.15-.03,10.72-.06,5.48-.04,10.96-.08,16.44-.11,5.82-.04,11.64-.07,17.45-.09,4.66-.02,9.33-.03,13.99,0,4.19.03,8.38.11,12.57.14,5.83.05,11.65.07,17.48.09,6.53.03,13.06.05,19.6.08s13.04.07,19.55.14c5.83.06,11.65.14,17.48.28,3.96.09,7.91.3,11.87.37,4.13.08,8.26.07,12.38.07,5.27,0,10.54-.02,15.81-.06,4.08-.03,8.17-.05,12.25-.13,2.48-.04,4.95-.09,7.43-.07,4.44.03,8.95,0,13.27-1.15,1.9-.51,3.85-1.19,5.45-2.36,1.46-1.07,2.67-2.4,3.62-3.95s1.65-3.19,2.04-4.9c.44-1.97.43-3.98.1-5.96-.28-1.74-.87-3.49-1.8-4.99s-2.13-2.6-3.53-3.54c-2.73-1.83-6.02-2.64-9.25-2.95-.48-.05-.92.41-.97.86s.22,1.02.71,1.09Z"/>
      </g>
    </g>
    <g>
      <path class="cls-4" d="M262.32,397.55c-11.8,0-39,.04-50.81.1-13.7.06-45.66-.35-59.35.43-4.05.23-19,.26-23.05.2-5.1-.08-9.94.46-14.42-2.51-11.1-7.38-8.76-26.22,2.75-31.94.39-.19.8-.38,1.21-.54,4.35-1.74,11.72-1.87,16.32-1.95,4.6-.08,99.22.22,128.92.44-1.78.51-3.46,1.27-4.87,2.41-2.3,1.86-4.54,5.33-5.62,8.09-3.52,9.01-.19,20.94,8.93,25.27Z"/>
      <g class="cls-11">
        <path class="cls-12" d="M106.52,395.55c.1-.02.2-.04.31-.06.05,0,.31-.05.12-.02.19-.03.38-.05.57-.06.41-.03.83-.07,1.24-.09.87-.04,1.73-.01,2.6.03,1.73.09,3.45.28,5.19.3,3.57.04,7.14-.08,10.7-.08,4.79,0,9.59-.11,14.38-.17,4.55-.06,9.1-.15,13.64-.07s9.45.07,14.18.05c5.79-.02,11.58-.07,17.38-.11,5.89-.04,11.78-.08,17.67-.08,5.01,0,10.03,0,15.04.12,3.65.08,7.29.15,10.94.17,4.91.02,9.82.02,14.74.02,1.92,0,3.85,0,5.77,0,2.75,0,5.48.1,8.23.2.95.04,1.9.09,2.85.06.47-.01.96-.03,1.43-.08s1.2-.23,1.58-.25c.67-.03,1.31-.57,1.28-1.28-.03-.67-.56-1.32-1.28-1.28.18,0-.29-.02-.4-.03-.13-.01-.26-.02-.4-.04-.24-.02-.48-.06-.71-.07-.5-.03-1-.05-1.51-.08-1-.05-2.01-.05-3.01-.09-2.03-.08-4.06-.19-6.09-.19-1.58,0-3.16,0-4.74,0-4.76,0-9.52,0-14.28-.01-3.88-.01-7.76,0-11.63-.11-4.64-.14-9.28-.18-13.92-.19-5.77-.02-11.54.01-17.32.05-5.9.04-11.8.08-17.7.11-5.07.02-10.15.04-15.22,0-4.26-.04-8.52-.06-12.79-.01-5.18.06-10.35.14-15.53.19-2.64.03-5.28.05-7.91.12-1.94.05-3.88.13-5.82.1-1.72-.02-3.44-.11-5.16-.06s-3.42.19-5.02.78c-.58.22-.98.78-.8,1.42s.8.92,1.42.8h0Z"/>
        <path class="cls-12" d="M106.52,388.16c.1-.02.2-.04.31-.06.05,0,.31-.05.12-.02.19-.03.38-.05.57-.06.41-.03.83-.07,1.24-.09.87-.04,1.73-.01,2.6.03,1.73.09,3.45.28,5.19.3,3.57.04,7.14-.08,10.7-.08,4.79,0,9.59-.11,14.38-.17,4.55-.06,9.1-.15,13.64-.07,4.73.08,9.45.07,14.18.05,5.79-.02,11.58-.07,17.38-.11,5.89-.04,11.78-.08,17.67-.08,5.01,0,10.03,0,15.04.12,3.65.08,7.29.15,10.94.17,4.91.02,9.82.02,14.74.02,1.92,0,3.85,0,5.77,0,2.75,0,5.48.1,8.23.2.95.04,1.9.09,2.85.06.47-.01.96-.03,1.43-.08s1.2-.23,1.58-.25c.67-.03,1.31-.57,1.28-1.28-.03-.67-.56-1.32-1.28-1.28.18,0-.29-.02-.4-.03-.13-.01-.26-.02-.4-.04-.24-.02-.48-.06-.71-.07-.5-.03-1-.05-1.51-.08-1-.05-2.01-.05-3.01-.09-2.03-.08-4.06-.19-6.09-.19-1.58,0-3.16,0-4.74,0-4.76,0-9.52,0-14.28-.01-3.88-.01-7.76,0-11.63-.11-4.64-.14-9.28-.18-13.92-.19-5.77-.02-11.54.01-17.32.05-5.9.04-11.8.08-17.7.11-5.07.02-10.15.04-15.22,0-4.26-.04-8.52-.06-12.79-.01-5.18.06-10.35.14-15.53.19-2.64.03-5.28.05-7.91.12-1.94.05-3.88.13-5.82.1-1.72-.02-3.44-.11-5.16-.06s-3.42.19-5.02.78c-.58.22-.98.78-.8,1.42s.8.92,1.42.8h0Z"/>
        <path class="cls-12" d="M106.52,380.77c.1-.02.2-.04.31-.06.05,0,.31-.05.12-.02.19-.03.38-.05.57-.06.41-.03.83-.07,1.24-.09.87-.04,1.73-.01,2.6.03,1.73.09,3.45.28,5.19.3,3.57.04,7.14-.08,10.7-.08,4.79,0,9.59-.11,14.38-.17,4.55-.06,9.1-.15,13.64-.07,4.73.08,9.45.07,14.18.05,5.79-.02,11.58-.07,17.38-.11s11.78-.08,17.67-.08c5.01,0,10.03,0,15.04.12,3.65.08,7.29.15,10.94.17,4.91.02,9.82.02,14.74.02,1.92,0,3.85,0,5.77,0,2.75,0,5.48.1,8.23.2.95.04,1.9.09,2.85.06.47-.01.96-.03,1.43-.08s1.2-.23,1.58-.25c.67-.03,1.31-.57,1.28-1.28-.03-.67-.56-1.32-1.28-1.28.18,0-.29-.02-.4-.03-.13-.01-.26-.02-.4-.04-.24-.02-.48-.06-.71-.07-.5-.03-1-.05-1.51-.08-1-.05-2.01-.05-3.01-.09-2.03-.08-4.06-.19-6.09-.19-1.58,0-3.16,0-4.74,0-4.76,0-9.52,0-14.28-.01-3.88-.01-7.76,0-11.63-.11-4.64-.14-9.28-.18-13.92-.19-5.77-.02-11.54.01-17.32.05-5.9.04-11.8.08-17.7.11-5.07.02-10.15.04-15.22,0-4.26-.04-8.52-.06-12.79-.01-5.18.06-10.35.14-15.53.19-2.64.03-5.28.05-7.91.12-1.94.05-3.88.13-5.82.1-1.72-.02-3.44-.11-5.16-.06s-3.42.19-5.02.78c-.58.22-.98.78-.8,1.42s.8.92,1.42.8h0Z"/>
        <path class="cls-12" d="M106.52,373.38c.1-.02.2-.04.31-.06.05,0,.31-.05.12-.02.19-.03.38-.05.57-.06.41-.03.83-.07,1.24-.09.87-.04,1.73-.01,2.6.03,1.73.09,3.45.28,5.19.3,3.57.04,7.14-.08,10.7-.08,4.79,0,9.59-.11,14.38-.17,4.55-.06,9.1-.15,13.64-.07,4.73.08,9.45.07,14.18.05,5.79-.02,11.58-.07,17.38-.11,5.89-.04,11.78-.08,17.67-.08,5.01,0,10.03,0,15.04.12,3.65.08,7.29.15,10.94.17,4.91.02,9.82.02,14.74.02,1.92,0,3.85,0,5.77,0,2.75,0,5.48.1,8.23.2.95.04,1.9.09,2.85.06.47-.01.96-.03,1.43-.08s1.2-.23,1.58-.25c.67-.03,1.31-.57,1.28-1.28-.03-.67-.56-1.32-1.28-1.28.18,0-.29-.02-.4-.03-.13-.01-.26-.02-.4-.04-.24-.02-.48-.06-.71-.07-.5-.03-1-.05-1.51-.08-1-.05-2.01-.05-3.01-.09-2.03-.08-4.06-.19-6.09-.19-1.58,0-3.16,0-4.74,0-4.76,0-9.52,0-14.28-.01-3.88-.01-7.76,0-11.63-.11-4.64-.14-9.28-.18-13.92-.19-5.77-.02-11.54.01-17.32.05-5.9.04-11.8.08-17.7.11-5.07.02-10.15.04-15.22,0-4.26-.04-8.52-.06-12.79-.01-5.18.06-10.35.14-15.53.19-2.64.03-5.28.05-7.91.12-1.94.05-3.88.13-5.82.1-1.72-.02-3.44-.11-5.16-.06s-3.42.19-5.02.78c-.58.22-.98.78-.8,1.42s.8.92,1.42.8h0Z"/>
        <path class="cls-12" d="M106.52,365.99c.1-.02.2-.04.31-.06.05,0,.31-.05.12-.02.19-.03.38-.05.57-.06.41-.03.83-.07,1.24-.09.87-.04,1.73-.01,2.6.03,1.73.09,3.45.28,5.19.3,3.57.04,7.14-.08,10.7-.08,4.79,0,9.59-.11,14.38-.17,4.55-.06,9.1-.15,13.64-.07s9.45.07,14.18.05c5.79-.02,11.58-.07,17.38-.11,5.89-.04,11.78-.08,17.67-.08,5.01,0,10.03,0,15.04.12,3.65.08,7.29.15,10.94.17,4.91.02,9.82.02,14.74.02,1.92,0,3.85,0,5.77,0,2.75,0,5.48.1,8.23.2.95.04,1.9.09,2.85.06.47-.01.96-.03,1.43-.08s1.2-.23,1.58-.25c.67-.03,1.31-.57,1.28-1.28-.03-.67-.56-1.32-1.28-1.28.18,0-.29-.02-.4-.03-.13-.01-.26-.02-.4-.04-.24-.02-.48-.06-.71-.07-.5-.03-1-.05-1.51-.08-1-.05-2.01-.05-3.01-.09-2.03-.08-4.06-.19-6.09-.19-1.58,0-3.16,0-4.74,0-4.76,0-9.52,0-14.28-.01-3.88-.01-7.76,0-11.63-.11-4.64-.14-9.28-.18-13.92-.19-5.77-.02-11.54.01-17.32.05-5.9.04-11.8.08-17.7.11-5.07.02-10.15.04-15.22,0-4.26-.04-8.52-.06-12.79-.01-5.18.06-10.35.14-15.53.19-2.64.03-5.28.05-7.91.12-1.94.05-3.88.13-5.82.1-1.72-.02-3.44-.11-5.16-.06-1.7.05-3.42.19-5.02.78-.58.22-.98.78-.8,1.42s.8.92,1.42.8h0Z"/>
      </g>
    </g>
    <path class="cls-3" d="M351.47,380.81c-.39,4.19-3.23,7.48-7.2,8.9-4.17,1.49-10.39-.86-11.95-5.01-1.36-3.58-1.13-7.24,1.01-10.42,1.23-1.83,3.32-3.49,5.39-4.16,4.76-1.56,9.11.26,11.71,4.4,1.12,1.77,1.22,4.26,1.03,6.29Z"/>
    <path class="cls-3" d="M417.97,380.81c-.39,4.19-3.23,7.48-7.2,8.9-4.17,1.49-10.39-.86-11.96-5.01-1.35-3.58-1.13-7.24,1.02-10.42,1.23-1.83,3.32-3.49,5.39-4.16,4.75-1.56,9.11.26,11.71,4.4,1.11,1.77,1.22,4.26,1.03,6.29Z"/>
    <path class="cls-3" d="M484.48,380.81c-.39,4.19-3.23,7.48-7.2,8.9-4.17,1.49-10.39-.86-11.96-5.01-1.35-3.58-1.13-7.24,1.02-10.42,1.23-1.83,3.32-3.49,5.39-4.16,4.75-1.56,9.11.26,11.71,4.4,1.11,1.77,1.22,4.26,1.03,6.29Z"/>
    <path class="cls-3" d="M550.98,380.81c-.39,4.19-3.23,7.48-7.2,8.9-4.16,1.49-10.39-.86-11.95-5.01-1.36-3.58-1.13-7.24,1.02-10.42,1.23-1.83,3.32-3.49,5.39-4.16,4.75-1.56,9.11.26,11.71,4.4,1.11,1.77,1.22,4.26,1.03,6.29Z"/>
  </g>
  <g>
    <path class="cls-3" d="M330.06,127.74c0,8.28.23,16.67-.18,24.9-.08,1.69-.1,3.4-.08,5.11-4.62,0-8.66.04-11.86.08-12.3.15-151.49,1.13-158.61,1.21-3.56.04-7.11.02-10.67.11-.76.02-1.73-.04-2.73-.07v-36.5c0-4.45-.14-8.94,0-13.39.05-1.87.18-3.85.24-5.82.92.04,1.8.08,2.5.06,3.56-.08,7.11-.06,10.67-.11,7.12-.07,146.31-1.06,158.61-1.21,3.38-.05,7.68-.07,12.62-.09-.1,8.58-.5,17.12-.5,25.72Z"/>
    <path class="cls-1" d="M425.18,148c-.96,1.9-1.96,3.78-2.98,5.65-.6,1.1-1.17,2.23-1.72,3.38-16.7.72-63.67.59-90.68.72-.02-1.71,0-3.41.08-5.11.41-8.23.18-16.62.18-24.9s.4-17.14.5-25.72c20.75-.09,52.68-.04,73.96-.33,5.04,13.36,11.12,26.76,17.29,39.62,1.07,2.21,2.29,4.44,3.37,6.69Z"/>
  </g>
  <g>
    <path class="cls-1" d="M376.47,128.29c-1.24,3-2.07,6.24-3.1,9.32-5.05,15.17-10.13,30.34-15.19,45.51-3.7,11.07-7.44,22.13-11,33.25-1.48,4.62-2.97,9.24-4.46,13.85-2.93,9.09-5.86,18.19-8.78,27.28-3.71,11.53-7.41,23.05-11.11,34.58-3.93,12.27-7.86,24.54-11.76,36.82-3.6,11.32-7.2,22.65-10.76,33.98-1.5,4.77-3,9.56-4.48,14.34-1.24,3.98-1.96,8.04-4.15,11.66-.83,1.38-1.67,1.84-3.1,2.41-2.01.8-4.08.64-6.15.36-.39-.06-.79-.13-1.19-.27,0,0-.03,0-.04,0-.89-.29-1.74-.77-2.25-1.56-.48-.73-.69-1.59-.91-2.43-.13-.55-.28-1.11-.34-1.67-.36-2.7.44-5.94,1.24-8.5.93-3.02,1.86-6.02,2.81-9.03,3.48-11.1,6.99-22.2,10.51-33.29,3.93-12.35,7.88-24.69,11.82-37.04,3.8-11.86,7.61-23.71,11.41-35.56,3.1-9.64,6.2-19.27,9.3-28.91,1.84-5.67,3.66-11.34,5.49-17.02,2.1-6.57,4.3-13.13,6.48-19.68,4.65-14,9.34-27.99,14.01-41.98,2.36-7.05,4.71-14.11,7.06-21.16,1.05-3.14,2.08-6.28,3.13-9.43,1.08-3.28,1.69-6.69,5.03-8.47,1.67-.89,3.9-1.59,5.79-1.42.73.08,1.39.25,1.98.51,0,0,.02,0,.03,0,1.94.88,3.16,2.71,3.77,4.9.89,3.24.13,5.72-1.07,8.64Z"/>
    <path class="cls-3" d="M373.75,114.75c-.59-.27-1.25-.44-1.98-.51-1.89-.17-4.12.52-5.79,1.42-3.34,1.79-3.95,5.19-5.03,8.47-1.05,3.15-2.08,6.29-3.13,9.43-2.35,7.06-4.7,14.11-7.06,21.16-4.67,13.99-9.36,27.98-14.01,41.98-2.18,6.55-4.38,13.11-6.48,19.68-1.83,5.68-3.65,11.35-5.49,17.02-3.1,9.64-6.2,19.27-9.3,28.91-3.8,11.85-7.62,23.7-11.41,35.56-3.95,12.35-7.89,24.69-11.82,37.04-3.52,11.09-7.03,22.19-10.51,33.29-.94,3.01-1.87,6.01-2.81,9.03-.8,2.57-1.6,5.8-1.24,8.5.07.56.21,1.12.34,1.67.22.85.44,1.7.91,2.43.51.79,1.36,1.27,2.25,1.56-2.08-.4-4.05-1.46-5.95-2.44-1.25-.64-2.48-1.36-3.41-2.41-2.34-2.63-1.04-6.36-.11-9.32.93-3.02,1.86-6.02,2.81-9.03,3.48-11.1,6.99-22.2,10.51-33.29,3.93-12.35,7.87-24.69,11.82-37.04,3.8-11.86,7.6-23.71,11.41-35.56,3.1-9.64,6.2-19.27,9.3-28.91,1.83-5.67,3.66-11.34,5.48-17.02,2.11-6.57,4.3-13.13,6.48-19.68,4.66-14,9.34-27.99,14.02-41.98,2.35-7.05,4.71-14.11,7.06-21.16,1.04-3.14,2.08-6.28,3.13-9.43,1.08-3.28,1.69-6.69,5.03-8.47,2.01-1.07,3.92-1.21,6.1-1.52,2.45-.35,4.85-.42,7.3.1.54.11,1.09.26,1.58.51Z"/>
  </g>
</svg>