<?xml version="1.0" encoding="UTF-8"?>
<svg id="Layer_1" data-name="Layer 1" xmlns="http://www.w3.org/2000/svg" xmlns:xlink="http://www.w3.org/1999/xlink" viewBox="0 0 500 500">
  <defs>
    <style>
      .cls-1 {
        fill: #f5f6dd;
      }

      .cls-2 {
        fill: #041063;
      }

      .cls-3 {
        fill: #326bf5;
      }

      .cls-4 {
        fill: #ffa75d;
      }

      .cls-5 {
        fill: #ff7868;
      }

      .cls-6 {
        fill: #e8ec9d;
      }

      .cls-7 {
        clip-path: url(#clippath);
      }
    </style>
    <clipPath id="clippath">
      <path class="cls-3" d="M385.1,365.56v33.27h-251.02v-33.27c0-2.73,2.21-4.94,4.94-4.94h9.07v-12.02c0-2.73,2.21-4.94,4.94-4.94h213.1c2.73,0,4.94,2.21,4.94,4.94v12.02h9.1c2.73,0,4.94,2.21,4.94,4.94Z"/>
    </clipPath>
  </defs>
  <g>
    <g>
      <path class="cls-3" d="M385.1,365.56v33.27h-251.02v-33.27c0-2.73,2.21-4.94,4.94-4.94h9.07v-12.02c0-2.73,2.21-4.94,4.94-4.94h213.1c2.73,0,4.94,2.21,4.94,4.94v12.02h9.1c2.73,0,4.94,2.21,4.94,4.94Z"/>
      <g class="cls-7">
        <path class="cls-2" d="M365.93,360.44l-1.16-.26c-.11-.02-.21-.05-.32-.07h-.06c.12.06.04.03-.25-.11-.28-.06-.57-.04-.86-.06-.86-.04-1.73-.07-2.59-.08-1.68-.02-3.36-.03-5.04-.05-3.41-.04-6.82,0-10.23-.01-6.84,0-13.68-.01-20.52-.02-6.82,0-13.63-.01-20.45-.01-6.84,0-13.68,0-20.52,0s-13.63,0-20.45,0c-6.82,0-13.63,0-20.45,0-6.82,0-13.63,0-20.45,0h-20.45c-6.82,0-13.63,0-20.45,0-3.43,0-6.86,0-10.29,0s-6.82,0-10.23.13c-.82.03-1.64.08-2.45.13s-1.69.15-2.52.15c-.51,0-.94.43-.94.94s.43.94.94.94c.86,0,1.73.1,2.59.15s1.73.1,2.59.13c1.68.07,3.36.09,5.04.12,3.41.06,6.82,0,10.23,0,6.84,0,13.68,0,20.52,0,6.82,0,13.63,0,20.45,0s13.68,0,20.52,0,13.63,0,20.45,0c6.82,0,13.63,0,20.45,0s13.63,0,20.45,0,13.63,0,20.45,0c6.82,0,13.63-.01,20.45-.02,6.84,0,13.68,0,20.52-.07.82,0,1.64-.05,2.45-.08.25-.01.54.01.79-.05.5-.14.35-.12.25-.1.11-.03.21-.05.32-.07l1.22-.27c.68-.15.68-1.23,0-1.38h0Z"/>
        <path class="cls-2" d="M345.1,377.82c.02.11.05.22.07.32.04.17.13.33.2.49.09.21.19.41.29.62s.21.41.31.61.24.39.36.58c.54.83,1.14,1.63,1.78,2.39.16.19.32.38.49.57.09.1.17.19.26.28.04.04.08.09.12.13.08.09.19.16.29.23.03.02.06.04.09.06l.27.11c.15.05.3.05.45.02.1,0,.2-.03.29-.08.14-.05.26-.12.36-.23l.18-.23.11-.27c.05-.15.05-.3.02-.45,0-.15-.05-.29-.13-.42-.02-.02-.04-.05-.05-.07,0-.01-.02-.02-.03-.04-.05-.06-.13-.19-.19-.24-.05-.04-.1-.08-.14-.13-.09-.08-.18-.17-.27-.25-.18-.17-.37-.35-.54-.53-.35-.36-.69-.73-1.01-1.12-.19-.22-.37-.45-.54-.67l.16.21c-.26-.34-.51-.69-.77-1.03l.15.2c-.21-.27-.41-.55-.61-.83-.09-.14-.19-.27-.28-.41-.13-.2-.29-.36-.45-.53l-.15-.12c-.09-.05-.18-.08-.28-.09-.16-.02-.33,0-.47.09-.11.07-.2.16-.27.27-.11.17-.11.38-.07.57h0Z"/>
        <path class="cls-2" d="M209.27,392.02c.21-.08.42-.17.63-.26.11-.05.22-.1.33-.16s.22-.12.32-.18c0,0,.01,0,.02-.01h0c.09-.08.18-.15.27-.22.01,0,.02-.02.04-.03.03-.02.05-.04.07-.06.05-.04.1-.08.14-.12.05-.04.1-.09.15-.14,0,0,.01-.01.02-.02.18-.17.27-.36.35-.59,0-.01,0-.02.01-.04,0-.03.02-.06.03-.09l-.12.3c.08-.1.15-.21.21-.32s.13-.22.2-.33l.11-.25c.04-.14.05-.28.02-.42,0-.09-.02-.18-.07-.26-.04-.13-.11-.24-.22-.34l-.21-.16-.25-.11c-.14-.04-.28-.05-.42-.02-.14,0-.27.05-.39.12-.11.07-.21.14-.32.21s-.23.13-.34.19l.62-.17c-.15.01-.3.04-.44.06-.13.02-.26.07-.37.15-.02.01-.03.03-.05.04-.07.05-.14.1-.21.15-.04.02-.07.05-.11.07-.13.08-.25.18-.37.28-.07.06-.14.11-.21.17l.27-.21c-.22.17-.45.32-.68.46-.15.08-.26.19-.35.32-.11.12-.19.26-.23.43l-.05.34c0,.17.03.34.11.49.03.11.08.2.16.28.09.14.21.25.35.32l.3.13c.22.06.45.06.67,0h0Z"/>
      </g>
    </g>
    <path class="cls-5" d="M162.81,207.97l-5.1,135.68h101.87V115.24c-51.89,0-94.57,40.9-96.77,92.73Z"/>
    <path class="cls-4" d="M356.33,207.97c-1.12-25.93-12.32-49.11-29.73-65.8-17.45-16.69-41.05-26.92-67.01-26.92v228.41h101.87l-5.13-135.68Z"/>
    <path class="cls-1" d="M195.66,158.33c.18-.04.32-.15.47-.25l-.68.09c.37.13.71.07,1.08,0,.44-.08.78-.36,1.11-.65.3-.26.6-.51.9-.76s.57-.55.86-.82.57-.53.85-.78c.3-.27.6-.53.89-.82s.57-.57.86-.86c.58-.56,1.17-1.09,1.77-1.62.7-.61,1.42-1.19,2.16-1.76l-.53.41c1.47-1.14,2.98-2.23,4.52-3.27.76-.51,1.56-.98,2.3-1.53.79-.59,1.6-1.15,2.38-1.75.26-.2.51-.42.77-.63.18-.15.38-.3.54-.48.32-.36.64-.73.97-1.09.47-.53.66-1.35.26-1.98s-1.11-.9-1.85-.75c-.39.08-.78.16-1.17.24s-.77.23-1.15.38c-.97.38-1.89.85-2.81,1.32-1.55.8-3,1.81-4.43,2.82-3.01,2.12-5.87,4.52-8.33,7.26-.74.83-1.34,1.85-1.91,2.81-.31.52-.52,1.11-.74,1.67-.16.4-.27.77-.21,1.21.06.46.17.84.52,1.19l-.23-.86c-.04.25-.11.5-.04.76.11.39.5.57.87.5h0Z"/>
  </g>
  <g>
    <path class="cls-6" d="M253.72,67.64c-.07.54-.18,1.09-.22,1.64-.04.47-.07.94-.11,1.42-.07.92-.09,1.84-.1,2.76,0,1.86-.01,3.73-.02,5.59,0,1.06-.05,2.13,0,3.2.01.4.16.79.45,1.08.26.26.7.46,1.08.45.85-.04,1.49-.67,1.52-1.52.03-.94,0-1.89,0-2.83v-2.76c-.01-.94-.02-1.89-.02-2.83s0-1.84-.07-2.76l-.12-1.6c-.05-.61-.15-1.22-.23-1.82l-.11-.26c-.07-.13-.16-.23-.29-.31-.19-.14-.43-.25-.67-.24-.2,0-.39.06-.56.15-.21.11-.48.42-.51.66h0Z"/>
    <path class="cls-6" d="M210.58,82.91c-.04.25-.1.51-.09.76,0,.19.01.38,0,.57,0,.17.05.4.08.59.01.09.03.18.04.27.03.2.06.4.1.59.07.37.18.73.28,1.09.11.38.23.76.34,1.14.46,1.45.99,2.88,1.45,4.33.12.38.23.76.34,1.14.13.47.21.95.46,1.37l-.15-.35c.03.08.06.15.09.23.03.09.07.17.11.26.13.31.32.5.6.69s.76.24,1.07.14c.36-.12.62-.33.83-.64.23-.33.2-.7.21-1.07,0-.06,0-.12,0-.19,0-.22-.05-.43-.1-.64-.08-.32-.16-.63-.25-.94-.19-.66-.41-1.32-.63-1.97-.49-1.42-1.02-2.82-1.49-4.25-.13-.39-.24-.78-.38-1.16-.18-.48-.32-.97-.55-1.43l.13.31c-.06-.15-.12-.3-.18-.45-.09-.23-.2-.44-.32-.66-.22-.38-.67-.58-1.1-.52-.2.03-.36.09-.52.22-.17.13-.35.35-.39.57h0Z"/>
    <path class="cls-6" d="M176.49,100.45s0,.03,0,.04l.19-.47c-.17.14-.28.32-.35.53s-.03.36,0,.58c0,.03,0,.05.01.08,0,.05.02.1.02.15l-.04-.31c0,.21.07.46.14.67l-.05-.34s0,.04,0,.06c.02.28.07.47.2.71.03.05.06.1.08.16.05.1.11.2.16.31.12.23.24.45.38.66.3.46.61.92.92,1.38.6.89,1.23,1.75,1.88,2.61.22.28.43.56.65.84.06.08.12.15.19.23.03.03.05.07.08.1.18.2.29.23.5.32s.32.13.6.13c.14,0,.28-.04.42-.06h-.78.02c-.12-.05-.23-.09-.35-.14.08.04.16.09.24.13.13.06.26.12.4.17.01,0,.02,0,.03.01,0,0,0,0,.01,0,.05.02.31.05.36.05l-.65-.18s0,0,0,0c.15.09.31.15.48.15.17.04.34.03.52-.02.3-.08.63-.32.77-.6.16-.3.24-.66.13-1s-.3-.59-.6-.77c0,0,0,0,0,0l.6.77c-.05-.18-.16-.34-.23-.52l.14.33c-.02-.06-.05-.11-.07-.17l.05.38v-.02c-.02.13-.03.26-.05.39,0-.01,0-.02.01-.03.06-.28.06-.54,0-.81-.07-.29-.21-.46-.4-.69-.03-.03-.06-.07-.09-.1-.07-.08-.13-.16-.2-.24-.16-.19-.31-.39-.46-.59l.24.31c-.51-.66-1-1.33-1.5-1.98l.24.31c-.34-.45-.69-.89-1.02-1.34-.38-.51-.75-1.03-1.16-1.52-.17-.2-.33-.39-.49-.59l.21.27h0c-.08-.17-.2-.29-.34-.38-.08-.08-.18-.14-.29-.17-.05-.03-.11-.05-.17-.07l.31.13s-.03-.02-.05-.03l.26.2c-.08-.07-.19-.16-.28-.22l.26.2c-.46-.39-.95-.87-1.61-.6l.51.07s-.02-.01-.04-.02c-.2-.12-.45-.12-.65,0s-.31.32-.32.55h0Z"/>
    <path class="cls-6" d="M146.88,135.26c.04.13.09.26.14.39.09.22.18.46.29.67.03.07.07.13.11.2.1.17.23.32.35.47.1.12.2.24.3.36.22.25.44.5.69.73s.51.46.77.68c.96.82,1.97,1.57,2.93,2.38.2.17.4.34.6.51.04.04.08.07.13.11,0,0,.02.01.02.02.09.11.2.19.33.25.18.11.37.18.58.18.09.01.17.02.26.03.06,0,.13,0,.19.01.18,0,.35-.03.51-.11.16-.05.3-.14.42-.27l.21-.27c.12-.2.18-.43.18-.66,0-.07.01-.14,0-.2,0-.02,0-.04,0-.05-.02-.31-.06-.52-.22-.8-.06-.11-.17-.23-.26-.34-.04-.04-.08-.08-.12-.12-.19-.19-.39-.35-.6-.51-.62-.49-1.26-.96-1.89-1.43-.34-.25-.68-.5-1.01-.76l.31.24c-.43-.33-.86-.67-1.27-1.03-.2-.17-.41-.34-.62-.51-.19-.16-.38-.33-.56-.5-.17-.16-.38-.3-.58-.44-.1-.08-.21-.15-.31-.22l.24.19c-.1-.08-.21-.16-.31-.25l-.22-.17c-.13-.08-.26-.12-.41-.13-.1-.03-.19-.03-.29,0-.15,0-.28.05-.41.13-.16.1-.29.23-.39.39-.08.13-.12.26-.13.41-.03.14-.03.29.02.43h0Z"/>
    <path class="cls-6" d="M129.68,179.34c.06.03.12.06.18.09l-.15-.12s.04.03.06.05l-.21-.37c.04.17.14.32.25.44.12.13.29.2.46.26.06.02.12.04.18.06.12.04.25.06.37.1.26.07.52.14.78.22.13.04.27.09.4.12s.28.06.42.09c.28.06.56.13.83.2.96.24,1.92.5,2.87.81.04.01.08.03.13.04.11.04.19.05.32.07.14.02.28.03.42.04.03,0,.06,0,.1,0,.01,0,.03,0,.04,0l.19-.03c.19,0,.37-.07.53-.17.04-.03.26-.19.29-.23.02-.02.03-.03.05-.05.22-.24.39-.57.37-.9-.02-.27-.05-.54-.2-.77s-.34-.41-.57-.55c-.03-.02-.06-.04-.09-.05-.18-.1-.35-.2-.55-.26-.41-.11-.82-.19-1.23-.27-.52-.11-1.05-.21-1.57-.28-.67-.1-1.35-.18-2.03-.24-.13-.01-.27,0-.41.01-.14,0-.28.02-.42.03-.13.01-.26.02-.39.03-.21.02-.44.04-.64.09-.05.01-.11.03-.16.04-.35.09-.63.34-.72.7l.21-.37s-.04.03-.06.05l.15-.12c-.06.04-.12.06-.18.1-.2.11-.33.34-.33.57s.12.47.33.57h0Z"/>
    <path class="cls-6" d="M127,213.88c.16.07.32.15.48.19.11.03.23.06.34.1l-.22-.09c.1.05.21.09.31.14s.21.1.33.13l.09.02.19.04c.35.08.71.11,1.06.15.26.03.52.07.77.1s.52.04.77.06c.15.01.29,0,.44,0h.21c.15-.02.34-.02.47-.06.14-.05.28-.11.41-.17.21-.12.37-.29.5-.5.13-.22.19-.45.19-.7,0-.25-.06-.48-.19-.7-.12-.21-.29-.37-.5-.5-.13-.06-.26-.12-.39-.17h-.02c-.13-.03-.25-.04-.38-.06-.02,0-.03,0-.05,0-.07,0-.14,0-.21,0-.13,0-.26-.02-.38-.01-.26.02-.52.04-.77.06s-.52.06-.77.09l-.38.05c-.23.03-.46.05-.69.1-.14.03-.28.06-.41.09s-.28.11-.41.17l-.18.08.22-.09c-.11.04-.23.07-.34.1-.16.05-.32.13-.48.19-.11.06-.19.15-.25.25-.06.11-.1.23-.1.35,0,.13.03.24.1.35.06.11.15.19.25.25h0Z"/>
    <path class="cls-6" d="M305.65,76.31c-.02.07-.04.14-.07.21l.1-.24s-.06.09-.09.14l.18-.23c-.17.2-.23.29-.31.54,0,.03-.02.05-.03.08-.02.06-.04.12-.06.18l.13-.3c-.13.26-.16.39-.18.68l.04-.33c-.04.3-.11.6-.13.9-.01.2-.02.4-.04.6-.03.44-.07.89-.11,1.33-.08.93-.16,1.86-.26,2.79-.06.51-.12,1.02-.18,1.53l.05-.4c-.15,1.08-.38,2.15-.52,3.23l.05-.4c-.04.28-.08.57-.12.85l.05-.38c-.01.1-.03.21-.07.3l.14-.33s-.02.05-.04.07l.21-.27s-.02.02-.03.03l.27-.21s-.01,0-.02.01l.32-.13s-.01,0-.02,0l.35-.05s-.01,0-.02,0l.35.05c-.33-.05-.4-.05-.73,0l1.02.13s0,0,0,0c-.26-.19-.72-.21-1.02-.13s-.64.32-.79.61c-.16.31-.24.68-.13,1.02l.13.32c.12.2.28.36.47.47,0,0,0,0,0,0l-.61-.79c.19.57.72,1.03,1.35,1,.41-.02.74-.17,1.04-.44.19-.17.35-.4.48-.63.18-.31.31-.71.41-1.06.08-.32.12-.67.17-1,.14-.98.25-1.96.33-2.95s.16-1.91.18-2.86c0-.51.01-1.02.01-1.54,0-.23,0-.47,0-.7,0-.33-.08-.66-.13-.99l.04.33c-.03-.29-.05-.42-.18-.68l.13.3c-.02-.06-.04-.12-.06-.18-.08-.23-.17-.43-.34-.62l.18.23c-.04-.05-.08-.1-.11-.16l.1.24c-.02-.06-.05-.13-.08-.19-.08-.2-.16-.35-.34-.49-.16-.12-.36-.21-.57-.2-.42.02-.78.28-.9.69h0Z"/>
    <path class="cls-6" d="M339.15,96.47c0,.05-.01.11-.02.16l.02-.17c0,.05-.02.1-.02.15l.07-.17s-.04.07-.06.1l.47-.36h-.02c-.27.04-.59.36-.63.63-.02.13-.07.25-.11.37s-.09.25-.14.38l.11-.26c-.05.11-.1.23-.16.33-.03.05-.07.09-.1.14-.04.06-.06.13-.09.19-.11.24-.24.46-.35.69-.25.48-.53.95-.82,1.41s-.57.88-.83,1.33c-.29.5-.56,1.03-.72,1.59-.03.11-.06.22-.07.33-.04.23-.07.46-.08.69s.03.45.07.67c.03.21.14.38.27.54l.11.15.29.23c.12.05.23.1.35.15,0,0,0,0,0,0,.11.03.27.05.38.06l.36-.05.33-.14c.1-.06.2-.16.29-.23l-.28.22c.09-.07.23-.16.31-.24l.23-.29.15-.34c.02-.08.05-.32.05-.4,0-.05,0-.1,0-.15,0-.1,0-.2.02-.3l-.05.39c.05-.38.2-.74.35-1.09l-.15.35c.32-.76.76-1.46,1.14-2.19.2-.39.4-.77.58-1.17.13-.3.26-.59.34-.9.03-.1.05-.19.07-.29.05-.2.1-.42.09-.62-.02-.22,0-.44-.03-.66-.02-.19-.04-.38-.08-.57-.02-.1-.06-.2-.09-.31-.07-.3-.33-.55-.63-.63h-.05c.11.05.23.12.34.19-.02-.02-.05-.04-.07-.07l.11.14c-.05-.09-.1-.19-.16-.27-.14-.21-.41-.35-.66-.27s-.41.3-.43.57h0Z"/>
    <path class="cls-6" d="M360.71,121.54s-.03.05-.04.07l.29-.17c-.25,0-.53.04-.71.24-.02.02-.04.05-.06.08-.09.11-.18.21-.26.32l.15-.19s-.06.06-.09.08l.2-.16c-.19.12-.32.26-.42.45-.03.05-.05.1-.08.14-.06.1-.11.19-.17.28s-.12.19-.18.28-.11.19-.17.29c-.23.39-.48.77-.76,1.12l.2-.26c-.64.83-1.39,1.56-2.22,2.2l.29-.22c-.29.23-.59.45-.88.68l.29-.23c-.3.23-.61.45-.93.66-.16.1-.31.2-.47.31-.17.11-.33.24-.48.38-.09.08-.16.18-.23.29l-.14.33c-.03.11-.04.28-.05.39,0,.02,0,.05,0,.07,0,.22.06.43.17.62.11.18.26.33.44.44.08.04.16.08.25.12l.17.07c.18.06.37.07.55.02.09-.01.15-.01.22-.04.04-.01.08-.02.12-.04.24-.08.48-.2.7-.33.25-.16.5-.32.74-.49.33-.24.66-.48.97-.74.22-.19.43-.4.63-.61.49-.51.93-1.05,1.35-1.62.35-.48.66-.98.93-1.5.19-.37.38-.76.49-1.16.04-.16.08-.31.12-.47.02-.08.03-.16.05-.25.01-.06.02-.09.02-.16.03-.14.02-.27-.02-.41v-.02s-.02-.08-.03-.11l.03.25c0-.1-.02-.2-.04-.3l.03.24c0-.06,0-.12-.02-.19,0-.09-.01-.2-.03-.27-.07-.27-.26-.43-.49-.56l.17.29s0-.05,0-.08c-.01-.13-.08-.26-.23-.3s-.27.02-.35.14h0Z"/>
    <path class="cls-6" d="M378.61,157.05c-.19.11-.39.22-.58.32l.16-.07c-.09.03-.18.07-.26.1-.16.06-.3.13-.45.22-.18.11-.37.25-.57.34l.22-.09c-.19.08-.39.14-.56.24-.12.06-.23.13-.34.2-.24.14-.47.27-.71.41-.48.27-.95.58-1.42.85-.85.49-1.71.95-2.57,1.43-.19.1-.38.2-.57.3-.09.04-.16.09-.24.14s-.16.12-.24.18c.07-.05-.11.08-.15.12-.07.07-.16.21-.23.29-.01.01-.02.03-.03.04l.21-.27c-.06.07-.13.13-.2.18-.15.15-.25.33-.31.53-.06.21-.06.43,0,.64.06.2.16.38.31.53.15.15.33.25.53.31.19.03.39.06.59.07l-.35-.05c.15.02.3.06.45.06s.32-.04.48-.07c.21-.04.4-.13.59-.22s.38-.19.57-.29c.54-.3,1.07-.66,1.55-1.04l-.28.22c1.07-.8,2.14-1.64,3.12-2.56.12-.12.25-.23.37-.35.18-.17.32-.37.46-.57l-.14.18c.13-.17.31-.31.47-.47.12-.12.22-.23.31-.37.05-.08.11-.17.16-.25l-.11.14c.15-.17.29-.34.43-.51.18-.21.22-.5.04-.73-.17-.22-.47-.28-.71-.14h0Z"/>
    <path class="cls-6" d="M384.38,193.21c-.45.22-.9.43-1.36.62l.26-.11c-.43.18-.86.37-1.29.55l.28-.12c-.95.4-1.93.74-2.93,1.02-.24.07-.48.12-.71.24-.13.07-.25.14-.38.2l-.25.19c-.12.11-.21.25-.26.4-.06.1-.08.2-.08.31-.04.17-.03.33.02.5l.13.3.19.25c.11.12.25.21.4.26.15.08.31.11.48.11.1,0,.21-.02.31-.02.04,0,.09,0,.13-.01.22-.02.33-.04.51-.1.2-.07.39-.15.58-.22.49-.2.98-.4,1.46-.63.78-.36,1.56-.76,2.28-1.24.41-.27.8-.55,1.19-.85.11-.06.2-.14.27-.25.08-.09.14-.2.17-.32.06-.23.03-.53-.1-.74s-.33-.38-.57-.44l-.25-.03c-.17,0-.33.04-.48.13h0Z"/>
  </g>
</svg>