<svg width="26" height="32" viewBox="0 0 26 32" fill="none" xmlns="http://www.w3.org/2000/svg">
<g clip-path="url(#clip0_718_1013)">
<path d="M13.5447 25.9906C13.5761 25.928 13.551 25.8904 13.5102 25.881C11.7362 26.5855 7.85237 27.29 5.43478 27.6501C3.34372 27.9632 1.55094 28.0133 0.549362 28.0822L0.0941027 28.1197C0.0407273 28.1291 0.00933211 28.1604 0.00305266 28.2043C-0.00950626 28.2418 0.0187494 28.27 0.0501467 28.2919C0.232251 28.4954 0.822522 29.0434 1.99992 29.2156C3.35 29.4003 5.35943 29.0496 7.86179 28.3295C9.96227 27.7315 12.3673 26.6951 13.5416 25.9906H13.5447Z" fill="#2D6DF6"/>
<path d="M13.7269 27.0395C12.6029 27.8066 11.077 28.5455 9.24967 29.178C7.39723 29.8199 5.4035 30.3647 3.23394 30.7216C3.19313 30.7341 3.15859 30.7623 3.14917 30.803C3.14917 30.8312 3.15859 30.8625 3.17743 30.8782C3.53536 31.16 3.9969 31.3259 4.56205 31.3885C5.26221 31.4668 6.10366 31.3729 7.07069 31.1193C7.93098 30.8907 8.75359 30.5118 9.68923 30.0641C10.5778 29.6351 11.4224 29.1373 12.1414 28.6238C12.8761 28.1009 13.4318 27.5874 13.7772 27.1397C13.7803 27.0771 13.7615 27.0489 13.7269 27.0426V27.0395Z" fill="#2D6DF6"/>
<path d="M4.60914 7.22614C5.05812 7.70832 5.64211 8.05274 6.35169 8.27504L6.40507 8.29383C6.60287 8.34705 18.4302 11.4531 21.5637 12.2953C22.9326 12.6616 24.0189 12.956 24.5276 13.1031C24.581 13.1063 24.6092 13.0843 24.6155 13.053C24.6155 13.028 24.5998 13.0029 24.5715 12.9904C22.5935 12.1982 10.4051 7.53611 5.81166 5.78272L3.87758 5.03753C3.81165 5.03127 3.78025 5.0344 3.75513 5.05945C3.7363 5.08137 3.73315 5.11581 3.73315 5.13459C3.74885 5.29741 3.84933 6.1741 4.24179 6.77527C4.35482 6.9506 4.47727 7.09776 4.60914 7.2324V7.22614Z" fill="#2D6DF6"/>
<path d="M5.1208 2.58596C5.35628 2.87714 5.58234 3.06501 6.01562 3.32488C6.16005 3.41255 6.30448 3.50649 6.47088 3.58476L7.56037 4.13583C8.17889 4.44893 17.3155 8.69151 18.6499 9.35216C20.2292 10.1255 21.8053 10.8676 22.4961 11.2151C22.5651 11.2277 22.5997 11.2089 22.5808 11.1275C20.8791 10.0692 14.3422 5.96749 9.67655 3.09319L6.32959 1.07679L5.71735 0.701063L4.58077 0.0153627C4.51797 -0.00655468 4.48971 -0.00342363 4.46774 0.0153627C4.4332 0.0278869 4.42064 0.0591974 4.42064 0.0811148C4.40808 0.237667 4.39552 1.09244 4.65926 1.74683C4.78171 2.03489 4.93242 2.3386 5.1208 2.58596Z" fill="#2D6DF6"/>
<path d="M13.3502 29.0809C13.3345 29.0809 13.3094 29.081 13.2937 29.0935C11.7803 30.5776 9.54798 31.4136 8.80701 31.6421C8.76619 31.6484 8.7348 31.6797 8.72852 31.7204C8.72852 31.758 8.75363 31.7987 8.78817 31.8144C8.90434 31.8707 9.8023 32.3529 11.504 31.495C12.4742 31.0065 12.964 30.2207 13.4004 29.1749C13.4161 29.1123 13.3785 29.0872 13.3471 29.0872L13.3502 29.0809Z" fill="#2D6DF6"/>
<path d="M24.2323 16.5911C23.4725 16.8072 20.5714 17.5524 18.0125 18.2005C15.7958 18.7704 13.3123 19.4467 13.3123 19.4467C13.0517 19.5124 13.1459 19.6189 13.1742 19.6564C13.2401 19.7598 13.3845 19.9852 13.5478 20.2607C13.9466 20.9245 14.4866 20.84 14.9701 20.6709C15.0611 20.6396 23.8932 16.9669 24.292 16.7007C24.361 16.6632 24.3171 16.6318 24.3139 16.6099C24.3045 16.5849 24.2574 16.5911 24.2354 16.5911H24.2323Z" fill="#2D6DF6"/>
<path d="M20.3517 22.6998L20.2952 22.7217C19.1272 23.6892 17.3501 25.2391 15.5071 26.8015C15.3313 26.9424 15.2653 27.2023 15.1931 27.5154C15.077 28.0383 14.8069 28.7208 14.8069 28.7208C14.7536 28.8774 14.8289 28.94 14.9765 28.7897C16.3956 27.2649 19.5417 23.7957 20.3925 22.8063C20.4114 22.7405 20.3862 22.7061 20.3486 22.703L20.3517 22.6998Z" fill="#2D6DF6"/>
<path d="M25.9467 14.2429C24.3769 13.9548 5.29044 10.5796 5.27788 10.5796C5.24334 10.5764 5.20253 10.5952 5.17427 10.6234C5.16171 10.6578 5.16799 10.6985 5.17741 10.7361C5.48824 11.7193 6.23236 12.7055 7.51965 13.1032C7.66722 13.1502 7.7928 13.1627 7.93723 13.1783C7.93723 13.1783 24.1225 14.2366 25.9247 14.3619C25.9687 14.3619 26.0001 14.3431 26.0001 14.3118C26.0001 14.2805 25.9781 14.2523 25.9436 14.246L25.9467 14.2429Z" fill="#2D6DF6"/>
<path d="M25.1522 15.3293C24.5839 15.345 23.416 15.3512 21.9591 15.3575C20.2794 15.3638 18.2009 15.3732 16.2668 15.3763C13.664 15.3857 9.53208 15.4107 9.53208 15.4107C9.50696 15.4139 9.47242 15.4264 9.45358 15.4577C9.43474 15.489 9.43474 15.514 9.45358 15.5422C9.50696 15.7176 9.74872 16.1559 10.0093 16.4314C10.5305 16.97 11.0925 17.2518 11.6797 17.3113C11.7487 17.3175 11.8178 17.3175 11.89 17.3175C11.9622 17.3175 12.0282 17.3081 12.1098 17.2956C12.1883 17.2862 24.4897 15.5579 25.1554 15.4514C25.1868 15.4452 25.2087 15.4232 25.215 15.3982C25.215 15.3669 25.1868 15.3324 25.1522 15.3293Z" fill="#2D6DF6"/>
<path d="M23.2433 18.3069C22.3956 18.8267 20.1884 20.1731 18.3077 21.3034C17.2527 21.9421 15.9184 22.6842 15.2308 23.1131C15.1491 23.1632 15.0863 23.1601 15.124 23.373C15.124 23.373 15.1554 23.5765 15.1774 23.8207C15.2496 24.8415 15.6672 24.7287 16.2826 24.2559L16.3548 24.1965C18.4804 22.4525 22.427 19.1398 23.2873 18.4197C23.3093 18.3445 23.2873 18.3195 23.2465 18.3069H23.2433Z" fill="#2D6DF6"/>
</g>
<defs>
<clipPath id="clip0_718_1013">
<rect width="26" height="32" fill="white"/>
</clipPath>
</defs>
</svg>
