<svg xmlns="http://www.w3.org/2000/svg" viewBox="0 0 1000 1000">
  <path transform="translate(0,850) scale(1,-1)" fill="currentColor" d="M354 294l-85-179-25-53c28-13 62-2 77 25l89 188c2 4 3 9 3 12v116c0 7-3 15-9 21-5 5-13 8-20 8h-205l0 87h442v0c31 2 56 27 56 59h-527c-7 0-15-3-21-9-5-6-8-13-8-20v-146c0-7 3-15 8-21s14-8 21-8h204c0 1 0-80 0-80z m517 277c-6 6-14 8-21 8l-81 0c-31-1-56-26-56-58h108v-87h-205c-7 0-14-3-20-9-6-6-9-13-9-21v-116c0-4 1-9 3-11l153-324-81-34-122 287c-3 9-11 16-18 21-4 4-13 5-22 5h0c-9 0-16-3-25-7-7-4-15-12-18-21l-122-286-81 33 2 3 25 53c-28 14-62 2-77-25l-16-32c-3-7-4-16-1-24s9-13 16-16l135-57c15-6 33 0 39 16l123 285 121-286c6-15 23-22 38-17l135 58c8 3 13 9 16 16s3 16-1 23l-163 346v81h204c7 0 15 3 21 9s8 13 8 20v146c0 7-2 15-8 21z m-371 45c65 0 116 53 116 116 0 65-51 118-116 118-65 0-116-53-116-116 0-65 51-118 116-118z m0 175c32 0 59-26 59-59 0-32-27-58-59-58-32 0-59 26-59 58 0 34 27 59 59 59z"/>
</svg>
