<svg xmlns="http://www.w3.org/2000/svg" viewBox="0 0 1000 1000">
  <path transform="translate(0,850) scale(1,-1)" fill="currentColor" d="M296-66c-2-2 3 0 0 0l0 0z m145 56c3 0-3 0 0 0l0 0z m277 650h179c3 0 6 0 9 1l3 2c3 1 6 3 9 6 6 5 9 13 9 20v69c0 8-3 15-9 21s-14 9-21 9c-13 0-28 0-41 0-12 0-24 0-34-6-19-10-34-30-34-52h81v-14h-151c-41 0-78-22-99-58l0 0-113-206h-21l140 249c2 3 4 6 9 9 7 6 18 10 29 14 3 2 8 2 11 3 4 2 7 2 11 2 5 0 8 0 12 1 5 0 9 2 13 3 3 2 8 3 11 5 3 1 6 3 8 6 3 1 6 4 9 7 3 3 5 6 8 9 1 3 4 6 6 9 1 3 2 5 2 10 0 3 2 6 2 9h-60c-21 0-43-5-65-15-10-4-21-10-31-18-9-7-18-16-25-26l-103-184-103 113-44-38 74-79h-178c-53 0-99-34-117-83l-102-298c-4-11-2-19 4-28 6-8 15-12 23-12h87c12 0 24 7 27 19l72 212c9 26 34 44 62 44h7v-63c-41-25-69-71-69-122v-230c0-7 3-14 9-20 5-6 13-9 20-9l53 0c27 4 50 28 50 56h-75v204c0 24 9 44 25 61 16 16 37 25 60 25h184c24 0 44-9 61-25 16-17 25-37 25-61v-201l-186 0c-26-5-50-28-50-56h265c7 0 15 3 21 9 5 5 8 13 8 20v228c0 52-28 97-69 122v91c0 8-3 15-9 21-5 6-13 9-20 9h-18l99 178c10 16 29 28 50 28l0 0z m-441-208c-53 0-99-33-117-82l-66-191h-25l90 262c9 26 34 44 62 44h185v-31c0-2-129-2-129-2z m282-100h-218l0 43h218v-43z m-13-103h57v-160h-57v160z m450 274c-5 12-9 22-15 34-19 32-43 63-44 63-6 7-13 10-22 10-2 0-5 0-6 0l-3-1c-6-2-10-5-13-9 0 0-15-19-30-41-7-12-14-24-20-37-3-6-6-13-8-19-1-7-4-13-4-22 0-47 38-85 85-85 47 0 86 38 86 85-2 9-3 16-6 22l0 0z m-80-44c-16 0-28 13-28 28 0 0 0 3 2 6 1 6 6 14 10 23 4 9 10 16 16 25 3-3 5-7 8-10 5-9 11-19 16-28 1-4 3-7 4-10l2-3 0-2 0 0c-2-16-15-29-30-29l0 0z"/>
</svg>
