<svg xmlns="http://www.w3.org/2000/svg" viewBox="0 0 1000 1000">
  <path transform="translate(0,850) scale(1,-1)" fill="currentColor" d="M799 312c1 26-18 50-45 51l-4-47c-22-117-125-207-248-207-80 0-150 37-198 94-14 22-45 28-67 13l26-39c3-5 8-9 11-14l-100-100 33-34 102 100c51-42 119-69 193-69 73 0 139 27 192 69l100-100 34 34-100 100c37 41 62 93 71 149z m-200 181l-114-114c-4-4-7-10-7-17 0-6 3-13 7-18l92-91 33 34-73 73 97 97c-2 2-35 36-35 36z m-377-18c-15-35-22-72-22-113 0-22 3-43 7-63 8-25 34-40 61-33l-14 46c-2 16-4 32-4 50 0 70 28 134 74 179 45 46 108 74 179 74 112 0 207-72 240-174l0 0c7-23 32-37 57-31l-12 47c-3 8-4 15-7 21 19 22 29 50 29 76 0 30-11 59-33 81-23 22-52 34-81 34-28 0-56-10-77-29-35 14-75 23-116 23-43 0-84-9-121-25-22 21-50 31-79 31-29 0-59-12-81-34-23-20-34-50-34-79 0-29 11-59 34-81l0 0 0 0z m474 147c17 0 33-6 47-19 13-13 19-29 19-47 0-10-3-21-8-29-23 35-52 66-88 88 9 4 19 7 30 7z m-440-19c13 13 29 19 47 19 12 0 22-3 32-9-35-23-66-56-89-92-6 10-11 22-11 33 2 18 8 36 21 49l0 0z m682-97l-34-34c31-31 48-72 48-113 0-41-17-82-48-113l34-34c41 41 62 94 62 148 0 52-21 105-62 146l0 0z m-66-66l-34-36c14-13 19-29 19-47 0-17-5-33-19-47l34-33c22 22 34 51 34 80 0 30-12 59-34 83l0 0z m-776 32l-34 34c-41-41-62-94-62-149 0-53 21-107 62-148l34 34c-31 31-47 72-47 113 0 43 16 84 47 116l0 0z m32-32c-22-22-34-52-34-81 0-30 12-59 34-81l34 34c-13 13-19 29-19 47 0 18 6 34 19 47 0-2-34 34-34 34z"/>
</svg>
