<svg xmlns="http://www.w3.org/2000/svg" viewBox="0 0 1000 1000">
  <path transform="translate(0,850) scale(1,-1)" fill="currentColor" d="M954 309l-195 122v125c0 9-5 18-12 22-7 4-18 6-25 1-4-1-7-4-12-5-19 117-117 207-239 210-49 31-105 47-162 48-7 0-15-3-19-7s-8-12-8-19c2-40 9-81 30-118 3-6 6-10 9-14-19-15-34-34-46-55h-65c-31 0-54-25-54-54v-68c0-32 18-62 47-76l63-31 27-46c-12 5-24 6-36 6-4 0-8 0-13-1-37-5-69-28-87-61-8-16-13-35-13-54 0-12 2-24 6-34-4-4-9-9-12-15-42-11-84-26-125-50-9-6-15-16-13-26 2-10 9-19 21-22 17-5 36-9 56-15-9-18-15-37-15-56 0-7 0-14 1-20 5-23 18-43 36-58 11-9 25-16 39-20-3-11-6-22-9-33l50-14c12 41 24 85 24 131 0 26-4 54-16 82-3 7-9 13-16 15-21 5-44 13-68 20 19 8 37 13 57 19 6 2 11 6 15 11 18 26 47 47 77 53 7 1 14 2 23 2 24 0 47-7 65-20 17-13 32-34 41-57 4-9 7-20 9-30 6-23 7-50 7-76v-143h53v178l0 1 0 0c0 0 0 2 0 5 0 16-3 156-3 156 0 4 2 9 2 11l0 2c0 18-6 35-17 48-8 15-22 27-36 34-11 6-22 9-34 11l-56 94c-3 4-6 7-10 10l-69 35c-12 6-20 18-20 30v67l3 3h80c10 0 19 6 23 15 9 19 22 37 40 51 13-13 29-25 47-33l24 47c-28 14-52 38-67 67-10 21-16 43-20 67 40-5 78-20 110-42 5-3 9-4 15-4 56 0 104-22 141-59 35-35 57-82 59-135-15-16-27-33-34-47-9-16-13-31-16-41-50-22-88-56-118-93l-29-43c22-16 53-10 70 11 27 33 62 63 111 82 8 3 14 12 16 21l0 0c0 0 3 19 16 42 7 13 18 27 31 40v-91c0-9 4-18 12-22l206-131c13-9 20-22 20-38 0-8-1-15-6-21l0-2c-7-14-23-23-38-23-6 0-13 1-19 4-9 5-19 3-27-1l0 0c0 0-11-7-28-15-16-7-38-13-58-13-8 0-15 1-21 3-7 1-16 0-22-5-6-4-10-13-10-20v-259h53v229c0 0 0 0 1 0 32 0 60 9 81 20 9 4 18 8 24 11 8-3 19-4 27-4 34 0 68 18 86 50l0 1c7 15 12 31 12 47-2 30-18 62-48 80l0 0z m-826-255c6-1 12-2 16-4 6-16 8-32 8-50 0-10-2-22-3-34-6 2-12 5-17 9-8 7-16 18-17 28 0 3-2 7-2 10 0 14 6 30 15 41l0 0z m191 217c8 3 16 4 25 4 10 0 19-1 28-6 7-4 13-10 18-16 4-7 7-15 7-22l0-2c0-7-3-14-6-20 0-2-1-2-3-3-4 4-10 10-16 15-28 22-62 32-97 32-12 0-23-1-34-3-14-3-29-9-44-16 0 10 3 19 7 28 9 17 28 31 48 32 1 0 4 0 5 0 8 0 14-1 20-4 5-3 8-6 11-9 6-10 19-15 31-10l0 0z m456 25c4 4 7 11 7 19s-3 13-7 19-12 7-19 7-13-3-19-7-8-12-8-19 3-13 8-19 12-8 19-8 15 3 19 8z m-535-128c-8 0-13-3-19-8s-8-11-8-19 3-13 8-19 11-7 19-7c7 0 13 3 19 7s7 12 7 19-3 13-7 19-13 8-19 8z m125 416c-5-5-8-12-8-19s3-13 8-19 12-8 19-8 13 3 19 8 7 11 7 19-3 13-7 19-12 7-19 7-15-1-19-7z"/>
</svg>
