<svg xmlns="http://www.w3.org/2000/svg" viewBox="0 0 1000 1000">
  <path transform="translate(0,850) scale(1,-1)" fill="currentColor" d="M1000 259h-68l-14 38-89 232 0 0c-14 33-51 50-86 37l23-63h0l68-178c-22 7-44 12-69 12-59 0-112-25-149-65-3 2-6 3-9 6-25 13-61 26-108 26-47 0-84-13-109-26-3-1-6-3-9-6-37 40-90 65-149 65-23 0-45-5-67-12l17 44 0 0c12 34-5 72-39 85l-25-63-52-132h-66v-68h38c-6-17-9-37-9-57 0-112 92-203 203-203 112 0 203 91 203 203 0 29-6 56-17 81 3 1 4 3 7 4 16 9 41 16 72 16 34 0 59-8 75-19 2-1 3-1 5-3-11-25-18-53-18-81 0-111 91-203 203-203 112 0 203 92 203 203 0 20-3 39-9 58h44l0 69 0 0z m-671-221c-25-25-58-40-95-40-37 0-71 15-96 40-25 25-39 59-39 96 0 37 14 70 39 95 25 25 59 40 96 40 37 0 70-15 95-40 25-25 40-58 40-95 0-38-15-72-40-96z m533 0c-25-25-59-40-96-40-37 0-70 15-95 40-25 25-40 59-40 96 0 37 15 70 40 95 25 25 58 40 95 40 37 0 71-15 96-40 25-25 40-58 40-95 0-38-15-72-40-96z m-152 612l0 0c15-32 53-48 87-35l-23 60-39 96h-139v-68h94c0-1 20-53 20-53z m-491-193l24 61 69 184h94v69h-141l-86-225v0l-1-3 0 0c-12-36 6-72 41-86z"/>
</svg>
