<svg xmlns="http://www.w3.org/2000/svg" viewBox="0 0 1000 1000">
  <path transform="translate(0,850) scale(1,-1)" fill="currentColor" d="M797-44c0-16-13-28-28-28h-538c-16 0-28 13-28 28v101h-78v-101c0-59 47-106 106-106h538c59 0 106 47 106 106v93h-78l0-93 0 0z m75 718c0 0-1 1-1 1-2 4-5 7-8 10 0 0 0 0 0 0l-161 153c-2 2-5 3-6 5-2 1-3 3-6 3-5 1-11 3-15 3h-434c-64 0-117-53-117-118v-196h78v197c0 22 17 40 39 40h394v-115c0-10 5-20 12-28s18-11 28-11h124v-83h78v121c-2 7-3 13-5 18z m-606-449h5c58 0 106 47 106 106v44c0 59-48 106-106 106h-44c-11 0-21-4-28-12s-12-17-12-28v-306h78v90z m0 179h5c16 0 29-13 29-29v-44c0-16-13-29-29-29h-5c0 1 0 102 0 102z m558 0v78h-114c-10 0-20-4-28-11s-11-18-11-28v-306h78v131h75v78h-75v57l75 1 0 0z m-299-263c57 0 104 47 104 105v131c0 57-47 104-104 104h-68c-10 0-20-4-28-12s-11-17-11-28v-263c0-10 4-21 11-28s18-12 28-12c0 3 68 3 68 3z m-28 263h28c15 0 28-11 28-27v-131c0-15-12-28-28-28h-28c0 1 0 186 0 186z"/>
</svg>
