<svg xmlns="http://www.w3.org/2000/svg" viewBox="0 0 1000 1000">
  <path transform="translate(0,850) scale(1,-1)" fill="currentColor" d="M1000 350c0 277-223 500-500 500-276 0-500-223-500-500v-229h3c-1-11-3-21-3-33v-13c0-124 102-225 225-225 12 0 22 4 29 12s12 19 12 29v381c0 12-4 22-12 30s-19 11-29 11c-53 0-103-19-141-51v88c0 115 47 219 122 294 75 75 179 122 294 122 115 0 219-47 294-122 75-75 122-179 122-294v-87c-38 31-87 52-141 52-12 0-22-5-29-12s-12-19-12-29v-380c0-12 4-22 12-29s19-12 29-12c124-3 225 98 225 222v13c0 12-1 22-3 33h3l0 229 0 0z m-816-128v-281c-57 18-99 71-99 134v13c-1 64 42 116 99 134z m732-147c0-63-41-116-98-134v281c57-18 98-70 98-134v-13z"/>
</svg>
