<svg xmlns="http://www.w3.org/2000/svg" viewBox="0 0 1000 1000">
  <path transform="translate(0,850) scale(1,-1)" fill="currentColor" d="M616-29v285c11-3 21-4 31-4 28 0 56 10 78 32 4 4 7 12 7 19 0 7-3 15-7 19l-93 91c-3 3-7 6-11 8l-155 44-70 70v114h0c0 36-30 66-67 66h-82c-9 0-18-2-25-5l-143 140-38-38 143-143c-3-7-5-13-5-22l28 0h-28c0-37 30-66 67-66h25l160-160c3-3 7-6 12-8l154-44 62-62c-2-1-7-1-12-1-15 0-28 6-38 16l0 0c-2 2-5 5-7 6l0 0c-12 6-27 1-34-9-3-4-5-10-5-16h0v-331c0-6-6-12-11-12-6 0-12 6-12 12v105h-55v-104c0-5-6-11-11-11-6 0-12 6-12 11v156h-55v-91c0-6-5-11-11-11-6 0-12 5-12 11v165h-55v-94c0-6-5-12-11-12-6 0-12 6-12 12v182l15 15c13 13 19 31 19 47 0 18-6 34-19 47-8 7-18 13-28 16 0 0 0 0 0 0 0 18-6 34-19 47-8 8-17 12-25 15 0 1 0 3 0 4 0 18-6 34-20 47-13 14-30 20-47 20-3 0-4 0-7 0-3 8-9 16-15 23-13 13-31 19-47 19-17 0-34-6-47-19l-45-45c-15-12-21-30-21-46 0-18 6-34 19-47l19 19-19-19c10-10 24-16 37-19 1-12 7-24 15-33 1-1 3-3 4-4 10-10 24-16 37-19 1-13 9-27 19-37 10-10 23-16 37-19 1-13 9-26 19-37l0 0c0 0 0 0 0 0 1-1 3-3 4-3 12-10 28-16 43-16 6 0 10 2 15 2v-142c0-36 29-66 66-66 4 0 7 0 12 2v-5c0-36 29-66 66-66 4 0 7 0 11 1v-1c0-37 30-66 67-66 14 0 28 4 38 13 12-9 25-13 40-13 11 0 23 3 33 10l65-66 38 38-70 71c1 4 1 7 1 12l0 0z m-287 666h-82c-6 0-12 6-12 12 0 5 6 11 12 11h82c6 0 12-6 12-11 0-8-6-12-12-12z m-263-168c-3 0-6 2-9 3-3 3-3 6-3 9 0 3 2 6 3 9l46 44c3 3 6 3 9 3 3 0 6-2 9-3 3-3 3-6 3-9 0-3-2-6-3-9l-46-45c-3 0-6-2-9-2l0 0z m56-56c-3 0-6 2-9 3l0 0c-3 3-3 6-3 9 0 3 2 6 3 9l46 45 13 14c3 3 6 3 9 3 3 0 6-2 9-3 3-3 3-6 3-9 0-3-2-6-3-9l-12-12 0 0-47-47c-3-1-6-3-9-3l0 0z m63-51c-3-3-6-3-8-3-3 0-6 1-9 3-3 3-3 6-3 9 0 3 1 6 3 8l26 27 21 21c3 2 6 2 9 2 3 0 5-1 8-2 3-3 3-6 3-9 0-3-1-6-3-9l-8-9-39-38 0 0z m94-18l-38-38c-3-3-6-3-9-3-3 0-5 1-8 3l0 0c-3 3-3 6-3 9 0 3 1 6 3 9l38 38c3 3 6 3 9 3 3 0 6-2 8-3 3-3 3-6 3-9 0-3 0-6-3-9l0 0z m427-160l-38 38c-21-20-21-54-2-75l0 0 296-297 38 38-294 296 0 0z"/>
</svg>
