<svg xmlns="http://www.w3.org/2000/svg" viewBox="0 0 1000 1000">
  <path transform="translate(0,850) scale(1,-1)" fill="currentColor" d="M737 79h-85v15c0 37-24 68-56 81v10c0 43-28 78-67 92v279l105 166h144l-81-281h0l-16-56c29-8 60 8 71 37l64 224 63-221v0l2-3c10-29 41-45 71-37l-15 53-93 319c-3 12-15 21-28 21h-632c-13 0-24-9-28-21l-91-316h0l-16-56c29-8 60 8 70 37l65 224 65-222c10-30 41-47 70-39l-15 53-82 283h144l105-165v-282c-39-12-67-49-67-92v-8c-32-12-55-43-55-81v-15h-86c-54 0-98-44-98-99v-31c0-7 3-14 9-20 5-6 13-9 20-9l385 0c31 2 55 27 55 57h-412v2c0 22 18 41 41 41h472c22 0 42-17 42-41v-2l-56 0c-31-1-55-26-55-57h140c7 0 15 3 21 9s8 13 8 20v31c0 56-44 100-98 100z m-302 642h131l-64-103c-2 0-67 103-67 103z m65-500c21 0 38-18 38-39v-4h-75l0 4c-1 22 16 39 37 39z m94-142h-188v15c0 16 13 28 28 28h131c16 0 28-13 28-28v-15z m-266 234h38v58h-366v-58h41c13-67 72-117 144-117 71 0 130 50 143 117z m-228 0h168c-5-13-12-25-21-34-16-16-38-26-63-26-25 0-47 10-63 26-9 9-17 21-21 34z m834 58h-300v-58h38c13-67 72-117 144-117 71 0 130 50 144 117h40v58c0 0-66 0-66 0z m-56-92c-16-16-38-26-63-26-25 0-47 10-63 26-9 9-17 21-21 34h168c-3-13-11-25-21-34z"/>
</svg>
