<svg xmlns="http://www.w3.org/2000/svg" viewBox="0 0 1000 1000">
  <path transform="translate(0,850) scale(1,-1)" fill="currentColor" d="M988 268c-20 64-61 114-110 160-3 3-10 3-13 1-41-19-72-48-90-91-15-35-19-73-19-111 0-11 0-23 0-30-4 30-6 63-2 96 6 44 21 85 52 117 32 33 72 50 116 59 21 5 40 6 62 10-47 23-96 40-144 52 7 15 16 26 22 40 23 51 19 100-16 145-19 25-43 43-69 59-81 46-168 63-259 66-9 0-12-3-12-13 4 0 9 0 13-1 24-2 49-3 72-8 40-7 78-20 111-47 39-31 47-75 17-116-6-9-13-18-20-25-37-37-83-63-128-85-83-42-171-67-259-93-5-1-8-1-12-3 4-4 9-6 13-7 18-5 34-8 52-12 104-31 197-82 282-149 37-29 71-61 94-101 12-21 13-16-7-29-87-53-180-71-278-53-138 26-240 103-294 233-35 81-38 165-8 249 24 60 62 110 111 151 66 55 139 90 225 97 9 2 12 6 12 15-30-4-61-6-90-12-99-16-187-55-260-122-118-107-168-239-148-398 15-113 68-209 155-285 100-87 216-124 348-112 86 7 162 36 233 87 1 1 4 2 7 4-47-84-126-122-213-149 3-1 6-1 7-1 96-2 184 22 266 67 62 34 115 77 152 137 40 65 53 134 29 208l0 0z"/>
</svg>
