<svg xmlns="http://www.w3.org/2000/svg" viewBox="0 0 1000 1000">
  <path transform="translate(0,850) scale(1,-1)" fill="currentColor" d="M784 100v-147c0-25-21-46-46-46h-478c-25 0-45 21-45 46v307c-2 31-28 56-59 56v-362c0-57 47-104 104-104h478c58 0 105 47 105 104v92c-2 29-27 54-59 54z m90 584c-6 6-14 9-21 9h-166v48c0 61-49 109-109 109h-156c-60 0-109-48-109-109v-47h-166c-7 0-15-3-20-9-6-6-9-13-9-22v-117c0-8 3-15 9-21 5-6 13-9 20-9h10v-106c2-31 28-56 59-56v162h569l0-320c2-31 28-56 59-56v376h9c7 0 15 3 21 9 5 6 8 13 8 21v117c0 9-3 16-8 21l0 0z m-502 57c0 28 22 50 50 50h155c27 0 50-22 50-50v-47h-255c0-1 0 47 0 47z m452-166h-647v59h647c0 0 0-59 0-59z m-442-607c8 0 15 3 21 8s9 14 9 21v431c0 7-3 15-9 21-6 5-13 8-21 8h-79c-7 0-15-3-21-8-5-6-8-14-8-21v-431c0-7 3-15 8-21s14-8 21-8h79z m-60 431h37v-372h-37v372z m218-431c7 0 14 3 20 8s9 14 9 21v431c0 7-3 15-9 21-6 5-13 8-20 8h-80c-7 0-14-3-20-8-6-6-9-14-9-21v-431c0-7 3-15 9-21s13-8 20-8h80z m-58 431h37v-372h-37v372z m214-431c7 0 14 3 20 8 6 6 9 14 9 21v431c0 7-3 15-9 21-6 5-13 8-20 8h-80c-7 0-14-3-20-8-6-6-9-14-9-21v-431c0-7 3-15 9-21 6-5 13-8 20-8h80z m-56 431h37v-372h-39v372z"/>
</svg>
