<svg xmlns="http://www.w3.org/2000/svg" viewBox="0 0 1000 1000">
  <path transform="translate(0,850) scale(1,-1)" fill="currentColor" d="M510 850h-19c-63 0-120-21-167-54-3-2-5-3-6-5l0 0 0 0c-68-53-114-135-114-226v-319h0c2-27 24-49 50-49v46c14-8 28-16 45-24 29-15 61-28 98-28 143 0 269 68 349 174v-16h0c1-27 23-49 50-49v263c1 158-128 287-286 287z m-113-609c-23 0-50 9-76 22-22 11-44 24-67 36v66c39-52 87-93 143-124 2 0 0 0 0 0l0 0z m349 221c-47-100-137-177-246-208-109 30-198 106-246 208v101c0 65 27 124 70 166 42 43 101 70 166 70h19c65 0 123-27 166-70 43-42 69-101 69-166l2-101 0 0z m0-196v-63c-62-131-194-221-349-221-34 0-68 5-100 14-26 35-43 79-43 128h0c0 0 0 0 0 0 0 0 0 1 0 1h0c-1 27-23 49-50 49l0-49 0 0c0-78 33-149 86-197 51-49 122-78 200-78h19c157 0 287 129 287 287v81h0c0 26-22 48-50 48l0 0z m-69-295c-43-43-102-70-167-70h-19c-44 0-85 12-120 31 8 0 17-1 26-1 141 0 266 66 346 171-8-52-31-98-66-131l0 0z m-170 804h-13c-17 0-35-3-53-7 0 0-1 0-1 0 0 0-2 0-2-2-34-10-63-28-86-51-37-37-59-87-59-143 0-6 0-12 1-18l8-79c5-103 94-184 198-184 104 0 193 80 202 186l7 79c0 6 1 12 1 18 0 55-22 105-58 142-37 36-89 59-145 59z m150-216l-7-80c-7-77-72-138-151-138-78 0-145 61-152 138l-7 80c0 4 0 9 0 13 0 41 16 80 44 107 13 14 28 24 44 31 1-3 3-4 3-7 10-19 28-43 53-60 25-19 60-33 101-33 5 0 12 0 12 0l-3 50c0 0-6 0-9 0-20 0-38 5-51 11-22 10-38 25-49 41-3 3-4 7-7 10 4 0 7 0 12 0h13c43 0 79-18 107-44 28-28 44-65 44-107 5-3 5-8 3-12z m-186-21c0 15-12 25-25 25h-37c-15 0-25-11-25-25s12-25 25-25h37c13-1 25 11 25 25z m122 25h-37c-15 0-25-11-25-25s12-25 25-25h37c14 0 25 12 25 25s-12 25-25 25z m-93-57c-43 0-78-35-78-78 0-43 35-78 78-78 43 0 78 35 78 78 0 43-35 78-78 78z m0-106c-15 0-28 12-28 28 0 15 12 28 28 28 15 0 28-12 28-28 0-16-13-28-28-28z"/>
</svg>
