<svg xmlns="http://www.w3.org/2000/svg" viewBox="0 0 1000 1000">
  <path transform="translate(0,850) scale(1,-1)" fill="currentColor" d="M888 682h-776c-62 0-112-50-112-111v-442c0-61 50-111 112-111h775c62 0 112 50 112 111v442c1 61-49 111-111 111z m34-553c0-19-16-35-35-35h-775c-19 0-35 16-35 35v442c0 19 16 35 35 35h775c19 0 35-16 35-35v-442z m-93 406h-658c-11 0-21-4-28-11s-12-17-12-27v-128c0-10 4-20 12-28s17-12 28-12h660c10 0 21 5 28 12s12 18 12 28v128c0 10-5 21-12 28s-19 10-30 10z m-598-258l-74-30c-14-6-25-20-25-35 0-16 11-30 25-35l74-30c12-4 25-3 35 5 11 7 18 19 18 32v59c0 13-6 25-18 32s-23 6-35 2z m234-30l-74 30c-12 4-25 2-35-5s-18-19-18-31v-59c0-13 6-25 18-32s23-9 35-4l74 29c14 6 25 21 25 35-2 17-11 31-25 37z"/>
</svg>
