<svg xmlns="http://www.w3.org/2000/svg" viewBox="0 0 1000 1000">
  <path transform="translate(0,850) scale(1,-1)" fill="currentColor" d="M807 413c-26 0-51-6-75-14l-133 232c-5 7-12 12-21 12l-129 0 0-49 114 0 64-110-158-15-48-4c3-27 26-46 51-44l146 13-111-168-163 288 34 12c25 9 41 34 37 61-5 26-27 45-55 45l-1 0-143-3c-25 0-47-13-60-35-12-22-13-47-2-69l5-9c12-22 37-37 62-37 7 0 14 2 22 3l51 18 56-97-53-61c-31 21-68 33-107 33-103-2-190-87-190-194 0-106 87-193 193-193 98 0 179 74 191 168h85l-28-53h-25v-49h134v49h-56l34 66 137 209 25-44c-46-36-77-92-77-153 0-106 87-193 193-193 107 0 194 87 194 193 0 107-87 192-193 192l0 0z m-576 155c-3-2-4-2-7-2-8 0-17 5-20 12l-4 9c-7 15 3 32 19 34l143 3 0 0c7 0 9-11 1-12l-132-44 0 0z m63-449c-26-26-62-42-101-42-40 0-75 16-102 42-26 27-42 62-42 102 0 39 16 75 42 101 27 27 62 43 102 43 28 0 53-8 75-22l-94-108c-6-7-8-17-5-26 5-9 13-15 22-15h141c-3-28-17-54-38-75z m-48 127l58 66c15-19 27-41 30-66h-88z m138 0c-5 39-22 75-47 103l42 48 87-151c0 0-82 0-82 0z m525-127c-27-26-62-42-102-42-39 0-75 16-101 42-27 27-43 62-43 102 0 39 16 75 43 101 3 3 6 6 10 9l71-124 42 24-70 123c16 6 32 9 50 9 40 0 75-16 101-42 27-27 43-62 43-102-1-38-18-73-44-100l0 0z m-234 477l82 0 0 48-80 0-49 0c0-26 21-48 47-48z"/>
</svg>
