<svg xmlns="http://www.w3.org/2000/svg" viewBox="0 0 1000 1000">
  <path transform="translate(0,850) scale(1,-1)" fill="currentColor" d="M900 719l-73 34 7 69c1 7-2 15-6 21-6 4-13 7-21 7-23 0-42-9-58-21-24-17-40-39-50-57-6-12-11-20-14-26-14-12-51-49-78-103-17-37-29-80-36-112-3-13-6-27-8-35l-36 0c-27-2-49-24-49-52h106c13 0 23 9 25 22l0 2c1 4 4 28 12 59 7 29 17 66 32 95 13 28 31 50 44 66 7 8 13 14 18 18 1 1 4 3 4 4l2 2 0 0 0 0 0 0c4 3 7 7 8 12l0 0c0 1 9 23 23 42 7 11 14 19 23 25l-6-48c-1-11 5-22 15-27l91-41c13-6 21-18 21-31 0-4 0-7-2-12-4-10-13-19-25-22l-90-20c-11-3-19-13-19-25l0-136c0-2 0-4 2-7h0l0 0h0c0-1 12-38 12-84 0-26-3-56-15-82-9-28-25-53-53-71-6-4-10-10-10-17l-28-267h-27l22 246c0 7-1 15-7 21-6 6-13 7-21 7-6 0-11 0-17 0-41 0-71 10-89 22-8 6-16 10-20 13-2 2-3 3-5 5l-1 1 0 0 0 0c-4 6-12 9-19 9h-87c0 2 0 3 2 3 8 34 8 60 8 71 0 1 0 3 0 3l-47-2-4 0v0l0-1c0-9-2-49-18-86-7-19-19-38-35-53-16-16-37-28-65-35l-16-4-22-159 7-43h-38l0 187 30 41-42 30-38-55v-254h150l-16 94 16 117c30 11 53 25 71 43 16 16 28 34 37 52h95c6-6 16-14 30-22 23-14 58-27 105-28l-22-246c0-7 2-15 6-19 5-6 12-9 19-9h78c14 0 24 10 25 22l30 277c31 23 51 54 63 85 13 34 18 69 18 101 0 47-9 84-12 96l0 112 70 16c28 7 52 28 61 54 3 9 4 19 4 28 3 34-16 65-47 78l0 0z m-734-291l8-7c-34-39-55-90-55-146v-21h0v-48c28 0 49 22 50 48h0v21c0 47 19 88 50 119 31 31 72 50 119 50l58 0c26 2 48 24 48 52h-106c-47 0-91-15-126-42l-9 9c-16 16-40 27-63 27-49 0-88-40-88-88v-289h51v287c0 21 16 38 38 38 8 0 18-4 25-10l0 0z m621 234c4 4 7 12 7 17s-3 14-7 18-12 7-18 7-13-1-19-5-7-12-7-18 3-13 7-18 12-7 18-7 14 1 19 6z"/>
</svg>
