<svg xmlns="http://www.w3.org/2000/svg" viewBox="0 0 1000 1000">
  <path transform="translate(0,850) scale(1,-1)" fill="currentColor" d="M584 421c-9 0-19-5-25-11s-10-16-10-25c0-8 4-19 10-25s16-10 25-10c9 0 19 4 25 10s10 17 10 25-4 19-10 25-16 11-25 11z m379-278c9 0 19 4 25 10s11 16 11 25-5 19-11 25-16 10-25 10c-9 0-19-4-25-10s-10-16-10-25 4-19 10-25c8-6 16-10 25-10z m-116-5c-9 0-19-4-25-10s-10-16-10-25 4-19 10-25 16-10 25-10c9 0 19 4 25 10s10 16 10 25-4 19-10 25-16 10-25 10z m116-79c-9 0-19-5-25-10s-10-17-10-25 4-20 10-26c8-7 16-10 25-10 9 0 19 5 25 10s11 17 11 26-5 19-11 25-14 10-25 10z m-742 175l0 0c-2 0-21 10-40 37-19 26-40 73-40 153 0 11 2 23 3 35l-59 59c-10-30-16-61-16-94 0-99 28-164 59-202 16-20 31-32 44-41v-234h72v253c-1 15-10 28-23 34l0 0z m503-21l53 0c11 0 22 6 29 15 7 9 9 22 4 32l-97 275-1 3c-40 89-91 139-149 164-57 25-116 23-173 23-66 0-144-23-209-72-6-4-12-9-16-15l-113 116-52-51 118-118 53-53 432-433 65-65 86-87 52 51-88 89c4 10 6 22 6 34l0 92 0 0z m-36 72c-9 0-19-4-25-10s-10-16-10-25v-97l-437 435c3 3 6 6 9 8 50 38 116 57 165 57 57 0 106-1 144-18 38-16 75-48 110-125l80-225-36 0 0 0z m-181-222v-116h72v75l-63 63c-6-6-9-14-9-22z"/>
</svg>
