<svg xmlns="http://www.w3.org/2000/svg" viewBox="0 0 1000 1000">
  <path transform="translate(0,850) scale(1,-1)" fill="currentColor" d="M871 762h-69v51c0 21-17 37-37 37s-37-16-37-37v-51h-104v51c1 21-15 37-36 37s-36-16-36-37v-51h-105v51c0 21-16 37-35 37s-37-16-37-37v-51h-104v51c0 21-17 37-36 37s-36-16-36-37v-51h-70c-58 0-107-49-107-108v-695c0-59 49-108 107-108h334l144 0c39 2 70 34 70 72h-548c-19 0-35 17-35 36v695c0 20 16 36 35 36h70v-53c0-21 16-37 36-37s37 16 37 37v53h105v-53c0-21 16-37 36-37s37 16 37 37v53h104v-53c0-21 17-37 37-37s37 16 37 37v53h104v-53c0-21 17-37 37-37s37 16 37 37v53h69c19 0 35-16 35-36v-692c0-22-17-39-38-39l-45 0c-39-1-70-33-70-72h111c61 0 110 50 110 111v692c0 59-49 108-107 108l0 0z m-611-410c-7 7-16 10-25 10s-19-5-25-10c-7-8-10-17-10-25 0-9 4-20 10-25 8-8 17-11 25-11s19 5 25 11c8 7 11 16 11 25 0 8-3 17-11 25z m0-131c-7 7-16 10-25 10s-19-4-25-10c-7-8-10-17-10-25 0-9 4-19 10-25 8-8 17-11 25-11s19 5 25 11c8 7 11 16 11 25 0 8-3 19-11 25z m-25-122c-8 0-19-5-25-11-7-7-10-16-10-25 0-9 4-19 10-25 8-7 17-10 25-10s19 4 25 10c8 8 11 16 11 25 0 9-5 19-11 25-7 8-16 11-25 11z m158 253c-8 7-16 10-25 10s-19-5-25-10c-8-8-11-17-11-25 0-9 5-20 11-25 7-8 16-11 25-11s19 5 25 11c7 7 10 16 10 25 0 8-3 17-10 25z m0-131c-8 7-16 10-25 10s-19-4-25-10c-8-8-11-17-11-25 0-9 5-19 11-25 7-8 16-11 25-11s19 5 25 11c7 7 10 16 10 25 0 8-3 19-10 25z m-25-122c-9 0-19-5-25-11-8-7-11-16-11-25 0-9 5-19 11-25 7-7 16-10 25-10s19 4 25 10c7 8 10 16 10 25 0 9-4 19-10 25-6 8-16 11-25 11z m157 253c-7 7-16 10-25 10s-19-5-25-10c-7-8-10-17-10-25 0-9 4-20 10-25 7-8 16-11 25-11s19 5 25 11c7 7 10 16 10 25 2 8-3 17-10 25z m0-131c-7 7-16 10-25 10s-19-4-25-10c-7-8-10-17-10-25 0-9 4-19 10-25 7-8 16-11 25-11s19 5 25 11c7 7 10 16 10 25 2 8-3 19-10 25z m-25-122c-9 0-19-5-25-11-7-7-10-16-10-25 0-9 4-19 10-25 7-7 16-10 25-10s19 4 25 10c7 8 10 16 10 25 0 9-4 19-10 25-6 8-16 11-25 11z m157 253c-7 7-16 10-25 10s-19-5-25-10c-7-8-10-17-10-25 0-9 5-20 10-25 8-8 17-11 25-11s20 5 25 11c8 7 11 16 11 25 1 8-3 17-11 25z m0-131c-7 7-16 10-25 10s-19-4-25-10c-7-8-10-17-10-25 0-9 5-19 10-25 8-8 17-11 25-11s20 5 25 11c8 7 11 16 11 25 1 8-3 19-11 25z m-25-119c-8 0-19-5-25-11-7-7-10-16-10-25 0-9 5-19 10-25 8-7 17-10 25-10s20 4 25 10c8 8 11 16 11 25 0 9-5 19-11 25-5 6-14 11-25 11z m108 250c-8-8-11-17-11-25 0-9 5-20 11-25 7-8 16-11 25-11s19 5 25 11c7 7 10 16 10 25 0 8-4 19-10 25-8 7-16 10-25 10s-18-3-25-10z m51-181c8 7 11 16 11 25 0 8-5 19-11 25-7 7-16 10-25 10s-19-4-25-10c-7-8-10-17-10-25 0-9 4-19 10-25 8-8 16-11 25-11s18 3 25 11z m-591 370h603v-72h-603v72z"/>
</svg>
