<svg xmlns="http://www.w3.org/2000/svg" viewBox="0 0 1000 1000">
  <path transform="translate(0,850) scale(1,-1)" fill="currentColor" d="M990 428l-286 285c-7 8-16 11-26 11h-60c-11 0-19-5-27-11-7-7-10-16-10-26 0-46-37-83-82-83-46 0-83 37-83 83 0 10-4 19-10 26-7 8-16 11-27 11h-61c-11 0-19-5-27-11l-281-285c-6-6-10-16-10-25s4-19 10-26l140-140c15-15 37-15 52 0l25 25v-250c0-10 4-19 10-27 7-7 16-10 26-10h475c11 0 19 4 27 10 7 8 10 17 10 27v250l25-25c15-15 37-15 52 0l139 140c8 7 11 16 11 26s-6 19-12 25l0 0z m-166-113l-61 60c-10 10-26 13-39 7-14-5-22-19-22-33v-302h-402v303c0 15-9 28-22 34-13 6-29 3-40-7l-61-62-89 88 249 249h15c16-68 76-118 150-118 72 0 133 50 150 118h13l247-249-88-88 0 0z"/>
</svg>
