<svg xmlns="http://www.w3.org/2000/svg" viewBox="0 0 1000 1000">
  <path transform="translate(0,850) scale(1,-1)" fill="currentColor" d="M416 147l-53 0c-11 55-60 96-117 96-39 0-71-18-93-44v30c0 8-3 14-7 18-5 5-12 7-18 7h-76v348c0 25 20 47 47 47h53c0 28-24 50-50 51-55 0-102-44-102-97v-409c0-54 44-97 97-97h31c12-54 60-95 118-95 57 0 106 41 117 95h103c0 27-22 49-50 50z m-314 0h-5c-25 0-47 21-47 47v9h52v-56z m194-75c-14-13-30-20-49-20-19 0-37 7-48 20-14 13-21 30-21 49 0 19 7 36 21 48 13 13 29 21 48 21 19 0 37-8 49-21 13-13 20-29 20-48-1-19-9-36-20-49z m-50 75c-8 0-14-3-18-7s-7-12-7-19c0-8 3-14 7-18 4-4 12-7 18-7s13 3 17 7c5 4 8 12 8 18 0 7-3 13-8 17s-10 9-17 9z m753 180l-84 191c-5 9-13 14-24 14h-247v70c0 54-44 97-97 97h-284v0h-48c0-28 22-50 48-50l283 0c25 0 47-21 47-47v-456h-83c0-28 22-50 49-50l59 0h76c12-55 60-96 118-96 57 0 106 41 117 96h45c7 0 13 3 17 7 5 4 8 12 8 18v195c1 3 1 8 0 11l0 0z m-93 83l29-69h-147v69c0 0 118 0 118 0z m-44-338c-13-13-30-20-49-20-19 0-36 7-48 20-13 13-21 30-21 49 0 19 8 36 21 48 13 13 29 21 48 21 19 0 37-8 49-21 13-13 20-29 20-48 0-19-7-36-20-49z m87 75h-20c-11 55-60 96-117 96-58 0-106-41-118-96h-51v335h231l8-20h-120c-8 0-13-3-18-8-4-4-7-11-7-17v-121c0-7 3-13 7-17 5-5 12-8 18-8h187v-144l0 0z m-136 0c-7 0-13-3-17-7-5-5-8-12-8-18 0-7 3-13 8-18 4-4 11-7 17-7 8 0 14 3 18 7 4 5 7 12 7 18 0 7-3 13-7 18s-12 7-18 7z m-584 378h271v-51h-271v51z m68-101h203v-52h-203v52z"/>
</svg>
