<svg xmlns="http://www.w3.org/2000/svg" viewBox="0 0 1000 1000">
  <path transform="translate(0,850) scale(1,-1)" fill="currentColor" d="M265 504c-55 0-97-44-97-97 0-54 44-97 97-97 54 0 97 44 97 97 0 53-43 97-97 97z m0-136c-22 0-38 17-38 38 0 22 17 38 38 38 22 0 38-17 38-38 0-21-16-38-38-38z m300-380h-458c-26 0-48 22-48 49v470c0 27 22 49 48 49h180v0c31 1 56 26 56 59h-236c-58 0-107-49-107-108v-470c0-59 49-108 107-108h461v0c31 2 56 27 56 59l-59 0 0 0z m328 627h-177v0c-31-2-56-27-56-59h56v0h175c27 0 49-22 49-49v-470c0-27-22-49-49-49h-145v0c-31-1-56-26-56-59h56v0h145c59 0 108 49 108 108v470c1 59-47 108-106 108z m-433-236h393v-58h-393v58z m0-155h158v-59h-158v59z m236 0h78v-59h-78v59z m-431 78c-59 0-108-49-108-108v-109h217v108c-2 60-49 109-109 109z m48-158h-98v49c0 26 22 48 48 48 27 0 49-22 49-48 1 1 1-49 1-49z m265 333h59v58h-30v128c0 59-48 108-107 108h0c-59 0-107-49-107-108v-128h-30v-58h215l0 0z m-126 188c0 26 22 48 48 48h0c27 0 49-22 49-48v-128h-96c-1-2-1 128-1 128z m50 28c-8 0-15-3-21-9-6-6-9-13-9-21 0-7 3-14 9-20 6-6 13-9 21-9 7 0 14 3 20 9 6 6 9 13 9 20 0 8-3 15-9 21s-13 9-20 9z"/>
</svg>
