<svg xmlns="http://www.w3.org/2000/svg" viewBox="0 0 1000 1000">
  <path transform="translate(0,850) scale(1,-1)" fill="currentColor" d="M903 712h-806c-53 0-97-43-97-97v-530c0-54 44-97 97-97h805c54 0 97 44 97 97v530c1 54-43 97-96 97l0 0z m13-627c0-7-6-13-13-13h-806c-7 0-13 6-13 13v530c0 7 6 13 13 13h805c7 0 13-6 13-13 1 0 1-530 1-530z m-737 169h275v-83h-275v83z m0 139h375v-84h-375v84z m642 182h-137c-12 0-22-4-30-12s-11-19-11-29v-190c0-12 4-22 11-29s20-12 30-12h137c11 0 22 4 29 12s12 19 12 29v188c0 12-5 22-12 30s-18 13-29 13z m-43-188h-53v104h53v-104z"/>
</svg>
