<svg xmlns="http://www.w3.org/2000/svg" viewBox="0 0 1000 1000">
  <path transform="translate(0,850) scale(1,-1)" fill="currentColor" d="M853 428v284c0 10-4 19-10 26-6 6-16 9-25 9h-141c-11 0-20-4-27-10-7-8-10-16-10-27v-69l-113 113c-15 15-37 15-52 0l-475-473 52-52 94 95v-297c0-52 41-93 92-93h524c51 0 92 41 92 93v298l96-96 52 52c-2 0-149 147-149 147z m-72-401c0-11-9-20-19-20h-524c-10 0-19 9-19 20v370l281 281 281-281v-370z m0 473l-68 68v106l68 0c0 1 0-174 0-174z m-413-81c-8-7-11-16-11-26v-212c0-10 5-19 11-27 7-7 16-10 26-10h212c10 0 19 5 26 10 8 8 11 17 11 27v213c0 10-5 19-11 27-7 7-16 10-26 10h-212c-10 0-19-4-26-12z m63-62h138v-138h-138c0 0 0 138 0 138z"/>
</svg>
