<svg xmlns="http://www.w3.org/2000/svg" viewBox="0 0 1000 1000">
  <path transform="translate(0,850) scale(1,-1)" fill="currentColor" d="M910 174v95c0 18-1 34-3 50l30 30c3 3 6 5 7 8 13 17 19 37 19 56 0 21-7 41-22 59-1 3-3 5-6 7 0 0 0 0 0 0 0 0 0 0 0 0l0 0c-8 9-19 17-29 21-12 4-24 7-35 7-11 0-22-1-33-5-14 22-31 41-50 60-41 41-92 75-150 95l0 6 0 0c0 3 0 6 0 9 0 25-10 47-26 63-12 17-35 27-60 27h-105c-25 0-48-10-65-27-10-10-17-22-22-35-3-9-4-18-4-28 0-3 0-6 0-9l0 0 0-7c-81-29-150-84-199-154-4 1-10 2-14 4-6 1-12 1-18 1-22 0-43-7-60-23 0 0-2-2-2-2-1-1-1-1-3-3l0 0c0 0 0 0 0 0 0 0 0 0 0 0l0 0c0 0 0 0 0 0-1-1-3-2-4-4-15-18-24-40-24-60 0-21 8-41 21-58 1-3 3-4 6-7l29-29c0-18 0-36 0-52v-95c-50-15-88-62-88-117v-57c0-34 27-62 60-62h531v0c34 2 61 30 61 64h-589v54c0 31 25 57 58 57h79c0 0 0 0 0 0h118v0c34 2 60 30 60 64h-81v0h-145v91c0 1 0 3 0 4 8-3 19-4 29-4 22 0 43 7 60 23 2 2 3 3 5 5 17 17 26 41 26 64 0 24-9 47-26 65l-36 35c37 56 92 102 155 128l10-101 63 6-17 175 0 3c0 3 0 7 1 10 2 3 3 6 6 9 4 4 12 7 19 7h105c7 0 13-3 19-7 4-5 7-12 7-19l0-3 0 0 0 0-18-175 64-6 10 101c41-17 79-42 110-75 16-16 31-34 44-53l-35-35c-18-18-26-41-26-65 0-23 8-47 26-64 18-18 41-27 65-27 10 0 19 2 29 5 0-2 0-3 0-5v-91h-320v0c-34-1-61-29-61-63h116v0c2 0 3 0 3 0v0h293c0 0 0 0 0 0 31 0 57-27 57-58v-53h-136v0c-34-1-61-29-61-63h61v0h141c34 0 60 27 60 61v54c0 56-38 103-90 118l0 0z m-710 166l0 0c-6-6-12-9-19-9-7 0-15 3-19 9l-13 13c0 0 0 0 0 0l-42 41 0 0c-5 6-7 12-7 19 0 8 3 15 9 19l0 0c6 6 12 9 19 9 0 0 1 0 1 0 3 0 6 0 9-1 3-2 6-3 9-6l0 0c0 0 0 0 0 0l53-53c6-6 9-12 9-19 0-9-3-16-9-22l0 0 0 0z m691 54c0 0 0 0 0 0l0 0-41-41c0 0 0 0 0 0l-13-13c-6-6-12-9-19-9-8 0-15 3-19 9l-22-22 22 22c-6 6-9 12-9 19 0 7 3 15 9 19l54 54c0 0 0 0 0 0l0 0c3 3 6 5 9 6 3 2 7 2 10 2 3 0 7 0 10-2 3-1 6-3 9-6l0 0c6-5 8-11 8-19 0-6-2-13-8-19z m-544-84h303v-63h-303v63z"/>
</svg>
