<svg xmlns="http://www.w3.org/2000/svg" viewBox="0 0 1000 1000">
  <path transform="translate(0,850) scale(1,-1)" fill="currentColor" d="M500 850c-276 0-500-223-500-500 0-276 224-500 500-500 277 0 500 224 500 500 0 277-223 500-500 500z m294-794c-75-75-179-122-294-122-115 0-219 47-294 122-75 75-122 179-122 294 0 115 47 219 122 294 75 75 179 122 294 122 115 0 219-47 294-122 75-75 122-179 122-294 0-115-47-219-122-294z m-240 504c-16 6-33 3-45-8l-172-173c-16-16-16-42 0-60l172-172c12-12 31-16 45-9 17 6 27 22 27 40v343c-2 17-12 32-27 39z"/>
</svg>
