<svg xmlns="http://www.w3.org/2000/svg" viewBox="0 0 1000 1000">
  <path transform="translate(0,850) scale(1,-1)" fill="currentColor" d="M335 793l164 0 298-137c5-2 7-3 12-3h179v59h-173l-299 135c-3 2-7 3-12 3h-179c-7 0-13-3-18-6l-228-185-1-2c-19-17-29-42-29-67 0-6 0-12 1-16-22-17-38-45-38-74v-100c31 0 56 24 57 54l0 46c0 19 15 34 34 34h157c18 0 31-13 34-30h-13c-47 0-87-38-87-86v0c0-47 38-87 87-87h13v-24c0-19-15-33-34-33h-156c-19 0-33 14-33 33v71c-31 0-56-24-58-54l0-17c0-47 36-85 81-91v-320l88-48 92 48v154c-27 0-47-21-49-47l0-77-41-20-38 20v292h81v-139c26 0 47 23 48 49l0 91c46 6 81 44 81 91v24h76l140-44c3-2 6-2 9-2h107c3 0 8 0 11 2l114 44h178v57h-187c-2 0-7 0-10-1l-115-44h-97l-139 44c-3 1-6 1-9 1h-152c-16 0-29 13-29 30v0c0 16 13 29 29 29h162c6 0 12 2 18 6l97 73c6 5 10 12 12 21 0 9-3 16-8 22l-125 131c-13 15-32 22-50 22-16 0-31-6-44-16l0 0-145-115h-93c0 9 4 16 10 24l219 175z m43-131l0 0c3 3 6 3 9 3 3 0 6-2 9-3l103-108-64-48h-82c-1 40-29 73-68 84 0-2 93 72 93 72z"/>
</svg>
