<svg xmlns="http://www.w3.org/2000/svg" viewBox="0 0 1000 1000">
  <path transform="translate(0,850) scale(1,-1)" fill="currentColor" d="M528 174v328h-54v-328l-106 104-39-38 152-152c10-10 28-10 38 0l152 152-39 38c0 0-104-104-104-104z m104 676h-435c-48 0-88-40-88-88v-246h0c1-29 25-51 54-51v297c0 19 15 34 34 34h397v-155c0-48 40-88 88-88h155v-615c0-19-15-34-34-34h-40v0c-29-1-51-25-51-54h91c49 0 88 40 88 88v653l-259 259z m50-243c-19 0-33 15-33 34v116l150-150h-117z m-110-703h-375c-19 0-34 15-34 34v390h0c-1 29-25 51-54 51v-441c0-48 40-88 88-88h378v0c29 1 52 25 52 54 1 0-55 0-55 0z"/>
</svg>
