<svg xmlns="http://www.w3.org/2000/svg" viewBox="0 0 1000 1000">
  <path transform="translate(0,850) scale(1,-1)" fill="currentColor" d="M963 675l-181 152c-17 14-41 23-64 23h-616c-56 0-102-46-102-100v-799c0-55 46-101 102-101h798c54 0 100 44 100 100v647c0 31-13 59-37 78z m-695 91h282v-144h-282c0-1 0 144 0 144z m647-372v-444c0-9-8-15-15-15h-798c-9 0-17 8-17 16v799c0 9 8 16 17 16h82v-187c0-11 4-22 12-29s19-12 29-12h366c12 0 22 5 30 12s11 19 11 29v187h84l12-4 181-152 6-11c0-2 0-205 0-205z m-415-1c-73 0-132-61-134-134 0-74 61-132 134-134 74 0 132 60 134 134-2 75-60 134-134 134z m0-181c-26 0-48 22-48 48 0 27 22 49 48 49 27 0 49-22 49-49 0-26-22-48-49-48z"/>
</svg>
