<svg xmlns="http://www.w3.org/2000/svg" viewBox="0 0 1000 1000">
  <path transform="translate(0,850) scale(1,-1)" fill="currentColor" d="M937 609c0 1-2 1-2 3-1 4-4 7-7 12 0 0 0 0 0 0l-226 214c-2 2-5 3-6 5-3 1-5 3-8 4-4 2-10 3-16 3h-365c-66 0-120-54-120-121v-333h85v333c0 20 16 36 35 36h322v-172c0-12 5-22 14-31 7-8 19-13 31-13h182v-590c0-13-10-24-24-24h-535c-13 0-23 11-23 24v159h-86v-159c0-61 49-109 109-111h534c60 0 109 49 109 111v632c0 8-2 13-3 18l0 0z m-500-519l60-61 199 199c7 7 13 19 13 31s-5 22-13 31l-199 195-60-60 125-125h-502v-85h503l-126-125 0 0z"/>
</svg>
