<svg xmlns="http://www.w3.org/2000/svg" viewBox="0 0 1000 1000">
  <path transform="translate(0,850) scale(1,-1)" fill="currentColor" d="M275 35l-53-53h0l-41-41-90 90 293 293c7 7 12 16 12 26 0 10-5 19-12 27l-293 292 90 90 293-293c7-7 16-12 26-12 10 0 19 5 27 12l142 143 0 0c27 29 27 75-3 103l-53-53 0 0-113-112-293 291c-14 15-38 15-53 0l-142-142c-8-8-12-17-12-27 0-10 4-19 12-26l291-293-291-293c-15-14-15-38 0-53l142-144c8-7 17-12 27-12s19 5 26 12l71 71 0 0c26 31 26 76-3 104z m422 315l293 293c7 7 12 16 12 26s-5 19-12 27l-144 142c-15 15-39 15-53 0l-50-50 0 0c-27-29-27-75 3-103l50 50 3 3 20 21 90-90-293-292c-7-8-12-17-12-27 0-10 5-19 12-26l293-293-90-90-292 293c-8 7-17 12-27 12-10 0-19-5-26-12l-124-124 0 0c-26-29-26-75 3-103l50 50v0l97 97 293-292c7-8 16-12 26-12 10 0 19 4 27 12l144 144c7 7 12 16 12 26 0 11-5 20-12 27l-293 291 0 0z"/>
</svg>
