<svg xmlns="http://www.w3.org/2000/svg" viewBox="0 0 1000 1000">
  <path transform="translate(0,850) scale(1,-1)" fill="currentColor" d="M879 552h-113l-231 230c-7 8-16 11-25 11s-19-5-25-11l-231-230h-133c-67 0-121-55-121-121v-403c0-66 54-121 121-121h758c67 0 121 55 121 121v403c0 66-54 121-121 121z m50-524c0-28-22-50-50-50h-267v79c0 62-50 111-110 111-62 0-111-50-111-111v-79h-270c-28 0-50 22-50 50v403c0 28 22 50 50 50h148c9 0 19 4 25 10l216 215 215-215c7-7 16-10 25-10h128c28 0 50-22 50-50v-403z m-82 385h-91c-7 0-13-3-18-7-4-4-7-12-7-18v-91c0-7 3-13 7-18 5-4 12-7 18-7h91c7 0 13 3 18 7 4 5 7 12 7 18v91c0 8-3 14-7 18-5 4-12 7-18 7z m-603 0h-91c-7 0-13-3-18-7-4-4-7-12-7-18v-91c0-7 3-13 7-18 5-4 12-7 18-7h91c8 0 13 3 18 7 4 5 7 12 7 18v91c0 8-3 14-7 18-5 4-12 7-18 7z m603-197h-91c-7 0-13-3-18-7-4-5-7-12-7-18v-91c0-7 3-13 7-18 5-4 12-7 18-7h91c7 0 13 3 18 7 4 5 7 12 7 18v91c0 8-3 13-7 18-5 4-12 7-18 7z m-603 0h-91c-7 0-13-3-18-7-4-5-7-12-7-18v-91c0-7 3-13 7-18 5-4 12-7 18-7h91c8 0 13 3 18 7 4 5 7 12 7 18v91c0 8-3 13-7 18-5 4-12 7-18 7z m256 361c-84 0-151-68-151-152 0-84 67-151 151-151 84 0 152 67 152 151 0 82-68 152-152 152z m68-208l-89 43v113h42v-87l64-31c0-1-17-38-17-38z"/>
</svg>
