<svg xmlns="http://www.w3.org/2000/svg" viewBox="0 0 1000 1000">
  <path transform="translate(0,850) scale(1,-1)" fill="currentColor" d="M827 528v124c0 13-9 23-21 26l-299 75c-4 1-8 1-13 0l-298-75c-12-3-21-15-21-26v-374c0-25 6-49 15-71 16-38 44-73 75-104 47-46 103-82 147-109 44-26 78-41 78-41 0 0 0 0 0 0 1 0 1 0 3-2 0 0 1 0 1 0 2 0 5 0 6 0h0c2 0 4 0 6 0 1 0 1 0 1 0 2 0 2 0 3 2 0 0 0 0 0 0 2 0 77 34 155 90 38 28 78 61 109 100 14 19 28 39 38 61 9 23 15 46 15 71v162c-2 29-27 53-56 53v-212c0-16-3-32-11-50-11-29-35-59-61-85-42-41-95-75-137-100-21-12-40-22-53-28-3-2-6-3-9-3-23 12-82 42-140 84-35 25-69 56-92 88-12 16-22 32-28 48-6 17-11 33-11 47v350l271 68 271-68v-48c1-29 26-53 56-53l0 0z m-327-278c7 0 15 3 19 9s9 12 9 19-3 15-9 19-12 9-19 9-15-3-19-9-9-12-9-19 3-15 9-19 12-9 19-9z m0 354c-57 0-103-45-103-102v-48h-9c-7 0-14-2-19-8s-9-12-9-19v-164c0-48 40-88 89-88h103c48 0 88 40 88 88v165c0 7-3 15-9 19s-12 9-19 9h-9v47c0 56-46 101-103 101z m-47-102c0 25 21 47 47 47 25 0 47-21 47-47v-48h-93c-1 2-1 48-1 48z m131-237c0-18-15-33-32-33h-103c-18 0-33 15-33 33v62h168c0-2 0-62 0-62z m0 116h-168v19h168v-19z m315 371l-392 97c-4 1-8 1-13 0l-392-97c-12-3-21-15-21-27v-284c1-29 26-53 56-53v315l363 90 363-90v-424c0-44-13-86-42-130-30-45-74-89-134-133-80-57-159-93-160-94l-27-13-26 12c-3 1-83 36-161 94-60 44-104 88-134 132-29 44-42 88-42 131v19c-2 30-27 53-56 53v-53h0v-19c0-56 18-110 51-162 34-51 84-100 147-147 84-60 167-98 171-100l38-18c8-3 16-3 24 0l38 18c4 2 87 40 171 100 64 47 113 96 147 147 34 52 51 106 51 162v446c0 13-9 25-20 28l0 0z"/>
</svg>
