<svg xmlns="http://www.w3.org/2000/svg" viewBox="0 0 1000 1000">
  <path transform="translate(0,850) scale(1,-1)" fill="currentColor" d="M416 324h47v-180h-47v180z m80 95c-6 10-15 18-24 24-10 6-20 7-31 7-10 0-20-3-31-7-10-6-17-14-23-24l-88-150-24-40-79-133c-6-11-9-22-9-33 0-16 6-32 17-44 12-12 28-19 46-19h382c18 0 36 7 46 19 12 12 18 28 18 44 0 11-3 22-9 33l-191 323 0 0z m147-367c-3-3-6-5-12-5h-381c-4 0-9 2-12 5-3 2-4 7-4 11 0 3 0 6 3 8l79 133 24 40 87 150c1 3 2 5 5 6 3 2 5 2 8 2 3 0 6 0 7-2 3-1 5-3 6-6l191-323c2-3 3-6 3-8 0-4-1-9-4-11l0 0z m-490 113h-10c-27 0-50 10-68 28-18 17-28 41-28 67 0 27 10 50 28 68 18 18 41 28 68 28h36c2-18 5-34 8-50l45 12c-4 20-7 41-7 63 0 34 6 65 18 94 11 24 1 52-24 63l-20-42c-12-30-20-61-21-93h-35c-80 0-143-63-143-143 0-79 63-142 143-142h10v0c25 1 46 22 46 47l-46 0 0 0z m660 328h-11c-48 122-164 209-302 209l0 0c-72 0-138-24-191-64-19-17-22-47-5-66l37 31c46 32 100 51 161 51l0 0c114 0 213-70 252-170-22-7-41-18-58-32l29-37c24 19 54 31 88 31v0c39 0 74-17 99-42 25-25 41-60 41-98 0-38-16-74-41-99-25-25-60-41-99-41h-123c0-25 20-45 45-47l78 0c103 0 187 84 187 188 0 102-84 186-187 186z m-372-374c-6 0-12-3-16-7s-7-10-7-16 3-12 7-17 10-7 16-7 12 3 16 7 8 11 8 17-3 11-8 16-10 7-16 7z"/>
</svg>
