<svg xmlns="http://www.w3.org/2000/svg" viewBox="0 0 1000 1000">
  <path transform="translate(0,850) scale(1,-1)" fill="currentColor" d="M982 247c-17 7-36 10-57 10h-26c-2 0-5 2-6 3-2 2-3 3-3 6 0 13 6 25 16 33l0 0c37 28 59 73 59 123v75c0 43-18 82-46 112-28 28-67 45-112 45-4 0-7 0-11 0-42-2-80-23-105-51-17-21-31-46-37-72v10c0 43-17 83-45 112-28 28-68 46-112 46-3 0-7 0-12 0-42-3-79-24-104-52-27-29-41-68-41-109v-16c-5 35-21 66-44 90-28 28-68 45-112 45-5 0-7 0-12 0-41-3-79-23-104-51-27-29-41-68-41-109v-70c0-50 23-95 58-124l0 0c11-9 17-21 17-32v0c0-5-3-9-9-9h-21c-19 0-37-3-54-9-15-4-22-21-16-35 4-15 20-22 35-16 10 0 22 1 35 1h25c18 0 32 7 44 18 12 11 18 26 18 44v0c0 29-13 57-37 75l0 0c-23 19-38 47-38 81v70c0 28 10 55 28 74 17 19 41 32 67 34 3 0 5 0 8 0 28 0 54-12 72-30 19-19 29-44 29-72v-75c0-32-14-62-38-81l0 0c-22-17-37-45-37-75 0-17 8-32 18-44l0 0c3-3 4-4 7-6-13-23-20-51-20-81v-104c0-15 11-27 26-27s27 12 27 27v104c0 31 11 59 32 78 21 21 47 33 78 33h25c35 0 63 28 63 63v0c0 29-13 57-37 75-20 19-35 48-35 81v70c0 28 10 55 28 74 18 19 41 32 68 34 3 0 4 0 7 0 28 0 54-12 72-30 19-19 30-44 30-72v-75c0-32-15-62-39-81-23-17-36-45-36-75 0-35 27-63 63-63h25c31 0 59-12 78-32 0 0 0 0 0 0 0 0 1-2 1-2 19-20 31-47 31-76v-105c0-14 12-26 27-26s26 12 26 26v105c0 29-7 57-22 82 1 2 4 3 6 5 12 11 17 26 17 44v0c0 29-13 57-36 75l0 0c-24 19-39 47-39 81v70c0 28 11 55 28 74 18 19 42 32 68 34 3 0 4 0 7 0 28 0 55-12 72-30 20-19 30-44 30-72v-75c0-32-15-62-38-81l0 0c-22-17-37-45-37-75 0-17 7-32 18-44l0 0c11-10 26-18 44-18h26c13 0 27-3 38-7 15-6 30 2 36 16 7 11 1 27-14 31l0 0z m-579 94c10-9 16-20 16-32v0c0-5-4-9-9-9h-25c-42 0-81-16-110-43-1 0-3 2-4 2-2 1-3 3-3 6 0 13 6 25 16 32l0 0c37 28 59 74 59 124v20c7-39 29-75 60-100l0 0z m309-42l0 0c10-9 16-21 16-33v0c0-3-1-6-4-7-30 25-68 41-109 41h-25c-5 0-9 4-9 9 0 13 6 25 16 32 27 22 47 52 55 87v-6c1-50 25-94 60-123z m-375-96c-15 0-27-12-27-26v-146c0-15 12-27 27-27s26 12 26 27v146c0 14-11 26-26 26z m326 0c-14 0-26-12-26-26v-146c0-15 12-27 26-27s27 12 27 27v146c0 14-12 26-27 26z"/>
</svg>
