<svg xmlns="http://www.w3.org/2000/svg" viewBox="0 0 1000 1000">
  <path transform="translate(0,850) scale(1,-1)" fill="currentColor" d="M834 574c6 0 13 3 18 7 4 4 7 12 7 18s-3 13-7 17-12 8-18 8c-6 0-13-3-18-8-4-4-7-12-7-17s3-14 7-18c5-4 11-7 18-7z m-402-527c-1 2 2 0 0 0l0 0z m552 212v320c0 43-9 80-22 111-21 45-50 75-75 94-24 18-43 25-46 26 0 0 0 0 0 0 0 0 0 0-1 0l0 0c-27 11-50 15-72 15-41 0-69-12-74-15-4-1-29-11-57-36-27-22-56-59-72-109-2 0-3 0-5 0-23 0-48-8-69-19-6 0-12 1-16 1-19 0-37-3-54-9 0 12-2 24-3 34l0 0c-18 84-91 147-181 147-33 0-65-9-91-23l0 0c0 0 0 0 0 0 0 0 0 0 0 0l0 0c-18-9-31-19-43-31l0 0c0 0 0 0 0 0 0 0 0 0 0 0l0 0c-34-34-54-80-54-131v-80c0-36 13-72 35-98 4-22 15-43 28-60v-84c0-8-5-15-12-16 0 0-15-5-35-11-21-6-44-13-65-19l15-48c32 9 75 22 92 28l31-22c25-18 55-27 84-27 30 0 59 9 84 27l38 26c3-1 5-1 8-3l5-1c11-15 22-28 36-40v-35c0-9-5-15-12-19l-99-42c-44-19-76-60-82-107l-15-121 50-6 15 121c3 31 24 56 52 68l98 41c27 10 43 37 43 65v7c17-6 35-9 56-9 19 0 38 3 55 9v-7c0-25 14-49 36-62-27-13-59-22-93-24-1 0-3 0-6 0-14 0-26 3-38 6l0 0h0c-25 11-54-1-65-28l43-17c16-6 38-11 62-11 3 0 4 0 7 0 54 2 104 19 146 49l50-21c28-11 47-38 51-67l15-121 50 6-15 121c-6 48-37 89-82 107l-97 44c-8 3-12 10-12 19v32c10-8 22-17 32-26 39-28 84-43 130-43 44 0 88 14 126 42 10 7 19 14 30 22v0c8 7 16 14 25 22l33-15 20 46-18 7 0 0z m-163 504l0 0 0 0c0 0 3-1 6-3 10-6 38-20 61-48 16-21 33-47 40-84-59 29-109 76-140 134-3 4-6 9-10 10 13 0 28-3 43-9z m72-173l-6-80 0 0c-3-36-21-67-49-88-20-15-45-23-72-23-17 0-34 4-50 10 5 12 8 26 8 40 0 8-2 16-3 25l0 0c-3 11-9 23-15 33-4 6-9 12-15 18 0 2 0 3 0 3 0 18-3 34-10 50 4-4 10-7 18-7 5 0 13 3 17 7 5 4 8 12 8 18s-3 13-8 17c-4 5-12 8-17 8-5 0-8-2-11-3 31 23 58 51 80 82 32-44 75-82 125-110l0 0z m-225 145c11 11 23 18 31 22 4 2 7 5 10 5l3 1 0 0 0 0 0 0 1 0 0 0 2 0c4 2 20 8 42 9-4-3-8-6-11-10-25-49-67-91-114-121 0 0 0 0 0 0 0 0 0 0 0 0l0 0c-5 5-13 8-19 11 12 39 34 66 55 83z m6-138c-2 3-5 7-6 10 4 3 9 6 13 9-4-4-7-10-7-17 0 0 0-2 0-2z m-440 172c45 0 85-22 110-56-42 18-82 36-123 56 3-1 7 0 13 0l0 0z m-96-40l0 0c6 6 12 11 18 15 7-3 13-7 19-10-3-5-7-7-12-12-11-10-28-20-50-25 8 12 15 22 25 32z m140-464c-16-12-37-18-56-18-19 0-38 6-56 18l-16 10c7 10 12 24 12 37v42c20-11 45-17 70-17 20 0 39 4 56 10 5-7 9-13 15-18v-17c0-9 1-18 6-27l-31-20 0 0z m50 142l1-30c-2 4-4 7-4 10l0 1c-1 6-3 12-3 18 0 12 3 23 9 34 0-2 0-5-2-6 0 0 0-2 0-2 0-5-1-13-1-19 0-1 0-3 0-6z m-43 55c-8-18-13-37-13-56 0-4 0-9 2-12-12-4-25-7-40-7-50 0-93 37-102 85-1 5-3 9-5 13-18 18-28 43-28 69v80c0 4 0 7 0 10 22 2 41 6 57 13 29 12 48 31 60 47 2 3 3 5 5 8 47-22 94-43 145-63 0-5 2-9 2-15v-19c-12-8-24-18-33-28l0 0c0 0 0 0 0 0 0 0 0 0 0 0l0 0c-32-34-50-80-50-125l0 0z m336-52l0 0-2-26-1-24 0 0 0-28 0 0c-3-63-55-113-118-113-60 0-110 46-118 103l0 2c0 3 0 5-1 8l0 0 0 17-3 61c0 2 0 3 0 5 0 1 0 3 0 4 0 5 0 8 1 12 0 3 2 6 2 7 0 3 1 6 1 9 0 3 2 5 2 7 1 5 3 9 6 14 4 6 7 10 10 16 3 3 4 6 7 9 2 1 3 3 3 4 3 3 5 5 8 6 1 1 4 4 6 6 3 3 7 4 10 7 6-12 15-22 23-31 2-1 5-4 6-6 18-17 40-30 61-38 0 0 0 0 1 0l0 0c31-12 63-14 94-14 0-3 0-6 0-9 0 0 0 0 0 0 2-5 2-6 2-8l0 0z m4 65c-29 0-56 3-81 12-15 6-31 16-45 29-2 2-3 3-3 5-11 10-19 22-22 33 0 2-2 3-2 3 0 2-1 3-1 5-3 4-6 9-11 12-6 3-13 4-20 1 0 0-2 0-2-1-7-3-14-6-20-9 0 0 0 0-2 0-7-5-14-9-20-13 0 0 0 0 0 0-6-5-14-11-19-17 0 0 0 0 0 0-6-6-11-11-15-17 0 0 0 0-2-2l0-1 0 0 0 0c0 0 0 0 0 0-4-6-8-13-11-19 0 0 0 0 0 0l0 0c0 0 0 0 0-2 0 0 0 0 0 0 0 0 0 0 0-1-3-5-5-11-8-16 0 0 0-2 0-2-1-3-3-6-3-10 0 34 14 67 37 91l0 0c9 10 21 19 34 25l0 0c20 10 44 18 68 18 5 0 13 0 19-2 6-1 13 2 19 5 13 10 31 16 48 16 6 0 12 0 18-2l0 0c10-1 19-6 28-12l0 0c3-1 6-4 9-5l0 0c17-15 28-40 28-64 0-3 0-7 0-10-2-9 3-18 10-23 3-2 9-8 13-15 5-6 8-15 9-18 1-4 1-10 1-15 0-7-1-13-2-20 0 1 0 3 0 4 0 2 0 5-2 6 0 2 0 5-1 6 0 0 0 0 0 2 0 1-2 4-2 7 0 0 0 1 0 1 0 0 0 0 0 0 0 0 0 0 0 0 0 2 0 2-1 2 0 1-2 3-3 6 0 0 0 0 0 0-5 6-11 9-18 10-1 0-1 0-3 0h0c0 0 0 0 0 0 0 0-1 0-1 0h0l0 0c-12-3-17-3-21-3l0 0z m265-238l0 0c-9-8-18-13-27-21-29-20-63-31-97-31-35 0-70 11-100 33-10 7-20 14-29 23 0 0 0 0 0 0l20 9 0 0c28 12 46 38 46 68v41c19-7 40-12 62-12 22 0 42 5 62 12v-41c0-30 17-58 45-68l22-9c0-1-3-3-4-4l0 0z m44 44l-40 16c-9 5-15 12-15 22v72c28 24 48 56 55 93l0-203 0 0z m-637-284h50v-118h-50v118z m355 0h50v-118h-50v118z m-212 424c-6 0-13-3-18-8s-7-11-7-17 3-14 7-18c5-4 12-7 18-7 6 0 13 3 17 7 5 4 8 12 8 18s-3 13-8 17c-4 5-10 8-17 8z m119 0c-6 0-13-3-18-8-4-4-7-11-7-17s3-14 7-18c5-4 12-7 18-7 6 0 13 3 18 7 4 4 7 12 7 18s-3 13-7 17-12 8-18 8z m-390 216c-6 0-13-3-17-8s-8-11-8-17c0-6 3-13 8-18 4-4 11-7 17-7 6 0 13 3 18 7 4 5 7 12 7 18 0 6-3 13-7 17-5 5-10 8-18 8z m128 0c-6 0-13-3-18-8s-7-11-7-17c0-6 3-13 7-18 5-4 12-7 18-7 6 0 13 3 18 7 4 5 7 12 7 18 0 6-3 13-7 17-5 5-12 8-18 8z"/>
</svg>
