<svg xmlns="http://www.w3.org/2000/svg" viewBox="0 0 1000 1000">
  <path transform="translate(0,850) scale(1,-1)" fill="currentColor" d="M881 703h-762c-66 0-119-53-119-119v-468c0-66 53-119 119-119h740c78 0 141 63 141 141v446c0 66-53 119-119 119z m41-349v-216c0-35-29-64-65-64h-738c-23 0-42 19-42 42v468c0 23 19 43 42 43h760c24 0 43-20 43-43 0 0 0-230 0-230z m-716 98h279v-78h-279v78z m0-168h588v-78h-588v78z m378 91h168c10 0 20 4 27 12s12 17 12 28v82c0 10-4 21-12 28s-17 12-27 12h-168c-10 0-21-5-28-12s-12-18-12-28v-84c0-10 5-20 12-28s18-10 28-10z"/>
</svg>
