<svg xmlns="http://www.w3.org/2000/svg" viewBox="0 0 1000 1000">
  <path transform="translate(0,850) scale(1,-1)" fill="currentColor" d="M291 488c-13 0-25-4-34-14s-14-21-14-34 4-25 14-34 21-15 34-15 25 5 34 15 15 21 15 34-5 25-15 34-21 14-34 14z m209 0c-13 0-25-4-34-14s-14-21-14-34 4-25 14-34c9-9 21-15 34-15s25 5 34 15 15 21 15 34-5 25-15 34-21 14-34 14z m209 0c-13 0-25-4-34-14s-15-21-15-34 5-25 15-34 21-15 34-15 25 5 34 15 14 21 14 34-4 25-14 34-22 14-34 14z m140 240c-92 72-214 113-349 115-135 0-257-43-348-114-92-72-152-175-152-289 0-106 50-200 129-269-4-27-10-69-17-114-6-35-10-70-15-97-1-13-4-25-6-32l-1-9 0-1 0 0-2-12v0l0-3 2-7 4-14c5-7 15-17 24-20 9-3 14-3 17-3 12 0 17 3 19 4l9 5 9 7c18 16 68 65 115 110 29 28 54 55 72 71 44-10 91-18 141-18 135 0 257 43 349 114 91 70 151 173 151 288 0 114-60 217-151 288l0 0z m-59-501c-72-58-175-95-290-95-51 0-100 8-144 21-21 6-41-3-53-19-15-15-54-55-96-94 0 0-1-2-1-2 10 65 21 130 22 141 0 0 0 0 0 0 0 2 0 2 0 2l0 0c3 16-3 34-18 46-73 57-114 132-114 213 0 81 41 156 114 213 72 56 175 93 290 93 115 0 218-37 290-94 72-58 114-133 114-214 0-79-41-154-114-211z"/>
</svg>
