<svg xmlns="http://www.w3.org/2000/svg" viewBox="0 0 1000 1000">
  <path transform="translate(0,850) scale(1,-1)" fill="currentColor" d="M768 774c-75 4-146-24-194-72l-74-74-50 50-23 21c-46 45-108 73-177 73-138 2-250-110-250-248 0-34 7-67 19-97s31-58 55-80l22-22 50-50 58-59 50-50 52 52 28 26-80-79 137-137v-1l109-104 109 105 245 246-108 107-246-243-137 136 137 136 182 181c22 22 53 31 84 27 40-6 74-40 80-81 4-31-6-60-28-81l-72-72 108-109 73 72c51 52 80 128 72 207-12 121-111 211-231 220l0 0z m-514-392l-50 50-22 22c-19 20-28 43-28 68 0 22 8 43 21 59 18 22 46 37 75 37 25 0 50-11 69-28l22-22 49-50 0 0-136-136 0 0z"/>
</svg>
