<svg xmlns="http://www.w3.org/2000/svg" viewBox="0 0 1000 1000">
  <path transform="translate(0,850) scale(1,-1)" fill="currentColor" d="M500 850c-204 0-369-165-369-369 0-28 6-59 16-90 18-54 46-113 80-172 100-178 242-354 244-354 7-9 17-15 29-15s22 6 29 15c0 0 87 107 173 237 11 17 7 41-11 52-17 12-41 8-53-10-41-63-84-120-114-162-9-10-17-20-22-29-34 44-93 124-149 210-38 59-75 122-101 178-14 28-24 56-31 80-8 23-11 45-11 61 0 81 33 155 86 208 53 53 126 85 207 85 81 0 154-32 207-85 53-53 86-127 86-208 0-23-8-57-24-95-15-38-37-83-62-125-10-19-4-43 15-53 19-10 43-5 53 15 26 45 49 92 66 135 16 44 28 85 28 123-3 203-168 368-372 368z m-150-344c0-84 68-150 150-150 84 0 150 68 150 150 0 84-68 150-150 150-84 0-150-68-150-150z m224 0c0-41-33-74-74-74-41 0-73 33-73 74 0 41 32 73 73 73 41 0 74-33 74-73z"/>
</svg>
