<svg xmlns="http://www.w3.org/2000/svg" viewBox="0 0 1000 1000">
  <path transform="translate(0,850) scale(1,-1)" fill="currentColor" d="M709 196c7-8 19-14 31-14h166c12 0 22 5 31 14 7 7 13 19 13 31v130c0 136-109 245-244 245h-49c-29 39-73 67-123 77v86h123v85h-333v-85h123v-86c-50-11-94-39-123-79h-230c-12 0-22-4-31-13-7-8-13-19-13-31v-166c0-12 4-22 13-31 8-7 19-13 31-13h230c38-50 98-84 166-84 67 0 126 32 164 81 24-5 43-24 43-49v-72c0-7 5-19 12-26z m-63 238h-14c-14 0-29-7-36-21-22-36-61-61-106-61-46 0-84 25-106 61-7 14-22 21-37 21h-210v81h209c14 0 29 7 36 20 22 37 61 62 106 62 46 0 84-25 106-62 8-13 22-20 37-20h71c88 0 158-71 158-159v-88h-81v29c3 77-58 137-133 137l0 0z m285-397c-27 56-75 112-75 113-7 10-21 16-34 16-13 0-25-6-34-16 0 0-22-26-44-60-12-16-22-36-31-55-9-19-16-37-17-62 0-69 56-126 126-126 69 0 127 56 127 126-2 27-9 45-18 64l0 0z m-109-102c-22 0-40 18-41 41l0 2c0 4 6 18 12 31 7 15 17 31 28 44 4-6 8-13 13-19 9-13 16-27 20-38l6-14 2-4 0-2c1-23-18-41-40-41z"/>
</svg>
