<svg xmlns="http://www.w3.org/2000/svg" viewBox="0 0 1000 1000">
  <path transform="translate(0,850) scale(1,-1)" fill="currentColor" d="M944 200c-37 37-87 56-135 56-9 0-18-2-27-2l-33 34-2 2-1 1-39 38c-22-22-22-55-1-77l0 0 1-2c0 0 0 0 0 0l45-44c7-7 16-10 26-7 10 1 19 3 29 3 34 0 70-14 96-40 26-27 40-60 40-96 0-35-14-69-40-95-26-27-60-40-96-40-35 0-69 13-95 40-27 26-40 60-40 95 0 11 2 21 3 30 2 8 0 19-7 26l-264 265-10 10-51 52c-3 3-8 5-12 7l-178 53-62 119 11 16 122-122c7-7 17-10 28-7l69 19c10 3 17 10 20 20l19 70c3 10 0 20-7 28l-121 120 20 12 113-60 53-178c1-5 4-9 7-12l171-171 1-1 38-38c22 22 22 55 2 78l0 0-30 29 140 140 15-15c7-7 17-10 28-7l41 13c6 1 10 4 13 9l118 145c9 12 9 28-2 38l-67 67c-11 10-27 11-39 1l-145-118c-5-2-7-8-9-13l-13-41c-3-10 0-21 7-28l15-15-140-139-98 98-55 183c-1 7-7 13-13 16l-138 73c-9 5-19 5-27 0l-66-36c-7-5-13-12-15-21-1-9 2-18 8-24l135-135-10-38-38-10-134 133c-6 6-15 9-24 9s-16-6-20-13l-39-59c-6-9-6-19-1-28l73-144c3-7 11-12 18-15l182-54 47-47 11-10 41-42-40-39-32 32c-16 16-37 24-56 24-21 0-41-8-56-24l-37-37c0 0 0 0 0 0l-1-1 0 0c-21-22-19-56 1-78l39 38 1 2 37 36c4 5 10 8 16 8 6 0 12-3 16-8l103-103c5-4 7-10 7-16 0-6-2-11-7-16l-156-159-137 137 3 3c0 0 0 0 0 0l2 1 0 0c20 23 19 56-2 78l-38-38 0 0-1 0-24-23c-29-30-44-69-44-109 0-40 15-78 44-109 0 0 0 0 0 0 30-30 69-44 109-44 40 0 78 14 109 44l176 176c16 17 24 37 24 56 0 21-8 42-24 56l-32 33 40 39 175-175c-2-9-2-17-2-26 0-49 19-97 56-136 37-36 87-55 135-55 49 0 99 19 136 55 36 37 56 87 56 136-2 51-21 100-58 138z m-194 466l121 96 32-33-97-119-16-6-44 45 4 17 0 0z m-597-751c-25 0-50 8-68 28 0 0 0 0 0 0-19 19-28 44-28 67 0 17 5 31 12 46l130-130c-15-7-30-11-46-11z m685 63c31 0 56 25 56 56v59c0 31-25 56-56 56h-59c-30 0-55-25-55-56v-59c0-31 25-56 55-56 0 0 59 0 59 0z m-59 116h59v-59h-59c0 0 0 59 0 59z m-438 397l40 40 328-328-40-40-328 328z"/>
</svg>
