<svg xmlns="http://www.w3.org/2000/svg" viewBox="0 0 1000 1000">
  <path transform="translate(0,850) scale(1,-1)" fill="currentColor" d="M490 412c-90 0-171-43-228-110-58-68-91-159-91-261 0-19 1-35 4-50 2-10 4-20 9-31 6-14 16-26 29-35 14-9 28-12 41-10 21 0 40 6 59 13 18 6 40 15 59 22 34 13 55 52 44 88l-66-20c-22-9-43-16-60-22-16-6-31-9-37-9l-3 0 0 0-1 1c-2 2-3 8-6 16-2 9-3 23-3 37 0 84 29 161 75 215 45 54 107 85 173 85 68 0 128-32 174-85 45-54 75-129 75-215 0-16-2-28-3-37-2-7-3-11-5-14-1-2-1-3-1-3l0 0 0 0-3 0c-4 0-13 1-23 4-17 5-37 13-59 22-24 9-50 18-78 25-38 6-75-22-80-60l71-10c29-8 59-20 85-30 15-6 28-10 43-15 15-4 28-7 43-7 11 0 25 2 36 9 9 4 18 12 24 21 9 11 15 26 19 42 3 16 4 34 4 56 0 100-33 193-91 260-59 65-140 108-229 108l0 0z m79 59c21-15 46-22 71-25 6 0 12-2 19-2 34 0 68 10 94 34 26 24 43 60 47 104h0c2 9 2 18 2 25 0 43-12 83-33 115-10 16-23 30-40 40-16 10-33 17-54 19-4 0-7 0-12 0-20 0-39-6-57-15-27-14-47-37-63-63-16-26-27-59-30-93-1-7-1-16-1-23 0-21 3-40 10-58 9-23 25-44 47-58l0 0z m13 135c3 32 17 62 31 81 8 9 16 16 25 20 9 5 16 6 24 6l4 0c8-1 15-3 22-7 11-7 21-19 28-35 8-17 12-39 12-61 0-6 0-11-1-17l0 0c-2-16-5-28-9-39-6-14-15-22-24-27-9-6-22-9-37-9-3 0-7 0-11 0-22 3-37 9-47 20-6 6-9 12-14 21-3 9-6 19-6 34 3 3 3 7 3 13z m-338-137c25-23 59-34 91-32 9 0 18 0 27 1 32 5 63 18 87 43 23 23 36 59 36 98 0 11-1 21-3 33h0c-7 45-25 85-51 115-13 14-28 27-46 36-17 9-36 15-56 15-5 0-11 0-16-1-19-3-36-11-51-21-22-16-38-38-50-63-12-25-18-55-18-86 0-11 2-23 3-35 5-45 21-79 47-103z m38 208c6 8 12 14 20 20 5 5 13 7 20 9 2 0 5 0 6 0 7 0 16-2 24-6 11-6 25-19 36-35 11-18 19-38 22-63v0c2-8 2-15 2-23 0-25-8-39-16-50-11-10-25-17-46-20-6-2-10-2-16-2-19 0-32 5-43 15-10 10-20 27-25 57-1 9-1 18-1 25-2 30 6 55 17 73z m-54-355c9 15 15 34 15 52 0 25-9 50-25 73-15 22-34 38-53 52-21 11-43 19-66 19-20 0-39-6-55-16-15-11-25-24-32-40-8-15-10-33-10-49 0-32 10-64 30-94 11-19 25-32 42-42 16-11 33-15 51-15 25 0 47 9 66 22 15 10 27 22 37 38z m-60 37c-3-5-9-10-16-16-11-8-20-9-25-9-5 0-11 1-17 4-6 3-13 11-20 21-13 18-19 38-19 54 0 9 1 15 4 19 3 5 4 8 9 11 4 3 9 4 15 4 7 0 19-3 29-9 12-7 22-17 32-31v0c11-14 14-26 14-33-2-6-3-11-6-15l0 0z m820 109c-7 17-20 32-38 42-16 11-35 15-53 15-25 0-50-9-72-23-22-15-41-34-57-59-15-25-24-50-24-75 0-21 6-41 18-58 10-16 25-29 41-39 19-12 43-21 66-21 19 0 40 6 58 16 17 12 32 28 45 49 19 31 28 63 30 95-2 21-5 40-14 58z m-76-114l0 0c-9-13-16-22-24-25-7-4-13-5-19-5-9 0-17 3-29 10-9 6-15 12-19 18-5 5-6 11-6 19 0 8 3 20 13 36 10 17 22 28 35 37 14 9 25 12 34 12 7 0 12-2 16-4 5-3 9-8 12-14 3-6 4-14 4-25 0-19-5-39-17-59l0 0z"/>
</svg>
