<svg xmlns="http://www.w3.org/2000/svg" viewBox="0 0 1000 1000">
  <path transform="translate(0,850) scale(1,-1)" fill="currentColor" d="M265 387c54 0 97 44 97 97 0 54-44 97-97 97-55 0-97-44-97-97 0-53 42-97 97-97z m0 137c22 0 38-18 38-39 0-22-18-38-38-38-22 0-38 18-38 38 0 21 16 39 38 39z m-158-458c-26 0-48 22-48 49v470c0 27 22 49 48 49h534v0c31 1 56 26 56 59h-590c-58 0-107-49-107-108v-470c0-59 49-108 107-108l81 0c31 2 56 27 56 59 2 0-137 0-137 0z m786 627l-80 0c-31-2-57-28-57-59h137c26 0 48-22 48-49v-470c0-27-22-49-48-49l-525 0c-31-1-56-26-56-59h581c59 0 107 49 107 108v470c0 59-48 108-107 108z m-433-236h393v-58h-393v58z m0-155h158v-59h-158v59z m236 0h78v-59h-78v59z m-539-139h217v108c0 58-49 107-108 107h0c-59 0-107-49-107-107-2 1-2-108-2-108z m59 109c0 27 22 49 49 49h0c26 0 48-22 48-49v-48h-98l1 48 0 0z"/>
</svg>
