<svg xmlns="http://www.w3.org/2000/svg" viewBox="0 0 1000 1000">
  <path transform="translate(0,850) scale(1,-1)" fill="currentColor" d="M134 125c-40 66-63 143-63 225 0 119 48 227 125 303 78 78 185 126 304 126 82 0 159-23 225-63 31-23 77-16 99 16l-56 42c-77 47-169 76-268 76-276 0-500-223-500-500 0-98 29-190 78-268 24-30 68-36 99-14 0 0-43 57-43 57z m782 502c-23 30-67 35-98 11l42-56c43-67 68-145 68-232 0-119-49-226-125-303-78-78-185-125-303-125-85 0-165 25-232 68-31 23-75 17-99-14l56-42c78-53 174-84 275-84 277 0 500 224 500 500 0 102-31 197-84 277l0 0z m-448-584c6-6 16-11 25-11h94v71h-59v388c0 9-4 19-10 25-6 6-16 11-25 11h-94v-71h58v-390c0-9 5-17 11-23z m59 557c8 9 13 21 13 34s-5 25-13 34c-9 9-21 13-34 13s-25-4-34-13c-9-9-13-21-13-34s4-25 13-34c9-9 20-13 34-13s25 4 34 13z"/>
</svg>
