<svg xmlns="http://www.w3.org/2000/svg" viewBox="0 0 1000 1000">
  <path transform="translate(0,850) scale(1,-1)" fill="currentColor" d="M1000-27c0 2 0 2 0 3 0 2 0 3 0 5 0 0 0 1 0 1l-93 297v524c0 7-3 15-8 21-6 5-14 8-21 8h-544c0-30 23-54 54-55v0h464v-473h-700v471h142c0 31-23 54-54 56v0h-118c-7 0-15-3-20-9-5-4-8-12-8-19v-524l-92-298c0 0 0-2 0-2 0-1 0-3 0-4 0-2 0-2 0-3 0 0 0 0 0-1v-75c0-8 2-15 8-21s14-9 21-9h754c0 31-23 55-54 56v0h-675v19h887v-19h-122c0-31 23-54 54-56v0h97c7 0 15 3 21 9s9 13 9 21l-2 77c0 0 0 0 0 0l0 0z m-635 29l17 94h236l17-94h-270z m328 0l-24 127c-3 14-15 24-28 24h-282c-13 0-25-10-28-24l-24-127h-241l77 245h713l76-245h-239z m-496 726c-6-6-9-13-9-21v-339c0-8 3-15 9-21 6-6 13-9 21-9h566c7 0 15 3 20 9 6 6 9 13 9 21v341c0 7-3 15-9 20-5 6-13 9-20 9h-566c-8-1-15-4-21-10l0 0z m49-49h508v-282h-508v282z"/>
</svg>
