<svg xmlns="http://www.w3.org/2000/svg" viewBox="0 0 1000 1000">
  <path transform="translate(0,850) scale(1,-1)" fill="currentColor" d="M860 37c2 6 3 12 3 19 0 35-26 66-60 72 44 62 71 137 71 218 0 60-15 116-40 166-15 28-50 38-75 19 38-53 60-116 60-185 0-74-25-142-66-194-6-9-10-20-10-28 0-12 4-24 13-33 9-9 21-14 34-14 10 0 19-9 19-20 0-10-9-19-19-19h-580c-10 0-19 9-19 19 0 11 9 20 19 20 14 0 27 5 34 14 9 9 13 21 13 33 0 10-3 20-10 29-20 26-37 57-48 90-30-11-43-44-28-71 7-15 16-28 25-41-34-6-61-35-61-72 0-6 2-13 3-19h-138v-58h1000v55h-140z m-203 466c0 0 0 0 0 0-39 40-95 65-157 65-62 0-118-25-157-65 0 0 0 0 0 0s0 0 0 0c-40-40-65-96-65-157 0-62 25-118 65-158 0 0 0 0 0 0s0 0 0 0c39-39 95-64 157-64 62 0 118 25 157 64 0 0 0 0 0 0s0 0 0 0c40 40 65 96 65 158 2 60-23 116-65 157 0 0 0 0 0 0z m-294-60l71-71h-100c4 27 15 50 29 71z m-29-125h100l-71-71c-14 19-25 44-29 71z m138-140c-26 4-50 15-70 29l70 71v-100z m0 232l-70 71c20 15 44 25 70 29v-100z m56 100c26-4 50-14 71-29l-71-71v100z m0-332v100l71-71c-21-14-46-25-71-29z m109 68l-71 70h100c-4-25-14-50-29-70z m-71 126l71 71c15-21 25-44 29-71h-100z m-434-93c28 5 50 30 49 59l0 3 0 2c0 144 96 273 235 309 28 7 56 10 84 10 69 0 134-22 187-60 23-18 57-17 78 4-68 69-162 112-265 112-7 0-13 0-21 0-197-11-352-177-352-374l0-1c0-22 2-43 5-64l0 0z"/>
</svg>
