<svg xmlns="http://www.w3.org/2000/svg" viewBox="0 0 1000 1000">
  <path transform="translate(0,850) scale(1,-1)" fill="currentColor" d="M554 615c6 0 12 3 17 7 4 5 7 10 7 16 0 6-3 12-7 16-5 5-11 8-17 8s-11-3-16-8-7-10-7-16c0-6 3-11 7-16 5-4 11-7 16-7z m221-303l0 0 0 0 0 0z m52-128c0 45-18 93-53 128-34 35-81 53-127 53-15 0-28-2-43-6-2 1-4 4-5 7l32 25c41 33 65 81 65 134v94c0 41-9 75-21 103-19 43-47 71-71 88-22 17-39 24-42 25v0c0 0 0 0 0 0 0 0 0 0 0 0l0 0c-27 12-50 15-71 15-38 0-64-12-69-13-4-2-35-15-68-46-16-17-33-39-45-67-13-28-21-64-21-103v-94c0-52 24-102 65-134l34-27v-1l-90-25c-73-21-123-87-123-163v-186c0-38 28-72 64-79l306-61c6-1 10-1 15-1 35 0 68 23 76 59 2 4 2 7 3 12l127 126 10-90 47 6-16 137c13 25 21 54 21 84z m-178 341c0-38-18-73-47-97l-5-4v19c25 22 44 53 52 86 0 2 0-4 0-4z m-106 268l0 0 0 0c0 0 3-2 6-3 10-5 35-19 58-46 17-19 31-44 37-78-56 27-103 72-131 127-3 4-6 7-10 10 12-1 25-4 40-10z m67-162l-6-75 0 0c-4-59-54-104-113-104-19 0-37 4-53 13-34 17-57 51-60 91l-6 73c13 8 27 17 40 25-5-4-6-10-6-16 0-6 3-11 7-16 5-4 11-7 16-7 6 0 12 3 17 7 4 5 7 10 7 16 0 6-3 12-7 16-5 5-11 8-17 8-4 0-7-2-11-3 29 22 54 48 75 78 29-44 70-81 117-106l0 0z m-258 73c14 34 36 56 55 70 9 7 18 11 24 14 3 3 6 3 7 5l2 0 0 0 0 0 1 0 0 0 2 0c4 1 19 7 39 9-4-2-8-6-10-11-28-54-76-100-132-126 3 14 7 28 12 39l0 0z m30-276c-29 24-47 59-47 97v4c8-33 27-64 52-86v-19c0 1-5 4-5 4z m-41-490l-94 19c-16 3-28 18-28 34v186c0 54 37 102 90 117l6 2c16-17 34-30 51-44l0 0 37-30c16 19 13 49-6 65-10 9-20 16-29 23l47 14c10 3 17 11 17 22v69c18-8 39-11 59-11 21 0 40 5 59 11v-38c0-12 3-24 9-34-15-8-28-18-40-30l0 0-78-79-88-88c-7-8-13-14-18-21v41h-47v-128c0-11 8-20 19-23l49-11-15-66 0 0z m250-17c-4-15-17-24-32-24-2 0-5 0-6 0l-165 32 14 65 164-32c8-2 15-6 19-12 5-6 8-13 8-21 0-3 0-6-2-8z m171 194l0 0c-6-9-12-18-21-25l-116-117c-1 2-3 5-4 6-12 14-28 25-47 28l-224 45c6 22 18 42 34 60l0 0 88 88 0 0 78 79c16 17 35 27 56 33l0 0c13 4 26 6 40 6 33 0 69-14 94-39l0 0c26-26 39-60 39-94 2-25-5-48-17-70l0 0z m-31 159c-25 25-57 36-90 36-35 0-72-14-97-45l-19-22 0 0 0 0 0 0-10-14c-19-23-30-52-30-80 0-33 12-65 37-90l0 0c25-25 57-37 90-37 28 0 57 10 81 30l35 29c29 25 46 60 46 97 0 32-12 65-37 90l-6 6 0 0z m-34-156l-35-30c-15-11-33-19-52-19-20 0-41 8-56 24 0 0 0 0 0 0-14 14-23 35-23 56 0 17 6 35 19 51l29 35c14 17 33 25 53 28 5-35 20-67 43-94l34 33c-13 14-22 32-28 51 4-3 10-7 15-12l6-6c16-16 23-35 23-56 2-23-9-45-28-61l0 0z m-98 103c-6 0-12-3-17-8-4-4-7-10-7-16s3-12 7-16c5-4 11-7 17-7 5 0 11 3 16 7 4 4 7 10 7 16s-3 12-7 16c-5 6-11 8-16 8z m61-61c-6 0-11-3-16-7-4-4-7-10-7-16 0-6 3-12 7-16s10-8 16-8 12 3 17 8 7 10 7 16c0 6-3 12-7 16-5 4-11 7-17 7z"/>
</svg>
