<svg xmlns="http://www.w3.org/2000/svg" viewBox="0 0 1000 1000">
  <path transform="translate(0,850) scale(1,-1)" fill="currentColor" d="M463-87l-198 72c-3 2-8 2-11 2h-223v-64h216l196-72c3-1 7-1 10-1h71c1 34-27 62-61 63l0 0z m-141 547c31 50 57 102 81 155l69 159c34-25 53-65 53-106 0-18-3-36-12-53l-67-153c-2-5-3-9-3-13l0 0 0-3c0-111-68-206-164-249l25-59c111 47 190 153 200 278l48 0c33 2 60 30 60 63h-90l47 109c12 25 16 52 16 78 0 75-44 149-117 180-8 3-16 3-24 0-7-3-15-9-17-17l-84-192c-22-50-47-100-77-146-17-29-51-47-87-47h-148v-63h150c57 1 110 29 141 79z m647-83c0 7-1 14-3 23-6 24-19 44-38 57-18 14-41 22-65 22h-103l-23 0h-38c-56 0-103-45-103-102 0-28 10-53 28-71-18-19-28-43-28-71 0-19 6-35 13-50-34-17-56-51-56-91 0-22 7-42 21-60-25-19-42-49-42-81 0-56 46-103 103-103h39l14 0h34c28 0 55 12 72 29 19 19 30 44 30 72 0 14-3 27-8 40h6c28 0 55 12 72 30 19 19 30 44 30 72 0 19-6 35-14 51 11 5 19 12 27 19 19 19 29 44 29 72 0 28-10 53-28 71 19 19 31 44 31 71l0 0z m-245-464h-33l-14 0h-40c-22 0-40 18-40 40 0 22 18 40 40 40h70v0h17c22 0 39-18 39-40 0-22-17-40-39-40l0 0z m101 141h-96v0h-70c-22 0-40 18-40 40 0 22 18 40 40 40h70v0h96c22 0 40-18 40-40-2-22-18-40-40-40z m69 153c-7-7-16-11-28-11h-95v0h-71c-22 0-40 17-40 39 0 22 18 40 40 40h71v0h95c0 0 0 0 0 0 22 0 40-18 40-40 0-10-4-20-12-28z m0 143c-7-7-16-12-28-12h-166c-22 0-40 18-40 40 0 22 18 40 40 40h38l24 0h103c10 0 19-3 26-9 8-6 12-13 15-22 0-3 1-6 1-9-1-12-5-21-13-28l0 0z"/>
</svg>
