<svg xmlns="http://www.w3.org/2000/svg" viewBox="0 0 1000 1000">
  <path transform="translate(0,850) scale(1,-1)" fill="currentColor" d="M377 341v362c0 7 2 16 5 22 5 6 9 10 17 13 4 2 7 2 11 2 9 0 18-5 24-11 6-5 9-13 10-23v-328h0v0h66v328c0 0 0 0 0 0v44c0 19 15 34 34 34 19 0 34-15 34-34v-394h66v350c0 19 15 34 34 34 19 0 34-15 34-34v-372h66v260c0 19 15 34 34 34 19 0 34-15 34-34v-306h0c1-35 31-63 66-63v369c0 56-44 100-100 100-12 0-24-3-34-6v18c0 56-44 100-100 100-16 0-31-4-44-10-19 32-52 54-91 54-40 0-72-22-90-56-13 8-28 10-44 10-12 0-22-1-34-5-21-8-38-22-48-39-12-16-18-36-18-57l0-288c3-37 31-74 68-74l0 0z m532-213c-2 35-31 63-66 63v-79c0-55-22-103-58-139-35-35-83-57-138-57h-213c-10 0-31 3-49 7-8 3-17 6-23 9-3 2-6 3-8 5l-2 1 0 0h0l-25 28-149 346-7 17c1 0 4 0 6 0 38 0 75-22 91-60l59-135 0 0c4-9 11-16 22-19 10-3 20 0 29 6l0 0c0 0 13 10 34 20 20 11 48 19 79 19 24 0 47-4 72-19l33 59c-36 19-72 27-105 27-45 0-84-14-110-27-3-1-6-3-9-4l-44 101c-28 63-88 100-153 100-22 0-44-4-66-13-18-7-25-27-18-44l24-55 151-350c2-3 3-6 6-9l28-32c10-10 21-18 32-22 17-7 36-13 53-16 18-3 34-6 49-6h215c144 0 261 118 261 262l-1 16 0 0 0 0z"/>
</svg>
