<svg xmlns="http://www.w3.org/2000/svg" viewBox="0 0 1000 1000">
  <path transform="translate(0,850) scale(1,-1)" fill="currentColor" d="M747 238l35 140c2 7 3 13 3 21 0 22-8 42-23 57-15 15-35 25-59 25h-29v-52h29c9 0 16-2 22-8 6-6 9-14 9-22 0-3 0-6-2-8l-35-139c-7-28-32-48-60-48-28 0-55 20-60 48l-36 139c0 3-1 6-1 8 0 8 3 16 9 22 5 6 13 8 22 8h29v52h-29c-24 0-44-10-59-25-15-15-24-35-24-57 0-8 2-14 3-21l36-140c10-41 44-73 83-82v-174c0-28-22-50-50-50h0c-28 0-50 22-50 50v145c0 55-45 101-101 101-56 0-102-46-102-101v-34c-35-11-60-43-60-81 0-47 38-86 85-86 47 0 86 39 86 86 0 38-25 70-61 81v34c0 27 22 50 50 50 28 0 50-23 50-50v-145c0-56 46-101 102-101h0c56 0 101 45 101 101v172c43 11 77 42 87 84l0 0z m-379-226c0-19-15-34-34-34-19 0-34 15-34 34 0 19 15 34 34 34 19 0 34-15 34-34z m482 340v-421l-123 0c-27-2-49-24-49-52h199c7 0 13 3 17 8s8 11 8 17l0 398c-2 29-25 50-52 50z m-621-421l-79 0v421c-28 0-50-23-51-49l0-397c0-8 3-13 7-18s12-7 18-7h153c1 26-20 48-48 50z m605 578v195c0 8-3 14-7 18s-11 7-18 7h-116c-8 0-14-2-18-7s-7-12-7-18v-35l-150 143c-11 9-25 9-36 0l-482-462 35-37 465 446 175-168 0 0 79-75 211-201 35 35c0 0-166 159-166 159z m-50 50l-65 62v58h65c0 0 0-120 0-120z m-327-277v103c0 71-57 128-128 128-70 0-127-57-127-128v-128h255l0 25 0 0z m-153 25h-51v77c0 20 9 40 22 54 7 8 18 14 29 18v-149z m102 0h-52v149c11-4 21-10 30-18 13-14 22-32 22-54v-77z"/>
</svg>
