<svg xmlns="http://www.w3.org/2000/svg" viewBox="0 0 1000 1000">
  <path transform="translate(0,850) scale(1,-1)" fill="currentColor" d="M1000 688v99c0 25-21 44-44 44s-44-21-44-44v-66l-743-252c-9 8-19 12-29 12h-96c-12 0-23-4-31-13s-13-19-13-31v-172c0-12 4-24 13-31s19-13 31-13h96c10 0 20 4 29 11l110-38v-110c0-91 74-166 167-166 91 0 164 72 166 163l298-102v-66c0-25 21-44 44-44 25 0 45 21 45 44v99c0 0 0 0 0 0l1 676c0 0 0 0 0 0l0 0z m-476-604c0-43-34-77-77-77-43 0-76 34-76 77v79l153-51 0-28 0 0z m386-10l-725 245v60l725 246c0 2 0-551 0-551z"/>
</svg>
