<svg xmlns="http://www.w3.org/2000/svg" viewBox="0 0 1000 1000">
  <path transform="translate(0,850) scale(1,-1)" fill="currentColor" d="M985 294c-10 8-25 6-35-1-60-44-134-69-213-69-141 0-263 80-324 197l-23 56c-33-14-47-50-34-81 71-140 215-236 381-236 65 0 126 15 181 42-59-161-208-277-384-289l-63 0c0-34 28-62 61-63 234 13 425 187 468 412 2 13-4 25-15 32l0 0z m-628-357c-172 60-294 225-294 416 0 190 121 351 290 415-26-55-41-115-41-180 0-41 4-61 4-61 33 1 58 29 59 61h0c0 80 27 152 69 212 8 10 8 25 2 35-8 11-19 17-33 15-235-44-413-250-413-497 0-222 143-410 343-477l59-16c8 34-11 68-45 77z"/>
</svg>
