<svg xmlns="http://www.w3.org/2000/svg" viewBox="0 0 1000 1000">
  <path transform="translate(0,850) scale(1,-1)" fill="currentColor" d="M927 290l0 0-2 22 0 0 0 0c-4 40-12 81-25 122l-18 51c-29-10-45-41-35-70 10-37 18-72 21-108l1-20c2-12 2-24 2-35 0-70-14-131-40-181-25-49-62-86-107-105-17-7-34-12-50-13l0 0c-9 0-18 0-25 0-8 0-17 0-24 1-57 6-118 34-173 81-40 34-78 77-111 128-19 31-37 64-51 99-12 29-22 60-30 90-13 50-19 98-19 144 0 56 9 108 27 153 3 5 6 11 7 16 18 37 40 66 68 88l0 0c13 10 28 19 45 26 24 11 50 15 77 15 56 0 116-22 172-63 56-40 109-99 151-172l27-50c26 15 38 47 25 75-46 81-105 147-169 193-65 45-136 73-206 73-34 0-66-6-97-19l-111-46c-60-25-105-72-135-131-31-58-45-129-45-205 0-81 17-170 52-255 43-103 106-188 178-248 72-61 155-96 236-96 34 0 66 6 98 19l111 46c60 25 105 72 135 131 31 58 45 129 45 206-4 13-5 25-5 38z m-759 338c16 32 38 59 63 78-7-12-13-25-18-40-6-16-11-32-16-50-6-22-10-45-12-70l-50-19c6 38 18 72 33 101z m-39-179c0 4 0 10 0 14l53 22c0-17 2-35 3-53 2-14 5-30 8-45l-58-24c-4 30-6 58-6 86z m49-233c-13 30-24 61-31 90l57 23c8-30 18-60 31-91 2-3 3-6 5-10l-58-24c-1 5-3 8-4 12l0 0z m99-164c-27 30-50 64-71 102l57 24c21-38 43-72 68-104 1 1-54-22-54-22z m114-101c-17 11-35 24-51 37-8 6-15 12-22 19l54 22c13-13 27-26 41-38 9-7 16-13 25-19l-47-21 0 0z m147-45c-25 0-51 4-78 13l37 16c22-12 44-20 68-26-9-2-18-3-27-3l0 0z m236 223c17 37 25 81 25 130 0 62-14 131-43 198-31 74-75 137-124 181-25 22-50 40-76 53-27 12-53 19-81 19-19 0-38-3-56-10-15-6-26-13-38-23-24-21-41-49-52-80-11-31-16-68-17-106l0 0 1-32 0 0c3-32 9-68 18-102 10-28 41-44 71-35l-18 53c-9 29-13 59-15 87l-1 29c0 33 6 62 13 87 9 25 21 43 35 56l0 0c8 6 15 10 24 15 10 4 22 7 34 7 17 0 36-4 57-15 31-14 63-39 94-75 29-35 57-79 78-129 26-62 38-124 38-178 0-41-7-78-20-105-14-27-31-45-53-54-9-3-18-6-27-6l0 0 0 0c-4 0-7 0-12 0-29 0-55 9-86 33-31 23-64 60-97 113l-2 3c-17 23-50 31-75 14l28-45c38-58 75-100 113-130 39-29 80-44 122-44 6 0 11 0 17 0 14 2 29 5 44 11 35 13 63 42 81 80l0 0z m-393 548l0 0 0 0 0 0z m266-642l0 0 0 0 0 0z m-212 421c0-12 3-24 6-35 5-12 9-22 16-33 9-13 21-22 34-28 12-6 25-7 37-7 16 0 28 3 38 4 5 2 9 2 13 2 5 0 11 0 14-2 4-1 7-3 10-5 6-5 9-11 12-17 3-6 4-13 4-20 0-15-6-28-10-34-3-4-7-6-10-7-3-2-6-2-11-2-6 0-13 2-23 6-9 4-19 10-28 18l-37-44c13-11 27-20 41-27 15-6 30-10 46-10 3 0 6 0 10 1l21-47 51 22-22 49c2 1 2 1 3 3 16 19 25 44 25 70 0 14-3 28-7 41-6 14-15 27-27 39-10 9-20 14-31 17-10 3-20 5-31 5-8 0-17-2-25-3-10-2-20-5-27-5-6 0-9 2-12 3-3 2-8 5-12 11-3 4-6 10-7 16-2 6-3 13-3 17l0 5c1 12 6 19 11 23 6 5 14 8 23 8 11 0 26-5 38-18l39 41c-22 22-50 33-77 33-3 0-6 0-9 0l-24 54-53-22 24-54c-15-14-27-34-30-58 0-3 0-7 0-10l0 0z"/>
</svg>
