<svg xmlns="http://www.w3.org/2000/svg" viewBox="0 0 1000 1000">
  <path transform="translate(0,850) scale(1,-1)" fill="currentColor" d="M577 331c-9 0-18-4-25-10s-11-17-11-25 5-18 11-25 16-11 25-11c8 0 17 5 25 11s10 16 10 25-5 17-10 25-17 10-25 10z m-118 0c-9 0-18-4-25-10s-10-17-10-25 4-18 10-25 16-11 25-11c9 0 18 5 25 11s10 16 10 25-4 17-10 25-16 10-25 10z m-110 0c-9 0-18-4-25-10s-11-17-11-25 5-18 11-25 16-11 25-11c8 0 17 5 25 11s10 16 10 25-5 17-10 25-17 10-25 10z m336 178c-16 16-39 26-63 26h-128v44h130v71h-317v-71h118v-44h-221c-50 0-89-39-89-89v-52h-44v116h-71v-317h71v131h44v-103c0-50 39-90 89-90h49c6 0 10-2 13-6l49-48c16-17 39-27 63-27h315c50 0 89 40 89 90v235c0 24-8 47-26 63 0 0-71 71-71 71z m27-368c0-10-9-19-19-19h-315c-6 0-10 2-13 6l-49 49c-16 16-39 26-63 26h-49c-10 0-19 9-19 19v224c0 10 9 19 19 19h418c6 0 10-2 13-6l71-71c3-3 6-9 6-13 0 0 0-234 0-234z m220 325h-39c-39 0-68-31-68-67v-280c0-38 31-67 68-67h39c39 0 68 30 68 67v280c0 36-31 67-68 67z"/>
</svg>
