<svg xmlns="http://www.w3.org/2000/svg" viewBox="0 0 1000 1000">
  <path transform="translate(0,850) scale(1,-1)" fill="currentColor" d="M396 659c-24 9-50 0-65-22l46-28 0 0c30-19 57-35 76-49 21-10 32-19 32-19 9-6 19-6 28 0 0 0 47 30 109 68 0 0 0 0 2 1l42 27c-13 22-42 31-66 20-1 0-4-1-6-3 0 0 0 0-1 0 0 0-2 0-2 0l0 0c-29-19-56-35-75-47-7-4-13-7-17-10-20 12-55 34-97 60-2 0-3 2-6 2l0 0z m495-375l-35 288c-7 57-44 106-97 128l-119 50c-11 4-18 15-18 25v75h-53v-75c0-32 19-62 50-75l119-50c36-15 59-47 65-85l16-130-50-8c-4 32-16 64-34 92v60h-53v-67c0-6 2-10 5-15 20-29 32-68 32-104 0-16-1-34-6-50-1-8 0-16 5-22 3-5 6-9 9-14h-155c-54 0-98-44-98-98 0-55 44-99 98-99h163c8 0 15 2 24 2-25-119-131-209-257-209-74 0-139 29-187 78-50 47-80 113-80 187 0 57 18 109 49 153 4 6 6 14 4 22-4 16-6 32-6 50 0 36 11 75 33 104 3 5 4 10 4 15v69h-54v-60c-18-28-30-61-34-93l-50 9 16 129c5 38 30 71 65 86l119 50c31 13 50 42 50 75v73h-53v-75c0-12-7-21-18-25l-119-50c-53-22-89-71-97-128l-31-254c-3-25-4-49-4-74v-321h53v321c0 22 1 44 4 68l9 70 54-10c2-10 3-22 5-32-32-50-52-109-52-174 0-173 143-316 318-316 163 0 299 123 315 284 45 28 76 76 76 134v13c0-2 0 3 0 3z m-84-90c-19-19-44-31-73-31h-162c-25 0-44 21-44 44 0 25 21 45 44 45h196c4 0 7 1 11 2l0 0c14 6 20 21 14 36-8 17-16 34-27 50 3 10 5 22 5 32l54 10 13-104 0-12c0-28-11-53-31-72l0 0z"/>
</svg>
