<svg xmlns="http://www.w3.org/2000/svg" viewBox="0 0 1000 1000">
  <path transform="translate(0,850) scale(1,-1)" fill="currentColor" d="M766 150l-134 40c-5 1-10 7-10 13v50c13 18 22 37 28 59 22 26 35 65 35 101-1 28-25 53-54 53v-57c0-27-10-49-27-68-2-4-5-9-7-13-7-46-48-81-97-81h0c-48 0-90 35-97 82-1 5-3 11-7 14-17 17-27 41-27 67v58c-29 0-53-25-54-53 0-37 13-75 35-102 4-22 15-41 28-59v-51c0-6-4-12-10-13l-136-40c-82-25-139-100-139-187v-113h54v113c0 62 41 118 102 136l95 28 140-112c10-8 23-8 34 0l139 112 95-28c60-18 101-72 101-136v-113h54v113c-1 86-57 162-141 187l0 0z m-266-79l-97 78c18 13 29 33 29 55v6c21-10 43-16 68-16h0c24 0 47 6 68 16v-7c0-24 11-44 29-56 0 0-97-76-97-76z m225-109h54v-112h-54v112z m-503 0h55v-112h-55v112z m52 520h141c-3-4-6-10-6-16 0-7 3-14 7-19 5-4 12-7 19-7 8 0 15 3 19 7 5 5 8 12 8 19 0 6-2 12-6 16h82c-3-4-6-10-6-16 0-7 3-14 8-19 4-4 12-7 19-7 7 0 15 3 19 7 4 5 7 12 7 19 0 6-1 12-6 16h142c7 0 14 3 19 8 4 4 7 12 7 19v18c0 23-12 44-29 57v19c0 56-21 106-55 146-29 33-67 58-111 70v5c0 7-3 14-8 19 2 4-6 7-13 7h-60c-8 0-15-3-19-7s-8-12-8-19v-3c-44-12-84-37-112-71-33-40-54-91-54-147v-18c-18-13-29-33-29-57v-18c0-7 3-14 7-19 4-6 10-9 18-9l0 0z m39 62c11 5 18 15 18 25v34c0 43 16 81 41 110 27 30 62 50 103 58 12 1 21 11 22 23h7c2-12 11-22 23-25 39-6 76-28 101-57 25-30 41-68 41-110v-34c0-12 8-21 18-25 4-2 7-5 9-8h-393c3 5 6 8 10 9z"/>
</svg>
