<svg xmlns="http://www.w3.org/2000/svg" viewBox="0 0 1000 1000">
  <path transform="translate(0,850) scale(1,-1)" fill="currentColor" d="M500 212c-12 0-23-5-32-13s-14-21-14-33 5-23 14-32 20-13 32-13 24 4 32 13c9 9 14 20 14 32s-5 24-14 33c-8 7-20 13-32 13z m0 395c-25 0-46-20-46-45v-268c0-25 21-45 46-45 25 0 46 20 46 45v266c0 25-21 47-46 47z m444 6l-181 181c-35 35-85 56-135 56h-256c-50 0-98-21-135-56l-181-181c-35-35-56-85-56-135v-256c0-50 21-98 56-135l181-181c35-35 84-56 135-56h256c50 0 99 21 135 56l181 181c35 35 56 84 56 135v256c0 50-21 100-56 135l0 0z m-37-391c0-26-10-51-29-69l-181-182c-19-20-44-30-69-30h-256c-26 0-51 10-69 30l-182 182c-19 19-30 44-30 69v256c0 26 11 51 30 69l182 182c19 20 44 30 69 30h256c26 0 51-10 69-30l181-180c19-20 29-45 29-70 0-1 0-257 0-257z"/>
</svg>
