<svg xmlns="http://www.w3.org/2000/svg" viewBox="0 0 1000 1000">
  <path transform="translate(0,850) scale(1,-1)" fill="currentColor" d="M638 850c-11 0-23-1-35-3l-76-10c-9 0-18-2-27-2s-18 0-26 2l-77 10c-12 2-23 3-35 3-143 0-262-118-262-262 0-9 0-16 2-25l1-22c1-19 18-32 37-31 19 2 32 18 31 37l-2 22c0 6-1 12-1 18 0 54 22 103 57 138 35 37 84 57 137 57 9 0 17 0 26-1l77-10c12-2 23-3 35-3s24 1 35 3l77 10c9 1 17 1 26 1 53 0 102-22 137-57 35-35 57-84 57-138 0-6 0-12-1-18l-13-147c0-6-2-12-2-16-12-113-35-224-72-331l-44-132c-4-15-18-24-34-24-16 0-29 10-34 27l-57 213c-4 18-16 34-29 43-14 10-30 14-46 14-16 0-32-4-46-14-13-11-25-25-29-43l-57-213c-5-15-18-27-34-27-15 0-28 10-34 24l-44 132c-34 102-57 206-69 312-2 19-19 32-37 29-19-1-32-19-29-37 11-110 36-219 72-325l44-132c15-41 53-69 97-69 45 0 87 31 98 75l58 213c1 5 3 5 4 6 2 2 5 2 8 2 2 0 4-2 7-2 1-1 3-3 4-6l58-213c11-44 53-75 98-75 44 0 83 28 97 69l44 132c39 112 64 228 75 346 0 6 2 12 2 18l13 147c2 9 2 16 2 25-2 142-121 260-264 260z"/>
</svg>
