<svg xmlns="http://www.w3.org/2000/svg" viewBox="0 0 1000 1000">
  <path transform="translate(0,850) scale(1,-1)" fill="currentColor" d="M987 371c-2 1-65 83-168 157-25 15-57 9-73-15l44-29c47-35 87-72 113-100 12-12 21-22 28-31-31-35-110-118-213-176-11-6-19-11-30-17-59-26-122-45-188-45-35 0-69 6-103 14-28 9-59-5-68-33l50-17c39-11 80-17 121-17 77 0 149 22 212 53 12 6 22 12 32 17 146 83 241 206 243 206l13 16-13 17 0 0z m-734-175l-44 29c-47 34-85 71-112 99-12 11-20 22-28 30 21 24 63 70 122 115 41 33 88 63 141 87 53 23 109 38 168 38 34 0 66-4 99-13 28-9 58 6 67 34l-50 16c-37 10-76 16-116 16-69 0-134-18-193-44-88-40-160-97-211-146-52-48-83-86-83-86l-13-17 13-16c2-1 65-82 166-157 24-16 58-9 74 15z m247-2c88 0 160 72 160 160 0 37-11 70-32 96l279 279-38 39-279-280c-25 16-56 27-88 27-89 0-161-72-161-161 0-32 11-63 27-88l-294-294 38-38 292 293c27-21 59-33 96-33z m90 218c10-16 17-37 17-58 0-29-11-55-30-75-21-20-48-32-77-32-22 0-41 6-57 18 0 0 147 147 147 147z m-165 17c19 20 46 31 75 31 18 0 35-4 50-11l-143-143c-7 15-11 31-11 50-2 28 10 53 29 73z"/>
</svg>
