<svg xmlns="http://www.w3.org/2000/svg" viewBox="0 0 1000 1000">
  <path transform="translate(0,850) scale(1,-1)" fill="currentColor" d="M500 343c-201 0-365-164-365-365v-5c0-73 61-133 134-133h463c74 0 134 60 134 133v5c-1 200-164 365-366 365z m272-370c0-22-18-39-40-39h-464c-22 0-40 17-40 39v5c0 75 31 143 79 193 50 50 118 79 193 79 75 0 143-31 193-79 50-50 79-118 79-193v-5z m-272 451c115 0 209 92 209 208 0 115-94 208-209 208-115 0-209-93-209-209 0-115 94-207 209-207z m0 323c63 0 115-51 115-115 0-63-52-114-115-114-63 0-115 51-115 114 0 64 52 115 115 115z"/>
</svg>
