<svg xmlns="http://www.w3.org/2000/svg" viewBox="0 0 1000 1000">
  <path transform="translate(0,850) scale(1,-1)" fill="currentColor" d="M835 250c-25 13-57 4-70-21l42-23c34-27 56-69 56-115v-198h52v198c0 65-31 122-80 159z m-70 34l-50 15-81 23c-7 2-12 9-12 16v86c13 17 24 38 28 60 22 26 37 62 37 100v81c0 101-84 185-187 185h0c-103 0-187-84-187-187v-81c0-38 14-72 37-100 4-22 15-42 28-60v-85c0-8-4-13-12-16l-138-42c-84-25-141-101-141-189v-199h51v200c0 65 43 122 105 140l76 22 66-119c3-6 11-12 18-13 7-2 15 0 21 4l14 12 18-30h-25c-7 0-13-3-18-7-4-4-7-12-7-18v-206c0-7 3-13 7-17 5-5 12-8 18-8h141c7 0 13 3 18 8 4 4 7 12 7 17v206c0 8-3 14-7 18-5 4-12 7-18 7h-25l18 30 14-12c6-4 14-6 21-4 7 1 13 6 18 13l66 119 20-6c25-6 53 10 61 37l0 0z m-361 475c25 25 59 40 96 40h0c28 0 53-9 74-22-8-12-20-24-33-34-10-8-22-15-32-19l-3 45c-2 12-9 21-19 24-10 3-22-2-28-11-12-17-27-33-44-45-6-5-21-10-36-13 0 0 0 0-1 0 7 11 16 25 26 35l0 0z m-39-177v81c0 2 0 3 0 3 9 2 19 3 28 6 17 5 35 12 50 21 6 3 10 7 14 11l2-16c0-7 4-13 9-17 6-5 11-8 19-6 29 3 59 16 85 37 15 11 28 23 40 38 15-22 23-49 23-77v-81c0-26-10-51-28-69-3-3-5-9-5-13-9-48-50-85-102-85h0c-51 0-93 37-101 85-2 4-3 9-6 13-18 18-28 43-28 69l0 0z m135-320l-73 56c1 6 2 13 2 19v42c21-10 46-17 71-17h0c25 0 50 6 71 17v-41c0-7 1-13 3-19l-74-57 0 0z m21-93l-21-37-21 36 21 14 21-13z m-106 16l-46 84 12 3c4 2 9 3 13 6l72-54c0 0-51-39-51-39z m131-284h-89v155h89v-155z m39 284l-51 37 72 55c4-3 9-5 13-6l12-3-46-83 0 0z m-150 409c8 0 14 3 18 8 4 4 7 11 7 17 0 8-3 13-7 18-4 4-12 7-18 7s-13-3-17-7c-5-5-8-12-8-18 0-7 3-13 8-17 4-5 10-8 17-8z m130 0c7 0 13 3 17 8s8 11 8 17c0 8-3 13-8 18s-11 7-17 7-13-3-18-7c-4-5-7-12-7-18 0-7 3-13 7-17 5-5 10-8 18-8z m167-553l0-148h52v198c-28 0-50-22-52-50z m-516 50v-198h52l0 148c-2 28-24 50-52 50z"/>
</svg>
