<svg xmlns="http://www.w3.org/2000/svg" viewBox="0 0 1000 1000">
  <path transform="translate(0,850) scale(1,-1)" fill="currentColor" d="M660 547c-10 21-26 41-50 56-23 15-53 25-88 26l0 0c-1 0-7 0-18 0-22 0-61-2-100-27-19-12-36-31-50-55-13-25-22-54-23-91l71-3c1 28 7 47 14 60 12 21 27 31 43 37 16 6 35 9 45 7 3 0 6 0 8 0l1 0v0l2 0 1 0c25-1 43-7 55-14 8-6 16-14 22-22 9-12 13-27 16-40 3-13 3-24 3-27l0-1v0l0 0v0c0-24-9-41-24-57-14-17-38-30-66-36l0 0c-18-4-32-11-45-22-18-16-28-36-33-54-4-18-4-35-4-47 0-5 0-8 0-10 0-5 0-8 0-9l0-2v-17h70v16h0c0 4 0 7 0 12 0 4 0 7 0 10 0 15 2 29 5 38 1 4 4 7 7 10 3 3 7 6 16 8l0 0c40 10 75 28 102 56 26 28 41 64 42 104l0 0 0 1c0 0 0 0 0 0h0l0 2c-1 12-1 50-22 91l0 0z m-483-479l-42 57 0 0c-41 66-64 143-64 225 0 119 48 227 125 303 78 78 185 126 304 126 82 0 159-23 225-63l0 0c31-23 77-16 99 16l-56 42c-77 47-169 76-268 76-276 0-500-223-500-500 0-98 29-190 78-268 24-30 68-36 99-14l0 0z m739 559c-23 30-67 35-98 11l42-56 0 0c43-67 68-147 68-232 0-119-49-226-125-303-78-78-185-125-303-125-85 0-165 25-232 68l0 0c-31 23-75 17-99-14l56-42c78-53 174-84 275-84 277 0 500 224 500 500 0 102-31 197-84 277l0 0z m-441-468c-12 0-25-5-34-13-9-9-13-21-13-34s4-25 13-34c9-9 21-13 34-13 12 0 25 4 34 13 9 9 13 21 13 34s-4 25-13 34c-9 8-21 13-34 13z"/>
</svg>
