<svg xmlns="http://www.w3.org/2000/svg" viewBox="0 0 1000 1000">
  <path transform="translate(0,850) scale(1,-1)" fill="currentColor" d="M74 413c0 66 42 122 100 143l-56 56c-69-38-118-113-118-199 0-125 102-226 227-226v73c-84 0-153 68-153 153z m457-306c-84 0-153 70-153 153 0 27 7 52 19 74l-53 53c-25-37-40-80-40-128 0-125 102-227 227-227h166l-73 74c0 1-93 1-93 1z m469 152c0 125-101 226-226 226v-73c83 0 153-69 153-153 0-66-43-122-102-143l-169 168c25 37 40 81 40 128 0 125-102 226-227 226h-169l-138 140-53-51 88-89 71-70h0l125-125h0l42-43 0 0 292-291 72-72h0l113-114 53 53-87 87c74 36 122 111 122 196l0 0z m-398 79l-227 228h94c84 0 153-69 153-153 0-28-9-53-20-75l0 0z"/>
</svg>
