<svg xmlns="http://www.w3.org/2000/svg" viewBox="0 0 1000 1000">
  <path transform="translate(0,850) scale(1,-1)" fill="currentColor" d="M675 40c0 1-1 3-1 4-2 3-3 6-6 9 0 0-2 1-2 1 0 0 0 0 0 0l-217 206c-15 14-39 14-53 0l-59-56-80 83c-7 7-17 12-29 12s-21-6-28-14l-123-153v492c0 20-18 38-39 38-20 0-38-18-38-38v-597c0-6 2-11 3-15 0 0 0 0 0-2 0-1 1-1 1-1 2-3 3-6 6-9 2-2 5-2 6-3 2-1 3-1 5-3 6-3 11-6 17-6 0 0 0 0 0 0h602c4 0 9 2 13 3 1 0 3 2 3 2 3 1 6 3 7 5 2 2 2 2 3 4 3 2 5 5 6 8 0 0 2 2 2 2 0 0 0 0 0 0 1 4 3 9 3 13 0 0 0 2 0 2 0 1 0 1 0 2 1 3 0 8-2 11l0 0z m228-34c0 1 1 1 3 3 0 0 0 1 0 1 3 6 4 11 4 17v1c0 0 0 0 0 0v659c0 10-4 19-11 26s-17 12-27 12h-688l-119 119-55-53 487-487c0 0 0 0 0 0l0 0 449-448 54 53c0 0-97 97-97 97z m-69 154l-177 287c-5 10-16 16-28 18-11 1-23-3-30-11l-75-70-100 100c14 13 22 32 22 54 0 43-34 77-77 77-20 0-40-9-54-24l-56 56h573l2-487 0 0z"/>
</svg>
