<svg xmlns="http://www.w3.org/2000/svg" viewBox="0 0 1000 1000">
  <path transform="translate(0,850) scale(1,-1)" fill="currentColor" d="M475 332l0 0 44-44-44 44z m-272-89c-7 7-18 13-29 13h-133c-10 0-22-4-29-12s-12-19-12-31v-132c0-10 4-22 12-29s19-12 29-12h133c10 0 22 4 29 12s12 19 12 29v132c0 11-5 22-12 30z m-71-119h-48v48h48v-48z m259 0h-48v175h45l-84 83h-4c-10 0-22-4-29-11s-12-19-12-30v-259c0-10 4-22 12-29s19-12 29-12h132c11 0 22 5 30 12s12 19 12 29v133l-84 84 1-175 0 0z m130-42c0-10 4-22 11-29s20-12 30-12h87l-130 130 2-89 0 0z m364-42h68c10 0 22 4 29 12s12 19 12 29v651c0 11-4 22-12 30s-19 12-29 12h-132c-11 0-22-5-30-12s-12-19-12-30v-586l-44 44v348c0 11-4 22-11 30s-20 11-30 11h-132c-10 0-22-4-30-11s-11-19-11-30v-132l-428 428-59-59 391-391 52-52 44-44 83-84 49-48 82-82 206-208 59 59-115 115z m-233 235l-49 49v173h49v-222z m211 415h49v-566h-49v566z"/>
</svg>
