<svg xmlns="http://www.w3.org/2000/svg" viewBox="0 0 1000 1000">
  <path transform="translate(0,850) scale(1,-1)" fill="currentColor" d="M253-18c-10 0-19 9-19 20v432l-87 87v-518c0-59 47-106 106-106h503c4 0 9 1 13 1l-85 84c0 0-431 0-431 0z m609 68v549c0 5-2 11-3 16 0 1-2 1-2 3-1 4-4 7-7 11 0 0 0 0 0 0l-213 203c-3 2-5 2-8 3-2 2-4 3-7 5-4 1-10 3-16 3 0 0 0 0 0 0 0 0 0 0 0 0h-343c-53 0-97-36-111-84l-90 91-62-62h0l938-938 62 62-138 138 0 0z m-87 494v-409l-543 543v50c0 16 14 29 30 29h300v-158c0-12 4-22 13-31 7-8 19-14 31-14h169v-10l0 0z"/>
</svg>
