<svg xmlns="http://www.w3.org/2000/svg" viewBox="0 0 1000 1000">
  <path transform="translate(0,850) scale(1,-1)" fill="currentColor" d="M500 434c-22 0-44-9-59-25-16-16-25-37-25-59s9-44 25-59c16-16 37-25 59-25s44 9 59 25c16 16 25 37 25 59s-9 44-25 59c-15 16-37 25-59 25z m0 247c22 0 44 9 59 25 16 16 25 37 25 59s-9 44-25 59c-15 17-37 26-59 26s-44-9-59-25c-16-16-25-37-25-59s9-44 25-59c15-16 37-26 59-26z m0-662c-22 0-44-9-59-25-16-16-25-37-25-59s9-44 25-59c16-16 37-25 59-25s44 9 59 25c16 17 25 37 25 59s-9 44-25 59c-15 15-37 25-59 25z"/>
</svg>
