<svg xmlns="http://www.w3.org/2000/svg" viewBox="0 0 1000 1000">
  <path transform="translate(0,850) scale(1,-1)" fill="currentColor" d="M785 584h119l-45-46 0 0c-19-22-19-56 1-76l37 37 2 1 92 93c6 6 9 11 9 19 0 7-3 15-9 19l-89 90-37 36c-21-20-22-54-2-76l0 0 41-41h-119c-66 0-129-31-169-83l-291-375c-29-38-76-61-125-61h-200v-56h199c66 0 129 31 169 82l291 375c31 40 78 62 126 62z m-460-60l60-78 34-44c24 17 28 51 12 76l0 0-62 81c-41 53-103 82-169 82h-200v-56h199c50-1 95-23 126-61z m579-324l-1 2-37 36c-20-20-22-54-1-76l0 0 41-41h-119c-49 0-96 22-125 61l-60 77-34 44c-24-18-28-51-12-76l0 0 1-2c0 0 0 0 0 0l61-76c41-53 103-83 169-83h119l-46-45 0 0c-19-23-19-56 2-77l37 37 94 94c6 6 9 12 9 19 0 8-3 15-9 19-2 0-89 87-89 87z"/>
</svg>
