<svg xmlns="http://www.w3.org/2000/svg" viewBox="0 0 1000 1000">
  <path transform="translate(0,850) scale(1,-1)" fill="currentColor" d="M971 177l-64 110-66-38 63-111c6-10 9-22 9-32 0-18-7-34-19-46-12-11-28-20-47-20h-310l60 60-53 54-125-125c-15-14-15-38 0-54l125-125 55 54-61 61h311c41 0 76 17 101 42 25 27 40 62 40 99 0 23-6 48-19 71l0 0z m-471 597c22 0 44-11 57-33l122-212-82 23-19-74 171-46c20-5 41 6 47 27l45 170-73 20-22-83-124 213c-26 48-75 71-122 71-47 0-96-23-122-71l-37-64 66-38 37 64c12 22 34 33 56 33z m-198-202c-9 5-20 6-30 5l-172-45 19-73 84 22-174-304c-13-23-19-48-19-71 0-37 15-72 40-99 25-26 62-44 102-42h91v76h-91c-20 0-36 8-48 21-11 12-19 29-19 45 0 11 3 22 9 33l174 301 20-82 74 19-44 172c0 9-8 18-16 22z"/>
</svg>
