<svg xmlns="http://www.w3.org/2000/svg" viewBox="0 0 1000 1000">
  <path transform="translate(0,850) scale(1,-1)" fill="currentColor" d="M457 850v-85c103 0 196-41 262-109 68-68 109-160 109-262h85c0 252-204 456-456 456z m50-360c25 0 46-21 46-46s-21-45-46-45-45 20-45 45 19 46 45 46z m-50 176v-85c103 0 187-84 187-187h85c0 150-122 272-272 272z m187-682c0-27-22-49-48-49h-375c-27 0-49 22-49 49v732c0 27 22 49 49 49h163v85h-163c-74 0-134-60-134-134v-732c0-74 60-134 134-134h373c74 0 134 60 134 134v338h-85c1 0 1-338 1-338z m-347 125h230v-85h-230v85z"/>
</svg>
