<svg xmlns="http://www.w3.org/2000/svg" viewBox="0 0 1000 1000">
  <path transform="translate(0,850) scale(1,-1)" fill="currentColor" d="M729-16c-66-41-144-66-229-66-119 0-228 48-306 126-78 78-126 187-126 306 0 84 25 163 66 229 22 31 16 73-15 95l-40-53c-50-78-79-171-79-271 0-276 224-500 500-500 100 0 193 29 271 79 29 22 35 65 13 95l-55-40 0 0z m-229 866c-103 0-198-31-278-85-28-24-34-65-12-94l55 41c67 44 148 70 237 70 119 0 227-48 305-126 78-78 127-187 127-306 0-87-27-168-71-237-22-29-17-72 14-95l41 53c51 81 82 176 82 279 0 277-223 500-500 500z m274-587c-105 111-245 166-386 166-45 0-91-5-136-17l17-66c38 10 80 16 119 16 122 0 246-49 337-144 0 0 49 45 49 45z m-471-51c28 7 57 12 87 12 84 0 164-33 226-96l49 47c-74 78-175 118-275 118-36 0-71-5-106-15 1 0 19-66 19-66z m104 342c-63 0-128-8-189-27l20-65c56 17 114 25 169 25 150 0 299-59 409-175l49 47c-124 129-290 195-458 195z"/>
</svg>
