<svg xmlns="http://www.w3.org/2000/svg" viewBox="0 0 1000 1000">
  <path transform="translate(0,850) scale(1,-1)" fill="currentColor" d="M744 757c-12 0-22-4-29-11-8-8-12-19-12-30s4-22 12-29c7-8 19-12 29-12 10 0 22 4 30 12 7 7 11 19 11 29s-4 22-11 30c-8 7-18 11-30 11z m137 9c12 0 22 5 29 12s12 19 12 29-4 22-12 30-19 13-29 13c-10 0-22-4-29-12-8-7-12-19-12-29s4-22 12-30c7-8 17-13 29-13z m-274-98c-10 0-22-5-29-12s-12-19-12-29 5-23 12-30 19-12 29-12 22 5 30 12c7 7 12 19 12 30s-5 22-12 29c-8 7-18 12-30 12z m274 0c-10 0-22-5-29-12-8-7-12-19-12-29s4-23 12-30c7-7 19-12 29-12 12 0 22 5 29 12s12 19 12 30-4 22-12 29-19 12-29 12z m-137-93c-12 0-22-4-29-12-8-7-12-19-12-29s4-22 12-30c7-7 19-11 29-11 10 0 22 4 30 11 7 8 11 20 11 30s-4 22-11 29c-8 8-18 12-30 12z m137-88c-10 0-22-5-29-12-8-7-12-19-12-29s4-22 12-30c7-7 19-12 29-12 12 0 22 5 29 12s12 19 12 30-4 22-12 29-19 12-29 12z m-463-53h-189c-83 0-151-68-151-152v-325c0-59 47-106 106-106h281c59 0 106 47 106 106v324c0 85-69 153-153 153l0 0z m69-478c0-12-10-22-22-22h-281c-12 0-22 10-22 22v98h325v-98z m0 273h-325v53c0 39 31 68 67 68h189c38 0 67-31 67-68l2-53 0 0z m-255 258h183c12 0 22 4 29 12 8 7 12 19 12 29v197c0 10-4 22-12 29-7 8-19 12-29 12h-183c-10 0-22-4-29-12s-12-19-12-29v-197c0-10 5-22 12-29s19-12 29-12z"/>
</svg>
