<svg xmlns="http://www.w3.org/2000/svg" viewBox="0 0 1000 1000">
  <path transform="translate(0,850) scale(1,-1)" fill="currentColor" d="M729 0l0 0c-4-10-8-21-16-29-11-17-29-31-51-40-22-10-47-15-75-15-40 0-83 12-122 35l0 0c-49 30-97 65-144 106l0 0c-27 22-67 20-90-5l47-43 0 0c49-43 101-81 153-112l0 0c0 0 0 0 0 0 0 0 0 0 0 0l0 0c51-32 106-47 157-47 36 0 71 7 102 21 31 13 57 33 78 61 11 16 20 33 26 50l0 0 21 59c-37 12-74-6-86-41l0 0z m-516 166c-42 47-79 99-109 147l0 0c-25 40-35 83-35 122 0 28 6 53 15 75 10 22 23 39 40 52l0 0c10 7 22 13 33 17l0 0c24 8 34 12 58 20l0 0 6 1c7 0 17-6 22-18l0-1 42-112 2-1c1-3 3-8 3-11 0-4-2-7-3-10-2-3-3-4-6-7-32-21-47-31-79-52-8-4-14-13-15-22l0 0c-2-7 0-14 3-20 42-78 79-134 126-181 47-47 103-84 181-127 15-9 34-3 43 11 20 32 31 47 51 79 2 3 5 4 8 6 3 1 5 3 10 3 3 0 7 0 10-2l77-45c0 0 0 0 0 0l3-2 0 0c30-16 69-6 86 25l-54 31-82 47-3 2c-12 6-25 9-39 9-13 0-28-3-39-9-12-6-24-16-33-28-14-22-23-37-35-55-62 36-103 65-140 100-35 36-66 78-100 140 18 12 33 21 55 35 25 17 38 44 38 72 0 12-3 25-7 36l0 0-43 111 0 0c-12 37-46 62-84 62-9 0-17-1-26-4l0 0c-24-8-34-12-58-19 0 0 0 0 0 0l0 0c-17-6-33-15-50-25l0 0 0 0-1-3c-27-19-47-47-62-78-13-31-20-65-20-102 0-51 14-106 45-156l0 0c0 0 0 0 0 0 0 0 0 0 0 0l0 0c32-52 71-105 116-157l0 0c0 0 0 0 0 0 0 0 2-1 2-1l0 0c25-25 64-27 91-2l-43 47 0 0z m269 555l-1-67c82-1 163-33 225-97 65-64 96-148 97-232l66 0c0 100-40 202-116 278-75 76-172 116-271 118l0 0z m362-24c-82 82-187 132-295 149l0 0-64 4v0c-3-35 24-68 59-71l0 0c93-14 183-57 253-129 90-90 134-206 134-323l66 0h0c0 133-51 267-153 370l0 0z m-182-184c-50 50-113 75-178 78l-3-64c48-2 97-21 134-59 25-25 42-56 51-89 9-32 40-52 72-48l-10 65-6-2 6 2c-10 44-34 85-66 117z"/>
</svg>
