<svg xmlns="http://www.w3.org/2000/svg" viewBox="0 0 1000 1000">
  <path transform="translate(0,850) scale(1,-1)" fill="currentColor" d="M827 847c-15 6-33 3-45-9l-75-75-75 75c-7 8-17 12-29 12-10 0-22-4-29-12l-74-75-75 75c-7 8-18 12-28 12-10 0-22-4-29-12l-75-75-75 75c-12 12-30 15-44 9s-25-20-25-38v-918c0-16 10-31 25-38s32-3 44 9l75 75 75-75c7-8 17-12 29-12 10 0 22 4 30 12l75 75 75-75c7-8 17-12 29-12 10 0 22 4 29 12l75 75 75-75c12-12 30-15 44-9s25 20 25 38v918c-2 16-13 32-27 38l0 0z m-58-857l-34 34c-7 7-17 11-29 11-10 0-22-4-29-11l-74-76-74 76c-7 7-17 11-29 11-10 0-22-4-29-11l-74-76-75 76c-7 7-18 11-29 11-11 0-22-4-30-11l-34-34v720l34-33c8-8 18-12 30-12 10 0 22 4 29 12l75 75 75-75c7-8 18-12 30-12 10 0 22 4 29 12l72 75 75-75c7-8 18-12 29-12 11 0 22 4 30 12l34 33c-2 0-2-720-2-720z m-447 579h356v-82h-356v82z m0-178h356v-82h-356v82z m0-178h356v-82h-356v82z"/>
</svg>
