<svg xmlns="http://www.w3.org/2000/svg" viewBox="0 0 1000 1000">
  <path transform="translate(0,850) scale(1,-1)" fill="currentColor" d="M53 372l200 0c1 0 3 0 3 0l197 0c9-1 19 2 25 9 1 1 1 3 3 4 0 2 1 2 1 3 2 2 2 5 3 6 0 3 2 5 2 8 0 1 0 1 0 1 0 0 0 0 0 0l0 201c0 0 0 0 0 0l0 202c0 9-3 16-9 22-6 6-13 9-22 9h0c-240 1-434-193-434-433v0c0-8 3-16 9-22 6-7 15-10 22-10l0 0z m374 403l0-94-80 79c25 8 52 12 80 15l0 0z m-143-41l141-141 0-114-209 209c21 18 44 33 68 46l0 0z m-112-90l209-209-113 0-141 142c13 23 27 47 45 67l0 0z m-70-131l77-78-94 0c3 27 8 53 17 78z m688 153c-2 2-5 3-6 5-28 16-57 29-88 38 0 0-2 0-2 0-4 1-10 3-15 4-22 6-42 11-64 12-3 0-6 0-8 2-13 1-26 1-39 1-9 0-16-3-22-9-6-6-9-13-9-22l0-395-202-339c-8-15-4-34 12-42 66-39 143-59 219-59 238 0 434 195 434 434 0 157-85 294-210 370z m38-634c-68-67-160-109-263-109-56 0-111 14-161 37l187 321 87 143c16 29 7 67-22 85l-31-50-31-50 0 259c2 0 2 0 3 0 3 0 5 0 7 0 24-3 48-8 70-15 0 0 0 0 0 0 17-6 33-12 48-21l-26-50c-15-29-3-67 26-83l28 53 29 48c18-12 34-26 49-41 68-68 110-160 110-263 0-102-42-194-110-264l0 0z m-366 270c-6 10-16 16-28 16l-137 1-62 0c0-34 28-60 61-63l79 0-176-258c-78 65-127 158-136 259l65 0 59 0c0 34-28 61-60 64l-96 0c-9 0-16-3-22-9-6-8-9-15-9-24l0-1 0 0c0-143 71-277 188-359 8-5 15-6 24-5 7 2 15 6 20 14l228 332c8 10 8 22 2 33z"/>
</svg>
