<svg xmlns="http://www.w3.org/2000/svg" viewBox="0 0 1000 1000">
  <path transform="translate(0,850) scale(1,-1)" fill="currentColor" d="M988 497c-7 7-16 12-26 12h-218c-10 0-19-5-26-12l-56-56c-6-6-9-14-10-23-40 1-73 34-73 73v171h53v76h-438v-76h53v-171c0-41-34-73-75-75h-95v53h-77v-438h77v54h573v-29c0-10 4-19 12-27l56-56c7-7 16-11 26-11h218c10 0 19 4 26 11 8 8 12 17 12 27v471c0 8-4 19-12 26z m-338-337h-573v181h97c82 0 150 68 150 150v171h179v-171c0-82 65-148 147-150v-181z m274-122h-164l-33 34v325l33 34h165c-1 1-1-393-1-393z m-170 340h143v-59h-143v59z m0-116h143v-59h-143v59z m0-116h143v-59h-143v59z"/>
</svg>
