<svg xmlns="http://www.w3.org/2000/svg" viewBox="0 0 1000 1000">
  <path transform="translate(0,850) scale(1,-1)" fill="currentColor" d="M312 747h688v-106h-688v106z m0-344h688v-106h-688v106z m0-344h688v-106h-688v106z m-231 28c-22 0-43-9-57-24s-24-36-24-57 9-43 24-58 36-23 57-23c22 0 43 9 57 23 15 15 24 37 24 58s-9 43-24 57c-14 15-35 24-57 24z m0 344c-22 0-43-9-57-24s-24-35-24-57 9-43 24-57 36-24 57-24c22 0 43 9 57 24 15 14 24 36 24 57s-9 43-24 57c-14 15-35 24-57 24z m0 344c-22 0-43-9-57-23s-24-36-24-58 9-42 24-57 36-24 57-24c22 0 43 9 57 24 15 15 24 37 24 57s-9 43-24 58c-14 14-35 23-57 23z"/>
</svg>
