<svg xmlns="http://www.w3.org/2000/svg" viewBox="0 0 1000 1000">
  <path transform="translate(0,850) scale(1,-1)" fill="currentColor" d="M641 434l0 0 0-478h-112l-38 38-44 44c-25-25-25-65-1-90l0 0 3-2 0 0v0l0 0 45-45c6-5 15-8 24-8h157c9 0 18 3 24 10 5 6 10 15 10 23v571c-37 0-66-28-68-63z m33 376h-158c-9 0-16-3-23-8l-206-205-253 0c-9 0-18-3-24-10-6-6-10-15-10-24v-428c0-8 3-17 10-23 6-6 15-10 24-10h251l43-42 44-44c25 25 25 65 2 90l0 0-3 3 0 0-50 48c-6 6-15 9-24 9h-231v365h234c9 0 16 3 24 9l205 206h112v-184c36 0 63 28 65 62h0v154c0 9-3 18-10 24-5 5-14 8-22 8z m247-463v468h-67v-468c-45-15-79-56-79-107 0-50 34-93 79-108v-248h67v248c45 15 79 56 79 108 0 51-34 94-79 107l0 0z m-34-154c-27 0-47 20-47 47 0 26 20 47 47 47 26 0 47-21 47-47 0-25-21-47-47-47z"/>
</svg>
