<svg xmlns="http://www.w3.org/2000/svg" viewBox="0 0 1000 1000">
  <path transform="translate(0,850) scale(1,-1)" fill="currentColor" d="M741 15c-63-40-138-64-219-64-93 0-178 31-247 83-10 6-18 7-23 7-8 0-12-1-18-3-9-3-16-7-25-11-30-17-69-45-106-68-3-2-6-5-9-6 10 19 24 40 35 60 12 21 24 40 33 58 4 8 7 16 10 25 3 8 6 16 6 26 0 6-1 15-6 22-41 65-65 140-65 222 0 81 24 156 64 219 20 30 14 69-14 92l-38-52c-48-75-76-163-76-259 0-91 25-175 69-248 0-2-2-5-3-8-10-23-37-67-60-107-12-21-24-40-33-57-4-9-7-18-10-25-3-8-6-15-6-25 0-5 0-9 2-14 1-4 4-10 8-16 5-4 11-7 15-9 4-1 9-1 13-1 8 0 12 1 18 3 9 3 16 7 25 12 29 16 71 44 106 67 17 12 35 22 48 30 5 3 9 4 12 5 78-54 172-86 274-86 95 0 183 28 258 76 28 22 34 62 14 90l-52-38 0 0z m-220 831c-99 0-192-31-267-81-27-22-32-62-10-90l52 40c64 42 142 67 226 67 115 0 218-45 293-120 75-75 120-178 120-293 0-84-25-162-67-226-22-28-16-69 11-91l39 50c51 76 81 167 81 266 1 263-214 478-478 478l0 0z m-37-280l0 0c-9 25-31 43-57 43-6 0-14-2-20-3-14-6-30-13-39-16-11-3-21-9-30-15l0 0 0 0-1-1c0 0 0 0 0 0l0 0c-34-25-49-65-50-106 0-30 9-62 26-90l0 0c0 0 0 0 0 0 0 0 0 0 0 0l0 0c24-38 53-76 87-110l0 0 12-12 0 0c34-32 70-62 107-84l0 0c0 0 0 0 0 0 0 0 0 0 0 0l0 0c28-18 60-26 90-26 41 0 81 16 106 50 7 10 12 20 16 31 4 13 16 52 16 52 5 15-1 30-15 37l-79 49-3 1c-9 5-18 6-26 6-20 0-39-9-50-26-5-8-8-14-11-19-23 14-39 26-54 41-15 14-28 32-41 56 6 3 10 5 17 10 18 12 27 31 27 50 0 9-2 16-5 23l0 0-23 59 0 0z m76-313c15-7 34-3 43 10 7 11 12 21 15 28 3 6 4 11 7 15l53-32c-3-11-7-22-9-27-1-6-4-10-7-15-9-11-28-22-53-22-18 0-38 5-56 17l0 0c-32 19-66 45-96 75l-10 10c-31 31-57 65-76 98l0 0c-14 19-18 40-18 58 0 25 10 44 22 53l0 0c4 3 9 6 15 7 13 4 26 10 35 15l22-58c-6-3-10-6-16-8-7-3-15-8-25-15-9-6-15-16-15-27v0c0-6 2-10 5-16 22-41 42-72 69-98 23-25 54-46 95-68l0 0z"/>
</svg>
