<?xml version="1.0" encoding="UTF-8"?>
<svg id="Capa_1" data-name="Capa 1" xmlns="http://www.w3.org/2000/svg" viewBox="0 0 1080 1080">
  <defs>
    <style>
      .cls-1 {
        fill: #e3e829;
        stroke-width: 0px;
      }
    </style>
  </defs>
  <path class="cls-1" d="m208.31,252.83c25.88-119.25,93.77-196.66,217.07-219.31,66.41-12.2,133.14-12.39,199.98-4.41,130.12,15.53,210.1,82.2,239.34,209.59,34.5,150.28,33.3,302.3,1.25,452.96-8.54,40.14-22.73,74.97-42.53,104.25-16.95,25.07-22.41,56.18-16.08,85.77l28.16,131.54c7.03,32.82-31.16,56.2-57.2,35.02l-139.11-113.15c-20.92-17.01-47.3-25.97-74.25-24.88-43.82,1.76-87.69-1.03-131.55-8.17-119.02-19.36-191.87-88.44-221.18-204.86-19-75.45-22.38-152.32-22.49-229.58-.15-72.14,3.2-143.94,18.58-214.78"/>
</svg>