<?xml version="1.0" encoding="UTF-8"?>
<svg id="Capa_1" data-name="Capa 1" xmlns="http://www.w3.org/2000/svg" viewBox="0 0 1080 1080">
  <defs>
    <style>
      .cls-1 {
        fill: #f9fae1;
        stroke-width: 0px;
      }
    </style>
  </defs>
  <path class="cls-1" d="m156.53,295.18c16.53-7.02,33.52-13.54,50.83-17.42,202.13-45.29,405.25-41.02,608.67-12.89,34.75,4.81,68.71,14.57,101.76,27.68,93.88,37.25,133.22,97.13,133.31,202.85.06,75.19-19.78,127.94-65.39,165.07-25.22,20.53-36.46,53.72-29.65,85.52l11.65,54.43c5.85,27.33-25.94,46.8-47.63,29.16l-92.86-75.53c-18.51-15.06-42.36-21.77-66.05-18.9-73.01,8.82-147.01,8.77-220.74,10.13-20.55,0-41.12.59-61.65-.1-108.41-3.63-217.06-7.1-320.48-48.69-90.04-36.21-129.05-96.03-129.39-192.6-.39-112.17,34.13-168.97,127.62-208.71"/>
</svg>