<?xml version="1.0" encoding="UTF-8"?>
<svg id="Capa_1" data-name="Capa 1" xmlns="http://www.w3.org/2000/svg" viewBox="0 0 1080 1080">
  <defs>
    <style>
      .cls-1 {
        fill: #d5f5f8;
        stroke-width: 0px;
      }
    </style>
  </defs>
  <path class="cls-1" d="m999.31,385.46c-23.12-93.72-82.39-156.25-179.46-182.17-80.79-21.57-162.68-21.54-243.57-.52-9.49,2.46-18.67,5.29-27.53,8.47-6.46,2.32-13.52,2.48-19.99.19-7.64-2.71-15.55-5.16-23.74-7.34-80.79-21.57-162.68-21.54-243.57-.52-85.76,22.29-146.4,73.52-173.33,155.92-19.83,60.67-27.72,146.36-12.08,218.68,12.44,57.52,28.84,96.62,55.36,126.41,15.53,17.45,21.37,41.48,16.33,64.29l-20.58,93.18c-5.21,23.59,22.41,40.4,40.97,24.93l101.54-84.64c11.98-9.98,27.67-14.19,43.08-11.8,65.35,10.15,134.05,4.84,203.6-16.87,4.66-1.45,9.2-2.94,13.62-4.46,6.72-2.31,14.03-2.09,20.61.57,2.32.94,4.68,1.87,7.07,2.81,85.34,29.03,178.65,29.91,273.51.29,94.86-29.62,140.57-71.44,168.01-179.25,17.57-69.05,17.2-138.99.14-208.15"/>
</svg>