<?xml version="1.0" encoding="UTF-8"?>
<svg id="Capa_1" data-name="Capa 1" xmlns="http://www.w3.org/2000/svg" viewBox="0 0 1080 1080">
  <defs>
    <style>
      .cls-1 {
        fill: #81b1ff;
        stroke-width: 0px;
      }
    </style>
  </defs>
  <path class="cls-1" d="m953.39,273.12c-32.25-113.02-116.87-186.38-270.53-207.85-82.77-11.56-165.93-11.74-249.24-4.18-162.17,14.72-261.84,77.91-298.29,198.64-42.99,142.43-41.51,286.51-1.56,429.3,11.27,40.27,30.41,74.91,57.39,103.65,20.51,21.84,29.18,52.25,22.91,81.55l-23.33,108.99c-6.66,31.1,29.53,53.26,54.21,33.19l128.73-104.71c18.52-15.07,42.24-22.3,66-19.96,77.62,7.63,155.42,6.31,233.18-3.32,148.34-18.35,239.13-83.82,275.66-194.15,23.68-71.51,27.89-144.36,28.02-217.58.19-68.37-3.99-136.42-23.16-203.56"/>
</svg>