<svg xmlns="http://www.w3.org/2000/svg" viewBox="0 0 1000 1000">
  <path transform="translate(0,850) scale(1,-1)" fill="currentColor" d="M302 471c-21-34-34-74-34-121 0-48 13-90 36-125 23-35 53-62 87-87 25-16 61-10 78 15l-47 32c-25 19-47 39-63 61h209v0c31 1 54 26 54 57h-291c-4 15-6 29-6 46 0 28 6 50 15 70 16 37 47 66 85 96 57 42 131 79 194 128 31 23 59 51 81 85 21 34 34 74 34 121h-57c0-18-3-34-8-49h-337c-4 15-5 31-7 49h-57c0-36 7-68 20-96 19-43 50-75 86-104 23-20 48-36 73-52-22-15-44-28-65-44-32-22-60-49-80-82l0 0z m79 251c-7 7-13 15-19 24h278c-16-22-38-43-65-62-23-18-48-34-75-50-46 28-88 56-119 88z m318-493c20 34 33 74 33 121 0 46-11 85-33 119-21 34-49 60-80 85-25 18-60 12-79-13l47-34c19-16 37-32 50-50l-209 0c-31-1-56-26-56-57v0h296c4-15 7-31 7-50 0-28-6-50-15-71-16-36-47-66-85-95-57-43-131-80-194-128-31-24-59-52-81-85-21-34-34-74-34-121h58c0 19 3 37 7 51h334c4-16 7-32 7-51h57c0 35-7 68-20 96-19 42-50 75-85 104-24 19-47 35-72 52 22 14 44 27 64 44 34 23 62 50 83 83l0 0z m-80-251c6-6 12-13 18-19h-274c16 20 37 39 62 57 24 18 49 34 75 50 46-28 88-56 119-88z"/>
</svg>
