<svg xmlns="http://www.w3.org/2000/svg" viewBox="0 0 1000 1000">
  <path transform="translate(0,850) scale(1,-1)" fill="currentColor" d="M941 397l0-251c0-17-13-30-29-30h-556c-7 0-13-3-19-7l-160-137v115c0 7-3 15-9 20-6 6-14 9-21 9h-59c-16 0-29 13-29 30v132c-31 0-57-25-59-56l0-76c0-49 40-89 88-89h30v-150c0-11 7-22 17-26 11-5 22-3 31 4l200 172h546c48 0 88 40 88 89v307c-31 0-57-25-59-56l0 0z m-882 53l0 284c0 16 13 29 29 29h824c16 0 29-13 29-29v-163c31 0 58 25 59 56l0 107c0 48-40 88-88 88h-824c-48 0-88-40-88-88v-340c31 0 57 25 59 56z m393-159v266c0 8-3 15-9 21-6 6-14 9-21 9h-157c-8 0-15-3-21-9-6-6-9-13-9-21v-266h59v80h99v-80h59z m-158 138v99h99v-99c0 0-99 0-99 0z m263-148c6-6 14-9 21-9h118c38 0 69 31 69 69v177c0 38-31 69-69 69h-118c-7 0-15-3-21-9-5-6-8-13-8-21 0 0 0 0 0 0v-254c0-9 3-16 8-22z m50 247h89c6 0 10-4 10-10v-177c0-6-4-10-10-10h-89c0 1 0 197 0 197z"/>
</svg>
