<svg xmlns="http://www.w3.org/2000/svg" viewBox="0 0 1000 1000">
  <path transform="translate(0,850) scale(1,-1)" fill="currentColor" d="M235 546h59v-393h-59v393z m-117 0h59v-393h-59v393z m195 0h59v-393h-59v393z m80 0h59v-393h-59v393z m138 0h-38v-392h38 21 38v392h-38-21z m97 0h59v-393h-59v393z m104 0h59v-393h-59v393z m92 0h58v-393h-58v393z m117-447v-111h-110c-31-1-56-26-56-59h196c7 0 14 3 20 9 6 6 9 13 9 21v195c-31 0-57-25-59-55z m-772-112h-110v110c-2 31-27 56-59 56v-196c0-7 3-14 9-20 6-6 13-9 20-9h196c0 32-25 57-56 59z m-160 775c-6-5-9-12-9-19v-196c31-1 57 24 59 55v110h110c31 1 56 26 56 59h-196c-7 0-14-3-20-9z m982 1c-6 6-13 9-20 9h-196c0-31 25-57 56-59h110v-110c2-31 27-56 59-56v196c0 7-3 14-9 20z"/>
</svg>
