<svg xmlns="http://www.w3.org/2000/svg" viewBox="0 0 1000 1000">
  <path transform="translate(0,850) scale(1,-1)" fill="currentColor" d="M0 504v-308c0-68 54-122 122-122h284v85h-284c-19 0-35 16-35 35v309c0 19 16 35 35 35h284v86h-284c-68 3-122-52-122-120z m927-25v25c0 68-55 123-123 123h-211v-86h211c20 0 36-16 36-35v-309c0-19-16-35-36-35h-211v-85h211c68 0 123 54 123 122v25c42 16 73 57 73 105v46c0 47-31 88-73 104l0 0z m-427-319c-12 0-22-4-31-13-7-7-13-19-13-31s4-22 13-31c8-7 19-13 31-13s22 5 31 13c7 8 13 19 13 31s-4 22-13 31c-9 7-19 13-31 13z m0 467c-23 0-43-20-43-43v-347c0-24 20-43 43-43s43 19 43 43v347c0 23-19 43-43 43z"/>
</svg>
