<svg xmlns="http://www.w3.org/2000/svg" viewBox="0 0 1000 1000">
  <path transform="translate(0,850) scale(1,-1)" fill="currentColor" d="M500 850c-276 0-500-223-500-500 0-276 224-500 500-500 277 0 500 224 500 500 0 277-223 500-500 500z m294-794c-75-75-179-122-294-122-115 0-219 47-294 122-75 75-122 179-122 294 0 115 47 219 122 294 75 75 179 122 294 122 115 0 219-47 294-122 75-75 122-179 122-294 0-115-47-219-122-294z m-98 546l-290-139c-9-4-16-11-21-20l-138-290c-7-16-4-35 9-49 13-13 32-16 48-8l290 138c9 4 16 12 21 20l138 290c7 16 4 35-9 49-13 13-32 16-48 9z m-167-281c-7-8-19-12-29-12s-22 4-29 12c-8 7-12 19-12 29s4 22 12 29c7 8 19 12 29 12s22-4 29-12c8-7 12-19 12-29s-3-22-12-29z"/>
</svg>
