<svg xmlns="http://www.w3.org/2000/svg" viewBox="0 0 1000 1000">
  <path transform="translate(0,850) scale(1,-1)" fill="currentColor" d="M969 28l-175 176-19 20-75 75c-12 11-29 11-41 0l-62 61c31 52 47 111 47 168 0 57-15 115-45 165-3 4-6 7-9 10-21 18-49 19-71 3l33-47c23-41 35-87 35-132 0-68-27-136-78-187-52-52-119-78-187-78-68 0-135 26-187 78-51 53-76 120-76 188 0 68 26 135 78 187 51 51 119 76 187 76 47 0 92-12 133-37 0 0 2-1 2-1 25-15 57-7 75 18 0 0-46 32-47 33-50 31-106 46-163 46-83 0-167-31-230-94-62-63-94-146-94-228 0-82 31-165 94-228 63-63 146-94 228-94 57 0 116 16 168 47l62-62c-6-6-8-12-8-20 0-8 3-15 9-21l100-100c24-21 59-21 81 2l-41 41-78 78 38 38 26 26 55-54 19-19 175-175c9-9 13-21 13-33 0-11-4-23-13-32l0 0c-9-9-21-13-32-13-12 0-24 4-33 13l-73 74c-24 20-59 20-81-2l40-40 73-73c21-21 47-31 74-31 25 0 50 9 69 26 1 2 3 3 4 5 21 20 31 47 31 73 0 27-10 53-31 74l0 0z m-359 221l-17-18-56 56c4 4 9 7 13 12 4 4 7 8 12 13l56-56c1 0-8-7-8-7z m-439 430c-42-42-62-97-62-152 0-55 20-111 63-152 41-41 97-63 152-63 54 0 110 20 151 63 41 41 63 97 63 152 0 54-20 110-63 151-41 41-97 63-151 63-56 0-111-20-153-62z m308-152c0-40-14-80-45-111-31-31-71-45-110-45-40 0-80 14-111 45-31 31-45 71-45 111 0 39 14 79 45 110 31 31 71 45 111 45 39 0 79-14 110-45 29-30 45-69 45-110z"/>
</svg>
