<svg xmlns="http://www.w3.org/2000/svg" viewBox="0 0 1000 1000">
  <path transform="translate(0,850) scale(1,-1)" fill="currentColor" d="M543 515h-505c-10 0-20-5-28-12s-10-16-10-26v-168c0-10 4-21 12-28s17-12 28-12h3v-297c0-10 4-21 11-28s18-12 28-12h418c10 0 21 5 28 12s12 18 12 28v297h3c10 0 20 5 28 12s11 18 11 28v168c0 10-4 20-11 27s-19 11-28 11z m-81-505h-343v259h343v-259z m41 337h-426v91l426 0v-91z m-304-154h183v-78h-183v78z m692 573h-406c-60 0-108-48-108-109v-101h77v101c0 18 14 31 31 31h406c18 0 31-13 31-31v-616c0-17-13-31-31-31h-307v-78h307c61 0 109 49 109 109v616c0 61-48 109-109 109z m-116-667v164l43-42 54 54-109 109c-7 7-17 12-28 12s-20-5-28-12l-108-109 54-54 43 42v-164h79z"/>
</svg>
