<svg xmlns="http://www.w3.org/2000/svg" viewBox="0 0 1000 1000">
  <path transform="translate(0,850) scale(1,-1)" fill="currentColor" d="M935 234v323c0 0 0 0 0 0v52c0 53-26 100-67 128-25 16-55 26-87 26h-13v87h-77v-87h-425v87h-76v-87h-12c-32 0-62-10-87-26-41-28-67-75-67-128v-52c0 0 0 0 0 0v-511c0-86 69-155 154-155h416c38-26 85-41 135-41 137 0 248 110 248 247 1 52-15 99-42 137l0 0z m-178-278c-7-8-17-12-28-12s-20 4-27 12c-6 7-11 16-11 26s5 21 12 28c7 8 18 12 28 12s21-4 28-12c7-7 12-17 12-28s-6-19-14-26z m11 141c0-20-18-38-39-38s-38 18-38 38v134c0 21 18 38 38 38s39-17 39-38v-134z m91 210c-38 24-82 37-130 37-136 0-247-110-247-247 0-47 15-91 37-129h-341c-43 0-78 35-78 78v473h759l0-212 0 0z"/>
</svg>
