<svg xmlns="http://www.w3.org/2000/svg" viewBox="0 0 1000 1000">
  <path transform="translate(0,850) scale(1,-1)" fill="currentColor" d="M397 59h-278c-17 0-32 15-32 32v593c0 18 15 32 32 32h60v-45c0-17 14-30 30-30s29 13 29 30v45h91v-45c0-17 14-30 30-30s29 13 29 30v45h91v-45c0-17 14-30 30-30s29 13 29 30v45h91v-45c0-17 14-30 30-30s29 13 29 30v45h62c18 0 32-14 32-32v-260c2-31 28-56 59-56v316c0 50-41 91-91 91h-60v46c0 16-13 29-30 29s-29-13-29-29v-46h-91v46c0 16-13 29-30 29s-29-13-29-29v-46h-91v46c0 16-13 29-30 29s-29-13-29-29v-46h-91v46c0 16-13 29-30 29s-29-13-29-29v-46h-62c-50 0-91-41-91-91v-594c0-50 41-92 91-92h334c0 33-25 59-56 61l0 0z m330 281c-136 0-245-111-245-244 0-136 111-245 245-245 135 0 244 111 244 245 1 133-109 244-244 244z m132-377c-34-34-80-54-131-54-51 0-97 20-131 54-34 34-54 80-54 131 0 52 20 97 54 131 34 34 80 54 131 54 51 0 97-20 131-54 34-34 54-79 54-131 0-51-20-97-54-131z m-103 259h-59v-29-128h143v59h-84v98z m-527 203c-5 6-13 9-20 9s-15-3-21-9c-6-6-9-13-9-21s3-14 9-20c6-6 14-9 21-9s15 3 20 9 9 13 9 20-3 15-9 21z m0-112c-5 6-13 9-20 9s-15-3-21-9c-6-6-9-13-9-20s3-15 9-21c6-6 14-9 21-9s15 3 20 9 9 13 9 21-3 16-9 20z m-20-104c-7 0-15-3-21-9-6-6-9-13-9-21s3-14 9-20c6-6 14-9 21-9s15 3 20 9 9 13 9 20-3 15-9 21-13 9-20 9z m134 216c-6 6-14 9-21 9-7 0-15-3-20-9-6-6-9-13-9-21s3-14 9-20c5-6 13-9 20-9 7 0 15 3 21 9s9 13 9 20-5 15-9 21z m0-112c-6 6-14 9-21 9-7 0-15-3-20-9-6-6-9-13-9-20s3-15 9-21c5-6 13-9 20-9 7 0 15 3 21 9s9 13 9 21-5 16-9 20z m-21-104c-7 0-15-3-20-9-6-6-9-13-9-21s3-14 9-20c5-6 13-9 20-9 7 0 15 3 21 9s9 13 9 20-3 15-9 21-14 9-21 9z m112 225c-7 0-15-3-21-9-6-6-9-13-9-21s3-14 9-20c6-6 14-9 21-9 7 0 15 3 20 9s9 13 9 20-3 15-9 21-11 9-20 9z m0-112c-7 0-15-3-21-9-6-6-9-13-9-20s3-15 9-21c6-6 14-9 21-9 7 0 15 3 20 9s9 13 9 21-3 14-9 20-11 9-20 9z m93 103c-6-6-9-13-9-21s3-14 9-20c5-6 13-9 20-9s15 3 21 9 9 13 9 20-3 15-9 21-14 9-21 9-15-3-20-9z m113 0c-6-6-9-13-9-21s3-14 9-20c6-6 13-9 20-9 8 0 15 3 21 9s9 13 9 20-3 15-9 21-13 9-21 9c-7 0-14-3-20-9z m-461 162h515v-59h-515v59z"/>
</svg>
