<svg xmlns="http://www.w3.org/2000/svg" viewBox="0 0 1000 1000">
  <path transform="translate(0,850) scale(1,-1)" fill="currentColor" d="M59 171v326c0 10 9 19 19 19h435c0 31-25 58-56 59h-83v128c0 7-3 15-9 21s-13 8-22 8h-205c-7 0-14-3-20-8-6-6-9-14-9-21v-128h-31c-43 0-78-34-78-78v-272c2-29 28-54 59-54z m109 503h145v-99h-145c0 0 0 99 0 99z m764-56h-178c-29 0-54-19-63-46-7 3-14 5-23 5h-116c0-31 25-58 55-59h61c10 0 19-9 19-19v-471l-609-1c-10 0-19 8-19 19v29c-2 31-28 56-59 56v-85c0-43 35-78 78-78h854c37 0 68 30 68 67v515c0 38-31 68-68 68l0 0z m9-583c0-4-4-8-9-8h-186v338h98c31 1 56 28 56 59h-154v126c0 4 4 9 8 9h178c5 0 9-5 9-9 0 0 0-515 0-515z m-784 233c0-124 100-225 225-225 124 0 225 100 225 225 0 123-100 225-225 225-125-2-225-102-225-225z m342 116c29-30 48-72 48-118 0-45-19-87-48-117-30-30-72-49-118-49-46 0-87 19-118 49-29 29-48 72-48 117 0 46 19 87 48 118 30 29 72 48 118 48 47 0 88-17 118-48z m-117-231c64 0 115 51 115 115 0 63-51 114-115 114-63 0-114-51-114-114 0-64 51-115 114-115z m0 169c31 0 55-25 56-56 0-31-25-54-56-56-30 0-54 25-55 56 0 31 25 56 55 56z m-254 127c-6 5-13 8-21 8s-14-3-20-8-9-14-9-21c0-7 3-15 9-21 6-5 13-8 20-8s15 3 21 8c6 6 9 14 9 21 0 7-3 15-9 21z m-21-305c-7 0-14-3-20-9s-9-13-9-20c0-8 3-15 9-21 6-6 13-9 20-9s15 3 21 9c6 6 9 13 9 21 0 7-3 14-9 20s-12 9-21 9z"/>
</svg>
