<svg xmlns="http://www.w3.org/2000/svg" viewBox="0 0 1000 1000">
  <path transform="translate(0,850) scale(1,-1)" fill="currentColor" d="M356 366c-15 31-22 63-22 94v0c0 59 25 117 69 156 7 8 10 18 6 27-3 9-13 14-22 14-72 0-143-39-178-110l-75-148c-6-12-15-21-25-27l-97-57c-8-6-12-13-12-22 0-9 6-16 13-21l143-70c-2-6-2-12-2-20 0-33 20-67 52-83l4-2c14-6 28-10 42-10 26 0 52 12 70 32l72-35c8-3 15-3 22 0 8 4 12 10 12 19l9 84 0 1 0 3 0 2c0 9-2 16-6 23l-75 150 0 0z m628-44l-99 56c-8 6-17 13-22 24l-76 150c-37 72-109 113-184 113-31 0-63-8-93-22-72-37-113-109-113-184 0-31 7-63 22-93l77-150c4-7 6-16 6-25l0-6-14-114c-1-12 5-22 14-30s22-7 32-3l137 69c19-19 44-29 70-29 15 0 31 3 46 10l4 3c36 18 55 53 55 90 0 4-2 10-2 15l137 69c10 6 16 16 18 26 1 13-5 25-15 31l0 0z m-427-201l6 54c0 4 2 9 2 13 0 19-5 37-13 55l-77 150c-10 20-16 42-16 64 0 53 29 103 79 128 21 11 43 17 65 17 53 0 103-30 128-80l76-150c11-20 27-38 47-50l49-28c0 2-346-173-346-173z"/>
</svg>
