<svg xmlns="http://www.w3.org/2000/svg" viewBox="0 0 1000 1000">
  <path transform="translate(0,850) scale(1,-1)" fill="currentColor" d="M950 31l-103 156c-10 16-16 35-16 56v145c0 168-127 306-288 327v135h-86v-134c-163-20-288-159-288-326v-146c0-19-6-40-16-56l-103-156c-9-13-9-29-1-44 7-13 22-22 36-22h261c17-66 78-115 150-115h8c73 0 133 49 150 115h261c16 0 29 9 37 22 7 14 7 30-2 43l0 0z m-446-96h-8c-24 0-43 12-56 30h120c-13-18-32-30-56-30z m-339 115l59 91c20 31 30 66 30 103v146c0 67 28 129 73 173 44 44 105 72 173 72 68 0 129-28 174-72 44-44 72-106 72-173v-146c0-37 10-72 31-103l58-91h-670z m335 179c-12 0-22-4-29-11s-12-19-12-30 4-22 12-29 19-12 29-12c12 0 22 5 29 12s12 19 12 29-4 22-12 30-17 11-29 11z m0 305c-23 0-43-19-43-43v-185c0-24 20-43 43-43 24 0 43 19 43 43v185c0 24-19 43-43 43z"/>
</svg>
