<svg xmlns="http://www.w3.org/2000/svg" viewBox="0 0 1000 1000">
  <path transform="translate(0,850) scale(1,-1)" fill="currentColor" d="M962 466h-188l-136 352c-7 19-29 29-48 22-19-8-30-30-22-49l123-325h-382l125 325c7 19-3 41-22 49-19 7-41-3-49-22l-135-352h-190c-20 0-38-17-38-38s18-38 38-38h50l89-437c11-56 60-97 119-97h411c58 0 108 41 120 97l35 178c4 21-9 41-30 44s-41-9-44-29l-38-177c-4-21-22-35-44-35h-412c-20 0-40 14-44 35l-85 421h669l-19-93c-5-20 9-41 29-44 21-4 41 9 44 29l22 108h50c21 0 39 17 39 38s-17 38-37 38l0 0z m-675-179l76 7 25-257-76-8-25 258z m175 4h76v-257h-76v257z m150-254l25 257 76-7-25-258-76 8z"/>
</svg>
