<svg xmlns="http://www.w3.org/2000/svg" viewBox="0 0 1000 1000">
  <path transform="translate(0,850) scale(1,-1)" fill="currentColor" d="M882 38l0 0c-1 31-28 56-58 56v-185h-447v0c-31-2-56-27-56-59h591v59h-30c0 0 0 129 0 129z m-648 156h59v-237h-59v237z m118 0h58v-237h-58v237z m117 0h59v-237h-59v237z m116 0h59v-237h-59v237z m118 0h59v-237h-59v237z m150 106h-149l-125 112c20 20 31 47 31 78v20h-58v-20c0-30-24-53-53-53-30 0-53 23-53 53 0 29 23 53 53 53 7 0 14 3 20 9s9 13 9 20v106c35 12 59 44 59 84 0 48-40 88-88 88s-89-40-89-88c0-38 25-72 59-84v-81c-47-13-82-56-82-109 0-29 12-57 31-78l-125-111h-205v-59h30v-331h-30v-59h59l77 0c30 1 55 26 55 59h-102v332l645 0 0-57c2-31 27-57 59-57v114h29v59l-57 0 0 0z m-385 462c0 16 13 31 31 31 16-2 29-15 29-31 0-16-13-31-31-31-16 0-29 13-29 31z m-89-462l90 81c9-3 19-4 28-4 10 0 19 1 28 4l90-81-236 0 0 0z"/>
</svg>
