<svg xmlns="http://www.w3.org/2000/svg" viewBox="0 0 1000 1000">
  <path transform="translate(0,850) scale(1,-1)" fill="currentColor" d="M981 419c-12 12-29 21-49 21h-98v63c0 37-30 68-68 68h-107c-27-2-47-24-47-49h153c10 0 17-9 17-18v-63h-538c-25 0-47-13-59-35l-136-253v449c0 10 8 17 17 17h222l62-88c4-6 12-10 21-10h161c27 1 47 23 47 48v0h-194l-61 88c-5 6-12 11-21 11h-235c-37 0-68-30-68-68v-544c0 0 0 0 0 0 0-4 2-9 3-13 4-8 12-12 21-12h182c26 1 47 23 47 48h-187l163 302c3 6 9 10 17 10h688c6 0 10-1 13-6 3-3 6-8 6-13 0-3 0-6-3-9l-154-284h-446c-26-1-47-23-47-48h507c9 0 18 4 22 13l161 297c6 11 9 21 9 33-2 17-9 33-21 45l0 0z"/>
</svg>
