<svg xmlns="http://www.w3.org/2000/svg" viewBox="0 0 1000 1000">
  <path transform="translate(0,850) scale(1,-1)" fill="currentColor" d="M865 641h-356v109h66c7 0 16-3 22-7l77-62c23-18 57-13 76 9l-44 35-75 60c-16 14-35 19-56 19h-288c-30 0-58-13-75-36l-58-77h-36c-65 0-118-53-118-117v-71c0-65 53-118 118-118 7 0 14 3 19 8 4 4 7 11 7 19 0 28 24 51 52 51 28 0 51-23 51-51 0-8 3-15 7-19 5-5 12-8 20-8h20v-66c0-7 3-15 8-19 4-4 11-7 19-7h76v-249h-150c-66 0-120-54-120-121 0-7 2-14 7-19s12-7 19-7h149c0 29-24 53-52 54l-63 0c3 8 7 14 13 20 12 11 28 19 47 19h484c18 0 35-8 47-19 6-6 10-12 13-20h-451c0-29 23-53 51-54l433 0c7 0 14 3 19 7s7 12 7 19c0 67-54 121-121 121h-130v247h57c7 0 15 3 19 8 4 4 7 11 7 19v66h39c7 0 14 3 19 7 4 5 7 12 7 19 0 28 24 52 52 52 28 0 51-24 51-52 0-14 12-28 28-28 66 0 121 55 121 121 1 76-59 138-134 138l0 0z m-411 109v-109h-148l84 109h64z m92-707h-93l93 47v-47z m0 110l-93-49v61l93 48v-60z m0 121l-93-49v66h93v-17z m83 72h-280v38h280v-38z m298 113c-8-7-15-12-24-15-13 43-53 75-101 75-49 0-90-34-103-78h-400c-12 46-53 78-103 78-47 0-89-31-102-75-9 3-16 8-22 15-12 12-19 28-19 44v71c0 17 7 33 19 44 12 11 28 19 44 19h49c9 0 16 4 22 10l66 87c7 10 19 16 31 16h34l-90-121c-6-8-7-19-3-27 4-9 15-15 25-15h615c22 0 42-9 57-24 15-14 24-35 24-57 0-19-8-35-19-47l0 0z m-408 97h75v-54h-75v54z"/>
</svg>
