<svg xmlns="http://www.w3.org/2000/svg" viewBox="0 0 1000 1000">
  <path transform="translate(0,850) scale(1,-1)" fill="currentColor" d="M865 259h-356v109h66c7 0 16-3 22-8l77-61c23-18 57-14 76 8l-40 33-78 62c-16 13-35 19-55 19h-290c-30 0-58-14-75-37l-58-77h-35v155c0 23 19 42 43 42h263c56 0 100 45 100 100 0 56-44 100-100 100h-41c-10 42-49 73-94 73h-44c-8 0-15-3-19-8-5-4-8-12-8-19v-9h-84v-54h83v-15h-83v-54h83v-6c0-8 3-15 7-19 4-5 12-8 19-8h44c43 0 80 28 91 67h43c25 0 46-21 46-46 0-25-21-46-46-46h-260c-53 0-97-44-97-97v-164c-38-22-65-62-65-108v-70c0-58 40-105 94-115 12-47 53-81 103-81 59 0 106 47 106 106 0 59-47 106-106 106-47 0-88-31-101-75-9 3-17 7-22 15-12 11-20 27-20 44v70c0 18 8 34 20 44 11 12 28 19 44 19h48c9 0 16 5 22 11l66 87c8 10 20 16 31 16h34l-91-121c-6-9-7-19-3-28 4-9 15-15 25-15h615c22 0 42-8 57-23 15-15 24-35 24-57 0-18-8-36-19-47-8-8-15-12-24-15-13 42-53 75-101 75-49 0-90-34-103-78l-305 0c-29-2-51-25-51-55h357c12-45 53-78 103-78 50 0 91 36 103 81 54 12 96 61 96 118-2 72-62 134-137 134l0 0z m-575 378h-18v85h18c23 0 42-19 42-43 0-23-19-42-42-42l0 0z m-93-556c28 0 52-24 52-52 0-27-24-51-52-51-28 0-51 24-51 51 0 28 22 52 51 52z m257 178h-148l84 109h64c0 0 0-109 0-109z m348-281c-28 0-52 24-52 51 0 28 24 52 52 52 27 0 51-24 51-52 0-27-24-51-51-51z m-283 196h75v-55h-75v55z"/>
</svg>
