<svg xmlns="http://www.w3.org/2000/svg" viewBox="0 0 1000 1000">
  <path transform="translate(0,850) scale(1,-1)" fill="currentColor" d="M865 228h-356v109h66c7 0 16-3 22-8l77-61c23-18 57-14 76 9l-40 32-78 62c-16 13-35 19-55 19h-234c0-30 23-53 51-55l60 0v-108h-130v211l85 106c4 6 7 13 6 21l-21 172c-1 9-7 17-15 20l-94 47c-8 5-19 5-26-1-7-4-13-13-13-24v-185l-34-19-34 19v185c0 9-4 18-13 24-8 4-18 6-27 1l-88-41c-9-4-15-11-16-20l-24-178c-1-8 2-15 6-21l84-106v-61c29 0 53 23 54 51h0v21c0 5-1 11-5 17l-84 105 20 150 39 17v-159c0-10 5-19 13-23l60-35c9-5 19-5 28 0l60 35c9 4 14 13 14 23v156l41-20 17-146-83-104c-5-5-6-11-6-18v-444c0-31-25-57-58-57-31 0-57 25-57 57v344c-29 0-53-23-54-51h0v-19c-55-8-99-58-99-117v-70c0-61 46-111 104-118 14-46 56-79 108-79 62 0 112 50 112 111v170h541c22 0 42-9 57-24 15-15 24-35 24-57 0-18-8-36-19-47-8-8-15-12-24-15-13 43-53 75-101 75-49 0-90-34-103-78l-305 0c-29-1-51-25-51-55h357c12-45 53-77 103-77 50 0 91 35 103 80 54 12 96 61 96 118-2 72-62 134-137 134l0 0z m-765-199c-10 3-19 9-26 17-12 11-20 28-20 44v70c0 18 8 34 20 44 7 8 16 14 26 17v-192z m702-82c-28 0-52 24-52 51 0 29 24 52 52 52 27 0 51-23 51-52 0-27-24-51-51-51z m-283 196h75v-55h-75v55z m-282-170c7 8 10 17 10 25s-4 20-10 26c-8 7-16 10-25 10-10 0-19-5-25-10-8-8-10-17-10-26s4-19 10-25c7-7 16-10 25-10 9-1 19 3 25 10z"/>
</svg>
