<svg xmlns="http://www.w3.org/2000/svg" viewBox="0 0 1000 1000">
  <path transform="translate(0,850) scale(1,-1)" fill="currentColor" d="M254 271c-11 0-23-5-30-14s-14-19-14-30 5-24 14-31 19-14 30-14 24 5 31 14 14 19 14 31-5 23-14 30-19 14-31 14z m368 108c-12 0-23-4-31-13s-13-19-13-31 4-23 13-31 19-13 31-13 24 5 31 13 13 20 13 31-4 24-13 31-19 13-31 13z m-410-361l559 164 28-95c7-24 30-37 54-30 24 8 37 31 29 55l-28 95 3 2c12 3 21 12 27 20 6 11 7 23 3 34l-63 212c-17 53-58 91-106 106l-128 191c-31 46-83 72-136 72-14 0-30-1-45-7l13-43-13 43-252-72c-67-21-116-83-116-155l-4-231c-24-27-37-63-37-101 0-15 2-29 6-46l63-211c3-12 12-21 21-27 10-6 22-7 34-3l3 2 27-96c8-24 31-37 55-29 23 7 37 30 29 54 3 0-26 96-26 96z m-83 591c0 32 23 62 53 70l253 75c8 2 15 3 21 3 25 0 48-11 62-33l97-146-488-144 2 175z m12-521l-50 171c-1 6-3 13-3 19 0 31 19 59 50 68l516 153c8 1 14 3 21 3 31 0 59-20 68-50l50-170-3-1h0c0 0 0 0 0 0l-649-193 0 0z m858-182c-22 65-84 113-156 113-71 0-131-44-155-106-10-28 9-59 40-59h231c26 0 48 27 40 52z"/>
</svg>
