<svg xmlns="http://www.w3.org/2000/svg" viewBox="0 0 1000 1000">
  <path transform="translate(0,850) scale(1,-1)" fill="currentColor" d="M531 547l0 0c-2 34-29 60-63 60v-89c-30 25-68 39-111 39v-63c31 0 58-12 78-32 21-21 33-47 33-78v-40c0-31-12-57-33-78-20-20-47-32-78-32v-63c42 0 80 14 111 39v-47h0c1-34 29-60 61-60v107c30-25 68-39 111-39v63c-31 0-58 12-78 32-21 21-33 47-33 78v40c0 31 12 57 33 78 20 20 47 32 78 32v62c-41 0-80-15-111-40 2 0 2 31 2 31z m393-57c7 19 11 39 11 62 0 79-53 145-126 166-18 76-87 132-168 132-47 0-91-19-122-50-7-7-13-15-19-23-6 8-12 16-19 23-31 31-75 50-122 50-81 0-149-56-168-132-73-21-126-87-126-166 0-23 4-43 12-62-33-31-53-75-53-125 0-6 0-12 1-19 0-2 0-3 2-6 0-5 1-9 1-13 0-2 1-5 1-6 2-5 2-8 3-12 0-2 2-5 3-6 2-3 3-7 5-10 1-2 1-5 3-6 1-3 3-6 6-10 1-2 3-5 3-6 1-3 4-6 5-9 0 0 2-2 3-3 2-2 3-3 5-5-12-23-19-50-19-79 0-85 61-156 142-169 8-88 81-156 171-156 59 0 110 29 141 73 31-44 82-73 141-73 90 0 163 68 172 156 81 15 143 85 143 169 0 28-7 56-19 79 1 2 3 3 4 5 2 1 3 3 5 6 1 3 4 6 6 9 1 1 2 4 2 5 2 3 3 6 6 11 2 1 2 4 3 6 2 3 3 7 5 10 1 1 1 4 3 6 1 4 3 7 3 12 0 1 1 4 1 5 2 5 2 9 2 14 0 1 0 3 1 6 0 5 1 11 1 19-2 47-23 91-55 122l0 0z m-12-144c0-2 0-2 0-3-2-6-3-12-6-18 0-1-2-1-2-3-2-6-5-10-8-16 0-2-2-2-2-3-3-4-7-9-12-13-1-2-1-2-3-3-19-19-45-31-76-31-31 0-57 12-78 32-21 21-32 47-32 78h-64c0-95 77-172 173-172 29 0 55 8 80 21 5-12 8-25 8-38 0-31-12-58-33-78-20-21-47-33-78-33h0c0 0 0 0-1 0-37 0-71 19-90 49l-51-36c25-36 65-63 110-72-3-23-15-45-31-61-20-21-47-33-78-33-31 0-57 12-78 33-20 20-32 47-32 78v5h0c-1 34-29 61-62 61v-66c0-31-12-58-32-78-21-21-47-33-78-33-31 0-57 12-78 33-16 16-26 38-31 61 46 9 85 36 110 72l-48 34c-19-29-53-48-90-48 0 0 0 0-1 0h0c-31 0-58 12-78 32-21 21-33 47-33 78 0 13 3 27 8 38 23-13 51-20 81-20 95 0 172 76 172 172h-64c0-31-11-58-32-78-20-21-47-33-78-33-29 0-56 12-76 31-2 2-2 2-3 3-5 5-8 9-12 14 0 1-1 1-1 2-3 5-6 11-9 17 0 1-2 1-2 3-3 5-4 11-6 17 0 2 0 2 0 3-1 8-1 13-1 21 0 37 19 70 47 89 13 9 18 28 9 42-9 16-15 35-15 54 0 43 25 79 60 99 2-21 8-43 22-65 15-21 36-40 65-59l34 53c-16 10-28 21-37 28-12 13-16 23-19 35 0 13 0 30 0 49 6 54 53 98 109 98 60 0 109-48 109-110v-3h0c1-34 29-60 61-60l0 63h0c0 60 49 109 109 109 56 0 103-43 109-97 0-41-23-77-59-96l30-56c42 24 75 64 86 112 39-18 65-54 65-100 0-21-6-38-15-54-8-15-4-33 9-42 28-20 47-52 47-89 3-6 3-13 2-19l0 0z"/>
</svg>
