<svg xmlns="http://www.w3.org/2000/svg" viewBox="0 0 1000 1000">
  <path transform="translate(0,850) scale(1,-1)" fill="currentColor" d="M894 372l-470 469c-6 6-14 9-21 9h-275c-12 0-24-7-28-19-4-10-1-24 6-32l194-195 0 0c24-22 60-20 84 2l-41 41-143 143h190l439-440-148-148 0 0v0l-2-2 0 0c-22-23-20-60 2-84l41 41 2 2 170 170c6 6 9 14 9 23s-4 14-9 20z m-319-276l-1-2c0 0 0 0 0 0v0l-184-184h-188l417 418c6 6 9 13 9 22s-3 16-9 22l-170 169v0c0 0 0 0 0 0l-2 2 0 0c-23 22-60 20-84-2l41-41 150-150-448-449c-9-8-12-22-6-32s16-19 28-19h275c7 0 16 3 22 9l193 194c38 38-2 85-2 85l-41-42z"/>
</svg>
