<svg xmlns="http://www.w3.org/2000/svg" viewBox="0 0 1000 1000">
  <path transform="translate(0,850) scale(1,-1)" fill="currentColor" d="M500 850c-276 0-500-223-500-500 0-276 224-500 500-500 277 0 500 224 500 500 0 277-223 500-500 500z m294-794c-75-75-179-122-294-122-115 0-219 47-294 122-75 75-122 179-122 294 0 115 47 219 122 294 75 75 179 122 294 122 115 0 219-47 294-122 75-75 122-179 122-294 0-115-47-219-122-294z m-122 373h-343c-17 0-32-10-39-26s-3-34 9-46l172-170c7-8 19-12 29-12 12 0 22 4 29 12l173 172c11 12 16 31 8 45s-22 25-38 25z"/>
</svg>
