<svg xmlns="http://www.w3.org/2000/svg" viewBox="0 0 1000 1000">
  <path transform="translate(0,850) scale(1,-1)" fill="currentColor" d="M281 360l-87-64 0 33c0 11-4 20-10 27-7 7-16 10-27 10h-54c-16 2-29 13-29 30v235c0 15 13 28 29 28h394c16 0 28-13 28-28v-63h74v63c0 56-46 103-103 103h-393c-56 0-103-46-103-103v-235c0-56 46-103 103-103h16l0-71c0-13 8-26 21-32 12-6 28-5 38 3l137 100h42v73h-54c-9 2-16-1-22-6l0 0z m616 155h-393c-55 0-102-46-102-103v-235c0-56 45-103 102-103h181l122-101c12-8 27-10 40-4 13 6 21 19 21 34l0 71h29c56 0 103 45 103 103v235c0 57-46 103-103 103l0 0z m30-337c0-16-14-28-28-28h-68c-10 0-19-4-27-10s-10-18-10-28l0-30-72 59c-7 6-15 9-23 9h-195c-16 0-27 13-27 28v235c0 16 13 28 27 28h393c16 0 28-13 28-28l2-235 0 0z"/>
</svg>
