<svg xmlns="http://www.w3.org/2000/svg" viewBox="0 0 1000 1000">
  <path transform="translate(0,850) scale(1,-1)" fill="currentColor" d="M922 718c-48 53-118 85-193 85-73 0-141-25-191-72-14-13-26-29-38-47-12 18-23 34-38 47-50 47-118 72-191 72-75 1-144-32-193-85-49-52-78-124-78-203 0-78 32-152 78-222 68-105 168-202 249-272 82-71 147-117 148-118 15-10 34-10 49 0 1 1 117 81 233 196 59 57 118 123 164 194 45 70 78 145 78 222 1 79-28 151-77 203l0 0z m-70-380c-62-94-156-186-234-254-40-34-75-62-100-81-6-5-12-9-16-13-43 31-134 101-221 189-53 53-103 112-140 171-37 59-57 116-57 165 0 57 22 109 56 145 34 37 81 59 131 59 53 0 100-19 132-50 32-31 53-75 54-132 0-12 5-22 12-30s19-11 30-11c11 0 22 4 29 11s12 20 12 30c0 57 20 101 54 132 33 31 80 50 133 50 50 0 97-22 130-59 34-36 56-88 56-145 3-52-22-115-61-177l0 0z"/>
</svg>
