<svg xmlns="http://www.w3.org/2000/svg" viewBox="0 0 1000 1000">
  <path transform="translate(0,850) scale(1,-1)" fill="currentColor" d="M604 228c-30-7-69-15-104-15-37 0-81 9-115 16-16 5-31 9-41 12-4 2-9 3-12 5l-3 1-1 0-18-47c0 0 25-9 62-18 35-8 82-19 127-19 44 0 89 9 123 19 34 9 57 18 57 20l-17 45-2 0c-3-3-26-10-56-19l0 0z m58 131l0 0c-6-2-28-10-59-19-31-8-69-15-104-15-37 0-81 9-115 16-16 5-31 9-41 12-5 1-9 3-12 4l-3 2-1 0-18-47c0 0 25-9 62-18 35-9 82-19 126-19 44 0 90 9 124 19 33 9 57 18 57 19l-16 46 0 0z m-162 75c-37 0-81 9-115 16-16 4-31 9-41 12-4 1-9 3-12 4l-3 2-1 0-18-47c0 0 25-9 62-18 35-9 82-19 127-19 44 0 89 9 123 19 34 9 57 18 57 19l-17 44-2 0c-4-1-28-10-57-17-29-8-68-15-103-15l0 0z m482 175c-5 18-13 32-22 44-4 6-10 12-17 16-8 5-16 8-25 8-25 0-47-9-64-23-25-19-38-45-47-67-3-9-5-16-7-22-12-2-28-5-48-5-8 0-14 0-21 2-6 0-12 1-19 1-9 0-19-4-27-10-10-7-16-18-19-29 6-2 12-3 18-5 4-1 9-1 13-3 6-1 12-3 16-4 12-3 25-3 37-3 16 0 31 1 43 3v-330c-11-10-34-30-71-51-50-28-125-57-222-57-6 0-12 0-18 0-28 3-51-18-54-46l43-3c1 0 3-1 6-1 7 0 14 0 23 0 109 0 194 32 250 64 46 27 74 53 84 62 29 12 56 29 76 52 34 36 56 82 69 130 15 49 21 100 21 149 0 51-6 94-18 128l0 0z m-66-302c-12-26-26-50-44-69-9-10-19-17-29-25v328c1 6 7 28 17 47 6 11 15 21 24 28 9 8 19 11 32 11l3-2c3-3 8-9 10-16 6-12 11-31 15-52 3-20 6-45 6-72 0-58-10-125-34-178l0 0z m-676-151c-13 10-24 19-31 25-2 1-2 1-3 3v329c12-1 26-3 43-3 23 0 51 3 79 12 28 9 57 24 82 47 25 22 44 34 58 40 10 4 19 6 31 6 4 0 10 0 14-2 6-1 12-3 18-6 18-7 34-19 47-30 4-5 9-9 15-12 17-12 42-11 59 4 2 3 7 6 8 10l-39 28c-27 25-52 40-71 47-10 5-21 8-32 9-24 3-47 0-69-9-21-8-45-23-72-48-20-18-42-29-64-35-22-8-44-9-64-9-18 0-34 1-45 4-1 0-1 0-2 0-3 12-9 28-18 44-9 17-21 33-37 44-16 14-38 23-63 23-9 0-18-3-25-8-13-7-21-17-28-31-10-19-18-41-22-67-6-25-9-56-9-87 0-63 10-134 37-196 13-31 31-60 53-84 20-22 47-41 76-51 16-16 77-72 181-104 3-2 6-2 9-2 0 0 0 0 0 0 0 0 0 0 1 0 24 0 45 15 50 37 0 0-48 13-48 13-53 16-93 40-119 59z m-84 57c-10 8-21 15-29 25-27 28-46 68-59 112-14 44-18 91-18 134 0 44 6 84 15 110 4 13 10 24 13 28 1 3 3 3 4 5l0 0c14 0 24-5 33-12 13-11 25-30 32-46 3-9 6-16 7-20 0-3 2-5 2-6 0-2 0-330 0-330z"/>
</svg>
