<svg xmlns="http://www.w3.org/2000/svg" viewBox="0 0 1000 1000">
  <path transform="translate(0,850) scale(1,-1)" fill="currentColor" d="M775 131l-18-63-38-131 0-2c-1-10-10-16-20-16-9 0-18 6-21 15l-78 275 0 0c-13 43-53 72-98 72-20 0-39-3-55-10-25-11-43-31-54-52-12-20-19-44-25-67l-69-233c-9 0-18 7-20 16l0 2-91 313c-3 12-4 25-4 38l0 24c-2 37-32 65-69 65v-89c0-19 3-36 7-54l0 0 91-313 0 0c9-40 46-70 87-70h2c27 0 52 18 61 45l0 0 71 238 0 0c7 29 16 51 25 63 4 6 9 9 15 12 5 3 14 4 26 4 15 0 28-10 32-23l78-275 0 0c12-39 46-64 86-64 41 0 78 30 86 70l0 0 37 129c12 34-9 71-44 81l0 0z m125 522c-4 51-26 99-60 135-40 41-94 62-149 62-28 0-57-6-84-18-14-5-28-11-39-16-6-3-11-4-14-6l-2-1c-17-3-34-6-52-6-18 0-35 3-53 7-1 0-3 2-4 2-11 4-30 12-49 20-28 12-56 18-85 18-59 0-118-25-157-73-28-34-48-77-52-124l0 0c0-7-1-13-1-21 0-7 0-14 1-22l10-125 0 0c5-35 34-61 69-61l-1 67 0 0-10 125c0 5 0 11 0 15 0 4 0 9 0 15l0 0c3 32 16 61 35 85 26 31 65 48 104 48 20 0 40-4 58-11 13-6 28-12 38-16 6-3 10-5 13-6l5-2 1 0 2 0c0 0 1 0 3-1 23-6 47-9 72-9 23 0 48 3 72 9 3 0 3 1 3 1l3 2c7 3 32 13 55 23 20 8 39 12 58 12 37 0 72-13 97-41 23-25 40-58 42-94 0-5 0-9 0-15 0-4 0-10 0-15l-14-154c0-8-2-15-2-21l0-154c0-13-1-25-4-38l-7-28c-9-36 11-74 47-84l17 63 9 31 0 0c4 18 7 37 7 54l0 155c0 4 0 10 0 14l15 155c0 7 2 15 2 22 1 9 1 16 1 22l0 0z m-251-103v-75h-75v-69h75v-75h69v75h75v69h-75v75h-69z m-149 109c-57 0-115 18-156 53l-44-53c56-46 128-68 200-68 72 0 144 22 200 68l-44 53c-41-35-99-53-156-53l0 0z"/>
</svg>
