<svg xmlns="http://www.w3.org/2000/svg" viewBox="0 0 1000 1000">
  <path transform="translate(0,850) scale(1,-1)" fill="currentColor" d="M321 304h358v-54h-358v54z m0-144h358v-54h-358v54z m0 289h358v-55h-358v55z m308 401h-425c-47 0-86-38-86-87v-273c1-28 25-52 54-52v325c0 18 15 33 32 33h387v-150c0-47 38-87 87-87h150v-624c0-17-15-32-32-32h-97c-28 0-52-24-52-53h149c47 0 86 38 86 87v662l-253 251z m49-237c-18 0-32 15-32 33v111l144-144c0 0-112 0-112 0z m-143-709h-331c-17 0-32 15-32 33v391c-1 29-25 51-54 51h0v-444c0-47 38-87 86-87h334c28 2 52 25 52 55h-55l0 1z"/>
</svg>
