<svg xmlns="http://www.w3.org/2000/svg" viewBox="0 0 1000 1000">
  <path transform="translate(0,850) scale(1,-1)" fill="currentColor" d="M422 481c7 0 15 3 21 9 6 6 9 13 9 20 0 8-3 15-9 21s-14 9-21 9-15-3-20-9-9-13-9-21c0-7 3-14 9-20 5-6 13-9 20-9z m156 0c7 0 15 3 21 9 5 6 8 13 8 20 0 8-3 15-8 21s-14 9-21 9-15-3-21-9-8-13-8-21c0-7 3-14 8-20 6-6 14-9 21-9z m-296-32l0 0 0 0 0 0z m652-483c-12 93-74 171-162 203l-137 50v68c49 38 80 95 83 162l0 0 1 36 3 65-29 2 29-2c0 3 0 6 0 9 0 18-3 35-6 53-3 13-16 22-29 22-8 0-15 0-21 0-38 0-75 4-109 16-19 7-42 22-60 38-19 18-32 39-37 55-1 7-7 14-14 19-8 4-17 4-24 1-84-31-144-111-144-204 0-3 0-6 0-9l4-101c0-6 0-12 2-18l0 0c0 0 0 0 0 0 0 0 0 0 0 0l0 0c7-57 37-109 81-143v-67l-137-50c-88-33-150-111-162-203l-13-109 57-9 14 109c5 53 35 100 78 131l-31-233 57-7 37 271 45 16-33-280 57-7 28 237c37-31 85-49 137-49 51 0 100 19 136 49l30-237 57 7-34 280 46-16 38-271 57 7-30 233c42-31 70-78 78-131l13-109 57 7-13 109 0 0z m-591 472l0 0c0 5-2 9-2 14l0 0-4 101c0 3 0 4 0 7 0 59 32 111 79 139 11-20 25-36 40-52 23-22 53-41 79-51l0 0c42-15 84-19 127-19 0-6 1-11 1-17 0-3 0-4 0-7l-3-65-1-36 0 0c-3-86-74-153-159-153-81 0-148 60-157 139l0 0z m157-341c-51 0-97 25-126 63l30 12c12 5 20 15 20 28v54c23-8 50-13 76-13 27 0 53 5 77 15v-56c0-12 7-23 19-28l31-12c-30-38-75-63-127-63z m-290 94c31 0 56 25 58 56h0v313c0 64 26 122 67 164 44 42 102 67 165 67 63 0 122-26 165-67 42-43 67-100 67-164v-313h0c2-31 27-56 58-56v368c0 79-33 153-86 204-51 55-123 87-204 87-159 0-290-131-290-290v-313h0v-56z"/>
</svg>
