<svg xmlns="http://www.w3.org/2000/svg" viewBox="0 0 1000 1000">
  <path transform="translate(0,850) scale(1,-1)" fill="currentColor" d="M432 607c8 0 15 3 20 9 5 6 8 12 8 19s-3 15-8 19c-6 6-12 9-20 9-7 0-14-3-19-9s-9-11-9-19 3-14 9-19c5-6 12-9 19-9z m136 0c7 0 14 3 19 9 6 6 9 12 9 19s-3 15-9 19-12 9-19 9c-8 0-15-3-19-9-6-5-9-11-9-19s3-14 9-19c4-6 11-9 19-9z m63-445l34 44c-24 18-58 15-77-9l0 0-10-13h-157l-9 13 0 0c-19 24-53 28-77 10l34-45 106-144c6-8 13-12 22-12 9 0 18 4 22 10l112 146 0 0 0 0z m-134-81l-35 48h73l-38-48z m71-27h135v-56h-135v56z m-339 146l56 16c-10 30-41 46-70 37l0 0c-88-26-150-107-150-200v-203h56v88l81-32v-56h55v203h-55v-87l-81 32v55c-2 68 44 128 108 147z m558 53l-146 43c-7 1-12 8-12 16v88c15 18 24 40 30 63 23 28 38 65 38 105v85c0 109-88 197-197 197-109 0-197-88-197-197v-85c0-40 15-77 38-105 6-23 16-44 30-63v-88c0-8-5-13-12-16l-46-14 3-10c8-23 34-37 58-31 30 9 51 37 51 69v43c22-12 47-18 74-18h0c26 0 51 6 73 18v-43c0-32 21-60 52-69l145-42c65-20 109-78 109-146v-51l-81-33v84h-56v-203h56v59l81 32v-91h56v203c3 93-59 175-147 200l0 0z m-287 541c40 0 74-16 100-41 18-18 31-40 37-66-9 7-15 13-19 19-6 7-9 12-12 16-2 2-2 3-2 5l0 0 0 0c-4 11-16 19-27 17-9-1-18-1-27-1-19 0-38 3-54 7-21 6-39 16-53 29 16 11 35 15 57 15l0 0z m-141-141c0 37 13 69 37 94 23-23 51-41 82-50 24-7 47-10 71-10 4 0 8 0 13 0 3-6 7-12 13-18 13-16 35-35 66-53v-20c-12-6-26-11-41-11-6 0-12 0-18 2-11 3-26 9-44 15-13 4-28 7-42 7-15 0-30-3-43-7-18-6-32-14-44-15-6-2-12-2-18-2-10 0-22 3-32 6 0 3 0 62 0 62z m265-143c-14-8-27-14-39-17-13-3-23-3-28-3l-1 0 0 0-3-56c0 0 3 0 6 0 6 0 16 0 28 3-19-27-50-43-85-43h0c-36 0-67 18-86 43 12-2 22-3 28-3 3 0 5 0 6 0l-3 56 0 0-1 0c-5 0-15 0-28 3-12 3-27 9-39 17-4 8-8 15-11 24 9-2 17-3 26-3 10 0 19 1 30 3 20 4 36 12 51 18 7 2 16 4 25 4 9 0 16-2 25-4 15-5 31-14 52-18 10-2 19-3 29-3 12 0 23 1 35 4-9-8-12-16-17-25l0 0z"/>
</svg>
