<svg xmlns="http://www.w3.org/2000/svg" viewBox="0 0 1000 1000">
  <path transform="translate(0,850) scale(1,-1)" fill="currentColor" d="M256 628c0 7-3 15-7 19-5 5-12 7-20 7s-14-2-19-7-7-12-7-19c0-7 3-15 7-19 5-5 12-7 19-7 8 0 15 2 20 7 4 6 7 12 7 19z m262-343c1 8 1 15-3 21l-36 62 31 54h71c7 0 15 3 19 7s7 12 7 20v91c-29 0-53-22-54-52l0-13h-60c-11 0-19-4-24-13l-47-81c-4-9-4-19 0-27l30-51-52-29-29 51c-5 9-14 13-24 13h-90c-10 0-19-6-23-13l-30-51-51 29 29 51c5 9 5 20 0 27l-47 81c-4 9-13 13-23 13h-58v60h61c10 0 19 5 23 14l47 80c5 9 5 20 0 27l-29 51 51 30 30-52c4-8 13-13 23-13h90c10 0 19 6 24 13l29 52 51-30-29-51c-4-9-4-19 0-27l47-80c5-9 13-14 24-14l35 0c28 2 51 25 51 55h-70l-31 54 34 60c7 14 3 30-11 37l-98 56c-6 3-13 5-21 3-7-1-13-6-16-13l-35-62h-59l-35 62c-3 6-9 10-16 13-8 2-15 2-21-3l-99-56c-13-7-17-23-10-37l35-61-30-55-71 0c-7 0-15-3-19-7s-9-12-9-19v-113c0-8 3-15 7-20s12-7 20-7h70l31-54-34-62c-3-6-4-13-3-21 2-7 6-13 13-16l99-56c13-7 29-3 37 11l35 61h59l35-61c8-14 24-18 37-11l98 56c6 3 11 9 14 16l0 0z m-214 128c52 0 93 41 93 93 0 51-41 93-93 93-51 0-92-42-92-93 0-52 41-93 92-93z m0 130c21 0 39-18 39-39 0-20-18-38-39-38-20 0-38 18-38 38 0 23 18 39 38 39z m689-333c-5 5-12 8-19 8h-56l-22 39 28 49c3 6 4 13 3 21-2 7-6 13-14 16l-81 45c-13 8-29 3-36-10l-28-49h-43l-28 49c-7 13-23 18-37 10l-81-45c-5-3-10-9-13-16-1-8-1-15 3-21l28-49-22-39h-56c-7 0-15-3-19-8-4-4-7-11-7-19v-92c0-8 3-15 7-20s12-7 19-7h56l22-40-28-48c-7-13-3-30 10-37l81-46c6-3 14-4 21-3 7 2 13 6 16 14l28 48h43l28-48c3-6 8-11 16-14 7-1 15-1 20 3l81 46c14 7 18 24 11 37l-28 48 22 40h56c0 30-22 53-52 55l-19 0c-10 0-19-5-24-14l-38-66c-4-9-4-19 0-26l22-39-34-19-22 39c-4 8-13 13-23 13h-74c-10 0-19-6-23-13l-22-39-34 19 22 39c4 8 4 19 0 26l-38 66c-5 9-13 14-24 14h-44v38h44c11 0 19 4 24 13l38 66c4 9 4 19 0 27l-22 38 34 19 22-38c4-9 13-13 23-13h74c10 0 19 5 23 13l22 38 34-19-22-38c-4-9-4-19 0-27l38-66c5-9 14-13 24-13h44c3-27 25-49 53-49v75c0 8-3 15-7 19l0 0z m-246 27c-51 0-93-41-93-93 0-51 42-92 93-92 52 0 93 41 93 92-2 52-43 93-93 93z m0-130c-20 0-38 18-38 39 0 20 18 38 38 38 21 0 38-18 38-38 0-21-17-39-38-39z"/>
</svg>
