<svg xmlns="http://www.w3.org/2000/svg" viewBox="0 0 1000 1000">
  <path transform="translate(0,850) scale(1,-1)" fill="currentColor" d="M97 434l249 59c8 1 16 7 22 16l132 218 78-128v0c0 0 0 0 0 0l1-3c21-30 62-40 93-21l-35 59-108 176c-5 11-17 17-29 17s-23-6-29-17l-155-254-289-68c-12-3-21-11-25-23s-2-24 7-33l194-225-19-231-6-64c37-3 69 23 74 59l20 245c2 9-3 18-9 25 0-1-166 193-166 193z m902 31c-5 12-14 20-25 23l-222 53c-36 6-71-16-80-51l66-16 165-39-166-195c-6-8-9-16-9-25l21-255-236 99c-9 3-17 3-26 0l-158-66 0 0-2-2c-33-16-49-54-34-88l63 26 144 61 275-115c10-4 24-3 34 4 10 8 15 19 15 31l-25 297 194 225c7 9 9 22 6 33l0 0z"/>
</svg>
