<svg xmlns="http://www.w3.org/2000/svg" viewBox="0 0 1000 1000">
  <path transform="translate(0,850) scale(1,-1)" fill="currentColor" d="M557 149v-220l-114 50v170c0 5-2 13-6 17l-138 208c-21 26-59 33-87 14l35-53 131-197v-179c0-13 7-24 19-30l178-78c10-4 21-3 31 3 9 6 15 17 15 27v207c-2 34-30 61-64 61z m406 580c-16 23-38 39-67 53-44 21-102 39-168 50-68 12-146 18-228 18-125 0-240-15-325-41-41-12-76-28-104-47-14-9-25-19-34-33-9-13-15-27-15-45 0-16 6-32 15-46 7-10 17-20 28-29l98-149c21-26 59-33 87-14l-35 53-40 58c12-3 25-7 38-10 2 0 3-1 5-1 11-3 23-6 35-8 3 0 6-1 7-1 3 0 8-2 11-2 3 0 7-1 11-1 11-2 21-3 31-5 6-1 14-1 19-2 11-2 22-3 33-3 7 0 13-2 20-2 12-1 24-1 36-1 7 0 13-2 20-2 19 0 37-1 56-1 15 0 28 0 43 0 4 0 7 0 12 0 10 0 20 1 30 1 5 0 8 0 12 0 13 2 25 2 38 3 0 0 2 0 2 0 13 2 25 3 37 5 4 0 7 1 11 1 9 1 17 3 25 3 5 0 8 1 12 1 10 2 21 3 31 6 2 0 2 0 3 0 0 0 0 0 0 0 10 3 22 5 32 8 3 1 6 1 9 3 8 1 15 4 21 5 1 0 4 2 6 2l-208-313-1-3c-18-30-9-68 19-86l34 50 270 408c11 9 21 17 28 28 9 13 15 28 15 45 0 15-6 31-15 44l0 0z m-53-54c-3-6-11-13-23-21-2-1-5-2-6-4-3-1-7-4-10-6-6-3-12-6-19-9 0 0 0 0-2 0-4-1-10-4-16-6-2 0-2-1-3-1-9-3-18-6-28-9 0 0-1 0-1 0-11-3-21-6-31-9-2 0-3-1-5-1-10-3-22-5-34-7-1 0-3 0-4-2-7-1-16-3-24-4-8-2-17-3-26-5-6-1-13-1-21-3-10-1-20-1-30-3-6 0-14-1-20-1-11-2-25-2-36-3-5 0-11 0-15-2-18 0-37-1-56-1-13 0-26 0-40 0-4 0-8 0-13 0-9 0-19 1-28 1-4 0-9 0-12 0-11 2-25 2-36 3 0 0 0 0-2 0-12 2-25 3-37 5-3 0-7 1-10 1-9 2-18 3-25 3-3 0-7 2-10 2-10 1-19 3-30 6-1 0-3 0-3 0 0 0 0 0 0 0-10 1-19 4-27 5-3 2-8 2-11 3-6 2-12 3-17 5-3 1-6 1-9 3-8 1-13 4-19 6-2 0-3 1-5 1 0 0-1 0-1 0-8 3-13 6-19 7-3 2-5 2-6 3-5 2-8 5-12 6-1 2-4 3-6 3-4 3-7 5-10 8-2 0-2 1-3 1 0 0 0 0 0 0-9 6-15 12-18 16-3 5-3 8-3 9 0 2 0 4 3 9 5 18 19 29 41 41 36 18 87 32 150 44 64 10 137 18 217 18 120 0 229-15 305-38 39-12 68-25 87-39 9-6 15-13 18-17 3-5 3-8 3-9 1-2 1-5-2-9l0 0z"/>
</svg>
