<svg xmlns="http://www.w3.org/2000/svg" viewBox="0 0 1000 1000">
  <path transform="translate(0,850) scale(1,-1)" fill="currentColor" d="M816 838h-97v-85h97c55 0 99-44 99-99v-108h85v108c0 102-82 184-184 184z m-731-184c0 55 44 99 99 99h118v85h-118c-102 0-184-82-184-184v-111h85v111z m0-608v108h-85v-108c0-102 82-184 184-184h118v85h-118c-55 0-99 44-99 99z m830 0c0-55-44-99-99-99h-97v-85h97c102 0 184 82 184 184v108h-85c0 0 0-108 0-108z m-338 313v195h-86v-194l-9-10h-54v-85h54c52 0 95 42 95 94z m113 176h85v-114h-85v114z m-465 0h85v-114h-85v114z m275-375c-56 0-107 19-148 53l-55-66c55-45 125-72 203-72 77 0 147 27 203 72l-54 66c-42-32-93-53-149-53l0 0z"/>
</svg>
