<svg xmlns="http://www.w3.org/2000/svg" viewBox="0 0 1000 1000">
  <path transform="translate(0,850) scale(1,-1)" fill="currentColor" d="M294 162c-10 0-19-5-26-10-8-8-11-17-11-27s5-19 11-26c7-8 16-11 26-11s19 5 27 11c7 7 10 16 10 26s-4 19-10 27c-8 5-18 10-27 10z m418-2c-10 0-19-4-27-10-7-7-10-16-10-26s4-20 10-27c8-7 17-10 27-10s19 4 26 10c8 7 11 16 11 27s-5 19-11 26c-7 6-16 10-26 10z m-10 250c-11 31-40 52-73 52h-254c-32 0-62-21-73-52l0 0-53-138c-3-9-2-19 3-26s14-12 23-12h454c9 0 18 4 24 12 6 7 6 17 3 26l-54 138c0 0 0 0 0 0z m-386-119l38 100 0 2c3 9 11 14 20 14h254c9 0 18-5 19-14l0-2 40-98c1-2-371-2-371-2z m47-139h280v-56h-280v56z m-97 541l-45-33v0l-189-129c-7-6-11-13-11-24v-629h56v615l176 122c24 17 31 53 13 78z m702-162l-449 315c-10 7-22 7-32 0l-137-94c-23-18-31-53-13-78l44 30 122 84 421-294 0-276c1-30 26-53 55-53v342c0 11-4 20-11 24l0 0z m-44-402v-250h55l0 198c-1 27-26 52-55 52l0 0z m-87 167l-72 188c-13 35-49 59-87 59h-350c-38 0-74-24-87-59l-72-188-29 29-40-40 52-51v-243c0-7 2-15 8-20 3-3 5-5 8-6v-39c0-42 35-78 78-78 42 0 78 36 78 78v36h361v-36c0-42 36-78 78-78 43 0 78 36 78 78v39c3 1 6 3 8 6 5 5 8 13 8 20v243l52 51-41 40-31-29 0 0z m-571-368c0-12-9-21-20-21-12 0-21 9-21 21v35h43c-2-1-2-35-2-35z m516 0c0-12-8-21-20-21-12 0-21 9-21 21v35h43c-2-1-2-35-2-35z m17 91h-592v221l87 225c6 14 19 23 34 23h350c15 0 28-9 34-23l87-224c0-1 0-222 0-222z"/>
</svg>
