<svg xmlns="http://www.w3.org/2000/svg" viewBox="0 0 1000 1000">
  <path transform="translate(0,850) scale(1,-1)" fill="currentColor" d="M549 500v169c0 38-31 69-70 69h-235c-38 0-69-31-69-69v-167c0-39 31-70 69-70h235c39 0 70 31 70 68z m-59 0c0-6-5-10-11-10h-235c-6 0-10 4-10 10v169c0 6 4 10 10 10h235c6 0 11-4 11-10v-169z m432 110v-128h-82c-38 0-69-30-69-69v-84c0-7 3-14 8-20 6-6 12-9 20-9v-63c0-15-12-27-27-27-15 0-26 12-26 27v306c0 57-47 104-105 104h-13v91c0 62-50 112-112 112h-306c-61 0-111-50-111-112l0-313c1-31 26-56 58-56v369c0 30 24 53 53 53h306c30 0 53-23 53-53v-664h-412l0 200c-1 30-26 55-58 55v-255h-50c-8 0-15-3-21-9s-9-13-9-21v-165c0-7 3-14 9-20 6-6 13-9 21-9h438c0 31-25 57-56 59l-353 0v106h566l0-106h-125c0-31 27-58 58-59l97 0c7 0 14 3 20 9 6 6 9 13 9 20v165c0 8-3 15-9 21s-13 9-20 9h-46v516h13c25 0 46-21 46-46v-306c0-47 38-85 85-85 47 0 85 38 85 85v64h93c7 0 15 2 21 8 6 6 8 14 8 21v279l-57 0 0 0z m0-251h-91v54c0 6 4 11 10 11h83l-2-65 0 0z m-512 0h92v-59h-92v59z m-103-12c-5 7-14 10-23 10s-18-4-24-10c0 0-14-19-31-43-7-11-16-25-22-38-3-6-5-13-8-20-2-8-5-15-5-22 0-49 40-89 88-89 49 0 89 40 89 89 0 8-2 16-5 22-4 11-9 23-16 35-16 34-43 66-43 66z m-23-151c-16 0-30 13-30 29 0 0 0 3 2 6 1 6 6 15 12 23 4 9 10 18 16 25 3-2 4-7 7-10 6-10 12-20 16-29 2-5 3-9 5-11l1-2 0-2 0 0c0-16-13-29-29-29l0 0z"/>
</svg>
