<svg xmlns="http://www.w3.org/2000/svg" viewBox="0 0 1000 1000">
  <path transform="translate(0,850) scale(1,-1)" fill="currentColor" d="M977 438l-162 281c-33 55-90 87-153 87h-324c-63 0-120-34-151-88l-163-280c-17-28-24-57-24-88 0-31 7-60 24-88l161-281c31-55 90-88 152-88h325c63 0 120 33 151 88l162 281c16 26 24 57 24 88 1 31-6 60-22 88l0 0z m-74-134l-162-280c-16-28-47-46-79-46h-324c-32 0-63 18-79 46l-162 280c-9 15-12 30-12 46 0 16 5 31 12 46l162 281c16 27 47 45 79 45h324c32 0 63-18 79-45l162-281c9-15 12-30 12-46 1-16-3-31-12-46z m-435 6l-91 92-59-59 122-122c7-8 19-12 29-12 12 0 22 4 30 12l236 236-58 59-209-206 0 0z"/>
</svg>
