<svg xmlns="http://www.w3.org/2000/svg" viewBox="0 0 1000 1000">
  <path transform="translate(0,850) scale(1,-1)" fill="currentColor" d="M500 850c-276 0-500-223-500-500 0-276 224-500 500-500 277 0 500 224 500 500 0 277-223 500-500 500z m141-891c-44-16-91-25-141-25-50 0-97 9-141 25v70c0 78 63 142 141 142 78 0 141-64 141-142 0 0 0-70 0-70z m153 97c-20-21-44-40-69-54v27c0 125-101 225-225 225-125 0-225-101-225-225v-27c-25 16-48 33-69 54-75 75-122 179-122 294 0 115 47 219 122 294 75 75 179 122 294 122 115 0 219-47 294-122 75-75 122-179 122-294 0-115-47-219-122-294z m-294 518c-73 0-134-61-134-134 0-74 61-134 134-134 74 0 134 60 134 134 0 73-60 134-134 134z m0-183c-28 0-50 22-50 50 0 28 22 50 50 50 28 0 50-22 50-50 0-28-22-50-50-50z"/>
</svg>
