<svg xmlns="http://www.w3.org/2000/svg" viewBox="0 0 1000 1000">
  <path transform="translate(0,850) scale(1,-1)" fill="currentColor" d="M927 777l0 0 0 0 0 0z m0 0c-49 48-114 73-177 73-63 0-128-25-176-73l-109-109-47-47c25-25 64-25 91-3l3 3 109 108c35 36 82 55 131 55 47 0 94-18 129-55 35-35 54-82 54-130 0-47-17-95-54-130l-210-209c-36-35-83-54-131-54-16 0-34 3-50 7-18 5-37 12-50 24-16 13-31 26-46 40-1 1-12-18-12-20-3-7-4-14-4-22 0-14 4-31 15-42 10-14 28-22 44-30 17-7 35-13 54-17 16-3 34-5 50-5 63 0 128 25 177 74l209 210c48 49 73 113 73 177 0 63-25 126-73 175l0 0z m-292-292l0 0 0 0 0 0z m-153-411l-104-105c-35-35-82-54-129-54l0 0h0c-47 0-95 17-130 54 0 0 0 0 0 0l0 0c-35 35-54 83-54 130v0c0 47 17 94 54 129l210 210c36 36 83 55 130 55h0c47 0 94-18 129-55l0 0c9-9 16-19 24-29l-46-46 0 0c-4-4-10-7-14-9-5 11-12 20-20 28l0 0c-20 21-47 31-73 31h0c-27 0-53-10-74-31l0 0-208-210 0 0c-21-20-31-47-31-73v0c0-27 10-53 31-74l0 0c0 0 0 0 0 0 20-21 47-31 73-31h0c27 0 53 10 74 31l0 0 58 59 47 47c-25 25-64 25-91 3l-60-60c-7-8-16-11-26-12-11 0-20 3-27 10-7 7-10 16-10 27 0 10 3 19 12 26l0 0 205 210c5 5 11 8 15 9 5-10 12-19 19-28l0 0c0 0 0 0 0 0 21-20 47-31 74-31h0c26 0 53 11 73 31l0 0 211 212 0 0c20 21 30 47 30 74v0c0 26-10 52-30 73l0 0c-21 21-47 31-74 31h0c-26 0-53-10-73-31l0 0-43-43-44-44c25-25 64-25 91-3l3 3c0 0 0 0 0 0v0l41 41c7 8 16 11 27 12 10 0 19-3 26-10 7-7 10-16 10-27 0-10-3-19-11-26l0 0-118-118c-7 11-16 19-25 30-49 48-113 73-177 73h0c-63 0-128-25-176-73l-207-215c-49-48-74-112-74-176v0c0-64 25-128 74-177 0 0 0 0 0 0 48-49 111-74 176-74h0l0 0c63 0 128 25 177 74l101 102 1 3 45 44c-25 25-65 26-92 3l0 0z"/>
</svg>
