<svg xmlns="http://www.w3.org/2000/svg" viewBox="0 0 1000 1000">
  <path transform="translate(0,850) scale(1,-1)" fill="currentColor" d="M238 522h-188c-10 0-21-4-28-12-7-7-12-17-12-28v-235c42 0 75 32 77 74l0 44v81h110l0-514h-107v271c-41 0-75-32-77-74l0-36v-200c0-11 5-21 12-28 7-8 18-12 28-12h188c11 0 21 4 28 12 8 7 12 17 12 28v591c0 10-4 20-12 28-10 6-20 10-31 10z m-94 324c-38 0-75-15-101-43-28-26-43-63-43-101 0-39 15-75 43-102l0 0 0 0c0 0 0 0 0 0l0 0c26-28 63-43 103-43 38 0 75 15 101 43 28 27 43 63 43 103 0 38-15 75-43 101-28 27-65 42-103 42z m47-192c-14-14-28-19-47-19-20 0-34 6-47 19l-28-27 28 27c-15 15-19 28-19 48 0 20 6 33 19 47 15 14 28 19 47 19 19 0 33-6 47-19 15-15 19-28 19-47 0-20-6-33-19-48l0 0z m731-433v-77c41 0 75 33 77 74l0 20v30c0 50-14 98-39 139-25 42-60 75-104 99-44 23-94 35-147 35-55 0-106-12-155-37-11-5-22-11-32-19-41 33-95 47-159 47-10 0-20-4-28-11-7-8-11-18-11-28v-602c0-10 4-20 11-28 8-7 18-12 28-12h189c10 0 20 5 27 12 8 8 12 18 12 28v381c9 6 18 10 27 15 13 6 26 9 45 9 14 0 24-2 31-6 8-3 13-8 19-13 12-15 19-31 19-56v-328c0-11 5-21 12-28 8-8 18-12 28-12h190c10 0 20 4 28 12 7 7 12 17 12 28v191c-42 0-75-37-77-77l0-69v-6h-112v289c0 39-11 76-36 106l0 0c-14 14-30 27-49 35-19 7-40 12-60 12-27 0-52-5-75-15-21-9-41-21-59-34-10-7-15-19-15-31v-362h-110v521c35-4 60-16 76-31 3-3 8-7 12-13 13-16 37-19 55-6 14 12 30 22 47 31 36 19 76 28 119 28 42 0 78-9 110-27 32-17 56-41 75-70 18-30 26-62 26-100l-7-44 0 0z"/>
</svg>
