<svg xmlns="http://www.w3.org/2000/svg" viewBox="0 0 1000 1000">
  <path transform="translate(0,850) scale(1,-1)" fill="currentColor" d="M991 838c-9 9-22 12-34 6l-191-82v0c0 0 0 0 0 0l-3-2c-3-1-4-3-6-4-23-16-33-47-22-75l53 23c0 0 0 0 0 0l122 53-185-425c-1-3-1-4-1-7-8-28 7-57 35-71l23 53 0 0 215 497c6 12 3 25-6 34z m-309-604l-25-56h0l-78-174-27 367c0 0 0 0 0 0 0 1 0 1 0 3 0 1 0 1 0 3 0 1 0 1-2 2 0 2 0 2-1 3 0 2-2 2-2 3 0 2-1 2-1 3 0 2-2 2-2 2 0 0-1 1-1 1-2 0-2 2-3 2-2 0-2 1-3 1-2 0-2 2-3 2-2 0-2 1-3 1-2 0-2 0-3 0-1 0-1 0-3 0 0 0 0 0 0 0l-369 28 487 213v0c0 0 0 0 0 0l3 2c3 1 4 3 6 4 23 16 33 47 22 75l-53-23c0 0 0 0 0 0l-603-262c-14-6-21-19-18-32 3-14 13-24 28-25l465-36 35-460c1-13 12-25 25-28s28 4 32 18l127 283v0l1 3c2 3 2 5 2 8 9 28-6 57-33 69l0 0z"/>
</svg>
