<svg xmlns="http://www.w3.org/2000/svg" viewBox="0 0 1000 1000">
  <path transform="translate(0,850) scale(1,-1)" fill="currentColor" d="M894 775l0 0 0 0 0 0z m106-107c0 59-47 107-106 107l-1 0c-59 0-108-47-108-107l-1-150c-10 3-21 6-32 6-28 0-56-11-78-30l-3-3-171-185-169 185-3 3c-22 19-50 30-78 30-10 0-22-3-32-6l-2 150c0 59-48 107-107 107l-2 0c-60 0-107-48-107-107l0-2 0 0 3-432c0-35 16-69 43-93l247-216 57 65-248 216c-9 7-14 18-14 28l-1 434v0c0 11 9 22 20 22l0 0 0 0c12 0 22-9 22-21l3-250 2 0c0-4-2-7-2-12 0-26 11-54 30-76l0 0 104-115 65 58-103 114c-6 6-7 14-7 21 0 9 3 18 10 23 4 3 12 6 19 6 7 0 13-3 19-7l188-206v-171h87v171l188 206c6 4 14 7 20 7 7 0 14-3 20-7 7-6 10-15 10-24 0-7-3-14-7-20l-103-115 65-57 104 114 0 0c19 23 30 50 30 77 0 4-2 7-2 12l2 0 3 248c0 12 10 22 22 21l0 0 0 0c11 0 22-10 20-22v0l-3-433c0-10-4-20-13-28l-250-214 57-65 247 216c27 24 43 58 43 93l3 434 0 0 0 0 0 0z m-894 107l0 0 0 0 0 0z"/>
</svg>
