<svg xmlns="http://www.w3.org/2000/svg" viewBox="0 0 1000 1000">
  <path transform="translate(0,850) scale(1,-1)" fill="currentColor" d="M974 349c-6 5-12 10-20 13 3 9 6 19 6 29 0 21-7 41-23 58-16 16-37 23-58 23-20 0-41-7-57-23l-26-25c-3 4-6 8-11 11-16 17-36 24-57 24-21 0-41-7-57-24l-62-61 0 0-44-45c25-25 64-25 91-1l0 0 3 3c0 0 0 0 0 0v0l60 60c3 3 8 5 12 5 4 0 7-2 12-5 3-3 4-7 4-12 0-4-1-7-4-11l-103-103c0 0 0 0 0 0-6 6-15 10-24 10h-398c-9 0-18-3-24-10l-191-193 46-45 182 182h343c-5-10-11-19-20-28-16-16-36-25-60-25h-175v-66h360c9 0 18 3 24 10l124 124 77 78c3 2 8 4 12 4 5 0 8-2 12-4 3-3 4-8 4-12 0-5-1-8-4-12l-226-225-198-46-232-10c-9 0-16-4-22-10l-57-58-62 62 0 0c-27 24-66 24-91-1l44-44 85-86c6-6 15-10 24-10s17 3 23 10l72 72 224 11 6 1 209 49c5 1 11 4 16 9l231 230c16 17 23 37 23 58 0 22-7 42-23 59l0 0z m-84 30l-109-108-115-115h-44l16 16 149 149 81 81c3 2 7 4 11 4 5 0 8-2 12-4 3-3 5-8 5-12-2-3-3-8-6-11l0 0z m-511-64c148 0 268 119 268 267 0 149-120 268-268 268-148 0-267-119-267-268 0-147 119-267 267-267z m-142 410c37 37 87 59 142 59 56 0 106-22 143-59 37-37 59-87 59-143 0-55-22-105-59-142-37-37-87-59-143-59-55 0-105 22-142 59-37 37-59 87-59 142 0 56 22 106 59 143z m150-212c-5-1-9-1-13-1-8 0-15 3-24 7-7 5-16 12-22 22l-54-38c10-16 25-29 41-40 9-6 19-10 29-13v-23h68v26c16 6 29 15 41 28 12 13 22 32 22 53 0 13-4 28-12 40-10 14-23 25-36 30-14 6-25 9-37 11-13 1-25 4-31 7-3 2-5 3-6 3l-1 3 0 3c0 3 1 9 2 9 3 3 6 6 11 7 4 2 10 3 16 3 9 0 16-1 23-6 8-4 14-9 17-15l57 33c-10 17-25 31-43 40-7 2-13 5-20 8v31h-66v-31c-3-1-6-1-9-3-13-5-27-14-36-26-13-15-17-32-17-52 0-7 1-14 3-22 3-11 10-23 19-30 13-12 26-18 40-21 11-3 23-4 32-6 7-1 15-3 21-6 5-3 7-4 8-6 2-3 2-3 2-4 0-2-2-6-6-10-6-5-13-9-19-11l0 0z"/>
</svg>
