<svg xmlns="http://www.w3.org/2000/svg" viewBox="0 0 1000 1000">
  <path transform="translate(0,850) scale(1,-1)" fill="currentColor" d="M946 585v-51c29 0 53 23 54 51v147c0 9-4 18-12 22-7 5-16 6-25 3l-142-50-36-11c-33 29-78 48-128 48-48 0-92-17-128-48l-177 61c-2 0-2 0-3 0-2 0-3 0-3 2-2 0-2 0-3 0-2 0-2 0-3 0-2 0-3 0-3-2-2 0-2 0-3 0l-316-108c-11-5-18-15-18-27v-400c29 0 53 24 54 52v329l261 90v-597l-261-90v181c-29 0-52-24-54-52v-167c0-9 4-18 12-22 7-5 16-6 25-3l306 106 306-106 0 0c5-2 11-2 17 0l315 109c10 4 18 14 18 26v419c-30 0-53-23-55-51v-349l-260-90v256c22 22 82 83 123 156l0 0 8 15 1 1c11 24 19 43 25 61 6 17 9 36 9 54l0 0c0 38-12 74-29 103 4 0 10 0 14 1l0 0 111 39 0-108 0 0z m-315-579l-260 90v598l123-42c-17-30-28-64-28-100 0-37 12-74 30-108 25-51 61-97 91-132 19-22 35-38 45-49-1 0-1-257-1-257z m159 506c-5-15-12-31-21-53l-7-13c-24-40-55-78-80-106-8-11-17-19-25-27-16 16-41 43-64 75-19 25-39 55-52 83-13 28-22 57-22 81 0 38 16 72 41 98 25 25 61 41 99 41 38 0 72-16 98-41 25-25 42-60 42-98-3-15-5-25-9-40l0 0z m-133 120c-45 0-82-36-82-82 0-46 37-82 82-82 46 0 83 36 83 82 0 46-37 82-83 82z m0-108c-14 0-28 11-28 28 0 14 12 27 28 27 15 0 28-11 28-27 0-17-11-28-28-28z"/>
</svg>
