<svg xmlns="http://www.w3.org/2000/svg" viewBox="0 0 1000 1000">
  <path transform="translate(0,850) scale(1,-1)" fill="currentColor" d="M763 850h-503v0c0 0 0-1 0-1-7 1-14 1-22 1-78 0-141-63-141-141v-103l0-53v-84c0-9 3-17 9-23 6-6 15-9 23-9h184v-272c36 0 64 28 65 62v482c0 28-9 54-22 76h404c21 0 40-8 53-22 14-13 22-32 22-53v-219c36 0 64 28 65 62v157c2 78-60 140-137 140z m-448-348h-152l0 51 0 53v103c0 20 9 40 22 53 14 13 33 22 53 22 21 0 40-9 53-22 13-13 22-33 22-53l2-207 0 0z m522-117v-425l-206 206c-6 6-15 9-24 9-8 0-17-3-23-9l-206-206v162c-35 0-63-28-65-62v-176c0-13 8-25 21-30 12-4 26-3 35 8l238 238 239-238c8-9 23-12 35-8 12 5 21 18 21 30v565c-34 0-64-28-65-64l0 0z m-284 108h212v-65h-212v65z m-109 120h321v-64h-321v64z m109-241h212v-66h-212v66z m-51 110c-6 6-15 9-24 9-9 0-18-3-24-9-5-5-8-14-8-23s3-18 8-24c6-6 15-8 24-8 9 0 18 2 24 8s8 15 8 24-3 18-8 23z m-23-110c-8 0-17-3-23-9-6-6-9-14-9-23s3-18 9-24c6-6 15-9 23-9 9 0 18 3 24 9s9 15 9 24-3 17-9 23-16 9-24 9z"/>
</svg>
