<svg xmlns="http://www.w3.org/2000/svg" viewBox="0 0 1000 1000">
  <path transform="translate(0,850) scale(1,-1)" fill="currentColor" d="M437 497c29 18 40 55 25 85l0 0-152 264-56-33 152-261 31-55z m-63-94c29 18 39 54 25 85l0 0-206 358-56-33 204-354 33-56 0 0z m605 410l-55 33-320-553c-10 6-22 10-33 14l294 511-55 32-307-532c-1 0-1 0-3 0-15 0-28-2-41-5l287 500-56 33-306-533-307 533-56-33 320-556c-47-42-76-104-76-172 0-131 106-235 235-235 129 0 234 104 234 234 0 68-30 129-77 172l322 557z m-310-729c0-47-19-90-50-121-31-31-73-50-120-50-47 0-90 19-121 50-31 31-50 74-50 121 0 47 19 90 50 120 31 31 74 50 121 50 47 0 89-19 120-50 31-30 50-73 50-120z m-116 95c0 12-6 23-18 28-10 6-23 5-32-1l-87-59 36-53 36 25v-73h-56v-65h153v65h-33v133l1 0z"/>
</svg>
