<svg xmlns="http://www.w3.org/2000/svg" viewBox="0 0 1000 1000">
  <path transform="translate(0,850) scale(1,-1)" fill="currentColor" d="M552 532v50h16c7 0 14 3 20 9 6 6 9 13 9 21v112c0 7-3 14-9 20-6 6-13 9-20 9h-333c-7 0-14-3-20-9-6-4-9-12-9-20v-112c0-8 3-15 9-21 6-6 13-9 20-9h15v-48c-53-28-90-82-90-147v-63c31 0 58 25 59 55h0v8c0 45 30 85 71 100 12 4 19 15 19 28v67h184v-69c0-11 7-23 19-28 41-14 70-53 70-100v-298c0-13-11-25-25-25h-220v0c-31-2-56-27-56-59h278c45 0 84 37 84 84v300c-2 63-37 119-91 145l0 0z m-14 109h-273v53h273v-53z m387-44h-176c-42 0-75-34-75-75v-441c0-41 33-75 75-75h176c41 0 75 34 75 75v228h0c-1 31-26 56-59 56v-284c0-9-7-16-16-16h-176c-9 0-17 7-17 16v441c0 9 8 16 17 16h176c9 0 16-7 16-16v-63h0c2-31 27-56 59-56v119c0 41-34 75-75 75z m-134-448c-7 0-14-3-20-9-6-6-9-13-9-21s3-15 9-20c6-6 13-9 20-9 8 0 15 3 21 9s9 13 9 20-3 15-9 21-13 9-21 9z m90 0c-7 0-15-3-21-9s-8-13-8-21 2-15 8-20 14-9 21-9c7 0 15 3 21 9 5 5 8 13 8 20s-3 15-8 21c-6 6-14 9-21 9z m-69 80c-6 6-13 9-21 9-7 0-14-3-20-9-6-5-9-13-9-20s3-15 9-21c6-6 13-9 20-9 8 0 15 3 21 9s9 14 9 21-3 15-9 20z m90 0c-6 6-14 9-21 9-7 0-15-3-21-9s-8-13-8-20 2-15 8-21 14-9 21-9c7 0 15 3 21 9 5 6 8 14 8 21s-3 15-8 20z m-90 90c-6 6-13 9-21 9-7 0-14-3-20-9-6-6-9-13-9-20s3-15 9-21c6-6 13-9 20-9 8 0 15 3 21 9s9 13 9 21-3 14-9 20z m90 0c-6 6-14 9-21 9-7 0-15-3-21-9s-8-13-8-20 2-15 8-21 14-9 21-9c7 0 15 3 21 9 5 6 8 13 8 21s-3 14-8 20z m-90 90c-6 6-13 9-21 9-7 0-14-3-20-9-6-6-9-13-9-21s3-14 9-20c6-6 13-9 20-9 8 0 15 3 21 9s9 13 9 20-3 15-9 21z m90 0c-6 6-14 9-21 9-7 0-15-3-21-9s-8-13-8-21 2-14 8-20 14-9 21-9c7 0 15 3 21 9 5 6 8 13 8 20s-3 15-8 21z m-90 90c-6 5-13 8-21 8-7 0-14-3-20-8-6-6-9-14-9-21s3-15 9-21c6-5 13-8 20-8 8 0 15 3 21 8s9 14 9 21-3 15-9 21z m90 0c-6 5-14 8-21 8-7 0-15-3-21-8s-8-14-8-21 2-15 8-21 14-8 21-8c7 0 15 3 21 8 5 6 8 14 8 21s-3 15-8 21z m-511-275c0 28-10 55-29 76-2 2-3 3-3 4-22 23-52 34-81 34-29 0-59-11-81-34l-163-160c-22-23-34-53-34-82 0-28 10-56 29-77 2-1 3-3 3-4 22-22 52-34 81-34 30 0 59 12 81 34l160 160c27 22 37 53 37 83z m-235-202c-12-12-25-16-40-16-14 0-29 6-39 16l0 0c-12 12-18 25-18 40 0 15 6 29 16 40l56 55 79-79c2 0-54-56-54-56z m160 160l-63-63-79 80 63 63c12 12 25 16 40 16 14 0 29-6 39-16 0 0 0 0 0 0 12-12 16-25 16-40 0-13-4-28-16-40z"/>
</svg>
