<svg xmlns="http://www.w3.org/2000/svg" viewBox="0 0 1000 1000">
  <path transform="translate(0,850) scale(1,-1)" fill="currentColor" d="M577-53v118l-86 85c-47 9-89 32-123 65-33 32-56 75-65 123l-72 72h-12v-28c0-161 121-292 277-313v-122h-121v-79h321v76l-3 3-116 0 0 0z m155 188c74 58 122 147 122 247v28h-79v-28c0-66-26-125-69-167-9-9-19-16-28-24l-43 43c49 32 81 87 81 148v290c-1 99-81 178-179 178-99 0-178-79-178-178v-165l-263 265-56-56 320-320v0l190-190h0l52-52 63-63h0l239-241 56 56c0 0-228 229-228 229z m-157 158l-135 135v244c0 55 44 97 98 99 55 0 97-44 99-99v-290c-2-39-27-75-62-89z"/>
</svg>
