<svg xmlns="http://www.w3.org/2000/svg" viewBox="0 0 1000 1000">
  <path transform="translate(0,850) scale(1,-1)" fill="currentColor" d="M646 496l0 0c-40 39-93 60-146 60-53 0-104-21-146-60-39-40-60-93-60-146 0-53 21-104 60-146 40-39 93-60 146-60 53 0 104 21 146 60 39 40 60 93 60 146-2 53-21 104-60 146l0 0 0 0z m-55-237c-25-25-57-38-91-38-32 0-66 11-91 38-25 25-38 57-38 91 0 32 11 66 38 91 25 25 57 38 91 38 32 0 66-11 91-38l0 0c25-25 38-57 38-91-1-32-13-66-38-91z m321 129c-19 199-177 355-374 374v88h-76v-88c-199-19-355-175-374-374h-88v-76h88c19-199 175-355 374-374v-88h76v88c197 19 355 175 374 374h88v76c0 0-88 0-88 0z m-174-276c-61-60-145-99-238-99-93 0-176 39-238 99-60 62-99 145-99 238 0 93 39 177 99 238 62 61 145 99 238 99 93 0 177-38 238-99 61-61 99-145 99-238 0-93-38-176-99-238z"/>
</svg>
