<svg xmlns="http://www.w3.org/2000/svg" viewBox="0 0 1000 1000">
  <path transform="translate(0,850) scale(1,-1)" fill="currentColor" d="M991 312c2 1 3 3 5 6 8 13 6 29-6 39-37 28-84 46-134 46-16 0-32-1-47-4l-15 41c2 0 3 0 6 0 24 0 46 9 60 23 6 6 11 14 11 21v95c0 9-3 17-11 23-16 14-36 23-60 23-23 0-46-9-62-25l-16 46c-4 13-19 20-32 17l-112-22 10-56 28 6 59 12 15-41-84 6c-6 0-13-2-18-5l-111-75h-65l-16 25c-6 9-15 14-24 14h-97c0-31 24-55 54-56v0h28l17-25c5-9 14-14 23-14h59v-23h-279c-18 0-31 13-31 31 0 17 13 31 31 31h66c0 31-24 54-55 56v0h-11c-49 0-89-40-89-89 0-34 19-63 47-78-8-6-17-13-25-20l-50 13c-14 4-31-4-35-19l-25-88c-2-8-2-17 3-24 4-7 12-12 19-13l99-16c0-5-2-9-2-14 0-77 63-141 141-141 68 0 124 47 139 111l80-14c8-1 15-1 23-1 26 0 51 7 73 20l15 11c0 0 0 0 0 0 1 1 3 3 4 4 0 0 0 0 2 2 1 1 3 4 4 6 0 0 0 0 0 1 0 1 2 3 2 4 0 2 0 2 0 3 0 0 0 0 0 0 1 8 2 15 2 22 0 46-30 87-76 100-9 3-18 3-26 3-37 0-70-19-89-50l-47 12c6 7 13 19 21 30 9 11 16 22 16 23 6 9 6 18 3 27h73c2 0 3 0 5 0 0 0 1 0 1 0l102 19 35-9-15-24 2-3 0 0c-15-26-6-60 20-75l28 46 33 51 60 30 3-9c-72-37-122-112-122-199l0-1 0 0c0-15 13-26 28-26 10 0 19 0 29 0 9 0 18 0 27 0 13-65 70-114 138-114 78 0 141 64 141 141 0 36-13 68-34 92 12 14 21 28 31 41l0 0z m-485-59c4 0 7 0 12-1 14-3 25-14 31-27l-70 18c6 7 17 10 27 10z m-307 81c22 10 45 16 67 16 28 0 55-6 77-18-6-8-14-19-18-25-19 9-40 15-63 15-8 0-16-1-27-3-6-1-11-3-17-6l-40 11c7 3 13 5 21 10l0 0z m123-215c-15-15-37-25-60-25-24 0-44 9-60 25-15 15-25 37-25 60 0 2 0 3 0 5l55-9c2-6 5-12 8-15 6-6 13-8 20-8 8 0 15 2 21 8 1 2 3 5 4 8l56-9c-1-16-9-30-19-40z m74 87l-331 54 9 31 322-85 0 0z m272 203l-68 18c-4 1-9 1-13 0l-75-15v31l98 64 99-7 22-62-63-29 0 0z m186-63c28 0 55-8 77-19-4-6-9-14-13-20 0 0 0 0-2 0-1 2-3 2-4 2-2 1-5 1-6 3-2 0-4 1-6 1-1 0-4 2-6 2-3 0-4 1-7 1-2 0-5 2-6 2-3 0-6 1-9 1-1 0-3 0-4 0-5 0-9 0-14 0 0 0 0 0 0 0-7 0-13 0-19-1l-8 23c8 3 19 5 27 5z m-55 219c4 0 8-2 13-3v-65c-5-1-9-3-13-3-20 0-36 16-36 35 0 21 15 36 36 36z m-34-275c-3-3-6-6-9-8 0 0-2-1-2-1-2-3-5-6-7-9 0 0-1-1-1-1-3-3-6-8-8-11 0 0 0 0 0 0-3-3-4-7-7-11 0 0 0 0 0 0-2-5-4-8-6-12 0 0 0 0 0 0-1-5-3-9-4-13 0 0 0 0 0 0-2-5-3-9-3-14 0 0 0 0 0 0 0 0 0 0 0 0-8 0-16 0-24 0 6 34 22 65 46 89 10 10 22 19 35 26l9-23c-2-2-3-2-5-3 0 0-1 0-1-2-3-1-6-4-9-7-3 0-4 0-4 0l0 0z m150-171c-15-15-37-25-61-25-23 0-44 9-60 25-15 15-25 37-25 60 0 2 0 3 0 3 0 17 6 31 15 45 1 2 4 4 6 7 1 1 3 4 4 6 2 1 5 3 6 6l37-102 53 19-37 102c0 0 0 0 0 0 6 0 10 0 16-2 2 0 3-1 6-1 3-2 6-2 9-3 1-2 4-2 6-3 3-2 4-3 7-4 2-2 5-3 6-5 3-3 7-4 10-7 15-15 25-37 25-61 2-23-9-44-23-60l0 0z"/>
</svg>
