<svg xmlns="http://www.w3.org/2000/svg" viewBox="0 0 1000 1000">
  <path transform="translate(0,850) scale(1,-1)" fill="currentColor" d="M765 749c-72 66-168 101-265 101-15 0-31-1-46-3-177-20-323-162-348-338-3-19-4-38-4-56 0-7 0-16 0-24 1-26 23-47 50-47l2 0c27 2 48 24 48 50l0 3 0 18c0 15 1 28 2 43 18 131 128 238 261 253 12 1 23 1 35 1 74 0 143-26 199-75 63-56 100-137 100-222 0-96-47-187-125-243-55-38-97-94-137-173-12-24-30-44-53-61-25-16-55-25-85-25-33 0-65 11-92 30-39 29-63 75-63 123l0 2v0c0 28-22 50-50 50h0c-28 0-50-22-50-50l0-2c0-80 38-154 103-204 44-32 99-50 152-50 48 0 98 13 139 41 39 25 68 60 87 100 32 66 66 109 104 137 105 75 168 196 168 325 2 112-47 221-132 296z m-265-162c74 0 134-60 134-134 0-28 22-50 50-50 28 0 50 22 50 50 0 129-105 234-234 234-121 0-221-90-234-209l0 0 0-4 0 0v0c0-30 12-53 30-68 17-15 39-24 61-24 18 0 33-14 33-32 0-18-15-32-33-32-28 0-50-22-50-50 0-28 22-50 50-50 72 0 133 59 133 132 0 69-53 125-121 131 12 60 66 106 131 106l0 0z"/>
</svg>
