<svg xmlns="http://www.w3.org/2000/svg" viewBox="0 0 1000 1000">
  <path transform="translate(0,850) scale(1,-1)" fill="currentColor" d="M624-18c-5-4-8-11-8-19 0-7 3-13 8-19 4-4 11-7 19-7 7 0 13 3 19 7 4 4 7 12 7 19 0 8-3 13-7 19s-12 8-19 8c-8 1-15-2-19-8z m266 868h-131c-7 0-13-3-19-7-5-5-8-12-8-19v-11h-83c-8 0-14-3-20-7-4-4-7-12-7-19v-172c-12 12-26 20-41 28v109c0 7-3 13-7 19-5 4-12 7-20 7h-79c-7 0-13-3-19-7-4-5-7-12-7-19v-33h-27v53h-53v-53h-170c-52 0-95-42-95-94v-218c-32-10-54-41-54-76 0-44 37-81 81-81 44 0 81 37 81 81 0 35-24 65-55 76v218c0 24 20 41 42 41h170v-9c-78-13-138-79-138-161l0-333 0 0c1-28 25-51 53-51v53h62v-163c0-11 3-21 6-31h-37c-16 0-31 13-31 31l0 25 0 0c-2 27-25 50-53 50v-75c0-11 3-23 6-31h-87v-53l362 0 0 0c1 0-2 0 0 0l23 0c18-42 58-70 105-70 63 0 114 52 114 115 0 52-35 96-82 111l0 267 0 0c-1 28-25 50-53 50v-67h-220v172c0 31 11 58 32 79 21 21 48 32 79 32 31 0 59-11 80-32 20-21 32-48 32-79l0-28 0 0c2-28 25-55 53-55v349h57v-6c0-7 3-13 8-19 4-5 12-8 19-8h131c34 0 60 27 60 61 0 34-28 60-60 60z m-759-547c-16 0-28 13-28 28 0 16 13 28 28 28 16 0 28-13 28-28 1-15-12-28-28-28z m397 422v-66h-26l0 66c0 0 26 0 26 0z m-78-59v-16l-26 6v10h26z m-132-91c19 19 44 31 72 32-27-29-44-67-44-110v-173h-62v172c1 31 13 58 34 79z m304-498c-50-9-90-52-93-105h-98c-16 0-31 13-31 31v163h222c0 0 0-89 0-89z m-337 141v53h62v-53c-1 0-62 0-62 0z m419-253c0-18-7-33-17-44-12-12-27-18-44-18-18 0-33 7-44 18-12 11-18 26-18 44 0 17 7 32 18 44 11 12 26 18 44 18 17 0 32-8 44-18 10-12 17-28 17-44z m-170 306h88v-53h-223v53h135z m356 511h-105v15h105c4 0 7-3 7-7 0-5-4-8-7-8l0 0z"/>
</svg>
