<svg xmlns="http://www.w3.org/2000/svg" viewBox="0 0 1000 1000">
  <path transform="translate(0,850) scale(1,-1)" fill="currentColor" d="M500 393c127 0 228 103 228 228 0 126-101 229-228 229-126 0-228-103-228-228 0-126 102-229 228-229z m0 367c77 0 140-61 140-139 0-77-62-140-140-140-76 0-140 62-140 140 0 78 64 139 140 139z m228-445c-10 7-24 9-35 6-12-3-22-12-28-22l-77-142-51 93 38 66 0 18-15 9h-119l-14-9 0-18 36-66-51-93-75 142c-6 11-16 19-28 22s-25 1-35-6c-109-72-181-196-181-336v-33c0-53 42-96 95-96h624c53 0 95 43 95 96v33c0 140-72 264-179 336l0 0z m-540-375l-6 6v33c0 92 40 173 102 230l143-269c0 0-239 0-239 0z m630 6l-6-6h-238l142 270c62-57 102-138 102-229l0-35 0 0z"/>
</svg>
