<svg xmlns="http://www.w3.org/2000/svg" viewBox="0 0 1000 1000">
  <path transform="translate(0,850) scale(1,-1)" fill="currentColor" d="M850 224c-26 14-60 5-73-21l45-25c35-28 59-72 59-119v-209h54v207c-1 67-33 128-85 167z m-72 35l-50 15-87 25c-7 1-12 8-12 16v88c15 18 24 40 30 63 23 28 38 65 38 105v83c-1 108-90 196-197 196-107 0-196-88-196-196v-83c0-40 15-75 39-105 6-23 14-44 29-63v-88c0-8-4-15-12-16l-144-43c-88-27-148-107-148-199v-207h54v207c0 68 44 127 109 146l144 43c3 1 6 1 7 3 12-14 27-25 43-34 24-13 50-19 75-19 27 0 52 6 75 19 16 9 29 20 43 34 3-2 6-3 7-3l85-25c0 0 0 0 0 0l3-2 0 0c28-4 56 12 65 40l0 0z m-378 495c25 25 60 42 100 42 28 0 54-9 78-24-7-12-21-25-34-35-10-9-23-15-34-19l-3 47c-3 12-10 22-22 25s-23-2-29-12c-12-19-28-35-46-47-6-4-20-10-36-15 0 0-2 0-2 0 7 15 18 27 28 38l0 0z m150-491c-15-9-32-11-50-11-18 0-34 4-50 11-12 6-21 15-29 25 3 9 6 18 6 27v42c22-11 47-17 73-17h0c27 0 52 6 74 17v-42c0-9 1-19 5-27-8-10-19-19-29-25l0 0z m63 234c-3-4-6-9-7-13-9-52-53-90-106-90h0c-53 0-97 38-106 90-1 4-3 10-7 13-18 19-28 44-28 74v83c0 2 0 3 0 5 10 1 19 3 29 6 19 6 37 12 52 22 6 3 10 7 16 12l1-17c0-7 5-14 11-19 6-4 13-7 20-6 31 3 62 18 89 39 14 11 29 25 41 41 16-22 25-50 25-80v-86c-2-30-12-55-30-74z m-181 140c-7 0-14-3-19-8-4-4-7-11-7-19 0-7 3-14 7-19 5-4 12-7 19-7 8 0 15 3 20 7 4 5 7 12 7 19 0 8-3 15-7 19-5 5-12 8-20 8z m136 0c-8 0-15-3-19-8-5-4-8-11-8-19 0-7 3-14 8-19 4-4 11-7 19-7 7 0 14 3 19 7 4 5 7 12 7 19 0 8-3 15-7 19-6 5-12 8-19 8z m175-631l0 0 0-156h54v207c-29 0-53-23-54-51z m-540 51v-207h54v156h0c-1 28-25 51-54 51z"/>
</svg>
