<svg xmlns="http://www.w3.org/2000/svg" viewBox="0 0 1000 1000">
  <path transform="translate(0,850) scale(1,-1)" fill="currentColor" d="M418 112c-27 0-49-22-49-49 0-38-26-72-63-82l-110-30 0 0c-8-3-15-3-24-4-19 0-38 7-53 22-15 15-22 33-22 53 0 52 6 102 18 152l67 294c17 72 80 122 153 122 27 0 49 22 49 48s-22 49-49 49c-119 0-220-81-247-197l-67-294c-14-58-21-117-21-174 0-46 18-90 50-121 32-32 77-50 121-50h0c17 0 36 3 51 8l0 0 109 29c79 21 135 94 135 177 0 25-22 47-48 47l0 0z m313 28l13-3 0 0h0c21 0 40 13 46 34l3 14c0 21-14 40-34 46l-106 35c-65 22-107 81-107 149v387c3 26-19 48-46 48-26 0-48-22-48-48v-386c0-67-43-128-108-148l-106-36c-20-7-34-25-34-45l3-15c8-20 25-34 46-34h0l13 3 0 0 106 36c52 17 94 50 125 92 31-42 74-75 125-92l109-37 0 0z m251 45l0 0-1 9-68 294c-26 116-128 197-247 197-26 0-48-22-48-48 0-27 22-49 48-49 74 0 137-50 153-122l68-294c12-50 17-100 17-151 0-21-7-39-22-53-14-15-33-22-53-22-10 0-16 1-26 4l0 0-109 29c-37 11-63 45-63 83 0 26-22 48-49 48-26 0-48-22-48-48 0-83 56-155 135-177l106-28v0c16-4 32-9 49-9l5 0v0c46 0 89 20 121 50 32 33 50 75 50 121 0 58-6 113-18 166z"/>
</svg>
