<svg xmlns="http://www.w3.org/2000/svg" viewBox="0 0 1000 1000">
  <path transform="translate(0,850) scale(1,-1)" fill="currentColor" d="M929 637c-5 6-14 9-22 9h-148c13 22 20 47 20 72 0 26-7 53-25 76-25 37-66 56-107 56-26 0-53-7-76-25-11-7-18-15-24-23-12-17-22-34-31-53-6-12-10-24-16-37-9 20-18 41-28 60-6 10-12 21-19 30-7 8-15 17-24 23-23 18-50 25-76 25-41 0-82-19-109-56-16-23-23-50-23-76 0-25 7-50 20-71h-148c-9 0-16-3-22-9-6-6-9-14-9-22v-163c0-9 3-16 9-22 6-6 14-9 22-9h50v-251h0c1-34 29-61 63-61v61h0v248h181v-506h-133c-26 0-47 21-47 47v44h0c-1 34-29 61-63 61v-105c0-62 50-112 112-112h493c61 0 111 50 111 112v244h0c-1 34-29 61-63 61v-305c0-26-20-47-47-47h-132v506h176v-51h0c2-34 30-61 63-61v112h50c9 0 17 3 22 9 6 6 9 15 9 22v165c0 9-3 16-9 22l0 0z m-583-153h-221v98h221v-98z m35 163c-6 0-10 2-16 2-13 1-24 4-34 5-9 3-16 6-18 8-19 13-29 34-29 56 0 13 4 28 13 39 13 20 34 30 56 30 13 0 28-5 40-13 1-2 6-5 10-11 7-10 16-25 24-42 11-25 22-53 29-75h-75l0 1z m169-734h-98v506h98c0 0 0-506 0-506z m40 571h-180v97c12 0 24 0 34 0 28 0 50 1 56 1 6 0 28-1 56-1 10 0 22 0 34 0 0 0 0-97 0-97z m29 163h-75c5 13 10 30 16 44 8 19 17 38 25 55 5 7 9 14 14 19 4 4 7 9 8 9 12 8 25 13 40 13 22 0 43-10 56-30 9-11 13-26 13-39 0-22-10-43-29-56-2-2-9-5-18-8-13-4-31-5-50-7l0 0z m256-163h-221v98h221v-98z"/>
</svg>
