<svg xmlns="http://www.w3.org/2000/svg" viewBox="0 0 1000 1000">
  <path transform="translate(0,850) scale(1,-1)" fill="currentColor" d="M521 616h-521v-67h456c35 1 65 30 65 67z m250 0c-15 47-59 83-111 83-64 0-116-52-116-117 0-64 52-116 116-116 53 0 96 36 111 83h229v67c0 0-229 0-229 0z m-111-82c-26 0-48 22-48 48 0 27 22 49 48 49 27 0 49-22 49-49 0-28-22-48-49-48z m-275-213h615v67h-550c-37-1-65-31-65-67z m-157-83c65 0 116 52 116 116 0 65-51 117-116 117-53 0-96-36-110-83h-118v-67h116c15-49 59-83 112-83l0 0z m0 165c26 0 49-22 49-49 0-26-23-48-49-48-26 0-49 22-49 48 0 27 21 49 49 49z m113-250h-341v-68h344c37 2 65 33 65 68h-68z m205 82c-65 0-117-51-117-116 0-65 52-116 117-116 53 0 95 35 110 82h344v68h-344c-15 47-59 82-110 82l0 0z m0-164c-27 0-49 22-49 48 0 27 22 49 49 49 26 0 48-22 48-49 0-28-22-48-48-48z"/>
</svg>
