<svg xmlns="http://www.w3.org/2000/svg" viewBox="0 0 1000 1000">
  <path transform="translate(0,850) scale(1,-1)" fill="currentColor" d="M952 329l-359 358c-18 17-41 28-66 28-3 0-6 0-9 0l-62-6v37c0 57-47 104-104 104-58 0-105-47-105-104v-72c-12-3-22-9-32-18l-159-132c-22-18-34-45-34-72v-328c31 0 55 23 56 54v274c0 11 4 22 13 29l156 131v-105c-38-11-65-47-65-88 0-51 43-94 95-94 51 0 94 43 94 94 0 41-28 77-65 88v105l156-131c9-7 13-18 13-29v-508c0-21-18-38-38-38h-321c-20 0-38 17-38 38v122c-31 0-54-23-56-54v-69c0-52 43-95 94-95h321c51 0 94 43 94 95v509c0 27-12 54-34 72l-143 119 170 14 3 0c10 0 19-4 26-11l359-359c7-8 12-18 12-27 0-10-3-19-12-26l-228-225c-7-7-16-12-27-12-10 0-19 3-26 12l-7 7-2 2-38 38c-22-22-22-56-2-78l11-10c17-18 42-28 66-28 23 0 48 8 66 28l227 226c17 18 27 43 27 66-1 27-10 50-27 69z m-639 87c0-20-16-37-36-37-21 0-37 17-37 37 0 9 3 18 9 24v-5c0-16 13-28 28-28s27 14 27 28v6c6-7 9-14 9-25z m86 288l-90-8c-2 0-3 0-5-2v52c0 26 21 47 48 47 26 0 47-21 47-47 0 0 0-42 0-42z m-236-647h227v-55h-227v55z m0 114h227v-56h-227v56z"/>
</svg>
