<svg xmlns="http://www.w3.org/2000/svg" viewBox="0 0 1000 1000">
  <path transform="translate(0,850) scale(1,-1)" fill="currentColor" d="M996 449l-87 283c-13 45-55 72-99 72-10 0-20-1-31-4l-88-26 0 0c-26-12-42-42-34-70l53 17v0l87 26c5 2 9 2 13 2 21 0 39-14 46-34l13-44-441-136h-174c0 3-1 6-1 9 0 21 13 38 34 46l282 87 0 0c28 10 43 39 34 69l-53-17-279-85c-44-13-72-54-72-98 0-3 0-6 0-9h-37c-41 0-75-34-75-75v-109h0c0-9 3-19 7-26-53-8-94-53-94-109v0c0-53 37-96 87-106v-141c0-42 34-75 75-75h337v0c29 1 53 25 53 55h-390c-10 0-19 9-19 20v122h0c0 6-2 11-3 16h79c60 0 109 48 109 109v0c0 60-49 109-109 109h-76v133c0 11 9 19 19 19h657c10 0 19-8 19-19v-491c0-10-9-19-19-19h-178v0c-29-2-53-25-53-56h231c41 0 75 34 75 75v341l31 9 0 0 3 0c44 13 72 55 72 99 0 11-1 22-4 31z m-778-178c29 0 53-24 53-53v0c0-30-24-53-53-53h-109c-30 0-53 23-53 53v0c0 29 23 53 53 53 0 0 109 0 109 0z m694 103l0 0c0 0-2 0 0 0l-3-2 0 0c-6-1-10-4-15-7v97c0 41-34 75-75 75h-201l267 82 58-185c1-5 1-9 1-13 0-22-13-40-32-47l0 0z m-825-155c0-7 3-15 9-19 6-6 11-9 19-9 7 0 14 3 19 9 6 6 9 12 9 19 0 8-3 15-9 19-5 6-12 9-19 9-8 0-15-3-19-9-6-4-9-11-9-19z m466-150h135v-56h-135v56z"/>
</svg>
