<svg xmlns="http://www.w3.org/2000/svg" viewBox="0 0 1000 1000">
  <path transform="translate(0,850) scale(1,-1)" fill="currentColor" d="M993 496c-5 4-12 7-18 7h-212v29c0 37-29 67-66 67h-145c0-25 17-46 42-50 2 0 5-2 6-2h97c9 0 16-7 16-16v-29h-688c-7 0-13-3-18-8s-7-10-7-16v-475c0-7 3-13 7-18s12-7 18-7h374c0 0-2 10-2 12-1 3-1 7-3 10-3 6-7 12-13 18-6 6-15 9-24 11-7 2-14 2-22 2h-47v68h424v-68h-280c0 0 2-10 2-12 1-4 1-7 4-10 3-7 9-13 14-18 7-6 14-9 23-10 4 0 9 0 13 0h487c7 0 13 3 18 7s7 12 7 18v472c0 6-3 13-7 18z m-941-44h67v-68h-67v68z m67-424h-67v68h67v-68z m0 119h-67v68h67v-68z m118-119h-68v68h68v-68z m0 119h-68v68h68v-68z m0 119h-185v68h186c-1 0-1-68-1-68z m0 118h-68v68h68v-68z m119-237h-68v68h68v-68z m0 119h-68v68h68v-68z m0 118h-68v68h68v-68z m119-237h-68v68h68v-68z m0 119h-68v68h68v-68z m0 118h-68v68h68v-68z m118-237h-68v68h68v-68z m0 119h-68v68h68v-68z m0 118h-68v68h68v-68z m51 68h68v-68h-68v68z m0-118h68v-68h-68v68z m187-306h-68v68h68v-68z m0 212v-93h-187v68h93c7 0 13 3 17 7s8 12 8 18v92h67c2 2 2-92 2-92z m0 144h-68v68h68v-68z m118-356h-68v187h68v-187z m0 238h-68v68h68v-68z m0 118h-68v68h68v-68z m-752 163h321c0 28-22 50-49 52h-272c-9 0-16 7-16 16v107h-50v-109c0-36 29-66 66-66z"/>
</svg>
