<svg xmlns="http://www.w3.org/2000/svg" viewBox="0 0 1000 1000">
  <path transform="translate(0,850) scale(1,-1)" fill="currentColor" d="M625-97h-166v119c0 62-50 113-113 113-62 0-114-50-114-113v-119h-72l14 159 0 3c1 28-21 51-47 54l-5-50-16-191c0-7 1-15 7-21 5-4 12-7 19-7h543c0 28-22 51-50 53l0 0z m-219 0h-121v119c0 16 8 32 18 43 12 10 26 17 43 17 16 0 32-7 42-17 11-12 18-27 18-43l0-119 0 0z m509 422v119c0 8-3 13-8 19-4 5-11 8-19 8h-47l-14 175c-2 13-12 23-27 23h-141v21c0 88-72 159-159 159-88 0-159-72-159-159v-21h-141c-13 0-25-10-26-23l-15-175h-49c-7 0-13-3-19-8-4-4-7-11-7-19v-119c0-35 22-65 53-76l-5-55c-1-28 21-51 47-54l5 50 4 57c12 5 22 10 31 18 15-13 34-22 56-22 22 0 41 9 56 22 15-13 34-22 56-22 22 0 41 9 56 22 14-13 34-22 56-22 22 0 41 9 55 22 15-13 34-22 56-22 22 0 42 9 56 22 15-13 34-22 56-22 22 0 41 9 56 22 9-8 19-15 31-18l29-346h-116c0-28 22-51 50-53h96c7 0 14 3 19 9 4 6 7 14 7 21l-32 371c31 11 53 41 53 76l0 0z m-719 0c0-16-14-29-30-29-16 0-29 13-29 29v93h59l0-93 0 0z m195 366c0 30 12 56 31 77 19 19 46 31 77 31 29 0 55-12 76-31 19-19 31-46 31-77v-20h-215l0 20 0 0z m-84-366c0-16-13-29-29-29-16 0-29 13-29 29v93h58c0 0 0-93 0-93z m111 0c0-16-14-29-30-29-16 0-29 13-29 29v93h59l0-93 0 0z m111 0c0-16-13-29-29-29-16 0-29 13-29 29v93h58l0-93 0 0z m112 0c0-16-13-29-29-29-16 0-30 13-30 29v93h59l0-93 0 0z m111 0c0-16-14-29-30-29-16 0-29 13-29 29v93h59l0-93 0 0z m26 146h-568l14 147h116v-74h53v74l214 0v-74h53v74h118l13-147-13 0 0 0z m85-146c0-16-13-29-29-29-16 0-30 13-30 29v93h59l0-93 0 0z m-364-323v-54h279v54h-19v147h19v53h-279v-53h20v-149h-20z m73 147h134v-149h-135v149z m-206-151c-6 0-12-2-14-5-5-5-6-11-6-15s3-12 6-15c4-4 10-6 14-6s12 3 15 6c4 5 6 10 6 15s-3 12-6 15c-4 3-10 5-15 5z"/>
</svg>
