<svg xmlns="http://www.w3.org/2000/svg" viewBox="0 0 1000 1000">
  <path transform="translate(0,850) scale(1,-1)" fill="currentColor" d="M697-2l0 0c-66-47-147-75-235-75-83 0-165 25-235 75-31 27-78 23-105-8l56-47c84-62 184-93 284-93 106 0 204 34 284 93 31 26 33 72 7 104l-56-49 0 0z m107 677l0 0 0 0c-94 94-219 141-342 141-119 0-238-44-331-132l-2 95h0l-1 71c-40-1-72-35-74-73l5-189c0-10 4-19 12-26 7-8 16-10 26-10l197 4c40 3 72 35 71 75l-71-2-117-2c79 76 182 116 285 116 104 0 209-40 290-121l0 0c73-73 120-176 120-290 0-50-9-97-25-139-18-37-1-81 37-99l31 66c20 55 32 112 32 172-1 136-56 256-143 343z"/>
</svg>
