<svg xmlns="http://www.w3.org/2000/svg" viewBox="0 0 1000 1000">
  <path transform="translate(0,850) scale(1,-1)" fill="currentColor" d="M799 227l-152 44c-9 3-15 10-15 19v94c15 19 25 41 31 66 25 29 40 66 40 107v89c0 113-91 204-203 204-112 0-203-91-203-203v-88c0-41 15-80 40-107 6-25 16-48 31-67v-94c0-9-6-16-15-19l-151-44c-92-26-155-110-155-206v-172h53v171c0 72 47 135 116 156l86 25 73-133c4-7 10-12 18-13 7-2 16 0 22 6l56 47v-259h53v257l64-47c6-4 14-6 22-4 8 1 14 6 18 13l74 133 85-25c69-21 116-84 116-156v-171h53v171c-3 95-66 179-157 206l0 0z m-405 526c28 28 65 44 106 44 34 0 65-12 90-29-8-12-19-25-34-36-10-7-22-14-34-19l-3 47c-1 12-9 21-19 24-10 3-22-2-29-12-14-19-27-37-43-45-18-11-32-15-46-18-7-2-14-3-20-3 7 18 17 34 32 47l0 0z m-44-194v88c0 2 0 3 0 5 12 0 28 1 44 4 18 4 37 12 59 23 6 3 12 8 18 12l1-14c0-8 5-14 9-20 6-4 13-7 21-5 29 2 60 17 86 36 15 11 28 24 40 39 15-24 24-52 24-81v-89c0-29-12-57-31-78-3-4-6-8-8-13-9-54-56-95-113-95h0c-57 0-103 41-113 95-2 5-3 11-8 13-17 23-29 49-29 80l0 0z m244-438l-65 48 30 18 43 26c-15 25-46 33-71 19l0 0-37-22-38 19 0 0c-25 12-56 2-69-23l47-25 26-13-54-46-53 94 15 5c31 8 53 38 53 70v49c23-13 51-21 79-21h0c29 0 56 8 79 21v-49c0-32 23-62 53-70l15-5-53-95 0 0z m-165 454c8 0 14 3 20 7s7 12 7 20c0 7-3 13-7 19-5 4-12 7-20 7-7 0-13-3-19-7-4-5-7-12-7-19 0-8 3-14 7-20 5-4 12-7 19-7z m142 0c7 0 13 3 19 7s7 12 7 20c0 7-3 13-7 19-5 4-12 7-19 7-8 0-14-3-19-7-5-5-8-12-8-19 0-8 3-14 8-20 5-4 11-7 19-7z m185-556h53v-169h-53v169z m-565 0h53v-169h-53v169z"/>
</svg>
