<?xml version="1.0" encoding="UTF-8"?>
<svg id="Capa_1" data-name="Capa 1" xmlns="http://www.w3.org/2000/svg" viewBox="0 0 1080 1080">
  <defs>
    <style>
      .cls-1 {
        fill: #8a9cd3;
        stroke-width: 0px;
      }
    </style>
  </defs>
  <path class="cls-1" d="m63.98,405.75c36.48-72.32,130-120.59,283.15-140.59,127.46-16.65,256.67-16.62,384.3-.4,135.31,17.2,227.8,57.27,273.48,120.33,21.71,29.97,30.77,61,31.25,92.43,1.06,68.07-31.99,129.03-81.11,156.9-.44.25-2.49,1.37-5.58,3.05-29.99,16.3-45.67,50.4-38.53,83.78l15.26,71.27c5.68,26.53-25.19,45.43-46.24,28.31l-115.38-93.85c-15.88-12.91-36.24-19.01-56.59-16.84-54.3,5.79-111.65,7.89-170.55,8.56-19.39-.47-42.43-.94-65.44-1.59-216.21-6.11-361.27-59.26-407.81-150.7-27.16-53.36-27.14-107.27-.22-160.64"/>
</svg>