<?xml version="1.0" encoding="UTF-8"?>
<svg id="Capa_1" data-name="Capa 1" xmlns="http://www.w3.org/2000/svg" viewBox="0 0 1080 1080">
  <defs>
    <style>
      .cls-1 {
        fill: #ecf0a1;
        stroke-width: 0px;
      }
    </style>
  </defs>
  <path class="cls-1" d="m980.31,255.01c-34.35-120.38-124.48-198.52-288.15-221.39-88.16-12.32-176.74-12.51-265.47-4.45C253.96,44.85,147.79,112.15,108.97,240.74c-45.79,151.7-44.21,305.17-1.66,457.26,11.22,40.12,29.79,75,55.67,104.39,25.6,29.07,35.33,68.85,27.22,106.72l-22.2,103.7c-7.09,33.13,31.45,56.73,57.74,35.35l130.16-105.88c24.84-20.2,56.55-30.15,88.44-27.35,78.96,6.94,158.08,5.22,237.17-4.56,158-19.54,254.7-89.28,293.62-206.8,25.22-76.17,29.71-153.77,29.85-231.76.2-72.82-4.25-145.3-24.67-216.81"/>
</svg>