<?xml version="1.0" encoding="UTF-8"?>
<svg id="Layer_1" data-name="Layer 1" xmlns="http://www.w3.org/2000/svg" xmlns:xlink="http://www.w3.org/1999/xlink" viewBox="0 0 169.16 294.24">
  <defs>
    <style>
      .cls-1 {
        fill: #80acff;
      }

      .cls-2 {
        fill: #8189c4;
      }

      .cls-3 {
        fill: #f5f6dd;
      }

      .cls-4 {
        fill: #041063;
      }

      .cls-5 {
        fill: #326bf5;
      }

      .cls-6 {
        fill: #006276;
      }

      .cls-7 {
        fill: #ffa75d;
      }

      .cls-8 {
        clip-path: url(#clippath-1);
      }

      .cls-9 {
        fill: #ff7868;
      }

      .cls-10 {
        fill: #63d991;
      }

      .cls-11 {
        fill: #00aec7;
      }

      .cls-12 {
        fill: #28318c;
      }

      .cls-13 {
        fill: #e8ec9d;
      }

      .cls-14 {
        fill: #e2e92e;
      }

      .cls-15 {
        clip-path: url(#clippath);
      }
    </style>
    <clipPath id="clippath">
      <path class="cls-2" d="M142.19,200.73c-.01-6.78,0-13.58,0-20.38s-.24-14.26-.24-21.38c-.06-1.96.01-68.73,0-77.97-.01-6.77,0-13.57,0-20.38,0-1.5-.01-2.99-.02-4.49-.04-2.66-2.18-4.8-4.84-4.8h-19.01c-2.78.01-4.53.01-4.83.02-3.58,0-7.16.06-10.75.12-3.54.06-7.09.12-10.63.12-6.8,0-13.59-.01-20.36,0-4.28.01-20.88-.01-37.68-.02-2.68,0-4.87,2.19-4.84,4.87.01,1.39.02,2.78.02,4.17,0,6.53,0,13.05,0,19.55-1.13,0-2.05.93-2.05,2.06v15.75c0,1.13.91,2.05,2.05,2.06,0,.95,0,1.92,0,2.9-1.13,0-2.04.93-2.04,2.06v15.75c0,1.13.91,2.04,2.03,2.06,0,18.06-.01,35.18.02,36.15,0,7.12.24,14.26.24,21.38s-.01,13.59,0,20.38c.01,5.57-.02,16.72-.02,37.31,0,2.66,2.16,4.82,4.84,4.82,16.71.01,33.18.04,37.44.02h20.36c7.13,0,14.27-.24,21.38-.24.59-.01,7.1-.02,16.16-.02h7.92c2.67,0,4.84-2.15,4.84-4.82,0-20.56.04-31.52.02-37.07Z"/>
    </clipPath>
    <clipPath id="clippath-1">
      <path class="cls-4" d="M34.07,240.45c-1.34,0-2.42-1.08-2.42-2.41,0-11.11.01-19.47.02-25.69,0-5.31.01-9.06,0-11.63,0-4.52,0-9.04,0-13.57v-6.8c0-3.58-.06-7.22-.12-10.73-.06-3.49-.12-7.11-.12-10.65-.04-1.32-.02-31.03,0-52.73,0-11.93.01-22.05,0-25.25,0-4.51,0-9.03,0-13.56v-6.81c0-1.33,0-2.66-.02-4v-.2c-.01-.65.23-1.25.69-1.71.46-.47,1.08-.72,1.73-.72,0,0,29.84.03,33.98.03h10.48s13.59,0,13.59,0c3.6,0,7.19-.06,10.67-.12h.13c3.47-.06,7.06-.12,10.58-.12.29,0,1.07-.01,2.31-.01h2.53s11.05,0,11.05,0c.86,0,1.59.68,1.64,1.51.01.23,0,.47,0,.71.02,1.57.04,3.11.04,4.64v20.38c0,3.41,0,14.63,0,27.55-.01,23.07-.02,49.22,0,50.48,0,3.52.06,7.16.12,10.67.06,3.49.12,7.11.12,10.65v20.38c0,3.28,0,8.56,0,16.47l-.02,21.38c0,.89-.73,1.62-1.63,1.62-8.25,0-15.52.01-16.2.02h-.04c-3.51,0-7.13.06-10.62.12-3.5.06-7.12.12-10.67.12h-24.14c-4.08,0-33.66-.02-33.66-.02Z"/>
    </clipPath>
  </defs>
  <g>
    <path class="cls-2" d="M142.19,200.73c-.01-6.78,0-13.58,0-20.38s-.24-14.26-.24-21.38c-.06-1.96.01-68.73,0-77.97-.01-6.77,0-13.57,0-20.38,0-1.5-.01-2.99-.02-4.49-.04-2.66-2.18-4.8-4.84-4.8h-19.01c-2.78.01-4.53.01-4.83.02-3.58,0-7.16.06-10.75.12-3.54.06-7.09.12-10.63.12-6.8,0-13.59-.01-20.36,0-4.28.01-20.88-.01-37.68-.02-2.68,0-4.87,2.19-4.84,4.87.01,1.39.02,2.78.02,4.17,0,6.53,0,13.05,0,19.55-1.13,0-2.05.93-2.05,2.06v15.75c0,1.13.91,2.05,2.05,2.06,0,.95,0,1.92,0,2.9-1.13,0-2.04.93-2.04,2.06v15.75c0,1.13.91,2.04,2.03,2.06,0,18.06-.01,35.18.02,36.15,0,7.12.24,14.26.24,21.38s-.01,13.59,0,20.38c.01,5.57-.02,16.72-.02,37.31,0,2.66,2.16,4.82,4.84,4.82,16.71.01,33.18.04,37.44.02h20.36c7.13,0,14.27-.24,21.38-.24.59-.01,7.1-.02,16.16-.02h7.92c2.67,0,4.84-2.15,4.84-4.82,0-20.56.04-31.52.02-37.07Z"/>
    <g class="cls-15">
      <path class="cls-12" d="M128.54,245.64c.57.16,1.16.28,1.76.31.03,0,.07,0,.1,0,.13,0-.18-.03.03,0,.08.01.15,0,.23,0,.12,0,.23-.01.35-.02.26-.03.51-.07.76-.13s.47-.15.69-.26c.04-.02.08-.04.12-.06.02-.01.05-.02.07-.04h.02c-.14.05-.12.04.05-.03.09-.05.17-.11.25-.16.4-.28.72-.61,1.01-1,.54-.72.87-1.58,1.1-2.44.25-.96.37-1.96.44-2.95.07-.93.08-1.86.09-2.78,0-1.62,0-3.25,0-4.87,0-3.66,0-7.33,0-10.99s.02-7.26.05-10.89.07-7.3.1-10.95.04-7.28.03-10.92-.06-7.28-.16-10.91c-.05-1.82-.04-3.65-.06-5.48s-.05-3.66-.08-5.48c-.06-3.64-.13-7.27-.13-10.91s0-7.31,0-10.97,0-7.28,0-10.93,0-7.31,0-10.96,0-7.33,0-10.99,0-7.28,0-10.93,0-7.33,0-10.99,0-7.31,0-10.96,0-7.31-.01-10.96c0-1.83-.01-3.66-.02-5.5,0-.92-.01-1.83-.02-2.75,0-.82.03-1.64.03-2.46s-.03-1.62-.27-2.39c-.19-.63-.49-1.2-.91-1.7-.75-.91-1.86-1.45-2.99-1.74-.27-.07-.54-.12-.81-.17-.07-.01-.14-.02-.22-.03-.06,0-.26-.03-.1-.01-.07,0-.15-.02-.22-.03-.13-.02-.26-.03-.39-.04-.56-.05-1.12-.05-1.68-.04-.26,0-.52.23-.5.5s.22.51.5.5c.57,0,1.15.02,1.72.09.13.01.26.03.39.05-.15-.02.09.02.13.02.08.01.16.03.23.04.28.05.55.11.82.19.13.04.26.08.39.12.06.02.12.04.18.07.04.01.07.03.11.04.11.04-.09-.04.01,0,.25.11.5.24.73.38.11.07.24.14.33.23,0,0-.1-.08-.02-.02.03.02.06.05.09.07.06.05.11.1.17.15.09.09.18.17.26.27.05.06.1.11.14.17,0-.01-.07-.1-.02-.02.03.04.06.08.09.12.07.11.14.22.2.33.03.06.06.12.09.18.02.04.03.07.05.11.05.1-.04-.1.02.04.12.31.21.63.27.96,0,.05.02.1.02.16-.01-.11,0,.01,0,.04.01.1.02.2.03.29.01.2.02.4.02.6,0,.41,0,.81-.02,1.22-.06,1.75-.03,3.5-.03,5.25,0,3.62-.01,7.25-.01,10.87s0,7.29,0,10.93,0,7.25-.01,10.87,0,7.24,0,10.87,0,7.29-.01,10.93,0,7.24,0,10.87,0,7.23,0,10.85,0,7.27,0,10.9,0,7.23.05,10.85.13,7.23.17,10.85c.02,1.8,0,3.61.05,5.41s.08,3.65.11,5.47c.05,3.61.06,7.22.05,10.83s-.04,7.22-.08,10.83-.07,7.24-.09,10.86-.02,7.25-.02,10.88,0,7,0,10.5c0,.92-.01,1.84-.07,2.76-.03.48-.07.96-.14,1.44-.02.12.02-.13,0-.05,0,.03,0,.05-.01.08,0,.05-.02.11-.02.16-.02.13-.04.26-.06.38-.04.22-.09.45-.14.67-.1.43-.23.85-.39,1.26-.01.03-.03.05-.03.08.05-.16.05-.11.03-.07-.02.05-.04.1-.07.15-.05.1-.09.2-.15.29-.1.18-.2.36-.31.53-.03.04-.05.07-.08.11-.03.05-.14.15,0,0-.07.07-.13.16-.2.24-.13.14-.27.27-.42.39-.08.07.12-.09.03-.03-.02.01-.04.03-.05.04-.04.03-.08.05-.12.08-.01,0-.03.02-.05.03l-.12.09c.09-.06.1-.07.05-.04-.05.03-.09.06-.14.08-.08.05-.17.09-.26.13-.02,0-.04.02-.06.03.14-.08.08-.03.03-.01-.05.02-.11.04-.16.06-.2.07-.4.12-.61.15-.04,0-.22.02-.05,0-.05,0-.11.01-.16.02s-.11,0-.16,0l-.14.02c.08,0,.09-.01.04,0-.03,0-.07,0-.1,0-.25,0-.51,0-.76-.03-.06,0-.13-.01-.19-.02.1.01.03,0,0,0-.04,0-.08-.01-.12-.02-.15-.02-.3-.05-.46-.08-.23-.05-.48.07-.54.31s.08.48.31.54h0Z"/>
      <path class="cls-12" d="M137.38,79.91c-.04.21-.12.41-.12.63l-.02.56c-.01.36-.02.73-.02,1.09,0,.74-.01,1.48-.01,2.22,0,1.46.02,2.92.02,4.37.02,2.95.03,5.89.05,8.84l.02,2.47c0,.42,0,.83,0,1.25s-.01.83.02,1.25c.02.27.23.54.52.52s.5-.23.52-.52c.05-.73.02-1.48.02-2.22l.02-2.22c.01-1.46.02-2.92.03-4.37l.05-8.84c0-.82,0-1.65,0-2.47,0-.42,0-.83-.02-1.25l-.02-.59c0-.25-.08-.48-.13-.72-.1-.45-.82-.46-.92,0h0Z"/>
      <path class="cls-12" d="M137.79,194.53s.05,0,.07.01c.06.02.12.03.18.02.05,0,.11,0,.16,0l-.13-.02s.02,0,.03.01h.07c.07.02.14.02.21,0,0,0,.01,0,.02,0,.03,0,.06-.02.09-.03.06-.02.12-.04.17-.06.16-.06.31-.14.46-.23.22-.12.44-.26.65-.4.06-.04.12-.08.17-.12.03-.02.06-.04.09-.06.01,0,.03-.02.04-.03.03-.02.05-.04.08-.06.07-.04.12-.1.16-.17.02-.05.04-.1.06-.15.03-.11.03-.21,0-.32-.02-.08-.05-.15-.11-.21-.04-.07-.1-.12-.17-.16-.09-.05-.2-.08-.3-.08h0c-.08,0-.16.01-.23.05-.05.02-.06.02-.09.04-.01,0-.02.02-.03.02-.03.02-.05.04-.08.06-.05.04-.1.07-.15.11-.1.07-.21.15-.31.22s-.21.15-.31.21c-.05.03-.1.07-.16.1s-.11.06-.16.1c-.06.04-.11.08-.17.12-.03.02-.06.04-.09.06,0,0-.01,0-.02.01-.04.03-.08.06-.11.09l-.08.11s-.05.1-.06.16l.13-.22s-.06.07-.09.1c-.01.01-.03.03-.04.04-.07.07-.08.1-.11.19,0,0,0,.01,0,.02l.04-.09s-.02.03-.03.05c-.03.05-.05.11-.05.17,0,.05,0,.09.03.13.01.04.04.08.07.11.04.04.09.07.15.09h0Z"/>
      <path class="cls-12" d="M28.64,81.65c-.04.06-.09.11-.11.19-.02.06-.03.12-.04.18-.04.16-.06.33-.07.5-.02.26-.03.52-.03.78,0,.54-.03,1.08-.02,1.62l.02,3.19.03,6.4c0,.6,0,1.21.02,1.81,0,.29.01.58.03.87.02.32.04.66.16.96.12.31.52.31.64,0,.19-.5.16-1.09.18-1.62s.02-1.08.03-1.62l.02-3.19.03-6.4c0-.6,0-1.21-.02-1.81,0-.29-.01-.58-.03-.87-.01-.18-.02-.36-.05-.54-.01-.07-.03-.14-.05-.2-.03-.1-.07-.16-.12-.24-.15-.22-.44-.22-.59,0h0Z"/>
      <path class="cls-12" d="M28.64,104.6c-.04.06-.09.11-.11.19-.02.06-.03.12-.04.18-.04.16-.06.33-.07.5-.02.26-.03.52-.03.78,0,.54-.03,1.08-.02,1.62l.02,3.19.03,6.4c0,.6,0,1.21.02,1.81,0,.29.01.58.03.87.02.32.04.66.16.96.12.31.52.31.64,0,.19-.5.16-1.09.18-1.62s.02-1.08.03-1.62l.02-3.19.03-6.4c0-.6,0-1.21-.02-1.81,0-.29-.01-.58-.03-.87-.01-.18-.02-.36-.05-.54-.01-.07-.03-.14-.05-.2-.03-.1-.07-.16-.12-.24-.15-.22-.44-.22-.59,0h0Z"/>
    </g>
  </g>
  <g>
    <path class="cls-4" d="M34.07,240.45c-1.34,0-2.42-1.08-2.42-2.41,0-11.11.01-19.47.02-25.69,0-5.31.01-9.06,0-11.63,0-4.52,0-9.04,0-13.57v-6.8c0-3.58-.06-7.22-.12-10.73-.06-3.49-.12-7.11-.12-10.65-.04-1.32-.02-31.03,0-52.73,0-11.93.01-22.05,0-25.25,0-4.51,0-9.03,0-13.56v-6.81c0-1.33,0-2.66-.02-4v-.2c-.01-.65.23-1.25.69-1.71.46-.47,1.08-.72,1.73-.72,0,0,29.84.03,33.98.03h10.48s13.59,0,13.59,0c3.6,0,7.19-.06,10.67-.12h.13c3.47-.06,7.06-.12,10.58-.12.29,0,1.07-.01,2.31-.01h2.53s11.05,0,11.05,0c.86,0,1.59.68,1.64,1.51.01.23,0,.47,0,.71.02,1.57.04,3.11.04,4.64v20.38c0,3.41,0,14.63,0,27.55-.01,23.07-.02,49.22,0,50.48,0,3.52.06,7.16.12,10.67.06,3.49.12,7.11.12,10.65v20.38c0,3.28,0,8.56,0,16.47l-.02,21.38c0,.89-.73,1.62-1.63,1.62-8.25,0-15.52.01-16.2.02h-.04c-3.51,0-7.13.06-10.62.12-3.5.06-7.12.12-10.67.12h-24.14c-4.08,0-33.66-.02-33.66-.02Z"/>
    <g class="cls-8">
      <g>
        <g>
          <rect class="cls-14" x="38.14" y="74.61" width="16.88" height="16.88" rx="2.68" ry="2.68"/>
          <rect class="cls-1" x="61.69" y="74.61" width="16.88" height="16.88" rx="2.68" ry="2.68"/>
          <rect class="cls-11" x="85.24" y="74.61" width="16.88" height="16.88" rx="2.68" ry="2.68"/>
          <rect class="cls-9" x="108.79" y="74.61" width="16.88" height="16.88" rx="2.68" ry="2.68"/>
        </g>
        <g>
          <rect class="cls-14" x="38.14" y="216.22" width="16.88" height="16.88" rx="2.68" ry="2.68"/>
          <rect class="cls-1" x="61.69" y="216.22" width="16.88" height="16.88" rx="2.68" ry="2.68"/>
          <rect class="cls-11" x="85.24" y="216.22" width="16.88" height="16.88" rx="2.68" ry="2.68"/>
          <rect class="cls-9" x="108.79" y="216.22" width="16.88" height="16.88" rx="2.68" ry="2.68"/>
        </g>
        <g>
          <rect class="cls-10" x="38.14" y="98.04" width="16.88" height="16.88" rx="2.68" ry="2.68"/>
          <rect class="cls-5" x="61.69" y="98.04" width="16.88" height="16.88" rx="2.68" ry="2.68"/>
          <rect class="cls-13" x="85.24" y="98.04" width="16.88" height="16.88" rx="2.68" ry="2.68"/>
          <rect class="cls-12" x="108.79" y="98.04" width="16.88" height="16.88" rx="2.68" ry="2.68"/>
        </g>
        <g>
          <rect class="cls-7" x="38.14" y="121.46" width="16.88" height="16.88" rx="2.68" ry="2.68"/>
          <rect class="cls-2" x="61.69" y="121.46" width="16.88" height="16.88" rx="2.68" ry="2.68"/>
          <rect class="cls-11" x="85.24" y="121.46" width="16.88" height="16.88" rx="2.68" ry="2.68"/>
          <rect class="cls-6" x="108.79" y="121.46" width="16.88" height="16.88" rx="2.68" ry="2.68"/>
        </g>
        <g>
          <rect class="cls-14" x="38.14" y="144.89" width="16.88" height="16.88" rx="2.68" ry="2.68"/>
          <rect class="cls-1" x="61.69" y="144.89" width="16.88" height="16.88" rx="2.68" ry="2.68"/>
        </g>
      </g>
      <path class="cls-3" d="M106.73,58.67h0s.03-.07.05-.11c-.01.03-.03.06-.04.08l.31-.24h0s-.09.04-.13.06c-.06.03-.11.08-.15.14-.03.03-.06.07-.07.12-.03.06-.05.13-.05.21,0,.11-.02.21-.02.32,0,.05,0,.11-.01.16,0,.05,0,.1,0,.15,0,.01,0,.03,0,.04,0,0,0,.01,0,.02,0,0,0,0,0,0,0,0,0,0,0,0l.02.16c.01.05.03.1.06.15.01.02.02.03.03.05.05.08.12.15.2.2.09.05.18.08.28.08.1,0,.19-.03.28-.08.08-.05.15-.12.2-.2,0-.01.02-.02.02-.04.07-.1.09-.23.09-.35,0-.02,0-.04,0-.06,0-.01,0-.02,0-.03,0-.06-.01-.12-.02-.19l.02.16c-.02-.14-.04-.28-.05-.42,0-.04,0-.08-.01-.11l-.02-.14c-.02-.07-.05-.13-.1-.18-.02-.04-.06-.07-.1-.1-.05-.05-.11-.08-.18-.1h0c.1.08.21.16.31.24-.01-.03-.03-.06-.04-.08l.05.11h0s-.03-.08-.05-.11c-.03-.05-.07-.1-.12-.13-.03-.03-.06-.05-.1-.06-.06-.03-.12-.04-.18-.04l-.12.02-.11.05c-.05.03-.1.07-.13.12-.04.05-.07.1-.08.16h0Z"/>
      <path class="cls-3" d="M109.2,58.74s-.02.04-.03.06c0,0,0,0,0,0l-.03.08s0,.01,0,.02c0,.01,0,.02-.01.03-.01.04-.03.09-.04.13l.04-.1h0s.1-.1.15-.14c0,0,0,0,0,0l.1-.04h0s-.07.03-.11.04c-.05.03-.09.07-.12.11-.03.03-.05.06-.06.1-.03.05-.04.11-.04.17,0,.05-.01.09-.02.14s0,.09,0,.13c0,.09.01.18.02.26.01.1.03.2.04.29l-.02-.15h0s.01-.1.02-.15c0,0,0,0,0,0l-.02.15h0c0,.06.01.11.02.16h0s0,.01,0,.01c0,.01,0,.03.01.04,0,.03.02.05.03.08v-.31c-.01.06-.02.13-.03.19,0,0,0,.02,0,.03,0,0,0,0,0,.01,0,0,0,0,0,0,0,0,.02.15.02.15,0,0,0,0,0,0,0,0,0,0,0,0,0,0,.05.13.06.14s.08.11.09.12c.01.01.1.08.12.09.08.05.2.08.29.08,0,0,.15-.02.15-.02.02,0,.08-.03.07-.03.03-.01.05-.02.07-.03,0,0,.11-.09.12-.09,0,0,0,0,0,0,0,0,0,0,0,0s0,0,0,0c.03-.04.07-.08.1-.12,0,0,.01-.02.02-.02,0,0,0,0,0-.01,0,0,0,0,0,0,.01-.02.02-.04.03-.07.03-.04.04-.09.04-.14v-.08c0-.05,0-.1-.01-.15,0-.03-.01-.05-.03-.07,0-.03-.02-.05-.03-.08l.06.43s.01-.04.02-.06c0-.01,0-.02,0-.03.01-.05.02-.1.02-.15s-.01-.1-.02-.15c0-.03-.01-.06-.02-.09l.02.12s0-.03,0-.04c0-.07-.02-.14-.06-.21-.03-.05-.06-.09-.1-.11-.04-.04-.09-.06-.14-.07-.07-.02-.14-.02-.22,0-.02,0-.05.01-.07.02-.01,0-.03.01-.04.02,0,0,0,0-.01,0-.02,0-.04.02-.07.03-.2.08-.04.01-.06.03-.01,0-.1.08-.11.08,0,0-.02.02-.02.02-.02.02-.03.04-.05.05l.39-.16h-.01c-.05,0-.1.01-.15.02-.02,0-.05.02-.07.03-.05.01-.09.04-.13.07-.04.03-.08.06-.1.1-.02.02-.03.04-.05.06,0,0,0,0,0,0,0,0,0,.01-.01.02,0,0-.01.02-.02.03l.09-.12s-.01.01-.02.02l.12-.09s0,0,0,0l.14-.06s0,0,0,0l.15-.02s0,0,0,0l.15.02s0,0,0,0l.14.06s0,0,0,0l.12.09s0,0,0,0l.09.12s0,0,0,0l.06.14s0,0,0,0l.02.15s0-.03,0-.05l-.02.15s0-.02,0-.04l.02-.15c0-.05,0-.11-.02-.16,0,0,0,0,0-.01,0,0,0-.02,0-.03,0-.02-.01-.04-.02-.06,0,0,0-.02,0-.03h0c-.02-.08-.05-.14-.1-.2-.02-.03-.03-.05-.05-.07l.09.11s-.02-.04-.03-.06-.02-.04-.03-.06c-.02-.04-.04-.08-.05-.12l.05.12c-.02-.05-.04-.11-.06-.16,0-.01,0-.03-.01-.04-.02-.05-.04-.1-.06-.15-.01-.03-.02-.05-.03-.08l.05.11s-.02-.05-.03-.08c-.02-.07-.06-.14-.11-.19-.06-.05-.12-.09-.19-.11,0,0,0,0-.01,0l.18.11h0s.04.05.06.08c-.02-.04-.04-.08-.06-.11,0-.02-.02-.04-.03-.06-.01-.02-.03-.04-.04-.06-.03-.04-.06-.08-.1-.1-.05-.03-.09-.04-.15-.04-.1,0-.19.06-.25.14h0Z"/>
      <path class="cls-3" d="M112.17,58.52s-.02.01-.03.02l.24-.03h0c-.06-.02-.13-.02-.19,0-.06.02-.11.05-.16.09-.03.02-.05.05-.08.08-.02.02-.04.05-.07.08l.09-.07s-.08.06-.11.09l.1-.07c-.07.03-.1.07-.14.13-.03.03-.05.07-.06.11,0,.02-.02.04-.03.06l.05-.11c-.03.06-.05.12-.08.19-.01.02-.02.05-.03.07-.01.05-.02.09-.03.14l.14-.25h0s.08-.06.11-.09c-.08.04-.11.08-.16.15-.12.15-.03.03-.05.06l-.03.07s-.04.09-.04.14c0,.04-.01.07,0,.1,0,.07.02.13.03.2,0,0,0,0,0,.01,0,.02.04.09.03.07.01.02.02.05.03.07,0,0,0,.01.01.02,0,.01.01.03.02.04,0,.01.02.02.02.04.04.05.07.1.11.14,0,0,0,0,0,0,0,0,.1.08.11.09,0,0,0,0,0,0,.04.03.1.04.14.06,0,0,0,0,.01,0,0,0,0,0,0,0,0,0,.14.02.14.02.02,0,.05,0,.07,0,.03,0,.06,0,.09-.01,0,0,0,0,0,0,.02,0,.04-.02.06-.02.06-.03.09-.03.15-.1l.04-.05s.05-.06.06-.1c.03-.07.02-.04.03-.12,0-.02,0-.05,0-.07l-.02.12s0-.02,0-.03c0,0,.02-.13.02-.14,0,0,0,0,0,0,0,0,0,0,0-.01s0,0,0-.01c0,0,0,0,0,0l-.02-.15s0,0,0,0c-.01-.04-.03-.08-.03-.12l.02.15s0-.02,0-.04c0-.03,0-.05-.01-.08,0-.03,0-.05-.01-.08,0,0,0,0,0,0,0,0,0-.01,0-.02,0-.01,0-.03-.01-.04,0,0,0,0,0,0,0,0,0,0,0,0l-.06-.14c-.04-.07-.13-.17-.21-.21-.01,0-.12-.05-.14-.06l.13.06h0c.09.11.17.22.26.33-.03-.06-.04-.13-.05-.19l.02.13s0-.04,0-.06c0,0,0-.02,0-.03,0,0,0,0,0-.01,0-.09-.02-.17-.07-.24-.02-.03-.05-.07-.08-.1l.07.1s0-.01,0-.02l.05.11s0-.03,0-.05l.02.12c0-.05-.01-.11-.01-.17,0-.12-.07-.25-.18-.31h0c.05.09.1.18.15.27,0-.01,0-.02,0-.03,0-.05-.01-.1-.04-.15-.03-.04-.06-.08-.1-.1-.05-.03-.09-.04-.15-.04-.05,0-.1.01-.15.04h0Z"/>
      <path class="cls-3" d="M114.45,58.66s0,.06,0,.09l.02-.11c-.01.08-.03.16-.05.23l.05-.11c-.05.08-.08.16-.1.25-.02.1-.03.19-.03.29l.02-.15c-.02.1-.03.21,0,.31l.06.13s.06.08.09.12c0,0,0,0,.01.01.07.07.16.12.26.15.07.02.16.03.23.04.03,0,.06,0,.09,0,.08,0,.16-.02.24-.03.06-.01.13-.03.19-.06.1-.04.21-.09.31-.13l-.71-.09c.1.12.19.25.31.36.09.08.18.16.28.21.07.04.15.07.23.1.04.01.07.02.11.03.08.02.16.03.24.01.08,0,.15-.03.22-.07l.12-.09c.07-.07.12-.16.15-.26,0-.02.01-.03.02-.05l-.06.14c.03-.07.07-.14.12-.21l-.09.12s.06-.07.1-.1l-.12.09c.05-.04.11-.08.18-.11l-.14.06c.08-.03.17-.05.25-.08.06-.02.13-.05.19-.08.05-.03.11-.08.15-.13.06-.06.11-.13.15-.21l.05-.11.02-.12-.02-.12c-.01-.06-.04-.11-.08-.16-.02-.03-.05-.06-.08-.08-.03-.03-.06-.05-.1-.06-.04-.02-.08-.03-.12-.03-.06-.01-.12-.01-.19,0-.02,0-.04,0-.05.01l.13-.02s-.07,0-.1,0c-.08,0-.16.02-.25.03l.15-.02c-.15.02-.3.02-.44.06-.02,0-.05.01-.07.02-.06.02-.12.04-.17.07-.01,0-.02.02-.03.02-.06.04-.13.09-.18.15-.06.06-.1.13-.15.19-.02.03-.04.07-.06.11-.04.09-.08.19-.12.28l.73-.42c-.05,0-.1-.02-.15-.04l.14.06c-.06-.03-.11-.06-.16-.1l.12.09c-.14-.11-.25-.26-.37-.39l-.12-.09c-.07-.04-.14-.07-.22-.07-.05-.01-.1-.01-.15,0-.08,0-.15.03-.22.07-.06.03-.12.06-.18.08l.14-.06c-.08.03-.16.06-.25.07l.15-.02s-.08,0-.12,0l.15.02s-.04,0-.05-.01c-.03,0-.05-.01-.1-.02s-.06-.01-.1,0l.4.16h0s.06.07.09.11c0,0,0-.02-.01-.03l.06.13s-.03-.09-.04-.13c0-.02,0-.04-.02-.06-.02-.07-.05-.11-.08-.17l.05.11c-.02-.11-.04-.22-.08-.32-.01-.05-.04-.1-.07-.14-.03-.04-.07-.08-.11-.1l-.1-.04c-.05-.02-.11-.02-.16,0-.04,0-.07,0-.1.03-.05.02-.09.04-.13.08-.07.08-.12.17-.12.28h0Z"/>
      <path class="cls-3" d="M119.47,58.34s-.02.06-.03.09l.04-.1s0,.02-.01.03c-.02.04-.04.07-.05.11,0,0,0,.01,0,.02,0,.02,0,.04-.01.06s0,.04-.01.05c-.02.06-.02.11-.03.18,0,.04,0,.07,0,.11,0,.02,0,.04,0,.06,0,.07.01.14.03.2,0,.03.01.05.02.08,0,.01.01.03.02.04.02.05.04.1.07.15s.06.09.1.13l-.09-.11h0s-.04-.09-.06-.13c0,.02,0,.04.01.06.03.11.08.2.16.27.08.08.17.13.27.16.01,0,.03,0,.04.01.06.01.13.02.19.03.06,0,.12,0,.18-.02.05-.01.1-.03.14-.06,0,0,0,0,0,0,0,0,.12-.09.12-.09,0,0,0,0,0,0,0,0,0,0,0,0,.03-.04.06-.08.09-.12,0,0,0,0,0,0,.03-.04.05-.09.06-.14l.02-.16c0-.05-.01-.11-.02-.16l-.15.58c.07-.07.13-.16.15-.26,0,0,.02-.15.02-.16,0,0,0,0,0,0,0-.1-.03-.21-.08-.3-.03-.05-.07-.09-.1-.14,0,0-.02-.02-.02-.02-.05-.04-.09-.08-.14-.11l.11.08s-.05-.06-.08-.09l.08.1s-.04-.06-.05-.09l.05.11s0,0,0-.01l-.05-.11c-.03-.06-.07-.1-.12-.13-.03-.03-.06-.05-.1-.06-.06-.03-.12-.04-.18-.04l-.13.02-.11.05c-.06.03-.1.07-.13.12-.04.05-.07.1-.08.16,0,.03,0,.06-.01.08,0,.03,0,.06-.01.09,0,.02,0,.03,0,.05s0,.03,0,.05c0,.06.02.12.02.19,0,.02,0,.04,0,.05l-.02-.14s0,.05,0,.07l.02-.15s0,.01,0,.02l.06-.14s0,0,0,0l.09-.12s0,0,0,0l.12-.09s-.09.06-.12.09l.58-.15s-.05,0-.08-.01c-.08-.02-.16-.01-.24.01-.01,0-.13.06-.14.06l.14-.06s0,0,0,0l.16-.02s0,0,0,0l.16.02s0,0,0,0l.14.06s-.01,0-.02-.01l.12.09s-.03-.03-.04-.04c-.15-.16-.39-.22-.6-.16-.02,0-.03,0-.05.01h.3,0s.09.04.14.06c0,0,0,0-.01,0l.11.09s-.05-.05-.07-.08l.09.11s-.06-.09-.09-.15l.05.12s-.02-.05-.03-.07c0-.01,0-.02,0-.03,0-.01,0-.02-.01-.04,0-.02-.02-.05-.03-.07-.02-.06-.05-.12-.07-.18l.04.1c-.04-.1-.04-.12-.11-.2l.07.09c-.05-.06-.09-.12-.14-.17-.09-.09-.23-.13-.35-.09-.06.02-.11.05-.16.09-.04.04-.08.1-.09.16h0Z"/>
      <path class="cls-3" d="M122.55,57.64c-.04.14-.07.27-.09.41-.02.12-.03.23-.04.35,0,.07,0,.15,0,.22,0,.08,0,.16,0,.24,0,.08.01.16.05.23.02.07.07.14.12.19l.12.09c.09.05.19.08.3.08.03,0,.06,0,.09,0,.03,0,.06,0,.09,0,.06,0,.11,0,.17,0,.1,0,.21.01.31.02.18.02.37.05.56.05.05,0,.1,0,.15,0,.08,0,.16-.02.24-.03.01,0,.03,0,.04,0,.09-.02.23-.1.29-.17.08-.08.13-.17.16-.27.03-.08.03-.16.01-.24,0-.08-.03-.16-.07-.23-.05-.09-.13-.16-.22-.22-.11-.06-.24-.1-.36-.09-.02,0-.05,0-.07,0-.05,0-.09,0-.14,0-.09,0-.18,0-.27,0-.2-.01-.39-.04-.59-.04-.06,0-.13,0-.19,0-.12,0-.24.02-.36.05l.74.42c-.03-.13-.06-.26-.09-.39s-.06-.26-.08-.4l.02.13c-.01-.09-.02-.19-.02-.28,0-.06-.01-.12-.04-.17-.02-.05-.05-.1-.09-.14l-.09-.07c-.05-.03-.11-.05-.16-.05-.04-.01-.08-.01-.12,0-.06,0-.11.02-.16.05l-.09.07c-.05.06-.09.12-.11.19h0Z"/>
      <path class="cls-3" d="M99.69,59.05s0,0,0,.01l-.05-.12c.02.05.04.11.04.16l-.02-.14c0,.07,0,.14,0,.2l.02-.15s-.01.08-.03.13c0,.02-.01.04-.02.06l-.02.16c0,.06.01.11.02.16,0,0,0,0,0,0,0,0,0,.01,0,.02,0,.01,0,.02,0,.03l-.02-.16s0,.03,0,.04c0,0,0,.01,0,.02,0,.05,0,.11.02.16l.06.14s.06.08.09.12l.12.09c.07.04.14.06.21.07.05.01.1.01.15,0,.08,0,.15-.03.21-.07.08-.03.17-.14.21-.22,0,0,0-.01,0-.02,0-.01.01-.02.02-.04,0-.01.01-.02.02-.03.05-.11.11-.21.09-.34-.01-.1-.02-.21-.05-.31-.01-.05-.03-.09-.05-.14-.03-.08-.07-.17-.12-.25-.04-.06-.08-.11-.12-.16-.02-.02-.03-.04-.05-.05-.04-.05-.1-.08-.16-.1-.06-.03-.12-.04-.19-.04l-.13.02c-.06.02-.12.04-.17.09-.04.02-.07.05-.09.09-.04.05-.07.1-.09.17l-.02.13c0,.09.02.17.07.25h0Z"/>
      <path class="cls-3" d="M37.73,59.11s-.07.08-.1.12l.06-.07s-.06.07-.08.12c-.01.03-.02.03-.02.05,0,0,0,0,0,.01,0,.01,0,.02,0,.03,0,.02,0,.04-.01.06s0,.04-.01.07-.01.04-.02.06c-.01.04-.03.08-.04.13,0,.02,0,.04-.01.07s0,.04-.01.06c0,.04-.02.08-.03.11l.05-.13h0s.06-.07.08-.11c-.04.04-.07.08-.1.13l.2-.2h0s-.07.06-.11.09c-.05.05-.09.11-.11.18-.03.04-.04.09-.04.14-.02.07-.01.15,0,.22,0,.05.03.11.06.14,0,0,0,0,0,0,0,0,.09.11.09.11,0,0,0,0,0,0,0,0,.11.09.11.09,0,0,0,0,0,0,.04.03.09.05.14.06,0,0,.14.02.15.02.02,0,.14-.02.08-.01.07,0,.05,0,.08-.01,0,0,.13-.06.13-.06,0,0,0,0,0,0,0,0,0,0,0,0,0,0,0,0,0,0,0,0,0,0,0,0,0,0,.11-.08.11-.09,0,0,0,0,0,0,0,0,0,0,.01-.01,0,0,0,0,0,0,.03-.04.06-.08.09-.12,0,0,0-.01.01-.02.02-.03.04-.07.06-.1,0,0,0,0,0-.01.05-.1.07-.18.08-.29,0,0,0-.02,0-.03,0-.02,0-.04,0-.05,0-.02,0-.03,0-.05,0,0,0-.01,0-.02,0,0,0,0,0,0,0,0,0,0,0,0,0,0,0,0,0,0l-.02-.12s-.02-.08-.05-.11v.47h0c.03-.05.05-.11.06-.17.01-.06.01-.12,0-.19-.01-.06-.04-.11-.08-.16-.03-.05-.08-.09-.13-.12l-.11-.05c-.08-.02-.16-.02-.25,0l-.11.05c-.07.04-.13.1-.17.17h0c.13-.08.27-.15.4-.23-.07,0-.18.03-.24.07,0,0,0,0,0,0,0,0-.01,0-.02.01-.02.01-.03.02-.05.03,0,0-.02.01-.03.02,0,0,0,0-.01,0,0,0,0,0,0,0-.09.06-.15.11-.2.2-.01.02-.03.05-.04.07-.01.02-.03.04-.04.07l.09-.11s-.02.02-.03.03l.11-.09s0,0,0,0l.13-.06s0,0,0,0l.15-.02s0,0,0,0l.15.02s0,0,0,0l.13.06s0,0,0,0l.11.09s0,0,0,0l.09.11s0,0,0,0l.06.13s0,0,0-.01c-.03-.09-.07-.18-.14-.24-.07-.07-.15-.12-.24-.14h0c.08.05.16.09.24.14,0,0,0,0-.01-.01l.08.11s0,0,0,0l.05.13s0-.01,0-.02l.02.14c0-.06-.01-.12-.03-.18,0-.02,0-.03-.01-.05,0-.04-.02-.07-.03-.11s-.02-.07-.04-.11c0-.02-.01-.04-.02-.05s-.02-.03-.02-.05c0-.04-.01-.08-.02-.13v.1s.01-.03,0-.04c0,0,0-.01,0-.02,0-.04,0-.06-.01-.11l-.04-.09s-.04-.05-.06-.08l.06.07s-.02-.04-.03-.06c-.03-.05-.07-.09-.12-.12-.04-.02-.08-.04-.12-.04-.04,0-.09,0-.13,0-.05.02-.1.04-.14.08h0Z"/>
      <path class="cls-3" d="M40.58,59.25c-.02.08-.04.15-.06.23-.02.07-.04.13-.05.2-.02.07-.02.15-.03.22l.02-.12s0,.03-.01.04c0,0,0,.01,0,.02,0,0,0,0,0,.01-.03.11-.02.16,0,.27l-.02-.13c.01.11.02.21.06.32,0,.01.01.03.02.04.02.06.05.12.07.17.02.03.03.06.05.09.01.02.02.04.04.05,0,0,.01.02.02.03.04.05.07.1.11.14.07.07.15.12.25.15.1.03.2.03.3,0,.03-.01.06-.03.09-.04s.06-.02.09-.04c.01,0,.03-.01.04-.02.03-.02.05-.04.07-.06s.05-.04.07-.06c.01,0,.02-.02.03-.03.03-.04.07-.08.1-.13,0,0,0-.01.01-.02,0-.01.01-.02.02-.03s.01-.02.02-.04c0,0,0-.01,0-.02.01-.02.02-.05.03-.07.01-.03.02-.05.03-.08.01-.03.02-.07.04-.1l-.05.12c.03-.06.06-.12.07-.18,0-.02.01-.04.02-.07.02-.08.02-.17,0-.25-.02-.08-.06-.15-.12-.21-.06-.06-.13-.1-.21-.12-.08-.02-.17-.02-.25,0-.05.02-.11.04-.16.07-.02,0-.03.01-.05.02-.04.02-.1.07-.14.11-.01.01-.02.02-.03.03-.05.05-.1.11-.14.17-.01.02-.03.04-.04.06l.09-.11s-.04.04-.06.06l.11-.09s-.04.03-.07.04l.14-.06s-.05.02-.07.02l.55.15s0,0,0,0c-.02-.02-.04-.03-.06-.05-.02-.02-.04-.03-.06-.05l.12.09c-.07-.05-.14-.12-.19-.19l.08.11c-.04-.06-.08-.12-.11-.18l.05.12s0,0,0-.01c0,0,0,0,0,0,0-.02-.02-.04-.03-.06-.01-.04-.03-.08-.06-.11-.02-.03-.04-.05-.06-.07-.01-.01-.02-.02-.03-.04l.07.09s0-.01,0-.02l.05.11c-.02-.05-.04-.11-.06-.16s-.03-.12-.04-.17v.1c0-.06,0-.13,0-.19,0-.05,0-.09-.03-.13-.01-.04-.04-.08-.07-.11l-.07-.05s-.08-.04-.12-.04c-.03,0-.06,0-.09,0-.04,0-.08.01-.12.04l-.07.05s-.07.09-.08.14h0Z"/>
      <path class="cls-3" d="M43.38,58.66c-.02.15-.03.3-.03.45,0,.11.02.23.04.34.01.07.04.14.06.2.03.08.06.17.1.24.05.08.11.15.17.23l.12.09c.07.04.14.07.22.07.05.01.1.01.15,0,.08,0,.15-.03.22-.07.11-.09.24-.15.37-.2l-.14.06c.16-.07.33-.12.49-.18.12-.04.24-.09.36-.15.07-.03.13-.07.19-.11l-.84-.34c.03.08.07.16.1.24.01.03.03.06.05.09.09.13.18.23.31.31.08.05.17.08.26.1.02,0,.04,0,.06.01.11.02.23.04.34,0,.06-.02.11-.04.17-.07l-.14.06c.05-.02.11-.04.16-.07l-.14.06s.07-.03.1-.03l-.13.02s.05,0,.07,0c.08,0,.16-.02.23-.06.05-.03.09-.07.13-.12.04-.04.07-.09.08-.15.02-.08.02-.16,0-.24-.02-.07-.05-.14-.09-.21-.03-.05-.07-.1-.11-.14-.04-.05-.1-.08-.15-.12l.12.09s-.09-.07-.14-.11c-.1-.07-.21-.08-.32-.09-.02,0-.04,0-.06,0l.16.02s-.08-.01-.11-.03l.14.06s-.05-.02-.07-.04l.12.09s-.05-.05-.07-.07l.09.12s-.06-.08-.07-.12l.06.14s-.01-.03-.02-.04c-.03-.1-.08-.18-.15-.25-.05-.06-.11-.1-.19-.12-.07-.04-.14-.05-.22-.05-.1,0-.2.03-.29.08-.06.04-.14.08-.21.11l.14-.06c-.14.06-.29.1-.43.15-.08.02-.15.05-.23.08-.12.04-.24.09-.34.15-.12.06-.22.14-.32.23h.82s-.04-.05-.06-.07l.09.12s-.04-.05-.05-.07c-.03-.05-.07-.1-.11-.14-.01-.01-.02-.02-.03-.03l.09.11c-.06-.08-.1-.16-.14-.25l.05.12c-.07-.18-.11-.36-.13-.55-.01-.06-.04-.11-.08-.15-.03-.05-.07-.09-.12-.11l-.11-.04c-.06-.02-.12-.02-.18,0-.04,0-.08.01-.11.03-.06.02-.1.05-.14.09l-.07.09c-.04.07-.06.14-.06.22h0Z"/>
      <path class="cls-3" d="M48.72,58.49s-.02.04-.03.05l.06-.08c-.05.06-.06.07-.08.13-.02.03-.03.06-.03.1,0,.02,0,.04,0,.05v-.1c0,.1-.02.2-.03.3l.02-.11s0,.04,0,.06c0,.02,0,.04,0,.06l.02-.11s0,.04-.01.06c-.01.06-.02.11-.03.17,0,.04,0,.08,0,.12,0,.07,0,.14,0,.21,0,.08.02.16.03.24l-.02-.14s0,.05,0,.07c0,.03,0,.05.01.07l-.02-.14c0,.07.02.15.03.22,0,.02.01.04.02.07.03.06.05.13.09.19.03.04.06.09.1.13,0,0,0,0,0,.01,0,0,.01.01.02.02.03.03.09.08.14.11s.13.06.17.07c0,0,.02,0,.03,0,0,0,0,0,.01,0,0,0,0,0,0,0,.06,0,.11.02.17.02.08,0,.16,0,.23-.03.06-.02.12-.05.18-.08.01,0,.02-.01.04-.02.01,0,.03-.02.04-.03,0,0,0,0,.01,0,.02-.02.04-.03.07-.05.08-.06.1-.07.16-.17.02-.04.05-.11.07-.16.01-.03.02-.07.03-.1.02-.09.02-.18,0-.27-.02-.07-.05-.13-.09-.18-.04-.06-.08-.1-.14-.13-.08-.05-.17-.07-.26-.07-.04,0-.07,0-.11,0,0,0,0,0-.01,0,0,0,0,0,0,0-.08,0-.16.01-.23.05-.03,0-.05.02-.07.03,0,0-.02,0-.03.01-.02,0-.03.02-.05.02l.15-.06s-.05.02-.07.02c-.02,0-.04.01-.06.01l.16-.02s-.03,0-.05,0l.16.02s-.03,0-.05-.01l.14.06s-.04-.02-.05-.03l.12.09s-.02-.02-.03-.03l.09.12c-.08-.11-.09-.14-.21-.21l.12.09s-.04-.04-.06-.06l.09.11c-.05-.06-.08-.13-.11-.2l.05.12s-.04-.1-.05-.14c0-.03-.02-.05-.02-.08,0-.01,0-.03-.01-.04-.01-.05-.04-.1-.06-.14l.05.11s-.02-.04-.03-.07-.01-.05-.02-.07-.01-.05-.02-.07c0-.01,0-.02,0-.04,0,0,0-.01,0-.02,0,0,0,0,0-.01l-.04-.09s-.04-.06-.06-.08l.06.08s-.02-.04-.04-.05c-.03-.05-.07-.09-.12-.12-.05-.03-.11-.05-.17-.05-.06,0-.12.02-.17.05-.05.03-.09.07-.12.12h0Z"/>
      <path class="cls-3" d="M51.48,58.66c0,.08,0,.16,0,.24,0,.05,0,.1,0,.15,0,.02,0,.05,0,.07,0,.07.02.13.03.2,0,.01,0,.02,0,.03,0,0,0,0,0,.01.01.07.08.19.14.23,0,0,.02.01.02.02l-.12-.21s0,0,0,.01l-.02-.12s0,0,0,0l.02-.12s0,0,0,0l.05-.11s0,0,0,0l.07-.09s0,0,0,0l.09-.07s0,0,0,0l.11-.05s0,0,0,0l.12-.02s0,0,0,0l.12.02s0,0,0,0l.11.05s0,0,0,0l.09.07s-.02-.02-.03-.03l.07.09s-.06-.09-.09-.13l-.06-.08s-.08-.07-.13-.08c-.03-.02-.06-.03-.1-.03-.05-.01-.11,0-.16,0l-.1.04-.08.06s-.07.08-.08.13c-.02.05-.04.1-.03.15,0,.05,0,.11,0,.16,0,.05,0,.1.02.15,0,0,0,0,0,0,0,0,.05.11.05.11.02.04.05.07.07.1.06.06.13.1.21.12.12.03.25.02.36-.05.07-.04.13-.1.17-.17.02-.04.04-.08.05-.12l-.22.28s.08-.06.12-.09c0,0,0,0,0,0,.06-.06.11-.14.13-.23.01-.05.02-.09.02-.14,0,0,0-.02,0-.03,0-.02,0-.04,0-.06,0-.07-.01-.14-.03-.21-.02-.09-.05-.19-.08-.28-.01-.04-.02-.08-.03-.11-.01-.06-.04-.11-.08-.16-.03-.05-.08-.09-.13-.12l-.11-.05c-.06-.02-.12-.02-.18,0-.04,0-.08.01-.12.03-.06.02-.11.05-.15.1l-.07.09c-.04.07-.06.15-.06.23h0Z"/>
      <path class="cls-3" d="M56.86,60.42s.03-.02.04-.03l-.05.04c.06-.04.12-.08.18-.12.06-.03.11-.07.17-.09l-.08.04s.1-.04.15-.04h-.1c.05,0,.1,0,.15.01h-.1c.05,0,.1,0,.15.03l-.1-.04c.06.02.11.06.17.07.03,0,.05.02.08.03l-.1-.04s.06.03.09.04c0,0,.01,0,.02.01l.1.04s0,0,0,0c0,0,0,0,.01,0,.02,0,.03.01.05.02h.1s.07,0,.1,0l.09-.04s.08-.06.11-.1c.02-.02.04-.05.05-.09.02-.03.03-.06.03-.1,0-.03,0-.07,0-.1,0-.05-.02-.1-.05-.15-.03-.05-.07-.09-.1-.14-.03-.03-.07-.06-.11-.09,0,0-.02-.01-.03-.02-.04-.03-.08-.05-.12-.07,0,0,0,0-.01,0,0,0,0,0,0,0l-.05-.02s-.04-.02-.06-.02c-.01,0-.02,0-.03,0-.05,0-.11-.02-.17-.02-.07,0-.15,0-.22.02-.04,0-.07.02-.11.03-.06.02-.13.05-.19.08s-.11.08-.17.12c-.03.03-.07.06-.1.09-.04.04-.07.08-.09.12-.01.02-.03.04-.04.07-.03.05-.06.1-.08.15-.02.03-.03.06-.03.1,0,.03,0,.07,0,.1l.03.06s.04.05.07.07c.02.02.04.03.06.03.03.02.06.02.1.02h.07s.08-.04.11-.08h0Z"/>
      <path class="cls-3" d="M55.96,59.74s.09-.08.14-.12l-.06.04c.06-.05.12-.1.18-.15l-.06.05c.15-.12.32-.21.5-.29l-.09.04c.07-.03.13-.05.2-.08l-.09.04c.22-.09.45-.15.69-.18h-.11c.14,0,.29,0,.43-.01.13,0,.27,0,.4.02l-.11-.02c.11.01.22.04.32.07.05.02.09.03.14.04.06.02.1.03.17.03.02,0,.04,0,.06,0h-.1c.08,0,.13,0,.21-.01.08-.02.06-.02.09-.04.08-.05.14-.12.16-.21.03-.12,0-.25-.08-.35-.05-.07-.08-.11-.16-.16,0,0-.02,0-.02-.01-.02-.01-.03-.02-.05-.03-.07-.04-.14-.07-.21-.09-.09-.03-.18-.05-.27-.06-.13-.02-.27-.04-.4-.04-.25,0-.51.03-.76.1-.11.03-.23.07-.34.11-.13.06-.27.11-.4.19-.13.08-.26.18-.38.29s-.22.23-.32.36l.04-.06c-.06.07-.1.15-.15.23-.06.11-.04.25.07.33s.24.07.33-.02h0Z"/>
      <path class="cls-3" d="M55.52,58.18c.09-.09.19-.17.29-.25l-.06.05c.18-.13.37-.25.57-.33l-.08.03c.18-.08.38-.13.58-.16h-.1c.2-.01.4-.01.61.02h-.11c.23.02.45.08.66.17l-.11-.05c.32.13.6.33.87.53l-.1-.08c.08.06.16.12.24.18l-.1-.08s.05.04.08.07c.04.03.08.07.12.1.05.03.1.05.16.06.16.04.34,0,.46-.12.06-.06.1-.13.12-.21.02-.08.02-.17,0-.25-.02-.05-.04-.11-.06-.15s-.07-.09-.1-.13c-.03-.03-.06-.05-.09-.08-.09-.07-.18-.14-.27-.21-.12-.09-.25-.16-.38-.22-.29-.14-.59-.25-.9-.3-.17-.03-.33-.05-.5-.05s-.33.02-.49.04c-.3.05-.59.16-.84.31-.32.18-.6.44-.83.72-.05.06-.08.12-.08.19,0,.07.03.15.08.19.11.1.28.11.39,0h0Z"/>
      <g>
        <path class="cls-1" d="M46.63,70.07c.16.02.33.03.49.03s.32-.02.48-.04c.35-.04.7-.11,1.04-.2.64-.17,1.25-.43,1.86-.69.16-.07.33-.14.49-.22.22-.1.5-.19.61-.43.07-.15.09-.29.02-.44-.06-.14-.17-.24-.32-.28-.25-.08-.49.04-.72.14-.12.06-.24.11-.36.17-.24.11-.48.22-.72.32l.13-.05c-.7.3-1.43.55-2.19.65l.14-.02c-.16.02-.31.03-.47.05s-.32.03-.48.04c-.13,0-.25.05-.34.14-.08.08-.15.22-.14.34s.05.26.14.34l.1.08c.08.04.16.07.24.07h0Z"/>
        <path class="cls-1" d="M92.64,165.24c.09.03.18.06.27.09s.17.05.26.07c.19.06.37.12.56.19l-.11-.04c.27.12.56.21.83.31.26.09.51.2.77.31l-.12-.05c.54.23,1.07.49,1.59.78.25.14.5.28.75.43.13.07.28.14.42.14.29,0,.55-.23.54-.54,0-.17-.08-.33-.22-.44-.04-.03-.08-.06-.12-.09-.06-.04-.12-.07-.19-.11-.51-.29-1.04-.55-1.57-.78-.57-.25-1.15-.48-1.75-.64-.33-.09-.67-.14-1.01-.16-.14,0-.29-.01-.43-.01-.16,0-.31.03-.47.06-.11.02-.2.14-.19.25,0,.12.08.22.19.25h0Z"/>
        <path class="cls-1" d="M105.59,88.13l.2.04-.1-.04h0s-.06-.04-.09-.07l.04.03s0,0,0,0l.1.08.12.05s.1.01.14.02h.04s.1.02.15.02c.1.01.2.02.3.03h.08s.06,0,.08,0c.07,0,.14-.01.21-.05.07-.02.12-.06.17-.11.05-.05.09-.11.11-.17.03-.06.05-.13.05-.21l-.02-.14c-.03-.09-.07-.17-.14-.24l-.11-.08c-.08-.05-.17-.07-.27-.07-.02,0-.05,0-.08,0h-.07s-.1.01-.15.02c-.1,0-.2.02-.3.03h-.04s-.01,0-.02,0h0s-.09.01-.13.02c-.08.02-.11.04-.17.09-.03.02-.06.05-.09.07l.09-.07h0s.07-.03.1-.04l-.2.04-.09.04s-.08.06-.11.1c-.02.02-.04.05-.05.08-.02.05-.03.09-.03.15v.1s.04.06.05.09c.02.04.06.08.1.11.04.03.08.06.13.07h0Z"/>
        <path class="cls-1" d="M45.58,208.7c.1.14.2.28.31.41.09.11.18.22.26.33.17.22.35.43.52.65l-.09-.11c.22.29.44.58.64.89s.4.61.58.93c.05.09.09.17.14.26.07.13.19.22.29.32.06.06.14.1.22.13.11.03.22.02.32-.02.08-.03.14-.08.2-.15.06-.08.12-.19.1-.3,0-.07-.01-.13-.02-.2,0-.01,0-.03,0-.04l-.02-.15-.06-.14s0-.01-.01-.02c-.02-.03-.04-.07-.05-.1-.07-.13-.14-.25-.21-.38-.15-.25-.3-.5-.47-.73-.2-.27-.4-.53-.61-.79-.19-.22-.37-.45-.58-.66-.11-.12-.23-.23-.34-.35s-.24-.22-.37-.33c-.09-.08-.2-.14-.33-.14-.1,0-.2.04-.28.1-.08.06-.14.14-.17.24-.03.11-.03.26.05.36h0Z"/>
      </g>
    </g>
  </g>
</svg>