<?xml version="1.0" encoding="UTF-8"?>
<svg id="Layer_1" data-name="Layer 1" xmlns="http://www.w3.org/2000/svg" xmlns:xlink="http://www.w3.org/1999/xlink" viewBox="0 0 374.15 335.86">
  <defs>
    <style>
      .cls-1 {
        fill: #80acff;
      }

      .cls-2 {
        fill: #8189c4;
      }

      .cls-3 {
        fill: #f5f6dd;
      }

      .cls-4 {
        fill: #041063;
      }

      .cls-5 {
        fill: #ffa75d;
      }

      .cls-6 {
        fill: #00003f;
      }

      .cls-7 {
        clip-path: url(#clippath-1);
      }

      .cls-8 {
        clip-path: url(#clippath-2);
      }

      .cls-9 {
        fill: #28318c;
      }

      .cls-10 {
        clip-path: url(#clippath);
      }
    </style>
    <clipPath id="clippath">
      <path class="cls-9" d="M296.97,199.47c-.08,2.33-1.27,4.84-2.29,6.75-.86,1.61-2.04,2.77-3.43,3.6h-13.81c-8.75.01-71.87-.05-73.73,0-1.04,0-2.08,0-3.12.02-1.42-.83-2.62-2-3.48-3.62-.99-1.89-2.16-4.34-2.28-6.65,2.96-.05,5.92-.09,8.87-.09,1.86-.06,64.98,0,73.73,0,5.68-.01,11.39,0,17.09,0h2.44Z"/>
    </clipPath>
    <clipPath id="clippath-1">
      <path class="cls-2" d="M200.59,209.84c-5.69.05-11.39.21-17.09.21h-19.25c-8.73.01-71.87-.05-73.73,0-6.72,0-13.47.23-20.21.23h-16.6c-1.76-.85-3.27-2.13-4.3-4.06-.8-1.52-1.72-3.4-2.1-5.28-.11-.52.29-1.01.82-1.01h2.93c6.4-.01,12.83,0,19.25,0,6.75-.01,13.49-.23,20.21-.23,1.58-.05,47.08-.01,66.3-.01,3.48.01,6.09.01,7.43.01,6.4-.01,12.83,0,19.25,0,3.78-.01,7.56-.08,11.34-.14.11,2.31,1.28,4.77,2.28,6.65.86,1.62,2.06,2.79,3.48,3.62Z"/>
    </clipPath>
    <clipPath id="clippath-2">
      <path class="cls-4" d="M324.06,107.43c-.91,2.96-1.82,5.93-2.76,8.88-1.97,6.12-3.94,12.23-5.9,18.34-.19.59-.47,1.46-.81,2.55-.1.3-.21.62-.31.95-.15.46-.31.95-.48,1.46-.07.22-.14.46-.22.69-.05.15-.09.29-.14.42-.07.23-.15.47-.23.71-.11.37-.24.75-.37,1.14-.08.26-.17.54-.26.81-.3.91-.61,1.89-.93,2.89-.1.3-.19.59-.29.89-1.68,5.2-3.69,11.44-5.76,17.87-.25.77-.49,1.54-.74,2.32-.63,1.93-1.26,3.88-1.87,5.8-.17.54-.34,1.06-.51,1.59-1.06,3.3-2.1,6.55-3.09,9.6-.34,1.05-.67,2.08-.99,3.08-.5,1.57-.98,3.06-1.44,4.48-.11.35-.23.72-.34,1.06-.38,1.17-1.46,1.96-2.7,1.96-18.18-.01-36.37-.01-37.35.01-6.73,0-13.48.23-20.21.23h-19.3c-5.9.01-35.69-.02-55.56-.02-1.6,0-2.72-1.55-2.24-3.08,5.98-18.58,16.58-51.41,18.5-57.41,1.96-6.1,3.93-12.22,5.9-18.34.93-2.88,1.81-5.78,2.69-8.69.51-1.69,2.08-2.85,3.84-2.85,17.3.01,35.65.03,40.07.02,6.4,0,12.83.01,19.25,0,6.75,0,13.49-.23,20.21-.23,1.22-.03,28.48-.01,49.72-.01h2.49c1.5,0,2.56,1.44,2.13,2.87Z"/>
    </clipPath>
  </defs>
  <g>
    <g>
      <path class="cls-9" d="M296.97,199.47c-.08,2.33-1.27,4.84-2.29,6.75-.86,1.61-2.04,2.77-3.43,3.6h-13.81c-8.75.01-71.87-.05-73.73,0-1.04,0-2.08,0-3.12.02-1.42-.83-2.62-2-3.48-3.62-.99-1.89-2.16-4.34-2.28-6.65,2.96-.05,5.92-.09,8.87-.09,1.86-.06,64.98,0,73.73,0,5.68-.01,11.39,0,17.09,0h2.44Z"/>
      <g class="cls-10">
        <rect class="cls-2" x="275.14" y="202.2" width="11.88" height="3.92" rx=".64" ry=".64"/>
        <rect class="cls-2" x="259.4" y="202.2" width="11.88" height="3.92" rx=".64" ry=".64"/>
        <rect class="cls-2" x="251.17" y="201.79" width="5.19" height="4.72" rx=".64" ry=".64"/>
        <path class="cls-6" d="M248.24,196.17c0,.13-.04.24-.07.36-.04.16-.05.32-.07.48-.04.29-.05.58-.07.87-.03.56-.05,1.12-.07,1.69-.03,1.13-.03,2.27-.04,3.4-.02,2.28-.04,4.56.02,6.83.02.63.03,1.27.06,1.9s.05,1.33.16,1.98c.06.4.74.4.81,0,.18-1.13.18-2.3.2-3.45s.04-2.27.04-3.4,0-2.29,0-3.43,0-2.27-.03-3.4c-.02-.63-.03-1.27-.07-1.9-.02-.31-.02-.63-.06-.94-.02-.18-.04-.37-.07-.55-.03-.15-.08-.29-.09-.45-.02-.41-.62-.41-.64,0h0Z"/>
        <path class="cls-6" d="M290.25,196.06c-.04.61-.16,1.21-.21,1.81s-.05,1.21-.07,1.81c-.03,1.21-.02,2.42-.02,3.62-.01,2.43-.02,4.85-.01,7.28,0,1.37.03,2.73.1,4.09.01.28.24.55.54.54s.52-.24.54-.54c.13-2.41.12-4.83.11-7.24l-.04-7.28c0-.68-.01-1.36-.05-2.03s-.18-1.37-.23-2.06c-.03-.42-.62-.42-.65,0h0Z"/>
        <path class="cls-6" d="M198.16,197.26c-.03.34-.07.68-.11,1.01s-.04.66-.03,1.02c.02.71.13,1.42.27,2.12.27,1.35.79,2.67,1.42,3.89s1.41,2.33,2.36,3.3,2.02,1.76,3.24,2.32c.65.29,1.31.52,2.01.66s1.43.2,2.16.19c.19,0,.37-.01.56-.03.28-.02.28-.41,0-.44-.69-.06-1.37-.2-2.04-.38-.33-.09-.66-.19-.98-.31-.15-.06-.3-.12-.45-.17-.06-.02-.12-.05-.19-.07-.01,0-.14-.06-.04-.02-.05-.02-.1-.04-.15-.06-.59-.26-1.15-.58-1.68-.94-.13-.09-.26-.18-.38-.27-.06-.05-.13-.09-.19-.14.1.07,0,0-.02-.02-.04-.03-.08-.06-.12-.1-.24-.2-.48-.4-.7-.62s-.46-.46-.68-.71c-.1-.11-.19-.22-.28-.33-.05-.06-.1-.12-.15-.18-.02-.03-.05-.06-.07-.09-.03-.04-.03-.04,0,0-.02-.02-.03-.04-.05-.06-.39-.52-.75-1.07-1.06-1.63-.16-.29-.31-.58-.45-.87-.07-.14-.13-.28-.19-.42-.03-.07-.06-.15-.1-.22.05.11,0-.02-.01-.03-.02-.05-.04-.1-.06-.15-.25-.62-.46-1.25-.63-1.89-.19-.72-.36-1.45-.52-2.18-.08-.37-.13-.72-.22-1.07s-.17-.73-.19-1.1c-.01-.16-.23-.16-.24,0h0Z"/>
        <path class="cls-6" d="M276.4,204.22c.1.19.34.26.53.31.18.04.36.06.54.08.29.02.58.04.88.04l1.74.02c1.16.02,2.32,0,3.47,0,.3,0,.61,0,.91,0,.34,0,.7.02,1.03-.09.24-.08.44-.3.43-.57s-.18-.49-.43-.57c-.3-.1-.62-.08-.94-.09-.28,0-.55,0-.83,0h-1.75c-1.19,0-2.38,0-3.57.01-.34,0-.67.02-1,.05-.19.02-.39.04-.57.09-.09.03-.21.06-.29.11-.22.13-.28.39-.17.61h0Z"/>
        <path class="cls-6" d="M260.84,204.22c.1.19.34.26.53.31.18.04.36.06.54.08.29.02.58.04.88.04l1.74.02c1.16.02,2.32,0,3.47,0,.3,0,.61,0,.91,0,.34,0,.7.02,1.03-.09.24-.08.44-.3.43-.57s-.18-.49-.43-.57c-.3-.1-.62-.08-.94-.09-.28,0-.55,0-.83,0h-1.75c-1.19,0-2.38,0-3.57.01-.34,0-.67.02-1,.05-.19.02-.39.04-.57.09-.09.03-.21.06-.29.11-.22.13-.28.39-.17.61h0Z"/>
      </g>
    </g>
    <g>
      <path class="cls-2" d="M200.59,209.84c-5.69.05-11.39.21-17.09.21h-19.25c-8.73.01-71.87-.05-73.73,0-6.72,0-13.47.23-20.21.23h-16.6c-1.76-.85-3.27-2.13-4.3-4.06-.8-1.52-1.72-3.4-2.1-5.28-.11-.52.29-1.01.82-1.01h2.93c6.4-.01,12.83,0,19.25,0,6.75-.01,13.49-.23,20.21-.23,1.58-.05,47.08-.01,66.3-.01,3.48.01,6.09.01,7.43.01,6.4-.01,12.83,0,19.25,0,3.78-.01,7.56-.08,11.34-.14.11,2.31,1.28,4.77,2.28,6.65.86,1.62,2.06,2.79,3.48,3.62Z"/>
      <g class="cls-7">
        <path class="cls-9" d="M101.78,197.47s-.01.05-.02.08l.1-.13c-.09.06-.16.12-.18.22,0,.02,0,.04,0,.06-.01.07-.03.15-.03.22,0,.1,0,.19,0,.29,0,.14.01.28.04.42.02.11.05.22.07.33.05.23.1.45.18.67s.17.45.26.68c.39.93.86,1.87,1.59,2.58.08.08.17.15.26.22.11.09.23.2.37.26s.25.1.4.13c.06,0,.12.02.18.03.09,0,.17-.03.25-.07.03-.02.06-.03.08-.05.15-.09.17-.25.11-.4-.03-.06.03.1,0,.01,0-.02,0-.03-.01-.05-.04-.13-.12-.2-.21-.29-.04-.04-.08-.08-.13-.12-.08-.07-.16-.13-.24-.2l.11.09c-.25-.19-.46-.42-.65-.67l.09.12c-.38-.49-.7-1.03-.96-1.59-.08-.17-.15-.33-.23-.5l.06.14c-.12-.29-.23-.6-.35-.89l.06.13c-.11-.28-.22-.56-.32-.84-.06-.16-.14-.31-.21-.46-.01-.03-.02-.05-.04-.08,0-.02-.01-.03-.02-.05-.01-.03,0,0,.03.06,0-.04-.02-.07-.05-.1-.03-.05-.06-.1-.09-.15-.05-.09-.17-.17-.28-.16h-.02c.06.04.13.08.19.11-.02-.03-.03-.06-.05-.09-.08-.14-.31-.11-.34.04h0Z"/>
        <path class="cls-9" d="M141.89,197.47s-.01.05-.02.08l.1-.13c-.09.06-.16.12-.18.22,0,.02,0,.04,0,.06-.01.07-.03.15-.03.22,0,.1,0,.19,0,.29,0,.14.01.28.04.42.02.11.05.22.07.33.05.23.1.45.18.67s.17.45.26.68c.39.93.86,1.87,1.59,2.58.08.08.17.15.26.22.11.09.23.2.37.26s.25.1.4.13c.06,0,.12.02.18.03.09,0,.17-.03.25-.07.03-.02.06-.03.08-.05.15-.09.17-.25.11-.4-.03-.06.03.1,0,.01,0-.02,0-.03-.01-.05-.04-.13-.12-.2-.21-.29-.04-.04-.08-.08-.13-.12-.08-.07-.16-.13-.24-.2l.11.09c-.25-.19-.46-.42-.65-.67l.09.12c-.38-.49-.7-1.03-.96-1.59-.08-.17-.15-.33-.23-.5l.06.14c-.12-.29-.23-.6-.35-.89l.06.13c-.11-.28-.22-.56-.32-.84-.06-.16-.14-.31-.21-.46-.01-.03-.02-.05-.04-.08,0-.02-.01-.03-.02-.05-.01-.03,0,0,.03.06,0-.04-.02-.07-.05-.1-.03-.05-.06-.1-.09-.15-.05-.09-.17-.17-.28-.16h-.02c.06.04.13.08.19.11-.02-.03-.03-.06-.05-.09-.08-.14-.31-.11-.34.04h0Z"/>
        <path class="cls-9" d="M106.37,203.38c.12.16.24.22.43.27.18.04.35.06.53.08.28.03.56.05.84.06.57.02,1.15.02,1.72.02h3.47c2.29.02,4.58,0,6.87-.01l6.91-.03c2.29-.01,4.58-.02,6.87-.02l6.87-.02c.29,0,.58-.04.87-.08.24-.03.46-.19.46-.46s-.21-.42-.46-.46c-.29-.04-.58-.08-.87-.08h-.84c-.57,0-1.15,0-1.72,0h-3.47c-2.29-.02-4.58-.02-6.87-.03l-6.91-.03c-2.29-.01-4.58-.02-6.87-.03-1.15,0-2.29,0-3.44,0s-2.3-.04-3.44.08c-.17.02-.34.03-.51.08-.06.01-.12.02-.18.04-.13.04-.2.12-.29.23-.08.1-.08.3,0,.4h0Z"/>
      </g>
    </g>
    <path class="cls-2" d="M296.62,192.97c-.22.67-.42,1.33-.63,1.96-.37,1.13-.71,2.2-1.02,3.17-.03.13-.08.24-.11.35-.11.35-.23.7-.33,1.03-5.7,0-11.41-.01-17.09,0-8.75,0-71.87-.06-73.73,0-2.95,0-5.91.05-8.87.09-3.78.06-7.56.13-11.34.14-6.43,0-12.85-.01-19.25,0-1.34,0-3.96,0-7.43-.01.42-1.31,1.91-5.92,2.45-7.63-.48,1.52.64,3.08,2.24,3.08,19.87,0,49.66.03,55.56.02h19.3c6.73,0,13.48-.23,20.21-.23.98-.02,19.17-.02,37.35-.01,1.23,0,2.32-.79,2.7-1.96Z"/>
    <g>
      <path class="cls-4" d="M324.06,107.43c-.91,2.96-1.82,5.93-2.76,8.88-1.97,6.12-3.94,12.23-5.9,18.34-.19.59-.47,1.46-.81,2.55-.1.3-.21.62-.31.95-.15.46-.31.95-.48,1.46-.07.22-.14.46-.22.69-.05.15-.09.29-.14.42-.07.23-.15.47-.23.71-.11.37-.24.75-.37,1.14-.08.26-.17.54-.26.81-.3.91-.61,1.89-.93,2.89-.1.3-.19.59-.29.89-1.68,5.2-3.69,11.44-5.76,17.87-.25.77-.49,1.54-.74,2.32-.63,1.93-1.26,3.88-1.87,5.8-.17.54-.34,1.06-.51,1.59-1.06,3.3-2.1,6.55-3.09,9.6-.34,1.05-.67,2.08-.99,3.08-.5,1.57-.98,3.06-1.44,4.48-.11.35-.23.72-.34,1.06-.38,1.17-1.46,1.96-2.7,1.96-18.18-.01-36.37-.01-37.35.01-6.73,0-13.48.23-20.21.23h-19.3c-5.9.01-35.69-.02-55.56-.02-1.6,0-2.72-1.55-2.24-3.08,5.98-18.58,16.58-51.41,18.5-57.41,1.96-6.1,3.93-12.22,5.9-18.34.93-2.88,1.81-5.78,2.69-8.69.51-1.69,2.08-2.85,3.84-2.85,17.3.01,35.65.03,40.07.02,6.4,0,12.83.01,19.25,0,6.75,0,13.49-.23,20.21-.23,1.22-.03,28.48-.01,49.72-.01h2.49c1.5,0,2.56,1.44,2.13,2.87Z"/>
      <g class="cls-8">
        <path class="cls-1" d="M177.38,167.65c-1.16,1.51-12.43,2.08-13.46.94-2.56-2.83.75-13.61,1.43-16.51,2.66-11.39,6.65-22.11,10.19-33.23,1.69-5.31,2.7-15.84,8.7-17.9,4.26-1.46,9.37-1.3,13.85-1.48,6.56-.28,13.19-.14,19.78-.34,15.66-.47,31.35.27,47,.31s30.56-.4,45.84,1.13c4.95.5,9.85,1.52,14.82,1.58,1.37.02,6.63-1.19,7.73-.32,1.79,1.43-1.94,8.32-2.72,10.31-2.17,5.48-4.04,11-5.78,16.64-2.52,8.16-4.91,16.35-7.55,24.48-1.46,4.49-2.55,10.76-6.19,14.19-4.52,4.26-13.58,2.01-19.16,2.01l-114.47-1.8Z"/>
        <path class="cls-5" d="M191.8,146c3.52-1.35,6.96-2.85,10.44-4.24,2.21-.88,5.8-2.98,8.26-2.69,5.28.61,7.54,5.59,11.84,7.71,3.86,1.9,9.41-.78,13.05-2.18,4.07-1.57,10.92-6.18,15.4-5.52s8.95,5.73,12.65,7.88c2.77,1.61,8.22,1.01,10.99-.38,5.11-2.57,10.3-5.13,15.66-7.19,6.23-2.39,10.19,2.09,15.1,5.28,2.9,1.88,5.57,3.95,8.38,5.98,2.43,1.75,7.79,2.83,8.91,5.99.61,1.73-1.59,5.67-2.21,7.38-1.49,4.13-3.13,8.25-4.39,12.46-1.9,6.34-1.8,14.18-4.77,20.13-1.39,2.79-2.36,2.76-5.79,3.15-11.04,1.26-21.88.5-32.96.33-17.86-.27-35.82,1.11-53.7,1.23-15.18.1-30.41,1.04-45.58.9-6.68-.06-14.92.87-21.28-1.31-.61-9.89,2.72-22.4,6.51-31.55,2.26-5.46,5.34-10.58,10.35-13.99,6.68-4.55,15.66-6.49,23.14-9.36Z"/>
        <path class="cls-9" d="M191.12,115.2c-1,1-1.22,2.47-.41,3.58,1.66,2.28,3.98,1.1,4.72-1.25.92-2.91-2.11-4.53-4.31-2.34Z"/>
        <path class="cls-3" d="M188.18,122.34s-.06.04-.08.07c-.02.02-.04.05-.05.07-.02.03-.02.01.03-.04-.07.07-.11.2-.08.3s.07.19.16.26c.1.1.2.14.33.19s.25.06.38.08c.12.01.23.02.35.03.27.01.55,0,.83,0,.29,0,.59-.02.88-.02s.59,0,.88.04l-.13-.02c.08.01.16.02.24.04.15.04.29.1.45.05s.26-.14.32-.29.05-.29-.02-.44c-.1-.19-.33-.27-.53-.3-.15-.02-.3-.04-.45-.05-.27-.01-.54,0-.8.01-.29.02-.59.04-.88.06-.27.02-.55.03-.82.05-.13,0-.25.01-.38,0-.1,0-.2,0-.29-.01h.1s-.1,0-.15,0h.09s-.07,0-.1-.01l.08.03s-.04-.02-.05-.03l.06.05s-.01-.01-.02-.02c0,0,0,0,0,0,0,0,.08.11.02.02-.06-.08-.14-.11-.24-.12l.15.04s.07.06.02.02c-.03-.03.04.07.03.03,0,0,0-.01-.01-.02-.05-.1-.2-.14-.3-.08h0Z"/>
        <path class="cls-3" d="M193.96,122.67s0,.02,0,.04l.04-.16s-.04.05-.05.11v.05s-.02.07,0,.1c0,.06.01.1.05.15.02.02.03.04.05.07.02.03.05.06.07.09.05.06.12.11.19.15.06.03.12.06.18.09s.12.05.19.07c.09.03.18.03.27.04.05,0,.1,0,.15.01.15,0,.29-.02.43-.04.05,0,.11-.01.16-.03.02,0,.05-.02.07-.03.05-.02.11-.04.16-.07.03-.01.04-.03.07-.05l.05-.04.08-.11c.04-.06.06-.13.06-.2,0-.03.01-.06,0-.09l-.07.25s.02-.03.02-.04c.04-.07.06-.15.06-.23,0-.06-.01-.12-.04-.18-.02-.06-.05-.11-.1-.15-.06-.06-.13-.1-.21-.12-.01,0-.03,0-.04-.01l.22.13s-.07-.07-.12-.1c-.08-.05-.17-.07-.27-.07-.05,0-.11,0-.16.02-.01,0-.02,0-.03,0-.02,0-.04.01-.07.02-.05.01-.09.03-.14.05-.1.03-.19.05-.29.06l.14-.02c-.08.01-.16.02-.23.01s-.15,0-.23-.01l.12.02s-.07-.01-.1-.02c-.02,0-.03,0-.05-.01,0,0-.02,0-.02,0-.04-.01-.09-.02-.14-.02l.12.02s-.06-.01-.09-.02c-.01,0-.03,0-.04-.01-.03,0-.04,0-.07-.01-.02,0-.04,0-.06,0h-.1s-.06.04-.09.05c-.03.02-.06.04-.08.06l.22-.09s-.02,0-.03,0c-.04,0-.07,0-.11.02-.03.01-.06.03-.09.06-.05.05-.08.12-.08.2h0Z"/>
        <path class="cls-9" d="M187.25,129.16c-1,1-1.22,2.47-.41,3.58,1.66,2.28,3.98,1.1,4.72-1.25.92-2.91-2.11-4.53-4.31-2.34Z"/>
        <path class="cls-3" d="M184.8,136.6s.03.04.02.04-.04-.1-.02-.04c.02.06.05.12.08.17.02.03.03.06.05.09.04.06-.03-.1-.02-.03,0,.02.01.04.01.06.03.15.18.28.32.32.17.05.32-.01.45-.12.07-.06-.1.06-.02.02.02-.01.04-.03.06-.04.06-.03.11-.06.17-.09.14-.07.27-.17.38-.28h-.68c.34.31.76.51,1.22.54s.92-.19,1.26-.5l-.77-.1c.12.26.37.43.54.64l-.08-.1s.05.07.07.11c.06.14.22.22.36.23.16.02.3-.03.41-.13.03-.03.06-.05.09-.08l-.1.08c.32-.24.71-.39.99-.68l-.78-.1c.23.38.6.66,1.06.65.32,0,.62-.13.93-.18l-.13.02c.11-.01.22-.02.33,0l-.13-.02c.06,0,.11.02.17.03.24.05.48-.05.58-.28.04-.1.06-.22.02-.32-.04-.11-.11-.25-.23-.29-.09-.04-.17-.08-.27-.09-.09-.01-.18-.03-.27-.03-.15,0-.3.02-.44.05-.2.04-.39.11-.59.14l.13-.02c-.08,0-.15.01-.23,0l.13.02s-.09-.02-.14-.04l.12.05s-.09-.05-.14-.08l.1.08c-.05-.04-.1-.09-.15-.15l.08.1s-.06-.08-.08-.12c-.16-.26-.55-.34-.78-.1-.04.05-.09.09-.14.13l.1-.08c-.3.23-.66.37-.93.63l.77.1c-.12-.26-.38-.42-.55-.64l.08.1s-.05-.07-.07-.12c-.06-.14-.22-.21-.36-.23-.15-.02-.3.03-.41.13-.04.04-.09.08-.13.12l.1-.08c-.09.07-.18.12-.28.16l.12-.05c-.1.04-.2.06-.3.08l.13-.02c-.1.01-.2.01-.3,0l.13.02c-.12-.02-.23-.05-.34-.09l.12.05c-.12-.05-.23-.12-.33-.2l.1.08s-.07-.06-.11-.09c-.19-.17-.49-.19-.68,0-.03.03-.06.05-.09.08l.1-.08c-.22.17-.47.28-.64.51h.79c-.06-.1-.14-.19-.23-.27-.08-.07-.14-.12-.25-.14-.04,0-.08-.01-.11-.02-.13-.04-.28.02-.36.12s-.11.27-.03.38h0Z"/>
        <path class="cls-9" d="M182.96,144.13c-1,1-1.22,2.47-.41,3.58,1.66,2.28,3.98,1.1,4.72-1.25.92-2.91-2.11-4.53-4.31-2.34Z"/>
        <path class="cls-3" d="M180.51,151.57s.03.04.02.04-.04-.1-.02-.04c.02.06.05.12.08.17.02.03.03.06.05.09.04.06-.03-.1-.02-.03,0,.02.01.04.01.06.03.15.18.28.32.32.17.05.32-.01.45-.12.07-.06-.1.06-.02.02.02-.01.04-.03.06-.04.06-.03.11-.06.17-.09.14-.07.27-.17.38-.28h-.68c.34.31.76.51,1.22.54s.92-.19,1.26-.5l-.77-.1c.12.26.37.43.54.64l-.08-.1s.05.07.07.11c.06.14.22.22.36.23.16.02.3-.03.41-.13.03-.03.06-.05.09-.08l-.1.08c.32-.24.71-.39.99-.68l-.78-.1c.23.38.6.66,1.06.65.32,0,.62-.13.93-.18l-.13.02c.11-.01.22-.02.33,0l-.13-.02c.06,0,.11.02.17.03.24.05.48-.05.58-.28.04-.1.06-.22.02-.32-.04-.11-.11-.25-.23-.29-.09-.04-.17-.08-.27-.09-.09-.01-.18-.03-.27-.03-.15,0-.3.02-.44.05-.2.04-.39.11-.59.14l.13-.02c-.08,0-.15.01-.23,0l.13.02s-.09-.02-.14-.04l.12.05s-.09-.05-.14-.08l.1.08c-.05-.04-.1-.09-.15-.15l.08.1s-.06-.08-.08-.12c-.16-.26-.55-.34-.78-.1-.04.05-.09.09-.14.13l.1-.08c-.3.23-.66.37-.93.63l.77.1c-.12-.26-.38-.42-.55-.64l.08.1s-.05-.07-.07-.12c-.06-.14-.22-.21-.36-.23-.15-.02-.3.03-.41.13-.04.04-.09.08-.13.12l.1-.08c-.09.07-.18.12-.28.16l.12-.05c-.1.04-.2.06-.3.08l.13-.02c-.1.01-.2.01-.3,0l.13.02c-.12-.02-.23-.05-.34-.09l.12.05c-.12-.05-.23-.12-.33-.2l.1.08s-.07-.06-.11-.09c-.19-.17-.49-.19-.68,0-.03.03-.06.05-.09.08l.1-.08c-.22.17-.47.28-.64.51h.79c-.06-.1-.14-.19-.23-.27-.08-.07-.14-.12-.25-.14-.04,0-.08-.01-.11-.02-.13-.04-.28.02-.36.12s-.11.27-.03.38h0Z"/>
        <path class="cls-3" d="M303.28,192.52c-1.3-.08-2.59-.16-3.87-.19s-2.58-.03-3.87-.04c-2.58-.02-5.16-.01-7.75-.01h-7.75c-2.58,0-5.16,0-7.75,0h-7.75c-2.58,0-5.16,0-7.75,0h-7.75c-2.58,0-5.16,0-7.75,0h-7.75c-2.58,0-5.16,0-7.75,0h-7.75c-2.58,0-5.16,0-7.75,0h-7.75c-2.58,0-5.16,0-7.75,0h-7.75c-2.58,0-5.16,0-7.75,0h-7.75c-2.58,0-5.16,0-7.75,0h-7.75c-2.58,0-5.16.02-7.75.04-1.25,0-2.5.06-3.75.06-.25,0-.46.21-.46.46s.21.46.46.46c1.29,0,2.58.05,3.87.06l3.87.03c2.58.02,5.16.01,7.75.01h7.75c2.58,0,5.16,0,7.75,0h7.75c2.58,0,5.16,0,7.75,0h7.75c2.58,0,5.16,0,7.75,0h7.75c2.58,0,5.16,0,7.75,0h7.75c2.58,0,5.16,0,7.75,0h7.75c2.58,0,5.16,0,7.75,0h7.75c2.58,0,5.16,0,7.75,0h7.75c2.58,0,5.16,0,7.75,0h7.75c2.58,0,5.17,0,7.75-.06,1.24-.03,2.49-.11,3.75-.19.42-.02.42-.62,0-.65h0Z"/>
        <path class="cls-3" d="M286.67,190.43c.05,0,.11-.01.16-.02h-.09s.03,0,.05,0h.05s.05-.03.08-.04l.03-.03s.02-.02.04-.03c0,0,0,0,0,0,0,0,0,0,.01-.01,0,0,.02-.02.03-.02.02-.02.04-.03.06-.05.04-.04.08-.07.11-.11.07-.07.14-.14.21-.21.02-.02.03-.03.05-.05.01-.02.03-.04.04-.05l-.1.08s0,0,.01,0l-.12.05s.08-.03.12-.05c.06-.03.11-.08.14-.13.04-.05.08-.11.09-.17,0,0,0,0,0,0,0,0,0,0,0-.01,0,0,0-.01,0-.02,0,0,0,0,0,0,0-.02,0-.04.01-.07.01-.08.02-.11,0-.2-.01-.04-.04-.09-.05-.13l-.08-.1s-.1-.08-.16-.1c-.04-.02-.08-.03-.12-.03-.06-.01-.13-.01-.19,0,0,0,0,0-.01,0-.06.02-.12.05-.17.09-.02.01-.04.03-.05.04-.01.01-.07.09-.08.1,0,0,0,0,0,0,0,0,0,.01-.01.02-.08.12-.09.27-.06.41l-.02-.13s0,.01,0,.02l.02-.13s0,.03-.01.04c0,.01,0,.03-.01.04,0,.03-.02.06-.03.09-.02.06-.05.13-.07.19-.01.04-.03.07-.04.11l.04-.09c-.02.06-.05.11-.08.17,0,.01-.01.03-.02.04-.03.06-.06.12-.05.19,0,0,0,.01,0,.02,0,.02,0,.04,0,.06,0,.04,0,.07.02.1.01.03.03.06.05.08l.05.04s.08.04.13.04h0Z"/>
        <path class="cls-3" d="M289.21,190.23s.04-.03.06-.05l-.09.07h0s.06-.05.09-.07c.03-.03.05-.06.07-.1,0,0,0,0,.01-.01,0,0,.01-.02.02-.03l-.07.09c.04-.06.09-.11.13-.17.02-.03.03-.05.05-.08.04-.05.07-.11.11-.16l-.08.1c.05-.06.09-.12.15-.17.02-.03.05-.05.07-.07s.05-.05.07-.07l-.93-.39s0,.09,0,.13c.01.08.02.17.04.25.02.07.05.15.09.22.01.02.02.05.04.07.03.04.06.08.1.12,0,0,0,0,.01.01,0,0,.02.02.02.03.04.04.09.07.14.11,0,0,.02.01.03.02.06.03.12.06.18.08.05.02.11.03.17.02.05,0,.1-.01.15-.02,0,0,0,0,.01,0,.02,0,.03,0,.04-.01,0,0,0,0,.01,0,.04-.02.09-.03.13-.05s.08-.06.11-.08l-.22.13h0c.06-.02.12-.04.17-.09.05-.03.1-.08.13-.14l.05-.12c.02-.06.02-.13,0-.19,0-.04-.01-.09-.03-.12-.02-.06-.05-.11-.1-.16l-.1-.08c-.08-.04-.16-.07-.25-.07h0c.08.02.16.04.25.07,0,0-.11-.05-.12-.05,0,0,0,0,0,0,0,0,0,0,0,0,0,0,0,0,0,0l.12.05s-.04-.02-.06-.03l.11.08s0,0-.01-.01c0,0,0,0,0,0-.09-.08-.13-.1-.24-.14l.13.05s-.04-.02-.06-.04l.11.09s-.03-.03-.04-.04c-.02-.01-.03-.03-.04-.05l.09.11s-.04-.06-.06-.1l.06.13c-.02-.05-.04-.11-.04-.17l.02.15s0-.09,0-.13l-.02-.15-.06-.13-.09-.11c-.05-.05-.11-.09-.18-.11-.04-.02-.09-.04-.14-.04-.05-.01-.1-.01-.15,0-.05,0-.1.01-.14.04-.07.02-.13.06-.18.11-.11.11-.2.24-.28.37s-.14.29-.2.44c0,.02-.01.03-.02.05s0,.03-.01.05c-.01.07-.02.14-.03.22l.02-.12s-.01.08-.02.12c0,.04,0,.08.02.12l-.02-.12c0,.06.02.13.03.19.02.07.05.13.11.18.05.05.11.09.18.11.07.02.15.02.22,0,.07-.02.13-.05.18-.11h0Z"/>
        <path class="cls-3" d="M291.3,189.85s.01,0,.02-.01l-.06.05s.06-.04.09-.06c.06-.04.11-.08.17-.13l-.07.06c.11-.09.24-.16.37-.22l-.1.04c.13-.06.27-.1.42-.12l-.55-.31c.06.25.16.48.23.72.02.07.03.14.04.21l-.02-.13c.01.1,0,.19,0,.29l.02-.14c-.01.09-.03.18-.04.27l.02.14c.02.07.05.13.1.18.02.04.06.07.1.1.05.05.11.08.18.1l.14.02.14-.02c.07-.02.13-.05.18-.1.06-.04.1-.09.14-.15.02-.04.04-.07.07-.11.01-.02.02-.04.03-.05.03-.06.06-.12.08-.18.03-.08.06-.15.08-.23l.02-.12c0-.06-.01-.12-.04-.18-.01-.04-.03-.07-.06-.1-.03-.05-.08-.09-.13-.12l-.11-.05-.12-.02c-.06,0-.12.01-.18.04-.06.02-.11.05-.15.1-.06.06-.12.12-.18.17,0,0,0,0-.01.01-.03.03-.07.08-.09.11,0,0-.01.02-.02.03-.01.02-.02.03-.04.05-.03.04-.05.07-.08.11l.98.41c.01-.07.03-.14.02-.2,0-.02,0-.05,0-.07,0-.09-.02-.17-.03-.26s-.03-.16-.06-.24-.05-.16-.08-.23c-.05-.11-.1-.22-.15-.33-.04-.08-.08-.17-.12-.26l.05.11c-.03-.07-.06-.14-.09-.21l-.07-.09s-.09-.07-.14-.09c-.03-.02-.07-.03-.11-.03-.06-.01-.12-.01-.18,0-.11.04-.21.08-.31.13-.07.03-.13.07-.2.12-.15.1-.3.22-.41.36-.03.04-.07.08-.09.12,0,.02-.02.04-.03.05-.03.06-.05.12-.08.18v.08s0,.08.02.12c0,.03.02.05.04.07.02.03.05.06.09.08l.07.03h.08s.08,0,.12-.02c.04-.01.07-.03.1-.06h0Z"/>
        <path class="cls-3" d="M318.01,108.43s-.01,0-.02,0l.11-.05s-.01,0-.02,0l.13-.02s0,0-.01,0l.13.02s0,0,0,0l.12.05s0,0,0,0l.11.08s0,0,0,0l.08.11s0,0,0-.01l.05.13s0,0,0,0l-.05.42h0s.04-.09.06-.13c.02-.07.03-.15,0-.22,0-.05-.01-.1-.04-.14-.02-.07-.06-.13-.11-.18,0,0,0,0,0,0l.09.11s-.01-.02-.02-.03c0,0,0-.01-.01-.02-.04-.09-.08-.11-.15-.16-.02-.02-.04-.03-.06-.05l-.14-.06c-.07-.02-.1-.02-.16-.02l-.15.02c-.07.02-.14.05-.19.1-.04.02-.08.06-.1.1-.05.05-.08.12-.1.19-.03.09-.03.22,0,.31,0,.02.02.05.03.07.02.07.06.13.12.18,0,0,0,0,0,0,0,0,.01.01.02.02.04.03.09.07.13.1,0,0,.01,0,.02.01l.13.06c.07.02.15.03.22,0,.05,0,.1-.01.14-.04.07-.02.13-.06.18-.11h0c-.08.04-.16.09-.24.14,0,0,0,0,.01,0,.02,0,.11-.05.13-.05,0,0,0,0,0,0,0,0,0,0,0,0,.02-.01.09-.07.05-.04l.05-.04h0s0,0,0,0c0,0,0,0,0,0,0,0,0,0,0,0h0s.03-.03.04-.05l.04-.05h0s0,0,0,0c0,0,0,0,0,0,0,0,0,0,0,0,0,0,.05-.12.05-.12,0,0,0,0,0,0,0,0,0,0,0,0,0-.02.02-.12.02-.13,0,0,0,0,0,0,0,0,0,0,0,0,0,0,0,0,0,0,0-.02-.01-.11-.02-.13,0,0,0,0,0,0,0,0,0-.01,0-.02-.02-.08-.06-.15-.12-.21-.04-.05-.09-.08-.15-.1-.06-.03-.12-.04-.18-.04-.08,0-.16.02-.23.06h0Z"/>
        <path class="cls-3" d="M316.16,108.7s0-.02,0-.03l-.07.12s.03-.03.03-.04c.03-.03.05-.07.06-.11v-.09s0-.06,0-.09v.09s0-.04,0-.06,0-.04,0-.06c0,0,0-.01,0-.02,0,0-.03-.08-.04-.09,0,0,0,0,0,0,0,0,0,0,0,0s0,0,0,0c0,0,0,0,0,0,0,0-.05-.07-.06-.07,0,0,0,0,0,0,0,0-.07-.06-.07-.06,0,0,0,0,0,0,0,0,0,0,0,0,0,0-.09-.04-.09-.04,0,0,0,0,0,0,0,0-.1-.01-.1-.01,0,0,0,0,0,0,0,0,0,0,0,0,0,0-.1.01-.1.01s0,0,0,0c0,0,0,0,0,0,0,0-.09.04-.09.04s0,0,0,0c0,0,0,0,0,0,0,0,0,0,0,0,0,0-.07.06-.08.06,0,0,0,0,0,0-.03.03-.06.08-.07.09s-.02.03-.03.05l.36-.21h0c-.07,0-.13.01-.19.04-.06.02-.12.06-.16.1l-.08.1c-.05.08-.07.16-.07.25,0,.07,0,.13.02.2l.05.12c.03.06.07.11.13.14.03.03.07.05.11.06.06.03.12.05.19.04l.13-.02.12-.05c.06-.03.11-.07.14-.13.04-.05.07-.11.09-.17.02-.07.02-.13.02-.2l-.02-.13c-.02-.07-.05-.12-.09-.17-.02-.04-.05-.07-.09-.09-.05-.04-.11-.07-.17-.09h-.02c.1.09.19.19.29.29,0-.02,0-.03-.01-.05v.1s.01-.02.01-.03v.1s-.01-.01,0-.02l-.04.09s0,0,0,0l-.06.08s0,0,0,0l-.07.06s0,0,0,0l-.09.04s0,0,0,0h-.1s0,.01.01.01h-.09s.02,0,.04,0l-.08-.03s.03.01.05.02c.04.02.08.03.13.03.04,0,.07,0,.1-.02h-.15s.02,0,.03,0c.03.01.07.01.1,0,.03,0,.06-.01.09-.03l.05-.04s.05-.07.06-.11h0Z"/>
        <path class="cls-3" d="M313.37,108.38s-.03,0-.05-.01c0,0-.02,0-.02,0,0,0,0,0,0,0h-.09s0-.01,0-.01c0,0-.01,0-.02,0-.02,0-.04,0-.06,0-.05,0-.11.01-.16.02l.4.1h0c.04.16.09.33.13.49,0-.01,0-.02,0-.04.01-.05.02-.11.02-.17,0-.02,0-.05,0-.07,0-.03,0-.07-.01-.1s0-.07-.01-.1c0-.02-.01-.05-.02-.07l-.05-.12-.08-.1-.1-.08c-.06-.04-.12-.06-.19-.06-.05-.01-.09-.01-.14,0-.05,0-.09.01-.13.04-.04.01-.08.03-.11.07-.06.04-.1.08-.13.14,0,0-.01.02-.02.03l.08-.1s-.06.07-.1.1l.11-.08s-.05.04-.08.05l.12-.05s-.07.02-.1.03l.14-.02s-.08,0-.12.01c-.02,0-.04,0-.06,0-.01,0-.02,0-.03,0-.09,0-.2.02-.27.07-.04.03-.08.05-.11.08l-.08.1s-.04.08-.05.13l.22-.29s-.02.01-.03.02c-.07.04-.13.1-.17.17-.04.07-.06.15-.06.23,0,.16.09.32.23.4.01,0,.02.01.03.02l-.22-.29c.03.09.06.16.13.23.01.01.07.06.11.08.02.01.03.01.07.03.09.04.08.04.2.04.01,0,.02,0,.04,0,.02,0,.04,0,.06,0,.09,0,.17-.01.25-.03.08-.01.15-.05.22-.08.02,0,.03-.02.05-.03.05-.03.1-.07.15-.12.02-.02.04-.03.05-.05.05-.06.09-.11.13-.17h-.89s0,0,0,0l-.05-.12s.02.07.03.1l-.02-.14s0,.07,0,.11l.02-.14s0,.03,0,.05c-.02.09-.02.18,0,.27.02.09.07.16.13.23.06.06.14.11.23.13.07.02.14.02.2,0,.07,0,.13-.02.19-.06.08-.05.14-.11.18-.18.09-.16.09-.36,0-.52h0v.4s.03-.06.05-.09c0,0,0-.01.01-.02.02-.03.03-.05.05-.1,0-.01,0-.02.01-.04l-.03.07s.01-.03.02-.04c.02-.04.04-.09.04-.13,0-.04,0-.07-.02-.1-.01-.03-.03-.06-.05-.09-.03-.03-.07-.06-.12-.07h0Z"/>
        <path class="cls-3" d="M310.32,108.67c-.08-.08-.16-.15-.25-.22-.06-.04-.12-.08-.19-.12-.1-.04-.2-.09-.3-.11-.11-.03-.22-.04-.33-.05l.14.02c-.07-.02-.15-.03-.23-.02-.03,0-.06,0-.09,0-.11.01-.22.03-.32.04-.13.02-.26.04-.39.06l.14-.02c-.18.02-.37.04-.55.01l.14.02c-.11-.02-.22-.04-.32-.09l.13.06s-.06-.03-.09-.04c-.1-.05-.18-.07-.3-.08-.02,0-.03,0-.05,0-.09,0-.18.02-.26.07-.08.05-.14.11-.19.19-.05.08-.07.17-.07.26,0,.09.02.18.07.26,0,.01.02.02.02.03.06.09.12.16.21.21.06.04.14.06.2.09.05.02.11.04.16.05.15.04.31.06.46.06s.3-.02.46-.04c.11-.01.21-.03.32-.05.12-.02.24-.05.36-.06l-.14.02s.06,0,.09-.01c.01,0,.03,0,.04,0,0,0,.01,0,.02,0l.14-.02s.09-.04.13-.06l-.12.05s.06-.01.09-.02l-.13.02c.12-.01.23-.02.35,0l-.12-.02c.09.01.18.04.27.07l-.1-.04s.09.04.14.07c.08.05.2.07.29.04.08-.03.15-.07.2-.14s.09-.15.08-.23c0-.1-.04-.19-.11-.27h0Z"/>
        <path class="cls-3" d="M174.86,193.01s-.11.09-.16.13l.08-.06c-.14.09-.22.26-.31.39-.07.11-.13.21-.19.32-.13.25-.25.5-.37.75-.14.3-.26.61-.38.92-.05.14-.11.27-.15.42s-.07.27-.11.41c-.08.32-.13.65-.15.98,0,.11.05.24.13.31.07.07.16.11.26.12.2.03.45-.1.49-.32.05-.27.12-.53.2-.79.04-.14.09-.28.14-.43s.1-.29.15-.44c.1-.3.22-.59.33-.88.1-.27.21-.54.32-.8.06-.13.09-.27.14-.41.01-.03.02-.06.03-.09.02-.06.03-.12.03-.18,0-.03,0-.05,0-.08,0-.03.02-.14,0-.02.02-.12-.01-.26-.13-.33s-.26-.05-.35.05h0Z"/>
        <path class="cls-3" d="M180.94,192.82s-.05.02-.07.03h.06s-.09-.02-.14,0c-.02,0-.04.01-.06.02-.06.01-.12.04-.17.07-.05.03-.09.06-.14.1-.07.05-.12.14-.16.21-.13.21-.22.44-.31.66-.08.21-.15.43-.2.65s-.11.44-.16.66c-.03.12-.05.24-.08.36-.03.15-.04.31-.06.46l.02.12c.01.06.04.11.08.15.06.07.14.14.23.16.08.02.16.02.24,0,.1-.02.22-.11.27-.21.07-.12.13-.25.17-.39.03-.11.05-.22.07-.32.04-.27.07-.54.11-.81l-.02.12c.02-.15.04-.3.06-.46l-.02.12c.05-.36.12-.73.26-1.07l-.03.08s.02-.04.03-.07c.03-.06.04-.11.05-.18,0-.01,0-.02,0-.03v.08s0-.06,0-.09c0-.05.03-.1.03-.15,0-.02,0-.05,0-.07,0-.02,0,.05,0,.02,0,0,0-.01,0-.02,0-.05,0-.08,0-.13v.06s.01-.04.02-.06c.02-.04-.01-.1-.06-.08h0Z"/>
        <path class="cls-3" d="M185.07,192.81s-.08.1-.1.15c-.03.06-.06.12-.09.18-.05.12-.11.23-.16.35-.12.26-.21.53-.31.79-.09.25-.18.5-.27.75s-.17.5-.24.75c-.04.14-.08.28-.11.42-.02.11-.04.21-.04.32,0,.07,0,.14,0,.22,0,.15.11.32.27.35.16.04.32-.03.41-.17.03-.05.07-.1.1-.15.02-.03.03-.05.05-.08.04-.06.06-.13.09-.19.05-.12.09-.25.12-.38s.07-.25.1-.38.05-.26.08-.39c.05-.26.1-.52.14-.78s.08-.53.12-.79c.02-.16.04-.32.05-.48,0-.07.01-.15.02-.22s0-.14,0-.22c0-.13-.16-.16-.23-.06h0Z"/>
        <path class="cls-3" d="M188.94,192.42s-.02.02-.03.03l.08-.05c-.06.02-.12.05-.16.1-.02.02-.03.04-.04.07-.02.03-.04.07-.05.1-.05.1-.07.21-.1.31-.02.08-.05.17-.08.25-.03.09-.05.18-.08.27-.11.37-.24.74-.39,1.1-.08.21-.16.41-.25.62l.05-.12c-.05.13-.11.26-.17.38s-.1.25-.15.38c-.04.1-.08.2-.11.3s-.06.2-.09.3-.01.26.05.35c.05.08.12.15.21.18s.2.05.29.02c.12-.04.2-.11.27-.21s.14-.2.21-.31.12-.23.18-.35c.14-.29.25-.6.35-.9.18-.55.31-1.12.39-1.69.02-.18.03-.36.03-.54,0-.1,0-.19-.03-.29-.01-.03-.02-.06-.03-.09-.03-.09-.07-.17-.17-.21l.07.07s-.03-.04-.05-.07c-.05-.06-.17-.06-.22,0h0Z"/>
      </g>
    </g>
    <path class="cls-9" d="M325.55,116.31c-1.93,6.13-3.94,12.23-5.9,18.34-2.02,6.32-13.68,42.44-19.41,60.27-.32,1.01-.63,1.96-.91,2.84-.33,1.02-1.27,1.71-2.34,1.71,0,0-.01,0-.02,0h-2.44c.1-.33.22-.67.33-1.03.03-.11.08-.23.11-.35.31-.97.65-2.03,1.02-3.17.21-.63.41-1.28.63-1.96.11-.34.23-.71.34-1.06.46-1.42.94-2.92,1.44-4.48.32-.99.65-2.02.99-3.08.98-3.05,2.02-6.3,3.09-9.6.17-.53.34-1.05.51-1.59.62-1.92,1.25-3.86,1.87-5.8.25-.78.49-1.55.74-2.32,2.07-6.43,4.08-12.67,5.76-17.87.09-.3.18-.59.29-.89.32-1.01.63-1.98.93-2.89.09-.27.18-.55.26-.81.13-.39.25-.78.37-1.14.08-.24.16-.48.23-.71.05-.14.09-.27.14-.42.08-.23.15-.47.22-.69.17-.51.33-1.01.48-1.46.1-.33.21-.65.31-.95.34-1.09.62-1.95.81-2.55,1.96-6.1,3.93-12.22,5.9-18.34.94-2.95,1.84-5.92,2.76-8.88.43-1.43-.63-2.87-2.13-2.87,1.9.01,7.44-.42,3.61,11.75Z"/>
  </g>
  <path class="cls-9" d="M194.75,198.98c-.13-.06-.27-.14-.41-.18-.17-.05-.38-.05-.56-.06-.3-.01-.6-.02-.91-.02-.61-.02-1.23,0-1.84,0h-3.68c-2.46-.02-4.91-.02-7.37-.02h-7.34c-2.46.02-4.91.02-7.37.03-1.09,0-2.17,0-3.26,0-.53,0-1.06.02-1.59.04l-.75.02c-.14,0-.28,0-.42.03-.12.03-.24.07-.36.09-.21.04-.41.09-.62.13s-.21.37,0,.41c.46.1.93.24,1.4.26l1.55.04c1.06.03,2.11.02,3.17.02h7.34c2.45.02,4.89.02,7.34.03s4.91,0,7.37,0h3.68c1.23-.02,2.46,0,3.68-.05.15,0,.32-.02.47-.05.16-.03.32-.12.47-.19.2-.09.2-.43,0-.53h0Z"/>
</svg>