<?xml version="1.0" encoding="UTF-8"?>
<svg id="Layer_1" data-name="Layer 1" xmlns="http://www.w3.org/2000/svg" xmlns:xlink="http://www.w3.org/1999/xlink" viewBox="0 0 500 500">
  <defs>
    <style>
      .cls-1 {
        fill: #d1f1f4;
      }

      .cls-2 {
        fill: #80acff;
      }

      .cls-3 {
        fill: #041063;
      }

      .cls-4 {
        fill: #326bf5;
      }

      .cls-5 {
        clip-path: url(#clippath-1);
      }

      .cls-6 {
        clip-path: url(#clippath-2);
      }

      .cls-7 {
        fill: #28318c;
      }

      .cls-8 {
        fill: #326bf5;
      }

      .cls-9 {
        clip-path: url(#clippath);
      }
    </style>
    <clipPath id="clippath">
      <path class="cls-4" d="M382.19,212.53c.03,19.51-2.64,36.77-5.63,38.38h-.21l-3.55-.06h-.03l-4.78-.06-55.4-.82h-.32l.18-5.84.41-13.97v-35.92l-.23-18.98h64.23v.15c2.99,1.79,5.31,17.72,5.34,37.12Z"/>
    </clipPath>
    <clipPath id="clippath-1">
      <path class="cls-1" d="M312.85,194.25v35.92l-.41,13.97-.18,5.84s-1.17-.06-3.35-.12c-11.06-.35-47.83-1.23-83.57.7-47.24,2.55-105.6,49.62-105.6,49.62,0,0-3.26,3.37-7.16,3.37s-7.22-2.29-7.22-5.11V126.46c0-2.82,3.23-5.08,7.22-5.08s7.16,3.35,7.16,3.35c0,0,58.36,47.09,105.6,49.65,39.52,2.11,80.57,1.06,86.53.91.47-.03.73-.03.73-.03l.23,18.98Z"/>
    </clipPath>
    <clipPath id="clippath-2">
      <path class="cls-3" d="M360.03,293.86s-13.67,4.72-16.29,6.31c-2.64,1.56-11.03,30.46-16.81,42.55-5.78,12.09-18.4,36.24-20.48,38.88-2.11,2.61-16.81-1.06-23.65-5.78-4.46-3.08-9.51-8.27-9.51-8.27-11.24-9.98-6.13-15.35-6.13-15.35,0,0,6.98-5.66,9.45-7.34,19.45-13.15,17.87-44.66,17.87-44.66,0,0-5.25-7.37-6.31-9.45-.29-.59.88-2.44,2.73-4.78,4.93-6.28,14.61-16.23,14.61-16.23l.15-.79.26-1.67.59-3.37,2.41-14.06c2.17.06,3.35.12,3.35.12h.32l55.4.82,4.78.06-12.73,43.02Z"/>
    </clipPath>
  </defs>
  <path class="cls-7" d="M394.63,213.32c0,19.92-2.35,36.27-5.34,37.91v.12h-.38s-.09.06-.12.06-.06-.06-.09-.06l-12.15-.44c2.99-1.61,5.66-18.87,5.63-38.38-.03-19.4-2.35-35.33-5.34-37.12v-.15h11.77c.06,0,.09-.03.12-.03s.06.03.12.03h.44v.15c2.99,1.82,5.31,18.1,5.34,37.91Z"/>
  <g>
    <path class="cls-4" d="M382.19,212.53c.03,19.51-2.64,36.77-5.63,38.38h-.21l-3.55-.06h-.03l-4.78-.06-55.4-.82h-.32l.18-5.84.41-13.97v-35.92l-.23-18.98h64.23v.15c2.99,1.79,5.31,17.72,5.34,37.12Z"/>
    <g class="cls-9">
      <path class="cls-7" d="M343.09,239.38c.15.46.46.74.94.84.42.09.92.1,1.35.1.76,0,1.51,0,2.27,0,1.54,0,3.08.01,4.63.03,3.07.02,6.14,0,9.2.02,1.73,0,3.47.02,5.2.03.56,0,1.09-.49,1.07-1.07s-.47-1.06-1.07-1.07c-6.22-.11-12.45-.2-18.67-.16-.84,0-1.69.01-2.53.02-.47,0-.99.02-1.45.12-.32.07-.64.24-.82.53-.09.15-.18.42-.12.6h0Z"/>
      <path class="cls-7" d="M343.09,228.82c.15.46.46.74.94.84.42.09.92.1,1.35.1.76,0,1.51,0,2.27,0,1.54,0,3.08.01,4.63.03,3.07.02,6.14,0,9.2.02,1.73,0,3.47.02,5.2.03.56,0,1.09-.49,1.07-1.07s-.47-1.06-1.07-1.07c-6.22-.11-12.45-.2-18.67-.16-.84,0-1.69.01-2.53.02-.47,0-.99.02-1.45.12-.32.07-.64.24-.82.53-.09.15-.18.42-.12.6h0Z"/>
      <path class="cls-7" d="M343.09,218.26c.15.46.46.74.94.84.42.09.92.1,1.35.1.76,0,1.51,0,2.27,0,1.54,0,3.08.01,4.63.03,3.07.02,6.14,0,9.2.02,1.73,0,3.47.02,5.2.03.56,0,1.09-.49,1.07-1.07s-.47-1.06-1.07-1.07c-6.22-.11-12.45-.2-18.67-.16-.84,0-1.69.01-2.53.02-.47,0-.99.02-1.45.12-.32.07-.64.24-.82.53-.09.15-.18.42-.12.6h0Z"/>
      <path class="cls-7" d="M343.09,207.69c.15.46.46.74.94.84.42.09.92.1,1.35.1.76,0,1.51,0,2.27,0,1.54,0,3.08.01,4.63.03,3.07.02,6.14,0,9.2.02,1.73,0,3.47.02,5.2.03.56,0,1.09-.49,1.07-1.07s-.47-1.06-1.07-1.07c-6.22-.11-12.45-.2-18.67-.16-.84,0-1.69.01-2.53.02-.47,0-.99.02-1.45.12-.32.07-.64.24-.82.53-.09.15-.18.42-.12.6h0Z"/>
      <path class="cls-7" d="M343.09,197.13c.15.46.46.74.94.84.42.09.92.1,1.35.1.76,0,1.51,0,2.27,0,1.54,0,3.08.01,4.63.03,3.07.02,6.14,0,9.2.02,1.73,0,3.47.02,5.2.03.56,0,1.09-.49,1.07-1.07s-.47-1.06-1.07-1.07c-6.22-.11-12.45-.2-18.67-.16-.84,0-1.69.01-2.53.02-.47,0-.99.02-1.45.12-.32.07-.64.24-.82.53-.09.15-.18.42-.12.6h0Z"/>
      <path class="cls-7" d="M343.09,186.57c.15.46.46.74.94.84.42.09.92.1,1.35.1.76,0,1.51,0,2.27,0,1.54,0,3.08.01,4.63.03,3.07.02,6.14,0,9.2.02,1.73,0,3.47.02,5.2.03.56,0,1.09-.49,1.07-1.07s-.47-1.06-1.07-1.07c-6.22-.11-12.45-.2-18.67-.16-.84,0-1.69.01-2.53.02-.47,0-.99.02-1.45.12-.32.07-.64.24-.82.53-.09.15-.18.42-.12.6h0Z"/>
    </g>
  </g>
  <g>
    <path class="cls-1" d="M312.85,194.25v35.92l-.41,13.97-.18,5.84s-1.17-.06-3.35-.12c-11.06-.35-47.83-1.23-83.57.7-47.24,2.55-105.6,49.62-105.6,49.62,0,0-3.26,3.37-7.16,3.37s-7.22-2.29-7.22-5.11V126.46c0-2.82,3.23-5.08,7.22-5.08s7.16,3.35,7.16,3.35c0,0,58.36,47.09,105.6,49.65,39.52,2.11,80.57,1.06,86.53.91.47-.03.73-.03.73-.03l.23,18.98Z"/>
    <g class="cls-5">
      <path class="cls-4" d="M119.42,115.29l-.23,1.22c-.03.16-.05.39-.08.51l-.08.2c-.02.11-.03.22-.03.32,0,.14,0,.28-.01.43-.03.89-.07,1.78-.09,2.67-.04,1.78-.05,3.56-.12,5.34s-.06,3.49-.09,5.23-.06,3.56-.07,5.34c-.04,7.08-.07,14.16-.08,21.24s-.01,14.09-.02,21.13,0,14.16,0,21.24,0,14.09.01,21.13v21.24c.02,7.04.02,14.09.02,21.13,0,7.08.03,14.16.04,21.24s.03,14.09.04,21.13-.02,14.16.14,21.24c.04,1.71.11,3.42.11,5.12,0,.49.43.95.93.93s.93-.41.93-.93c0-1.78.08-3.56.11-5.34s.05-3.56.06-5.34c.03-3.52.05-7.04.06-10.57l.04-21.24c.01-7.04.03-14.09.04-21.13s.01-14.16.02-21.24c0-7.04,0-14.09.01-21.13v-21.24c.02-7.04.02-14.09.02-21.13s-.01-14.16-.02-21.24c0-7.04,0-14.09-.05-21.13-.04-7.08-.15-14.16-.31-21.24-.02-.85-.05-1.71-.08-2.56,0-.11,0-.21-.01-.32v-.11c0-.15-.04-.29-.11-.41-.02-.12-.05-.35-.08-.51l-.23-1.22c-.08-.4-.74-.4-.81,0h0Z"/>
      <path class="cls-4" d="M186.74,234.52s-.01.05-.02.08l.09-.2h0c-.16.27-.15.62,0,.88.05.09.1.18.15.27.05.1.11.18.18.27s.12.18.18.26c.11.16.23.31.35.47l-.16-.21c.34.45.67.91,1,1.37s.64.91.95,1.37c.09.13.18.26.26.39.13.2.26.42.44.57l.22.17c.13.08.26.12.41.13.1.03.19.03.29,0,.15,0,.28-.05.41-.13.16-.1.29-.24.39-.39.08-.13.12-.26.13-.41.03-.15.03-.29-.02-.44-.04-.12-.09-.25-.16-.36-.02-.04-.05-.08-.08-.11-.05-.07-.1-.14-.15-.21-.1-.15-.21-.29-.31-.44-.22-.3-.43-.61-.65-.91-.49-.67-1-1.32-1.54-1.95-.13-.15-.28-.28-.43-.42-.13-.12-.26-.23-.41-.32-.08-.05-.17-.1-.25-.16-.26-.17-.61-.15-.88,0h0c.07-.03.14-.05.2-.08-.02,0-.05.01-.07.02-.24.06-.43.26-.5.5h0Z"/>
      <path class="cls-4" d="M272.23,184.34c.06.2.13.4.19.6.03.1.07.2.09.31,0,.04,0,.09.02.13.02.06.05.12.07.17.18.45.36.91.56,1.36.35.79.7,1.57,1.09,2.34.11.22.22.43.33.65.05.1.11.21.17.31.03.06.06.11.09.17.11.2.25.32.43.44l.23.1.25.03.25-.03c.12-.03.23-.09.32-.17.07-.04.13-.1.17-.17.06-.06.1-.13.12-.21.04-.07.06-.15.07-.24.03-.13.02-.25-.02-.38-.04-.26-.24-.48-.37-.69-.1-.15-.2-.3-.29-.46-.2-.31-.39-.63-.57-.95-.37-.64-.71-1.3-1.09-1.93-.11-.18-.21-.36-.32-.53-.05-.09-.1-.17-.15-.26-.08-.14-.18-.25-.29-.36l.1.13c-.18-.25-.36-.49-.55-.74-.08-.1-.16-.2-.3-.23-.11-.03-.22-.02-.32.02-.22.09-.36.35-.29.58h0Z"/>
      <path class="cls-4" d="M305.68,169.54c-.1.32-.24.65-.29.99-.05.38-.12.75-.18,1.12-.12.76-.15,1.53-.2,2.3-.09,1.46-.12,2.91-.16,4.37-.08,2.95-.1,5.9-.11,8.85,0,5.9-.01,11.8-.02,17.7,0,5.9,0,11.8,0,17.7,0,5.9.01,11.8.05,17.7.03,5.9.03,11.8.24,17.7.02.71.1,1.42.16,2.13.07.83,1.22.83,1.29,0,.13-1.49.21-2.98.25-4.48s.04-2.91.06-4.37c.04-2.95.07-5.9.08-8.85.03-5.9.05-11.8.06-17.7s.02-11.8.01-17.7c0-5.9-.01-11.8-.02-17.7,0-2.95-.04-5.9-.07-8.85-.01-1.46-.07-2.91-.11-4.37s-.08-3.05-.32-4.54c-.05-.32-.11-.65-.15-.97-.05-.35-.19-.69-.3-1.04-.05-.15-.25-.15-.3,0h0Z"/>
    </g>
  </g>
  <g>
    <path class="cls-3" d="M360.03,293.86s-13.67,4.72-16.29,6.31c-2.64,1.56-11.03,30.46-16.81,42.55-5.78,12.09-18.4,36.24-20.48,38.88-2.11,2.61-16.81-1.06-23.65-5.78-4.46-3.08-9.51-8.27-9.51-8.27-11.24-9.98-6.13-15.35-6.13-15.35,0,0,6.98-5.66,9.45-7.34,19.45-13.15,17.87-44.66,17.87-44.66,0,0-5.25-7.37-6.31-9.45-.29-.59.88-2.44,2.73-4.78,4.93-6.28,14.61-16.23,14.61-16.23l.15-.79.26-1.67.59-3.37,2.41-14.06c2.17.06,3.35.12,3.35.12h.32l55.4.82,4.78.06-12.73,43.02Z"/>
    <g class="cls-6">
      <path class="cls-8" d="M296.54,362.65c0,1.89-1.53,3.42-3.42,3.42s-3.42-1.53-3.42-3.42,1.53-3.42,3.42-3.42,3.42,1.53,3.42,3.42Z"/>
      <path class="cls-8" d="M362.53,260.19c0,1.89-1.53,3.42-3.42,3.42s-3.42-1.53-3.42-3.42,1.53-3.42,3.42-3.42,3.42,1.53,3.42,3.42Z"/>
      <path class="cls-8" d="M322.76,259.03c0,1.89-1.53,3.42-3.42,3.42s-3.42-1.53-3.42-3.42,1.53-3.42,3.42-3.42,3.42,1.53,3.42,3.42Z"/>
      <path class="cls-8" d="M321.6,301.27s.03.09.05.14c.03.09.07.18.12.26.02.02.03.05.05.07.06.09.12.18.18.28s.12.19.19.28.14.18.21.28c.33.44.66.87,1,1.3.08.1.17.2.25.3.04.05.09.1.13.15.02.02.04.05.06.07.01.01.02.03.04.04,0,0,0,0,.01.01.03.03.06.06.1.08.03.03.07.06.11.08l.24.1c.13.04.26.05.39.02.09,0,.17-.02.25-.07.12-.04.23-.11.32-.2l.15-.2.1-.24c.04-.13.05-.26.02-.39,0-.13-.05-.25-.12-.37-.02-.05-.03-.05-.08-.11-.03-.04-.06-.07-.09-.11,0-.01-.02-.02-.03-.04-.02-.02-.04-.04-.06-.07-.04-.04-.07-.09-.11-.13-.08-.09-.15-.18-.23-.27s-.15-.17-.23-.26-.16-.18-.24-.27c-.15-.17-.31-.35-.46-.53-.08-.09-.15-.17-.23-.26s-.16-.17-.24-.25c-.09-.09-.18-.17-.27-.26-.02-.02-.05-.04-.07-.07-.01-.01-.02-.02-.03-.03,0,0,0,0-.01-.01,0,0,0,0-.01-.01l-.17-.13s-.1-.06-.16-.09l-.19-.08-.21-.03-.21.03c-.1.02-.19.07-.27.14-.06.03-.11.08-.14.14-.05.05-.08.11-.1.17-.04.06-.05.13-.05.2-.02.1-.02.21.01.31h0Z"/>
    </g>
  </g>
  <path class="cls-2" d="M306.51,263.91l-.59,3.37-.26,1.67-.15.79s-9.68,9.95-14.61,16.23c-1.39-1.86-2.81-3.78-3.89-5.24-.86-1.16-.61-2.79.56-3.64l18.42-13.47.53.29Z"/>
</svg>