<?xml version="1.0" encoding="UTF-8"?>
<svg id="Layer_1" data-name="Layer 1" xmlns="http://www.w3.org/2000/svg" xmlns:xlink="http://www.w3.org/1999/xlink" viewBox="0 0 300 500">
  <defs>
    <style>
      .cls-1 {
        fill: #80acff;
      }

      .cls-2 {
        fill: #8189c4;
      }

      .cls-3 {
        fill: #041063;
      }

      .cls-4 {
        fill: #326bf5;
      }

      .cls-5 {
        fill: #006276;
      }

      .cls-6 {
        fill: #c7966e;
      }

      .cls-7 {
        fill: #00003f;
      }

      .cls-8 {
        clip-path: url(#clippath-11);
      }

      .cls-9 {
        clip-path: url(#clippath-10);
      }

      .cls-10 {
        clip-path: url(#clippath-12);
      }

      .cls-11 {
        fill: #e3ba8e;
      }

      .cls-12 {
        clip-path: url(#clippath-1);
      }

      .cls-13 {
        clip-path: url(#clippath-3);
      }

      .cls-14 {
        clip-path: url(#clippath-4);
      }

      .cls-15 {
        clip-path: url(#clippath-2);
      }

      .cls-16 {
        clip-path: url(#clippath-7);
      }

      .cls-17 {
        clip-path: url(#clippath-6);
      }

      .cls-18 {
        clip-path: url(#clippath-9);
      }

      .cls-19 {
        clip-path: url(#clippath-8);
      }

      .cls-20 {
        clip-path: url(#clippath-5);
      }

      .cls-21 {
        fill: #00aec7;
      }

      .cls-22 {
        fill: #041163;
      }

      .cls-23 {
        fill: #28318c;
      }

      .cls-24 {
        fill: #e2e92e;
      }

      .cls-25 {
        clip-path: url(#clippath);
      }

      .cls-26 {
        fill: #765238;
      }
    </style>
    <clipPath id="clippath">
      <path class="cls-6" d="M191.62,101.24c-1.16,3.8-2.84,7.41-4.38,11.08-.87,2.08-1.71,4.22-2,6.45-.01.11-.03.23-.03.34-3.89,1.45-7.56,3.33-11.2,5.37-3.32,1.87-6.74,3.57-10.06,5.46-.54-1.25-1.12-2.45-1.64-3.57-1.89-4-6.37-2.91-10.06-4.09-3.46-1.1-4.52-4.37-4.78-7.66-.14-1.8-.21-6.2-.52-6.79-.65-1.16-6.03-.65-5.33-3.16.36-1.27,2.25-2.3,3.21-3.13,1.24-1.05,2.58-2.08,3.44-3.5.91-1.49,1.1-3.28,1.32-4.99.74-5.77,1.76-11.37,6.61-15.14,3.87-3,8.96-4.45,13.92-4.57,5.9-.14,12.39,1.8,17,5.84,6.46,5.65,6.85,14.27,4.49,22.06Z"/>
    </clipPath>
    <clipPath id="clippath-1">
      <path class="cls-21" d="M210.81,217.26c-.87,3.6-2.8,7.29-5.84,9.51-.22.15-.44.3-.69.43-2.09,1.13-5.08,1.39-7.29,1.68-1.75.23-3.65.39-5.4.3-1.83-.1-3.44-.68-4.93-1.47-3.16.9-6.32,1.87-9.51,2.42-4.28.73-8.42.92-12.77.92-.58,0-1.3.01-2.08.03-2.25.04-4.35-.72-6.01-2.05-1.42-1.13-2.51-2.69-3.09-4.52-1.46-4.7-1.31-9.22-.81-14.96.5-5.73,1.18-11.33,2.26-16.96.99-5.3-.74-10.33-.61-15.67.12-5,1.42-9.88,1.94-14.85.34-3.32.9-6.79,1.94-9.96.87-2.63,2.18-5.14,3.42-7.65-1.43-.15-1.36-.9-1.63-2.56-.21-1.31-.45-2.59-.62-3.89-.17-1.25-.72-3.32-.23-4.52.47-1.16,2.37-2.01,3.44-2.63.54-.32,1.09-.63,1.64-.92,3.32-1.89,6.74-3.58,10.06-5.46,3.64-2.04,7.32-3.93,11.2-5.37.51-.19,1.03-.37,1.54-.55,1.53-.5,2.82-1.01,3.79.54.66,1.03,1.03,2.12,1.43,3.25.36.99,1.18,2.07,1.23,3.16.01.36-.1.73-.28,1.09,1.13.7,2.3,2.04,2.91,2.74,3.89,4.59,6.05,10.54,8.1,16.12,2.33,6.35,4.15,12.95,4.51,19.74.37,6.68-.12,13.38-.08,20.07.04,6.57,1.02,13.03,1.75,19.56.48,4.22,1.71,8.2.7,12.43Z"/>
    </clipPath>
    <clipPath id="clippath-2">
      <path class="cls-23" d="M255.38,393.54c-.52.92-1.65,1.61-3.49,2.38-4.64,1.96-9.38,4.56-13.65,7.22-1.98,1.23-4.97,2.41-7.27,3.02-.1.03-.18.04-.26.07-2.93.74-3.73-1.5-4.41-3.94-.4-1.5-14.3-29.82-19.88-39.16-2.65-4.44-5.66-8.63-8.56-12.91-2.44-3.6-3.65-7.83-5.06-11.92-3.9-11.28-10.04-21.76-13.08-33.34-.81-3.11-1.82-6.14-2.87-9.18-3.21,7.01-6.9,13.67-10.43,20.58-1.89,3.71-3.72,7.04-5.28,10.9-1.69,4.19-2.88,8.49-4.73,12.62-1.9,4.2-4.41,7.91-6.78,11.85-.83,1.39-1.83,2.91-2.77,4.49-.17,1.53-.47,3.02-.94,4.49-2.41,7.58-7.37,14.96-11.13,21.99-2.67,5-5.55,10.1-8.05,15.25-.34,2.98-.72,5.95-1.34,8.89-.72,3.4-.74,7.26-2.03,10.49-.63,1.58-.79,2.76-2.58,1.94-1.24-.56-2.41-1.6-3.51-2.55-.3-.28-.61-.54-.91-.79-3.5-2.91-6.57-6.34-10.06-9.31-1.89-1.6-3.72-3.24-5.61-4.82-1.2-1.01-2.74-1.92-3.8-3.03-.23.26-.48.5-.73.69-1.97-4.75,2.93-8.96,4.16-12.17,2.63-6.83,18.31-50.18,20.47-56.49,1.25-3.71,2.34-7.48,3.49-11.2,3.28-10.75,9.52-20.83,14.63-30.82,3.1-6.08,6.56-12.08,9.34-18.28,2.66-5.94,6.35-11.86,8.64-18.09-.12-4.68-.59-9.34-.59-14.04,0-2.98-.51-6.32-.06-9.34,1.65,1.34,3.76,2.09,6.01,2.05.79-.01,1.5-.03,2.08-.03,4.35,0,8.49-.19,12.77-.92,3.18-.55,6.35-1.53,9.51-2.42,1.49.8,3.1,1.38,4.93,1.47,1.75.08,3.65-.07,5.4-.3,2.2-.29,5.19-.55,7.29-1.68,1.34,2.99,2.71,5.94,3.49,9.2.74,3.2,1.31,6.41,1.89,9.64.61,3.47.69,7,.88,10.5.17,3.04.61,5.94.39,9-.22,2.77-1.01,5.5-1.13,8.23-.11,2.48.01,4.97.22,7.47,1.14,3.4,2.16,6.89,3.5,10.18,3.21,7.91,6.26,16.64,6.6,25.27.12,3.21.29,6.31.91,9.45,8.25,13.96,25.01,44.08,26.94,47.98,2.38,4.82,4.82,9.63,6.86,14.62.94,2.29,1.18,3.71.56,4.81Z"/>
    </clipPath>
    <clipPath id="clippath-3">
      <path class="cls-5" d="M194.05,95.42c-.62,1.15-1.49,1.07-2.71,1.04-2.5-.09-26.06-5.55-26.6-5.88-4.23-1.01-18.89-2.91-24.12-4.88-1.58-.6-3.66-1.15-4.98-2.25-1.34-1.11-.72-2.96.34-4.22,2.03-2.44,6.91-1.63,9.67-1.65,1.83,0,3.7.04,5.53.02.69-.01,1.38.03,2.08.09.29-1.66,2.55-4.09,3.53-4.95,2.04-1.8,3.9-3.13,6.44-4.16,7.74-3.12,15.98-1.85,22.74,3.02,4.11,2.95,6.69,7.28,8.19,12.07.74,2.33.8,4.68.62,7.11-.1,1.46,0,3.29-.72,4.63Z"/>
    </clipPath>
    <clipPath id="clippath-4">
      <path class="cls-6" d="M47.6,132.37h56.29v85.82h-56.29c-.71,0-1.28-.58-1.28-1.28v-83.25c0-.71.58-1.28,1.28-1.28Z"/>
    </clipPath>
    <clipPath id="clippath-5">
      <path class="cls-26" d="M103.89,132.37h48c.71,0,1.28.58,1.28,1.28v83.25c0,.71-.58,1.28-1.28,1.28h-48v-85.82h0Z"/>
    </clipPath>
    <clipPath id="clippath-6">
      <polygon class="cls-24" points="136.63 160.36 125.56 160.36 123.06 132.37 134.13 132.37 136.63 160.36"/>
    </clipPath>
    <clipPath id="clippath-7">
      <path class="cls-11" d="M35.25,94.47h45.81v37.9h-45.81c-.71,0-1.28-.58-1.28-1.28v-35.33c0-.71.58-1.28,1.28-1.28Z"/>
    </clipPath>
    <clipPath id="clippath-8">
      <path class="cls-26" d="M81.07,94.47h39.03c.71,0,1.28.58,1.28,1.28v35.33c0,.71-.58,1.28-1.28,1.28h-39.03v-37.9h0Z"/>
    </clipPath>
    <clipPath id="clippath-9">
      <polygon class="cls-24" points="107.85 107.36 98.79 107.36 97.88 94.43 106.93 94.43 107.85 107.36"/>
    </clipPath>
    <clipPath id="clippath-10">
      <path class="cls-1" d="M129.63,215.02c0,1.38-.22,2.41-.59,3.18-1.25,2.7-4.23,2.38-5.65,2.63-1.63.29-3.71.47-5.46.1-.8,1.41-2.49,2.7-3.6,3.8-1.24,1.24-2.65,2.41-4.12,3.36-1.13.73-2.69,1.1-4.05.92-.96-.12-2.65-.5-3.68-1.18-2.42,1.21-5.18,1.57-6.38-.96-2.09.48-4.33-.1-5.07-2.29-1.54.59-3.22.48-4.51-.83-1.31-1.35-1.32-3.72-.7-5.57h5.04c.81-.83,1.63-1.67,2.44-2.54.91-.98,1.85-1.96,2.77-2.93.66-.72,1.2-1.56,1.75-2.37-3.21-1.58-8.42,1.05-11.3-2.27-.95-1.1-.52-2.78.62-3.54,1.39-.94,3.27-.4,4.79-.39,2.6.01,4.77-1.38,7.29-.77,2.11.51,4.44-.1,6.49.39,1.02.22,2.01.73,3.02,1.21,3.17-1.71,6.5-2.08,10.29-2.85,1.18-.23,2.38-.41,3.58-.65.72-.12,1.78-.62,2.51-.34.79.29,1.36,1.05,1.83,1.97.65,1.31,1.05,2.95,1.35,3.93.8,2.58,1.3,5.28,1.32,7.99Z"/>
    </clipPath>
    <clipPath id="clippath-11">
      <path class="cls-6" d="M179.85,194.36c-.4,1.24-.81,2.48-1.2,3.71-.72,2.3-1.47,4.6-2.34,6.81-1.14,2.88-2.11,6.77-4.42,8.97-1.1,1.05-3,1.16-4.44,1.42-1.96.36-4,.45-5.98.63-5,.45-10.07.94-15.1,1.28-4.01.28-8.03.52-12.04.72-1.71.1-3.51.26-5.29.3.37-.77.59-1.8.59-3.18-.03-2.71-.52-5.41-1.32-7.99-.3-.98-.7-2.62-1.35-3.93,1.01-.26,1.96-.56,2.65-.74,3.02-.77,6.01-1.5,9.02-2.27,3.62-.92,7.33-1.63,10.94-2.54,1.65-.41,3.87-1.14,5.91-1.23.37-1.09.79-2.16,1.18-3.22.84-2.22,1.58-4.49,2.34-6.74.99.88,2.37,1.57,3.36,2.01,5.68,2.54,11.59,4.23,17.48,5.99Z"/>
    </clipPath>
    <clipPath id="clippath-12">
      <path class="cls-21" d="M193.76,160.51c-.88,3.58-.83,7.23-1.53,10.84-.47,2.42-1.6,4.78-2.52,7.05-.56,1.39-1.14,2.88-1.8,4.28-.01.33-.04.65-.08.96-.29,2.56-.72,5.13-1.06,7.67-.14,1.1-.17,3.39-1.17,4.04-.91.59-2.95-.18-3.86-.44-.63-.19-1.25-.37-1.89-.56-5.9-1.76-11.81-3.46-17.48-5.99-.99-.44-2.37-1.13-3.36-2.01-.51-.47-.91-.98-1.1-1.56-.4-1.17.36-2.31.65-3.4.55-1.98.63-4.17,1.01-6.2.61-3.27,2.15-6.2,3.38-9.33,1.07-2.76,1.96-5.8,2.63-8.72.94-4.13,1.76-8.49,4.35-11.97,2.54-3.39,6.57-5.95,10.83-6.37,4.6-.45,9.2,1.49,12.17,5.04,3.98,4.79,2.19,11.23.85,16.66Z"/>
    </clipPath>
  </defs>
  <g>
    <g>
      <path class="cls-6" d="M191.62,101.24c-1.16,3.8-2.84,7.41-4.38,11.08-.87,2.08-1.71,4.22-2,6.45-.01.11-.03.23-.03.34-3.89,1.45-7.56,3.33-11.2,5.37-3.32,1.87-6.74,3.57-10.06,5.46-.54-1.25-1.12-2.45-1.64-3.57-1.89-4-6.37-2.91-10.06-4.09-3.46-1.1-4.52-4.37-4.78-7.66-.14-1.8-.21-6.2-.52-6.79-.65-1.16-6.03-.65-5.33-3.16.36-1.27,2.25-2.3,3.21-3.13,1.24-1.05,2.58-2.08,3.44-3.5.91-1.49,1.1-3.28,1.32-4.99.74-5.77,1.76-11.37,6.61-15.14,3.87-3,8.96-4.45,13.92-4.57,5.9-.14,12.39,1.8,17,5.84,6.46,5.65,6.85,14.27,4.49,22.06Z"/>
      <g class="cls-25">
        <circle class="cls-22" cx="154.8" cy="97.12" r="1.98"/>
        <path class="cls-22" d="M146.24,112.99h0s-.06-.04-.1-.07c.21.25.51.4.81.5l-.18-.08c.16.08.23.1.41.11l-.2-.03c.23.03.47.06.7.06.16,0,.32-.03.48-.06.09-.02.19-.03.28-.05.46-.1.9-.29,1.33-.49.78-.37,1.51-.84,2.11-1.47.13-.13.26-.27.37-.42.05-.07.11-.13.15-.2.04-.06.07-.16.1-.24.01-.04.03-.07.04-.11s.02-.07.03-.11c.05-.2.03-.41-.07-.59l.07.16h0c-.05-.14-.11-.25-.23-.34-.1-.08-.26-.15-.39-.14s-.28.03-.4.11c-.03.02-.06.04-.09.06-.12.08-.24.15-.34.26-.13.13-.27.26-.42.37l.17-.13c-.26.2-.53.38-.81.55-.31.19-.61.38-.93.54-.18.09-.37.18-.55.26l.21-.09c-.16.07-.32.13-.48.18-.15.05-.31.11-.46.16-.15.05-.3.08-.44.13-.14.04-.28.08-.42.1l.2-.03c-.18.02-.25.03-.41.11l.18-.08c-.2.06-.4.12-.6.17l.13-.02h-.01c-.2,0-.41.15-.46.35-.02.08-.02.17,0,.25.03.13.12.21.22.28h0Z"/>
        <path class="cls-22" d="M151.95,92.19s.08,0,.12.01c.18,0,.3-.06.46-.13.11-.05.22-.1.33-.17.29-.16.54-.42.8-.62l-.18.14c.11-.08.22-.16.32-.25l-.18.14c.27-.21.58-.36.89-.5l-.21.09c.54-.23,1.12-.37,1.7-.45l-.23.03c.47-.06.94-.07,1.41-.01l-.21-.03c.41.06.81.16,1.19.32l-.18-.08c.21.09.42.2.62.32.1.06.2.13.3.19.15.08.3.14.46.19l-.16-.07c.36.16.8.64,1.19.25s-.11-.94-.37-1.25l.1.13c-.07-.1-.12-.2-.21-.3s-.18-.18-.29-.25c-.12-.09-.25-.17-.38-.25-.3-.18-.62-.33-.95-.46-.6-.25-1.25-.38-1.9-.4-.32-.01-.64,0-.96.04-.39.04-.77.1-1.14.21-.65.21-1.33.52-1.84.99-.25.23-.5.47-.69.74-.07.1-.14.21-.21.31-.06.09-.11.17-.14.28-.01.04-.02.08-.03.12-.06.16,0,.36.1.49.11.15.26.21.44.22h0Z"/>
        <path class="cls-22" d="M176.14,100.75s.07-.06.11-.09c0,0-.14.09-.07.05.01,0,.03-.02.04-.03.12-.09.2-.19.29-.31.04-.05.17-.19,0,0,.12-.13.22-.27.35-.4.26-.25.53-.5.81-.73.12-.1-.18.13-.03.03.04-.03.07-.05.11-.08.08-.06.16-.11.24-.16.16-.1.33-.2.5-.29.08-.04.17-.08.25-.12.04-.02.07-.03.11-.05.02,0,.04-.02.06-.03.13-.06-.04.02-.08.03.19-.06.37-.14.56-.2.42-.13.85-.23,1.28-.29l-.22.03c.58-.08,1.17-.08,1.75,0l-.22-.03c.27.04.54.09.81.17.13.04.25.08.38.12.05.02.25.1.09.03-.15-.06-.03-.01,0,0,.03.01.06.03.09.04.24.11.47.25.68.41.03.02.14.11,0,0s-.03-.03,0,0c.05.04.1.09.15.13.1.09.2.19.29.29.04.05.08.1.13.15.02.02.04.05.06.07,0,0-.14-.19-.08-.1.01.02.02.03.04.05.08.11.16.22.23.34.08.13.15.26.21.4.02.03.03.07.05.1.04.08-.06-.12-.05-.11.01.02.02.05.03.07.03.08.06.16.09.25.11.32.19.64.25.98,0,.04.01.09.02.13.01.09-.02-.14-.02-.12,0,.02,0,.05,0,.07.01.09.02.18.03.26.01.17.02.34.02.51s0,.34-.02.52c0,.09-.01.18-.02.27,0,.04,0,.08-.01.12,0,.02,0,.04,0,.06-.02.13,0-.03,0-.07-.05.16-.06.35-.09.52s-.07.35-.12.52c-.09.35-.21.69-.35,1.03-.03.07.04-.09.04-.08-.01.02-.02.05-.03.07-.02.04-.03.07-.05.11-.04.08-.08.17-.12.25-.08.17-.17.33-.26.49-.17.31-.36.61-.57.9-.05.07-.1.14-.15.21-.03.04-.06.07-.08.11,0,0,.1-.13.05-.07-.02.03-.04.05-.06.08-.11.14-.22.27-.34.4-.23.26-.48.51-.75.74-.06.05-.12.11-.19.16-.03.02-.06.05-.09.07-.13.1.13-.1,0,0-.13.1-.27.19-.41.28-.34.22-.7.41-1.07.58-.05.02-.09.04-.14.06-.02.01-.13.05-.03.01.09-.04.01,0,0,0-.09.04-.18.07-.27.11.19-.08-.01,0-.06.02-.22.09-.44.17-.66.24-.43.14-.87.25-1.31.33-.23.04-.46.08-.69.12-.05,0-.1.02-.15.02-.02,0-.05,0-.07.01-.09.01.11-.01.02,0-.12.01-.24.03-.35.04-.26.03-.52.06-.78.12-.5.11-.5.91,0,1.02.74.16,1.54.1,2.29,0,.68-.09,1.35-.24,2-.46,1.2-.4,2.3-1.04,3.22-1.9.81-.76,1.49-1.68,2.01-2.67s.92-2.08,1.09-3.19.16-2.29-.18-3.39c-.29-.94-.8-1.81-1.58-2.43-1.52-1.2-3.51-1.44-5.37-1.07-.89.18-1.76.51-2.53.99-.39.24-.8.52-1.11.86-.07.07-.13.15-.19.22-.03.04-.06.08-.09.11-.05.06-.09.13-.14.18.21-.23.02-.03-.05.07-.11.17-.22.34-.31.52s-.18.36-.19.56c0,.08,0,.17,0,.26,0,.23.14.43.35.52.22.09.44.03.62-.12h0Z"/>
        <path class="cls-22" d="M182.14,99.69c-.14-.25-.38-.46-.63-.58-.02-.01-.05-.02-.07-.03l-.13-.06c.13.05.11.04-.05-.02l-.15-.02c.11.01.13.02.07,0-.07-.01-.14-.02-.21-.03-.17-.02-.34,0-.5.04-.57.16-1.08.53-1.49.95s-.72.93-.99,1.45c-.28.55-.5,1.16-.52,1.78-.01.35.06.71.18,1.03.08.21.19.41.31.6.09.15.18.29.25.45l-.07-.16c.05.11.08.23.1.35l-.02-.18c.01.1.01.2,0,.3l.02-.18c-.02.15-.07.3-.13.44l.07-.16c-.12.27-.25.54-.34.82-.1.3-.17.62-.18.93s.04.6.17.88.34.49.62.6c.34.14.7.18,1.06.05.2-.08.38-.25.37-.48,0-.21-.15-.43-.37-.48-.11-.02-.21-.06-.32-.08-.05-.01-.1-.03-.15-.04-.09-.03.14.08.06.03-.02-.01-.04-.02-.05-.03-.07-.04.11.1.06.05-.01-.01-.03-.03-.04-.04-.03-.03-.05-.06-.08-.09-.07-.08.04.05.05.07,0-.02-.02-.03-.03-.05-.02-.04-.05-.08-.06-.12l.06.15c-.03-.09-.06-.17-.07-.26l.02.17c-.02-.15-.01-.3,0-.46l-.02.17c.04-.28.12-.54.23-.8l-.07.16c.2-.47.48-.92.46-1.45-.02-.34-.13-.66-.29-.96-.08-.15-.18-.29-.27-.45-.08-.14-.15-.28-.21-.43l.07.16c-.08-.18-.13-.37-.16-.56l.02.17c-.02-.18-.02-.37,0-.55l-.02.16c.02-.16.08-.3.14-.45.04-.1-.07.15,0,0,.02-.04.04-.08.06-.12.04-.07.07-.14.11-.22.17-.31.36-.61.57-.9.1-.13-.08.1-.01.01.02-.02.04-.05.06-.07.05-.06.1-.13.16-.19.1-.12.21-.23.33-.34.05-.05.11-.1.17-.14.08-.07-.14.1,0,0,.03-.02.07-.05.1-.07.12-.08.26-.16.39-.21l-.15.06c.11-.05.23-.08.34-.12.06-.02.11-.04.17-.05.02,0,.06-.02.08-.01l-.1.02c.06,0,.12,0,.18-.03.03,0,.05-.01.08-.02.1-.02-.13,0-.03,0,.06,0,.11,0,.17,0,.02,0,.06,0,.08,0-.06,0-.07,0-.02,0h.03s.07.02.11.03c.03.01.07.02.11.02-.04,0-.04,0,0,0,.25.06.48-.21.34-.44h0Z"/>
        <path class="cls-26" d="M187.68,112.58c-.15-.78-.87-1.34-1.09-2.08-.35-1.16.27-2.72.49-3.88.59-3.1,1.85-6.87-.72-9.45-1.97-1.98-5.79-2.57-8.29-1.33-.8.4-1.57,1-2.28,1.51-1.26.9-2.23,1.88-3.17,3.11-.52-1.67-1.02-3.28-2.16-4.72-1.49-1.86-3.44-3.02-5.56-4.01.31-1.17,1.31-2.35.69-3.58-.78-1.54-2.46-1.93-3.68-2.97.33-.56,1.57-1.54,1.51-2.2-.07-.81-1.51-1.39-2.08-1.66-1.54-.74-3.02-1.11-4.69-1.33-1.07-.14-2.99.25-3.89-.16.81-1.81,2.65-2.97,4.3-3.9,1.55-.87,3.05-1.76,4.77-2.26,2.18-.63,4.6-.89,6.86-1.04s4.72-.46,7.04,0c9.64,1.9,17.39,8.78,18.37,18.87.68,7.02-3.15,13.42-5.27,19.83l-1.14,1.25Z"/>
      </g>
    </g>
    <g>
      <path class="cls-21" d="M210.81,217.26c-.87,3.6-2.8,7.29-5.84,9.51-.22.15-.44.3-.69.43-2.09,1.13-5.08,1.39-7.29,1.68-1.75.23-3.65.39-5.4.3-1.83-.1-3.44-.68-4.93-1.47-3.16.9-6.32,1.87-9.51,2.42-4.28.73-8.42.92-12.77.92-.58,0-1.3.01-2.08.03-2.25.04-4.35-.72-6.01-2.05-1.42-1.13-2.51-2.69-3.09-4.52-1.46-4.7-1.31-9.22-.81-14.96.5-5.73,1.18-11.33,2.26-16.96.99-5.3-.74-10.33-.61-15.67.12-5,1.42-9.88,1.94-14.85.34-3.32.9-6.79,1.94-9.96.87-2.63,2.18-5.14,3.42-7.65-1.43-.15-1.36-.9-1.63-2.56-.21-1.31-.45-2.59-.62-3.89-.17-1.25-.72-3.32-.23-4.52.47-1.16,2.37-2.01,3.44-2.63.54-.32,1.09-.63,1.64-.92,3.32-1.89,6.74-3.58,10.06-5.46,3.64-2.04,7.32-3.93,11.2-5.37.51-.19,1.03-.37,1.54-.55,1.53-.5,2.82-1.01,3.79.54.66,1.03,1.03,2.12,1.43,3.25.36.99,1.18,2.07,1.23,3.16.01.36-.1.73-.28,1.09,1.13.7,2.3,2.04,2.91,2.74,3.89,4.59,6.05,10.54,8.1,16.12,2.33,6.35,4.15,12.95,4.51,19.74.37,6.68-.12,13.38-.08,20.07.04,6.57,1.02,13.03,1.75,19.56.48,4.22,1.71,8.2.7,12.43Z"/>
      <g class="cls-12">
        <path class="cls-3" d="M191.84,126.57c-.12.02-.24.02-.36.05s-.22.08-.34.13c-.27.11-.51.26-.77.4-.47.25-.94.5-1.41.74-.95.49-1.91.98-2.87,1.45-1.93.96-3.9,1.83-5.85,2.76-3.96,1.88-7.76,4.02-11.35,6.54-2.05,1.44-4.05,2.93-6.01,4.48l.89.11c-1.29-2.91-1.86-6.08-3.1-9.02-.1-.23-.43-.3-.64-.21s-.39.36-.3.6c1.2,3.01,1.74,6.23,3.06,9.19.16.37.64.31.89.11,3.45-2.73,7.07-5.24,10.87-7.46,1.86-1.08,3.76-2.07,5.7-2.99s3.91-1.81,5.84-2.76c1.08-.53,2.15-1.06,3.17-1.69.5-.31.98-.62,1.46-.96.25-.18.54-.34.77-.55s.38-.42.53-.68c.08-.15-.05-.28-.2-.26h0Z"/>
        <path class="cls-3" d="M162.89,142.53c-.11-.05-.21-.08-.32-.04-.01,0-.02,0-.04.01-.03,0-.05.02-.08.02h.25,0c.07.04.14.08.21.12,0,0,0,0,0,0-.11-.13-.35-.19-.51-.13-.03.01-.06.02-.09.03-.01,0-.03.01-.04.02-.06.02-.13.04-.19.08-.06.04-.11.08-.17.12-.12.08-.24.17-.36.25-.24.18-.49.35-.74.52-.29.21-.57.42-.84.66-.23.2-.45.4-.65.62-.14.15-.26.32-.37.49-.09.14-.18.28-.25.42-.05.11-.09.24-.05.36.03.1.09.18.17.24s.18.11.28.1c.11,0,.26-.04.33-.14.16-.2.33-.38.52-.55s.39-.35.6-.51l-.12.09c.16-.12.32-.24.48-.35s.33-.23.49-.35.32-.23.48-.35c.2-.14.4-.28.58-.43.08-.07.16-.14.24-.21.07-.07.14-.13.19-.22.03-.05.05-.09.08-.14.05-.08.07-.17.07-.26,0-.09-.02-.18-.07-.26,0,0,0,0,0,0l.07.24h0s-.01.08-.02.12h0s-.03.06-.05.1c.01-.03.03-.06.04-.09,0-.02.02-.04.03-.07.03-.07.04-.14.03-.22,0-.07,0-.05-.03-.11-.03-.07-.09-.16-.17-.19h0Z"/>
        <path class="cls-3" d="M163.14,154.2c.36,0,.56-.47.71-.74.17-.31.34-.61.48-.93.27-.62.54-1.24.85-1.85.33-.64.66-1.25,1.05-1.85s.78-1.17,1.19-1.75c.21-.29.41-.57.63-.85.24-.32.37-.48.61-.79.42-.54.85-1.07,1.29-1.58.86-1,1.74-2,2.68-2.93.53-.52,1.08-1.03,1.65-1.52s1.21-.92,1.72-1.48c.31-.34-.07-.79-.47-.61-.65.29-1.19.75-1.75,1.19s-1.07.84-1.59,1.28c-1.03.88-2.05,1.78-2.96,2.79-.98,1.09-1.9,2.23-2.79,3.4s-1.72,2.33-2.33,3.64c-.35.75-.58,1.55-.83,2.34-.12.38-.21.77-.32,1.15-.08.3-.36,1.07.19,1.08h0Z"/>
        <path class="cls-3" d="M180.9,135.75c.15.23.36.32.62.42s.49.17.73.24c.53.14,1.08.27,1.63.34.13.02-.16-.02.05,0,.07,0,.13.02.2.03.13.02.26.04.39.06.26.04.52.09.78.14.53.11,1.06.28,1.58.42,1.05.3,2.11.59,3.13,1,.49.2.98.39,1.48.58.24.1.49.19.73.29.12.05.23.09.35.14,0,0,.21.09.09.04.08.04.17.07.25.11.53.25,1.05.51,1.56.8.25.14.51.29.75.45.27.17.52.37.79.53.29.17.68.09.88-.18s.2-.67-.05-.9c-.43-.38-.95-.68-1.44-.96-.47-.27-.95-.52-1.44-.75-.97-.46-1.94-.91-2.92-1.33-1.07-.45-2.14-.88-3.26-1.18s-2.14-.59-3.25-.64c-.6-.03-1.2,0-1.8.02-.28,0-.56,0-.84,0s-.57-.08-.85.02c-.11.04-.19.18-.12.29h0Z"/>
        <path class="cls-3" d="M196.94,218.91c-.12.09-.23.18-.38.24s-.3.11-.43.19c-.25.17-.51.34-.75.52-.51.38-.97.8-1.45,1.22-.93.81-1.82,1.68-2.75,2.5-.46.41-.91.82-1.39,1.22-.36.3-.71.61-1.04.93-.73.7-1.42,1.44-2.17,2.12-.21.19-.42.37-.63.55-.05.04-.11.09-.16.13-.03.03-.11.08.04-.03-.02.02-.05.04-.07.06-.11.08-.22.16-.33.24-.21.15-.44.26-.66.4-.11.07-.22.16-.33.24-.1.07-.17.16-.23.27-.07.12.07-.07-.03.05-.22.27-.16.7.21.8.08.02.16.05.24.07.2.04.39,0,.58-.05.26-.07.5-.22.73-.36.45-.28.88-.62,1.28-.96.78-.66,1.49-1.4,2.22-2.12s1.57-1.4,2.35-2.11c.46-.41.9-.84,1.34-1.27s.9-.87,1.32-1.32c.47-.51.98-1.01,1.43-1.54.22-.26.43-.53.64-.8.12-.15.22-.29.31-.46.04-.07.07-.16.12-.23.05-.08.13-.15.2-.21.12-.13-.04-.38-.2-.26h0Z"/>
        <path class="cls-3" d="M163.54,210.53c.35.41.79.74,1.22,1.06.11.08.21.16.31.23-.08-.06.06.05.08.06.06.05.12.09.17.14.13.1.26.21.39.31.02.02.04.03.07.05-.09-.07-.02-.01,0,0,.06.05.12.09.18.14.86.68,1.69,1.41,2.55,2.09s1.79,1.4,2.77,1.97c.86.5,1.67,1.07,2.5,1.61.49.32.98.63,1.5.9.29.15.58.28.88.41.12.05.23.1.35.14.1.03.22.06.32.05.07,0-.07-.01-.08-.01.04.01.09.02.13.02.34.05.65-.06.79-.39.12-.28.03-.7-.28-.84-.1-.04-.18-.09-.27-.15s-.19-.08-.28-.12c-.08-.03.07.03.07.03-.04-.02-.07-.03-.11-.05-.22-.1-.43-.21-.64-.32-.45-.25-.89-.53-1.32-.81-.85-.55-1.67-1.16-2.54-1.68-.92-.55-1.81-1.14-2.67-1.78s-1.74-1.31-2.64-1.93c-.5-.34-1.02-.66-1.56-.94s-1.14-.54-1.77-.55c-.2,0-.27.23-.15.37h0Z"/>
        <path class="cls-3" d="M197.77,183.01c-.33.32-.72.58-1.08.86-.16.12-.31.24-.47.35-.08.06-.17.12-.25.18-.05.03-.09.07-.14.1-.03.02-.29.21-.2.14-.74.56-1.51,1.09-2.28,1.6-1.58,1.05-3.25,1.98-4.91,2.88s-3.45,1.84-5.15,2.81c-1.78,1.01-3.56,2.04-5.37,2.99-1.03.54-2.07,1.06-3.13,1.54s-2.11.87-3.23,1.34c-.29.12-.38.54-.26.81.13.29.44.46.76.37,1.04-.28,2.05-.71,3.04-1.13s1.91-.85,2.85-1.31c1.85-.91,3.66-1.9,5.47-2.9s3.5-1.91,5.25-2.85,3.36-1.86,4.95-2.94c.91-.61,1.78-1.26,2.59-1.99.38-.34.73-.72,1.07-1.11.18-.2.37-.41.52-.62s.29-.43.45-.64c.27-.34-.17-.81-.49-.49h0Z"/>
        <path class="cls-24" d="M154.82,167.23s.04-.01.06-.02h-.1s0,.01.01.01c.13,0,.29-.08.34-.2.04-.08.11-.15.16-.21l-.17.17c.12-.08.19-.17.23-.31l-.05.12c.06-.09.12-.19.18-.28.07-.1.12-.22.17-.32.12-.23.25-.45.38-.67.07-.12.15-.23.23-.34l-.11.14c.09-.12.2-.24.32-.33l-.15.11c.06-.05.13-.09.2-.12l-.17.07s.1-.03.15-.04l-.2.03s.09,0,.13,0l-.2-.03s.08.02.11.03l.2.03c.1,0,.2-.02.29-.06.16-.07.27-.17.36-.31.07-.1.13-.2.2-.3l-.12.15c.07-.08.14-.17.22-.23l-.16.12s.07-.05.1-.06l-.18.08s.05-.02.07-.02l-.21.03s.03,0,.05,0l-.21-.03s.03,0,.05.01l-.18-.08s.04.02.06.03l-.16-.12s.04.04.06.06l-.12-.16s.06.09.08.15l-.08-.18c.07.16.1.34.12.51l-.03-.2c.05.37.06.75.01,1.12l.03-.19c-.02.18-.07.35-.11.53-.04.22-.08.44-.11.66-.07.54-.13,1.16.22,1.62.05.08.11.14.19.19.06.04.13.06.2.06.17.02.32-.03.45-.15.41-.39.68-.89,1.13-1.24l-.12.09c.06-.05.12-.09.18-.14l-.12.09c.09-.07.18-.13.28-.18l-.7-.09s.02.03.03.04l-.09-.12c.05.07.09.14.13.21l-.06-.14c.05.11.07.22.09.34l-.02-.15c.04.34,0,.68.01,1.02,0,.21.02.43.07.63.03.12.08.23.13.35s.12.21.21.31.25.16.37.16l.14-.02c.09-.03.17-.07.23-.14,0,0,.02-.01.03-.02l-.11.08c.12-.09.26-.15.4-.21.07-.03.14-.06.2-.1.13-.07.21-.18.29-.3l.05-.12c.02-.06.02-.13,0-.19-.01-.1-.06-.21-.13-.28-.16-.15-.39-.18-.59-.08-.02,0-.04.02-.06.03l.12-.05c-.08.03-.17.06-.25.11-.05.03-.1.05-.15.08-.11.05-.21.1-.32.15l.12-.05c-.09.03-.18.07-.27.11l.72.19s-.03-.05-.04-.08l.05.13c-.03-.08-.07-.15-.1-.23l.05.13c-.05-.12-.08-.24-.1-.36l.02.15c-.05-.36,0-.73,0-1.09,0-.21-.01-.43-.06-.64-.06-.25-.18-.47-.35-.67l-.12-.09c-.07-.04-.14-.06-.21-.07-.14-.02-.24,0-.37.07-.64.3-.97.92-1.38,1.46l.08-.11c-.07.09-.14.18-.22.26l.91.38c-.01-.11,0-.23-.01-.34s0-.24.02-.35l-.02.17c.04-.27.12-.53.21-.79s.17-.51.23-.78c.07-.31.09-.64.09-.96,0-.34-.02-.69-.11-1.01-.02-.09-.06-.17-.09-.25-.03-.07-.06-.15-.11-.21-.1-.14-.2-.27-.35-.35s-.3-.13-.48-.13c-.09,0-.18.01-.26.03s-.17.06-.25.1c-.11.06-.21.14-.3.23-.1.1-.19.22-.28.34-.07.1-.14.21-.2.32l.85-.35c-.52-.14-1.05.08-1.39.49-.32.38-.53.81-.69,1.28-.04.11-.08.22-.11.33-.02.05-.03.11-.05.16-.03.11-.05.2-.06.31l.02-.15c-.03.18-.05.36-.07.54l.02-.13c-.03.09-.03.19,0,.28l-.02-.13c0,.08,0,.16,0,.24v-.11s.01,0,.01.01c-.02.09-.02.17.02.26s.09.13.16.19h0s-.09-.08-.13-.13c.01.02.03.04.04.06.07.1.2.17.32.13h0Z"/>
      </g>
    </g>
    <g>
      <path class="cls-23" d="M255.38,393.54c-.52.92-1.65,1.61-3.49,2.38-4.64,1.96-9.38,4.56-13.65,7.22-1.98,1.23-4.97,2.41-7.27,3.02-.1.03-.18.04-.26.07-2.93.74-3.73-1.5-4.41-3.94-.4-1.5-14.3-29.82-19.88-39.16-2.65-4.44-5.66-8.63-8.56-12.91-2.44-3.6-3.65-7.83-5.06-11.92-3.9-11.28-10.04-21.76-13.08-33.34-.81-3.11-1.82-6.14-2.87-9.18-3.21,7.01-6.9,13.67-10.43,20.58-1.89,3.71-3.72,7.04-5.28,10.9-1.69,4.19-2.88,8.49-4.73,12.62-1.9,4.2-4.41,7.91-6.78,11.85-.83,1.39-1.83,2.91-2.77,4.49-.17,1.53-.47,3.02-.94,4.49-2.41,7.58-7.37,14.96-11.13,21.99-2.67,5-5.55,10.1-8.05,15.25-.34,2.98-.72,5.95-1.34,8.89-.72,3.4-.74,7.26-2.03,10.49-.63,1.58-.79,2.76-2.58,1.94-1.24-.56-2.41-1.6-3.51-2.55-.3-.28-.61-.54-.91-.79-3.5-2.91-6.57-6.34-10.06-9.31-1.89-1.6-3.72-3.24-5.61-4.82-1.2-1.01-2.74-1.92-3.8-3.03-.23.26-.48.5-.73.69-1.97-4.75,2.93-8.96,4.16-12.17,2.63-6.83,18.31-50.18,20.47-56.49,1.25-3.71,2.34-7.48,3.49-11.2,3.28-10.75,9.52-20.83,14.63-30.82,3.1-6.08,6.56-12.08,9.34-18.28,2.66-5.94,6.35-11.86,8.64-18.09-.12-4.68-.59-9.34-.59-14.04,0-2.98-.51-6.32-.06-9.34,1.65,1.34,3.76,2.09,6.01,2.05.79-.01,1.5-.03,2.08-.03,4.35,0,8.49-.19,12.77-.92,3.18-.55,6.35-1.53,9.51-2.42,1.49.8,3.1,1.38,4.93,1.47,1.75.08,3.65-.07,5.4-.3,2.2-.29,5.19-.55,7.29-1.68,1.34,2.99,2.71,5.94,3.49,9.2.74,3.2,1.31,6.41,1.89,9.64.61,3.47.69,7,.88,10.5.17,3.04.61,5.94.39,9-.22,2.77-1.01,5.5-1.13,8.23-.11,2.48.01,4.97.22,7.47,1.14,3.4,2.16,6.89,3.5,10.18,3.21,7.91,6.26,16.64,6.6,25.27.12,3.21.29,6.31.91,9.45,8.25,13.96,25.01,44.08,26.94,47.98,2.38,4.82,4.82,9.63,6.86,14.62.94,2.29,1.18,3.71.56,4.81Z"/>
      <g class="cls-15">
        <path class="cls-7" d="M163.26,235.36c.06-.98.13-1.96.2-2.94-.46,0-.93,0-1.39,0-1.54-.05-3.06-.2-4.48-.59-.75-.21-3.08-1.17-2.89-2.28-.2,1.11-.3,2.31-.34,3.46-.04,1.19-.59,4.23.33,5.14.48.47,1.75.35,2.38.42,1.96.23,3.94.37,5.93.46.08-1.22.17-2.44.25-3.66Z"/>
        <path class="cls-7" d="M177.42,233.96c.01-.61.02-1.23.03-1.84-3.3.19-6.61.29-9.91.28-.81,0-1.66.01-2.51.03.03,2.22,0,4.44-.09,6.66,4.13.11,8.29-.04,12.42-.3,0-1.61.03-3.21.07-4.82Z"/>
        <path class="cls-7" d="M191.23,235.07c0-1.25-.01-2.51.13-3.75.02-.21.05-.41.08-.62-4.14.61-8.3,1.06-12.47,1.34.16,1.84.25,3.68.3,5.53,0,.36.01.73.02,1.09,1.71-.12,3.4-.26,5.09-.42,2.29-.21,4.62-.44,6.95-.71-.03-.82-.08-1.64-.09-2.47Z"/>
        <path class="cls-7" d="M208.16,231.84c-.44-1.33-.7-2.74-.88-4.13-4.72.62-9.33,1.97-14.03,2.73-.02.41-.05.81-.06,1.22-.05,1.28,0,2.57.05,3.85.03.6.07,1.2.1,1.8,4.79-.62,9.56-1.52,14.05-3.04,1.53-.52,1.17-1.21.77-2.42Z"/>
        <path class="cls-3" d="M162.34,240.25s-.03.03-.04.05c0,0-.02.02-.02.03-.07.07-.09.12-.12.21,0,0,0,.01,0,.02-.02.05-.03.11-.05.16-.03.11-.07.22-.1.33-.06.22-.11.43-.18.65-.04.11-.07.22-.12.32l.06-.15c-.05.13-.12.25-.11.39,0,.03,0,.05,0,.08l.02.16.06.14.09.12c.05.06.12.1.19.12.05.03.1.04.15.04.05.01.11.01.16,0,.05,0,.11-.01.15-.04.07-.02.14-.07.19-.12.02-.02.03-.03.05-.05,0,0,0,0,.01-.01.01-.01.09-.12.1-.13,0,0,.06-.14.07-.16,0-.01,0-.03,0-.04.01-.05.02-.11.03-.16.03-.17.05-.34.07-.5.01-.13.03-.25.04-.38,0-.07,0-.13.01-.2s0-.13,0-.2c0-.07,0-.14,0-.21,0-.02,0-.03,0-.05,0,0,0,0,0-.01,0-.02,0-.04,0-.07,0-.04-.01-.08-.03-.12-.01-.02-.02-.05-.03-.07-.01-.03-.02-.05-.03-.08-.04-.06-.08-.11-.14-.14-.05-.03-.1-.04-.15-.05-.05-.01-.11,0-.16,0-.07.02-.13.05-.18.1h0Z"/>
        <path class="cls-3" d="M160.08,247.08c-.19.58-.13,1.25-.13,1.85s0,1.24.05,1.86c.09,1.23.18,2.46.33,3.68.29,2.47.61,4.94.86,7.41.11,1.03.24,2.04.5,3.05.24.93.57,1.83.96,2.7.74,1.64,1.76,3.14,2.96,4.5.67.76,1.41,1.48,2.17,2.15.39.34.79.67,1.19.99.48.38.98.76,1.57.95.45.15.94-.44.65-.85-.56-.77-1.4-1.32-2.11-1.95s-1.32-1.22-1.93-1.89c-.3-.33-.6-.67-.88-1.03-.03-.04-.22-.29-.1-.13-.06-.08-.12-.16-.18-.24-.13-.18-.26-.36-.39-.54-.49-.71-.93-1.46-1.3-2.24-.05-.1-.09-.2-.14-.3-.02-.05-.04-.09-.06-.14-.08-.19.07.16-.01-.03-.08-.21-.17-.41-.24-.62-.15-.41-.28-.82-.39-1.24-.12-.45-.22-.91-.31-1.36-.04-.21-.07-.43-.1-.64,0-.04-.04-.27,0-.03,0-.04-.01-.09-.02-.13-.02-.13-.03-.27-.04-.4-.25-2.48-.54-4.95-.88-7.41-.05-.34-.09-.68-.14-1.01-.02-.17-.05-.34-.07-.51,0,0-.04-.28-.02-.11-.02-.13-.04-.26-.06-.39-.12-.67-.23-1.34-.34-2.01s-.25-1.36-.4-2.03c-.07-.33-.15-.66-.22-.99-.04-.16-.07-.33-.11-.49-.04-.18-.12-.33-.21-.49-.11-.2-.4-.14-.46.06h0Z"/>
        <path class="cls-3" d="M167.44,256.2c-.24,1.39-.1,2.76.09,4.14.05.39.1.78.16,1.17.02.16.05.32.08.48.01.09.03.17.04.26,0,.04.01.07.02.11,0,.01.02.16.01.08s0,.03,0,.04c0,.05.01.09.02.14,0,.08.02.16.03.24.02.21.05.42.07.63.05.42.1.85.16,1.27.42,3.04.87,6.07,1.37,9.1.25,1.47.53,2.94.94,4.38s.89,2.9,1.36,4.34c.94,2.89,1.93,5.77,2.65,8.73.36,1.46.62,2.94.83,4.43.03.19.05.37.08.56.01.08.02.16.03.24,0,.05.01.11.02.16,0,.04.02.12,0,.03.06.42.11.84.17,1.25.11.74.2,1.49.39,2.21.09.36.19.72.28,1.08.16.61,1.15.5,1.12-.15-.04-.76-.07-1.51-.14-2.26s-.16-1.48-.26-2.22c-.2-1.51-.42-3.02-.72-4.51-.61-2.98-1.59-5.88-2.53-8.77-.47-1.43-.94-2.86-1.36-4.3s-.77-2.89-1.03-4.37-.46-2.96-.7-4.44-.48-3.04-.72-4.56-.45-2.94-.78-4.4c-.3-1.35-.7-2.68-.88-4.06-.04-.31-.07-.63-.09-.95-.02-.4-.65-.53-.73-.1h0Z"/>
        <path class="cls-3" d="M170.24,276.05s-.01.05-.02.08c-.03.1.02-.03,0,.02-.01.02-.03.06-.04.08-.02.05.02-.02.03-.03-.05.08-.09.13-.12.21l.11-.19c-.07.09-.15.16-.21.26-.05.08-.09.16-.14.23-.03.04-.06.08-.08.12-.08.12.07-.08-.03.04-.07.08-.14.17-.21.25-.34.37-.72.71-1.1,1.05-.42.38-.87.73-1.31,1.08-.22.18-.45.36-.68.54-.03.02-.06.04-.08.07-.09.07.03-.02.04-.03-.06.04-.11.09-.17.13-.11.08-.22.17-.33.25-.73.55-1.47,1.08-2.17,1.65-.33.27-.66.53-.99.79-.15.12-.3.24-.46.36-.01,0-.18.14-.06.05-.03.03-.07.05-.1.08-.1.08-.21.16-.31.24-.71.55-1.43,1.1-2.13,1.66-.76.6-1.52,1.2-2.24,1.84s-1.41,1.34-1.93,2.17c-.23.36.23.85.6.6s.75-.53,1.12-.82c-.11.09.12-.09.15-.12.04-.03.08-.07.12-.1.08-.07.16-.14.24-.21.18-.15.36-.3.55-.45.71-.57,1.41-1.15,2.13-1.71.1-.08-.13.1.04-.03.05-.04.1-.08.16-.12.09-.07.17-.13.26-.2.19-.15.38-.29.57-.44.4-.3.79-.6,1.18-.91.71-.55,1.41-1.1,2.1-1.68.15-.12.3-.25.45-.37.08-.06-.09.07-.08.06.02-.02.04-.03.06-.05.04-.03.07-.06.11-.09.09-.07.18-.14.27-.21.42-.32.84-.63,1.25-.95.98-.76,1.94-1.54,2.8-2.43.4-.42.78-.91,1.06-1.43.13-.23.3-.53.26-.8,0-.03-.03-.07-.01-.01-.01.07-.01.05,0-.08-.02-.14-.02-.15,0-.04,0-.07-.01-.14-.03-.21-.02-.1-.05-.19-.09-.28-.11-.24-.51-.17-.56.07h0Z"/>
        <path class="cls-3" d="M171.81,281.01c0,.26-.05.47-.12.72s-.09.5-.13.76c-.08.5-.19,1-.3,1.5-.24,1.05-.52,2.09-.82,3.12s-.6,2.03-.88,3.06c-.32,1.17-.62,2.35-.93,3.52-.61,2.34-1.26,4.67-1.93,6.99-.65,2.24-1.29,4.49-1.66,6.79-.17,1.05-.3,2.1-.51,3.14-.11.53-.23,1.05-.4,1.56-.04.12-.08.24-.13.37-.02.05-.04.1-.06.15-.02.04-.03.08-.05.12.02-.06.03-.06,0-.02-.1.23-.21.46-.32.69-.15.31-.09.7.23.88s.68.05.88-.23c.57-.77.85-1.79,1.07-2.71s.38-1.89.53-2.85c.37-2.27.95-4.49,1.6-6.69.69-2.34,1.37-4.68,1.98-7.04.58-2.24,1.15-4.47,1.74-6.71.31-1.19.62-2.37.79-3.59.09-.61.14-1.23.15-1.85,0-.3.01-.61-.06-.9-.03-.13-.07-.26-.11-.39-.05-.15-.06-.31-.08-.46-.04-.29-.5-.21-.5.07h0Z"/>
        <path class="cls-3" d="M154.39,244.94c.06.13.11.24.12.39,0,.11.02.21.04.31.04.25.08.49.11.74.06.52.12,1.03.19,1.55s.14.99.26,1.47c.14.56.3,1.11.45,1.67.31,1.14.62,2.27.91,3.41s.58,2.14,1.06,3.17c.26.56.55,1.1.86,1.64.15.26.31.53.48.78.08.11.16.23.24.34.16.21.3.37.52.52.24.18.62.11.84-.06.24-.18.35-.5.27-.79-.15-.54-.55-1.02-.84-1.5s-.55-.94-.79-1.43-.46-.97-.67-1.47c.06.14.01.02,0,0-.03-.06-.05-.13-.08-.19-.05-.13-.1-.26-.14-.39-.1-.27-.18-.54-.27-.81-.37-1.11-.75-2.21-1.13-3.31-.35-1.02-.71-2.02-.97-3.07-.13-.55-.25-1.09-.45-1.61-.1-.27-.21-.53-.33-.79-.05-.12-.12-.21-.2-.31-.09-.12-.15-.26-.22-.39-.09-.18-.34-.02-.26.15h0Z"/>
        <path class="cls-3" d="M176.02,250.61c-.09.26-.16.53-.27.78s-.22.51-.32.76c-.2.51-.34,1.06-.48,1.59-.29,1.08-.53,2.17-.75,3.27-.45,2.25-.75,4.55-1.01,6.83-.07.62-.13,1.24-.19,1.86-.03.31-.06.63-.08.94s-.07.63-.04.94c.04.36.24.66.63.71.35.05.7-.17.79-.52.15-.56.14-1.18.19-1.76s.11-1.11.16-1.66c.11-1.12.24-2.23.38-3.34.07-.54.13-.97.21-1.56s.17-1.12.25-1.67c.16-1.14.31-2.23.47-3.35.09-.62.16-1.24.24-1.86.04-.31.04-.61.06-.92s.05-.63.1-.95c.03-.21-.26-.31-.33-.09h0Z"/>
        <path class="cls-3" d="M199.84,247.83c-.12.58-.21,1.15-.25,1.74s-.07,1.17-.07,1.75c0,1.17.09,2.34.19,3.5s.23,2.33.37,3.49c.07.62.15,1.24.24,1.86.04.27.07.55.11.82.02.14.04.27.06.41,0,.01.02.15,0,.04.01.11.03.22.04.33.08.59.14,1.18.23,1.76.07.45.16.91.36,1.32.01.02.08.12.07.14l-.03-.08s.04.09.06.14c.04.1.09.2.13.3.08.16.16.32.26.47.22.35.48.67.76.97.5.55,1.09,1.01,1.65,1.49.43.37.85.75,1.29,1.12.56.48,1.12.95,1.69,1.42.23.19.47.4.72.57.33.21.89.18,1.11-.18l-.63.25s.11.02.16.02c.3.02.55-.27.55-.55,0-.31-.25-.54-.55-.55l.14.02.39.68c.04-.28-.04-.63-.26-.82-.16-.14-.33-.27-.49-.4-.48-.41-.94-.82-1.41-1.24-.93-.83-1.9-1.63-2.81-2.49-.27-.25-.54-.51-.78-.79-.03-.03-.06-.07-.08-.1-.01-.01-.1-.15-.04-.04s-.02-.03-.03-.05c-.02-.03-.04-.06-.06-.08-.11-.16-.2-.32-.29-.48-.03-.07-.07-.18-.11-.24.08.09.03.09.02.03,0-.05-.03-.11-.04-.16-.06-.2-.12-.39-.16-.58-.02-.09-.04-.18-.06-.27-.01-.06-.02-.13-.03-.19-.02-.15,0-.02,0,0-.04-.3-.08-.6-.12-.9-.31-2.35-.64-4.49-.92-6.78-.16-1.28-.28-2.56-.4-3.83-.06-.62-.13-1.25-.18-1.87s-.14-1.3-.23-1.95c-.04-.29-.51-.27-.57,0h0Z"/>
        <path class="cls-3" d="M201.36,247.67c.17.05.34.1.52.12.14.02.27.03.41.03.27,0,.54,0,.81-.01.59-.03,1.18-.1,1.76-.21,1.07-.19,2.11-.47,3.17-.72.3-.07.6-.14.9-.21.14-.03.29-.06.43-.09.21-.04.41-.07.59-.2.24-.16.38-.41.34-.7-.04-.26-.23-.53-.51-.59-.22-.05-.38-.04-.6,0-.11.02-.21.05-.32.07-.2.05-.4.09-.61.14-.41.1-.81.2-1.21.31-.8.21-1.61.42-2.42.59-.46.09-.93.18-1.4.24l.18-.02c-.32.04-.64.07-.96.09-.16,0-.32.02-.48.03-.2.01-.4.05-.6.08-.22.04-.41.31-.4.52.01.24.16.45.4.52h0Z"/>
        <path class="cls-3" d="M207.82,235.02c-.05.09-.14.22-.17.25-.03.04-.07.08-.11.12-.02.03-.05.05-.08.08-.07.07.14-.11-.04.04-.1.08-.19.18-.29.26.08-.07-.01,0-.04.03-.06.04-.12.08-.18.11-.1.06-.2.11-.3.17-.05.02-.1.05-.14.07-.02.01-.05.02-.07.03-.16.07.08-.02-.02,0-.24.08-.47.17-.71.24-.48.13-.97.23-1.46.35-.67.16-1.32.37-1.98.57-1.4.43-2.8.87-4.21,1.25s-2.87.63-4.34.85-3.01.46-4.52.69-2.9.49-4.37.6-3.01.12-4.52.15-2.99.12-4.49.22c-3.04.21-6.09.02-9.13-.03-.38,0-.77,0-1.15,0-.74,0-.74,1.15,0,1.15,3.1,0,6.2.24,9.3.11,1.53-.06,3.05-.21,4.58-.25s3.05-.04,4.57-.11,3.08-.29,4.61-.52,3.07-.46,4.61-.68,3-.42,4.48-.75,2.86-.75,4.27-1.17c1.23-.37,2.47-.7,3.71-1.04,1-.27,2.22-.68,2.72-1.67.13-.25.23-.51.29-.79.11-.49-.56-.8-.83-.35h0Z"/>
        <path class="cls-3" d="M160.77,241.54c-.03-.09-.07-.17-.1-.25-.04-.1-.12-.17-.2-.23-.13-.1-.25-.2-.41-.27-.28-.12-.55-.22-.84-.28-.58-.12-1.18-.13-1.77-.17-.31-.02-.62-.04-.92-.08l.19.03c-.22-.03-.45-.07-.67-.12s-.43-.1-.63-.19l.16.07s-.07-.03-.1-.04c-.08-.05-.16-.08-.25-.08-.09-.02-.18-.02-.27.01-.16.04-.33.16-.41.31-.08.16-.12.35-.07.52s.16.31.31.41c.27.16.57.29.87.38s.65.13.97.16c.55.05,1.1.04,1.65.07.3.01.6.03.9.07l-.18-.02c.21.03.42.07.62.14.09.03.19.05.28.09s.18.05.28.05c.04,0,.09,0,.13,0,.29.02.54-.31.45-.59h0Z"/>
        <path class="cls-3" d="M220.68,318.18c0,.14,0,.25-.06.38-.04.11-.08.21-.1.33-.06.29-.12.58-.16.87-.07.53-.09,1.05-.1,1.58-.03,1.09-.01,2.17.04,3.25.1,2.15.34,4.3.47,6.45.07,1.09.12,2.17.14,3.26s.03,2.18.08,3.27.12,2.19.2,3.28c.06.98.1,1.96.21,2.94.06.52.13,1.04.21,1.56.03.24.07.48.1.72,0,.07.02.14.03.2.02.16-.01-.1.01.08.01.11.03.22.04.34.06.47.11.93.13,1.4.02.4,0,.79.03,1.18.06.73,1.02.87,1.27.17s.13-1.61.06-2.36c-.08-.88-.21-1.76-.31-2.64s-.15-1.77-.19-2.65c-.06-1.11-.13-2.22-.18-3.33-.1-2.18-.04-4.37-.18-6.55s-.35-4.33-.55-6.49c-.11-1.2-.26-2.39-.38-3.59-.06-.63-.1-1.25-.19-1.88-.04-.29-.09-.58-.14-.87-.02-.13-.04-.26-.07-.39-.02-.07-.06-.13-.07-.2-.02-.1-.01-.2-.01-.3,0-.21-.31-.21-.32,0h0Z"/>
        <path class="cls-3" d="M212.08,322.95c-.91,1.42-1.36,3.12-1.85,4.72s-.9,3.25-1.36,4.88c-.38,1.35-.81,2.68-1.08,4.05-.25,1.29-.45,2.58-.72,3.87-.14.68-.3,1.36-.5,2.02-.09.29-.19.58-.31.87-.05.12,0,0,.01-.02-.03.06-.05.12-.08.17-.11.27.04-.08-.01.03-.02.04-.03.07-.05.11-.06.13-.12.25-.19.38-.17.31-.08.75.24.92s.72.07.92-.24c.63-.98.93-2.16,1.19-3.28.3-1.29.51-2.6.75-3.9s.62-2.63.98-3.93c.45-1.64.87-3.29,1.3-4.94.24-.93.45-1.86.69-2.79s.44-1.85.51-2.8c.02-.25-.32-.3-.44-.12h0Z"/>
        <path class="cls-3" d="M228,399.49c.69-.46,1.04-1.35,1.4-2.07.39-.78.71-1.6,1.03-2.41.61-1.57,1.08-3.21,1.53-4.83.91-3.26,1.57-6.59,2.39-9.87.23-.9.47-1.8.71-2.7s.54-1.78.68-2.7c.05-.29-.05-.59-.35-.7-.27-.11-.6-.02-.75.24-.4.75-.66,1.56-.91,2.38s-.47,1.6-.68,2.4c-.43,1.62-.83,3.25-1.23,4.88-.81,3.28-1.6,6.58-2.68,9.79-.29.87-.6,1.74-.89,2.61-.15.44-.3.87-.46,1.3s-.34.9-.31,1.39c.02.24.29.45.52.3h0Z"/>
        <path class="cls-3" d="M126.25,366.54c-.04.61-.16,1.22-.21,1.83s-.09,1.22-.12,1.83c-.06,1.22-.12,2.45-.16,3.67-.07,2.43-.12,4.85-.13,7.28,0,2.43.02,4.85.11,7.27s.22,4.89.47,7.32c.15,1.39.32,2.79.53,4.17.1.65.22,1.31.34,1.96.06.32.11.66.21.97.1.35.26.67.39,1.01.09.22.27.37.51.34.23-.03.4-.22.41-.46,0-.3.03-.6.03-.9s-.04-.6-.08-.9c-.07-.6-.15-1.2-.22-1.81-.13-1.2-.26-2.39-.37-3.59-.21-2.42-.38-4.84-.47-7.27-.19-4.85-.17-9.7-.22-14.55-.01-1.36-.04-2.73-.09-4.09-.02-.67-.05-1.33-.1-2s-.16-1.38-.21-2.08c-.03-.39-.58-.39-.61,0h0Z"/>
        <path class="cls-3" d="M149.24,312.77c-.01.46-.02.92-.08,1.37s-.15.89-.2,1.34c-.11.9-.16,1.81-.24,2.72-.15,1.81-.32,3.63-.49,5.44-.34,3.61-.68,7.21-.97,10.83-.14,1.8-.29,3.59-.35,5.39s-.04,3.64-.05,5.46-.12,3.64-.13,5.46.09,3.58.08,5.36c0,1.49-.13,2.98-.18,4.47-.03.76-.03,1.52.02,2.28s.11,1.56.32,2.31c.09.33.21.66.34.98.12.29.39.5.72.41s.47-.41.41-.72c-.02-.08-.03-.17-.05-.25,0-.04-.01-.09-.02-.13,0-.02-.02-.12,0-.02-.02-.17-.04-.34-.05-.52-.03-.36-.05-.72-.07-1.08-.04-.76-.03-1.52,0-2.28.08-1.51.24-3.02.31-4.53.08-1.69.01-3.39,0-5.08-.01-1.81.09-3.61.13-5.42s0-3.61.01-5.41.1-3.63.21-5.44c.23-3.59.53-7.18.7-10.78.09-1.8.17-3.6.2-5.4.02-.91.03-1.81.03-2.72s-.07-1.78-.17-2.67c-.05-.45-.03-.9-.04-1.36,0-.24-.37-.24-.38,0h0Z"/>
        <path class="cls-3" d="M125.17,348.11c-.04.12-.07.23-.11.35-.05.16-.06.32-.07.48,0,.25-.01.5-.02.75s0,.49,0,.74.01.5.01.75c0,.14,0,.29,0,.43,0,.07,0,.14,0,.21,0,.08.01.15.02.23,0,.09.02.18.06.26.03.08.07.16.14.22.06.07.13.11.22.14.08.04.17.06.26.06.18,0,.36-.07.48-.2l.11-.14c.06-.11.09-.22.09-.34.01-.1.02-.19.02-.28,0-.09-.01-.18-.02-.27-.01-.18-.03-.37-.04-.55s-.03-.36-.05-.54c-.02-.23-.05-.46-.08-.69-.03-.2-.06-.41-.08-.61l.02.15c-.01-.09-.02-.17-.03-.26-.02-.13-.03-.26-.06-.39-.04-.17-.12-.33-.18-.49-.05-.14-.18-.27-.34-.26s-.29.11-.34.26h0Z"/>
        <path class="cls-3" d="M95.65,396.91c.05-.06.1-.12.16-.17.07-.07.06-.06.16-.1-.07.03-.01,0,.02,0,.07-.02.07-.02,0,0,.1-.01.14-.04.23-.06-.01,0-.09.05-.03.02,0,0,.03,0,.04,0,.06-.01-.12,0-.04,0,.03,0,.06,0,.09,0,.02,0,.09,0,0,0-.13,0,.09.01.1.01.03,0,.07,0,.11,0,.13,0-.08-.02,0,0,.07.02.13.03.2.05.04.01.08.03.12.04.07.02-.11-.05.02,0,.03.02.06.03.1.04.22.1-.07-.04.01,0,.04.02.07.03.11.05.09.04.17.09.26.14.17.1.34.21.5.33.02.01.14.11.08.06-.06-.05.05.04.08.06.09.07.18.15.27.22.17.15.34.3.51.46.64.6,1.23,1.25,1.82,1.89.64.7,1.32,1.34,2,1.99,1.19,1.13,2.38,2.25,3.6,3.35s2.49,2.11,3.71,3.19,2.38,2.18,3.58,3.27,2.42,2.04,3.61,3.08,2.39,2.1,3.75,2.94,2.72,1.39,4.05,2.14c.17.09.33.19.5.29.18.11.39.17.58.25.48.19.79-.49.48-.82-.55-.58-1.32-.93-2.02-1.3s-1.4-.71-2.08-1.09c-1.38-.77-2.56-1.72-3.75-2.76s-2.48-2.07-3.69-3.14-2.42-2.22-3.64-3.31-2.53-2.14-3.77-3.23-2.49-2.26-3.71-3.41c-.75-.71-1.52-1.41-2.22-2.17-.6-.65-1.2-1.3-1.86-1.9s-1.34-1.2-2.14-1.55c-.35-.15-.74-.25-1.13-.21-.07,0-.39.12-.2.04-.06.03-.13.05-.19.08-.06.03-.11.06-.17.09-.05.03-.1.07-.15.11-.15.15-.06.09-.03.04-.03.04-.06.07-.08.1-.04.06-.08.12-.11.18-.08.15-.14.29-.19.49-.05.21.24.42.4.23h0Z"/>
        <path class="cls-3" d="M257.2,391.56c-.14-.26-.33-.56-.59-.7-.24-.13-.52-.19-.79-.17-.57.05-1.05.41-1.51.71-1.08.71-2.1,1.5-3.18,2.2-1.18.77-2.46,1.38-3.72,2.01s-2.57,1.27-3.85,1.9c-2.55,1.27-5.06,2.61-7.67,3.77-1.05.47-2.12.86-3.15,1.37-.85.41-1.68.86-2.53,1.27s-1.7.78-2.68,1.04c-.22.06-.45.11-.68.15-.02,0-.16.03-.1.02s-.08,0-.1.01c-.12.01-.23.02-.35.03-.2,0-.4,0-.6-.02-.1,0,.07.02-.06,0-.04,0-.09-.02-.13-.03-.1-.02-.19-.05-.29-.07s-.19-.05-.28-.08c-.02,0-.13-.05-.08-.03s-.09-.04-.1-.05c-.58-.29-1.02.49-.51.86.72.53,1.63.61,2.49.51.98-.12,1.92-.43,2.83-.81s1.85-.85,2.76-1.32c.39-.2.77-.39,1.17-.58.17-.08.35-.16.53-.24-.09.04-.04.02.02,0,.06-.03.13-.05.19-.08.17-.07.33-.14.5-.2,2.65-1.1,5.22-2.36,7.78-3.65s5.14-2.5,7.67-3.85c1.16-.62,2.22-1.36,3.28-2.15.52-.39,1.04-.77,1.56-1.14.22-.15.44-.31.68-.43.03-.01.05-.03.08-.04-.01,0-.05.02,0,0,.05-.02.1-.04.15-.05s.1-.03.15-.04c.06-.01,0,0,0,0,.03,0,.07,0,.1,0,.2.01.47.12.69.25s.45-.13.34-.34h0Z"/>
        <path class="cls-3" d="M112.46,379.93c.06-.02.12-.05.19-.06h-.23s.07.01.1.02c.12.02.21-.02.32-.06l-.11.05c.11-.05.22-.09.32-.14.08-.04.15-.1.22-.15.17-.12.33-.24.49-.37.27-.21.54-.43.8-.66.52-.46,1.01-.95,1.53-1.41.28-.26.57-.51.88-.74l-.13.1c.31-.24.64-.46.97-.68.14-.09.25-.22.3-.39.04-.15.02-.36-.07-.5-.2-.3-.56-.4-.88-.23-.18.1-.36.2-.52.32-.21.15-.41.31-.61.47-.33.27-.64.56-.94.86s-.61.61-.92.91-.6.62-.91.91c-.17.16-.35.32-.54.48-.09.07-.19.14-.27.22-.04.04-.08.08-.12.12-.02.02-.04.04-.06.06-.1.11-.14.21-.15.36l.02-.12s0,.02,0,.03l.04-.1h-.01s.04-.04.07-.07c-.04.04-.08.09-.12.13-.11.12-.15.32-.06.46s.26.23.43.17h0Z"/>
        <path class="cls-3" d="M188.46,294.02c.08.02.16.05.24.07l-.18-.1s-.07-.09-.05-.06c.03.03.05.07.07.1.06.06.14.1.22.13.04.02.09.03.13.04.13.03.27.05.41.05.2,0,.41.02.61.03.44.03.89.05,1.33.1.26.03.52.06.78.09l-.19-.03c.25.03.49.07.74.1l-.19-.03c.99.13,1.99.32,2.94.63.37.12.83-.14.92-.52.09-.4-.12-.8-.52-.92-.88-.27-1.79-.43-2.7-.55-.51-.07-1.01-.12-1.52-.14-.46-.02-.93-.05-1.38-.02-.24.02-.48.04-.72.07-.36.05-.84.11-.97.51l.11-.19c.06-.07.06-.05.02-.02-.02.01-.04.02-.06.03-.04.02-.07.04-.11.06-.22.13-.18.48.07.55h0Z"/>
        <path class="cls-3" d="M177.79,249.65c.07.05.13.1.2.14.03.02.06.04.09.06.08.05-.07-.06,0,0,.13.1.25.22.37.32.25.22.48.47.69.74.08.1.01.02,0,0,.02.03.05.06.07.1.05.06.09.13.14.19.11.15.22.31.33.46.2.28.39.57.6.85.83,1.14,1.86,2.18,3.12,2.84,1.43.75,3.06,1.07,4.65,1.28.97.13,1.95.23,2.93.31.41.03.83.05,1.24.09.04,0,.07,0,.11.01.15.02-.05,0-.05,0,0,0,.2.03.22.04.13.02.26.05.39.09.07.02.13.04.2.07.15.05-.15-.08.02,0,.06.03.11.06.16.09.04.02.11.09.15.1-.1-.02-.13-.11-.07-.05.02.02.05.05.08.07.04.04.08.09.12.13.06.06-.04.02-.05-.07,0,.02.05.07.06.09.03.05.06.09.09.14.03.06.06.12.08.17.04.08-.06-.16-.03-.07,0,.03.02.06.04.1.05.14.09.29.12.43.04.17.06.33.09.5.05.32.21.5.47.69.19.14.53.08.69-.09.2-.22.32-.45.29-.75-.02-.2-.05-.41-.09-.61-.05-.26-.12-.52-.22-.77-.23-.55-.57-1.02-1.09-1.34s-1.17-.44-1.79-.51c-.91-.11-1.82-.15-2.73-.23-.23-.02-.45-.05-.68-.07-.11-.01-.21-.02-.32-.04-.07,0-.13-.02-.2-.03-.04,0-.18-.02-.08-.01-.48-.07-.96-.14-1.43-.24-.76-.15-1.51-.35-2.23-.64-.03-.01-.13-.06.02,0-.03-.02-.07-.03-.1-.05-.07-.03-.13-.06-.2-.09-.16-.08-.31-.16-.46-.25-.13-.08-.26-.16-.39-.25-.06-.04-.12-.08-.18-.13-.04-.03-.07-.06-.11-.08-.07-.05.1.08,0,0-.55-.46-1.06-.96-1.5-1.52.11.13-.06-.08-.09-.13-.06-.08-.12-.16-.17-.24-.12-.16-.23-.32-.35-.49-.26-.36-.51-.72-.8-1.05-.52-.61-1.17-1.24-2-1.36-.27-.04-.53.04-.64.31s0,.52.22.68h0Z"/>
        <path class="cls-3" d="M180.54,251.46c.08,0,.16.02.23.02.03,0,.06,0,.09.01.09.01.05,0,.03,0,.18.03.35.07.53.08.29.02.58.03.88.06.6.05,1.19.11,1.79.17,1.18.12,2.38.17,3.57.08.71-.06,1.42-.16,2.11-.34l-.84-.34s.04.09.06.14c-.11-.23-.02-.06,0,0,.03.08.06.17.09.25.06.19.12.38.17.57.1.4.18.81.25,1.21.14.8.26,1.6.42,2.4.06.28.39.54.68.52.05,0,.14-.01.19-.03.16-.04.34-.18.42-.32.09-.18.1-.34.07-.54-.01-.08-.02-.15-.03-.23l.03.19c-.11-.84-.18-1.7-.33-2.54s-.37-1.62-.72-2.37c-.14-.3-.54-.42-.84-.34-.46.12-.93.21-1.4.28l.2-.03c-.99.13-1.99.16-2.99.17s-2,0-3,.05c-.31.01-.63,0-.93.06-.27.05-.54.11-.81.17-.16.03-.26.21-.24.37.03.17.16.27.33.29h0Z"/>
      </g>
    </g>
    <path class="cls-3" d="M117.31,416.73c-.28,1.78-.9,3.5-1.82,5.22-1.03,1.94-2.41,5.15-4.68,5.84-1.71-.55-17.58-7.88-19.04-8.35-1.58-.5-3.1-.88-4.63-1.56-3.51-1.57-6.86-3.76-9.96-6.08-1.67-1.27-6.88-4.78-10.9-8.42.19-.3.37-.58.51-.81.63-1.13,1.43-2.2,2.27-3.18,1.63-1.92,3.76-3.79,6.37-4.05,1.68-.17,3.75,1.17,5.13,2.04,2.52,1.57,5.18,2.58,8.13,3.06,1.93.33,3.87.83,5.73.04.65-.28,1.24-.58,1.79-1.02.25-.19.5-.43.73-.69,1.06,1.12,2.6,2.03,3.8,3.03,1.89,1.58,3.72,3.22,5.61,4.82,3.49,2.98,6.56,6.41,10.06,9.31.3.25.61.51.91.79Z"/>
    <path class="cls-2" d="M110.1,431.17c-.79,1.17-1.67,2.22-3.06,1.87-1.74-.43-3.4-1.32-5.04-2-2.37-.98-4.79-1.93-7.04-3.16-1.5-.84-2.98-1.75-4.52-2.48.23-1.12.99-2.29,1.38-3.39.33-.92.41-1.21-.73-1.23-1.78-.03-3.57.4-5.36.19-2.37-.29-4.82-1.89-6.75-3.22-3.13-2.18-6.26-4.26-9.12-6.79-1.36-1.21-4-3.02-4.55-4.84-.25-.81.41-1.87.96-2.74,4.02,3.64,9.23,7.15,10.9,8.42,3.1,2.31,6.45,4.51,9.96,6.08,1.53.68,3.04,1.06,4.63,1.56,1.46.47,17.33,7.8,19.04,8.35,1.07.92-.11,2.51-.7,3.38Z"/>
    <path class="cls-3" d="M262.99,406.29c-1.38,1.14-16.09,10.58-17.28,11.56-1.27,1.06-2.41,2.15-3.8,3.07-3.21,2.12-6.86,3.76-10.49,5.13-1.96.73-7.72,3.22-12.95,4.66-.15-.32-.29-.63-.41-.87-.61-1.14-1.07-2.4-1.46-3.62-.74-2.4-1.17-5.21.01-7.54.76-1.5,3-2.54,4.46-3.24,2.69-1.27,4.97-2.98,6.96-5.19,1.14-1.27,2.41-2.48,2.93-4.08,2.3-.61,5.29-1.79,7.27-3.02,4.27-2.66,9.01-5.26,13.65-7.22,1.83-.77,2.96-1.46,3.49-2.38,2.2,1.38,3.86,3.25,5.19,5.65,1.07,1.93,3.04,4.81,2.41,7.1Z"/>
    <path class="cls-2" d="M265.38,412.29c-1.28,1.23-2.93,2.15-4.38,3.17-2.11,1.46-4.22,3-6.46,4.23-1.5.83-3.07,1.57-4.52,2.48-.81-.8-1.39-2.07-2.11-2.99-.61-.77-.81-.99-1.43-.04-.96,1.49-1.57,3.22-2.73,4.63-1.5,1.85-4.17,3.04-6.34,3.95-3.53,1.47-6.96,2.99-10.64,4.04-1.75.5-4.68,1.74-6.52,1.23-.81-.22-1.36-1.34-1.79-2.29,5.24-1.43,10.99-3.93,12.95-4.66,3.62-1.36,7.27-3,10.49-5.13,1.39-.92,2.54-2.01,3.8-3.07,1.18-.98,15.9-10.42,17.28-11.56,1.36-.41,2.05,1.45,2.48,2.41.55,1.28.96,2.6-.08,3.6Z"/>
  </g>
  <g>
    <path class="cls-5" d="M194.05,95.42c-.62,1.15-1.49,1.07-2.71,1.04-2.5-.09-26.06-5.55-26.6-5.88-4.23-1.01-18.89-2.91-24.12-4.88-1.58-.6-3.66-1.15-4.98-2.25-1.34-1.11-.72-2.96.34-4.22,2.03-2.44,6.91-1.63,9.67-1.65,1.83,0,3.7.04,5.53.02.69-.01,1.38.03,2.08.09.29-1.66,2.55-4.09,3.53-4.95,2.04-1.8,3.9-3.13,6.44-4.16,7.74-3.12,15.98-1.85,22.74,3.02,4.11,2.95,6.69,7.28,8.19,12.07.74,2.33.8,4.68.62,7.11-.1,1.46,0,3.29-.72,4.63Z"/>
    <g class="cls-13">
      <path class="cls-3" d="M153.57,78.99c.03.19.06.37.13.55s.13.36.2.54c.15.39.37.77.58,1.13.39.68.8,1.35,1.23,2.02.87,1.36,1.81,2.67,2.85,3.9.28.33.58.63.87.95s.6.62.91.92c.21.2.57.22.78,0s.21-.55,0-.78c-.26-.27-.51-.55-.75-.83-.13-.15-.25-.29-.37-.44-.01-.02-.03-.03-.04-.05-.04-.05.03.03.03.04-.03-.03-.06-.08-.09-.12-.08-.11-.16-.21-.24-.31-.12-.15-.25-.3-.37-.46-.06-.07-.12-.15-.17-.22-.03-.03-.05-.07-.08-.1,0,0,.08.1.03.04-.02-.03-.04-.06-.07-.09-.23-.31-.46-.62-.69-.93-.91-1.27-1.78-2.58-2.58-3.92-.22-.37-.45-.73-.68-1.1-.11-.18-.26-.35-.39-.53-.08-.11-.15-.23-.25-.32-.08-.08-.17-.15-.25-.22-.12-.1-.28-.14-.42-.05s-.18.24-.16.4h0Z"/>
      <path class="cls-3" d="M164.87,72.15s0,0,.01,0l-.16-.16h0c.05.09.11.16.19.21.08.05.17.07.27.07.03,0,.07,0,.1,0,.02,0,.03,0,.05,0,.07,0,.14-.02.21-.03.07-.01.14-.03.22-.04l-.17.02c.09-.01.17-.02.26-.02.04,0,.09,0,.13,0,.07,0,.14,0,.21-.03.01,0,.02,0,.03-.01.02,0,.04-.02.06-.02l.16-.07c.08-.04.14-.1.18-.17.04-.04.07-.09.08-.14.04-.08.06-.16.06-.25l-.02-.17-.07-.16c-.04-.08-.1-.14-.17-.18-.06-.06-.14-.1-.22-.12-.09-.01-.18-.02-.26-.04s-.18.02-.27.04c-.06.02-.12.04-.18.06s-.12.04-.18.07c-.11.04-.21.09-.31.14-.06.03-.1.06-.16.12-.01.01-.02.02-.04.03-.02.02-.05.04-.07.07-.07.07-.11.15-.14.24-.03.1-.03.19,0,.29h0v-.22s0,.01,0,.02v.11c-.02.06,0,.11.02.16,0,.04.03.07.05.09.03.05.07.08.12.11h0Z"/>
      <path class="cls-3" d="M175.03,76.57s.04.03.07.03c.05.03.1.04.15.04.09.01.14.02.24-.01,0,0,0,0,.01,0,.06-.02.11-.05.17-.07.02,0,.04-.02.06-.03s.04-.02.06-.03c.07-.05.13-.1.19-.15l-.14.11c.15-.1.15-.11.26-.26,0,0,0,0,0,0,0,0,.01-.02.02-.02,0-.01.02-.03.03-.04.02-.03.04-.06.05-.1.04-.09.08-.19.12-.28.06-.17.03-.35-.02-.51l-.07-.17-.11-.15-.15-.11c-.08-.05-.17-.08-.27-.09-.06-.02-.13-.02-.19,0-.07,0-.13.02-.18.05-.06.02-.11.05-.16.09-.08.05-.14.12-.19.2-.01.02-.02.04-.03.06-.07.13-.12.26-.11.41,0,.01,0,.02,0,.04,0,.05,0,.09,0,.14l.03-.19s-.01.09-.03.13c-.02.08-.03.16-.03.24,0,.02,0,.03,0,.05l.02-.18s-.01.06-.02.09c0,.01,0,.03-.01.04,0,0,0,.01,0,.02-.03.09-.03.23,0,.32.01.05.03.1.06.14.05.09.12.16.21.21h0Z"/>
      <path class="cls-3" d="M186.26,76.97s0,.09,0,.13c0,.02,0,.05,0,.07,0,.01,0,.02,0,.03,0,0,0,0,0,0v.09s.02.06.03.1c0,0,0,.01,0,.02.02.1.05.2.06.29,0,.05.02.1.02.16l-.03-.2c.01.08,0,.16.03.24,0,.01,0,.02.01.03,0,.02.01.04.02.06,0,0,0,.02,0,.03,0,0,0,0,0,.01,0,0,0,0,0,0,0,0,.07.17.08.18.04.06.09.14.14.19.09.09.2.15.32.19.1.03.19.03.29.01.1,0,.19-.03.27-.09.11-.06.2-.15.26-.26,0-.02.07-.16.08-.18,0,0,0,0,0,0,0,0,0-.01,0-.02s0,0,0-.01c0,0,0,0,0,0,0,0,.03-.2.03-.2,0,0,0,0,0-.01,0-.06-.01-.12-.02-.18,0-.05-.01-.1-.02-.14,0,0,0-.01,0-.02,0,0,0,0,0-.01,0-.03-.08-.19-.04-.09-.01-.03-.03-.06-.04-.1-.01-.03-.03-.06-.04-.09-.03-.06-.06-.13-.09-.19-.02-.03-.03-.06-.05-.1,0-.02-.02-.03-.03-.05-.02-.03-.04-.06-.07-.09-.03-.04-.04-.06-.07-.09-.06-.05-.11-.1-.17-.14l-.12-.09-.14-.06-.15-.02c-.08,0-.15.01-.22.05-.05.01-.09.04-.13.07-.04.03-.08.06-.1.1-.04.04-.06.08-.07.13-.04.07-.05.14-.05.22h0Z"/>
      <path class="cls-24" d="M157.27,71.68c-.1.07-.19.16-.29.22-.12.07-.25.14-.37.21-.14.08-.26.16-.39.25-.08.06-.16.13-.24.19.09-.06-.06.05-.09.07-.03.03-.07.07-.1.1-.47.47-.95.99-1.24,1.59-.16.33-.29.69-.26,1.07.02.23.15.45.38.5.49.12,1.02,0,1.49-.18.53-.19,1.03-.45,1.53-.72.24-.13.48-.26.73-.39l-.15.07c.17-.07.35-.12.52-.2l-.95-.95c-.19.42-.5.77-.72,1.17-.13.24-.26.5-.32.76-.03.15-.06.31-.06.47,0,.13,0,.25.05.37.03.07.07.14.1.21l-.07-.27c0,.08.02.16.03.23.03.21.3.41.51.39s.41-.07.6-.15c.02,0,.04-.02.07-.03,0,0,.02,0,.03-.01l.06-.02c.08-.04.08-.03-.02,0,.05-.01.09-.03.14-.05.09-.03.19-.07.28-.1s.18-.06.28-.09c.04-.01.09-.02.13-.03.02,0,.04,0,.06-.01.01,0,.02,0,.04,0,.06-.01-.07.01-.08,0,.02.01.1,0,.12,0,.02,0,.03,0,.05,0,.01,0,.02,0,.03,0,.06,0-.08,0-.08-.01,0,0,.09.02.1.03.06.01-.11-.06-.06-.03,0,0,.05.03.05.03,0,0-.1-.09-.06-.05s-.05-.06-.05-.07c0,0,.03.05.03.05.05.08-.03-.11-.02-.04,0,.02.02.05.02.07.01.05,0,.14,0-.04,0,.03,0,.05,0,.08,0,.06,0,.12,0,.18l.02-.15c0,.06-.03.11-.05.16-.02.07.04-.1.04-.09-.01.04-.03.07-.05.11-.02.06-.05.11-.07.17l.06-.14c-.21.5-.54.95-.76,1.45-.06.14-.13.29-.17.45-.03.12-.04.23-.05.35-.02.2-.04.4-.06.59l.02-.18v.02c.02-.05.04-.11.06-.16-.04.09-.08.17-.11.26l.12-.16c-.33.33-.31.86.02,1.18.05.05.15.12.17.14.3.19.72.09.93-.18s.21-.7-.06-.94c-.01-.01-.02-.02-.04-.03-.11-.1-.23-.16-.38-.18-.14-.02-.3,0-.42.08-.01,0-.02.02-.03.02l.87,1.13h0s-.1.07-.15.11c0,0,.02-.01.03-.02.16-.11.27-.22.35-.4.06-.14.08-.28.06-.43-.03-.19-.1-.32-.23-.47l.2.35c-.03-.1-.07-.2-.09-.3l.02.18c0-.24,0-.49.04-.73l-.02.17c.02-.17.09-.33.15-.49l-.06.15c.16-.37.36-.73.52-1.1.05-.12.1-.24.15-.36s.06-.24.08-.37c.02-.19-.01-.39-.08-.57-.17-.44-.49-.75-.97-.79-.32-.03-.65.08-.95.18-.17.06-.34.13-.52.18-.08.02-.16.03-.24.05-.06.01.08-.01.08-.01,0,0-.06,0-.07,0-.04,0-.07,0-.11,0l.53.53s0-.06,0-.09l-.07.27s.04-.08.06-.11c.05-.08.07-.16.1-.26s.05-.18.09-.27l-.07.16c.27-.64.77-1.16,1.04-1.8.06-.15.1-.28.08-.44-.02-.15-.08-.3-.19-.4-.09-.08-.19-.14-.31-.18-.18-.06-.37,0-.54.07-.09.04-.18.12-.26.18-.1.07-.2.13-.3.2-.23.15-.46.3-.7.45s-.49.3-.74.44c-.12.07-.25.13-.38.19-.03.01-.05.02-.08.04-.06.03.12-.05.06-.03-.01,0-.02,0-.03.01-.06.03-.13.05-.2.07-.06.02-.13.03-.19.05-.03,0-.07.01-.1.02-.06.01.14-.02.08-.01-.02,0-.04,0-.05,0-.06,0-.12,0-.18,0,0,0-.02,0-.03,0-.09,0,.06,0,.07.01-.01-.01-.08-.01-.09-.02l.38.5c-.01-.12,0-.24,0-.36,0-.06-.02.15,0,.06,0-.01,0-.03,0-.04,0-.03.01-.06.02-.09.02-.07.03-.13.06-.2s.05-.13.07-.19c.02-.06-.04.1-.02.05,0-.02.01-.03.02-.05.02-.04.04-.08.05-.12.07-.14.14-.27.23-.41s.17-.26.26-.39c.05-.06.09-.13.14-.19.01-.02.03-.04.04-.06,0,0-.05.07,0,.01.03-.04.06-.07.09-.11.21-.26.41-.52.59-.8.08-.13.16-.26.24-.39.07-.11.18-.21.27-.31.08-.08-.04-.19-.12-.12h0Z"/>
    </g>
  </g>
  <g>
    <g>
      <g>
        <path class="cls-6" d="M47.6,132.37h56.29v85.82h-56.29c-.71,0-1.28-.58-1.28-1.28v-83.25c0-.71.58-1.28,1.28-1.28Z"/>
        <g class="cls-14">
          <path class="cls-3" d="M60.16,206.96c.11-.04.23-.09.34-.14.07-.03.15-.07.21-.11.17-.12.34-.25.5-.39.26-.22.5-.45.74-.69.07-.07.14-.13.2-.19.03-.03.07-.06.1-.09s.06-.07.09-.11c.07-.06.11-.13.14-.22.04-.08.06-.17.06-.26,0-.09-.02-.18-.06-.26-.03-.08-.07-.16-.14-.22l-.14-.11c-.1-.06-.22-.09-.34-.09l-.18.02c-.11.03-.21.09-.3.17-.03.03-.06.05-.09.08s-.06.06-.08.09c-.05.06-.11.13-.16.19-.11.13-.21.26-.32.38-.21.25-.43.5-.68.72-.13.12-.25.24-.39.35l.1-.08s0,0-.01,0c-.06.03-.11.08-.14.13-.05.05-.08.11-.09.17l-.02.14c0,.07.01.14.04.2.01.04.03.08.07.11.04.06.08.1.14.13l.12.05c.09.02.18.02.27,0h0Z"/>
          <path class="cls-3" d="M72.77,151.61c.05.03.1.07.15.11l-.09-.07c.16.12.3.26.44.4.08.07.15.15.22.22s.16.15.24.23c.3.3.58.62.88.92.07.07.14.14.22.21.03.03.07.06.11.1.03.03.07.05.1.09l-.11-.15s.05.06.07.1c.03.06.08.1.13.13.02.02.05.04.08.06,0,0,.01,0,.02,0,0,0,.02,0,.02.01,0,0,0,0,.01,0,.05.02.13.06.18.08l.19.03c.1,0,.19-.02.28-.06.06-.02.12-.05.16-.09.08-.05.14-.12.19-.21l.07-.17.03-.19c0-.1-.02-.19-.06-.28-.03-.09-.08-.17-.15-.24-.01-.01-.03-.03-.04-.04,0,0,0,0,0,0-.03-.02-.05-.04-.08-.06-.05-.05-.1-.08-.16-.1-.05-.02-.07-.03-.11-.04l.18.07s-.07-.04-.1-.06c-.03-.02-.07-.04-.1-.07-.07-.05-.14-.1-.21-.15l.14.11c-.29-.22-.57-.46-.86-.69-.19-.15-.38-.3-.58-.44-.08-.05-.16-.1-.24-.15s-.16-.09-.24-.13c-.21-.09-.42-.18-.65-.23-.1-.02-.23-.02-.32.04l-.08.06s-.07.08-.09.13c-.02.03-.03.07-.03.1-.01.06,0,.11,0,.17.03.11.1.19.19.25h0Z"/>
          <path class="cls-3" d="M97.53,173.76c-.09.03-.17.06-.25.1l.08-.03c-.13.04-.27.09-.39.16-.03.02-.05.03-.08.05-.06.03-.11.08-.16.12-.05.04-.09.08-.14.12-.18.16-.35.34-.51.53-.11.13-.21.26-.31.4l.09-.11c-.05.06-.1.12-.15.18-.05.07-.11.13-.16.2,0,.01-.02.02-.03.04-.02.02-.03.05-.03.08-.04.08-.06.16-.05.24,0,0,0,0,0,.01,0,.15.03.19.09.33l.1.12c.06.06.12.1.2.13.05.03.1.04.16.04.08.02.16.01.25-.01.03-.01.12-.05.15-.06,0,0,.09-.07.13-.1.08-.07.15-.19.17-.29,0-.01,0-.03.01-.04,0-.03.02-.06.03-.1.02-.07.05-.15.08-.22l-.06.13c.05-.12.12-.23.19-.34.07-.12.15-.24.23-.36.05-.07.1-.13.15-.2l-.07.1c.05-.06.1-.13.15-.19.07-.09.13-.18.2-.27l-.06.08c.08-.09.13-.2.2-.3l-.05.06s.09-.09.13-.14l.04-.06s.03-.07.03-.1c0-.06,0-.12-.03-.18-.03-.04-.06-.07-.1-.1-.03-.02-.07-.03-.1-.03-.04,0-.07,0-.11,0h0Z"/>
        </g>
      </g>
      <g>
        <path class="cls-26" d="M103.89,132.37h48c.71,0,1.28.58,1.28,1.28v83.25c0,.71-.58,1.28-1.28,1.28h-48v-85.82h0Z"/>
        <g class="cls-20">
          <polygon class="cls-3" points="117.83 201.24 113.93 197.35 110.04 201.24 111.98 201.24 111.98 212.32 115.88 212.32 115.88 201.24 117.83 201.24"/>
          <polygon class="cls-3" points="126.48 201.24 122.58 197.35 118.68 201.24 120.63 201.24 120.63 212.32 124.53 212.32 124.53 201.24 126.48 201.24"/>
          <path class="cls-3" d="M136.89,188.2h0c.07.08.15.12.24.15.1.03.19.03.29,0,.1-.04.2-.08.3-.12.06-.02.11-.05.16-.08.15-.1.29-.21.43-.33.22-.17.43-.36.64-.54.12-.1.24-.2.37-.3l-.14.11c.12-.09.23-.18.34-.27l-.14.11c.16-.13.34-.24.53-.33l-.16.07c.06-.03.12-.05.19-.06l.16-.07c.08-.04.14-.1.19-.17.04-.04.07-.09.09-.15.04-.08.06-.17.06-.26,0-.15-.03-.21-.09-.34l-.11-.14c-.06-.07-.13-.11-.22-.14-.05-.03-.11-.05-.17-.05-.09-.02-.18-.02-.27.01-.14.03-.27.09-.4.15-.08.04-.16.08-.24.13-.08.05-.17.11-.25.17-.13.1-.26.19-.37.3-.32.3-.62.63-.94.94-.08.08-.17.16-.26.23-.08.07-.16.15-.24.22l.11-.09h0s-.07.06-.11.09c-.05.05-.09.11-.11.18-.02.04-.04.09-.04.14-.02.07-.01.15,0,.22,0,.02.02.05.03.07.02.06.06.12.11.17h0Z"/>
          <path class="cls-3" d="M111.21,168.03s.09.08.14.12c.02.02.05.04.07.07.05.04.1.08.15.12.11.08.22.16.33.24l-.1-.07c.18.14.36.27.54.41l-.11-.08c.18.14.36.28.53.43.19.16.38.33.58.49.12.09.25.18.37.26.07.05.15.07.24.08.09.02.17.02.26-.01.08-.02.16-.06.22-.12.07-.05.13-.11.17-.18l.07-.15c.03-.11.03-.23,0-.34l-.07-.15c-.06-.1-.13-.17-.23-.23-.08-.06-.16-.11-.24-.17s-.17-.11-.26-.16c-.18-.1-.35-.21-.53-.31s-.36-.2-.54-.29c-.09-.05-.18-.09-.28-.14-.12-.06-.25-.11-.38-.16-.05-.02-.1-.04-.16-.06-.05-.02-.1-.04-.15-.05-.13-.03-.27-.04-.4-.06h-.08s-.05.03-.07.04c-.06.03-.1.09-.13.15-.02.05-.03.1-.02.16,0,.06.04.13.09.18h0Z"/>
          <path class="cls-3" d="M154.6,149.66s-.1.08-.15.11l.07-.05c-.32.25-.65.49-.99.73-.15.1-.28.22-.42.33l.11-.09c-.26.2-.53.4-.81.59-.25.17-.51.34-.78.5-.13.07-.27.14-.41.2l.16-.07s-.1.04-.15.06c-.1.03-.19.07-.29.11l.16-.07s-.03.01-.04.02c-.05.02-.12.05-.17.07-.1.05-.19.15-.25.24-.12.2-.12.47,0,.67h0s.07.09.1.14c.09.09.12.1.22.14.1.04.13.06.27.06.07,0,.13-.02.19-.03.03,0,.06,0,.09-.02.18-.06.35-.14.52-.23.14-.07.27-.16.39-.24.18-.12.36-.25.52-.39.28-.24.54-.49.8-.75.13-.13.27-.26.38-.4s.22-.27.33-.41c.22-.27.43-.55.64-.84.04-.06.06-.18.03-.25s-.06-.12-.12-.17-.12-.07-.2-.07h-.09c-.05.03-.1.05-.14.09h0Z"/>
          <path class="cls-3" d="M129.25,215.86s0,.06,0,.1c0,0,0,.05,0,.05,0,0,.01-.06,0,0-.02.06-.04.11-.05.18,0,.06-.02.11-.03.17-.02.11-.05.21-.06.32,0,.14-.01.28-.03.41-.01.15-.02.29-.03.44-.02.29-.05.59-.07.88s-.05.59-.07.89c-.01.15-.02.31-.03.46s0,.31,0,.46c.01.17.07.34.19.46.11.11.3.2.46.19s.35-.06.46-.19l.1-.13c.06-.1.09-.21.09-.33,0-.14.02-.27.02-.41s0-.28,0-.42c0-.29.02-.59.03-.88,0-.15.01-.3,0-.45s-.01-.29-.02-.43c-.01-.19-.02-.39-.06-.58-.03-.14-.05-.28-.09-.42-.04-.18-.14-.35-.23-.51-.05-.08-.1-.15-.16-.21-.01,0-.02-.02-.03-.03-.02-.02-.01-.01,0,.01,0,0-.01-.02-.02-.03-.02-.03-.04-.07-.06-.1-.09-.16-.37-.1-.36.1h0Z"/>
          <path class="cls-3" d="M108.63,137.71s.01.07.02.11l-.02-.14c0,.06.01.12.03.17,0,.01,0,.02,0,.04,0,.02,0,.05.01.07l-.02-.16s0,.09,0,.14l.02-.17s0,.04-.02.06c0,0,0,0,0,0,0,0,0,0,0,0l-.02.18s0,.06.01.1c0,.03,0,.06.01.1,0,0,0,0,0,0,0,.01,0,.02,0,.03l.07.16.11.14.14.11c.08.05.16.08.25.08.06.02.12.02.18,0,.06,0,.12-.02.17-.05.06-.02.11-.05.15-.09.07-.05.13-.11.18-.19.02-.05.07-.13.08-.2,0,0,0,0,0,0v-.09c.03-.06.03-.12.01-.18-.01-.11-.01-.15-.08-.26,0,0,0-.01-.01-.02-.04-.05-.08-.1-.12-.15,0,0,0-.01-.01-.02-.01-.01-.02-.02-.03-.03-.01-.01-.03-.02-.04-.03-.05-.04-.09-.07-.14-.11,0,0-.01-.01-.02-.02-.03-.02-.07-.04-.1-.06,0,0-.01,0-.02,0-.02-.01-.05-.02-.07-.03-.03-.01-.05-.02-.07-.03,0,0-.02,0-.03,0-.02,0-.05-.01-.07-.01-.08-.02-.16-.02-.25,0-.08.02-.15.06-.2.12-.06.06-.1.13-.12.2-.02.08-.02.16,0,.25h0Z"/>
        </g>
      </g>
    </g>
    <g>
      <polygon class="cls-24" points="136.63 160.36 125.56 160.36 123.06 132.37 134.13 132.37 136.63 160.36"/>
      <g class="cls-17">
        <path class="cls-4" d="M130.12,129.12h-.01s.07,0,.11-.01c-.05,0-.1,0-.15,0-.06,0-.12,0-.18,0-.14,0-.28-.01-.41-.03l.16.02c-.16-.02-.33-.05-.49-.06-.12,0-.24-.02-.35-.03-.22-.02-.44-.05-.66-.07-.26-.02-.53-.03-.79-.02-.34,0-.67.01-1.01.02-.38,0-.75,0-1.13.01-.15,0-.3.04-.43.12-.1.05-.18.13-.24.22-.08.08-.13.18-.15.29-.04.15-.04.3,0,.45.09.23.14.47.17.71l-.03-.23c.04.3.06.61.09.92.03.21.05.43.11.64.02.07.04.14.06.2.03.08.06.16.1.23.03.05.1.14.16.2.02.03.05.05.07.08l.17.13c.09.06.2.09.3.1.07.02.14.02.22,0,.11,0,.21-.04.3-.1.12-.08.22-.18.29-.29.06-.09.09-.2.1-.3.02-.11.02-.22-.01-.33,0-.01,0-.02,0-.04l.03.22c-.02-.13-.02-.26-.06-.39-.02-.06-.04-.13-.06-.19-.03-.13-.06-.27-.08-.4l.03.23c-.04-.28-.05-.56-.09-.85-.03-.2-.05-.41-.1-.61s-.13-.4-.22-.58l-.74,1.28c.42-.03.85-.06,1.27-.09s.86-.06,1.28-.11c.27-.04.54-.05.81-.06.35-.01.7-.01,1.03-.1.15-.04.29-.08.43-.14.07-.03.14-.06.2-.09s.12-.08.17-.12c.04-.04.08-.08.12-.13.13-.13.17-.35.07-.51s-.29-.24-.47-.19h0Z"/>
        <path class="cls-4" d="M130.68,133.92h0c.08.02.15.04.23.06-.01,0-.02-.01-.03-.02l.1.07s-.04-.03-.05-.04c-.01-.01-.02-.02-.03-.03-.09-.08-.17-.12-.29-.16-.07-.02-.14-.05-.21-.07-.11-.03-.22-.04-.33-.05-.21-.03-.43-.08-.64-.09-.32-.02-.65-.05-.97-.04s-.63.02-.95.04c-.36.01-.72.01-1.07-.03l.24.03s-.05,0-.08-.01c-.12-.04-.25-.04-.37-.02-.12,0-.24.04-.34.11l-.19.14c-.09.08-.15.18-.19.3-.04.07-.06.15-.06.23-.03.12-.02.25.02.37l.09.22c.08.14.19.25.33.33h.02c.07.04.15.07.22.11.01,0,.02,0,.03,0,.1.02.2.04.3.04.02,0,.04,0,.06,0,.09,0,.19-.02.28-.04.02,0,.04,0,.06-.01,0,0,.02,0,.03,0l.2-.09.17-.13c.07-.07.11-.15.16-.22l-.11.15h0c.04-.06.07-.11.11-.15.05-.08.08-.17.08-.27.02-.06.02-.13,0-.19,0-.1-.03-.18-.08-.27,0-.02-.01-.03-.02-.04,0,0,0-.01-.01-.02-.07-.13-.12-.17-.22-.24-.05-.05-.11-.09-.19-.11-.04-.02-.08-.04-.11-.05-.01,0-.02,0-.03,0-.03,0-.05-.02-.08-.03l.21.09s-.05-.03-.08-.05l.18.14c-.08-.07-.16-.14-.26-.2l-.47,1.72c.66.04,1.32-.09,1.98-.18l-.22.03c.37-.05.73-.08,1.1-.12.09,0,.18-.02.28-.03.15-.02.29-.04.44-.08s.3-.08.45-.1l-.16.02c.09-.01.18-.01.27-.02.13,0,.21-.03.33-.09.02,0,.03-.02.05-.02.02-.01.05-.03.07-.04l-.11.05h0c.22-.06.35-.28.32-.5-.01-.09-.05-.19-.12-.26l-.09-.07c-.07-.04-.15-.06-.23-.06h0Z"/>
        <path class="cls-4" d="M130.57,140.92s.05.01.08.02l-.15-.06s.02,0,.02.01l-.13-.1h0s.1.08.14.12c.08.05.17.08.26.08.06.02.13.02.19,0,.09,0,.18-.03.26-.08.04-.02.07-.04.11-.06.08-.05.16-.12.24-.18s.13-.14.19-.22c.02-.03.04-.06.06-.1.13-.25.2-.51.21-.79,0-.08,0-.16-.01-.24-.02-.14-.03-.29-.07-.43-.06-.22-.15-.43-.26-.63-.04-.08-.09-.15-.15-.23-.1-.13-.19-.26-.31-.37-.18-.19-.39-.35-.61-.5s-.47-.25-.71-.35c-.19-.07-.39-.13-.59-.16-.26-.05-.53-.08-.8-.08s-.51.04-.76.09c-.17.03-.33.08-.49.15-.21.09-.4.17-.59.3-.17.12-.34.25-.48.41-.09.1-.17.21-.25.32-.04.06-.08.12-.11.18-.05.09-.09.18-.13.28s-.08.19-.11.29c-.06.2-.09.41-.1.61s.02.42.05.63c.03.15.07.3.12.44.08.21.17.41.29.6s.27.38.43.55c.1.11.23.19.36.25l.16.07c.09.03.18.03.27.01.06,0,.12-.02.17-.05.08-.03.16-.07.22-.14.08-.09.14-.19.17-.3.05-.17.01-.37-.07-.52-.06-.12-.13-.22-.22-.32-.05-.05-.09-.11-.14-.17l.11.15c-.14-.18-.25-.37-.34-.58l.08.18c-.08-.18-.13-.37-.16-.57l.03.2c-.02-.17-.02-.35,0-.53l-.03.2c.02-.18.07-.35.14-.51l-.08.18c.06-.15.14-.28.24-.41l-.12.16c.1-.13.22-.24.34-.34l-.16.12c.15-.11.31-.21.48-.28l-.19.08c.21-.09.44-.15.66-.18l-.21.03c.28-.04.55-.04.83,0l-.21-.03c.28.04.55.11.81.22l-.19-.08c.22.09.43.21.62.36l-.16-.12c.17.13.32.28.45.45l-.12-.16c.12.15.22.32.3.5l-.08-.19c.06.15.11.3.13.45l-.03-.21c.01.11.02.22,0,.33l.03-.2c-.01.08-.03.16-.06.24l.08-.18c-.04.09-.1.19-.16.27l.12-.15s-.07.08-.11.11l.14-.11h0s-.1.08-.14.12c-.07.06-.12.14-.15.23-.03.06-.05.12-.05.18-.02.09-.02.19.01.28h0s-.02-.11-.02-.17c0,0,0,.01,0,.02l.02-.17h0s.04-.09.06-.14c-.01.03-.02.05-.04.07-.09.16-.1.34-.03.5s.19.27.36.32h0Z"/>
        <path class="cls-4" d="M126.24,143.13s.02.03.03.03l-.03-.04.06.08.08.06.09.04s-.08-.03-.02,0c.07.03.13.06.2.09.16.08.33.15.49.22l-.13-.06c.11.05.22.1.33.14.08.03.15.05.23.07.15.05.31.1.46.16s.31.11.46.16.31.09.47.14c.31.09.61.19.92.29s.63.18.94.26c.35.1.7.19,1.05.28l-.52-.92s-.01.06-.03.09l.08-.18c-.02.05-.05.1-.09.15l.12-.15c-.08.1-.18.19-.28.27l.15-.12c-.39.29-.84.5-1.29.69l.18-.08c-.89.38-1.83.68-2.78.89-.17.04-.34.08-.52.1l.21-.03s-.03,0-.04,0c-.14.02-.19.02-.31.07-.15.06-.3.17-.37.32l-.08.18c-.03.1-.04.2-.01.31,0,.07.02.13.05.19.03.1.08.18.16.25.11.13.28.19.45.22.15.02.13.01.32-.02l-.21.03c.79-.1,1.56-.34,2.31-.6.5-.17.99-.36,1.47-.57.37-.16.73-.34,1.07-.57.19-.13.38-.26.53-.43s.32-.39.36-.63c.04-.19.04-.41-.08-.58-.11-.16-.26-.29-.45-.35-.74-.19-1.47-.43-2.21-.61-.37-.09-.74-.18-1.11-.27-.42-.1-.85-.14-1.27-.19-.21-.03-.42-.03-.63-.01-.11,0-.21.02-.32.03-.05,0-.11,0-.16.01-.07,0-.13.02-.19.05-.02.01-.05.03-.07.04-.18.09-.21.37-.06.5h0Z"/>
        <path class="cls-4" d="M127.84,142.95s0,0-.01,0l.09-.07h0c-.07.05-.13.11-.18.18-.04.08-.07.16-.07.25,0,.04,0,.07-.01.11l.02-.14c-.02.12-.04.24-.04.36,0,.08,0,.16-.01.24s0,.16,0,.24,0,.16,0,.24c0,.32-.01.64,0,.96,0,.16.01.31.04.46.02.09.04.18.06.27.02.1.07.19.14.27.06.08.13.15.22.2.09.06.19.09.29.09.1.02.21.02.31-.01l.19-.08c.12-.07.21-.16.28-.28l.08-.19c.04-.14.04-.28,0-.41-.01-.08-.03-.15-.04-.23l.03.21c-.01-.1-.02-.21-.04-.31,0-.04-.02-.07-.03-.11-.02-.08-.03-.15-.05-.23-.03-.15-.06-.3-.08-.45s-.05-.3-.08-.45c-.01-.07-.03-.15-.04-.22s-.04-.14-.06-.21c-.04-.12-.07-.25-.13-.36-.04-.07-.08-.14-.12-.22-.08-.16-.26-.24-.42-.24h0s.08.01.12.02c-.04-.01-.08-.02-.13-.02l-.12.02c-.08.02-.14.06-.2.11h0Z"/>
        <path class="cls-4" d="M127.38,149.6s.02,0,.03,0l-.18-.1h0s.07.06.1.09c.06.04.12.05.18.06.1.01.22,0,.31-.06h0s-.08.03-.12.04h0s-.09,0-.13.02c.03,0,.05,0,.08,0l-.15-.02s0,0,.01,0l-.25-.14h0s.08.06.12.09c.07.04.14.06.21.07.13.02.25,0,.37-.07h0s-.09.03-.14.05c.09-.03.18-.04.27-.06l-.17.02c.15,0,.31-.05.46-.08l-.19.02c.17-.01.32-.06.49-.1.11-.03.23-.05.34-.08.24-.05.49-.09.73-.12l-.21.03c.19-.03.38-.05.57-.08l-.21.03c.49-.07,1-.11,1.49-.05l-.22-.03c.13.02.26.04.38.09l-.2-.08c.07.03.14.07.2.12l-.17-.13c.07.06.13.12.19.19l-.13-.16c.08.1.14.22.19.33l-.08-.19c.08.19.13.39.16.6l-.03-.21c.04.27.04.53,0,.8l.03-.21c-.03.21-.08.42-.16.61l.08-.19c-.05.11-.11.22-.18.32l.12-.16c-.1.12-.21.23-.33.33l.16-.12c-.15.12-.32.21-.5.29l.19-.08c-.24.1-.5.17-.75.2l.21-.03c-.31.04-.61.04-.92,0l.21.03c-.25-.03-.5-.1-.73-.19l.18.08c-.24-.1-.47-.25-.68-.41l.15.12c-.15-.11-.28-.24-.39-.39l.12.15c-.1-.12-.18-.26-.24-.4l.08.18c-.08-.19-.13-.39-.15-.6l.03.2c-.02-.15-.03-.31-.04-.47,0-.08,0-.16,0-.25,0-.15-.03-.3-.06-.45l-.07-.17c-.04-.08-.1-.15-.18-.2-.12-.09-.27-.16-.43-.15-.13,0-.25.04-.36.1-.15.08-.28.26-.32.42-.08.31-.08.65-.06.97.02.29.05.59.14.87.05.16.12.32.2.47s.19.29.29.42c.2.25.45.45.71.63s.57.33.88.43.62.15.94.18c.33.03.66,0,.99-.05s.64-.16.95-.29c.12-.05.23-.11.34-.19.16-.1.31-.22.45-.35.12-.12.24-.26.33-.41s.15-.3.22-.46c.11-.28.15-.57.19-.86.03-.24.03-.48,0-.72-.02-.18-.04-.37-.09-.55s-.11-.33-.18-.5c-.04-.1-.09-.19-.15-.28-.09-.13-.19-.27-.32-.37-.09-.07-.18-.15-.27-.2s-.21-.1-.31-.14c-.07-.03-.14-.05-.21-.06-.25-.05-.51-.07-.77-.06-.23,0-.46.02-.69.05-.31.04-.63.08-.94.15-.25.06-.49.13-.74.21-.11.04-.23.08-.34.12-.05.02-.11.04-.16.06-.1.04-.21.08-.31.13-.04.03-.09.05-.13.08-.08.05-.18.11-.24.18l.13-.1c-.11.09-.22.18-.33.27l.12-.09h0c-.21.12-.34.42-.26.65h0v-.29s-.02.05-.03.08l.13-.21h0s.07-.04.1-.07h0c-.1.07-.19.17-.22.29s-.02.27.05.37h0s-.03-.06-.04-.09c.02.13.13.23.25.27h0Z"/>
        <path class="cls-4" d="M132.73,156.98s.06-.06.08-.09c.01-.01,0-.01,0,0l.03-.02c.08-.08-.04.02,0,0,.03-.02.05-.04.07-.06.06-.04.11-.09.16-.14l-.12.07c.13-.03.18-.12.22-.23l-.08.13c.13-.12.24-.27.33-.42l-.19.19h0c.17-.08.26-.29.26-.46,0,0,0-.01,0-.02l-.02.14s.03-.09.04-.14l-.4.4h0s.09-.04.14-.06c.07-.04.12-.09.16-.15.07-.09.14-.23.13-.36,0-.05,0-.11,0-.16l-.08.31c.14-.23.08-.52-.02-.76-.06-.15-.12-.29-.21-.42-.2-.28-.42-.5-.7-.69-.25-.17-.53-.29-.81-.39-.24-.09-.49-.14-.74-.18-.32-.05-.64-.08-.97-.06s-.64.06-.94.14c-.29.08-.58.19-.83.35-.15.09-.29.2-.42.31s-.24.25-.34.39c-.07.09-.13.19-.18.29-.08.16-.15.33-.19.5-.09.4-.07.79,0,1.2.03.17.08.33.13.49.08.21.16.41.28.6s.24.35.39.51.3.27.46.39c.27.2.6.34.93.43s.69.14,1.03.13c.7,0,1.4-.19,2.01-.53.29-.16.56-.36.8-.6.22-.22.42-.48.54-.77.08-.17.15-.34.18-.53s.06-.38.04-.57c-.04-.47-.17-.93-.48-1.3-.05-.06-.1-.11-.15-.17-.09-.09-.2-.2-.31-.26l.22.22h0c-.04-.08-.09-.14-.16-.18-.06-.05-.13-.09-.21-.11-.15-.04-.34-.02-.47.06s-.25.21-.28.37-.04.34.06.47h0s-.04-.09-.06-.14c.02.08.07.16.1.24l-.06-.15c.07.16.11.33.17.49.05.14.09.3.11.45l-.03-.2c.02.15.02.29,0,.44l.03-.21c-.01.09-.02.18-.04.27l.03-.21c-.02.14-.06.28-.12.42l.08-.18c-.06.15-.15.29-.24.41l.12-.16c-.13.16-.27.31-.44.43l.16-.12c-.21.16-.45.3-.69.4l.18-.08c-.29.12-.59.2-.89.24l.2-.03c-.28.04-.57.04-.86,0l.2.03c-.24-.03-.47-.09-.68-.18l.18.08c-.18-.08-.34-.17-.5-.29l.15.12c-.15-.11-.28-.24-.39-.39l.12.15c-.12-.16-.22-.33-.3-.52l.08.18c-.1-.23-.16-.47-.2-.71l.03.2c-.02-.18-.03-.37,0-.55l-.03.2c.02-.15.06-.3.12-.44l-.08.18c.05-.12.12-.24.2-.34l-.12.15c.09-.12.2-.22.31-.31l-.15.12c.16-.12.33-.22.51-.29l-.17.07c.26-.11.54-.18.82-.22l-.19.03c.36-.05.72-.05,1.08,0l-.19-.03c.32.04.64.12.94.25l-.16-.07c.19.08.37.18.54.3l-.14-.11c.07.06.15.11.22.17l-.14-.11c.12.09.22.19.31.31l-.1-.13c.07.1.13.2.18.31l-.06-.15s.02.05.03.08c0,.01,0,.03.01.04.05.17.14.3.3.39l-.22-.22s.02.03.02.05l-.06-.14s.02.06.03.09l-.02-.16s0,0,0,.01c.02.15.05.31.17.41s.26.17.41.17h0c-.17-.1-.33-.19-.5-.29h0s-.04-.09-.06-.13c.02.04.03.09.05.13l-.02-.14s0,.01,0,.02c0,.18.1.38.26.46h0c-.06-.06-.12-.12-.19-.18,0,.01.01.02.02.04l-.05-.12c.05.12.09.25.1.38v-.16c-.02.08-.02.18.03.25l-.04-.14c0,.07.01.14.01.21,0,.02,0,.04,0,.05,0,.05.03-.11,0,0v.04s0-.02,0,0c-.02.04-.02.08-.04.12-.03.1.11.18.18.1h0Z"/>
      </g>
    </g>
  </g>
  <g>
    <g>
      <g>
        <path class="cls-11" d="M35.25,94.47h45.81v37.9h-45.81c-.71,0-1.28-.58-1.28-1.28v-35.33c0-.71.58-1.28,1.28-1.28Z"/>
        <g class="cls-16">
          <path class="cls-3" d="M45.32,123.28c.1-.04.2-.08.3-.12.03-.01.06-.03.09-.04s.06-.03.09-.05c.15-.1.3-.21.44-.33.21-.18.41-.37.62-.55.06-.05.11-.11.17-.16.03-.02.06-.05.08-.08s.05-.06.07-.09c.07-.06.11-.13.14-.22.04-.08.06-.17.06-.26,0-.09-.02-.18-.06-.26-.03-.08-.07-.16-.14-.22l-.14-.11c-.1-.06-.22-.09-.34-.09l-.18.02c-.11.03-.21.09-.3.17-.03.02-.05.04-.08.06s-.05.05-.07.07c-.04.05-.09.1-.13.16-.09.11-.17.22-.26.32-.17.21-.35.41-.55.6-.03.02-.05.05-.08.08s-.05.05-.08.08c-.05.05-.1.1-.16.14l-.08.1c-.04.06-.06.12-.06.19-.01.05-.01.09,0,.14,0,.07.02.13.06.19l.08.1.1.08c.06.04.12.06.19.06.07.02.14.01.2,0h0Z"/>
          <path class="cls-3" d="M75.85,95.98s-.09.03-.13.04-.09.02-.14.04c-.06.02-.11.03-.16.06-.02.01-.05.02-.07.04s-.05.02-.07.04c-.04.02-.08.06-.12.09-.01,0-.02.02-.03.03-.17.14-.33.3-.49.47-.11.12-.21.24-.3.37l.09-.11s-.08.08-.11.12c-.07.07-.13.15-.19.23l.1-.13s-.07.08-.1.13c-.06.1-.09.2-.09.32,0,.06.01.12.02.17.01.09.1.22.16.28l.12.1c.1.06.2.08.31.08.13,0,.15-.01.24-.05.04-.02.06-.02.08-.04.03-.02.11-.08.13-.1.09-.08.14-.2.17-.32,0-.02,0-.03.01-.05.02-.07.04-.14.06-.21l-.06.13c.02-.05.05-.1.08-.15.03-.05.06-.11.09-.16.06-.11.13-.22.2-.32.04-.06.08-.12.13-.18l-.07.09s.03-.04.05-.06c.04-.05.08-.1.12-.15.03-.04.05-.09.08-.13l-.06.08c.06-.08.08-.09.11-.19l-.04.1c.03-.06.06-.12.09-.18l-.05.06s.07-.08.1-.12l.04-.06s.03-.07.03-.1c0-.02,0-.05,0-.07,0-.04-.01-.07-.03-.1-.03-.04-.06-.07-.1-.1-.03-.02-.07-.03-.1-.03-.04,0-.07,0-.11,0h0Z"/>
        </g>
      </g>
      <g>
        <path class="cls-26" d="M81.07,94.47h39.03c.71,0,1.28.58,1.28,1.28v35.33c0,.71-.58,1.28-1.28,1.28h-39.03v-37.9h0Z"/>
        <g class="cls-19">
          <polygon class="cls-3" points="92.47 118.51 89.28 115.32 86.09 118.51 87.69 118.51 87.69 127.57 90.88 127.57 90.88 118.51 92.47 118.51"/>
          <polygon class="cls-3" points="99.54 118.51 96.36 115.32 93.17 118.51 94.76 118.51 94.76 127.57 97.95 127.57 97.95 118.51 99.54 118.51"/>
          <path class="cls-3" d="M108.52,108.05s.09-.03.14-.05c.09-.03.19-.07.27-.12.13-.09.25-.18.38-.28.18-.14.35-.29.53-.44.1-.08.2-.16.3-.24l-.14.11c.08-.06.15-.12.23-.18.03-.03.06-.05.09-.07l-.14.11c.13-.1.28-.2.43-.27l-.16.07c.05-.02.1-.04.15-.05.09-.02.17-.06.23-.12.07-.05.13-.11.17-.19.05-.08.08-.16.08-.25.02-.09.02-.18-.01-.27l-.07-.16c-.06-.1-.14-.18-.24-.24l-.16-.07c-.12-.03-.24-.03-.36,0-.12.03-.24.08-.35.14-.07.03-.14.07-.2.11-.07.04-.13.09-.2.14-.11.09-.23.17-.33.27-.26.25-.5.52-.76.77-.07.07-.14.13-.21.19-.07.06-.12.13-.19.19l-.09.11c-.04.06-.06.13-.07.2-.01.05-.01.1,0,.15,0,.07.03.14.07.2l.09.11.11.09c.06.04.13.06.2.07.07.02.15.01.22,0h0Z"/>
          <path class="cls-3" d="M101.78,130.46s0,.04,0,.07c0,.03-.01.1,0,.01.02-.08,0-.03,0,0,0,.01-.02.03-.02.04-.05.09-.06.2-.09.3-.01.04-.02.08-.04.12-.02.07-.02.17-.03.25,0,.09-.02.19-.03.28l.02-.15c-.01.09-.02.17-.03.26,0,.04,0,.09,0,.13,0,.08-.01.17-.02.25-.02.17-.03.34-.04.51-.02.33-.06.66-.08.99,0,.09-.01.17-.02.26s0,.18.01.26c0,.09.02.17.06.25.03.08.07.15.14.21.06.06.13.11.21.14.08.04.16.06.25.06.17,0,.35-.06.46-.19l.1-.13c.06-.1.09-.21.09-.33,0-.11.02-.22.02-.33s0-.23,0-.35c0-.24.01-.48.02-.72,0-.12,0-.25,0-.37s-.01-.23-.02-.35c0-.06-.01-.12-.02-.18-.01-.1-.02-.22-.04-.32-.02-.11-.05-.23-.08-.34-.03-.1-.07-.18-.12-.27-.03-.05-.07-.11-.1-.16-.02-.03-.05-.07-.07-.1-.04-.05-.08-.08-.13-.12,0,0-.02-.01-.02-.02-.03-.02-.01,0,.05.06,0,0,0-.02-.01-.02-.02-.03-.03-.05-.05-.08-.05-.07-.13-.12-.22-.09s-.14.1-.14.19h0Z"/>
        </g>
      </g>
    </g>
    <g>
      <polygon class="cls-24" points="107.85 107.36 98.79 107.36 97.88 94.43 106.93 94.43 107.85 107.36"/>
      <g class="cls-18">
        <path class="cls-4" d="M102.5,81.73h0s.07,0,.11-.01c-.04,0-.08,0-.12,0l.13.02c-.07,0-.14-.03-.2-.02-.03,0-.06,0-.09,0-.07,0-.13,0-.2-.02l.15.02c-.09-.01-.18-.03-.27-.05-.15-.03-.31-.04-.46-.05-.2-.02-.39-.05-.58-.07-.5-.06-1-.03-1.51-.03-.32,0-.64,0-.97,0-.15,0-.3.04-.43.12-.1.05-.18.13-.24.22-.08.08-.13.18-.15.29-.04.15-.04.3,0,.45.07.18.11.38.14.58l-.03-.23c.03.25.04.5.08.75.02.19.05.38.09.57.01.06.03.11.05.17.03.07.06.16.1.23s.1.14.16.2c.02.02.04.04.07.06l.17.13.2.08.22.03c.11,0,.22-.02.32-.07.07-.02.13-.05.18-.11.06-.04.11-.09.15-.15.05-.05.09-.11.11-.18.05-.1.07-.2.07-.32,0-.13,0-.25-.05-.37-.02-.05-.04-.1-.05-.16-.03-.11-.05-.23-.07-.34l.03.23c-.03-.23-.04-.46-.07-.69-.02-.18-.04-.36-.09-.54s-.12-.35-.2-.51l-.74,1.28c.38-.03.75-.06,1.13-.09.19-.01.37-.03.56-.04.24-.02.48-.06.73-.09l-.2.03c.26-.03.51-.04.77-.05.19-.01.39-.02.57-.06.15-.04.29-.09.43-.15.12-.05.23-.1.32-.18.06-.06.12-.13.17-.21l-.07.09h0c.12-.14.17-.35.07-.52-.04-.06-.09-.11-.15-.15-.1-.06-.22-.06-.32-.04h0Z"/>
        <path class="cls-4" d="M103.1,85.67h0c.07.04.13.08.2.12-.03-.03-.05-.06-.08-.09-.1-.11-.27-.16-.41-.21-.07-.03-.15-.04-.22-.05-.12-.02-.25-.05-.37-.08-.2-.04-.4-.04-.6-.06-.13,0-.26-.02-.4-.02-.27,0-.53.01-.8.02-.3,0-.6,0-.89-.03l.24.03s-.07,0-.1-.01c-.12-.04-.25-.04-.37-.02-.12,0-.24.04-.34.11l-.19.14c-.09.08-.15.18-.19.3-.04.07-.06.15-.06.23-.03.12-.02.25.02.37l.09.22c.08.14.19.25.33.33.04.03.08.05.12.06.04.02.08.04.13.05.05,0,.09.01.14.02.04,0,.09.01.13.02.06,0,.12,0,.18-.02.09-.01.16-.02.24-.05l.2-.09c.1-.05.18-.13.24-.22.05-.05.09-.11.11-.19.05-.1.08-.21.07-.33l-.03-.22-.09-.2c-.05-.1-.13-.18-.22-.24-.08-.07-.18-.13-.29-.15-.03,0-.05-.02-.08-.03l.21.09s-.05-.03-.07-.04l.18.14s-.02-.02-.03-.03c-.06-.07-.14-.12-.22-.17l-.47,1.72c.26.01.53,0,.79-.04.33-.04.67-.1,1-.14l-.22.03c.17-.02.35-.04.52-.07l-.22.03c.12-.02.24-.03.36-.05.06,0,.13-.02.19-.02.12-.01.25-.02.36-.05s.23-.06.34-.09c.07-.02.14-.04.22-.05l-.16.02c.16-.02.35,0,.48-.1.07-.05.14-.09.2-.15l-.2.12h0c.1-.03.17-.08.23-.16s.1-.17.1-.27c0-.08-.02-.16-.06-.23-.05-.09-.17-.19-.27-.21h0Z"/>
        <path class="cls-4" d="M102.73,91.51s.02,0,.02.01l-.12-.09.02.03.14.11c.08.05.17.08.26.08.06.02.13.02.19,0,.09,0,.18-.03.26-.08h0c-.06.02-.11.04-.17.07.11-.05.23-.09.33-.16.05-.04.12-.09.18-.14,0,0,.01-.01.02-.02.04-.03.09-.12.12-.16.02-.02.03-.05.05-.08.12-.23.18-.46.19-.72,0-.07,0-.13,0-.2-.02-.13-.03-.26-.06-.39-.02-.06-.04-.13-.06-.19-.05-.12-.1-.24-.16-.36-.03-.06-.08-.12-.12-.18-.09-.12-.18-.23-.28-.34-.06-.06-.12-.12-.18-.17-.11-.09-.23-.18-.35-.26-.19-.12-.4-.22-.62-.3-.16-.06-.32-.1-.48-.13-.23-.04-.46-.07-.7-.07-.22,0-.44.03-.66.08-.2.04-.39.12-.57.2-.12.05-.23.11-.34.19-.15.11-.3.22-.42.36s-.23.28-.32.43c-.18.32-.28.67-.29,1.03,0,.18.02.37.05.55.02.12.06.24.1.36.07.18.15.36.26.52s.24.33.38.48.3.21.48.28l.18.02.18-.02.16-.07c.08-.04.14-.1.19-.17.04-.04.07-.09.09-.15.03-.05.05-.11.05-.17.02-.06.02-.12,0-.18,0-.09-.03-.17-.08-.25-.01-.03-.02-.05-.03-.08-.03-.05-.06-.1-.1-.15-.05-.07-.11-.13-.16-.2l.11.15c-.11-.15-.21-.3-.28-.47l.08.18c-.06-.15-.11-.31-.13-.47l.03.2c-.02-.14-.02-.29,0-.43l-.03.2c.02-.15.05-.29.11-.43l-.08.18c.05-.12.12-.23.19-.33l-.12.16c.08-.11.18-.2.28-.28l-.16.12c.12-.09.25-.17.39-.23l-.19.08c.17-.07.36-.12.54-.15l-.21.03c.23-.03.45-.03.68,0l-.21-.03c.23.03.45.09.66.18l-.19-.08c.18.08.35.18.51.29l-.16-.12c.14.11.26.23.37.36l-.12-.16c.1.13.18.27.25.42l-.08-.19c.05.12.09.24.1.37l-.03-.21c.01.09.01.18,0,.27l.03-.2c0,.06-.03.13-.05.19l.08-.18s-.04.08-.06.12-.04.08-.07.12l.11-.15s-.05.06-.07.08l.14-.11h0s-.1.08-.14.12c-.07.06-.12.14-.15.23-.03.06-.05.12-.05.18-.02.09-.02.19.01.28v.02c0-.1,0-.21,0-.31,0,0,0,.02,0,.02l-.02.15c0,.08.01.15.05.22.01.05.04.09.07.12.04.06.09.11.16.14h0Z"/>
        <path class="cls-4" d="M99.31,93.31s.02.03.03.04l-.09-.16c.02.06.05.13.1.18.06.05.12.08.19.11l-.09-.04c.13.07.25.14.38.21.17.09.34.16.52.22.29.1.57.22.86.31s.58.18.87.27.58.17.87.25c.33.09.65.18.98.26l-.52-.92s-.01.05-.02.08l.08-.18s-.04.08-.07.12l.12-.15c-.07.08-.15.16-.23.22l.15-.12c-.31.24-.68.4-1.04.56l.18-.08c-.74.31-1.51.56-2.28.73-.14.03-.28.06-.42.08l.21-.03s-.03,0-.04,0c-.11,0-.21.02-.3.07-.1.03-.18.08-.25.16-.13.13-.24.35-.23.55s.07.41.23.55l.16.12c.12.07.25.11.39.11.07,0,.14-.02.22-.03l-.21.03c.66-.09,1.3-.28,1.93-.49.42-.14.83-.31,1.23-.48.3-.13.6-.28.87-.46.16-.11.33-.23.46-.37.14-.16.29-.36.33-.58.03-.1.04-.2.01-.3,0-.1-.03-.19-.09-.28-.11-.16-.26-.29-.45-.35-.29-.08-.58-.16-.87-.24s-.59-.18-.89-.25-.59-.14-.89-.21c-.35-.08-.7-.11-1.05-.15-.08,0-.17-.02-.25-.02s-.17,0-.25.01c-.2.01-.4.05-.59.08h.1c-.07,0-.15,0-.21.04s-.1.08-.14.14l.13-.13s-.03.02-.04.03c-.08.06-.14.13-.15.23s.02.18.09.27h0Z"/>
        <path class="cls-4" d="M100.43,93.41h0s.01-.08.02-.12c-.01.06-.02.12-.04.18-.03.11-.03.23-.04.34,0,.07-.02.13-.02.2s0,.13,0,.2c0,.27-.02.55-.02.82,0,.14,0,.29.03.43.02.08.03.16.05.23.02.1.07.19.14.27.06.08.13.15.22.2.09.06.19.09.29.09.1.02.21.02.31-.01l.19-.08c.12-.07.21-.16.28-.28l.08-.19c.04-.14.04-.28,0-.41,0-.05-.02-.1-.02-.15l.03.21s0-.06-.01-.09c-.01-.1-.02-.16-.04-.25,0-.02,0-.04-.01-.06-.02-.06-.03-.12-.04-.18-.03-.12-.05-.25-.08-.37s-.05-.25-.07-.37c-.01-.06-.02-.12-.04-.18s-.04-.12-.06-.18c-.01-.03-.02-.07-.04-.1-.03-.07-.05-.16-.09-.23-.03-.06-.08-.11-.11-.17l-.08-.1s-.1-.08-.16-.1c-.04-.02-.08-.03-.12-.03-.07-.01-.13-.01-.2,0l-.12.05-.1.08s-.08.1-.1.16c-.03.06-.04.12-.04.19h0Z"/>
        <path class="cls-4" d="M100.69,98.63h0s-.08.03-.12.05h0c-.09,0-.17,0-.26,0,.02,0,.03.01.05.02l-.24-.14h0s.08.07.12.1c.07.04.14.06.21.07.05.01.1.01.15,0,.08,0,.15-.03.21-.07h0s-.09.03-.14.05c.06-.01.11-.02.17-.03l-.17.02c.14-.02.28-.04.42-.06l-.18.02c.1-.01.2-.02.29-.05.04-.01.08-.02.12-.03.09-.02.17-.04.26-.06.19-.04.37-.07.56-.09l-.2.03c.19-.03.38-.05.58-.08l-.21.03c.41-.06.84-.09,1.25-.04l-.22-.03c.11.01.22.04.32.08l-.2-.08c.06.02.11.06.16.09l-.17-.13c.06.05.11.1.15.16l-.13-.16c.06.08.11.18.16.27l-.08-.19c.07.16.11.33.13.5l-.03-.21c.03.22.03.44,0,.65l.03-.21c-.02.17-.06.33-.13.49l.08-.19c-.04.09-.09.18-.15.26l.12-.16c-.08.1-.17.19-.27.27l.16-.12c-.13.1-.26.17-.41.24l.19-.08c-.2.08-.41.14-.63.17l.21-.03c-.25.03-.5.03-.75,0l.21.03c-.2-.03-.4-.08-.59-.16l.18.08c-.2-.08-.39-.2-.56-.33l.15.12c-.12-.09-.23-.2-.32-.32l.12.15c-.08-.1-.14-.21-.19-.33l.08.18c-.06-.16-.1-.32-.13-.49l.03.2c-.02-.13-.02-.25-.03-.38,0-.07,0-.13,0-.2,0-.14-.02-.27-.06-.4l-.07-.17c-.04-.08-.1-.15-.18-.2-.04-.04-.1-.07-.16-.09-.08-.04-.17-.06-.27-.06-.13,0-.25.04-.36.1-.16.08-.27.26-.32.42-.03.11-.06.22-.06.34,0,.06,0,.11,0,.17,0,.1,0,.2,0,.31,0,.16.03.31.05.47.01.09.03.18.06.26.04.14.1.28.17.41.04.08.09.16.14.23.09.13.19.25.3.36.12.11.25.22.39.31.23.17.47.29.74.39s.52.13.78.17c.21.03.42.03.63,0,.28-.03.56-.07.82-.17.16-.06.31-.12.46-.2s.28-.18.41-.29c.08-.06.15-.13.21-.21.09-.11.18-.22.25-.35s.13-.27.18-.42c.03-.09.05-.18.07-.26.05-.25.08-.51.07-.77,0-.16-.03-.33-.06-.49-.01-.09-.03-.18-.06-.27-.05-.15-.11-.29-.17-.43s-.16-.25-.25-.36-.21-.2-.32-.28-.25-.13-.37-.18c-.06-.02-.12-.03-.18-.04-.14-.02-.28-.04-.42-.05-.43-.02-.87.05-1.29.12-.39.07-.78.19-1.15.33-.14.05-.27.11-.41.17l.17-.07c-.16.06-.19.08-.33.19l.14-.11c-.11.07-.23.15-.33.24-.05.05-.1.09-.16.14l.12-.09h0s-.08.06-.12.09c-.06.05-.1.11-.12.19-.05.11-.07.25-.03.37h0v-.28s0,.04,0,.06l.05-.12h0c.06-.05.12-.11.17-.17h0c-.11.07-.19.17-.22.29-.03.12-.02.27.05.37s.17.19.29.22.27.02.37-.05h0Z"/>
        <path class="cls-4" d="M104.67,104.61s.06-.05.08-.08l-.06.04s.03,0,.04-.02c0,0,.08-.08.03-.03-.04.03,0,.01,0,0,.02-.01.03-.02.05-.03.05-.03.09-.07.14-.1l-.12.07c.11-.02.19-.11.22-.22l-.03.07h0s-.07.06-.11.1c.07-.05.13-.1.19-.16.07-.07.12-.14.18-.22l-.31.24h0s.08-.04.13-.06c.06-.03.11-.08.15-.14.07-.09.11-.2.11-.32,0,0,0,0,0-.01l-.07.27c.03-.08.07-.15.09-.23l-.15.25c.1-.09.15-.21.17-.34,0-.05,0-.06,0-.1l-.02.16c.01-.09.03-.18.03-.27l-.18.44c.08-.08.13-.17.16-.28.03-.13.02-.21,0-.33,0,0,0-.02,0-.03,0-.02,0-.04-.01-.06-.01-.04-.02-.08-.04-.12-.05-.12-.1-.25-.17-.36s-.16-.23-.26-.33-.21-.19-.33-.28c-.2-.14-.43-.24-.65-.33-.19-.07-.38-.13-.57-.16-.26-.05-.53-.08-.79-.08s-.53.03-.79.08-.49.14-.72.25c-.22.1-.42.25-.59.41-.41.39-.63.95-.62,1.52,0,.18.03.36.06.53.02.13.06.26.11.39.06.17.14.35.23.51s.2.3.32.43.25.23.39.34c.09.07.18.12.27.17.25.13.52.23.8.28s.57.08.86.05.58-.07.85-.16c.16-.05.33-.12.48-.2.1-.05.19-.1.29-.16.14-.09.28-.19.41-.3.08-.06.15-.14.22-.21.11-.12.21-.25.3-.39s.15-.29.2-.44c.03-.09.06-.18.07-.28.02-.12.04-.23.03-.35s-.02-.23-.04-.35c-.02-.17-.08-.31-.15-.47l.08.18c-.03-.09-.07-.17-.1-.25-.01-.03-.02-.05-.04-.08-.05-.11-.12-.2-.2-.29-.04-.04-.08-.09-.13-.13-.02-.02-.05-.04-.08-.06-.01-.01-.03-.02-.04-.03,0,0-.02-.01-.02-.02l-.13-.1c-.05-.02-.1-.05-.16-.07l.37.28h0c-.04-.08-.09-.14-.16-.18-.06-.05-.13-.09-.21-.11-.15-.04-.34-.02-.47.06s-.25.21-.28.37l-.02.16c0,.11.03.21.08.31h0c-.03-.1-.06-.2-.08-.3,0,.08.01.14.04.22,0,.02.01.03.02.05.01.04.02.07.04.11.02.07.03.14.06.21.05.13.08.26.1.4l-.03-.2c.02.12.02.24,0,.37l.03-.21c-.01.09-.02.18-.04.27l.03-.21c-.02.12-.05.23-.09.34l.08-.18c-.05.12-.12.23-.2.34l.12-.16c-.1.13-.22.25-.36.35l.16-.12c-.17.13-.36.24-.57.33l.18-.08c-.24.1-.48.17-.74.2l.2-.03c-.23.03-.47.03-.7,0l.2.03c-.19-.03-.38-.07-.55-.15l.18.08c-.14-.06-.28-.14-.41-.24l.15.12c-.12-.09-.23-.2-.32-.32l.12.15c-.1-.13-.18-.27-.24-.42l.08.18c-.08-.19-.13-.38-.16-.58l.03.2c-.02-.15-.02-.3,0-.45l-.03.2c.01-.09.02-.17.04-.26l-.03.2c.02-.1.04-.21.09-.3l-.08.18c.04-.1.1-.2.17-.29l-.12.15c.07-.1.16-.18.26-.25l-.15.12c.13-.1.27-.18.42-.24l-.17.07c.22-.09.45-.15.68-.18l-.19.03c.29-.04.59-.04.88,0l-.19-.03c.26.04.52.1.76.2l-.16-.07c.15.06.3.14.44.24l-.14-.11c.07.06.15.11.22.17l-.14-.1c.09.07.18.15.25.25l-.1-.13c.06.08.11.16.15.25l-.06-.15s.02.04.02.07c0,.01,0,.02.01.03.07.22.22.37.44.44l-.37-.28s.03.06.04.09l-.06-.14s0,.01,0,.02l-.02-.16s0,0,0,.01c0,.08.01.16.05.23.05.12.13.21.25.28l-.21-.21s.02.05.03.07l-.05-.13s0,.02.01.03l-.02-.14s0,0,0,.01c0,.17.1.38.26.46h0c-.06-.06-.12-.12-.18-.18.03.04.05.08.07.13l-.04-.1c.02.06.04.11.06.17v-.16s-.02.09,0,.13c0,.07.04.12.09.18l-.07-.12s0,.03,0,.05c0,0,0,.02,0,.02,0,.04,0-.04,0-.02,0,.02,0,.04,0,.06s0,.05,0,0c.02-.06,0,.02,0,.03,0,.02,0,.04,0,.06v-.07s-.02.08-.03.11c-.03.11.1.18.18.1h0Z"/>
      </g>
    </g>
  </g>
  <g>
    <g>
      <g>
        <path class="cls-1" d="M129.63,215.02c0,1.38-.22,2.41-.59,3.18-1.25,2.7-4.23,2.38-5.65,2.63-1.63.29-3.71.47-5.46.1-.8,1.41-2.49,2.7-3.6,3.8-1.24,1.24-2.65,2.41-4.12,3.36-1.13.73-2.69,1.1-4.05.92-.96-.12-2.65-.5-3.68-1.18-2.42,1.21-5.18,1.57-6.38-.96-2.09.48-4.33-.1-5.07-2.29-1.54.59-3.22.48-4.51-.83-1.31-1.35-1.32-3.72-.7-5.57h5.04c.81-.83,1.63-1.67,2.44-2.54.91-.98,1.85-1.96,2.77-2.93.66-.72,1.2-1.56,1.75-2.37-3.21-1.58-8.42,1.05-11.3-2.27-.95-1.1-.52-2.78.62-3.54,1.39-.94,3.27-.4,4.79-.39,2.6.01,4.77-1.38,7.29-.77,2.11.51,4.44-.1,6.49.39,1.02.22,2.01.73,3.02,1.21,3.17-1.71,6.5-2.08,10.29-2.85,1.18-.23,2.38-.41,3.58-.65.72-.12,1.78-.62,2.51-.34.79.29,1.36,1.05,1.83,1.97.65,1.31,1.05,2.95,1.35,3.93.8,2.58,1.3,5.28,1.32,7.99Z"/>
        <g class="cls-9">
          <path class="cls-3" d="M119.13,219.84s.12-.08.16-.13c.05-.07-.06.02,0,0,.04-.02.09-.03.13-.05.19-.11.31-.31.39-.52s.14-.43.17-.65c.04-.3.04-.57-.01-.87-.04-.24-.12-.46-.2-.69-.21-.6-.45-1.19-.76-1.75-.27-.5-.58-.97-.92-1.43-.75-1.04-1.58-2.03-2.41-3.01s-1.63-1.83-2.55-2.64c-.49-.43-1.02-.83-1.51-1.26s-.9-.9-1.38-1.31c-.18-.16-.43-.19-.63-.04s-.22.39-.12.62c.24.52.66.95,1.06,1.35s.82.78,1.24,1.17.83.74,1.22,1.14c.44.45.86.91,1.26,1.38s.81.96,1.2,1.45c.2.25.39.5.59.74.05.06.09.12.14.18.03.03.11.15.04.05.1.13.19.25.29.38.68.91,1.26,1.86,1.71,2.89.04.09.08.18.12.27-.06-.13.03.07.04.11.05.13.1.26.15.39.04.11.07.23.1.35,0,.04,0,.13.03.17v-.05c-.02-.11-.01-.07.01.13,0,.03.01.05.02.08,0,.02,0,.06.01.08-.01-.03-.01-.14,0-.05,0,.06,0,.11,0,.17,0,.13,0,.25-.02.38,0,.07,0-.03,0-.03-.01.07-.03.15-.03.23,0,.09,0,.2.04.29.01.04.03.1.06.14.03.04.05.07.08.11.02.02.01.01-.02-.03-.06-.04-.03-.03-.02.04,0,.05.02.1.02.16.02.15.21.16.31.08h0Z"/>
          <path class="cls-3" d="M98.87,207.44s-.08-.02-.12-.01h.11c-.08,0-.11,0-.18,0-.03,0-.05,0-.08.01-.02,0-.04,0-.06.01l.13-.02c-.19-.02-.33.12-.47.23-.05.04-.1.09-.16.13-.05.04-.1.08-.14.13-.04.05-.09.11-.13.16-.17.2-.34.41-.51.61-.12.14-.24.28-.35.43-.08.11-.16.21-.24.32s-.16.21-.24.32c-.04.05-.08.1-.11.15-.04.06-.08.11-.11.17-.07.13-.15.26-.21.39-.05.1-.1.2-.13.3,0,.03-.01.07-.02.1-.01.08-.02.12,0,.19,0,.07.02.13.05.18.02.04.05.08.09.1.04.03.08.05.12.07.06.02.13.02.19,0,.02,0,.05,0,.07-.01.06-.01.11-.05.17-.08.07-.03.1-.06.17-.11.03-.02.06-.05.08-.07.1-.08.2-.17.29-.26.05-.04.09-.09.14-.13.05-.05.09-.11.13-.16.08-.1.17-.21.25-.31s.17-.21.25-.31c.12-.14.23-.29.34-.43.16-.21.32-.43.48-.64.04-.06.09-.12.13-.18.02-.03.04-.06.07-.09s.03-.06.05-.1c.03-.07.06-.13.09-.2.08-.17.19-.35.11-.54l.02.13s0-.04,0-.06c0,0,0-.02,0-.02,0-.09-.03-.14-.06-.22l.04.1s-.03-.08-.04-.11c-.05-.08-.14-.16-.23-.18h0Z"/>
          <path class="cls-3" d="M89.95,226.04h.01s-.06-.02-.09-.03c.08.04.16.07.25.11l-.11-.05c.08.06.17.06.26.07l-.13-.02s.09.02.13.02c.02,0,.04,0,.06,0,.01,0,.02,0,.03,0l.16.02c.06,0,.11-.01.17-.02l-.16.02c.15-.02.29-.04.44-.06l-.17.02c.08-.01.16-.02.24-.04.03,0,.05-.02.08-.03.06-.02.12-.04.18-.06.16-.06.32-.13.48-.2.22-.1.43-.21.64-.33.26-.15.5-.33.73-.53.09-.08.18-.16.26-.24s.18-.17.26-.27.15-.19.21-.28c.04-.05.08-.11.11-.17s.06-.13.09-.19c.03-.07.06-.14.09-.21.03-.08.02-.14.01-.21,0-.09-.02-.17-.06-.24-.03-.06-.07-.1-.12-.13-.12-.09-.26-.12-.41-.08-.02,0-.04,0-.06.01-.11.03-.19.1-.27.17-.04.03-.08.07-.13.1l.12-.09c-.07.06-.15.11-.22.17-.04.04-.08.07-.11.11-.08.07-.15.13-.23.2-.15.14-.3.27-.46.4l.14-.1c-.13.1-.26.18-.38.28s-.25.17-.38.25c-.26.16-.53.3-.82.42l.15-.06c-.14.06-.29.1-.42.17-.09.05-.17.09-.26.13l.14-.06s-.06.02-.08.03c-.07.02-.14.06-.19.12,0,0-.01.01-.02.02-.02.01-.04.03-.05.04l.11-.08s-.05.04-.08.06c-.01,0-.02.02-.03.02-.08.06-.13.1-.19.19l.07-.09s-.07.08-.11.12l.07-.06h-.01s-.09.08-.13.13c-.04.07-.05.15-.04.22.02.14.12.25.25.29h0Z"/>
          <path class="cls-3" d="M95.06,228.26c.1.06.21.1.33.14l-.1-.04h0c-.07-.08-.13-.17-.2-.25.02.09.07.17.13.23.05.05.1.08.17.11.05.03.11.05.16.07.06.02.13.02.19.03.03,0,.07,0,.1,0,.19,0,.37-.04.55-.09.3-.09.59-.22.87-.37.12-.06.23-.13.35-.2.16-.1.3-.22.45-.34.21-.17.41-.35.61-.53.23-.21.44-.43.66-.64.12-.11.19-.29.19-.45s-.07-.34-.19-.45-.28-.19-.45-.19l-.17.02c-.11.03-.2.08-.28.16-.4.32-.78.66-1.19.97l.14-.11c-.11.08-.22.17-.33.24s-.22.16-.34.24c-.22.15-.46.28-.71.39l.16-.07c-.19.08-.38.13-.57.22-.03.02-.06.03-.1.05-.08.04-.14.07-.2.13-.04.04-.07.08-.11.12-.07.09-.12.21-.11.33l.13-.31h0s.06-.04.09-.06c-.04.02-.08.04-.12.06s-.07.05-.11.07c-.09.06-.15.15-.15.26s.06.2.15.26h0Z"/>
          <path class="cls-3" d="M102.12,229.48c.2-.09.4-.18.6-.28l-.14.06c.06-.03.12-.05.18-.08.02-.01.03-.02.05-.03.03-.02.07-.04.1-.06.06-.04.13-.08.19-.12.16-.13.33-.25.49-.38.25-.2.5-.4.74-.6.14-.12.27-.26.4-.39.06-.06.11-.13.14-.21.04-.08.06-.16.06-.25,0-.09-.02-.17-.06-.25-.03-.08-.07-.15-.14-.21l-.13-.1c-.1-.06-.21-.09-.33-.09l-.17.02c-.11.03-.21.09-.29.17-.15.14-.32.27-.47.41s-.3.27-.45.41-.3.26-.45.39c-.04.03-.07.06-.11.1s-.07.07-.1.1c-.08.09-.17.18-.25.27-.15.19-.28.38-.42.57l-.04.1c-.02.05-.02.11,0,.16,0,.04,0,.07.03.1.02.05.04.09.08.13.05.05.11.08.18.11.05.02.11.02.16,0,.05,0,.11-.02.15-.05h0Z"/>
          <path class="cls-3" d="M91.69,215.88s-.07.02-.11.03l.11-.02s-.1,0-.13.02c-.04.01-.08.03-.11.05-.02,0-.03.02-.05.02-.04.02-.07.03-.11.05-.07.03-.13.08-.19.12-.08.05-.17.11-.25.17-.08.06-.15.14-.22.21-.11.11-.22.23-.32.35s-.2.25-.31.37c-.41.5-.81.99-1.23,1.48-.12.13-.23.27-.35.4-.06.07-.12.13-.19.2s-.13.13-.19.19c-.12.13-.2.29-.2.48,0,.09.02.18.06.26.03.08.07.16.14.22.13.12.3.21.48.2l.18-.02c.11-.03.21-.09.3-.17.12-.1.23-.21.34-.32s.22-.22.33-.34c.22-.23.42-.48.62-.73s.39-.5.59-.75c.22-.29.46-.58.67-.88.05-.07.1-.14.15-.21.03-.03.05-.07.08-.11s.04-.08.06-.12c.04-.08.07-.16.11-.23.05-.11.09-.22.13-.34l-.04.1c.04-.09.06-.15.07-.24l-.02.11s.02-.07.03-.11c.03-.12,0-.25-.09-.35s-.22-.13-.35-.09h0Z"/>
          <path class="cls-3" d="M112.27,208.56c0,.19.02.38.06.56.04.17.08.35.12.52.08.34.15.68.25,1.02.21.68.43,1.35.68,2.01.26.7.53,1.4.84,2.09.29.64.62,1.27.97,1.87.19.34.39.68.62.99.14.19.28.38.43.57.06.07.12.15.18.22.11.14.25.21.42.27.32.12.69-.19.68-.52,0-.16-.03-.3-.12-.44-.05-.08-.1-.16-.15-.24-.09-.15-.17-.29-.26-.44-.17-.31-.35-.62-.52-.93-.34-.62-.64-1.25-.92-1.9-.16-.38-.33-.75-.49-1.13l.07.17c-.17-.41-.34-.82-.5-1.24-.08-.21-.16-.42-.24-.62-.04-.09-.08-.19-.12-.28.08.2,0,.01-.01-.03-.04-.1-.09-.21-.13-.31-.19-.45-.36-.89-.59-1.32-.1-.19-.2-.38-.3-.58-.05-.1-.09-.19-.15-.28-.07-.1-.15-.2-.23-.29-.08-.11-.27-.12-.38-.07-.12.05-.22.18-.22.32h0Z"/>
          <path class="cls-3" d="M102.55,218.18c-.08.03-.14.09-.14.19,0,.06.03.11.07.15s.08.08.13.11l-.05-.04s0,0,.01.01l-.08-.19v.02s0,.08.01.11c.01.06.04.1.08.15.06.07.13.13.22.15.07.02.14.04.21.06.08.02.17.03.26.05.19.03.38.06.58.09.25.04.51.07.76.1.1.01.2.02.29.04.09.01.18.01.27.01s.17,0,.26,0,.18,0,.27-.03c.01,0,.03,0,.04-.01,0,0,.01,0,.02,0,.03,0,.04-.02.08-.03.1-.04.07-.03.19-.12.07-.07.12-.16.15-.25.02-.08.03-.15.01-.23,0-.08-.03-.15-.07-.21-.05-.09-.12-.15-.21-.21-.02-.01-.09-.04-.08-.03-.04-.02-.05-.02-.07-.03,0,0-.01,0-.02,0-.01,0-.03,0-.04-.01-.08-.02-.17-.03-.25-.03-.07,0-.15,0-.22-.01-.09,0-.18-.02-.26-.01-.1,0-.19,0-.29.01-.4.01-.81.02-1.21.02-.1,0-.2,0-.3,0-.08,0-.17.02-.25.01l-.11.02c-.06.01-.1.04-.15.08-.07.05-.13.13-.15.22v.02c.04-.05.08-.11.12-.16,0,0-.01,0-.02,0l.06-.03s-.05.02-.07.03l.06-.03s-.06.02-.09.02c-.02,0,.07,0,.04,0,0,0,0,0-.01,0,0,0,.06.01.05,0,.03,0,.06.02.08.05.05.05.06.11.05.17.01-.07,0-.13-.05-.18-.04-.04-.12-.07-.18-.05h0Z"/>
        </g>
      </g>
      <g>
        <path class="cls-6" d="M179.85,194.36c-.4,1.24-.81,2.48-1.2,3.71-.72,2.3-1.47,4.6-2.34,6.81-1.14,2.88-2.11,6.77-4.42,8.97-1.1,1.05-3,1.16-4.44,1.42-1.96.36-4,.45-5.98.63-5,.45-10.07.94-15.1,1.28-4.01.28-8.03.52-12.04.72-1.71.1-3.51.26-5.29.3.37-.77.59-1.8.59-3.18-.03-2.71-.52-5.41-1.32-7.99-.3-.98-.7-2.62-1.35-3.93,1.01-.26,1.96-.56,2.65-.74,3.02-.77,6.01-1.5,9.02-2.27,3.62-.92,7.33-1.63,10.94-2.54,1.65-.41,3.87-1.14,5.91-1.23.37-1.09.79-2.16,1.18-3.22.84-2.22,1.58-4.49,2.34-6.74.99.88,2.37,1.57,3.36,2.01,5.68,2.54,11.59,4.23,17.48,5.99Z"/>
        <g class="cls-8">
          <path class="cls-3" d="M171.48,209.29h0s.07.03.11.04c0,0-.02,0-.03-.01-.04-.02-.09-.05-.14-.06-.01,0-.13-.02-.14-.02,0,0-.01,0-.02,0-.04,0-.07,0-.11,0-.02,0-.03,0-.05,0,0,0-.02,0-.03,0h-.08c-.06.01-.11.03-.16.05-.03.01-.06.03-.09.04-.04.02-.08.03-.11.05-.08.04-.16.07-.24.11s-.16.08-.24.13c-.16.09-.32.17-.48.26s-.3.18-.46.26c-.08.04-.17.09-.25.13-.12.06-.23.14-.34.23l.12-.09c-.05.04-.11.08-.16.12-.05.05-.08.09-.11.15-.04.06-.06.13-.06.2-.02.07-.01.14,0,.21l.05.13c.05.08.11.14.19.19,0,0,.01,0,.02,0,.05.02.1.05.15.06.02,0,.13.02.15.02,0,0,.01,0,.02,0,0,0,.02,0,.03,0,.09,0,.18-.01.27-.03.04,0,.08-.01.12-.03s.08-.03.12-.04c.22-.08.44-.18.65-.28.09-.04.18-.08.26-.13s.17-.09.25-.14.16-.09.25-.14.16-.1.24-.16c.04-.03.08-.06.12-.09.02-.01.04-.03.06-.04.05-.03.1-.07.14-.11.03-.03.07-.09.1-.13,0,0,0,0,0-.01.02-.03.05-.07.07-.1,0,0,.01-.02.02-.03.02-.02,0-.02.03-.07.01-.03.02-.05.03-.07,0-.02,0-.03,0-.05.02-.11.02-.25-.05-.35l-.07-.09c-.06-.06-.12-.09-.2-.12h0Z"/>
        </g>
      </g>
      <g>
        <path class="cls-21" d="M193.76,160.51c-.88,3.58-.83,7.23-1.53,10.84-.47,2.42-1.6,4.78-2.52,7.05-.56,1.39-1.14,2.88-1.8,4.28-.01.33-.04.65-.08.96-.29,2.56-.72,5.13-1.06,7.67-.14,1.1-.17,3.39-1.17,4.04-.91.59-2.95-.18-3.86-.44-.63-.19-1.25-.37-1.89-.56-5.9-1.76-11.81-3.46-17.48-5.99-.99-.44-2.37-1.13-3.36-2.01-.51-.47-.91-.98-1.1-1.56-.4-1.17.36-2.31.65-3.4.55-1.98.63-4.17,1.01-6.2.61-3.27,2.15-6.2,3.38-9.33,1.07-2.76,1.96-5.8,2.63-8.72.94-4.13,1.76-8.49,4.35-11.97,2.54-3.39,6.57-5.95,10.83-6.37,4.6-.45,9.2,1.49,12.17,5.04,3.98,4.79,2.19,11.23.85,16.66Z"/>
        <g class="cls-10">
          <path class="cls-3" d="M166.03,175.13c.22.19.42.37.67.53.26.16.52.33.79.48.5.28,1,.59,1.49.89s1.01.58,1.52.88,1.01.6,1.51.9c2,1.21,4.08,2.24,6.21,3.21.6.27,1.2.54,1.8.82s1.24.62,1.88.88c.29.12.63-.1.74-.36.12-.29,0-.61-.26-.78-.49-.31-1.04-.55-1.57-.8s-1.05-.51-1.58-.76c-1.06-.51-2.12-1.02-3.16-1.57-2.05-1.09-4.02-2.33-6.07-3.43-.6-.32-1.24-.58-1.86-.84-.31-.13-.62-.24-.94-.33s-.64-.13-.98-.15c-.22,0-.35.29-.18.44h0Z"/>
          <path class="cls-3" d="M177.31,156.99h.01s-.07-.04-.1-.07c.21.2.49.22.76.2.21-.02.41-.04.61-.09.33-.08.65-.2.96-.33.69-.29,1.34-.63,2.01-.97.33-.17.66-.33,1-.48l-.16.07c.37-.16.76-.3,1.16-.35l-.18.02s.1-.01.15-.01c.19-.02.36-.06.49-.2.05-.05.09-.11.12-.17.11-.17.12-.47,0-.63-.09-.12-.13-.19-.26-.27s-.27-.1-.41-.09c-.12,0-.24.03-.36.04-.13.02-.26.05-.39.09-.33.1-.66.24-.97.39-.62.29-1.21.64-1.81.96-.35.19-.71.37-1.08.52l.15-.06c-.24.1-.49.19-.74.26-.12.03-.23.07-.35.1-.06.02-.12.03-.18.05-.03,0-.06.01-.09.02-.08.02-.14.05-.21.08l.13-.06c-.13.05-.27.09-.36.21l.1-.08h-.01c-.14.11-.24.25-.24.43,0,.17.09.34.24.42h0Z"/>
        </g>
      </g>
    </g>
    <g>
      <path class="cls-3" d="M180.21,194.89c.58.34,1.17.67,1.81.9.71.26,1.45.48,2.21.49s1.52-.21,2.07-.77.82-1.32.99-2.06.23-1.42.37-2.13c.2-1.04.38-2.08.52-3.13.03-.23.03-.46.04-.68.01-.27.08-.55.11-.82.07-.5.13-.99.13-1.49,0-.94-.1-1.86.19-2.77s.72-1.68,1.12-2.49c.43-.87.79-1.78,1.11-2.69.66-1.87,1.14-3.79,1.52-5.73s.63-3.95.93-5.94.75-4.12,1.14-6.18c.2-1.03.38-2.07.53-3.11.08-.53.14-1.06.21-1.59.03-.22.05-.43.08-.65.01-.1.03-.21.04-.31,0-.01.02-.12,0-.03,0-.07.02-.13.03-.2.22-1.67.47-3.39.2-5.07-.08-.49-.18-.95-.36-1.41-.09-.23-.28-.39-.54-.35-.24.04-.42.23-.42.48,0,.92.12,1.82.14,2.74.02.76-.04,1.52-.12,2.28-.2,1.8-.41,3.61-.71,5.39-.34,2.03-.76,4.04-1.11,6.06s-.55,3.94-.87,5.91-.7,3.82-1.24,5.69c-.27.93-.58,1.85-.93,2.76-.33.84-.74,1.64-1.13,2.47s-.77,1.7-.88,2.62.05,1.92-.07,2.87c-.06.47-.1.96-.22,1.42-.13.49-.22.98-.32,1.47-.18.88-.38,1.77-.53,2.66-.12.71-.23,1.42-.44,2.11-.03.09-.06.19-.09.28-.02.05-.1.23-.04.1-.07.16-.15.3-.25.45-.02.03-.1.12,0,0-.02.03-.04.05-.07.08-.05.06-.11.11-.17.16-.02.01-.1.08-.03.03.08-.06-.06.03-.06.04-.07.05-.15.08-.22.12.02,0,.13-.05.02,0-.07.03-.14.06-.2.08.16-.05-.1.02-.14.03-.07.02-.14.03-.2.04-.12.02-.02,0,0,0-.05,0-.11.01-.16.02-.35.03-.7,0-1.05-.04-.04,0-.08,0-.12-.01-.11-.01.13.02-.06,0-.08-.01-.16-.02-.24-.04-.2-.03-.39-.07-.58-.12-.33-.07-.66-.12-1.01-.18-.3-.05-.58-.08-.88-.09-.17,0-.23.24-.09.32h0Z"/>
      <path class="cls-3" d="M168.65,147.08c-.1.04-.22.07-.31.12-.12.07-.22.23-.31.34-.19.22-.32.53-.44.79-.27.55-.47,1.14-.66,1.72-.39,1.16-.66,2.35-.95,3.53-.63,2.67-1.41,5.28-2.22,7.89-.42,1.37-.81,2.74-1.27,4.1s-.95,2.7-1.48,4.03-1.14,2.55-1.49,3.9-.48,2.69-.65,4.04c-.08.64-.17,1.29-.3,1.93s-.31,1.24-.51,1.85c-.39,1.23-.77,2.48-.49,3.78.07.34.21.66.36.97.22.46.93.13.81-.34-.32-1.22-.08-2.33.28-3.5.18-.59.38-1.18.54-1.78.17-.64.28-1.29.37-1.94.19-1.32.3-2.63.57-3.94.13-.65.3-1.29.54-1.92.25-.65.54-1.29.8-1.93.53-1.3,1.04-2.61,1.5-3.93s.86-2.7,1.28-4.06c.81-2.64,1.68-5.27,2.29-7.97.26-1.16.51-2.32.82-3.47.16-.58.31-1.17.49-1.74.09-.27.19-.54.28-.81s.22-.56.28-.84c.03-.12.07-.24.08-.36.01-.12-.04-.25-.05-.38-.01-.09-.08-.13-.16-.09h0Z"/>
    </g>
  </g>
</svg>