<?xml version="1.0" encoding="UTF-8"?>
<svg id="Layer_1" data-name="Layer 1" xmlns="http://www.w3.org/2000/svg" xmlns:xlink="http://www.w3.org/1999/xlink" viewBox="0 0 675.74 500">
  <defs>
    <style>
      .cls-1 {
        fill: #021f8b;
      }

      .cls-2 {
        fill: #80abff;
      }

      .cls-3 {
        fill: #c2c4c5;
      }

      .cls-4 {
        fill: #e2f6eb;
      }

      .cls-5 {
        fill: #ff7768;
      }

      .cls-6 {
        fill: #c7966e;
      }

      .cls-7 {
        clip-path: url(#clippath-1);
      }

      .cls-8 {
        clip-path: url(#clippath-2);
      }

      .cls-9 {
        fill: #0332c6;
      }

      .cls-10 {
        fill: #28318c;
      }

      .cls-11 {
        clip-path: url(#clippath);
      }

      .cls-12 {
        fill: #28318c;
      }
    </style>
    <clipPath id="clippath">
      <path class="cls-6" d="M494.15,241.79c-.87,4.18-2.92,9.51-5.98,13.13.71-.3,1.41-.56,2.08-.64,1.65,5.19-4.44,10.12-7.71,12.99-4.41,3.86-9.12,6.93-14.49,9.33-2.39,1.06-5.07,1.52-7.41,2.68,1.27.4,3.77,1.09,4.67,2.07-4.1,4.46-13.79,3.64-19.16,3-7.13-.87-14.38-2.73-20.76-6.16-3.25-1.75-6.14-3.56-8.87-5.79-.88,11.48-6.41,22.61-16.43,28.67-6.35,3.85-12.6,7.63-18.69,11.9-.26.18-.66.42-1.14.72.64.75,1.3,1.49,1.97,2.21,1.75,1.88,2.95,4.17,4.67,6.11,2.58,2.89,7.01,6.49,7.54,10.6.61,4.73-6.46,7.92-9.6,10.42-4.14,3.27-8.79,6.38-12.22,10.48-1.11,1.33-2.15,2.6-3.45,3.72-1.36,1.14-1.96.98-3.62,1.22-1.27.18-2.52.35-3.78.48-.82.08-1.62.03-2.4-.03-.3.3-.63.61-.96.9-3.08,2.61-6.03,3.06-10,2.9-2.28-.1-9.35-.06-10.28-2.82-.87-2.61,2.6-8.11,4.83-9.36,1.7-.95,3.75-.99,5.68-1.35,2.9-.55,5.4-2.05,7.71-3.86,5.19-4.12,11.83-7.95,15.87-13.29-1.83-2.74-4.41-4.54-6.73-6.85-2.34-2.32-4.36-5.13-6.38-7.66-5.43-6.77-6.77-14.27-5.82-22.35-2.63-1.04-5.32-3.48-7.81-3.25-2.28.22-4.65.96-6.97,1.28-2.02.29-4.1.46-6.16.46-1.11,0-2.5-.19-3.8-.59-1.56,1.31-3.13,2.6-4.78,3.75,1.91,4.23,4.04,8.37,6.41,12.38,2.28,3.83,4.76,7.55,7.45,11.09,1.33,1.75,4.42,7.42,6.67,7.23,1.04-.1,1.81-.27,2.89-.16,2.12.24,4.36.91,5.18,3.16,4.18-1.65,10.36.06,10.08,5.48-.27,5.31-5.08,6.04-9.57,6.27-4.51.21-8.53-1.28-12.23-3.7-4.52-2.95-9.14-6.22-13.02-10-3.66-3.58-7.57-7.09-11.21-10.79-1.38,5.88-3,11.75-4.55,17.59-1.15,4.36-2.52,8.58-3.21,13.03-.35,2.29-.4,4.75-1.41,6.86-1.06,2.23-2.9,3.82-4.42,5.68-1.96,2.4-4.7,3.16-7.68,3.59-2-.03-10.26.5-11.93-1.47-1.15-1.38-.27-4.6.61-6.04,2.05-3.38,6.62-4.6,10-6.04,2.97-1.28,3.88-3.56,4.34-6.57.63-3.94,1.31-7.87,1.99-11.85,1.09-6.48,1.86-13,2.28-19.56.22-3.43-2.5-4.34-4.73-6.43-.83-.79-1.67-1.54-2.5-2.32-1.47-.34-2.95-.72-4.41-1.23-2.61-.9-5.18-2.02-7.68-3.21-3.85-1.83-7.97-4.59-10.79-7.66-.16,1.67.63,3.17.3,4.87-2.04-.63-3.9-2.85-5.48-4.25-1.89-1.65-3.83-3.21-5.77-4.79-7.29-5.96-14.65-11.17-19.59-19.45-3.09-5.19-5.76-10.63-8.75-15.86-1.36-2.36-2.52-4.81-5.58-3.62-3.05,1.19-5.42,3.56-8.66,4.49-1.75.5-4.14.18-5.88-.18-.67-.14-1.27-.34-1.73-.59-1.28-.67-1.47-1.7.64-2.89,1.38-.77,2.69-1.54,3.93-2.31,9.51-5.88,14.93-11.61,15.84-13.71.45-1.06.53-2.32.02-3.09-.4-.63-1.15-.91-2.37-.51-1.67.56-2.9,1.88-4.38,2.77-11.4,6.88-34.2,6.24-36.79-10.15-.29-1.81.09-5.69,1.97-6.67,1.81-.93,5.23-.29,7.25-.32,3.98-.06,8.06.02,11.82-1.36,3.35-1.23,5.77-4.78,8.26-7.28,4.26-4.3,9.06-7.02,15.02-8.22,3.06-.61,6.25-.64,9.31-.03,1.06-.9,2.07-1.83,2.98-2.57,2.81-2.23,5.69-4.39,8.59-6.51,3.99-2.92,7.9-5.93,11.99-8.72.87-.58,3.61-2.77,4.55-1.41.38.55-.55,2.65-.72,3.17-.59,1.73-1.49,3.33-2.37,4.92,1.49-1.12,3-2.2,4.51-3.19,1.94-1.27,5.43-4.36,5.29-.22-.06,2.21-.96,4.26-1.6,6.36-1.33,4.41-2.69,9.03-4.84,13.18-1.56,2.98-3.29,6-5.53,8.51,3.99,3.17,7.94,6.4,11.72,9.8,3.85,3.46,7.39,5.63,12.31,7.28,3.74,1.27,7.62.27,11.33-.74,3.7-1.01,7.47-1.94,11.22-2.66,10.65-2.02,21.42-4.02,32.21-5.18,11.99-1.28,23.62-1.62,35.59.51,3.85.69,7.44,1.78,10.98,3.32,2.12.91,5.6,2.29,7.01,4.1-1.97-.45-3.75-.02-5.71.05,6,3.61,11,8.48,15.42,13.87,2.05,2.5,4.01,5.05,6.16,7.44,2.18,2.4,4.06,5.1,6.73,7.02,13.18,9.57,31.47,4.7,44.47-2.71,6.86-3.91,12.06-9.46,14.35-17.06,1.76-5.85,2.28-13.21,1.49-19.25-.27-2.08-2.52-5.93-1.97-7.98.53-2.05,3.27-.5,4.55.24,4.2,2.39,7.92,7.17,10.04,11.46,3.14,6.4,3.13,12.92,1.72,19.8Z"/>
    </clipPath>
    <clipPath id="clippath-1">
      <path class="cls-9" d="M568.19,377.56c-1.19-13.45-15.01-15.56-25.82-15.07-6.74.31-31.66-.06-38.44-.18-23.31-.41-82.89-1.35-106.3-.8-12.93.3-53.02.16-65.87.41-6.47.12-40.11.14-46.59.04-1.8-.03-10.09-.1-21.3-.17-1.78.51-3.46,1.27-4.87,2.41-2.3,1.86-4.54,5.33-5.62,8.09-3.52,9.01-.19,20.94,8.93,25.27,7.17-.01,14.34-.02,21.52-.01,9.75,0,46.45-.39,56.2-.24,6.94.1,13.9-.1,20.84-.08,13.48.06,81.35.17,94.85.13,13.97-.04,55.14.37,69.12.46,8.83.07,17.84.58,26.65-.47,9.58-1.14,17.59-9.67,16.7-19.78Z"/>
    </clipPath>
    <clipPath id="clippath-2">
      <path class="cls-3" d="M262.32,397.55c-11.8,0-39,.04-50.81.1-13.7.06-45.66-.35-59.35.43-4.05.23-19,.26-23.05.2-5.1-.08-9.94.46-14.42-2.51-11.1-7.38-8.76-26.22,2.75-31.94.39-.19.8-.38,1.21-.54,4.35-1.74,11.72-1.87,16.32-1.95,4.6-.08,99.22.22,128.92.44-1.78.51-3.46,1.27-4.87,2.41-2.3,1.86-4.54,5.33-5.62,8.09-3.52,9.01-.19,20.94,8.93,25.27Z"/>
    </clipPath>
  </defs>
  <g>
    <path class="cls-1" d="M225.33,128.29c-1.24,3-2.07,6.24-3.1,9.32-5.05,15.17-10.13,30.34-15.19,45.51-3.7,11.07-7.44,22.13-11,33.25-1.48,4.62-2.97,9.24-4.46,13.85-2.93,9.09-5.86,18.19-8.78,27.28-3.71,11.53-7.41,23.05-11.11,34.58-3.93,12.27-7.86,24.54-11.76,36.82-3.6,11.32-7.2,22.65-10.76,33.98-1.5,4.77-3,9.56-4.48,14.34-1.24,3.98-1.96,8.04-4.15,11.66-.83,1.38-1.67,1.84-3.1,2.41-2.01.8-4.08.64-6.15.36-.39-.06-.79-.13-1.19-.27,0,0-.03,0-.04,0-.89-.29-1.74-.77-2.25-1.56-.48-.73-.69-1.59-.91-2.43-.13-.55-.28-1.11-.34-1.67-.36-2.7.44-5.94,1.24-8.5.93-3.02,1.86-6.02,2.81-9.03,3.48-11.1,6.99-22.2,10.51-33.29,3.93-12.35,7.88-24.69,11.82-37.04,3.8-11.86,7.61-23.71,11.41-35.56,3.1-9.64,6.2-19.27,9.3-28.91,1.84-5.67,3.66-11.34,5.49-17.02,2.1-6.57,4.3-13.13,6.48-19.68,4.65-14,9.34-27.99,14.01-41.98,2.36-7.05,4.71-14.11,7.06-21.16,1.05-3.14,2.08-6.28,3.13-9.43,1.08-3.28,1.69-6.69,5.03-8.47,1.67-.89,3.9-1.59,5.79-1.42.73.08,1.39.25,1.98.51,0,0,.02,0,.03,0,1.94.88,3.16,2.71,3.77,4.9.89,3.24.13,5.72-1.07,8.64Z"/>
    <path class="cls-2" d="M222.61,114.75c-.59-.27-1.25-.44-1.98-.51-1.89-.17-4.12.52-5.79,1.42-3.34,1.79-3.95,5.19-5.03,8.47-1.05,3.15-2.08,6.29-3.13,9.43-2.35,7.06-4.7,14.11-7.06,21.16-4.67,13.99-9.36,27.98-14.01,41.98-2.18,6.55-4.38,13.11-6.48,19.68-1.83,5.68-3.65,11.35-5.49,17.02-3.1,9.64-6.2,19.27-9.3,28.91-3.8,11.85-7.62,23.7-11.41,35.56-3.95,12.35-7.89,24.69-11.82,37.04-3.52,11.09-7.03,22.19-10.51,33.29-.94,3.01-1.87,6.01-2.81,9.03-.8,2.57-1.6,5.8-1.24,8.5.07.56.21,1.12.34,1.67.22.85.44,1.7.91,2.43.51.79,1.36,1.27,2.25,1.56-2.08-.4-4.05-1.46-5.95-2.44-1.25-.64-2.48-1.36-3.41-2.41-2.34-2.63-1.04-6.36-.11-9.32.93-3.02,1.86-6.02,2.81-9.03,3.48-11.1,6.99-22.2,10.51-33.29,3.93-12.35,7.87-24.69,11.82-37.04,3.8-11.86,7.6-23.71,11.41-35.56,3.1-9.64,6.2-19.27,9.3-28.91,1.83-5.67,3.66-11.34,5.48-17.02,2.11-6.57,4.3-13.13,6.48-19.68,4.66-14,9.34-27.99,14.02-41.98,2.35-7.05,4.71-14.11,7.06-21.16,1.04-3.14,2.08-6.28,3.13-9.43,1.08-3.28,1.69-6.69,5.03-8.47,2.01-1.07,3.92-1.21,6.1-1.52,2.45-.35,4.85-.42,7.3.1.54.11,1.09.26,1.58.51Z"/>
  </g>
  <g>
    <g>
      <path class="cls-6" d="M494.15,241.79c-.87,4.18-2.92,9.51-5.98,13.13.71-.3,1.41-.56,2.08-.64,1.65,5.19-4.44,10.12-7.71,12.99-4.41,3.86-9.12,6.93-14.49,9.33-2.39,1.06-5.07,1.52-7.41,2.68,1.27.4,3.77,1.09,4.67,2.07-4.1,4.46-13.79,3.64-19.16,3-7.13-.87-14.38-2.73-20.76-6.16-3.25-1.75-6.14-3.56-8.87-5.79-.88,11.48-6.41,22.61-16.43,28.67-6.35,3.85-12.6,7.63-18.69,11.9-.26.18-.66.42-1.14.72.64.75,1.3,1.49,1.97,2.21,1.75,1.88,2.95,4.17,4.67,6.11,2.58,2.89,7.01,6.49,7.54,10.6.61,4.73-6.46,7.92-9.6,10.42-4.14,3.27-8.79,6.38-12.22,10.48-1.11,1.33-2.15,2.6-3.45,3.72-1.36,1.14-1.96.98-3.62,1.22-1.27.18-2.52.35-3.78.48-.82.08-1.62.03-2.4-.03-.3.3-.63.61-.96.9-3.08,2.61-6.03,3.06-10,2.9-2.28-.1-9.35-.06-10.28-2.82-.87-2.61,2.6-8.11,4.83-9.36,1.7-.95,3.75-.99,5.68-1.35,2.9-.55,5.4-2.05,7.71-3.86,5.19-4.12,11.83-7.95,15.87-13.29-1.83-2.74-4.41-4.54-6.73-6.85-2.34-2.32-4.36-5.13-6.38-7.66-5.43-6.77-6.77-14.27-5.82-22.35-2.63-1.04-5.32-3.48-7.81-3.25-2.28.22-4.65.96-6.97,1.28-2.02.29-4.1.46-6.16.46-1.11,0-2.5-.19-3.8-.59-1.56,1.31-3.13,2.6-4.78,3.75,1.91,4.23,4.04,8.37,6.41,12.38,2.28,3.83,4.76,7.55,7.45,11.09,1.33,1.75,4.42,7.42,6.67,7.23,1.04-.1,1.81-.27,2.89-.16,2.12.24,4.36.91,5.18,3.16,4.18-1.65,10.36.06,10.08,5.48-.27,5.31-5.08,6.04-9.57,6.27-4.51.21-8.53-1.28-12.23-3.7-4.52-2.95-9.14-6.22-13.02-10-3.66-3.58-7.57-7.09-11.21-10.79-1.38,5.88-3,11.75-4.55,17.59-1.15,4.36-2.52,8.58-3.21,13.03-.35,2.29-.4,4.75-1.41,6.86-1.06,2.23-2.9,3.82-4.42,5.68-1.96,2.4-4.7,3.16-7.68,3.59-2-.03-10.26.5-11.93-1.47-1.15-1.38-.27-4.6.61-6.04,2.05-3.38,6.62-4.6,10-6.04,2.97-1.28,3.88-3.56,4.34-6.57.63-3.94,1.31-7.87,1.99-11.85,1.09-6.48,1.86-13,2.28-19.56.22-3.43-2.5-4.34-4.73-6.43-.83-.79-1.67-1.54-2.5-2.32-1.47-.34-2.95-.72-4.41-1.23-2.61-.9-5.18-2.02-7.68-3.21-3.85-1.83-7.97-4.59-10.79-7.66-.16,1.67.63,3.17.3,4.87-2.04-.63-3.9-2.85-5.48-4.25-1.89-1.65-3.83-3.21-5.77-4.79-7.29-5.96-14.65-11.17-19.59-19.45-3.09-5.19-5.76-10.63-8.75-15.86-1.36-2.36-2.52-4.81-5.58-3.62-3.05,1.19-5.42,3.56-8.66,4.49-1.75.5-4.14.18-5.88-.18-.67-.14-1.27-.34-1.73-.59-1.28-.67-1.47-1.7.64-2.89,1.38-.77,2.69-1.54,3.93-2.31,9.51-5.88,14.93-11.61,15.84-13.71.45-1.06.53-2.32.02-3.09-.4-.63-1.15-.91-2.37-.51-1.67.56-2.9,1.88-4.38,2.77-11.4,6.88-34.2,6.24-36.79-10.15-.29-1.81.09-5.69,1.97-6.67,1.81-.93,5.23-.29,7.25-.32,3.98-.06,8.06.02,11.82-1.36,3.35-1.23,5.77-4.78,8.26-7.28,4.26-4.3,9.06-7.02,15.02-8.22,3.06-.61,6.25-.64,9.31-.03,1.06-.9,2.07-1.83,2.98-2.57,2.81-2.23,5.69-4.39,8.59-6.51,3.99-2.92,7.9-5.93,11.99-8.72.87-.58,3.61-2.77,4.55-1.41.38.55-.55,2.65-.72,3.17-.59,1.73-1.49,3.33-2.37,4.92,1.49-1.12,3-2.2,4.51-3.19,1.94-1.27,5.43-4.36,5.29-.22-.06,2.21-.96,4.26-1.6,6.36-1.33,4.41-2.69,9.03-4.84,13.18-1.56,2.98-3.29,6-5.53,8.51,3.99,3.17,7.94,6.4,11.72,9.8,3.85,3.46,7.39,5.63,12.31,7.28,3.74,1.27,7.62.27,11.33-.74,3.7-1.01,7.47-1.94,11.22-2.66,10.65-2.02,21.42-4.02,32.21-5.18,11.99-1.28,23.62-1.62,35.59.51,3.85.69,7.44,1.78,10.98,3.32,2.12.91,5.6,2.29,7.01,4.1-1.97-.45-3.75-.02-5.71.05,6,3.61,11,8.48,15.42,13.87,2.05,2.5,4.01,5.05,6.16,7.44,2.18,2.4,4.06,5.1,6.73,7.02,13.18,9.57,31.47,4.7,44.47-2.71,6.86-3.91,12.06-9.46,14.35-17.06,1.76-5.85,2.28-13.21,1.49-19.25-.27-2.08-2.52-5.93-1.97-7.98.53-2.05,3.27-.5,4.55.24,4.2,2.39,7.92,7.17,10.04,11.46,3.14,6.4,3.13,12.92,1.72,19.8Z"/>
      <g class="cls-11">
        <path class="cls-10" d="M269.75,184.38c-.89.54-1.66,1.25-2.45,1.91s-1.62,1.27-2.44,1.88c-1.69,1.25-3.42,2.45-4.99,3.84-3.44,3.04-7.3,5.56-10.92,8.38-1.02.8-2.1,1.54-3.16,2.28-.54.38-1.09.76-1.63,1.14-.26.18-.51.37-.77.56-.32.24-.55.51-.76.85s.14.82.54.71c.28-.08.57-.18.82-.34.26-.17.51-.38.76-.56.49-.35.98-.69,1.47-1.04.96-.67,1.92-1.34,2.85-2.04s1.83-1.43,2.76-2.12,1.86-1.37,2.79-2.05c1.88-1.38,3.76-2.78,5.52-4.32.8-.7,1.58-1.39,2.41-2.05s1.67-1.26,2.5-1.88c.95-.71,1.88-1.44,2.77-2.23s1.73-1.62,2.18-2.72c.06-.16-.15-.29-.28-.21h0Z"/>
        <path class="cls-10" d="M239.54,198c.1.08.2.18.32.25.09.05.18.1.27.15s.17.1.26.15c.14.08.3.14.46.2l-.18-.08c.31.13.62.27.93.39.27.1.53.21.79.32l-.2-.08c.85.36,1.67.79,2.51,1.16.71.32,1.43.63,2.13.99.27.14.56.29.8.48l-.16-.12s.03.03.05.04c.15.13.34.23.54.23.17,0,.33-.06.47-.17.3-.23.39-.66.2-.99-.24-.41-.69-.65-1.09-.87-.45-.25-.92-.48-1.39-.71-1.09-.53-2.18-1.06-3.3-1.51-.44-.17-.89-.35-1.35-.47-.28-.07-.56-.15-.85-.18-.26-.03-.55-.08-.81-.03l.15-.02c-.07,0-.15.02-.22.02-.2.02-.36.1-.45.3-.07.16-.05.41.1.53h0Z"/>
        <path class="cls-10" d="M259.79,219.74c.28-.07.58-.16.8-.36.16-.15.32-.3.49-.44.34-.29.65-.61.97-.93.66-.64,1.29-1.29,1.85-2.02.37-.48.74-.97,1.11-1.45l-.14.18c.33-.43.72-.8,1.06-1.21.21-.25.42-.51.59-.78.06-.1.12-.21.17-.32.06-.13.09-.21.11-.33.02-.12.04-.24.04-.36,0-.31-.23-.63-.53-.7s-.65.05-.82.33c-.03.05-.06.1-.1.15l.12-.16c-.08.1-.17.2-.24.31-.04.07-.09.13-.14.19l.13-.17c-.37.47-.85.84-1.25,1.28-.26.28-.49.6-.72.9s-.47.62-.71.93l.14-.18c-.17.21-.33.43-.5.65l.14-.18c-.4.52-.84,1.02-1.29,1.49-.22.23-.44.46-.66.69s-.43.47-.63.73c-.09.11-.18.23-.26.34s-.15.23-.19.37c-.06.19-.08.39-.08.59,0,.3.29.5.56.43h0Z"/>
        <path class="cls-10" d="M250.94,212.41c.24.09.48.02.72-.04.13-.04.26-.09.38-.15.09-.04-.04.02-.04.01,0,0,.17-.07.18-.08.06-.03.11-.08.16-.11.41-.3.8-.63,1.14-.99.37-.39.69-.83.99-1.27.28-.4.54-.81.78-1.23.5-.87.94-1.76,1.39-2.65.56-1.1,1.12-2.2,1.71-3.28.64-1.18,1.36-2.52,1.09-3.91-.06-.32-.56-.38-.7-.09-.12.25-.2.46-.33.71s-.26.49-.38.73c-.26.5-.53,1-.81,1.5-.58,1.05-1.15,2.1-1.7,3.16-.47.9-.93,1.81-1.44,2.68-.24.41-.49.81-.74,1.21-.13.2-.25.39-.39.58-.07.1-.13.19-.2.28-.03.05-.07.09-.1.14-.02.03-.04.05-.06.08-.06.08.1-.12.03-.04-.12.15-.24.29-.35.44-.01.02-.03.04-.04.06-.06.08.12-.15.02-.02-.04.05-.08.1-.12.15-.16.19-.32.38-.5.55-.08.08-.17.16-.26.25-.02.02-.15.15-.14.17,0-.01.1-.11.02-.04-.06.06-.12.12-.17.19-.12.15,0,.02,0,0,0,.03-.05.06-.07.08-.04.04-.07.08-.11.12-.11.12-.17.23-.23.38-.07.19.08.38.25.44h0Z"/>
        <path class="cls-10" d="M258.89,203.71c.28-.23.54-.47.8-.72s.5-.53.75-.79c.55-.55,1.04-1.19,1.46-1.84.44-.69.87-1.4,1.29-2.11.21-.35.41-.7.63-1.04s.38-.58.6-.83c.47-.55,1.02-.98,1.58-1.44.6-.5,1.17-1.03,1.71-1.59s1.07-1.2,1.59-1.81,1.01-1.18,1.51-1.77c.54-.63,1.07-1.26,1.61-1.89.27-.31.56-.6.87-.88.15-.13.3-.26.46-.38.08-.06.17-.12.24-.18.11-.1.19-.22.27-.33.28-.38-.18-.84-.57-.75-.42.1-.75.38-1.09.65-.3.23-.57.49-.85.74s-.56.5-.81.78-.5.56-.74.85c-1.03,1.2-2.06,2.39-3.1,3.57-.53.6-1.05,1.19-1.63,1.74-.54.51-1.1,1-1.66,1.47-1.25,1.05-2,2.55-2.84,3.93-.45.74-.94,1.46-1.43,2.18-.24.35-.47.73-.64,1.11s-.28.78-.29,1.22c0,.15.18.2.28.12h0Z"/>
        <path class="cls-10" d="M198.5,214.84c.48,1.44-.18,3.86-.83,5.17-.98,1.98-4.17,2.93-6.2,3.24-4.54.68-5.5-6.97-1.83-8.5,2.45-1.02,5.38.32,7.95-.27l.9.36Z"/>
        <path class="cls-12" d="M223.96,214.26c0,1.58-1.28,2.85-2.85,2.85s-2.85-1.28-2.85-2.85,1.28-2.85,2.85-2.85,2.85,1.28,2.85,2.85Z"/>
        <path class="cls-12" d="M227.37,226.76c.09.01.19.03.28.04.1,0,.21-.01.32-.02.2-.02.4-.03.59-.04.1,0,.2-.01.31-.02.1,0,.19-.02.28-.03.1-.01-.06,0-.07,0,.04,0,.08-.01.12-.02.21-.03.42-.05.63-.07.89-.09,1.78-.13,2.67-.14.49,0,.99.02,1.47.08l-.23-.03c.52.07,1.03.2,1.51.4l-.19-.08c.17.07.33.16.49.26s.31.23.48.32.33.18.48.3c.02.01.03.03.05.04l-.08-.06s.06.05.09.07c.06.05.1.07.17.1.1.04.19.09.28.14.36.18.75-.12.66-.51-.05-.22-.1-.44-.23-.63s-.26-.36-.4-.54c-.25-.32-.62-.55-.97-.74-.66-.37-1.36-.63-2.11-.76-.42-.07-.84-.12-1.27-.12s-.85.04-1.27.1c-.71.12-1.4.31-2.09.54-.41.14-.8.29-1.19.48-.16.08-.33.16-.49.24-.1.05-.19.09-.27.16-.07.05-.13.11-.2.16-.07.06-.08.18-.05.25.04.09.12.13.21.14h0Z"/>
        <path class="cls-12" d="M236.08,228.89c.06.11.11.22.16.33s.11.21.16.31c.11.2.21.4.3.61l-.07-.17c.11.25.23.49.34.74l-.08-.18c.1.24.21.47.32.71l-.08-.19c.08.18.15.36.21.54s.13.38.2.56.15.38.22.56c.1.25.2.49.32.72.05.11.1.22.16.32.07.11.14.21.21.32s.15.18.27.23.25.07.36.03c.09-.03.17-.08.25-.14.09-.08.18-.27.16-.39-.03-.25-.06-.49-.11-.74-.04-.19-.07-.38-.12-.57-.1-.36-.19-.72-.33-1.07-.15-.39-.31-.79-.49-1.17-.08-.17-.17-.32-.27-.48-.13-.2-.27-.4-.43-.57-.15-.16-.3-.31-.46-.45-.2-.18-.42-.32-.65-.45-.15-.09-.38-.07-.5.06s-.15.33-.06.5h0Z"/>
        <path class="cls-12" d="M236.66,233c.03.11.05.22.07.33.01.05.03.1.03.15s0,.1,0,.16c0,.11,0,.22,0,.33s.02.22.03.33c.04.45.04.9.03,1.35,0,.26-.03.51-.06.77l.02-.13c-.02.13-.04.26-.06.39s-.06.26-.09.4c-.03.17-.06.33-.08.5-.01.13-.02.26-.03.39,0,.16.12.33.28.37.07.02.14.02.2,0,.1-.02.17-.1.23-.18.13-.17.24-.34.3-.54s.1-.39.13-.6c.04-.33.05-.66.04-.99-.01-.36-.05-.73-.13-1.08-.07-.33-.15-.65-.25-.97-.06-.19-.15-.37-.24-.54-.04-.07-.06-.16-.08-.23-.03-.09-.06-.18-.09-.28-.05-.16-.29-.1-.25.07h0Z"/>
        <path class="cls-12" d="M234.35,244.35c-.32.18-.63.37-.94.56s-.61.4-.9.61c-.34.24-.68.48-1,.75-.28.24-.56.47-.85.7-.32.26-.65.52-.97.77l.16-.12c-.43.33-.86.68-1.29,1.01l.15-.12c-.24.19-.49.37-.73.56-.2.16-.4.32-.6.47-.12.09-.2.32-.19.47s.05.28.14.4c.2.26.56.33.86.17.25-.14.5-.28.75-.43s.47-.31.71-.47c.51-.35.99-.73,1.46-1.12.43-.35.85-.71,1.26-1.08.21-.18.41-.36.6-.56s.38-.4.57-.6c.43-.46.83-.94,1.23-1.43.11-.14.14-.31.03-.46-.11-.14-.3-.18-.45-.09h0Z"/>
        <path class="cls-12" d="M193.76,228.24c.04.06.06.11.12.17.02.02.04.03.06.05.02.02.04.03.06.05,0,0,0,0,0,0,0,0,.01,0,.02.01.01,0,.02.02.04.03l-.13-.1s.09.08.13.13l-.11-.14s0,0,0,.01c0,0,0,0,0,0,.04.08.11.15.18.2.09.07.11.09.25.13,0,0,0,0,.01,0,.02,0,.03.01.05.02l-.16-.07s.05.02.07.04l.16.07.17.02.17-.02c.09-.02.16-.06.22-.12.05-.03.09-.07.12-.12.04-.04.07-.09.08-.15.03-.05.04-.11.04-.17.02-.09.02-.17-.01-.26,0-.01,0-.02,0-.03-.02-.06-.05-.12-.08-.18,0-.02-.02-.04-.03-.06,0,0-.01-.02-.02-.02-.03-.06-.07-.11-.12-.15-.09-.09-.19-.15-.31-.18,0,0-.01,0-.02,0-.08-.02-.16-.03-.25-.03-.05,0-.09,0-.14,0-.01,0-.02,0-.04,0-.14.02-.21.02-.34.09-.04.02-.11.08-.16.12l-.09.11c-.04.06-.06.13-.06.2-.01.05-.01.1,0,.14,0,.07.02.14.06.2h0Z"/>
        <path class="cls-12" d="M197.04,227.95l.02.03c.07.11.16.2.27.27.12.07.25.1.38.1.14,0,.26-.03.38-.1.11-.07.2-.16.27-.27.01-.03.03-.06.04-.09.05-.09.07-.19.07-.29l-.03-.2c-.02-.06-.05-.12-.08-.18-.07-.11-.16-.2-.27-.27-.12-.07-.25-.1-.38-.1-.14,0-.26.03-.38.1-.11.07-.2.16-.27.27l-.02.03c-.06.11-.09.22-.09.35,0,.12.03.24.09.35h0Z"/>
        <path class="cls-12" d="M200.79,227.5s.07.04.1.06c.02,0,.04.02.05.03.07.03.15.07.22.09.04.01.07.03.11.04,0,0,0,0,0,0l.2.03s.07,0,.11-.01c.04,0,.07,0,.1-.01,0,0,.02,0,.03,0,.02,0,.04-.01.06-.02l.17-.07.14-.11.11-.14c.05-.08.08-.17.08-.27.02-.06.02-.13,0-.19,0-.06-.02-.12-.05-.18-.02-.06-.05-.11-.09-.16-.05-.08-.12-.14-.2-.18-.02,0-.03-.01-.05-.02,0,0-.02,0-.02-.01-.14-.08-.24-.1-.4-.11-.04,0-.08,0-.12,0l.2.03c-.08-.01-.16-.03-.23-.06-.09-.03-.19-.03-.28-.01-.09,0-.18.03-.26.08l-.14.11c-.07.06-.12.14-.15.23-.03.06-.05.11-.05.18-.02.09-.02.19.01.28l.07.17c.06.11.15.19.25.25h0Z"/>
        <path class="cls-12" d="M197,231.51s.01,0,.02,0l-.08-.04s.05.02.08.04l-.13-.13s.02.04.03.06l-.04-.1s.01.03.01.04c0,0,0,0,0,.01l.05.12s.05.07.08.1c0,0,.01.02.02.02l-.08-.1c.05.06.08.12.14.18.02.03.05.05.07.08l-.09-.11s.01.01.02.02c.05.08.12.15.2.2.09.05.18.08.28.08l.15-.02c.1-.03.18-.08.25-.14.05-.05.09-.11.12-.18.04-.07.05-.14.05-.22,0-.19-.11-.39-.28-.49-.03-.02-.07-.03-.1-.05-.05-.02-.1-.04-.15-.06,0,0-.02,0-.03,0-.06,0-.12-.02-.18-.02-.07,0-.15,0-.21.03-.06.02-.11.05-.17.07l.18-.05s-.07,0-.1,0c-.05,0-.09,0-.13.03-.04.01-.08.04-.11.07l-.05.07s-.04.08-.04.13c0,.03,0,.06,0,.09,0,.05.02.09.04.13l.05.07s.09.07.15.09h0Z"/>
        <path class="cls-12" d="M199.84,231.22s.02.04.03.06c.03.05.07.09.11.14,0,0,0,0,0,0,.01.01.11.08.12.09,0,0,0,0,0,0,.02.01.12.05.07.03-.05-.02.05.02.07.03.02,0,.12.02.08.01-.03,0,.06.01.08.01,0,0,.16-.02.16-.02.03,0-.02.01.07-.03-.03.01.05-.02.07-.03,0,0,.12-.09.12-.1,0,0,0,0,0,0,0,0,.09-.12.1-.12,0,0,0,0,0,0l.06-.15s0,0,0,0c0,0,0,0,0,0,0,0,0-.01,0-.02.03-.11.03-.22,0-.33-.03-.11-.08-.2-.16-.28-.16-.16-.39-.22-.61-.16s-.38.23-.44.44c-.03.11-.03.22,0,.33.03.11.08.2.16.28,0,0,0,0,0,0l-.1-.13s0,.01.01.02l-.06-.15s0,0,0,0l-.02-.16s0,0,0,0l.02-.16s0,0,0,0l.06-.14s0,0,0,0l.09-.12s0,0,0,0l.12-.09s0,0,0,0l.14-.06s0,0-.01,0l.16-.02s-.03,0-.05,0l.15.02s-.04,0-.05,0l-.14-.02-.14.02-.13.05c-.06.03-.11.08-.15.14-.03.03-.06.07-.07.12-.02.04-.04.09-.04.14-.01.05-.01.1,0,.14,0,.07.02.14.06.2h0Z"/>
        <path class="cls-12" d="M203.06,231.53c.14.08.29.14.45.2.05.02.1.04.15.05.07.02.18.04.23.03.01,0,.03,0,.04,0,.09-.01.18-.02.27-.04l.18-.07c.09-.05.16-.11.21-.19.05-.05.08-.1.1-.16.05-.09.07-.18.06-.28l-.03-.2-.07-.18c-.05-.09-.11-.16-.19-.21-.07-.07-.16-.11-.25-.13-.02,0-.04-.01-.06-.02-.08-.03-.17-.04-.26-.04-.04,0-.09,0-.13,0-.09,0-.17,0-.26-.02l.19.02s-.06,0-.09-.01c-.09-.03-.18-.03-.27-.01-.09,0-.18.03-.25.08l-.14.11c-.07.06-.11.14-.14.22-.03.05-.05.11-.05.17-.02.09-.02.18.01.27l.07.16c.06.1.14.18.24.24h0Z"/>
        <path class="cls-12" d="M248.36,254.21c.03.07.06.13.09.2.02.03.03.07.05.1,0,.01.01.03.02.04.05.1-.05-.12.02.04.02.05.05.09.09.13-.06-.07-.02-.03,0,0,.02.03.04.06.07.09.05.06.1.13.14.19.21.27.41.55.65.79.47.5.98.97,1.53,1.38.51.39,1.06.76,1.64,1.03.34.16.68.3,1.03.43.29.1.6.2.91.25.4.07.8.12,1.21.11s.79-.09,1.16-.18c.22-.06.35-.28.32-.49-.03-.23-.22-.37-.44-.39-.02,0-.23-.04-.23-.03,0-.01.12.02,0,0-.03,0-.06,0-.09-.01-.13-.02-.26-.05-.39-.08-.27-.05-.55-.1-.81-.16-.54-.14-1.08-.31-1.6-.52l.17.07c-.75-.32-1.48-.71-2.16-1.17-.34-.23-.68-.46-1.01-.7-.08-.06-.15-.11-.23-.17.15.11,0,0-.03-.02-.04-.03-.09-.07-.13-.1-.1-.08-.2-.16-.31-.24-.04-.03-.09-.06-.13-.1-.02-.01-.03-.03-.05-.04l.05.04s-.03-.03-.05-.04c-.17-.13-.34-.27-.5-.41-.1-.08-.2-.16-.31-.23-.09-.05-.19-.11-.28-.17-.1-.06-.24-.04-.33.04-.09.09-.09.22-.04.33h0Z"/>
        <path class="cls-12" d="M253.16,254.9c1.02.71,2.15,1.28,3.33,1.68.64.22,1.29.37,1.96.45s1.32.06,1.99-.04c.37-.06.74-.22,1.08-.37.15-.07.31-.13.44-.23.17-.12.34-.25.5-.39.17-.15.21-.46.08-.65s-.38-.33-.61-.25c-.26.1-.54.17-.81.25s-.55.14-.84.18l.19-.03c-.24.03-.47.07-.71.11l.2-.03c-.83.11-1.66.09-2.49-.02l.17.02c-.58-.08-1.16-.21-1.73-.38-.28-.08-.55-.18-.82-.28-.07-.03-.13-.05-.2-.08-.02,0-.11-.05-.05-.02.06.03,0,0,0,0-.03-.01-.05-.02-.08-.03-.13-.06-.26-.11-.38-.17-.28-.13-.55-.27-.82-.42-.19-.11-.45-.05-.56.15-.11.21-.04.43.15.56h0Z"/>
        <path class="cls-12" d="M257.32,253.11c1.04.24,2.06.57,3.11.77,1.12.22,2.32.33,3.43,0,.33-.1.66-.23.95-.41.17-.1.33-.24.48-.37.12-.11.24-.22.35-.34.24-.26.28-.7,0-.96s-.68-.25-.96,0c-.09.08-.17.15-.27.22l.14-.11c-.18.13-.37.25-.55.37s-.37.21-.57.29l.16-.07c-.41.17-.84.28-1.28.34l.17-.02c-.67.09-1.35.07-2.02,0-.17-.02-.34-.04-.51-.06-.04,0-.07,0-.11-.01-.08-.01.04,0,.05,0-.02,0-.05,0-.07,0-.09-.01-.18-.02-.26-.04-.33-.05-.66-.1-1-.16-.38-.06-.76-.12-1.14-.17-.18-.02-.34.16-.36.31-.02.17.08.36.26.4h0Z"/>
        <path class="cls-12" d="M266.64,241.05c.78.42,1.59.76,2.43,1.03s1.67.49,2.54.62c.28.04.56.08.85.11.23.02.47,0,.7-.01.17-.01.34-.07.46-.19.11-.11.2-.3.19-.46-.02-.37-.29-.64-.66-.66-.21,0-.42-.04-.63-.04s-.43,0-.65-.02c-.44-.02-.88-.07-1.32-.13l.16.02c-1.02-.14-2.03-.36-3.01-.69-.26-.09-.52-.18-.77-.29-.08-.03-.23,0-.3.04s-.13.11-.16.19c-.07.17-.01.39.16.48h0Z"/>
        <path class="cls-12" d="M270.35,239.15c.15.1.31.2.47.29.18.1.36.21.54.32.42.24.86.45,1.31.64s.9.33,1.36.43c.52.1,1.05.11,1.57.04.55-.08,1.08-.33,1.47-.73.12-.12.2-.3.2-.47,0-.16-.07-.36-.2-.47s-.3-.2-.47-.2-.36.06-.47.2c-.08.09-.17.18-.27.26l.13-.1c-.18.14-.37.26-.58.35l.15-.06c-.26.11-.54.18-.81.21l.15-.02c-.31.04-.63.05-.94.04-.16,0-.33-.01-.49-.03-.07,0-.15-.01-.22-.02-.03,0-.18-.02-.04,0-.05,0-.1-.01-.14-.02-.62-.09-1.23-.25-1.82-.45-.26-.09-.52-.23-.77-.37-.13-.07-.23.11-.11.19h0Z"/>
        <path class="cls-12" d="M272.13,236.04c.12.06.24.11.36.16.08.03.16.07.24.1.06.03-.08-.04.02,0,.06.03.13.06.19.08.23.1.47.19.71.27.47.16.95.28,1.44.37.52.09,1.05.15,1.58.15s1.07-.06,1.6-.13c.59-.08,1.16-.23,1.73-.41.17-.06.33-.17.42-.33s.13-.38.07-.55c-.12-.36-.49-.61-.87-.49-.45.13-.9.23-1.35.34s-.86.19-1.3.25l.18-.02c-.61.08-1.24.12-1.86.1-.16,0-.31-.01-.47-.03-.08,0-.15-.01-.23-.02-.04,0-.08,0-.11-.01-.02,0-.03,0-.05,0-.02,0-.03,0-.05,0h.07c-.32-.05-.64-.1-.95-.17-.38-.09-.74-.21-1.1-.35-.17-.07-.38.06-.44.22s-.02.39.15.47h0Z"/>
        <path class="cls-12" d="M303.8,273.45c.3.42.58.86.86,1.3s.54.86.82,1.28c.59.89,1.11,1.82,1.7,2.7s1.21,1.73,1.85,2.57c.12.16.24.31.36.46.04.05.08.1.12.15.12.15.05.07.03.04.23.29.46.58.68.87.01.01.11.14.03.04.04.05.08.1.12.15.1.13.2.25.29.38.18.24.37.49.55.73,1.41,1.91,2.76,3.87,4.09,5.84s2.63,3.93,3.89,5.94c.26.42.53.84.78,1.27.13.23.26.46.37.7.02.04.04.09.06.13.08.17-.05-.16.02.04.04.11.08.21.11.32s.06.21.08.32c.01.05.02.11.03.16.02.07,0-.19,0,.02,0,.11,0,.21,0,.31v.03c-.01.1,0,.08,0-.05.02.03-.03.16-.04.19-.01.04-.02.08-.04.12-.02.06-.11.21,0,.03-.06.1-.11.2-.17.3-.08.13-.01.03,0,0-.05.06-.1.12-.15.17-.11.12-.24.23-.37.34-.37.31-.29.89,0,1.22.2.22.43.42.65.63.1.09.2.19.29.29.04.05.08.09.13.14.02.02.04.05.06.07-.13-.15-.03-.04,0,0,.03.05.06.1.09.16.1.17-.01-.09.02.05,0,.03.08.25.04.13-.03-.1,0-.01,0,.02,0,.05,0,.09,0,.14,0,.05,0,.1,0,.15,0-.02.03-.14,0-.05-.02.07-.03.14-.05.21,0,.02-.06.17-.02.07.04-.09,0,.02-.02.03-.05.09-.09.17-.14.25-.08.14-.18.27-.27.4-.02.03-.05.06-.07.09,0-.01.08-.1.02-.02-.08.1-.15.2-.23.29-.23.3-.44.6-.62.93-.41.76-.71,1.59-.94,2.42-.22.78-.38,1.58-.58,2.36-.22.86-.46,1.71-.69,2.56-.44,1.66-.8,3.32-1.08,5.01-.3,1.82-.6,3.66-1.24,5.4-.13.35.12.76.44.89s.77.03.95-.31c.81-1.54,1.18-3.24,1.47-4.94s.62-3.45,1.08-5.15c.23-.88.49-1.75.71-2.64.2-.8.36-1.62.56-2.42s.44-1.57.78-2.23.85-1.18,1.22-1.81c.48-.82.6-1.8.15-2.66-.17-.33-.44-.62-.71-.88-.12-.11-.23-.22-.35-.33-.06-.06-.12-.12-.18-.19-.04-.05-.22-.27-.09-.1l-.31,1.18c.91-.67,1.54-1.63,1.5-2.79-.04-1.01-.47-1.95-.96-2.81-1.14-2.01-2.4-3.96-3.68-5.87-1.37-2.04-2.76-4.06-4.2-6.05-.76-1.04-1.53-2.07-2.33-3.07-.36-.45-.73-.88-1.09-1.32-.17-.21-.34-.42-.5-.64.1.12-.09-.11-.12-.16-.11-.14-.21-.28-.31-.41-.77-1.01-1.58-1.99-2.44-2.92-.42-.45-.84-.89-1.32-1.28s-.97-.74-1.48-1.07c-.11-.07-.26.07-.18.18h0Z"/>
        <path class="cls-12" d="M282.85,291.38c.33.6.66,1.21,1.04,1.78s.8,1.1,1.2,1.64c.85,1.12,1.75,2.21,2.65,3.29,1.75,2.12,3.45,4.29,5.26,6.36.51.58,1.03,1.14,1.58,1.67.58.56,1.27,1.12,2.04,1.41.2.07.45-.04.57-.19.13-.18.15-.4.04-.6-.07-.14-.16-.27-.25-.4-.06-.08-.12-.16-.18-.24-.03-.04-.07-.09-.1-.13l-.04-.06c.04.05.04.05.01.01-.04-.06-.08-.11-.13-.16s-.21-.27-.13-.16c.05.07-.02-.02-.02-.03-.14-.18-.28-.35-.43-.52-.46-.51-.9-1.03-1.34-1.55-.88-1.04-1.7-2.13-2.58-3.17-1.76-2.09-3.72-4-5.65-5.94-.53-.53-1.06-1.07-1.57-1.63s-1.09-1.09-1.62-1.64c-.18-.19-.47.05-.35.27h0Z"/>
        <path class="cls-12" d="M274.09,295.53c-.04-.26-.05-.52-.05-.78,0-.12.02-.23,0-.34-.01-.13-.04-.26-.06-.39-.08-.49-.15-1-.31-1.47-.32-.93-.71-1.83-.99-2.77l-.88.88c.16.06.32.12.48.19-.22-.09-.06-.03,0,0,.04.02.09.04.13.06.14.06.28.12.43.18.41.17.81.3,1.25.35.48.06.96-.07,1.33-.39.42-.36.55-.92.61-1.44.11-.97-.24-1.94-.65-2.8s-.99-1.7-1.57-2.5c-.16-.22-.32-.44-.48-.66-.11-.15-.21-.29-.33-.44-.04-.05-.08-.1-.12-.15-.02-.03-.07-.1.03.04-.02-.03-.04-.05-.06-.08-.27-.35-.53-.71-.74-1.1-.14-.25-.46-.34-.72-.24s-.44.41-.33.68c.63,1.67,1.83,3.03,2.72,4.56.12.2.23.41.33.61.05.09.09.18.13.28.02.05.04.11.07.16,0,0-.06-.15-.03-.07.01.03.03.07.04.1.08.2.15.4.2.61.02.1.05.19.07.29,0,.04.01.09.02.13.01.08-.01-.1-.01-.09,0,.04,0,.08.01.11.02.19,0,.37,0,.56,0,0,.03-.19.01-.08,0,.02,0,.05-.01.07,0,.05-.02.1-.03.15s-.03.09-.04.14c-.02.05-.06.08.03-.06-.02.03-.03.05-.04.08-.02.03-.04.07-.06.1-.05.1.12-.12.02-.03-.02.02-.14.12-.03.03.11-.08,0,0-.04.01-.11.07.17-.05.04-.02-.03,0-.06.02-.1.03-.02,0-.04,0-.06.01,0,0,.18-.01.12-.02-.04,0-.09,0-.14,0-.04,0-.08,0-.13,0-.11,0,.09.01.09.01-.03,0-.05,0-.08-.01-.1-.02-.19-.04-.28-.07-.2-.06-.39-.13-.59-.21-.02,0-.05-.02-.07-.03-.11-.05.13.06.05.02-.05-.02-.1-.04-.15-.07-.09-.04-.19-.08-.28-.12-.22-.09-.44-.19-.66-.26-.51-.16-1.05.37-.88.88.32.97.75,1.9,1.2,2.82.22.45.5.86.73,1.3.06.1.11.21.16.31s.13.19.19.29.12.2.17.3c.06.13.09.27.13.42s.22.07.21-.06h0Z"/>
        <path class="cls-12" d="M276.58,285.07s.07-.09.1-.14c0,0,.03-.05,0-.01-.03.06.05-.07.05-.06.03-.05.04-.11.06-.16.04-.12.08-.23.12-.35s.06-.24.09-.36c.03-.15.07-.33.07-.48,0-.55-.1-1.08-.28-1.6s-.41-1.05-.69-1.54c-.26-.45-.55-.89-.85-1.31-.37-.52-.77-1.02-1.16-1.53l.12.15c-.19-.25-.38-.49-.57-.74l.11.15c-.24-.32-.51-.61-.76-.91-.09-.11-.29-.18-.43-.18s-.26.05-.37.13c-.1.08-.19.19-.22.32-.04.17,0,.31.06.47.08.18.17.37.26.55s.2.36.32.54c.23.35.48.7.72,1.04.51.72,1.03,1.42,1.48,2.18.24.41.48.84.66,1.28l-.07-.17c.1.24.18.48.26.72.04.12.08.24.11.36.02.06.03.11.04.17.03.11.06.21.1.32l-.06-.15c.07.21.13.42.17.64,0,.05.02.1.03.15s0-.09,0,0c0,.03,0,.06.01.09.01.14.05.26.08.4.02.09.11.16.2.17.1.01.18-.03.24-.12h0Z"/>
        <path class="cls-12" d="M306.79,271.84c.03.22.15.39.25.58s.2.38.29.58c.19.39.38.78.56,1.17.04.09.08.18.12.28.02.05.05.11.07.16,0,.02.02.05.03.07-.02-.05-.02-.05,0,0,.05.12.1.25.16.37.02.05.04.09.06.14,0,.02.02.05.03.07.04.08-.04-.09,0-.01.16.38.31.77.44,1.16.55,1.58,1,3.19,1.47,4.8.13.45.26.91.39,1.36.07.22.15.44.24.66.13.32.35.75.71.84.18.04.38,0,.51-.13.22-.23.22-.55.2-.85-.01-.25-.07-.53-.14-.78-.1-.41-.22-.82-.32-1.22-.22-.82-.43-1.65-.7-2.46-.54-1.63-1.2-3.26-2.19-4.68-.29-.42-.59-.83-.94-1.2-.17-.18-.34-.36-.52-.53s-.35-.37-.59-.45c-.06-.02-.14.03-.13.1h0Z"/>
        <path class="cls-12" d="M321.62,299.45h.01s-.08-.01-.13-.02c.02,0,.05,0,.07.01l-.13-.06s.11.05.15.06c.1.03.22.03.32,0,.03,0,.05-.02.08-.02.05-.02.11-.03.16-.05s.11-.03.16-.05.11-.04.16-.06c.11-.04.22-.08.32-.12.17-.07.33-.15.49-.24.42-.23.84-.45,1.25-.68.06-.03.11-.06.16-.09.12-.07.21-.16.31-.25s.17-.19.25-.29l.11-.14c.05-.08.08-.17.08-.26.02-.06.02-.12,0-.18,0-.09-.03-.18-.08-.26-.06-.1-.15-.18-.25-.25-.08-.05-.17-.08-.26-.08-.09-.02-.18-.02-.28.01-.11.03-.22.05-.32.09-.05.02-.1.04-.16.06-.11.04-.17.07-.26.12-.02.02-.05.03-.07.05-.2.12-.4.24-.6.36s-.41.24-.61.36c-.1.06-.21.12-.31.18-.15.09-.29.22-.42.33-.05.04-.1.08-.14.12-.05.04-.1.09-.14.14-.04.05-.08.09-.13.14-.02.03-.04.05-.07.08-.04.04-.08.09-.11.14-.06.1-.08.19-.08.31l.02-.15s-.01.06-.02.09c-.05.14,0,.3.08.41.09.12.22.18.37.19h0Z"/>
        <path class="cls-12" d="M328.17,294.94s.09-.02.13-.03c.07-.02.14-.06.21-.09.05-.02.1-.05.14-.07s.09-.06.13-.09c.09-.06.17-.12.26-.18.13-.09.25-.19.37-.29l-.12.09c.29-.23.6-.44.88-.67.25-.21.51-.41.76-.62.51-.41.99-.85,1.44-1.33.29-.3.54-.64.77-.99.05-.08.08-.17.09-.27.02-.1.02-.19-.01-.29l-.07-.17c-.05-.08-.11-.15-.19-.2-.05-.05-.1-.08-.16-.09-.09-.05-.18-.07-.28-.06-.18,0-.4.07-.51.21-.13.16-.26.31-.4.46s-.27.31-.42.46c-.28.3-.58.58-.88.86-.15.14-.3.29-.45.44s-.3.29-.45.43-.3.28-.43.44-.27.31-.4.47c-.1.12-.2.24-.29.36-.06.09-.12.18-.18.27-.05.08-.09.15-.13.24-.02.05-.03.09-.05.14-.02.07-.05.14-.05.22,0,.04,0,.09,0,.13,0,.15.14.25.29.22h0Z"/>
        <path class="cls-12" d="M371.17,255.87c-.64.51-1.23.99-1.72,1.65s-.93,1.25-1.36,1.9c-.86,1.3-1.68,2.61-2.49,3.94-1.62,2.68-3.1,5.45-4.6,8.21s-2.97,5.53-4.25,8.41-2.46,5.94-3.47,9c-.51,1.54-.94,3.11-1.28,4.7s-.61,3.29-.63,4.96c0,.4.09.82.15,1.21.07.46.76.4.87,0,.1-.38.23-.75.3-1.13s.13-.78.21-1.17c.15-.8.31-1.6.49-2.39.35-1.58.81-3.12,1.3-4.66s1-3.01,1.55-4.49c.27-.73.56-1.46.85-2.18.15-.36.29-.72.44-1.08.04-.09.07-.17.11-.26-.05.11.04-.1.05-.13.09-.2.17-.4.26-.6,1.24-2.87,2.65-5.65,4.14-8.39s2.95-5.45,4.49-8.13c.78-1.35,1.55-2.7,2.37-4.03.4-.65.82-1.29,1.21-1.95s.82-1.3,1.13-2.02c.15-.35.26-.71.4-1.06.13-.33-.32-.48-.53-.31h0Z"/>
        <path class="cls-12" d="M298.57,353.17c-.11.12-.24.17-.37.25-.15.09-.29.19-.43.3-.03.02-.06.04-.08.07.07-.06,0,0,0,0-.06.04-.12.09-.18.13-.1.07-.19.14-.28.21-.03.02-.05.04-.08.07-.14.11.12-.09-.02.02-.49.36-1.01.68-1.53.99s-1.07.57-1.59.89c-.6.37-1.11.8-1.52,1.37-.58.81-.9,1.82-1.09,2.79-.22,1.11-.31,2.26-.25,3.39.03.62.1,1.25.23,1.86.05.25.12.49.2.73.05.16.11.36.2.49s.2.27.31.4c.2.24.65.28.9.12.3-.2.39-.5.34-.84-.02-.11.02.11.01.11,0-.02,0-.05,0-.08,0-.04,0-.08-.01-.13-.02-.18-.06-.32-.11-.49-.06-.21-.1-.42-.15-.64-.02-.11-.04-.22-.06-.33,0-.06-.02-.12-.03-.18s-.01-.16.01.11c0-.03,0-.07-.01-.1-.03-.25-.05-.5-.06-.74-.03-.52-.02-1.04.01-1.56.02-.26.04-.51.07-.77s-.03.19,0,0c0-.07.02-.13.03-.2.02-.13.04-.26.07-.39.1-.49.22-.97.4-1.44.03-.09.19-.44.04-.11.05-.11.09-.21.15-.32.1-.19.2-.38.32-.56.03-.04.06-.09.09-.13.12-.16-.11.14-.04.05.09-.1.17-.2.27-.3s.2-.19.31-.28c.17-.14-.17.12,0,0,.07-.05.14-.1.21-.15.49-.33,1.01-.61,1.52-.92.68-.41,1.25-.95,1.73-1.58.1-.13.2-.26.28-.4.1-.18.17-.37.25-.56.07-.16.11-.31.13-.49s0-.36.05-.54c.03-.12-.13-.23-.22-.13h0Z"/>
        <path class="cls-12" d="M294.5,352.39c-.24.09-.49.16-.73.24s-.5.17-.75.24c-.53.16-1.06.34-1.6.51-1.11.36-2.21.77-3.22,1.37s-1.96,1.5-2.51,2.61c-.65,1.31-.82,2.76-.76,4.21.07,1.55.4,3.09.78,4.59.07.27.34.44.61.4.29-.04.46-.27.48-.55.13-1.3-.04-2.6-.12-3.9-.04-.65-.05-1.3.02-1.95,0-.07.02-.14.02-.21.02-.19-.03.17,0,.05,0-.04.01-.09.02-.13.03-.16.06-.31.09-.47.07-.31.16-.62.28-.92,0-.02.07-.19.02-.04-.05.13,0,.01,0-.02.03-.07.07-.15.11-.22.07-.15.15-.29.24-.43.06-.1.13-.2.2-.3.13-.18-.12.14,0,0,.05-.05.09-.11.14-.16.17-.2.36-.38.56-.55.09-.07.17-.15.26-.22.05-.04.27-.2.02-.02.06-.04.12-.09.17-.13.87-.63,1.86-1.1,2.83-1.56.55-.26,1.12-.51,1.65-.8.25-.14.5-.27.75-.42.12-.07.24-.14.36-.22.09-.05.17-.12.24-.18,0,0,.07-.06.03-.03-.03.02.07-.05.09-.06.17-.12.26-.31.17-.52-.08-.17-.29-.31-.49-.24h0Z"/>
        <path class="cls-12" d="M344.04,330.18c.48.38.91.86,1.31,1.34.05.06.09.11.14.17.11.14-.06-.08,0,0,.02.03.04.06.07.09.1.14.21.28.31.42.22.31.46.61.71.89.52.57,1.13.99,1.92,1.07.42.04.84-.03,1.25-.06.12,0,.24-.01.37-.01.04,0,.26-.02.29.02-.02-.02-.16-.04-.03,0,.06.01.11.03.17.04.04.01.09.03.13.04.03.01.06.02.09.03-.1-.04-.12-.05-.07-.02.1.06.19.1.29.17.01,0,.1.06.09.07,0-.03-.16-.13,0,0,.14.12.27.25.41.38.33.32.69.63,1.11.84.36.17.76.15,1.05-.14.06-.06.12-.11.18-.16.03-.03.06-.05.09-.08.01-.01.03-.02.04-.03.1-.09-.16.12-.08.06.14-.1.28-.21.44-.3.16-.1.34-.19.51-.27.09-.04.17-.08.26-.12.13-.06-.19.08-.05.02.05-.02.1-.04.16-.06.39-.15.8-.27,1.21-.37.2-.05.41-.09.61-.12.05,0,.1-.02.15-.02.02,0,.04,0,.07,0,.14-.02-.1.01-.1.01.1,0,.23-.03.33-.04.42-.04.84-.05,1.25-.02.09,0,.19.01.28.02.05,0,.1.01.15.02.14.01-.24-.04-.03,0,.2.03.39.07.59.12.18.05.36.1.53.17.16.06.02.02-.06-.03.04.02.08.04.12.06.09.04.17.08.25.13.08.04.15.09.22.14.03.02.06.04.09.06.17.12-.13-.11-.04-.03.13.12.26.24.38.37.01.01.02.03.04.04.1.11-.12-.16-.07-.09.03.04.06.08.09.12.06.08.11.17.16.26.03.04.05.09.07.13.02.04.1.21.03.05s0,.01.02.06c.02.05.03.1.05.15.06.22.12.44.16.67,0,.02,0,.04.01.07.03.16-.02-.17,0-.06.02.12.03.24.05.36.03.18.11.33.2.49.18.34.77.46,1.03.13.14-.18.25-.31.32-.53.05-.18.07-.36.09-.55.02-.29,0-.57-.04-.86-.08-.45-.25-.92-.5-1.3-.56-.82-1.37-1.36-2.3-1.67-.87-.29-1.82-.36-2.73-.31-.96.06-1.93.25-2.83.58s-1.88.82-2.61,1.52l1.05-.14c-.09-.05-.18-.1-.27-.15-.03-.02-.07-.05-.1-.07-.14-.09.04.03.04.03-.07.01-.36-.33-.41-.38-.28-.28-.57-.55-.9-.77-.45-.29-.98-.45-1.5-.49-.44-.03-.87.07-1.31.11-.1.01-.2.02-.31.02-.04,0-.25.03-.28,0,0,0,.18.04.05,0-.03-.01-.07-.02-.1-.03-.03,0-.07-.04-.1-.04.06,0,.19.09.04.01-.11-.06-.21-.14-.32-.2-.09-.06.16.14.04.03-.02-.02-.05-.04-.07-.06-.06-.05-.12-.11-.18-.17-.48-.46-.91-.98-1.4-1.43-.6-.55-1.41-1.03-2.23-.78-.15.05-.25.28-.11.4h0Z"/>
        <path class="cls-12" d="M354.58,328.17c-.22.03-.45.04-.65.12-.13.05-.26.1-.39.17-.09.04-.17.1-.25.16-.21.14-.4.28-.59.45-.14.13-.28.27-.4.42-.57.66-1,1.45-1.17,2.31-.06.28-.09.56-.1.85,0,.12,0,.24,0,.36,0,.11,0,.24.04.35s.09.2.14.3c.12.2.35.31.58.28s.41-.19.48-.42c.02-.05.04-.09.05-.14.03-.11.03-.21.03-.32s0-.21,0-.32c0-.2.03-.41.05-.61l-.02.18c.05-.38.15-.75.3-1.1l-.07.16c.15-.36.35-.69.59-1l-.1.13c.18-.23.38-.44.59-.64.11-.1.21-.21.32-.31s.22-.2.33-.31c.09-.09.17-.17.25-.27.05-.06.09-.13.14-.19l-.06.08c.04-.05.08-.11.13-.16.08-.1.11-.21.06-.33-.04-.1-.16-.2-.27-.18h0Z"/>
        <path class="cls-12" d="M352.95,352.47s-.09.08-.13.11c-.05.05.11-.07.02-.02-.03.01-.05.03-.08.05-.1.06-.19.12-.29.18-.05.03-.1.05-.15.07-.03.01-.06.03-.09.04,0,0,.16-.06.06-.03-.07.03-.15.06-.22.09.18-.07.1-.04.06-.03-.07.03-.14.05-.21.08-.51.17-1.06.26-1.59.37s-1.09.22-1.61.4c-.59.21-1.09.5-1.54.94-.85.81-1.36,1.97-1.65,3.09-.32,1.2-.43,2.46-.48,3.69-.02.65-.03,1.3-.02,1.95,0,.3,0,.61.02.91,0,.15.01.3.02.45,0,.1,0,.2.02.29.02.16.09.29.16.42.26.46.96.46,1.22,0,.04-.07.08-.14.11-.22.06-.14.07-.29.07-.44,0-.13,0-.26.01-.39,0-.26,0-.52,0-.79,0-.58,0-1.15,0-1.73s.04-1.17.09-1.75c.01-.15.03-.3.05-.46,0-.07.02-.14.03-.21-.04.3,0,0,.01-.07.04-.28.09-.56.16-.84s.13-.55.22-.82c.04-.13.08-.26.13-.38.02-.06.05-.12.07-.18,0-.02.02-.05.03-.07-.1.26-.03.08,0,.02.11-.24.23-.46.36-.68.06-.1.13-.2.2-.3.04-.05.13-.15-.04.05.02-.02.04-.05.06-.07.05-.06.09-.11.14-.16.08-.09.17-.18.26-.27.04-.04.09-.08.13-.12.06-.05.27-.2.03-.03.2-.13.4-.24.61-.34-.25.12-.06.02.01,0,.06-.02.13-.05.19-.07.13-.04.26-.08.39-.12.27-.08.54-.14.81-.21.64-.16,1.26-.34,1.86-.63s1.05-.73,1.24-1.35c.13-.44-.44-.75-.75-.44h0Z"/>
        <path class="cls-12" d="M348.27,351.24c-.08.06-.2.14-.3.19-.05.03-.11.05-.16.08h-.02c.09-.03.06-.02-.08.04-.04.02-.07.04-.11.05-.12.06.08-.02,0,0-.03.01-.06.02-.09.04-.06.02-.12.04-.17.06-.14.04-.28.08-.43.11-.28.06-.56.12-.84.17-.14.02-.29.04-.43.06-.03,0-.06,0-.09.01.25-.04.08-.01.03,0-.13.02-.26.04-.39.06-.6.11-1.2.22-1.77.43-.67.25-1.25.61-1.73,1.14-1.89,2.08-2.41,5.02-2.47,7.74-.02.73,0,1.46.04,2.19.02.36.06.71.11,1.06.04.28.05.55.19.81.09.17.23.3.35.45.21.27.7.18.85-.11.08-.16.18-.3.23-.46.07-.2.07-.4.06-.61-.01-.3-.02-.6-.03-.89-.03-.64-.06-1.28-.06-1.93s.03-1.32.09-1.98c.01-.15.03-.3.05-.45,0-.06.04-.24,0,.03,0-.03,0-.07.01-.1.01-.09.03-.18.04-.27.05-.32.12-.64.19-.96s.16-.6.26-.9c.05-.15.11-.31.16-.46.02-.06.05-.12.07-.18-.09.28.02-.03.05-.1.13-.27.27-.54.42-.8.08-.13.16-.25.24-.38.04-.06.08-.11.12-.17.1-.14-.11.14-.04.05.03-.04.07-.09.1-.13.19-.23.4-.42.61-.62-.21.19-.03.02.04-.02.05-.04.11-.07.17-.1.13-.07.26-.14.39-.21.06-.03.12-.05.18-.08-.26.13-.02,0,.05-.01.14-.05.28-.1.43-.14.29-.09.57-.16.86-.23,1.27-.31,2.77-.75,3.34-2.06.15-.35-.22-.64-.52-.4h0Z"/>
        <path class="cls-12" d="M358.83,361.09c.5-.55.95-.91,1.49-1.37s1.01-.88,1.54-1.3c1.1-.89,2.16-1.8,3.23-2.73,2.37-2.06,4.78-4.05,7.24-6,2.45-1.94,4.91-3.86,7.32-5.85.6-.49,1.19-.99,1.78-1.49.17-.15.35-.29.53-.43.09-.07.19-.15.28-.22.04-.03.2-.16,0,0,.06-.05.13-.1.2-.15.85-.65,1.71-1.27,2.55-1.92,1.79-1.38,3.61-2.87,4.76-4.85.55-.94.91-2,.95-3.09.05-1.19-.34-2.35-.88-3.39-1.1-2.12-2.86-3.83-4.49-5.54s-3.05-3.69-4.7-5.42c-.17-.18-.33-.35-.49-.53-.08-.09-.16-.19-.25-.28-.04-.05-.08-.09-.12-.14-.03-.03-.05-.06-.07-.09-.06-.08-.05-.06.04.06-.08-.16-.2-.32-.3-.47-.09-.14.06.23.03.07,0-.03-.02-.08-.03-.11.06.1.02.26.02.14,0-.12-.06.31-.02.15s-.15.25-.03.08c.01-.02.03-.04.04-.06.04-.08.13-.06-.08.1.1-.08.18-.19.27-.28.06-.05.12-.09.18-.15-.22.22-.03.02.05-.03.15-.11.31-.21.46-.31.76-.48,1.55-.89,2.35-1.3.38-.2.79-.37,1.14-.61.08-.06.17-.11.25-.17.07-.05.31-.2.12-.08.04-.02.08-.05.12-.08.14-.09.29-.19.43-.29.24-.17.61-.36.75-.62l-.19.19s.04-.03.05-.04c.23-.17.34-.45.19-.71-.13-.22-.48-.35-.71-.19-.02.01-.04.03-.05.04l.26-.07c-.17.01-.31.08-.46.15.13-.06.02,0-.04.02-.05.02-.11.04-.16.06-.31.12-.63.2-.92.34l.35-.1c-.25.03-.47.11-.71.18-.03.01-.07.02-.1.03-.62.22.32-.14-.29.12-.12.05-.23.1-.35.16-.4.18-.79.36-1.18.54-.74.35-1.49.7-2.18,1.14-.56.36-1.21.82-1.37,1.51-.23,1.01.73,2.01,1.34,2.68.31.34.63.66.94,1,.4.44.75.92,1.13,1.38.81.98,1.62,1.98,2.5,2.91.76.8,1.54,1.58,2.29,2.4.38.42.76.84,1.11,1.28.05.06.09.11.14.17.15.19-.08-.11,0,.01.08.11.16.21.24.32.17.23.33.47.48.71.14.23.28.46.4.69.06.11.11.22.17.33.03.06.06.12.08.18.04.09.04.08-.02-.04.02.04.03.08.05.12.09.22.16.45.22.68.03.11.05.23.08.34,0,.05.02.1.03.16.02.1.01.08,0-.06,0,.04,0,.08.01.13.02.23.03.46.01.69,0,.06-.01.12-.02.19-.02.21.04-.22,0,0-.02.12-.04.23-.07.35-.05.23-.12.46-.2.69-.01.04-.03.07-.04.11l-.02.06c-.04.09-.03.07.02-.05.01.09-.14.3-.18.39-.22.43-.48.83-.76,1.22-.03.04-.14.22-.01.02-.03.05-.08.1-.12.15-.07.08-.14.17-.21.25-.18.21-.37.41-.56.61-.74.77-1.56,1.46-2.4,2.12-.11.09-.22.17-.33.26-.19.14.15-.12-.04.03-.04.03-.07.06-.11.08-.24.18-.47.36-.71.54-.4.3-.81.6-1.21.91-.92.7-1.8,1.44-2.68,2.18-2.29,1.93-4.64,3.78-6.99,5.65s-4.74,3.78-7.03,5.77c-1.08.94-2.12,1.94-3.2,2.88-.99.85-2.08,1.62-2.95,2.59-.44.48-.82,1.02-1.14,1.58s.48,1.26.95.74h0Z"/>
        <path class="cls-12" d="M383.13,308.04s.11.06.16.07c.06.01.12.02.18.02.07,0,.15,0,.22,0,.18,0,.37-.04.54-.07.28-.05.57-.12.84-.22.59-.22,1.16-.49,1.71-.8.25-.14.48-.32.72-.49.28-.21.56-.42.84-.64.46-.37.9-.74,1.34-1.14.24-.22.48-.44.73-.66s.44-.46.67-.69.26-.61.05-.87-.58-.35-.86-.17-.56.35-.82.56c-.22.18-.44.37-.66.55-.44.37-.88.76-1.32,1.13-.25.22-.51.43-.78.63l.16-.12c-.29.23-.6.43-.89.66l.15-.12c-.47.36-.96.68-1.47.96-.25.13-.5.27-.76.39-.06.03-.13.06-.19.08.16-.07.03-.01,0,0-.07.03-.14.05-.2.08-.15.08-.3.15-.42.27-.15.15-.15.48.07.58h0Z"/>
        <path class="cls-12" d="M386.89,302.32c.13.02.25.03.38.02.15-.01.3-.04.45-.06.23-.04.46-.11.68-.2.26-.1.52-.22.76-.38s.47-.34.69-.53c.19-.16.36-.34.51-.53.19-.24.38-.49.55-.74.28-.42.53-.86.73-1.32.08-.18.16-.36.22-.54.04-.13.08-.26.12-.38s.07-.25.1-.37c.04-.17.05-.36.07-.53l-.02-.16c-.02-.08-.06-.15-.11-.21-.08-.1-.19-.19-.32-.22-.26-.06-.55.04-.69.28-.06.1-.12.21-.17.31s-.1.22-.15.32c-.11.23-.22.45-.32.67-.22.47-.45.95-.72,1.39-.15.25-.32.49-.49.72l.11-.15c-.11.14-.22.29-.33.43l.11-.14c-.32.41-.7.78-1.11,1.1l.11-.09c-.26.2-.54.37-.85.5l.1-.04c-.11.05-.22.08-.33.13-.04.02-.07.04-.11.05-.02.01-.1.04,0,0-.02,0-.04.02-.06.03-.15.06-.25.18-.23.35,0,.07.04.14.09.18.07.06.14.08.23.09h0Z"/>
        <path class="cls-12" d="M465.36,279.22c-.18-.08-.34-.17-.53-.21-.17-.04-.35-.09-.52-.13-.39-.09-.8-.16-1.2-.19-.73-.04-1.47-.11-2.19-.2l.22.03c-.3-.04-.6-.07-.9-.11l.23.03c-.68-.09-1.36-.22-2.02-.4-.33-.09-.65-.21-.98-.31s-.65-.22-.97-.35c-.17-.07-.47-.02-.62.08s-.26.22-.33.39c-.15.36-.03.82.33,1.01.59.32,1.21.58,1.85.76.57.16,1.15.29,1.74.38.65.1,1.3.17,1.96.2.31.01.61.02.92.02s.62.01.92-.01c.38-.03.75-.08,1.12-.17.16-.04.32-.08.49-.12.18-.04.33-.13.5-.2.18-.09.18-.4,0-.49h0Z"/>
        <path class="cls-12" d="M460.66,275.21c-.2-.03-.4-.09-.6-.15-.22-.06-.43-.14-.64-.23l.15.06c-.27-.11-.55-.2-.81-.32l.17.07c-.26-.11-.52-.24-.78-.34-.22-.08-.43-.17-.65-.26l.19.08c-.36-.15-.71-.31-1.06-.47-.38-.18-.78-.33-1.17-.49-.17-.07-.35-.13-.52-.2-.18-.07-.44-.02-.61.08s-.32.28-.36.47c-.05.2-.04.43.08.61l.12.16c.1.1.21.17.35.2.06.03.13.05.19.08l-.19-.08c.31.13.61.27.91.41.39.18.79.34,1.19.5.35.14.71.27,1.07.39.4.13.83.18,1.25.23.19.02.38.03.57.02.23-.01.45-.04.68-.07l-.12.02c.2-.02.4-.08.6-.15.13-.05.25-.17.24-.32,0-.14-.1-.3-.24-.32h0Z"/>
        <path class="cls-12" d="M485.67,243.41c-.07.13-.14.26-.2.4-.01.02-.02.05-.03.07.06-.13-.03.07-.04.09-.02.06-.04.13-.06.19-.07.25-.16.49-.24.73-.18.48-.35.97-.55,1.44l.07-.17c-.39.91-.81,1.81-1.31,2.67-.25.42-.5.85-.76,1.26s-.55.81-.81,1.23c-.15.23-.3.46-.45.68-.08.12-.16.24-.23.36s-.13.25-.19.38c-.1.21-.1.48.08.65.17.15.44.22.65.08.18-.12.35-.23.5-.38.13-.12.25-.24.37-.37.24-.25.49-.51.7-.78.46-.59.93-1.2,1.3-1.85.35-.61.67-1.25.95-1.9.16-.37.32-.75.44-1.14.1-.33.2-.66.28-1,.1-.43.16-.87.21-1.31.02-.19.04-.39.05-.58,0-.22-.04-.44-.09-.66-.07-.28-.49-.34-.63-.08h0Z"/>
        <path class="cls-12" d="M485.77,250.81c-.24.34-.49.67-.73,1-.12.17-.25.33-.37.5-.12.15-.21.32-.31.48-.2.33-.4.66-.61.99s-.4.64-.61.96c-.24.36-.49.71-.75,1.05l.13-.16c-.15.2-.3.4-.45.6l.13-.17c-.38.49-.78.95-1.21,1.39-.45.46-.92.91-1.41,1.34-.29.25-.58.52-.88.77-.12.1-.21.33-.2.48s.05.29.15.41c.21.27.58.35.88.18.36-.21.72-.42,1.05-.66.36-.26.71-.54,1.05-.83.28-.24.54-.52.79-.79s.49-.55.72-.84c.26-.32.51-.65.73-.99.2-.31.38-.62.56-.93s.35-.64.49-.97c.16-.38.32-.77.46-1.15.07-.19.17-.4.21-.6s.09-.42.13-.64c.08-.44.15-.89.22-1.33.01-.09-.09-.14-.15-.06h0Z"/>
        <path class="cls-12" d="M234.16,230.42c-.36-.5-.82-.89-1.42-1.06-.67-.2-1.32-.06-1.95.21-.36.15-.52.64-.47.98.05.35.33.76.71.82l.16.03h0s.02.02.02.02h0s0,.01,0,.01l.05.16s0,.04,0,.06c0-.02,0-.04,0-.08v.1s0-.01,0-.02c0,.1,0,.09,0,.03v.26s0,.16,0,.16v.06c-.05.23-.09.47-.16.7-.06.2-.14.4-.21.6v.02s-.14.27-.14.27c-.09.19-.19.38-.29.56-.19.34-.38.67-.6,1-.11.16-.22.32-.33.47l-.17.23s-.08.09-.1.12c-1.08,1.33-2.38,2.51-3.67,3.64-.67.59-1.36,1.16-2.07,1.72-.16.12-.32.25-.47.37-.03.02-.03.03-.05.04l-.08.06c-.15.12-.3.23-.46.35l-.22.17-.14.11-.05.04-.08.07-.11.08-.29.22c-.85.64-1.42,1.13-2.27,1.75-.82.45-1.6.95-2.35,1.51-.02.01-.04.02-.06.03-.02.01-.03.03-.05.05-.14.11-.3.2-.44.31-.5.39-.99.79-1.48,1.19-.5.41-1,.8-1.61,1.04-.17.07-.1.33.08.28.57-.18,1.15-.32,1.72-.51.59-.19,1.14-.43,1.7-.69.54-.26,1.08-.53,1.62-.79.26-.13.53-.25.79-.36.29-.13.48-.2.83-.35,1.21-.5,2.35-1.11,3.43-1.83,1.01-.67,1.99-1.38,3.04-1.99,1.8-1.05,3.52-2.29,4.99-3.77.76-.77,1.46-1.62,2.03-2.54.52-.85.97-1.83,1.13-2.82.17-1.02.09-2.21-.54-3.07ZM232.19,231.36l.04.02.02.02s.02.02.03.03c-.02,0-.06-.03-.08-.07ZM232.29,231.43s0,0,0,0c0,0,0,0,0,0h0s0,0,0,0Z"/>
      </g>
    </g>
    <path class="cls-4" d="M215.74,247.53c-1.23.77-2.55,1.54-3.93,2.31-.74-2-1.78-5-.43-5.19.45-.06,1.51,1.01,1.84,1.28.67.5,1.41.99,2.15,1.41.13.06.26.13.37.19Z"/>
    <path class="cls-5" d="M231.58,233.82c-.91,2.1-6.33,7.82-15.84,13.71-.11-.06-.24-.13-.37-.19-.74-.42-1.47-.91-2.15-1.41-.34-.27-1.39-1.35-1.84-1.28-1.35.19-.3,3.19.43,5.19-2.12,1.19-1.92,2.21-.64,2.89-.87,1.47-.75,3.01-.75,5.03,0,1.33-.02,5.64-1.96,5.64-1.76,0-2.57-3.27-2.81-4.57-.37-1.97-.11-3.77.24-5.69.77-4.2,3.75-7.71,7.25-10.07,3.22-2.16,6.53-3.98,9.84-6.03,2.97-1.83,6.17-3.74,8.61-6.32.51.77.43,2.04-.02,3.09Z"/>
  </g>
  <g>
    <g>
      <path class="cls-9" d="M568.19,377.56c-1.19-13.45-15.01-15.56-25.82-15.07-6.74.31-31.66-.06-38.44-.18-23.31-.41-82.89-1.35-106.3-.8-12.93.3-53.02.16-65.87.41-6.47.12-40.11.14-46.59.04-1.8-.03-10.09-.1-21.3-.17-1.78.51-3.46,1.27-4.87,2.41-2.3,1.86-4.54,5.33-5.62,8.09-3.52,9.01-.19,20.94,8.93,25.27,7.17-.01,14.34-.02,21.52-.01,9.75,0,46.45-.39,56.2-.24,6.94.1,13.9-.1,20.84-.08,13.48.06,81.35.17,94.85.13,13.97-.04,55.14.37,69.12.46,8.83.07,17.84.58,26.65-.47,9.58-1.14,17.59-9.67,16.7-19.78Z"/>
      <g class="cls-7">
        <path class="cls-2" d="M549.66,367.63c1.62.24,3.21.62,4.75,1.19.18.07.37.13.54.21l.11.04c-.16-.03-.09,0,.21.11.02.01.2.08.04.02.39.16.76.35,1.13.55s.69.4,1.02.62c.17.11.34.23.51.35.06.04.12.09.18.13-.19-.14.16.13.19.16.29.24.56.49.82.76.13.13.26.27.38.41.06.07.12.14.18.21.06.07.05.06-.03-.03.09.12.18.23.27.35.23.28-.09-.12.04.05.06.08.11.15.17.23.11.16.21.31.31.48.23.37.43.75.61,1.14,0,.01.16.38.07.15.03.08.06.15.09.23.08.22.16.43.23.65.15.47.28.95.38,1.43.05.21.09.43.12.64.01.09.03.17.04.26.07.42-.02-.25.02.18.05.48.09.96.1,1.44,0,.43,0,.87-.03,1.3-.02.21-.04.43-.06.64.03-.27-.02.14-.02.16-.02.12-.04.25-.07.37-.17.88-.46,1.71-.78,2.54-.02.04-.1.23,0,.02-.05.11-.09.22-.14.32-.08.18-.16.36-.25.53-.19.38-.4.76-.62,1.13-.2.33-.41.65-.64.96-.02.03-.25.33-.07.1-.05.06-.1.12-.14.18-.14.18-.29.35-.45.52-1.12,1.23-2.32,2.04-3.86,2.63-.97.37-1.97.68-2.98.92-.51.12-1.02.23-1.53.32s-1.08.18-1.44.23c-4.37.54-8.78.26-13.17.32-1.54.02-3.08.07-4.62.09-4.4.06-8.8.09-13.2.11-5.21.03-10.41.04-15.62.03-3.76,0-7.53,0-11.3-.1-4.29-.11-8.58-.31-12.87-.4-5.91-.13-11.83-.21-17.74-.26-6.53-.07-13.07-.11-19.6-.14-6.41-.03-12.83-.05-19.24-.08-5.68-.02-11.37-.05-17.05-.1-4.02-.03-8.05-.11-12.07-.13-4.8-.02-9.6,0-14.4.01-5.8.02-11.59.06-17.39.1-5.35.04-10.7.07-16.05.11-3.41.02-6.82.04-10.23.05-3.91.01-7.82.03-11.72.06-5.32.03-10.65.06-15.97.1-4.55.03-9.09.07-13.64.13-5.61.08-11.21.1-16.82.27-1.76.05-3.52.08-5.28-.04-.4-.03-.81-.06-1.21-.11-.1-.01-.2-.02-.3-.03-.07,0-.34-.04-.06,0-.24-.03-.48-.07-.71-.11-.82-.14-1.64-.33-2.44-.57-.4-.12-.79-.26-1.18-.41-.06-.02-.31-.13-.06-.02-.11-.05-.22-.1-.33-.15-.22-.1-.43-.21-.65-.32-.36-.19-.71-.39-1.05-.61-.17-.11-.34-.22-.51-.34-.08-.06-.17-.12-.25-.18-.05-.04-.1-.07-.15-.11.11.09.1.08-.02-.02-.58-.48-1.13-.98-1.62-1.55-.02-.02-.15-.2-.16-.2.04,0,.17.23.06.07-.09-.13-.19-.26-.27-.39-.18-.28-.36-.56-.51-.85-.07-.13-.13-.26-.2-.39-.04-.08-.12-.37-.18-.4.07.03.11.26.04.08-.03-.08-.06-.16-.1-.24-.06-.16-.12-.33-.18-.5-.19-.59-.34-1.2-.44-1.82-.02-.09-.03-.18-.04-.27-.04-.25.02.08.01.09.04-.06-.05-.42-.06-.5-.03-.35-.05-.7-.06-1.05-.02-.65,0-1.3.07-1.95.01-.16.03-.31.05-.47.04-.33-.05.32,0-.01,0-.06.02-.12.03-.19.05-.34.12-.68.19-1.02.14-.66.33-1.32.54-1.96.11-.31.22-.62.34-.93.02-.05.04-.13.07-.17-.18.31-.03.06.01-.02.08-.17.15-.34.23-.51.28-.59.6-1.15.94-1.7.17-.27.35-.53.54-.79.04-.06.09-.12.14-.18.18-.24-.15.17-.02.03.12-.13.23-.28.34-.42.41-.48.86-.93,1.34-1.34.11-.09.22-.19.34-.28.23-.19-.2.13-.04.03.06-.04.12-.09.17-.13.26-.18.52-.36.79-.52.25-.14.5-.28.75-.4.08-.04.15-.07.23-.11.27-.12-.23.08-.05.02.23-.08.45-.17.67-.25.98-.33,1.98-.58,3-.75.24-.04.47-.08.71-.11-.22.03.09,0,.14-.02.12-.01.24-.03.36-.04.53-.06,1.06-.09,1.59-.12,2.07-.11,4.14-.02,6.21.08,4.25.21,8.5-.19,12.74-.21,1.76,0,3.53-.01,5.29-.02,5.04-.01,10.09-.01,15.13-.02,5.88,0,11.76,0,17.63-.02,5.36,0,10.71-.02,16.07-.06,5-.03,10.01-.08,15.01-.2,2.27-.05,4.53-.19,6.8-.23,1.58-.03,3.16-.03,4.74-.04,4.72-.02,9.45-.02,14.17,0,4.3.01,8.6.03,12.91.08,1.08.01,2.16.02,3.23.06,2.03.09,4.04-.05,6.06-.21,2.27-.18,4.53-.26,6.81-.22,3.23.06,6.46.21,9.69.25,1.83.02,3.66.03,5.49.04,5.06.02,10.13.03,15.19.03,5.59,0,11.18,0,16.78.02,4.34.01,8.68.02,13.02.08,3.68.05,7.36.13,11.04.13,5.44.01,10.88-.02,16.33-.04,6.1-.02,12.21-.03,18.31,0,5.71.03,11.41.09,17.12.25,2.27.06,4.54.16,6.82.27,1.81.09,3.63.17,5.43.38.64.08,1.18-.6,1.18-1.18,0-.7-.55-1.11-1.18-1.18-.1-.01-.21-.02-.31-.04-.12-.01-.48,0-.06-.01-.29,0-.63-.08-.92-.12-.45-.05-.9-.1-1.35-.15-1.03-.1-2.05-.19-3.08-.27-2.41-.18-4.82-.28-7.24-.37-5.78-.22-11.57-.28-17.35-.31-6.13-.03-12.26-.02-18.39,0-5.4.02-10.79.05-16.19.03-3.61-.01-7.21-.1-10.82-.14-4.54-.06-9.09-.07-13.63-.08-5.63-.01-11.27-.02-16.9-.02-4.98,0-9.96,0-14.94-.04-1.7,0-3.4-.02-5.1-.05-3.87-.06-7.75-.31-11.62-.25-2.26.03-4.52.3-6.77.42-1.27.07-2.53.05-3.8,0s-2.59-.05-3.89-.06c-4.5-.05-9.01-.06-13.51-.07s-9.21-.01-13.82.01-9.11.26-13.67.33c-4.49.07-8.99.12-13.48.14-5.52.03-11.05.04-16.57.05-5.89,0-11.78.01-17.67.02-4.83,0-9.65,0-14.48.02-2.39,0-4.79,0-7.18.1-2.23.08-4.47.2-6.7.19-2.1-.01-4.19-.18-6.3-.19-2.14,0-4.3.13-6.41.55-1.65.33-3.32.84-4.77,1.73-2.34,1.43-4.15,3.66-5.34,6.11-1.26,2.58-1.97,5.45-1.96,8.33,0,2.7.64,5.53,2.22,7.76,2.02,2.87,5.27,4.72,8.63,5.56,3.48.87,7.11.81,10.67.68,4.09-.14,8.17-.08,12.26-.18,1.4-.04,2.8-.05,4.19-.07,4.66-.06,9.32-.1,13.98-.13,5.33-.04,10.66-.07,15.99-.1,3.79-.02,7.57-.04,11.36-.05,3.57-.01,7.15-.03,10.72-.06,5.48-.04,10.96-.08,16.44-.11,5.82-.04,11.64-.07,17.45-.09,4.66-.02,9.33-.03,13.99,0,4.19.03,8.38.11,12.57.14,5.83.05,11.65.07,17.48.09,6.53.03,13.06.05,19.6.08,6.52.03,13.04.07,19.55.14,5.83.06,11.65.14,17.48.28,3.96.09,7.91.3,11.87.37s8.26.07,12.38.07c5.27,0,10.54-.02,15.81-.06,4.08-.03,8.17-.05,12.25-.13,2.48-.04,4.95-.09,7.43-.07,4.44.03,8.95,0,13.27-1.15,1.9-.51,3.85-1.19,5.45-2.36,1.46-1.07,2.67-2.4,3.62-3.95s1.65-3.19,2.04-4.9c.44-1.97.43-3.98.1-5.96-.28-1.74-.87-3.49-1.8-4.99s-2.13-2.6-3.53-3.54c-2.73-1.83-6.02-2.64-9.25-2.95-.48-.05-.92.41-.97.86s.22,1.02.71,1.09Z"/>
      </g>
    </g>
    <g>
      <path class="cls-3" d="M262.32,397.55c-11.8,0-39,.04-50.81.1-13.7.06-45.66-.35-59.35.43-4.05.23-19,.26-23.05.2-5.1-.08-9.94.46-14.42-2.51-11.1-7.38-8.76-26.22,2.75-31.94.39-.19.8-.38,1.21-.54,4.35-1.74,11.72-1.87,16.32-1.95,4.6-.08,99.22.22,128.92.44-1.78.51-3.46,1.27-4.87,2.41-2.3,1.86-4.54,5.33-5.62,8.09-3.52,9.01-.19,20.94,8.93,25.27Z"/>
      <g class="cls-8">
        <path class="cls-9" d="M106.52,395.55c.1-.02.2-.04.31-.06.05,0,.31-.05.12-.02.19-.03.38-.05.57-.06.41-.03.83-.07,1.24-.09.87-.04,1.73-.01,2.6.03,1.73.09,3.45.28,5.19.3,3.57.04,7.14-.08,10.7-.08,4.79,0,9.59-.11,14.38-.17,4.55-.06,9.1-.15,13.64-.07s9.45.07,14.18.05c5.79-.02,11.58-.07,17.38-.11s11.78-.08,17.67-.08c5.01,0,10.03,0,15.04.12,3.65.08,7.29.15,10.94.17,4.91.02,9.82.02,14.74.02,1.92,0,3.85,0,5.77,0,2.75,0,5.48.1,8.23.2.95.04,1.9.09,2.85.06.47-.01.96-.03,1.43-.08s1.2-.23,1.58-.25c.67-.03,1.31-.57,1.28-1.28-.03-.67-.56-1.32-1.28-1.28.18,0-.29-.02-.4-.03-.13-.01-.26-.02-.4-.04-.24-.02-.48-.06-.71-.07-.5-.03-1-.05-1.51-.08-1-.05-2.01-.05-3.01-.09-2.03-.08-4.06-.19-6.09-.19-1.58,0-3.16,0-4.74,0-4.76,0-9.52,0-14.28-.01-3.88-.01-7.76,0-11.63-.11-4.64-.14-9.28-.18-13.92-.19-5.77-.02-11.54.01-17.32.05-5.9.04-11.8.08-17.7.11-5.07.02-10.15.04-15.22,0-4.26-.04-8.52-.06-12.79-.01-5.18.06-10.35.14-15.53.19-2.64.03-5.28.05-7.91.12-1.94.05-3.88.13-5.82.1-1.72-.02-3.44-.11-5.16-.06s-3.42.19-5.02.78c-.58.22-.98.78-.8,1.42s.8.92,1.42.8h0Z"/>
        <path class="cls-9" d="M106.52,388.16c.1-.02.2-.04.31-.06.05,0,.31-.05.12-.02.19-.03.38-.05.57-.06.41-.03.83-.07,1.24-.09.87-.04,1.73-.01,2.6.03,1.73.09,3.45.28,5.19.3,3.57.04,7.14-.08,10.7-.08,4.79,0,9.59-.11,14.38-.17,4.55-.06,9.1-.15,13.64-.07s9.45.07,14.18.05c5.79-.02,11.58-.07,17.38-.11s11.78-.08,17.67-.08c5.01,0,10.03,0,15.04.12,3.65.08,7.29.15,10.94.17,4.91.02,9.82.02,14.74.02,1.92,0,3.85,0,5.77,0,2.75,0,5.48.1,8.23.2.95.04,1.9.09,2.85.06.47-.01.96-.03,1.43-.08s1.2-.23,1.58-.25c.67-.03,1.31-.57,1.28-1.28-.03-.67-.56-1.32-1.28-1.28.18,0-.29-.02-.4-.03-.13-.01-.26-.02-.4-.04-.24-.02-.48-.06-.71-.07-.5-.03-1-.05-1.51-.08-1-.05-2.01-.05-3.01-.09-2.03-.08-4.06-.19-6.09-.19-1.58,0-3.16,0-4.74,0-4.76,0-9.52,0-14.28-.01-3.88-.01-7.76,0-11.63-.11-4.64-.14-9.28-.18-13.92-.19-5.77-.02-11.54.01-17.32.05-5.9.04-11.8.08-17.7.11-5.07.02-10.15.04-15.22,0-4.26-.04-8.52-.06-12.79-.01-5.18.06-10.35.14-15.53.19-2.64.03-5.28.05-7.91.12-1.94.05-3.88.13-5.82.1-1.72-.02-3.44-.11-5.16-.06s-3.42.19-5.02.78c-.58.22-.98.78-.8,1.42s.8.92,1.42.8h0Z"/>
        <path class="cls-9" d="M106.52,380.77c.1-.02.2-.04.31-.06.05,0,.31-.05.12-.02.19-.03.38-.05.57-.06.41-.03.83-.07,1.24-.09.87-.04,1.73-.01,2.6.03,1.73.09,3.45.28,5.19.3,3.57.04,7.14-.08,10.7-.08,4.79,0,9.59-.11,14.38-.17,4.55-.06,9.1-.15,13.64-.07s9.45.07,14.18.05c5.79-.02,11.58-.07,17.38-.11s11.78-.08,17.67-.08c5.01,0,10.03,0,15.04.12,3.65.08,7.29.15,10.94.17,4.91.02,9.82.02,14.74.02,1.92,0,3.85,0,5.77,0,2.75,0,5.48.1,8.23.2.95.04,1.9.09,2.85.06.47-.01.96-.03,1.43-.08s1.2-.23,1.58-.25c.67-.03,1.31-.57,1.28-1.28-.03-.67-.56-1.32-1.28-1.28.18,0-.29-.02-.4-.03-.13-.01-.26-.02-.4-.04-.24-.02-.48-.06-.71-.07-.5-.03-1-.05-1.51-.08-1-.05-2.01-.05-3.01-.09-2.03-.08-4.06-.19-6.09-.19-1.58,0-3.16,0-4.74,0-4.76,0-9.52,0-14.28-.01-3.88-.01-7.76,0-11.63-.11-4.64-.14-9.28-.18-13.92-.19-5.77-.02-11.54.01-17.32.05-5.9.04-11.8.08-17.7.11-5.07.02-10.15.04-15.22,0-4.26-.04-8.52-.06-12.79-.01-5.18.06-10.35.14-15.53.19-2.64.03-5.28.05-7.91.12-1.94.05-3.88.13-5.82.1-1.72-.02-3.44-.11-5.16-.06s-3.42.19-5.02.78c-.58.22-.98.78-.8,1.42s.8.92,1.42.8h0Z"/>
        <path class="cls-9" d="M106.52,373.38c.1-.02.2-.04.31-.06.05,0,.31-.05.12-.02.19-.03.38-.05.57-.06.41-.03.83-.07,1.24-.09.87-.04,1.73-.01,2.6.03,1.73.09,3.45.28,5.19.3,3.57.04,7.14-.08,10.7-.08,4.79,0,9.59-.11,14.38-.17,4.55-.06,9.1-.15,13.64-.07s9.45.07,14.18.05c5.79-.02,11.58-.07,17.38-.11,5.89-.04,11.78-.08,17.67-.08,5.01,0,10.03,0,15.04.12,3.65.08,7.29.15,10.94.17,4.91.02,9.82.02,14.74.02,1.92,0,3.85,0,5.77,0,2.75,0,5.48.1,8.23.2.95.04,1.9.09,2.85.06.47-.01.96-.03,1.43-.08s1.2-.23,1.58-.25c.67-.03,1.31-.57,1.28-1.28-.03-.67-.56-1.32-1.28-1.28.18,0-.29-.02-.4-.03-.13-.01-.26-.02-.4-.04-.24-.02-.48-.06-.71-.07-.5-.03-1-.05-1.51-.08-1-.05-2.01-.05-3.01-.09-2.03-.08-4.06-.19-6.09-.19-1.58,0-3.16,0-4.74,0-4.76,0-9.52,0-14.28-.01-3.88-.01-7.76,0-11.63-.11-4.64-.14-9.28-.18-13.92-.19-5.77-.02-11.54.01-17.32.05-5.9.04-11.8.08-17.7.11-5.07.02-10.15.04-15.22,0-4.26-.04-8.52-.06-12.79-.01-5.18.06-10.35.14-15.53.19-2.64.03-5.28.05-7.91.12-1.94.05-3.88.13-5.82.1-1.72-.02-3.44-.11-5.16-.06s-3.42.19-5.02.78c-.58.22-.98.78-.8,1.42s.8.92,1.42.8h0Z"/>
        <path class="cls-9" d="M106.52,365.99c.1-.02.2-.04.31-.06.05,0,.31-.05.12-.02.19-.03.38-.05.57-.06.41-.03.83-.07,1.24-.09.87-.04,1.73-.01,2.6.03,1.73.09,3.45.28,5.19.3,3.57.04,7.14-.08,10.7-.08,4.79,0,9.59-.11,14.38-.17,4.55-.06,9.1-.15,13.64-.07,4.73.08,9.45.07,14.18.05,5.79-.02,11.58-.07,17.38-.11,5.89-.04,11.78-.08,17.67-.08,5.01,0,10.03,0,15.04.12,3.65.08,7.29.15,10.94.17,4.91.02,9.82.02,14.74.02,1.92,0,3.85,0,5.77,0,2.75,0,5.48.1,8.23.2.95.04,1.9.09,2.85.06.47-.01.96-.03,1.43-.08s1.2-.23,1.58-.25c.67-.03,1.31-.57,1.28-1.28-.03-.67-.56-1.32-1.28-1.28.18,0-.29-.02-.4-.03-.13-.01-.26-.02-.4-.04-.24-.02-.48-.06-.71-.07-.5-.03-1-.05-1.51-.08-1-.05-2.01-.05-3.01-.09-2.03-.08-4.06-.19-6.09-.19-1.58,0-3.16,0-4.74,0-4.76,0-9.52,0-14.28-.01-3.88-.01-7.76,0-11.63-.11-4.64-.14-9.28-.18-13.92-.19-5.77-.02-11.54.01-17.32.05-5.9.04-11.8.08-17.7.11-5.07.02-10.15.04-15.22,0-4.26-.04-8.52-.06-12.79-.01-5.18.06-10.35.14-15.53.19-2.64.03-5.28.05-7.91.12-1.94.05-3.88.13-5.82.1-1.72-.02-3.44-.11-5.16-.06s-3.42.19-5.02.78c-.58.22-.98.78-.8,1.42s.8.92,1.42.8h0Z"/>
      </g>
    </g>
    <path class="cls-2" d="M351.47,380.81c-.39,4.19-3.23,7.48-7.2,8.9-4.17,1.49-10.39-.86-11.95-5.01-1.36-3.58-1.13-7.24,1.01-10.42,1.23-1.83,3.32-3.49,5.39-4.16,4.76-1.56,9.11.26,11.71,4.4,1.12,1.77,1.22,4.26,1.03,6.29Z"/>
    <path class="cls-2" d="M417.97,380.81c-.39,4.19-3.23,7.48-7.2,8.9-4.17,1.49-10.39-.86-11.96-5.01-1.35-3.58-1.13-7.24,1.02-10.42,1.23-1.83,3.32-3.49,5.39-4.16,4.75-1.56,9.11.26,11.71,4.4,1.11,1.77,1.22,4.26,1.03,6.29Z"/>
    <path class="cls-2" d="M484.48,380.81c-.39,4.19-3.23,7.48-7.2,8.9-4.17,1.49-10.39-.86-11.96-5.01-1.35-3.58-1.13-7.24,1.02-10.42,1.23-1.83,3.32-3.49,5.39-4.16,4.75-1.56,9.11.26,11.71,4.4,1.11,1.77,1.22,4.26,1.03,6.29Z"/>
    <path class="cls-2" d="M550.98,380.81c-.39,4.19-3.23,7.48-7.2,8.9-4.16,1.49-10.39-.86-11.95-5.01-1.36-3.58-1.13-7.24,1.02-10.42,1.23-1.83,3.32-3.49,5.39-4.16,4.75-1.56,9.11.26,11.71,4.4,1.11,1.77,1.22,4.26,1.03,6.29Z"/>
  </g>
  <g>
    <path class="cls-2" d="M330.06,127.74c0,8.28.23,16.67-.18,24.9-.08,1.69-.1,3.4-.08,5.11-4.62,0-8.66.04-11.86.08-12.3.15-151.49,1.13-158.61,1.21-3.56.04-7.11.02-10.67.11-.76.02-1.73-.04-2.73-.07v-36.5c0-4.45-.14-8.94,0-13.39.05-1.87.18-3.85.24-5.82.92.04,1.8.08,2.5.06,3.56-.08,7.11-.06,10.67-.11,7.12-.07,146.31-1.06,158.61-1.21,3.38-.05,7.68-.07,12.62-.09-.1,8.58-.5,17.12-.5,25.72Z"/>
    <path class="cls-1" d="M425.18,148c-.96,1.9-1.96,3.78-2.98,5.65-.6,1.1-1.17,2.23-1.72,3.38-16.7.72-63.67.59-90.68.72-.02-1.71,0-3.41.08-5.11.41-8.23.18-16.62.18-24.9,0-8.6.4-17.14.5-25.72,20.75-.09,52.68-.04,73.96-.33,5.04,13.36,11.12,26.76,17.29,39.62,1.07,2.21,2.29,4.44,3.37,6.69Z"/>
  </g>
  <g>
    <path class="cls-1" d="M376.47,128.29c-1.24,3-2.07,6.24-3.1,9.32-5.05,15.17-10.13,30.34-15.19,45.51-3.7,11.07-7.44,22.13-11,33.25-1.48,4.62-2.97,9.24-4.46,13.85-2.93,9.09-5.86,18.19-8.78,27.28-3.71,11.53-7.41,23.05-11.11,34.58-3.93,12.27-7.86,24.54-11.76,36.82-3.6,11.32-7.2,22.65-10.76,33.98-1.5,4.77-3,9.56-4.48,14.34-1.24,3.98-1.96,8.04-4.15,11.66-.83,1.38-1.67,1.84-3.1,2.41-2.01.8-4.08.64-6.15.36-.39-.06-.79-.13-1.19-.27,0,0-.03,0-.04,0-.89-.29-1.74-.77-2.25-1.56-.48-.73-.69-1.59-.91-2.43-.13-.55-.28-1.11-.34-1.67-.36-2.7.44-5.94,1.24-8.5.93-3.02,1.86-6.02,2.81-9.03,3.48-11.1,6.99-22.2,10.51-33.29,3.93-12.35,7.88-24.69,11.82-37.04,3.8-11.86,7.61-23.71,11.41-35.56,3.1-9.64,6.2-19.27,9.3-28.91,1.84-5.67,3.66-11.34,5.49-17.02,2.1-6.57,4.3-13.13,6.48-19.68,4.65-14,9.34-27.99,14.01-41.98,2.36-7.05,4.71-14.11,7.06-21.16,1.05-3.14,2.08-6.28,3.13-9.43,1.08-3.28,1.69-6.69,5.03-8.47,1.67-.89,3.9-1.59,5.79-1.42.73.08,1.39.25,1.98.51,0,0,.02,0,.03,0,1.94.88,3.16,2.71,3.77,4.9.89,3.24.13,5.72-1.07,8.64Z"/>
    <path class="cls-2" d="M373.75,114.75c-.59-.27-1.25-.44-1.98-.51-1.89-.17-4.12.52-5.79,1.42-3.34,1.79-3.95,5.19-5.03,8.47-1.05,3.15-2.08,6.29-3.13,9.43-2.35,7.06-4.7,14.11-7.06,21.16-4.67,13.99-9.36,27.98-14.01,41.98-2.18,6.55-4.38,13.11-6.48,19.68-1.83,5.68-3.65,11.35-5.49,17.02-3.1,9.64-6.2,19.27-9.3,28.91-3.8,11.85-7.62,23.7-11.41,35.56-3.95,12.35-7.89,24.69-11.82,37.04-3.52,11.09-7.03,22.19-10.51,33.29-.94,3.01-1.87,6.01-2.81,9.03-.8,2.57-1.6,5.8-1.24,8.5.07.56.21,1.12.34,1.67.22.85.44,1.7.91,2.43.51.79,1.36,1.27,2.25,1.56-2.08-.4-4.05-1.46-5.95-2.44-1.25-.64-2.48-1.36-3.41-2.41-2.34-2.63-1.04-6.36-.11-9.32.93-3.02,1.86-6.02,2.81-9.03,3.48-11.1,6.99-22.2,10.51-33.29,3.93-12.35,7.87-24.69,11.82-37.04,3.8-11.86,7.6-23.71,11.41-35.56,3.1-9.64,6.2-19.27,9.3-28.91,1.83-5.67,3.66-11.34,5.48-17.02,2.11-6.57,4.3-13.13,6.48-19.68,4.66-14,9.34-27.99,14.02-41.98,2.35-7.05,4.71-14.11,7.06-21.16,1.04-3.14,2.08-6.28,3.13-9.43,1.08-3.28,1.69-6.69,5.03-8.47,2.01-1.07,3.92-1.21,6.1-1.52,2.45-.35,4.85-.42,7.3.1.54.11,1.09.26,1.58.51Z"/>
  </g>
</svg>