<?xml version="1.0" encoding="UTF-8"?>
<svg id="Capa_1" data-name="Capa 1" xmlns="http://www.w3.org/2000/svg" viewBox="0 0 1080 1080">
  <defs>
    <style>
      .cls-1 {
        fill: #dfeaff;
        stroke-width: 0px;
      }
    </style>
  </defs>
  <path class="cls-1" d="m99.06,255.34c34.4-120.55,124.66-198.81,288.56-221.71,88.28-12.34,176.99-12.52,265.85-4.46,172.97,15.7,279.29,83.1,318.17,211.88,45.86,151.92,44.28,305.6,1.66,457.91-12.02,42.96-32.44,79.91-61.22,110.56-21.88,23.3-31.13,55.73-24.44,86.98l24.89,116.25c7.1,33.18-31.5,56.81-57.82,35.4l-137.31-111.68c-19.76-16.07-45.05-23.79-70.4-21.29-82.79,8.14-165.78,6.73-248.73-3.54-158.23-19.57-255.06-89.4-294.03-207.09-25.26-76.28-29.75-153.99-29.89-232.09-.2-72.93,4.26-145.51,24.7-217.12"/>
</svg>