<?xml version="1.0" encoding="UTF-8"?>
<svg id="Capa_1" data-name="Capa 1" xmlns="http://www.w3.org/2000/svg" viewBox="0 0 1080 1080">
  <defs>
    <style>
      .cls-1 {
        fill: #d5f5f8;
        stroke-width: 0px;
      }
    </style>
  </defs>
  <path class="cls-1" d="m878.61,316.58c-25.93-138.37-92.41-230.7-201.28-268.97-90.61-31.84-182.46-31.8-273.18-.76-96.19,32.9-164.2,108.55-194.41,230.2-22.24,89.58-31.09,216.09-13.55,322.88,15.91,96.83,37.6,158.3,75.28,204.37,19.9,24.33,27.37,56.53,20.79,87.27l-25.97,121.31c-7.08,33.08,31.41,56.65,57.66,35.3l127.72-103.89c19.66-15.99,44.41-24.58,69.73-23.69,54.96,1.92,111.53-8.58,168.6-32.04,106.39-43.73,157.67-105.48,188.44-264.65,19.71-101.95,19.3-205.22.16-307.33"/>
</svg>