<?xml version="1.0" encoding="UTF-8"?>
<svg id="Layer_1" data-name="Layer 1" xmlns="http://www.w3.org/2000/svg" xmlns:xlink="http://www.w3.org/1999/xlink" viewBox="0 0 500 500">
  <defs>
    <style>
      .cls-1 {
        fill: #041063;
      }

      .cls-2 {
        fill: #ff7868;
      }

      .cls-3 {
        clip-path: url(#clippath);
      }
    </style>
    <clipPath id="clippath">
      <path class="cls-2" d="M86.06,352.45L220.3,120.71c6.23-10.75,21.74-10.75,27.97,0l134.24,231.75c6.24,10.77-1.53,24.26-13.98,24.26H100.05c-12.45,0-20.22-13.49-13.98-24.26Z"/>
    </clipPath>
  </defs>
  <path class="cls-2" d="M86.06,352.45L220.3,120.71c6.23-10.75,21.74-10.75,27.97,0l134.24,231.75c6.24,10.77-1.53,24.26-13.98,24.26H100.05c-12.45,0-20.22-13.49-13.98-24.26Z"/>
  <g class="cls-3">
    <path class="cls-1" d="M359.21,338.73c.82,1.32,1.6,2.65,2.33,4.02.37.7.73,1.41,1.07,2.12-.13-.27.05.13.11.25.04.08.08.16.12.24.08.16.15.32.23.48.08.18.16.35.24.53.04.08.07.16.11.24.01.03.16.37.1.24-.07-.17.06.14.06.14.04.1.08.19.12.29.06.16.13.32.19.48.13.35.26.69.38,1.04.22.66.42,1.33.59,2,.08.32.15.63.21.96.03.15.05.3.08.45.01.09.03.18.04.27.04.26-.03-.25,0,.03.07.62.11,1.25.09,1.88,0,.27-.03.54-.06.81s.04-.23,0-.05c-.01.06-.02.13-.03.2-.03.15-.06.31-.09.46-.06.26-.13.53-.22.78-.04.12-.13.27-.15.39,0-.02.12-.27.03-.09-.04.09-.09.18-.13.28-.12.23-.25.45-.39.66-.04.05-.23.25-.22.32l.1-.13s-.07.08-.1.12c-.05.06-.1.12-.15.18-.19.21-.39.41-.61.6-.12.11-.24.21-.37.31-.04.04-.09.07-.14.11-.11.08-.09.07.05-.04-.05.03-.09.07-.14.1-.48.36-.99.68-1.52.97-.28.15-.56.29-.84.42-.12.06-.26.14-.39.18.26-.06.14-.06.06-.03-.11.04-.21.09-.32.13-1.17.45-2.39.77-3.63.98-.29.05-.59.1-.89.14-.31.04.29-.04-.02,0-.06,0-.12.01-.18.02-.18.02-.36.04-.54.06-.67.07-1.34.11-2.01.14-1.33.06-2.67.04-4,0-2.6-.09-5.18-.31-7.78-.46-3.01-.17-6.03-.1-9.04-.09-3.66.01-7.32.03-10.99.04-7.37.02-14.75.03-22.12.03-7.34,0-14.68,0-22.02-.03-7.34-.02-14.68-.05-22.03-.1-7.34-.04-14.68-.1-22.02-.16-7.36-.07-14.71-.15-22.07-.24-7.35-.09-14.7-.19-22.06-.27-7.34-.08-14.68-.16-22.02-.28s-14.67-.26-22.01-.46c-3.36-.09-6.71-.26-10.07-.32-1.27-.02-2.54.04-3.81.1-3.37.17-6.73.42-10.1.49-1.78.04-3.56.04-5.34-.06-.85-.04-1.69-.11-2.54-.2-.19-.02-.38-.04-.57-.07-.06,0-.11-.02-.17-.02.43.05.25.03.15.02-.11-.02-.22-.03-.33-.05-.39-.06-.77-.12-1.16-.2-.72-.14-1.44-.31-2.14-.54-.33-.11-.66-.22-.99-.35-.3-.12.18.08.06.03-.07-.03-.14-.06-.21-.09-.15-.07-.3-.14-.44-.21-.28-.14-.55-.3-.82-.47-.12-.08-.23-.16-.34-.24-.22-.16.28.23.07.06-.06-.05-.12-.1-.19-.15-.22-.19-.42-.39-.61-.61-.04-.05-.08-.1-.12-.15-.1-.12.24.33.06.08-.08-.11-.16-.23-.23-.35s-.14-.24-.2-.37c-.03-.06-.05-.12-.08-.17-.11-.24.14.37.03.06-.09-.26-.18-.53-.23-.8-.01-.07-.03-.15-.04-.22-.05-.31.03.36.01.08-.01-.16-.03-.32-.03-.47,0-.32,0-.65.04-.97.04-.37-.05.27,0,.03.02-.09.03-.18.04-.27.03-.19.07-.38.12-.56.1-.4.21-.79.35-1.17.07-.2.15-.41.23-.61.02-.04.03-.08.05-.12.09-.23-.13.31-.03.07.08-.18.16-.36.24-.54.33-.75.68-1.49,1.03-2.23,2.83-5.93,6.24-11.57,9.8-17.08,3.56-5.52,7.29-10.93,10.79-16.48,3.7-5.87,7.06-11.95,10.54-17.95s7.26-12.49,10.88-18.75,7.22-12.51,10.78-18.79,7.05-12.55,10.49-18.88,6.74-12.65,10.14-18.97,6.84-12.62,10.32-18.9,7.01-12.54,10.57-18.77,7.16-12.4,10.8-18.55,7.33-12.27,11.08-18.35c1.79-2.91,3.57-5.82,5.4-8.7.35-.56.72-1.11,1.1-1.64.09-.12.18-.24.27-.36.05-.07.1-.15.16-.21-.02.03-.18.23-.04.05.21-.25.41-.51.63-.75s.44-.47.67-.69c.11-.1.21-.2.32-.29s.26-.28.4-.33c-.25.1-.12.09-.02.02.06-.04.12-.08.18-.13.12-.08.24-.16.36-.24.28-.18.58-.33.88-.47l.04-.02c.13-.06.11-.05-.07.03.04-.04.2-.08.25-.09.14-.05.28-.1.43-.14.31-.09.67-.21,1-.21-.32,0-.1.02-.01,0,.08,0,.16-.02.24-.02.16-.01.32-.02.48-.02.36,0,.72,0,1.08.03.08,0,.15.01.23.02h.09c.15.03.12.03-.08,0,.09-.04.35.06.44.08.32.06.64.14.95.24.14.04.28.09.42.14.1.04.34.08.41.16l-.15-.06c.05.02.11.05.16.07.07.03.13.06.2.09.17.08.34.17.51.26.52.28,1.11.6,1.54,1.01-.27-.26.08.07.15.13.13.1.25.21.37.32.26.23.51.47.75.71.45.45.86.93,1.26,1.42.06.07.12.14.17.21-.17-.25-.08-.1-.04-.05.1.13.2.27.3.4.21.28.41.57.6.87.76,1.14,1.4,2.34,2.03,3.56.83,1.6,1.65,3.2,2.47,4.79,1.65,3.2,3.3,6.4,4.99,9.58,3.45,6.46,7.14,12.79,10.75,19.15s7.29,12.85,10.94,19.27c3.61,6.36,7.24,12.72,10.84,19.09,3.41,6.04,6.79,12.1,10.15,18.17s6.72,12.17,10.08,18.26,6.74,12.18,10.14,18.26,6.87,12.2,10.38,18.26,7.02,12,10.63,17.94,7.28,11.81,11.06,17.63c1.82,2.81,3.66,5.6,5.53,8.37.73,1.09,1.5,2.16,2.25,3.23.44.63.89,1.26,1.32,1.89.53.77,1.01,1.46,1.45,2.14.34.52,1.07.78,1.63.43.52-.34.79-1.07.43-1.63-3.57-5.56-7.29-11.01-10.88-16.56-3.79-5.86-7.48-11.79-11.1-17.76-3.64-6.02-7.21-12.08-10.73-18.17-3.5-6.06-6.94-12.16-10.36-18.27s-6.82-12.27-10.21-18.42-6.77-12.29-10.17-18.42-6.78-12.19-10.22-18.26c-3.66-6.46-7.33-12.91-11-19.36s-7.32-12.88-10.98-19.32-7.33-12.79-10.77-19.31c-1.69-3.2-3.34-6.42-4.99-9.64-1.4-2.73-2.74-5.48-4.63-7.91-1.69-2.17-3.81-4.01-6.41-5s-5.84-.92-8.33.51-3.99,3.74-5.43,6.03c-1.87,2.97-3.71,5.96-5.55,8.96-3.76,6.13-7.47,12.28-11.13,18.47s-7.32,12.49-10.91,18.78-7.1,12.53-10.59,18.83-6.95,12.66-10.37,19.01-6.78,12.78-10.24,19.14c-3.46,6.36-7,12.68-10.57,18.97-3.6,6.33-7.24,12.64-10.89,18.94-3.63,6.27-7.28,12.53-10.91,18.8s-6.86,12.07-10.6,17.91c-3.58,5.58-7.34,11.04-10.9,16.63-3.53,5.55-6.88,11.25-9.58,17.26-.79,1.75-1.51,3.55-1.53,5.5-.01,1.36.35,2.76,1.17,3.87,1.76,2.39,4.76,3.39,7.57,3.89,3.53.63,7.14.68,10.72.59,3.35-.09,6.69-.34,10.04-.5,1.24-.06,2.48-.11,3.72-.07,3.62.12,7.25.25,10.87.34,7.4.2,14.8.34,22.2.45,7.38.11,14.76.19,22.14.26,7.42.08,14.83.17,22.25.26,7.38.09,14.76.16,22.13.23s14.81.11,22.21.15,14.81.07,22.22.08,14.76.02,22.14.02c7.42,0,14.83-.02,22.25-.04,3.68-.01,7.36-.03,11.05-.04,1.56,0,3.12-.04,4.68,0,1.22.04,2.44.11,3.65.19,5.32.35,10.84.88,16.07-.48,2.52-.66,4.99-1.83,6.89-3.64s2.62-4.39,2.5-6.93c-.13-2.81-1.06-5.51-2.17-8.06-1.2-2.76-2.77-5.36-4.43-7.86-.32-.48-.99-.73-1.52-.4-.49.32-.72.99-.4,1.52Z"/>
    <path class="cls-1" d="M246.83,316.38c0,3.44-1.3,6.4-3.9,8.85-2.6,2.46-5.62,3.69-9.06,3.69-3.23,0-6.06-1.21-8.48-3.64-2.42-2.42-3.64-5.25-3.64-8.48,0-3.65,1.25-6.66,3.74-9.01s5.57-3.53,9.22-3.53c3.44,0,6.32,1.16,8.64,3.48,2.32,2.32,3.48,5.2,3.48,8.64ZM246.3,196.85c0,1.05-.74,9.56-2.21,25.51l-5.9,64.19c-.28,2.74-1.44,4.11-3.48,4.11s-3.3-1.37-3.58-4.11l-6.64-64.19c-1.33-13.28-2-21.78-2-25.51,0-12.3,4.15-18.45,12.44-18.45,7.45,0,11.17,6.01,11.17,18.02l.21.42Z"/>
    <path class="cls-1" d="M288.08,297.01c.05.04.11.07.16.11.03.02.05.03.08.05.17.11-.2-.27-.14-.15l-.07-.18c.03.21.22.4.4.5.06.03.12.06.18.09.17.09.36.15.55.21.27.09.54.19.8.29.59.22,1.21.38,1.81.57,1.3.41,2.59.82,3.89,1.24.68.22,1.37.42,2.06.61.27.08.59.03.83-.11.22-.13.44-.39.49-.64.13-.58-.17-1.15-.75-1.32-.61-.18-1.22-.37-1.84-.53-.65-.18-1.31-.36-1.96-.54s-1.33-.36-1.99-.54c-.32-.09-.64-.17-.96-.26-.3-.08-.61-.18-.92-.23s-.64-.12-.96-.18c-.21-.04-.43-.09-.64-.1-.07,0-.14,0-.2,0-.15,0-.31.03-.44.1-.08.05-.15.12-.21.2-.08.1-.08.1-.01.01.06-.07.07-.08.04-.06l.3-.18h-.02c.06,0,.12,0,.18-.02-.12.01-.25.03-.37.04-.23.03-.47.15-.53.4s.04.48.25.62h0Z"/>
    <path class="cls-1" d="M146.24,270.01s.07.09.12.12c0,0-.15-.29-.11-.16.04.12.1.22.18.3.08.08.16.15.23.23.12.13.27.21.42.31.1.07.2.13.3.2.41.28.82.57,1.21.88l-.2-.16c.85.66,1.64,1.41,2.4,2.18s1.48,1.58,2.19,2.4c.18.21.37.43.55.65.09.1.18.2.28.3.16.16.37.28.58.33.12.03.26.04.39.05.05,0,.1,0,.14.01.24.02.57-.13.73-.3.19-.2.3-.45.3-.73,0-.06,0-.12,0-.18,0-.13-.02-.28-.05-.4-.07-.24-.21-.43-.38-.62-.11-.13-.23-.26-.36-.39-.25-.25-.49-.5-.74-.75-.53-.53-1.07-1.06-1.63-1.57-1.15-1.06-2.39-2.06-3.74-2.85-.4-.23-.82-.41-1.24-.57-.09-.03-.17-.06-.26-.1-.14-.05-.3-.05-.45-.06-.17,0-.32-.02-.48.05.06-.03-.1.05-.1.05-.02.01,0,0,.04-.02.05-.02.1-.04.15-.04-.04,0-.1,0-.14,0-.2.01-.37.11-.45.3-.07.18-.04.4.1.54h0Z"/>
    <path class="cls-1" d="M159.86,349.38c.1-.07.21-.14.31-.21h-.73l.04.02c.42.22.98.2,1.32-.17.19-.21.41-.39.6-.6.23-.26.46-.52.69-.78.26-.29.5-.61.75-.91.27-.33.54-.66.82-.99,1.16-1.38,2.33-2.74,3.58-4.04.58-.6,1.16-1.21,1.8-1.76.24-.21.38-.61.38-.93s-.14-.7-.38-.93-.58-.4-.93-.38l-.35.05c-.22.06-.41.17-.58.34-1.23,1.06-2.31,2.29-3.37,3.51-1.15,1.33-2.26,2.7-3.34,4.08-.31.39-.59.8-.88,1.2-.18.26-.33.55-.5.82-.13.2-.16.46-.13.7.03.25.13.44.3.63l.03.04-.19-.71c-.04.12-.08.24-.12.36-.07.23.03.49.21.62s.46.18.66.05h0Z"/>
  </g>
</svg>