<?xml version="1.0" encoding="UTF-8"?>
<svg id="Layer_1" data-name="Layer 1" xmlns="http://www.w3.org/2000/svg" xmlns:xlink="http://www.w3.org/1999/xlink" viewBox="0 0 500 387.99">
  <defs>
    <style>
      .cls-1 {
        fill: #80acff;
      }

      .cls-2 {
        fill: #e2f6eb;
      }

      .cls-3 {
        fill: #316bf6;
      }

      .cls-4 {
        fill: #c7966e;
      }

      .cls-5 {
        clip-path: url(#clippath-1);
      }

      .cls-6 {
        clip-path: url(#clippath-3);
      }

      .cls-7 {
        clip-path: url(#clippath-4);
      }

      .cls-8 {
        clip-path: url(#clippath-2);
      }

      .cls-9 {
        clip-path: url(#clippath-7);
      }

      .cls-10 {
        clip-path: url(#clippath-6);
      }

      .cls-11 {
        clip-path: url(#clippath-9);
      }

      .cls-12 {
        clip-path: url(#clippath-8);
      }

      .cls-13 {
        clip-path: url(#clippath-5);
      }

      .cls-14 {
        fill: #ffa65d;
      }

      .cls-15 {
        fill: #0332c8;
      }

      .cls-16 {
        fill: #8b8804;
      }

      .cls-17 {
        fill: #e2e92d;
      }

      .cls-18 {
        fill: #28318c;
      }

      .cls-19 {
        fill: #031163;
      }

      .cls-20 {
        fill: #e8ec9d;
      }

      .cls-21 {
        clip-path: url(#clippath);
      }

      .cls-22 {
        fill: #28318c;
      }
    </style>
    <clipPath id="clippath">
      <path class="cls-4" d="M329.32,179.43c-2.01,1.19-4.25,1.64-6.58,1.97-1.81.27-3.39.04-4.99-.25-1.64,1.87-3.14,3.99-4.5,5.84-2.01,2.77-1.97,5.57-2.45,8.9-.1.7-.18,1.4-.27,2.1-.33,2.92-.53,5.88-.58,8.86-.02.14-.02.29-.02.41-.04,2.03,0,4.09.1,6.1.7,13.98,1.13,28.22-1.77,41.95-.97-2.24-2.06-4.44-3.14-6.54-2.08-3.93-5.18-7.34-7.83-10.85-2.34-3.14-4.4-6.76-7.11-9.66-2.67-2.84-7.09-3.74-10.65-4.91-3.74-1.23-7.6-1.91-11.39-2.88-3.35-.86-7.48-1.4-10.71-2.86-.04-.84-.06-1.69-.1-2.51-2.14-.39-4.21-.92-6.21-1.62h-.02c-5.61-1.89-10.56-4.97-14.14-9.58-1.52-1.91-2.8-4.11-3.78-6.58-.23-.6-.45-1.17-.64-1.77-1.58-4.73-2.08-9.68-2.32-14.65-.47-9.7,1.38-19.2.86-28.82-.35-6.43-.21-12.62-.19-19.05,0-1.38.06-2.73.19-4.11,1.29-14.33,9.56-26.19,22.36-32.6,8.04-4.05,17.2-6.1,26.16-6.41,12.54-.45,25.47,2.71,35.58,10.34,8.55,6.43,14.74,15.89,17.02,26.37,1.5,6.86,1.15,15.29-.55,23.74,3.12,1.29,5.61,4.19,6.39,8.32,1.32,7.07-2.49,17.04-8.74,20.74Z"/>
    </clipPath>
    <clipPath id="clippath-1">
      <path class="cls-1" d="M328.66,243.53c-2.47-1.95-3.29-6-4.67-8.74-1.83-3.66-3.78-9.13-7.21-11.61-1.62,1.01-1.25,5.92-1.44,7.44-.06.62-.14,1.23-.25,1.85,2.47,6.74,3.43,14.31,5.38,21.09,1.64,5.69,3.45,11.53,4.09,17.41.99,8.96-.43,17.96-1.11,26.95-.68.08-1.34.16-2.01.25-3.17-3.31-6.29-6.66-9.64-9.82-3.41-3.21-8-6.6-10.24-10.77-2.14-3.95-3.78-8.16-5.96-12.11-4.5-8.12-7.91-16.98-13.36-24.52-2.69,3.84-5.55,8.51-6.33,9.54-1.03,1.34-1.75,3.23-3.1,4.32-2.26,1.83-5.14-1.44-7.05-3.04-5.12-4.34-10.75-8.02-16.18-11.88-3.23-2.3-6.8-4.67-9.56-7.52-.74-.78-2.75-2.36-2.75-3.45,0-.08.04-.21.14-.37,1.09-2.22,8.63-11.94,13.69-15.05h.02c1.99.7,4.07,1.23,6.21,1.62.04.82.06,1.66.1,2.51,3.23,1.46,7.36,1.99,10.71,2.86,3.78.97,7.65,1.64,11.39,2.88,3.56,1.17,7.97,2.08,10.65,4.91,2.71,2.9,4.77,6.52,7.11,9.66,2.65,3.51,5.76,6.93,7.83,10.85,1.09,2.1,2.18,4.3,3.14,6.54,2.9-13.73,2.47-27.97,1.77-41.95-.1-2.01-.14-4.07-.1-6.1,1.48.14,2.96.43,4.34.72,1.99.41,2.55.45,3.72,2.2,1.48,2.22,2.38,4.85,3.19,7.4.27.84.53,1.66.82,2.51,1.21,3.64,2.53,7.23,3.78,10.85,1.07,3.14,4.3,9.29,2.88,12.6Z"/>
    </clipPath>
    <clipPath id="clippath-2">
      <path class="cls-14" d="M321.45,298.16c-15.6,1.85-31.26,2.94-46.98,3.35-.14-.39-.27-.74-.35-1.01-1.01-3.27-2.01-6.49-3.17-9.72-4.6-12.83-9.97-26.37-18.46-37.22-5.28-6.76-10.98-13.67-18.72-17.68-2.73-1.42-5.51-2.55-8.45-3.45-.6-.19-1.27-.41-1.99-.64,1.62-.72,3.29-1.34,5.04-1.85,2.82-.82,6.04-1.25,9.06-1.42-.1.16-.14.29-.14.37,0,1.09,2.01,2.67,2.75,3.45,2.75,2.86,6.33,5.22,9.56,7.52,5.43,3.86,11.06,7.54,16.18,11.88,1.91,1.6,4.79,4.87,7.05,3.04,1.36-1.09,2.08-2.98,3.1-4.32.78-1.03,3.64-5.69,6.33-9.54,5.45,7.54,8.86,16.4,13.36,24.52,2.18,3.95,3.82,8.16,5.96,12.11,2.24,4.17,6.82,7.56,10.24,10.77,3.35,3.17,6.47,6.52,9.64,9.82Z"/>
    </clipPath>
    <clipPath id="clippath-3">
      <path class="cls-1" d="M274.46,301.51c-13.2.35-26.43.21-39.67-.37-20.22-.86-40.53-2.3-60.61-4.69-5.71-.68-11.43-1.44-17.1-2.32-16.63-2.55-33.11-5.96-49.39-10.19-1.23-.33-2.45-.66-3.66-1.01.21-2.92.82-5.9,1.36-8.47.97-4.85,2.2-9.52,3.62-14.22,2.36-7.77,4.23-16.24,8.74-23.12,1.29-1.97,1.29-3.17,1.58-5.65.47-3.93,1.11-8,2.36-11.74.53-1.6,1.13-3.06,1.85-4.36,2.43-4.5,6.08-7.32,12.04-8.04,5.51-.68,11.39-.14,16.55,2.01.49.21.95.43,1.4.68,1.62.88,3.06,1.99,4.79,2.77,2.67,1.19,5.14,2.69,7.34,4.65,2.53,2.28,3.99,4.87,4.44,8.26.72,5.36-.29,9.45-1.73,14.68-.86,3.14-2.06,6.19-3.17,9.25-.37,1.01-.62,1.97-.8,2.94,5.38-2.63,11.45-3.82,17.37-5.06,7.07-1.48,13.71-4.09,20.76-5.38,2.12-.39,4.32-.37,6.49-.43,4.17-4.07,8.9-7.52,14.31-9.91.72.23,1.4.45,1.99.64,2.94.9,5.71,2.03,8.45,3.45,7.75,4.01,13.44,10.91,18.72,17.68,8.49,10.85,13.85,24.4,18.46,37.22,1.15,3.23,2.16,6.45,3.17,9.72.08.27.21.62.35,1.01Z"/>
    </clipPath>
    <clipPath id="clippath-4">
      <path class="cls-14" d="M323.46,297.92c.68-8.98,2.1-17.98,1.11-26.95-.64-5.88-2.45-11.72-4.09-17.41-1.95-6.78-2.92-14.35-5.38-21.09.1-.62.18-1.23.25-1.85.19-1.52-.19-6.43,1.44-7.44,3.43,2.49,5.38,7.95,7.21,11.61,1.38,2.73,2.2,6.78,4.67,8.74,1.42-3.31-1.81-9.45-2.88-12.6-1.25-3.62-2.57-7.21-3.78-10.85,1.27.7,2.53,1.4,3.78,2.12,1.62,2.77,2.84,6.33,3.72,8.51,2.18,5.45,3.37,11.18,5.34,16.71,1.99,5.65,4.32,11.2,6.66,16.71,4.11,9.62,8.43,19.2,11.59,29.19-9.82,1.87-19.71,3.39-29.64,4.6Z"/>
    </clipPath>
    <clipPath id="clippath-5">
      <path class="cls-1" d="M385.3,285.65c-4.79,1.5-9.66,2.82-14.57,3.97-5.86,1.36-11.74,2.59-17.63,3.7-3.17-9.99-7.48-19.57-11.59-29.19-2.34-5.51-4.67-11.06-6.66-16.71-1.97-5.53-3.17-11.26-5.34-16.71-.88-2.18-2.1-5.73-3.72-8.51.97.53,1.93,1.05,2.9,1.56,1.85.97,3.56,2.06,5.16,3.31,2.4.49,4.87,1.32,7.07,1.71,3.8.68,7.05,1.91,10.46,3.72,8.57,4.56,15.39,11.02,18.7,20.27.86,2.43,1.69,4.89,2.43,7.4,6.06,6.95,10.05,16.55,12.8,25.49Z"/>
    </clipPath>
    <clipPath id="clippath-6">
      <path class="cls-16" d="M455.74,262.98c.35.74.39,1.6,0,2.67-1.46,4.05-9.66,2.3-14.68,1.36-.21.25-.45.47-.7.68-3.72,3.17-8.67,3.66-13.28,4.52-3.91.72-9.66,1.05-14.45,2.49-.02.02-.04.02-.06.02-2.94,1.48-5.92,2.86-8.94,4.17,1.91-3.95,3.66-9.64,7.36-12.25,1.79-1.25,4.28-1.73,6.54-2.14.74-2.01,1.29-4.17,2.88-5.59.25-1.07.51-2.03.88-2.94-.68-2.2.99-6.97,2.2-8.45,1.71-2.12,5.59-3.45,8.59-3.56.39-.04.78-.02,1.15,0,3.31.29,7.54,2.18,10.67,3.29,3.12,1.13,4.52,3.99,2.57,5.51,2.86,1.01,5.69,2.14,8.3,3.35,4.54,2.1,4.3,5.51.97,6.86Z"/>
    </clipPath>
    <clipPath id="clippath-7">
      <path class="cls-16" d="M202.18,191.78c1.95,1.44,1.97,5.55,1.5,7.85-1.66,8.1-11.08,12.31-18.05,14.49-3.1.97-6.25,1.85-9.43,2.51-.41,6.8-2.47,13.87-9.95,15.68-6.62,1.6-13.83-1.05-20.06-3.08-6.89-2.26-14-5.67-18.66-11.39-2.14-2.59-4.42-6.23-3.93-9.68.6-4.25,2.65-8.49,4.42-12.37,1.44-3.19,3.08-6.23,5.32-8.92,1.13-1.34,2.51-2.53,3.84-3.74.47-5.36,1.64-10.11,3.97-15.33,1.42-3.19,3.17-6.02,3.97-9.43,1.58-6.62.51-13.91-2.82-19.96-1.36-2.43-4.03-4.73-4.36-7.54-.43-3.8,4.11-5.61,7.34-5.8,6.62-.37,12.91,6.47,14.06,12.6,1.32,6.99,2.18,13.75,4.65,20.43,6.45-3.56,13.91-5.49,20.76-8,8.49-3.1,13.77,6.76,11.35,14.12,2.22-.27,3.64.8,4.83,4.32.97,2.77,1.58,6.19.58,9,2.26,1.11,2.43,4.17,2.55,7.38.16,3.25-.27,5.02-1.87,6.86Z"/>
    </clipPath>
    <clipPath id="clippath-8">
      <path class="cls-22" d="M331.63,150.35c.21.08,4.2-14.75,4.47-16.18,1.04-5.59,1.17-11-.59-16.45-1.97-6.12-5.9-11.86-11.53-15.66-5.94-4.01-13.4-5.82-18.87-10.46-4.91-4.17-10.65-6.33-17.33-7.15-6.31-.76-15.72-.72-21.21,3.39-6.74.19-13.89,2.53-18.83,6.15-2.98,2.18-6.06,4.81-8.49,7.52-6.31,7.03-12.64,16.55-14.18,25.67-.95,5.61-.14,16.24,6.08,20-.29-3.45.12-7.11.58-10.28.7-4.79,1.95-9.85,4.17-14.28.8,4.25,2.84,8.28,5.84,11.26,4.13,4.09,9.23,3.91,13.83,1.5,2.08,1.58,4.4,2.75,6.89,3.27,1.05-1.52.7-4.87.72-6.74.04-4.42.35-8.8.76-13.15.99,2.47,2.43,4.69,4.79,6.37,6.58,4.73,16.01,5.71,23.88,3.12,1.83,2.14,3.82,4.05,5.86,5.57,3.62,2.71,8.22,4.25,12.64,5.22,1.01,5.1,3.84,11.36,7.43,14.62,3.6-3.28,8.48-5.02,13.09-3.31Z"/>
    </clipPath>
    <clipPath id="clippath-9">
      <path class="cls-3" d="M342.03,157.14c-.78-3.19-6.84-7.87-10.83-10.59-1.05-.68-1.93-1.25-2.55-1.62-8.71-5.22-14.14-8.61-23.35-13.17-17.45-8.67-35.52-13.75-54.96-13.79-6.39-.02-12.83.78-18.77,2.8-5.82,1.97-11.18,5.14-15.5,9.85-1.73,1.89-3.47,4.17-3.51,6.58-.39-3.62,2.1-7.95,3.66-10.83.88-1.62,1.89-3.17,3.02-4.6,2.18-9.97,5.24-19.69,12.04-28.16,5.2-6.49,11.98-11.8,19.53-15.62,13.3-6.72,28.9-8.45,43.18-5.69,1.95.38,3.89.85,5.8,1.42,3.56,1.07,7.01,2.48,10.29,4.24,1.58.85,3.03,1.94,4.6,2.78.86.46,1.96-.67,2.68-1.2,1.11-.81,1.91-.46,3.02.25,1.48.95,2.69,2.02,3.85,3.32.51.57,1.2,1.18,1.48,1.91s-.21,1.15-.54,1.75c-.35.64-.63,1.46-.53,2.2.16,1.14,1.47,2.26,2.15,3.13,4.35,5.6,7.57,12.04,9.62,18.83s2.97,14.37,2.67,21.67c-.23,5.45-.41,11.1.47,16.3.62,3.56,1.99,4.73,2.49,8.26Z"/>
    </clipPath>
  </defs>
  <path class="cls-15" d="M337.65,162.67s-.02.02-.02.02c-.12.04-.23.08-.29.1-.12.06-.21.08-.21.08-37.04,5.84-107.37-16.94-107.37-16.94-1.46-.21-2.92-.43-4.38-.72-3.84-.72-9.6-1.44-11.94-5.08-.64-1.01-.9-1.99-.88-2.96.04-2.4,1.79-4.69,3.51-6.58,4.32-4.71,9.68-7.87,15.5-9.85,5.94-2.01,12.37-2.82,18.77-2.8,19.44.04,37.51,5.12,54.96,13.79,9.21,4.56,14.63,7.95,23.35,13.17.62.37,1.5.95,2.55,1.62l.02.02c3.97,2.69,10.03,7.38,10.81,10.56h.02c.02.12.04.25.06.35.39,2.96-1.89,4.23-4.46,5.18Z"/>
  <g>
    <g>
      <path class="cls-1" d="M58.07,277.87c-2.46-1.6-4.54-3.16-6.69-5.13-1.06-.97-2.08-1.99-3.03-3.06-.46-.52-.91-1.05-1.35-1.59s-.78-1-1.23-1.64c-.86-1.21-1.65-2.47-2.36-3.78-.36-.67-.71-1.35-1.03-2.04-.07-.15-.14-.31-.21-.46,0-.01-.11-.27-.04-.09-.03-.08-.06-.15-.09-.23-.13-.32-.25-.65-.37-.98-.21-.61-.39-1.23-.54-1.85-.07-.29-.13-.58-.18-.87-.02-.12-.04-.24-.06-.36-.01-.07-.02-.14-.03-.22,0-.04-.05-.36-.02-.12-.14-1.15-.17-2.31-.07-3.47.01-.13.03-.27.04-.4,0-.07.02-.13.02-.2.03-.23-.03.2,0-.03.04-.29.09-.57.15-.86.11-.55.24-1.09.4-1.62s.35-1.06.55-1.57c.03-.06.05-.12.08-.19-.09.21,0,0,.02-.04.05-.12.11-.25.16-.37.12-.26.25-.53.38-.79.51-.99,1.09-1.94,1.73-2.85.16-.23.32-.45.49-.67.04-.06.08-.11.13-.17.14-.19-.11.14.03-.04.1-.13.2-.26.3-.38.37-.46.75-.9,1.14-1.33,1.58-1.76,3.35-3.35,5.2-4.82.11-.09.23-.18.34-.27.06-.04.11-.09.17-.13.19-.15-.14.11.05-.04.25-.19.5-.38.75-.56.48-.36.96-.7,1.45-1.05.96-.67,1.93-1.32,2.92-1.95,4.99-3.17,10.26-5.91,15.65-8.34.77-.35,1.54-.69,2.31-1.03.43-.18.55-.84.32-1.21-.28-.44-.75-.51-1.21-.32-3.26,1.42-6.48,2.94-9.63,4.59-2.41,1.26-4.79,2.59-7.11,4.02-2.01,1.24-3.98,2.55-5.87,3.97s-3.87,3.08-5.6,4.85-3.2,3.59-4.42,5.65-2.06,4.16-2.47,6.44c-.44,2.45-.35,4.95.24,7.37.7,2.83,2.06,5.49,3.6,7.95s3.48,4.87,5.58,6.98c2.08,2.09,4.38,3.96,6.8,5.66.57.4,1.16.79,1.74,1.17.39.25.99.09,1.21-.32.23-.44.1-.94-.32-1.21h0Z"/>
      <path class="cls-1" d="M90.15,216.66c5.02-1.65,10.1-3.11,15.21-4.45s10.27-2.54,15.44-3.66c2.94-.64,5.89-1.24,8.85-1.82.45-.09.76-.66.62-1.09-.16-.48-.6-.71-1.09-.62-5.25,1.03-10.48,2.14-15.69,3.36-5.12,1.2-10.22,2.49-15.27,3.94-2.86.82-5.71,1.69-8.54,2.62-.44.14-.77.62-.62,1.09.14.44.62.77,1.09.62h0Z"/>
      <path class="cls-1" d="M137.65,205.24c4.73-.84,9.46-1.6,14.21-2.3s9.41-1.31,14.19-1.89c4.76-.57,9.53-1.08,14.3-1.53,4.77-.45,9.55-.85,14.33-1.2s9.56-.65,14.35-.91c.6-.03,1.2-.06,1.79-.09.46-.02.91-.39.88-.88-.02-.46-.39-.91-.88-.88-4.8.25-9.6.54-14.4.88-4.8.34-9.6.73-14.39,1.17s-9.58.94-14.36,1.5-9.64,1.19-14.45,1.87-9.53,1.43-14.27,2.25c-.59.1-1.18.21-1.77.31-.46.08-.76.66-.62,1.09.16.49.6.7,1.09.62h0Z"/>
      <path class="cls-1" d="M347.97,203.39c3.61.56,7.21,1.15,10.81,1.79,3.5.62,7,1.28,10.48,1.98s6.82,1.42,10.21,2.19,6.57,1.55,9.84,2.4c3.15.82,6.29,1.68,9.41,2.6.37.11.75.22,1.12.33.44.13.98-.16,1.09-.62s-.14-.95-.62-1.09c-3.1-.93-6.22-1.8-9.36-2.63s-6.48-1.65-9.74-2.41c-3.38-.78-6.77-1.52-10.17-2.22s-6.99-1.38-10.5-2.01-7.18-1.25-10.77-1.81c-.45-.07-.89-.14-1.34-.21s-.97.12-1.09.62c-.1.42.13,1.01.62,1.09h0Z"/>
      <path class="cls-1" d="M410.31,218.05c2.01.7,4.01,1.43,5.99,2.2.95.37,1.89.74,2.84,1.12s1.83.75,2.69,1.12c3.72,1.59,7.42,3.2,11.08,4.93s7.29,3.59,10.77,5.69c1.69,1.02,3.36,2.08,4.97,3.23.31.22.63.45.93.69.04.03.08.06.13.1,0,0,.11.09.04.03-.08-.06.05.04.07.05.03.02.06.05.1.07.17.13.34.27.51.41.66.54,1.31,1.1,1.93,1.67,1.31,1.2,2.54,2.5,3.65,3.88.07.08.13.16.2.25.04.05.07.09.11.14-.01-.02-.06-.08,0,0,.15.19.29.38.43.58.26.36.52.73.76,1.11.47.73.91,1.48,1.3,2.26.1.19.19.39.28.59.04.09.08.18.12.28,0,.02.07.16.01.03.02.05.04.11.07.16.17.43.6.78,1.09.62.41-.13.8-.63.62-1.09-1.39-3.43-3.69-6.42-6.3-9.02s-5.51-4.69-8.59-6.63c-3.49-2.19-7.13-4.13-10.83-5.93s-7.44-3.42-11.2-5.05-7.79-3.24-11.76-4.66c-.51-.18-1.02-.36-1.53-.54-.44-.15-.99.17-1.09.62-.11.49.15.92.62,1.09h0Z"/>
      <path class="cls-1" d="M459.42,257.55c-.3.65-.67,1.27-1.08,1.86-.12.18-.25.35-.38.52l.14-.18c-.1.13-.2.26-.31.39-.09.08-.15.17-.18.28-.06.11-.08.22-.08.34,0,.12.02.24.08.34.04.11.1.2.18.28l.18.14c.14.08.29.12.45.12l.24-.03c.15-.04.28-.12.39-.23.33-.4.65-.81.94-1.24.24-.35.46-.71.66-1.08.11-.2.21-.41.31-.62.06-.1.1-.21.1-.33.03-.12.02-.24-.02-.35-.03-.12-.08-.22-.16-.3-.06-.1-.15-.17-.25-.23l-.21-.09c-.16-.04-.31-.04-.47,0l-.21.09c-.13.08-.24.18-.32.32h0Z"/>
      <path class="cls-1" d="M69.17,285.29c1.19,1.17,2.88,1.71,4.39,2.35s2.95,1.22,4.44,1.8c2.95,1.16,5.93,2.26,8.93,3.29,6.09,2.08,12.32,3.68,18.57,5.22,1.77.43,3.53.86,5.31,1.27s3.61.85,5.44,1.19c.63.11.9-.78.27-.97-1.57-.47-3.15-.87-4.73-1.29s-3.16-.85-4.73-1.29c-3.12-.87-6.22-1.78-9.34-2.68-6.1-1.75-12.11-3.74-18.03-6.03-1.65-.64-3.3-1.3-4.94-1.96-.85-.34-1.69-.68-2.53-1.03s-1.75-.64-2.68-.69c-.43-.03-.64.55-.35.84h0Z"/>
      <path class="cls-1" d="M136.73,304.69c.51.75,1.51.87,2.33,1.04s1.57.32,2.36.46c1.58.29,3.16.58,4.74.86,3.23.57,6.48,1.03,9.73,1.44.9.11,1.8.23,2.7.33s1.8.23,2.7.26c.57.02.68-.85.13-.99-.79-.21-1.6-.34-2.4-.49s-1.57-.29-2.36-.44c-1.59-.3-3.17-.63-4.76-.92-3.16-.57-6.31-1.12-9.47-1.71-.9-.17-1.79-.33-2.69-.49-.43-.08-.86-.16-1.29-.23-.48-.08-1.14-.06-1.56.22-.21.14-.33.44-.18.67h0Z"/>
      <path class="cls-1" d="M167.14,309.91c.11.09.2.19.32.27-.25-.17.13.09.2.12.09.04.14.05.23.06.21.03.43.07.64.1.49.08.98.14,1.48.21.87.11,1.74.22,2.61.33s1.7.19,2.55.28,1.75.12,2.62.17c.48.03.96.06,1.44.08s1.01.07,1.51.03c.25-.02.46-.17.5-.44s-.12-.47-.36-.55c-.41-.14-.85-.2-1.28-.28s-.86-.15-1.29-.23c-.86-.15-1.72-.33-2.58-.46-1.78-.26-3.55-.48-5.33-.71-.48-.06-.96-.13-1.44-.18-.24-.02-.47-.05-.71-.07-.06,0-.13-.02-.19-.02-.2-.01-.33.05-.51.11.27-.1-.06.03-.09.04-.06.03-.12.07-.18.1-.37.17-.44.78-.13,1.04h0Z"/>
      <path class="cls-1" d="M192.55,312.78c.46.11.91.24,1.37.32s.93.15,1.4.22c.96.15,1.92.3,2.89.39,1.9.18,3.8.34,5.7.51,3.78.32,7.57.61,11.35.87,3.77.26,7.53.5,11.3.71,3.78.22,7.57.41,11.35.59s7.6.32,11.39.41,7.56.15,11.34.17c3.8.02,7.59-.01,11.39-.08s7.59-.18,11.38-.32c3.79-.15,7.58-.33,11.37-.56s7.54-.5,11.3-.81c.93-.08,1.86-.2,2.79-.27.27-.02.5-.22.5-.5,0-.26-.23-.53-.5-.5-.95.08-1.9.1-2.85.16s-1.86.12-2.8.18c-1.9.11-3.8.22-5.7.31-3.77.19-7.54.34-11.31.46s-7.58.19-11.38.23c-3.78.04-7.55.02-11.33,0s-7.6-.08-11.39-.18c-3.78-.1-7.56-.22-11.34-.38s-7.58-.35-11.36-.56c-3.77-.21-7.53-.43-11.3-.68s-7.57-.53-11.36-.82c-1.88-.14-3.77-.29-5.65-.45-.95-.08-1.9-.16-2.85-.24s-1.86-.11-2.79-.14c-.46-.01-.91-.03-1.37-.04s-.95.03-1.42.05c-.53.03-.69.82-.13.96h0Z"/>
      <path class="cls-1" d="M326.23,313.22c2.42.28,4.88-.17,7.28-.47s4.97-.65,7.46-1c4.84-.7,9.68-1.47,14.5-2.32s9.67-1.79,14.49-2.82c4.81-1.02,9.59-2.17,14.35-3.37s9.51-2.49,14.19-3.97c.59-.19,1.16-.39,1.74-.6s.37-1.15-.27-.97c-2.37.65-4.72,1.33-7.1,1.95s-4.77,1.2-7.16,1.76c-4.79,1.13-9.6,2.15-14.42,3.15-4.8,1-9.62,1.92-14.45,2.78-4.82.86-9.65,1.65-14.49,2.37-2.42.36-4.84.69-7.26,1.02-1.2.16-2.27.31-3.5.47-.61.08-1.21.16-1.82.23-.65.08-1.28.21-1.92.35-.3.07-.59.13-.89.2s-.58.19-.86.29c-.54.19-.42.9.13.96h0Z"/>
      <path class="cls-1" d="M414.17,293.63c.13.02.28.08.42.08.14,0,.29-.05.43-.07.29-.04.59-.07.86-.17.5-.18,1-.39,1.49-.59,1.05-.42,2.1-.86,3.13-1.31,1.98-.86,3.95-1.75,5.91-2.67,3.94-1.86,7.77-3.9,11.53-6.11,1.06-.63,2.13-1.26,3.18-1.91s2.12-1.29,3.12-2.02c.52-.38.08-1.16-.51-.87-.98.49-1.93,1.04-2.89,1.57s-1.93,1.05-2.89,1.56c-1.9,1.01-3.84,1.97-5.76,2.94-3.88,1.96-7.81,3.83-11.79,5.57-1.11.48-2.22.96-3.33,1.43-.57.24-1,.43-1.55.66-.34.14-.62.31-.91.51-.11.08-.23.15-.34.23-.17.12-.26.28-.38.44-.18.24,0,.67.29.72h0Z"/>
    </g>
    <g>
      <path class="cls-4" d="M329.32,179.43c-2.01,1.19-4.25,1.64-6.58,1.97-1.81.27-3.39.04-4.99-.25-1.64,1.87-3.14,3.99-4.5,5.84-2.01,2.77-1.97,5.57-2.45,8.9-.1.7-.18,1.4-.27,2.1-.33,2.92-.53,5.88-.58,8.86-.02.14-.02.29-.02.41-.04,2.03,0,4.09.1,6.1.7,13.98,1.13,28.22-1.77,41.95-.97-2.24-2.06-4.44-3.14-6.54-2.08-3.93-5.18-7.34-7.83-10.85-2.34-3.14-4.4-6.76-7.11-9.66-2.67-2.84-7.09-3.74-10.65-4.91-3.74-1.23-7.6-1.91-11.39-2.88-3.35-.86-7.48-1.4-10.71-2.86-.04-.84-.06-1.69-.1-2.51-2.14-.39-4.21-.92-6.21-1.62h-.02c-5.61-1.89-10.56-4.97-14.14-9.58-1.52-1.91-2.8-4.11-3.78-6.58-.23-.6-.45-1.17-.64-1.77-1.58-4.73-2.08-9.68-2.32-14.65-.47-9.7,1.38-19.2.86-28.82-.35-6.43-.21-12.62-.19-19.05,0-1.38.06-2.73.19-4.11,1.29-14.33,9.56-26.19,22.36-32.6,8.04-4.05,17.2-6.1,26.16-6.41,12.54-.45,25.47,2.71,35.58,10.34,8.55,6.43,14.74,15.89,17.02,26.37,1.5,6.86,1.15,15.29-.55,23.74,3.12,1.29,5.61,4.19,6.39,8.32,1.32,7.07-2.49,17.04-8.74,20.74Z"/>
      <g class="cls-21">
        <path class="cls-22" d="M249.46,153.02c0,2.27-1.84,4.12-4.12,4.12s-4.12-1.84-4.12-4.12,1.84-4.12,4.12-4.12,4.12,1.84,4.12,4.12Z"/>
        <path class="cls-22" d="M253.69,190.09c.3.22.76.26,1.12.35.38.09.77.16,1.16.23.8.15,1.61.28,2.43.32,1.58.08,3.14-.04,4.69-.32s3.04-.84,4.5-1.47c1.28-.55,2.51-1.22,3.66-2,.7-.47,1.37-.97,2.01-1.51.3-.25.6-.51.89-.78.34-.32.71-.7.78-1.18.06-.42-.18-.95-.69-.91s-.86.26-1.25.57c-.07.05-.13.11-.2.16.17-.13-.06.04-.07.06-.16.12-.32.23-.48.35-.54.39-1.1.75-1.68,1.09s-1.16.65-1.76.94c-.3.14-.61.28-.91.42-.07.03-.31.16-.02,0-.14.07-.32.13-.45.19-.06.03-.33.15-.02,0-.1.05-.21.09-.31.13-1.35.55-2.74,1-4.16,1.32-.36.08-.72.15-1.08.21-.09.01-.18.03-.27.04h-.09c-.14.03-.12.03.08,0-.16.07-.44.05-.62.07-.7.07-1.41.11-2.12.15-.81.04-1.61.1-2.42.17-.43.04-.86.07-1.29.12-.46.06-1.03.04-1.43.28s-.35.76,0,1.02h0Z"/>
        <path class="cls-22" d="M332.4,155.48c-.11-.11-.22-.21-.33-.31-.13-.13-.22-.27-.38-.37-.26-.17-.55-.3-.83-.42-.62-.28-1.26-.52-1.93-.61-1.32-.17-2.65.07-3.83.67-.97.5-1.89,1.23-2.61,2.05s-1.35,1.86-1.59,2.98c-.12.56-.17,1.13-.1,1.7.07.6.23,1.15.44,1.72.28.79.6,1.59.74,2.42,0,.04.01.08.02.12.03.19-.02-.26-.01-.07,0,.08.01.16.02.24s0,.16,0,.23c0,.03,0,.06,0,.09,0,.03,0,.06,0,.09-.01.1,0,.06.02-.12-.06.13-.06.32-.11.46-.03.09-.16.32,0,.05-.05.09-.09.19-.14.28-.1.18-.22.34-.33.51-.08.11.16-.19.02-.02-.04.04-.07.08-.11.13-.09.11-.19.21-.28.31-.41.43-.89.8-1.29,1.24-.47.52-.85,1.1-1.07,1.76-.2.6-.21,1.24-.09,1.86s.38,1.17.72,1.66c.2.29.43.58.66.85.13.15.25.3.41.42.24.19.49.23.78.25.38.03.68-.34.69-.69,0-.23,0-.43-.11-.64-.03-.06-.27-.38-.14-.22-.03-.05-.07-.09-.1-.14-.17-.23-.32-.46-.46-.7-.06-.11-.12-.22-.18-.33-.03-.05-.05-.11-.08-.16-.08-.16,0,.02.01.04-.05-.12-.1-.24-.15-.36,0,.02.08.21.02.05-.04-.12-.09-.25-.12-.37-.02-.08-.02-.24-.06-.31.01.02.02.25.01.08,0-.05,0-.1,0-.15,0-.1.02-.21,0-.3,0-.13-.05.25,0,.05.01-.06.02-.12.04-.18.03-.1.06-.2.09-.3.07-.21-.07.15-.01.02.03-.05.05-.1.07-.15.05-.1.12-.2.18-.3.03-.04.06-.08.08-.12.12-.18-.1.11.03-.05.39-.45.85-.82,1.27-1.24.36-.36.7-.75.98-1.17.46-.67.73-1.47.72-2.29s-.23-1.55-.48-2.28c-.15-.42-.3-.84-.45-1.26-.08-.24-.17-.47-.23-.72-.03-.12-.05-.24-.08-.36-.04-.18,0,.02,0,.04-.03-.07-.02-.18-.02-.25-.01-.23,0-.45.01-.67.02-.24-.04.21,0-.02,0-.05.02-.09.02-.14.03-.14.06-.27.1-.41.03-.11.07-.22.11-.33,0-.02.05-.12.05-.13.03.05-.07.17,0,0,.1-.23.22-.44.35-.66.06-.1.13-.2.2-.3.03-.05.07-.1.11-.15.09-.12-.15.18,0,0s.32-.37.49-.55.35-.34.54-.5c.09-.08.19-.16.29-.24-.17.13-.03.02.01,0,.07-.05.14-.1.21-.15.23-.16.46-.31.7-.45.16-.09.32-.17.48-.25.03-.01.17-.07.02,0,.08-.03.16-.06.24-.09.32-.11.65-.19.98-.24-.04,0-.18.02,0,0,.1,0,.19-.02.29-.02.15,0,.3-.01.45,0,.32,0,.63.04.94.07.07,0,.14.01.2.02,0,0,.27.03.11.01.17.02.34.05.5.09.31.06.61.13.92.21.09.02.16.05.25.06.13.02.23,0,.33,0,.15,0,.31.04.46.06.32.05.61-.31.34-.58h0Z"/>
        <path class="cls-22" d="M336.4,151.94c.01-.08.02-.16.03-.23,0-.04.02-.25,0-.05.02-.22-.02-.39-.09-.59-.12-.34-.35-.62-.58-.89-.42-.48-.95-.87-1.49-1.21-.59-.36-1.26-.61-1.92-.84-.61-.21-1.23-.35-1.86-.47-1.22-.22-2.47-.35-3.71-.26-1.64.12-3.34.58-4.78,1.38-1.59.88-3,2.15-3.91,3.74-.33.57.43,1.14.9.69.28-.26.58-.5.86-.76.13-.12.27-.23.41-.35.03-.03.23-.18.1-.08.03-.03.07-.05.1-.08s.33-.25.15-.12c.58-.43,1.19-.82,1.83-1.13.16-.08.33-.16.5-.23.08-.03.16-.07.24-.1.13-.06-.05,0-.06.02,0-.02.13-.05.15-.06.34-.13.68-.25,1.03-.35s.69-.18,1.04-.25c.17-.03.35-.06.52-.09.18-.03-.07.01-.09.01.05,0,.11-.01.16-.02.1-.01.2-.02.3-.03.61-.06,1.21-.1,1.82-.08.25,0,.5.02.75.05.14.01.28.03.41.04.07,0,.13.02.2.02.27.03-.22-.03,0,0,1.2.18,2.42.44,3.56.88.07.03.37.14.06.02.14.05.27.11.41.16.07.03.14.06.22.09-.29-.1-.01,0,.06.03.28.13.56.28.83.44.11.07.22.18.34.23-.14-.07-.1-.08-.05-.04.03.03.07.06.1.09.05.04.1.09.15.14.08.07.17.14.26.2.11.07-.08-.08-.02-.01.02.02.05.05.08.07.07.06.17.13.27.15-.12-.03-.06-.03,0,0,.05.03.11.06.16.09.19.11.51.02.55-.22h0Z"/>
        <path class="cls-22" d="M286.33,153.56c0,2.27-1.84,4.12-4.12,4.12s-4.12-1.84-4.12-4.12,1.84-4.12,4.12-4.12,4.12,1.84,4.12,4.12Z"/>
        <path class="cls-22" d="M259.6,146.82c-.05.18-.1.35-.17.52-.09.21-.1.4-.13.63-.04.35-.1.72-.17,1.08-.13.74-.31,1.45-.47,2.18s-.36,1.42-.59,2.11c-.11.33-.23.66-.36.98-.06.16-.13.32-.2.49.09-.21-.03.06-.04.08-.05.11-.09.21-.14.32-1.22,2.69-2.85,5.17-4.57,7.56-.84,1.17-1.83,2.3-2.46,3.61-.69,1.43-.97,3.06-.38,4.59.95,2.48,3.73,3.67,6.2,4.02.57.08,1.14.11,1.72.15.61.04,1.25.03,1.85.16-.25-.05-.03,0,.02,0,.09.01.17.03.26.04.15.03.3.06.45.09.28.06.55.15.82.24.19.07-.19-.09-.01,0,.07.03.13.06.2.1.08.04.26.12.31.2-.08-.14-.12-.1-.03-.02s.18.17.29.24c.04.02.08.05.12.07.19.1-.09-.09.01,0,.62.53,1.45.02,1.32-.77-.2-1.19-1.63-1.66-2.66-1.87-1.11-.23-2.25-.27-3.37-.33-.22-.01-.45-.02-.67-.04-.1,0-.2-.02-.29-.03-.09,0-.2.02.06.01-.08,0-.17-.03-.24-.04-.57-.1-1.13-.23-1.67-.43-.14-.05-.28-.1-.42-.16.2.08-.03-.01-.06-.03-.07-.03-.14-.06-.2-.1-.29-.14-.57-.3-.83-.48-.06-.04-.12-.08-.18-.13-.03-.02-.22-.18-.04-.03-.11-.09-.22-.18-.33-.28s-.2-.2-.3-.31c-.05-.05-.09-.11-.14-.16.15.19-.03-.06-.06-.1-.08-.12-.15-.24-.21-.37-.03-.06-.06-.13-.09-.19.1.22,0,0,0-.04-.05-.16-.1-.32-.13-.48-.01-.06-.02-.12-.03-.18.04.21-.01-.14-.02-.18-.01-.17-.01-.34,0-.51,0-.08.01-.17.02-.25-.03.24,0-.03.02-.07.03-.16.07-.32.12-.48.02-.08.05-.16.08-.24.01-.04.15-.37.05-.15.57-1.29,1.48-2.4,2.31-3.53,1.74-2.39,3.45-4.84,4.67-7.54.69-1.51,1.26-3.08,1.61-4.71.19-.86.27-1.75.29-2.64.01-.43,0-.86-.03-1.29-.02-.27-.02-.55-.12-.8-.07-.17-.13-.35-.19-.53-.12-.36-.66-.4-.77,0h0Z"/>
        <path class="cls-22" d="M295.25,142.72c-.07-.21-.09-.39-.13-.61s-.13-.45-.22-.66c-.25-.6-.6-1.19-1.05-1.66-1.08-1.12-2.35-2.01-3.74-2.69-1.61-.79-3.3-1.38-5.08-1.68-1.97-.33-3.93-.35-5.89.05-2.29.46-4.41,1.54-6.15,3.08-.48.42-.46,1.29,0,1.71.53.48,1.18.42,1.71,0,.05-.04.1-.08.16-.13.14-.11-.24.18-.03.02.08-.06.17-.12.25-.19.21-.15.42-.29.64-.43.38-.24.78-.46,1.18-.66.11-.05.22-.11.34-.16.04-.02.09-.04.13-.06.19-.09-.08.04-.1.04.23-.07.45-.18.68-.26.41-.14.82-.26,1.24-.36.21-.05.42-.09.63-.13.12-.02.23-.04.35-.06.05,0,.09-.01.14-.02.24-.04-.32.04-.06,0,.42-.05.84-.08,1.26-.09.87-.03,1.74.02,2.6.12.29.03-.33-.05.03,0,.09.01.18.03.27.04.23.04.45.08.67.12.41.08.82.18,1.22.29.78.22,1.56.45,2.32.74.17.06.33.14.5.2-.4-.16-.03-.01.06.03.09.04.19.08.28.13.34.16.67.33,1.01.49.62.29,1.23.61,1.82.97.55.33,1.08.68,1.63,1.02.11.07.23.14.34.22.03.02.14.1.11.08-.02-.02.1.08.13.1.18.15.36.22.45.46.08.19.39.12.32-.09h0Z"/>
        <path class="cls-22" d="M254.41,139.19s.02-.03.03-.05l-.06.07c.06-.05.09-.11.12-.18.05-.12.05-.22.04-.34-.02-.18-.03-.36-.08-.53-.03-.12-.08-.23-.12-.34-.11-.28-.25-.48-.44-.71-.42-.5-.96-.88-1.54-1.17-1.3-.65-2.76-.86-4.2-.83-2.94.07-5.82.85-8.26,2.52-.2.14-.39.28-.58.42-.23.17-.42.38-.64.56-.36.3-.72.61-1.04.96-.64.71-1.22,1.46-1.67,2.31-.21.4.34.89.66.51.48-.56,1.02-1.11,1.6-1.57.09-.07.05-.04.12-.09.07-.06.15-.11.22-.16.16-.12.32-.24.48-.36.32-.23.65-.43,1.01-.6s.67-.36,1.02-.52c.09-.04.17-.08.26-.12.04-.02.09-.04.13-.06.02,0,.13-.06.01,0-.13.06.15-.06.18-.07.1-.04.2-.08.3-.11.71-.26,1.43-.48,2.16-.63.28-.06.57-.11.85-.15.07-.01.14-.02.2-.03.02,0-.36.05-.18.02.04,0,.08,0,.12-.01.25-.03.49-.07.74-.1l-.33.04c1.53-.2,3.09-.21,4.62,0l-.34-.05c.43.06.86.15,1.28.25.19.05.39.1.58.16.09.03.18.07.27.1.18.07-.27-.12-.1-.04.05.02.1.05.15.07.09.05.19.09.29.12-.19-.08-.24-.1-.16-.07.04.02.09.04.13.06.09.04.18.09.27.14.16.09.31.21.47.29s.31.17.46.26c.04.02.26.14.14.07.07.07.15.12.25.15.08.02.15.03.23.01.23.03-.14,0,.02.01.13.02.27-.09.34-.2h0Z"/>
        <path class="cls-22" d="M280.91,211.67c-.06.03-.12.06-.18.09h.15c-.16-.07-.3-.15-.48-.14-.11.01-.23.05-.34.08-.22.06-.42.13-.63.21-.47.18-.93.37-1.39.57-.43.19-.79.35-1.24.57-.43.2-.85.39-1.29.58.08-.03-.12.05-.15.06-.1.04-.21.09-.31.13-.22.09-.45.18-.68.26-.42.16-.85.31-1.28.45-.88.29-1.77.54-2.68.72-.45.09-.9.17-1.36.24-.16.02.11-.01-.05,0-.05,0-.1.01-.15.02-.11.01-.23.03-.34.04-.24.03-.49.06-.73.08-.91.09-1.83.15-2.74.18-1.9.06-3.8-.02-5.69-.24-.59-.07-.91-.11-1.48-.2s-1.1-.18-1.65-.28-1.08-.24-1.62-.34c-.61-.11-1.27-.29-1.89-.24-.75.06-1.02.97-.38,1.4.47.31,1.03.45,1.56.6.5.14,1.01.24,1.52.34,1.04.2,2.08.37,3.13.5,1.93.25,3.87.36,5.81.33s3.91-.19,5.83-.53,3.71-.92,5.47-1.67c.96-.41,1.94-.84,2.84-1.37.46-.28.91-.56,1.35-.88.22-.17.46-.32.66-.52.09-.09.18-.17.27-.26.16-.17.17-.33.19-.56l-.08.13c.05-.04.11-.07.16-.11.15-.1.02-.32-.14-.24h0Z"/>
      </g>
    </g>
    <g>
      <path class="cls-1" d="M328.66,243.53c-2.47-1.95-3.29-6-4.67-8.74-1.83-3.66-3.78-9.13-7.21-11.61-1.62,1.01-1.25,5.92-1.44,7.44-.06.62-.14,1.23-.25,1.85,2.47,6.74,3.43,14.31,5.38,21.09,1.64,5.69,3.45,11.53,4.09,17.41.99,8.96-.43,17.96-1.11,26.95-.68.08-1.34.16-2.01.25-3.17-3.31-6.29-6.66-9.64-9.82-3.41-3.21-8-6.6-10.24-10.77-2.14-3.95-3.78-8.16-5.96-12.11-4.5-8.12-7.91-16.98-13.36-24.52-2.69,3.84-5.55,8.51-6.33,9.54-1.03,1.34-1.75,3.23-3.1,4.32-2.26,1.83-5.14-1.44-7.05-3.04-5.12-4.34-10.75-8.02-16.18-11.88-3.23-2.3-6.8-4.67-9.56-7.52-.74-.78-2.75-2.36-2.75-3.45,0-.08.04-.21.14-.37,1.09-2.22,8.63-11.94,13.69-15.05h.02c1.99.7,4.07,1.23,6.21,1.62.04.82.06,1.66.1,2.51,3.23,1.46,7.36,1.99,10.71,2.86,3.78.97,7.65,1.64,11.39,2.88,3.56,1.17,7.97,2.08,10.65,4.91,2.71,2.9,4.77,6.52,7.11,9.66,2.65,3.51,5.76,6.93,7.83,10.85,1.09,2.1,2.18,4.3,3.14,6.54,2.9-13.73,2.47-27.97,1.77-41.95-.1-2.01-.14-4.07-.1-6.1,1.48.14,2.96.43,4.34.72,1.99.41,2.55.45,3.72,2.2,1.48,2.22,2.38,4.85,3.19,7.4.27.84.53,1.66.82,2.51,1.21,3.64,2.53,7.23,3.78,10.85,1.07,3.14,4.3,9.29,2.88,12.6Z"/>
      <g class="cls-5">
        <path class="cls-3" d="M300.43,249.65c0-.31-.04-.59-.11-.9-.07-.33-.22-.63-.37-.94-.27-.56-.57-1.13-.94-1.64-.79-1.09-1.52-1.98-2.28-3.09-.81-1.17-1.58-2.37-2.44-3.5s-1.85-2.3-2.69-3.43c-.35-.46-.66-.95-1-1.41-.32-.43-.67-.82-1.21-.95-.64-.16-1.29.13-1.81.47-.46.29-.88.65-1.25,1.05-1.53,1.63-2.44,3.69-3.63,5.56-1.7,2.68-2.97,5.58-4.38,8.41-.18.37-.1.82.27,1.04.35.2.84.09,1.04-.27,1.29-2.37,2.45-4.81,3.83-7.13.57-.96,1.17-1.89,1.73-2.86s1.08-1.88,1.73-2.75c0,0,.15-.2.07-.1s.08-.1.07-.09c.08-.1.16-.2.24-.29.17-.19.35-.38.53-.56.09-.08.17-.16.26-.24.04-.04.09-.07.14-.11-.14.12-.05.03-.01.01.09-.07.18-.13.28-.19.07-.05.15-.09.23-.13.04-.02.25-.12.06-.04.05-.02.26-.05.29-.09-.05.05-.19.02-.08.02.17,0-.2-.07-.05,0,.13.05-.08-.04-.08-.04,0,0,.12.06.12.07,0,.02-.17-.16-.06-.05.04.05.09.08.13.13.03.03.06.07.09.11-.13-.15-.05-.07-.03-.03.06.09.13.18.19.28.18.26.35.51.54.76.85,1.14,1.77,2.23,2.66,3.35.82,1.02,1.59,2.14,2.35,3.25.83,1.2,1.71,2.34,2.63,3.47.42.52.88,1.02,1.3,1.55.21.26.38.54.6.79s.42.48.63.72c.14.15.4.03.4-.17h0Z"/>
        <path class="cls-3" d="M253.29,216.26c.05.07.1.14.18.18.07.04.14.05.22.08.05.02.1.03.15.05.03,0,.05.02.08.03.05.02.04.01-.05-.02.05.03.1.05.16.06.12.04.23.08.35.12.13.05.28.07.42.1.54.13,1.07.3,1.61.44.59.15,1.18.29,1.77.42.34.08.69.15,1.04.22s.69.16,1.04.23c.39.08.78.15,1.16.25s.76.16,1.14.24c.25.06.5-.06.6-.3s.01-.51-.21-.64c-.33-.2-.67-.38-1.02-.53-.33-.14-.67-.26-1.01-.38-.67-.24-1.37-.39-2.05-.56-.63-.15-1.27-.27-1.91-.41-.59-.13-1.18-.22-1.78-.3-.16-.02-.32-.04-.48-.05-.15-.01-.3.01-.44.03-.29.04-.81.09-.96.39-.05.1-.07.24,0,.34h0Z"/>
        <path class="cls-3" d="M316.18,227.61c0,.12-.11.21-.13.34s-.04.25-.06.37c-.05.29-.09.58-.12.88-.06.54-.13,1.04-.21,1.56-.17,1.07-.36,2.14-.59,3.2s-.47,2.2-.74,3.29-.54,2.13-.78,3.19c-.29,1.23-.57,2.46-.64,3.73-.02.27.23.52.49.55.29.03.52-.13.61-.4.38-1.04.67-2.1.96-3.17s.6-2.16.87-3.25c.54-2.19,1.06-4.43,1.11-6.7.01-.62,0-1.24-.04-1.85-.03-.32-.06-.64-.13-.96-.03-.15-.06-.3-.1-.44-.02-.06-.04-.12-.07-.18-.03-.04-.06-.08-.1-.1,0-.03,0-.07-.01-.1-.03-.18-.3-.13-.31.04h0Z"/>
        <path class="cls-3" d="M317.39,214.76c-.04.2-.08.41-.11.61s-.02.41-.01.62c.01.39.04.77.08,1.16s.08.76.11,1.14.04.76.06,1.15c.03.45.02.9-.04,1.35l.03-.24c-.09.67-.27,1.32-.39,1.98-.06.34-.14.67-.23,1s-.15.64-.22.96c-.04.21.03.46.23.56s.44.08.6-.08c.49-.47.82-1.04,1.12-1.65.17-.35.3-.7.42-1.07.09-.3.15-.61.19-.91.12-.81.15-1.6.02-2.41-.11-.66-.28-1.3-.45-1.94-.1-.36-.19-.72-.27-1.09-.04-.19-.06-.38-.11-.57s-.1-.37-.13-.55c-.09-.45-.81-.44-.91,0h0Z"/>
        <path class="cls-3" d="M306.61,246.52c.02.22,0,.46.04.67.04.27.1.54.15.81.08.49.14.98.2,1.47.06.54.18,1.06.28,1.59s.18,1.02.27,1.53c.38,2.01.8,4,1.31,5.98.25.97.61,1.92.95,2.86s.72,1.93,1.08,2.89c.73,1.92,1.48,3.85,2.06,5.82.61,2.07,1.16,4.17,1.73,6.25s1.17,4.23,1.76,6.34c1.18,4.2,2.4,8.39,3.62,12.58.61,2.08,1.19,4.16,1.75,6.26s1,4.18,1.55,6.25c.14.52.31,1.03.47,1.54.18.59,1.16.51,1.11-.15-.16-2.19-.61-4.32-1.09-6.46s-1.01-4.22-1.58-6.31c-1.15-4.22-2.36-8.42-3.54-12.64-1.18-4.21-2.35-8.42-3.51-12.64-.55-2.01-1.19-3.98-1.95-5.92s-1.56-3.82-2.25-5.76c-.34-.94-.71-1.88-.98-2.84s-.5-1.97-.72-2.96-.43-2.01-.68-3.01c-.12-.5-.23-1.01-.41-1.49s-.37-.96-.56-1.44c-.1-.24-.2-.47-.3-.71s-.25-.43-.39-.63c-.1-.15-.37-.11-.36.1h0Z"/>
        <path class="cls-3" d="M288.29,228.69c-.93-.1-1.94.41-2.66.97-.78.61-1.42,1.37-2.02,2.15s-1.08,1.53-1.61,2.3c-.75,1.09-1.52,2.16-2.28,3.24-1.54,2.17-2.97,4.4-4.4,6.65-1.33,2.11-2.72,4.18-4.05,6.28-.59.93-1.17,1.83-1.88,2.61-.36.4-.77.78-1.14,1.04-.47.33-.97.57-1.38.98-.32.33-.05.78.34.83,1.04.13,2.05-.72,2.75-1.4s1.32-1.52,1.88-2.35,1.05-1.67,1.59-2.49c.75-1.13,1.48-2.28,2.21-3.43,1.43-2.27,2.82-4.56,4.35-6.77.73-1.06,1.48-2.1,2.21-3.15.63-.91,1.22-1.85,1.83-2.78.57-.86,1.16-1.69,1.9-2.42.35-.34.73-.68,1.14-.95s.85-.42,1.32-.56.33-.73-.1-.77h0Z"/>
      </g>
    </g>
    <g>
      <path class="cls-14" d="M321.45,298.16c-15.6,1.85-31.26,2.94-46.98,3.35-.14-.39-.27-.74-.35-1.01-1.01-3.27-2.01-6.49-3.17-9.72-4.6-12.83-9.97-26.37-18.46-37.22-5.28-6.76-10.98-13.67-18.72-17.68-2.73-1.42-5.51-2.55-8.45-3.45-.6-.19-1.27-.41-1.99-.64,1.62-.72,3.29-1.34,5.04-1.85,2.82-.82,6.04-1.25,9.06-1.42-.1.16-.14.29-.14.37,0,1.09,2.01,2.67,2.75,3.45,2.75,2.86,6.33,5.22,9.56,7.52,5.43,3.86,11.06,7.54,16.18,11.88,1.91,1.6,4.79,4.87,7.05,3.04,1.36-1.09,2.08-2.98,3.1-4.32.78-1.03,3.64-5.69,6.33-9.54,5.45,7.54,8.86,16.4,13.36,24.52,2.18,3.95,3.82,8.16,5.96,12.11,2.24,4.17,6.82,7.56,10.24,10.77,3.35,3.17,6.47,6.52,9.64,9.82Z"/>
      <g class="cls-8">
        <path class="cls-20" d="M298.01,258.41c-7.33-.65-13.47-1.14-20.82.61-6.79,1.62-15.19,3.73-20.59,8.25,4.2,5.43,5.9,12.56,9.39,18.39,7.07-2.66,14.37-4.6,21.72-6.42,3.16-.79,6.27-1.6,9.44-2.18,2.22-.41,6.87-.55,8.09-1.34l-7.23-17.29Z"/>
        <path class="cls-3" d="M280.56,276.69c-.09.15-.15.31-.2.48-.04.15-.09.29-.12.44-.05.28-.11.56-.16.85-.09.59-.21,1.19-.32,1.78-.23,1.22-.47,2.45-.55,3.7-.02.32-.03.64-.03.96,0,.48-.03,1.07.36,1.4.15.13.33.23.54.22.19,0,.41-.07.54-.22.11-.14.2-.26.25-.43.04-.12.05-.25.04-.37,0-.13-.01-.26-.02-.4,0-.26,0-.52,0-.78.02-.54.08-1.07.15-1.6l-.03.23c.03-.25.06-.5.1-.74l-.03.23c.1-.71.21-1.41.32-2.12.12-.75.25-1.51.28-2.27,0-.19,0-.37-.01-.56-.01-.1-.02-.19-.03-.29-.02-.14-.04-.26-.1-.39-.02-.04-.04-.08-.05-.12-.08-.17-.29-.27-.47-.27-.19,0-.37.1-.47.27h0Z"/>
      </g>
    </g>
    <g>
      <path class="cls-1" d="M274.46,301.51c-13.2.35-26.43.21-39.67-.37-20.22-.86-40.53-2.3-60.61-4.69-5.71-.68-11.43-1.44-17.1-2.32-16.63-2.55-33.11-5.96-49.39-10.19-1.23-.33-2.45-.66-3.66-1.01.21-2.92.82-5.9,1.36-8.47.97-4.85,2.2-9.52,3.62-14.22,2.36-7.77,4.23-16.24,8.74-23.12,1.29-1.97,1.29-3.17,1.58-5.65.47-3.93,1.11-8,2.36-11.74.53-1.6,1.13-3.06,1.85-4.36,2.43-4.5,6.08-7.32,12.04-8.04,5.51-.68,11.39-.14,16.55,2.01.49.21.95.43,1.4.68,1.62.88,3.06,1.99,4.79,2.77,2.67,1.19,5.14,2.69,7.34,4.65,2.53,2.28,3.99,4.87,4.44,8.26.72,5.36-.29,9.45-1.73,14.68-.86,3.14-2.06,6.19-3.17,9.25-.37,1.01-.62,1.97-.8,2.94,5.38-2.63,11.45-3.82,17.37-5.06,7.07-1.48,13.71-4.09,20.76-5.38,2.12-.39,4.32-.37,6.49-.43,4.17-4.07,8.9-7.52,14.31-9.91.72.23,1.4.45,1.99.64,2.94.9,5.71,2.03,8.45,3.45,7.75,4.01,13.44,10.91,18.72,17.68,8.49,10.85,13.85,24.4,18.46,37.22,1.15,3.23,2.16,6.45,3.17,9.72.08.27.21.62.35,1.01Z"/>
      <g class="cls-6">
        <path class="cls-3" d="M205.97,240.68c.18.1.35.25.55.31s.4.09.6.12c.45.07.9.15,1.34.21.22.03.44.05.66.08.1.01.2.02.3.04-.15-.02,0,0,.02,0,.07,0,.14.02.21.03.42.06.85.13,1.27.19,1.74.25,3.44.64,5.13,1.11.84.23,1.67.5,2.5.79.41.15.82.3,1.22.46.2.08.4.16.6.25.14.06-.12-.05.02,0,.04.02.08.03.12.05.12.05.24.1.36.16,1.59.71,3.15,1.49,4.62,2.42.41.26.81.53,1.2.8.18.13.37.26.55.4.1.08.2.15.31.23.03.03.07.05.1.08.22.17-.05-.04.07.06.81.63,1.5,1.24,2.35,1.84.46.32,1.07-.31.77-.77-1-1.5-2.49-2.66-3.93-3.7s-2.95-1.95-4.54-2.72c-3.26-1.58-6.78-2.61-10.36-3.14-1.03-.15-2.06-.25-3.1-.29-.48-.02-.96,0-1.44.04-.28.02-.56.05-.84.1-.25.05-.45.2-.67.32s-.21.44,0,.56h0Z"/>
        <path class="cls-3" d="M233.06,253.42c.02.07.05.14.06.22v-.18c-.07.39.1.72.26,1.07.15.33.34.62.54.92.22.35.44.7.69,1.03.1.13.21.27.31.4.05.07.1.13.16.2.03.04.07.09.1.13-.06-.07-.05-.07,0,0,.45.58.9,1.17,1.34,1.76.26.34.53.68.79,1.02.05.07.11.14.16.2-.11-.14,0,0,.05.06.11.15.23.3.34.44,1.81,2.36,3.56,4.77,5.2,7.25.45.68.89,1.36,1.32,2.05s.93,1.45,1.51,2.08c.53.58,1.55-.03,1.32-.77-.45-1.43-1.33-2.71-2.13-3.96s-1.62-2.47-2.47-3.68c-1.75-2.49-3.6-4.92-5.55-7.27-.52-.63-1.03-1.25-1.62-1.82-.3-.29-.59-.58-.92-.84-.17-.13-.34-.26-.52-.38-.19-.12-.4-.12-.59-.22-.17-.09-.41.06-.35.27h0Z"/>
        <path class="cls-3" d="M255.12,284.96c-.14.34-.3.65-.43.99-.07.18-.13.36-.21.54-.03.08-.07.17-.1.25.03-.08-.06.13-.07.17-.09.21-.18.42-.27.63-.04.1,0,.01,0,0-.02.04-.04.08-.05.13-.04.1-.09.2-.13.29-.16.35-.33.7-.5,1.05-.73,1.45-1.44,2.89-2.24,4.3-1.68,2.94-3.36,5.89-4.99,8.86-.49.89-.99,1.78-1.47,2.68-.24.46-.48.91-.72,1.37-.13.24-.24.49-.35.74-.08.18-.13.35-.12.55,0-.04.03.34.03.21,0-.08-.01.16-.01.16-.02.49.58.84,1,.57.03-.02.21-.14.11-.08.17-.09.34-.13.48-.28.2-.2.37-.48.51-.72.23-.38.45-.77.67-1.15.47-.8.91-1.62,1.36-2.43.88-1.6,1.76-3.21,2.66-4.8,1.6-2.83,3.31-5.6,4.62-8.58.72-1.63,1.34-3.48,1.27-5.29,0-.27-.2-.5-.47-.53-.29-.03-.48.13-.59.39h0Z"/>
        <path class="cls-3" d="M174.81,255.23c.66.56,1.14,1.1,1.77,1.71.7.68,1.34,1.44,1.95,2.21,0,0,.17.21.08.1s.08.11.08.1c.07.09.13.18.2.27.16.21.31.43.47.64.28.4.55.8.83,1.2.51.74,1,1.49,1.48,2.25,1.32,2.1,2.44,4.32,3.56,6.53.48.95.96,1.9,1.42,2.86.24.5.48,1.01.71,1.51.11.23.21.46.31.68.06.14.13.29.19.43.03.06.05.12.08.17.02.05.13.3.04.09.48,1.15.91,2.33,1.25,3.53s.49,2.32.78,3.47c.17.66,1.2.68,1.36,0,.13-.57.19-1.13.14-1.72s-.14-1.17-.25-1.75c-.21-1.13-.53-2.22-.91-3.31-.77-2.21-1.77-4.32-2.82-6.4-1.12-2.22-2.21-4.47-3.54-6.56-1.1-1.73-2.3-3.41-3.64-4.97-.77-.89-1.59-1.72-2.52-2.44-.21-.16-.43-.32-.65-.47-.1-.07-.16-.09-.28-.14.12.06-.06-.03-.08-.04-.04-.02-.09-.04-.13-.06s-.32-.14-.2-.09c-.45-.2-.98-.3-1.46-.3-.23,0-.39.32-.2.48h0Z"/>
        <path class="cls-3" d="M167.34,246.79c-.2.39-.45.74-.67,1.12s-.45.77-.66,1.17c-.42.8-.84,1.6-1.21,2.42s-.73,1.71-.86,2.62c-.14,1.01-.14,2.03-.1,3.05s.19,1.96.27,2.93.12,1.98.03,2.96c-.01.12-.02.24-.04.36,0,.05-.01.1-.02.16.02-.16,0,.01,0,.04-.04.26-.09.52-.15.78-.1.5-.21,1-.33,1.5-.24.99-.5,1.98-.77,2.96-.55,1.97-1.13,3.93-1.58,5.92s-.77,4.2-1.05,6.31c-.07.5-.13.99-.2,1.49,0,.07-.02.14-.03.21,0,.02-.03.2,0,.05-.01.11-.03.21-.04.32-.04.28-.08.57-.12.85-.13.92-.29,1.83-.44,2.74-.23,1.39-.4,2.79-.61,4.18-.24,1.51-.5,3.02-.92,4.5-.1.36-.21.71-.33,1.06-.06.17-.12.33-.18.49-.03.08-.06.16-.09.24-.02.05-.04.09-.06.14-.05.13.07-.16.01-.03-.29.62-.59,1.22-.96,1.79-.18.27-.34.54-.5.81-.19.3-.12.73.13.98s.69.33.98.13c.31-.22.59-.43.82-.73s.48-.62.68-.95c.39-.66.71-1.38.99-2.1.55-1.42.91-2.92,1.18-4.42s.46-2.93.67-4.4c.25-1.74.57-3.48.8-5.23.08-.57.15-1.14.23-1.71.02-.12.03-.25.05-.37s0-.02,0,0c0-.07.02-.14.03-.21.04-.27.07-.53.11-.8.15-1.05.31-2.09.5-3.13.38-2.02.92-4.01,1.48-5.98s1.13-3.96,1.54-5.97c.22-1.05.34-2.11.33-3.18,0-1-.11-2-.21-2.99-.05-.49-.1-.98-.15-1.47-.01-.11-.03-.21-.04-.32.02.16,0,0,0-.03-.01-.12-.03-.24-.04-.36-.03-.26-.05-.51-.07-.77-.04-.48-.06-.97-.04-1.46,0-.21.03-.43.05-.64,0-.03.03-.29.02-.18.02-.12.04-.24.06-.36.34-1.79,1.18-3.42,1.65-5.17.11-.4.14-.85.2-1.27.02-.17-.25-.23-.32-.09h0Z"/>
        <path class="cls-3" d="M127.02,240.41c.25.37.5.76.82,1.07s.66.63.99.93c.65.58,1.3,1.14,1.98,1.68,1.41,1.13,2.84,2.25,4.37,3.19,1.66,1.02,3.43,1.86,5.28,2.48s3.7,1.01,5.6,1.34c1.06.19,2.13.37,3.19.56.52.09,1.03.19,1.54.29.6.12,1.23.36,1.83.13.48-.18.6-.68.28-1.07-.35-.44-.88-.56-1.4-.7-.45-.13-.91-.24-1.37-.36-.91-.22-1.84-.41-2.76-.61-1.85-.4-3.71-.8-5.52-1.35-.46-.14-.92-.29-1.37-.46-.21-.08-.43-.16-.64-.24-.11-.05-.23-.09-.34-.14.02,0,.12.05,0,0-.08-.04-.16-.07-.24-.11-.84-.37-1.66-.8-2.45-1.26-1.5-.88-2.92-1.89-4.3-2.94-.76-.58-1.52-1.15-2.31-1.7-.41-.28-.83-.55-1.26-.81-.45-.27-.94-.44-1.44-.58-.34-.09-.7.31-.48.63h0Z"/>
        <path class="cls-3" d="M105.88,257.98c.23.45.45.89.74,1.3s.59.82.89,1.23c.6.82,1.23,1.63,1.83,2.45,1.23,1.69,2.51,3.37,3.82,5s2.58,3.12,3.97,4.59,2.85,2.85,4.31,4.25c.82.78,1.63,1.57,2.42,2.38.4.4.79.81,1.18,1.23s.82.89,1.35,1.15,1.28-.18,1.09-.83c-.3-1.01-1.18-1.82-1.87-2.58s-1.38-1.48-2.08-2.21c-1.42-1.46-2.86-2.9-4.28-4.36-2.85-2.93-5.29-6.19-7.9-9.33-.73-.88-1.48-1.74-2.24-2.6-.38-.43-.79-.84-1.2-1.25s-.89-.75-1.39-1.07c-.42-.27-.84.25-.64.64h0Z"/>
        <path class="cls-3" d="M258.36,290.31c-.07.23-.14.45-.21.68-.08.25-.19.5-.25.75-.12.5-.22,1-.33,1.5-.22,1.01-.47,2.02-.65,3.04s-.37,2.06-.57,3.08-.37,2.01-.59,3.02c-.12.54-.24,1.08-.38,1.62s-.31,1.05-.4,1.59.09,1.01.6,1.22c.43.18,1.08.05,1.29-.42.12-.27.24-.55.31-.84.07-.24.13-.49.19-.74.12-.48.23-.97.33-1.46.21-1.01.41-2.02.56-3.04.17-1.11.29-2.23.42-3.34.12-1.04.16-2.09.24-3.14.04-.58.09-1.16.14-1.74.02-.29,0-.57,0-.85s.01-.56.02-.84c.01-.44-.62-.5-.75-.1h0Z"/>
      </g>
    </g>
    <path class="cls-19" d="M123.54,215.37c-.72,1.29-1.32,2.75-1.85,4.36-1.25,3.74-1.89,7.81-2.36,11.74-.29,2.49-.29,3.68-1.58,5.65-4.5,6.89-6.37,15.35-8.74,23.12-1.42,4.71-2.65,9.37-3.62,14.22-.53,2.57-1.15,5.55-1.36,8.47-5.2-1.5-10.28-3.27-15.37-5.18-10.98-4.11-22.69-9.7-28.28-20.64-6.45-12.68,7.95-21.7,17.74-26.72,14.24-7.28,29.76-11.65,45.42-15.02Z"/>
    <g>
      <path class="cls-14" d="M323.46,297.92c.68-8.98,2.1-17.98,1.11-26.95-.64-5.88-2.45-11.72-4.09-17.41-1.95-6.78-2.92-14.35-5.38-21.09.1-.62.18-1.23.25-1.85.19-1.52-.19-6.43,1.44-7.44,3.43,2.49,5.38,7.95,7.21,11.61,1.38,2.73,2.2,6.78,4.67,8.74,1.42-3.31-1.81-9.45-2.88-12.6-1.25-3.62-2.57-7.21-3.78-10.85,1.27.7,2.53,1.4,3.78,2.12,1.62,2.77,2.84,6.33,3.72,8.51,2.18,5.45,3.37,11.18,5.34,16.71,1.99,5.65,4.32,11.2,6.66,16.71,4.11,9.62,8.43,19.2,11.59,29.19-9.82,1.87-19.71,3.39-29.64,4.6Z"/>
      <g class="cls-7">
        <path class="cls-20" d="M317.82,258.41c4.78-2.94,19.32-3.9,24.54-.72,2.75,1.67,6.82,16,8.35,16.08-3.38-.18-7.04-1.22-10.57-1.53-5.76-.5-11.17,1.2-16.68.62-2.25-.24-1.43.85-2.9-.91-.96-1.16-1.07-4.6-1.49-5.99l-1.26-7.55Z"/>
      </g>
    </g>
    <g>
      <path class="cls-1" d="M385.3,285.65c-4.79,1.5-9.66,2.82-14.57,3.97-5.86,1.36-11.74,2.59-17.63,3.7-3.17-9.99-7.48-19.57-11.59-29.19-2.34-5.51-4.67-11.06-6.66-16.71-1.97-5.53-3.17-11.26-5.34-16.71-.88-2.18-2.1-5.73-3.72-8.51.97.53,1.93,1.05,2.9,1.56,1.85.97,3.56,2.06,5.16,3.31,2.4.49,4.87,1.32,7.07,1.71,3.8.68,7.05,1.91,10.46,3.72,8.57,4.56,15.39,11.02,18.7,20.27.86,2.43,1.69,4.89,2.43,7.4,6.06,6.95,10.05,16.55,12.8,25.49Z"/>
      <g class="cls-13">
        <path class="cls-3" d="M332.55,223.98c.35.63.78,1.21,1.18,1.8.12.17.24.34.37.51.05.06.1.13.15.19,0,0,.09.12.03.03.03.04.07.08.1.13.25.33.49.66.75.97.23.28.47.57.7.86.12.15.24.3.35.45-.09-.12.03.03.06.07.07.09.13.17.2.26.44.59.87,1.19,1.3,1.79,1.76,2.45,3.32,5.03,4.71,7.71.39.74.75,1.49,1.12,2.25s.68,1.55,1.08,2.29c.23.42.78.58,1.21.4s.71-.68.56-1.14c-.25-.76-.63-1.49-.97-2.22-.32-.68-.65-1.36-1-2.03-.7-1.36-1.45-2.69-2.24-4-1.6-2.63-3.38-5.13-5.41-7.44-.56-.64-1.16-1.28-1.83-1.81s-1.33-1.04-2.08-1.41c-.21-.11-.45.11-.33.33h0Z"/>
        <path class="cls-3" d="M346.98,246.92c.16.86.33,1.71.6,2.54s.55,1.66.83,2.49c.56,1.67,1.25,3.31,1.93,4.93,1.37,3.29,2.74,6.57,3.98,9.91,2.5,6.7,4.63,13.55,6.57,20.43.49,1.76.99,3.52,1.39,5.3.2.9.38,1.81.52,2.72.06.41.1.8.15,1.18.1.8-.06-.36.06.43.02.12.03.24.05.37.03.21.07.41.11.62.13.73,1.37.74,1.49,0,.27-1.68,0-3.4-.31-5.06s-.73-3.26-1.16-4.87c-.91-3.39-1.84-6.78-2.88-10.14-1.07-3.46-2.22-6.9-3.44-10.31-1.21-3.37-2.56-6.68-3.92-9.99-.7-1.69-1.42-3.37-2.14-5.06-.04-.1-.08-.19-.12-.29-.02-.04-.12-.27-.06-.14-.12-.28-.25-.55-.38-.82-.19-.39-.37-.79-.56-1.19-.37-.79-.73-1.58-1.14-2.35-.2-.38-.43-.75-.65-1.12-.3-.52-1.02-.16-.92.39h0Z"/>
        <path class="cls-3" d="M369.61,265.31c-.15.23-.3.46-.46.69-.07.1-.15.21-.22.31-.07.1,0,0,0,0-.05.08-.09.11-.13.18s-.08.13-.12.2c-.29.48-.57.95-.89,1.41-.16.23-.32.46-.48.68-.04.06-.08.11-.13.17-.02.03-.04.06-.06.08-.05.07-.06.01.03-.04-.05.03-.09.12-.13.16-.04.05-.09.11-.13.16-.36.44-.72.88-1.09,1.32-1.47,1.75-3.07,3.39-4.51,5.17-.8.99-1.62,2.03-2.19,3.17-.22.44-.13,1.04.34,1.29s1.01.11,1.29-.34.56-.93.87-1.38c.15-.22.31-.44.47-.66.08-.11.16-.22.24-.33.04-.05.08-.11.12-.16.02-.02.08-.1-.01.01-.1.13,0,0,.02-.03.71-.9,1.46-1.77,2.21-2.63,1.55-1.77,3.1-3.55,4.29-5.59.34-.58.66-1.17.9-1.79s.33-1.23.39-1.87c.03-.36-.47-.44-.64-.17h0Z"/>
      </g>
    </g>
    <g>
      <path class="cls-16" d="M455.74,262.98c.35.74.39,1.6,0,2.67-1.46,4.05-9.66,2.3-14.68,1.36-.21.25-.45.47-.7.68-3.72,3.17-8.67,3.66-13.28,4.52-3.91.72-9.66,1.05-14.45,2.49-.02.02-.04.02-.06.02-2.94,1.48-5.92,2.86-8.94,4.17,1.91-3.95,3.66-9.64,7.36-12.25,1.79-1.25,4.28-1.73,6.54-2.14.74-2.01,1.29-4.17,2.88-5.59.25-1.07.51-2.03.88-2.94-.68-2.2.99-6.97,2.2-8.45,1.71-2.12,5.59-3.45,8.59-3.56.39-.04.78-.02,1.15,0,3.31.29,7.54,2.18,10.67,3.29,3.12,1.13,4.52,3.99,2.57,5.51,2.86,1.01,5.69,2.14,8.3,3.35,4.54,2.1,4.3,5.51.97,6.86Z"/>
      <g class="cls-10">
        <path class="cls-18" d="M440.86,269.4c.5-.35,1.05-.71,1.46-1.17s.75-.92,1.03-1.44c.65-1.2.83-2.52.55-3.85-.22-1.01-.8-1.97-1.76-2.44-.89-.43-1.88-.46-2.85-.35-1.14.13-2.26.37-3.38.58-1.49.28-2.99.56-4.49.8-.37.06-.74.12-1.11.17-.41.06-.7.1-1.01.14-.74.1-1.49.18-2.24.25-1.54.14-3.08.19-4.63.19h-5.28c-1.76,0-3.53-.05-5.28.12-.45.04-.89.37-.87.87s.38.82.87.87c1.5.15,3.01.12,4.51.12h4.51c1.49,0,2.97.02,4.46-.07s3.03-.25,4.53-.45c2.77-.37,5.53-.89,8.27-1.44.21-.04.42-.09.64-.12.11-.02.21-.04.32-.06.07-.01.27,0,.32-.05l-.13.02s.08-.01.13-.02c.04,0,.08,0,.13-.01.1-.01.21-.02.31-.03.22-.01.44-.02.66,0,.09,0,.2.03.29.02-.21.01-.17-.03-.09,0,.06.01.11.02.17.03.09.02.18.04.27.07.03.01.07.03.1.04.18.05-.18-.1-.03-.01.08.05.16.08.23.13.04.02.11.06.13.09,0,0-.18-.16-.06-.04.07.07.13.13.2.2.13.14-.08-.14-.02-.03.03.06.08.12.12.18.02.04.04.07.06.11.01.02.13.26.07.13-.06-.14.02.07.03.08.02.07.05.14.07.21.04.16.08.31.11.47,0-.01.04.28.02.14,0-.09.02.19.02.23.02.3.02.61,0,.91,0,.02-.03.29,0,.08-.01.08-.03.16-.04.23-.03.15-.07.31-.11.46-.04.12-.08.25-.12.37-.03.07-.05.15-.08.22.05-.12-.05.1-.05.1-.13.28-.28.54-.44.8-.34.54-.66,1.1-1.03,1.63-.22.32.22.78.55.55h0Z"/>
        <path class="cls-18" d="M457.05,267.71c.33-.69.61-1.41.76-2.16.07-.34.11-.69.12-1.04s-.05-.67-.07-1.02c0,.05.04.28,0,.02,0-.07-.02-.12-.03-.19s-.03-.13-.05-.19c-.04-.13-.08-.25-.13-.38-.12-.29-.25-.57-.42-.83-.35-.54-.82-.97-1.32-1.35-.96-.74-2.13-1.2-3.28-1.56s-2.44-.61-3.68-.84c-1.46-.26-2.91-.54-4.36-.86-2.16-.48-4.31-.99-6.48-1.38-4.29-.78-8.72-1.1-13.01-.13-3.55.81-6.92,2.54-9.48,5.16-.33.34-.66.69-.97,1.05-.65.74.34,1.74,1.08,1.08.36-.32.73-.63,1.1-.92.03-.03.07-.05.1-.08.12-.09-.09.07.03-.02.08-.06.16-.12.24-.18.09-.07.18-.13.27-.2.09-.06.17-.13.26-.2-.1.08,0,0,.05-.04.68-.51,1.39-.99,2.14-1.41.36-.21.73-.4,1.1-.59.19-.1.38-.19.58-.28.08-.04.17-.08.26-.12.05-.02.4-.17.16-.07.77-.31,1.56-.59,2.37-.81.85-.23,1.71-.4,2.58-.54.1-.02.2-.03.3-.05.08-.01.39-.06.14-.02.23-.03.47-.06.7-.08.55-.06,1.1-.1,1.65-.13,1.06-.05,2.13-.03,3.2.03.52.03,1.05.08,1.57.13.25.03.5.06.76.09.07,0,.13.02.2.03-.05,0-.2-.03.02,0,.13.02.27.04.4.06,3.83.56,7.56,1.6,11.37,2.27,1.2.21,2.4.41,3.59.68.58.13,1.16.27,1.72.45.28.09.56.18.83.29.06.02.12.05.17.07.21.09-.17-.08-.01,0,.13.06.27.12.4.19.23.12.46.24.68.39.1.07.2.14.3.21.19.14-.03.01-.02-.02,0,.02.15.12.17.14.19.16.37.34.53.53.03.04.07.08.1.12.14.17-.08-.11,0,0s.14.2.21.31c.06.1.11.21.17.31.01.03.03.06.04.09.04.08-.05-.11-.04-.1.04.03.06.16.08.21v.02c.1.22.12.27.07.15-.06-.03-.03-.08,0,.01.02.06.04.11.05.17.04.13.07.27.1.4.01.07.02.14.04.21-.03-.18,0,0,0,.07.01.15.02.31.02.47,0,.31-.02.67-.05.93-.04.32-.13.73-.22,1.08-.12.5.62.86.86.36h0Z"/>
        <path class="cls-18" d="M450.89,252.85c-.15-.22-.32-.45-.51-.63-.18-.17-.47-.36-.72-.53-.13-.09-.25-.19-.4-.26s-.3-.13-.46-.18c-.27-.1-.55-.19-.83-.27-1.1-.31-2.24-.44-3.36-.66-1.42-.29-2.82-.59-4.25-.78s-3.01-.32-4.53-.38c-2.47-.1-4.93.06-7.32.72s-4.52,1.72-6.43,3.2c-1.05.81-1.95,1.74-2.75,2.8-.37.5-.72,1.02-1.02,1.57-.17.32-.31.64-.45.98s-.19.65-.25,1c-.12.67.67,1,1.07.45.16-.22.35-.42.51-.67s.31-.49.47-.74c.14-.22.29-.44.44-.65.08-.12.17-.23.25-.35.03-.04.06-.08.09-.12-.11.15.05-.07.08-.1.68-.85,1.47-1.63,2.31-2.33.1-.08.2-.16.3-.24-.15.12-.04.03-.01,0,.06-.05.12-.09.19-.14.23-.17.46-.33.7-.49.45-.3.92-.58,1.4-.83.23-.12.46-.24.7-.35.12-.06.24-.11.36-.16.07-.03.14-.06.22-.09.19-.09-.16.06.05-.02.51-.2,1.03-.4,1.55-.57,1.05-.34,2.14-.6,3.24-.76.08-.01.16-.02.24-.03-.23.03-.04,0,.01,0,.13-.02.26-.03.4-.05.29-.03.58-.06.87-.07.58-.04,1.16-.05,1.74-.04,1.45.02,2.9.09,4.35.23s2.66.3,4.11.59c1.21.24,2.43.4,3.64.63.32.06.63.11.95.18s.6.18.9.25c.37.09.25.03.15.02.1.01.2.03.29.06.14.04.28.09.41.14.19.08.46.18.69.3.37.2.89-.23.61-.61h0Z"/>
      </g>
    </g>
    <path class="cls-19" d="M432.08,243.96c-3,.1-6.89,1.44-8.59,3.56-1.21,1.48-2.88,6.25-2.2,8.45-.37.9-.64,1.87-.88,2.94-1.58,1.42-2.14,3.58-2.88,5.59-2.26.41-4.75.88-6.54,2.14-3.7,2.61-5.45,8.3-7.36,12.25-5.98,2.57-12.11,4.83-18.33,6.76-2.75-8.94-6.74-18.54-12.8-25.49-.74-2.51-1.56-4.97-2.43-7.4-3.31-9.25-10.13-15.7-18.7-20.27-3.41-1.81-6.66-3.04-10.46-3.72-2.2-.39-4.67-1.21-7.07-1.71-1.6-1.25-3.31-2.34-5.16-3.31-.97-.51-1.93-1.03-2.9-1.56-1.25-.72-2.51-1.42-3.78-2.12-.29-.84-.55-1.66-.82-2.51-.8-2.55-1.71-5.18-3.19-7.4-1.17-1.75-1.73-1.79-3.72-2.2-1.38-.29-2.86-.58-4.34-.72,0-.12,0-.27.02-.41,34.26,3.33,67.07,9.41,90.25,18.48,8.02,3.12,16.03,6.29,23.35,10.89,2.84,1.79,6.25,4.54,8.53,7.75Z"/>
    <path class="cls-19" d="M251.11,213.48c-5.06,3.1-12.6,12.83-13.69,15.05-3.02.16-6.25.6-9.06,1.42-1.75.51-3.41,1.13-5.04,1.85-5.41,2.38-10.13,5.84-14.31,9.91-2.18.06-4.38.04-6.49.43-7.05,1.29-13.69,3.91-20.76,5.38-5.92,1.23-11.98,2.43-17.37,5.06.19-.97.43-1.93.8-2.94,1.11-3.06,2.3-6.1,3.17-9.25,1.44-5.22,2.45-9.31,1.73-14.68-.45-3.39-1.91-5.98-4.44-8.26-2.2-1.95-4.67-3.45-7.34-4.65-1.73-.78-3.17-1.89-4.79-2.77,21.91-3.17,44.03-4.83,66.14-5.63,4.11-.16,8.2-.29,12.29-.39,1.66-.04,3.33-.08,5.02-.1,3.58,4.6,8.53,7.69,14.14,9.58Z"/>
  </g>
  <g>
    <path class="cls-16" d="M202.18,191.78c1.95,1.44,1.97,5.55,1.5,7.85-1.66,8.1-11.08,12.31-18.05,14.49-3.1.97-6.25,1.85-9.43,2.51-.41,6.8-2.47,13.87-9.95,15.68-6.62,1.6-13.83-1.05-20.06-3.08-6.89-2.26-14-5.67-18.66-11.39-2.14-2.59-4.42-6.23-3.93-9.68.6-4.25,2.65-8.49,4.42-12.37,1.44-3.19,3.08-6.23,5.32-8.92,1.13-1.34,2.51-2.53,3.84-3.74.47-5.36,1.64-10.11,3.97-15.33,1.42-3.19,3.17-6.02,3.97-9.43,1.58-6.62.51-13.91-2.82-19.96-1.36-2.43-4.03-4.73-4.36-7.54-.43-3.8,4.11-5.61,7.34-5.8,6.62-.37,12.91,6.47,14.06,12.6,1.32,6.99,2.18,13.75,4.65,20.43,6.45-3.56,13.91-5.49,20.76-8,8.49-3.1,13.77,6.76,11.35,14.12,2.22-.27,3.64.8,4.83,4.32.97,2.77,1.58,6.19.58,9,2.26,1.11,2.43,4.17,2.55,7.38.16,3.25-.27,5.02-1.87,6.86Z"/>
    <g class="cls-9">
      <path class="cls-17" d="M171.37,215.03c-.29.48-.39,1.04-.49,1.58-.02.09-.03.19-.04.29-.03.26.01-.08,0,.07-.02.12-.03.24-.05.35-.04.29-.1.57-.15.86-.18,1.08-.38,2.14-.68,3.2-.15.51-.31,1.02-.5,1.52-.05.13-.1.25-.15.37-.02.05-.04.1-.06.15.08-.2-.02.05-.03.07-.11.25-.22.49-.34.73-.37.74-.8,1.44-1.25,2.13-.41.63-.85,1.24-1.3,1.83-.03.04-.06.08-.09.12-.12.16.11-.13.02-.03-.06.07-.11.14-.17.21-.14.17-.28.34-.42.51-.26.31-.53.62-.81.91-.56.6-1.16,1.18-1.81,1.69,0,0-.09.08-.09.07.02.01.17-.13,0,0-.07.05-.14.1-.21.16-.16.12-.33.23-.5.34-.32.21-.66.39-1,.56-.04.02-.08.04-.12.06-.07.03-.22.06.02,0-.1.03-.2.08-.3.12-.18.07-.37.12-.56.17-.1.03-.2.05-.31.07-.09.02-.43.05-.12.03-.19.01-.38.04-.56.04s-.38,0-.57-.02c-.05,0-.1-.01-.15-.02-.19-.02.21.03.02,0-.1-.02-.21-.03-.31-.05-.2-.04-.39-.09-.58-.15-.11-.03-.21-.06-.32-.1-.04-.01-.07-.03-.11-.04-.03-.01-.26-.11-.1-.04-.34-.15-.78-.11-.97.26s-.06.73.26.97c1.39,1.05,3.18,1.18,4.8.63s3.08-1.62,4.32-2.81,2.34-2.56,3.31-3.98c1.09-1.6,2-3.3,2.61-5.15.41-1.25.65-2.53.81-3.83.08-.64.09-1.28.09-1.92,0-.35-.07-.71-.11-1.06s-.14-.6-.31-.89c-.14-.23-.47-.23-.61,0h0Z"/>
      <path class="cls-18" d="M138.49,186.74c-.02.51.12,1.04.26,1.52s.29.92.46,1.37c.37.95.76,1.91,1.24,2.82.93,1.75,2.02,3.4,3.26,4.94.34.43.7.85,1.07,1.25.19.2.39.4.58.6.1.1.2.2.3.29.2.18.43.27.68.37.12.05.31.03.43,0,.17-.05.31-.15.42-.29.21-.28.2-.59.06-.9-.08-.18-.14-.31-.27-.47-.08-.09-.17-.18-.25-.27-.17-.18-.33-.36-.49-.54-.33-.37-.65-.73-.96-1.11-.15-.18-.3-.37-.45-.55-.04-.05-.07-.09-.11-.14-.02-.02-.03-.04-.05-.06-.06-.08.08.1.07.09-.08-.1-.15-.2-.23-.3-.29-.38-.56-.77-.83-1.17-.52-.78-1.01-1.58-1.46-2.4s-.92-1.66-1.34-2.51c-.24-.48-.46-.96-.71-1.43-.26-.5-.51-1.02-.89-1.44-.28-.31-.78-.05-.79.33h0Z"/>
      <path class="cls-18" d="M158.35,208.1c.22.34.41.67.7.96s.59.57.89.85c.64.61,1.27,1.21,1.98,1.75,1.39,1.06,2.94,1.96,4.49,2.77s3.17,1.59,4.79,2.29,3.25,1.34,4.94,1.8c.45.12.91.24,1.38.33.29.06.58.09.88.13,0,0,.16.02.07,0-.07,0,.11.01.12.02.16.02.32.04.48.06.49.06.98.12,1.47.09.54-.03,1.01-.17,1.52-.34.42-.14.41-.7,0-.84s-.78-.31-1.2-.4-.84-.15-1.25-.22c-.82-.14-1.63-.35-2.43-.56s-1.6-.46-2.38-.75c-.4-.14-.8-.3-1.19-.46-.18-.07-.37-.15-.55-.22.13.05-.13-.06-.17-.07-.11-.05-.21-.09-.32-.14-3.2-1.4-6.25-3.08-9.22-4.9-.76-.47-1.46-1.02-2.19-1.52-.38-.26-.75-.51-1.16-.73-.45-.24-.89-.32-1.39-.32-.2,0-.35.24-.24.42h0Z"/>
      <path class="cls-18" d="M204.56,190.16s-.04.06-.06.09c0,0-.01.01-.02.02-.03.04.04-.05.03-.03-.01.01-.02.03-.03.04-.03.05.13-.1.01,0-.07.05-.11.11-.13.19,0,0,.05-.09.02-.05,0,0-.01.02-.02.02-.02.04-.05.07-.08.11l.07-.09c-.13.17-.29.31-.46.45l.13-.1c-.12.08-.23.19-.34.29-.08.07-.16.13-.24.2l.15-.12c-.16.12-.33.23-.48.35-.11.09-.22.18-.34.27l.18-.14c-.22.17-.46.33-.69.5s-.47.34-.72.49c-.46.3-.94.57-1.43.81-.24.12-.48.23-.72.33l.23-.1c-.11.05-.22.09-.34.13-.17.06-.34.14-.51.21-.11.06-.2.14-.27.25-.08.09-.14.2-.17.33l-.03.26c0,.13.02.26.08.37.02.08.06.15.12.21.07.1.16.19.27.25.23.12.48.16.74.1.25-.06.48-.17.71-.27.2-.09.39-.18.58-.27.45-.23.89-.48,1.32-.75.23-.15.45-.3.67-.45.28-.2.57-.41.82-.64.19-.18.38-.37.56-.57.21-.23.38-.48.52-.75.06-.11.12-.23.17-.34.05-.1.09-.2.11-.31.01-.06.03-.11.04-.17.03-.15.05-.29.06-.44,0-.05,0-.1,0-.15,0-.03,0-.05,0-.08,0-.12-.03-.2-.11-.3l.09.16c-.03-.1-.07-.2-.12-.29-.08-.15-.3-.13-.38,0h0Z"/>
      <path class="cls-18" d="M198.55,181.89s.07.02.1.04l-.43-.33v.02c.06.06.1.11.14.17.08.08.16.14.27.17.06.04.13.06.21.06.11.02.22.02.33-.01h.02c-.07,0-.15.02-.22.03.18-.02.36-.04.54-.08.19-.04.36-.12.53-.19.21-.09.42-.2.62-.32.49-.29.93-.69,1.32-1.1s.77-.91,1.1-1.4c.14-.21.28-.43.39-.66.14-.3.27-.61.39-.92.09-.25.19-.51.25-.77.05-.2.06-.41.08-.61.01-.12.02-.25.03-.37,0-.12-.02-.24-.08-.34-.04-.11-.1-.2-.18-.28l-.18-.14c-.1-.06-.21-.1-.33-.1-.08-.02-.16-.02-.24,0-.12,0-.23.04-.33.1l-.18.14c-.11.11-.19.24-.23.39-.05.13-.1.26-.15.39l.1-.23c-.08.18-.17.36-.23.54-.04.12-.09.23-.14.35l.1-.24c-.14.33-.3.64-.48.95s-.36.64-.57.95c-.12.18-.24.35-.37.51l.16-.21c-.24.31-.5.61-.78.88-.14.13-.28.26-.42.38s-.28.25-.43.36l.2-.15c-.15.12-.32.23-.48.33s-.3.23-.47.31c-.25.12-.42.44-.41.72v.03c.03-.12.07-.24.1-.37-.01.02-.03.04-.04.05l.1-.14s-.01.02-.02.02c-.34.35-.19.96.29,1.09h0Z"/>
      <path class="cls-18" d="M190.54,165.8s0,.01,0,.02c0,.02,0,0,0-.05-.01-.1-.01-.07.01.09.03.09.08.16.14.23-.1-.14-.08-.11-.06-.07l-.08-.29h0c.02.21.1.45.3.54-.12-.05-.14-.11-.08-.07.01,0,.02.02.03.03.06.05.13.1.2.15l-.33-.43h0c.06.16.13.28.26.39s.27.14.45.16h.02c-.07,0-.13-.02-.2-.02.16.04.33.06.49.07l-.21-.03c.27.06.52.01.79-.03.14-.02.28-.05.42-.09.37-.1.74-.24,1.08-.41.66-.33,1.29-.73,1.88-1.17.7-.52,1.37-1.07,2.04-1.64.56-.48,1.09-.97,1.63-1.47.24-.23.51-.45.73-.7.16-.2.32-.4.49-.59.22-.25.32-.65.12-.95-.07-.11-.17-.21-.28-.28-.15-.1-.44-.15-.61-.08-.32.13-.62.27-.92.44-.22.13-.41.31-.61.46-.15.12-.3.25-.45.38-.7.59-1.39,1.21-2.09,1.81-.42.36-.84.71-1.27,1.04l.2-.16c-.22.17-.45.34-.67.51l.2-.16c-.39.3-.79.59-1.22.85-.36.22-.72.44-1.11.6l.21-.09c-.24.1-.51.15-.75.26l.19-.08c-.09.03-.19.06-.28.07l.2-.03h-.02c-.25.01-.52.13-.64.37h0c.09-.08.17-.17.26-.25-.04.03-.09.05-.13.07l.31-.08c-.17.02-.32.05-.45.18-.12.16-.13.17-.02.03,0,0,0,0-.01.01l.24-.14c-.09.03-.17.07-.24.14-.09.12-.11.14-.05.07.04-.04.04-.05.03-.04-.03.04-.02,0-.08.1s-.07.21-.04.33h0Z"/>
      <path class="cls-18" d="M166.05,155.04c-.32-.32-.81-.08-1.14.07-.14.06-.29.12-.43.19-.15.08-.29.16-.44.24-.3.16-.57.37-.86.55s-.6.37-.9.55c-1.24.73-2.52,1.38-3.82,1.99-.71.33-1.42.65-2.14.96l.23-.1c-.48.2-.97.38-1.45.6-.19.09-.39.36-.43.57s-.04.42.05.62c.17.41.67.7,1.12.55.34-.11.68-.26,1.01-.4.42-.17.85-.35,1.27-.54.74-.32,1.47-.66,2.2-1.02,1.46-.72,2.89-1.53,4.22-2.46.4-.28.79-.59,1.09-.98.09-.12.18-.23.27-.35.01-.02.03-.04.04-.06l-.06.08.11-.14.03-.08c.05-.11.05-.11,0,.02.01-.02.02-.04.03-.06.08-.17.17-.33.14-.52-.01-.1-.06-.21-.13-.28h0Z"/>
    </g>
  </g>
  <g>
    <path class="cls-2" d="M257.33,151.55c.22-.3.51-.63.83-.89-.11.08,0,0,.03-.02.04-.02.07-.05.11-.07.07-.05.14-.09.22-.13.08-.04.08-.02,0,0,.07-.02.15-.06.22-.1.11-.06-.12.02,0,0,.04,0,.08-.02.13-.03.03,0,.08,0,.11-.02.06-.02-.17,0-.03,0,.07,0,.14,0,.21,0,.04,0,.27.03.14,0s.1.02.13.03c.07.02.14.04.21.06.2.07-.13-.07.06.03.14.07.28.15.42.24l-.28-.28c.12.18.28.3.46.41.14.09-.11-.1-.01-.01.04.04.09.07.13.11.18.15.34.32.5.49.08.09.16.18.24.27.04.04.07.09.11.13.03.04.16.2.07.09-.1-.12.03.04.05.07.08.1.15.21.23.31.01.01.06.08.06.08,0,0-.12-.16-.06-.08.04.06.09.13.14.19.65.9,1.21,1.87,1.72,2.86.85,1.66,1.58,3.37,2.33,5.07,1.26,2.85,2.45,5.79,4.52,8.16,1.01,1.16,2.25,2.15,3.65,2.79,1.81.82,3.81,1.17,5.78,1.41,4,.49,8.05.21,12.03-.29,2.11-.27,4.25-.41,6.34-.81.99-.18,1.97-.41,2.88-.83.72-.34,1.37-.85,1.9-1.43,1.09-1.22,1.73-2.73,2.28-4.24.62-1.69,1.22-3.39,1.76-5.11,1.24-3.91,2.22-7.91,2.86-11.96.32-2.05.56-4.12.67-6.19.06-1.03.14-2.03-.3-2.99-.4-.88-1.19-1.53-2.09-1.86-.98-.36-2.04-.59-3.05-.86s-2.09-.52-3.14-.75c-2.09-.46-4.19-.85-6.31-1.17-4.32-.65-8.66-1-13.02-1.21-4.37-.21-8.74-.32-13.11-.33s-8.76.06-13.13.24c-4.35.17-8.69.44-13.02.81-2.21.19-4.42.39-6.63.69s-4.34.68-6.48,1.14c-.97.2-1.93.43-2.9.65-.86.2-1.71.41-2.53.73s-1.71.76-2.29,1.5-.91,1.62-1.05,2.55c-.31,2.03-.3,4.14-.27,6.19.03,2.21.16,4.42.3,6.62s.29,4.34.37,6.51c.04,1.03.02,2.05.27,3.05.22.88.61,1.74,1.15,2.47,1.1,1.48,2.78,2.51,4.4,3.34s3.28,1.43,5.01,1.88c3.42.89,6.99,1.17,10.52,1.23,1.65.03,3.29-.09,4.93-.1.43,0,.79-.36.79-.79s-.36-.8-.79-.79c-1.66.01-3.32-.1-4.97-.15s-3.43-.16-5.13-.35c-.2-.02-.4-.05-.6-.07.21.03-.14-.02-.18-.02-.11-.02-.23-.03-.34-.05-.43-.06-.85-.14-1.28-.22-.83-.16-1.66-.34-2.47-.56s-1.61-.48-2.39-.78c-.2-.08-.4-.16-.59-.24-.11-.04.03.01.04.02-.05-.02-.1-.04-.16-.07-.1-.05-.21-.09-.31-.14-.39-.18-.77-.36-1.14-.56-.74-.39-1.46-.84-2.14-1.32-.18-.12-.35-.25-.52-.38.15.12-.05-.04-.1-.08-.09-.07-.18-.15-.26-.23-.15-.14-.29-.28-.42-.43-.07-.07-.13-.15-.19-.23.12.15.03.04,0,0-.04-.06-.08-.12-.12-.18-.11-.17-.21-.34-.31-.51-.05-.09-.09-.18-.13-.27-.02-.05-.05-.1-.07-.16.04.08.04.11,0,0-.15-.4-.27-.81-.35-1.24,0-.06-.02-.11-.03-.17,0,.01.02.18,0,.06,0-.1-.02-.2-.03-.3-.02-.26-.02-.51-.02-.77-.01-.53-.03-1.07-.05-1.6-.16-4.29-.58-8.57-.59-12.87,0-1.07.02-2.14.07-3.2.02-.45.05-.9.08-1.35.02-.2.04-.4.06-.59.01-.13-.01.07-.01.08,0-.03.02-.13.02-.16.02-.11.04-.22.06-.32.04-.2.09-.39.15-.58.03-.09.06-.17.09-.26.05-.14.04.02-.02.04.02,0,.05-.12.07-.14.03-.06.29-.41.28-.46.02.05-.13.15-.03.04.04-.04.07-.08.1-.11.07-.08.15-.14.23-.22.14-.13-.14.09.06-.04.07-.05.15-.1.22-.14.18-.11.37-.2.56-.29.02,0,.15-.07.02-.01-.13.06.03-.01.06-.02.09-.04.18-.07.28-.1.2-.07.41-.14.62-.2.82-.25,1.65-.42,2.48-.62,1.03-.24,2.07-.46,3.11-.67s2.12-.41,3.18-.58c.53-.09,1.07-.17,1.6-.25.11-.02.21-.03.32-.05.07-.01.14-.02.21-.03.03,0,.21-.03.04,0,.27-.04.54-.07.8-.1,4.21-.52,8.46-.8,12.7-1.05s8.55-.42,12.83-.49c4.29-.07,8.58-.05,12.87.06,4.23.11,8.46.26,12.68.64,1.06.09,2.11.21,3.16.33.25.03.49.06.74.09.12.02.25.03.37.05.07,0,.14.02.21.03.19.03-.25-.03.09.01.53.07,1.05.15,1.57.23,2.06.32,4.11.69,6.15,1.14s4.09.93,6.08,1.57c.05.02.1.04.15.05.12.04-.07-.02-.07-.03,0,0,.25.14.27.15.03.02.06.04.1.06.12.07-.14-.12-.03-.03.07.07.15.13.22.21.03.03.05.06.08.08.14.15-.01-.03-.02-.04.06.03.11.16.14.22.03.05.07.19.12.24-.1-.08-.05-.15-.02-.04.02.06.04.12.05.18,0,.04.02.07.03.11.05.2,0-.04,0-.05.04.06.01.2.01.27,0,.24-.01.48-.02.72-.02.49-.05.98-.08,1.47-.07.99-.16,1.99-.28,2.98-.03.23-.06.47-.09.7.03-.2-.02.11-.02.17-.02.13-.04.27-.06.4-.07.5-.15,1-.24,1.5-.33,1.99-.75,3.96-1.24,5.91-.9,3.6-2.04,7.16-3.35,10.63-.06.17-.13.33-.19.5-.03.08-.07.16-.1.24-.06.14.08-.18.02-.04-.03.06-.05.11-.08.17-.15.33-.3.65-.48.96s-.39.6-.58.91c-.07.12.13-.15.03-.04-.02.03-.04.06-.07.08-.05.06-.11.13-.16.19-.13.14-.26.28-.39.41-.06.06-.12.11-.19.16-.02.02-.09.08-.11.09,0,0,.17-.12.07-.05-.15.1-.3.21-.45.3s-.33.17-.5.26c-.1.05.07-.03.07-.03,0,0-.12.05-.14.06-.1.04-.2.07-.3.1-.96.3-1.96.48-2.96.64-.12.02-.24.04-.36.05-.05,0-.37.05-.18.03-.27.04-.55.07-.82.1-.5.06-.99.11-1.49.17-.98.11-1.95.23-2.93.35-1.97.23-3.95.39-5.94.43-.99.02-1.97,0-2.96-.05-.5-.03-.99-.07-1.49-.11-.23-.02-.46-.05-.69-.08-.05,0-.36-.05-.17-.02-.13-.02-.26-.04-.39-.06-.97-.15-1.93-.34-2.87-.6-.39-.11-.78-.24-1.16-.39-.02,0-.14-.06-.02,0,.13.06-.02-.01-.05-.02-.08-.04-.16-.07-.24-.11-.17-.08-.34-.17-.5-.26-.32-.18-.63-.38-.93-.6-.07-.05-.14-.1-.2-.15.15.13.02.02-.05-.04-.15-.12-.3-.25-.44-.38-.26-.24-.51-.49-.74-.75-.12-.13-.24-.27-.36-.41-.05-.07-.11-.13-.16-.2-.03-.04-.07-.08-.09-.11.04.06.1.13.02.03-.9-1.2-1.63-2.5-2.28-3.84-.97-1.99-1.82-4.03-2.74-6.04s-1.96-3.94-3.33-5.66c-.04-.05-.07-.1-.11-.14l-.09-.07c-.13-.1-.12-.1.02,0,0,0-.05-.05-.05-.06-.07-.09-.16-.17-.24-.25-.16-.16-.33-.32-.51-.47-.4-.34-.94-.83-1.48-.86l.4.11c-.74-.35-1.58-.53-2.37-.23-.08.03-.16.06-.24.1-.05.02-.05.02,0,0,.09-.04.05-.02-.11.05-.04.02-.08.03-.12.06-.05.03-.1.06-.14.11.08-.06.09-.06.03-.03-.2.11-.38.27-.54.42-.38.36-.68.79-.94,1.24-.34.58.5,1.04.88.52h0Z"/>
    <path class="cls-2" d="M308.66,139.12c-.04.28-.03.51.12.76.05.09.13.17.19.25,0,0,.02.02.02.03-.17-.23-.18-.15.02.03l.09.07c.14.11.12.09-.07-.05.01.01.02.02.04.03.28.25.62.42.96.59.84.42,1.7.8,2.57,1.17.92.4,1.85.79,2.77,1.19.85.37,1.68.77,2.51,1.2.88.45,1.76.91,2.65,1.34.44.22.88.43,1.33.63.48.22.99.46,1.5.59.44.11.88-.11,1.06-.52s.02-.9-.37-1.12c-.36-.2-.75-.35-1.12-.52s-.77-.35-1.15-.53c-.78-.37-1.56-.76-2.33-1.16-.92-.47-1.84-.95-2.78-1.36-1.75-.76-3.54-1.46-5.27-2.28-.35-.17-.71-.34-1.05-.54-.06-.03-.12-.07-.18-.1-.03-.01-.05-.03-.08-.04-.07-.03-.15-.07-.23-.09-.1-.04.25.11.16.07-.04-.02-.07-.04-.11-.06-.08-.04.21.19.13.1.07.08.14.19.19.32-.12-.33-.42-.62-.79-.6-.33.01-.74.24-.79.6h0Z"/>
    <path class="cls-2" d="M307.81,149c.05.05.09.11.14.16.09.09.2.16.3.23.13.09.26.18.39.25.26.14.53.27.8.4.6.29,1.22.55,1.84.8,1.11.45,2.23.83,3.36,1.22.31.11.62.22.93.33.35.13.75.34,1.13.3.16-.02.31-.04.45-.12.17-.1.29-.25.36-.43.14-.34.06-.7-.18-.97s-.63-.38-.97-.51c-.22-.08-.44-.16-.67-.23-.44-.15-.88-.3-1.32-.44-.91-.3-1.82-.58-2.72-.9-.52-.18-1.03-.38-1.53-.59l.2.09c-.28-.12-.56-.24-.84-.37-.19-.09-.38-.16-.57-.24-.07-.03-.13-.06-.2-.08-.08-.02-.16-.03-.23-.04-.16-.03-.3-.03-.45.03-.13.06-.26.15-.33.28-.15.28-.1.59.11.83h0Z"/>
    <path class="cls-2" d="M226.88,140.68h.04c-.21-.02-.43.11-.53.29-.17.29-.32.59-.46.9-.05.11-.1.23-.14.34.02-.05.08-.18-.02.04-.03.08-.05.14-.07.22-.03.18-.06.37-.09.56-.12.83-.19,1.66-.21,2.5-.05,1.58.07,3.17.14,4.76.06,1.45.08,2.89.19,4.34.12,1.56.27,3.12.41,4.67.07.81.14,1.61.18,2.42.02.34.03.68.03,1.02,0,.22-.02.45.03.67.03.14.08.28.11.41.07.29.35.51.64.55.27.03.65-.09.76-.37.07-.16.14-.33.2-.49.07-.19.08-.39.08-.59,0-.31,0-.62,0-.92-.01-.72-.05-1.45-.1-2.17-.11-1.61-.28-3.22-.41-4.83-.12-1.48-.15-2.96-.2-4.44-.06-1.64-.15-3.27-.16-4.91,0-.89.03-1.78.13-2.67-.02.18.02-.09.02-.16.02-.16.03-.31.03-.47,0-.2,0-.4.02-.6,0-.04,0-.07,0-.11.01-.14-.02.2,0-.09.01-.12.03-.25.01-.38-.01-.11-.05-.2-.12-.29-.02-.03-.2-.19-.14-.14.08.07-.05-.04-.06-.05-.11-.06-.2-.06-.32-.04h0Z"/>
    <path class="cls-2" d="M302.16,141.12s.07.16.01.02c.02.04.03.08.04.12.03.08.05.17.08.26.06.21.1.41.15.62.04.18-.02-.19,0,0,0,.05,0,.1.02.16.01.11.03.22.05.33.01.07,0,.22,0-.01,0,.24.05.51.08.75.1,1.12.03,2.25-.09,3.36-.03.29-.07.57-.1.86-.03.25.03-.21,0,.03-.01.07-.02.14-.03.21-.02.17-.05.33-.07.5-.09.58-.19,1.16-.29,1.74-.16.98-.34,1.95-.47,2.93-.19,1.37-.26,2.76-.39,4.14-.05.46-.1.92-.15,1.38-.03.23-.06.46-.08.69-.01.1-.02.19-.04.29,0,.06-.02.12-.02.18.04-.32,0-.03,0,.03-.13.95-.29,1.9-.5,2.84-.1.47-.22.93-.37,1.39-.06.2-.13.4-.21.6-.02.04-.04.08-.05.12.08-.29.05-.12.01-.04s-.08.17-.12.25c-.08.15-.16.29-.25.42-.14.21.16-.17,0,0-.05.05-.09.1-.14.14-.16.16.22-.12.02-.02-.02.01-.05.02-.06.04-.01,0-.03.01-.04.02.19-.08.24-.1.16-.07h-.02c-.08.03-.17.07-.25.11-.09.05-.16.12-.23.19-.16.15.14-.09.04-.02-.37.25-.57.88-.16,1.22.24.19.48.35.8.36.25,0,.51-.1.71-.23.34-.2.58-.49.81-.81.45-.63.71-1.42.93-2.16.58-1.94.85-3.97,1.07-5.98.16-1.4.25-2.81.4-4.21,0-.1.02-.19.03-.29,0-.05.01-.09.02-.14,0-.02-.03.25-.02.14,0-.03,0-.07.01-.1.03-.23.07-.46.1-.69.08-.53.18-1.06.27-1.59.21-1.26.4-2.52.53-3.79.12-1.18.2-2.37.12-3.55-.07-1.1-.29-2.21-1.04-3.06-.15-.17-.34-.31-.52-.43-.19-.13-.49-.07-.64.08-.18.18-.19.43-.08.64h0Z"/>
    <path class="cls-2" d="M256.21,145.48s.1-.02.1-.03c-.1-.03-.1-.02-.02,0,.04.01.09.01.13,0,.04,0,.07-.01.11-.02-.08.01.03,0,.04,0,.09,0,.17,0,.26-.03.07-.02.13-.05.2-.07.25-.09.5-.17.76-.24s.51-.12.76-.19.51-.13.77-.16l-.21.03c.44-.06.88-.04,1.32.01l-.22-.03c.38.05.74.15,1.09.3l-.2-.08c.43.18.83.43,1.2.72l-.17-.13c.08.06.16.13.24.2.04.03.08.07.12.1.14.12.27.2.46.25.28.08.58,0,.78-.21.19-.19.31-.52.21-.78-.05-.12-.09-.23-.17-.34-.05-.06-.08-.11-.14-.15s-.12-.1-.18-.15c-.16-.13-.33-.26-.51-.38-.23-.16-.47-.31-.72-.43-.29-.14-.58-.26-.89-.36s-.6-.14-.9-.18c-.52-.06-1.07,0-1.58.12-.23.05-.46.12-.68.21-.28.11-.54.25-.79.41-.26.17-.51.37-.75.58-.13.11-.28.21-.35.36-.03.06-.05.11-.09.17-.02.03-.04.06-.06.08-.01.02-.03.05-.03.07,0,.02-.01.05,0,.07,0,.01,0,.01,0,0l.05-.08s-.06.07-.09.11c-.08.1,0,.29.14.24h0Z"/>
  </g>
  <g>
    <path class="cls-22" d="M331.63,150.35c.21.08,4.2-14.75,4.47-16.18,1.04-5.59,1.17-11-.59-16.45-1.97-6.12-5.9-11.86-11.53-15.66-5.94-4.01-13.4-5.82-18.87-10.46-4.91-4.17-10.65-6.33-17.33-7.15-6.31-.76-15.72-.72-21.21,3.39-6.74.19-13.89,2.53-18.83,6.15-2.98,2.18-6.06,4.81-8.49,7.52-6.31,7.03-12.64,16.55-14.18,25.67-.95,5.61-.14,16.24,6.08,20-.29-3.45.12-7.11.58-10.28.7-4.79,1.95-9.85,4.17-14.28.8,4.25,2.84,8.28,5.84,11.26,4.13,4.09,9.23,3.91,13.83,1.5,2.08,1.58,4.4,2.75,6.89,3.27,1.05-1.52.7-4.87.72-6.74.04-4.42.35-8.8.76-13.15.99,2.47,2.43,4.69,4.79,6.37,6.58,4.73,16.01,5.71,23.88,3.12,1.83,2.14,3.82,4.05,5.86,5.57,3.62,2.71,8.22,4.25,12.64,5.22,1.01,5.1,3.84,11.36,7.43,14.62,3.6-3.28,8.48-5.02,13.09-3.31Z"/>
    <g class="cls-12">
      <path class="cls-3" d="M258.81,99.15c-.64.39-1.26.82-1.88,1.23s-1.24.91-1.81,1.43c-1.14,1.05-2.1,2.3-2.95,3.58-1.74,2.65-2.99,5.62-3.73,8.69s-1.01,6.26-.64,9.39,1.31,6.12,2.99,8.79,4,4.95,6.83,6.36c.37.18.74.35,1.11.51.29.12.63.09.8-.21.16-.27.07-.65-.21-.8-.7-.39-1.38-.82-2.04-1.29-.15-.1-.29-.21-.44-.32-.03-.02-.14-.11-.03-.02-.03-.03-.07-.05-.1-.08-.08-.06-.16-.13-.24-.2-.29-.24-.56-.48-.84-.73-.56-.51-1.09-1.04-1.58-1.61-.11-.13-.22-.26-.33-.39-.06-.07-.11-.14-.17-.21-.02-.03-.05-.06-.07-.09.13.17.01.02-.01-.02-.22-.29-.44-.6-.64-.9-.4-.61-.77-1.24-1.09-1.89-.16-.32-.31-.65-.46-.98-.02-.05-.04-.09-.06-.14-.05-.11.07.17.02.05-.03-.08-.07-.17-.1-.25-.07-.18-.14-.35-.2-.53-.51-1.38-.89-2.82-1.13-4.26-.03-.17-.06-.34-.08-.51-.01-.07-.02-.41-.02-.11,0-.1-.03-.21-.04-.3-.04-.37-.08-.73-.11-1.1-.06-.75-.08-1.51-.08-2.26s.03-1.52.1-2.27c.03-.38.08-.77.12-1.15,0-.03.02-.17,0-.04-.02.15,0-.06,0-.07.01-.08.02-.17.04-.25.03-.21.06-.41.1-.62.26-1.51.64-3,1.14-4.45.12-.36.25-.71.39-1.06.07-.17.14-.35.21-.52.03-.08.06-.15.1-.23-.06.14-.01.03,0,0,.02-.06.05-.12.07-.17.31-.71.65-1.4,1.01-2.08.71-1.32,1.55-2.58,2.46-3.76.06-.08.19-.24.29-.37.12-.14.23-.29.35-.43.24-.3.48-.58.73-.87.48-.56.93-1.15,1.49-1.64.27-.24.55-.47.84-.69.09-.07-.03-.21-.12-.15h0Z"/>
      <path class="cls-3" d="M252.64,97.98c-.51-.06-1.05,0-1.58.16-.13.04-.25.08-.38.12-.05.02-.34.13-.18.06-.07.03-.15.06-.22.09-.31.13-.62.26-.92.41-1.21.57-2.37,1.28-3.43,2.11-2.31,1.8-4.39,3.92-6.19,6.23-1.92,2.47-3.57,5.14-4.77,8.03-1.03,2.5-1.7,5.27-1.47,7.98s1.31,5.15,3.36,6.83c.29.24.59.46.89.67.61.42,1.36-.55.8-1.03-.5-.42-.96-.89-1.39-1.38-.05-.05-.09-.11-.14-.17-.03-.04-.16-.21-.05-.06-.09-.13-.19-.25-.28-.38-.17-.24-.32-.49-.46-.75-.07-.13-.14-.26-.2-.39-.03-.07-.07-.14-.1-.21-.02-.04-.11-.25-.06-.14.05.12-.04-.11-.06-.14-.02-.06-.05-.13-.07-.19-.05-.14-.1-.29-.15-.43-.09-.27-.16-.55-.23-.83-.03-.14-.06-.28-.09-.43-.01-.07-.02-.13-.03-.2,0-.03-.01-.07-.02-.1-.02-.14-.02-.02,0,.04-.09-.27-.07-.62-.08-.9-.01-.31-.02-.62,0-.92s.03-.61.06-.91c.01-.15.03-.31.05-.46.03-.22-.03.18,0-.04.01-.09.03-.18.04-.27.22-1.32.59-2.61,1.06-3.86.06-.16.12-.32.18-.48.03-.08.06-.15.09-.23.03-.06.15-.36.05-.12.14-.32.28-.64.43-.96.31-.66.64-1.3,1-1.93.73-1.3,1.54-2.54,2.42-3.74.11-.15.22-.3.33-.44.05-.07.11-.14.16-.21-.15.19.06-.07.1-.12.23-.29.46-.57.69-.86.48-.58.97-1.14,1.48-1.69.96-1.04,1.98-2.03,3.06-2.95.5-.42,1.01-.84,1.52-1.25.07-.05.13-.1.2-.16.03-.02.06-.05.09-.07.09-.07-.12.09-.03.02.13-.1.26-.2.4-.3.12-.09.25-.18.37-.27.06-.04.35-.25.17-.13.07-.05.14-.1.22-.15.91-.64,1.89-1.16,2.84-1.74.23-.14.38-.25.59-.41.15-.11.1-.33-.09-.35h0Z"/>
      <path class="cls-3" d="M264.67,98.27c-.28.17-.55.33-.85.48s-.56.28-.82.47c-.53.4-1.03.83-1.5,1.3-.97.98-1.8,2.09-2.44,3.31-1.3,2.51-1.97,5.3-1.88,8.13.05,1.48.38,2.98,1.01,4.32.18.39.75.1.67-.28-.13-.6-.22-1.16-.27-1.72-.06-.63-.05-1.25-.06-1.88s.03-1.28.1-1.92c0-.08.02-.16.03-.23,0-.04.01-.08.01-.12-.02.16,0,.05,0,.02.03-.18.05-.35.08-.53.05-.32.1-.65.17-.97.26-1.3.66-2.58,1.16-3.81.05-.12.01-.03,0,0,.02-.04.03-.07.05-.11.03-.07.06-.15.1-.22.07-.16.15-.33.23-.49.14-.29.29-.59.44-.88.3-.58.63-1.14,1-1.68.39-.57.82-1.1,1.3-1.6.25-.26.49-.51.73-.77.12-.13.23-.27.37-.37.15-.11.31-.2.47-.3.1-.06,0-.21-.09-.16h0Z"/>
      <path class="cls-3" d="M266.97,100.57c-.48.3-.97.61-1.42.95s-.85.81-1.2,1.26c-.76.98-1.34,2.04-1.82,3.19-.93,2.21-1.33,4.58-1.52,6.96-.11,1.47-.03,2.96.21,4.42.22,1.36.66,2.64,1.23,3.89.96,2.1,2.35,4.01,4.07,5.56,1.96,1.78,4.29,3.06,6.75,3.98.55.21.92-.68.4-.95-1.02-.51-2.02-1.07-2.99-1.68s-1.7-1.16-2.52-1.87-1.56-1.48-2.23-2.33c-.01-.01-.09-.12-.02-.02-.05-.06-.09-.12-.14-.18-.08-.1-.15-.21-.22-.31-.16-.23-.32-.47-.47-.71-.29-.47-.56-.95-.81-1.44-.12-.24-.23-.48-.34-.73-.02-.05-.04-.1-.06-.15.06.15-.04-.1-.04-.11-.06-.15-.12-.31-.18-.46-.23-.61-.42-1.23-.57-1.87-.31-1.33-.4-2.64-.36-4.05.03-1.15.1-2.3.25-3.43-.02.18.01-.08.01-.1,0-.05.02-.11.02-.16.02-.13.04-.27.06-.4.05-.29.1-.59.16-.88.11-.56.23-1.12.37-1.67.31-1.2.74-2.35,1.32-3.45.29-.56.62-1.1.99-1.62.18-.25.33-.52.51-.78.19-.27.42-.5.66-.73.07-.07-.02-.2-.11-.14h0Z"/>
      <path class="cls-3" d="M274.41,100.3c-.04.38-.06.76-.14,1.14-.07.34-.13.69-.19,1.04-.11.71-.12,1.41-.08,2.13.06,1.39.24,2.81.65,4.14.82,2.66,2.21,5.09,4.08,7.15s4.02,3.64,6.44,4.81,5.27,1.89,8.05,2.03,5.83-.35,8.45-1.55c.33-.15.66-.31.98-.48.62-.32.19-1.36-.48-1.14-1.32.44-2.7.78-4.08,1.01-.17.03-.34.05-.5.08-.08.01-.17.02-.25.04-.02,0-.14.02-.02,0s-.04,0-.06,0c-.34.04-.69.08-1.03.1-.66.05-1.32.06-1.98.04s-1.33-.07-1.99-.15c-.04,0-.26-.03-.11-.01.16.02-.11-.02-.14-.02-.17-.03-.34-.05-.51-.08-.32-.06-.63-.12-.95-.19-.64-.14-1.27-.32-1.89-.52-.3-.1-.61-.21-.91-.32-.14-.05-.28-.11-.41-.16-.04-.02-.08-.04-.13-.05-.11-.04.1.04.09.04-.08,0-.18-.08-.25-.11-1.18-.52-2.31-1.11-3.39-1.83-.26-.18-.52-.36-.78-.55-.06-.05-.13-.09-.19-.14-.03-.02-.24-.19-.11-.08s-.08-.07-.11-.09c-.07-.06-.14-.11-.21-.17-.49-.4-.96-.83-1.42-1.27s-.88-.92-1.29-1.4c-.1-.12-.21-.24-.31-.36-.05-.06-.1-.12-.15-.19-.03-.04-.2-.25-.11-.14.09.12-.07-.09-.09-.12-.04-.05-.08-.11-.12-.16-.1-.14-.2-.28-.3-.42-.74-1.06-1.39-2.18-1.93-3.36-.03-.07-.07-.15-.1-.22-.02-.04-.11-.26-.04-.08-.06-.15-.12-.3-.18-.45s-.11-.31-.17-.46c0,.02-.12-.3-.07-.16.03.09,0-.02-.01-.03-.03-.09-.07-.18-.1-.26-.24-.63-.44-1.27-.61-1.92s-.3-1.3-.4-1.97-.26-1.38-.35-2.07c-.04-.35,0-.71.03-1.06,0-.08-.12-.08-.12,0h0Z"/>
      <path class="cls-3" d="M293.92,135.84c.52.72,1.06,1.45,1.74,2.03.76.65,1.62,1.21,2.51,1.65,1.81.88,3.73,1.51,5.72,1.88,1.03.19,2.08.31,3.13.31,1.13,0,2.26-.12,3.38-.31,2.19-.37,4.32-1.15,6.26-2.22,2.12-1.17,4.12-2.66,5.64-4.56.49-.61-.26-1.37-.86-.86-.78.67-1.48,1.2-2.33,1.79s-1.75,1.13-2.68,1.6c-.21.11-.42.21-.63.31-.12.06-.24.11-.36.16-.07.03-.13.06-.2.09-.02,0-.24.1-.12.05.13-.06-.13.05-.12.05-.05.02-.11.04-.16.07-.11.04-.22.08-.33.13-.26.1-.52.21-.78.3-.98.36-1.98.63-2.99.87-.51.12-1.02.22-1.54.29-.06,0-.11.02-.17.03-.28.04.15-.02-.02,0-.13.01-.26.03-.39.04-.26.03-.52.05-.77.07-1,.06-2.02.05-3.02-.04-.2-.02-.39-.04-.59-.06-.05,0-.41-.04-.14-.02-.12-.01-.25-.04-.37-.05-.45-.07-.89-.15-1.33-.25-.95-.2-1.9-.44-2.82-.74-1-.32-1.98-.7-2.92-1.15s-1.85-.86-2.58-1.56c-.07-.07-.2.02-.14.11h0Z"/>
      <path class="cls-3" d="M328.85,132.04c-.25.82-.65,1.59-1.05,2.35s-.89,1.55-1.42,2.26c-1.05,1.41-2.41,2.72-3.81,3.82.11-.09.01,0,0,0-.06.04-.12.09-.17.13-.08.06-.16.12-.23.17-.21.15-.42.3-.63.44-.39.26-.8.52-1.2.76-.8.48-1.64.91-2.49,1.28-.05.02-.21.09,0,0-.04.02-.09.04-.13.06-.11.05-.22.09-.33.13-.22.09-.45.17-.67.25-.43.15-.85.29-1.29.41s-.88.23-1.33.32c-.22.04-.43.08-.65.12-.1.02-.21.03-.31.05-.15.03.25-.03.02,0-.07,0-.14.02-.2.02-.96.11-1.94.14-2.9.07-.12,0-.24-.02-.36-.03-.05,0-.11-.01-.16-.02-.09-.01-.22.02-.01,0-.22.02-.5-.08-.72-.12-.48-.08-.94-.19-1.41-.33-.42-.13-.94.15-1.04.59-.11.49.15.85.59,1.04,3.58,1.51,7.71.84,11.18-.64,3.6-1.54,6.83-4.13,8.95-7.44.56-.88,1.06-1.82,1.42-2.8.17-.45.34-.93.41-1.41s.15-.99.21-1.48c.02-.14-.19-.15-.23-.03h0Z"/>
      <path class="cls-3" d="M337.6,130.18c-.91,2.32-2.23,4.48-3.6,6.56s-2.97,4.05-4.84,5.92c-.9.9-1.85,1.74-2.85,2.53.16-.12-.05.04-.07.05-.06.05-.13.09-.19.14-.13.09-.25.19-.38.28-.25.18-.51.36-.77.54-.54.36-1.09.7-1.65,1.02s-1.08.6-1.64.86c-.25.12-.51.23-.77.35.21-.09-.03.01-.06.02-.07.03-.14.06-.21.09-.17.07-.33.13-.5.19-1.14.42-2.33.74-3.53.94-.18.03-.35.06-.53.08-.04,0-.29.04-.06,0-.1.01-.2.03-.31.04-.33.04-.67.06-1,.08-.7.04-1.41.03-2.11-.01-.37-.02-.74-.06-1.11-.11-.08,0-.16-.02-.24-.03-.03,0-.35-.05-.18-.02-.16-.02-.33-.05-.49-.08-.78-.13-1.54-.31-2.3-.53-.39-.11-.82.14-.93.53-.12.42.14.79.53.93,2.58.95,5.32,1.33,8.06,1.05s5.17-1.1,7.51-2.32c4.72-2.46,8.53-6.54,11.36-10.99.78-1.23,1.46-2.51,2.08-3.83s1.11-2.68,1.6-4.04c.08-.22-.09-.47-.3-.53-.24-.07-.44.08-.53.3h0Z"/>
      <path class="cls-3" d="M293.43,112.6c1.25.84,2.61,1.53,4.05,1.97.75.22,1.56.31,2.33.38s1.52.05,2.28-.02c3.24-.28,6.36-1.47,8.9-3.52.65-.53,1.26-1.13,1.8-1.77.6-.71,1.05-1.53,1.42-2.38.17-.38.13-.88-.29-1.1s-.84-.08-1.1.29c-.1.14-.2.28-.31.42.13-.17-.05.06-.08.1-.06.07-.12.15-.18.22-.23.28-.48.55-.72.82-.5.55-.98,1.09-1.54,1.57-.28.24-.56.47-.85.71-.1.08.02.03.05-.04,0,.02-.1.07-.1.08-.07.05-.14.1-.21.16-.15.11-.3.22-.46.32-.62.41-1.26.79-1.93,1.11-.16.08-.32.15-.48.22-.08.04-.16.07-.24.11-.13.06.22-.09.01,0-.05.02-.1.04-.15.06-.34.14-.67.27-1.02.39-.7.24-1.42.44-2.15.59-.17.03-.34.07-.51.09-.09.01-.17.03-.26.04-.04,0-.09.01-.13.02-.22.03.16-.02-.05,0-.37.04-.74.08-1.11.1-.74.04-1.46.06-2.2,0-.78-.06-1.56-.13-2.33-.28-.83-.16-1.61-.41-2.37-.79-.08-.04-.14.07-.07.12h0Z"/>
      <path class="cls-3" d="M240.7,106.77c-.38.21-.76.39-1.14.6s-.69.45-1.03.69c-.69.49-1.34,1.04-1.97,1.61-1.28,1.16-2.41,2.44-3.45,3.82-2.06,2.72-3.57,5.93-4.49,9.2-.75,2.68-1.12,5.48-1.06,8.26s.56,5.61,1.78,8.14,3.15,4.63,5.66,5.85c.36.17.74.3,1.12.42.8.25,1.28-.93.56-1.34-.59-.34-1.19-.7-1.75-1.1-.13-.09-.26-.19-.4-.29-.08-.06.03.03.04.03-.04-.03-.07-.06-.11-.09-.07-.06-.14-.12-.21-.17-.24-.21-.48-.42-.7-.64s-.45-.47-.67-.72c-.1-.11-.19-.22-.28-.33-.05-.06-.1-.12-.15-.18-.02-.03-.04-.05-.06-.08-.14-.17.08.11,0,0-.36-.52-.72-1.04-1.03-1.6-.15-.27-.29-.55-.42-.84-.07-.14-.14-.28-.19-.43.06.18.02.04-.02-.05-.03-.08-.07-.17-.1-.25-.23-.6-.43-1.22-.6-1.84s-.31-1.27-.41-1.92c-.03-.16-.05-.32-.07-.48-.02-.11,0,.07,0,.07,0-.05-.01-.09-.02-.14-.01-.09-.02-.18-.03-.28-.04-.32-.07-.65-.09-.97-.09-1.32-.08-2.65.04-3.96.03-.32.06-.64.1-.96,0-.08.02-.16.03-.24.02-.13-.02.16,0,.03,0-.03,0-.07.01-.1.02-.17.05-.34.08-.5.1-.62.22-1.24.36-1.86.37-1.59.87-3.14,1.51-4.64,0,.02-.04.09,0,0,.02-.05.05-.11.07-.16.04-.09.08-.19.12-.28.08-.18.17-.37.25-.55.18-.38.37-.75.56-1.12.38-.73.8-1.44,1.24-2.13.88-1.38,1.82-2.64,2.85-3.89.52-.63,1.07-1.24,1.65-1.83s1.17-1.15,1.71-1.76c.27-.3.53-.59.82-.87.09-.09-.03-.23-.13-.17h0Z"/>
      <path class="cls-3" d="M249.05,106.26c-.79.5-1.56,1.04-2.27,1.65s-1.32,1.29-1.86,2.06c-1.06,1.5-1.8,3.22-2.28,4.99-.98,3.62-.85,7.45.33,11,.33,1,.76,1.97,1.26,2.9s1.12,1.76,1.81,2.55c.43.49,1.18-.14.88-.68-.42-.76-.78-1.56-1.14-2.36-.04-.09-.08-.17-.12-.26-.06-.14-.01-.03,0,0-.02-.05-.05-.11-.07-.16-.08-.21-.17-.42-.24-.63-.15-.4-.29-.81-.42-1.22-.27-.83-.49-1.69-.66-2.55-.08-.44-.17-.88-.23-1.32,0-.05-.01-.1-.02-.14.03.22.01.09,0,.04-.01-.11-.03-.22-.04-.32-.03-.23-.05-.46-.06-.68-.07-.87-.09-1.76-.07-2.63.01-.44.04-.89.08-1.33.02-.2.05-.4.07-.6.02-.14-.03.21,0-.02,0-.05.01-.09.02-.14.02-.12.04-.24.06-.35.3-1.74.85-3.33,1.6-4.82.44-.87.96-1.71,1.51-2.52s1.22-1.61,1.97-2.28c.07-.06-.02-.18-.1-.13h0Z"/>
    </g>
  </g>
  <g>
    <path class="cls-3" d="M342.03,157.14c-.78-3.19-6.84-7.87-10.83-10.59-1.05-.68-1.93-1.25-2.55-1.62-8.71-5.22-14.14-8.61-23.35-13.17-17.45-8.67-35.52-13.75-54.96-13.79-6.39-.02-12.83.78-18.77,2.8-5.82,1.97-11.18,5.14-15.5,9.85-1.73,1.89-3.47,4.17-3.51,6.58-.39-3.62,2.1-7.95,3.66-10.83.88-1.62,1.89-3.17,3.02-4.6,2.18-9.97,5.24-19.69,12.04-28.16,5.2-6.49,11.98-11.8,19.53-15.62,13.3-6.72,28.9-8.45,43.18-5.69,1.95.38,3.89.85,5.8,1.42,3.56,1.07,7.01,2.48,10.29,4.24,1.58.85,3.03,1.94,4.6,2.78.86.46,1.96-.67,2.68-1.2,1.11-.81,1.91-.46,3.02.25,1.48.95,2.69,2.02,3.85,3.32.51.57,1.2,1.18,1.48,1.91s-.21,1.15-.54,1.75c-.35.64-.63,1.46-.53,2.2.16,1.14,1.47,2.26,2.15,3.13,4.35,5.6,7.57,12.04,9.62,18.83s2.97,14.37,2.67,21.67c-.23,5.45-.41,11.1.47,16.3.62,3.56,1.99,4.73,2.49,8.26Z"/>
    <g class="cls-11">
      <path class="cls-22" d="M318.48,135.1c-.14-.2-.29-.39-.43-.59-.08-.11-.12-.24-.22-.34s-.23-.19-.33-.28c-.39-.33-.77-.67-1.16-1s-.78-.68-1.17-1.02c-.17-.14-.34-.29-.53-.46-.09-.08-.19-.16-.28-.25-.06-.06-.12-.11-.19-.17-.18-.14.01,0-.13-.1-.44-.34-.88-.68-1.32-1.02-.09-.07-.17-.13-.26-.2-.05-.04-.1-.07-.15-.11.17.13-.15-.12-.15-.11-.21-.15-.42-.3-.63-.46-.79-.57-1.57-1.14-2.37-1.7-3.03-2.15-6.1-4.24-9.27-6.19-3.09-1.91-6.26-3.7-9.49-5.35-3.45-1.76-6.98-3.36-10.57-4.82s-7.56-3.01-11.5-3.98c-3.89-.96-7.9-1.48-11.91-1.58s-8.06.25-12.01,1-7.79,1.95-11.48,3.56c-3.61,1.57-7.09,3.52-10.17,5.99-2.91,2.33-5.29,5.26-7.2,8.44-.24.4-.48.81-.7,1.22s-.36.89-.6,1.31c-.25.44.43.84.68.4.23-.41.59-.77.85-1.16s.53-.78.8-1.16c.53-.74,1.08-1.46,1.67-2.15,1.17-1.4,2.45-2.71,3.81-3.91.68-.6,1.38-1.2,2.1-1.76-.13.1.13-.1.16-.12.08-.06.16-.12.24-.18.2-.15.4-.29.6-.43.38-.27.77-.53,1.17-.79,1.64-1.06,3.36-2,5.11-2.85.44-.21.88-.42,1.32-.62.21-.09.42-.19.63-.28.11-.05.22-.1.34-.14.18-.08.05-.02.02,0,.07-.03.14-.06.21-.09.91-.38,1.83-.73,2.77-1.06,1.84-.65,3.71-1.21,5.6-1.66.95-.23,1.9-.43,2.86-.61.49-.09.99-.18,1.49-.26.23-.04.45-.07.68-.1.12-.02.24-.03.36-.05.06,0,.12-.02.18-.03-.15.02-.04,0,.05,0,1.95-.25,3.92-.41,5.88-.45s3.91,0,5.85.17c.49.04.97.09,1.46.14.24.03.49.05.73.08.12.01.24.03.36.05.05,0,.09.01.14.02.12.02-.15-.02.05,0,.98.14,1.96.3,2.93.49,1.93.38,3.85.86,5.72,1.46s3.83,1.33,5.72,2.06c.93.36,1.85.73,2.77,1.1.23.09.45.19.68.28.11.05.22.09.34.14.06.02.11.05.17.07.08.03.1.04,0,0,.46.19.91.39,1.37.59,1.73.75,3.44,1.54,5.13,2.36,3.24,1.58,6.42,3.3,9.52,5.14s6.18,3.82,9.18,5.86c1.56,1.06,3.12,2.15,4.66,3.25.81.58,1.63,1.13,2.45,1.7.4.28.85.52,1.27.78s.85.54,1.28.81.84.53,1.25.8c.11.07.21.15.32.22.12.07.26.07.39.12.23.09.46.17.69.26.15.05.31-.15.21-.27h0Z"/>
      <path class="cls-22" d="M270.22,100.08c.04-.83.22-1.66.46-2.45.27-.89.56-1.78.88-2.64.61-1.63,1.35-3.25,2.16-4.83.86-1.66,1.92-3.3,3.05-4.7,1.2-1.5,2.5-2.93,3.92-4.23,2.69-2.45,6-4.45,9.41-5.67,1.81-.65,3.68-1.12,5.58-1.38,2.12-.29,4.33-.32,6.49-.17s4.26.49,6.39.89c1.09.21,2.17.44,3.26.68s2.15.55,3.23.76c.54.11,1.08.21,1.63.32.72.14,1.01-.87.3-1.11-1.08-.37-2.16-.72-3.26-1.02s-2.17-.58-3.27-.85c-2.24-.54-4.5-.96-6.79-1.21-4.33-.47-8.7-.2-12.87,1.13-3.74,1.19-7.23,3.1-10.25,5.61s-5.59,5.63-7.52,9.06c-.93,1.64-1.73,3.38-2.43,5.14-.35.88-.67,1.78-.92,2.7s-.33,1.87-.32,2.78c0,.43.05.87.12,1.3s.74.31.76-.1h0Z"/>
      <path class="cls-22" d="M240.91,100.12c.05-.15.06-.15.11-.27.1-.23.1-.47.13-.72-.01.09.01-.09.02-.12.01-.08.03-.16.04-.23.03-.17.07-.35.11-.52.17-.71.39-1.42.61-2.11.45-1.41.89-2.84,1.46-4.21,1.21-2.92,3.12-5.77,5.06-8.22s4.05-4.64,6.38-6.67,4.92-3.82,7.7-5.24c1.5-.77,3.06-1.42,4.65-1.98s3.27-1,4.86-1.61c.41-.16.83-.32,1.24-.48.5-.19.31-.92-.22-.81-.86.17-1.74.32-2.58.57s-1.7.51-2.54.79c-1.66.55-3.31,1.16-4.92,1.87-3.01,1.33-5.82,3.06-8.41,5.08s-4.72,4.2-6.72,6.63c-2.14,2.59-4.14,5.36-5.56,8.42-.67,1.45-1.15,2.97-1.65,4.48-.47,1.43-.92,2.89-.94,4.42,0,.23,0,.43.1.64.06.13.13.26.2.39.22.38.74.26.87-.11h0Z"/>
      <path class="cls-22" d="M326.55,123.29c0,.06,0,.12.01.18,0,.03,0,.06.01.09,0,.06.01.13.03.19,0,.02.01.03.02.05.01.03.02.06.03.09,0,.02.01.03.02.05,0,0,0,.01,0,.02.01.03.05.13.07.16,0,0,0,.01,0,.02.03.06.07.12.1.18.18.29.39.56.6.83.1.13.21.26.32.38.07.08.16.13.26.17.1.05.2.07.31.07.11,0,.22-.02.31-.07.1-.03.19-.09.26-.17l.13-.16c.07-.13.11-.26.11-.41l-.03-.21c-.04-.14-.11-.26-.21-.36-.22-.17-.44-.36-.65-.55-.1-.09-.2-.19-.3-.29-.05-.05-.09-.1-.14-.15-.02-.02-.04-.05-.07-.07-.03-.02-.05-.04-.08-.07-.03-.02-.06-.05-.08-.07-.06-.06-.13-.1-.2-.15-.06-.04-.11-.08-.16-.12l.09.07s-.01,0-.02-.01l-.09-.07-.11-.05-.12-.02c-.06,0-.12.01-.17.04-.04.01-.07.03-.1.06-.03.02-.06.05-.08.08-.03.03-.05.06-.06.1-.03.05-.04.11-.04.17h0Z"/>
      <path class="cls-22" d="M302.21,103.24c.05-.01.1-.03.15-.04h-.27.02c.1.03.2.03.3,0,.09-.03.18-.07.25-.14.06-.06.13-.11.2-.16l-.12.09c.07-.06.15-.11.23-.17.12-.09.24-.19.36-.28l-.14.11c.29-.22.59-.42.9-.6.04-.02.08-.05.12-.07.08-.04.15-.08.21-.15l.06-.08c.07-.07.11-.16.14-.26,0,0,0,0,0-.01.02-.07.02-.15.03-.22l-.03.2s.01-.07.01-.1c0-.03.01-.07.01-.1,0,0,0,0,0-.01,0,0,0-.01,0-.02l-.02-.18c-.02-.09-.06-.16-.12-.23-.03-.05-.07-.09-.12-.12-.07-.06-.14-.1-.23-.12-.02,0-.04-.02-.06-.02,0,0-.01,0-.02,0h-.1c-.07-.03-.14-.03-.21-.01h-.1c-.1.04-.19.08-.26.15-.04.03-.08.06-.12.09-.05.04-.11.09-.16.13-.11.09-.22.19-.33.29s-.22.21-.33.32c-.05.06-.11.11-.16.17-.09.1-.17.2-.25.3-.1.13-.19.27-.27.41-.05.09-.08.18-.08.28,0,.1.03.2.08.28v.02c-.01-.09-.04-.17-.06-.26,0,.05,0,.11,0,.16,0,.07.02.13.05.2.02.05.06.08.1.11.04.03.08.06.13.07.07.02.14.02.21,0h0Z"/>
      <path class="cls-22" d="M323.13,88.81s-.02-.02-.03-.04l.1.17c-.03-.17-.17-.28-.31-.37-.11-.07-.23-.09-.35-.12-.16-.04-.32-.09-.48-.12-.33-.05-.66-.12-.99-.2s-.65-.15-.97-.23-.66-.17-.99-.25c-.37-.09-.74-.18-1.11-.25-.19-.04-.39-.03-.56.07-.15.09-.29.26-.33.43-.04.19-.03.39.07.56.1.15.25.3.43.33.63.12,1.25.28,1.87.43.32.08.63.15.95.22.36.08.73.12,1.09.17.17.02.35.05.52.04.23-.02.45-.04.67-.07l-.15.02c.13-.02.21-.03.32-.09.02,0,.03-.02.05-.03.12-.07.23-.18.26-.33l-.1.17s.02-.02.03-.04c.12-.13.13-.33,0-.47h0Z"/>
    </g>
  </g>
</svg>