<?xml version="1.0" encoding="UTF-8"?>
<svg id="Layer_1" data-name="Layer 1" xmlns="http://www.w3.org/2000/svg" xmlns:xlink="http://www.w3.org/1999/xlink" viewBox="0 0 300 500">
  <defs>
    <style>
      .cls-1 {
        fill: #80acff;
      }

      .cls-2 {
        fill: #8189c4;
      }

      .cls-3 {
        fill: #041063;
      }

      .cls-4 {
        fill: #326bf5;
      }

      .cls-5 {
        fill: #c7966e;
      }

      .cls-6 {
        fill: #00003f;
      }

      .cls-7 {
        clip-path: url(#clippath-1);
      }

      .cls-8 {
        clip-path: url(#clippath-3);
      }

      .cls-9 {
        clip-path: url(#clippath-4);
      }

      .cls-10 {
        clip-path: url(#clippath-2);
      }

      .cls-11 {
        clip-path: url(#clippath-7);
      }

      .cls-12 {
        clip-path: url(#clippath-6);
      }

      .cls-13 {
        clip-path: url(#clippath-8);
      }

      .cls-14 {
        clip-path: url(#clippath-5);
      }

      .cls-15 {
        fill: #63d991;
      }

      .cls-16 {
        fill: #041163;
      }

      .cls-17 {
        fill: #28318c;
      }

      .cls-18 {
        fill: #e2e92e;
      }

      .cls-19 {
        clip-path: url(#clippath);
      }

      .cls-20 {
        fill: #765238;
      }
    </style>
    <clipPath id="clippath">
      <path class="cls-2" d="M35.25,120.89h61.83v94.08h-61.83c-.71,0-1.28-.58-1.28-1.28v-91.51c0-.71.58-1.28,1.28-1.28Z"/>
    </clipPath>
    <clipPath id="clippath-1">
      <path class="cls-17" d="M97.09,120.89h52.75c.71,0,1.28.58,1.28,1.28v91.51c0,.71-.58,1.28-1.28,1.28h-52.75v-94.08h0Z"/>
    </clipPath>
    <clipPath id="clippath-2">
      <polygon class="cls-18" points="132.98 151.57 120.84 151.57 118.11 120.89 130.24 120.89 132.98 151.57"/>
    </clipPath>
    <clipPath id="clippath-3">
      <path class="cls-5" d="M191.62,98.03c-1.16,3.8-2.84,7.41-4.38,11.08-.87,2.08-1.71,4.22-2,6.45-.01.11-.03.23-.03.34-3.89,1.45-7.56,3.33-11.2,5.37-3.32,1.87-6.74,3.57-10.06,5.46-.54-1.25-1.12-2.45-1.64-3.57-1.89-4-6.37-2.91-10.06-4.09-3.46-1.1-4.52-4.37-4.78-7.66-.14-1.8-.21-6.2-.52-6.79-.65-1.16-6.03-.65-5.33-3.16.36-1.27,2.25-2.3,3.21-3.13,1.24-1.05,2.58-2.08,3.44-3.5.91-1.49,1.1-3.28,1.32-4.99.74-5.77,1.76-11.37,6.61-15.14,3.87-3,8.96-4.45,13.91-4.57,5.9-.14,12.39,1.8,17,5.84,6.46,5.65,6.85,14.27,4.49,22.06Z"/>
    </clipPath>
    <clipPath id="clippath-4">
      <path class="cls-15" d="M210.81,214.05c-.87,3.6-2.8,7.29-5.84,9.51-.22.15-.44.3-.69.43-2.09,1.13-5.08,1.39-7.29,1.68-1.75.23-3.65.39-5.4.3-1.83-.1-3.44-.68-4.93-1.47-3.15.9-6.32,1.87-9.51,2.42-4.28.73-8.42.92-12.77.92-.58,0-1.3.01-2.08.03-2.25.04-4.35-.72-6.01-2.05-1.42-1.13-2.51-2.69-3.09-4.52-1.46-4.7-1.31-9.22-.81-14.96.5-5.73,1.18-11.32,2.26-16.96.99-5.3-.74-10.33-.61-15.66.12-5,1.42-9.88,1.94-14.85.34-3.32.9-6.79,1.94-9.96.87-2.63,2.18-5.14,3.42-7.65-1.43-.15-1.36-.9-1.63-2.56-.21-1.31-.45-2.59-.62-3.89-.17-1.25-.72-3.32-.23-4.52.47-1.16,2.37-2.01,3.44-2.63.54-.32,1.09-.63,1.64-.92,3.32-1.89,6.74-3.58,10.06-5.46,3.64-2.04,7.32-3.93,11.2-5.37.51-.19,1.03-.37,1.54-.55,1.53-.5,2.82-1.01,3.79.54.66,1.03,1.03,2.12,1.43,3.25.36.99,1.18,2.07,1.23,3.15.01.36-.1.73-.28,1.09,1.13.7,2.3,2.04,2.91,2.74,3.89,4.59,6.05,10.54,8.1,16.12,2.33,6.35,4.15,12.95,4.51,19.74.37,6.68-.12,13.38-.08,20.07.04,6.57,1.02,13.03,1.75,19.56.48,4.22,1.71,8.2.7,12.43Z"/>
    </clipPath>
    <clipPath id="clippath-5">
      <path class="cls-1" d="M255.38,390.31c-.52.92-1.65,1.61-3.49,2.38-4.64,1.96-9.38,4.56-13.65,7.22-1.98,1.23-4.97,2.41-7.27,3.02-.1.03-.18.04-.26.07-2.93.74-3.73-1.5-4.41-3.94-.4-1.5-14.3-29.81-19.88-39.15-2.65-4.44-5.66-8.62-8.56-12.91-2.44-3.6-3.65-7.83-5.06-11.92-3.9-11.28-10.04-21.75-13.07-33.34-.81-3.11-1.82-6.14-2.87-9.18-3.21,7.01-6.9,13.67-10.43,20.58-1.89,3.71-3.72,7.04-5.28,10.9-1.69,4.19-2.88,8.49-4.73,12.62-1.9,4.2-4.41,7.91-6.78,11.85-.83,1.39-1.83,2.91-2.77,4.49-.17,1.53-.47,3.02-.94,4.49-2.41,7.58-7.37,14.96-11.13,21.99-2.67,5-5.55,10.1-8.05,15.25-.34,2.98-.72,5.95-1.34,8.89-.72,3.4-.74,7.26-2.03,10.48-.63,1.58-.79,2.76-2.58,1.94-1.24-.56-2.41-1.6-3.51-2.55-.3-.28-.61-.54-.91-.79-3.5-2.91-6.57-6.34-10.06-9.31-1.89-1.6-3.72-3.24-5.61-4.82-1.2-1.01-2.74-1.92-3.8-3.03-.23.26-.48.5-.73.69-1.97-4.75,2.93-8.96,4.16-12.17,2.63-6.83,18.31-50.18,20.47-56.49,1.25-3.71,2.34-7.48,3.49-11.2,3.28-10.75,9.52-20.83,14.63-30.82,3.1-6.08,6.56-12.08,9.34-18.28,2.66-5.94,6.35-11.86,8.64-18.09-.12-4.68-.59-9.34-.59-14.04,0-2.98-.51-6.32-.06-9.34,1.65,1.34,3.76,2.09,6.01,2.05.79-.01,1.5-.03,2.08-.03,4.35,0,8.49-.19,12.77-.92,3.18-.55,6.35-1.53,9.51-2.42,1.49.8,3.1,1.38,4.93,1.47,1.75.08,3.65-.07,5.4-.3,2.2-.29,5.19-.55,7.29-1.68,1.34,2.99,2.71,5.94,3.49,9.2.74,3.2,1.31,6.41,1.89,9.64.61,3.47.69,7,.88,10.5.17,3.04.61,5.94.39,9-.22,2.77-1.01,5.5-1.13,8.23-.11,2.48.01,4.97.22,7.47,1.14,3.4,2.16,6.89,3.5,10.18,3.21,7.91,6.25,16.64,6.6,25.27.12,3.21.29,6.31.91,9.45,8.25,13.96,25.01,44.07,26.93,47.97,2.38,4.82,4.82,9.63,6.86,14.62.94,2.29,1.18,3.71.56,4.81Z"/>
    </clipPath>
    <clipPath id="clippath-6">
      <path class="cls-1" d="M129.64,211.8c0,1.38-.22,2.41-.59,3.18-1.25,2.7-4.23,2.38-5.65,2.63-1.63.29-3.71.47-5.46.1-.8,1.41-2.49,2.7-3.6,3.8-1.24,1.24-2.65,2.41-4.12,3.36-1.13.73-2.69,1.1-4.05.92-.96-.12-2.65-.5-3.68-1.18-2.42,1.21-5.18,1.57-6.38-.96-2.09.48-4.33-.1-5.07-2.29-1.54.59-3.22.48-4.51-.83-1.31-1.35-1.32-3.72-.7-5.57h5.04c.81-.83,1.63-1.67,2.44-2.54.91-.98,1.85-1.96,2.77-2.93.66-.72,1.2-1.56,1.75-2.37-3.21-1.58-8.42,1.05-11.3-2.27-.95-1.1-.52-2.78.62-3.54,1.39-.94,3.27-.4,4.79-.39,2.6.01,4.77-1.38,7.29-.77,2.11.51,4.44-.1,6.49.39,1.02.22,2.01.73,3.02,1.21,3.17-1.71,6.5-2.08,10.29-2.85,1.18-.23,2.38-.41,3.58-.65.72-.12,1.78-.62,2.51-.34.79.29,1.36,1.05,1.83,1.97.65,1.31,1.05,2.95,1.35,3.93.8,2.58,1.3,5.28,1.32,7.99Z"/>
    </clipPath>
    <clipPath id="clippath-7">
      <path class="cls-5" d="M179.85,191.15c-.4,1.24-.81,2.48-1.2,3.71-.72,2.3-1.47,4.6-2.34,6.81-1.14,2.88-2.11,6.76-4.42,8.97-1.1,1.05-3,1.16-4.44,1.42-1.96.36-4,.45-5.98.63-5,.45-10.07.94-15.1,1.28-4.01.28-8.03.52-12.04.72-1.71.1-3.51.26-5.29.3.37-.77.59-1.8.59-3.18-.03-2.71-.52-5.41-1.32-7.99-.3-.98-.7-2.62-1.35-3.93,1.01-.26,1.96-.56,2.65-.74,3.02-.77,6.01-1.5,9.02-2.27,3.62-.92,7.33-1.63,10.94-2.53,1.65-.41,3.87-1.14,5.91-1.23.37-1.09.79-2.16,1.18-3.22.84-2.22,1.58-4.49,2.34-6.74.99.88,2.37,1.57,3.36,2.01,5.68,2.54,11.59,4.23,17.48,5.99Z"/>
    </clipPath>
    <clipPath id="clippath-8">
      <path class="cls-15" d="M193.77,157.3c-.88,3.58-.83,7.23-1.53,10.84-.47,2.42-1.6,4.78-2.52,7.05-.56,1.39-1.14,2.88-1.8,4.28-.01.33-.04.65-.08.96-.29,2.56-.72,5.13-1.06,7.67-.14,1.1-.17,3.39-1.17,4.04-.91.59-2.95-.18-3.86-.44-.63-.19-1.25-.37-1.89-.56-5.9-1.76-11.81-3.46-17.48-5.99-.99-.44-2.37-1.13-3.36-2.01-.51-.47-.91-.98-1.1-1.56-.4-1.17.36-2.31.65-3.4.55-1.98.63-4.17,1.01-6.2.61-3.27,2.15-6.2,3.38-9.33,1.07-2.76,1.96-5.8,2.63-8.72.94-4.13,1.76-8.49,4.35-11.97,2.54-3.39,6.57-5.95,10.83-6.37,4.6-.45,9.2,1.49,12.17,5.04,3.98,4.79,2.19,11.23.85,16.66Z"/>
    </clipPath>
  </defs>
  <g>
    <g>
      <g>
        <path class="cls-2" d="M35.25,120.89h61.83v94.08h-61.83c-.71,0-1.28-.58-1.28-1.28v-91.51c0-.71.58-1.28,1.28-1.28Z"/>
        <g class="cls-19">
          <path class="cls-3" d="M49.14,202.62c.12-.05.24-.1.35-.16.08-.04.16-.08.23-.13.19-.13.37-.27.54-.42.28-.24.55-.5.81-.76.07-.07.15-.14.22-.21.04-.03.08-.07.11-.1s.07-.08.1-.12c.07-.06.11-.13.14-.22.04-.08.06-.17.06-.26,0-.09-.02-.18-.06-.26-.03-.08-.07-.16-.14-.22l-.14-.11c-.1-.06-.22-.09-.34-.09l-.18.02c-.11.03-.21.09-.3.17-.03.03-.07.06-.1.09s-.06.06-.09.09c-.06.07-.12.14-.17.2-.12.14-.23.28-.35.41-.23.27-.47.54-.73.78-.04.03-.08.06-.11.1s-.07.07-.1.1c-.07.06-.14.12-.21.18l.1-.08s-.03.02-.04.03c-.06.03-.11.08-.14.13-.05.05-.08.11-.09.17l-.02.14c0,.07.01.14.04.2.01.04.03.08.07.11.04.06.08.1.14.13l.12.05c.09.02.18.02.27,0h0Z"/>
          <path class="cls-3" d="M62.99,141.95c.07.04.14.09.2.14l-.09-.07c.17.13.33.28.49.43.08.08.16.16.25.24s.17.17.26.25c.32.32.63.67.95.99.08.08.16.16.24.23.04.03.07.07.11.1.04.03.08.06.11.1l-.12-.15c.07.12.17.23.3.29.07.03.14.07.22.09l.19.03c.1,0,.19-.02.28-.06.06-.02.12-.05.16-.09.08-.05.14-.12.19-.21l.07-.17.03-.19c0-.1-.02-.19-.06-.28-.03-.09-.08-.17-.15-.24-.01-.01-.03-.03-.04-.04,0,0,0,0-.01,0-.03-.02-.05-.04-.08-.06-.05-.05-.1-.08-.16-.1-.05-.02-.07-.03-.12-.05l.18.07c-.07-.03-.13-.08-.19-.13-.07-.05-.14-.1-.2-.15l.14.11c-.32-.25-.63-.52-.95-.77-.21-.17-.42-.33-.63-.49-.08-.06-.17-.12-.26-.17s-.18-.1-.27-.15c-.23-.1-.46-.2-.71-.26-.2-.05-.41.05-.49.24s0,.41.17.52h0Z"/>
          <path class="cls-3" d="M90.12,166.29c-.09.03-.18.07-.27.11l.08-.03c-.12.04-.23.09-.34.14l.1-.04c-.08.03-.16.07-.23.12s-.15.11-.22.17c-.09.08-.17.16-.26.24-.16.16-.31.32-.46.5-.1.12-.2.25-.29.38l.09-.11s-.06.07-.09.1c-.06.07-.11.14-.17.21-.02.03-.05.06-.07.09,0,.01-.02.03-.03.04-.03.05-.04.03-.07.16,0,.03,0,.06-.01.09,0,.03-.01.06-.01.09,0,0,0,0,0,.01l.02.17s0,0,0,0c.03.1.08.19.16.27.06.06.12.1.2.13.07.04.15.06.24.05.11,0,.21-.03.31-.08.05-.02.1-.07.14-.11.02-.02.04-.05.05-.07.06-.08.08-.11.11-.22,0-.02,0-.03.01-.05.01-.04.02-.07.03-.11.03-.08.06-.16.09-.23l-.06.13c.06-.12.13-.24.2-.36.08-.13.16-.25.25-.38.05-.07.1-.14.16-.21l-.07.1c.06-.08.12-.15.18-.22.08-.1.15-.2.23-.3l-.06.08c.05-.06.09-.13.14-.2.03-.04.05-.08.08-.11l-.05.06c.05-.05.1-.1.15-.15l.04-.06s.03-.07.03-.1c0-.06,0-.12-.03-.18-.03-.04-.06-.07-.1-.1-.05-.04-.15-.05-.21-.03h0Z"/>
          <path class="cls-18" d="M42.82,216.96c-.29-3.43,1.18-7.27,1.85-10.62s1.22-6.85,1.9-10.22c1.52-7.6,3.33-15.2,4.9-22.81.7-3.41,1.45-6.8,2.34-10.18,2.18.81,4.4,1.18,6.54,2.1s4.11,1.33,4.11,1.33c0,0-6.4,33.8-7.75,40.28-.43,2.03-.97,4.05-1.49,6.06-.73,2.83-.81,6.15-1.89,8.84l-10.5-4.79Z"/>
          <path class="cls-4" d="M45.74,216.03c.12.07.24.14.35.22l-.1-.08s.09.08.14.1l-.1-.08c.08.07.16.15.26.2.07.04.13.08.19.12l-.13-.1s.1.08.15.12c.06.03.12.05.18.08l-.16-.07c.16.08.32.18.49.26s.34.17.5.26c.33.18.66.34.99.51.49.24.98.49,1.48.69.19.08.38.14.58.19.23.05.48.09.72.06s.37-.06.59-.16c.12-.06.24-.15.34-.24.22-.21.37-.51.44-.8.05-.18.07-.37.08-.56.01-.14.02-.29,0-.44-.03-.37-.13-.71-.3-1.04-.15-.29-.35-.55-.57-.78-.23-.25-.5-.46-.78-.66-.24-.17-.49-.31-.76-.43-.3-.14-.61-.26-.94-.33s-.63-.1-.94-.09-.65.06-.95.18-.57.27-.8.51c-.18.18-.33.39-.44.62-.22.43-.33.89-.48,1.35-.03.1-.07.2-.11.3l.06-.15c-.03.06-.06.12-.08.19-.04.13-.03.22,0,.35,0,.03.01.07.02.1.04.25.39.45.62.35.11-.04.21-.08.31-.15.11-.08.17-.18.22-.29.05-.1.1-.2.14-.3.11-.25.2-.5.31-.74l-.07.16c.05-.13.11-.25.16-.38l-.07.16c.09-.21.19-.41.32-.58l-.11.14c.08-.1.17-.19.27-.27l-.14.11c.11-.08.22-.15.34-.2l-.16.07c.16-.07.33-.11.51-.13l-.18.02c.25-.03.51-.03.76,0l-.18-.02c.31.04.62.14.91.26l-.17-.07c.36.15.71.35,1.02.6l-.14-.11c.24.18.45.39.64.62l-.11-.14c.13.18.25.36.34.57l-.07-.17c.06.15.11.31.13.47l-.03-.19c.03.21.01.43-.01.65l.03-.2c-.02.15-.06.31-.12.45l.08-.18c-.03.07-.07.14-.12.21l.12-.15s-.08.09-.12.12l.15-.12s-.1.07-.15.09l.18-.08c-.06.02-.12.04-.18.05l.2-.03c-.1.01-.21,0-.31,0l.2.03c-.25-.04-.49-.12-.72-.22l.19.08c-.37-.16-.73-.33-1.1-.5-.3-.13-.59-.28-.89-.42-.36-.17-.72-.33-1.1-.46-.17-.06-.36-.1-.54-.14-.26-.06-.54-.06-.8,0l.13-.02c-.11,0-.2.03-.29.08l.12-.05c-.13.02-.26.06-.39.1-.12.04-.21.13-.22.26-.02.12.04.25.15.31h0Z"/>
          <path class="cls-4" d="M47.27,208.25h-.01s.08-.05.13-.08c-.12.08-.21.15-.29.28-.02.03-.04.07-.06.1-.04.07-.08.14-.12.2-.07.12-.11.27-.16.4-.03.08-.05.16-.07.24-.07.22-.09.45-.12.68-.02.17-.04.33-.05.5l.03.22c.03.11.07.2.15.28.1.13.26.27.42.29,1.32.2,2.59.6,3.87.93.35.09.71.18,1.07.26.14.04.29.04.43,0,.1-.02.2-.07.27-.14.09-.06.16-.13.21-.23.07-.13.11-.26.11-.41.03-.37.08-.74.13-1.11s.1-.74.1-1.11c0-.03,0-.06,0-.09,0-.08-.01-.17-.03-.24-.06-.21-.2-.37-.38-.49-.1-.06-.14-.07-.21-.09-.05-.01-.16-.03-.21-.03-.12,0-.29.03-.38.11l-.15.11c-.07.07-.12.14-.15.23-.06.15-.07.31-.04.47h0c0-.06-.02-.12-.03-.19,0,0,0,0,0,0l.03-.2s0,0,0,0l.08-.18s0,0,0,.01l.12-.16s0,0-.01.01c-.09.11-.17.21-.21.36-.05.19-.02.25,0,.44l-.03-.21c.01.11,0,.22,0,.32,0,.16-.03.32-.04.48-.04.36-.09.71-.13,1.06-.02.16-.04.31-.05.47l1.02-.78c-1.3-.29-2.56-.7-3.86-1-.36-.08-.72-.15-1.08-.21l.6.78c0-.18.03-.35.05-.52l-.03.22c.02-.17.05-.34.07-.5,0-.1.02-.21.03-.31l-.03.21c.03-.2.07-.39.08-.59,0-.06,0-.13.02-.19.01-.11,0-.23-.03-.34l.02.16v-.02c-.02-.11-.03-.21-.09-.31-.07-.11-.17-.2-.29-.25-.1-.04-.2-.06-.32-.04-.14.02-.24.07-.35.17h0Z"/>
          <path class="cls-4" d="M49.79,208.42c-.03.05-.07.11-.11.16l.07-.09s-.02.02-.02.03c-.02.02-.03.04-.05.06-.03.03-.05.07-.06.11,0,.02-.02.05-.03.07l.05-.12c-.05.1-.1.2-.16.3s-.08.21-.12.31c-.02.06-.05.12-.07.18l.07-.16c-.05.13-.11.25-.16.38-.03.07-.05.15-.08.22-.06.15-.11.3-.16.44-.03.07-.05.15-.07.22-.01.03-.02.07-.03.1-.03.1-.03.22-.04.33-.01.17,0,.35.1.5.08.13.18.25.31.33,0,0,.02,0,.02.01.12.06.21.1.35.1.02,0,.17-.02.19-.03,0,0,.01,0,.02,0,.17-.06.15-.05.26-.14.04-.03.06-.05.09-.08,0,0,0,0,.01-.01,0,0,0,0,.01-.01.08-.07.13-.16.17-.26.03-.07.04-.07.04-.12,0-.01,0-.02,0-.03,0-.04.02-.09.03-.13.03-.15.03-.31.06-.46l-.03.21c.03-.24.08-.48.12-.71.03-.18.05-.35.07-.53.01-.17.02-.34-.01-.5-.01-.06-.03-.12-.05-.18,0-.03-.02-.06-.03-.09,0-.01,0-.03-.01-.04,0,0,0-.01,0-.02l-.05-.12s-.05-.07-.08-.11l.08.1c-.07-.09-.13-.18-.21-.26-.07-.07-.16-.1-.26-.08s-.17.06-.22.15h0Z"/>
          <path class="cls-4" d="M48.14,206.88h0c-.11-.03-.23-.06-.34-.09,0,0,.02,0,.03.02l-.26-.26h0c.12.23.39.37.64.37h0c-.07,0-.13-.02-.2-.03h0c-.06-.02-.12-.05-.18-.07.15.06.3.14.46.12.04,0,.08,0,.11,0,.08,0,.17,0,.25.02l-.22-.03c.14.02.28.04.42.06l-.23-.03c.63.09,1.23.32,1.84.53.63.21,1.26.45,1.9.63.34.1.69.16,1.05.16l.23-.03c.11-.03.21-.08.3-.16.14-.11.28-.27.32-.46.06-.3.11-.61.14-.92.03-.24.04-.48.02-.72s-.03-.48-.14-.69c-.16-.31-.57-.47-.9-.38s-.59.43-.6.78c0,.24,0,.48-.04.71l.03-.22c-.04.33-.12.65-.21.97l.85-.65s-.05,0-.08,0l.23.03c-.14-.02-.27-.06-.41-.09-.16-.04-.32-.08-.48-.13-.37-.11-.74-.24-1.11-.37-.39-.13-.78-.27-1.17-.38-.43-.12-.86-.2-1.31-.26-.17-.02-.34-.03-.52,0-.14.02-.28.03-.42.07-.03,0-.07.02-.1.03-.13.05-.25.1-.35.2-.04.05-.09.12-.13.17,0,.01-.01.02-.02.03l.27-.27h0c-.11.07-.2.16-.26.27-.07.11-.1.24-.1.37h0c0-.06.02-.12.03-.18,0,0,0,.02,0,.03l.18-.3h0c-.04.05-.07.1-.11.14l-.07.16c-.04.15-.02.3.03.44.05.11.11.2.21.27.11.09.27.16.41.15h0Z"/>
          <path class="cls-4" d="M49.09,202.04c.12.07.24.16.38.21.21.09.42.18.63.26.32.12.64.22.96.32s.67.21,1.01.29.66.17.99.26c.17.05.34.09.51.15.08.02.15.05.23.07.04.01.07.02.11.04.02,0,.04.01.05.02.04.01.2.03.24.03.12,0,.23-.02.34-.08.04,0,.08-.02.11-.05l.18-.14c.08-.08.14-.17.18-.28.04-.07.06-.14.06-.22.03-.12.02-.23-.02-.35-.02-.08-.03-.12-.09-.22l-.07-.09c-.04-.07-.09-.12-.16-.16l-.09-.07-.21-.09s-.02,0-.03,0c-.03-.01-.06-.02-.1-.03-.07-.02-.14-.05-.21-.07-.15-.05-.29-.09-.44-.14-.32-.1-.64-.18-.96-.27-.67-.18-1.35-.33-2.01-.55-.17-.05-.34-.11-.51-.18-.15-.06-.31-.1-.46-.16-.11-.03-.22-.04-.33-.01-.11,0-.21.04-.3.1l-.17.13c-.08.07-.14.16-.17.26-.04.06-.06.13-.06.21-.02.11-.02.22.01.33.07.2.19.38.38.49h0Z"/>
          <path class="cls-4" d="M52.48,196.25c-.06-.09-.13-.18-.2-.27l.17.3s-.02-.06-.04-.09c-.03-.09-.08-.16-.14-.22-.05-.04-.11-.08-.16-.12-.02-.01-.04-.03-.06-.04l.15.11c-.11-.1-.21-.16-.36-.2-.02,0-.04-.01-.07-.02-.05-.01-.09-.02-.14-.03-.15-.03-.31-.05-.47-.05-.3,0-.62.1-.88.25-.56.33-.89.95-.91,1.6-.02.59.31,1.12.67,1.55.14.16.29.31.45.45.21.18.43.35.66.5.35.23.72.41,1.12.54.2.06.4.1.6.14.28.04.55.08.83.08.11,0,.21,0,.31-.02.17-.02.33-.04.5-.08s.31-.1.46-.17c.09-.04.17-.09.25-.14.12-.09.24-.18.34-.29.09-.11.18-.22.25-.35s.13-.27.17-.41c.03-.08.05-.17.06-.25.04-.24.07-.48.05-.72-.02-.23-.05-.47-.13-.68-.1-.27-.22-.5-.42-.71-.09-.09-.2-.18-.31-.24-.08-.05-.18-.09-.27-.12-.09-.04-.19-.04-.29-.05-.03,0-.07,0-.1,0-.1,0-.2,0-.29.04l.2-.03h-.01c-.1,0-.2.02-.29.07-.09.03-.17.08-.24.15-.13.13-.23.34-.22.53s.07.39.22.53c.14.13.33.24.53.22h.01c-.07,0-.13-.02-.2-.03.08.02.16.02.24.03l-.2-.03c.08.01.16.04.23.07l-.19-.08s.09.05.14.08l-.16-.12c.05.04.1.09.14.15l-.12-.16c.06.08.11.16.14.25l-.08-.19c.06.14.09.28.11.43l-.03-.21c.02.17.02.35,0,.52l.03-.21c-.02.15-.06.29-.11.43l.08-.19c-.04.1-.1.2-.17.29l.12-.16c-.05.07-.11.13-.18.18l.16-.12c-.09.07-.19.12-.29.17l.19-.08c-.16.06-.32.1-.49.13l.21-.03c-.29.04-.58.03-.87-.01l.21.03c-.34-.05-.68-.13-1-.26l.19.08c-.32-.14-.62-.33-.9-.55l.16.13c-.27-.21-.53-.45-.74-.72l.13.17c-.11-.14-.2-.29-.27-.45l.08.2c-.05-.11-.08-.22-.09-.34l.03.22c-.01-.09,0-.18,0-.27l-.03.22c.02-.11.04-.21.08-.31l-.08.19c.04-.08.08-.16.13-.23l-.13.16c.05-.07.11-.12.18-.18l-.16.13c.07-.06.15-.1.24-.14l-.19.08c.14-.06.3-.1.45-.12l-.2.03c.12-.01.23-.02.35,0l-.19-.03c.16.02.25.04.41,0l-.19.03s.06,0,.08,0l-.18-.02c.13.02.25.04.38,0,.12-.04.21-.1.31-.18l-.3.17c.05-.01.1-.03.16-.04.17-.03.3-.18.37-.33.07-.16.07-.35-.03-.5h0Z"/>
          <path class="cls-4" d="M56.41,195.42c-.04-.06-.07-.13-.11-.18-.09-.12-.18-.24-.28-.36l.12.16c-.09-.12-.17-.21-.27-.3-.06-.06-.12-.11-.18-.16-.18-.16-.37-.32-.57-.46-.33-.24-.67-.47-1.01-.7-.67-.45-1.34-.88-2.03-1.3-.25-.16-.5-.31-.73-.49l.16,1.27c.07-.09.16-.17.25-.24l-.16.12c.09-.07.19-.13.29-.17l-.19.08c.19-.08.4-.13.61-.16l-.21.03c.45-.06.9-.03,1.35.03l-.21-.03c.88.12,1.75.36,2.63.5.17.03.35.05.52.07.1.01.2.02.3.01l.22-.03c.11-.03.2-.07.28-.15.14-.11.24-.25.29-.42.04-.15.04-.28,0-.43-.04-.14-.11-.26-.21-.36-.1-.1-.22-.17-.36-.21-.1-.01-.19-.03-.29-.04l.22.03c-.24-.03-.47-.05-.71-.08l.22.03c-.74-.1-1.47-.28-2.21-.4-.44-.07-.88-.13-1.33-.15-.41-.01-.83.02-1.22.13-.45.12-.89.35-1.23.68-.3.29-.33.86,0,1.14.23.2.49.38.75.56.29.2.58.4.88.59.69.44,1.38.87,2.06,1.33.32.22.64.43.94.66l-.16-.12c.14.11.28.21.42.31l-.15-.12c.07.05.13.1.19.16l-.11-.14h0c.11.16.24.28.42.33.17.05.39.03.54-.07s.28-.24.32-.42.04-.39-.07-.54h0Z"/>
          <path class="cls-4" d="M54.83,191.78s-.02.02-.03.02c-.05.03-.09.07-.13.1l.1-.08s-.02.02-.03.02c-.1.07-.15.1-.21.21-.03.04-.05.11-.07.16l.06-.14s-.03.08-.05.11c-.04.09-.08.17-.11.26s-.06.18-.1.26l.07-.17c-.04.1-.09.2-.12.3-.01.05-.03.1-.05.14-.03.1-.07.19-.1.28-.07.19-.14.38-.22.57-.02.05-.05.11-.06.16,0,.03,0,.05-.01.08,0,.05-.01.09-.02.14,0,.07-.01.07-.01.12,0,.06.02.15.03.23.04.13.1.25.2.35.1.1.21.16.35.2.14.04.28.04.42,0,.13-.04.25-.1.35-.2.05-.06.11-.12.15-.2,0-.02.01-.03.02-.05.04-.1.09-.19.11-.29.02-.07.03-.14.05-.21.03-.15.07-.29.1-.44s.06-.3.09-.45c.02-.13.05-.27.05-.41,0-.07,0-.14,0-.21,0-.13-.02-.26-.06-.39s-.08-.25-.17-.34c-.05-.04-.11-.08-.16-.12l.1.07c-.06-.07-.13-.09-.22-.13l.11.05s-.04-.02-.06-.03c-.05-.03-.11-.05-.17-.05-.06,0-.12.02-.17.05h0Z"/>
          <path class="cls-4" d="M57.55,188.98s0,0,0,0l.12.15s-.04-.07-.06-.1l.11.4h0c0-.29-.16-.56-.4-.7-.09-.05-.17-.11-.26-.15-.18-.09-.36-.16-.54-.22-.3-.09-.6-.16-.9-.23-.34-.07-.67-.14-1.02-.19-.4-.06-.79-.11-1.19-.16-.28-.04-.56-.07-.84-.11l.22.03s-.08-.01-.12-.02l.59.59s-.02-.1-.02-.14l.03.22c-.03-.2-.03-.41,0-.62l-.03.22c.03-.2.08-.4.16-.59l-.08.2c.08-.18.18-.35.3-.51l-.13.17c.13-.16.27-.31.44-.43l-.16.13c.17-.13.36-.24.56-.33l-.19.08c.22-.09.45-.15.68-.19l-.21.03c.23-.03.46-.03.69,0l-.21-.03c.32.04.63.15.93.27l-.19-.08c.24.1.47.22.67.38l-.16-.12c.14.11.28.24.39.38l-.12-.15c.1.13.19.28.25.43l-.08-.18c.08.19.13.4.16.61l-.03-.2c.05.39.03.8-.02,1.19l.03-.19c-.03.24-.08.47-.09.71,0,.17.08.38.2.49.11.11.24.17.4.19s.31,0,.44-.08l.14-.11c.09-.09.15-.19.18-.31.03-.09.06-.17.08-.26.02-.08.03-.17.05-.25.04-.22.07-.44.08-.67.03-.36,0-.71-.05-1.06-.05-.32-.17-.64-.33-.92-.1-.17-.22-.33-.35-.47-.14-.15-.3-.28-.47-.41-.33-.25-.71-.41-1.09-.55-.4-.15-.83-.23-1.26-.23-.86,0-1.71.35-2.33.95-.16.16-.3.34-.43.52s-.22.4-.31.62c-.06.16-.11.32-.14.49-.04.24-.07.49-.06.74,0,.16.03.33.06.49.04.14.11.27.22.37.1.1.23.18.37.22.54.1,1.08.17,1.62.27.35.06.7.12,1.05.18.33.06.65.12.97.2.15.04.3.09.45.13.12.03.24.06.35.11l-.19-.08s.02,0,.04.02c.25.14.56.15.81,0h0c-.13.03-.27.07-.4.11,0,0,0,0,.01,0l-.21-.03s.07.01.1.02l-.18-.08h0c-.05-.04-.1-.07-.15-.11h0c.15.14.32.22.53.22.18,0,.4-.08.53-.22s.23-.33.22-.53-.07-.4-.22-.53h0Z"/>
          <path class="cls-4" d="M55.17,180.5s-.03-.05-.04-.07l.05.12s-.01-.05-.03-.07c-.02-.07-.06-.12-.11-.17-.07-.07-.15-.1-.25-.14l.24.14c-.07-.05-.13-.11-.2-.16l.12.09c-.06-.07-.12-.1-.2-.13-.05-.03-.1-.04-.15-.04-.03,0-.06,0-.09-.01l.16.02c-.24-.04-.44-.05-.68,0-.21.05-.41.16-.56.31-.08.08-.15.17-.21.26-.03.04-.06.09-.08.14-.07.16-.14.32-.17.49s-.06.37-.05.55c.02.19.04.38.1.57s.13.35.22.51c.1.18.23.34.35.5.24.29.52.53.82.75.27.2.56.37.86.51.35.16.72.3,1.1.36.21.04.43.07.65.07s.42-.02.63-.06c.14-.03.27-.07.39-.12.16-.07.33-.13.48-.23.14-.08.26-.18.38-.29s.21-.23.3-.35.14-.26.2-.4c.03-.08.06-.16.07-.24.03-.14.05-.29.04-.44s-.03-.3-.05-.45c-.02-.09-.04-.18-.08-.27-.05-.15-.11-.29-.19-.43-.12-.24-.29-.45-.46-.65-.14-.17-.3-.32-.47-.46-.23-.18-.46-.35-.72-.48s-.53-.24-.82-.31c-.14-.04-.29-.06-.44-.08s-.29-.04-.44-.04c-.12,0-.24,0-.36.02-.18.02-.36.05-.53.09s-.35.12-.52.19c-.12.05-.23.12-.34.19-.1.07-.19.14-.29.22-.05.04-.1.09-.16.13-.06.06-.11.13-.13.21-.04.08-.06.16-.06.25,0,.16.07.35.19.46s.29.2.46.19l.17-.02c.11-.03.21-.09.29-.17h0s-.09.06-.13.09c.08-.05.16-.1.25-.15s.16-.08.25-.12l-.17.07c.1-.04.2-.09.3-.13l-.17.07c.21-.09.43-.15.66-.18l-.19.03c.24-.03.48-.03.72,0l-.19-.03c.27.04.53.11.77.21l-.17-.07c.29.12.56.28.81.47l-.15-.12c.22.17.42.37.6.59l-.12-.15c.13.17.25.36.33.56l-.07-.18c.06.15.11.3.13.46l-.03-.2c.02.12.02.24,0,.36l.03-.2c-.01.1-.04.2-.08.3l.07-.18c-.04.09-.09.17-.15.25l.12-.15c-.07.09-.16.17-.25.25l.15-.12c-.13.1-.28.18-.43.24l.18-.07c-.16.07-.33.12-.5.14l.2-.03c-.22.03-.45.02-.67,0l.2.03c-.33-.04-.65-.14-.95-.27l.18.07c-.36-.15-.7-.35-1.01-.59l.15.12c-.24-.19-.47-.4-.66-.65l.12.15c-.11-.15-.21-.3-.28-.47l.07.18c-.06-.15-.1-.3-.13-.46l.03.2c-.01-.1-.02-.21-.04-.31l.03.2c-.01-.13-.02-.26,0-.39l-.03.19c.01-.1.04-.2.08-.3l-.07.17c.03-.07.07-.13.11-.19l-.11.14c.06-.08.13-.14.19-.23l-.11.14s.06-.06.09-.08l-.14.1s.1-.07.15-.09l-.15.07c.07-.03.14-.05.21-.06l-.16.02s.04,0,.05,0c.05,0,.12,0,.17-.02.1-.02.2-.09.27-.16l-.12.09s.03-.01.04-.02l-.14.06s.04-.02.06-.02l-.14.02c.2,0,.38-.1.48-.27l-.18.18s.05-.03.07-.04c.2-.12.26-.38.15-.58h0Z"/>
          <path class="cls-4" d="M54.04,175.38h0s-.08-.05-.11-.08c.05.06.12.1.18.15l-.12-.1s.03.02.04.04l-.1-.13c.07.15.24.26.39.31.01,0,.03,0,.04.01.02,0,.05.02.07.03.05.02.1.04.15.06l-.17-.07c.13.05.25.11.38.15.07.02.15.05.22.08.15.06.31.11.46.17.29.11.59.22.9.27.21.03.42.06.64.06.13,0,.27-.03.4-.05.07-.01.13-.03.2-.05.26-.09.48-.21.69-.38.06-.05.1-.1.15-.16.09-.11.18-.22.24-.34.07-.13.13-.28.19-.42.03-.09.06-.18.09-.27.05-.21.08-.43.07-.64,0-.18-.02-.37-.07-.55-.03-.11-.08-.22-.13-.32-.05-.1-.13-.19-.19-.27-.07-.09-.16-.18-.24-.25-.13-.12-.28-.23-.43-.32-.28-.17-.59-.28-.91-.38-.28-.09-.56-.15-.85-.21-.14-.03-.27-.06-.41-.09-.13-.03-.26-.06-.38-.08-.11-.02-.23-.04-.35-.05l.18.02h0c-.18-.04-.36-.03-.52.07-.14.08-.27.24-.31.41-.04.17-.03.37.07.52.09.14.23.27.41.31.07.01.13.04.19.05.07.01.14.03.21.04.15.03.31.05.46.08.32.06.64.12.95.21.17.05.34.1.5.17l-.16-.07c.18.08.35.17.5.28l-.13-.1c.06.05.12.1.17.15l-.1-.13c.06.08.11.17.15.26l-.07-.16c.04.1.08.21.09.32l-.02-.18c.01.09.01.18,0,.26l.02-.19c-.02.16-.07.31-.13.45l.07-.18c-.03.07-.06.14-.09.21l.07-.18c-.03.07-.06.15-.09.22l.08-.18c-.07.16-.15.31-.25.44l.12-.16c-.07.09-.14.16-.23.23l.16-.12c-.07.05-.14.11-.21.16l.16-.12c-.07.06-.15.1-.24.14l.19-.08c-.1.04-.21.07-.31.08l.21-.03c-.17.02-.35.02-.52,0l.21.03c-.6-.08-1.18-.28-1.78-.4-.14-.03-.28-.04-.42-.05-.04,0-.08,0-.11,0-.2,0-.41.03-.55.2l.29-.17c-.08.03-.17.07-.25.11l.14-.06s-.02,0-.03,0h.3,0c-.07-.02-.15-.03-.22-.01-.07,0-.14.03-.21.07-.1.07-.18.15-.23.27s-.07.25-.03.36c.04.13.13.27.26.33h0Z"/>
          <path class="cls-4" d="M58.38,174.43h0s-.01.08-.02.12c0,.06.01.12.04.17.01.04.03.07.06.1.03.05.07.09.13.12h0c-.07-.09-.14-.18-.21-.27,0,.01,0,.03.01.04l-.02-.14h0c0,.11.03.2.07.28.05.08.11.15.19.19h0s-.07-.05-.11-.08c.04.03.07.06.11.09.08.07.16.14.25.19.11.06.22.12.33.18.08.04.17.07.25.11.03.01.06.02.1.04.07.02.13.05.2.07.13.05.25.09.38.14.07.02.13.05.2.07s.13.05.19.07l-.56-.99c-.08.53-.15,1.07-.19,1.61,0,.11.02.21.07.3.03.1.09.18.16.25l.16.12c.09.06.19.09.29.09.07.02.14.02.21,0,.1,0,.2-.04.29-.09l.16-.12c.1-.1.16-.21.2-.34,0-.01,0-.02,0-.03l.03-.21c0-.07,0-.14-.03-.21-.03-.07-.06-.15-.09-.22l.08.58c.12-.5.33-.96.44-1.46.02-.07.03-.13.04-.2.02-.1.03-.19.04-.29s-.01-.19-.03-.28l-.07-.17c-.04-.08-.11-.15-.18-.2-.04-.04-.1-.08-.16-.09-.09-.04-.18-.07-.28-.06l-.19.03-.17.07c-.08.04-.15.11-.2.18-.06.07-.11.15-.13.24,0,.01-.01.03-.02.04-.01.04-.01.08-.02.11,0,.04-.01.08-.02.12l.03-.19c-.06.47-.26.91-.41,1.36-.04.13-.08.26-.12.39l.34-.45c-.05.04-.12.09-.17.13,0,0-.01.01-.02.02-.02.03-.05.05-.06.08-.07.08-.12.16-.14.27,0,.01,0,.02,0,.03l1.53.21c.01-.13.03-.26.05-.39l-.03.21c.05-.34.1-.67.17-1.01.03-.11.04-.21.01-.32,0-.11-.04-.21-.1-.3l-.13-.16c-.1-.1-.22-.17-.36-.21-.1-.03-.2-.04-.29-.07-.11-.02-.21-.05-.32-.07s-.22-.05-.33-.08c-.05-.01-.11-.03-.16-.04-.11-.03-.23-.04-.35-.05s-.23-.03-.34-.04l.17.02c-.14-.03-.22-.04-.36,0l.17-.02c-.09,0-.17.01-.26.02l.14.02h0s-.1-.01-.14-.02c-.07,0-.14.01-.21.05-.05.01-.09.04-.12.07-.06.04-.11.09-.14.15h0c.06-.06.13-.12.19-.18-.02.01-.03.02-.05.03l.23-.06h0c-.08,0-.16.02-.23.06-.07.04-.12.09-.16.16-.02.03-.03.07-.05.11h0Z"/>
          <path class="cls-4" d="M55.44,175.41c.11.04.15.02.24.01.05,0,.11-.01.15-.04.03,0,.06-.02.08-.03.01,0,.02-.01.03-.02l-.15.06c.1-.02.15-.06.22-.12.05-.03.09-.07.11-.11.02-.02.04-.05.05-.07l-.1.13c.15-.18.29-.37.42-.57l-.12.15s.09-.11.12-.16c.03-.05.06-.13.08-.2,0-.01,0-.02.01-.04.01-.03.02-.06.03-.08.02-.05.04-.1.06-.15.04-.11.08-.21.12-.32s.07-.21.11-.32.07-.21.1-.32c.04-.12.08-.24.13-.35l-1.46.19s.03.07.05.1l-.08-.19c.06.14.09.28.11.43l-.03-.21c.04.34.02.68,0,1.02,0,.09,0,.19,0,.28,0,.11.02.21.07.31.03.1.09.18.16.26l.16.12c.12.07.26.11.4.11.08,0,.15,0,.23,0,.1,0,.2-.02.3-.04.03,0,.06-.01.09-.02.09-.03.18-.07.26-.11.02-.01.05-.02.07-.04,0,0,.02-.01.03-.02.06-.05.13-.09.18-.14.02-.02.03-.03.05-.05.05-.06.1-.12.14-.18,0,0,.01-.02.02-.03s.01-.02.02-.03c.03-.07.06-.14.09-.22,0-.02.01-.04.02-.07,0-.04.01-.09.02-.14s.01-.09.02-.14c0-.12-.02-.25-.04-.36,0-.06-.03-.11-.05-.16-.05-.13-.1-.26-.18-.38-.02-.03-.04-.07-.07-.1-.06-.09-.13-.18-.2-.26l-.98,1.27c.18.08.37.15.55.22l-.19-.08c.06.03.12.05.17.09l.41-1.52s-.01,0-.02,0l.22.03s-.04,0-.06-.02l.2.08s-.04-.02-.06-.03l.17.13c-.07-.06-.13-.11-.2-.15-.01,0-.03-.02-.04-.02-.02-.02-.05-.03-.07-.05-.26-.17-.61-.19-.87-.03,0,0-.01,0-.02.01-.03.02-.14.1-.16.13,0,0,0,0,0,.01l-.12.15c-.06.09-.09.18-.09.28-.02.07-.02.13,0,.2,0,.1.03.2.09.28,0,0,0,0,0,0l-.08-.18s0,.01,0,.02l-.03-.21c.02.15.03.29.11.42.02.03.11.15.13.17.03.02.06.05.09.07.03.02.06.05.09.07l-.17-.13s.04.04.06.06c.05.05.1.08.15.12.03.02.07.05.1.08.06.04.14.07.22.09.01,0,.03,0,.04.01.1.02.21.04.32.03l.22-.03c.11-.03.2-.07.28-.15.06-.04.11-.09.15-.15.07-.08.12-.17.15-.28l.03-.22-.03-.22c-.03-.11-.07-.2-.15-.28-.06-.09-.13-.16-.23-.21-.14-.08-.3-.14-.45-.19-.09-.03-.19-.06-.28-.1l-.21-.03c-.11,0-.21.02-.31.07-.07.02-.13.05-.18.1-.09.06-.16.13-.21.23l-.08.19-.03.21c0,.11.02.21.07.31.03.1.09.19.17.26.03.04.06.07.09.11l-.13-.16c.07.09.13.18.17.28l-.08-.19c.03.06.05.13.06.2l-.03-.21s0,.09,0,.13l.03-.21s-.01.07-.03.11l.08-.19s-.03.06-.05.08l.12-.16s-.05.05-.07.07l.16-.12s-.07.05-.11.07l.19-.08c-.06.03-.13.04-.19.05l.21-.03c-.09.01-.19.01-.28,0l.8.8c0-.24.02-.49.02-.73,0-.12,0-.25,0-.37,0-.06,0-.12-.02-.18-.02-.13-.03-.26-.06-.38-.01-.07-.03-.13-.05-.2s-.05-.12-.07-.18c-.03-.06-.05-.13-.08-.19l-.13-.16-.16-.13-.19-.08c-.11-.03-.21-.04-.32-.01-.07,0-.14.02-.2.05-.07.02-.13.05-.18.1-.06.04-.11.08-.14.14-.07.08-.12.17-.14.27-.04.1-.08.2-.11.31s-.07.21-.1.32c-.06.21-.12.43-.18.64-.02.06-.04.12-.05.18,0,.03-.02.06-.03.09,0,.01,0,.03-.01.04-.03.08-.03.16-.04.24l.03-.2c-.03.18-.06.36-.1.53l.06-.15h0c-.05.08-.07.16-.08.25-.02.06-.02.11,0,.17,0,.03,0,.06.01.09l-.02-.17s0,.03,0,.05l.02.16c.03.1.08.19.16.27.08.08.16.12.27.16h0Z"/>
        </g>
      </g>
      <g>
        <path class="cls-17" d="M97.09,120.89h52.75c.71,0,1.28.58,1.28,1.28v91.51c0,.71-.58,1.28-1.28,1.28h-52.75v-94.08h0Z"/>
        <g class="cls-7">
          <polygon class="cls-3" points="112.37 196.4 108.1 192.12 103.83 196.4 105.96 196.4 105.96 208.54 110.24 208.54 110.24 196.4 112.37 196.4"/>
          <polygon class="cls-3" points="121.85 196.4 117.58 192.12 113.3 196.4 115.44 196.4 115.44 208.54 119.72 208.54 119.72 196.4 121.85 196.4"/>
          <path class="cls-3" d="M133.52,182.19h0c-.08-.04-.15-.09-.23-.13h0c.07.07.15.12.24.15.1.03.19.03.29,0,.11-.05.23-.09.34-.14.03-.01.06-.03.09-.05.04-.02.07-.05.1-.07.18-.12.35-.26.51-.4.27-.22.53-.45.79-.68.14-.12.29-.24.44-.36l-.14.11c.18-.14.37-.27.58-.36l-.16.07c.07-.03.14-.05.21-.07.22-.05.42-.25.47-.47,0-.03.01-.06.01-.09.02-.09.02-.18-.01-.27l-.07-.16s-.07-.09-.11-.14c-.08-.08-.18-.14-.3-.17-.12-.03-.24-.03-.36,0-.14.04-.28.1-.42.16-.09.04-.18.09-.26.15-.09.06-.18.12-.27.19-.13.1-.27.2-.39.32-.35.33-.68.69-1.04,1.02-.09.09-.19.17-.29.25-.09.07-.17.16-.27.24l.11-.09h0s-.07.06-.11.09c-.05.05-.09.11-.11.18-.02.04-.04.09-.04.14-.02.07-.01.15,0,.22h0v-.27h0c-.02.07-.02.14,0,.21,0,.07.02.13.06.19.07.12.18.2.31.24h0Z"/>
          <path class="cls-3" d="M105.13,159.96c.12.1.23.21.36.3.11.08.22.15.33.23.22.16.45.32.66.49l-.11-.08c.19.14.37.29.55.44.09.07.18.15.27.22.13.1.25.22.38.31.11.07.21.15.32.22.07.05.15.07.24.08.09.02.17.02.26-.01.08-.02.16-.06.22-.12.07-.05.13-.11.17-.18.08-.15.12-.33.07-.5l-.07-.15c-.06-.1-.13-.17-.23-.23-.09-.06-.18-.12-.27-.19s-.18-.12-.27-.17c-.19-.11-.39-.23-.58-.34s-.39-.22-.59-.33c-.1-.05-.2-.1-.3-.16-.13-.07-.27-.12-.4-.18-.06-.02-.11-.05-.17-.07-.05-.02-.11-.05-.17-.06-.12-.03-.24-.04-.36-.06h-.08s-.08,0-.12.02c-.06.03-.12.07-.15.13-.03.05-.04.1-.04.16,0,.07.04.17.09.22h0Z"/>
          <path class="cls-3" d="M152.7,139.87c-.15.12-.3.24-.45.35l.08-.06c-.19.15-.39.3-.59.44-.14.1-.28.2-.42.31-.11.09-.22.18-.34.27l.11-.09c-.28.21-.56.42-.84.61-.27.18-.53.36-.81.52-.14.08-.28.15-.42.21l.16-.07s-.1.04-.15.06c-.1.04-.2.07-.3.11l.16-.07c-.08.03-.17.06-.24.1-.15.09-.26.24-.31.41-.04.15-.03.28.03.42.04.09.07.14.14.21.13.13.3.2.48.2.08,0,.18-.02.27-.04.03,0,.06-.02.09-.03.09-.03.17-.07.26-.11.07-.03.14-.06.2-.1.15-.08.29-.17.43-.26.2-.13.39-.27.57-.42.31-.26.6-.53.88-.81.14-.14.29-.29.43-.44s.25-.3.37-.45c.24-.3.48-.6.71-.91.05-.06.05-.18.03-.25s-.06-.12-.12-.17-.12-.07-.2-.07c-.09,0-.16.04-.23.09h0Z"/>
          <path class="cls-3" d="M124.91,212.41s0,.08,0,.12c0,0,0,.02,0,.03,0,.02,0,.01,0-.02,0,0-.01.05-.02.05-.01.03-.02.07-.03.1-.02.06-.02.14-.03.2v-.1c0,.15-.04.29-.06.43-.02.15-.02.31-.03.47-.02.29-.03.57-.05.86-.05.57-.09,1.14-.13,1.71-.01.16-.02.31-.03.47s0,.3,0,.45c0,.17.07.34.19.46.11.11.3.2.46.19s.35-.06.46-.19.18-.28.19-.46c0-.15.02-.3.02-.45s0-.31.01-.47c0-.32.02-.65.03-.97.02-.69,0-1.37-.16-2.04-.04-.19-.14-.38-.24-.55-.05-.09-.1-.16-.17-.23,0,0-.03-.03-.03-.03.02.03.02.03,0,0,0-.01-.01-.02-.02-.03-.02-.04-.04-.07-.06-.11-.09-.16-.37-.1-.36.1h0Z"/>
          <path class="cls-3" d="M102.33,126.73s.02.1.04.15.03.1.03.15l-.02-.16s0,.08,0,.12l.02-.17s0,.04-.01.06c-.04.13-.04.26,0,.39,0,.01,0,.02,0,.03l-.02-.18s0,0,0,0c0,.09.02.18.06.26.03.08.07.16.14.22l.14.11c.08.05.16.08.25.08.06.02.12.02.18,0,.09,0,.18-.03.25-.08l.14-.11c.08-.09.14-.19.18-.3,0-.01,0-.03.01-.04,0,0,.02-.18.03-.19,0-.01-.02-.17-.02-.19s-.07-.16-.07-.17c0,0,0,0,0,0,0,0,0-.01-.01-.02-.04-.05-.08-.1-.12-.15,0,0-.01-.01-.02-.02-.01-.01-.02-.03-.03-.04-.01-.01-.03-.03-.04-.04-.05-.05-.11-.09-.17-.13-.03-.02-.07-.05-.1-.07-.08-.05-.17-.08-.26-.1-.08-.02-.16-.02-.25,0-.08.02-.15.06-.2.12-.11.11-.17.29-.12.45h0Z"/>
        </g>
      </g>
    </g>
    <g>
      <polygon class="cls-18" points="132.98 151.57 120.84 151.57 118.11 120.89 130.24 120.89 132.98 151.57"/>
      <g class="cls-10">
        <path class="cls-4" d="M125.85,117.36s-.03,0-.04,0l.11-.02c-.06,0-.12,0-.19,0-.07,0-.13.01-.2.01-.16,0-.32-.01-.48-.04l.17.02c-.18-.02-.35-.05-.53-.06-.12,0-.25-.02-.37-.03-.24-.02-.47-.05-.71-.07-.29-.02-.58-.02-.87-.01-.36,0-.73.01-1.09.02-.4,0-.81.01-1.21.02-.27,0-.5.12-.67.34-.08.08-.13.18-.15.29-.04.15-.04.3,0,.45.1.25.15.51.19.77l-.03-.23c.04.33.06.67.1,1.01.03.23.06.46.12.68.02.08.04.15.07.22.03.08.06.16.1.24.02.05.11.14.16.21.03.03.05.06.08.09l.17.13c.09.06.2.09.3.1.17.02.37,0,.52-.1.12-.08.22-.18.29-.29.12-.19.12-.42.08-.63,0-.03-.01-.07-.02-.1l.03.23c-.01-.1-.01-.21-.05-.31-.01-.03-.02-.06-.03-.09-.02-.06-.04-.13-.06-.19-.03-.13-.06-.27-.08-.41l.03.23c-.04-.31-.06-.62-.1-.93-.03-.22-.05-.44-.1-.65s-.14-.42-.23-.62l-.74,1.28c.46-.03.93-.06,1.39-.1s.94-.06,1.41-.12c.3-.04.59-.05.89-.06.37-.01.75-.01,1.12-.09.16-.04.32-.08.48-.14.07-.03.14-.06.21-.09s.12-.08.18-.13c.05-.04.09-.09.14-.13.13-.12.16-.36.07-.51s-.29-.24-.47-.19h0Z"/>
        <path class="cls-4" d="M126.46,122.64h0c.08.02.15.04.23.06-.04-.02-.07-.05-.11-.07l.11.08c-.05-.04-.1-.08-.15-.12-.06-.04-.13-.06-.2-.08-.05-.02-.1-.03-.15-.05-.18-.05-.37-.06-.55-.09l.18.02c-.13-.02-.25-.03-.38-.05-.18-.03-.36-.04-.54-.05-.25-.01-.51-.03-.76-.03-.5,0-1,.05-1.51.05-.28,0-.57,0-.85-.04l.25.03s-.04,0-.07,0c-.12-.04-.25-.04-.37-.02-.12,0-.24.04-.34.11l-.19.14c-.09.08-.15.18-.19.3-.04.07-.06.15-.06.23-.03.12-.02.25.02.37l.09.22c.08.14.19.25.33.33h.02c.07.04.15.07.22.11.01,0,.03,0,.04.01.1.02.2.03.3.04.02,0,.04,0,.07,0,.1,0,.19-.02.29-.04.02,0,.04,0,.06-.01.01,0,.02,0,.03,0l.2-.09.17-.13s.05-.06.07-.08c.22-.22.27-.59.11-.87,0-.02-.02-.03-.03-.04-.04-.06-.09-.12-.14-.18-.03-.04-.05-.04-.1-.08-.05-.05-.11-.09-.19-.11-.04-.02-.08-.04-.12-.05-.01,0-.03,0-.04,0-.03,0-.06-.02-.08-.03l.21.09s-.07-.03-.1-.06l.18.14c-.08-.07-.16-.14-.25-.19l-.47,1.72c.67.04,1.35-.07,2.01-.16l-.23.03c.42-.06.84-.1,1.26-.14.27-.03.53-.05.79-.1.18-.04.36-.08.54-.11l-.16.02c.1-.01.2-.01.3-.02.14,0,.2-.03.33-.09.02,0,.04-.02.05-.02.03-.01.06-.03.08-.04l-.11.05h0c.22-.06.35-.28.32-.5-.01-.09-.05-.19-.12-.26-.09-.09-.19-.12-.32-.13h0Z"/>
        <path class="cls-4" d="M126.35,130.21s.09.02.13.04l-.16-.07h.02c.11.08.23.11.36.11.13,0,.25-.03.36-.1.04-.02.08-.04.12-.06.09-.05.17-.12.24-.18s.13-.14.19-.22c.02-.03.05-.07.07-.1.14-.26.21-.54.22-.83,0-.09,0-.18-.01-.26-.02-.15-.04-.3-.08-.45-.02-.09-.05-.17-.09-.26-.06-.14-.11-.28-.19-.41-.05-.09-.1-.17-.16-.25-.1-.14-.21-.27-.32-.39-.19-.2-.42-.38-.66-.53s-.5-.27-.76-.37c-.21-.08-.42-.14-.64-.18-.28-.05-.57-.08-.86-.08s-.55.04-.81.09c-.18.04-.36.09-.54.16-.22.09-.43.18-.63.32-.18.13-.36.27-.51.43s-.28.34-.39.53c-.05.1-.1.19-.14.29s-.08.2-.11.3c-.06.21-.09.43-.11.65s.02.45.05.67c.03.17.07.33.13.48.09.22.18.44.31.64s.29.41.46.59c.11.11.24.2.38.27l.16.07c.09.03.18.03.27.01.06,0,.12-.02.17-.05.08-.03.16-.07.22-.14.08-.09.14-.19.17-.3.05-.16.02-.37-.07-.52-.07-.12-.14-.23-.23-.34-.05-.06-.11-.12-.16-.19l.11.15c-.15-.19-.28-.41-.37-.63l.08.18c-.08-.2-.14-.4-.17-.61l.03.2c-.03-.2-.03-.39,0-.59l-.03.2c.03-.19.07-.37.15-.55l-.08.18c.07-.16.16-.31.26-.45l-.12.16c.11-.14.24-.27.38-.38l-.16.12c.16-.12.34-.23.52-.3l-.19.08c.24-.1.49-.16.74-.2l-.21.03c.3-.04.61-.04.91,0l-.21-.03c.3.04.59.12.87.24l-.19-.08c.24.1.47.23.68.39l-.16-.12c.18.14.35.31.49.49l-.12-.16c.13.17.24.35.32.55l-.08-.19c.07.16.12.33.14.5l-.03-.21c.02.12.02.24,0,.36l.03-.2c-.01.09-.04.18-.07.26l.08-.18c-.04.1-.1.2-.17.28l.12-.15s-.08.09-.13.13l.14-.11h-.01c-.11.07-.19.16-.25.26-.06.11-.1.23-.1.36v.02c.01-.06.02-.12.03-.18,0,.01,0,.03-.01.04l.06-.15s-.03.05-.05.08c-.1.15-.09.34-.03.5s.19.28.36.32h0Z"/>
        <path class="cls-4" d="M121.61,132.66s.09.09.15.12c.04.03.1.03.15.06-.07-.05-.03-.01,0,0,.09.04.18.08.27.12.22.1.44.2.67.27.2.06.4.12.59.19s.39.14.59.2c.8.24,1.6.49,2.41.71.45.12.9.24,1.35.36l-.52-.92s-.02.07-.03.1l.08-.18c-.03.06-.06.11-.1.17l.12-.15c-.09.11-.2.21-.31.3l.15-.12c-.42.32-.92.55-1.41.75l.18-.08c-.98.41-2.02.75-3.06.98-.19.04-.37.08-.56.11l.21-.03s-.03,0-.04,0c-.16.02-.26.02-.4.11-.12.08-.2.16-.28.28l-.08.18c-.03.1-.04.2-.01.31.02.16.09.33.21.44.15.14.35.24.57.23.08,0,.16-.02.24-.03.03,0,.07,0,.1-.02.07-.01.14-.03.22-.04.18-.04.36-.08.55-.13.46-.12.91-.26,1.36-.41.55-.18,1.08-.39,1.61-.62.41-.18.82-.38,1.19-.63.21-.14.41-.29.58-.47s.34-.42.38-.67c.04-.19.04-.41-.08-.58-.11-.16-.26-.3-.45-.35-.8-.21-1.59-.46-2.4-.67-.4-.1-.81-.2-1.22-.3-.46-.11-.93-.16-1.39-.22-.23-.03-.45-.04-.68-.03-.12,0-.23.01-.35.02-.06,0-.12,0-.17.01-.05,0-.07,0-.13.01-.11.04-.12.05-.05.02-.02,0-.03.01-.05.02-.11.04-.19.11-.22.22-.03.1,0,.24.08.31h0Z"/>
        <path class="cls-4" d="M123.37,132.51s0,.01-.01.02l.1-.07s-.07.05-.1.08c-.05.04-.08.1-.1.16-.03.06-.04.12-.04.19,0,0,0,.01,0,.02,0,.03,0,.06,0,.09,0,.06-.01.12-.02.17l.02-.15c-.01.07-.02.13-.02.2,0,.02,0,.04,0,.06,0,.04,0,.08,0,.12,0,.08,0,.16-.01.25,0,.16,0,.33,0,.49,0,.33,0,.66,0,.99,0,.16.02.32.05.47.02.09.04.19.06.28.02.1.07.19.14.27.06.08.13.15.22.2.09.06.19.09.29.09.1.02.21.02.31-.01l.19-.08c.12-.07.21-.16.28-.28l.08-.19c.04-.14.04-.28,0-.41-.02-.09-.03-.18-.04-.26l.03.21c-.01-.11-.02-.21-.05-.32-.01-.05-.02-.09-.03-.14-.02-.08-.03-.16-.05-.24-.03-.17-.06-.34-.09-.5s-.05-.34-.08-.5c-.01-.08-.02-.17-.05-.25s-.04-.16-.07-.24c-.01-.05-.03-.09-.04-.14-.03-.09-.07-.17-.11-.25-.02-.04-.04-.08-.06-.11-.01-.02-.02-.04-.03-.06-.04-.07-.08-.11-.13-.15-.05-.04-.1-.07-.17-.09-.04,0-.09-.01-.13-.02l.24.07s-.02,0-.03-.01l-.11-.04c-.06-.02-.12-.02-.18,0-.09.01-.19.05-.25.12h0Z"/>
        <path class="cls-4" d="M122.85,139.74s.04,0,.05.01l-.19-.11h0s.07.06.1.08c.06.04.12.05.18.06.1.01.22,0,.31-.06h0s-.08.03-.12.04h0s-.09,0-.13.01c.04,0,.07,0,.11,0l-.28-.08h0c.17.12.41.1.58,0h0s-.09.03-.14.05c.09-.03.19-.05.29-.07l-.17.02c.16,0,.33-.06.49-.09l-.19.02c.13-.01.23-.04.35-.07.06-.02.12-.03.18-.05.13-.03.26-.06.39-.09.27-.06.55-.1.82-.14l-.21.03c.19-.03.38-.06.58-.08l-.21.03c.53-.07,1.09-.12,1.62-.05l-.22-.03c.14.02.28.05.41.1l-.2-.08c.08.03.15.08.22.13l-.17-.13c.08.06.15.13.21.21l-.13-.16c.09.11.15.24.21.37l-.08-.19c.09.21.14.43.17.66l-.03-.21c.04.29.04.59,0,.88l.03-.21c-.03.23-.09.46-.18.67l.08-.19c-.05.12-.12.24-.2.35l.12-.16c-.11.13-.23.25-.36.36l.16-.12c-.17.13-.36.23-.55.32l.19-.08c-.26.11-.54.18-.83.22l.21-.03c-.33.04-.67.04-1.01,0l.21.03c-.28-.04-.55-.1-.8-.21l.18.08c-.26-.11-.51-.26-.73-.44l.15.12c-.17-.13-.32-.27-.45-.44l.12.15c-.11-.14-.19-.29-.26-.44l.08.18c-.08-.2-.14-.42-.17-.64l.03.2c-.02-.17-.03-.34-.04-.52,0-.09,0-.18,0-.28,0-.16-.03-.31-.05-.47l-.07-.17c-.04-.08-.1-.15-.18-.2-.12-.09-.27-.16-.43-.15-.13,0-.25.04-.36.1-.15.08-.29.26-.32.42-.08.34-.08.69-.06,1.04.02.31.06.63.16.93.06.17.13.34.21.5s.2.31.31.45c.21.27.49.48.77.68s.61.36.94.47.67.16,1.01.19c.36.03.71,0,1.07-.05s.69-.17,1.02-.31c.13-.06.25-.13.37-.2.17-.11.33-.24.47-.38.13-.13.25-.28.35-.43s.16-.32.23-.48c.12-.29.17-.61.2-.92.03-.26.03-.53,0-.79-.02-.19-.05-.39-.1-.58s-.12-.35-.19-.53c-.05-.11-.1-.21-.17-.31-.1-.14-.2-.28-.34-.39-.09-.07-.18-.15-.28-.21s-.21-.1-.32-.15c-.07-.03-.15-.05-.23-.06-.27-.05-.55-.07-.82-.07-.25,0-.5.03-.75.06-.34.04-.68.08-1.01.16-.27.06-.54.14-.81.22-.13.04-.25.08-.37.13-.16.06-.35.12-.5.2-.13.08-.29.16-.4.26l.13-.1c-.12.09-.24.18-.36.28l.12-.09h0c-.17.1-.29.31-.29.5h0c.03-.08.05-.18.08-.27-.03.07-.06.14-.09.22l.13-.21h0s.07-.04.1-.07h0c-.09.07-.16.14-.2.24-.04.09-.06.22-.02.32v.02s0-.08,0-.11c0,.02,0,.04,0,.06.01.15.1.31.26.34h0Z"/>
        <path class="cls-4" d="M128.7,147.86s.07-.06.09-.1c.01-.01,0-.01,0,0l.03-.02s.02-.02.03-.04h0s.03-.01.05-.03c.06-.05.12-.11.17-.16l-.12.07c.13-.05.17-.11.22-.23l-.08.13c.13-.14.25-.3.34-.47l-.19.19c.18-.11.27-.28.27-.48l-.02.14s.03-.1.04-.15l-.27.35h0c.16-.1.31-.31.29-.51,0-.06,0-.12,0-.18l-.08.31c.09-.17.1-.31.06-.5,0-.01,0-.03,0-.04,0-.03-.01-.06-.02-.09-.03-.1-.08-.2-.12-.3-.05-.1-.1-.2-.17-.3-.21-.3-.45-.53-.75-.73-.27-.18-.57-.31-.87-.42-.26-.09-.54-.16-.82-.2-.35-.05-.69-.08-1.04-.06s-.69.06-1.02.15c-.31.08-.62.21-.89.38-.16.1-.31.21-.45.33s-.25.26-.36.41c-.08.1-.14.21-.2.32-.08.17-.15.35-.2.54-.1.43-.08.84,0,1.27.03.18.08.36.15.54.08.22.18.44.3.64s.26.38.41.54.32.29.49.42c.3.22.65.37,1,.47s.74.15,1.11.14c.75,0,1.51-.21,2.16-.57.31-.17.61-.39.86-.64.24-.24.45-.52.58-.83.08-.18.16-.37.19-.56s.06-.4.05-.61-.05-.43-.11-.63c-.04-.13-.1-.26-.16-.39s-.13-.24-.23-.35c-.05-.06-.11-.13-.16-.19-.09-.1-.2-.21-.32-.28l.22.22h0c-.04-.08-.09-.14-.16-.18-.06-.05-.13-.09-.21-.11-.15-.04-.34-.02-.47.06s-.25.21-.28.37-.04.34.06.47h0s-.04-.09-.06-.14c.02.1.09.21.13.3l-.07-.16c.03.06.05.12.07.19.01.03.02.06.03.09.03.09.06.17.1.26l-.07-.17c.08.2.14.4.17.62l-.03-.2c.02.18.02.36,0,.54l.03-.21c-.02.16-.06.31-.13.46l.08-.18c-.07.16-.16.31-.27.45l.12-.16c-.14.18-.3.34-.48.47l.16-.12c-.23.18-.49.32-.76.44l.18-.08c-.31.13-.64.22-.98.27l.2-.03c-.31.04-.63.05-.94,0l.2.03c-.26-.03-.51-.1-.75-.2l.18.08c-.19-.08-.38-.19-.54-.32l.15.12c-.16-.12-.3-.27-.43-.43l.12.15c-.13-.17-.24-.36-.33-.57l.08.18c-.1-.25-.18-.51-.21-.78l.03.2c-.03-.2-.03-.4,0-.6l-.03.2c.02-.16.06-.32.12-.47l-.08.18c.06-.14.13-.27.22-.38l-.12.15c.1-.13.22-.24.34-.34l-.15.12c.17-.13.36-.24.56-.32l-.17.07c.29-.12.59-.2.9-.24l-.19.03c.39-.05.79-.05,1.18,0l-.19-.03c.35.05.69.13,1.02.27l-.16-.07c.21.09.41.2.6.34l-.14-.11c.07.06.15.11.22.17l-.14-.11c.13.1.24.21.34.34l-.1-.13c.08.1.15.22.2.34l-.06-.15s.03.06.04.09c0,.01,0,.03.01.04,0,0,0,.02,0,.02.03.11.08.2.16.28.04.03.09.07.13.1l-.22-.22s0,.02.01.03l-.06-.15s.03.08.05.13l-.02-.16s0,.01,0,.02c.01.13.04.25.13.36s.18.16.3.21h0c-.13-.13-.27-.27-.4-.4.02.05.04.1.05.15l-.02-.14c0,.08.01.15.05.22.05.12.12.18.22.26l-.24-.31c.03.08.06.16.08.24,0,.04.02.08.02.12.01.06-.01-.1,0-.05,0,.01,0,.02,0,.04.01.06.02-.07,0-.03-.02.09,0,.16.04.24l-.04-.14c0,.08,0,.15,0,.23,0,.02,0,.04,0,.06,0,.05.03-.11,0,0v.04s0-.02,0,0c-.02.04-.03.09-.04.13-.04.1.11.18.18.1h0Z"/>
      </g>
    </g>
  </g>
  <g>
    <g>
      <path class="cls-5" d="M191.62,98.03c-1.16,3.8-2.84,7.41-4.38,11.08-.87,2.08-1.71,4.22-2,6.45-.01.11-.03.23-.03.34-3.89,1.45-7.56,3.33-11.2,5.37-3.32,1.87-6.74,3.57-10.06,5.46-.54-1.25-1.12-2.45-1.64-3.57-1.89-4-6.37-2.91-10.06-4.09-3.46-1.1-4.52-4.37-4.78-7.66-.14-1.8-.21-6.2-.52-6.79-.65-1.16-6.03-.65-5.33-3.16.36-1.27,2.25-2.3,3.21-3.13,1.24-1.05,2.58-2.08,3.44-3.5.91-1.49,1.1-3.28,1.32-4.99.74-5.77,1.76-11.37,6.61-15.14,3.87-3,8.96-4.45,13.91-4.57,5.9-.14,12.39,1.8,17,5.84,6.46,5.65,6.85,14.27,4.49,22.06Z"/>
      <g class="cls-8">
        <circle class="cls-16" cx="154.81" cy="93.91" r="1.98"/>
        <path class="cls-16" d="M146.25,109.78h0s-.06-.04-.1-.07c.21.25.51.4.81.5l-.18-.08c.16.08.23.1.41.11l-.2-.03c.23.03.47.06.7.06.16,0,.32-.03.48-.06.09-.02.19-.03.28-.05.46-.1.9-.29,1.33-.49.78-.37,1.51-.84,2.11-1.47.13-.13.26-.27.37-.42.05-.07.11-.13.15-.2.04-.06.07-.16.1-.24.01-.04.03-.07.04-.11s.02-.07.03-.11c.05-.2.03-.41-.07-.59l.07.16h0c-.05-.14-.11-.25-.23-.34-.1-.08-.26-.15-.39-.14s-.28.03-.4.11c-.03.02-.06.04-.09.06-.12.08-.24.15-.34.26-.13.13-.27.26-.42.37l.17-.13c-.26.2-.53.38-.81.55-.31.19-.61.38-.93.54-.18.09-.37.18-.55.26l.21-.09c-.16.07-.32.13-.48.18-.15.05-.31.11-.46.16-.15.05-.3.08-.44.13-.14.04-.28.08-.42.1l.2-.03c-.18.02-.25.03-.41.11l.18-.08c-.2.06-.4.12-.6.17l.13-.02h-.01c-.2,0-.41.15-.46.35-.02.08-.02.17,0,.25.03.13.12.21.22.28h0Z"/>
        <path class="cls-16" d="M151.96,88.98s.08,0,.12.01c.18,0,.3-.06.46-.13.11-.05.22-.1.33-.17.29-.16.54-.42.8-.62l-.18.14c.11-.08.22-.16.32-.25l-.18.14c.27-.21.58-.36.89-.5l-.21.09c.54-.23,1.12-.37,1.7-.45l-.23.03c.47-.06.94-.07,1.41-.01l-.21-.03c.41.06.81.16,1.19.32l-.18-.08c.21.09.42.2.62.32.1.06.2.13.3.19.15.08.3.14.46.19l-.16-.07c.36.16.8.64,1.19.25s-.11-.94-.37-1.25l.1.13c-.07-.1-.12-.2-.21-.3s-.18-.18-.29-.25c-.12-.09-.25-.17-.38-.25-.3-.18-.62-.33-.95-.46-.6-.25-1.25-.38-1.9-.4-.32-.01-.64,0-.96.04-.39.04-.77.1-1.14.21-.65.21-1.33.52-1.84.99-.25.23-.5.47-.69.74-.07.1-.14.21-.21.31-.06.09-.11.17-.14.28-.01.04-.02.08-.03.12-.06.16,0,.36.1.49.11.15.26.21.44.22h0Z"/>
        <path class="cls-16" d="M176.15,97.54s.07-.06.11-.09c0,0-.14.09-.07.05.01,0,.03-.02.04-.03.12-.09.2-.19.29-.31.04-.05.17-.19,0,0,.12-.13.22-.27.35-.39.26-.25.53-.5.81-.73.12-.1-.18.13-.03.03.04-.03.07-.05.11-.08.08-.06.16-.11.24-.16.16-.1.33-.2.5-.29.08-.04.17-.08.25-.12.04-.02.07-.03.11-.05.02,0,.04-.02.06-.03.13-.06-.04.02-.08.03.19-.06.37-.14.56-.2.42-.13.85-.23,1.28-.29l-.22.03c.58-.08,1.17-.08,1.75,0l-.22-.03c.27.04.54.09.81.17.13.04.25.08.38.12.05.02.25.1.09.03-.15-.06-.03-.01,0,0,.03.01.06.03.09.04.24.11.47.25.68.41.03.02.14.11,0,0s-.03-.03,0,0c.05.04.1.09.15.13.1.09.2.19.29.29.04.05.08.1.12.15.02.02.04.05.06.07,0,0-.14-.19-.08-.1.01.02.02.03.04.05.08.11.16.22.23.34.08.13.15.26.21.4.02.03.03.07.05.1.04.08-.06-.12-.05-.11.01.02.02.05.03.07.03.08.06.16.09.25.11.32.19.64.25.98,0,.04.01.09.02.13.01.09-.02-.14-.02-.12,0,.02,0,.05,0,.07.01.09.02.18.03.26.01.17.02.34.02.51s0,.34-.02.52c0,.09-.01.18-.02.27,0,.04,0,.08-.01.12,0,.02,0,.04,0,.06-.02.13,0-.03,0-.07-.05.16-.06.35-.09.52s-.07.35-.12.52c-.09.35-.21.69-.35,1.03-.03.07.04-.09.04-.08-.01.02-.02.05-.03.07-.02.04-.03.07-.05.11-.04.08-.08.17-.12.25-.08.17-.17.33-.26.49-.17.31-.36.61-.57.9-.05.07-.1.14-.15.21-.03.04-.06.07-.08.11,0,0,.1-.13.05-.07-.02.03-.04.05-.06.08-.11.14-.22.27-.34.4-.23.26-.48.51-.75.74-.06.05-.12.11-.19.16-.03.02-.06.05-.09.07-.13.1.13-.1,0,0-.13.1-.27.19-.41.28-.34.22-.7.41-1.07.58-.05.02-.09.04-.14.06-.02.01-.13.05-.03.01.09-.04.01,0,0,0-.09.04-.18.07-.27.11.19-.08-.01,0-.06.02-.22.09-.44.17-.66.24-.43.14-.87.25-1.31.33-.23.04-.46.08-.69.12-.05,0-.1.02-.15.02-.02,0-.05,0-.07.01-.09.01.11-.01.02,0-.12.01-.24.03-.35.04-.26.03-.52.06-.78.12-.5.11-.5.9,0,1.02.74.16,1.54.1,2.29,0,.68-.09,1.35-.24,2-.46,1.2-.4,2.29-1.04,3.22-1.9.81-.76,1.49-1.68,2.01-2.67s.92-2.08,1.09-3.19.16-2.29-.18-3.39c-.29-.94-.8-1.81-1.58-2.43-1.52-1.2-3.51-1.44-5.37-1.07-.89.18-1.76.51-2.53.99-.39.24-.8.52-1.11.86-.07.07-.13.15-.19.22-.03.04-.06.08-.09.11-.05.06-.09.13-.14.18.21-.23.02-.03-.05.07-.11.17-.22.34-.31.52s-.18.36-.19.56c0,.08,0,.17,0,.26,0,.23.14.43.35.52.22.09.44.03.62-.12h0Z"/>
        <path class="cls-16" d="M182.15,96.48c-.14-.25-.38-.46-.63-.58-.02-.01-.05-.02-.07-.03l-.13-.06c.13.05.11.04-.05-.02l-.15-.02c.11.01.13.02.07,0-.07-.01-.14-.02-.21-.03-.17-.02-.34,0-.5.04-.57.16-1.08.53-1.49.95s-.72.93-.99,1.45c-.28.55-.5,1.16-.52,1.78-.01.35.06.71.18,1.03.08.21.19.41.31.6.09.15.18.29.25.45l-.07-.16c.05.11.08.23.1.35l-.02-.18c.01.1.01.2,0,.3l.02-.18c-.02.15-.07.3-.13.44l.07-.16c-.12.27-.25.54-.34.82-.1.3-.17.62-.18.93s.04.6.17.88.34.49.62.6c.34.14.7.18,1.06.05.2-.08.38-.25.37-.48,0-.21-.15-.43-.37-.48-.11-.02-.21-.06-.32-.08-.05-.01-.1-.03-.15-.04-.09-.03.14.08.06.03-.02-.01-.04-.02-.05-.03-.07-.04.11.1.06.05-.01-.01-.03-.03-.04-.04-.03-.03-.05-.06-.08-.09-.07-.08.04.05.05.07,0-.02-.02-.03-.03-.05-.02-.04-.05-.08-.06-.12l.06.15c-.03-.09-.06-.17-.07-.26l.02.17c-.02-.15-.01-.3,0-.46l-.02.17c.04-.28.12-.54.23-.8l-.07.16c.2-.47.48-.92.46-1.45-.02-.34-.13-.66-.29-.96-.08-.15-.18-.29-.27-.45-.08-.14-.15-.28-.21-.43l.07.16c-.08-.18-.13-.37-.16-.56l.02.17c-.02-.18-.02-.37,0-.55l-.02.16c.02-.16.08-.3.14-.45.04-.1-.07.15,0,0,.02-.04.04-.08.06-.12.04-.07.07-.14.11-.22.17-.31.36-.61.57-.9.1-.13-.08.1-.01.01.02-.02.04-.05.06-.07.05-.06.1-.13.16-.19.1-.12.21-.23.33-.34.05-.05.11-.1.17-.14.08-.07-.14.1,0,0,.03-.02.07-.05.1-.07.12-.08.26-.16.39-.21l-.15.06c.11-.05.23-.08.34-.12.06-.02.11-.04.17-.05.02,0,.06-.02.08-.01l-.1.02c.06,0,.12,0,.18-.03.03,0,.05-.01.08-.02.1-.02-.13,0-.03,0,.06,0,.11,0,.17,0,.02,0,.06,0,.08,0-.06,0-.07,0-.02,0h.03s.07.02.11.03c.03.01.07.02.11.02-.04,0-.04,0,0,0,.25.06.48-.21.34-.44h0Z"/>
        <path class="cls-20" d="M187.68,109.37c-.15-.77-.87-1.34-1.09-2.08-.35-1.16.27-2.72.49-3.88.59-3.1,1.85-6.87-.72-9.45-1.97-1.98-5.79-2.57-8.29-1.33-.8.4-1.57,1-2.28,1.51-1.26.9-2.23,1.88-3.17,3.11-.52-1.67-1.02-3.28-2.16-4.72-1.49-1.86-3.44-3.02-5.56-4.01.31-1.17,1.31-2.35.69-3.58-.78-1.54-2.46-1.93-3.68-2.97.33-.56,1.57-1.54,1.51-2.2-.07-.81-1.51-1.39-2.08-1.66-1.54-.74-3.02-1.11-4.69-1.33-1.07-.14-2.99.25-3.88-.16.81-1.81,2.65-2.97,4.3-3.9,1.55-.87,3.05-1.76,4.77-2.26,2.18-.63,4.6-.89,6.86-1.04s4.72-.46,7.04,0c9.64,1.9,17.39,8.78,18.37,18.87.68,7.02-3.15,13.42-5.27,19.83l-1.14,1.25Z"/>
      </g>
    </g>
    <g>
      <path class="cls-15" d="M210.81,214.05c-.87,3.6-2.8,7.29-5.84,9.51-.22.15-.44.3-.69.43-2.09,1.13-5.08,1.39-7.29,1.68-1.75.23-3.65.39-5.4.3-1.83-.1-3.44-.68-4.93-1.47-3.15.9-6.32,1.87-9.51,2.42-4.28.73-8.42.92-12.77.92-.58,0-1.3.01-2.08.03-2.25.04-4.35-.72-6.01-2.05-1.42-1.13-2.51-2.69-3.09-4.52-1.46-4.7-1.31-9.22-.81-14.96.5-5.73,1.18-11.32,2.26-16.96.99-5.3-.74-10.33-.61-15.66.12-5,1.42-9.88,1.94-14.85.34-3.32.9-6.79,1.94-9.96.87-2.63,2.18-5.14,3.42-7.65-1.43-.15-1.36-.9-1.63-2.56-.21-1.31-.45-2.59-.62-3.89-.17-1.25-.72-3.32-.23-4.52.47-1.16,2.37-2.01,3.44-2.63.54-.32,1.09-.63,1.64-.92,3.32-1.89,6.74-3.58,10.06-5.46,3.64-2.04,7.32-3.93,11.2-5.37.51-.19,1.03-.37,1.54-.55,1.53-.5,2.82-1.01,3.79.54.66,1.03,1.03,2.12,1.43,3.25.36.99,1.18,2.07,1.23,3.15.01.36-.1.73-.28,1.09,1.13.7,2.3,2.04,2.91,2.74,3.89,4.59,6.05,10.54,8.1,16.12,2.33,6.35,4.15,12.95,4.51,19.74.37,6.68-.12,13.38-.08,20.07.04,6.57,1.02,13.03,1.75,19.56.48,4.22,1.71,8.2.7,12.43Z"/>
      <g class="cls-9">
        <path class="cls-3" d="M191.84,123.36c-.12.02-.24.02-.36.05s-.22.08-.34.13c-.27.11-.51.26-.77.4-.47.25-.94.5-1.41.74-.95.49-1.91.98-2.87,1.45-1.93.96-3.9,1.83-5.85,2.76-3.96,1.88-7.76,4.02-11.35,6.54-2.05,1.43-4.05,2.93-6.01,4.48l.89.11c-1.29-2.91-1.86-6.08-3.1-9.02-.1-.23-.43-.3-.64-.21s-.39.36-.3.6c1.2,3.01,1.74,6.23,3.06,9.19.16.37.64.31.89.11,3.45-2.73,7.07-5.24,10.87-7.46,1.86-1.08,3.76-2.07,5.7-2.99s3.91-1.81,5.84-2.76c1.08-.53,2.15-1.06,3.17-1.69.5-.31.98-.62,1.46-.96.25-.18.54-.34.77-.55s.38-.42.53-.68c.08-.15-.05-.28-.2-.26h0Z"/>
        <path class="cls-3" d="M162.9,139.32c-.11-.05-.21-.08-.32-.04-.01,0-.02,0-.04.01-.03,0-.05.02-.08.02h.25,0c.07.04.14.08.21.12,0,0,0,0,0,0-.11-.13-.35-.19-.51-.13-.03.01-.06.02-.09.03-.01,0-.03.01-.04.02-.06.02-.13.04-.19.08-.06.04-.11.08-.17.12-.12.08-.24.17-.36.25-.24.18-.49.35-.74.52-.29.21-.57.42-.84.66-.23.2-.45.4-.65.62-.14.15-.26.32-.37.49-.09.14-.18.28-.25.42-.05.11-.09.24-.05.36.03.1.09.18.17.24s.18.11.28.1c.11,0,.26-.04.33-.14.16-.2.33-.38.52-.55s.39-.35.6-.51l-.12.09c.16-.12.32-.24.48-.35s.33-.23.49-.35.32-.23.48-.35c.2-.14.4-.28.58-.43.08-.07.16-.14.24-.21.07-.07.14-.13.19-.22.03-.05.05-.09.08-.14.05-.08.07-.17.07-.26,0-.09-.02-.18-.07-.26,0,0,0,0,0,0l.07.24h0s-.01.08-.02.12h0s-.03.06-.05.1c.01-.03.03-.06.04-.09,0-.02.02-.04.03-.07.03-.07.04-.14.03-.22,0-.07,0-.05-.03-.11-.03-.07-.09-.16-.17-.19h0Z"/>
        <path class="cls-3" d="M163.14,150.98c.36,0,.56-.47.71-.74.17-.31.34-.61.48-.93.27-.62.54-1.24.85-1.85.33-.64.66-1.25,1.05-1.85s.78-1.17,1.19-1.75c.21-.29.41-.57.63-.85.24-.32.37-.48.61-.79.42-.54.85-1.07,1.29-1.58.86-1,1.74-2,2.68-2.93.53-.52,1.08-1.03,1.65-1.52s1.21-.92,1.72-1.48c.31-.34-.07-.79-.47-.61-.65.29-1.19.75-1.75,1.19s-1.07.84-1.59,1.28c-1.03.88-2.05,1.78-2.96,2.79-.98,1.09-1.9,2.23-2.79,3.4s-1.72,2.33-2.33,3.64c-.35.75-.58,1.55-.83,2.34-.12.38-.21.77-.32,1.15-.08.3-.36,1.07.19,1.08h0Z"/>
        <path class="cls-3" d="M180.9,132.54c.15.23.36.32.62.42s.49.17.73.24c.53.14,1.08.27,1.62.34.13.02-.16-.02.05,0,.07,0,.13.02.2.03.13.02.26.04.39.06.26.04.52.09.78.14.53.11,1.06.28,1.58.42,1.05.3,2.11.59,3.13,1,.49.2.98.39,1.48.58.24.1.49.19.73.29.12.05.23.09.35.14,0,0,.21.09.09.04.08.04.17.07.25.11.53.25,1.05.51,1.56.8.25.14.51.29.75.45.27.17.52.37.79.53.29.17.68.09.88-.18s.2-.67-.05-.9c-.43-.38-.95-.68-1.44-.96-.47-.27-.95-.52-1.44-.75-.97-.46-1.94-.91-2.92-1.33-1.07-.45-2.14-.88-3.26-1.18s-2.14-.59-3.25-.64c-.6-.03-1.2,0-1.8.02-.28,0-.56,0-.84,0s-.57-.08-.85.02c-.11.04-.19.18-.12.29h0Z"/>
        <path class="cls-3" d="M196.94,215.69c-.12.09-.23.18-.38.24s-.3.11-.43.19c-.25.17-.51.34-.75.52-.51.38-.97.8-1.45,1.22-.93.81-1.82,1.68-2.75,2.5-.46.41-.91.82-1.38,1.22-.36.3-.71.61-1.04.93-.73.7-1.42,1.44-2.17,2.12-.21.19-.42.37-.63.55-.05.04-.11.09-.16.13-.03.03-.11.08.04-.03-.02.02-.05.04-.07.06-.11.08-.22.16-.33.24-.21.15-.44.26-.66.4-.11.07-.22.16-.33.24-.1.07-.17.16-.23.27-.07.12.07-.07-.03.05-.22.27-.16.7.21.8.08.02.16.05.24.07.2.04.39,0,.58-.05.26-.07.5-.22.73-.36.45-.28.88-.62,1.28-.96.78-.66,1.49-1.4,2.22-2.12s1.57-1.4,2.35-2.11c.46-.41.9-.84,1.34-1.27s.9-.87,1.32-1.32c.47-.51.98-1.01,1.43-1.54.22-.26.43-.53.64-.8.12-.15.22-.29.31-.46.04-.07.07-.16.12-.23.05-.08.13-.15.2-.21.12-.13-.04-.38-.2-.26h0Z"/>
        <path class="cls-3" d="M163.55,207.32c.35.41.79.74,1.22,1.06.11.08.21.16.31.23-.08-.06.06.05.08.06.06.05.12.09.17.14.13.1.26.21.39.31.02.02.04.03.07.05-.09-.07-.02-.01,0,0,.06.05.12.09.18.14.86.68,1.69,1.41,2.55,2.09s1.79,1.4,2.77,1.97c.86.5,1.67,1.07,2.5,1.61.49.32.98.63,1.5.9.29.15.58.28.88.41.12.05.23.1.35.14.1.03.22.06.32.05.07,0-.07-.01-.08-.01.04.01.09.02.13.02.34.05.65-.06.79-.39.12-.28.03-.7-.28-.84-.1-.04-.18-.09-.27-.15s-.19-.08-.28-.12c-.08-.03.07.03.07.03-.04-.02-.07-.03-.11-.05-.22-.1-.43-.21-.64-.32-.45-.25-.89-.53-1.32-.81-.85-.55-1.67-1.16-2.54-1.68-.92-.55-1.81-1.14-2.67-1.78s-1.74-1.31-2.64-1.93c-.5-.34-1.02-.66-1.56-.94s-1.14-.54-1.77-.55c-.2,0-.27.23-.15.37h0Z"/>
        <path class="cls-3" d="M197.78,179.79c-.33.32-.72.58-1.08.86-.16.12-.31.24-.47.35-.08.06-.17.12-.25.18-.05.03-.09.07-.14.1-.03.02-.29.21-.2.14-.74.56-1.51,1.09-2.28,1.6-1.58,1.05-3.25,1.98-4.91,2.88s-3.45,1.84-5.15,2.81c-1.78,1.01-3.56,2.04-5.37,2.99-1.03.54-2.07,1.06-3.13,1.54s-2.11.87-3.23,1.34c-.29.12-.38.54-.26.81.13.29.44.46.76.37,1.04-.28,2.05-.71,3.04-1.13s1.91-.85,2.85-1.31c1.85-.91,3.66-1.9,5.47-2.9s3.5-1.91,5.25-2.85,3.36-1.86,4.95-2.94c.91-.61,1.78-1.26,2.59-1.99.38-.34.73-.72,1.07-1.11.18-.2.37-.41.52-.62s.29-.43.45-.64c.27-.34-.17-.81-.49-.49h0Z"/>
        <path class="cls-18" d="M154.83,164.01s.04-.01.06-.02h-.1s0,.01.01.01c.13,0,.29-.08.34-.2.04-.08.11-.15.16-.21l-.17.17c.12-.08.19-.17.23-.31l-.05.12c.06-.09.12-.19.18-.28.07-.1.12-.22.17-.32.12-.23.25-.45.38-.67.07-.12.15-.23.23-.34l-.11.14c.09-.12.2-.24.32-.33l-.15.11c.06-.05.13-.09.2-.12l-.17.07s.1-.03.15-.04l-.2.03s.09,0,.13,0l-.2-.03s.08.02.11.03l.2.03c.1,0,.2-.02.29-.06.16-.07.27-.17.36-.31.07-.1.13-.2.2-.3l-.12.15c.07-.08.14-.17.22-.23l-.16.12s.07-.05.1-.06l-.18.08s.05-.02.07-.02l-.21.03s.03,0,.05,0l-.21-.03s.03,0,.05.01l-.18-.08s.04.02.06.03l-.16-.12s.04.04.06.06l-.12-.16s.06.09.08.15l-.08-.18c.07.16.1.34.12.51l-.03-.2c.05.37.06.75.01,1.12l.03-.19c-.02.18-.07.35-.11.53-.04.22-.08.44-.11.66-.07.54-.13,1.16.22,1.62.05.08.11.14.19.19.06.04.13.06.2.06.17.02.32-.03.45-.15.41-.39.68-.89,1.13-1.24l-.12.09c.06-.05.12-.09.18-.14l-.12.09c.09-.07.18-.13.28-.18l-.7-.09s.02.03.03.04l-.09-.12c.05.07.09.14.13.21l-.06-.14c.05.11.07.22.09.34l-.02-.15c.04.34,0,.68.01,1.02,0,.21.02.43.07.63.03.12.08.23.13.35s.12.21.21.31.25.16.37.16l.14-.02c.09-.03.17-.07.23-.14,0,0,.02-.01.03-.02l-.11.08c.12-.09.26-.15.4-.21.07-.03.14-.06.2-.1.13-.07.21-.18.29-.3l.05-.12c.02-.06.02-.13,0-.19-.01-.1-.06-.21-.13-.28-.16-.15-.39-.18-.59-.08-.02,0-.04.02-.06.03l.12-.05c-.08.03-.17.06-.25.11-.05.03-.1.05-.15.08-.11.05-.21.1-.32.15l.12-.05c-.09.03-.18.07-.27.11l.72.19s-.03-.05-.04-.08l.05.13c-.03-.08-.07-.15-.1-.23l.05.13c-.05-.12-.08-.24-.1-.36l.02.15c-.05-.36,0-.73,0-1.09,0-.21-.01-.43-.06-.64-.06-.25-.18-.47-.35-.67l-.12-.09c-.07-.04-.14-.06-.21-.07-.14-.02-.24,0-.37.07-.64.3-.97.92-1.38,1.46l.08-.11c-.07.09-.14.18-.22.26l.91.38c-.01-.11,0-.23-.01-.34s0-.24.02-.35l-.02.17c.04-.27.12-.53.21-.79s.17-.51.23-.78c.07-.31.09-.64.09-.96,0-.34-.02-.69-.11-1.01-.02-.09-.06-.17-.09-.25-.03-.07-.06-.15-.11-.21-.1-.14-.2-.27-.35-.35s-.3-.13-.48-.13c-.09,0-.18.01-.26.03s-.17.06-.25.1c-.11.06-.21.14-.3.23-.1.1-.19.22-.28.34-.07.1-.14.21-.2.32l.85-.35c-.52-.14-1.05.08-1.39.49-.32.38-.53.81-.69,1.28-.04.11-.08.22-.11.33-.02.05-.03.11-.05.16-.03.11-.05.2-.06.31l.02-.15c-.03.18-.05.36-.07.54l.02-.13c-.03.09-.03.19,0,.28l-.02-.13c0,.08,0,.16,0,.24v-.11s.01,0,.01.01c-.02.09-.02.17.02.26s.09.13.16.19h0s-.09-.08-.13-.13c.01.02.03.04.04.06.07.1.2.17.32.13h0Z"/>
      </g>
    </g>
    <g>
      <path class="cls-1" d="M255.38,390.31c-.52.92-1.65,1.61-3.49,2.38-4.64,1.96-9.38,4.56-13.65,7.22-1.98,1.23-4.97,2.41-7.27,3.02-.1.03-.18.04-.26.07-2.93.74-3.73-1.5-4.41-3.94-.4-1.5-14.3-29.81-19.88-39.15-2.65-4.44-5.66-8.62-8.56-12.91-2.44-3.6-3.65-7.83-5.06-11.92-3.9-11.28-10.04-21.75-13.07-33.34-.81-3.11-1.82-6.14-2.87-9.18-3.21,7.01-6.9,13.67-10.43,20.58-1.89,3.71-3.72,7.04-5.28,10.9-1.69,4.19-2.88,8.49-4.73,12.62-1.9,4.2-4.41,7.91-6.78,11.85-.83,1.39-1.83,2.91-2.77,4.49-.17,1.53-.47,3.02-.94,4.49-2.41,7.58-7.37,14.96-11.13,21.99-2.67,5-5.55,10.1-8.05,15.25-.34,2.98-.72,5.95-1.34,8.89-.72,3.4-.74,7.26-2.03,10.48-.63,1.58-.79,2.76-2.58,1.94-1.24-.56-2.41-1.6-3.51-2.55-.3-.28-.61-.54-.91-.79-3.5-2.91-6.57-6.34-10.06-9.31-1.89-1.6-3.72-3.24-5.61-4.82-1.2-1.01-2.74-1.92-3.8-3.03-.23.26-.48.5-.73.69-1.97-4.75,2.93-8.96,4.16-12.17,2.63-6.83,18.31-50.18,20.47-56.49,1.25-3.71,2.34-7.48,3.49-11.2,3.28-10.75,9.52-20.83,14.63-30.82,3.1-6.08,6.56-12.08,9.34-18.28,2.66-5.94,6.35-11.86,8.64-18.09-.12-4.68-.59-9.34-.59-14.04,0-2.98-.51-6.32-.06-9.34,1.65,1.34,3.76,2.09,6.01,2.05.79-.01,1.5-.03,2.08-.03,4.35,0,8.49-.19,12.77-.92,3.18-.55,6.35-1.53,9.51-2.42,1.49.8,3.1,1.38,4.93,1.47,1.75.08,3.65-.07,5.4-.3,2.2-.29,5.19-.55,7.29-1.68,1.34,2.99,2.71,5.94,3.49,9.2.74,3.2,1.31,6.41,1.89,9.64.61,3.47.69,7,.88,10.5.17,3.04.61,5.94.39,9-.22,2.77-1.01,5.5-1.13,8.23-.11,2.48.01,4.97.22,7.47,1.14,3.4,2.16,6.89,3.5,10.18,3.21,7.91,6.25,16.64,6.6,25.27.12,3.21.29,6.31.91,9.45,8.25,13.96,25.01,44.07,26.93,47.97,2.38,4.82,4.82,9.63,6.86,14.62.94,2.29,1.18,3.71.56,4.81Z"/>
      <g class="cls-14">
        <path class="cls-6" d="M163.26,232.15c.06-.98.13-1.96.2-2.94-.46,0-.93,0-1.39,0-1.54-.05-3.06-.2-4.48-.59-.75-.21-3.08-1.17-2.89-2.28-.2,1.11-.3,2.31-.34,3.46-.04,1.19-.59,4.23.33,5.13.48.47,1.75.35,2.38.42,1.96.23,3.94.37,5.93.46.08-1.22.17-2.44.25-3.66Z"/>
        <path class="cls-6" d="M177.42,230.75c.01-.61.02-1.23.03-1.84-3.3.19-6.61.29-9.91.28-.81,0-1.66.01-2.51.03.03,2.22,0,4.44-.09,6.66,4.13.11,8.29-.04,12.42-.3,0-1.61.03-3.21.07-4.82Z"/>
        <path class="cls-6" d="M191.24,231.85c0-1.25-.01-2.51.13-3.75.02-.21.05-.41.08-.62-4.14.61-8.3,1.06-12.47,1.34.16,1.84.25,3.68.3,5.53,0,.36.01.73.02,1.09,1.71-.12,3.4-.26,5.09-.42,2.29-.21,4.62-.44,6.95-.71-.03-.82-.08-1.64-.09-2.47Z"/>
        <path class="cls-6" d="M208.17,228.62c-.44-1.33-.7-2.74-.88-4.13-4.72.62-9.32,1.97-14.03,2.73-.02.41-.05.81-.06,1.22-.05,1.28,0,2.57.05,3.85.03.6.07,1.2.1,1.8,4.79-.62,9.56-1.52,14.05-3.04,1.53-.52,1.17-1.21.77-2.42Z"/>
        <path class="cls-4" d="M162.35,237.03s-.03.03-.04.05c0,0-.02.02-.02.03-.07.07-.09.12-.12.21,0,0,0,.01,0,.02-.02.05-.03.11-.05.16-.03.11-.07.22-.1.33-.06.22-.11.43-.18.65-.04.11-.07.22-.12.32l.06-.15c-.05.13-.12.25-.11.39,0,.03,0,.05,0,.08l.02.16.06.14.09.12c.05.06.12.1.19.12.05.03.1.04.15.04.05.01.11.01.16,0,.05,0,.11-.01.15-.04.07-.02.14-.07.19-.12.02-.02.03-.03.05-.05,0,0,0,0,.01-.01.01-.01.09-.12.1-.13,0,0,.06-.14.07-.16,0-.01,0-.03,0-.04.01-.05.02-.11.03-.16.03-.17.05-.34.07-.5.01-.13.03-.25.04-.38,0-.07,0-.13.01-.2s0-.13,0-.2c0-.07,0-.14,0-.21,0-.02,0-.03,0-.05,0,0,0,0,0-.01,0-.02,0-.04,0-.07,0-.04-.01-.08-.03-.12-.01-.02-.02-.05-.03-.07-.01-.03-.02-.05-.03-.08-.04-.06-.08-.11-.14-.14-.05-.03-.1-.04-.15-.05-.05-.01-.11,0-.16,0-.07.02-.13.05-.18.1h0Z"/>
        <path class="cls-4" d="M160.08,243.86c-.19.58-.13,1.25-.13,1.85s0,1.24.05,1.86c.09,1.23.18,2.46.33,3.68.29,2.47.61,4.94.86,7.41.11,1.03.24,2.04.5,3.05.24.93.57,1.83.96,2.7.74,1.64,1.76,3.14,2.96,4.5.67.76,1.41,1.48,2.17,2.15.39.34.79.67,1.19.99.48.38.98.76,1.57.95.45.15.94-.44.65-.85-.56-.77-1.4-1.32-2.11-1.95s-1.32-1.22-1.93-1.89c-.3-.33-.6-.67-.88-1.03-.03-.04-.22-.29-.1-.13-.06-.08-.12-.16-.18-.24-.13-.18-.26-.36-.39-.54-.49-.71-.93-1.46-1.3-2.24-.05-.1-.09-.2-.14-.3-.02-.05-.04-.09-.06-.14-.08-.19.07.16-.01-.03-.08-.21-.17-.41-.24-.62-.15-.41-.28-.82-.39-1.24-.12-.45-.22-.91-.31-1.36-.04-.21-.07-.43-.1-.64,0-.04-.04-.27,0-.03,0-.04-.01-.09-.02-.13-.02-.13-.03-.27-.04-.4-.25-2.48-.54-4.95-.88-7.41-.05-.34-.09-.68-.14-1.01-.02-.17-.05-.34-.07-.51,0,0-.04-.28-.02-.11-.02-.13-.04-.26-.06-.39-.12-.67-.23-1.34-.34-2.01s-.25-1.36-.4-2.03c-.07-.33-.15-.66-.22-.99-.04-.16-.07-.33-.11-.49-.04-.18-.12-.33-.21-.49-.11-.2-.4-.14-.46.06h0Z"/>
        <path class="cls-4" d="M167.44,252.98c-.24,1.39-.1,2.76.09,4.14.05.39.1.78.16,1.17.02.16.05.32.08.48.01.09.03.17.04.26,0,.04.01.07.02.11,0,.01.02.16.01.08s0,.03,0,.04c0,.05.01.09.02.14,0,.08.02.16.03.24.02.21.05.42.07.63.05.42.1.85.16,1.27.42,3.04.87,6.07,1.37,9.1.25,1.47.53,2.94.94,4.38s.89,2.9,1.36,4.34c.94,2.89,1.93,5.77,2.65,8.73.36,1.46.62,2.94.83,4.43.03.19.05.37.08.56.01.08.02.16.03.24,0,.05.01.11.02.16,0,.04.02.12,0,.03.06.42.11.84.17,1.25.11.74.2,1.49.39,2.21.09.36.19.72.28,1.08.16.61,1.15.5,1.12-.15-.04-.76-.07-1.51-.14-2.26s-.16-1.48-.26-2.22c-.2-1.51-.42-3.01-.72-4.51-.61-2.98-1.59-5.88-2.53-8.77-.47-1.43-.94-2.86-1.36-4.3s-.77-2.89-1.03-4.37-.46-2.96-.7-4.44-.48-3.04-.72-4.56-.45-2.94-.78-4.4c-.3-1.35-.7-2.68-.88-4.06-.04-.31-.07-.63-.09-.95-.02-.4-.65-.53-.73-.1h0Z"/>
        <path class="cls-4" d="M170.25,272.83s-.01.05-.02.08c-.03.1.02-.03,0,.02-.01.02-.03.06-.04.08-.02.05.02-.02.03-.03-.05.08-.09.13-.12.21l.11-.19c-.07.09-.15.16-.21.26-.05.08-.09.16-.14.23-.03.04-.06.08-.08.12-.08.12.07-.08-.03.04-.07.08-.14.17-.21.25-.34.37-.72.71-1.1,1.05-.42.38-.87.73-1.31,1.08-.22.18-.45.36-.68.54-.03.02-.06.04-.08.07-.09.07.03-.02.04-.03-.06.04-.11.09-.17.13-.11.08-.22.17-.33.25-.73.55-1.47,1.08-2.17,1.65-.33.27-.66.53-.99.79-.15.12-.3.24-.46.36-.01,0-.18.14-.06.05-.03.03-.07.05-.1.08-.1.08-.21.16-.31.24-.71.55-1.43,1.1-2.13,1.66-.76.6-1.52,1.2-2.24,1.84s-1.41,1.34-1.93,2.17c-.23.36.23.85.6.6s.75-.53,1.12-.82c-.11.09.12-.09.15-.12.04-.03.08-.07.12-.1.08-.07.16-.14.24-.21.18-.15.36-.3.55-.45.71-.57,1.41-1.15,2.13-1.71.1-.08-.13.1.04-.03.05-.04.1-.08.16-.12.09-.07.17-.13.26-.2.19-.15.38-.29.57-.44.4-.3.79-.6,1.18-.91.71-.55,1.41-1.1,2.1-1.67.15-.12.3-.25.45-.37.08-.06-.09.07-.08.06.02-.02.04-.03.06-.05.04-.03.07-.06.11-.09.09-.07.18-.14.27-.2.42-.32.84-.63,1.25-.95.98-.76,1.94-1.54,2.8-2.43.4-.42.78-.91,1.06-1.43.13-.23.3-.53.26-.8,0-.03-.03-.07-.01-.01-.01.07-.01.05,0-.08-.02-.14-.02-.15,0-.04,0-.07-.01-.14-.03-.21-.02-.1-.05-.19-.09-.28-.11-.24-.51-.17-.56.07h0Z"/>
        <path class="cls-4" d="M171.82,277.79c0,.26-.05.47-.12.72s-.09.5-.13.76c-.08.5-.19,1-.3,1.5-.24,1.05-.52,2.09-.82,3.12s-.6,2.03-.88,3.06c-.32,1.17-.62,2.35-.93,3.52-.61,2.34-1.26,4.67-1.93,6.99s-1.29,4.49-1.66,6.79c-.17,1.05-.3,2.1-.51,3.14-.11.53-.23,1.05-.4,1.56-.04.12-.08.24-.13.37-.02.05-.04.1-.06.15-.02.04-.03.08-.05.12.02-.06.03-.06,0-.02-.1.23-.21.46-.32.69-.15.31-.09.7.23.88s.68.05.88-.23c.57-.77.85-1.79,1.07-2.71s.38-1.89.53-2.85c.37-2.27.95-4.49,1.6-6.69.69-2.34,1.37-4.68,1.98-7.04.58-2.24,1.15-4.47,1.74-6.71.31-1.19.62-2.37.79-3.59.09-.61.14-1.23.15-1.85,0-.3.01-.61-.06-.9-.03-.13-.07-.26-.11-.39-.05-.15-.06-.31-.08-.46-.04-.29-.5-.21-.5.07h0Z"/>
        <path class="cls-4" d="M154.4,241.72c.06.13.11.24.12.39,0,.11.02.21.04.31.04.25.08.49.11.74.06.52.12,1.03.19,1.55s.14.99.26,1.47c.14.56.3,1.11.45,1.67.31,1.14.62,2.27.91,3.41s.58,2.14,1.06,3.17c.26.56.55,1.1.86,1.64.15.26.31.53.48.78.08.11.16.23.24.34.16.21.3.37.52.52.24.18.62.11.84-.06.24-.18.35-.5.27-.79-.15-.54-.55-1.02-.84-1.5s-.55-.94-.79-1.43-.46-.97-.67-1.47c.06.14.01.02,0,0-.03-.06-.05-.13-.08-.19-.05-.13-.1-.26-.14-.39-.1-.27-.18-.54-.27-.81-.37-1.11-.75-2.21-1.13-3.31-.35-1.02-.71-2.02-.97-3.07-.13-.55-.25-1.09-.45-1.61-.1-.27-.21-.53-.33-.79-.05-.12-.12-.21-.2-.31-.09-.12-.15-.26-.22-.39-.09-.17-.34-.02-.26.15h0Z"/>
        <path class="cls-4" d="M176.02,247.39c-.09.26-.16.53-.27.78s-.22.51-.32.76c-.2.51-.34,1.06-.48,1.59-.29,1.08-.53,2.17-.75,3.27-.45,2.25-.75,4.55-1.01,6.83-.07.62-.13,1.24-.19,1.86-.03.31-.06.63-.08.94s-.07.63-.04.94c.04.36.24.66.63.71.35.05.7-.17.79-.52.15-.56.14-1.18.19-1.76s.11-1.11.16-1.66c.11-1.12.24-2.23.38-3.34.07-.54.13-.97.21-1.56s.17-1.12.25-1.67c.16-1.14.31-2.23.47-3.35.09-.62.16-1.24.24-1.86.04-.31.04-.61.06-.92s.05-.63.1-.95c.03-.21-.26-.31-.33-.09h0Z"/>
        <path class="cls-4" d="M199.85,244.61c-.12.58-.21,1.15-.25,1.74s-.07,1.17-.07,1.75c0,1.17.09,2.33.19,3.5s.23,2.33.37,3.49c.07.62.15,1.24.24,1.86.04.27.07.55.11.82.02.14.04.27.06.41,0,.01.02.15,0,.04.01.11.03.22.04.33.08.59.14,1.18.23,1.76.07.45.16.91.36,1.32.01.02.08.12.07.14l-.03-.08s.04.09.06.14c.04.1.09.2.13.3.08.16.16.32.26.47.22.35.48.67.76.97.5.55,1.09,1.01,1.65,1.49.43.37.85.75,1.29,1.12.56.48,1.12.95,1.69,1.42.23.19.47.4.72.56.33.21.89.18,1.11-.18l-.63.25s.11.02.16.02c.3.02.55-.27.55-.55,0-.31-.25-.54-.55-.55l.14.02.39.68c.04-.28-.04-.63-.26-.82-.16-.14-.33-.27-.49-.4-.48-.41-.94-.82-1.41-1.24-.93-.83-1.9-1.63-2.81-2.49-.27-.25-.54-.51-.78-.79-.03-.03-.06-.07-.08-.1-.01-.01-.1-.15-.04-.04s-.02-.03-.03-.05c-.02-.03-.04-.06-.06-.08-.11-.16-.2-.32-.29-.48-.03-.07-.07-.18-.11-.24.08.09.03.09.02.03,0-.05-.03-.11-.04-.16-.06-.19-.12-.39-.16-.58-.02-.09-.04-.18-.06-.27-.01-.06-.02-.13-.03-.19-.02-.15,0-.02,0,0-.04-.3-.08-.6-.12-.9-.31-2.35-.64-4.49-.92-6.78-.16-1.28-.28-2.56-.4-3.83-.06-.62-.13-1.25-.18-1.87s-.14-1.3-.23-1.95c-.04-.29-.51-.27-.57,0h0Z"/>
        <path class="cls-4" d="M201.36,244.45c.17.05.34.1.52.12.14.02.27.03.41.03.27,0,.54,0,.81-.01.59-.03,1.18-.1,1.76-.21,1.07-.19,2.11-.47,3.17-.72.3-.07.6-.14.9-.21.14-.03.29-.06.43-.09.21-.04.41-.07.59-.2.24-.16.38-.41.34-.7-.04-.26-.23-.53-.5-.59-.22-.05-.38-.04-.6,0-.11.02-.21.05-.32.07-.2.05-.4.09-.61.14-.41.1-.81.2-1.21.31-.8.21-1.61.42-2.42.59-.46.09-.93.18-1.4.24l.18-.02c-.32.04-.64.07-.96.09-.16,0-.32.02-.48.03-.2.01-.4.05-.6.08-.22.04-.41.31-.4.52.01.24.16.45.4.52h0Z"/>
        <path class="cls-4" d="M207.83,231.81c-.05.09-.14.22-.17.25-.03.04-.07.08-.11.12-.02.03-.05.05-.08.08-.07.07.14-.11-.04.04-.1.08-.19.18-.29.26.08-.07-.01,0-.04.03-.06.04-.12.08-.18.11-.1.06-.2.11-.3.17-.05.02-.1.05-.14.07-.02.01-.05.02-.07.03-.16.07.08-.02-.02,0-.24.08-.47.17-.71.24-.48.13-.97.23-1.46.35-.67.16-1.32.37-1.98.57-1.4.43-2.8.87-4.21,1.25s-2.87.63-4.34.85-3.01.46-4.52.69-2.9.49-4.37.6-3.01.12-4.52.15-2.99.12-4.49.22c-3.04.21-6.09.02-9.13-.03-.38,0-.77,0-1.15,0-.74,0-.74,1.15,0,1.15,3.1,0,6.2.24,9.3.11,1.53-.06,3.05-.21,4.58-.25s3.05-.04,4.57-.11,3.08-.28,4.61-.52,3.07-.46,4.61-.68,3-.42,4.48-.75,2.86-.75,4.27-1.17c1.23-.37,2.47-.7,3.71-1.04,1-.27,2.22-.68,2.72-1.67.13-.25.23-.51.29-.79.11-.49-.56-.8-.83-.35h0Z"/>
        <path class="cls-4" d="M160.77,238.32c-.03-.09-.07-.17-.1-.25-.04-.1-.12-.17-.2-.23-.13-.1-.25-.2-.41-.27-.27-.12-.55-.22-.84-.28-.58-.12-1.18-.13-1.77-.17-.31-.02-.62-.04-.92-.08l.19.03c-.22-.03-.45-.07-.67-.12s-.43-.1-.63-.19l.16.07s-.07-.03-.1-.04c-.08-.05-.16-.08-.25-.08-.09-.02-.18-.02-.27.01-.16.04-.33.16-.41.31-.08.16-.12.35-.07.52s.16.31.31.41c.27.16.57.29.87.38s.65.13.97.16c.55.05,1.1.04,1.65.07.3.01.6.03.9.07l-.18-.02c.21.03.42.07.62.14.09.03.19.05.28.09s.18.05.28.05c.04,0,.09,0,.13,0,.29.02.54-.31.45-.59h0Z"/>
        <path class="cls-4" d="M220.68,314.95c0,.14,0,.25-.06.38-.04.11-.08.21-.1.33-.06.29-.12.58-.16.87-.07.53-.09,1.05-.1,1.58-.03,1.09-.01,2.17.04,3.25.1,2.15.34,4.3.47,6.45.07,1.09.12,2.17.14,3.26s.03,2.18.08,3.27.12,2.19.2,3.28c.06.98.1,1.96.21,2.94.06.52.13,1.04.21,1.56.03.24.07.48.1.72,0,.07.02.14.03.2.02.16-.01-.1.01.08.01.11.03.22.04.34.06.47.11.93.13,1.4.02.4,0,.79.03,1.18.06.73,1.02.87,1.27.17s.13-1.61.06-2.36c-.08-.88-.21-1.76-.31-2.64s-.15-1.77-.19-2.65c-.06-1.11-.13-2.22-.18-3.33-.1-2.18-.04-4.37-.18-6.55s-.35-4.33-.55-6.49c-.11-1.2-.26-2.39-.38-3.59-.06-.63-.1-1.25-.19-1.88-.04-.29-.09-.58-.14-.87-.02-.13-.04-.26-.07-.39-.02-.07-.06-.13-.07-.2-.02-.1-.01-.2-.01-.3,0-.21-.31-.21-.32,0h0Z"/>
        <path class="cls-4" d="M212.08,319.72c-.91,1.42-1.36,3.12-1.85,4.72s-.9,3.25-1.36,4.88c-.38,1.35-.81,2.67-1.08,4.05-.25,1.29-.45,2.58-.72,3.87-.14.68-.3,1.36-.5,2.02-.09.29-.19.58-.31.87-.05.12,0,0,.01-.02-.03.06-.05.12-.08.17-.11.27.04-.08-.01.03-.02.04-.03.07-.05.11-.06.13-.12.25-.19.37-.17.31-.08.75.24.92s.72.07.92-.24c.63-.98.93-2.16,1.19-3.28.3-1.29.5-2.6.75-3.9s.62-2.62.98-3.93c.45-1.64.87-3.29,1.3-4.93.24-.93.45-1.86.69-2.79s.44-1.85.51-2.79c.02-.25-.32-.3-.44-.12h0Z"/>
        <path class="cls-4" d="M228,396.26c.69-.46,1.04-1.35,1.4-2.07.39-.78.71-1.6,1.03-2.41.61-1.57,1.08-3.21,1.53-4.83.91-3.26,1.57-6.59,2.39-9.87.23-.9.47-1.8.71-2.7s.54-1.78.68-2.7c.05-.29-.05-.59-.35-.7-.27-.11-.6-.02-.75.24-.4.75-.66,1.56-.91,2.38s-.47,1.59-.68,2.4c-.43,1.62-.83,3.25-1.23,4.88-.81,3.28-1.6,6.58-2.67,9.79-.29.87-.6,1.74-.89,2.61-.15.44-.3.87-.46,1.3s-.34.9-.31,1.39c.02.24.29.45.52.3h0Z"/>
        <path class="cls-4" d="M126.26,363.31c-.04.61-.16,1.22-.21,1.83s-.09,1.22-.12,1.83c-.06,1.22-.12,2.45-.16,3.67-.07,2.43-.12,4.85-.13,7.28s.02,4.85.11,7.27.22,4.89.47,7.32c.15,1.39.32,2.79.53,4.17.1.65.22,1.31.34,1.96.06.32.11.66.21.97.1.35.26.67.39,1.01.09.22.27.37.51.34.23-.03.4-.22.41-.46,0-.3.03-.6.03-.9s-.04-.6-.08-.9c-.07-.6-.15-1.2-.22-1.81-.13-1.2-.26-2.39-.37-3.59-.21-2.42-.38-4.84-.47-7.27-.19-4.85-.17-9.7-.22-14.55-.01-1.36-.04-2.73-.09-4.09-.02-.67-.05-1.33-.1-2s-.16-1.38-.21-2.08c-.03-.39-.58-.39-.61,0h0Z"/>
        <path class="cls-4" d="M149.25,309.54c-.01.46-.02.92-.08,1.37s-.15.89-.2,1.34c-.11.9-.16,1.81-.24,2.72-.15,1.81-.32,3.63-.49,5.44-.34,3.61-.68,7.21-.97,10.82-.14,1.79-.29,3.59-.35,5.39s-.04,3.64-.05,5.46-.12,3.64-.13,5.46.09,3.58.08,5.36c0,1.49-.13,2.98-.18,4.47-.03.76-.03,1.52.02,2.28s.11,1.56.32,2.31c.09.33.21.66.34.98.12.29.39.5.71.41s.47-.41.41-.71c-.02-.08-.03-.17-.05-.25,0-.04-.01-.09-.02-.13,0-.02-.02-.12,0-.02-.02-.17-.04-.34-.05-.52-.03-.36-.05-.72-.07-1.08-.04-.76-.03-1.52,0-2.28.08-1.51.24-3.02.31-4.53.08-1.69.01-3.39,0-5.08-.01-1.81.09-3.61.13-5.42s0-3.61.01-5.41.1-3.63.21-5.44c.23-3.59.53-7.18.7-10.78.09-1.8.17-3.6.2-5.4.02-.91.03-1.81.03-2.72s-.07-1.78-.17-2.67c-.05-.45-.03-.9-.04-1.36,0-.24-.37-.24-.38,0h0Z"/>
        <path class="cls-4" d="M125.18,344.89c-.04.12-.07.23-.11.35-.05.16-.06.32-.07.48,0,.25-.01.5-.02.75s0,.49,0,.74.01.5.01.75c0,.14,0,.29,0,.43,0,.07,0,.14,0,.21,0,.08.01.15.02.23,0,.09.02.18.06.26.03.08.07.16.14.22.06.07.13.11.22.14.08.04.17.06.26.06.18,0,.36-.07.48-.2l.11-.14c.06-.11.09-.22.09-.34.01-.1.02-.19.02-.28,0-.09-.01-.18-.02-.27-.01-.18-.03-.37-.04-.55s-.03-.36-.05-.54c-.02-.23-.05-.46-.08-.69-.03-.2-.06-.41-.08-.61l.02.15c-.01-.09-.02-.17-.03-.26-.02-.13-.03-.26-.06-.39-.04-.17-.12-.33-.18-.49-.05-.14-.18-.27-.34-.26s-.29.11-.34.26h0Z"/>
        <path class="cls-4" d="M95.66,393.69c.05-.06.1-.12.16-.17.07-.07.06-.06.16-.1-.07.03-.01,0,.02,0,.07-.02.07-.02,0,0,.1-.01.14-.04.23-.06-.01,0-.09.05-.03.02,0,0,.03,0,.04,0,.06-.01-.12,0-.04,0,.03,0,.06,0,.09,0,.02,0,.09,0,0,0-.13,0,.09.01.1.01.03,0,.07,0,.11,0,.13,0-.08-.02,0,0,.07.02.13.03.2.05.04.01.08.03.12.04.07.02-.11-.05.02,0,.03.02.06.03.1.04.22.1-.07-.04.01,0,.04.02.07.03.11.05.09.04.17.09.26.14.17.1.34.21.5.33.02.01.14.11.08.06-.06-.05.05.04.08.06.09.07.18.15.27.22.17.15.34.3.51.46.64.6,1.23,1.25,1.82,1.89.64.7,1.32,1.34,2,1.99,1.19,1.13,2.38,2.25,3.6,3.35s2.49,2.11,3.71,3.19,2.38,2.18,3.58,3.27,2.42,2.04,3.61,3.08,2.39,2.1,3.75,2.94,2.72,1.39,4.05,2.14c.17.09.33.19.5.29.18.11.39.17.58.25.48.19.79-.49.48-.82-.55-.58-1.32-.93-2.02-1.3s-1.4-.71-2.08-1.09c-1.38-.77-2.56-1.72-3.75-2.76s-2.48-2.07-3.69-3.14-2.42-2.22-3.64-3.31-2.53-2.14-3.77-3.23-2.49-2.26-3.71-3.41c-.75-.71-1.52-1.41-2.22-2.17-.6-.65-1.2-1.3-1.86-1.9s-1.34-1.2-2.14-1.55c-.35-.15-.74-.25-1.13-.21-.07,0-.39.12-.2.04-.06.03-.13.05-.19.08-.06.03-.11.06-.17.09-.05.03-.1.06-.15.11-.15.15-.06.09-.03.04-.03.04-.06.07-.08.1-.04.06-.08.12-.11.18-.08.15-.14.29-.19.49-.05.21.24.42.4.23h0Z"/>
        <path class="cls-4" d="M257.2,388.33c-.14-.26-.33-.56-.59-.7-.24-.13-.52-.19-.79-.17-.57.05-1.05.41-1.51.71-1.08.71-2.1,1.5-3.18,2.2-1.18.77-2.46,1.38-3.72,2.01s-2.57,1.27-3.85,1.9c-2.55,1.27-5.06,2.61-7.67,3.77-1.05.47-2.12.86-3.15,1.37-.85.41-1.68.86-2.53,1.27s-1.7.78-2.68,1.04c-.22.06-.45.11-.68.15-.02,0-.16.03-.1.02s-.08,0-.1.01c-.12.01-.23.02-.35.03-.2,0-.4,0-.6-.02-.1,0,.07.02-.06,0-.04,0-.09-.02-.13-.03-.1-.02-.19-.05-.29-.07s-.19-.05-.28-.08c-.02,0-.13-.05-.08-.03s-.09-.04-.1-.05c-.58-.29-1.02.49-.51.86.72.53,1.63.61,2.49.51.98-.12,1.92-.43,2.83-.81s1.85-.85,2.76-1.32c.39-.2.77-.39,1.17-.58.17-.08.35-.16.53-.24-.09.04-.04.02.02,0,.06-.03.13-.05.19-.08.17-.07.33-.14.5-.2,2.65-1.1,5.22-2.36,7.78-3.65s5.14-2.5,7.66-3.85c1.16-.62,2.22-1.36,3.28-2.15.52-.39,1.04-.77,1.56-1.14.22-.15.44-.31.68-.43.03-.01.05-.03.08-.04-.01,0-.05.02,0,0,.05-.02.1-.04.15-.05s.1-.03.15-.04c.06-.01,0,0,0,0,.03,0,.07,0,.1,0,.2.01.47.12.69.25s.45-.13.34-.34h0Z"/>
        <path class="cls-4" d="M112.47,376.7c.06-.02.12-.05.19-.06h-.23s.07.01.1.02c.12.02.21-.02.32-.06l-.11.05c.11-.05.22-.09.32-.14.08-.04.15-.1.22-.15.17-.12.33-.24.49-.37.27-.21.54-.43.8-.66.52-.46,1.01-.95,1.53-1.41.28-.26.57-.51.88-.74l-.13.1c.31-.24.64-.46.97-.68.14-.09.25-.22.3-.39.04-.15.02-.36-.07-.5-.2-.3-.56-.4-.88-.23-.18.1-.36.2-.52.32-.21.15-.41.31-.61.47-.33.27-.64.56-.94.86s-.61.61-.92.91-.6.62-.91.91c-.17.16-.35.32-.54.48-.09.07-.19.14-.27.22-.04.04-.08.08-.12.12-.02.02-.04.04-.06.06-.1.11-.14.21-.15.36l.02-.12s0,.02,0,.03l.04-.1h-.01s.04-.04.07-.07c-.04.04-.08.09-.12.13-.11.12-.15.32-.06.46s.26.23.43.17h0Z"/>
        <path class="cls-4" d="M188.46,290.8c.08.02.16.05.24.07l-.18-.1s-.07-.09-.05-.06c.03.03.05.07.07.1.06.06.14.1.22.13.04.02.09.03.13.04.13.03.27.05.4.05.2,0,.41.02.61.03.44.03.89.05,1.33.1.26.03.52.06.78.09l-.19-.03c.25.03.49.07.74.1l-.19-.03c.99.13,1.99.32,2.94.63.37.12.83-.14.92-.52.09-.4-.12-.8-.52-.92-.88-.27-1.79-.43-2.7-.55-.51-.07-1.01-.12-1.52-.14-.46-.02-.93-.05-1.38-.02-.24.02-.48.04-.72.07-.36.05-.84.11-.97.51l.11-.19c.06-.07.06-.05.02-.02-.02.01-.04.02-.06.03-.04.02-.07.04-.11.06-.22.13-.18.48.07.55h0Z"/>
        <path class="cls-4" d="M177.79,246.43c.07.05.13.1.2.14.03.02.06.04.09.06.08.05-.07-.06,0,0,.13.1.25.22.37.32.25.22.48.47.69.74.08.1.01.02,0,0,.02.03.05.06.07.1.05.06.09.13.14.19.11.15.22.31.33.46.2.28.39.57.6.85.83,1.14,1.86,2.18,3.12,2.84,1.43.75,3.06,1.07,4.65,1.28.97.13,1.95.23,2.93.31.41.03.83.05,1.24.09.04,0,.07,0,.11.01.15.02-.05,0-.05,0,0,0,.2.03.22.04.13.02.26.05.39.09.07.02.13.04.2.07.15.05-.15-.08.02,0,.06.03.11.06.16.09.04.02.11.09.15.1-.1-.02-.13-.11-.07-.05.02.02.05.05.08.07.04.04.08.09.12.13.06.06-.04.02-.05-.07,0,.02.05.07.06.09.03.05.06.09.09.14.03.06.06.12.08.17.04.08-.06-.16-.03-.07,0,.03.02.06.04.1.05.14.09.29.12.43.04.17.06.33.09.5.05.32.21.5.47.69.19.14.53.08.69-.09.2-.22.32-.45.29-.75-.02-.2-.05-.41-.09-.61-.05-.26-.12-.52-.22-.77-.23-.55-.57-1.02-1.08-1.34s-1.17-.44-1.79-.51c-.91-.11-1.82-.15-2.73-.23-.23-.02-.45-.05-.68-.07-.11-.01-.21-.02-.32-.04-.07,0-.13-.02-.2-.03-.04,0-.18-.02-.08-.01-.48-.07-.96-.14-1.43-.24-.76-.15-1.51-.35-2.23-.64-.03-.01-.13-.06.02,0-.03-.02-.07-.03-.1-.05-.07-.03-.13-.06-.2-.09-.16-.08-.31-.16-.46-.25-.13-.08-.26-.16-.39-.25-.06-.04-.12-.08-.18-.13-.04-.03-.07-.06-.11-.08-.07-.05.1.08,0,0-.55-.46-1.06-.96-1.5-1.52.11.13-.06-.08-.09-.13-.06-.08-.11-.16-.17-.24-.12-.16-.23-.32-.35-.49-.26-.36-.51-.72-.8-1.05-.52-.61-1.17-1.24-2-1.36-.27-.04-.53.04-.64.31s0,.52.22.68h0Z"/>
        <path class="cls-4" d="M180.55,248.24c.08,0,.16.02.23.02.03,0,.06,0,.09.01.09.01.05,0,.03,0,.18.03.35.07.53.08.29.02.58.03.88.06.6.05,1.19.11,1.79.17,1.18.12,2.38.17,3.57.08.71-.06,1.42-.16,2.11-.34l-.84-.34s.04.09.06.14c-.11-.23-.02-.06,0,0,.03.08.06.17.09.25.06.19.12.38.17.57.1.4.18.81.25,1.21.14.8.26,1.6.42,2.4.06.28.39.54.68.52.05,0,.14-.01.19-.03.16-.04.34-.18.42-.32.09-.18.1-.34.07-.54-.01-.08-.02-.15-.03-.23l.03.19c-.11-.84-.18-1.7-.33-2.54s-.37-1.62-.72-2.37c-.14-.3-.54-.42-.84-.34-.46.12-.92.21-1.4.28l.2-.03c-.99.13-1.99.16-2.99.17s-2,0-3,.05c-.31.01-.63,0-.93.06-.27.05-.54.11-.81.17-.16.03-.26.21-.24.37.03.17.16.27.33.29h0Z"/>
      </g>
    </g>
    <path class="cls-3" d="M117.32,413.5c-.28,1.78-.9,3.5-1.82,5.22-1.03,1.94-2.41,5.15-4.68,5.84-1.71-.55-17.58-7.88-19.04-8.35-1.58-.5-3.1-.88-4.63-1.56-3.51-1.57-6.86-3.76-9.96-6.08-1.67-1.27-6.87-4.78-10.9-8.42.19-.3.37-.58.51-.81.63-1.13,1.43-2.2,2.27-3.18,1.63-1.92,3.76-3.79,6.37-4.05,1.68-.17,3.75,1.17,5.13,2.04,2.52,1.57,5.18,2.58,8.13,3.06,1.93.33,3.87.83,5.73.04.65-.28,1.24-.58,1.79-1.02.25-.19.5-.43.73-.69,1.06,1.12,2.6,2.03,3.8,3.03,1.89,1.58,3.72,3.22,5.61,4.82,3.49,2.98,6.56,6.41,10.06,9.31.3.25.61.51.91.79Z"/>
    <path class="cls-2" d="M110.12,427.94c-.79,1.17-1.67,2.22-3.06,1.87-1.74-.43-3.4-1.32-5.04-2-2.37-.98-4.79-1.93-7.04-3.15-1.5-.84-2.98-1.75-4.52-2.48.23-1.12.99-2.29,1.38-3.39.33-.92.41-1.21-.73-1.23-1.78-.03-3.57.4-5.36.19-2.37-.29-4.82-1.89-6.75-3.22-3.13-2.18-6.25-4.26-9.12-6.79-1.36-1.21-4-3.02-4.55-4.84-.25-.81.41-1.87.96-2.74,4.02,3.64,9.23,7.15,10.9,8.42,3.1,2.31,6.45,4.51,9.96,6.08,1.53.68,3.04,1.06,4.63,1.56,1.46.47,17.33,7.8,19.04,8.35,1.07.92-.11,2.51-.7,3.38Z"/>
    <path class="cls-3" d="M262.99,403.05c-1.38,1.14-16.09,10.58-17.28,11.56-1.27,1.06-2.41,2.15-3.8,3.07-3.21,2.12-6.86,3.76-10.48,5.13-1.96.73-7.72,3.22-12.95,4.66-.15-.32-.29-.63-.41-.87-.61-1.14-1.07-2.4-1.46-3.62-.74-2.4-1.17-5.21.01-7.54.76-1.5,3-2.54,4.46-3.24,2.69-1.27,4.97-2.98,6.96-5.19,1.14-1.27,2.41-2.48,2.93-4.08,2.3-.61,5.29-1.79,7.27-3.02,4.27-2.66,9.01-5.26,13.65-7.22,1.83-.77,2.96-1.46,3.49-2.38,2.2,1.38,3.86,3.25,5.19,5.65,1.07,1.93,3.04,4.81,2.41,7.1Z"/>
    <path class="cls-2" d="M265.38,409.06c-1.28,1.23-2.93,2.15-4.38,3.17-2.11,1.46-4.22,3-6.46,4.23-1.5.83-3.07,1.57-4.52,2.48-.81-.8-1.39-2.07-2.11-2.99-.61-.77-.81-.99-1.43-.04-.96,1.49-1.57,3.22-2.73,4.63-1.5,1.85-4.17,3.04-6.34,3.95-3.53,1.47-6.96,2.99-10.64,4.04-1.75.5-4.68,1.74-6.52,1.23-.81-.22-1.36-1.34-1.79-2.29,5.24-1.43,10.99-3.93,12.95-4.66,3.62-1.36,7.27-3,10.48-5.13,1.39-.92,2.54-2.01,3.8-3.07,1.18-.98,15.9-10.42,17.28-11.56,1.36-.41,2.05,1.45,2.48,2.41.55,1.28.96,2.6-.08,3.6Z"/>
  </g>
  <g>
    <g>
      <g>
        <path class="cls-1" d="M129.64,211.8c0,1.38-.22,2.41-.59,3.18-1.25,2.7-4.23,2.38-5.65,2.63-1.63.29-3.71.47-5.46.1-.8,1.41-2.49,2.7-3.6,3.8-1.24,1.24-2.65,2.41-4.12,3.36-1.13.73-2.69,1.1-4.05.92-.96-.12-2.65-.5-3.68-1.18-2.42,1.21-5.18,1.57-6.38-.96-2.09.48-4.33-.1-5.07-2.29-1.54.59-3.22.48-4.51-.83-1.31-1.35-1.32-3.72-.7-5.57h5.04c.81-.83,1.63-1.67,2.44-2.54.91-.98,1.85-1.96,2.77-2.93.66-.72,1.2-1.56,1.75-2.37-3.21-1.58-8.42,1.05-11.3-2.27-.95-1.1-.52-2.78.62-3.54,1.39-.94,3.27-.4,4.79-.39,2.6.01,4.77-1.38,7.29-.77,2.11.51,4.44-.1,6.49.39,1.02.22,2.01.73,3.02,1.21,3.17-1.71,6.5-2.08,10.29-2.85,1.18-.23,2.38-.41,3.58-.65.72-.12,1.78-.62,2.51-.34.79.29,1.36,1.05,1.83,1.97.65,1.31,1.05,2.95,1.35,3.93.8,2.58,1.3,5.28,1.32,7.99Z"/>
        <g class="cls-12">
          <path class="cls-3" d="M119.14,216.62s.12-.08.16-.13c.05-.07-.06.02,0,0,.04-.02.09-.03.13-.05.19-.11.31-.31.39-.52s.14-.43.17-.65c.04-.3.04-.57-.01-.87-.04-.24-.12-.46-.2-.69-.21-.6-.45-1.19-.76-1.75-.27-.5-.58-.97-.92-1.43-.75-1.04-1.58-2.03-2.41-3.01s-1.63-1.83-2.55-2.64c-.49-.43-1.02-.83-1.51-1.26s-.9-.9-1.38-1.31c-.18-.16-.43-.19-.63-.04s-.22.39-.12.62c.24.52.66.95,1.06,1.35s.82.78,1.24,1.17.83.74,1.22,1.14c.44.45.86.91,1.26,1.38s.81.96,1.2,1.45c.2.25.39.5.59.74.05.06.09.12.14.18.03.03.11.15.04.05.1.13.19.25.29.38.68.91,1.26,1.86,1.71,2.89.04.09.08.18.12.27-.06-.13.03.07.04.11.05.13.1.26.15.39.04.11.07.23.1.35,0,.04,0,.13.03.17v-.05c-.02-.11-.01-.07.01.13,0,.03.01.05.02.08,0,.02,0,.06.01.08-.01-.03-.01-.14,0-.05,0,.06,0,.11,0,.17,0,.13,0,.25-.02.38,0,.07,0-.03,0-.03-.01.07-.03.15-.03.23,0,.09,0,.2.04.29.01.04.03.1.06.14.03.04.05.07.08.11.02.02.01.01-.02-.03-.06-.04-.03-.03-.02.04,0,.05.02.1.02.16.02.15.21.16.31.08h0Z"/>
          <path class="cls-3" d="M98.88,204.22s-.08-.02-.12-.01h.11c-.08,0-.11,0-.18,0-.03,0-.05,0-.08.01-.02,0-.04,0-.06.01l.13-.02c-.19-.02-.33.12-.47.23-.05.04-.1.09-.16.13-.05.04-.1.08-.14.13-.04.05-.09.11-.13.16-.17.2-.34.41-.51.61-.12.14-.24.28-.35.43-.08.11-.16.21-.24.32s-.16.21-.24.32c-.04.05-.08.1-.11.15-.04.06-.08.11-.11.17-.07.13-.15.26-.21.39-.05.1-.1.2-.13.3,0,.03-.01.07-.02.1-.01.08-.02.12,0,.19,0,.07.02.13.05.18.02.04.05.08.09.1.04.03.08.05.12.07.06.02.13.02.19,0,.02,0,.05,0,.07-.01.06-.01.11-.05.17-.08.07-.03.1-.06.17-.11.03-.02.06-.05.08-.07.1-.08.2-.17.29-.26.05-.04.09-.09.14-.13.05-.05.09-.11.13-.16.08-.1.17-.21.25-.31s.17-.21.25-.31c.12-.14.23-.29.34-.43.16-.21.32-.43.48-.64.04-.06.09-.12.13-.18.02-.03.04-.06.07-.09s.03-.06.05-.1c.03-.07.06-.13.09-.2.08-.17.19-.35.11-.54l.02.13s0-.04,0-.06c0,0,0-.02,0-.02,0-.09-.03-.14-.06-.22l.04.1s-.03-.08-.04-.11c-.05-.08-.14-.16-.23-.18h0Z"/>
          <path class="cls-3" d="M89.96,222.82h.01s-.06-.02-.09-.03c.08.04.16.07.25.11l-.11-.05c.08.06.17.06.26.07l-.13-.02s.09.02.13.02c.02,0,.04,0,.06,0,.01,0,.02,0,.03,0l.16.02c.06,0,.11-.01.17-.02l-.16.02c.15-.02.29-.04.44-.06l-.17.02c.08-.01.16-.02.24-.04.03,0,.05-.02.08-.03.06-.02.12-.04.18-.06.16-.06.32-.13.48-.2.22-.1.43-.21.64-.33.26-.15.5-.33.73-.53.09-.08.18-.16.26-.24s.18-.17.26-.27.15-.19.21-.28c.04-.05.08-.11.11-.17s.06-.13.09-.19c.03-.07.06-.14.09-.21.03-.08.02-.14.01-.21,0-.09-.02-.17-.06-.24-.03-.06-.07-.1-.12-.13-.12-.09-.26-.12-.41-.08-.02,0-.04,0-.06.01-.11.03-.19.1-.27.17-.04.03-.08.07-.13.1l.12-.09c-.07.06-.15.11-.22.17-.04.04-.08.07-.11.11-.08.07-.15.13-.23.2-.15.14-.3.27-.46.4l.14-.1c-.13.1-.26.18-.38.28s-.25.17-.38.25c-.26.16-.53.3-.82.42l.15-.06c-.14.06-.29.1-.42.17-.09.05-.17.09-.26.13l.14-.06s-.06.02-.08.03c-.07.02-.14.06-.19.12,0,0-.01.01-.02.02-.02.01-.04.03-.05.04l.11-.08s-.05.04-.08.06c-.01,0-.02.02-.03.02-.08.06-.13.1-.19.19l.07-.09s-.07.08-.11.12l.07-.06h-.01s-.09.08-.13.13c-.04.07-.05.15-.04.22.02.14.12.25.25.29h0Z"/>
          <path class="cls-3" d="M95.07,225.04c.1.06.21.1.33.14l-.1-.04h0c-.07-.08-.13-.17-.2-.25.02.09.07.17.13.23.05.05.1.08.17.11.05.03.11.05.16.07.06.02.13.02.19.03.03,0,.07,0,.1,0,.19,0,.37-.04.55-.09.3-.09.59-.22.87-.37.12-.06.23-.13.35-.2.16-.1.3-.22.45-.34.21-.17.41-.35.61-.53.23-.21.44-.43.66-.64.12-.11.19-.29.19-.45s-.07-.34-.19-.45-.28-.19-.45-.19l-.17.02c-.11.03-.2.08-.28.16-.4.32-.78.66-1.19.97l.14-.11c-.11.08-.22.17-.33.24s-.22.16-.34.24c-.22.15-.46.28-.71.39l.16-.07c-.19.08-.38.13-.57.22-.03.02-.06.03-.1.05-.08.04-.14.07-.2.13-.04.04-.07.08-.11.12-.07.09-.12.21-.11.33l.13-.31h0s.06-.04.09-.06c-.04.02-.08.04-.12.06s-.07.05-.11.07c-.09.06-.15.15-.15.26s.06.2.15.26h0Z"/>
          <path class="cls-3" d="M102.13,226.27c.2-.09.4-.18.6-.28l-.14.06c.06-.03.12-.05.18-.08.02-.01.03-.02.05-.03.03-.02.07-.04.1-.06.06-.04.13-.08.19-.12.16-.13.33-.25.49-.38.25-.2.5-.4.74-.6.14-.12.27-.26.4-.39.06-.06.11-.13.14-.21.04-.08.06-.16.06-.25,0-.09-.02-.17-.06-.25-.03-.08-.07-.15-.14-.21l-.13-.1c-.1-.06-.21-.09-.33-.09l-.17.02c-.11.03-.21.09-.29.17-.15.14-.32.27-.47.41s-.3.27-.45.41-.3.26-.45.39c-.04.03-.07.06-.11.1s-.07.07-.1.1c-.08.09-.17.18-.25.27-.15.19-.28.38-.42.57l-.04.1c-.02.05-.02.11,0,.16,0,.04,0,.07.03.1.02.05.04.09.08.13.05.05.11.08.18.11.05.02.11.02.16,0,.05,0,.11-.02.15-.05h0Z"/>
          <path class="cls-3" d="M91.7,212.66s-.07.02-.11.03l.11-.02s-.1,0-.13.02c-.04.01-.08.03-.11.05-.02,0-.03.02-.05.02-.04.02-.07.03-.11.05-.07.03-.13.08-.19.12-.08.05-.17.11-.25.17-.08.06-.15.14-.22.21-.11.11-.22.23-.32.35s-.2.25-.31.37c-.41.5-.81.99-1.23,1.48-.12.13-.23.27-.35.4-.06.07-.12.13-.19.2s-.13.12-.19.19c-.12.13-.2.29-.2.48,0,.09.02.18.06.26.03.08.07.16.14.22.13.12.3.21.48.2l.18-.02c.11-.03.21-.09.3-.17.12-.1.23-.21.34-.32s.22-.22.33-.34c.22-.23.42-.48.62-.73s.39-.5.59-.75c.22-.29.46-.58.67-.88.05-.07.1-.14.15-.21.03-.03.05-.07.08-.11s.04-.08.06-.12c.04-.08.07-.16.11-.23.05-.11.09-.22.13-.34l-.04.1c.04-.09.06-.15.07-.24l-.02.11s.02-.07.03-.11c.03-.12,0-.25-.09-.35s-.22-.13-.35-.09h0Z"/>
          <path class="cls-3" d="M112.28,205.35c0,.19.02.38.06.56.04.17.08.35.12.52.08.34.15.68.25,1.02.21.68.43,1.35.68,2.01.26.7.53,1.4.84,2.09.29.64.62,1.27.97,1.87.19.34.39.68.62.99.14.19.28.38.43.57.06.07.12.15.18.22.11.14.25.21.42.27.32.12.69-.19.68-.52,0-.16-.03-.3-.12-.44-.05-.08-.1-.16-.15-.24-.09-.15-.17-.29-.26-.44-.17-.31-.35-.62-.52-.93-.34-.62-.64-1.25-.92-1.9-.16-.38-.33-.75-.49-1.13l.07.17c-.17-.41-.34-.82-.5-1.24-.08-.21-.16-.42-.24-.62-.04-.09-.08-.19-.12-.28.08.2,0,.01-.01-.03-.04-.1-.09-.21-.13-.31-.19-.45-.36-.89-.59-1.32-.1-.19-.2-.38-.3-.58-.05-.1-.09-.19-.15-.28-.07-.1-.15-.2-.23-.29-.08-.11-.27-.12-.38-.07-.12.05-.22.18-.22.32h0Z"/>
          <path class="cls-3" d="M102.56,214.96c-.08.03-.14.09-.14.19,0,.06.03.11.07.15s.08.08.13.11l-.05-.04s0,0,.01.01l-.08-.19v.02s0,.08.01.11c.01.06.04.1.08.15.06.07.13.13.22.15.07.02.14.04.21.06.08.02.17.03.26.05.19.03.38.06.58.09.25.04.51.07.76.1.1.01.2.02.29.04.09.01.18.01.27.01s.17,0,.26,0,.18,0,.27-.03c.01,0,.03,0,.04-.01,0,0,.01,0,.02,0,.03,0,.04-.02.08-.03.1-.04.07-.03.19-.12.07-.07.12-.16.15-.25.02-.08.03-.15.01-.23,0-.08-.03-.15-.07-.21-.05-.09-.12-.15-.21-.21-.02-.01-.09-.04-.08-.03-.04-.02-.05-.02-.07-.03,0,0-.01,0-.02,0-.01,0-.03,0-.04-.01-.08-.02-.17-.03-.25-.03-.07,0-.15,0-.22-.01-.09,0-.18-.02-.26-.01-.1,0-.19,0-.29.01-.4.01-.81.02-1.21.02-.1,0-.2,0-.3,0-.08,0-.17.02-.25.01l-.11.02c-.06.01-.1.04-.15.08-.07.05-.13.13-.15.22v.02c.04-.05.08-.11.12-.16,0,0-.01,0-.02,0l.06-.03s-.05.02-.07.03l.06-.03s-.06.02-.09.02c-.02,0,.07,0,.04,0,0,0,0,0-.01,0,0,0,.06.01.05,0,.03,0,.06.02.08.05.05.05.06.11.05.17.01-.07,0-.13-.05-.18-.04-.04-.12-.07-.18-.05h0Z"/>
        </g>
      </g>
      <g>
        <path class="cls-5" d="M179.85,191.15c-.4,1.24-.81,2.48-1.2,3.71-.72,2.3-1.47,4.6-2.34,6.81-1.14,2.88-2.11,6.76-4.42,8.97-1.1,1.05-3,1.16-4.44,1.42-1.96.36-4,.45-5.98.63-5,.45-10.07.94-15.1,1.28-4.01.28-8.03.52-12.04.72-1.71.1-3.51.26-5.29.3.37-.77.59-1.8.59-3.18-.03-2.71-.52-5.41-1.32-7.99-.3-.98-.7-2.62-1.35-3.93,1.01-.26,1.96-.56,2.65-.74,3.02-.77,6.01-1.5,9.02-2.27,3.62-.92,7.33-1.63,10.94-2.53,1.65-.41,3.87-1.14,5.91-1.23.37-1.09.79-2.16,1.18-3.22.84-2.22,1.58-4.49,2.34-6.74.99.88,2.37,1.57,3.36,2.01,5.68,2.54,11.59,4.23,17.48,5.99Z"/>
        <g class="cls-11">
          <path class="cls-3" d="M171.48,206.07h0s.07.03.11.04c0,0-.02,0-.03-.01-.04-.02-.09-.05-.14-.06-.01,0-.13-.02-.14-.02,0,0-.01,0-.02,0-.04,0-.07,0-.11,0-.02,0-.03,0-.05,0,0,0-.02,0-.03,0h-.08c-.06.01-.11.03-.16.05-.03.01-.06.03-.09.04-.04.02-.08.03-.11.05-.08.04-.16.07-.24.11s-.16.08-.24.13c-.16.09-.32.17-.48.26s-.3.18-.46.26c-.08.04-.17.09-.25.13-.12.06-.23.14-.34.23l.12-.09c-.05.04-.11.08-.16.12-.05.05-.08.09-.11.15-.04.06-.06.13-.06.2-.02.07-.01.14,0,.21l.05.13c.05.08.11.14.19.19,0,0,.01,0,.02,0,.05.02.1.05.15.06.02,0,.13.02.15.02,0,0,.01,0,.02,0,0,0,.02,0,.03,0,.09,0,.18-.01.27-.03.04,0,.08-.01.12-.03s.08-.03.12-.04c.22-.08.44-.18.65-.28.09-.04.18-.08.26-.13s.17-.09.25-.14.16-.09.25-.14.16-.1.24-.16c.04-.03.08-.06.12-.09.02-.01.04-.03.06-.04.05-.03.1-.07.14-.11.03-.03.07-.09.1-.13,0,0,0,0,0-.01.02-.03.05-.07.07-.1,0,0,.01-.02.02-.03.02-.02,0-.02.03-.07.01-.03.02-.05.03-.07,0-.02,0-.03,0-.05.02-.11.02-.25-.05-.35l-.07-.09c-.06-.06-.12-.09-.2-.12h0Z"/>
        </g>
      </g>
      <g>
        <path class="cls-15" d="M193.77,157.3c-.88,3.58-.83,7.23-1.53,10.84-.47,2.42-1.6,4.78-2.52,7.05-.56,1.39-1.14,2.88-1.8,4.28-.01.33-.04.65-.08.96-.29,2.56-.72,5.13-1.06,7.67-.14,1.1-.17,3.39-1.17,4.04-.91.59-2.95-.18-3.86-.44-.63-.19-1.25-.37-1.89-.56-5.9-1.76-11.81-3.46-17.48-5.99-.99-.44-2.37-1.13-3.36-2.01-.51-.47-.91-.98-1.1-1.56-.4-1.17.36-2.31.65-3.4.55-1.98.63-4.17,1.01-6.2.61-3.27,2.15-6.2,3.38-9.33,1.07-2.76,1.96-5.8,2.63-8.72.94-4.13,1.76-8.49,4.35-11.97,2.54-3.39,6.57-5.95,10.83-6.37,4.6-.45,9.2,1.49,12.17,5.04,3.98,4.79,2.19,11.23.85,16.66Z"/>
        <g class="cls-13">
          <path class="cls-3" d="M166.04,171.92c.22.19.42.37.67.53.26.16.52.33.79.48.5.28,1,.59,1.49.89s1.01.58,1.52.88,1.01.6,1.51.9c2,1.21,4.08,2.24,6.21,3.2.6.27,1.2.54,1.8.82s1.24.62,1.88.88c.29.12.63-.1.74-.36.12-.29,0-.61-.26-.78-.49-.31-1.04-.55-1.57-.8s-1.05-.51-1.58-.76c-1.06-.51-2.12-1.02-3.16-1.57-2.05-1.09-4.02-2.33-6.07-3.43-.6-.32-1.24-.58-1.86-.84-.31-.13-.62-.24-.94-.33s-.64-.13-.98-.15c-.22,0-.35.29-.18.44h0Z"/>
          <path class="cls-3" d="M177.32,153.78h.01s-.07-.04-.1-.07c.21.2.49.22.76.2.21-.02.41-.04.61-.09.33-.08.65-.2.96-.33.69-.29,1.34-.63,2.01-.97.33-.17.66-.33,1-.48l-.16.07c.37-.16.76-.3,1.16-.35l-.18.02s.1-.01.15-.01c.19-.02.36-.06.49-.2.05-.05.09-.11.12-.17.11-.17.12-.47,0-.63-.09-.12-.13-.19-.26-.27s-.27-.1-.41-.09c-.12,0-.24.03-.36.04-.13.02-.26.05-.39.09-.33.1-.66.24-.97.39-.62.29-1.21.64-1.81.96-.35.19-.71.37-1.08.52l.15-.06c-.24.1-.49.19-.74.26-.12.03-.23.07-.35.1-.06.02-.12.03-.18.05-.03,0-.06.01-.09.02-.08.02-.14.05-.21.08l.13-.06c-.13.05-.27.09-.36.21l.1-.08h-.01c-.14.11-.24.25-.24.43,0,.17.09.34.24.42h0Z"/>
        </g>
      </g>
    </g>
    <g>
      <path class="cls-3" d="M180.21,191.68c.58.34,1.17.67,1.81.9.71.26,1.45.48,2.21.49s1.52-.21,2.07-.77.82-1.32.99-2.06.23-1.42.37-2.13c.2-1.04.38-2.08.52-3.13.03-.23.03-.46.04-.68.01-.27.08-.55.11-.82.07-.5.13-.99.13-1.49,0-.94-.1-1.86.19-2.77s.72-1.68,1.12-2.49c.43-.87.79-1.78,1.11-2.69.66-1.87,1.14-3.79,1.52-5.73s.63-3.95.93-5.94.75-4.12,1.14-6.18c.2-1.03.38-2.07.53-3.11.08-.53.14-1.06.21-1.59.03-.22.05-.43.08-.65.01-.1.03-.21.04-.31,0-.01.02-.12,0-.03,0-.07.02-.13.03-.2.22-1.67.47-3.39.2-5.07-.08-.49-.18-.95-.36-1.41-.09-.23-.28-.39-.54-.35-.24.04-.42.23-.42.48,0,.92.12,1.82.14,2.74.02.76-.04,1.52-.12,2.28-.2,1.8-.41,3.61-.71,5.39-.34,2.03-.76,4.04-1.11,6.06s-.55,3.94-.87,5.91-.7,3.82-1.24,5.69c-.27.93-.58,1.85-.93,2.76-.33.84-.74,1.64-1.13,2.47s-.77,1.7-.88,2.62.05,1.92-.07,2.87c-.06.47-.1.96-.22,1.42-.13.49-.22.98-.32,1.47-.18.88-.38,1.77-.53,2.66-.12.71-.23,1.42-.44,2.11-.03.09-.06.19-.09.28-.02.05-.1.23-.04.1-.07.16-.15.3-.25.45-.02.03-.1.12,0,0-.02.03-.04.05-.07.08-.05.06-.11.11-.17.16-.02.01-.1.08-.03.03.08-.06-.06.03-.06.04-.07.05-.15.08-.22.12.02,0,.13-.05.02,0-.07.03-.14.06-.2.08.16-.05-.1.02-.14.03-.07.02-.14.03-.2.04-.12.02-.02,0,0,0-.05,0-.11.01-.16.02-.35.03-.7,0-1.05-.04-.04,0-.08,0-.12-.01-.11-.01.13.02-.06,0-.08-.01-.16-.02-.24-.04-.2-.03-.39-.07-.58-.12-.33-.07-.66-.12-1.01-.18-.3-.05-.58-.08-.88-.09-.17,0-.23.24-.09.32h0Z"/>
      <path class="cls-3" d="M168.65,143.87c-.1.04-.22.07-.31.12-.12.07-.22.23-.31.34-.19.22-.32.53-.44.79-.27.55-.47,1.14-.66,1.72-.39,1.16-.66,2.35-.95,3.53-.63,2.67-1.41,5.28-2.22,7.89-.42,1.37-.81,2.74-1.27,4.1s-.95,2.7-1.48,4.03-1.14,2.55-1.49,3.9-.48,2.69-.65,4.04c-.08.64-.17,1.29-.3,1.93s-.31,1.24-.51,1.85c-.39,1.23-.77,2.48-.49,3.78.07.34.21.66.36.97.22.46.93.13.81-.34-.32-1.22-.08-2.33.28-3.5.18-.59.38-1.18.54-1.78.17-.64.28-1.29.37-1.94.19-1.32.3-2.63.57-3.94.13-.65.3-1.29.54-1.92.25-.65.54-1.29.8-1.93.53-1.3,1.04-2.61,1.5-3.93s.86-2.7,1.28-4.06c.81-2.64,1.68-5.27,2.29-7.97.26-1.16.51-2.32.82-3.47.16-.58.31-1.17.49-1.74.09-.27.19-.54.28-.81s.22-.56.28-.84c.03-.12.07-.24.08-.36.01-.12-.04-.25-.05-.38-.01-.09-.08-.13-.16-.09h0Z"/>
    </g>
  </g>
</svg>