<?xml version="1.0" encoding="UTF-8"?>
<svg id="Layer_1" data-name="Layer 1" xmlns="http://www.w3.org/2000/svg" xmlns:xlink="http://www.w3.org/1999/xlink" viewBox="0 0 300 500">
  <defs>
    <style>
      .cls-1 {
        fill: #80acff;
      }

      .cls-2 {
        fill: #8189c4;
      }

      .cls-3 {
        fill: #041063;
      }

      .cls-4 {
        fill: #326bf5;
      }

      .cls-5 {
        fill: #ffa75d;
      }

      .cls-6 {
        fill: #c7966e;
      }

      .cls-7 {
        fill: #00003f;
      }

      .cls-8 {
        fill: #e3ba8e;
      }

      .cls-9 {
        clip-path: url(#clippath-1);
      }

      .cls-10 {
        clip-path: url(#clippath-3);
      }

      .cls-11 {
        clip-path: url(#clippath-4);
      }

      .cls-12 {
        clip-path: url(#clippath-2);
      }

      .cls-13 {
        clip-path: url(#clippath-7);
      }

      .cls-14 {
        clip-path: url(#clippath-6);
      }

      .cls-15 {
        clip-path: url(#clippath-9);
      }

      .cls-16 {
        clip-path: url(#clippath-8);
      }

      .cls-17 {
        clip-path: url(#clippath-5);
      }

      .cls-18 {
        fill: #041163;
      }

      .cls-19 {
        fill: #e2e92e;
      }

      .cls-20 {
        clip-path: url(#clippath);
      }

      .cls-21 {
        fill: #765238;
      }
    </style>
    <clipPath id="clippath">
      <path class="cls-6" d="M180.99,80.01c-1.32,4.35-3.24,8.47-5.01,12.66-.99,2.38-1.95,4.82-2.28,7.37-.02.13-.03.27-.03.39-4.44,1.65-8.64,3.81-12.8,6.14-3.79,2.14-7.7,4.08-11.49,6.24-.61-1.43-1.28-2.8-1.87-4.08-2.16-4.57-7.27-3.32-11.49-4.68-3.95-1.26-5.16-4.99-5.46-8.75-.16-2.06-.24-7.09-.6-7.76-.74-1.32-6.9-.74-6.09-3.61.41-1.45,2.57-2.63,3.67-3.57,1.42-1.2,2.94-2.38,3.94-4,1.04-1.7,1.26-3.75,1.51-5.7.85-6.6,2.02-12.99,7.56-17.3,4.42-3.43,10.23-5.09,15.9-5.23,6.74-.16,14.16,2.06,19.43,6.68,7.38,6.46,7.83,16.31,5.13,25.21Z"/>
    </clipPath>
    <clipPath id="clippath-1">
      <path class="cls-5" d="M202.92,212.61c-.99,4.11-3.2,8.33-6.68,10.86-.25.17-.5.35-.79.49-2.39,1.29-5.81,1.59-8.33,1.92-2,.27-4.17.44-6.17.35-2.09-.11-3.94-.77-5.64-1.68-3.61,1.02-7.23,2.14-10.86,2.77-4.9.83-9.62,1.06-14.6,1.06-.66,0-1.48.02-2.38.03-2.57.05-4.98-.82-6.87-2.35-1.62-1.29-2.87-3.07-3.53-5.16-1.67-5.37-1.5-10.53-.93-17.1.57-6.55,1.35-12.94,2.58-19.38,1.13-6.06-.85-11.81-.69-17.9.14-5.72,1.62-11.29,2.22-16.97.39-3.79,1.02-7.76,2.22-11.38.99-3.01,2.49-5.87,3.91-8.74-1.64-.17-1.56-1.02-1.86-2.93-.24-1.5-.52-2.96-.71-4.44-.19-1.43-.82-3.79-.27-5.16.54-1.32,2.71-2.3,3.94-3.01.61-.36,1.24-.72,1.87-1.05,3.79-2.16,7.7-4.09,11.49-6.24,4.16-2.33,8.36-4.49,12.8-6.14.58-.22,1.18-.43,1.76-.63,1.75-.57,3.23-1.15,4.33.61.76,1.18,1.18,2.42,1.64,3.72.41,1.13,1.35,2.36,1.4,3.61.02.41-.11.83-.31,1.24,1.29.8,2.63,2.33,3.32,3.13,4.44,5.24,6.91,12.05,9.26,18.42,2.66,7.26,4.74,14.8,5.15,22.56.43,7.64-.14,15.29-.09,22.94.05,7.51,1.17,14.9,2,22.36.55,4.82,1.95,9.37.8,14.2Z"/>
    </clipPath>
    <clipPath id="clippath-2">
      <path class="cls-1" d="M253.86,414.06c-.6,1.05-1.89,1.84-3.98,2.72-5.31,2.24-10.72,5.21-15.6,8.25-2.27,1.4-5.68,2.76-8.31,3.45-.11.03-.2.05-.3.08-3.35.85-4.27-1.72-5.04-4.5-.46-1.72-16.34-34.07-22.72-44.75-3.02-5.07-6.47-9.86-9.78-14.75-2.79-4.11-4.17-8.94-5.78-13.62-4.46-12.9-11.48-24.86-14.94-38.11-.93-3.56-2.08-7.02-3.28-10.49-3.67,8.01-7.89,15.62-11.92,23.52-2.16,4.24-4.25,8.05-6.03,12.46-1.94,4.79-3.29,9.7-5.4,14.42-2.17,4.8-5.04,9.04-7.75,13.54-.94,1.59-2.09,3.32-3.16,5.13-.19,1.75-.54,3.45-1.07,5.13-2.76,8.66-8.42,17.1-12.72,25.13-3.05,5.72-6.35,11.54-9.2,17.43-.39,3.4-.82,6.8-1.53,10.16-.82,3.89-.85,8.3-2.31,11.98-.72,1.81-.9,3.15-2.94,2.22-1.42-.65-2.76-1.83-4.02-2.91-.35-.31-.69-.61-1.04-.9-4-3.32-7.51-7.24-11.49-10.64-2.16-1.83-4.25-3.7-6.41-5.51-1.37-1.15-3.13-2.19-4.35-3.46-.27.3-.55.57-.83.79-2.25-5.43,3.35-10.23,4.76-13.9,3.01-7.81,20.93-57.35,23.4-64.56,1.43-4.24,2.68-8.55,3.98-12.8,3.75-12.28,10.88-23.81,16.72-35.22,3.54-6.94,7.5-13.81,10.68-20.9,3.04-6.79,7.26-13.56,9.87-20.67-.14-5.35-.68-10.68-.68-16.05,0-3.4-.58-7.23-.06-10.68,1.89,1.53,4.3,2.39,6.87,2.35.9-.02,1.72-.03,2.38-.03,4.98,0,9.7-.22,14.6-1.06,3.64-.63,7.26-1.75,10.86-2.77,1.7.91,3.54,1.57,5.64,1.68,2,.09,4.17-.08,6.17-.35,2.52-.33,5.94-.63,8.33-1.92,1.53,3.42,3.1,6.79,3.98,10.52.85,3.65,1.5,7.32,2.16,11.02.69,3.97.79,8,1.01,12,.19,3.48.69,6.79.44,10.28-.25,3.16-1.15,6.28-1.29,9.4-.13,2.83.02,5.68.25,8.53,1.31,3.89,2.47,7.87,4,11.64,3.67,9.04,7.15,19.02,7.54,28.88.14,3.67.33,7.21,1.04,10.8,9.43,15.95,28.58,50.37,30.78,54.83,2.72,5.51,5.51,11.01,7.84,16.71,1.07,2.61,1.35,4.24.65,5.5Z"/>
    </clipPath>
    <clipPath id="clippath-3">
      <path class="cls-5" d="M133.79,60c-.03,1.49.87,1.91,2.11,2.56,2.53,1.33,29.03,9.18,29.75,9.16,4.77,1.38,20.42,7.76,26.72,8.75,1.91.3,4.28.92,6.22.57,1.96-.35,2.38-2.54,2.05-4.38-.64-3.57-5.95-5.52-8.68-7.1-1.82-1.03-3.7-2.05-5.51-3.09-.68-.4-1.39-.75-2.12-1.08.65-1.82-.23-5.51-.71-6.91-1.01-2.94-2.1-5.31-4.06-7.77-5.93-7.47-14.84-10.85-24.31-9.82-5.74.61-10.75,3.47-14.95,7.38-2.05,1.9-3.43,4.21-4.63,6.72-.72,1.51-1.86,3.27-1.89,5Z"/>
    </clipPath>
    <clipPath id="clippath-4">
      <path class="cls-8" d="M35.25,170.35h52.54v43.31h-52.54c-.71,0-1.28-.58-1.28-1.28v-40.74c0-.71.58-1.28,1.28-1.28Z"/>
    </clipPath>
    <clipPath id="clippath-5">
      <path class="cls-21" d="M87.79,170.35h44.79c.71,0,1.28.58,1.28,1.28v40.74c0,.71-.58,1.28-1.28,1.28h-44.79v-43.31h0Z"/>
    </clipPath>
    <clipPath id="clippath-6">
      <polygon class="cls-19" points="118.4 185.08 108.05 185.08 107.01 170.3 117.36 170.3 118.4 185.08"/>
    </clipPath>
    <clipPath id="clippath-7">
      <path class="cls-1" d="M110.15,210.04c0,1.57-.25,2.76-.68,3.64-1.43,3.09-4.83,2.72-6.46,3.01-1.86.33-4.24.54-6.24.11-.91,1.61-2.85,3.09-4.11,4.35-1.42,1.42-3.02,2.76-4.71,3.84-1.29.83-3.07,1.26-4.63,1.05-1.1-.14-3.02-.57-4.2-1.35-2.77,1.39-5.92,1.8-7.29-1.1-2.39.55-4.94-.11-5.79-2.61-1.76.68-3.68.55-5.15-.94-1.5-1.54-1.51-4.25-.8-6.36h5.76c.93-.94,1.86-1.91,2.79-2.9,1.04-1.12,2.11-2.24,3.16-3.35.76-.82,1.37-1.78,2-2.71-3.67-1.81-9.62,1.2-12.91-2.6-1.09-1.26-.6-3.18.71-4.05,1.59-1.07,3.73-.46,5.48-.44,2.98.02,5.45-1.57,8.33-.88,2.41.58,5.07-.11,7.42.44,1.17.25,2.3.83,3.45,1.39,3.62-1.95,7.43-2.38,11.76-3.26,1.35-.27,2.72-.47,4.09-.74.82-.14,2.03-.71,2.87-.39.9.33,1.56,1.2,2.09,2.25.74,1.5,1.2,3.37,1.54,4.49.91,2.94,1.48,6.03,1.51,9.13Z"/>
    </clipPath>
    <clipPath id="clippath-8">
      <path class="cls-6" d="M167.54,186.44c-.46,1.42-.93,2.83-1.37,4.24-.82,2.63-1.68,5.26-2.68,7.78-1.31,3.29-2.41,7.73-5.05,10.25-1.26,1.2-3.43,1.32-5.07,1.62-2.24.41-4.57.52-6.83.72-5.72.52-11.51,1.07-17.26,1.46-4.58.31-9.18.6-13.76.82-1.95.11-4.02.3-6.05.35.43-.88.68-2.06.68-3.64-.03-3.1-.6-6.19-1.51-9.13-.35-1.12-.8-2.99-1.54-4.49,1.15-.3,2.24-.65,3.02-.85,3.45-.88,6.87-1.72,10.31-2.6,4.14-1.05,8.38-1.86,12.5-2.9,1.89-.47,4.42-1.31,6.76-1.4.43-1.24.9-2.47,1.35-3.68.96-2.54,1.81-5.13,2.68-7.7,1.13,1.01,2.71,1.79,3.84,2.3,6.49,2.9,13.24,4.83,19.98,6.85Z"/>
    </clipPath>
    <clipPath id="clippath-9">
      <path class="cls-5" d="M183.44,147.75c-1.01,4.09-.94,8.27-1.75,12.39-.54,2.77-1.83,5.46-2.88,8.06-.65,1.59-1.31,3.29-2.06,4.9-.02.38-.05.74-.09,1.1-.33,2.93-.82,5.86-1.21,8.77-.16,1.26-.19,3.87-1.34,4.61-1.04.68-3.37-.2-4.41-.5-.72-.22-1.43-.43-2.16-.65-6.74-2.02-13.49-3.95-19.98-6.85-1.13-.5-2.71-1.29-3.84-2.3-.58-.54-1.04-1.12-1.26-1.78-.46-1.34.41-2.65.74-3.89.63-2.27.72-4.77,1.15-7.09.69-3.73,2.46-7.09,3.86-10.66,1.23-3.15,2.24-6.63,3.01-9.97,1.07-4.72,2.02-9.7,4.98-13.68,2.9-3.87,7.51-6.8,12.38-7.27,5.26-.52,10.52,1.7,13.9,5.76,4.55,5.48,2.5,12.83.98,19.04Z"/>
    </clipPath>
  </defs>
  <g>
    <g>
      <path class="cls-6" d="M180.99,80.01c-1.32,4.35-3.24,8.47-5.01,12.66-.99,2.38-1.95,4.82-2.28,7.37-.02.13-.03.27-.03.39-4.44,1.65-8.64,3.81-12.8,6.14-3.79,2.14-7.7,4.08-11.49,6.24-.61-1.43-1.28-2.8-1.87-4.08-2.16-4.57-7.27-3.32-11.49-4.68-3.95-1.26-5.16-4.99-5.46-8.75-.16-2.06-.24-7.09-.6-7.76-.74-1.32-6.9-.74-6.09-3.61.41-1.45,2.57-2.63,3.67-3.57,1.42-1.2,2.94-2.38,3.94-4,1.04-1.7,1.26-3.75,1.51-5.7.85-6.6,2.02-12.99,7.56-17.3,4.42-3.43,10.23-5.09,15.9-5.23,6.74-.16,14.16,2.06,19.43,6.68,7.38,6.46,7.83,16.31,5.13,25.21Z"/>
      <g class="cls-20">
        <circle class="cls-18" cx="138.91" cy="75.3" r="2.26" transform="translate(-18.24 58.89) rotate(-22.5)"/>
        <path class="cls-18" d="M129.13,93.44h.01s-.07-.05-.11-.08c.23.29.58.46.93.57l-.21-.09c.19.09.26.11.47.13l-.23-.03c.27.04.53.07.8.07.19,0,.37-.04.55-.07.11-.02.21-.04.32-.06.53-.12,1.03-.33,1.52-.56.89-.42,1.73-.96,2.41-1.68.15-.15.29-.31.42-.48.06-.07.12-.15.17-.23.04-.07.08-.18.11-.27.02-.04.03-.08.04-.12s.03-.08.04-.12c.06-.23.03-.46-.08-.67l.08.18h0c-.06-.16-.13-.29-.27-.39-.12-.09-.29-.17-.45-.16s-.32.03-.46.13c-.03.02-.07.05-.1.07-.14.09-.28.17-.39.29-.15.15-.31.3-.48.43l.19-.15c-.3.23-.61.44-.93.63-.35.22-.7.43-1.06.62-.21.11-.42.2-.63.29l.25-.1c-.18.08-.37.15-.55.21-.18.06-.35.13-.53.19-.17.05-.34.09-.51.15-.16.05-.32.09-.48.12l.23-.03c-.21.02-.28.03-.47.13l.21-.09c-.23.07-.46.14-.69.19l.15-.02h-.01c-.23-.01-.47.17-.52.4-.02.1-.02.19,0,.29.03.14.14.24.25.32h0Z"/>
        <path class="cls-18" d="M135.65,69.67s.09.01.14.01c.21,0,.35-.07.53-.15.13-.06.26-.12.38-.19.33-.18.61-.48.91-.71l-.2.16c.12-.09.25-.19.37-.28l-.2.16c.31-.24.66-.42,1.01-.57l-.24.1c.62-.26,1.28-.42,1.94-.52l-.26.03c.54-.07,1.07-.08,1.61-.01l-.24-.03c.47.06.92.18,1.36.36l-.21-.09c.24.11.48.23.71.37.12.07.22.15.34.22.17.09.34.16.53.22l-.18-.08c.42.18.91.73,1.36.28s-.13-1.07-.42-1.43l.12.15c-.08-.12-.13-.23-.24-.35s-.21-.2-.33-.29c-.14-.1-.28-.2-.43-.29-.34-.21-.71-.38-1.08-.53-.69-.29-1.43-.43-2.18-.46-.37-.02-.73,0-1.1.05-.44.05-.88.11-1.31.24-.75.24-1.52.59-2.1,1.13-.28.26-.57.54-.79.85-.08.12-.16.24-.24.36-.07.1-.12.2-.16.32-.01.05-.02.09-.04.14-.07.19,0,.41.12.56.13.17.3.24.51.25h0Z"/>
        <path class="cls-18" d="M163.3,79.45s.08-.06.12-.1c0,0-.16.11-.08.06.01,0,.03-.02.05-.03.14-.1.23-.21.33-.35.04-.06.2-.22,0,0,.14-.15.26-.31.4-.45.3-.29.6-.57.93-.83.14-.11-.2.15-.04.03.04-.03.08-.06.13-.09.09-.06.18-.12.27-.18.19-.12.38-.23.57-.33.09-.05.19-.1.28-.14.04-.02.09-.04.13-.06.02,0,.04-.02.06-.03.15-.07-.05.02-.09.04.21-.07.42-.16.63-.23.48-.15.97-.26,1.46-.33l-.25.03c.66-.09,1.34-.09,2,0l-.25-.03c.31.04.62.1.92.19.15.04.29.09.43.14.05.02.29.12.11.04-.17-.07-.03-.01,0,0,.04.02.07.03.11.05.27.13.54.28.78.46.04.03.16.12.01,0s-.04-.03,0,0c.06.05.12.1.18.15.12.1.23.21.33.33.05.05.1.11.14.17.02.03.04.05.06.08,0,.01-.16-.22-.09-.11.01.02.03.04.04.05.09.13.18.26.26.39.09.15.17.3.24.45.02.04.03.08.05.12.04.09-.06-.14-.05-.12.01.02.02.05.03.08.04.09.07.19.1.28.13.36.22.74.28,1.12,0,.05.01.1.02.15.02.1-.02-.15-.02-.13,0,.03,0,.06.01.09.01.1.02.2.03.3.02.19.02.39.02.58s0,.39-.02.59c0,.1-.02.2-.03.31,0,.04,0,.09-.01.13,0,.02,0,.04,0,.07-.02.15,0-.04.01-.08-.06.18-.06.4-.1.59s-.09.39-.14.59c-.11.4-.24.79-.4,1.18-.03.08.05-.11.04-.1-.01.03-.02.06-.04.08-.02.04-.04.08-.06.12-.04.1-.09.19-.13.29-.09.19-.19.38-.29.56-.2.36-.41.7-.65,1.03-.06.08-.11.16-.17.24-.03.04-.06.08-.09.12,0,0,.12-.15.06-.08-.02.03-.05.06-.07.09-.13.16-.25.31-.39.46-.27.3-.55.58-.85.84-.07.06-.14.12-.21.18-.03.03-.07.05-.1.08-.14.12.15-.11,0,0-.15.11-.31.22-.46.33-.39.25-.8.47-1.22.66-.05.02-.11.05-.16.07-.03.01-.15.06-.03.01.11-.04.01,0,0,0-.1.04-.21.09-.31.13.21-.09-.01,0-.07.03-.25.1-.5.19-.76.27-.49.16-.99.28-1.5.38-.26.05-.53.1-.79.14-.06,0-.11.02-.17.03-.03,0-.06,0-.09.01-.11.02.13-.02.02,0-.14.02-.27.03-.41.05-.3.03-.59.07-.89.14-.57.13-.58,1.03,0,1.16.85.19,1.76.12,2.62,0,.78-.11,1.55-.28,2.29-.53,1.37-.46,2.62-1.19,3.67-2.17.93-.87,1.71-1.92,2.3-3.05s1.05-2.38,1.24-3.64.18-2.62-.21-3.87c-.33-1.08-.91-2.07-1.8-2.78-1.74-1.37-4.02-1.65-6.14-1.23-1.01.2-2.01.59-2.89,1.13-.45.28-.91.6-1.27.98-.08.08-.15.17-.22.25-.04.04-.07.09-.1.13-.05.07-.1.14-.16.21.24-.26.02-.04-.06.08-.13.19-.25.39-.35.59s-.21.41-.22.64c0,.1,0,.2,0,.29,0,.26.16.49.4.59.25.11.5.04.71-.13h0Z"/>
        <path class="cls-18" d="M170.16,78.24c-.16-.28-.43-.52-.73-.67-.03-.01-.05-.03-.08-.04l-.15-.06c.15.06.13.05-.06-.03l-.17-.02c.12.02.15.02.08,0-.07-.01-.16-.02-.24-.03-.19-.02-.39,0-.57.05-.66.18-1.24.6-1.71,1.08s-.82,1.07-1.13,1.66c-.32.63-.57,1.32-.59,2.04-.01.4.06.81.21,1.18.09.24.21.47.35.69.11.17.21.33.29.52l-.08-.18c.05.13.1.26.12.4l-.03-.2c.02.12.02.23,0,.35l.03-.2c-.03.17-.08.34-.15.5l.08-.18c-.13.31-.28.61-.39.93-.12.34-.19.71-.21,1.07s.05.69.19,1.01.39.56.71.69c.39.16.81.21,1.21.05.23-.09.43-.29.42-.55-.01-.24-.17-.5-.42-.55-.12-.03-.24-.07-.37-.09-.06-.01-.11-.03-.17-.05-.1-.03.16.09.07.03-.02-.01-.04-.03-.06-.04-.08-.04.13.12.07.05-.01-.02-.03-.03-.05-.05-.03-.03-.06-.07-.09-.1-.08-.09.05.06.06.08,0-.02-.03-.04-.04-.05-.03-.04-.05-.09-.07-.14l.07.17c-.04-.1-.06-.2-.08-.3l.03.19c-.02-.17-.02-.35,0-.52l-.03.2c.04-.32.14-.62.26-.91l-.08.18c.23-.53.55-1.05.53-1.66-.02-.39-.14-.75-.33-1.1-.09-.17-.21-.34-.31-.51-.09-.16-.17-.32-.24-.49l.08.18c-.09-.21-.15-.42-.18-.64l.03.19c-.03-.21-.02-.42,0-.63l-.02.18c.03-.18.09-.35.16-.52.04-.11-.07.17,0,0,.02-.05.04-.09.07-.14.04-.08.08-.16.13-.25.19-.35.41-.7.65-1.03.11-.15-.09.11-.01.01.02-.03.04-.05.07-.08.06-.07.12-.15.18-.22.12-.14.24-.26.37-.39.06-.06.13-.11.19-.16.1-.08-.16.12,0,0,.04-.03.08-.05.12-.08.14-.09.29-.18.45-.24l-.17.07c.13-.05.26-.09.39-.13.07-.02.13-.04.2-.06.03,0,.06-.02.09-.02l-.11.02c.07,0,.14,0,.2-.03.03,0,.06-.01.09-.02.11-.02-.15,0-.03,0,.06,0,.13,0,.19,0,.02,0,.07,0,.1,0-.07,0-.08,0-.02,0h.03s.08.03.12.04c.04.02.08.02.12.02-.05,0-.04,0,0,0,.29.07.54-.24.39-.51h0Z"/>
        <path class="cls-21" d="M176.49,92.97c-.17-.89-1-1.53-1.25-2.37-.4-1.33.31-3.1.56-4.43.68-3.55,2.11-7.85-.82-10.8-2.25-2.26-6.61-2.94-9.47-1.52-.91.45-1.79,1.14-2.61,1.73-1.44,1.02-2.55,2.15-3.63,3.55-.59-1.91-1.16-3.75-2.47-5.39-1.7-2.13-3.93-3.45-6.35-4.58.35-1.34,1.5-2.69.79-4.1-.89-1.76-2.81-2.21-4.21-3.39.37-.64,1.79-1.76,1.73-2.52-.08-.92-1.72-1.58-2.37-1.9-1.76-.85-3.45-1.27-5.36-1.52-1.22-.16-3.42.29-4.44-.18.93-2.07,3.03-3.4,4.92-4.45,1.77-.99,3.49-2.01,5.45-2.58,2.49-.72,5.26-1.02,7.84-1.19s5.4-.52,8.04,0c11.02,2.17,19.87,10.04,20.99,21.57.78,8.02-3.6,15.34-6.02,22.66l-1.31,1.42Z"/>
      </g>
    </g>
    <g>
      <path class="cls-5" d="M202.92,212.61c-.99,4.11-3.2,8.33-6.68,10.86-.25.17-.5.35-.79.49-2.39,1.29-5.81,1.59-8.33,1.92-2,.27-4.17.44-6.17.35-2.09-.11-3.94-.77-5.64-1.68-3.61,1.02-7.23,2.14-10.86,2.77-4.9.83-9.62,1.06-14.6,1.06-.66,0-1.48.02-2.38.03-2.57.05-4.98-.82-6.87-2.35-1.62-1.29-2.87-3.07-3.53-5.16-1.67-5.37-1.5-10.53-.93-17.1.57-6.55,1.35-12.94,2.58-19.38,1.13-6.06-.85-11.81-.69-17.9.14-5.72,1.62-11.29,2.22-16.97.39-3.79,1.02-7.76,2.22-11.38.99-3.01,2.49-5.87,3.91-8.74-1.64-.17-1.56-1.02-1.86-2.93-.24-1.5-.52-2.96-.71-4.44-.19-1.43-.82-3.79-.27-5.16.54-1.32,2.71-2.3,3.94-3.01.61-.36,1.24-.72,1.87-1.05,3.79-2.16,7.7-4.09,11.49-6.24,4.16-2.33,8.36-4.49,12.8-6.14.58-.22,1.18-.43,1.76-.63,1.75-.57,3.23-1.15,4.33.61.76,1.18,1.18,2.42,1.64,3.72.41,1.13,1.35,2.36,1.4,3.61.02.41-.11.83-.31,1.24,1.29.8,2.63,2.33,3.32,3.13,4.44,5.24,6.91,12.05,9.26,18.42,2.66,7.26,4.74,14.8,5.15,22.56.43,7.64-.14,15.29-.09,22.94.05,7.51,1.17,14.9,2,22.36.55,4.82,1.95,9.37.8,14.2Z"/>
      <g class="cls-9">
        <path class="cls-3" d="M181.24,108.96c-.13.02-.28.03-.41.06s-.26.1-.38.15c-.3.12-.59.3-.88.45-.53.29-1.07.57-1.62.84-1.09.56-2.18,1.11-3.28,1.66-2.21,1.09-4.46,2.1-6.68,3.15-4.52,2.14-8.87,4.6-12.97,7.47-2.34,1.64-4.63,3.35-6.87,5.12l1.01.13c-1.48-3.33-2.13-6.95-3.55-10.31-.11-.26-.49-.34-.73-.24s-.45.42-.34.69c1.37,3.44,1.99,7.12,3.5,10.51.19.42.73.36,1.01.13,3.95-3.12,8.08-5.99,12.43-8.52,2.12-1.23,4.3-2.36,6.51-3.41s4.47-2.07,6.68-3.15c1.23-.6,2.46-1.22,3.63-1.94.57-.35,1.12-.71,1.67-1.09.29-.2.62-.39.88-.63s.44-.48.61-.78c.1-.17-.06-.32-.23-.3h0Z"/>
        <path class="cls-3" d="M148.16,127.2c-.12-.05-.24-.09-.37-.05-.01,0-.03,0-.04.01-.03.01-.06.02-.09.03h.29,0c.08.05.16.09.24.14,0,0,0,0,0,0-.13-.15-.39-.22-.58-.15-.03.01-.07.02-.1.04-.02,0-.03.01-.05.02-.07.02-.15.05-.21.09-.07.04-.13.09-.19.14-.14.09-.27.19-.41.29-.28.2-.56.4-.84.6-.33.23-.65.48-.96.75-.26.22-.51.46-.74.71-.16.17-.3.37-.43.56-.11.16-.2.32-.29.48-.06.12-.1.28-.05.41.04.11.1.21.19.28s.21.12.32.11c.13,0,.29-.05.38-.16.18-.23.38-.44.6-.63s.45-.4.69-.58l-.14.1c.18-.14.37-.27.55-.4s.38-.26.56-.4.37-.26.55-.39c.22-.16.46-.32.67-.5.09-.08.18-.16.27-.24.08-.08.16-.15.22-.25.03-.05.06-.11.09-.16.05-.09.08-.19.08-.3,0-.11-.03-.21-.08-.3,0,0,0,0,0,0l.08.28h0s-.01.09-.02.13h0s-.04.07-.05.12c.02-.04.03-.07.05-.11.01-.03.02-.05.03-.08.03-.08.04-.16.03-.25-.01-.08,0-.05-.03-.12-.04-.08-.1-.18-.19-.22h0Z"/>
        <path class="cls-3" d="M148.44,140.53c.41,0,.64-.54.81-.85.19-.35.38-.7.54-1.06.31-.71.62-1.42.98-2.11.37-.73.75-1.43,1.2-2.12s.89-1.34,1.36-2c.23-.33.47-.65.71-.97.27-.36.42-.55.7-.9.48-.61.97-1.22,1.48-1.81.98-1.14,1.98-2.29,3.06-3.34.61-.6,1.23-1.18,1.88-1.73s1.38-1.05,1.97-1.69c.35-.39-.09-.9-.54-.7-.74.34-1.36.86-2,1.36s-1.22.96-1.82,1.46c-1.18,1-2.34,2.04-3.38,3.19-1.12,1.24-2.18,2.55-3.19,3.89s-1.97,2.67-2.66,4.16c-.4.86-.67,1.77-.95,2.67-.14.44-.25.88-.37,1.32-.1.35-.41,1.22.22,1.24h0Z"/>
        <path class="cls-3" d="M168.74,119.45c.17.27.42.37.7.48s.56.2.84.27c.61.16,1.23.3,1.86.38.15.02-.18-.03.06,0,.08.01.15.02.23.03.15.02.3.05.45.07.3.05.6.1.89.16.61.13,1.21.31,1.81.48,1.21.34,2.41.68,3.57,1.14.56.23,1.12.45,1.69.67.28.11.56.22.83.33.13.05.26.11.4.16,0,0,.24.1.1.04.1.04.19.08.28.13.61.28,1.2.58,1.79.91.29.17.58.34.86.52.3.2.59.42.9.61.34.2.77.1,1.01-.2s.23-.76-.06-1.03c-.49-.44-1.08-.77-1.65-1.1-.53-.31-1.08-.59-1.64-.86-1.1-.53-2.21-1.04-3.34-1.51-1.22-.52-2.44-1.01-3.73-1.35s-2.44-.67-3.72-.73c-.69-.03-1.37.01-2.06.02-.32,0-.64,0-.96,0s-.65-.09-.97.02c-.13.05-.22.2-.14.33h0Z"/>
        <path class="cls-3" d="M187.07,214.49c-.14.1-.27.21-.43.27s-.34.12-.49.22c-.29.19-.58.39-.86.59-.58.43-1.11.92-1.66,1.39-1.07.93-2.08,1.92-3.14,2.86-.52.47-1.05.94-1.58,1.39-.41.34-.81.69-1.19,1.07-.83.8-1.63,1.65-2.48,2.43-.24.21-.48.42-.72.63-.06.05-.12.1-.19.15-.04.03-.13.09.04-.03-.03.02-.06.04-.08.06-.12.09-.25.18-.38.27-.24.17-.5.3-.75.45-.13.08-.26.18-.38.28-.11.08-.19.18-.26.3-.08.14.08-.09-.04.05-.25.31-.19.8.24.91.09.03.19.05.28.08.23.05.45,0,.67-.05.3-.08.57-.25.84-.41.52-.32,1-.71,1.46-1.1.89-.76,1.7-1.6,2.53-2.43s1.79-1.61,2.69-2.41c.52-.47,1.03-.96,1.53-1.45s1.02-.99,1.51-1.51c.54-.59,1.12-1.15,1.63-1.76.25-.3.49-.61.74-.91.14-.17.25-.33.35-.53.04-.08.08-.18.13-.26.06-.09.15-.17.23-.24.14-.15-.05-.43-.23-.3h0Z"/>
        <path class="cls-3" d="M148.91,204.92c.41.47.9.84,1.4,1.21.12.09.24.18.36.27-.09-.07.07.05.09.07.07.05.13.1.2.16.15.12.29.24.44.36.03.02.05.04.08.06-.11-.08-.02-.01,0,0,.07.05.13.11.2.16.98.78,1.93,1.61,2.91,2.39s2.04,1.6,3.17,2.25c.98.57,1.91,1.22,2.86,1.84.56.37,1.12.72,1.72,1.03.33.17.66.32,1.01.46.13.05.27.11.4.15.12.04.25.07.37.06.08,0-.08-.01-.09-.01.04.02.11.02.15.02.38.06.75-.06.91-.45.13-.32.04-.8-.31-.96-.11-.05-.2-.11-.31-.17s-.21-.09-.32-.13c-.09-.03.08.04.08.03-.04-.02-.08-.04-.12-.05-.25-.11-.49-.24-.73-.37-.52-.29-1.01-.61-1.5-.93-.97-.63-1.9-1.32-2.9-1.92-1.05-.63-2.07-1.3-3.05-2.04s-1.99-1.5-3.02-2.21c-.57-.39-1.16-.75-1.78-1.08s-1.3-.62-2.02-.63c-.23,0-.31.27-.17.42h0Z"/>
        <path class="cls-3" d="M188.02,173.46c-.37.37-.82.67-1.24.99-.18.14-.36.27-.54.4-.1.07-.19.14-.29.21-.05.04-.11.08-.16.11-.03.02-.33.24-.23.16-.85.64-1.72,1.24-2.61,1.83-1.81,1.2-3.71,2.26-5.62,3.3s-3.94,2.1-5.89,3.21c-2.04,1.16-4.07,2.33-6.14,3.42-1.17.62-2.36,1.21-3.57,1.76s-2.41.99-3.69,1.54c-.33.14-.43.62-.3.92.15.33.51.53.87.43,1.19-.32,2.34-.81,3.48-1.3s2.18-.97,3.26-1.5c2.12-1.04,4.18-2.18,6.25-3.31s4-2.18,6.01-3.26,3.84-2.12,5.65-3.36c1.03-.7,2.03-1.44,2.97-2.27.44-.39.84-.83,1.23-1.27.2-.23.42-.46.6-.71s.33-.5.52-.73c.31-.39-.19-.92-.56-.56h0Z"/>
        <path class="cls-19" d="M138.94,155.43s.04-.02.06-.02l-.11.02h.01c.15,0,.33-.09.39-.23.04-.09.12-.17.18-.24l-.2.2c.14-.09.21-.2.27-.35l-.06.13c.07-.11.14-.22.21-.32.08-.12.13-.25.2-.37.14-.26.28-.51.44-.77.08-.13.17-.26.27-.39l-.12.16c.11-.14.23-.27.37-.38l-.17.13c.07-.05.14-.1.23-.14l-.2.08c.05-.02.11-.04.17-.05l-.22.03s.1,0,.15,0l-.23-.03s.09.02.13.03l.23.03c.12,0,.23-.02.33-.07.18-.07.3-.19.41-.35.07-.11.15-.23.23-.34l-.14.18c.07-.1.16-.19.25-.27l-.18.14s.07-.05.12-.07l-.21.09s.05-.02.08-.02l-.23.03s.04,0,.05,0l-.23-.03s.04,0,.06.02l-.21-.09s.04.02.06.04l-.18-.14s.05.04.07.07l-.14-.18c.04.05.07.11.09.17l-.09-.21c.08.19.11.39.14.58l-.03-.23c.06.42.07.86.01,1.28l.03-.22c-.03.2-.08.4-.12.6-.05.25-.1.5-.13.75-.09.61-.15,1.33.25,1.85.05.09.13.16.22.22.07.04.15.07.23.07.19.03.37-.03.51-.17.46-.44.78-1.02,1.29-1.42l-.13.1c.07-.05.14-.1.2-.16l-.13.1c.1-.08.21-.14.32-.2l-.8-.1s.03.03.04.04l-.1-.13c.06.08.11.16.14.24l-.07-.16c.05.12.08.25.1.39l-.02-.17c.05.39,0,.78.01,1.17,0,.24.03.49.08.72.03.14.09.27.14.4s.14.24.23.35.29.18.43.18l.16-.02c.1-.03.19-.08.27-.16,0,0,.02-.02.03-.02l-.12.09c.14-.11.3-.17.46-.24.08-.04.16-.07.23-.11.15-.08.24-.21.34-.34l.06-.13c.02-.07.03-.15,0-.22-.02-.12-.06-.24-.15-.32-.19-.17-.44-.2-.67-.09-.02.01-.04.02-.07.03l.14-.06c-.1.04-.19.07-.28.12-.06.03-.12.06-.18.09-.12.06-.24.11-.36.17l.14-.06c-.11.03-.21.08-.31.13l.83.22s-.03-.06-.04-.09l.06.15c-.04-.09-.07-.17-.11-.26l.06.15c-.06-.13-.09-.27-.11-.41l.02.17c-.06-.42,0-.83,0-1.25,0-.25-.02-.5-.07-.73-.07-.29-.21-.54-.4-.76l-.13-.1c-.08-.05-.16-.07-.24-.08-.15-.02-.28.01-.42.08-.73.35-1.11,1.06-1.58,1.67l.1-.13c-.08.1-.17.21-.26.3l1.04.43c-.01-.13,0-.26-.02-.39s0-.27.02-.4l-.03.19c.04-.31.14-.61.24-.9s.2-.58.26-.89c.07-.36.1-.73.11-1.09,0-.38-.03-.79-.12-1.16-.03-.1-.06-.19-.1-.28-.04-.09-.07-.17-.12-.24-.11-.16-.23-.3-.4-.4s-.34-.15-.55-.15c-.1,0-.2.01-.3.04s-.19.07-.28.11c-.13.06-.24.16-.34.26-.12.12-.22.26-.32.39-.08.11-.16.24-.22.36l.97-.4c-.6-.16-1.2.1-1.59.56-.36.44-.6.93-.79,1.46-.05.13-.09.25-.13.38-.02.06-.04.12-.06.18-.04.12-.06.22-.07.35l.02-.18c-.03.21-.06.41-.08.62l.02-.15c-.03.1-.03.22,0,.32l-.02-.14c0,.09,0,.19,0,.28l.02-.12h0c-.02.11-.02.21.02.31s.1.15.19.22h0c-.05-.05-.1-.1-.15-.15.01.02.03.04.04.07.07.11.23.2.37.15h0Z"/>
      </g>
    </g>
    <g>
      <path class="cls-1" d="M253.86,414.06c-.6,1.05-1.89,1.84-3.98,2.72-5.31,2.24-10.72,5.21-15.6,8.25-2.27,1.4-5.68,2.76-8.31,3.45-.11.03-.2.05-.3.08-3.35.85-4.27-1.72-5.04-4.5-.46-1.72-16.34-34.07-22.72-44.75-3.02-5.07-6.47-9.86-9.78-14.75-2.79-4.11-4.17-8.94-5.78-13.62-4.46-12.9-11.48-24.86-14.94-38.11-.93-3.56-2.08-7.02-3.28-10.49-3.67,8.01-7.89,15.62-11.92,23.52-2.16,4.24-4.25,8.05-6.03,12.46-1.94,4.79-3.29,9.7-5.4,14.42-2.17,4.8-5.04,9.04-7.75,13.54-.94,1.59-2.09,3.32-3.16,5.13-.19,1.75-.54,3.45-1.07,5.13-2.76,8.66-8.42,17.1-12.72,25.13-3.05,5.72-6.35,11.54-9.2,17.43-.39,3.4-.82,6.8-1.53,10.16-.82,3.89-.85,8.3-2.31,11.98-.72,1.81-.9,3.15-2.94,2.22-1.42-.65-2.76-1.83-4.02-2.91-.35-.31-.69-.61-1.04-.9-4-3.32-7.51-7.24-11.49-10.64-2.16-1.83-4.25-3.7-6.41-5.51-1.37-1.15-3.13-2.19-4.35-3.46-.27.3-.55.57-.83.79-2.25-5.43,3.35-10.23,4.76-13.9,3.01-7.81,20.93-57.35,23.4-64.56,1.43-4.24,2.68-8.55,3.98-12.8,3.75-12.28,10.88-23.81,16.72-35.22,3.54-6.94,7.5-13.81,10.68-20.9,3.04-6.79,7.26-13.56,9.87-20.67-.14-5.35-.68-10.68-.68-16.05,0-3.4-.58-7.23-.06-10.68,1.89,1.53,4.3,2.39,6.87,2.35.9-.02,1.72-.03,2.38-.03,4.98,0,9.7-.22,14.6-1.06,3.64-.63,7.26-1.75,10.86-2.77,1.7.91,3.54,1.57,5.64,1.68,2,.09,4.17-.08,6.17-.35,2.52-.33,5.94-.63,8.33-1.92,1.53,3.42,3.1,6.79,3.98,10.52.85,3.65,1.5,7.32,2.16,11.02.69,3.97.79,8,1.01,12,.19,3.48.69,6.79.44,10.28-.25,3.16-1.15,6.28-1.29,9.4-.13,2.83.02,5.68.25,8.53,1.31,3.89,2.47,7.87,4,11.64,3.67,9.04,7.15,19.02,7.54,28.88.14,3.67.33,7.21,1.04,10.8,9.43,15.95,28.58,50.37,30.78,54.83,2.72,5.51,5.51,11.01,7.84,16.71,1.07,2.61,1.35,4.24.65,5.5Z"/>
      <g class="cls-12">
        <path class="cls-7" d="M148.58,233.29c.07-1.12.15-2.24.23-3.35-.53,0-1.06.01-1.59,0-1.76-.06-3.5-.23-5.12-.67-.86-.24-3.52-1.34-3.3-2.61-.23,1.27-.34,2.64-.39,3.95-.05,1.36-.67,4.84.38,5.87.55.54,2,.4,2.71.48,2.24.26,4.5.42,6.78.52.09-1.39.19-2.79.28-4.18Z"/>
        <path class="cls-7" d="M164.76,231.69c.01-.7.02-1.4.03-2.1-3.77.22-7.55.34-11.33.32-.93,0-1.9.02-2.87.03.03,2.54,0,5.07-.1,7.61,4.72.12,9.48-.05,14.19-.35,0-1.84.04-3.67.08-5.51Z"/>
        <path class="cls-7" d="M180.55,232.96c0-1.43-.01-2.86.15-4.29.03-.23.06-.47.09-.7-4.73.69-9.49,1.21-14.25,1.53.18,2.1.28,4.21.34,6.32.01.42.01.83.02,1.25,1.95-.14,3.89-.3,5.81-.48,2.62-.24,5.28-.5,7.94-.81-.04-.94-.09-1.88-.1-2.82Z"/>
        <path class="cls-7" d="M199.9,229.26c-.5-1.52-.8-3.13-1.01-4.72-5.39.7-10.66,2.25-16.03,3.11-.03.46-.05.93-.07,1.4-.06,1.47-.01,2.93.05,4.4.03.68.08,1.37.12,2.05,5.47-.71,10.93-1.73,16.06-3.48,1.75-.6,1.34-1.38.88-2.76Z"/>
        <path class="cls-4" d="M147.53,238.88s-.03.04-.05.05c0,0-.02.02-.03.03-.08.08-.11.13-.14.24,0,0,0,.02,0,.02-.02.06-.04.12-.06.18-.04.13-.08.25-.11.38-.06.25-.13.5-.21.74-.04.12-.08.25-.13.37l.07-.17c-.06.15-.14.28-.13.45,0,.03,0,.06,0,.09l.02.18.07.16.11.14c.06.07.14.11.22.14.05.03.11.05.17.05.06.02.12.02.18,0,.06,0,.12-.02.17-.05.09-.03.16-.08.22-.14.02-.02.04-.04.05-.05,0,0,0,0,.01-.01.01-.02.11-.13.12-.15,0-.01.07-.16.08-.18,0-.02,0-.03.01-.05.01-.06.03-.12.04-.18.03-.19.06-.38.08-.58.02-.15.03-.29.04-.44,0-.07.01-.15.02-.22s0-.15,0-.22c0-.08,0-.16,0-.24,0-.02,0-.04,0-.06,0,0,0-.01,0-.02,0-.03,0-.05,0-.08,0-.05-.01-.09-.04-.14-.01-.03-.02-.05-.04-.08-.01-.03-.03-.06-.04-.09-.04-.07-.09-.12-.16-.16-.05-.03-.11-.05-.17-.05-.06-.01-.12-.01-.18,0-.08.02-.14.06-.2.12h0Z"/>
        <path class="cls-4" d="M144.94,246.68c-.22.66-.15,1.42-.14,2.11s0,1.42.05,2.13c.1,1.41.21,2.81.37,4.21.33,2.82.69,5.64.99,8.47.12,1.17.27,2.34.57,3.48.27,1.06.65,2.09,1.1,3.09.85,1.88,2.01,3.59,3.38,5.14.77.87,1.61,1.69,2.48,2.45.44.39.9.76,1.36,1.13.55.44,1.12.86,1.8,1.09.52.17,1.08-.5.74-.97-.64-.88-1.6-1.51-2.41-2.22s-1.51-1.4-2.2-2.16c-.35-.38-.68-.77-1-1.17-.04-.05-.25-.33-.12-.15-.07-.09-.14-.18-.21-.28-.15-.2-.3-.41-.44-.62-.56-.81-1.06-1.67-1.48-2.56-.05-.11-.11-.23-.16-.35-.02-.05-.05-.11-.07-.16-.1-.22.08.19-.01-.03-.1-.24-.19-.47-.28-.71-.17-.47-.32-.94-.45-1.42-.14-.51-.26-1.03-.35-1.56-.04-.24-.08-.49-.12-.74,0-.05-.05-.3,0-.04,0-.05-.01-.1-.02-.15-.02-.15-.04-.3-.05-.46-.29-2.83-.62-5.65-1-8.47-.05-.39-.11-.77-.16-1.16-.03-.19-.05-.39-.08-.58,0,0-.04-.32-.02-.13-.02-.15-.04-.3-.07-.45-.13-.76-.26-1.53-.39-2.3s-.29-1.55-.46-2.32c-.08-.38-.17-.75-.25-1.13-.04-.19-.08-.38-.13-.56-.05-.21-.14-.38-.24-.56-.13-.23-.45-.16-.53.07h0Z"/>
        <path class="cls-4" d="M153.35,257.11c-.28,1.58-.11,3.15.1,4.73.06.45.12.89.18,1.34.03.18.06.37.09.55.01.1.03.2.04.29,0,.04.01.08.02.12,0,.02.03.18.01.09s0,.04,0,.05c0,.05.01.11.02.16.01.09.02.18.03.27.03.24.06.48.08.72.06.48.12.97.19,1.45.48,3.48.99,6.94,1.57,10.4.28,1.68.61,3.37,1.07,5.01s1.02,3.32,1.56,4.96c1.07,3.3,2.2,6.6,3.03,9.97.41,1.67.7,3.36.95,5.07.03.21.06.43.09.64.01.09.03.18.04.27,0,.06.02.12.02.18,0,.05.02.14,0,.04.06.48.12.96.2,1.43.13.84.23,1.7.44,2.53.1.41.21.83.32,1.24.19.7,1.32.57,1.28-.17-.04-.86-.08-1.72-.16-2.58s-.18-1.69-.29-2.54c-.23-1.72-.48-3.45-.83-5.15-.7-3.4-1.81-6.72-2.89-10.02-.53-1.64-1.07-3.27-1.56-4.92s-.88-3.31-1.17-5-.53-3.38-.8-5.08-.55-3.47-.82-5.21-.52-3.36-.89-5.02c-.34-1.55-.8-3.07-1.01-4.64-.05-.36-.08-.72-.1-1.08-.02-.45-.75-.61-.83-.11h0Z"/>
        <path class="cls-4" d="M156.56,279.79s-.02.06-.02.09c-.03.11.03-.03,0,.03-.02.03-.04.06-.05.09-.02.06.02-.02.03-.04-.06.09-.1.15-.14.24l.13-.22c-.08.1-.17.18-.24.29-.05.09-.1.18-.16.26-.03.05-.06.09-.1.14-.1.14.08-.09-.03.04-.08.1-.16.19-.24.28-.39.43-.83.81-1.26,1.2-.48.43-.99.83-1.5,1.24-.26.21-.52.41-.78.62-.03.02-.06.05-.1.07-.11.08.04-.03.05-.04-.06.05-.13.1-.19.15-.12.1-.25.19-.37.28-.83.63-1.68,1.23-2.48,1.89-.37.31-.75.61-1.13.91-.17.14-.35.27-.52.41-.01.01-.21.16-.07.05-.04.03-.08.06-.12.09-.12.09-.23.18-.35.27-.82.63-1.63,1.26-2.44,1.89-.86.68-1.74,1.37-2.56,2.11s-1.61,1.53-2.2,2.48c-.26.42.27.97.69.69s.86-.61,1.27-.93c-.13.1.14-.11.17-.14.05-.04.09-.08.14-.12.09-.08.19-.16.28-.23.21-.17.42-.34.63-.51.81-.65,1.61-1.32,2.44-1.96.11-.09-.15.11.04-.03.06-.05.12-.09.18-.14.1-.08.2-.15.3-.23.22-.17.44-.33.65-.5.45-.34.9-.69,1.35-1.04.81-.63,1.61-1.26,2.4-1.91.17-.14.34-.28.52-.42.09-.07-.1.08-.09.07.02-.02.05-.04.07-.06.04-.03.09-.07.13-.1.1-.08.21-.16.31-.23.48-.36.96-.72,1.43-1.09,1.12-.87,2.22-1.76,3.21-2.78.46-.48.89-1.05,1.21-1.63.14-.27.34-.61.3-.92,0-.03-.03-.08-.01-.01-.02.08-.01.05,0-.09-.02-.16-.02-.17,0-.05-.01-.08-.02-.16-.03-.24-.02-.11-.06-.21-.11-.32-.12-.28-.58-.2-.64.08h0Z"/>
        <path class="cls-4" d="M158.35,285.46c0,.3-.05.54-.14.82s-.1.57-.15.87c-.09.58-.22,1.15-.34,1.72-.27,1.2-.6,2.39-.94,3.57s-.69,2.32-1,3.5c-.36,1.34-.71,2.68-1.06,4.03-.7,2.67-1.43,5.33-2.21,7.99s-1.47,5.13-1.9,7.76c-.19,1.2-.35,2.4-.59,3.58-.12.6-.27,1.2-.46,1.78-.05.14-.09.28-.15.42-.02.06-.04.11-.06.17-.02.04-.04.09-.05.13.03-.07.03-.07,0-.02-.12.26-.24.53-.36.79-.17.36-.1.8.26,1.01s.77.06,1.01-.26c.65-.88.97-2.05,1.22-3.1s.43-2.16.61-3.25c.43-2.59,1.09-5.13,1.83-7.65.79-2.68,1.57-5.35,2.27-8.05.66-2.56,1.31-5.11,1.99-7.66.36-1.36.71-2.71.91-4.1.1-.7.16-1.4.17-2.11,0-.34.02-.69-.06-1.03-.04-.15-.08-.3-.13-.44-.06-.17-.07-.35-.1-.53-.04-.33-.57-.24-.57.08h0Z"/>
        <path class="cls-4" d="M138.45,244.23c.07.15.13.28.14.44,0,.12.02.24.04.36.05.28.1.56.13.84.06.59.14,1.18.22,1.77s.16,1.13.3,1.68c.16.64.34,1.27.52,1.91.35,1.3.7,2.6,1.05,3.9s.67,2.45,1.21,3.62c.3.64.62,1.26.98,1.87.17.3.35.6.55.89.09.13.18.26.28.39.18.24.35.42.59.6.27.2.71.12.96-.07.27-.21.4-.57.31-.91-.17-.62-.63-1.17-.96-1.71s-.63-1.07-.9-1.63-.53-1.11-.77-1.68c.07.16.01.03,0,0-.03-.07-.06-.15-.09-.22-.06-.15-.11-.29-.17-.44-.11-.31-.21-.62-.31-.93-.42-1.26-.86-2.53-1.29-3.79-.4-1.16-.82-2.31-1.11-3.51-.15-.62-.28-1.24-.51-1.84-.11-.3-.24-.61-.38-.9-.06-.13-.13-.24-.22-.35-.11-.14-.17-.29-.25-.45-.1-.2-.39-.02-.3.17h0Z"/>
        <path class="cls-4" d="M163.16,250.72c-.1.3-.19.6-.31.89s-.25.58-.36.87c-.22.58-.39,1.21-.55,1.82-.33,1.23-.61,2.48-.86,3.74-.51,2.58-.86,5.2-1.16,7.81-.08.71-.15,1.42-.22,2.12-.03.36-.06.72-.09,1.08s-.09.72-.04,1.07c.05.41.28.75.71.81.4.05.8-.19.9-.59.17-.64.15-1.35.21-2.01s.12-1.26.19-1.9c.12-1.28.27-2.55.43-3.82.08-.62.15-1.11.24-1.79s.2-1.28.29-1.91c.18-1.3.35-2.54.54-3.83.1-.71.18-1.42.28-2.13.05-.35.05-.7.07-1.06s.06-.72.11-1.08c.03-.25-.3-.35-.38-.1h0Z"/>
        <path class="cls-4" d="M190.39,247.54c-.14.66-.24,1.31-.29,1.99s-.08,1.33-.07,2c0,1.34.1,2.67.22,4s.27,2.66.43,3.99c.08.71.17,1.42.27,2.12.04.31.09.63.13.94.02.16.04.31.06.47,0,.02.02.17,0,.05.02.13.03.25.05.38.09.67.17,1.34.26,2.01.08.51.19,1.04.41,1.51.01.03.09.14.08.16l-.03-.09c.02.05.04.11.07.16.05.12.1.23.15.35.09.19.19.36.3.54.25.4.55.77.87,1.11.57.63,1.24,1.16,1.88,1.71.49.42.98.86,1.47,1.28.64.54,1.28,1.09,1.93,1.62.27.22.53.46.82.65.37.24,1.02.21,1.27-.21l-.72.29s.13.02.18.02c.34.02.63-.3.63-.63,0-.36-.29-.61-.63-.63l.16.02.44.78c.05-.32-.05-.72-.29-.94-.18-.16-.37-.3-.56-.46-.54-.46-1.08-.94-1.61-1.42-1.06-.95-2.17-1.87-3.21-2.84-.31-.29-.62-.58-.89-.91-.03-.04-.06-.08-.09-.11-.01-.02-.11-.17-.04-.05s-.03-.04-.04-.05c-.02-.03-.05-.06-.07-.1-.12-.18-.23-.36-.33-.55-.04-.08-.08-.21-.13-.27.09.1.04.11.03.03,0-.06-.03-.12-.05-.18-.07-.22-.14-.44-.19-.67-.02-.1-.04-.21-.06-.31-.01-.07-.02-.15-.04-.22-.03-.17,0-.03,0,0-.05-.34-.09-.68-.13-1.03-.35-2.69-.73-5.13-1.05-7.75-.18-1.46-.32-2.92-.46-4.38-.07-.71-.15-1.43-.21-2.14s-.16-1.48-.27-2.22c-.05-.33-.59-.31-.65,0h0Z"/>
        <path class="cls-4" d="M192.12,247.36c.2.06.38.11.59.13.16.02.31.03.47.04.31,0,.62,0,.93-.02.67-.04,1.35-.12,2.01-.24,1.22-.22,2.42-.53,3.62-.82.34-.08.68-.16,1.02-.24.16-.04.33-.07.49-.1.24-.05.46-.08.67-.22.27-.18.43-.47.38-.8-.04-.3-.27-.6-.58-.67-.25-.05-.44-.05-.69,0-.12.02-.25.05-.37.08-.23.05-.46.11-.69.16-.46.11-.92.23-1.39.35-.92.24-1.84.48-2.77.67-.53.11-1.06.2-1.6.27l.21-.03c-.36.05-.73.08-1.1.1-.18,0-.37.02-.55.03-.23.01-.45.06-.68.1-.26.04-.47.35-.46.6.01.28.19.52.46.6h0Z"/>
        <path class="cls-4" d="M199.51,232.9c-.06.1-.16.25-.19.29-.04.05-.08.09-.12.14-.03.03-.06.06-.09.09-.08.09.16-.13-.05.05-.12.1-.22.21-.34.3.09-.07-.01,0-.05.03-.07.05-.13.09-.2.13-.11.07-.23.13-.35.19-.05.03-.11.06-.17.08-.03.01-.06.03-.08.04-.18.08.09-.03-.02,0-.27.1-.54.19-.81.27-.55.15-1.11.27-1.66.4-.76.18-1.51.42-2.26.65-1.6.49-3.19,1-4.81,1.43s-3.29.71-4.95.97-3.44.52-5.16.79-3.31.56-5,.68-3.44.14-5.17.17-3.42.13-5.13.25c-3.47.24-6.96.02-10.43-.03-.44,0-.88,0-1.31,0-.85,0-.85,1.32,0,1.32,3.54,0,7.09.27,10.63.12,1.75-.07,3.49-.24,5.24-.28s3.48-.04,5.22-.13,3.52-.33,5.27-.6,3.51-.52,5.26-.78,3.43-.47,5.12-.85,3.27-.85,4.88-1.34c1.41-.42,2.82-.8,4.24-1.18,1.14-.31,2.54-.78,3.11-1.91.15-.29.26-.58.33-.9.12-.56-.64-.92-.94-.4h0Z"/>
        <path class="cls-4" d="M145.73,240.35c-.03-.1-.08-.19-.12-.29-.05-.11-.13-.19-.23-.26-.15-.12-.29-.23-.47-.3-.31-.14-.63-.25-.96-.32-.66-.14-1.35-.15-2.03-.19-.35-.02-.7-.04-1.05-.09l.22.03c-.26-.03-.51-.08-.76-.13s-.49-.12-.72-.22l.19.08s-.08-.03-.12-.05c-.09-.06-.19-.09-.29-.09-.1-.02-.21-.02-.31.01-.18.05-.37.19-.46.36-.1.18-.14.4-.08.6s.18.36.36.46c.31.19.65.33.99.44s.74.15,1.11.19c.63.06,1.26.05,1.89.08.34.02.68.04,1.02.08l-.2-.03c.24.03.48.08.71.16.11.04.22.06.32.1s.21.06.32.06c.05,0,.1,0,.15,0,.33.02.62-.36.51-.67h0Z"/>
        <path class="cls-4" d="M214.2,327.93c0,.16,0,.28-.07.43-.05.13-.09.24-.12.37-.06.33-.13.66-.18.99-.08.6-.1,1.2-.12,1.8-.03,1.24-.01,2.48.04,3.72.11,2.46.38,4.91.54,7.37.08,1.24.13,2.48.16,3.73s.03,2.49.09,3.74.14,2.5.22,3.75c.07,1.12.11,2.24.24,3.36.07.59.15,1.19.24,1.78.04.27.08.55.12.82.01.08.02.16.03.23.03.18-.01-.11.01.09.02.13.03.26.05.38.07.53.12,1.07.15,1.6.02.45,0,.9.03,1.35.06.84,1.17.99,1.45.2s.14-1.84.06-2.7c-.09-1.01-.24-2.01-.35-3.01s-.17-2.02-.22-3.03c-.07-1.27-.15-2.53-.21-3.8-.12-2.49-.04-4.99-.2-7.48s-.4-4.95-.63-7.42c-.13-1.37-.29-2.73-.43-4.1-.07-.71-.11-1.43-.21-2.14-.05-.33-.1-.66-.16-1-.03-.15-.04-.3-.08-.45-.02-.08-.06-.15-.08-.23-.02-.11-.01-.23-.01-.35,0-.24-.36-.24-.37,0h0Z"/>
        <path class="cls-4" d="M204.37,333.38c-1.05,1.63-1.55,3.57-2.12,5.4s-1.03,3.72-1.56,5.57c-.43,1.54-.92,3.06-1.23,4.63-.29,1.47-.52,2.95-.82,4.42-.16.78-.34,1.55-.57,2.31-.1.34-.22.67-.35.99-.05.13,0,0,.01-.03-.03.07-.06.13-.09.2-.13.31.05-.09-.02.04-.02.04-.04.09-.06.13-.07.15-.14.29-.22.43-.2.35-.1.86.28,1.05s.82.09,1.05-.28c.72-1.12,1.07-2.47,1.36-3.75.34-1.48.58-2.97.86-4.46s.71-3,1.11-4.5c.51-1.88.99-3.76,1.48-5.64.28-1.06.52-2.13.79-3.19s.5-2.11.59-3.19c.02-.28-.37-.35-.5-.14h0Z"/>
        <path class="cls-4" d="M222.57,420.86c.79-.52,1.19-1.54,1.6-2.37.44-.89.81-1.82,1.17-2.75.7-1.8,1.23-3.67,1.75-5.52,1.04-3.73,1.8-7.53,2.73-11.28.26-1.03.53-2.06.81-3.09s.61-2.03.78-3.08c.05-.34-.06-.67-.4-.81-.3-.12-.69-.03-.85.28-.46.86-.75,1.79-1.04,2.72s-.53,1.82-.78,2.74c-.5,1.85-.95,3.71-1.41,5.58-.92,3.75-1.83,7.52-3.06,11.19-.33,1-.68,1.99-1.02,2.98-.17.5-.34.99-.53,1.49s-.39,1.03-.35,1.59c.02.28.33.51.59.34h0Z"/>
        <path class="cls-4" d="M106.28,383.21c-.05.7-.18,1.39-.24,2.09s-.11,1.4-.14,2.09c-.07,1.4-.14,2.8-.18,4.2-.08,2.77-.14,5.54-.15,8.32,0,2.77.02,5.54.12,8.31s.25,5.59.54,8.36c.17,1.59.36,3.19.61,4.77.12.75.25,1.49.38,2.24.07.37.13.75.24,1.11.12.39.3.77.45,1.15.1.25.3.43.59.38.26-.04.46-.25.46-.53,0-.34.04-.69.03-1.03s-.05-.69-.09-1.03c-.08-.69-.17-1.38-.25-2.07-.15-1.37-.3-2.73-.42-4.1-.24-2.77-.43-5.53-.54-8.31-.22-5.54-.2-11.08-.26-16.63-.02-1.56-.05-3.12-.1-4.68-.03-.76-.06-1.52-.11-2.29s-.19-1.58-.25-2.38c-.03-.45-.67-.45-.7,0h0Z"/>
        <path class="cls-4" d="M132.56,321.75c-.02.52-.02,1.05-.1,1.57s-.17,1.02-.23,1.53c-.13,1.03-.19,2.07-.27,3.1-.18,2.07-.37,4.14-.56,6.21-.39,4.12-.78,8.24-1.11,12.37-.16,2.05-.33,4.1-.4,6.16s-.05,4.16-.06,6.24-.14,4.16-.15,6.24.1,4.09.09,6.13c0,1.7-.15,3.4-.21,5.1-.03.87-.03,1.74.02,2.61s.13,1.78.37,2.64c.11.38.24.76.39,1.13.14.33.44.57.82.46s.53-.46.46-.82c-.02-.1-.04-.19-.05-.29,0-.05-.02-.1-.02-.15,0-.02-.02-.14,0-.03-.03-.2-.04-.39-.06-.59-.03-.41-.06-.82-.08-1.23-.05-.87-.03-1.74.01-2.61.09-1.73.27-3.45.35-5.18.09-1.93.01-3.88,0-5.81-.01-2.07.11-4.13.15-6.19s.01-4.12.02-6.19.11-4.15.24-6.22c.26-4.11.6-8.21.8-12.32.1-2.05.19-4.11.23-6.17.02-1.04.03-2.07.03-3.11s-.09-2.03-.19-3.05c-.05-.51-.04-1.03-.04-1.55,0-.28-.42-.28-.43,0h0Z"/>
        <path class="cls-4" d="M105.05,362.15c-.04.13-.08.27-.12.4-.05.18-.07.36-.08.55,0,.29-.01.57-.02.86s0,.56,0,.85.01.57.02.85c0,.16,0,.33,0,.49,0,.08,0,.16,0,.24,0,.09.02.17.03.26,0,.11.02.21.07.3.03.1.08.18.16.25.07.08.15.13.25.16.09.05.19.07.3.07.2,0,.41-.07.55-.23l.12-.16c.07-.12.11-.25.11-.39.01-.11.02-.21.02-.32,0-.1-.01-.21-.02-.31-.01-.21-.03-.42-.05-.63s-.04-.41-.06-.62c-.03-.27-.06-.53-.1-.79-.03-.23-.07-.46-.1-.69l.02.17c-.01-.1-.03-.2-.04-.3-.02-.15-.03-.3-.07-.44-.05-.19-.13-.37-.2-.56-.06-.16-.2-.31-.39-.3s-.33.12-.39.3h0Z"/>
        <path class="cls-4" d="M71.31,417.92c.06-.07.12-.14.18-.2.08-.08.06-.07.18-.12-.08.03-.01,0,.02,0,.08-.03.08-.02,0,0,.11-.02.16-.04.26-.07-.01,0-.11.06-.04.02.01,0,.03,0,.04,0,.06-.01-.13,0-.04,0,.03,0,.07,0,.1,0,.02,0,.1,0,0,0-.15,0,.1.02.11.02.04,0,.09,0,.12,0,.15,0-.09-.02,0,0,.08.02.15.03.23.06.05.01.09.03.14.05.08.03-.13-.06.02,0,.04.02.07.03.11.05.25.11-.08-.05.01,0,.04.02.08.04.13.06.1.05.2.1.29.16.2.12.38.24.57.38.02.02.16.12.09.06-.07-.05.06.05.09.07.1.08.21.17.31.26.2.17.39.34.58.52.73.69,1.4,1.43,2.08,2.16.73.8,1.5,1.53,2.29,2.27,1.36,1.29,2.72,2.57,4.12,3.82s2.85,2.41,4.25,3.65,2.72,2.5,4.09,3.73,2.76,2.34,4.13,3.52,2.73,2.41,4.28,3.36,3.11,1.59,4.63,2.44c.19.11.38.22.57.33.21.12.44.19.67.28.55.21.9-.56.54-.94-.63-.66-1.5-1.06-2.3-1.48s-1.59-.81-2.38-1.25c-1.57-.88-2.93-1.97-4.28-3.15s-2.84-2.36-4.22-3.59-2.76-2.53-4.16-3.79-2.89-2.44-4.31-3.69-2.84-2.58-4.24-3.9c-.86-.81-1.73-1.61-2.54-2.48-.69-.74-1.38-1.48-2.12-2.17s-1.53-1.37-2.45-1.77c-.4-.18-.85-.29-1.29-.24-.08,0-.45.13-.23.05-.07.03-.15.06-.22.09-.07.03-.13.07-.19.11-.06.04-.12.07-.17.12-.17.17-.07.1-.03.05-.03.04-.06.08-.09.12-.05.07-.09.13-.13.21-.09.17-.16.33-.22.56-.06.24.27.48.45.26h0Z"/>
        <path class="cls-4" d="M255.93,411.8c-.16-.3-.37-.64-.67-.8-.27-.15-.6-.22-.91-.19-.65.05-1.2.47-1.72.82-1.23.81-2.4,1.71-3.64,2.51-1.35.87-2.81,1.58-4.25,2.3s-2.93,1.45-4.4,2.18c-2.91,1.45-5.79,2.98-8.76,4.3-1.19.53-2.43.99-3.6,1.56-.97.47-1.92.98-2.89,1.45s-1.94.89-3.07,1.19c-.26.07-.51.12-.77.17-.03,0-.18.03-.12.02s-.09.01-.12.01c-.13.01-.26.02-.4.03-.23,0-.45,0-.68-.02-.12-.01.08.02-.07-.01-.05,0-.1-.02-.15-.03-.11-.02-.22-.05-.33-.08s-.21-.06-.32-.09c-.02,0-.15-.06-.1-.04s-.1-.05-.12-.06c-.67-.34-1.17.56-.58.99.82.6,1.86.7,2.85.58,1.12-.14,2.19-.49,3.23-.93s2.12-.98,3.16-1.5c.44-.22.88-.45,1.33-.66.2-.09.4-.19.6-.27-.1.04-.05.02.02,0,.07-.03.15-.06.22-.09.19-.08.38-.15.57-.23,3.03-1.25,5.96-2.7,8.89-4.17s5.88-2.86,8.76-4.4c1.33-.71,2.54-1.55,3.74-2.46.59-.44,1.18-.88,1.79-1.3.25-.18.5-.35.78-.49.03-.01.06-.03.09-.04-.01,0-.06.03,0,0,.06-.02.11-.04.17-.06s.11-.04.17-.05c.07-.01,0,0,0,0,.04,0,.08,0,.12,0,.23.01.54.14.78.28s.51-.14.39-.39h0Z"/>
        <path class="cls-4" d="M90.53,398.5c.07-.02.14-.05.21-.07h-.26s.08.01.12.02c.14.02.24-.02.37-.07l-.13.05c.12-.05.25-.1.37-.16.09-.04.17-.11.25-.17.19-.14.38-.28.56-.42.31-.24.61-.49.91-.75.6-.52,1.16-1.08,1.75-1.61.32-.29.66-.58,1-.85l-.15.12c.35-.27.73-.53,1.1-.77.16-.1.29-.25.34-.44.05-.18.03-.41-.07-.57-.22-.35-.65-.46-1.01-.26-.21.11-.41.23-.6.37-.24.17-.47.35-.7.54-.37.31-.73.64-1.08.98s-.7.7-1.05,1.04-.69.7-1.04,1.04c-.2.19-.4.37-.61.55-.1.09-.21.16-.31.25-.05.04-.09.1-.14.14-.02.02-.04.04-.06.07-.12.12-.16.24-.18.41l.02-.14s0,.02,0,.03l.05-.12v.02s.04-.07.06-.1c-.05.05-.09.1-.14.15-.13.13-.17.36-.07.52s.3.26.49.2h0Z"/>
        <path class="cls-4" d="M177.38,300.33c.09.03.19.05.28.08l-.2-.12s-.08-.1-.06-.07c.03.03.05.08.09.11.07.07.16.12.25.15.05.02.1.03.15.05.15.03.31.06.46.06.23,0,.46.02.69.04.51.04,1.01.06,1.52.11.3.03.6.06.89.1l-.22-.03c.28.04.56.08.85.11l-.22-.03c1.14.15,2.27.37,3.36.72.43.14.95-.16,1.05-.6.11-.46-.14-.91-.6-1.05-1-.31-2.04-.49-3.08-.63-.58-.08-1.16-.13-1.74-.16-.52-.02-1.06-.06-1.58-.02-.27.02-.55.05-.82.08-.42.05-.96.13-1.11.59l.12-.21c.07-.08.07-.05.02-.03-.02.01-.05.02-.07.04-.04.02-.08.05-.12.07-.26.15-.2.55.08.63h0Z"/>
        <path class="cls-4" d="M165.18,249.61c.08.05.15.11.23.16.03.02.07.05.1.07.09.06-.08-.07,0,0,.14.12.28.25.42.37.29.25.54.54.78.84.09.12.02.02,0,0,.03.04.05.07.08.11.05.07.11.15.16.22.13.18.26.35.38.53.23.32.45.65.68.97.95,1.31,2.13,2.5,3.57,3.25,1.64.86,3.5,1.22,5.31,1.47,1.11.15,2.23.27,3.35.35.47.04.95.06,1.42.11.04,0,.08,0,.12.01.17.02-.05,0-.06,0,0,.01.23.04.25.04.15.03.3.06.45.11.08.02.15.05.22.07.17.06-.17-.09.02,0,.06.03.13.06.19.1.05.03.12.11.17.11-.12-.02-.15-.13-.08-.06.03.03.06.05.09.08.05.05.09.1.14.15.07.07-.05.03-.06-.08,0,.03.06.08.07.1.03.05.07.11.1.16.04.06.06.13.1.2.05.09-.06-.18-.03-.08.01.04.03.07.04.11.06.16.1.33.14.49.04.19.07.38.11.57.06.37.24.57.54.79.22.16.61.09.79-.1.23-.25.36-.51.33-.85-.02-.23-.06-.47-.1-.7-.06-.3-.13-.6-.25-.88-.26-.63-.65-1.17-1.24-1.53s-1.34-.5-2.05-.58c-1.03-.12-2.08-.17-3.12-.27-.26-.02-.52-.05-.78-.08-.12-.01-.24-.03-.37-.04-.08,0-.15-.02-.23-.03-.04,0-.21-.03-.09-.01-.55-.08-1.09-.17-1.63-.27-.87-.18-1.73-.4-2.55-.73-.04-.02-.15-.07.03.01-.04-.02-.08-.03-.12-.05-.08-.03-.15-.07-.23-.11-.18-.09-.35-.18-.52-.28-.15-.09-.3-.18-.45-.28-.07-.05-.14-.1-.21-.15-.04-.03-.08-.06-.13-.09-.08-.06.12.09,0,0-.63-.52-1.21-1.1-1.72-1.74.12.15-.07-.1-.11-.14-.07-.09-.13-.18-.2-.27-.13-.18-.26-.37-.39-.56-.29-.41-.59-.82-.92-1.2-.6-.7-1.34-1.41-2.29-1.55-.31-.04-.61.05-.73.36s0,.59.25.78h0Z"/>
        <path class="cls-4" d="M168.33,251.68c.09,0,.18.02.27.03.04,0,.07,0,.11.01.1.01.06,0,.04,0,.2.03.4.08.61.09.33.02.67.04,1,.06.68.05,1.36.12,2.04.19,1.35.13,2.73.2,4.08.09.81-.07,1.62-.19,2.41-.39l-.96-.39c.02.05.05.1.07.16-.12-.26-.03-.06,0,0,.04.1.07.19.11.29.07.21.14.43.19.65.12.46.21.92.29,1.39.16.91.3,1.83.47,2.74.06.32.45.61.78.59.05,0,.16-.02.21-.03.19-.05.39-.2.48-.37.11-.21.11-.39.08-.62-.01-.09-.02-.17-.04-.26l.03.22c-.13-.96-.2-1.94-.38-2.9s-.42-1.85-.83-2.71c-.16-.34-.62-.48-.96-.39-.52.14-1.06.24-1.59.31l.22-.03c-1.13.15-2.28.19-3.41.19s-2.29.01-3.43.06c-.35.01-.72,0-1.07.07-.31.05-.62.13-.92.19-.18.04-.3.24-.27.42.03.2.18.31.37.33h0Z"/>
      </g>
    </g>
    <path class="cls-3" d="M96.07,440.56c-.31,2.03-1.02,4-2.08,5.97-1.18,2.22-2.76,5.89-5.35,6.68-1.95-.63-20.09-9.01-21.76-9.54-1.81-.57-3.54-1.01-5.29-1.78-4.02-1.8-7.84-4.3-11.38-6.94-1.91-1.45-7.86-5.46-12.46-9.62.22-.35.43-.66.58-.93.72-1.29,1.64-2.52,2.6-3.64,1.86-2.19,4.3-4.33,7.27-4.63,1.92-.19,4.28,1.34,5.86,2.33,2.88,1.8,5.92,2.94,9.29,3.5,2.2.38,4.42.94,6.55.05.74-.31,1.42-.66,2.05-1.17.28-.22.57-.49.83-.79,1.21,1.28,2.98,2.31,4.35,3.46,2.16,1.81,4.25,3.68,6.41,5.51,3.98,3.4,7.5,7.32,11.49,10.64.35.28.69.58,1.04.9Z"/>
    <path class="cls-2" d="M87.83,457.06c-.9,1.34-1.91,2.54-3.5,2.14-1.98-.49-3.89-1.51-5.76-2.28-2.71-1.12-5.48-2.2-8.05-3.61-1.72-.96-3.4-2-5.16-2.83.27-1.28,1.13-2.61,1.57-3.87.38-1.05.47-1.39-.83-1.4-2.03-.03-4.08.46-6.13.22-2.71-.33-5.51-2.16-7.72-3.68-3.57-2.49-7.15-4.87-10.42-7.76-1.56-1.39-4.57-3.45-5.2-5.53-.28-.93.47-2.14,1.1-3.13,4.6,4.16,10.55,8.17,12.46,9.62,3.54,2.65,7.37,5.15,11.38,6.94,1.75.77,3.48,1.21,5.29,1.78,1.67.54,19.81,8.91,21.76,9.54,1.23,1.05-.13,2.87-.8,3.86Z"/>
    <path class="cls-3" d="M262.55,428.63c-1.57,1.31-18.39,12.09-19.75,13.21-1.45,1.21-2.76,2.46-4.35,3.51-3.67,2.42-7.84,4.3-11.98,5.86-2.24.83-8.82,3.68-14.8,5.32-.17-.36-.33-.72-.47-.99-.69-1.31-1.23-2.74-1.67-4.14-.85-2.74-1.34-5.95.02-8.61.87-1.72,3.43-2.9,5.1-3.7,3.07-1.45,5.68-3.4,7.95-5.94,1.31-1.45,2.76-2.83,3.35-4.66,2.63-.69,6.05-2.05,8.31-3.45,4.88-3.04,10.3-6.01,15.6-8.25,2.09-.88,3.39-1.67,3.98-2.72,2.52,1.57,4.41,3.72,5.94,6.46,1.23,2.2,3.48,5.5,2.76,8.11Z"/>
    <path class="cls-2" d="M265.29,435.49c-1.46,1.4-3.35,2.46-5.01,3.62-2.41,1.67-4.82,3.43-7.38,4.83-1.72.94-3.51,1.8-5.16,2.83-.93-.91-1.59-2.36-2.41-3.42-.69-.88-.93-1.13-1.64-.05-1.1,1.7-1.8,3.68-3.12,5.29-1.72,2.11-4.77,3.48-7.24,4.52-4.03,1.68-7.95,3.42-12.16,4.61-2,.57-5.35,1.98-7.45,1.4-.93-.25-1.56-1.53-2.05-2.61,5.98-1.64,12.57-4.49,14.8-5.32,4.14-1.56,8.31-3.43,11.98-5.86,1.59-1.06,2.9-2.3,4.35-3.51,1.35-1.12,18.17-11.9,19.75-13.21,1.56-.47,2.35,1.65,2.83,2.76.63,1.46,1.1,2.98-.09,4.11Z"/>
  </g>
  <g>
    <path class="cls-5" d="M133.79,60c-.03,1.49.87,1.91,2.11,2.56,2.53,1.33,29.03,9.18,29.75,9.16,4.77,1.38,20.42,7.76,26.72,8.75,1.91.3,4.28.92,6.22.57,1.96-.35,2.38-2.54,2.05-4.38-.64-3.57-5.95-5.52-8.68-7.1-1.82-1.03-3.7-2.05-5.51-3.09-.68-.4-1.39-.75-2.12-1.08.65-1.82-.23-5.51-.71-6.91-1.01-2.94-2.1-5.31-4.06-7.77-5.93-7.47-14.84-10.85-24.31-9.82-5.74.61-10.75,3.47-14.95,7.38-2.05,1.9-3.43,4.21-4.63,6.72-.72,1.51-1.86,3.27-1.89,5Z"/>
    <g class="cls-10">
      <path class="cls-3" d="M182.9,65.83c-.11.02-.21.04-.32.07-.14.03-.26.1-.39.15-.09.04-.18.08-.26.11-.05.02-.11.05-.16.07-.07.03-.07.03,0,0-.03.01-.07.03-.1.04-.44.18-.87.44-1.28.68-.77.45-1.56.87-2.35,1.29s-1.63.81-2.46,1.2c-.4.19-.81.37-1.21.55-.05.02-.11.05-.16.07-.03.01-.21.09-.04.02-.09.04-.18.07-.27.11-.21.09-.42.17-.64.26-.27.1-.53.24-.8.34.15-.05-.03,0-.05.02-.07.03-.14.05-.21.08-.11.04-.21.08-.32.12-.24.09-.48.17-.72.25-.27.09-.68.15-.87.38-.29.35-.18.84.26,1,.27.09.59-.04.86-.11.22-.06.43-.12.65-.19.41-.12.83-.26,1.24-.38.44-.13.86-.31,1.29-.48.45-.18.9-.37,1.35-.56,1.67-.73,3.29-1.59,4.87-2.5.43-.25.86-.52,1.28-.8.24-.15.45-.35.66-.53.1-.08.21-.16.3-.25s.16-.21.24-.31c.11-.14.16-.32.06-.48s-.28-.22-.45-.18h0Z"/>
      <path class="cls-3" d="M176.37,52.97s0-.01,0-.02l-.13.22c.07-.07.15-.18.17-.28v-.08s.02-.06.02-.09c0-.08,0-.12-.03-.18,0-.02-.01-.03-.02-.05s-.01-.03-.02-.05c0,0,0-.02,0-.02,0,0,0,0,0,0,0,0,0,0,0,0l-.07-.16s-.04-.06-.06-.09-.04-.06-.06-.09c-.13-.17-.25-.33-.4-.48-.07-.07-.15-.16-.24-.21-.1-.04-.19-.08-.29-.12l-.2-.03c-.1,0-.2.02-.29.06-.06.02-.12.05-.17.1-.08.05-.15.12-.19.21l-.08.18-.03.2c0,.1.02.2.06.29.03.09.08.17.16.24.02.02.03.04.05.06,0,.01.02.02.02.03.05.06.12.1.19.14.04.03.09.05.13.08.09.06.17.12.26.18l-.15-.11c.07.05.13.1.19.16,0,0,0,0,.01,0,.02.02.05.04.07.06.02.02.05.04.07.06,0,0,.02,0,.03.01.02,0,.03.02.05.03s.03.02.05.03c0,0,.02,0,.02.01.09.05.21.09.31.08l.16-.02c.06-.01.11-.04.16-.07l-.25.07s.02,0,.02,0l.13-.02c.06-.01.12-.04.16-.08.04-.02.06-.05.08-.08.04-.05.07-.1.08-.16h0Z"/>
      <path class="cls-3" d="M163.79,51.79c.1-.1.1-.11.14-.22.03-.05.05-.11.05-.17,0-.03,0-.06.01-.09l-.02.18c0-.06.03-.13.05-.19l-.08.18s.02-.04.03-.06c0,0,0-.01,0-.02l.08-.19s0,0,0,0c0-.01,0-.02,0-.04.01-.05.03-.1.05-.15l-.08.2s.04-.09.06-.13.04-.08.06-.13c.05-.1.08-.21.07-.33,0,0,0,0,0-.01,0,0,0-.01,0-.02,0-.03,0-.05,0-.08l-.03-.22-.08-.2-.13-.17c-.07-.08-.16-.14-.27-.17-.06-.04-.13-.06-.21-.06-.07-.02-.15-.02-.22,0-.07,0-.14.02-.21.06-.1.03-.19.09-.27.17-.02.02-.05.04-.07.07h0c-.05.06-.09.12-.14.18h0c-.03.07-.06.14-.09.21,0,0,0,.02,0,.02,0,.02,0,.03,0,.05-.02.13-.04.27-.04.4,0,.03,0,.06,0,.08,0,.01,0,.03,0,.04,0,.04,0,.08.02.11,0,.04,0,.08.02.11,0,0,0,.01,0,.02.04.1.08.21.14.31.01.02.03.04.04.06.04.05.08.11.13.16,0,0,0,0,0,0,.02.02.04.04.07.06.06.06.14.1.23.12h0c.06.01.12.02.18.02l.18-.02c.11-.03.21-.09.29-.17h0Z"/>
      <path class="cls-3" d="M151.18,45.08c-.07.01-.15.02-.22.04-.02,0-.04,0-.05.01-.09.02-.16.06-.24.11-.04.02-.07.04-.11.07-.07.04-.13.09-.2.13-.03.02-.06.04-.09.07-.07.05-.16.11-.21.17-.01.01-.02.03-.03.04-.07.08-.13.17-.2.26-.06.08-.1.18-.11.28l-.03.22.03.22.08.2c.05.1.12.17.21.23.05.05.11.09.18.11.06.04.13.06.21.06.07.02.15.02.22,0,.11,0,.21-.04.31-.1.09-.04.15-.09.22-.16.02-.02.04-.03.05-.05.02-.02.04-.04.06-.05.08-.07.13-.16.19-.24l-.14.18c.06-.08.13-.17.2-.24.04-.04.08-.08.11-.12,0,0,0,0,.01-.01,0,0,0,0,0,0,0,0,.12-.15.13-.16,0-.01.01-.02.02-.04.01-.02.02-.04.04-.07.03-.05.05-.09.08-.14l.07-.16.02-.18-.02-.18c-.02-.09-.06-.16-.12-.23-.03-.05-.07-.09-.12-.12-.04-.04-.09-.07-.15-.09-.05-.03-.11-.05-.17-.05-.09-.02-.18-.02-.26.01h0Z"/>
      <path class="cls-19" d="M183.55,57.2c.03.1.05.2.07.3.03.11.03.21.03.32,0,.12.01.25.01.37,0,.03,0,.06,0,.09s0,.06,0,.09v.04s0-.06,0-.03c0,.07.02.13.02.2.02.17.03.34.06.5.03.14.05.29.07.43,0,.02,0,.04,0,.06,0,.06-.01-.1,0-.05,0,.03,0,.07.01.1,0,.08.02.15.02.23.01.14.02.28.03.42.01.3,0,.6-.03.9l.02-.15c-.03.22-.08.43-.16.64l.06-.14c-.03.08-.07.15-.1.23l.06-.14c-.04.1-.1.2-.16.29l.68-.27s-.08-.03-.13-.04l.14.06c-.13-.05-.24-.13-.35-.21l.12.09c-.18-.14-.33-.31-.48-.49l.1.12c-.54-.7-.91-1.52-1.32-2.3-.09-.18-.18-.36-.27-.54l.08.19c-.03-.09-.06-.17-.11-.24-.1-.15-.21-.25-.38-.32s-.35-.09-.52-.04c-.13.04-.25.11-.35.2-.16.15-.21.35-.23.56-.09.8.12,1.61.02,2.41l.03-.2c-.04.3-.18.6-.08.9l.06-.47s-.04.08-.06.11l.83-.22c-.07-.04-.14-.08-.2-.13l.12.09c-.38-.3-.65-.72-1.01-1.05-.21-.19-.45-.37-.73-.44-.31-.07-.66-.02-.93.15-.16.1-.31.23-.43.37-.14.17-.22.34-.3.55l.07-.16c-.11.23-.13.48-.16.74-.02.16-.03.33-.04.5-.02.34-.04.68-.08,1.02l.03-.2c-.02.17-.05.34-.12.5l.08-.18c-.05.11-.1.21-.15.31-.07.15-.14.31-.23.44l.12-.16c-.09.08-.17.16-.26.24l.4-.23c-.41.13-.67.47-.68.9,0,.19.06.33.14.49,0,.01.01.02.02.03l-.08-.2h0c.46-.27.91-.53,1.37-.8h0c.04.06.09.11.13.17,0-.01-.01-.03-.02-.04l-.12-.15c-.07-.07-.15-.13-.24-.16-.16-.07-.32-.07-.49-.04-.09.02-.14.03-.25.09-.35.21-.49.65-.34,1.02.07.16.18.31.34.39l.2.08c.15.04.29.04.44,0,.5-.08.9-.66.72-1.16l.03.24c.01-.11.02-.22.04-.34l-.03.21v-.02c-.02.06-.05.12-.07.19.07-.17.15-.34.23-.51s.17-.35.21-.54c.13-.51.1-1.06.11-1.59,0-.27,0-.53.04-.8l-.02.18c.02-.12.03-.24.05-.36l-.02.18c.01-.07.03-.15.05-.22l-.07.15c.04-.1.1-.19.16-.27l-.09.12c.04-.05.09-.1.14-.15l-.12.09s.09-.06.14-.08l-.13.06s.05-.01.07-.02l-.15.02s.09,0,.13,0l-.15-.02c.06,0,.12.03.17.05l-.13-.06c.08.03.14.08.21.12s-.12-.1-.06-.04c.02.02.04.03.06.05.03.03.07.06.1.09.14.13.26.28.39.42.06.08.13.15.19.23,0,0,.01.02.02.02.03.03.01,0-.06-.07.04.05.08.11.12.16.03.04.06.07.09.11.14.17.28.3.46.43.11.08.26.09.39.07s.27-.07.35-.17c.06-.07.12-.15.17-.23l-.37.28c.26-.05.48-.28.6-.5.08-.16.15-.33.21-.51.09-.3.11-.64.12-.95,0-.53-.1-1.04-.06-1.57l-1.48.4c.12.17.26.32.39.48l-.12-.15c.16.22.29.46.44.68.16.26.32.51.49.76.34.51.72,1.02,1.18,1.43.26.23.55.42.88.52.27.08.52-.06.68-.27.23-.32.31-.7.34-1.09s0-.77-.06-1.15-.14-.75-.24-1.12c-.06-.21-.13-.42-.22-.62-.03-.08-.07-.16-.1-.24,0-.02-.06-.14-.02-.05-.03-.07-.06-.13-.1-.19-.09-.16-.19-.32-.29-.47-.08-.14-.14-.29-.2-.44-.05-.11-.22-.07-.19.05h0Z"/>
    </g>
  </g>
  <g>
    <g>
      <g>
        <path class="cls-8" d="M35.25,170.35h52.54v43.31h-52.54c-.71,0-1.28-.58-1.28-1.28v-40.74c0-.71.58-1.28,1.28-1.28Z"/>
        <g class="cls-11">
          <path class="cls-3" d="M46.94,203.27c.12-.04.23-.09.34-.14.03-.02.07-.03.1-.05s.07-.03.1-.05c.17-.12.34-.25.5-.38.24-.2.47-.42.7-.63.06-.06.13-.12.19-.18.03-.03.07-.06.09-.09s.06-.07.08-.1c.07-.07.13-.15.16-.25.05-.09.07-.19.07-.3,0-.11-.02-.2-.07-.3-.03-.1-.08-.18-.16-.25l-.16-.12c-.12-.07-.25-.1-.39-.1l-.2.03c-.13.04-.24.1-.34.2-.03.02-.06.05-.09.07s-.05.05-.08.08c-.05.06-.1.12-.15.18-.1.12-.2.25-.3.37-.2.24-.4.47-.63.68-.03.03-.06.06-.09.09s-.06.06-.09.09c-.06.06-.12.11-.18.16l-.09.12c-.04.07-.07.14-.07.22-.01.05-.01.1,0,.16,0,.08.03.15.07.22l.09.12.12.09c.07.04.14.07.22.07.08.02.16.01.23-.01h0Z"/>
          <path class="cls-3" d="M81.83,172.07c-.05.01-.1.03-.15.05s-.11.03-.16.04c-.06.02-.12.04-.18.07-.03.01-.05.03-.08.04s-.05.03-.08.04c-.04.03-.09.07-.14.11-.01.01-.03.02-.04.03-.2.16-.38.34-.55.53-.12.14-.23.28-.35.42l.1-.13s-.09.09-.13.14c-.07.09-.14.18-.21.27l.11-.15s-.08.1-.11.15c-.07.11-.1.23-.1.36,0,.07.02.13.03.2.02.1.11.26.19.32l.14.11c.11.06.23.1.36.1.15,0,.17-.02.28-.06.05-.02.06-.02.09-.04.03-.02.12-.09.15-.12.1-.1.16-.23.19-.36,0-.02,0-.04.01-.05.02-.08.05-.16.07-.24l-.06.15c.02-.06.06-.12.09-.17.03-.06.07-.12.1-.18.07-.12.15-.25.23-.37.05-.07.1-.13.15-.2l-.08.11s.04-.05.06-.07c.04-.06.1-.11.13-.17.03-.05.06-.1.09-.14l-.07.09c.07-.09.09-.11.12-.21l-.05.11c.03-.07.07-.14.11-.2l-.06.07s.08-.09.12-.14l.05-.06s.04-.07.04-.12c0-.03,0-.06,0-.08,0-.04-.01-.08-.04-.12-.03-.05-.07-.08-.11-.11-.04-.02-.07-.04-.12-.04-.04,0-.08,0-.13,0h0Z"/>
        </g>
      </g>
      <g>
        <path class="cls-21" d="M87.79,170.35h44.79c.71,0,1.28.58,1.28,1.28v40.74c0,.71-.58,1.28-1.28,1.28h-44.79v-43.31h0Z"/>
        <g class="cls-17">
          <polygon class="cls-3" points="100.83 197.82 97.18 194.18 93.54 197.82 95.36 197.82 95.36 208.18 99.01 208.18 99.01 197.82 100.83 197.82"/>
          <polygon class="cls-3" points="108.91 197.82 105.27 194.18 101.62 197.82 103.44 197.82 103.44 208.18 107.09 208.18 107.09 197.82 108.91 197.82"/>
          <path class="cls-3" d="M119.17,185.88c.05-.02.1-.03.16-.05.1-.04.21-.08.31-.14.15-.1.29-.21.43-.32.21-.16.4-.33.6-.5.11-.09.22-.19.34-.27l-.16.12c.09-.07.17-.13.26-.2.04-.03.07-.06.11-.09l-.16.12c.15-.12.32-.23.5-.3l-.19.08c.06-.02.12-.04.18-.06.1-.02.19-.07.26-.14.08-.05.15-.13.2-.22.06-.09.09-.19.09-.29.02-.1.02-.21-.01-.31l-.08-.19c-.07-.12-.16-.21-.28-.28l-.19-.08c-.14-.04-.27-.04-.41,0-.14.03-.27.1-.4.16-.08.04-.15.08-.23.13-.08.05-.15.1-.23.16-.13.1-.26.19-.38.31-.3.29-.57.6-.87.88-.08.08-.16.15-.25.22-.08.06-.14.15-.21.21l-.1.13c-.05.07-.07.15-.07.23-.01.06-.01.11,0,.17,0,.08.03.16.07.23l.1.13.13.1c.07.05.15.07.23.07.08.02.17.01.25-.01h0Z"/>
          <path class="cls-3" d="M111.46,211.48s0,.05,0,.08c0,.03-.02.11.01.01.03-.09,0-.04,0,0,0,.02-.02.03-.03.05-.06.11-.07.23-.11.35-.01.04-.03.09-.04.13-.03.09-.02.2-.03.29,0,.11-.02.21-.04.32l.02-.17c-.01.1-.03.19-.03.29,0,.05,0,.1,0,.15,0,.1-.01.19-.02.29-.02.19-.04.39-.05.58-.03.38-.06.75-.09,1.13,0,.1-.01.2-.02.29s0,.2.01.3c0,.1.02.2.06.29.03.09.08.17.16.24.07.07.15.12.24.16.09.05.19.07.29.06.19,0,.4-.07.53-.22l.12-.15c.07-.12.1-.24.1-.38,0-.13.02-.25.02-.38s0-.26,0-.4c0-.28.02-.55.02-.83,0-.14.01-.28,0-.42s-.02-.27-.03-.4c0-.07-.01-.14-.02-.21-.01-.12-.02-.25-.04-.36-.03-.13-.06-.26-.1-.39-.03-.11-.08-.21-.13-.31-.04-.06-.08-.12-.12-.18-.03-.04-.05-.08-.08-.11-.04-.05-.1-.09-.15-.13,0,0-.02-.01-.03-.02-.04-.03-.02,0,.06.06,0,0-.01-.02-.02-.03-.02-.03-.04-.06-.06-.09-.05-.08-.15-.13-.25-.1s-.16.11-.16.21h0Z"/>
        </g>
      </g>
    </g>
    <g>
      <polygon class="cls-19" points="118.4 185.08 108.05 185.08 107.01 170.3 117.36 170.3 118.4 185.08"/>
      <g class="cls-14">
        <path class="cls-4" d="M112.29,155.79h-.01s.09,0,.13-.02c-.04,0-.09,0-.13,0l.15.02c-.08-.01-.15-.03-.23-.03-.03,0-.07,0-.1,0-.08,0-.15,0-.22-.02l.18.02c-.1-.01-.21-.03-.31-.06-.17-.04-.35-.04-.53-.06-.22-.03-.45-.06-.67-.08-.57-.06-1.15-.03-1.72-.03-.37,0-.74,0-1.1,0-.18,0-.34.04-.49.13-.11.06-.2.14-.27.25-.09.09-.14.2-.17.33-.05.17-.05.34,0,.52.08.21.13.44.16.66l-.04-.26c.04.28.05.57.09.86.03.22.05.44.11.65.02.06.04.13.06.19.03.09.07.18.11.26s.11.16.18.22c.02.02.05.05.08.07l.19.15.22.09.25.03c.13,0,.25-.02.36-.08.08-.02.15-.06.21-.12.07-.04.13-.1.17-.17.06-.06.1-.13.12-.21.06-.11.09-.23.08-.36-.01-.14,0-.29-.05-.43-.02-.06-.04-.12-.06-.18-.04-.13-.06-.26-.08-.39l.04.26c-.04-.26-.05-.53-.08-.79-.03-.21-.05-.42-.1-.62s-.14-.4-.22-.59l-.84,1.46c.43-.04.86-.07,1.29-.1.21-.02.42-.03.64-.05.28-.02.55-.07.83-.11l-.23.03c.29-.04.59-.04.88-.06.22-.01.45-.02.66-.07.17-.05.33-.1.49-.17.13-.06.26-.11.37-.21.07-.07.14-.15.19-.24l-.08.1h0c.14-.16.19-.4.08-.59-.04-.07-.1-.13-.17-.17-.11-.07-.25-.07-.37-.05h0Z"/>
        <path class="cls-4" d="M112.98,160.29h0c.08.04.15.09.23.13-.03-.03-.06-.07-.09-.1-.11-.13-.31-.18-.47-.24-.08-.03-.17-.04-.25-.06-.14-.03-.28-.06-.43-.09-.22-.04-.46-.05-.68-.07-.15-.01-.3-.03-.45-.03-.3,0-.61.01-.91.02-.34,0-.68,0-1.02-.04l.28.04s-.08-.01-.11-.02c-.14-.04-.28-.05-.42-.02-.14,0-.27.05-.39.13l-.21.17c-.1.1-.18.21-.22.34-.05.08-.07.17-.07.27-.03.14-.03.28.02.42l.11.25c.09.16.22.29.38.38.04.03.09.05.14.06.05.03.09.05.14.06.05,0,.1.02.16.02.05,0,.1.01.15.02.07,0,.14-.01.21-.02.1-.01.18-.02.27-.06l.23-.1c.11-.06.2-.14.27-.25.06-.06.1-.13.12-.21.06-.12.09-.24.08-.37l-.03-.26-.1-.23c-.06-.11-.14-.2-.25-.27-.09-.09-.2-.14-.33-.17-.03-.01-.06-.02-.09-.03l.24.1s-.06-.03-.08-.05l.21.16s-.03-.02-.04-.04c-.07-.08-.16-.14-.25-.19l-.53,1.97c.3.01.6-.01.9-.05.38-.05.76-.11,1.14-.16l-.25.03c.2-.03.4-.05.6-.08l-.25.03c.14-.02.28-.04.42-.05.07,0,.15-.02.22-.03.14-.02.28-.02.41-.06s.26-.07.39-.1c.08-.02.17-.05.25-.06l-.19.02c.18-.02.39-.01.55-.11.08-.05.16-.11.23-.18l-.23.13h0c.11-.04.2-.1.27-.19s.12-.2.11-.31c0-.09-.03-.18-.07-.26-.05-.1-.19-.22-.31-.24h0Z"/>
        <path class="cls-4" d="M112.55,166.96s.02,0,.03.01l-.14-.11.03.03.16.13c.09.06.19.09.3.1.07.02.14.02.22,0,.11,0,.21-.04.3-.1h0c-.06.02-.13.05-.19.08.13-.05.27-.1.38-.19.06-.05.14-.1.2-.16,0,0,.01-.01.02-.02.04-.04.11-.14.14-.18.02-.03.04-.06.06-.09.14-.26.2-.53.22-.82,0-.07,0-.15,0-.22-.02-.15-.03-.3-.07-.45-.02-.07-.04-.15-.07-.22-.06-.14-.11-.28-.18-.41-.04-.07-.09-.14-.14-.21-.1-.13-.2-.27-.32-.39-.07-.07-.13-.13-.21-.19-.13-.1-.26-.21-.4-.3-.22-.14-.46-.25-.71-.34-.18-.07-.36-.12-.55-.15-.26-.05-.53-.08-.8-.08-.25,0-.51.04-.75.09-.23.05-.44.13-.66.23-.13.06-.26.13-.38.21-.17.12-.34.25-.48.41s-.27.32-.36.5c-.2.36-.31.76-.33,1.18,0,.21.02.42.06.63.02.14.07.28.12.41.08.21.17.41.29.6s.27.38.43.55.34.24.55.32l.2.03.2-.03.18-.08c.09-.05.16-.11.22-.2.05-.05.08-.1.1-.17.03-.06.05-.12.05-.19.02-.07.02-.14,0-.2,0-.1-.04-.2-.09-.29-.01-.03-.02-.06-.04-.09-.03-.06-.07-.11-.11-.17-.06-.08-.13-.15-.19-.23l.13.17c-.13-.17-.24-.35-.32-.54l.09.2c-.07-.17-.12-.35-.15-.53l.03.23c-.02-.16-.02-.33,0-.49l-.03.23c.02-.17.06-.33.13-.49l-.09.21c.06-.14.13-.26.22-.38l-.14.18c.09-.12.2-.23.32-.32l-.18.14c.14-.11.29-.19.45-.26l-.21.09c.2-.08.41-.14.62-.17l-.24.03c.26-.03.52-.03.78,0l-.24-.03c.26.03.51.1.75.2l-.21-.09c.21.09.4.2.58.34l-.18-.14c.16.12.3.26.42.42l-.14-.18c.11.15.21.31.28.48l-.09-.21c.06.14.1.28.12.42l-.03-.23c.01.1.02.21,0,.31l.03-.23c-.01.07-.03.14-.06.21l.09-.21s-.05.09-.07.13-.05.09-.08.13l.13-.17s-.05.06-.08.09l.16-.13h0c-.05.05-.11.09-.16.13-.08.07-.14.16-.17.26-.04.06-.06.13-.06.2-.02.11-.02.22.01.32v.03c0-.12,0-.24,0-.36,0,0,0,.02,0,.03l-.02.17c0,.09.02.17.06.25.02.05.04.1.08.14.05.07.1.12.18.16h0Z"/>
        <path class="cls-4" d="M108.64,169.02s.03.03.04.05l-.11-.18c.03.07.06.15.12.2.06.06.13.09.22.12l-.11-.04c.15.08.29.16.44.24.19.1.39.18.59.25.33.11.65.25.98.35s.66.2.99.31.66.2,1,.29c.37.1.74.2,1.12.29l-.6-1.06s-.02.06-.03.09l.09-.2s-.05.09-.08.14l.13-.17c-.08.1-.17.18-.26.25l.17-.13c-.36.27-.78.46-1.19.64l.21-.09c-.84.35-1.72.64-2.61.84-.16.04-.32.07-.48.09l.24-.03s-.03,0-.05,0c-.12,0-.24.02-.34.08-.11.04-.2.1-.29.18-.15.15-.27.41-.26.63s.09.47.26.63l.18.14c.14.08.29.12.45.12.08,0,.17-.02.25-.03l-.24.03c.75-.1,1.49-.32,2.21-.57.48-.16.95-.35,1.41-.55.34-.15.69-.32,1-.53.19-.13.38-.26.53-.43.16-.18.33-.41.38-.66.04-.11.04-.23.02-.34,0-.11-.04-.22-.1-.32-.12-.19-.29-.34-.51-.39-.33-.09-.66-.18-.99-.28s-.67-.2-1.01-.28-.68-.16-1.01-.24c-.39-.09-.8-.13-1.2-.17-.09,0-.19-.02-.28-.03s-.19,0-.28.01c-.22.01-.45.06-.68.09l.12-.02c-.08,0-.17.01-.25.06s-.11.1-.16.16l.15-.15s-.03.02-.05.03c-.1.07-.16.15-.17.27s.02.21.1.3h0Z"/>
        <path class="cls-4" d="M109.92,169.14h0s.01-.09.02-.14c-.01.07-.03.14-.04.2-.03.13-.03.26-.04.39,0,.08-.02.15-.02.23s0,.15,0,.23c0,.31-.02.62-.02.94,0,.16,0,.33.04.49.02.09.04.18.06.27.03.12.08.22.16.3.06.1.15.17.25.23.1.07.21.1.33.11.12.03.24.02.36-.02l.21-.09c.13-.08.24-.19.32-.32l.09-.21c.04-.16.04-.32,0-.47,0-.06-.02-.11-.03-.17l.03.24s0-.07-.01-.11c-.01-.12-.02-.19-.04-.28,0-.02-.01-.04-.02-.06-.02-.07-.03-.14-.05-.21-.03-.14-.06-.28-.09-.43s-.05-.28-.08-.43c-.01-.07-.03-.14-.04-.21s-.04-.14-.06-.2c-.01-.04-.03-.08-.04-.11-.03-.09-.06-.18-.11-.26-.04-.07-.09-.13-.13-.19l-.09-.11c-.05-.05-.11-.09-.18-.12-.04-.03-.09-.04-.14-.04-.07-.02-.15-.01-.22,0l-.13.06-.11.09c-.05.05-.09.11-.12.18-.04.07-.05.14-.05.22h0Z"/>
        <path class="cls-4" d="M110.22,175.1h0s-.09.03-.13.05h0c-.1,0-.2,0-.3,0,.02,0,.04.01.06.02l-.28-.16h0s.09.08.13.11c.08.05.16.07.24.08.06.02.12.02.17,0,.09,0,.17-.03.24-.08h0c-.05.02-.1.04-.16.06.06-.02.13-.02.19-.03l-.19.03c.16-.02.32-.05.48-.07l-.21.03c.11-.01.23-.02.33-.05.05-.01.09-.02.14-.04.1-.02.2-.05.3-.07.21-.04.43-.08.64-.11l-.23.03c.22-.03.44-.06.66-.09l-.24.03c.47-.06.96-.11,1.43-.04l-.25-.03c.12.02.25.04.36.09l-.22-.09c.07.03.13.06.18.11l-.19-.15c.07.05.12.11.18.18l-.15-.19c.07.1.13.2.18.31l-.09-.22c.08.18.12.38.15.57l-.03-.25c.03.25.03.5,0,.75l.03-.24c-.03.19-.07.38-.15.56l.09-.22c-.05.11-.1.21-.17.3l.14-.18c-.09.11-.19.22-.31.31l.18-.14c-.14.11-.3.2-.47.27l.21-.09c-.23.1-.47.16-.72.19l.24-.03c-.29.04-.57.04-.86,0l.24.03c-.23-.03-.46-.09-.67-.18l.21.09c-.23-.1-.44-.23-.64-.38l.18.14c-.14-.11-.26-.23-.37-.36l.14.18c-.09-.12-.16-.24-.22-.38l.09.21c-.07-.18-.12-.37-.14-.56l.03.23c-.02-.14-.03-.29-.03-.44,0-.08,0-.15,0-.23,0-.16-.03-.31-.06-.46l-.08-.19c-.05-.09-.12-.17-.21-.23-.05-.05-.11-.08-.18-.1-.1-.05-.2-.07-.31-.07-.14,0-.28.04-.41.11-.18.09-.31.29-.37.48-.04.13-.06.25-.07.39,0,.06,0,.13,0,.19,0,.12,0,.23,0,.35.01.18.03.36.06.53.02.1.04.2.07.3.05.16.12.32.19.47.04.09.1.18.16.26.11.14.22.29.34.41.14.13.29.25.44.36.26.19.54.33.84.44s.59.15.89.19c.24.03.48.03.73,0,.32-.03.64-.08.94-.19.18-.07.36-.14.53-.23s.32-.21.46-.33c.09-.07.17-.15.24-.24.1-.13.21-.26.28-.4s.15-.31.2-.48c.03-.1.06-.2.08-.3.05-.29.09-.58.08-.88,0-.19-.03-.37-.06-.56-.02-.1-.04-.21-.07-.31-.05-.17-.12-.33-.2-.49s-.18-.28-.29-.42-.23-.22-.37-.32-.28-.15-.43-.2c-.06-.02-.13-.04-.2-.05-.16-.02-.32-.05-.48-.05-.49-.02-.99.05-1.47.14-.45.08-.89.21-1.32.37-.16.06-.31.12-.46.19l.19-.08c-.19.07-.22.09-.37.22l.16-.12c-.13.08-.26.17-.38.27-.06.05-.12.11-.18.16l.13-.1h0s-.09.07-.13.11c-.06.06-.11.13-.14.21-.06.13-.08.29-.03.43h0v-.32s0,.04-.01.07l.06-.13h0c.07-.06.13-.13.2-.19h0c-.12.09-.21.19-.25.34-.04.13-.02.31.06.43s.19.22.33.25.3.03.43-.06h0Z"/>
        <path class="cls-4" d="M114.77,181.94s.06-.06.09-.09l-.07.04s.03-.01.05-.02c0,0,.1-.09.04-.04-.04.04,0,.01,0,0,.02-.01.04-.02.06-.04.06-.04.11-.08.16-.12l-.14.08c.13-.03.21-.13.25-.25l-.03.08h0s-.08.07-.12.11c.08-.06.15-.12.22-.19.08-.08.14-.16.2-.25l-.35.27h0s.1-.04.15-.06c.07-.04.13-.09.17-.16.08-.11.13-.23.13-.37,0,0,0,0,0-.01l-.08.31c.04-.09.08-.17.11-.26l-.17.29c.11-.1.17-.24.19-.39,0-.05,0-.07.01-.11l-.02.18c.02-.1.03-.21.04-.31l-.21.5c.09-.09.15-.2.19-.32.04-.14.03-.24,0-.38,0-.01,0-.02,0-.03,0-.02-.01-.05-.02-.07-.01-.05-.03-.09-.04-.13-.06-.14-.11-.29-.2-.41s-.18-.26-.29-.37-.24-.22-.38-.31c-.23-.16-.49-.28-.75-.38-.21-.08-.43-.14-.66-.19-.3-.05-.6-.09-.9-.09s-.61.04-.9.09-.56.16-.82.28c-.25.12-.48.28-.68.47-.47.45-.72,1.09-.71,1.73,0,.2.03.41.07.61.03.15.07.3.12.44.07.2.16.4.27.58s.23.34.37.5.29.27.45.39c.1.07.2.14.31.2.29.15.59.26.91.32s.66.09.99.06.66-.08.98-.19c.19-.06.37-.14.55-.22.11-.05.22-.11.33-.18.16-.1.32-.22.46-.35.09-.07.17-.15.25-.24.12-.14.24-.29.34-.45s.17-.33.23-.5c.04-.1.06-.21.08-.32.02-.14.04-.27.04-.4s-.03-.27-.04-.4c-.03-.19-.09-.36-.17-.54l.09.2c-.03-.1-.08-.19-.12-.28-.01-.03-.03-.06-.04-.09-.06-.12-.14-.23-.23-.33-.05-.05-.1-.1-.15-.14-.03-.03-.06-.05-.09-.07-.01-.01-.03-.02-.04-.04,0,0-.02-.01-.03-.02l-.14-.11c-.06-.03-.12-.05-.18-.07l.42.32h0c-.04-.09-.1-.16-.18-.21-.07-.06-.15-.1-.24-.13-.17-.05-.39-.03-.54.07s-.28.24-.32.42l-.03.19c0,.13.03.24.1.35h0c-.03-.11-.06-.23-.1-.34,0,.1.01.17.05.25,0,.02.01.04.02.06.01.04.03.08.04.13.02.08.04.16.07.24.05.15.1.3.12.45l-.03-.23c.02.14.02.28,0,.42l.03-.24c-.01.1-.03.2-.04.31l.03-.24c-.02.13-.06.27-.11.39l.09-.21c-.06.14-.14.27-.23.39l.14-.18c-.12.15-.26.29-.41.41l.18-.14c-.2.15-.42.28-.65.37l.21-.09c-.27.11-.55.19-.84.23l.23-.03c-.27.04-.54.04-.8,0l.23.03c-.22-.03-.43-.09-.63-.17l.21.09c-.17-.07-.32-.16-.46-.27l.18.14c-.14-.11-.26-.23-.37-.37l.14.18c-.11-.15-.21-.31-.28-.48l.09.21c-.09-.21-.15-.44-.18-.67l.03.23c-.02-.17-.03-.34,0-.51l-.03.23c.01-.1.03-.2.04-.29l-.03.23c.02-.12.05-.23.1-.35l-.09.21c.05-.12.11-.23.19-.33l-.13.17c.09-.11.18-.21.29-.29l-.17.13c.15-.11.31-.2.48-.27l-.2.08c.25-.1.51-.17.78-.21l-.22.03c.33-.04.67-.04,1.01,0l-.21-.03c.3.04.59.11.87.23l-.19-.08c.18.07.34.17.5.28l-.16-.12c.08.06.17.13.25.19l-.16-.12c.11.08.2.17.28.28l-.12-.15c.07.09.13.18.17.29l-.07-.17s.02.05.03.07c0,.01,0,.03.01.04.08.25.25.42.5.51l-.42-.33s.03.06.05.1l-.07-.16s0,.02,0,.03l-.02-.18s0,0,0,.01c0,.09.02.18.06.26.06.14.15.24.28.32l-.24-.24s.03.05.04.08l-.06-.15s0,.02.01.03l-.02-.16s0,0,0,.01c0,.2.12.44.3.53h0c-.07-.07-.14-.14-.21-.21.03.05.05.1.08.15l-.05-.11c.03.06.05.13.07.2v-.18c-.01.05-.02.1-.01.15.01.08.05.14.1.2l-.08-.14s0,.04.01.06c0,0,0,.02,0,.03,0,.05,0-.05,0-.02,0,.02,0,.04,0,.07s0,.06.01,0c.02-.07,0,.02-.01.03,0,.02,0,.05,0,.07v-.08s-.02.09-.03.13c-.03.12.12.2.21.12h0Z"/>
      </g>
    </g>
  </g>
  <g>
    <g>
      <g>
        <path class="cls-1" d="M110.15,210.04c0,1.57-.25,2.76-.68,3.64-1.43,3.09-4.83,2.72-6.46,3.01-1.86.33-4.24.54-6.24.11-.91,1.61-2.85,3.09-4.11,4.35-1.42,1.42-3.02,2.76-4.71,3.84-1.29.83-3.07,1.26-4.63,1.05-1.1-.14-3.02-.57-4.2-1.35-2.77,1.39-5.92,1.8-7.29-1.1-2.39.55-4.94-.11-5.79-2.61-1.76.68-3.68.55-5.15-.94-1.5-1.54-1.51-4.25-.8-6.36h5.76c.93-.94,1.86-1.91,2.79-2.9,1.04-1.12,2.11-2.24,3.16-3.35.76-.82,1.37-1.78,2-2.71-3.67-1.81-9.62,1.2-12.91-2.6-1.09-1.26-.6-3.18.71-4.05,1.59-1.07,3.73-.46,5.48-.44,2.98.02,5.45-1.57,8.33-.88,2.41.58,5.07-.11,7.42.44,1.17.25,2.3.83,3.45,1.39,3.62-1.95,7.43-2.38,11.76-3.26,1.35-.27,2.72-.47,4.09-.74.82-.14,2.03-.71,2.87-.39.9.33,1.56,1.2,2.09,2.25.74,1.5,1.2,3.37,1.54,4.49.91,2.94,1.48,6.03,1.51,9.13Z"/>
        <g class="cls-13">
          <path class="cls-3" d="M98.15,215.55c.06-.05.14-.09.18-.15.06-.08-.07.02-.01,0,.05-.02.1-.03.15-.06.22-.13.35-.36.44-.59s.16-.49.2-.74c.05-.35.05-.65-.02-.99-.05-.27-.13-.53-.22-.79-.24-.69-.52-1.36-.86-2-.31-.57-.67-1.11-1.05-1.64-.86-1.19-1.8-2.32-2.76-3.44s-1.86-2.09-2.91-3.01c-.57-.49-1.16-.95-1.73-1.44s-1.03-1.03-1.58-1.5c-.21-.18-.5-.22-.72-.04s-.26.45-.14.71c.27.6.75,1.08,1.21,1.54s.94.9,1.41,1.33.95.85,1.39,1.3c.5.51.98,1.04,1.45,1.58s.92,1.1,1.37,1.66c.22.28.45.57.67.85.05.07.11.14.16.21.03.04.13.17.05.06.11.14.22.29.33.44.77,1.03,1.44,2.12,1.96,3.31.04.1.09.2.13.31-.06-.15.03.08.05.12.06.15.12.3.17.45.04.13.08.26.12.4.01.05,0,.15.04.19v-.06c-.02-.12-.02-.07.01.15,0,.03.01.06.02.09,0,.03,0,.07.01.09-.01-.03-.02-.16-.01-.06,0,.06,0,.13,0,.19,0,.15,0,.29-.02.43,0,.08,0-.03,0-.04-.01.09-.03.17-.03.26,0,.1.01.23.04.33.02.05.04.11.06.16.03.04.06.08.1.12.02.02.01.01-.02-.03-.06-.05-.03-.03-.02.04,0,.06.02.12.03.18.03.17.24.18.35.09h0Z"/>
          <path class="cls-3" d="M74.99,201.38s-.1-.02-.14-.02l.13.02c-.09-.01-.12-.02-.2,0-.03,0-.06,0-.09.02-.02,0-.05,0-.07.01l.15-.02c-.22-.02-.38.13-.53.26-.06.05-.12.1-.18.15-.06.05-.11.09-.16.14-.05.06-.1.12-.15.18-.19.23-.39.47-.58.7-.13.16-.27.32-.4.49-.09.12-.18.24-.27.37s-.18.24-.27.37c-.04.06-.09.12-.13.18-.05.06-.09.13-.13.2-.08.15-.17.29-.24.44-.05.11-.12.23-.14.35,0,.04-.02.08-.02.11-.02.09-.02.14,0,.22,0,.08.02.15.06.21.03.05.06.09.11.12.04.04.09.06.14.07.07.02.15.02.22,0,.03,0,.06,0,.08-.02.06-.02.13-.06.19-.09.08-.04.12-.07.19-.13.03-.03.06-.05.1-.08.11-.1.22-.2.33-.3.05-.05.11-.1.16-.15.06-.05.1-.12.15-.18.1-.12.19-.23.29-.35s.19-.24.29-.35c.13-.16.26-.33.39-.5.18-.24.36-.49.54-.73.05-.07.1-.14.15-.2.02-.03.05-.07.07-.1s.04-.07.06-.11c.04-.08.07-.15.11-.23.09-.19.22-.4.13-.62l.02.15s0-.05,0-.07c0,0,0-.02,0-.03,0-.1-.03-.16-.07-.25l.05.11s-.03-.09-.05-.13c-.05-.09-.16-.19-.26-.2h0Z"/>
          <path class="cls-3" d="M64.8,222.63h.01s-.06-.02-.1-.04c.09.04.19.08.28.12l-.13-.05c.1.06.19.07.3.08l-.15-.02s.1.02.15.03c.02,0,.05,0,.07.01.01,0,.02,0,.03,0l.18.02c.07,0,.13-.02.19-.03l-.18.02c.17-.02.34-.04.5-.07l-.19.03c.09-.01.18-.02.27-.05.03-.01.06-.02.09-.03.07-.02.14-.05.2-.07.18-.07.37-.15.55-.22.25-.11.5-.24.73-.38.3-.17.57-.38.83-.6.1-.09.2-.18.3-.27s.21-.2.3-.3.17-.21.25-.32c.04-.06.1-.13.13-.19s.07-.14.1-.21c.03-.08.07-.16.1-.24.03-.09.02-.16.01-.24,0-.1-.02-.19-.07-.27-.03-.06-.08-.11-.14-.15-.14-.11-.3-.14-.47-.1-.02,0-.05.01-.07.02-.13.03-.22.11-.31.19-.05.04-.1.08-.15.12l.13-.1c-.09.07-.18.13-.25.2-.04.04-.09.08-.13.12-.09.08-.18.15-.26.23-.17.16-.34.31-.53.45l.15-.12c-.14.11-.29.21-.44.31s-.29.2-.44.29c-.3.18-.61.34-.93.48l.18-.07c-.16.07-.33.12-.48.19-.1.05-.2.1-.3.15l.16-.07s-.06.03-.1.04c-.08.03-.16.07-.22.14,0,0-.02.02-.03.02-.02.02-.04.03-.06.05l.12-.1s-.06.04-.09.07c-.01,0-.02.02-.04.03-.1.07-.15.11-.22.21l.08-.11s-.08.09-.13.14l.08-.06h-.01c-.06.05-.11.09-.14.15-.05.08-.06.17-.05.25.02.16.13.29.29.33h0Z"/>
          <path class="cls-3" d="M70.64,225.17c.12.07.24.12.38.16l-.12-.05h.01c-.08-.09-.15-.19-.23-.29.02.1.08.19.15.27.06.06.12.1.19.13.06.03.12.06.19.08.07.02.14.03.22.03.04,0,.08,0,.12,0,.22,0,.42-.04.63-.1.34-.11.68-.25,1-.42.13-.07.27-.15.39-.23.18-.12.34-.26.51-.39.24-.19.47-.4.69-.61.26-.24.51-.49.76-.73.13-.13.21-.33.21-.51s-.08-.39-.21-.51-.32-.22-.51-.21l-.19.03c-.12.03-.23.1-.32.19-.46.36-.89.76-1.36,1.11l.16-.12c-.12.1-.25.19-.38.28s-.25.18-.38.27c-.26.17-.53.33-.81.45l.18-.08c-.21.09-.44.15-.65.25-.04.02-.07.04-.11.05-.09.04-.16.08-.23.15-.04.04-.08.09-.12.13-.08.11-.13.24-.13.37l.15-.35h0s.07-.04.1-.07c-.04.02-.09.05-.14.07s-.08.06-.13.08c-.1.07-.17.17-.17.29s.07.23.17.29h0Z"/>
          <path class="cls-3" d="M78.71,226.57c.23-.11.46-.21.69-.32l-.16.07c.07-.03.14-.05.21-.09.02-.01.04-.02.06-.04.04-.02.08-.05.12-.07.07-.05.15-.09.22-.14.19-.15.38-.29.56-.44.29-.22.57-.45.85-.69.16-.14.31-.29.46-.44.07-.07.12-.15.16-.24.05-.09.07-.19.06-.29,0-.1-.02-.2-.06-.29-.03-.09-.08-.17-.16-.24l-.15-.12c-.12-.07-.24-.1-.38-.1l-.2.03c-.13.04-.24.1-.33.19-.18.16-.36.31-.53.47s-.34.31-.51.46-.34.3-.52.45c-.04.04-.09.07-.13.11s-.08.08-.12.12c-.1.1-.2.2-.28.31-.17.22-.33.44-.49.66l-.05.11c-.02.06-.02.12,0,.19,0,.04.01.08.03.12.02.06.05.11.1.15.06.05.13.1.21.12.06.02.12.02.19,0,.06,0,.12-.02.17-.06h0Z"/>
          <path class="cls-3" d="M66.79,211.03s-.08.02-.12.04l.13-.02s-.11,0-.14.02c-.04.01-.09.04-.13.05-.02,0-.04.02-.06.03-.04.02-.08.04-.12.06-.08.04-.15.09-.22.14-.1.06-.19.12-.28.19-.09.07-.17.16-.26.25-.12.13-.25.26-.36.4s-.23.28-.35.43c-.46.57-.93,1.14-1.41,1.69-.13.15-.27.3-.4.45-.07.08-.14.15-.22.23s-.15.14-.22.22c-.14.15-.23.34-.23.55,0,.11.02.21.07.3.03.1.08.18.16.25.15.14.34.24.55.23l.21-.03c.13-.04.24-.1.34-.2.14-.11.27-.24.39-.37s.25-.26.38-.39c.25-.27.48-.54.71-.83s.45-.57.67-.86c.26-.33.52-.66.77-1,.06-.08.12-.16.18-.24.03-.04.06-.08.09-.12s.04-.09.06-.13c.04-.09.08-.18.13-.27.06-.13.11-.26.15-.39l-.05.12c.05-.1.07-.17.08-.28l-.02.13s.02-.09.03-.13c.03-.14,0-.29-.1-.39s-.26-.15-.39-.1h0Z"/>
          <path class="cls-3" d="M90.31,202.66c0,.22.02.43.07.65.04.2.09.4.13.59.09.39.17.78.29,1.17.24.77.49,1.54.78,2.3.3.8.61,1.6.96,2.38.33.73.7,1.45,1.1,2.14.22.39.45.77.71,1.13.16.22.32.44.49.65.07.09.13.17.2.25.13.16.28.24.48.31.37.13.79-.22.78-.59,0-.18-.04-.34-.13-.5-.05-.09-.11-.18-.17-.28-.1-.17-.2-.33-.29-.5-.2-.35-.4-.7-.6-1.06-.38-.71-.73-1.43-1.05-2.17-.19-.43-.38-.86-.56-1.29l.08.19c-.2-.47-.39-.94-.57-1.42-.09-.24-.18-.48-.27-.71-.04-.11-.09-.21-.13-.32.1.23,0,.02-.01-.03-.05-.12-.1-.24-.15-.35-.21-.51-.42-1.02-.67-1.51-.11-.22-.23-.44-.34-.66-.06-.11-.11-.22-.18-.32-.08-.12-.17-.23-.26-.34-.1-.12-.31-.14-.44-.08-.14.06-.25.2-.25.37h0Z"/>
          <path class="cls-3" d="M79.2,213.65c-.1.04-.16.11-.16.21,0,.07.03.13.08.18s.1.09.15.13l-.06-.05s.01.01.02.02l-.09-.22v.03s.01.09.02.13c.02.06.04.12.09.17.06.08.15.15.26.18.08.02.16.05.24.07.09.03.2.04.29.05.22.04.44.07.66.1.29.04.58.08.87.12.11.01.22.03.33.04.1.01.2.01.31.01s.2,0,.3,0,.21,0,.3-.03c.02,0,.03-.01.05-.02,0,0,.02,0,.02,0,.03-.01.05-.02.09-.04.12-.05.09-.03.22-.14.08-.08.14-.18.17-.29.03-.09.03-.17.01-.26,0-.09-.03-.17-.08-.24-.06-.1-.14-.18-.24-.24-.02-.02-.1-.04-.09-.04-.05-.02-.05-.03-.09-.04,0,0-.01,0-.02,0-.02,0-.03,0-.05-.01-.09-.03-.19-.03-.29-.03-.08,0-.17,0-.25-.01-.1,0-.2-.02-.3-.02-.11,0-.22,0-.33.01-.46.01-.92.02-1.39.02-.11,0-.23,0-.34,0-.1,0-.19.02-.29.02l-.13.02c-.06.02-.12.04-.17.09-.08.06-.15.15-.18.26v.02c.04-.06.09-.12.14-.19,0,0-.01,0-.02,0l.07-.03s-.05.02-.08.03l.07-.03s-.07.02-.1.03c-.03,0,.08,0,.04,0,0,0,0,0-.01,0,0,0,.07.01.05,0,.03.01.06.03.09.05.05.05.07.12.05.2.01-.08,0-.15-.05-.2-.05-.05-.14-.08-.2-.05h0Z"/>
        </g>
      </g>
      <g>
        <path class="cls-6" d="M167.54,186.44c-.46,1.42-.93,2.83-1.37,4.24-.82,2.63-1.68,5.26-2.68,7.78-1.31,3.29-2.41,7.73-5.05,10.25-1.26,1.2-3.43,1.32-5.07,1.62-2.24.41-4.57.52-6.83.72-5.72.52-11.51,1.07-17.26,1.46-4.58.31-9.18.6-13.76.82-1.95.11-4.02.3-6.05.35.43-.88.68-2.06.68-3.64-.03-3.1-.6-6.19-1.51-9.13-.35-1.12-.8-2.99-1.54-4.49,1.15-.3,2.24-.65,3.02-.85,3.45-.88,6.87-1.72,10.31-2.6,4.14-1.05,8.38-1.86,12.5-2.9,1.89-.47,4.42-1.31,6.76-1.4.43-1.24.9-2.47,1.35-3.68.96-2.54,1.81-5.13,2.68-7.7,1.13,1.01,2.71,1.79,3.84,2.3,6.49,2.9,13.24,4.83,19.98,6.85Z"/>
        <g class="cls-16">
          <path class="cls-3" d="M157.97,203.49h0s.08.03.13.05c0,0-.02,0-.03-.01-.05-.02-.11-.05-.16-.07-.02,0-.14-.02-.16-.02,0,0-.01,0-.02,0-.04,0-.08,0-.12,0-.02,0-.04,0-.06,0,0,0-.02,0-.03,0h-.09c-.06.01-.12.03-.18.06-.04.01-.07.03-.11.05-.04.02-.09.04-.13.06-.09.04-.18.08-.28.12s-.18.1-.27.15c-.18.1-.37.2-.54.3s-.35.2-.53.3c-.1.05-.19.1-.29.14-.14.07-.26.16-.39.26l.13-.1c-.06.04-.13.09-.18.14-.05.05-.09.11-.12.17-.04.07-.07.14-.07.23-.02.08-.01.16.01.24l.06.14c.05.09.13.16.22.22,0,0,.01,0,.02,0,.05.02.11.05.17.07.02,0,.15.02.18.02,0,0,.01,0,.02,0,.01,0,.02,0,.03,0,.11,0,.21-.02.31-.03.05,0,.09-.02.14-.03s.09-.03.14-.05c.25-.1.5-.2.74-.32.1-.05.2-.09.3-.14s.19-.11.29-.16.19-.11.28-.16.18-.12.27-.18c.05-.03.09-.07.14-.1.02-.02.05-.03.07-.05.06-.04.12-.08.16-.13.04-.04.09-.11.12-.15,0,0,0-.01.01-.02.03-.04.05-.08.08-.11,0,0,.01-.02.02-.03.02-.03,0-.02.04-.08.01-.03.03-.06.03-.09,0-.02,0-.04,0-.06.03-.13.02-.28-.05-.4l-.08-.1c-.06-.06-.14-.11-.23-.13h0Z"/>
        </g>
      </g>
      <g>
        <path class="cls-5" d="M183.44,147.75c-1.01,4.09-.94,8.27-1.75,12.39-.54,2.77-1.83,5.46-2.88,8.06-.65,1.59-1.31,3.29-2.06,4.9-.02.38-.05.74-.09,1.1-.33,2.93-.82,5.86-1.21,8.77-.16,1.26-.19,3.87-1.34,4.61-1.04.68-3.37-.2-4.41-.5-.72-.22-1.43-.43-2.16-.65-6.74-2.02-13.49-3.95-19.98-6.85-1.13-.5-2.71-1.29-3.84-2.3-.58-.54-1.04-1.12-1.26-1.78-.46-1.34.41-2.65.74-3.89.63-2.27.72-4.77,1.15-7.09.69-3.73,2.46-7.09,3.86-10.66,1.23-3.15,2.24-6.63,3.01-9.97,1.07-4.72,2.02-9.7,4.98-13.68,2.9-3.87,7.51-6.8,12.38-7.27,5.26-.52,10.52,1.7,13.9,5.76,4.55,5.48,2.5,12.83.98,19.04Z"/>
        <g class="cls-15">
          <path class="cls-3" d="M151.75,164.46c.25.22.48.43.76.6.3.18.6.38.91.55.58.32,1.14.67,1.7,1.02s1.16.67,1.73,1.01,1.15.69,1.72,1.03c2.29,1.38,4.67,2.56,7.1,3.66.69.31,1.38.62,2.06.94s1.42.71,2.15,1c.33.13.72-.12.84-.41.14-.33.01-.7-.29-.89-.56-.36-1.19-.63-1.79-.92s-1.2-.58-1.81-.87c-1.21-.58-2.43-1.16-3.62-1.79-2.35-1.24-4.6-2.66-6.94-3.92-.69-.37-1.41-.67-2.13-.96-.35-.15-.7-.27-1.07-.38s-.73-.15-1.12-.17c-.25-.01-.4.34-.21.5h0Z"/>
          <path class="cls-3" d="M164.64,143.73h.02s-.08-.05-.11-.08c.24.23.56.25.87.22.24-.02.47-.05.7-.11.37-.1.74-.23,1.1-.38.79-.33,1.54-.72,2.29-1.11.38-.19.76-.38,1.15-.55l-.18.08c.42-.18.87-.34,1.33-.4l-.21.03c.06,0,.11-.01.17-.02.21-.02.41-.07.57-.23.05-.05.1-.12.14-.19.13-.19.14-.53,0-.72-.1-.13-.15-.22-.3-.31s-.3-.11-.46-.1c-.14,0-.28.03-.41.05-.15.02-.3.06-.45.1-.38.11-.75.28-1.11.45-.71.33-1.38.73-2.07,1.1-.4.21-.81.42-1.23.6l.17-.07c-.27.12-.55.22-.84.3-.13.04-.27.08-.4.12-.07.02-.14.04-.2.05-.03,0-.07.01-.1.02-.09.02-.16.05-.24.09l.15-.06c-.15.06-.3.11-.41.23l.11-.09h-.02c-.17.12-.27.29-.27.49,0,.19.1.38.27.48h0Z"/>
        </g>
      </g>
    </g>
    <g>
      <path class="cls-3" d="M167.95,187.04c.67.39,1.34.76,2.07,1.03.81.3,1.65.55,2.53.56s1.74-.24,2.36-.88.94-1.51,1.13-2.35.27-1.62.42-2.43c.23-1.19.43-2.38.59-3.58.03-.26.04-.52.05-.78.01-.31.09-.63.13-.94.08-.57.15-1.13.15-1.71,0-1.07-.11-2.12.22-3.16s.82-1.91,1.28-2.85c.49-1,.9-2.03,1.27-3.08.76-2.13,1.31-4.33,1.74-6.55s.73-4.52,1.07-6.78.86-4.71,1.31-7.06c.22-1.18.44-2.36.61-3.55.09-.6.16-1.21.23-1.82.03-.25.06-.49.09-.74.02-.12.03-.24.05-.35,0-.01.02-.14,0-.04.01-.08.02-.15.03-.23.26-1.9.53-3.87.23-5.79-.09-.56-.21-1.08-.41-1.61-.1-.26-.32-.45-.61-.4-.27.04-.48.27-.49.55,0,1.05.14,2.08.16,3.13.02.87-.04,1.74-.13,2.61-.22,2.06-.47,4.12-.81,6.16-.39,2.32-.87,4.62-1.27,6.93s-.62,4.51-.99,6.75-.8,4.37-1.41,6.5c-.31,1.07-.66,2.12-1.06,3.15-.37.96-.84,1.88-1.29,2.82s-.89,1.94-1.01,3,.06,2.19-.08,3.28c-.07.54-.12,1.1-.25,1.62-.15.56-.25,1.12-.36,1.68-.21,1.01-.43,2.02-.6,3.04-.14.81-.26,1.62-.5,2.41-.03.11-.07.21-.11.32-.02.05-.11.26-.04.12-.08.18-.18.35-.28.51-.02.04-.11.14,0,.01-.02.03-.05.06-.07.09-.06.07-.12.13-.19.19-.02.02-.12.09-.04.03.09-.07-.06.04-.07.04-.08.05-.17.09-.25.14.02-.01.15-.06.02,0-.08.03-.15.07-.23.1.18-.06-.12.02-.16.03-.08.02-.16.03-.23.05-.13.03-.02,0,0,0-.06,0-.12.01-.19.02-.4.03-.8,0-1.2-.04-.04,0-.09,0-.13-.02-.13-.02.15.02-.07,0-.09-.01-.18-.03-.27-.04-.22-.04-.45-.08-.67-.13-.38-.08-.75-.14-1.15-.21-.34-.06-.67-.09-1.01-.1-.2,0-.26.27-.1.37h0Z"/>
      <path class="cls-3" d="M154.74,132.4c-.11.05-.25.08-.35.14-.14.08-.25.27-.35.39-.21.25-.37.61-.51.9-.3.63-.53,1.3-.75,1.96-.44,1.32-.76,2.68-1.08,4.04-.72,3.05-1.61,6.03-2.54,9.02-.49,1.56-.93,3.14-1.45,4.69s-1.09,3.08-1.7,4.6-1.31,2.92-1.71,4.46-.55,3.07-.75,4.62c-.09.73-.2,1.47-.35,2.2s-.36,1.42-.58,2.11c-.45,1.41-.88,2.84-.56,4.33.08.38.24.75.41,1.1.26.52,1.06.15.92-.39-.37-1.39-.09-2.66.32-4,.21-.68.44-1.35.62-2.03.19-.73.32-1.47.43-2.22.22-1.51.34-3.01.65-4.5.15-.74.35-1.48.62-2.19.28-.75.61-1.47.91-2.21.61-1.48,1.18-2.98,1.71-4.49s.99-3.08,1.46-4.63c.93-3.02,1.92-6.02,2.62-9.11.3-1.32.59-2.65.94-3.96.18-.67.35-1.33.56-1.99.1-.31.21-.62.32-.93s.25-.64.32-.96c.03-.13.08-.28.1-.41.02-.14-.04-.29-.06-.43-.01-.1-.09-.15-.19-.11h0Z"/>
    </g>
  </g>
</svg>