<?xml version="1.0" encoding="UTF-8"?>
<svg id="Layer_1" data-name="Layer 1" xmlns="http://www.w3.org/2000/svg" xmlns:xlink="http://www.w3.org/1999/xlink" viewBox="0 0 500 500">
  <defs>
    <style>
      .cls-1 {
        fill: #a07a59;
      }

      .cls-2 {
        fill: #e3ba8e;
      }

      .cls-3 {
        fill: #031163;
      }

      .cls-4 {
        clip-path: url(#clippath);
      }
    </style>
    <clipPath id="clippath">
      <path class="cls-2" d="M419.68,263.51c.11,12.72-4.76,25.22-12.8,35.39-6.63,8.42-19.09,20.61-31.6,19.07-2.44,12.98-5.78,21.88-10.08,33.69-11.61,31.74-43.55,51.23-71.42,66.92-14.05,7.89-26.56,10.44-42.48,10.91-15.91-.58-28.43-3.18-42.53-11.18-19.65-11.13-39.53-23.1-54.54-39.63-15.74-17.43-21.24-36.5-26.73-58.54-12.91,3.07-26.33-9.48-33.47-18.07-8.33-9.96-13.48-22.36-13.71-35.02-.28-18.44,13.03-44.13,33.02-34.28-1.59-21.88-3.57-50.02,1.02-71.85.62-2.91,1.3-5.78,2.21-8.58,25.83-84.03,164.07-108.83,228.01-48.59,32.56,30.68,38.17,81.76,38.06,123.03,0,1.64,0,3.34-.06,5.03,21.46-14.78,36.93,12.29,37.1,31.68Z"/>
    </clipPath>
  </defs>
  <g>
    <path class="cls-2" d="M419.68,263.51c.11,12.72-4.76,25.22-12.8,35.39-6.63,8.42-19.09,20.61-31.6,19.07-2.44,12.98-5.78,21.88-10.08,33.69-11.61,31.74-43.55,51.23-71.42,66.92-14.05,7.89-26.56,10.44-42.48,10.91-15.91-.58-28.43-3.18-42.53-11.18-19.65-11.13-39.53-23.1-54.54-39.63-15.74-17.43-21.24-36.5-26.73-58.54-12.91,3.07-26.33-9.48-33.47-18.07-8.33-9.96-13.48-22.36-13.71-35.02-.28-18.44,13.03-44.13,33.02-34.28-1.59-21.88-3.57-50.02,1.02-71.85.62-2.91,1.3-5.78,2.21-8.58,25.83-84.03,164.07-108.83,228.01-48.59,32.56,30.68,38.17,81.76,38.06,123.03,0,1.64,0,3.34-.06,5.03,21.46-14.78,36.93,12.29,37.1,31.68Z"/>
    <g class="cls-4">
      <ellipse class="cls-3" cx="198.79" cy="259.47" rx="13.7" ry="14.17"/>
      <ellipse class="cls-3" cx="307.11" cy="259.47" rx="13.7" ry="14.17"/>
      <path class="cls-3" d="M260.45,248.59c-.06.44-.13.87-.18,1.31s-.09.86-.14,1.29-.1.87-.15,1.31c-.03.21-.05.41-.08.62-.03.26-.06.51-.09.73-.05.43-.11.87-.16,1.3-.03.21-.05.42-.07.62-.01.11-.03.23-.04.34,0,0-.02.19,0,.07-.01.11-.03.22-.03.33-.07.89-.14,1.78-.18,2.68-.14,3.41.09,6.96,1.51,10.11.54,1.19,1.28,2.29,2.19,3.23.85.88,1.85,1.61,2.9,2.22,2.21,1.29,4.66,2.11,7.02,3.08.15.06.3.12.45.19.04.02.15.07-.03-.01.04.02.08.03.12.05.09.04.18.08.28.12.31.13.61.27.91.41.67.31,1.32.64,1.95,1.02.31.19.62.39.92.6.13.09.27.19.4.29.03.03.07.06.11.08-.16-.1-.04-.03,0,0,.07.05.14.11.2.16.51.42.99.87,1.43,1.37.11.12.21.25.32.37.04.05.09.1.13.16.03.03.05.06.07.09-.15-.17-.02-.02.01.02.18.24.36.49.52.75.33.52.61,1.07.86,1.64.04.09-.07-.17-.02-.04.01.04.03.07.04.11.03.07.06.14.08.22.05.14.11.29.16.44.1.29.18.59.26.89s.13.58.18.88c.01.08.03.15.04.23,0,.05.04.3,0,.04.02.17.04.34.06.51.06.63.07,1.26.04,1.88-.01.31-.04.63-.07.94,0,.08-.02.17-.03.25,0,.04-.01.08-.02.12-.01.12,0-.06,0-.07-.03.18-.05.36-.08.54-.23,1.36-.63,2.69-1.14,3.97-.03.07-.06.14-.09.21,0,.01-.04.13-.05.13l.04-.08s-.02.06-.04.09c-.07.17-.15.34-.23.51-.16.36-.34.71-.51,1.06-.38.74-.79,1.47-1.22,2.19s-.89,1.41-1.38,2.09c-.24.33-.48.66-.73.98-.11.14.09-.12-.02.02-.03.04-.07.08-.1.13-.07.08-.13.17-.2.25-.13.17-.27.33-.4.49-1.06,1.27-2.22,2.47-3.47,3.55-.27.23-.54.46-.82.69-.04.03-.1.08.06-.05-.03.02-.06.04-.08.06-.06.04-.11.09-.17.13-.12.09-.24.17-.35.26-.48.34-.98.66-1.47.99-1.99,1.32-4.26,2.87-4.88,5.33-.16.64-.19,1.28-.16,1.93.01.31.26.6.59.59.31-.01.61-.26.59-.59,0-.17,0-.33.01-.5,0-.07,0-.13.02-.2,0-.04,0-.08.01-.12,0-.07,0-.05,0,.05,0-.03,0-.05.01-.08.05-.29.12-.57.21-.84.02-.07.05-.14.08-.21.01-.03.03-.07.04-.1-.07.19-.03.07,0,.02.06-.13.12-.26.19-.39.13-.25.28-.49.45-.72.03-.04.18-.22.04-.05.05-.05.09-.11.14-.17.09-.11.19-.22.29-.33.2-.21.41-.41.62-.6.11-.1.22-.19.33-.28.05-.04.1-.08.15-.12s.29-.22.1-.08c.25-.18.49-.36.74-.54.97-.68,1.98-1.3,2.94-2,1.25-.91,2.39-1.98,3.46-3.1,2.32-2.45,4.28-5.25,5.79-8.26,1.28-2.54,2.17-5.32,2.27-8.18.09-2.56-.5-5.15-1.85-7.33-1.51-2.42-3.81-4.17-6.36-5.37-1.25-.59-2.54-1.11-3.83-1.61-.6-.23-1.19-.47-1.79-.71-.14-.06-.27-.11-.41-.17-.07-.03-.15-.06-.22-.09-.14-.06.16.07.02,0-.05-.02-.1-.04-.15-.06-.28-.12-.55-.24-.83-.37-1.08-.5-2.14-1.06-3.1-1.76-.06-.04-.12-.09-.18-.13-.03-.02-.06-.05-.09-.07.16.11.09.07.05.04-.13-.1-.25-.2-.38-.31-.22-.19-.43-.38-.64-.58-.22-.21-.42-.44-.62-.67-.09-.11-.18-.22-.27-.33.15.17-.02-.03-.06-.08-.05-.06-.09-.13-.14-.19-.37-.53-.7-1.1-.98-1.68-.07-.15-.14-.31-.21-.46-.04-.09.07.16,0,.02-.02-.04-.03-.08-.05-.13-.04-.1-.08-.2-.12-.3-.13-.34-.24-.69-.35-1.05-.24-.83-.42-1.67-.55-2.53,0-.05-.02-.11-.02-.16,0-.02-.03-.21,0-.05-.01-.1-.03-.2-.04-.3-.03-.23-.05-.46-.07-.69-.04-.43-.07-.86-.09-1.29-.09-1.78-.03-3.56.09-5.33.06-.89.09-1.78.14-2.66s.1-1.75.14-2.62c.02-.42.04-.84.05-1.26s-.01-.83-.04-1.24c0-.13-.09-.24-.22-.25-.11-.01-.26.06-.28.18h0Z"/>
      <path class="cls-3" d="M285.06,339.4c-.49.99-.98,1.97-1.53,2.93s-1.11,1.86-1.76,2.73c-.08.1-.15.21-.23.31-.02.02-.03.05-.05.07.07-.09,0-.01,0,.01-.05.06-.1.12-.15.18-.16.21-.33.41-.5.61-.34.4-.7.8-1.07,1.18-.73.77-1.5,1.5-2.32,2.17-.2.17-.41.33-.61.49-.03.02-.05.04-.08.07.01,0,.11-.09.03-.02-.05.04-.1.08-.15.12-.11.08-.21.16-.32.24-.43.31-.86.62-1.3.91-.89.59-1.8,1.13-2.75,1.62-.47.25-.95.48-1.43.7-.24.11-.48.22-.72.32-.06.03-.12.05-.18.08-.1.04.03,0,.04-.02-.03.02-.07.03-.1.04-.12.05-.25.1-.38.15-.99.4-2,.75-3.02,1.06s-2.05.56-3.1.78c-.52.11-1.04.2-1.56.28-.26.04-.51.08-.77.12-.03,0-.07,0-.1.01-.1.01.18-.02.03,0-.06,0-.11.01-.17.02-.14.02-.28.03-.42.05-2.2.25-4.42.3-6.62.14-.58-.04-1.16-.1-1.73-.17-.03,0-.06,0-.09-.01-.01,0-.17-.02-.05,0s-.04,0-.05,0c-.03,0-.06,0-.09-.01-.15-.02-.31-.04-.46-.07-.28-.04-.56-.09-.84-.14-1.11-.21-2.22-.47-3.3-.8-.55-.16-1.09-.34-1.63-.54-.26-.09-.52-.19-.78-.29-.13-.05-.25-.1-.37-.15-.06-.03-.12-.05-.19-.08-.03-.01-.06-.02-.08-.03-.08-.03-.1-.04,0,0-.26-.09-.52-.23-.78-.34s-.51-.24-.77-.36c-.5-.24-.99-.5-1.47-.77-.98-.55-1.94-1.14-2.86-1.79-.24-.16-.47-.33-.7-.5-.11-.08-.22-.16-.33-.24-.05-.04-.1-.07-.15-.11-.03-.02-.06-.05-.09-.07-.02-.01-.14-.11-.06-.05.09.07-.03-.03-.04-.03-.02-.02-.05-.04-.07-.06-.05-.04-.11-.08-.16-.13-.11-.09-.23-.18-.34-.27-.23-.18-.45-.37-.67-.56-1.79-1.52-3.46-3.18-5.01-4.94-.19-.22-.38-.44-.57-.66-.09-.11-.19-.22-.28-.33-.05-.06-.09-.11-.14-.17-.02-.03-.04-.05-.06-.08,0,0-.1-.13-.05-.05-.16-.21-.44-.34-.68-.18-.2.13-.35.46-.18.68.19.24.36.5.55.74.25.33.37.48.62.8.38.48.77.95,1.16,1.41.78.9,1.61,1.77,2.47,2.59,1.68,1.61,3.57,3.05,5.55,4.28s4.04,2.23,6.21,3.02,4.51,1.33,6.84,1.63,4.57.34,6.85.18,4.33-.5,6.44-1.04,4.21-1.29,6.2-2.21,3.81-2,5.51-3.31,3.32-2.84,4.66-4.57c.68-.88,1.31-1.8,1.87-2.76s1.09-2.02,1.42-3.05c.08-.25.17-.5.25-.76.09-.27.15-.55.21-.83.05-.21-.26-.37-.36-.15h0Z"/>
      <path class="cls-3" d="M224.2,223.39c-.04-.12-.07-.26-.12-.37-.05-.1-.01.06,0,.07l-.03-.2c-.02-.1-.07-.18-.13-.25-.06-.08-.13-.15-.19-.23-.04-.05-.09-.1-.13-.15-.01-.02-.11-.15-.03-.03.12.18-.2-.26-.06-.08.08.11,0,0-.02-.03s-.04-.05-.06-.08c-.05-.07-.09-.13-.14-.2l.1.23c-.12-.39-.45-.66-.74-.94-.19-.18-.37-.37-.56-.55-.38-.37-.76-.74-1.15-1.09-.77-.71-1.56-1.4-2.36-2.08-.87-.74-1.78-1.42-2.7-2.09-.83-.61-1.68-1.2-2.54-1.76-1.71-1.11-3.52-2.06-5.39-2.86-2.02-.87-4.09-1.59-6.23-2.07s-4.24-.75-6.39-.83c-1.94-.08-3.89,0-5.82.19-2.09.22-4.17.56-6.22,1.07s-3.92,1.15-5.8,1.94-3.68,1.71-5.39,2.81-3.33,2.38-4.79,3.8c-.34.33-.64.7-.97,1.05-.22.23-.36.55-.36.88,0,.3.14.67.36.88.49.45,1.28.5,1.76,0,.42-.44.9-.83,1.35-1.23s.93-.79,1.41-1.17l-.27.21c1.8-1.39,3.76-2.59,5.81-3.59.59-.29,1.18-.56,1.78-.81l-.35.15c2.61-1.1,5.34-1.91,8.11-2.45.79-.15,1.58-.28,2.38-.39l-.4.05c2.79-.37,5.6-.46,8.4-.27.8.05,1.6.13,2.39.23l-.41-.05c2.28.31,4.52.85,6.69,1.63.6.21,1.19.45,1.78.69l-.36-.15c1.89.8,3.69,1.77,5.46,2.8.89.52,1.76,1.07,2.61,1.64s1.7,1.19,2.55,1.79c.97.68,1.92,1.37,2.85,2.09l-.23-.18c.38.32.8.6,1.2.9.34.25.67.51,1,.76l-.2-.15c.17.13.34.29.56.33l-.23-.1c.27.14.53.28.78.45.06.04.11.08.17.11.1.06.2.1.32.12.12.02.13.02.05,0-.06-.01-.07-.01-.03,0,.14.03.29.06.43.09.3.06.62-.19.52-.52h0Z"/>
      <path class="cls-3" d="M279.16,224.97c.13-.03.26-.06.39-.09.16-.04-.28.04.04,0,.18-.02.29-.1.43-.2-.03.03-.11.08-.03.03.03-.02.07-.05.1-.07.06-.04.12-.09.18-.13.03-.02.06-.03.08-.05l.17-.13c-.1.07-.12.09-.07.06.14-.06.28-.15.41-.23l-.23.1c.21-.08.32-.14.5-.29.05-.04.09-.08.14-.11.08-.06.16-.13.23-.19.17-.14.34-.28.51-.42.34-.28.68-.55,1.02-.82l-.23.18c.48-.34.92-.74,1.38-1.11.4-.32.79-.63,1.2-.94l-.26.2c.57-.44,1.14-.88,1.71-1.32l-.27.21c1.3-1,2.63-1.96,4.01-2.84s2.76-1.72,4.2-2.47c.82-.42,1.65-.81,2.5-1.17l-.36.15c2.09-.88,4.26-1.55,6.49-1.98.64-.12,1.28-.23,1.92-.31l-.41.05c2.86-.38,5.75-.47,8.62-.26.83.06,1.67.15,2.5.26l-.4-.05c2.75.37,5.47,1.01,8.09,1.92.73.25,1.45.53,2.17.83l-.34-.14c2.03.86,3.99,1.9,5.81,3.14.51.35,1.01.71,1.5,1.09l-.27-.21c.34.27.68.54,1.01.82s.68.54.99.84c.23.22.55.36.88.36.3,0,.67-.14.88-.36.45-.49.5-1.27,0-1.76-.36-.35-.69-.72-1.07-1.06s-.75-.66-1.14-.98c-.86-.69-1.74-1.35-2.66-1.95-1.79-1.17-3.72-2.11-5.7-2.93s-3.88-1.41-5.89-1.87-4.25-.8-6.4-.98c-2.01-.16-4.04-.18-6.05-.04-2.18.15-4.36.47-6.48,1.01s-4.28,1.35-6.31,2.3c-1.88.89-3.71,1.92-5.41,3.12-.94.66-1.86,1.36-2.76,2.07-.83.66-1.66,1.33-2.44,2.05s-1.55,1.46-2.31,2.21c-.39.38-.76.78-1.13,1.17-.19.19-.37.39-.55.59-.09.1-.19.2-.28.29-.14.15-.24.33-.35.5-.03.05-.06.1-.09.14-.07.12.03-.04.04-.05l-.13.17.07-.08c-.07.11-.17.22-.26.32-.1.12-.22.24-.26.41v.1c-.03.14-.03.13-.01-.01,0,0-.02.08-.02.08-.03.11-.06.22-.1.34-.09.32.21.59.52.52h0Z"/>
      <path class="cls-3" d="M383.4,274.54c-.11.9-.23,1.8-.35,2.71s-.23,1.78-.31,2.71c-.17,1.79-.35,3.59-.55,5.38s-.38,3.63-.59,5.44c-.1.89-.21,1.78-.32,2.66-.06.45-.12.91-.18,1.36-.03.22-.06.43-.09.65,0,.02-.03.21,0,.06,0,.06-.02.12-.02.18-.02.12-.03.24-.05.35-.49,3.6-1.03,7.2-1.66,10.78s-1.32,7.12-2.11,10.66-1.65,7-2.53,10.48c-.11.42-.21.83-.3,1.25-.05.23.07.48.31.54s.46-.08.54-.31c.61-1.69,1.11-3.43,1.59-5.17s.91-3.5,1.33-5.26c.83-3.52,1.58-7.06,2.23-10.62s1.24-7.24,1.72-10.88.88-7.21,1.23-10.82c.17-1.81.29-3.62.41-5.44.06-.9.13-1.81.15-2.71s.02-1.79.02-2.68c0-.44,0-.88,0-1.32,0-.3-.42-.28-.45,0h0Z"/>
      <path class="cls-3" d="M118.76,274.54c-.01,1.81-.03,3.62.08,5.42s.23,3.62.37,5.44.34,3.59.53,5.38.41,3.63.64,5.44c.47,3.64,1.03,7.28,1.66,10.89s1.35,7.12,2.16,10.65,1.7,7,2.79,10.44c.13.42.27.84.42,1.25.08.22.3.38.54.31s.36-.31.31-.54c-.39-1.76-.86-3.5-1.29-5.25s-.86-3.48-1.25-5.22c-.81-3.53-1.52-7.08-2.16-10.64s-1.2-7.17-1.71-10.77c-.06-.45-.13-.9-.19-1.36-.01-.1-.03-.2-.04-.3,0-.06-.02-.12-.02-.18.02.15,0-.05,0-.06-.03-.24-.06-.47-.09-.71-.12-.89-.23-1.77-.34-2.66-.22-1.81-.42-3.63-.61-5.44s-.38-3.58-.56-5.38c-.09-.9-.16-1.86-.27-2.71-.12-.9-.23-1.81-.35-2.71-.05-.43-.11-.86-.17-1.29-.04-.28-.45-.3-.45,0h0Z"/>
      <path class="cls-3" d="M407.75,267.08c.18-1.38.34-2.76.4-4.15s.06-2.8-.01-4.2c-.15-2.86-.69-5.67-1.82-8.3-.54-1.26-1.24-2.44-2.04-3.55s-1.63-2.07-2.61-2.95c-1.79-1.63-3.99-2.91-6.41-3.27-1.23-.18-2.47-.14-3.69.15-1.28.3-2.51.88-3.57,1.65-.32.23-.63.47-.93.72-.21.17-.2.52-.04.72s.49.3.71.14c.56-.42,1.15-.79,1.76-1.12.14-.07.28-.14.42-.21.07-.03.13-.06.2-.09.04-.02.07-.03.11-.05.03-.01.16-.09.03-.01.26-.14.58-.23.86-.32s.57-.17.85-.23c.14-.03.28-.06.41-.08.07-.01.13-.02.2-.03.01,0,.16-.02.05,0s.07,0,.09-.01c.56-.06,1.12-.07,1.68-.03.13,0,.25.02.38.04.01,0,.16.02.04,0s.03,0,.04,0c.07.01.14.02.21.03.28.05.56.11.83.18s.54.15.8.25c.13.05.26.09.38.15.03.01.05.02.08.03.14.05-.1-.05-.02,0,.07.03.15.06.22.1.52.24,1.03.51,1.51.82.25.16.5.33.75.5.11.08.22.17.33.25-.15-.1.05.04.08.07.06.05.12.1.18.15.96.79,1.82,1.69,2.59,2.66.03.03.05.06.08.1.07.09,0,0-.01-.02.05.06.1.13.15.19.1.13.19.26.29.39.19.27.37.54.55.81.37.57.71,1.16,1.01,1.77.15.3.29.6.42.9.02.05.04.1.06.14.01.02.05.11,0,0,.03.08.07.16.1.24.07.16.13.32.19.49.24.63.44,1.28.62,1.93s.32,1.31.45,1.98c.06.34.12.68.18,1.03.03.15.05.31.07.46.01.09.02.17.04.26,0,.02.01.11,0,.01,0,.05.01.1.02.16.35,2.72.32,5.47.39,8.21,0,.32.01.65.02.97,0,.23.32.21.34,0h0Z"/>
      <path class="cls-3" d="M113.34,249.79c-.11-.19-.23-.37-.36-.56.02.03-.05-.07-.05-.08-.02-.04-.05-.07-.08-.11-.03-.04-.06-.08-.09-.12-.03-.04-.06-.07-.08-.11-.02-.02-.02-.02,0,0,.04.03.02.01-.05-.07-.28-.31-.62-.58-.95-.83-.66-.49-1.42-.84-2.2-1.1s-1.67-.4-2.52-.46-1.68-.04-2.52.06c-1.68.19-3.31.63-4.82,1.4-1.77.9-3.35,2.2-4.64,3.7-1.35,1.58-2.4,3.37-3.19,5.28s-1.27,3.98-1.51,6.06c-.28,2.37-.28,4.76-.03,7.13s.71,4.67,1.36,6.94,1.48,4.5,2.41,6.69,1.91,4.28,3.04,6.33c.13.24.27.48.4.73.14.26.31.5.44.77.18.36.72.04.54-.32-.13-.26-.23-.55-.35-.82s-.23-.53-.34-.79c-.23-.53-.46-1.05-.7-1.58-.47-1.06-.94-2.12-1.39-3.18-.04-.1-.02-.05-.01-.03-.01-.03-.03-.07-.04-.1-.02-.06-.05-.12-.07-.18-.06-.14-.11-.27-.17-.41-.11-.26-.22-.53-.32-.79-.21-.54-.42-1.08-.63-1.62-.4-1.08-.77-2.16-1.12-3.26-.68-2.18-1.23-4.41-1.57-6.67-.02-.14-.04-.27-.06-.41,0-.06-.02-.13-.03-.19-.02-.12,0-.02,0,0,0-.05-.01-.09-.02-.14-.04-.28-.07-.56-.1-.85-.06-.58-.11-1.15-.14-1.73-.06-1.16-.06-2.33,0-3.49.03-.59.08-1.17.14-1.76.02-.14.03-.29.05-.43,0-.08.02-.15.03-.23s0,.02,0,.03c0-.06.02-.11.02-.17.04-.25.07-.5.12-.74.17-.97.41-1.93.71-2.86.15-.47.32-.93.5-1.38.02-.06.05-.12.07-.18,0-.02.02-.04.03-.07.03-.08-.05.11,0,.02.05-.12.1-.23.15-.35.1-.22.2-.44.31-.66.44-.88.94-1.74,1.51-2.54.06-.09.13-.18.19-.27.04-.05.07-.1.11-.15.02-.02.04-.05.06-.07.01-.02.09-.12.03-.05-.05.07.05-.06.06-.08.04-.05.08-.1.12-.15.08-.1.16-.19.24-.29.31-.37.64-.72.98-1.06s.71-.68,1.08-.99c.09-.07.18-.15.27-.22.02-.01.07-.04.07-.06,0,.01-.12.09-.02.02.05-.04.1-.08.15-.11.2-.15.4-.29.61-.43.39-.26.8-.51,1.22-.73.16-.08.32-.16.48-.24.08-.04.16-.07.24-.11.04-.02.09-.04.13-.06.02,0,.08-.03,0,0-.1.04,0,0,.02,0,.73-.3,1.48-.54,2.25-.72.4-.1.81-.17,1.22-.24.05,0,.09-.01.14-.02.15-.02-.11.01.04,0,.11-.01.21-.03.32-.04.2-.02.41-.04.62-.05.42-.03.83-.03,1.25-.02.2,0,.41.02.61.04.1,0,.19.02.29.03.05,0,.09.01.14.02.1.01-.01,0-.03,0,.03,0,.06,0,.1.01.4.06.8.14,1.19.25.19.05.38.11.56.17.09.03.18.06.27.09.04.02.08.03.12.05.03.01.18.07.07.03.35.15.7.33,1.02.54.08.05.17.11.25.16.04.02.07.05.11.08.02.01.14.11.08.06.16.13.3.28.47.4.14.1-.03-.03.04.02.01.01.03.02.04.04.04.03.08.07.11.1.07.06.14.13.21.2.14.14.27.29.39.45.22.28.65-.08.48-.37h0Z"/>
    </g>
  </g>
  <path class="cls-1" d="M253.95,116.17c-24.11.19-48.29,2.47-71.66,7.9-13.48,3.13-24.26,7.86-31.65,20.47-8.83,15.09-18.46,45.34-6.06,61.47-5.1,7.35-9.8,14.77-13.69,22.91-4.68,9.78-11,20.36-13.35,31.02-.97-9.13-3.42-18.01-4.19-27.16-2.15-25.66-4.46-46.24,1.02-71.85.62-2.91,1.3-5.78,2.21-8.58,25.83-84.03,164.07-108.83,228.01-48.59,16.39,15.44,26.17,36.63,31.54,58.6,2.7,11.06,4.36,22.37,5.34,33.72.98,11.32,1.39,22.15,1.12,35.75-.74,5-1.32,11.47-3.07,16.82-3.29-7.33-10.07-32.12-27.16-45.94,2.91-9.71,3.75-20.63,2.58-30.72-1.15-9.94-3.96-20.39-8.86-29.09-3.95-7-9.49-10.18-15.97-14.34-11.81-7.58-25.08-10.15-38.9-11.14-12.33-.88-24.79-1.35-37.26-1.25Z"/>
</svg>