<?xml version="1.0" encoding="UTF-8"?>
<svg id="Layer_1" data-name="Layer 1" xmlns="http://www.w3.org/2000/svg" xmlns:xlink="http://www.w3.org/1999/xlink" viewBox="0 0 1920 1080">
  <defs>
    <style>
      .cls-1 {
        fill: #011f89;
      }

      .cls-2 {
        fill: #04adc6;
      }

      .cls-3 {
        fill: #dfb68a;
      }

      .cls-4 {
        fill: #00003f;
      }

      .cls-5 {
        fill: #f1f2d9;
      }

      .cls-6 {
        clip-path: url(#clippath-1);
      }

      .cls-7 {
        clip-path: url(#clippath-3);
      }

      .cls-8 {
        clip-path: url(#clippath-4);
      }

      .cls-9 {
        clip-path: url(#clippath-2);
      }

      .cls-10 {
        clip-path: url(#clippath-7);
      }

      .cls-11 {
        clip-path: url(#clippath-6);
      }

      .cls-12 {
        clip-path: url(#clippath-5);
      }

      .cls-13 {
        fill: #2d6df5;
      }

      .cls-14 {
        fill: #c3926e;
      }

      .cls-15 {
        fill: #cdedf0;
      }

      .cls-16 {
        clip-path: url(#clippath);
      }
    </style>
    <clipPath id="clippath">
      <path class="cls-3" d="M1117.61,342.63c-4.64,4.48-9.41,7.98-14.41,10.68.04.52.09,1.03.13,1.55,1.12,12.27,1.81,27.48,13.43,34.7,8.2,5.1,18.53,4.27,27.96,5.07,4.93.41,9.99.6,15.04.82-2.71,9.66-5.18,19.15-10.78,28.38-11.49,18.97-28.16,31.79-47.99,41.15-33.6,15.88-82.63,5.89-113.53-12.52-7.73-4.61-14.51-10-20.67-16.82-3.17-3.54-5.51-7.64-7.82-11.75,5.89-1.83,11.77-3.65,17.54-5.64,16.78-5.77,38.18-10.96,46.82-28.07,4.2-8.32,3.43-16.94,4.32-25.92.46-4.73.57-9.56.57-14.39-3-2.06-5.92-4.46-8.81-7.23-4.08-3.93-7.72-8.28-10.94-12.95-8.63-12.45-14.46-27.13-18.57-41.99-4.95.66-10.93-1.59-14.14-4.63-12.9-12.2-20.93-63.93,4.55-60.11-.25-6.86-.18-13.76.15-20.58,0-.06,0-.12.01-.18h0c1.97-5.23,4.42-10.16,7.19-15.02,1.03-1.84,2.15-3.62,3.33-5.36,14.67-21.65,39.14-33.52,64.72-36.94,32.42-4.32,68.58,5.92,89.58,31.98,4.51,5.6,8.38,12.74,11.03,20.28h0c.07,1.77.15,3.51.24,5.24.34,6.82.4,13.71.13,20.58,25.5-3.84,17.48,47.91,4.58,60.11-3.21,3.03-9.21,5.29-14.15,4.63-4.17,15.11-10.13,30.03-19,42.61-3.12,4.43-6.61,8.57-10.52,12.33Z"/>
    </clipPath>
    <clipPath id="clippath-1">
      <path class="cls-2" d="M1214.66,570.6c-1.15,4.48-4.07,10.03-3.81,14.69.15,2.53,1.81,5.92,2.39,8.59,3.02,13.89,4.96,29.11,1.43,42.98-1.81,7.1-7.54,14.7-8.59,21.65-.31,2.09,1.03,6.07,1.47,8.57,1.69,9.56,3.77,19.07,3.81,28.83.06,13.04-2.53,25.36-.46,38.63,1.61,10.28,1.52,19.62-.62,29.12-15.23,8.12-38.52,7.08-53.03,5.55-28.91-3.06-57.19-10.03-86.03-14.02-31.54-4.37-62.58.66-93.31,7.48-19.07,4.23-37.56,7.44-56.5,8.47-1.09-9.35-1.18-18.91-1.18-27.68,0-9.93.63-19.6,1.97-29.27.78-5.51,3.39-11.34,3.36-16.94-.01-4.79-2.22-9.19-3.15-13.85-.43-2.15-.77-4.32-1.02-6.48-13.43-.72-27.93-3.79-40.48-6.67-10.53-2.43-22.71-4.39-34.11-7.78.24-8.04.4-16.08.47-24.14.22-23.76,2.27-47.5,3.79-71.22,1.97-30.62,4.43-65.1,22.34-91.14,5.61-8.16,11.86-16.36,19.5-22.82,8.19-6.92,18.46-11.31,28.16-15.75,12.17-5.54,25.07-9.53,37.9-13.52,2.31,4.11,4.65,8.22,7.82,11.75,6.16,6.82,12.93,12.21,20.67,16.82,30.9,18.41,79.94,28.4,113.53,12.52,19.83-9.37,36.5-22.18,47.99-41.15,5.6-9.24,8.07-18.72,10.78-28.38,18.84.8,37.81,1.99,51.38,17.14,18.28,20.43,17.7,54.41,16.32,80.08-1.41,26.47-6.14,52.27-12.8,77.92Z"/>
    </clipPath>
    <clipPath id="clippath-2">
      <path class="cls-4" d="M1206.31,207.43c1.53,4.82,2.49,10.13,2,15.23-.57,6.16-4.85,11.18-7.78,16.36-3.51,6.22-1.1,11.89-1.5,18.57-.46,7.67-6.05,14.08-12.53,18.28-.06,7.2-2.02,14.05-7.04,19.77-5.52,6.25-9.99,7.92-18.16,7.19-.03,9.32-4.58,15.22-12.45,20.18-5.44,3.45-13.58,7.07-20.72,7.29,8.87-12.58,14.83-27.5,19-42.61,4.95.66,10.94-1.59,14.15-4.63,12.9-12.2,20.92-63.95-4.58-60.11.27-6.86.21-13.76-.13-20.58-.09-1.74-.16-3.48-.24-5.23h0c-.29-6.2-.65-12.46-1.55-18.53-1.83-12.36-5.55-23.54-13.3-33.46-5.91-7.56-12.81-14.42-20.72-19.84-8.16-5.6-18.25-8.25-27.69-10.83-5.63-1.53-11.39-2.77-17.15-3.64-6.36-.96-12.76-.66-19.1.27-5.85.85-10.9,3.08-16.53,4.71-17.31,5.02-32.77,15.95-43.66,30.28-12.67,16.67-15.19,35.72-16.16,56.07h0c-.01.07-.01.13-.01.19-.32,6.82-.4,13.71-.15,20.58-25.48-3.81-17.45,47.91-4.55,60.11,3.21,3.03,9.19,5.29,14.14,4.63,4.11,14.86,9.94,29.55,18.57,41.99-6.82.68-15.26-4.58-13.34-11.81-3.08-.06-6.11,1-9.28.82-3.87-.22-7.59-1.1-11.14-2.61-6.47-2.74-12.24-6.55-12.21-14.32.01-1.46,1.83-6.48,1.15-7.66-.8-1.36-5.61-1.4-7.14-2.52-4.43-3.23-4.27-8.31-3.26-13.02-4.09-1.75-9-.16-13.34-2.64-4.14-2.36-8.16-5.51-9.84-10.1-1.46-4.01-1.56-8.78-1.36-13.01.28-5.7,2.08-8.85,5.41-13.29-2.45-2.84-5.41-4.52-5.41-8.75-.01-3.12,1.72-6.55,4.54-8.01-2.33-2.28-5.38-2.65-7.14-5.83-1.03-1.83-2.62-6.64-.81-8.54,1.71-1.78,3.93.69,6.1,1.33,2.5.72,5.17,1.02,7.69.07,5.95-2.24,6.97-9.49,4.3-14.52-2.89-5.45-6.19-9.1-4.7-15.79,1.12-5.1,4.26-10.47,9.06-12.81-2-5.17-2.27-7.51-.15-12.81,1.25-3.12,2.8-6.2,4.92-8.68-3.52-1.02-6.39-3.05-7.39-7.04-.5-1.94-.9-3.83.63-5.57,1.87-2.12,3.31-1.03,5.7-.84,8.15.62,10.4-5.1,10.77-12.08.41-7.88,4.71-15.85,13.29-17.34,2.86-.5,5.79.22,8.6-.65,3.7-1.12,5.24-4.26,7.44-7.03,4.61-5.83,10.56-6.75,17.4-5.35-4.58-3.49-7.64-9.07-5.36-14.69.93-2.24,3.34-6.08,5.74-3.71,1.8,1.78,1.86,5.18,4.11,7.17,3.52,3.14,9.28,5.18,13.92,4.04,5.2-1.28,9-5.57,14.51-5.77,5.18-.19,9.16,1.33,12.34,4.64,2.46-3.39,5.94-5.8,9.37-8.79,4.49-3.92,5.77-8.56,7.22-14.05,6.26,3.82,4.12,11.09,2.17,16.75,2.25-3.03,7.35-6.82,10.71-8.35,4.12-1.87,8.25-1.46,12.52-.85-2.53,2.58-5.41,6.41-6.55,9.82,2.33.75,7.04-1.4,9.93-1.19,3.99.29,7.11,1.74,10.78,3.12,7.32,2.77,13.04,2.7,20.47,1.31-.03,5.05-7.91,7.53-8.82,11.99,8.57.41,16.16,2.03,22.55,8.47,3.34,3.36,3.93,8.47,7.6,11.37,2.96,2.33,7,3.03,10.62,2.11,1.94-.5,3.68-1.55,5.18-2.83,1.46-1.24,2.98-4.45,4.74-4.9.38,3.05,1.87,5.63,1.18,8.72-1,4.57-4.46,8.04-6.54,12.05,1.62-.97,4.48-.03,6.19.75,3.26,1.5,2.81,2.86,3.03,5.91.29,3.95,2.45,2.11,5.77,3.2,2.37.78,4.9,3.21,6.36,5.24,7.89,11.02,1.9,21.74,2,33.74.1,11.08,10.47,9.09,17.91,6.73-1.75,8.12-6.89,10.93-12.33,16.67,5.44.75,8.28,3.96,10.03,9.47Z"/>
    </clipPath>
    <clipPath id="clippath-3">
      <path class="cls-3" d="M1265.8,609.75c-.49,6.86-1.47,16.17-5.1,22.2-2.9,4.83-9.85,8.34-15.08,10.13-4.26,1.46-8.75,1.89-13.2,1.22-7.16-1.08-14.79-4.49-20.78-8.57-13.8-9.44-24.89-23.54-34.29-37.13-12.09-17.5-21.73-36.82-29.55-56.55-8.28-20.89-15.73-42.24-23.07-63.48-3.59-10.38-7.16-20.74-11.24-30.93-2.31-5.76-4.57-11.53-6.95-17.26-1.89-4.55-2.9-6.98-6.7-9.97-3.83-3.02-7.17-6.89-10.34-10.58-6.44-7.47-12.03-15.61-18.01-23.45-5.39-7.08-28.39-39.09-33.3-48.66-1.61-3.13-2.73-6.58-2.75-10.1,0-2.02.4-4.31,1.77-5.89.5-.57,2.47-2.39,5.44-2.54-1.3-2.4-2-4.98-1.22-7.94.84-3.11,3.93-6.13,6.3-6.86,1.78-.54,3.65-.15,5.51.84-.93-6.08,1.9-9.4,4.6-10.87,2.56-1.38,5.08-1.28,7.53-.32-.28-3.24,1.43-7.51,6.33-8.37,6.02-1.05,11.74,4.98,15.54,8.82,5.98,6.08,11.52,12.56,16.82,19.24-1.02-5.6-1.03-11.19.66-16.1,1.28-3.73,4.79-8.03,9.06-5.24,3.33,2.19,4.48,6.79,5.18,10.38,1,5.08,2.58,10.25,4.71,14.96,5.99,13.15,18.26,22.39,21.15,36.96,1.24,6.23,1.27,12.64,1.3,19,.06,12.14-1.62,24.13,3.51,35.44,4.83,10.66,12.53,19.63,18.94,29.33,12.3,18.66,25.73,36.65,39.25,54.42,17.91,23.54,37.94,47.06,49.7,74.74,5.76,13.6,9.34,28.31,8.28,43.14Z"/>
    </clipPath>
    <clipPath id="clippath-4">
      <path class="cls-15" d="M1322.69,932.9c2.93,2.49,3.81,6.66,2.18,10.15-2.87,6.15-6.75,11.63-12.84,16.9-9.38,8.15-20.36,15.55-31.62,20.78-11.65,5.41-23.88,7.67-34.95,14.33-8.66,5.2-17.07,10.93-25.6,16.26-6.3,3.93-13.09,7.66-20.25,10.09-4.65,1.58-9.7-1.18-10.97-5.91-2.59-9.69-4.51-19.33-6.48-29.33-1.86-9.44-6.55-17.88-8.81-27.23-2.39-9.91-2.45-14.85,4.99-21.5-10.1-12.28-17.35-30.06-23.74-44.53-5.39-12.18-10.58-20.67.13-31.4.87-.88,1.78-1.71,2.71-2.52,6.76-5.82,14.85-9.84,22.01-15.11,11.62-8.54,23.57-17.23,36.73-23.23.84-.38,1.75-.81,2.71-1.22,4.7-2.09,10.58-4.23,15.16-2.24,8.82,3.84,11.43,20.22,15.36,27.9,3.77,7.35,8.76,13.95,12.87,21.09,1.93,3.37,3.15,7.22,5.1,10.52,2.9,4.92,1.89,3.02,7.16,4.57,13.9,4.09,21.11,14.23,28.27,26.13,4.98,8.26,11.66,18.56,19.87,25.52Z"/>
    </clipPath>
    <clipPath id="clippath-5">
      <path class="cls-14" d="M1218.9,819.42c-.96.41-1.87.84-2.71,1.22-13.17,5.99-25.11,14.69-36.73,23.23-7.16,5.27-15.24,9.29-22.01,15.11-2.92-3.89-5.74-7.88-8.91-11.24-2.65-2.83-5.44-5.55-8.28-8.22-6.42-6.05-13.14-11.87-19.32-18.07-15.67-15.73-18.23-39.36-23.1-59.79-5.32-22.36-23.52-44.26-36.53-62.69-5.6-7.9-15.72-21.48-10.66-31.92,7.2-14.92,23.71-5.92,30.59,2.86,9.53,12.17,17.44,25.53,26.28,38.12,4.45,6.32,9.32,12.25,13.99,18.51,3.31,4.45,6.07,10.06,12.12,10.6,3.23.29,6.33-1,9.4-2.67.22-16.45.57-32.89,1.46-49.25,1.93-35.73,1.12-71.58,2.43-107.27,5.63,4.99,10.49,16.08,13.77,22.12,4.58,8.41,7.72,18.13,10.8,27.09,5.71,16.6,11.14,33.29,16.61,50.06,11.15,34.13,17.03,67.37,20.5,102.6,1.35,13.62,5.16,26.79,10.3,39.58Z"/>
    </clipPath>
    <clipPath id="clippath-6">
      <path class="cls-14" d="M939.57,575.1c-4.61,9.71-11.8,18.97-18.12,27.63-13.57,18.6-28.74,36.09-43.78,53.5-8.07,9.34-16.25,19.25-22.74,30.02,12.4,10.52,24.67,19.66,26.57,37.12,2.75,25.36-12.2,54.6-27.75,73.99-11.19,13.93-25.13,23.61-41.27,30.75-6.81,3-11.8,12.18-15.07,20.89-19.53-22.59-50.26-30.64-78.11-36.76-10.06-2.21-21.56-5.38-30.96-1.84-.09-3.58-.49-7.34-.49-10.15v-19.05c0-13.54-.09-27.18.55-40.59,1.34-29.08-.74-55,14.77-80.94,5.48-9.19,12.46-16.35,21.36-22.32,8.57-5.74,17.54-6.07,27.28-7.92,3.87-.75,7.41-.72,10.84-.19,3.82-2.03,8.07-3.18,13.27-2.99,8.91.34,14.17,3.18,20.99,7.13,5.58-3.52,12.53-4.89,19.28-4.61,9.38.38,14.92,4.01,21.09,8.65,13.9-14.98,29.19-29.19,43.82-42.88,9.15-8.57,18.34-16.79,27.21-25.69,5.33-5.36,18.51-20.78,27.1-18.91,10.88,2.37,7.39,18.35,4.15,25.17Z"/>
    </clipPath>
    <clipPath id="clippath-7">
      <path class="cls-15" d="M796.6,885.98c-4.05,12.7-8.59,24.97-13.42,37.34-5.35,13.74-10.28,28-14.38,42.13-1.81,6.28-8.11,24.62-12.37,38.83-1.09,3.62-4.54,6.09-8.31,5.76-14.02-1.26-25.27-15.27-38.23-22.67-10.35-5.89-21.06-10.52-33.11-12.08-16.03-2.09-32.11-1.44-47.99-5.3-10.98-2.68-21.95-7.51-31.24-14.44-3.36-2.51-4.24-7.26-1.94-10.77.01-.02.02-.04.04-.05,5.41-8.15,9.29-17.44,14.51-25.81,4.37-7.04,10-12.55,15.07-18.88,9.77-12.17,16.98-27.31,25.44-40.43,9.22-14.3,17.97-29.53,28.75-42.73,2.62-3.2,5.66-5.26,8.94-6.48,9.4-3.53,20.9-.37,30.96,1.84,27.85,6.13,58.58,14.17,78.11,36.76.52.59,1.03,1.21,1.53,1.83,9.24,11.39,1.59,22.76-2.36,35.16Z"/>
    </clipPath>
  </defs>
  <g>
    <g>
      <path class="cls-3" d="M1117.61,342.63c-4.64,4.48-9.41,7.98-14.41,10.68.04.52.09,1.03.13,1.55,1.12,12.27,1.81,27.48,13.43,34.7,8.2,5.1,18.53,4.27,27.96,5.07,4.93.41,9.99.6,15.04.82-2.71,9.66-5.18,19.15-10.78,28.38-11.49,18.97-28.16,31.79-47.99,41.15-33.6,15.88-82.63,5.89-113.53-12.52-7.73-4.61-14.51-10-20.67-16.82-3.17-3.54-5.51-7.64-7.82-11.75,5.89-1.83,11.77-3.65,17.54-5.64,16.78-5.77,38.18-10.96,46.82-28.07,4.2-8.32,3.43-16.94,4.32-25.92.46-4.73.57-9.56.57-14.39-3-2.06-5.92-4.46-8.81-7.23-4.08-3.93-7.72-8.28-10.94-12.95-8.63-12.45-14.46-27.13-18.57-41.99-4.95.66-10.93-1.59-14.14-4.63-12.9-12.2-20.93-63.93,4.55-60.11-.25-6.86-.18-13.76.15-20.58,0-.06,0-.12.01-.18h0c1.97-5.23,4.42-10.16,7.19-15.02,1.03-1.84,2.15-3.62,3.33-5.36,14.67-21.65,39.14-33.52,64.72-36.94,32.42-4.32,68.58,5.92,89.58,31.98,4.51,5.6,8.38,12.74,11.03,20.28h0c.07,1.77.15,3.51.24,5.24.34,6.82.4,13.71.13,20.58,25.5-3.84,17.48,47.91,4.58,60.11-3.21,3.03-9.21,5.29-14.15,4.63-4.17,15.11-10.13,30.03-19,42.61-3.12,4.43-6.61,8.57-10.52,12.33Z"/>
      <g class="cls-16">
        <circle class="cls-1" cx="1032.51" cy="216.85" r="9.69"/>
        <circle class="cls-1" cx="1103.13" cy="216.85" r="9.69"/>
        <path class="cls-1" d="M1053.55,181.92c.48,1.36.83,2.75,1.31,4.12.52,1.49.87,3.02,1.27,4.54.79,3.04,1.21,6.19,1.38,9.32.38,7.19-.38,14.54-2.37,21.46-2.12,7.38-6.13,13.96-8.81,21.11-2.2,5.86-.94,12.94,4.78,16.25,2.24,1.3,4.87,2.04,7.07,3.08,1.15.55,2.12,1.08,2.86,1.83s1.12,1.51,1.73,2.63c.74,1.36,2.79.99,3.2-.42,1.7-5.73-5.75-8.34-9.72-9.97-1.98-.81-3.9-1.67-5.08-3.57-1.48-2.39-1.27-5.29-.43-7.87,1.16-3.54,3.01-6.89,4.55-10.27,1.66-3.62,3.26-7.28,4.4-11.1,2.12-7.16,3.04-14.84,2.59-22.29-.22-3.71-.76-7.43-1.89-10.98-.55-1.72-1.33-3.4-2.3-4.93-.99-1.56-2.13-2.63-3.71-3.59-.4-.24-.98.16-.82.63h0Z"/>
        <path class="cls-1" d="M1047.08,171.74c.48-1.31-.98-2.63-1.88-3.39-1.11-.94-2.49-1.51-3.86-1.96-2.66-.87-5.53-1.06-8.3-.78-5.75.58-11.41,2.84-15.51,7-1.99,2.03-4.19,4.94-3.68,7.92.14.83,1.24.96,1.77.47.87-.81,1.45-1.74,2.14-2.7.64-.9,1.43-1.69,2.25-2.43,1.78-1.62,3.9-2.84,6.1-3.79,4.3-1.86,9.22-2.56,13.64-1.42,1.27.33,2.49.86,3.65,1.31s3.07,1.48,3.7-.24h0Z"/>
        <path class="cls-1" d="M1093.39,172.49c1.1.59,2.21-.15,3.24-.55s2.13-.89,3.26-1.2c2.16-.59,4.33-.73,6.67-.53,4.38.36,9.24,2.22,12.7,5.12.98.82,1.93,1.72,2.7,2.74s1.37,2.06,2.31,2.94c.53.5,1.63.36,1.77-.47.47-2.76-1.36-5.33-3.11-7.32-1.84-2.08-4.22-3.78-6.71-5-5.15-2.53-11.57-3.6-17.15-1.98-1.6.46-3.21,1.11-4.48,2.21-.9.78-3.04,3.07-1.21,4.05h0Z"/>
        <path class="cls-1" d="M1082.76,302.27c-.53-1.22-1.95-1.89-3.15-2.3-1.46-.5-2.95-.88-4.48-1.14-3.31-.57-6.69-.65-10.03-.27-6.53.74-13.04,2.93-16.75,8.7-.99,1.55,1.27,3.28,2.54,1.96,3.84-4,9.61-5.93,15.03-6.41,2.99-.26,6-.17,8.99,0,1.42.08,2.85.21,4.26.37,1.13.13,2.47.17,3.46-.44.17-.1.2-.29.12-.46h0Z"/>
        <path class="cls-1" d="M979.59,259.17c-.86,1.76-.27,3.59-.04,5.46.25,1.97.52,3.93.78,5.9.55,4.06,1.29,8.04,2.32,12.01,1.06,4.06,2.26,8.07,3.68,12.01,1.39,3.88,3.12,7.87,5.42,11.3.77,1.16,2.64.46,2.29-.96-1.01-4.02-2.41-7.98-3.71-11.92-1.28-3.9-2.47-7.84-3.51-11.81-1.02-3.88-1.7-7.8-2.45-11.74-.36-1.93-.75-3.83-1.3-5.71-.52-1.8-.93-3.77-2.65-4.75-.27-.15-.69-.08-.84.22h0Z"/>
        <path class="cls-1" d="M1156.37,250.58c-.5.64-1.11,1.13-1.48,1.87-.43.88-.59,1.96-.85,2.9-.55,1.97-.97,3.95-1.24,5.98-.52,3.92-.98,7.85-1.72,11.74-1.52,7.96-3.44,15.83-5.35,23.7-1.04,4.28-2.15,8.55-3.26,12.81-.3,1.15,1.33,1.87,1.94.82,1.97-3.41,3.38-7.05,4.63-10.78s2.48-7.47,3.57-11.25c2.27-7.84,3.81-16.04,4.62-24.16.23-2.3.48-4.61.49-6.93,0-1.11.01-2.21.08-3.32.07-1.2-.33-2.05-.64-3.17-.09-.31-.57-.5-.8-.21h0Z"/>
        <path class="cls-1" d="M1116.76,348.88c-4.3.72-8.17,3.4-12.09,5.19-4.12,1.88-8.57,3.11-12.97,4.15-9.21,2.18-18.53,2.88-27.95,1.89-4.75-.5-9.46-1.37-14.12-2.42-3.58-.8-7.27-1.56-10.75-2.73-4.31-1.45-8.51-3.34-12.65-5.21-5.59-2.52-11.14-5.2-16.56-8.05-.56-.3-1.43.36-.97.97,1.5,1.94,3.52,3.41,5.57,4.71,2.61,1.65,5.3,3.08,8.07,4.43,4.78,2.32,9.65,4.55,14.63,6.4,2.8,1.03,5.76,1.66,8.65,2.36,4.8,1.16,9.65,2.16,14.55,2.83,9.78,1.34,19.39,1.09,29.08-.82,5.14-1.01,10.36-2.37,15.11-4.64,2.36-1.13,4.63-2.48,6.77-3.98s4.12-2.91,5.79-4.79c.11-.13,0-.3-.16-.27h0Z"/>
      </g>
    </g>
    <path class="cls-3" d="M922.21,714.19c-1.34,9.66-1.97,19.34-1.97,29.27,0,8.76.09,18.32,1.18,27.68-8.2.46-16.51.52-24.97.06-12.52-.66-25.58-3.24-37.68-6.44-4.98-1.33-10.09-2.77-15.02-4.48.35-32.61,2.17-65.19,3.06-97.8,11.4,3.39,23.58,5.35,34.11,7.78,12.55,2.89,27.04,5.95,40.48,6.67.25,2.17.59,4.33,1.02,6.48.93,4.65,3.14,9.06,3.15,13.85.03,5.6-2.58,11.43-3.36,16.94Z"/>
    <g>
      <path class="cls-2" d="M1214.66,570.6c-1.15,4.48-4.07,10.03-3.81,14.69.15,2.53,1.81,5.92,2.39,8.59,3.02,13.89,4.96,29.11,1.43,42.98-1.81,7.1-7.54,14.7-8.59,21.65-.31,2.09,1.03,6.07,1.47,8.57,1.69,9.56,3.77,19.07,3.81,28.83.06,13.04-2.53,25.36-.46,38.63,1.61,10.28,1.52,19.62-.62,29.12-15.23,8.12-38.52,7.08-53.03,5.55-28.91-3.06-57.19-10.03-86.03-14.02-31.54-4.37-62.58.66-93.31,7.48-19.07,4.23-37.56,7.44-56.5,8.47-1.09-9.35-1.18-18.91-1.18-27.68,0-9.93.63-19.6,1.97-29.27.78-5.51,3.39-11.34,3.36-16.94-.01-4.79-2.22-9.19-3.15-13.85-.43-2.15-.77-4.32-1.02-6.48-13.43-.72-27.93-3.79-40.48-6.67-10.53-2.43-22.71-4.39-34.11-7.78.24-8.04.4-16.08.47-24.14.22-23.76,2.27-47.5,3.79-71.22,1.97-30.62,4.43-65.1,22.34-91.14,5.61-8.16,11.86-16.36,19.5-22.82,8.19-6.92,18.46-11.31,28.16-15.75,12.17-5.54,25.07-9.53,37.9-13.52,2.31,4.11,4.65,8.22,7.82,11.75,6.16,6.82,12.93,12.21,20.67,16.82,30.9,18.41,79.94,28.4,113.53,12.52,19.83-9.37,36.5-22.18,47.99-41.15,5.6-9.24,8.07-18.72,10.78-28.38,18.84.8,37.81,1.99,51.38,17.14,18.28,20.43,17.7,54.41,16.32,80.08-1.41,26.47-6.14,52.27-12.8,77.92Z"/>
      <g class="cls-6">
        <path class="cls-1" d="M926.25,513.38c-.12,3.05-.8,6.01-1.12,9.03-.29,2.78-.67,5.54-1.04,8.31-.74,5.57-1.67,11.09-2.83,16.58-2.39,11.36-5.84,22.44-8.49,33.73-5.53,23.53-4.46,47.85.83,71.31.62,2.73,1.18,5.38,1.37,8.19.2,2.9.21,5.82.25,8.72.07,5.41.11,11.5,2.97,16.29.54.9,2.31.61,2.15-.58-.64-4.81-.77-9.6-.79-14.45-.02-5.12.12-10.25-.7-15.32-.44-2.74-1.17-5.43-1.73-8.15-.62-3.03-1.16-6.08-1.64-9.14-.89-5.76-1.47-11.56-1.76-17.38-.59-11.78.17-23.63,2.52-35.19,1.19-5.83,2.85-11.54,4.26-17.31,1.34-5.51,2.62-11.03,3.73-16.58,1.22-6.1,2.21-12.24,2.9-18.42.35-3.21.5-6.43.58-9.66s-.45-6.64-.57-9.97c-.02-.58-.87-.58-.9,0h0Z"/>
        <path class="cls-1" d="M1112.11,664.91c.6,1.42,1.34,2.71,2.48,3.76,1.3,1.2,2.86,2.12,4.41,2.95,3.36,1.8,7.06,3.03,10.73,4.01,8.18,2.2,16.79,3.84,25.28,3.06,5.61-.51,11.64-1.58,16.49-4.57.66-.41.44-1.6-.42-1.54-4.77.29-9.45,1.38-14.24,1.7s-9.69.18-14.47-.5c-6.7-.95-13.58-2.38-19.9-4.84-1.72-.67-3.38-1.41-4.99-2.31-1.47-.82-3.03-1.51-4.43-2.45-.43-.29-1.16.2-.94.72h0Z"/>
        <path class="cls-1" d="M959.66,677.42c5.32,4.25,12.68,4.93,19.28,4.9,7.41-.03,14.89-1.12,22.04-3.04,3.57-.96,6.98-2.29,10.29-3.92,1.62-.8.49-3.44-1.23-2.91-12.59,3.89-26.24,6.98-39.49,5.57-3.39-.36-6.85-1.06-10.15-1.9-.69-.18-1.39.79-.75,1.29h0Z"/>
      </g>
    </g>
    <path class="cls-13" d="M1156.33,197.14c-2.65-7.54-6.52-14.69-11.03-20.28-21-26.06-57.16-36.29-89.58-31.98-25.58,3.42-50.05,15.29-64.72,36.94-1.18,1.74-2.3,3.52-3.33,5.36-2.77,4.86-5.21,9.79-7.19,15.01.97-20.36,3.49-39.4,16.16-56.07,10.88-14.33,26.35-25.26,43.66-30.28,5.63-1.63,10.68-3.86,16.53-4.71,6.35-.93,12.74-1.22,19.1-.27,5.76.87,11.52,2.11,17.15,3.64,9.44,2.58,19.53,5.23,27.69,10.83,7.91,5.42,14.82,12.28,20.72,19.84,7.75,9.93,11.47,21.11,13.3,33.46.9,6.07,1.25,12.33,1.55,18.51Z"/>
    <g>
      <path class="cls-4" d="M1206.31,207.43c1.53,4.82,2.49,10.13,2,15.23-.57,6.16-4.85,11.18-7.78,16.36-3.51,6.22-1.1,11.89-1.5,18.57-.46,7.67-6.05,14.08-12.53,18.28-.06,7.2-2.02,14.05-7.04,19.77-5.52,6.25-9.99,7.92-18.16,7.19-.03,9.32-4.58,15.22-12.45,20.18-5.44,3.45-13.58,7.07-20.72,7.29,8.87-12.58,14.83-27.5,19-42.61,4.95.66,10.94-1.59,14.15-4.63,12.9-12.2,20.92-63.95-4.58-60.11.27-6.86.21-13.76-.13-20.58-.09-1.74-.16-3.48-.24-5.23h0c-.29-6.2-.65-12.46-1.55-18.53-1.83-12.36-5.55-23.54-13.3-33.46-5.91-7.56-12.81-14.42-20.72-19.84-8.16-5.6-18.25-8.25-27.69-10.83-5.63-1.53-11.39-2.77-17.15-3.64-6.36-.96-12.76-.66-19.1.27-5.85.85-10.9,3.08-16.53,4.71-17.31,5.02-32.77,15.95-43.66,30.28-12.67,16.67-15.19,35.72-16.16,56.07h0c-.01.07-.01.13-.01.19-.32,6.82-.4,13.71-.15,20.58-25.48-3.81-17.45,47.91-4.55,60.11,3.21,3.03,9.19,5.29,14.14,4.63,4.11,14.86,9.94,29.55,18.57,41.99-6.82.68-15.26-4.58-13.34-11.81-3.08-.06-6.11,1-9.28.82-3.87-.22-7.59-1.1-11.14-2.61-6.47-2.74-12.24-6.55-12.21-14.32.01-1.46,1.83-6.48,1.15-7.66-.8-1.36-5.61-1.4-7.14-2.52-4.43-3.23-4.27-8.31-3.26-13.02-4.09-1.75-9-.16-13.34-2.64-4.14-2.36-8.16-5.51-9.84-10.1-1.46-4.01-1.56-8.78-1.36-13.01.28-5.7,2.08-8.85,5.41-13.29-2.45-2.84-5.41-4.52-5.41-8.75-.01-3.12,1.72-6.55,4.54-8.01-2.33-2.28-5.38-2.65-7.14-5.83-1.03-1.83-2.62-6.64-.81-8.54,1.71-1.78,3.93.69,6.1,1.33,2.5.72,5.17,1.02,7.69.07,5.95-2.24,6.97-9.49,4.3-14.52-2.89-5.45-6.19-9.1-4.7-15.79,1.12-5.1,4.26-10.47,9.06-12.81-2-5.17-2.27-7.51-.15-12.81,1.25-3.12,2.8-6.2,4.92-8.68-3.52-1.02-6.39-3.05-7.39-7.04-.5-1.94-.9-3.83.63-5.57,1.87-2.12,3.31-1.03,5.7-.84,8.15.62,10.4-5.1,10.77-12.08.41-7.88,4.71-15.85,13.29-17.34,2.86-.5,5.79.22,8.6-.65,3.7-1.12,5.24-4.26,7.44-7.03,4.61-5.83,10.56-6.75,17.4-5.35-4.58-3.49-7.64-9.07-5.36-14.69.93-2.24,3.34-6.08,5.74-3.71,1.8,1.78,1.86,5.18,4.11,7.17,3.52,3.14,9.28,5.18,13.92,4.04,5.2-1.28,9-5.57,14.51-5.77,5.18-.19,9.16,1.33,12.34,4.64,2.46-3.39,5.94-5.8,9.37-8.79,4.49-3.92,5.77-8.56,7.22-14.05,6.26,3.82,4.12,11.09,2.17,16.75,2.25-3.03,7.35-6.82,10.71-8.35,4.12-1.87,8.25-1.46,12.52-.85-2.53,2.58-5.41,6.41-6.55,9.82,2.33.75,7.04-1.4,9.93-1.19,3.99.29,7.11,1.74,10.78,3.12,7.32,2.77,13.04,2.7,20.47,1.31-.03,5.05-7.91,7.53-8.82,11.99,8.57.41,16.16,2.03,22.55,8.47,3.34,3.36,3.93,8.47,7.6,11.37,2.96,2.33,7,3.03,10.62,2.11,1.94-.5,3.68-1.55,5.18-2.83,1.46-1.24,2.98-4.45,4.74-4.9.38,3.05,1.87,5.63,1.18,8.72-1,4.57-4.46,8.04-6.54,12.05,1.62-.97,4.48-.03,6.19.75,3.26,1.5,2.81,2.86,3.03,5.91.29,3.95,2.45,2.11,5.77,3.2,2.37.78,4.9,3.21,6.36,5.24,7.89,11.02,1.9,21.74,2,33.74.1,11.08,10.47,9.09,17.91,6.73-1.75,8.12-6.89,10.93-12.33,16.67,5.44.75,8.28,3.96,10.03,9.47Z"/>
      <g class="cls-9">
        <path class="cls-13" d="M1176.97,176.14c-.98,4.21-2.46,8.36-3.95,12.41-1.48,4.03-2.99,8.01-4.86,11.87-3.74,7.73-8.69,14.87-14.68,21.04-3.43,3.53-7.2,6.76-10.98,9.91-1.55,1.3.43,3.67,2.11,2.73,7.94-4.44,14.47-11.26,19.63-18.69,5.07-7.28,9.12-15.57,11.43-24.16,1.32-4.93,1.72-9.95,2.06-15.02.03-.44-.67-.54-.77-.1h0Z"/>
        <path class="cls-13" d="M1184.92,199.33c-.81,3.83-2.67,7.56-4.65,10.92-1.95,3.32-4.09,6.37-6.89,9.03-2.6,2.47-5.52,4.65-8.66,6.38-2.95,1.63-6.2,3.01-9.61,3.23-2.16.14-2.1,3.09,0,3.32,3.95.43,7.9-.95,11.33-2.82s6.61-4.37,9.38-7.17,5.37-6.27,7.06-9.96c1.86-4.05,2.6-8.21,3.43-12.55.17-.9-1.2-1.3-1.39-.38h0Z"/>
        <path class="cls-13" d="M976.19,123.43c-.72,1.94-1.54,3.7-1.95,5.76-.39,1.94-.49,3.91-.18,5.87.65,4,3.53,7.45,7.81,7.34,1.88-.05,3.68-.71,5.56-.82,1.6-.09,3.08.08,4.59.6,2.41.84,4.36,2.88,5.33,5.34,1.43,3.63.79,7.58-.18,11.23-.46,1.74,1.98,2.78,2.91,1.23,3.56-5.98,3.25-14.8-2.17-19.63-2.65-2.36-6.08-3.55-9.63-3.47-2.02.04-3.95.56-5.93.92-1.54.28-2.6.12-3.73-1.11-1.47-1.59-2.08-3.78-2.23-5.89-.17-2.31-.1-4.94.37-7.21.07-.36-.42-.5-.55-.15h0Z"/>
        <path class="cls-13" d="M986.14,117.12c-.44,3.01.29,6.69,2.86,8.59,2.94,2.18,6.83.72,10.02,2.19,2.47,1.15,4.14,3.43,4.95,5.98.95,2.97.63,5.97.22,9.01-.26,1.97,2.93,2.75,3.75,1.02,2.75-5.82,1.06-14.03-3.97-18.14-1.32-1.08-2.79-1.9-4.42-2.41-1.94-.61-3.9-.35-5.88-.25-1.73.09-3.25.18-4.46-1.24-1.08-1.26-1.62-2.94-1.7-4.57-.04-.73-1.24-1-1.36-.18h0Z"/>
        <path class="cls-13" d="M1077.66,56.29c.21,2.92-.19,6.17-.7,9.05s-1.8,5.49-3.56,7.96c-1.99,2.78-4.17,5.42-6.49,7.93-1.52,1.65-3.02,3.23-4.27,5.1-4.41,6.62-6.98,16.02-4.61,23.83,1.37,4.51,4.63,8.4,9.34,9.47,1.44.33,2.37-1.65,1.03-2.43-3.14-1.84-5.66-4.2-6.67-7.79-1.01-3.56-.7-7.42.18-10.98.91-3.68,2.42-7.3,4.52-10.47,1.22-1.84,2.83-3.41,4.32-5.16,2.08-2.44,4.05-4.98,5.86-7.63,1.9-2.78,3.15-5.67,3.3-9.06.15-3.4-1.2-6.49-1.44-9.82-.04-.52-.85-.52-.82,0h0Z"/>
        <path class="cls-13" d="M1104.87,62.93c-2.02,2.16-4.17,4.21-6.34,6.23-2.15,2-4.35,4.03-6.79,5.68-2.33,1.58-4.84,2.88-7.16,4.49-2.42,1.68-4.37,3.62-6.2,5.92-3.4,4.27-6.73,8.95-8.05,14.33-.98,3.97-1.09,8.23-.27,12.23.92,4.45,3.34,8.75,7.92,10.12,1.42.42,2.28-1.64,1.01-2.38-6.32-3.66-6.57-12.94-4.81-19.17,1.35-4.75,4.5-8.87,7.63-12.59,1.7-2.02,3.58-3.8,5.75-5.31,2.19-1.52,4.49-2.85,6.59-4.51,5.01-3.95,8.12-9.14,11.49-14.44.3-.47-.39-1-.77-.59h0Z"/>
        <path class="cls-13" d="M1136.52,82.78c-2.03,1.23-4.23,2.15-6.36,3.19-2.03.99-4.13,1.9-6.23,2.73-4.17,1.63-8.68,2.72-11.98,5.95-3.39,3.32-4.75,8.12-7.34,11.99-2.34,3.51-5.79,6.4-9.6,8.2-4.33,2.05-8.92,2.1-13.59,1.62-1.86-.19-2.13,2.69-.43,3.18,8.65,2.48,18-1.26,24-7.6,3.46-3.65,5.23-8.17,7.91-12.34s6.91-5.25,11.1-7.05c2.45-1.05,4.73-2.28,6.9-3.82s4.12-3.52,6.17-5.33c.4-.35-.12-1-.56-.73h0Z"/>
        <path class="cls-13" d="M1178.77,109.58c-2.05,3.36-4.12,6.78-6.4,9.99-2.35,3.32-5.59,5.94-9.18,7.84-3.61,1.91-7.74,3.12-11.85,2.73-4.29-.41-7.09-3.12-10.63-5.2-.86-.51-2.01-.2-2.52.66-1.96,3.31-4.49,6-7.97,7.7-3.49,1.71-7.48,2.44-11.24,3.32-2.12.5-1.2,3.59.89,3.22,4.26-.76,8.55-1.58,12.45-3.53,3.89-1.95,6.84-5.15,9.05-8.85-.84.22-1.68.44-2.52.66,2.95,1.75,5.38,4.09,8.7,5.2,3.61,1.2,7.57,1.15,11.24.27,6.89-1.65,13.19-6.26,16.6-12.49,1.92-3.5,2.59-7.44,4.14-11.08.22-.52-.47-.96-.77-.45h0Z"/>
        <path class="cls-13" d="M944.24,149.19c-2.36,2.07-2.86,5.56-2.7,8.55.18,3.37.81,6.96,2.08,10.1,3.43,8.46,12.87,13.77,21.74,10.45,4.84-1.81,8.53-5.18,11.31-9.47.72-1.11-.88-2.27-1.79-1.38-4.92,4.77-11.94,8.85-18.96,6.59-3.39-1.09-6.47-3.57-8.34-6.59-1.52-2.46-2.39-5.36-3.03-8.16-.39-1.68-.75-3.42-.85-5.14-.08-1.52-.18-3.36.88-4.59.2-.24-.11-.56-.35-.35h0Z"/>
        <path class="cls-13" d="M965.94,174.76c-.19,1.33-.42,2.27.1,3.6.43,1.13,1,2.21,1.84,3.09,1.95,2.03,4.75,2.87,7.47,3.21,2.98.37,5.88-.23,8.52-1.65,1.29-.69,2.47-1.58,3.56-2.55,1.11-.98,2.38-2.09,3.06-3.42.73-1.42-.73-2.84-2.14-2.14-1.12.56-2.04,1.52-3.05,2.26-.95.7-1.96,1.36-3.01,1.92-1.93,1.03-4.07,1.47-6.26,1.31-1.79-.13-4.05-.75-5.32-1.78-.6-.49-1.12-1.06-1.53-1.72-.29-.46-.54-.92-.89-1.33s-.79-.72-1.13-1.12-1.15-.21-1.23.32h0Z"/>
        <path class="cls-13" d="M916.08,214.34c.88,1.96,1.89,3.97,3.3,5.6,1.53,1.79,3.34,3.32,5.29,4.63,3.74,2.52,8.34,3.95,12.84,4,8.29.09,16.15-3.41,21.92-9.31,3.3-3.38,5.6-7.4,7.23-11.82.64-1.73-2.09-2.84-2.96-1.25-3.36,6.18-8.08,12.05-14.41,15.34-6.61,3.43-14.5,3.68-21.19.34-2.14-1.07-4.24-2.24-6.21-3.59-1.91-1.31-3.85-2.56-5.53-4.15-.15-.15-.36.04-.28.21h0Z"/>
        <path class="cls-13" d="M968.1,319.45c1.85.92,3.59,1.98,5.59,2.55,1.85.53,3.84.41,5.72.13,4.1-.62,7.75-2.78,10.9-5.38,5.47-4.52,8.44-11.07,9.17-18.04.42-4.05.16-8.09-.6-12.09-.35-1.84-3.14-1.34-3.18.43-.11,6.02.15,12.16-2,17.91-2.17,5.81-7.41,10.87-13.14,13.16-1.88.75-3.72,1.06-5.73,1.22-2.19.18-4.37.24-6.45-.6-.4-.16-.68.5-.29.7h0Z"/>
        <path class="cls-13" d="M955.15,306.27c1.48,1.35,2.79,2.93,4.56,3.92,1.61.9,3.41,1.34,5.25,1.48,3.9.29,7.88-1.5,11-3.72,6.79-4.86,10.91-12.65,12.62-20.68.98-4.6,1.37-9.38.99-14.07-.18-2.27-3.35-2.27-3.53,0-.58,7.11-1.02,14.28-4.07,20.87-2.81,6.07-8.05,12.47-14.82,14.17-3.82.96-8.69.51-11.7-2.25-.19-.18-.48.11-.29.29h0Z"/>
        <path class="cls-13" d="M1203.17,253.47c-.94,3.07-2.27,5.91-3.92,8.67-1.47,2.45-3.29,4.61-5.84,5.99-6.19,3.35-13.11,1.19-17.92-3.46-2.83-2.73-4.85-6.07-6.62-9.55-.76-1.5-3.11-.45-2.68,1.13,1.99,7.33,8.24,14.39,15.65,16.49s14.96-1.26,18.94-7.57c2.15-3.41,2.99-7.42,4.05-11.25.29-1.07-1.33-1.51-1.65-.46h0Z"/>
        <path class="cls-13" d="M1189.64,282.9c-.6,2.41-3.83,3.41-5.99,3.71-2.57.36-5.3.1-7.63-1.07-6.17-3.09-9.73-9.61-12.08-15.8-.73-1.92-3.42-1.18-3.07.85,1.98,11.17,13.4,23.34,25.56,18.92,2.88-1.05,4.64-3.05,5.07-6.09.17-1.19-1.55-1.75-1.86-.51h0Z"/>
      </g>
    </g>
  </g>
  <g>
    <path class="cls-2" d="M1265.69,556.8c-9.4,4.52-20.74,7.76-29.9,10.74-12.92,4.21-25.72,8.44-38.94,11.42-5.24,1.16-10.93,2.68-16.66,3.83-3.76-11.78-6.94-23.67-10.4-35.59-.34-1.13-.66-2.27-1-3.39-2.87-9.69-6.32-19.13-8.9-28.91-2.67-10.15-6.29-19.91-8.78-30.12-4.51-18.59-8.26-42.42-2.62-61.1,5.21-17.29,15.67-28.4,34.55-28.35,40.52.07,58.05,41.95,65.6,75.5,5.67,25.19,10.03,50.62,15.02,75.94.66,3.34,1.36,6.69,2.02,10.03Z"/>
    <path class="cls-3" d="M1268.37,617.77c-5.46,22.29-29.93,38-51.58,25.44-17.07-9.9-26.39-31.46-32.8-49.21-1.34-3.73-2.61-7.47-3.8-11.22,5.73-1.15,11.42-2.67,16.66-3.83,13.23-2.98,26.03-7.2,38.94-11.42,9.16-2.98,20.5-6.22,29.9-10.74,4.08,20.21,7.75,40.37,2.68,60.98Z"/>
  </g>
  <g>
    <path class="cls-3" d="M1265.8,609.75c-.49,6.86-1.47,16.17-5.1,22.2-2.9,4.83-9.85,8.34-15.08,10.13-4.26,1.46-8.75,1.89-13.2,1.22-7.16-1.08-14.79-4.49-20.78-8.57-13.8-9.44-24.89-23.54-34.29-37.13-12.09-17.5-21.73-36.82-29.55-56.55-8.28-20.89-15.73-42.24-23.07-63.48-3.59-10.38-7.16-20.74-11.24-30.93-2.31-5.76-4.57-11.53-6.95-17.26-1.89-4.55-2.9-6.98-6.7-9.97-3.83-3.02-7.17-6.89-10.34-10.58-6.44-7.47-12.03-15.61-18.01-23.45-5.39-7.08-28.39-39.09-33.3-48.66-1.61-3.13-2.73-6.58-2.75-10.1,0-2.02.4-4.31,1.77-5.89.5-.57,2.47-2.39,5.44-2.54-1.3-2.4-2-4.98-1.22-7.94.84-3.11,3.93-6.13,6.3-6.86,1.78-.54,3.65-.15,5.51.84-.93-6.08,1.9-9.4,4.6-10.87,2.56-1.38,5.08-1.28,7.53-.32-.28-3.24,1.43-7.51,6.33-8.37,6.02-1.05,11.74,4.98,15.54,8.82,5.98,6.08,11.52,12.56,16.82,19.24-1.02-5.6-1.03-11.19.66-16.1,1.28-3.73,4.79-8.03,9.06-5.24,3.33,2.19,4.48,6.79,5.18,10.38,1,5.08,2.58,10.25,4.71,14.96,5.99,13.15,18.26,22.39,21.15,36.96,1.24,6.23,1.27,12.64,1.3,19,.06,12.14-1.62,24.13,3.51,35.44,4.83,10.66,12.53,19.63,18.94,29.33,12.3,18.66,25.73,36.65,39.25,54.42,17.91,23.54,37.94,47.06,49.7,74.74,5.76,13.6,9.34,28.31,8.28,43.14Z"/>
    <g class="cls-7">
      <path class="cls-1" d="M1091.2,291.21c3.7,7.35,8.27,14.19,13.23,20.74,5,6.59,9.65,13.41,14.39,20.18,2.63,3.76,5.04,7.6,8.39,10.77.63.6,1.55-.15,1.17-.91-1.83-3.65-3.73-7.19-5.94-10.63s-4.67-6.85-7.05-10.23c-4.73-6.74-9.77-13.25-14.56-19.95-2.7-3.77-5.55-7.33-8.85-10.59-.42-.41-1.04.11-.79.61h0Z"/>
      <path class="cls-1" d="M1057.92,285.64c2.59,3.58,5.63,6.72,8.61,9.98,3.04,3.33,6.01,6.72,8.96,10.12,5.85,6.74,11.54,13.63,17.08,20.62,3.24,4.09,6.36,8.28,9.89,12.11.82.88,2.11-.24,1.6-1.24-2.09-4.12-5-7.68-7.77-11.36-2.69-3.57-5.41-7.13-8.24-10.6-5.75-7.06-11.71-13.93-17.95-20.56-3.46-3.67-6.86-7.34-10.95-10.32-.72-.53-1.77.52-1.25,1.25h0Z"/>
      <path class="cls-1" d="M1047.38,292.15c-.25.8-.5,1.74-.41,2.58.11,1.01.6,2.05,1.04,2.95.85,1.75,2.04,3.32,3.16,4.9,2.65,3.73,4.83,7.76,7.55,11.45,5.92,8.01,12.96,15.12,19.37,22.72,3.2,3.79,5.8,8.22,10.15,10.83,1.05.63,1.89-.74,1.22-1.58-2.64-3.33-5.02-6.89-7.62-10.25-2.89-3.74-5.99-7.34-9.12-10.87s-6.39-7.14-9.46-10.83-5.41-7.37-7.92-11.21c-1.15-1.76-2.52-3.36-3.66-5.13-.53-.81-1.04-1.66-1.38-2.57-.37-.97-.83-1.97-1.06-2.98-.22-.97-1.59-.87-1.86,0h0Z"/>
      <path class="cls-1" d="M1035.59,303.61c-2.12,3.38-.45,7.31,1.29,10.48,1.96,3.56,4.54,6.73,6.76,10.13,1.17,1.79,2.21,3.67,3.4,5.45,1.48,2.22,3.07,4.36,4.7,6.47,3.14,4.08,6.5,7.98,9.67,12.03,1.84,2.35,3.58,4.76,5.45,7.09s3.95,5.11,6.6,6.56c.78.42,1.97-.29,1.62-1.24-.89-2.41-2.73-4.54-4.31-6.54s-3.08-4.11-4.63-6.15c-3.01-3.98-6.22-7.81-9.38-11.66-3.15-3.83-6.18-7.72-8.84-11.91-2-3.16-4.47-5.99-6.56-9.09-2.24-3.34-4.2-7.16-4.51-11.25-.05-.66-.89-.94-1.27-.34h0Z"/>
    </g>
  </g>
  <g>
    <g>
      <path class="cls-5" d="M1151.91,450.48s-2.65,78.55-4.58,117.76c-.16,3.24-.29,6.48-.41,9.72-1.31,35.69-.5,71.54-2.43,107.27-.88,16.36-1.24,32.8-1.46,49.25-3.06,1.66-6.17,2.96-9.4,2.67-6.05-.54-8.81-6.16-12.12-10.6-4.67-6.26-9.54-12.2-13.99-18.51-8.84-12.59-16.75-25.95-26.28-38.12-6.88-8.78-23.39-17.78-30.59-2.86-5.05,10.44,5.07,24.02,10.66,31.92,13.01,18.43,31.21,40.33,36.53,62.69,4.86,20.43,7.42,44.06,23.1,59.79,6.19,6.2,12.9,12.02,19.32,18.07-.52,26.56.32,53.17-1.56,79.49-2.12,29.89-1.37,59.55-2.96,89.38-10.06.66-20.83-.75-30.92-1.19-27.54-1.19-55.12-.84-82.66-1.9-62.64-2.42-125.67,0-188.36-.9-21.43-.31-42.86-.41-64.26-1.41-7-.34-18.43,1.15-24.73-1.55-1.18-23.82-2.21-47.71-2.4-71.67-.25-29.03.37-57.89,1.4-86.78.62-17.16,1.38-34.33,2.21-51.57,2.43-50.79-.06-101.62,2.3-152.4.93-19.97.22-40,1.15-59.98,1.02-21.78,3.17-43.57,3.95-65.35.44-12.03.8-24.07,1.4-36.1.29-6.01,1.09-38.4,1.09-38.4,0,0,116.45-2.22,168.78.53,29.06,1.53,58.37,2.53,87.48,2.59,31.21.07,62.56,2.61,93.77,3.49,15.23.44,45.98,4.68,45.98,4.68Z"/>
      <g>
        <path class="cls-13" d="M796.7,482.56c-1.62.86-.28,3.3.47,4.31.98,1.32,2.44,2.21,4.04,2.57,3.65.82,7.41-.57,10.57-2.33l-2.59-.68c1.88,2.46,4.37,4.49,7.64,3.66,2.43-.61,4.25-2.45,6.47-3.5,1.02-.49,1.87-.66,2.95-.24,1.56.61,2.93,1.48,4.61,1.73,3.93.59,7.48-1.46,11.25-2.12,2.15-.38,1.51-3.57-.49-3.66-1.78-.08-3.53.31-5.25.76-1.57.41-3.28,1.09-4.94.84-1.37-.21-2.61-1.02-3.89-1.5-1.4-.53-2.84-.59-4.27-.17-2.31.67-4.09,2.25-6.13,3.43-.71.41-1.52.82-2.23.69-1.04-.19-2.03-1.34-2.74-2.22-.52-.64-1.63-.69-2.3-.3-2.25,1.33-5.13,2.7-7.83,2.26-1.04-.17-1.94-.69-2.61-1.5-.65-.79-1.33-2.78-2.73-2.04h0Z"/>
        <path class="cls-13" d="M853.02,484.95c6.93,5.54,16.11,2.33,24.16,2.8,4.43.26,8.84.51,13.28.47,4.54-.04,9.54.11,13.88-1.39,1.85-.64,1.44-3.12-.45-3.31-4.28-.42-8.69.34-12.98.44-4.33.1-8.69.07-13.02-.11-8.02-.32-16.1,2.35-23.87-.63-.94-.36-1.8,1.09-1,1.73h0Z"/>
        <path class="cls-13" d="M918.53,486.53c2.74,1.77,5.75,2.95,9.05,2.84,3.29-.1,6.37-1.38,9.1-3.17-.94-.54-1.88-1.08-2.82-1.62-.1,2.19.47,4.53,2.66,5.47,1.79.77,3.81.34,5.62-.16.81-.23,1.61-.5,2.43-.67,1.26-.26,2.56-.1,3.82.07,3.2.42,6.3.85,8.95-1.39.79-.66.76-1.99.16-2.75-.69-.86-1.73-.99-2.7-.54-2.05.95-4.27.4-6.42.14-2.11-.25-4.13-.1-6.17.52-.68.21-1.36.44-2.05.63-.34.09-.68.18-1.02.26-.15.03-.29.07-.44.1-.38.07.04.01-.17.02-.17,0-.9-.07-.51,0-.21-.04-.08.04-.13-.03-.03-.04-.09-.07-.17-.34-.13-.43-.11-.88-.11-1.33,0-1.32-1.63-2.47-2.82-1.62-2.14,1.54-4.53,2.83-7.2,3.04s-5.4-.49-7.82-1.59c-1.41-.65-2.58,1.25-1.23,2.11h0Z"/>
        <path class="cls-13" d="M790.24,557.73c1.11,1.13,2.86,1.52,4.31,2.03,1.45.51,2.93.93,4.46,1.13,3.73.49,6.86-1.01,9.67-3.36-.85-.49-1.69-.99-2.54-1.48-.63,1.79-.97,3.99.58,5.42,1.36,1.26,3.47,1.1,5.15.79,3.39-.63,7.1-2.21,9.92-4.22-.84-.34-1.68-.68-2.51-1.02.62,2,1.58,4.09,3.48,5.17,1.56.89,3.34.86,5.05.55,1.65-.3,3.23-.89,4.87-1.23s2.98.03,4.63.4c1.56.35,2.34-1.35,1.45-2.5-2.23-2.88-6.87-1.42-9.74-.59-1.19.34-2.66.81-3.74.63-1.56-.25-2.24-1.91-2.7-3.33-.31-.96-1.58-1.71-2.51-1.02-2.24,1.63-4.99,2.84-7.63,3.62-.62.18-1.52.4-1.96.44-.75.08-1,.06-1.5-.08.06.02-.09-.07-.12-.08-.24-.1.12.14-.05-.09.13.18,0,.08-.01-.08,0-.14,0,.14-.02-.14-.01-.18,0-.39.01-.57.04-.42.17-.84.3-1.24.48-1.54-1.47-2.42-2.54-1.48-2.39,2.09-5.01,3.16-8.19,2.67-2.4-.37-5.76-1.86-8.07-.58-.09.05-.11.18-.03.26h0Z"/>
        <path class="cls-13" d="M849.27,560.23c1.39.82,2.9,1.61,4.48,1.97,1.78.4,3.61.64,5.43.78,3.33.27,6.64.12,9.97.11,1.4,0,2.28.21,3.58.72,1.57.61,3.18.81,4.81.33,1.25-.37,2.36-1.07,3.53-1.62,1.29-.61,2.21-.59,3.41.14s2.33,1.13,3.76,1.01c1.61-.14,3.05-.83,4.62-1.12,1.62-.3,3.38-.08,5.02.01,1.71.09,3.43.19,5.14.06,1.78-.13,3.51-.49,5.3-.5,1.5,0,2.99.17,4.49.32,1.66.16,3.37.33,5.03.2,1.79-.14,3.42-.88,5.18-1.17s3.23.2,4.86.59c1.8.43,3.67.57,5.51.58,2.14.01,4.28-.18,6.41-.47s4.2-.48,6.1-1.44c1.41-.71.61-2.67-.75-2.76-1.81-.13-3.59.36-5.37.62-1.81.26-3.65.43-5.48.47-1.58.03-3.21.02-4.76-.28s-2.95-.79-4.49-.92-3.12.18-4.65.61c-1.78.5-3.37.7-5.21.61-3.14-.15-6.21-.71-9.36-.34-1.67.19-3.3.43-4.99.42-1.84-.02-3.66-.2-5.5-.23-1.55-.03-3.03.09-4.52.53-1.15.34-2.65,1.08-3.84.6s-2.1-1.33-3.5-1.48c-1.48-.16-2.85.3-4.17.93-1.08.52-2.15,1.29-3.37,1.43-1.47.17-2.78-.85-4.17-1.17-1.6-.36-3.39-.16-5.02-.11-1.82.05-3.62.19-5.44.28-3.84.2-7.85.08-11.61-.74-.62-.14-1.02.7-.44,1.04h0Z"/>
        <path class="cls-13" d="M959.41,561.65c3.31,1.4,7.3,1.84,10.85,2.29s7.35.66,11.06.74c2.86.06,5.7.37,8.56.39,2.53.02,6.24.26,7.85-2.03.57-.81,0-2.09-.93-2.3-1.31-.29-2.35.11-3.64.28-1.33.18-2.69.22-4.03.22-2.66.02-5.31-.18-7.96-.14-3.49.05-6.95-.03-10.43-.35-1.74-.16-3.48-.3-5.21-.5-1.84-.2-3.75-.57-5.6-.49-.9.04-1.5,1.46-.51,1.87h0Z"/>
        <path class="cls-13" d="M1007.04,563.01c2.81,1.01,5.77,1.16,8.74,1.15,1.48,0,2.95-.1,4.43-.14,1.51-.04,3.02.04,4.53.05,2.01.02,1.95-2.91,0-3.08-2.84-.24-5.82.28-8.64.6-2.88.33-5.82.53-8.69.06-.89-.15-1.24,1.05-.38,1.36h0Z"/>
        <path class="cls-13" d="M1054.74,577.29c-.44.5-.73.98-.93,1.62l2.25.62c.34-1.52.12-3.18.22-4.74.11-1.88.22-3.76.4-5.63.34-3.44.71-6.88,1.04-10.33.05-.54.11-1.08.22-1.62.05-.23.11-.46.17-.69.03-.11.08-.23.12-.34-.05.16-.07.17.01.01.12-.21-.2.1.15-.19-.25.21-.08.05.08-.04.3-.16.04-.03-.03,0,.1-.04.22-.08.32-.11.25-.06.5-.12.75-.17,3.77-.71,8.01-.66,11.93-.74,3.42-.07,6.83-.47,10.24-.48,1.11,0,2.58-.09,3.43.63,1.14.96.92,2.67.81,3.99-.35,4.28-.01,8.71-.89,12.93-.26,1.26-.49,2.62-.94,3.83.01-.04-.29.34-.05.13,0,0,.23-.06.03-.02s-.41.11-.63.14c-1.29.2-3.51.15-5.1.21-2.39.1-4.78.21-7.16.26-4.74.1-9.54,0-14.15-1.21-2.15-.57-3.07,2.76-.92,3.33,4.61,1.22,9.44,1.42,14.18,1.36,4.32-.05,8.72-.09,13.02-.45,1.17-.1,2.35-.29,3.21-1.16.79-.8,1.08-1.95,1.34-3.01.52-2.12.95-4.24,1.13-6.43.21-2.59.11-5.19.3-7.78.27-3.53.84-7.89-3.11-9.68-3.05-1.38-6.9-.54-10.12-.37-5.03.27-10.06.1-15.08.58-2.61.25-5.32.56-6.37,3.34-.6,1.58-.61,3.4-.73,5.07-.15,2.11-.38,4.21-.58,6.31-.22,2.4-.4,4.81-.42,7.23-.02,1.87-.04,4.5,1.05,6.1.83,1.23,2.75.15,2.01-1.18-.22-.39-.4-.74-.54-1.17-.09-.26-.45-.41-.66-.17h0Z"/>
        <path class="cls-13" d="M1071.58,561c.06-.46.15-.81.38-1.23-1.06-.14-2.12-.28-3.18-.42.58,4.06,1.23,8.16,2.55,12.05.5,1.47,2.38,2.14,3.55.94,4.06-4.18,7.57-8.87,10.82-13.7,1.62-2.4,3.18-4.85,4.64-7.35,1.47-2.51,3.03-5.01,4.11-7.71.65-1.64-1.93-3.16-3.02-1.76-1.7,2.19-3.03,4.62-4.5,6.96-1.54,2.45-3.09,4.9-4.7,7.3-3.13,4.65-6.55,9.12-10.34,13.25,1.18.31,2.37.62,3.55.94-1.43-3.86-2.06-7.93-3.29-11.85-.91-2.9-5.23-.05-2.56,1.96.27.21.32.46.46.8.27.64,1.44.49,1.54-.2h0Z"/>
        <path class="cls-13" d="M1048.65,638.59c-.44.5-.73.98-.93,1.62l2.25.62c.34-1.52.12-3.18.22-4.74.11-1.88.22-3.76.4-5.63.34-3.44.71-6.88,1.04-10.33.05-.54.11-1.08.22-1.62.05-.23.11-.46.17-.69.03-.11.08-.23.12-.34-.05.16-.07.17.01.01.12-.21-.2.1.15-.19-.25.21-.08.05.08-.04.3-.16.04-.03-.03,0,.1-.04.22-.08.32-.11.25-.06.5-.12.75-.17,3.77-.71,8.01-.66,11.93-.74,3.42-.07,6.83-.47,10.24-.48,1.11,0,2.58-.09,3.43.63,1.14.96.92,2.67.81,3.99-.35,4.28-.01,8.71-.89,12.93-.26,1.26-.49,2.62-.94,3.83.01-.04-.29.34-.05.13,0,0,.23-.06.03-.02s-.41.11-.63.14c-1.29.2-3.51.15-5.1.21-2.39.1-4.78.21-7.16.26-4.74.1-9.54,0-14.15-1.21-2.15-.57-3.07,2.76-.92,3.33,4.61,1.22,9.44,1.42,14.18,1.36,4.32-.05,8.72-.09,13.02-.45,1.17-.1,2.35-.29,3.21-1.16.79-.8,1.08-1.95,1.34-3.01.52-2.12.95-4.24,1.13-6.43.21-2.59.11-5.19.3-7.78.27-3.53.84-7.89-3.11-9.68-3.05-1.38-6.9-.54-10.12-.37-5.03.27-10.06.1-15.08.58-2.61.25-5.32.56-6.37,3.34-.6,1.58-.61,3.4-.73,5.07-.15,2.11-.38,4.21-.58,6.31-.22,2.4-.4,4.81-.42,7.23-.02,1.87-.04,4.5,1.05,6.1.83,1.23,2.75.15,2.01-1.18-.22-.39-.4-.74-.54-1.17-.09-.26-.45-.41-.66-.17h0Z"/>
        <path class="cls-13" d="M1065.49,622.3c.06-.46.15-.81.38-1.23-1.06-.14-2.12-.28-3.18-.42.58,4.06,1.23,8.16,2.55,12.05.5,1.47,2.38,2.14,3.55.94,4.06-4.18,7.57-8.87,10.82-13.7,1.62-2.4,3.18-4.85,4.64-7.35,1.47-2.51,3.03-5.01,4.11-7.71.65-1.64-1.93-3.16-3.02-1.76-1.7,2.19-3.03,4.62-4.5,6.96s-3.09,4.9-4.7,7.3c-3.13,4.65-6.55,9.12-10.34,13.25,1.18.31,2.37.62,3.55.94-1.43-3.86-2.06-7.93-3.29-11.85-.91-2.9-5.23-.05-2.56,1.96.27.21.32.46.46.8.27.64,1.44.49,1.54-.2h0Z"/>
        <path class="cls-13" d="M1048.94,703.99c-.44.5-.73.98-.93,1.62l2.25.62c.34-1.52.12-3.18.22-4.74.11-1.88.22-3.76.4-5.63.34-3.44.71-6.88,1.04-10.33.05-.54.11-1.08.22-1.62.05-.23.11-.46.17-.69.03-.11.08-.23.12-.34-.05.16-.07.17.01.01.12-.21-.2.1.15-.19-.25.21-.08.05.08-.04.3-.16.04-.03-.03,0,.1-.04.22-.08.32-.11.25-.06.5-.12.75-.17,3.77-.71,8.01-.66,11.93-.74,3.42-.07,6.83-.47,10.24-.48,1.11,0,2.58-.09,3.43.63,1.14.96.92,2.67.81,3.99-.35,4.28-.01,8.71-.89,12.93-.26,1.26-.49,2.62-.94,3.83.01-.04-.29.34-.05.13,0,0,.23-.06.03-.02s-.41.11-.63.14c-1.29.2-3.51.15-5.1.21-2.39.1-4.78.21-7.16.26-4.74.1-9.54,0-14.15-1.21-2.15-.57-3.07,2.76-.92,3.33,4.61,1.22,9.44,1.42,14.18,1.36,4.32-.05,8.72-.09,13.02-.45,1.17-.1,2.35-.29,3.21-1.16.79-.8,1.08-1.95,1.34-3.01.52-2.12.95-4.24,1.13-6.43.21-2.59.11-5.19.3-7.78.27-3.53.84-7.89-3.11-9.68-3.05-1.38-6.9-.54-10.12-.37-5.03.27-10.06.1-15.08.58-2.61.25-5.32.56-6.37,3.34-.6,1.58-.61,3.4-.73,5.07-.15,2.11-.38,4.21-.58,6.31-.22,2.4-.4,4.81-.42,7.23-.02,1.87-.04,4.5,1.05,6.1.83,1.23,2.75.15,2.01-1.18-.22-.39-.4-.74-.54-1.17-.09-.26-.45-.41-.66-.17h0Z"/>
        <path class="cls-13" d="M1065.78,687.69c.06-.46.15-.81.38-1.23l-3.18-.42c.58,4.06,1.23,8.16,2.55,12.05.5,1.47,2.38,2.14,3.55.94,4.06-4.18,7.57-8.87,10.82-13.7,1.62-2.4,3.18-4.85,4.64-7.35s3.03-5.01,4.11-7.71c.65-1.64-1.93-3.16-3.02-1.76-1.7,2.19-3.03,4.62-4.5,6.96-1.54,2.45-3.09,4.9-4.7,7.3-3.13,4.65-6.55,9.12-10.34,13.25l3.55.94c-1.43-3.86-2.06-7.93-3.29-11.85-.91-2.9-5.23-.05-2.56,1.96.27.21.32.46.46.8.27.64,1.44.49,1.54-.2h0Z"/>
        <path class="cls-13" d="M1045.5,797.06c-.44.5-.73.98-.93,1.62l2.25.62c.34-1.52.12-3.18.22-4.74.11-1.88.22-3.76.4-5.63.34-3.44.71-6.88,1.04-10.33.05-.54.11-1.08.22-1.62.05-.23.11-.46.17-.69.03-.11.08-.23.12-.34-.05.16-.07.17.01.01.12-.21-.2.1.15-.19-.25.21-.08.05.08-.04.3-.16.04-.03-.03,0,.1-.04.22-.08.32-.11.25-.06.5-.12.75-.17,3.77-.71,8.01-.66,11.93-.74,3.42-.07,6.83-.47,10.24-.48,1.11,0,2.58-.09,3.43.63,1.14.96.92,2.67.81,3.99-.35,4.28-.01,8.71-.89,12.93-.26,1.26-.49,2.62-.94,3.83.01-.04-.29.34-.05.13,0,0,.23-.06.03-.02s-.41.11-.63.14c-1.29.2-3.51.15-5.1.21-2.39.1-4.78.21-7.16.26-4.74.1-9.54,0-14.15-1.21-2.15-.57-3.07,2.76-.92,3.33,4.61,1.22,9.44,1.42,14.18,1.36,4.32-.05,8.72-.09,13.02-.45,1.17-.1,2.35-.29,3.21-1.16.79-.8,1.08-1.95,1.34-3.01.52-2.12.95-4.24,1.13-6.43.21-2.59.11-5.19.3-7.78.27-3.53.84-7.89-3.11-9.68-3.05-1.38-6.9-.54-10.12-.37-5.03.27-10.06.1-15.08.58-2.61.25-5.32.56-6.37,3.34-.6,1.58-.61,3.4-.73,5.07-.15,2.11-.38,4.21-.58,6.31-.22,2.4-.4,4.81-.42,7.23-.02,1.87-.04,4.5,1.05,6.1.83,1.23,2.75.15,2.01-1.18-.22-.39-.4-.74-.54-1.17-.09-.26-.45-.41-.66-.17h0Z"/>
        <path class="cls-13" d="M1062.34,780.77c.06-.46.15-.81.38-1.23-1.06-.14-2.12-.28-3.18-.42.58,4.06,1.23,8.16,2.55,12.05.5,1.47,2.38,2.14,3.55.94,4.06-4.18,7.57-8.87,10.82-13.7,1.62-2.4,3.18-4.85,4.64-7.35,1.47-2.51,3.03-5.01,4.11-7.71.65-1.64-1.93-3.16-3.02-1.76-1.7,2.19-3.03,4.62-4.5,6.96s-3.09,4.9-4.7,7.3c-3.13,4.65-6.55,9.12-10.34,13.25l3.55.94c-1.43-3.86-2.06-7.93-3.29-11.85-.91-2.9-5.23-.05-2.56,1.96.27.21.32.46.46.8.27.64,1.44.49,1.54-.2h0Z"/>
        <path class="cls-13" d="M795.55,591.09c.19,0,.07.12.26.26.3.22.5.28.88.32.58.07,1.17.03,1.75.06,1.43.07,2.89.15,4.32.08,2.99-.15,5.89-.85,8.86-1.21,1.76-.21,3.53-.36,5.3-.52,1.77-.16,3.48-.31,5.24,0,1.66.29,3.27.77,4.93,1.07,1.9.35,3.76.42,5.68.37,2.26-.05,4.53-.1,6.79-.08,2.38.02,4.76.23,7.13.05,1.85-.14,2.46-2.9.46-3.39-4.01-.98-8.38-.67-12.47-.57-1.94.05-3.9.21-5.83-.04-1.66-.22-3.28-.7-4.92-1.02-3.75-.75-7.33-.24-11.07.29-3.04.43-6.05,1.29-9.1,1.61-1.63.17-3.26.32-4.88.58-.71.11-1.45.23-2.14.43-.31.09-.69.21-.92.44-.26.26-.21.63-.42.88-.13.15-.05.38.16.39h0Z"/>
        <path class="cls-13" d="M861.6,589.9c6.68,1.58,13.55,1.91,20.39,2.17,6.85.26,13.68.12,20.52-.38,3.36-.25,6.73-.81,10.1-.54,3.51.28,6.88.99,10.41.41,3.35-.55,6.49-1.79,9.89-2.07,1.01-.09,1.84.85,2.77,1.32,1.47.76,3.02.87,4.65.73,1.92-.17,3.8-.6,5.73-.64,1.98-.05,3.96.1,5.93.26,1.98.16,3.97.34,5.96.36,2.23.02,4.14-.29,6.24-1,1.69-.57,1.55-3.54-.45-3.31-1.73.2-3.59.14-5.34.13-1.84-.02-3.66-.18-5.49-.34-3.52-.3-6.94-.5-10.45,0-1.28.18-2.91.61-4.19.28-1.26-.32-2.24-1.45-3.49-1.86-1.4-.47-3.08-.19-4.5.03-1.85.29-3.64.83-5.45,1.3-1.47.38-2.94.75-4.46.79-1.74.04-3.47-.19-5.19-.4-1.57-.19-3.15-.37-4.74-.35-1.81.02-3.63.29-5.44.45-6.77.59-13.54.82-20.32,1.05-7.59.25-15.17-.33-22.74-.75-1.36-.08-1.65,2.06-.32,2.38h0Z"/>
        <path class="cls-13" d="M976.11,590.24c3.5,1.45,7.39,2.69,11.2,2.67,3.92-.02,7.73-1.1,11.64-1.26,3.99-.16,8.04.67,12,1.05,4.1.4,8.44.9,12.55.34,2.43-.33,1.71-4.06-.56-4.14-2.07-.07-4.15.07-6.23-.02-1.92-.08-3.84-.23-5.76-.4-3.94-.35-8.04-1.01-12-.74-3.84.25-7.57,1.4-11.41,1.56-3.78.16-7.4-1.25-11.14-1.2-1.31.02-1.37,1.69-.29,2.14h0Z"/>
        <path class="cls-13" d="M793.21,613.04c-.37,2.14,1.77,3.11,3.5,3.55,2.56.66,5.29.77,7.92.81,2.65.05,5.29-.01,7.94-.15.89-.04,1.77-.13,2.66-.19,2.22-.15,4.35.23,6.52.62,2.32.41,4.64.72,6.99.6,2.44-.13,4.85-.57,7.26-.94,4.89-.76,9.88-.6,14.81-.4s10.32.63,15.48.92c5,.28,9.93.15,14.93-.06,4.58-.19,9.15.07,13.73.02,4.27-.05,8.89-.11,12.32-2.95,1.23-1.01-.14-2.67-1.41-2.43-3.38.63-6.9.99-10.33,1.04-3.66.06-7.31-.19-10.97-.14-4.69.06-9.38.48-14.07.33-4.92-.16-9.84-.56-14.76-.84-4.88-.28-9.78-.49-14.67-.33-4.61.15-9.1,1.52-13.71,1.5-4.25-.02-8.3-1.55-12.58-1.19-1.97.17-3.94.37-5.92.49-2.96.18-5.92.26-8.88.17-.66-.02-1.32-.06-1.98-.12s-.77-.07-1.38-.2c-.21-.04-.41-.09-.62-.16-.34-.1-.09-.04-.25-.1-.23-.09-.3-.12-.47-.18.15.05.19.09.02,0-.02-.01.24.35.11.04-.4-.92-2.02-.69-2.19.29h0Z"/>
        <path class="cls-13" d="M917.58,618.86c5.23,1.93,10.89,2.66,16.43,3.04,5.94.41,11.93.4,17.87,0,5.65-.37,11.28-.95,16.91-1.57,6.58-.72,13.16-1.11,19.78-1.3,3.91-.11,7.82-.17,11.72-.24s7.83-.08,11.7-.64c2.3-.33,1.57-3.75-.52-3.87-3.39-.2-6.8-.04-10.2.02-3.42.05-6.84.08-10.25.15-6.8.13-13.6.44-20.36,1.21-11.25,1.28-22.61,2.58-33.95,2.49-6.2-.05-12.33-.66-18.39-1.95-1.74-.37-2.38,2.04-.73,2.65h0Z"/>
        <path class="cls-13" d="M790.44,644.24c.53.26,1.12.49,1.56.89.57.53.73.74,1.54.91,1.31.27,2.65.44,3.96.68,2.6.49,5.18,1.06,7.8,1.46,2.58.39,5.19.68,7.8.57,2.38-.11,4.66-.79,7.01-1.02,2.03-.2,3.85.37,5.76.94,2.29.69,4.61.51,6.97.54,5.47.06,10.9.81,16.38.86,11.09.09,22.12-2.02,33.21-1.44,5.45.29,10.86,1.02,16.3,1.31,5.45.3,10.73-.24,16.14-.79,5.73-.58,11.37-.62,17.12-.5,2.94.06,5.88.05,8.82.12,2.8.07,5.6.43,8.39.24,2-.14,2.31-2.72.46-3.42-2.4-.9-4.99-.93-7.53-1.02-2.58-.09-5.17-.1-7.76-.12-5.17-.06-10.29-.3-15.46.12-5.27.42-10.5,1.33-15.79,1.35-5.41.02-10.79-.62-16.18-1.06-11-.91-21.87.44-32.86.76-5.63.16-11.19-.24-16.8-.57-2.71-.16-5.43,0-8.13-.13-1.73-.08-3.29-.86-4.98-1.17-2.76-.51-5.25-.06-7.95.52-2.78.6-5.58.62-8.4.37-2.99-.27-5.95-.82-8.91-1.27-1.49-.23-2.98-.42-4.48-.57-.73-.07-1.25-.12-1.9.28-.68.43-1.32.73-2.07,1.03-.06.02-.09.12-.02.15h0Z"/>
        <path class="cls-13" d="M963.41,649.3c1.86-.01,3.58,0,5.45.27,2.01.31,3.98.81,5.96,1.3s4.01.98,6.06,1.22c2.49.29,5,.16,7.49-.05,2.69-.23,5.38-.57,8.08-.61,1.78-.03,3.55.02,5.33-.08,3.87-.21,7.72-.64,11.6-.82,2.11-.1,4.23-.13,6.34.05,1.76.15,3.45.68,5.22.8,1.54.1,2.25-1.96,1.23-2.97-1.26-1.25-2.92-1.67-4.64-1.91-1.94-.28-3.88-.37-5.84-.35-4.05.05-8.08.48-12.11.86-4.28.4-8.56.39-12.84.91-2.77.34-5.55.69-8.35.61-2.07-.06-4.08-.45-6.1-.86-2.38-.48-4.77-.98-7.19-1.23-1.92-.2-4.56-.14-6.18,1.03-.74.54-.55,1.83.49,1.82h0Z"/>
        <path class="cls-13" d="M790.86,675.99c.23,1.65,2.1,2.51,3.51,3.01,1.53.54,3.21.69,4.82.68,3.64,0,7.2-.78,10.84-.27,4.06.57,7.91,1.52,12.04,1.53,4.32,0,8.62-.29,12.93-.45,2.43-.08,4.86-.12,7.28-.03,2.57.1,5.11.45,7.67.23,1.4-.12,2.38-2.24.8-2.96-3.92-1.8-8.47-1.69-12.72-1.64-4.22.05-8.44.36-12.65.47-2.11.06-4.25.12-6.36-.03-1.88-.13-3.73-.49-5.59-.82s-3.9-.64-5.87-.67c-1.75-.03-3.51.2-5.24.43-1.88.25-3.77.47-5.67.35-.78-.05-1.59-.19-2.31-.5-.82-.36-1.41-.78-2.33-.87-.87-.08-1.26.83-1.17,1.53h0Z"/>
        <path class="cls-13" d="M864.48,679.89c4.89,1.27,9.98,1.49,15.02,1.65,5.06.16,10.13,0,15.19-.16,5.06-.15,10.12-.36,15.18-.52,5.05-.16,10.21.02,15.21-.82,1.61-.27,1.6-2.97,0-3.25-4.99-.87-10.17-.5-15.21-.35-5.06.15-10.12.35-15.18.54-5.06.2-10.13.3-15.19.49-5.01.19-10.04.21-15.02.9-.8.11-.7,1.34,0,1.52h0Z"/>
        <path class="cls-13" d="M938.42,681.56c2-.97,4.47-1.13,6.68-1.24,2.37-.12,4.76-.1,7.12.04,5.06.3,10.09.98,15.14,1.4,11.52.96,23.03-.82,34.51-1.59,3.58-.24,7.17-.41,10.76-.45,3.65-.04,7.31.27,10.95.21,2.28-.04,2.98-3.71.56-4.14-3.28-.58-6.72-.57-10.05-.56-3.26.01-6.52.14-9.77.34-6.62.4-13.22,1.07-19.83,1.64-5.37.46-10.64.81-16.02.45-5.1-.34-10.18-.87-15.3-.76-2.82.06-5.66.25-8.41.88-2.5.58-4.66,1.62-6.95,2.72-.71.34-.09,1.4.62,1.06h0Z"/>
        <path class="cls-13" d="M789.93,706.6c3.65-.13,7.29-.37,10.94-.23s7.07.49,10.59.91c6.99.84,14.03,1.84,21.1,1.58,3.32-.12,6.57-.54,9.9-.34,3.09.18,6.09.33,9.17-.13s6.28-.8,9.5-.64c2.94.14,5.87.5,8.79.87,3.36.42,6.73.86,10.12,1.05,2.92.16,6.56.48,9.09-1.26.91-.63.96-2.36-.34-2.61-2.73-.51-5.59-.16-8.36-.3-3.01-.15-6.01-.51-9-.89-5.87-.74-11.71-1.53-17.61-.78-3.21.41-6.24.79-9.49.59-3.21-.2-6.29-.18-9.5.09-7.2.61-14.36-.36-21.52-1.02-3.98-.37-7.97-.73-11.97-.73-3.95,0-7.96.22-11.72,1.54-1.2.42-1.09,2.37.31,2.32h0Z"/>
        <path class="cls-13" d="M904.43,708.01c8.2.49,16.43.57,24.64.78,8,.2,15.99.29,23.99.43,8.16.14,16.32.25,24.48.14,7.83-.11,15.62-.61,23.44-1.02,4.05-.22,8.1-.3,12.16-.16,3.91.14,7.8.84,11.7.83,1.6,0,2.54-2.53.88-3.24-3.29-1.41-6.85-1.67-10.39-1.89s-7.3-.25-10.95-.14c-7.8.23-15.58.88-23.39,1.03-8.25.16-16.5.09-24.74-.04-8.15-.12-16.32-.45-24.47-.32-9.19.15-18.48.43-27.56,1.96-.98.16-.67,1.6.22,1.66h0Z"/>
        <path class="cls-13" d="M789.3,739.69c1.63,1.64,4.92,1.64,7.1,1.69,2.67.06,5.34-.06,8.01-.12,2.62-.06,5.26-.04,7.85.33s5.11.86,7.67,1.24c5.1.75,10.08.89,15.19.08,5.42-.86,10.71-.42,16.16-.02,3.18.23,6.33.17,9.51.06s6.38-.07,9.56-.03c2.38.03,2.9-3.57.56-4.16-5.54-1.41-11.39-.29-17.05-.49s-10.81-.96-16.23-.34c-2.77.32-5.48.92-8.28,1.05-2.36.11-4.71-.02-7.06-.24-5.14-.49-10.19-1.59-15.37-1.41-3.06.1-6.11.43-9.17.64-1.43.1-2.86.13-4.3.23s-2.79-.05-4.05.58c-.34.17-.37.66-.12.92h0Z"/>
        <path class="cls-13" d="M884.04,741.13c1.08.14,2.11.46,3.19.59,1.23.16,2.46.3,3.69.43,2.21.23,4.43.35,6.64.43,4.52.18,9.03.18,13.56.13,9.05-.1,18.08-.5,27.12-.92,18.16-.83,36.32-1.58,54.49-2.12,5.05-.15,10.1-.29,15.14-.41,2.56-.06,5.13-.12,7.69-.17s5.38.04,8.03-.46c2.09-.39,2.17-3.98,0-4.3-2.35-.35-4.67-.23-7.04-.18-2.23.05-4.46.1-6.7.16-4.55.11-9.1.24-13.65.37-9.12.27-18.25.59-27.37.94-18.09.71-36.17,1.76-54.27,2.49-5.01.2-10.03.3-15.04.47-2.54.09-5.09.12-7.63.26-1.31.07-2.62.16-3.93.24s-2.61.34-3.93.4c-1.08.05-1.02,1.5,0,1.63h0Z"/>
        <path class="cls-13" d="M792.39,768.42c.5.91,1.86.84,2.74.77,1.63-.13,3.26-.47,4.88-.76,1.85-.33,3.69-.73,5.54-1.04,1.33-.22,2.7-.44,4.04-.18,2.55.49,4.89,1.65,7.36,2.39,2.74.83,5.43.91,8.24.52,3-.41,5.92-1.17,8.88-1.78s6.05-.82,9.18-.54c3.26.29,6.48.82,9.74,1.1,3.25.28,6.53.24,9.79.33,6.67.18,13.34.45,20.01.71,3.37.13,6.74.26,10.11.36,1.56.05,3.12.12,4.68.14,1.72.02,3.43-.39,5.14-.57,1.6-.17,3.34.18,4.97.23s3.28.1,4.93.12c3.4.05,6.8.06,10.2-.03,13.45-.38,26.85-1.65,40.25.06,2.54.32,3.12-4,.61-4.48-11.7-2.25-23.92-.84-35.7-.08-6.27.4-12.54.62-18.81.77-1.64.04-3.29.04-4.93.16-1.61.11-3.24-.35-4.83-.61-3.24-.54-6.68-.34-9.96-.46-6.58-.24-13.16-.52-19.74-.76-6.51-.23-13.09-.08-19.57-.82-3.15-.36-6.3-.85-9.48-.92-3.07-.06-6.13.52-9.12,1.2-2.87.66-5.76,1.57-8.71,1.84-2.52.23-4.81-.42-7.19-1.19-2.26-.74-4.76-1.58-7.17-1.46-1.92.1-3.84.59-5.7,1.07-1.97.5-3.89,1.14-5.84,1.7-.76.22-1.52.42-2.28.6-.19.04-.67.15-.71.17-.37.17-.23-.15.08.2-.8-.89-2.18.25-1.62,1.25h0Z"/>
        <path class="cls-13" d="M979.8,768.2c6.49,1.2,13.29.34,19.82-.16,3.32-.25,6.65-.46,9.98-.43,1.51.01,3.02.08,4.53.23,1.33.14,2.86.75,4.18.59,2.12-.25,2.95-2.75,1.09-4.03-1.22-.84-3.19-.87-4.61-1.02-1.54-.16-3.09-.21-4.64-.2-3.32.01-6.63.28-9.93.59-6.72.64-13.43,1.5-20.13,2.31-1.09.13-1.59,1.87-.29,2.11h0Z"/>
        <path class="cls-13" d="M795.19,801.5c-.1-.27-.2-.5-.42-.7-.03-.03-.75-.57-.28-.15l.26,1.99c.21-.5.21-.95.25-1.42-.59.59-1.18,1.18-1.76,1.76,7.4-.83,14.84.31,22.24.58,8.15.3,16.26-.99,24.42-.99,4,0,7.99-.33,11.96-.81,4.04-.49,8.06-1.23,12.12-1.56,4.01-.33,8.03-.03,12.04.26,3.85.28,7.7.45,11.55.52,4.21.08,8.43.1,12.64-.05,2.1-.07,4.2-.19,6.3-.37,2.11-.18,4.07-.31,5.96-1.35,1.25-.69,1.04-2.82-.41-3.13-1.77-.38-3.34-.21-5.13-.05s-3.74.28-5.62.36c-3.78.16-7.57.19-11.35.14-3.78-.05-7.56-.12-11.32-.37-4.02-.27-8.05-.67-12.09-.57-3.97.09-7.91.8-11.84,1.33-4.04.54-8.09,1.01-12.16,1.15-4.12.14-8.23.15-12.35.44s-8.1.65-12.16.72c-8.41.15-16.94-1.52-25.28.28-.74.16-1.31.96-1.3,1.7,0,.33.03.65.11.98.26,1.16,1.6,1.52,2.56,1.04.25-.12.38-.29.53-.49.08-.08.14-.17.17-.27.26-.5.17-.48-.26.09.4-.17.79-.59.61-1.07h0Z"/>
        <path class="cls-13" d="M919.37,798.92s.02-.03,0-.03-.02.03,0,.03h0Z"/>
        <path class="cls-13" d="M923.61,800.2c5.21-1.2,10.54-1.1,15.84-.96,6.21.16,12.43.3,18.64.53,6.64.25,13.28.68,19.93.57,6.61-.1,13.21-.56,19.81-.89,3.7-.18,7.4-.33,11.1-.34,1.94,0,3.88-.04,5.81-.05,1.86,0,3.98.21,5.71-.51,1.04-.43,1.36-1.78.32-2.43-1.42-.9-3.16-1.02-4.81-1.19-1.69-.17-3.4-.3-5.09-.33-3.38-.05-6.77.08-10.14.23-6.76.31-13.51.84-20.28,1.05s-13.6-.11-20.41-.32c-6.48-.2-12.96-.29-19.45-.43-5.88-.12-12.76-.44-18.07,2.51-1.42.79-.44,2.91,1.08,2.56h0Z"/>
        <path class="cls-13" d="M784.18,956.93c6.13,1.63,12.32,2.55,18.66,2.84,2.95.14,6.07.43,8.86-.69,1.28-.51,2.58-1.3,3.96-1.5,1.35-.2,2.5.56,3.67,1.12,3.06,1.49,6.1,1.46,9.42,1.08,3.24-.38,6.45-.96,9.71-1.18,7.42-.52,14.85-.7,22.28-1.01,4.28-.18,8.56-.4,12.83-.73,2.04-.16,4.08-.35,6.11-.57,2.2-.24,4.47-.4,6.53-1.25s1.71-3.51-.5-3.71c-1.87-.17-3.71.13-5.57.34s-3.75.39-5.63.55c-3.71.31-7.43.52-11.15.69-7.52.35-15.05.55-22.56,1.05-3.28.22-6.51.59-9.76,1.07-2.74.41-6.31,1.25-8.96.13-1.29-.54-2.47-1.31-3.83-1.69-1.6-.45-3.28-.31-4.84.24-1.4.49-2.69,1.27-4.11,1.7-1.34.4-2.8.44-4.19.5-3.45.15-6.93-.07-10.37-.36s-6.85-.47-10.28-.73c-1.22-.09-1.44,1.8-.29,2.11h0Z"/>
        <path class="cls-13" d="M907.96,955.79c2.68-.1,5.38.4,8.07.41,2.6,0,5.21.04,7.81.08,5.28.08,10.57.25,15.85.5,10.59.49,21.16,1.19,31.75,1.66,2.94.13,5.89.24,8.83.32,1.56.04,3.12.11,4.67.06.74-.03,1.48-.04,2.22-.11.85-.09,1.54-.4,2.35-.64,1.36-.4,1.36-2.35,0-2.75-.61-.18-1.18-.47-1.81-.58s-1.35-.14-2.02-.18c-1.39-.09-2.79-.11-4.18-.14-2.62-.06-5.24-.14-7.86-.24-5.3-.21-10.6-.49-15.9-.77-10.56-.57-21.13-1.16-31.7-1.01-2.93.04-5.86.12-8.79.31-3.15.2-6.17,1.01-9.29,1.33-1.11.12-1.16,1.81,0,1.77h0Z"/>
        <path class="cls-13" d="M1011.4,956.24c2.65-.96,5.62-.81,8.39-.57,2.98.26,5.95.75,8.94.88s5.97-.46,8.94-.89c1.4-.2,2.82-.34,4.24-.3s2.84.46,4.28.72c1.71.3,3.52-1.86,1.89-3.25-2.65-2.25-6.52-2.04-9.78-1.62s-6.24,1.32-9.4,1.48c-6.13.31-12.74-1.74-18.47,1.27-1.23.65-.38,2.77.96,2.29h0Z"/>
      </g>
      <g>
        <path class="cls-15" d="M1322.69,932.9c2.93,2.49,3.81,6.66,2.18,10.15-2.87,6.15-6.75,11.63-12.84,16.9-9.38,8.15-20.36,15.55-31.62,20.78-11.65,5.41-23.88,7.67-34.95,14.33-8.66,5.2-17.07,10.93-25.6,16.26-6.3,3.93-13.09,7.66-20.25,10.09-4.65,1.58-9.7-1.18-10.97-5.91-2.59-9.69-4.51-19.33-6.48-29.33-1.86-9.44-6.55-17.88-8.81-27.23-2.39-9.91-2.45-14.85,4.99-21.5-10.1-12.28-17.35-30.06-23.74-44.53-5.39-12.18-10.58-20.67.13-31.4.87-.88,1.78-1.71,2.71-2.52,6.76-5.82,14.85-9.84,22.01-15.11,11.62-8.54,23.57-17.23,36.73-23.23.84-.38,1.75-.81,2.71-1.22,4.7-2.09,10.58-4.23,15.16-2.24,8.82,3.84,11.43,20.22,15.36,27.9,3.77,7.35,8.76,13.95,12.87,21.09,1.93,3.37,3.15,7.22,5.1,10.52,2.9,4.92,1.89,3.02,7.16,4.57,13.9,4.09,21.11,14.23,28.27,26.13,4.98,8.26,11.66,18.56,19.87,25.52Z"/>
        <g class="cls-8">
          <path class="cls-13" d="M1254.39,887.91c-.72.1-1.43-.02-2.15.08-.54.08-1.06.22-1.58.36-1.36.36-2.68.85-3.99,1.37-2.59,1.03-5.08,2.24-7.53,3.56-4.81,2.59-9.35,5.61-13.89,8.64-8.82,5.87-17.88,11.34-26.19,17.94-4.77,3.79-9.06,7.95-12.73,12.83-1.05,1.39,1.19,3.01,2.37,1.83,3.73-3.73,7.66-7.31,11.77-10.62,3.96-3.18,8.19-6.03,12.45-8.79,8.8-5.7,17.4-11.73,26.3-17.28,2.61-1.63,5.29-3.14,8.02-4.55,1.26-.65,2.54-1.23,3.83-1.83.62-.29,1.27-.54,1.88-.85.73-.37,1.3-.91,2.06-1.23.92-.39.19-1.57-.62-1.47h0Z"/>
        </g>
      </g>
      <g>
        <path class="cls-14" d="M1218.9,819.42c-.96.41-1.87.84-2.71,1.22-13.17,5.99-25.11,14.69-36.73,23.23-7.16,5.27-15.24,9.29-22.01,15.11-2.92-3.89-5.74-7.88-8.91-11.24-2.65-2.83-5.44-5.55-8.28-8.22-6.42-6.05-13.14-11.87-19.32-18.07-15.67-15.73-18.23-39.36-23.1-59.79-5.32-22.36-23.52-44.26-36.53-62.69-5.6-7.9-15.72-21.48-10.66-31.92,7.2-14.92,23.71-5.92,30.59,2.86,9.53,12.17,17.44,25.53,26.28,38.12,4.45,6.32,9.32,12.25,13.99,18.51,3.31,4.45,6.07,10.06,12.12,10.6,3.23.29,6.33-1,9.4-2.67.22-16.45.57-32.89,1.46-49.25,1.93-35.73,1.12-71.58,2.43-107.27,5.63,4.99,10.49,16.08,13.77,22.12,4.58,8.41,7.72,18.13,10.8,27.09,5.71,16.6,11.14,33.29,16.61,50.06,11.15,34.13,17.03,67.37,20.5,102.6,1.35,13.62,5.16,26.79,10.3,39.58Z"/>
        <g class="cls-12">
          <path class="cls-13" d="M1137.28,734.37c1.96.46,4.14-.31,6.03-.84,2.03-.57,4.05-1.17,6.05-1.85s3.95-1.39,5.8-2.33c1.75-.88,3.95-2.02,4.92-3.8.61-1.12-.39-2.18-1.53-2-1.81.29-3.59,1.52-5.24,2.27-1.8.82-3.61,1.6-5.47,2.27-1.87.68-3.77,1.29-5.68,1.87s-4.04,1.03-5.39,2.42c-.6.62-.36,1.77.52,1.98h0Z"/>
          <path class="cls-13" d="M1154.82,683.08c-.08-1.1.26-2.26.25-3.39-.01-1.27,0-2.57-.11-3.84-.18-2.32-.7-4.65-1.07-6.95-.78-4.8-1.82-9.55-2.92-14.28-2.23-9.58-4.94-19.02-8.64-28.14-1.03-2.54-2.13-5.05-3.33-7.51s-2.35-5.07-4.29-6.99c-.94-.93-2.35.03-2.11,1.23.46,2.35,1.65,4.51,2.63,6.7s1.83,4.27,2.69,6.43c1.77,4.45,3.27,8.99,4.71,13.56,2.89,9.18,4.83,18.54,7.06,27.89.61,2.55,1.2,5.1,1.78,7.66.3,1.34.82,2.62,1.27,3.91.19.55.38,1.1.62,1.63.32.72.82,1.39,1.04,2.14.07.23.44.2.43-.06h0Z"/>
        </g>
      </g>
    </g>
    <g>
      <g>
        <path class="cls-14" d="M939.57,575.1c-4.61,9.71-11.8,18.97-18.12,27.63-13.57,18.6-28.74,36.09-43.78,53.5-8.07,9.34-16.25,19.25-22.74,30.02,12.4,10.52,24.67,19.66,26.57,37.12,2.75,25.36-12.2,54.6-27.75,73.99-11.19,13.93-25.13,23.61-41.27,30.75-6.81,3-11.8,12.18-15.07,20.89-19.53-22.59-50.26-30.64-78.11-36.76-10.06-2.21-21.56-5.38-30.96-1.84-.09-3.58-.49-7.34-.49-10.15v-19.05c0-13.54-.09-27.18.55-40.59,1.34-29.08-.74-55,14.77-80.94,5.48-9.19,12.46-16.35,21.36-22.32,8.57-5.74,17.54-6.07,27.28-7.92,3.87-.75,7.41-.72,10.84-.19,3.82-2.03,8.07-3.18,13.27-2.99,8.91.34,14.17,3.18,20.99,7.13,5.58-3.52,12.53-4.89,19.28-4.61,9.38.38,14.92,4.01,21.09,8.65,13.9-14.98,29.19-29.19,43.82-42.88,9.15-8.57,18.34-16.79,27.21-25.69,5.33-5.36,18.51-20.78,27.1-18.91,10.88,2.37,7.39,18.35,4.15,25.17Z"/>
        <g class="cls-11">
          <path class="cls-13" d="M864.13,677c-1.38.19-2.38.6-3.49,1.43-1.23.91-2.25,2.08-3.19,3.28-1.81,2.3-3.28,4.8-4.87,7.25-4.12,6.36-8.87,12.3-13.33,18.43-7.33,10.07-6.02,23.7-8.55,35.31-.81,3.73-2.11,7.35-3.53,10.89-.79,1.97-1.59,3.94-2.45,5.89-.85,1.95-1.86,4.04-2.23,6.14-.23,1.32,1.4,2.66,2.48,1.44,2.43-2.76,3.88-6.56,5.35-9.9s2.77-6.82,3.79-10.34c1.71-5.93,2.14-12.15,2.88-18.25.69-5.67,1.57-11.64,4.38-16.71,1.68-3.03,4.02-5.72,6.06-8.51,2.29-3.14,4.55-6.3,6.78-9.49,3.63-5.2,6.18-11.02,10.69-15.56.61-.61-.04-1.42-.77-1.32h0Z"/>
          <path class="cls-13" d="M851.82,735.52c-.99-3.48-2.78-6.75-4.83-9.78-1.08-1.6-2.27-3.16-3.6-4.55-1.39-1.45-3.09-3.04-5.02-3.69s-3.53,2.1-2.05,3.52c.4.39.87.69,1.32,1.02.17.12.33.25.5.37-.01-.01.51.4.33.25.7.56,1.36,1.17,1.98,1.81,1.25,1.29,2.11,2.41,3.09,3.85,1.96,2.88,3.54,6.07,6.11,8.46.93.87,2.55.02,2.18-1.27h0Z"/>
          <path class="cls-13" d="M844.33,622.67c-4.7,3.43-8.79,7.49-12.85,11.65-1.97,2.01-3.9,4.06-5.78,6.16-.91,1.02-1.81,2.05-2.69,3.1s-1.88,2.03-2.21,3.39c-.37,1.53,1.22,2.68,2.58,1.98,1.19-.61,1.91-1.75,2.76-2.75s1.64-1.88,2.47-2.81c1.93-2.14,3.91-4.24,5.89-6.34,3.95-4.17,7.98-8.22,11.22-12.98.56-.82-.57-2-1.39-1.39h0Z"/>
          <path class="cls-13" d="M806.42,623.74c-3.58.77-6.76,2.25-9.82,4.28-3.23,2.14-6.19,4.77-8.5,7.89-.98,1.32-2.31,3.2-2.21,4.91.09,1.44,1.58,2.44,2.9,1.67.9-.52,1.17-1.59,1.62-2.45,1.62-3.08,4.33-5.48,7.04-7.69,1.59-1.3,3.23-2.54,4.92-3.72,1.6-1.11,3.05-2.4,4.6-3.57.63-.48.29-1.5-.56-1.32h0Z"/>
          <path class="cls-13" d="M773.24,621.07c-1.12.12-2.24.31-3.35.52-1.25.24-2.46.78-3.62,1.3-2.38,1.05-4.6,2.45-6.66,4.04-2.08,1.6-4.04,3.33-5.7,5.38-.77.96-1.52,1.95-2.14,3.01s-1.43,2.61-.93,3.86c.39.98,1.3,1.39,2.28.93s1.53-1.7,2.08-2.62c.53-.89,1.11-1.75,1.77-2.54,1.53-1.85,3.29-3.52,5.16-5.02,1.86-1.49,3.87-2.8,5.9-4.04,1.84-1.13,3.69-2.34,5.64-3.29.7-.34.39-1.61-.41-1.52h0Z"/>
        </g>
      </g>
      <g>
        <path class="cls-15" d="M796.6,885.98c-4.05,12.7-8.59,24.97-13.42,37.34-5.35,13.74-10.28,28-14.38,42.13-1.81,6.28-8.11,24.62-12.37,38.83-1.09,3.62-4.54,6.09-8.31,5.76-14.02-1.26-25.27-15.27-38.23-22.67-10.35-5.89-21.06-10.52-33.11-12.08-16.03-2.09-32.11-1.44-47.99-5.3-10.98-2.68-21.95-7.51-31.24-14.44-3.36-2.51-4.24-7.26-1.94-10.77.01-.02.02-.04.04-.05,5.41-8.15,9.29-17.44,14.51-25.81,4.37-7.04,10-12.55,15.07-18.88,9.77-12.17,16.98-27.31,25.44-40.43,9.22-14.3,17.97-29.53,28.75-42.73,2.62-3.2,5.66-5.26,8.94-6.48,9.4-3.53,20.9-.37,30.96,1.84,27.85,6.13,58.58,14.17,78.11,36.76.52.59,1.03,1.21,1.53,1.83,9.24,11.39,1.59,22.76-2.36,35.16Z"/>
        <g class="cls-10">
          <path class="cls-13" d="M732.67,942.28c-1.02-1.02-1.88-2.19-2.99-3.12-1.24-1.03-2.56-1.97-3.89-2.9-2.4-1.68-4.89-3.22-7.41-4.72-5.17-3.09-10.64-5.73-16.13-8.2-11.06-4.98-22.52-8.97-34.08-12.63-3.42-1.08-6.87-2.09-10.36-2.96-3.52-.89-7.04-1.69-10.67-1.85-1.78-.08-1.94,2.42-.4,2.96,2.98,1.04,6.04,1.72,9.1,2.49s6.06,1.63,9.06,2.57c5.7,1.79,11.37,3.72,16.98,5.81,11.09,4.13,22.04,8.71,32.4,14.44,2.82,1.56,5.64,3.11,8.39,4.8,1.37.84,2.73,1.69,4.1,2.51,1.51.91,3.15,1.5,4.69,2.33.96.52,1.99-.73,1.19-1.54h0Z"/>
        </g>
      </g>
    </g>
  </g>
</svg>