<?xml version="1.0" encoding="UTF-8"?>
<svg id="Layer_1" data-name="Layer 1" xmlns="http://www.w3.org/2000/svg" xmlns:xlink="http://www.w3.org/1999/xlink" viewBox="0 0 500 500">
  <defs>
    <style>
      .cls-1 {
        fill: #f5f6dd;
      }

      .cls-2 {
        fill: #5fd991;
      }

      .cls-3 {
        fill: #ff7868;
      }

      .cls-4 {
        fill: #28318c;
      }

      .cls-5 {
        fill: #e7ec9e;
      }

      .cls-6 {
        clip-path: url(#clippath);
      }
    </style>
    <clipPath id="clippath">
      <path class="cls-3" d="M255.06,97.93c-38.05.23-68.82,31.14-68.82,69.25,0,59.74,44.32,120.26,62.05,142.08,3.72,4.58,10.69,4.57,14.41,0,17.31-21.31,59.93-79.46,61.96-137.77,1.39-39.73-29.85-73.79-69.6-73.55ZM255.47,202.77c-20.88,0-37.81-16.93-37.81-37.81s16.93-37.81,37.81-37.81,37.81,16.93,37.81,37.81-16.93,37.81-37.81,37.81Z"/>
    </clipPath>
  </defs>
  <g>
    <path class="cls-5" d="M434.17,401.31c-9.31.1-18.64.33-27.95.35-11.63,0-23.25-.02-34.86,0-15.81,0-130.03-.1-133.4,0-12.19,0-24.37.41-36.58.41s-23.25-.02-34.84,0c-10.53,0-64.69-.04-100.71-.04,1.8-3.33,3.6-6.68,5.4-10.03,5.77-10.74,11.19-21.68,16.96-32.4.99-1.99,24.56-45.72,42.83-79.63,29.83.02,60.14.02,67.73.02h34.84c12.21,0,24.41-.41,36.58-.41,2.38-.06,59.73-.02,98.97-.02,18.31,33.97,42.06,78.06,43.05,80.04,5.75,10.72,11.17,21.66,16.96,32.4,1.68,3.1,3.33,6.21,5.01,9.31Z"/>
    <path class="cls-1" d="M178.14,393.79h-11.61s-66.01-.03-86.86-.03c2.49-4.68,4.93-9.41,7.31-14.01,2.76-5.35,5.62-10.88,8.5-16.23l.12-.22c1.09-2.15,23.74-44.2,40.36-75.05,28.17.02,55.62.02,62.79.02h34.84c6.18,0,12.42-.11,18.46-.21,5.95-.1,12.11-.21,18.12-.21h.22c.91-.02,9.99-.03,26.96-.03h66.86c34.12,63.31,40.1,74.52,40.6,75.49l.11.2c2.74,5.11,5.47,10.39,8.1,15.5,2.41,4.67,4.89,9.47,7.42,14.23-4.75.07-9.49.14-14.24.15h-23.23s-11.63,0-11.63,0h-24.56c-21.81-.03-52.88-.05-76.25-.05-28.75,0-31.97.03-32.68.05-6.12,0-12.32.11-18.3.21-5.96.1-12.13.21-18.16.21h-23.24Z"/>
    <path class="cls-2" d="M121.8,391.19c2.48-4.77,4.96-9.55,7.47-14.3,5-9.45,9.94-18.94,14.96-28.38,1.86-3.49,3.73-6.97,5.59-10.46-3.35-.2-6.69-.35-10.04-.62-7.34-.59-14.66-1.47-22-2.03-2.34-.18-4.68-.3-7.03-.38-8.28,15.38-14.61,27.16-15.17,28.27l-.12.22c-2.88,5.35-5.74,10.88-8.5,16.23-2.37,4.6-4.82,9.33-7.31,14.01,8.54,0,24.66,0,40.72.02.48-.86.96-1.72,1.41-2.59Z"/>
    <path class="cls-2" d="M215.44,389.09c-1.74-3.45-3.48-6.9-5.22-10.35-1.45-2.87-2.97-5.72-4.35-8.63-1.1-2.31-2.07-4.68-3.04-7.03-.5-1.21-1-2.42-1.51-3.63-.12-.28-.69-1.63-.2-.47-.12-.27-.23-.54-.35-.82-.26-.6-.52-1.2-.78-1.8-.63-1.45-1.3-2.88-1.99-4.3-.39-.27-.74-.62-.93-.98-.54-1.03-.96-2.13-1.31-3.24-.4-.7-.79-1.41-1.23-2.09-.34-.52-.68-1.02-1.05-1.52-.04-.06-.09-.12-.13-.17-.15-.19-.3-.37-.45-.55-.64-.75-1.33-1.42-2.07-2.06-.03-.02-.05-.04-.08-.06-.19-.13-.39-.23-.59-.33,0,0-.01,0-.02,0-.28-.1-.56-.18-.84-.25-.24-.06-.48-.11-.72-.15-.04,0-.18-.03-.48-.08-.6-.06-1.2-.11-1.8-.13-1.36-.06-2.72-.05-4.08-.03-1.25.02-2.5.05-3.74.02-1.48-.04-2.97-.2-4.45-.33-3.83-.33-7.65-.69-11.48-1.04-1.64-.15-3.28-.29-4.92-.43-2.93,5.49-5.85,10.97-8.77,16.46-5.02,9.44-10.02,18.88-15.05,28.32-1.24,2.33-2.52,4.65-3.78,6.98-.61,1.13-1.22,2.27-1.83,3.41,20.23.01,38.32.02,38.32.02h11.61s23.24,0,23.24,0c5.44,0,10.96-.09,16.37-.18-.77-1.51-1.54-3.02-2.31-4.53Z"/>
    <path class="cls-2" d="M145.15,330.95c2.73.14,5.46.34,8.18.53,1.98-3.71,3.96-7.42,5.91-11.15,4.82-9.21,9.33-18.57,13.76-27.97.64-1.36,1.27-2.73,1.9-4.09-11.22,0-24.99,0-38.95-.02-6.85,12.71-14.72,27.33-21.69,40.27,2.94.14,5.89.36,8.81.59,7.36.59,14.7,1.45,22.07,1.84Z"/>
    <path class="cls-2" d="M198.75,288.27c-2.74,0-8.44,0-16,0-1.67,3.63-3.34,7.26-5.05,10.87-4.41,9.36-8.97,18.65-13.84,27.78-.91,1.71-1.83,3.43-2.74,5.14,2.48.2,4.96.4,7.43.62,3.34.31,6.71.76,10.06.82,2.67.05,5.35-.13,8.02.02,1.67.09,3.44.26,5.08.77.01-.01.03-.02.04-.04.32-.29.62-.52.97-.79,0,0-.67.53-.29.22,1.01-.82,1.97-1.7,2.91-2.61,2.12-2.04,4.07-4.27,5.98-6.51,3.29-3.85,6.32-7.91,9.63-11.74,4.64-5.37,9.33-10.71,14-16.06,2.48-2.84,4.97-5.66,7.45-8.5h-33.68Z"/>
    <path class="cls-2" d="M228.62,303.57c.04.49.08.97.12,1.46,0,.06.02.13.03.19.04.23.08.45.12.68.18.93.41,1.85.69,2.76.15.47.3.94.47,1.4.09.25.18.49.28.74.02.04.03.08.05.12.71,1.58,1.51,3.11,2.42,4.58.46.74.94,1.47,1.45,2.18.14.19.28.38.42.57.03.03.03.05.05.07.24.3.47.59.72.88,1.15,1.37,2.38,2.66,3.69,3.88.64.59,1.28,1.18,1.95,1.74.35.3.71.59,1.07.87.13.1.25.19.38.29,1.37,1.01,2.79,1.94,4.26,2.79.74.42,1.49.81,2.26,1.17.37.18.76.36,1.15.51.03.01.05.02.08.03.23.09.45.18.68.27,3.28,1.26,6.7,2.12,10.17,2.63,4.23.53,8.5.53,12.73,0,2.56-.38,5.1-.93,7.57-1.71,1.13-.36,2.36-.71,3.44-1.24.05-.02.1-.04.15-.06.13-.06.25-.11.38-.17.28-.13.56-.26.84-.39.48-.23.96-.46,1.43-.71,1.59-.83,3.11-1.77,4.57-2.81.35-.25.69-.51,1.03-.76,0,0,.02-.02.03-.02.19-.15.38-.3.57-.46.72-.59,1.41-1.2,2.09-1.83,1.4-1.3,2.72-2.68,3.97-4.14.31-.36.61-.73.91-1.1.14-.18.29-.36.43-.54.58-.76,1.13-1.53,1.67-2.32,1.08-1.6,2.08-3.25,2.99-4.95.45-.85.89-1.72,1.29-2.59.21-.45.41-.9.61-1.36.09-.22.18-.44.27-.66,1.35-3.42,2.32-6.99,2.86-10.62.29-2.36.37-4.75.22-7.12h-13.82c-16.97,0-26.04,0-26.96.03h-.22c-6.01,0-12.16.11-18.12.21-3.34.06-6.74.11-10.16.15-4.45,5.04-8.88,10.09-13.3,15.15,0,.07.03.14.03.21Z"/>
    <path class="cls-2" d="M309.87,381.9c-2.81-5.16-5.5-10.39-8.2-15.6-2.73-5.27-5.45-10.56-8.1-15.87-2.17-4.35-4.32-8.7-6.24-13.16-4.53,1.84-9.29,2.97-14.18,3.51-12.05,1.33-24.94-1.46-34.65-8.89-4.9-3.75-9.19-8.34-12.16-13.8-1.45-2.66-2.56-5.63-3.12-8.62,0,0,0-.01,0-.02-2.84,3.23-5.68,6.46-8.46,9.75-3.38,4-6.61,8.14-10.13,12.02-.73.8-1.48,1.58-2.25,2.36-.62,1.56-1.09,3.18-1.36,4.83-.18,1.53-.19,3.07-.01,4.6,0,.04.02.09.02.13,2.62,4.21,4.6,8.83,6.52,13.39.53,1.25,1.05,2.51,1.56,3.76.25.61.51,1.23.76,1.84.1.23.19.46.29.69.05.11.08.2.11.26.93,2.18,1.94,4.29,3.02,6.4,3.47,6.82,6.86,13.68,10.32,20.51.59,1.17,1.2,2.33,1.8,3.5,4.13-.06,8.29-.12,12.44-.12.71-.02,3.94-.05,32.68-.05,13.74,0,30.12,0,45.74.02-2.15-3.81-4.3-7.62-6.4-11.46Z"/>
    <path class="cls-2" d="M309.09,363.56c1.44-.77,2.86-1.59,4.25-2.43,2.94-1.79,5.85-3.63,8.72-5.53,5.1-3.37,10.15-6.8,15.4-9.95,6.27-3.76,12.48-7.6,18.7-11.43,6.22-3.83,12.41-7.71,18.7-11.42,2.06-1.22,4.21-2.3,6.34-3.4-4.7-8.73-10.31-19.13-17.01-31.57h-45.82c.23,4.22-.16,8.5-1.08,12.59-2.23,9.82-7.44,19.11-14.47,26.3-2.89,2.96-6.19,5.6-9.77,7.7,2.72,4.83,5.2,9.79,7.75,14.71,2.56,4.93,5.09,9.87,7.65,14.8.21-.12.41-.25.63-.37Z"/>
    <path class="cls-2" d="M370.27,387.88c-1.13-1.78-2.16-3.62-3.14-5.49-1.74-3.32-3.3-6.74-5.1-10.03-2.12-3.88-4.29-7.73-6.53-11.54-.99-1.68-1.96-3.39-3-5.04-.85-1.36-1.78-2.67-2.67-4-.82-1.22-1.63-2.5-2.31-3.85-2.81,1.73-5.62,3.47-8.43,5.19-5.22,3.2-10.26,6.69-15.4,10.01-2.59,1.67-5.2,3.32-7.9,4.81-1.35.74-2.71,1.46-4.13,2.07,1.82,3.45,3.65,6.9,5.54,10.32,2.4,4.35,4.84,8.68,7.25,13.02,7.99,0,15.6,0,22.33.01h17.92c2.22-1.29,4.46-2.56,6.72-3.8-.39-.56-.79-1.11-1.15-1.69Z"/>
    <path class="cls-2" d="M404.91,363.51l-.11-.2c-.37-.74-3.88-7.3-20.2-37.62-2.79,1.48-5.58,2.94-8.29,4.58-7.83,4.74-15.62,9.55-23.41,14.35.13.2.24.42.37.62,1.01,1.58,2.15,3.09,3.25,4.61,2.16,2.96,4.03,6.09,5.9,9.24,2.18,3.68,4.4,7.37,6.35,11.19,1.67,3.26,3.22,6.57,4.95,9.8.88,1.64,1.81,3.26,2.83,4.82.31.47.64.92.96,1.38,4.87-2.59,9.77-5.13,14.63-7.7,5.13-2.71,10.26-5.41,15.31-8.27.27-.15.54-.32.81-.48-1.11-2.12-2.22-4.25-3.35-6.34Z"/>
    <path class="cls-2" d="M411.49,376.08c-.73.41-1.44.85-2.18,1.26-9.9,5.5-19.97,10.68-30.01,15.9-.09.04-.17.09-.25.14h3.92s23.23,0,23.23,0c4.74-.01,9.49-.07,14.24-.15-2.53-4.75-5.01-9.56-7.42-14.23-.5-.97-1.01-1.95-1.52-2.93Z"/>
  </g>
  <g>
    <path class="cls-3" d="M255.06,97.93c-38.05.23-68.82,31.14-68.82,69.25,0,59.74,44.32,120.26,62.05,142.08,3.72,4.58,10.69,4.57,14.41,0,17.31-21.31,59.93-79.46,61.96-137.77,1.39-39.73-29.85-73.79-69.6-73.55ZM255.47,202.77c-20.88,0-37.81-16.93-37.81-37.81s16.93-37.81,37.81-37.81,37.81,16.93,37.81,37.81-16.93,37.81-37.81,37.81Z"/>
    <g class="cls-6">
      <path class="cls-1" d="M213.9,125.36c.12-.05.24-.1.35-.16s.22-.14.33-.21c.23-.14.44-.31.66-.46.59-.43,1.15-.9,1.73-1.35l-.49.38c2.04-1.57,4.23-2.94,6.32-4.44.73-.53,1.41-1.16,2.06-1.78.23-.21.39-.47.49-.76.15-.28.21-.58.2-.91l-.08-.62c-.07-.31-.21-.57-.42-.8-.1-.18-.25-.32-.42-.42-.23-.21-.49-.35-.8-.42l-.62-.08c-.42,0-.82.11-1.19.32-.7.47-1.43.9-2.11,1.4s-1.4,1.01-2.1,1.51c-1.56,1.11-3.11,2.22-4.58,3.44-.18.15-.35.29-.53.44s-.34.33-.5.5c-.29.3-.54.63-.79.97-.07.09-.14.18-.2.28-.06.1-.11.22-.16.32l-.21.5c-.09.28-.1.55-.04.83,0,.19.05.36.14.53.08.26.23.48.43.67.27.24.58.43.92.54.28.09.55.1.83.04.28-.01.54-.1.78-.25h0Z"/>
      <path class="cls-1" d="M284.06,202.2c.15-.02.3-.04.45-.06l-.48.06h.02c-.3-.08-.61-.16-.91-.25h0c-.12-.09-.25-.19-.37-.28h0c.24.24.51.4.83.49.33.09.67.09,1,0,.22-.09.47-.15.7-.23.43-.14.82-.36,1.21-.58.49-.27.95-.61,1.4-.93.39-.28.77-.57,1.14-.86.22-.17.44-.36.64-.55.4-.38.77-.77,1.11-1.2.3-.39.61-.77.87-1.2.07-.12.15-.25.21-.37.02-.03.03-.06.05-.09,0-.01.01-.03.02-.04.05-.1.09-.2.13-.31.15-.29.22-.6.21-.93,0-.03,0-.07,0-.1,0-.01,0-.03,0-.04l-.08-.62s0-.02,0-.03v1.22c.05-.22.06-.45.09-.67,0-.03,0-.05.01-.08,0-.06.01-.12.02-.17,0-.11.01-.23.01-.34l-.08-.56c-.07-.27-.19-.51-.38-.72-.09-.16-.22-.29-.38-.38-.2-.19-.44-.31-.72-.38l-.56-.08-.56.08c-.27.07-.51.19-.72.38-.23.15-.41.35-.54.59-.1.17-.21.33-.33.48l.35-.46c-.14.18-.29.36-.42.55l1.37-1.06c-.27.1-.46.17-.67.31-.45.29-.43.3-.69.63-.13.17-.15.17-.21.28-.01.03-.03.06-.05.09-.06.12-.13.24-.2.36-.15.24-.31.48-.48.7l.38-.49c-.53.68-1.16,1.26-1.79,1.85-.32.3-.65.59-.99.88s-.67.55-.99.84c-.09.08-.18.16-.26.24-.21.2-.37.44-.55.67-.13.17-.25.34-.38.51l.3-.38v.02c-.11.13-.21.25-.31.38-.14.22-.21.45-.22.7-.04.17-.04.33,0,.5.01.25.09.49.22.7h0c-.06-.14-.12-.28-.18-.43h0v-.95.02c.05-.14.11-.28.17-.43-.06.13-.12.27-.19.4l-.16.37-.06.41.06.41c.05.2.14.38.28.53.07.12.16.21.28.28.1.1.21.16.34.2.12.07.25.11.39.11.21.05.41.04.62-.03h0Z"/>
      <path class="cls-4" d="M233.83,268.93c.09-.04.2-.08.28-.13.1-.06.19-.12.28-.18.18-.12.36-.24.55-.36.37-.24.73-.47,1.1-.71.72-.48,1.44-.96,2.18-1.42.21-.13.41-.26.62-.39s.41-.27.64-.37c.15-.09.27-.21.35-.35l.1-.24c.05-.17.05-.35,0-.52-.03-.13-.09-.24-.18-.33-.07-.11-.16-.19-.28-.25-.11-.07-.23-.11-.37-.12-.13-.03-.26-.02-.39.02-.17.05-.31.13-.43.25-.04.04-.07.08-.11.11l.19-.15c-1.41,1.07-2.79,2.19-4.14,3.34-.18.15-.36.3-.54.46-.09.08-.18.16-.28.24s-.17.17-.25.26c-.09.11-.17.24-.16.39,0,.12.04.23.12.33.07.09.17.17.28.2l.15.02c.1,0,.19-.03.28-.07h0Z"/>
      <path class="cls-4" d="M205.65,204.9c.09.05.18.1.28.13.06.02.11.03.17.04.1.02.21.05.31.07.26.05.52.09.78.11.18.02.36.02.55.01.23-.01.46-.04.68-.08s.43-.12.63-.22l-.21.09s.04-.01.06-.02c.01,0,.02,0,.03-.01l.22-.09.18-.14s0,0,.01-.01c.04-.04.07-.09.11-.13s.07-.09.1-.13c.02-.03.04-.06.05-.1.04-.09.09-.2.12-.3.03-.11.04-.22.01-.33,0-.11-.04-.21-.1-.31l-.13-.17c-.08-.08-.16-.14-.27-.17-.06-.04-.13-.06-.21-.06-.11-.02-.22-.02-.33.01l-.2.08c-.13.07-.22.17-.3.3,0,0,0,.01-.01.02l.13-.17s-.06.07-.09.09l.18-.14s-.07.05-.11.07c-.09.04-.17.1-.24.18-.02.02-.03.04-.05.06l.18-.14c-.08.05-.16.09-.24.13l.21-.09c-.26.11-.54.17-.82.21l.21-.03c-.16.02-.32.04-.47.06l.21-.03c-.21.03-.42.05-.63.06-.11,0-.22,0-.33,0-.06,0-.11,0-.17,0-.08,0-.16.02-.24.03-.03,0-.06.01-.09.02l-.14.06-.12.09-.09.12c-.04.07-.07.14-.07.22-.01.05-.01.11,0,.16,0,.05.01.1.04.15.01.05.04.09.08.13.04.06.1.12.17.15h0Z"/>
      <path class="cls-4" d="M290.36,248.04s-.03.05-.04.08c0,.01-.01.02-.02.04,0,0,0,.01,0,.02-.01.03-.04.09-.05.12,0,0,0,0,0,.01-.02.06-.03.12-.04.18s-.03.11-.05.17c-.03.11-.04.22-.04.34s0,.22,0,.33c0,.16.03.33.06.49,0,.05.02.1.03.15,0,.02,0,.05.01.07.02.09.06.18.1.27l-.09-.21c.04.09.07.18.12.28.01.02.02.05.03.07.02.04.05.08.08.12.06.08.12.16.18.24.01.02.03.03.05.05.09.09.19.16.29.23.11.07.25.12.36.17l-.23-.1h0c-.07-.05-.13-.1-.2-.15.04.04.09.07.14.11s.09.08.14.11l-.21-.16c.05.07.12.13.21.16.16.09.33.14.52.14,0,0,0,0,.01,0,.01,0,.02,0,.03,0,.11-.01.22-.02.33-.05.12-.02.25-.07.35-.14.14-.1.27-.2.39-.32l.13-.17.09-.21.03-.23c0-.12-.02-.23-.07-.33-.02-.07-.06-.14-.11-.19-.04-.06-.09-.12-.15-.15-.05-.05-.12-.09-.19-.11-.1-.05-.21-.08-.33-.07-.03,0-.06,0-.09,0l.24.03c-.05,0-.11-.02-.16-.03-.01,0-.02,0-.04-.01,0,0,0,0,0,0-.03,0-.25-.04-.27-.04,0,0-.01,0-.02,0-.03,0-.06,0-.08,0l.27.04s-.03,0-.05,0c0,0-.01,0-.02,0-.09-.01-.18-.03-.28-.04l-.27.04-.25.1c-.08.05-.15.1-.21.16l.21-.16s-.02,0-.02.01l.24-.1s-.05.02-.07.03l.26-.03s-.03,0-.05,0l.26.03c-.06,0-.12-.03-.18-.05l.22.09c-.07-.03-.13-.06-.18-.11l.18.14c-.07-.05-.13-.11-.18-.18l.13.17c-.05-.07-.1-.14-.16-.2,0,0-.02-.02-.02-.03-.02-.02-.03-.04-.05-.06l.13.17c-.1-.13-.17-.28-.24-.44l.07.17c-.03-.08-.07-.16-.09-.25-.03-.09-.06-.19-.11-.27-.02-.04-.04-.08-.06-.12l.06.14c-.03-.07-.05-.14-.08-.21s-.05-.14-.09-.21c-.02-.03-.03-.06-.05-.09-.07-.13-.22-.21-.36-.21s-.3.08-.36.21h0Z"/>
      <path class="cls-4" d="M290.9,116.11c-.08.05-.16.11-.24.16l.16-.07-.07.02s-.01,0-.02,0c-.03.01-.15.06-.18.08-.02,0-.03.02-.05.03l-.14.11c-.1.07-.2.15-.29.22-.25.19-.49.4-.74.61-.1.08-.2.16-.29.25l-.28.26-.56.52-.31.29c-.11.1-.2.2-.3.31-.1.09-.16.19-.2.31-.06.12-.09.24-.08.38,0,.13.02.26.08.38.04.12.11.23.2.31l.2.15c.15.09.32.13.49.13l.26-.03c.17-.05.31-.13.43-.25.09-.08.19-.17.27-.26l.26-.28.51-.55c.17-.18.34-.37.51-.56l.49-.59c.13-.16.25-.32.37-.49l.12-.16s.02-.03.03-.05c0,0,0-.01.01-.02.02-.03.03-.06.04-.09.02-.03.03-.06.04-.09,0-.03.02-.06.03-.09l-.07.16c.05-.08.11-.16.16-.24l.06-.15c.03-.08.03-.17.01-.25,0-.06-.01-.11-.04-.16-.03-.08-.07-.15-.13-.2l-.13-.1-.15-.06c-.08-.03-.17-.03-.25-.01-.08,0-.16.03-.23.07h0Z"/>
    </g>
  </g>
</svg>