<svg xmlns="http://www.w3.org/2000/svg" viewBox="0 0 1000 1000">
  <path transform="translate(0,850) scale(1,-1)" fill="currentColor" d="M982 503l-61 21c-11 3-21 0-27-8l-44-50c-9 16-25 30-44 37-9 3-18 4-27 4-10 0-22-3-30-7l-5 66c0 11-7 19-16 22l-62 21c-13 4-28-3-32-16s3-28 16-33l46-16 4-66-71 24-16-48 53-17c-31-18-57-46-69-83l-9-27-14-46c25-9 53 4 61 29l11 30c10 29 32 51 58 62 8-24 27-43 50-52 9-3 18-4 27-4 16 0 32 4 46 14 8-16 14-33 14-53 0-10-1-22-6-32l-58-173-39 13 8 20 20-7 8 24 17 51c3 9 5 18 5 26 0 34-21 65-55 77-9 3-17 4-26 4-34 0-65-20-77-54l-25-75 21-7-7-21-40 13 7 22 16 47c-25 9-53-4-61-29l-18-47c-2-6-2-13 1-19 3-6 9-11 15-13l63-23-3-8c-1-6-3-14-3-19 0-25 17-48 40-56 6-2 13-3 19-3 25 0 47 16 56 39l3 9 63-22c6-1 14-1 19 2 6 3 11 8 14 14l67 197c6 17 8 33 8 49 0 21-5 41-12 59l53-18 16 47-71 24 45 50 45-16c13-5 28 2 33 16s-6 31-20 35z m-172-87c-4-13-16-20-29-20-3 0-6 0-10 1-14 5-21 16-21 30 0 2 0 5 2 10 4 13 16 20 29 20 3 0 6 0 10-1 13-4 21-16 21-29 0-3 0-6-2-11z m-138-341c-1-4-4-6-9-6l-3 0c-4 2-6 5-6 9l0 3 25 75 18-6-25-75 0 0z m3 135l9 28c4 14 16 21 29 21 3 0 6 0 11-2 13-4 20-16 20-29 0-3 0-6-1-10l-9-28c0 1-59 20-59 20z m-547 211l71-58c22-16 51-11 67 9l-37 30-70 57c-15 12-32 18-52 18h-107v-50h107c8 0 15-2 21-6z m244-94h-372v-50h372c21 0 38-9 53-23 13-13 22-32 22-52 0-17-7-33-18-43-5-6-13-10-22-13-11 39-48 67-92 67-46 0-83-31-94-72l-174 0c-26 0-47-22-47-48h221c10-41 48-72 94-72 45 0 84 32 94 73 50 10 88 55 88 108 0 70-56 125-125 125z m-57-256c-27 0-47 20-47 47 0 26 20 47 47 47 26 0 47-21 47-47 0-27-21-47-47-47z m-259 178h69v-50h-69v50z m509 111c10 25-2 53-27 65l-17 7 53 165c3 10-2 22-11 28s-20 6-29-1l-99-81-38 120c-3 11-13 18-25 18-12 0-20-9-23-21l-27-131-144 67c-10 4-24 1-31-8-7-9-6-22 2-31l133-154 39 32-59 69 69-30c7-3 15-3 22 0s12 10 13 17l13 65 20-63c3-8 8-15 16-16 7-3 16 0 23 4l64 53-33-106c-4-12 3-25 15-31l37-16v0l44-21 0 0z"/>
</svg>
