<svg xmlns="http://www.w3.org/2000/svg" viewBox="0 0 1000 1000">
  <path transform="translate(0,850) scale(1,-1)" fill="currentColor" d="M415 168l-49 0c-13 54-62 94-119 94-37 0-69-16-91-41v26c0 7-3 15-7 19-5 5-12 8-20 8h-73v308c0 24 19 45 43 45v0l54 0c0 29-24 52-53 54-54 0-100-44-100-99v-370c0-55 44-99 99-99h3v0l26 0c12-54 60-94 119-94 57 0 106 40 119 94h49v0h51c0 30-23 53-51 55l0 0z m-313 0h-3c0 0 0 0 0 0v0c-25 0-45 20-45 44v7h48l0-51 0 0z m192-75c-12-12-29-19-47-19-19 0-35 7-47 19-12 11-19 29-19 47 0 19 7 35 19 47 12 12 29 19 47 19 19 0 35-7 47-19 12-12 19-30 19-47 2-18-7-36-19-47z m703 253l-84 191c-4 10-14 16-25 16h-242v29c0 55-44 99-99 99h-331c0-29 24-53 52-54l278 0c25 0 44-21 44-45v-414h-80c0-30 24-53 52-55l82 0v0h47c12-54 61-94 119-94 58 0 106 41 119 94h43c7 0 15 3 19 8s8 11 8 19v194c1 4 0 7-2 12z m-94 81l28-65h-143v65h115z m-44-334c-12-12-30-19-47-19-19 0-35 7-47 19-12 11-19 29-19 47 0 19 7 35 19 47 12 12 29 19 47 19 19 0 35-7 47-19 12-12 19-30 19-47 0-18-7-36-19-47z m87 75h-15c-12 54-60 94-119 94-58 0-106-40-119-94h-47v331h226l7-17h-117c-8 0-15-3-19-7-5-4-8-12-8-19v-119c0-8 3-15 8-19 4-5 11-8 19-8h184l0-142 0 0z m-818 254h74v-73h54v73h73v55h-73v73h-54v-73h-74v-55z m684-254c-8 0-15-3-19-8-5-4-8-11-8-19 0-7 3-14 8-19s11-7 19-7 15 3 19 7 7 12 7 19c0 8-3 15-7 19-6 5-12 8-19 8z m-565 0c-7 0-15-3-19-8-4-4-7-11-7-19 0-7 3-14 7-19s12-7 19-7c7 0 15 3 19 7 5 5 8 12 8 19 0 8-3 15-8 19-6 5-12 8-19 8z"/>
</svg>
