<svg xmlns="http://www.w3.org/2000/svg" viewBox="0 0 1000 1000">
  <path transform="translate(0,850) scale(1,-1)" fill="currentColor" d="M731 49v-70h-131v118c0 7-3 15-7 19s-12 8-19 8h-146c-7 0-15-3-19-8-5-4-7-12-7-19v-118h-125v648h455v-189c30 0 53 24 55 52h0v135h37c7 0 14 3 19 7 4 5 7 12 7 20v95c0 7-3 15-7 19-5 5-12 8-19 8h-405v0c-29-2-51-25-51-55h426v-37h-584v37h69v0c30 2 52 25 52 55h-147c-7 0-15-3-19-8-6-4-9-12-9-19v-93c0-7 3-14 7-19 5-4 12-7 19-7h39v-90h-193c-7 0-15-3-19-7-6-6-9-13-9-21v-92c0-8 3-15 7-19s12-8 20-8h16v-438c0-7 3-15 7-19 4-5 12-8 19-8h688c8 0 15 3 20 8 4 4 7 12 7 19v44h0c0 30-24 52-53 52l0 0z m-510 205h-34v55h34v-55z m0 109h-62c-7 0-15-3-19-7-6-6-9-13-9-21v-108c0-8 3-15 7-20 5-4 12-7 19-7h64v-219h-124v412h124c0-2 0-30 0-30z m0 83h-167v36h167v-36z m325-465h-92l0 90h92v-90z m-56 547c0 7-3 15-8 19-4 5-11 7-19 7h-109c-7 0-14-2-19-7-4-4-7-12-7-19v-109c0-7 3-15 7-19 5-4 12-7 19-7h109c8 0 15 3 19 7 5 4 8 12 8 19v109z m-55-82h-54v54h54c0 0 0-54 0-54z m243 82c0 7-3 15-7 19-5 5-12 7-19 7h-109c-8 0-15-2-19-7s-9-13-9-19v-109c0-7 3-15 7-19 5-4 12-7 19-7h109c7 0 15 3 19 7 5 4 8 12 8 19v109z m-54-82h-55v54h55v-54z m-161-83h-109c-7 0-14-3-19-7-4-4-7-12-7-19v-109c0-7 3-15 7-19 5-5 12-7 19-7h109c8 0 15 2 19 7 5 4 8 12 8 19v107c0 8-3 15-8 19-5 6-13 9-19 9z m-28-109h-54v55h54c0 0 0-55 0-55z m217 109h-109c-8 0-15-3-19-7s-9-13-9-21v-108c0-8 3-15 7-20 5-4 12-7 19-7h109c7 0 15 3 19 7 5 5 8 12 8 20v108c0 8-3 15-8 19-4 6-10 9-17 9z m-28-109h-55v55h55v-55z m369 2c-15 46-44 104-69 153-8 13-18 23-30 31-12 7-25 10-40 10-13 0-26-3-39-10-12-8-22-18-30-31-17-32-35-69-51-103-7-18-13-34-19-50-5-16-8-29-8-44 0-72 52-131 120-144v-143h54v143c68 13 119 72 119 144 0 15-3 29-7 44l0 0z m-166-131c-15 4-28 12-39 22-16 16-26 40-26 65l65-65v-22z m92 22c-10-10-23-18-38-22v181h-54v-81l-28 28-37-37c0 6 3 15 6 24 11 38 39 97 64 142 3 5 6 8 9 9 3 2 8 3 12 3 4 0 9-1 12-3 3-1 6-4 9-9 16-30 35-66 48-98 7-16 13-31 16-44 5-13 6-24 6-28 2-25-9-47-25-65z"/>
</svg>
