<svg xmlns="http://www.w3.org/2000/svg" viewBox="0 0 1000 1000">
  <path transform="translate(0,850) scale(1,-1)" fill="currentColor" d="M807 850h-614c-108 0-193-85-193-193v-616c0-106 85-191 193-191h616c106 0 191 85 193 193v614c-2 108-87 193-195 193l0 0z m102-807c0-56-46-100-100-100h-616c-56 0-100 45-100 100v614c0 56 45 100 100 100h616c56 0 100-45 100-100v-614l0 0z m-318 475c-64 0-82-34-91-34-12 0-25 34-91 34-68 0-110-56-110-103 0-53 32-112 76-152 56-50 115-81 125-81s71 33 125 81c47 43 77 99 77 152 0 42-39 103-111 103z"/>
</svg>
