<svg xmlns="http://www.w3.org/2000/svg" viewBox="0 0 1000 1000">
  <path transform="translate(0,850) scale(1,-1)" fill="currentColor" d="M500 850c-276 0-500-223-500-500 0-276 224-500 500-500v104c-109 0-207 44-279 117-72 72-117 170-117 279 0 109 45 207 117 279 72 73 170 117 279 117 109 0 207-44 279-117 73-72 117-170 117-279v-57c0-47-39-84-84-84-47 0-84 38-84 84v322h-104v-74c-36 22-77 37-122 37-125 0-227-101-227-226 0-125 102-227 227-227 60 0 114 24 155 62 34-50 92-83 156-83 102 0 187 84 187 189v57c0 277-223 500-500 500z m0-622c-68 0-122 54-122 122 0 68 54 122 122 122 68 0 122-54 122-122 0-68-54-122-122-122z"/>
</svg>
