<svg xmlns="http://www.w3.org/2000/svg" viewBox="0 0 1000 1000">
  <path transform="translate(0,850) scale(1,-1)" fill="currentColor" d="M879 285c8 0 15 3 20 8 4 4 7 11 7 19v162h40c11 0 22 7 26 19 3 11 0 23-10 31l-163 117-3 2c-25 16-58 10-74-15l43-31 97-69h-724l362 262 143-102 0 0 3-1c25-16 57-10 73 15l-42 27v0l-161 117c-9 7-22 7-32 0l-447-321c-10-7-13-19-10-31 2-12 14-19 26-19h40v-162c0-7 3-14 7-19 4-4 12-7 19-7h35v-191h-33c-8 0-15-3-19-8-5-4-8-11-8-19v-67l-35 0c-15 0-28-12-28-29v-94c0-7 3-14 7-19 6-7 12-10 19-10h236c26 3 48 26 48 54h-256v40l36 0c14 0 28 12 28 28v68h166v-68c0-7 3-15 7-19 5-5 12-7 19-7 0 0 0 0 0 0h316c0 0 0 0 0 0 8 0 15 2 20 7 4 4 7 12 7 19v68h166v-68c0-15 12-28 28-28l35 0v-40h-464c-30-1-52-25-52-54h546c7 0 14 3 19 7 4 5 7 12 7 19v95c0 14-12 27-28 27l-35 0v68c0 8-3 15-7 19-5 5-12 8-20 8h-35v191l35 1 0 0z m-627-191h-40v191h40v-191z m442 0h-35c-7 0-15-3-19-7-5-5-8-12-8-19v-68h-263v68c0 7-3 14-7 19-5 4-12 7-19 7h-36v191h36c7 0 14 3 19 8 4 4 7 11 7 19v67h262v-67c0-8 3-15 7-19 5-5 12-8 19-8h36v-191z m94 0h-39v191h39v-191z m28 246c0 0 0 0 0 0l-94 0c0 0 0 0 0 0h-35v67c0 14-10 25-24 27-1 0-3 0-3 0v0h-317c0 0 0 0 0 0-8 0-15-3-19-7-5-5-8-12-8-20v-67h-9v0h-150v0h-8v135h704v-135c-1 0-37 0-37 0z m-409 303c0-52 42-93 93-93s93 41 93 93-41 92-93 92-93-41-93-92z m131 0c0-21-16-39-38-39s-38 17-38 39 16 38 38 38 38-16 38-38z m-50-381c6 3 12 3 19 3 9 0 20-3 28-8 9-4 15-10 19-17l48 28c-11 17-25 29-42 38-8 4-16 7-25 9v37h-54v-37c-4-2-9-3-13-5-14-6-25-13-36-25-11-14-16-31-16-48 0-8 2-13 3-21 3-12 10-22 18-29 12-12 25-16 38-21 12-3 24-4 32-6 8-1 17-3 22-6 6-2 11-5 12-8 2-3 3-6 3-8 0-3-1-9-7-14-5-6-13-11-19-14-6-1-12-3-16-3-9 0-18 3-27 9-9 6-18 13-25 24l-44-31c10-15 23-30 41-40 10-6 22-10 34-13v-29h54v32c0 0 2 0 2 0 16 6 31 15 42 28 12 13 21 31 21 51 0 14-4 27-12 37-9 15-22 24-35 29-13 6-25 9-37 11-13 1-26 4-34 7-4 2-5 3-7 5-1 1-3 2-3 5 0 2 0 3 0 5 0 6 3 12 5 13 1 6 5 9 11 12l0 0z"/>
</svg>
