<svg xmlns="http://www.w3.org/2000/svg" viewBox="0 0 1000 1000">
  <path transform="translate(0,850) scale(1,-1)" fill="currentColor" d="M896 646h-25v25c-2 58-49 106-106 106h-316c-3 0-6 0-8-2-29-6-53-31-53-63h377c23 0 41-19 41-41v-25h-571c-57 0-104-47-104-105v-422h-27c-23 0-41 19-41 41v511c0 23 19 41 41 41h180c3 0 6 0 7 1 30 6 53 31 53 64h-240c-57 0-104-48-104-106v-511c0-57 47-104 104-104h25v-25c0-58 48-105 105-105h659c57 0 104 47 104 105v509c3 59-44 106-101 106l0 0z m41-446l-188 188c-6 6-15 9-22 9s-17-3-23-9l-10-9-22-22c-10-10-19-19-29-29-11-10-21-21-31-31-9-9-18-18-25-25-5-4-10-10-16-16-14-15-19-35-17-54 2-6 3-14 6-18 2-2 11-18 12-16l43 42 109 109 210-210v-81c0-24-19-41-41-41h-658c-14 0-28 7-35 19l196 197c3-3 6-6 8-9l23-22 29-29c10-11 21-21 29-30 9-9 17-16 25-25 5-4 11-10 15-14 15-14 35-21 56-18 6 1 13 3 19 6 2 1 16 10 16 12l-42 42-155 155c-6 6-15 8-22 8s-16-2-22-8l-181-180v449c0 23 19 41 41 41h659c24 0 41-19 41-41l2-340 0 0z m-427 341c-63 0-113-51-113-113 0-63 52-113 113-113 64 0 114 51 114 113 0 62-50 113-114 113z m0-163c-28 0-50 22-50 50 0 28 22 50 50 50 28 0 50-22 50-50 0-28-22-50-50-50z"/>
</svg>
