<svg xmlns="http://www.w3.org/2000/svg" viewBox="0 0 1000 1000">
  <path transform="translate(0,850) scale(1,-1)" fill="currentColor" d="M738 478h-17v149c0 123-100 223-224 223h0c-123 0-223-100-223-223v-149h-12c-68 0-122-54-122-122v-253c37 0 67 31 69 68l0 185c0 29 23 51 51 51h478c30 0 52-23 52-51v-104c37 0 67 29 69 66l0 3v35c1 68-53 122-121 122z m-86 0h-309v149c0 42 17 80 45 108 28 28 66 46 109 46h0c43 0 81-18 109-46 28-28 46-66 46-108l0-149 0 0z m139-338l0-168c0-29-23-51-51-51h-478c-30 0-52 23-52 51v84c-36 0-67-35-69-72 0-68 55-134 122-134h478c68 0 122 54 122 122v234c-39 0-70-29-72-66z m-256-119v88c43 15 74 54 74 101 0 59-49 108-107 108-59 0-108-49-108-108 0-47 31-86 74-101v-88h67l0 0z m-73 189c0 21 17 39 38 39 21 0 38-18 38-39 0-20-17-38-38-38-21 0-38 18-38 38z"/>
</svg>
