<svg xmlns="http://www.w3.org/2000/svg" viewBox="0 0 1000 1000">
  <path transform="translate(0,850) scale(1,-1)" fill="currentColor" d="M897 50c0 34-28 60-60 60h-155c-33 0-60-26-60-60v-26c0-12 3-24 10-33-4-7-8-16-8-26l0 0 0-3 0-2v-28c0-1 0-3 0-4h-75c4 9 7 19 8 31 0 4 2 10 2 14 0 62-46 115-109 123-4 0-10 1-15 1-14 0-29-3-42-7-6 1-11 3-16 4 2 6 4 13 4 21v26c0 12-3 24-9 33 6 8 9 20 9 32v26c0 17-7 33-18 43-10 10-26 18-42 18h-84v26c0 56 22 108 59 144 36 37 86 59 142 59h133c56 0 106-23 142-59 37-36 59-86 59-144l0-131c2-29 27-54 57-54v185c0 113-73 210-175 246 5 10 8 20 8 34 0 17-6 33-16 47l85 164c4 9 4 19-2 28-4 9-14 14-23 14l-187-2c-29-1-56-26-56-57h193l-62-121c-3 0-6 2-10 2h-175c-2 0-2 0-3 0l-62 120 27 0c29 0 56 25 56 56h-130c-10 0-19-6-23-13-5-9-6-19-2-28l82-159c-13-13-20-32-20-51 0-14 4-25 10-37-98-38-167-133-167-243v-26h-14c-16 0-32-8-42-18-11-12-18-26-18-43v-26c0-12 3-24 9-32-5-11-9-21-9-33v-26c0-12 3-24 9-33-5-10-9-20-9-32v-26c0-12 3-24 9-33-5-10-9-20-9-32v-27c0-34 26-60 60-60h116c20-13 45-21 70-21 14 0 29 3 42 8 9-3 18-6 27-8l0 0c0 0 0 0 0 0 0 0 0 0 0 0l0 0c6 0 10-1 14-1 25 0 49 7 68 21h334c16 0 32 7 43 17 10 10 17 27 17 43v26c0 12-3 24-9 33 6 8 9 20 9 32l3 28 0 0z m-488 566h175c10 0 19-9 19-19 0-10-9-19-19-19h-16c0 0 0 0-2 0h-129c0 0 0 0-2 0h-26c-10 0-19 9-19 19 0 10 9 19 19 19z m-249-384c0 3 2 5 5 5h153c3 0 4-2 4-5v-26c0-2-1-4-4-4h-153c-2 0-5 1-5 4v26z m5-304c-2 0-5 1-5 4v27c0 1 2 4 5 4h62c1-12 4-23 8-34-1-1-70-1-70-1z m69 91h-69c-2 0-5 2-5 5v26c0 2 2 4 5 4h89c-8-10-16-22-20-35l0 0z m-69 91c-2 0-5 2-5 5v26c0 3 2 5 5 5h153c1 0 4-2 4-5v-26c0-2-1-5-4-5 0 0-153 0-153 0z m231-184c-12-11-28-19-47-19-20 0-36 8-47 19-12 12-20 28-20 47 0 20 8 36 20 48 11 11 27 19 47 19 19 0 35-8 47-19 11-12 19-28 19-48 0-19-8-35-19-47z m103 39c-3-27-22-47-45-55 11 19 18 40 18 63 0 24-6 45-18 64 27-9 46-34 46-64 0-2-1-5-1-8l0 0z m341-33c0-3-2-4-5-4h-153c-1 0-4 1-4 4v25l0 2 0 0 0 0c0 1 1 3 4 3h153c3 0 5-2 5-5l0-25 0 0z m0 92c0-2-2-5-5-5h-153c-1 0-4 2-4 5v26c0 2 1 4 4 4h153c3 0 5-1 5-4v-26z m-353 351c6 3 13 4 19 4 10 0 21-2 29-7 9-4 17-10 19-18l49 28c-10 18-25 31-43 40-8 5-17 7-26 10v39h-57v-39c-5-1-9-3-14-4-13-6-26-15-36-26-12-15-18-33-18-50 0-8 1-15 3-23 3-11 10-22 17-30 12-12 27-18 40-21 13-3 25-4 34-7 7-2 16-3 24-6 7-3 10-6 11-9 6-4 6-6 6-9 0-3-1-9-7-15-6-5-13-11-21-13-6-1-12-3-16-3-10 0-19 3-28 9-9 6-18 15-25 25l-47-32c12-16 25-31 43-41 10-6 22-12 35-15v-33h57v34c0 0 2 0 2 0 16 6 32 16 44 30 12 13 22 32 22 53 0 13-4 26-12 38-10 15-23 23-37 29-13 6-26 9-38 11-13 1-26 4-35 7-4 1-6 3-7 4-2 2-3 3-3 6 0 2 0 3 0 6 0 6 3 12 4 13 2 9 6 12 12 15l0 0z"/>
</svg>
