<svg xmlns="http://www.w3.org/2000/svg" viewBox="0 0 1000 1000">
  <path transform="translate(0,850) scale(1,-1)" fill="currentColor" d="M500 638l0 0c-129 0-235-104-235-235v-59h0c29 0 51 24 51 52v6c0 50 21 95 53 129 34 32 78 53 130 53h0c50 0 95-21 129-53 32-34 53-78 53-129v-80c29 0 51 24 51 52v26c3 132-103 238-232 238l0 0z m182-388c0-16-13-31-30-31h0c-46 0-83-37-83-82v-13h-140v13c0 45-36 82-82 82h0c-16 0-31 13-31 31v56c-29 0-51-24-51-52v-4c0-46 37-82 82-82h0c16 0 31-14 31-31v-122c0 0 0 0 0 0v-69c0-8 3-14 7-20 5-4 12-7 19-7h192c7 0 13 3 19 7 4 5 7 12 7 20v69c0 0 0 0 0 0v122c0 16 13 31 31 31h0c46 0 82 36 82 82v35h-16c-20 2-37-14-37-35z m-113-278h-140v18h140v-18z m0 69h-140v31h140v-31z m-138-140h143v-51h-143v51z m43 949h51v-165h-51v165z m211-231l117 116 36-36-116-117-37 37z m103-195h165v-52h-165v52z m-739 0h164v-52h-164v52z m113 275l37 36 116-116-37-37-116 117z"/>
</svg>
