<svg xmlns="http://www.w3.org/2000/svg" viewBox="0 0 1000 1000">
  <path transform="translate(0,850) scale(1,-1)" fill="currentColor" d="M347 350c0 43 18 81 44 109 28 28 66 44 109 44 21 0 38-4 56-10 31-14 62-6 78 20-21 14-40 27-62 36-22 8-47 11-70 11-117 0-211-94-211-210 0-29 5-50 15-75 3-6 7-15 15-21 19-16 45-20 69-7-3 0-43 41-43 103l0 0z m328 102c-19 16-43 17-65 4 0 0 28-29 37-65 3-13 5-26 5-39 0-43-18-81-45-109-28-28-66-44-108-44-14 0-28 1-42 5-11 3-23 11-36 14-22 4-44-5-58-24-1-1 24-19 27-20 7-5 13-9 20-12 3-2 8-3 11-5 23-10 50-14 76-14 116 0 210 94 210 210 3 32-4 74-32 99l0 0z m-204 398h58v-182h-58v182z m0-818h58v-182h-58v182z m233 564l128 128 42-42-128-128-42 42z m-577-580l127 128 42-41-128-128-41 41z m691 363h182v-58h-182v58z m-818 0h182v-58h-182v58z m704-275l42 42 128-128-42-42-128 128z m-577 580l41 41 128-128-42-41-127 128z"/>
</svg>
