<svg xmlns="http://www.w3.org/2000/svg" viewBox="0 0 1000 1000">
  <path transform="translate(0,850) scale(1,-1)" fill="currentColor" d="M975 254l-125 353-1 5c-52 112-117 178-192 209-73 31-148 29-222 31-85 0-183-30-267-93-83-62-147-163-147-296 0-126 36-209 75-259 20-25 39-42 56-52v-302h92v327c0 19-12 35-29 42l0 0c-2 2-27 12-52 47-25 36-51 94-51 196 0 101 45 172 110 222 65 50 149 73 212 73 73 0 135-1 185-22 50-22 96-63 143-161l103-289h-49c-12 0-23-4-32-13-9-9-13-20-13-32v-165c0-15-12-26-27-26h-112c-11 0-23-5-32-14-9-8-13-20-13-32v-153h92v103l67 0c66 0 119 53 119 119v119h67c15 0 30 8 39 19 7 15 10 30 4 44l0 0z m-431 299c-41 0-73-28-73-72 0 44-33 72-74 72-41 0-73-35-73-79 0-84 147-187 147-187s147 103 147 187c0 44-34 79-74 79l0 0z"/>
</svg>
