<svg xmlns="http://www.w3.org/2000/svg" viewBox="0 0 1000 1000">
  <path transform="translate(0,850) scale(1,-1)" fill="currentColor" d="M904 732c-25 18-57 28-89 28h-13v90h-81v-91h-443v91h-81v-91h-13c-34 0-65-10-90-28-42-29-70-78-70-134v-53c0 0 0 0 0 0v-532c0-90 72-162 161-162h630c89 0 162 72 162 162v532c0 0 0 0 0 0v53c0 57-28 106-73 135l0 0z m-8-720c0-44-37-81-81-81h-630c-44 0-81 37-81 81v492h792c0 0 0-492 0-492z m-502 165l-26-84c-6-16 0-36 14-46 15-10 34-10 47 0l71 53 71-51c14-11 33-11 47 0 14 10 20 28 14 45l-26 84 71 51c14 11 20 28 14 46-6 16-20 28-38 28h-88l-27 84c-6 16-20 28-38 28s-32-12-38-28l-27-84-88 0c-18 0-32-12-38-28-6-16 0-35 15-46l70-52 0 0z"/>
</svg>
