<svg xmlns="http://www.w3.org/2000/svg" viewBox="0 0 1000 1000">
  <path transform="translate(0,850) scale(1,-1)" fill="currentColor" d="M450 556c4 4 7 10 7 16 0 6-3 12-7 16-4 5-10 8-16 8-6 0-12-3-16-8-5-4-8-10-8-16 0-6 3-12 8-16 4-4 10-7 16-7 6 0 12 3 16 7z m118-7c6 0 11 3 16 7 4 4 7 10 7 16 0 6-3 12-7 16-5 5-10 8-16 8-6 0-12-3-16-8-5-4-8-10-8-16 0-6 3-12 8-16s8-7 16-7z m251-436c-6 50-40 94-87 114l-105 44c-9 4-15 13-15 23v72c17 16 34 36 44 58 34 25 56 66 56 111v15c0 24-13 43-33 52l0 4c0 1 0 4 0 6 0 56-26 106-69 137-8 58-57 101-116 101-63 0-115-51-116-115-35-33-56-79-56-131 0 0 0-1 0-1-19-9-34-29-34-51v-45c0-28 21-51 47-57 9-32 28-62 53-84v-72c0-10-6-19-14-23l-106-44c-47-20-80-64-87-114l-31-257 47-6 31 257c4 34 26 64 57 75l31 14 75-122c5-6 11-11 16-11 8-1 14 2 20 6l66 58 66-58c6-4 12-6 19-6s13 5 16 11l78 125 40-17c31-13 53-42 57-75l34-257 47 6-31 257 0 0z m-226 589c22-23 35-50 36-83-45 30-83 69-107 116 0 0-1 2-1 2 28-3 53-16 72-35l0 0z m-146 80c12 12 30 21 49 21 19 0 36-7 48-21-12 3-25 5-38 5h0c-24 0-44-5-65-12 0 2 3 4 6 7z m-68-298l-7 93c3 23 9 41 18 57 13 23 34 40 54 50 15 7 31 12 44 15 34-56 83-103 140-134l-6-81 0 0c-1-10-3-19-6-30-13-7-28-11-44-11h-76v-47h76c0 0 2 0 2 0-21-15-46-24-72-24-21 0-40 5-56 13-39 21-64 56-67 99l0 0z m192-360l-42 35 25 25 34 34c-17 17-47 19-66 1l0 0-28-28-26 27c0 0 0 0 0 0l-2 1 0 0c-19 16-47 16-66-1l32-33 27-26-41-35-56 91 31 13c26 12 44 38 44 66v43c19-8 41-12 63-12 22 0 43 4 63 12v-43c0-29 18-56 44-66l22-9c0-1-58-95-58-95z m-281-58c-22-34-33-73-33-115 0-20 3-41 9-61l46 13c-5 15-8 31-8 47 0 34 11 66 28 94 3 5 5 9 5 13v62h-47l0-53 0 0z m420 55h-48v-62c0-5 1-10 4-13 19-27 28-61 28-95 0-16-3-32-7-47l45-13c6 21 9 41 9 62 0 40-10 79-32 115l1 53 0 0z m-239-74l0-176h47v223c-25 0-46-20-47-47z"/>
</svg>
