<svg xmlns="http://www.w3.org/2000/svg" viewBox="0 0 1000 1000">
  <path transform="translate(0,850) scale(1,-1)" fill="currentColor" d="M481 552l-152-152 39-38 104 104v-328h55v328l104-104 38 38-150 152c-10 10-28 10-38 0z m151 298h-435c-48 0-88-40-88-88v-246h0c1-29 25-51 54-51v297c0 19 15 34 34 34h397v-155c0-48 40-88 88-88h155v-615c0-19-15-34-34-34h-40v0c-29-1-51-25-51-54h91c49 0 88 40 88 88v653l-259 259z m50-243c-19 0-33 15-33 34v116l150-150c-2 0-117 0-117 0z m-110-703h-375c-19 0-34 15-34 34v390h0c-1 29-25 51-54 51v-441c0-48 40-88 88-88h378v0c29 1 52 25 52 54 1 0-55 0-55 0z"/>
</svg>
