<svg xmlns="http://www.w3.org/2000/svg" viewBox="0 0 1000 1000">
  <path transform="translate(0,850) scale(1,-1)" fill="currentColor" d="M606-22v165c0 7-3 14-9 20s-13 9-20 9h-153c-8 0-15-3-21-9-6-6-9-13-9-20v-164h-394v-57h1000v57h-394z m-57 0h-96v135h96v-135z m-321 269c-7 0-15-3-21-9-5-6-8-13-8-20v-115c0-7 3-15 8-21 6-5 14-8 21-8h115c7 0 14 3 20 8 6 6 9 14 9 21v115c0 7-3 14-9 20-6 6-13 9-20 9h-115z m85-115h-57v58h57v-58z m341 115c-7 0-14-3-20-9-6-6-9-13-9-20v-115c0-7 3-15 9-21 6-5 13-8 20-8h115c8 0 15 3 21 8 6 6 9 14 9 21v115c0 7-3 14-9 20-6 6-13 9-21 9h-115z m86-115h-58l0 58h58l0-58z m-702 155h49v-260c31 0 56 25 57 54h0v206h63c8 0 15 3 21 9l119 119 119-119c6-6 13-9 21-9h370l0-203v-3h0c2-31 27-54 58-54v260h48c9 0 18 4 22 12s8 16 6 25l-76 307c-3 13-15 22-28 22h-87v97c0 7-3 15-9 21-6 6-13 8-20 8h-115c-7 0-15-2-21-8-6-6-8-14-8-21v-98h-512c-13 0-25-9-28-23l-16-61h0l-12-53c29-8 60 10 69 39l0 0 10 42h65v-146h57v146h58v-128l-122-122h-121l16 63 13 53c-29 9-60-9-69-38l0 0 0-3-25-99c-1-9 0-18 6-25s13-10 22-10z m646 435h57v-69h-57v69z m-309-128h57v-145h58v145h57v-145h57v145h58v-145h59v145h58v-145h58v145h25l63-250h-428l-122 122 0 128 0 0z"/>
</svg>
