<svg xmlns="http://www.w3.org/2000/svg" viewBox="0 0 1000 1000">
  <path transform="translate(0,850) scale(1,-1)" fill="currentColor" d="M562 694l0 0 3 3 44 44c28 28 65 43 103 43 37 0 73-15 103-43 28-28 42-64 42-103 0-36-14-73-42-103l-434-431c-15-14-35-22-54-23-21 0-40 7-55 23-15 15-22 36-23 55 0 20 7 40 23 54l235 236-47 48-235-235c-28-28-43-65-43-103 0-37 15-74 43-103 28-28 65-43 103-43 37 0 74 15 103 43l432 432c41 41 62 96 62 150 0 55-21 109-62 150-44 41-98 62-151 62-55 0-109-21-150-62l-47-47c-24-26-24-66 1-91 2 0 46 44 46 44z m-38-637l-45-44-2-3-33-32c-41-41-95-62-150-62-54 0-107 21-150 62-41 41-62 96-62 150 0 54 21 107 62 150l303 303c24 26 24 66-3 93l-44-45-3-2-298-302c-55-54-81-126-81-197 0-71 28-143 81-197 0 0 0 0 0 0 54-55 125-81 197-81 70 0 142 26 197 81l35 35c22 27 21 66-4 91l0 0z m439 440l-44-44-332-332c-24-27-24-67 3-93l44 44 3 3 329 329 0 0c24 28 22 68-3 93l0 0z"/>
</svg>
