<svg xmlns="http://www.w3.org/2000/svg" viewBox="0 0 1000 1000">
  <path transform="translate(0,850) scale(1,-1)" fill="currentColor" d="M991 819l0 0c-3 12-12 21-23 24-2 0-39 9-90 9-34 0-72-3-112-15-39-12-81-31-113-65l-54-54-77-77-291 47c-9 2-19-1-27-9l-23-23 0 0-40-40c22-22 56-23 80-4 1 0 1 1 3 1l1 2 0 0 0 0 10 10 236-40-212-208-137 136 2 2 0 0 42 42c-22 22-56 24-79 5-2 0-2-2-3-2l-3-4-22-22c-12-12-12-31 0-43l10-9-60-60c-6-6-9-13-9-20s3-17 9-21l101-102c6-5 14-8 21-8s16 3 21 8l60 61 25-25 40-40-61-60c-6-6-9-13-9-21s3-16 9-20l102-102c6-6 13-9 20-9s16 3 21 9l60 60 40-39 0 0 25-25-60-61c-6-5-9-13-9-20s3-16 9-21l101-101c6-6 13-9 21-9s16 3 20 9l61 60 10-10c6-6 13-9 20-9s17 3 21 9l146 145c7 8 10 17 8 27l-48 291 76 76 55 55c34 34 53 73 64 113 12 40 15 80 15 112 6 47-1 84-3 85l0 0z m-859-478l-60 61 38 38 61-61c0 2-39-38-39-38z m209-210l-60 60 38 38 60-60-38-38z m211-209l-61 60 38 39 61-61-38-38z m122 419l0 0-42-41c3-3 6-4 9-7 12-8 25-11 38-11 8 0 14 3 20 5 3 1 5 3 8 4 2 2 8 6 9 8s3 3 3 3c6 5 12 11 19 17l40-235-115-115-10 10-101 102-25 25 55 56 2 1 40 40c-3 3-6 4-9 7-3 2-6 3-11 5-2 1-7 3-10 3s-7 1-10 1-7 0-10 0-8-1-11-3c-3-1-7-3-10-4s-7-3-10-6c-2-2-3-3-5-4s-3-3-3-3l-4-5-4-4c-2-2-5-5-6-6l-6-3c-2-2-5-4-6-6-2-1-5-4-6-6l-6-6-4-4c-2-2-3-3-5-5s-1-1-3-2l-1-2-40 40-29 29 131 131-44 44-131-131-30 30-39 39 319 320 91-92 91-91-129-128 0 0z m254 293c-9-32-25-63-50-88l-32-34-184 184 34 33c25 25 56 40 88 50 32 9 66 12 95 12 23 0 43-1 56-3h2c1-14 4-35 4-59 0-29-3-63-13-95z m-307-124c-11 0-21-4-28-11s-12-18-12-28 4-21 12-28 17-12 28-12 20 4 28 12 11 17 11 28-4 20-11 28c-8 7-18 11-28 11z"/>
</svg>
