<svg xmlns="http://www.w3.org/2000/svg" viewBox="0 0 1000 1000">
  <path transform="translate(0,850) scale(1,-1)" fill="currentColor" d="M2 444v-85c102 0 195-41 261-109 68-68 109-160 109-262h85c0 253-204 456-455 456z m17-373c-17-18-17-47 0-65s47-18 65 0 18 47 0 65-47 17-65 0z m-17 189v-85c102 0 186-84 186-187h86c0 150-122 272-272 272z m864 452h-732c-74 0-134-60-134-134v-66h85v66c0 26 22 49 49 49h732c27 0 49-23 49-49v-457c0-27-22-49-49-49h-338v-85h338c74 0 134 60 134 134v457c0 75-60 134-134 134z"/>
</svg>
