<svg xmlns="http://www.w3.org/2000/svg" viewBox="0 0 1000 1000">
  <path transform="translate(0,850) scale(1,-1)" fill="currentColor" d="M946 350l50 109c7 16 3 35-12 45l-99 70 0 3-1 10-6 69c-40-3-68-40-66-79l3-28c1-11 7-21 16-27l87-62-44-95c-5-11-5-21 0-31l44-96-87-61c-9-6-15-17-16-27l-11-106-105-10c-11-2-21-7-27-16l-62-87-95 44c-11 4-21 4-31 0l-96-44-61 87c-6 9-17 14-27 16l-40 3c-39 1-75-28-79-68l73-6v0l8 0 16-1 69-97c10-15 30-19 46-12l109 50 108-50c17-7 36-3 46 12l69 98 119 10c18 2 33 17 34 34l10 120 99 69c15 10 19 29 12 45l-53 109 0 0z m-628-131l314 313 52-51-313-313-53 51z m131 280c0 53-43 95-96 95-53 0-96-42-96-95 0-53 43-96 96-96 53 0 96 43 96 96z m-96-22c-12 0-22 10-22 22 0 11 10 22 22 22 12 0 22-11 22-22 0-12-10-22-22-22z m294-370c53 0 96 43 96 96 0 53-43 96-96 96-53 0-95-43-95-96 0-53 42-96 95-96z m0 120c12 0 22-11 22-23 0-11-10-22-22-22-12 0-22 11-22 22 0 12 10 23 22 23z m-462-77c-1 10-7 21-16 27l-87 61 45 96c4 10 4 20 0 31l-45 95 87 62c9 6 15 16 16 27l11 105 106 11c10 1 20 7 26 16l62 87 95-44c11-5 21-5 31 0l96 44 62-87c5-9 16-15 26-16l0 0 0 0 38-3c40-2 77 28 81 67v0l-73 6v0l-22 2-70 97c-10 15-29 19-45 12l-109-50-109 50c-16 7-35 3-45-12l-69-99-120-10c-17-1-32-16-33-34l-11-119-98-69c-15-10-19-29-12-46l51-107-50-109c-7-16-2-35 12-45l99-69 1-9 0 0 8-74c39 3 69 40 66 80l-5 26 0 0z"/>
</svg>
