<svg xmlns="http://www.w3.org/2000/svg" viewBox="0 0 1000 1000">
  <path transform="translate(0,850) scale(1,-1)" fill="currentColor" d="M906 556c-2 7-6 15-10 21l-264 261c-1 2-4 3-5 5 0 0 0 0 0 0-5 3-9 4-15 6-2 1-5 1-6 1h-474c-10 0-20-4-28-12s-11-17-11-28v-151c0-22 17-40 39-40s40 18 40 40v113h394v-223c0-11 5-21 12-28 7-8 18-12 28-12h223v-581h-657v554c0 22-18 40-40 40s-39-18-39-40v-594c0-10 4-20 11-28 8-6 18-10 28-10h736c10 0 20 4 28 12 7 7 11 17 11 28v659c0 3 0 4-1 7l0 0z m-262 32v128l128-128h-128z m-137-366c-7-3-14-4-22-4-11 0-23 3-35 10-12 9-23 19-32 34l-65-46c15-20 34-39 56-54 13-9 28-15 44-19v-40h78v43c0 0 0 0 1 0 22 7 43 20 59 39 16 18 30 43 30 71 0 18-6 35-17 51-13 21-30 33-48 40-18 7-35 12-50 15-18 3-35 6-46 10-4 2-7 5-10 6-1 1-3 3-4 7 0 2-2 3-2 6 0 6 3 15 5 16 4 6 10 11 17 14 8 3 16 4 25 4 13 0 27-3 37-9 12-6 19-13 25-22l68 40c-14 23-34 41-58 53-10 6-22 10-34 13v49h-73v-49c-6-1-10-3-16-6-18-7-34-19-49-35-16-21-23-44-23-68 0-9 1-19 4-29 5-16 13-31 25-41 16-17 35-24 52-28 16-5 32-8 45-9 10-2 22-5 30-9 8-4 13-9 14-10 3-5 3-6 3-9 0-4-1-10-9-19-5-6-16-12-25-15l0 0z"/>
</svg>
