<svg xmlns="http://www.w3.org/2000/svg" viewBox="0 0 1000 1000">
  <path transform="translate(0,850) scale(1,-1)" fill="currentColor" d="M212 496h362v-62h-362v62z m0 131h362v-62h-362v62z m0-264h220v-61h-220v61z m535-1v379c0 61-48 109-109 109h-489c-62 0-114-51-114-115v-729c0-58 47-105 105-105h413c43-32 97-53 154-53 143 0 258 115 258 258 0 131-94 235-218 256z m-40-77c11 0 21-4 28-11s12-18 12-28-4-21-12-28-17-12-28-12c-10 0-20 4-28 12s-11 17-11 28 4 20 11 28 18 11 28 11z m-257-178c0-45 13-86 32-123h-344c-13 0-22 10-23 23v728c0 18 14 33 32 33h490c16 0 28-14 28-28v-380c-121-19-215-123-215-253z m337-139h-156v61h46v77h-46v62h107v-139h49c0 0 0-61 0-61z"/>
</svg>
