<svg xmlns="http://www.w3.org/2000/svg" viewBox="0 0 1000 1000">
  <path transform="translate(0,850) scale(1,-1)" fill="currentColor" d="M747 362v244c0 0 0 0 0 0 0 6-1 10-3 16 0 2-1 2-1 3-2 4-5 7-8 10 0 0 0 0 0 0l-213 203c-1 2-4 3-6 5-1 1-4 3-6 4-6 2-10 3-16 3h-345c-62 0-114-51-114-115v-729c0-58 47-105 105-105h413c43-32 97-53 154-53 143 0 258 115 258 258 0 131-94 235-218 256z m-297-255c0-45 13-86 32-123h-344c-13 0-22 10-23 23v728c0 18 14 33 32 33h305v-164c0-10 4-20 11-27 8-8 18-12 28-12h172v-205c-119-19-213-123-213-253z m419-39h-103v-103h-81v103h-103v81h103v103h81v-103h103v-81z"/>
</svg>
