<svg xmlns="http://www.w3.org/2000/svg" viewBox="0 0 1000 1000">
  <path transform="translate(0,850) scale(1,-1)" fill="currentColor" d="M915 622c0 2-2 2-2 3-1 4-4 7-7 12 0 0 0 0 0 0l-200 191c-2 1-4 3-7 4-9 11-21 18-36 18-3 0-6-1-7-1-3 0-6 1-9 1h-225c-85 0-156-69-156-156v-522c0-81 65-145 146-145h360c81 0 146 64 146 145v432c0 0 0 0 0 0 0 6 0 12-3 18l0 0z m-81-70v-380c0-34-27-60-60-60h-362c-34 0-60 26-60 60v522c0 40 32 71 70 71h200v-161c0-11 5-22 12-29s19-12 29-12h169c2-1 2-11 2-11z m-668-487v334h-84v-336c0-119 96-215 215-215h288v86h-288c-72 1-131 59-131 131z"/>
</svg>
