<svg xmlns="http://www.w3.org/2000/svg" viewBox="0 0 1000 1000">
  <path transform="translate(0,850) scale(1,-1)" fill="currentColor" d="M754 850h-532c-72 0-131-59-131-131v-828c0-12 5-22 12-29s19-12 29-12h733c12 0 22 4 29 12s12 19 12 29v805c3 85-66 154-152 154z m70-916h-234v104c0 50-40 90-90 90-50 0-90-40-90-90v-104h-233l0 785c0 25 20 46 45 46h532c39 0 71-31 71-71v-760z m-406 743h-112c-9 0-18-3-24-11-5-6-10-14-10-23v-112c0-9 3-18 10-24 6-5 15-10 24-10h112c9 0 17 3 23 10 6 6 11 15 11 24v112c0 9-3 17-11 23-4 8-13 11-23 11z m275 0h-112c-9 0-18-3-24-11-5-6-10-14-10-23v-112c0-9 3-18 10-24 6-5 15-10 24-10h112c9 0 17 3 23 10 6 6 11 15 11 24v112c0 9-3 17-11 23-6 8-14 11-23 11z m-275-248h-112c-9 0-18-2-24-10-5-6-10-15-10-23v-112c0-9 3-18 10-24 6-6 15-10 24-10h112c9 0 17 3 23 10 6 6 11 15 11 24v112c0 8-3 17-11 23-4 8-13 10-23 10z m275 0h-112c-9 0-18-2-24-10-5-6-10-15-10-23v-112c0-9 3-18 10-24 6-6 15-10 24-10h112c9 0 17 3 23 10 6 6 11 15 11 24v112c0 8-3 17-11 23-6 8-14 10-23 10z"/>
</svg>
