<svg xmlns="http://www.w3.org/2000/svg" viewBox="0 0 1000 1000">
  <path transform="translate(0,850) scale(1,-1)" fill="currentColor" d="M788 310v-251l-226 223 60 55c21 20 22 53 2 73l-39-33-131-118c-10-9-22-13-35-13-13 0-25 4-35 13l-287 262 431 0c28 1 51 25 51 53h-552c-8 0-15-3-20-8s-7-12-7-19v-551c0-8 3-15 7-20s12-8 20-8h788c7 0 14 3 19 7s7 12 7 19l0 265c0 29-23 51-53 51l0 0z m-734 177l227-205-227-223c0 0 0 428 0 428z m39-465l228 225 29-26c21-18 46-27 71-27 25 0 50 9 70 27l30 26 229-225h-657z m723 710c-101 0-184-82-184-183 0-102 83-184 184-184 102 0 184 82 184 184 0 100-82 183-184 183z m91-278c-23-23-55-38-92-38-37 0-69 15-93 38-23 24-38 56-38 93 0 37 15 69 38 93 24 23 56 38 93 38 37 0 69-15 92-38 24-24 39-56 39-93 0-37-14-69-39-93l0 0z m-60 162c0 8-3 15-7 19s-12 8-19 8h-58v-55h30v-70h-30v-55h115v55h-29c-2 0-2 98-2 98z"/>
</svg>
