<svg xmlns="http://www.w3.org/2000/svg" viewBox="0 0 1000 1000">
  <path transform="translate(0,850) scale(1,-1)" fill="currentColor" d="M896 752l-389 97c-5 1-10 1-16 0l-387-97c-14-3-25-17-25-31l0-234c2-34 30-62 65-62v271l355 88 355-88v-417c0-42-13-83-41-127-28-43-72-87-131-130-78-56-155-91-158-93l-24-11-25 10c-3 1-81 37-159 93-59 42-103 86-131 129-28 43-41 91-41 134-1 35-29 66-65 66v-66c0-56 18-116 52-168 34-51 84-100 147-147 84-60 165-97 169-100l38-16c9-5 18-5 27 0l38 16c4 2 87 38 171 100 64 47 113 96 147 147 34 52 51 108 51 163v442c2 14-9 28-23 31z m-477-523c6-5 15-8 24-8s17 3 23 8l246 246v0l44 44c-25 25-65 25-90 2l-223-222-77 76-44 44c-25-25-25-65-1-90l98-100 0 0z"/>
</svg>
