<svg xmlns="http://www.w3.org/2000/svg" viewBox="0 0 1000 1000">
  <path transform="translate(0,850) scale(1,-1)" fill="currentColor" d="M206 9c-6-6-9-12-9-19 0-8 3-15 9-19s12-9 19-9 15 3 19 9 9 11 9 19c0 7-3 14-9 19-6 6-12 9-19 9s-13-5-19-9z m72 298c15 15 35 25 59 25 23 0 44-8 59-25 14-14 25-35 25-58v-70h0c1-29 25-52 56-52v122c0 76-62 138-139 138-76 0-138-62-138-138v-136c-57-13-98-63-98-123 0-71 57-127 126-127 71 0 126 58 126 127 0 60-42 110-98 123v136c-3 23 7 44 22 58l0 0z m-1-267c13-13 20-31 20-50 0-19-7-37-20-50-14-14-31-21-50-21-20 0-37 7-50 21-14 13-21 31-21 50 0 19 7 37 21 50 13 13 30 20 50 20 19 0 36-7 50-20z m589 729c-22 22-53 37-88 37h-7v44h-56v-148h56v48h7c19 0 35-7 47-21 12-11 19-29 19-47 0-5 0-10-1-16l-59-231c-13-53-60-88-115-88-54 0-101 37-115 90l-58 231c-2 6-2 11-2 16 0 18 8 34 19 47 12 12 28 21 47 21h14v-49h58v147h-55v-44h-14c-34 0-64-15-86-37-23-22-36-53-36-87 0-10 2-20 5-29l58-231c11-40 33-72 64-95l-2 0 78-150v-189c0-23-9-44-25-59-15-14-35-25-59-25h-1c-24 0-44 9-59 25-15 15-25 36-25 59v55h0c-1 29-25 53-56 53v-106c0-77 62-139 138-139h2c76 0 138 62 138 139v187l78 150 0 0c31 23 53 55 63 95l59 231c3 10 5 21 5 31 0 32-14 63-36 85l0 0z m-195-526l-27 50c9-2 18-2 27-2 8 0 17 2 25 2 0 0-25-50-25-50z"/>
</svg>
