<svg xmlns="http://www.w3.org/2000/svg" viewBox="0 0 1000 1000">
  <path transform="translate(0,850) scale(1,-1)" fill="currentColor" d="M471 538h58v-386h-58v386z m114-578l-476 0c-16 0-28 6-37 15-9 9-15 21-15 32 0 8 2 15 6 22l139 245 27 50c-26 14-61 5-77-21l-139-246c-9-16-13-33-13-50 0-28 12-54 31-73 19-19 47-31 78-31h531c0 31-24 56-55 57l0 0z m402 97l-391 686c-11 17-25 32-43 41-16 9-35 13-54 13-20 0-37-4-55-13-16-9-32-24-42-41l-148-259-27-50c26-15 60-7 77 19l150 262c5 9 12 14 20 19 7 4 17 6 26 6 9 0 19-3 27-6 7-5 14-10 19-19l391-686c4-7 6-14 6-22 0-11-5-23-15-32-9-9-22-15-37-15h-176c0-31 25-56 54-57l121 0c31 0 59 12 78 31 19 19 31 45 31 73 1 17-3 34-12 50l0 0z m-487 46c-7 0-15-3-21-9-5-6-8-13-8-20s3-15 8-21c6-6 14-9 21-9s15 3 21 9c6 6 8 13 8 21s-2 14-8 20c-6 6-14 9-21 9z"/>
</svg>
