<svg xmlns="http://www.w3.org/2000/svg" viewBox="0 0 1000 1000">
  <path transform="translate(0,850) scale(1,-1)" fill="currentColor" d="M509 837c-9 9-21 13-34 13-12 0-25-4-32-13l-346-346 66-66 266 266v-651h93v651l266-266 66 66-345 346z m404-908c-9 9-20 14-32 14-12 0-25-5-32-14s-14-20-14-32c0-12 5-25 14-32s19-15 30-15c12 0 25 4 33 13s13 21 13 33-4 25-12 33z m-185 14c-12 0-25-5-32-14s-14-20-14-32c0-12 5-25 14-32s20-14 32-14c12 0 25 5 32 14s14 20 14 32-5 25-14 32-20 14-32 14z m-151 0c-12 0-25-5-33-14s-15-20-15-32c0-12 5-25 14-32s20-14 32-14c12 0 25 5 32 14s14 20 14 32-5 25-14 32-19 14-30 14z m-153 0c-12 0-25-5-33-14s-13-20-13-32c0-12 4-25 13-32s21-15 33-15c11 0 25 4 32 13s13 21 13 33-4 25-13 32-19 15-32 15z m-152 0c-12 0-25-5-32-14s-13-20-13-32c0-12 4-25 13-32 9-9 20-14 32-14 12 0 25 5 32 14s14 20 14 32-5 25-14 32-20 14-32 14z m-151 0c-12 0-25-5-33-14s-14-20-14-32c0-12 4-25 13-32s22-15 34-15c11 0 25 4 32 13s13 21 13 33-4 25-13 32-21 15-32 15z"/>
</svg>
