<svg xmlns="http://www.w3.org/2000/svg" viewBox="0 0 1000 1000">
  <path transform="translate(0,850) scale(1,-1)" fill="currentColor" d="M932 159l0-309h58v365c-31 0-56-25-58-56z m-80 547l-183 73v71h-57v-81l-112-169c-15-26-9-62 18-79l0 0 29 45 103 159 28-12-268-407h-32l91 140 0 0c15 26 8 60-17 78v0l-31-49-112-169h-56l0 121c-1 30-26 54-57 54h0v-175h-128v194c0 68 41 128 103 153l200 81c10 4 17 15 17 26v90h-57v-69l-182-74c-84-33-140-116-140-207v-346c0-88 72-158 159-158h26v-146h58v144h248c7 0 15 3 21 9s8 13 8 21v7h34c69 0 127 56 127 126 0 70-56 127-127 127h-34c-1 6-4 12-7 16-7 3-15 6-22 6h-21l253 387 96-39c62-25 103-86 103-152v-246c31 0 56 25 57 54h0v192c2 88-53 170-136 204l0 0z m-750-628c-2 1-3 3-5 4-19 20-29 45-29 72v93h35v-169l-1 0z m94-26h-27c-3 0-6 0-9 1v194h36v-195z m91 0h-34v195h34v-195z m92 0h-35v195h35v-195z m150 172h34c19 0 36-8 49-21 12-12 20-29 20-49 0-19-7-35-20-48-12-12-30-21-49-21h-34c0 2 0 139 0 139z m-58-172h-36v195h36v-195z m311 373l0-575h58v631c-31 0-56-25-58-56l0 0z"/>
</svg>
