<svg xmlns="http://www.w3.org/2000/svg" viewBox="0 0 1000 1000">
  <path transform="translate(0,850) scale(1,-1)" fill="currentColor" d="M877 535c4 5 7 12 7 19s-3 14-7 20c-5 4-12 7-20 7s-13-3-19-7c-4-5-7-12-7-20s3-13 7-19c5-4 12-7 19-7s14 3 20 7z m101 47l-26 24c-5 9-12 25-27 40-12 11-28 23-48 31-17 5-36 10-58 11l-19 53c-3 9-9 18-18 22-7 5-16 8-25 8-8 0-17-3-25-8-7-6-14-14-17-23l-31-111c-12-19-18-36-21-51-3-16-3-26-3-28v-63c0-31-25-56-56-56h-48c-132 0-238-107-238-238v-211h-56c-19 0-35 16-35 36v217c0 81-67 147-148 147h-79v-53h79c52 0 93-41 93-92v-216c0-49 40-89 88-89h83c7 0 13 3 19 8 4 4 7 11 7 19v234c0 51 21 97 55 131 33 33 79 54 130 54h49c60 0 109 49 109 109v62c0 0 0 1 0 4 1 10 4 32 17 50 2 3 3 4 3 7l25 86 15-43c5-10 13-18 25-18 25 0 44-4 57-8 21-9 33-20 39-30 3-4 6-9 6-12l1-3 0 0 0 0c2-5 4-10 9-13l32-28c2-1 3-4 3-7v-24c0-3-1-6-4-7l-55-41c-7-5-10-13-10-22v-46c0-29-3-59-10-87-9-32-21-64-38-92l0 0-18-36c-3-4-5-8-5-13v-117c0-8 3-14 8-20 4-4 12-7 19-7h3c6 0 10-1 13-6 3-3 6-9 6-13l0-1c0-5-3-9-6-12-4-3-9-6-15-6h-55c-11 0-20 9-20 19v201h-53v-133c-5 1-13 3-19 3h-38v41c0 85-57 157-137 179l-14-51c56-15 97-66 97-128v-66c0-8 3-14 7-20 4-4 12-7 19-7h66c11 0 19-9 19-19 0-10-8-19-19-19h-235v0c-28-2-50-25-50-53h285c18 0 34 6 46 17 13-10 28-16 46-16h55c20 0 37 8 50 19 14 12 24 30 25 49 0 2 0 3 0 6 0 21-8 38-22 51-7 8-17 14-28 18v88l17 28 0 0c19 34 33 69 44 108l-27 5 27-5c9 32 11 66 11 100v32l45 32 0 0c14 12 25 31 25 50v24c1 16-6 34-21 45l0 0z"/>
</svg>
