<svg xmlns="http://www.w3.org/2000/svg" viewBox="0 0 1000 1000">
  <path transform="translate(0,850) scale(1,-1)" fill="currentColor" d="M912 662c-113 113-293 116-412 13 3-3 3-3 0 0-4-3-4-3 0 0-9 7-18 15-26 22-2 2-5 3-6 5-2 1-3 1-5 1-50 31-106 49-163 49-38 0-78-8-113-23-37-14-71-36-100-66-9-9-15-17-22-28-6-7-12-13-16-20-2-2-2-5-3-6-53-85-61-191-19-282 14-33 35-64 61-92l133-132c0 0 64-66 66-68 117-117 310-117 428 0l197 199c59 59 88 137 88 215s-29 154-88 213l0 0z m-706-344l0-3-21 20c-63 64-63 168 0 231l0 0c59 59 153 63 218 12v0l-1-1-114-114c-44-41-70-92-82-145l0 0z m606 16l-197-197c-58-58-146-62-209-16-6 4-12 8-18 13-59 65-66 173-4 235l113 113 2 2 79 79c6 6 13 12 21 18l0 0c47 34 105 40 157 18 21-8 40-20 56-37 63-62 63-165 0-228z m-119 223c-64 0-114-51-114-113s52-113 114-113 113 51 113 113-50 113-113 113z"/>
</svg>
