<svg xmlns="http://www.w3.org/2000/svg" viewBox="0 0 1000 1000">
  <path transform="translate(0,850) scale(1,-1)" fill="currentColor" d="M791 375c-87 203-257 456-257 457-7 11-21 18-34 18s-26-7-34-18c0 0-76-113-151-248-38-68-77-141-106-209-30-68-50-129-50-182-2-190 153-343 341-343 188 0 343 153 343 343-2 53-22 113-52 182z m-107-368c-47-47-112-76-184-76-72 0-137 29-184 76-47 47-76 112-76 184 0 30 16 87 44 150 41 96 104 208 156 294 23 39 44 72 60 97 35-54 91-145 143-241 32-59 61-120 84-173 22-53 33-102 33-127 0-70-29-135-76-184z m-293 186h-82c0-106 85-191 191-191v82c-60 0-109 48-109 109z"/>
</svg>
