<svg xmlns="http://www.w3.org/2000/svg" viewBox="0 0 1000 1000">
  <path transform="translate(0,850) scale(1,-1)" fill="currentColor" d="M999 399l-84 191c-5 9-13 14-24 14h-170c-8 0-14-2-18-7-4-4-7-12-7-18v-180h-40c4 10 7 20 7 32 0 51-41 93-92 93h-218v51h34c3 0 6-1 9-3l26-22 0 0c22-16 53-12 69 9l-39 32-25 22c-12 9-25 15-40 15h-181c-21 0-41-10-53-26l-34-45h-19c-46 0-82-36-82-82v-44c0-21 7-38 19-52-22-19-37-47-37-77v-36c0-54 44-97 97-97h31c12-54 60-95 118-95 57 0 106 41 117 95h103c0 28-22 49-48 50v0h-55c-11 55-60 96-117 96-58 0-106-41-118-96h-31c-25 0-47 21-47 47v36c0 25 21 47 47 47h624c7 0 13 3 17 7 5 4 8 12 8 18v180h129l9-20h-60c-8 0-14-3-18-7s-7-12-7-18v-121c0-7 3-13 7-17s12-8 18-8h126v-144h-19c-12 55-60 96-118 96-57 0-106-41-117-96h-186c0-28 22-50 49-50l135 0c12-54 60-95 118-95 57 0 106 41 117 95h45c7 0 13 3 17 8 5 4 8 11 8 17v194c1 3 1 8 0 11l0 0z m-802-156c13 13 30 20 49 20 19 0 36-7 48-20 13-14 21-30 21-49 0-19-8-37-21-48-13-14-29-21-48-21-19 0-37 7-49 21-13 13-20 29-20 48 0 19 7 35 20 49z m87 334h19v-52h-59l40 52z m312-173c-12 25-39 45-68 45-32 0-59-21-71-49l-238 0c-10 28-38 49-70 49-30 0-56-18-68-43-7 6-13 15-13 25v44c0 18 14 31 31 31h30c8 0 15 4 21 10l41 55c3 4 8 6 13 6h14l-47-62c-6-8-8-18-3-27 4-9 13-14 22-14h375c23 0 42-20 42-43 3-10-3-21-11-27l0 0z m253 9v69h57l29-69h-86l0 0z m13-269c-13-13-30-20-49-20-19 0-36 7-48 20-13 13-21 30-21 49 0 19 8 36 21 48 13 13 29 21 48 21 19 0 37-8 49-21 13-13 20-29 20-48 0-19-7-36-20-49z m-49 75c-7 0-13-3-17-7s-8-12-8-18c0-7 3-13 8-17 4-5 11-8 17-8s14 3 18 8c4 4 7 11 7 17 0 8-3 13-7 18s-12 7-18 7z m-567-51c7 0 13 3 17 7 5 4 8 12 8 18 0 7-3 13-8 17s-11 8-17 8-14-3-18-8-7-10-7-17c0-8 3-14 7-18 4-4 12-7 18-7z"/>
</svg>
