<svg xmlns="http://www.w3.org/2000/svg" viewBox="0 0 1000 1000">
  <path transform="translate(0,850) scale(1,-1)" fill="currentColor" d="M840 850h-680c-88 0-160-72-160-160v-678c0-90 72-162 160-162h678c89 0 161 72 161 160v680c1 88-71 160-159 160z m-706-472c-10 24-15 47-15 74 0 104 84 189 190 188 50 0 94-19 128-52l-49-48-219-216c-15 16-26 33-35 54l0 0z m685-59l-54-54-186-187-82-78-82 78 0 0-18 19 269 269 37 37c10 10 16 26 15 41-3 21-21 38-41 41-17 3-31-3-43-13l-93-93-213-213-16 16-38 39-45 44 265 264 2 2 28 28 3 3 0 0 25 25c36 37 89 59 147 54 91-7 166-73 175-164 7-61-17-120-55-158l0 0z"/>
</svg>
