<svg xmlns="http://www.w3.org/2000/svg" viewBox="0 0 1000 1000">
  <path transform="translate(0,850) scale(1,-1)" fill="currentColor" d="M618 334c3 10 3 20 3 31 0 31-11 60-28 84-18 23-44 42-74 50h0c-12 3-23 4-35 4-62 0-116-41-134-103l-48-182c-3-11-9-21-15-30l-115-139 0 0c-19-27-15-64 10-84l40 47 113 137c14 16 22 33 28 53l49 182c9 35 40 57 73 57 6 0 14-1 19-3 18-4 31-14 42-28 10-13 16-29 16-47 0-6 0-11-2-17l-51-227c-3-12-7-22-15-31l-135-169c-5-6-12-9-18-9l-3 0c-6 2-10 5-14 9-3 4-6 10-6 16 0 6 1 11 6 15l125 156c3 3 4 7 5 12l68 254-60 16-66-247-121-151c-13-17-19-36-19-55 0-20 7-39 19-54 12-16 31-28 53-31 4 0 9-2 13-2 25 0 50 12 66 33l136 169c13 16 22 35 28 56l47 228 0 0z m-397-144c23 28 41 62 50 97l26 98-60 17-27-99c-7-28-20-53-38-74l-56-67 47-40 58 68 0 0z m514 172c0 56-19 110-51 154-32 44-80 77-137 91-20 5-41 8-62 8-29 0-57-5-83-15-61-22-112-68-142-128l56-26c22 45 61 79 108 97 19 7 41 10 61 10 15 0 31-1 47-6h0c43-10 78-35 103-69 25-32 40-74 40-116 0-15-1-30-4-44l-49-205c-6-23-15-44-28-63l-51-77 51-33 52 76c17 25 29 55 36 84l49 204c3 18 4 39 4 58z m-535 82c24 94 90 166 171 202 36 16 76 25 117 25 24 0 47-3 72-9 47-12 90-35 124-66l41-44c25 23 27 61 3 86-43 39-94 68-154 83-30 7-58 10-87 10-50 0-97-10-141-29-99-43-177-130-206-243l-34-131 60-15 34 131 0 0z m560 46c17-38 25-80 25-121 0-22-3-44-7-67l-62-278 61-14 61 278c6 27 9 55 9 81 0 52-10 100-31 146 2 0-56-25-56-25z m-433 267c29 14 47 47 36 77l-57-19c-125-50-228-153-272-288-7-33 12-65 44-74l16 57c37 114 125 202 233 247z m270 81c-13 3-25 6-38 8-25 3-50 6-75 4-15 0-27-6-38-15-8-6-14-14-18-23-1-5-3-9-4-15 0-1-2-15-2-15 7 0 15 2 22 2 21 1 41 4 62 3 26-2 53-5 78-10 188-45 323-217 323-405 0-28-3-57-8-85 0 0-6-27-6-27-6-32 14-63 47-70 0 0 13 57 13 57l6 27c7 33 10 66 10 98-1 219-156 415-372 466l0 0z"/>
</svg>
