<svg xmlns="http://www.w3.org/2000/svg" viewBox="0 0 1000 1000">
  <path transform="translate(0,850) scale(1,-1)" fill="currentColor" d="M963 813c-25 25-57 37-88 37-32 0-65-12-88-37l-133-132-39-40-58-56-26-26c-27-30-25-74 3-102l50 50 66 67 72-72-456-456-72 72 233 232c26 29 32 81 4 109l-53-53 0 0-9-9 0 0c0 0 0 0 0 0l-1-1 0 0-253-255c-3-3-6-7-8-10l-103-228c-6-15-2-31 8-41 10-11 28-14 41-8l228 103c4 2 7 5 10 8l672 672c25 25 37 57 37 88 0 31-12 63-37 88z m-851-851l41 90 50-50c-1 0-91-40-91-40z m798 726l-136-136-72 72 136 136c11 11 24 15 37 15 13 0 27-4 37-15 10-10 15-23 15-36 0-12-6-25-17-36l0 0z"/>
</svg>
