<svg xmlns="http://www.w3.org/2000/svg" viewBox="0 0 1000 1000">
  <path transform="translate(0,850) scale(1,-1)" fill="currentColor" d="M703 553c0 0 0 0 0 0-51 51-124 84-204 84-80 0-152-33-205-84 0 0 0 0 0 0s0 0 0 0c-51-51-84-124-84-204 0-80 33-152 84-205 0 0 0 0 0 0s0 0 0 0c52-51 124-84 205-84 79 0 151 33 204 84 0 0 0 0 0 0s0 0 0 0c51 52 84 124 84 205 1 80-31 153-84 204 0 0 0 0 0 0z m-379-76l91-92h-130c6 33 19 65 39 92z m-39-162h130l-91-93c-20 27-33 59-39 93z m180-180c-34 6-65 19-91 39l91 91v-130z m0 299l-91 93c26 19 57 32 91 38v-131z m70 129c34-6 65-19 92-38l-92-91v129z m0-428v130l92-91c-27-21-58-34-92-39z m142 87l-92 91h130c-6-32-19-64-38-91z m-92 162l92 91c19-26 32-57 38-91h-130z m-467-230c-25 50-41 105-46 161h46v70h-46c6 67 27 133 63 193 12 18 24 35 37 50l32-32 50 50-32 32c69 59 155 93 243 101v-47h70v46c67-6 131-26 192-63 25-16 48-34 69-53l0 0v0c26-30 70-31 100-5l-46 52c-26 23-54 47-87 66-81 50-173 75-263 75-166 0-329-84-425-237-50-81-75-173-75-263 0-81 19-160 57-232 21-33 64-43 97-22l-36 58 0 0z m845 384c-17 34-59 49-94 33l31-64c15-39 25-80 28-122h-46v-70h46c-6-66-26-131-63-191-12-20-24-36-38-52l-33 32-50-50 33-32c-70-59-155-93-243-100v46h-71v-46c-66 6-131 26-191 63-19 12-37 25-53 39-28 23-69 22-95-5l50-48 0 0c19-17 39-31 61-46 83-50 175-75 265-75 168 0 331 84 425 237 50 81 75 173 75 263 0 65-13 128-37 188l0 0z"/>
</svg>
