<svg xmlns="http://www.w3.org/2000/svg" viewBox="0 0 1000 1000">
  <path transform="translate(0,850) scale(1,-1)" fill="currentColor" d="M390 154c50-55 89-92 89-92 12-10 30-10 42 0 1 1 103 94 185 216 0 0 0 0 0 0 0 0 1 1 1 1 2 3 3 6 5 9 10 27 1 59-25 74l-33-52c-38-57-82-108-116-145-14-16-28-30-38-40-26 27-73 75-121 137-32 42-64 91-86 140-24 48-39 97-39 141 0 67 28 129 73 173 44 44 105 72 173 72 68 0 129-28 174-72 44-44 72-106 72-173 0-34-8-64-24-106 0 0 0-2 0-2 0 0 0-1 0-1 0-2 0-3-1-5-8-29 6-60 35-72 0 0 23 53 23 55 20 48 30 88 30 131l0 0c-3 170-140 307-309 307-169 0-306-137-306-306 0-59 19-117 46-172 41-84 100-160 150-218z m-12 390c0-67 54-122 122-122 68 0 122 55 122 122 0 68-54 122-122 122-68 0-122-54-122-122z m182 0c0-34-28-60-60-60-34 0-60 28-60 60 0 34 28 60 60 60 34 0 60-26 60-60z m346-453c-7 13-18 25-29 36-18 14-39 25-62 32-24 9-49 15-77 20-32 5-63-16-69-48l60-12c46-10 83-20 103-35 11-7 18-15 22-22 5-9 8-18 8-33 0-4-2-8-5-14-5-11-17-24-38-36-29-19-75-35-131-47-54-11-119-19-188-19-104 0-200 16-266 41-32 12-59 27-74 42-7 7-13 13-16 19-3 6-4 10-4 14 0 15 3 25 7 33 3 6 9 12 15 17 10 9 25 17 44 23 19 5 41 11 66 17l60 12c-7 32-36 53-69 48-50-10-92-22-126-44-18-11-33-25-43-44-10-17-15-39-15-63 0-16 5-31 12-44 13-24 34-43 59-59 38-24 90-43 150-56 59-12 127-19 200-19 112 0 212 16 287 46 38 14 69 30 94 52 12 11 22 23 29 36 8 13 12 28 12 44 0 24-6 44-16 63l0 0z"/>
</svg>
