<svg xmlns="http://www.w3.org/2000/svg" viewBox="0 0 1000 1000">
  <path transform="translate(0,850) scale(1,-1)" fill="currentColor" d="M812 554l-12 0c-46 0-85-30-96-75l-97 295 0 0c-13 39-48 70-92 73l-5 0c-25 0-48-10-64-25-19 18-43 28-68 28-10 0-21-1-31-4-35-12-60-42-68-75-2 0-5 1-8 1-11 0-21-1-31-4-43-14-71-53-71-97 0-11 2-21 5-31l1-8c-9 0-16-1-25-4-43-13-71-53-71-97 0-10 2-21 5-31l104-332 9-30 22-72c34-109 134-178 241-178 25 0 52 5 77 12l228 73c35 12 64 37 79 71l16 37 3 12 37 353 0 10c0 50-37 93-88 98l0 0z m12-101l-36-347-13-31c-6-13-18-23-32-28l-225-71c-18-5-36-8-53-8-75 0-144 48-168 123l-22 72-9 30-104 332-2 7c0 11 8 21 18 24l7 1c11 0 21-7 24-17l70-234 74 23-106 334-1 8c0 10 7 20 17 23l8 2c10 0 20-8 23-18l99-315 73 24-112 354-1 8c0 10 7 20 18 23l7 2c10 0 21-8 24-18l13-40c0 0 0 0 0 0l92-294 74 24 0 0 0 0-93 294-1 7 3 12c4 7 12 13 22 13l1 0c9 0 19-7 22-19l0 0 150-454c6-18 22-28 40-27s32 16 35 34l19 153c2 12 12 19 23 19l2 0c12-1 20-10 20-22l0-3 0 0z m-709-351c0 19 3 38 9 57l-74 23c-9-26-13-54-13-80 0-112 72-217 184-252l23 73c-78 25-129 99-129 179z m584 717l0-78c103 0 186-84 186-187v0h78v0c-1 146-119 265-264 265z"/>
</svg>
