<svg xmlns="http://www.w3.org/2000/svg" viewBox="0 0 1000 1000">
  <path transform="translate(0,850) scale(1,-1)" fill="currentColor" d="M104 410c-2-7-4-16-4-25 0-17 7-35 21-50 13-13 32-20 50-20 17 0 35 7 50 20l20 21c3-4 6-7 9-10 2-2 3-3 4-3 14-12 30-18 46-18 18 0 35 7 50 21l53 53c3-5 6-8 9-11 13-13 32-20 50-20 17 0 35 7 50 20l15 15 1 1 38 39c-22 22-56 22-78 1l0 0-16-16c-3-3-6-4-10-4-3 0-8 1-10 4-3 3-5 6-5 10 0 3 2 8 5 11l36 36h250c8 0 15 3 21 9l165 165-40 40-157-158h-295c5 9 9 18 17 24 13 13 32 22 51 22h152v56h-311c-7 0-14-3-20-9l-106-106-66-66c-3-3-6-5-11-5-3 0-7 2-10 5-3 3-4 6-4 10 0 3 1 7 4 10l196 193 169 40 200 9c7 0 13 3 19 8l50 50 53-53 0 0c22-20 56-19 78 2l-40 38-1 2-71 70c-12 12-29 12-40 0l-62-62-191-8-6 0-180-43c-5-1-11-4-14-7l-200-200c-13-14-20-33-20-50 0-18 7-36 20-50 6-3 11-8 16-11l0 0z m303 75l-98-98c-3-3-6-5-10-5-3 0-8 2-11 5l0 0c-3 3-4 6-4 10 0 3 1 7 4 10l89 89c0 0 0 0 0 0 5-6 13-9 20-9 2-2 10-2 10-2z m-247-89l27 26 66 66 99 99h38l-13-13-74-74-125-125c-3-3-6-4-10-4-3 0-8 1-11 4-3 3-4 6-4 10 4 3 4 8 7 11l0 0z m752-118c-5 4-10 9-16 12 3 7 4 16 4 25 0 17-7 35-21 50h0l0 0c0 0 0 0-1 0-1 1-3 1-3 3-13 11-29 17-46 17-17 0-35-7-50-20l-20-21c-3 5-6 8-9 10-13 14-32 21-50 21-18 0-35-7-50-21l-53-52c-3 4-6 7-9 10-13 13-32 20-50 20-17 0-35-7-50-20l-25-25v0l-38-38c22-22 56-22 78-2l0 0 1 2c0 0 0 0 0 0l24 23c3 3 6 5 10 5 3 0 8-2 11-5 3-3 4-6 4-10 0-3-1-8-4-10l-37-37h-250c-8 0-15-3-21-9l-164-165 39-39 158 157 294 0c-5-9-9-18-16-24-14-13-33-22-52-22h-151v-56h310c7 0 15 3 20 9l174 174c3 3 6 4 10 4 3 0 8-1 11-4 3-3 4-6 4-11 0-2-1-7-4-10l-197-194-170-40-200-9c-7 0-13-3-19-8l-50-50-51 51-2 2 0 0c-22 20-56 19-78-2l39-38 73-74c12-11 30-11 40 0l62 62 191 9 6 0 179 43c5 1 10 4 13 7l202 201c13 14 20 33 20 50 0 18-7 36-20 49l0 0z m-319-63l98 98c3 3 6 5 11 5 2 0 7-2 10-5 3-3 4-6 4-10 0-3-1-7-4-10l-88-89c0 0 0 0 0 0-6 6-14 9-21 9-1 2-10 2-10 2z m247 89l-27-26c0 0 0 0 0 0l-166-165h-38l212 212c3 3 6 4 10 4 3 0 7-1 10-4 3-3 5-6 5-10-3-3-3-8-6-11l0 0z"/>
</svg>
