<svg xmlns="http://www.w3.org/2000/svg" viewBox="0 0 1000 1000">
  <path transform="translate(0,850) scale(1,-1)" fill="currentColor" d="M413 522v225c0 7 3 16 6 22 5 6 9 10 16 13h0c5 2 8 2 12 2 9 0 18-5 24-10 6-6 10-15 10-24v-178c0 0 0 0 0 0v-238h0v0h66v238c0 18 15 32 34 32 19 0 34-14 34-33v-261h66v218c0 19 15 34 34 34 19 0 34-15 34-34v-238h66v192c0 20 14 34 34 34 19 0 33-14 33-34v-195h0c2-35 31-63 67-63v258c0 56-45 100-100 100-17 0-31-4-45-10-16 32-50 56-89 56-16 0-31-4-44-10-17 32-50 56-90 56-12 0-24-3-34-6v82c0 28-12 53-29 71-18 17-43 29-71 29-12 0-22-1-34-6l0 0c-20-7-38-22-48-38-12-18-18-37-18-59v-162h0c2-35 31-63 66-63z m468-331v-79c0-55-22-103-57-139-36-35-84-57-139-57h-170c-22 0-44 6-65 16h0l-34 18-264 266 0 0-14 13c14 6 28 11 43 11 25 0 51-11 71-30l104-104c9-9 23-12 37-7 11 5 20 17 20 30v281c0 37-29 67-66 67v-268l-48 48c-33 33-75 49-118 49-43 0-85-16-118-49-13-13-13-33 0-47l41-41 270-269c3-3 5-4 8-6l39-19c29-15 61-24 95-24h171c144 0 262 118 262 262v14c-2 35-31 64-68 64z"/>
</svg>
