<svg xmlns="http://www.w3.org/2000/svg" viewBox="0 0 1000 1000">
  <path transform="translate(0,850) scale(1,-1)" fill="currentColor" d="M962 637c-22 19-50 29-78 29-32 0-63-13-87-38l-134-150c-20 46-64 75-116 75l-1 0-5 0-425-62 0 0c-64-3-116-56-116-122v-212c0-67 54-122 122-122h443c10 0 20 5 28 14l376 426c19 22 30 50 30 77 1 29-12 61-37 85z m-47-115l-366-413h-427c-26 0-48 22-48 48v212c0 27 20 49 47 49l4 0 421 60c25 0 47-19 51-46l0-7c0-25-19-48-45-51l-186-22 9-74 187 22 0 0c37 4 67 25 87 53l1-1 203 225c9 8 19 13 31 13 10 0 19-3 28-11 9-8 13-19 13-30 0-9-3-18-10-27l0 0z"/>
</svg>
