<svg xmlns="http://www.w3.org/2000/svg" viewBox="0 0 1000 1000">
  <path transform="translate(0,850) scale(1,-1)" fill="currentColor" d="M977 350c-6 6-12 10-20 13 3 9 6 19 6 30 0 20-7 42-23 57-16 16-37 24-58 24-20 0-42-8-57-24l-25-25c-3 4-6 9-10 12-16 16-37 23-58 23-20 0-42-7-57-23l-63-63 0 0-44-45c25-25 66-25 92-1l62 62c3 3 7 4 12 4 4 0 7-1 12-4 3-3 4-8 4-12 0-4-1-7-4-12l-103-103c0 0 0 0 0 0-6 6-15 11-24 11h-190v100c165 5 299 141 299 307 0 9 0 18-1 25l0 0c-2 16-14 29-30 31-9 0-18 1-25 1-63 0-120-19-170-51-8 56-34 110-81 150 0 0 0 0 0 0 0 0 0 0 0 0 0 0-2 1-2 1l0 0c-7 9-15 12-22 12-7 0-15-3-20-7l0 0c0 0-2-2-2-2 0 0 0 0 0 0 0 0 0 0 0 0-46-39-73-94-81-150-48 33-107 52-170 52-9 0-18 0-25-2l0 0c-17-1-30-13-31-29 0-9-2-18-2-25 0-166 133-302 299-308v-102h-147c-9 0-18-3-24-11l-194-192 47-47 184 183h344c-4-10-10-20-19-28-16-16-37-25-60-25h-177v-66h362c9 0 18 3 23 11l125 125 78 77c3 3 8 5 12 5 5 0 8-2 12-5 3-2 4-7 4-11 0-5-1-8-4-12l-228-227-197-45-234-11c-9 0-16-4-22-10l-59-59-62 62 0 0c-26 24-66 24-91-1l44-44 3-3 83-83c6-6 14-10 23-10s18 3 24 10l72 72 223 11 6 1 211 49c5 1 11 4 16 9l234 233c16 17 23 37 23 58 0 20-7 42-23 57z m-477 254c41 42 99 68 162 71-3-63-30-119-71-162-29-29-64-50-106-61l102 101-47 47-102-101c12 41 33 76 62 105z m-191-152c-41 11-77 32-106 61-41 43-68 99-71 162 64-3 120-29 162-71 30-29 50-64 62-105l-102 101-47-47 102-101z m50 179c-2 9-3 18-3 28 0 40 13 79 40 112 26-33 39-72 39-112 0-9-1-18-3-28-14-18-28-37-38-57-7 20-20 39-35 57z m532-249l-31-32-78-78-114-115h-44l16 17 148 148 83 82c3 3 7 5 11 5 5 0 8-2 12-5 3-2 5-7 5-11-2-3-3-8-8-11l0 0z"/>
</svg>
