<svg xmlns="http://www.w3.org/2000/svg" viewBox="0 0 1000 1000">
  <path transform="translate(0,850) scale(1,-1)" fill="currentColor" d="M819 850h-37c-22 0-42-13-53-32l-23-49h-74v13c0 37-29 68-67 68h-330c-31 0-58-12-79-32l0 0c0 0 0 0 0 0 0 0 0 0 0 0l0 0c-21-21-34-50-34-81 0-8 3-16 9-22 6-6 13-9 22-9h124c27 0 50-22 50-50v-46c0-36 30-67 67-67h13v-128c-23-11-39-36-39-63l0 0-21-430v0c0-40 32-72 72-72h122c40 0 72 32 72 72v0l-20 430 0 0c0 27-18 51-41 63v128h13c37 0 67 31 67 67v15h74l25-50c10-21 31-32 53-32h35c33 0 59 26 59 59v189c0 33-26 59-59 59z m-267-928c0-6-5-10-11-10h-122c-6 0-10 4-10 10l19 428v0c0 6 4 10 10 10h81c6 0 10-4 10-10v0l23-428z m-83 500v121h21v-121h-21z m347 182h-32l-32 67c-5 10-17 17-28 17h-121c-7 0-16-3-22-9-6-5-9-13-9-22v-45c0-3-3-8-7-8h-171c-3 0-7 3-7 8v45c0 62-50 111-110 111h-83c2 1 3 4 5 6l0 0c8 8 22 14 36 14h330c3 0 7-3 7-7v-44c0-8 3-16 9-22 6-6 13-9 22-9h122c12 0 22 6 28 16l32 65h33l-2-183 0 0z"/>
</svg>
