<svg xmlns="http://www.w3.org/2000/svg" viewBox="0 0 1000 1000">
  <path transform="translate(0,850) scale(1,-1)" fill="currentColor" d="M991 318l-138 138-331 332c-6 6-13 9-22 9-7 0-16-3-22-9l-160-160c-12-12-12-31 0-43 11-11 31-11 42 0l140 139 302-302v-457h-603v457l80 81c12 12 12 31 0 43-11 11-30 11-42 0l-90-90-138-138c-12-12-12-31 0-43 12-12 31-12 43 0l85 85v-426c0-8 3-16 9-22s13-9 22-9h663c7 0 16 3 22 9s9 13 9 22v426l85-85c12-12 31-12 43 0 13 12 13 31 1 43z m-667-143h97v-97c0-7 3-16 8-22 6-6 14-9 23-9h97c7 0 16 3 22 9 6 6 8 13 8 22v97h98c7 0 16 3 22 9 5 6 8 13 8 22v97c0 7-3 16-8 22-6 6-14 9-22 9h-98v97c0 7-2 16-8 22-6 6-14 9-22 9h-97c-8 0-17-3-23-9s-8-13-8-22v-97h-97c-8 0-17-3-22-9s-9-13-9-22v-97c0-7 3-16 9-22 5-6 14-9 22-9z"/>
</svg>
