<svg xmlns="http://www.w3.org/2000/svg" viewBox="0 0 1000 1000">
  <path transform="translate(0,850) scale(1,-1)" fill="currentColor" d="M822 637c-7 0-13-3-18-8-4-4-7-11-7-17 0-8 3-13 7-18s12-7 18-7 13 3 18 7 7 12 7 18c0 7-3 13-7 17-5 6-12 8-18 8z m-226-458c0 6 0 12-2 17l0 0c-9 50-51 83-100 83-6 0-12 0-16-1l0 0c-50-9-84-51-84-100 0-6 0-12 2-16l0 0c8-50 51-84 100-84 6 0 11 0 16 1l0 0c48 9 84 52 84 100l0 0z m-93-50c-3 0-6 0-9 0-25 0-45 18-50 43 0 3 0 6 0 9 0 25 18 46 43 50 3 0 6 0 9 0 25 0 45-18 50-43 0-3 0-6 0-9-2-23-19-45-43-50l0 0z m490 337c-5 5-12 8-18 8h-93v29l28 46c14 17 21 39 21 63 0 60-49 109-109 109-32 0-62-15-82-37l0 0-31-32h-146c-6 0-11-2-16-6l-91-80h-63v68h97c7 0 13 3 17 7 5 5 8 12 8 18v15c0 45-37 83-84 83h-246c-45 0-83-36-83-83v-15c0-7 2-13 7-18 4-4 12-7 18-7h97v-68h-34c-8 0-13-3-18-7s-7-12-7-18v-101h-43v97c0 7-3 13-7 17-5 5-12 8-18 8h-13c-46 0-84-37-84-84v-246c0-45 37-83 84-83h13c7 0 13 3 18 7 4 4 7 12 7 18v97h43l0-36c1-26 23-48 50-48v329h250c6 0 12 2 16 6l91 78h88l-45-47c-18-21-16-51 3-71l32 36 0 0 65 69c12-47 54-83 104-83l2 0-125-207-18 38c-7 12-22 17-34 9l-44-25-37 21v51c0 8-3 13-7 18l-3 3 24 25c17 20 16 51-3 70l-33-35-53-56h-36c-8 0-14-3-18-7-5-5-7-12-7-18v-51l-37-21-44 25c-6 3-14 5-19 3-6-1-12-6-15-12l-43-75c-9-13-4-28 8-35l45-25v-40l-45-25c-12-7-17-22-9-33l6-11h-58l0 28c-1 27-23 49-50 49v-102c0-7 3-13 8-17 4-5 11-8 17-8h112l9-14c3-6 9-11 15-12 5-2 13-2 19 3l44 25 37-21v-51c0-8 2-14 7-18 4-5 12-7 18-7h69c0 26-19 47-44 50v41c0 9-5 17-14 22l-61 35c-8 5-18 5-25 0l-36-20-17 29 35 21c7 4 13 13 13 22v69c0 9-4 17-13 22l-35 19 17 31 36-21c7-4 17-4 25 0l61 36c8 4 14 13 14 22v41h36v-41c0-9 5-18 14-22l61-36c8-4 18-4 25 0l36 21 17-31-35-21c-7-4-13-13-13-22v-69c0-9 4-17 13-22l35-20-19-30-35 21c-8 4-18 4-25 0l-62-36c-7-4-13-13-13-22v-17h0c1-27 23-49 50-49v52l37 20 44-25c11-7 28-3 34 9l44 75c3 6 4 13 3 19l-2 5h135c8 0 14 3 18 7 4 4 7 12 7 18v157h93c7 0 13 3 18 7 4 5 7 12 7 18v118c0 7-3 13-7 17l0 0z m-921-51v-212c-13 4-22 16-22 29v246c0 15 9 26 22 31 0 0 0-94 0-94z m93-93h-43v68l43 0c0 0 0-68 0-68z m109 244v68h67l0-68-67 0z m-25 118h-95c5 13 17 22 31 22h246c15 0 26-9 31-22-2 0-213 0-213 0z m583-353v-157l-166 0v25l46 25c4 3 7 5 9 8l0 0 111 186c0 3 0-87 0-87z m42 256l-6-9c-2-3-3-4-6-7-10-11-25-18-41-18-17 0-31 6-42 18-10 10-17 25-17 41 0 16 6 31 17 41 11 10 25 18 42 18 16 0 31-6 41-18 10-10 17-25 17-41 0-9-1-18-5-25z m76-231h-68v68h68v-68z m-691 125h107v-50h-107v50z m235-275c-7 0-13-3-17-7s-8-12-8-18c0-7 3-13 8-18 4-4 11-7 17-7s13 3 18 7c4 5 7 12 7 18 0 7-3 13-7 18s-12 7-18 7z"/>
</svg>
