<svg xmlns="http://www.w3.org/2000/svg" viewBox="0 0 1000 1000">
  <path transform="translate(0,850) scale(1,-1)" fill="currentColor" d="M688 56l-41 40c-7 7-16 10-26 8-11-1-19-5-24-14l-73-112-168 515c1 0 4-2 6-2 6-1 12-4 17-6 9-3 18-6 27-8 10-3 22-8 32-11 12-4 24-7 36-12 13-4 25-8 38-11 12-5 25-8 37-12 11-4 22-7 33-12 9-3 20-6 28-9 8-3 14-4 21-7 10-3 21-6 31-6 9 0 16 3 23 6 15 7 28 19 34 35 0 2 2 3 2 5l-62 20-344 114c-12 4-25 1-34-8-9-9-12-22-7-34l208-638c5-12 15-21 27-22 12-2 25 4 31 15l88 134 12-12c1-2 1-2 3-2 25-20 63-19 88 5 0-3-43 41-43 41z m302 1l-162 162 134 88c10 8 16 20 15 31s-11 22-23 27c-4 1-7 3-11 4-11 3-21 6-30 10-13 5-25 9-38 12-12 5-23 8-35 12-9 3-18 6-28 9-18 6-37 3-52-6-14-7-25-21-29-37l62-20 78-25-112-74c-9-6-13-15-15-23s3-20 9-27l166-166-106-106c-1 1-3 3-4 4-3 3-5 6-7 8-3 3-6 4-9 6-5 2-11 4-15 5-6 2-12 3-18 3-6 0-11-1-17-3-6-1-12-4-18-7-4-3-7-6-10-9l45-45 31-31c6-6 15-9 24-9 9 0 17 3 23 9l152 153c6 6 9 15 9 23s-3 17-9 22l0 0z m-715 793h65v-176h-65v176z m-273-273h176v-65h-176v65z m375 82l125 125 45-46-125-125-45 46z m-309-309l125 125 45-46-125-125-45 46z m0 387l45 45 125-125-45-45-125 125z"/>
</svg>
