<svg xmlns="http://www.w3.org/2000/svg" viewBox="0 0 1000 1000">
  <path transform="translate(0,850) scale(1,-1)" fill="currentColor" d="M232 516c8 0 15 3 20 8l19 19 163-164c6-5 13-11 22-17 13-9 28-18 44-24 16-6 32-11 50-11 6 0 12 0 19 2 6 2 13 6 19 12 6 6 9 13 12 19 2 8 3 14 3 19 0 12-3 24-6 34-6 16-13 33-20 47-9 15-17 27-27 37l-37 37 0 0c-22 19-54 19-75-2h0l37-36 37-37c3-3 6-7 10-13 6-11 13-22 19-36 5-10 8-20 8-26-5 0-9 1-15 3-12 3-25 10-37 16-12 6-20 13-25 18l-162 161 39 39 39-40 0 0c22-19 55-19 75 1l-36 37-2 2-37 38 19 19c5 4 8 12 8 19 0 7-3 15-8 19l-64 65c-5 4-12 7-19 7-8 0-15-3-20-7l-19-19-64 65c-17 16-37 23-59 23-21 0-43-9-59-23-15-17-22-39-22-59 0-21 9-43 23-59l64-63-19-19c-5-5-8-12-8-20 0-7 3-14 8-19l64-64c5-5 12-8 19-8z m-88 233c-6 4-9 11-9 19 0 7 3 14 8 19 6 6 11 7 19 7 7 0 15-3 19-7l63-63-38-39-62 64 0 0z m83-122l77 77c0 0 0 0 0 0l20 20 26-27-19-19-78-78-19-19-28 26c0 0 21 20 21 20z m350-317c-9 0-18-4-23-11 0 0-19-28-38-61-10-16-19-35-28-51-4-9-7-18-10-27-3-8-4-16-4-26 0-57 45-103 103-103 57 0 102 46 102 103 0 9-1 18-4 26-4 15-12 30-19 46-24 46-56 93-57 93-5 7-14 11-22 11z m45-166c2-4 2-9 2-9 0-26-22-48-49-48-26 0-48 22-48 48 0 2 0 6 1 11 3 8 9 22 16 36 9 18 21 37 31 53 6-8 12-19 18-29 9-15 16-29 22-43 4-9 6-14 7-19z m284-10c-13 19-32 35-56 48-23 14-51 25-84 34l0 0c-29 6-57-12-64-41l52-13 0 0c37-10 65-24 84-38 9-8 16-14 21-20 4-5 4-10 4-14 0-3-1-8-3-12-4-9-14-19-31-29-25-17-63-30-108-40-46-11-100-16-159-16-88 0-168 13-224 35-28 10-48 22-61 34-6 6-11 12-14 16-3 4-3 9-3 12 0 4 2 10 6 16 8 10 24 23 46 34 22 10 50 20 84 28l0 0c29 6 50 34 44 64l-52-10 0 0c-50-12-92-28-125-48-16-11-29-22-39-37-11-13-17-31-17-49v-88c0-13 5-27 11-38 11-21 29-36 50-50 32-21 76-36 126-47 50-11 109-18 169-18 94 0 180 15 243 38 32 12 59 27 79 44 11 9 19 19 25 31 6 12 11 25 11 38v89c-2 19-6 34-15 47l0 0z m-41-132c0-4-2-8-3-12-5-9-15-19-31-30-25-16-63-29-109-39-45-11-100-17-159-17-88 0-167 14-223 36-28 10-49 22-62 33-6 6-10 12-13 17-3 4-3 8-3 12v4c1-2 4-3 6-4 32-21 76-36 126-48 50-10 109-17 169-17 94 0 180 14 243 38 22 9 43 18 59 29l0-2 0 0z"/>
</svg>
