<svg xmlns="http://www.w3.org/2000/svg" viewBox="0 0 1000 1000">
  <path transform="translate(0,850) scale(1,-1)" fill="currentColor" d="M441 347c-1 0-1 0-4 0-12 0-24 0-35 0-2 0-3 0-5 0-1 0-3 0-3-1 0-2-1-3-1-8 0-13 0-25 0-38 0-9 0-16 0-25 0-1 0-1 0-3 0-1 0-1 0-3 0 0-2 0-2 0-6 18-10 35-14 53-3 7-5 16-8 24h-51c0-2 0-3 0-3 0 0 0-2 0-2 0-59 0-117 0-176 0-2 0-3 0-5 3 0 14-1 25 0 9 0 17 0 20 2 0 0 2 0 2 0v6c0 19 0 38 0 57 0 6 0 13 0 19 0 0 0 2 0 2 0 1 0 1 0 3 1-5 3-9 4-14 2-3 3-6 5-10 3-7 5-16 8-23 5-12 9-24 14-36 0 0 0-1 1-1h0c0-2 2-3 3-3 2 0 2-2 3-2 10 0 22 0 32 0 2 0 2 0 2 0 1 0 1 0 3 0 0 0 1 2 1 5 0 59 0 117 0 176 2 5 2 6 0 6l0 0z m-92 60c0 0 0 0 0 0l0 0c0 0 0 0 0 0 7 0 13 0 17 0 6 2 13 2 19 5 12 3 24 9 36 13 3 2 6 3 8 4 14 6 27 11 39 17 9 3 17 7 25 11 4 2 9 5 13 6 7 3 15 6 22 9 9 3 16 7 25 10 19 8 37 17 56 24 1 0 3 1 4 1 8 3 16 8 24 11 4 1 10 4 15 6 2 1 4 1 7 3 1 1 4 1 6 2 4 2 7 3 12 5 0 0 0 0 0 1-2 0-3 0-5 0-4-1-7-1-12-3-6-1-10-3-16-4-3-1-6-1-9-3-4-1-10-3-14-4-12-3-24-6-36-9-3-2-7-2-10-3-6-2-10-3-16-5-3-1-6-1-9-2-6-2-12-3-18-5-7-1-14-4-22-6 0 0-1 0-1 0-2 0-5-1-6-1-4-2-9-3-13-3-2 0-5-2-6-2-6-1-12-3-16-4-2 0-3-2-6-2-3-1-8-1-10-2-6-2-12-3-17-5-11-3-22-6-33-7-3 0-6 0-9 0-6 0-11-2-16 0-3 0-6 1-8 3-3 1-4 4-7 6-6 4-10 10-12 17 0 3 0 6 0 9 0 4 2 9 2 13 1 8 4 14 7 21 0 0 0 1 0 3 0 0-2 0-2 0-8-9-16-19-23-30-2-3-5-4-6-7-6-9-10-18-13-26 0-2 0-3-2-5-1-4-1-7-3-12-1-4-1-10 0-14 2-5 3-9 6-14 3-5 8-8 13-11 6-8 12-9 20-11z m198-167c0 0 2 1 2 1 13 8 22 19 23 34 2 12 2 25-3 37-3 10-10 19-19 25-13 9-28 10-43 12-19 0-36 0-55 0-2 0-2 0-2 0-1-5-1-183 0-187 6-2 46-2 50 0v70c0 0 0 0 2 0 1-5 4-11 5-17 6-16 14-34 20-50 1-5 1-5 5-5 15 0 30 0 46 0 1 0 3 0 4 0-11 25-25 52-36 77 1 1 1 3 1 3z m-26 32c-3-7-11-12-21-10v44c2 0 2 1 3 1 10 0 19-4 21-17 0-6 0-12-3-18z m161-70c0 2 0 7 0 10 0 0 0 1 0 1 0 2 0 2 0 3h0v0c0 0-1 0-1 0h0c-2-1-3-3-6-3-10-6-21-7-31-1-1 1-3 3-4 4-5 5-8 9-9 15-2 7-3 15-3 22 0 0 0 0 0 1 0 8 0 14 1 21 2 4 3 9 5 13 4 9 10 14 18 15 4 1 7 1 11 0 0 0 0 0 0 0 2 0 2-1 3-1 3-2 5-2 8-3 3-2 4-3 8-6v0l0 0v6c0 13 0 25 0 38 0 3 0 6-1 7-2 2-4 2-6 3-3 0-6 2-9 2-3 0-6 1-7 1-7 0-16-1-24-3-13-3-25-10-33-20-9-11-15-23-20-34-1-5-1-8-1-12-2-7-3-16-3-24 0-16 1-32 7-48 2-3 3-7 5-10 3-6 7-14 12-18 5-6 11-9 17-12 10-6 22-9 35-9 6 0 12 2 20 5 1 0 3 0 5 1l0 0c0 0 0 0 0 0 2 0 2 2 2 3 1 2 3 2 3 5-2 7-2 17-2 28l0 0z m318 377c0 30-3 53-7 77-14 66-49 119-106 154-31 21-68 33-109 37-26 3-51 3-78 3l-238 0c-65 0-128 0-193 0-28 0-53-3-75-7-59-12-107-43-144-90-25-35-41-76-46-122-4-28-4-56-4-81l0-275c0-51 0-103 0-156 0-29 3-54 7-76 14-67 50-118 106-153 28-18 62-30 99-36 20-3 44-4 72-4h212c1 0 3 0 4 0h43l126 0c24 0 47 0 72 1 30 0 55 3 77 9 67 18 119 58 153 118 14 26 23 57 28 93 3 26 3 54 3 79l0 238c-2 64-2 127-2 191l0 0z m-85-429c0-23 0-47-3-71-3-25-9-44-18-61-22-40-54-67-100-77-16-4-34-6-57-6-24 0-47 0-69 0l-127 0-37 0c-1 0-2 0-4 0l-72 0-144 0c-24 0-43 2-60 3-25 3-47 10-65 22-37 24-59 56-69 100-3 18-6 37-6 61 0 51 0 103 0 154l0 275c0 24 0 47 3 71 3 32 13 58 31 81 23 30 54 50 94 58 17 3 37 6 59 6 64 0 128 0 192 0l239 0c22 0 45 0 67-3 30-3 53-10 74-23 36-24 59-56 69-100 3-18 6-37 6-59 0-63 0-128 0-191l-3-240 0 0z"/>
</svg>
