<svg xmlns="http://www.w3.org/2000/svg" viewBox="0 0 1000 1000">
  <path transform="translate(0,850) scale(1,-1)" fill="currentColor" d="M225 599c69 0 127 55 127 126 0 69-58 125-127 125-69 0-126-56-126-126 1-70 57-125 126-125z m81-43h-157c-80 0-143-65-143-143v-217c0-15 6-28 16-39 9-8 21-13 32-14v-293h108v291h125v-291h107v291h3c15 0 28 6 38 16 11 11 17 24 17 39v217c-2 80-67 143-146 143l0 0z m37-307h-231v164c0 21 16 37 37 37h158c21 0 37-16 37-37l-1-164 0 0z m403 350c69 0 126 55 126 126 0 69-56 127-126 127s-127-56-127-127c2-71 58-126 127-126z m247-434l-94 353c-6 23-28 39-52 39h-198c-24 0-46-16-52-39l-94-353c-4-16-1-34 9-46 10-13 25-20 42-20h20v-249h107v247h125v-247h107v247h30c16 0 32 7 42 21 9 13 12 31 8 47l0 0z m-368 39l66 246h116l67-246c-2 0-249 0-249 0z"/>
</svg>
