<svg xmlns="http://www.w3.org/2000/svg" viewBox="0 0 1000 1000">
  <path transform="translate(0,850) scale(1,-1)" fill="currentColor" d="M779 102v-146c0-24-19-41-41-41h-475c-23 0-41 19-41 41l0 297c-1 34-29 62-65 62v-359c0-59 47-108 108-108h475c59 0 107 48 107 108l0 84c-4 35-34 62-68 62l0 0z m95 583c-6 6-15 9-24 9h-162v44c0 62-50 112-111 112h-153c-62 0-112-50-112-112v-44h-162c-9 0-18-3-23-9-6-6-9-14-9-23v-116c0-9 3-18 9-24 5-6 14-9 23-9h6l0-95c1-34 29-62 65-62v156h558l0-309c2-34 30-62 65-62v371h6c9 0 18 3 24 9 5 6 8 14 8 23v116c2 11-3 18-8 25l0 0z m-497 53c0 27 20 47 47 47h153c26 0 47-20 47-47v-44h-247c0 0 0 44 0 44z m441-160h-636l0 51h636l0-51 0 0z m-289-163v-391c0-9 3-18 9-24 6-6 15-9 24-9h112c8 0 17 3 23 9 6 6 9 15 9 24v391h-65v-359h-47v359c2 0-65 0-65 0z m-239 0v-391c0-9 3-18 9-24 5-6 14-9 23-9h112c9 0 18 3 23 9 6 6 9 15 9 24v391h-64v-359h-48v359c0 0-64 0-64 0z"/>
</svg>
