<svg xmlns="http://www.w3.org/2000/svg" viewBox="0 0 1000 1000">
  <path transform="translate(0,850) scale(1,-1)" fill="currentColor" d="M593 194l-2-1 0 0-91-93c-10 4-21 7-31 7-13 0-28-4-40-11l-44 44 43 42c10 11 16 25 16 40 0 15-6 28-16 40l-18 17c-10 11-25 17-39 17-15 0-28-6-40-17l-43-42-44 44c8 12 12 26 12 40 0 10-3 20-7 31l72 72c20 23 20 60-2 82l-40-40-69-69-8 9c-15 15-34 22-53 22-20 0-39-7-53-22l-71-71c-15-14-22-33-22-53 0-19 7-38 22-53l12-11c-24-43-37-87-37-131 0-60 24-121 69-168 0 0 0 0 0 0 46-46 108-69 168-69 44 0 90 13 128 38l12-12c14-14 33-22 52-22 20 0 39 8 53 22l71 71c15 15 22 34 22 53 0 19-7 38-22 53l-9 9 90 90c20 23 20 60-2 82 2 0-39-40-39-40z m-222 38l11-11-39-40-12 12 40 39z m-303 59l70 71c3 3 8 4 12 4 4 0 7-1 12-4l32-33 21 21-21-21c3-2 5-7 5-11 0-5-2-8-5-12l-70-71c-5-1-9-3-12-3-5 0-8 2-12 5l-32 32c-3 3-5 8-5 12 0 3 2 7 5 10z m259-356c-28-16-59-25-92-25-45 0-89 18-125 52l0 0c-33 34-51 79-51 125 0 31 9 63 25 91 10-4 19-6 28-6 12 0 23 3 35 9l185-185c-5-11-8-24-8-36-2-7 0-16 3-25l0 0z m44 106l-180 180 15 14 179-179c0 0-14-15-14-15z m141-53l-71-70c-3-3-7-5-12-5-4 0-7 2-11 5l-33 32c-1 3-3 7-3 12 0 4 2 7 5 11l6 6 56 56 8 9c3 3 8 5 12 5 5 0 8-2 12-5l32-32c3-3 5-8 5-12-2-4-3-9-6-12z m448 494c27 40 40 86 40 131 0 61-23 121-69 168-47 46-107 69-168 69-45 0-91-13-131-40l-11 12c-15 15-34 22-53 22-19 0-39-7-53-22l-71-70c-15-15-22-34-22-53 0-20 7-39 22-53l9-9-66-66c-21-24-21-61 1-83l40 40 68 68c10-5 20-8 31-8 10 0 22 3 30 8l46-46-43-43c-10-10-16-25-16-39 0-15 6-28 16-40l18-18c10-10 25-16 40-16 14 0 28 6 39 16l43 43 46-46c-5-10-8-20-8-30 0-11 3-21 8-31l-46-46c-21-23-21-60 2-82l39 39 2 2 39 40 9-9 21 20-18-17c15-15 34-22 53-22 19 0 38 7 53 22l71 70c14 15 22 34 22 53 0 19-8 38-22 53l-11 13 0 0z m-420 172c-3-2-8-4-12-4-4 0-7 2-12 4l-31 33c-3 3-4 7-4 12 0 4 1 7 4 11l71 71c3 3 7 4 12 4 4 0 7-1 11-4l31-34c3-3 5-7 5-12 0-4-2-7-5-11 0 1-70-70-70-70z m79-197l-12 12 40 40 12-12-40-40z m166-1l-179 179 15 15 179-179-15-15z m144-50l-70-71c-3-3-7-4-12-4-4 0-7 1-12 4l-32 33c-3 3-4 7-4 11 0 5 1 8 4 12l3 3c0 0 0 0 0 0l56 56 0 0 12 12c3 3 7 4 11 4 5 0 8-1 12-4l32-33c3-2 5-7 5-11 0-5-2-9-5-12l0 0z m-16 113c-9 3-17 5-26 5-15 0-31-5-43-14l-184 183c9 13 14 28 14 42 0 9-2 18-5 27 28 17 60 28 94 28 46 0 91-18 125-52 36-35 52-79 52-125 0-32-9-64-27-94l0 0z"/>
</svg>
