<svg xmlns="http://www.w3.org/2000/svg" viewBox="0 0 1000 1000">
  <path transform="translate(0,850) scale(1,-1)" fill="currentColor" d="M759 635c-66 0-121-54-121-120 0-66 55-121 121-121 66 0 120 55 120 121 0 66-52 120-120 120z m47-167c-12-12-28-19-46-19-17 0-33 7-45 19-12 11-19 28-19 45 0 18 7 34 19 46 12 12 28 19 45 19 18 0 34-7 46-19 12-12 19-28 19-46 0-16-7-32-19-45z m66-90h-201c-40 0-78-16-106-44l-102-103-75 72 0 0c-13 13-32 21-50 21-19 0-36-8-51-22-13-14-21-33-21-50 0-18 8-37 21-50l0 0 109-105 0 0c19-19 44-28 67-28 25 0 50 9 69 28l37 37v-224h55v292c0 11-8 20-18 25s-22 1-29-6l-84-84c-9-9-19-12-30-12-10 0-20 4-29 12l0 0-109 104c-3 3-4 8-4 12 0 4 1 7 4 12 3 3 7 4 12 4 4 0 9-1 12-4l0 0 95-91c10-11 28-11 38 0l121 122c18 17 41 28 66 28h202c20 0 38-9 51-22 13-14 22-31 22-52v-338h56v338c0 71-57 128-128 128l0 0z m-19-176h54v-290h-54v290z m-562-75l0 0-191 0c-25 0-44 20-44 44v139c-29 0-53-23-54-53l0-88c-2-53 42-98 98-98h244c-1 29-23 54-53 56z m-237 326l0 237c0 25 21 44 45 44h707c25 0 44-21 44-44l0-22c2-30 25-53 54-53v75c0 54-44 100-100 100h-704c-56-2-100-46-100-100v-288c29-2 53 22 54 51z m84 188h221v-54h-221v54z m0-147h368v-54h-368v54z m394 121c0 7-3 14-7 19s-12 7-19 7c-7 0-15-3-19-7-5-5-8-12-8-19 0-8 3-15 8-19 4-5 12-8 19-8 7 0 15 3 19 8 4 4 7 11 7 19z"/>
</svg>
