<svg xmlns="http://www.w3.org/2000/svg" viewBox="0 0 1000 1000">
  <path transform="translate(0,850) scale(1,-1)" fill="currentColor" d="M1000 312v76h-88c-19 199-177 355-374 374v88h-76v-88c-88-8-168-44-231-97l-103 103-54-55 104-104 54-55 471-470 54-55 150-150 55 55-147 147c53 63 88 143 97 231l88 0 0 0z m-390-27l-175 175c21 12 43 18 65 18 32 0 66-12 91-38 25-25 38-58 38-91-1-21-7-45-19-64z m149-150l-94 94c26 36 39 78 39 121 0 53-20 104-60 146-40 39-92 60-145 60-43 0-84-13-121-40l-94 94c59 49 132 77 215 77 92 0 176-38 238-99 60-61 98-145 98-238 2-81-28-156-76-215l0 0z m-259-122c-93 0-176 39-238 99-60 62-99 145-99 238 0 49 12 94 30 135l-58 58c-25-47-41-99-47-155h-88v-76h88c19-199 175-355 374-374v-88h76v88c56 5 108 22 155 47l-58 58c-41-18-86-30-135-30z"/>
</svg>
