<svg xmlns="http://www.w3.org/2000/svg" viewBox="0 0 1000 1000">
  <path transform="translate(0,850) scale(1,-1)" fill="currentColor" d="M509-28c-10-10-19-18-27-25-35 32-101 96-163 175-81 102-154 228-153 330 0 14 2 29 5 44l-69 69c-11-37-18-75-18-115 0-73 25-147 60-215 106-203 309-373 310-375 15-13 39-13 53 0 2 2 71 59 150 147l-58 59c-33-38-65-70-90-94z m254 166c65 93 116 202 118 314 0 220-179 398-400 398-118 0-224-51-297-134l-107 109-59-59 906-906 58 59-219 219 0 0z m-247 247l-101 102c13 23 37 41 66 41 41 0 76-34 76-76 0-30-17-55-41-67z m61-61c38 29 63 75 63 126 0 88-72 159-159 159-52 0-97-25-127-63l-110 110c5 6 9 12 15 18 57 57 135 92 223 92 87 0 167-35 224-92 57-58 93-136 93-224 1-79-40-171-95-253-1 2-127 127-127 127z"/>
</svg>
