<svg xmlns="http://www.w3.org/2000/svg" viewBox="0 0 1000 1000">
  <path transform="translate(0,850) scale(1,-1)" fill="currentColor" d="M672 234c-4 4-12 7-18 7h-91c-7 0-13-3-17-7-5-5-8-12-8-18 0-13-7-25-19-32-12-7-16-24-9-35l46-78c7-12 23-17 35-9 28 16 50 38 66 66s24 59 24 90c-2 6-4 11-9 16z m-62-81c-7-12-16-22-26-31l-21 35c9 11 16 22 21 36h40c-2-16-6-28-14-40l0 0z m-110 319c-144 0-260-116-260-260 0-143 116-259 260-259 144 0 260 116 260 260 0 143-116 259-260 259z m147-407c-38-38-90-62-147-62-57 0-110 24-147 62-38 38-62 89-62 147 0 57 24 110 62 147 38 38 90 62 147 62 57 0 110-24 147-62 38-38 62-90 62-147 0-58-24-109-62-147z m-201 194c7-12 23-16 35-9 6 3 12 6 19 6 7 0 13-2 19-6 6-3 13-4 19-3s12 6 16 12l46 78c3 6 4 13 3 19s-6 12-12 16c-26 16-57 24-89 24l0 0h0c-31 0-62-9-90-24-6-3-10-9-12-16-1-6-1-13 3-19l43-78 0 0z m54 85l0 0 0 0c13 0 28-3 40-7l-19-35c-8 2-14 4-21 4-7 0-13-2-21-3l-20 34c13 4 26 7 41 7z m-19-160c-12 7-19 19-19 32h0c0 6-2 13-6 18-4 6-12 9-19 9l-90 0c-15 0-26-12-26-25l0-2c0-31 8-62 23-88 16-28 38-50 65-66 12-8 28-3 35 9l46 78c3 5 4 13 3 19s-6 13-12 16l0 0z m-66-63c-11 8-19 19-27 31s-11 25-14 38l39 0c5-13 12-25 21-36 1 2-19-33-19-33z m178-192l-486 0c-16 0-29 6-39 17-11 10-16 23-16 38 0 9 1 18 7 26l144 268 25 46c-25 13-54 4-69-20l-146-270c-9-16-13-32-13-50 0-28 12-55 29-74 20-19 46-32 77-32h534c1 28-21 50-47 51z m394 105l-393 732c-10 19-23 33-41 43-16 9-35 15-53 15-18 0-37-5-53-15-16-9-31-24-41-43l-182-341h0l-24-43c25-13 54-4 69 20l183 341c5 10 13 16 20 22 9 4 18 7 28 7 10 0 19-3 28-7 9-5 16-12 21-22l392-733c5-8 8-17 8-26 0-15-6-28-17-38-10-11-23-17-39-17h-193c0-28 22-50 49-51l145 0c31 0 58 13 77 32 19 19 29 46 29 74 0 18-4 34-13 50l0 0z m-462 182c0 8-3 13-7 18-5 4-12 7-18 7-7 0-13-3-18-7-4-5-7-12-7-18 0-7 3-13 7-17 5-5 12-8 18-8 7 0 13 3 18 8s7 10 7 17z"/>
</svg>
