<svg xmlns="http://www.w3.org/2000/svg" viewBox="0 0 1000 1000">
  <path transform="translate(0,850) scale(1,-1)" fill="currentColor" d="M790 307l0-161-156 0c-2 0-3 0-6 0h-68c24 17 39 45 39 76 0 7-3 13-8 19-4 5-12 8-19 8h-45v38c26-3 51-9 75-18l17 50c-29 10-60 18-92 21v26c39-3 77-12 113-26l19 48c-41 18-87 28-134 31v16c40-3 77-8 113-22l16 50c-41 14-83 22-129 24v25l262 0v-113c28 0 51 22 53 50l0 89c0 15-12 27-27 27l-88 0c-12 56-60 97-119 97h-18c16 20 27 45 27 73 0 64-50 115-115 115-63 0-115-51-115-115 0-28 11-54 27-73h-19c-59 0-108-41-119-97l-90 0c-7 0-13-3-19-8-5-4-8-11-8-19v-234c28 0 52 24 53 52l0 156 264 0v-24c-46-3-89-10-130-23l16-50c36 12 74 19 114 22v-16c-47-3-92-14-134-31l19-49c35 15 73 24 113 27v-27c-32-3-63-10-93-20l18-50c24 8 49 14 75 17v-38h-45c-8 0-14-3-20-7-4-5-7-12-7-19 0-31 15-59 38-77h-67c-2 0-2 0-2 0l-159 0v109c-28 0-51-22-53-50l0-84c0-15 12-26 27-26l162 0v-173c0-41 32-73 73-73 41 0 74 32 74 73v170l14 0v-170c0-41 33-73 74-73h0c41 0 73 32 73 73v170l161 0c7 0 13 3 19 7 4 4 7 12 7 19v238c-28 0-50-22-51-50l0 0z m-349-384c0-11-9-20-20-20-12 0-21 9-21 20v170l41 0c0 0 0-170 0-170z m15 856c12 12 26 18 44 18 18 0 32-7 44-18 12-11 18-26 18-44 0-17-8-32-18-44-12-12-26-17-44-17-18 0-32 7-44 17-12 12-18 27-18 44 0 18 8 33 18 44z m-127-214c3 9 9 16 15 23 13 14 30 21 50 21h213c20 0 37-7 50-21 6-6 12-14 15-23h-343l0 0z m171-387c-15 0-28 7-37 19h72c-6-12-19-19-35-19z m103-255c0-11-9-20-21-20h0c-11 0-20 9-20 20v170l41 0c0 0 0-170 0-170z"/>
</svg>
