<svg xmlns="http://www.w3.org/2000/svg" viewBox="0 0 1000 1000">
  <path transform="translate(0,850) scale(1,-1)" fill="currentColor" d="M974 509c-9 23-34 37-59 29s-37-34-30-59c14-41 21-83 21-129 0-113-46-215-119-288-74-74-175-119-288-119-114 0-215 45-289 119-73 73-119 175-119 288 0 113 46 215 119 288 74 74 175 119 289 119 123 0 233-54 308-141 17-19 46-22 65-4s22 45 5 65c-90 105-225 173-377 173-276 0-500-223-500-500 0-276 224-500 500-500 277 0 500 224 500 500 0 56-9 109-26 159z m-361-440c6-10 16-17 28-22 12-3 25-1 36 5 52 30 98 75 129 129 31 53 47 115 47 176 0 12-4 24-13 33-9 9-21 13-33 13h-180c-12 0-24-4-33-13-9-9-13-21-13-33 0-29-16-54-40-69-22-13-29-41-16-63-1 0 88-156 88-156z m-311 565c-3-12-2-25 4-35l91-155c13-22 41-29 63-16 12 6 25 10 40 10 15 0 28-4 40-11 10-6 23-8 35-5 12 3 22 10 28 22l90 156c6 10 7 24 4 35-3 12-10 22-22 28-53 31-115 47-175 47l-1 0h0c-62 0-122-16-177-47-10-7-18-17-20-29z m-155-275l0-2c0-61 16-122 47-175 31-54 75-98 128-129 22-13 50-6 63 16l92 156c5 10 7 24 4 35s-10 22-22 28c-25 15-41 40-41 69h0c0 12-5 24-12 31-9 11-21 15-34 15l-179 1c-25 0-46-19-46-45z m385-34c9 9 14 21 14 32 0 12-5 24-14 33-8 9-20 13-32 13-12 0-23-4-32-13-9-9-14-21-14-33 0-11 5-23 14-32 9-9 20-13 32-13 12 0 24 4 32 13z"/>
</svg>
