<svg xmlns="http://www.w3.org/2000/svg" viewBox="0 0 1000 1000">
  <path transform="translate(0,850) scale(1,-1)" fill="currentColor" d="M500 850c-276 0-500-223-500-500 0-276 224-500 500-500 277 0 500 224 500 500 0 277-223 500-500 500z m288-788c-73-74-175-119-288-119-113 0-215 45-288 119-74 73-119 175-119 288 0 113 45 215 119 288 73 74 175 119 288 119 113 0 215-45 288-119 74-73 119-175 119-288 0-113-45-215-119-288z m-241 503l-93 0-1-215c0-12 4-25 13-34l202-200 66 66-188 187 1 196 0 0z"/>
</svg>
