<svg xmlns="http://www.w3.org/2000/svg" viewBox="0 0 1000 1000">
  <path transform="translate(0,850) scale(1,-1)" fill="currentColor" d="M988 399c-14 14-39 14-54 0l-15-15-385 387 15 14c14 15 14 40 0 55-15 14-40 14-55 0l-129-130-88-88-42-41c-14-15-14-40 0-54 15-15 40-15 55 0l14 14 167-166-153-153-5 5c-16 16-36 23-57 23-21 0-43-9-57-23l-175-174c-17-16-24-37-24-59 0-21 7-43 24-59l63-63 26 26-26-26c16-13 37-22 57-22 21 0 43 9 58 23l173 174c16 16 24 37 24 57 0 21-8 43-24 58l-4 4 151 152 166-166-14-15c-15-15-15-40 0-55 14-14 39-14 54 0l260 261c16 16 16 39 0 56l0 0z m-244-192l-387 387 122 122 387-387-122-122z"/>
</svg>
