<svg xmlns="http://www.w3.org/2000/svg" viewBox="0 0 1000 1000">
  <path transform="translate(0,850) scale(1,-1)" fill="currentColor" d="M628 502c28 1 50 23 50 52h-400c-7 0-13-2-19-7-5-4-7-12-7-19v-276c27 0 51 22 52 50h0v200l324 0c0 0 0 0 0 0z m88-361c5 5 8 12 8 19v274c-28 0-52-22-53-50h0v-199h-305v0c-28-1-50-23-50-53h381c7 0 13 3 19 9z m-372 540l0 0c-13-25-6-56 18-71l28 44 51 80c8 12 5 28-7 37l-82 53-43 26c-15-23-9-54 15-71l0 0 1-2 0 0 18-12c-149-34-261-166-261-327h53c0 78 33 149 83 200 41 41 92 69 150 80 0 0-24-37-24-37z m574-419h-53c0-78-33-149-83-200-39-40-91-68-150-78l22 34c0 0 0 0 0 0l2 3 0 0c13 23 6 56-18 70l-28-44h0l-51-81c-5-6-5-13-3-20 1-8 6-14 12-17l82-53 41-26c15 23 9 54-14 71l0 0-2 2 0 0-18 12c149 34 261 167 261 327l0 0z"/>
</svg>
