<svg xmlns="http://www.w3.org/2000/svg" viewBox="0 0 1000 1000">
  <path transform="translate(0,850) scale(1,-1)" fill="currentColor" d="M349 715h101v-53h-101v53z m547 42v93h-792v-93h98v-286c-11-8-21-15-28-24-22-22-39-53-39-87 0-148 90-276 218-333v-131c0-12 4-24 13-33 9-9 21-13 33-13h201c12 0 24 4 32 13 9 9 14 21 14 33v131c128 55 219 185 219 333 0 34-16 65-38 87-9 9-20 18-30 25v285c2 0 99 0 99 0z m-602 0h412v-241c-4 2-9 3-13 5-56 16-121 26-191 26-77 0-148-12-206-31-2 0-2 241-2 241z m260-814h-108v59c17-4 36-6 54-6 19 0 37 2 54 6l0-59 0 0z m139 225c-50-50-118-80-193-80-75 0-143 31-193 80-13 13-25 29-35 45 12-4 24-9 37-13 56-16 120-26 191-26 87 0 166 14 229 39-10-16-22-31-36-45z m67 170c-14-16-50-35-95-48-46-13-103-22-165-22-82 0-157 14-207 36-25 11-43 24-53 34-11 12-12 18-12 22 0 5 1 12 12 22 14 17 50 36 95 49 46 13 103 22 165 22 82 0 157-15 207-37 25-10 43-23 53-34 11-11 12-17 12-22 2-4 0-10-12-22z"/>
</svg>
