<svg xmlns="http://www.w3.org/2000/svg" viewBox="0 0 1000 1000">
  <path transform="translate(0,850) scale(1,-1)" fill="currentColor" d="M874 235l-127 475c-4 15-18 25-32 25h-153v-66h128l117-445c-45-22-78-68-78-122 0-75 61-136 136-136 75 0 135 61 135 136 0 70-56 129-126 133z m-9-204c-38 0-69 31-69 69 0 31 20 56 48 65l8 1c4 0 7 2 11 2 39 0 69-31 69-69 2-37-29-67-67-68z m-500 50c3 1-3 0 0 0l0 0z m400 178c12 29 1 65-27 81l-35-56-51-82h-286c-45 91-139 154-248 154v-66c70 0 132-36 170-88h-54c-25 26-60 42-99 42-75 0-135-60-135-135 0-75 60-136 135-136 75 0 136 61 136 136 0 9-2 18-3 25h341l-34-53-212 0c-31-6-59-34-59-66h289c11 0 22 6 28 16l138 221c3 1 4 4 6 7z m-630-218c-38 0-69 31-69 69 0 39 31 69 69 69 39 0 69-30 69-69 0-38-30-69-69-69z"/>
</svg>
