<svg xmlns="http://www.w3.org/2000/svg" viewBox="0 0 1000 1000">
  <path transform="translate(0,850) scale(1,-1)" fill="currentColor" d="M981 404c-15 21-32 37-47 50-15 14-24 25-24 28l-1 11c0 9 3 23 6 39 3 17 6 34 6 53 0 18-3 39-17 58-13 17-30 28-47 32-25 9-47 10-67 13-19 3-34 8-37 11-1 1-7 5-12 16-7 13-16 34-28 54-6 10-13 21-22 31-9 10-22 19-38 25-9 3-18 4-25 4-35-1-60-17-82-27-22-12-42-21-47-20-6-1-25 8-47 20-23 11-48 27-83 27-7 0-16-1-25-4-20-6-35-21-44-34-15-20-23-42-32-60-9-18-18-29-21-31-1-1-9-4-19-7-16-3-38-5-60-9-12-3-24-6-37-12-12-6-25-15-35-28-14-19-17-40-17-57 0-19 3-37 6-53 3-16 6-31 6-40l-1-10c-2-2-5-9-12-16-10-12-28-27-44-44-9-9-16-20-22-31-8-12-12-27-12-43 0-22 9-41 19-54 15-21 33-37 47-50 15-14 24-25 24-28l1-11c0-8-3-23-6-39-3-16-6-34-6-53 0-18 3-38 17-58 13-17 31-28 47-32 25-9 47-10 67-13 19-3 34-8 37-10 2-2 7-6 12-17 7-13 16-34 28-54 6-10 13-21 22-31 9-10 22-19 38-25 9-3 18-4 25-4 35 1 60 17 82 27 23 12 42 21 48 20 5 1 25-8 47-20 22-11 47-27 82-27 9 0 16 1 25 4 21 7 35 21 46 35 14 21 23 43 32 61 9 17 18 29 20 31 2 1 9 4 20 7 16 3 38 4 60 9 12 3 23 6 37 11 11 6 25 15 35 28 13 20 16 40 16 58 0 19-3 37-6 53-3 16-6 31-6 39l2 11c0 1 4 7 12 16 10 12 28 26 44 44 9 9 16 19 22 31 6 12 12 26 12 44-2 19-11 38-21 51l0 0z m-65-64c-6-11-20-24-37-38-16-17-33-33-44-61-4-12-4-23-4-34 0-19 3-38 6-53 3-16 6-30 6-39l-2-9-1-2c0 0-2-2-9-4-10-4-31-6-53-9-22-3-47-7-72-23-16-12-27-27-34-40-12-21-20-41-28-56-4-7-7-13-10-16l-5-3-1 0c-4-2-24 7-46 19-22 12-48 28-83 28-36-2-62-18-84-28-22-13-41-21-46-19l-1 0c0 0-3 1-8 7-7 9-16 28-25 47-10 20-20 43-44 61-16 11-32 16-48 20-24 5-46 6-62 11-9 1-15 3-18 5l-4 3-2 2-1 9c0 9 3 23 6 39 3 17 6 34 6 55 0 10-2 22-5 34-6 19-17 32-28 44-16 17-32 31-44 44-6 6-10 12-12 15l-1 1c0 0 0 3 4 10 6 11 21 24 37 39 16 16 34 32 44 60 5 12 5 23 5 34 0 19-3 38-6 53-3 16-6 31-6 39l1 9 2 2c0 0 1 3 9 4 10 4 31 6 53 9 22 3 47 7 72 23 16 12 26 27 34 40 11 21 20 41 27 56 5 7 8 13 11 16l4 3 2 0c4 2 23-7 45-19 22-12 49-28 84-28 35 2 62 18 84 28 22 13 41 21 45 19l2 0c0 0 3-1 7-7 8-9 16-28 25-47 11-19 21-43 44-61 17-11 33-16 49-20 23-5 46-6 62-10 9-2 14-3 17-6l5-3 1-2 2-9c0-8-3-23-6-39-3-16-6-34-6-55 0-10 1-22 4-34 6-19 18-32 28-44 16-17 33-31 44-44 6-6 11-12 12-14l2-6c1 4 0 1-5-6z m-438-44l-101 101-56-56 129-129c7-8 18-12 28-12 10 0 21 4 28 12l235 235-56 56-207-207 0 0z"/>
</svg>
