<svg xmlns="http://www.w3.org/2000/svg" viewBox="0 0 1000 1000">
  <path transform="translate(0,850) scale(1,-1)" fill="currentColor" d="M774 46c-55 0-99-44-99-99 0-54 44-99 99-99 54 0 98 45 98 99 0 56-44 99-98 99z m0-137c-22 0-40 17-40 39 0 23 18 40 40 40 22 0 39-17 39-40-1-22-17-39-39-39z m-527 326c-54 0-98-44-98-98 0-55 44-99 98-99 55 0 99 44 99 99 0 54-44 98-99 98z m0-138c-22 0-40 18-40 40 0 22 18 40 40 40 22 0 40-18 40-40 0-22-18-38-40-40z m497 63v-94h59v203c0 60-49 109-109 109h-113c0-31 25-57 56-59v0h57c27 0 49-22 49-48v-49h-265c-15 37-37 69-66 97h134c0 31-25 58-56 59v0h-197c-5 1-11 1-15 3v96h447v177h-279c0-30 25-57 56-58v0h164v-61l-388 0v61h122c0 31-25 57-56 58v0h-66v196h-228v-59h168v-412c-121-14-215-117-215-242 0-135 110-246 246-246 135 0 245 111 245 246 0 9 0 16-1 23-2 0 251 0 251 0z m-365-154c-33-34-79-55-130-55-52 0-97 21-131 55-34 34-55 79-55 131 0 51 21 97 55 131 34 34 79 54 131 54 51 0 97-20 130-54 34-34 55-80 55-131 0-52-22-97-55-131z m505-31l109 9 4-59-109-9-4 59z"/>
</svg>
