<svg xmlns="http://www.w3.org/2000/svg" viewBox="0 0 1000 1000">
  <path transform="translate(0,850) scale(1,-1)" fill="currentColor" d="M996 475c-2 2-2 3-3 4-3 3-5 8-9 11-2 0-2 1-2 1l-375 268c-29 20-63 31-97 31-32 0-64-9-92-28l-399-269c-1 0-1-2-1-3-3-3-6-6-9-11-2-1-3-2-3-4-4-4-6-10-6-18v-433c0-64 50-114 113-114h774c63 0 113 50 113 114v433c0 8-1 14-4 18z m-531 218c14 9 29 14 45 14 17 0 34-4 49-14l328-233-328-235c-15-10-31-15-49-15-16 0-32 5-45 15l0 0-349 232 349 236 0 0z m451-669c0-17-13-30-29-30h-774c-16 0-29 13-29 30v355l334-225c28-19 60-27 92-27 34 0 68 10 97 30l309 221 0-354 0 0z"/>
</svg>
