<svg xmlns="http://www.w3.org/2000/svg" viewBox="0 0 1000 1000">
  <path transform="translate(0,850) scale(1,-1)" fill="currentColor" d="M968 174c-5 8-14 16-22 19l-252 106c-9 4-19 4-28 3l0 0c-9-2-16-6-23-14l-69-67c-9-9-22-15-34-15-11 0-21 3-30 10-19 15-44 37-73 66s-52 55-66 74c-8 9-11 19-11 29 0 12 5 24 15 34l69 69c6 6 10 14 12 21l0 0c3 10 3 20-2 31l-107 251c-4 11-12 19-22 24l0 0c-9 4-21 6-31 3l-190-47c-55-14-95-62-98-119 0-12-2-25-2-40 0-127 34-344 225-537 193-191 412-225 537-225 15 0 28 0 40 1 57 3 104 43 119 99h0l47 190c3 10 2 23-4 34 0 0 0 0 0 0z m-133-202l0 0c-4-16-17-26-33-28-11 0-23-1-36-1-110 0-300 28-470 198-169 171-197 361-199 471 0 13 0 25 2 35 1 16 11 30 28 34l151 37 79-187-47-47c-26-27-41-63-41-100 0-30 10-60 30-85 17-22 41-50 73-83s59-56 82-73c25-19 56-30 86-30 37 0 72 15 100 41l47 48 187-80c0 0-39-150-39-150z m5 724v154h-93v-154h-154v-93h154v-154h93v153h154v92h-154z"/>
</svg>
