<svg xmlns="http://www.w3.org/2000/svg" viewBox="0 0 1000 1000">
  <path transform="translate(0,850) scale(1,-1)" fill="currentColor" d="M971 171c-5 10-14 17-24 22l-251 106c-9 4-19 4-28 3l0 0c-9-2-16-6-22-12l-69-69c-9-9-23-15-34-15-11 0-21 3-30 10-19 15-44 37-73 66-30 30-52 55-66 74-8 9-11 19-11 29 0 12 5 24 15 34l69 69c6 6 10 15 12 22l0 0c1 9 1 19-3 28l-104 250c-5 11-12 19-23 24l0 0c-10 4-20 6-32 3l-188-46c-56-13-96-62-99-117 0-12-1-25-1-40 0-125 34-344 225-535 191-192 409-226 535-226 15 0 28 0 40 2 57 3 104 43 118 98v0l47 189c3 9 1 20-3 31l0 0 0 0z m-133-199c-4-16-17-26-34-28-10 0-22-1-35-1-110 0-300 28-469 198-171 169-198 359-198 469 0 14 0 25 1 36 1 16 12 29 28 33l150 37 79-187-47-47c-26-26-41-63-41-98 0-30 10-60 30-85 17-22 41-50 73-83 32-32 59-56 82-73 25-19 56-30 86-30 35 0 72 15 98 41l47 48 187-80-37-150 0 0z m140 865c-9 9-21 13-32 13h-339v-93h225l-294-294 66-66 295 294v-225h92v337c0 13-4 25-13 34z"/>
</svg>
