<svg xmlns="http://www.w3.org/2000/svg" viewBox="0 0 1000 1000">
  <path transform="translate(0,850) scale(1,-1)" fill="currentColor" d="M787 554c6 6 9 14 9 21 0 7-3 15-9 21s-13 8-21 8-14-2-20-8-9-14-9-21c0-7 3-15 9-21 6-5 13-8 20-8s16 4 21 8z m-19-252c-8 0-15-3-21-9s-9-14-9-21c0-7 3-15 9-20 6-6 13-9 21-9s14 3 20 9c6 5 9 13 9 20 0 7-3 15-9 21s-13 9-20 9z m-225-65v128h0c-2 29-27 54-56 54v-194c0-9 4-18 12-23 41-30 66-78 66-131 0-46-18-86-47-115-30-30-71-47-115-47-46 0-85 17-115 47-29 29-47 71-47 115 0 56 28 104 69 132 8 6 12 13 12 24v213h0c-1 29-26 54-56 54v-254c-50-40-81-102-81-171 0-121 99-219 219-219 121 0 220 98 220 219-2 68-33 128-81 168l0 0z m-222 294v179c0 46 36 83 82 83 24 0 44-9 59-24 15-15 25-35 25-59v-201h0c1-30 26-55 56-55v256c0 39-16 74-41 99-24 25-59 41-98 41-38 0-73-16-98-41-27-25-41-60-41-99v-125h0c1-31 26-54 56-54z m53 172v-541c-40-12-70-49-70-93 0-54 45-97 98-97 54 0 97 44 97 97 0 44-30 81-70 93v541c2 0-55 0-55 0z m69-634c0-22-18-41-41-41-23 0-42 18-42 41 0 22 18 41 42 41 23 0 41-19 41-41z m148 685h227v-57h-227v57z m0-151h113v-57h-113v57z m0-150h227v-57h-227v57z m0-151h113v-58h-113v58z"/>
</svg>
