<svg xmlns="http://www.w3.org/2000/svg" viewBox="0 0 1000 1000">
  <path transform="translate(0,850) scale(1,-1)" fill="currentColor" d="M725 250c-12 6-73 37-85 40-12 4-19 6-28-6-9-12-33-40-40-49-7-8-15-8-26-3-72 37-121 65-169 147-14 23 13 21 36 68 5 9 2 15-1 22-3 6-28 68-38 93-11 23-21 20-28 20-8 0-15 0-24 0s-22-3-32-14c-12-14-43-43-43-103 0-61 44-121 50-128 6-9 87-134 212-187 78-34 109-37 148-31 24 3 74 30 84 59 11 29 11 54 8 59-3 4-11 7-24 13z m125 454c-93 95-218 146-350 146-273 0-496-222-496-496 0-86 23-172 67-247l-71-257 263 69c72-40 155-60 237-60h0c274 0 500 222 500 495 0 133-56 256-150 350l0 0z m-350-761c-73 0-147 20-210 57l-15 9-156-41 41 151-10 16c-40 67-62 142-62 219 0 227 186 412 412 412 110 0 213-42 291-120 78-78 125-181 125-292 0-227-189-411-416-411l0 0z"/>
</svg>
