<svg xmlns="http://www.w3.org/2000/svg" viewBox="0 0 1000 1000">
  <path transform="translate(0,850) scale(1,-1)" fill="currentColor" d="M990 63l-350 352 263 263c24 26 24 68-3 93l-46-46v0l-286-287c-14-13-14-35 0-48l317-318h-156l-51 52v0l-22 22 0 0-166 166c-6 6-15 10-24 10s-17-3-23-10l-290-288c-24-27-24-68 3-93l46 45 1 2 1 1 264 264 142-143 0 0 22-22v0l61-60c6-6 14-11 23-11h252c13 0 26 9 31 21s1 25-9 35l0 0z m-572 322l-46 46-256 256 156 0 193-193c26-23 67-23 92 3l-45 44-202 203c-6 6-14 10-23 10l-252 0c-13 0-26-8-31-20s-4-28 6-38l314-314c26-23 67-23 94 3l0 0z"/>
</svg>
