<svg xmlns="http://www.w3.org/2000/svg" viewBox="0 0 1000 1000">
  <path transform="translate(0,850) scale(1,-1)" fill="currentColor" d="M799 216c-28 8-59-9-68-37l48-14 8-3c70-21 117-85 117-159v-153h55v154c3 98-66 184-160 212l0 0z m-149 44c-9 3-15 11-15 19v96c15 19 27 43 33 68 25 29 41 67 41 110v90c-2 114-94 207-209 207h0c-115 0-207-93-207-207v-90c0-43 14-81 41-110 6-25 16-47 32-68v-96c0-8-6-17-14-19l-155-45c-94-28-159-113-159-211v-154h55v154c0 74 48 139 117 159l147 43 9-6c37-25 80-38 122-38 34 0 68 9 99 25l0 0c7 4 16 9 23 13l17 12c2-2 5-3 8-3l33-9c28-7 56 9 64 37l-51 15-31 8 0 0z m-150 536l0 0c43 0 81-18 109-46 23-23 40-56 44-91l-126 107 0 0c-23 18-56 15-74-7l40-34 163-138v-35c0-2 0-3 0-5l-254 213c27 22 61 36 98 36l0 0z m-132-77l23-19-41-29c3 17 9 33 18 48z m211-475c-5-4-11-7-17-10-24-12-49-18-74-18-28 0-56 8-82 24 7 12 12 26 12 41v50c23-13 51-21 81-21h0c29 0 57 8 80 21v-50c0-10 3-21 6-29 2-2-6-8-6-8z m43 230c-3-5-6-9-7-14-11-54-58-97-115-97h0c-57 0-106 41-115 97-1 5-3 11-7 14-19 20-31 48-31 79v50l87 62 203-172c-5-8-10-14-15-19z m-194 160c-7 0-15-3-19-7-5-5-7-12-7-20s2-14 7-19c4-4 12-7 19-7 7 0 15 3 19 7 5 5 7 12 7 19s-2 15-7 20c-4 4-12 7-19 7z m334-630h54v-154h-54v154z m-577 0h55v-154h-55v154z"/>
</svg>
