<svg xmlns="http://www.w3.org/2000/svg" viewBox="0 0 1000 1000">
  <path transform="translate(0,850) scale(1,-1)" fill="currentColor" d="M62 96l0 0-62 0v-52h112c0 27-22 50-50 52z m307 241h-34l-54 72c-18 22-44 35-72 35l-157 0c-28-1-52-23-52-51h110l80-105h-190v-51h243c10 0 19 6 23 15 5 8 3 19-3 27l-88 115h32c12 0 24-6 30-15l63-82c4-6 13-10 21-10h47c16 0 32-8 42-18 11-12 18-26 18-42v-40h-66v-52h62c-3-7-8-13-14-19-11-10-26-17-42-17h-22c-12 42-52 75-97 75-56 0-102-46-102-102 0-56 46-101 102-101 47 0 86 32 97 75h22c61 0 113 50 113 113v68c1 60-49 110-112 110l0 0z m-119-316c-26 0-48 22-48 48 0 27 22 49 48 49 27 0 49-22 49-49 1-26-21-48-49-48z m693 494c-19 0-39-8-53-19l-74-58h0l0 0-1-1 0 0c-21-19-24-50-6-72l38 31 0 0 74 58c6 5 13 8 20 8h59v51c0 2-57 2-57 2z m-291-193c-64 0-115-51-115-115v-48c0-56 40-102 92-113 11-44 50-78 99-78 47 0 87 32 97 75h127v0c27 1 50 23 50 51h-178c-12 43-52 75-97 75-46 0-84-29-98-70-8 3-16 7-23 14-12 12-19 27-19 44v50c0 18 7 33 19 45 12 11 26 19 44 19h350v51l-348 0 0 0z m75-204c26 0 48-22 48-49 0-26-22-48-48-48-27 0-49 22-49 48-1 27 21 49 49 49z m197 123h76v-51h-76v51z m-330 336l-16-67c-1-8 0-17 6-23s15-9 23-9l86 13-87-78c-9-7-10-19-7-29 4-10 13-16 25-16l83 0 50 0c0 28-22 50-50 51l0 0-14 0 100 90c9 7 11 20 6 31-5 10-17 16-28 14l-133-20 33 129c3 12-3 24-14 30-10 6-23 3-30-6l-93-103-94 135c-8 10-21 13-31 9-12-4-18-16-16-28l29-173-131 22c-10 1-20-3-26-12-6-9-5-21 1-30l99-126 41 32-57 74 101-18c9-1 18 2 24 8 5 5 8 14 7 23l-16 94 45-65c5-5 12-10 19-11 8 0 17 3 21 9l44 50 0 0z"/>
</svg>
