<svg xmlns="http://www.w3.org/2000/svg" viewBox="0 0 1000 1000">
  <path transform="translate(0,850) scale(1,-1)" fill="currentColor" d="M946 418c0 11-5 23-14 32-7 9-19 15-32 15-4 0-9 0-13-2l-183-54-82 53c-7 4-16 7-25 7h-145v65h66c14 0 28 12 28 28s-12 28-28 28h-199c-15 0-28-12-28-28s12-28 28-28h77v-65h-350c-25 0-46-20-46-45v-89c0-16 9-31 22-38l172-106 0-26v0c0-25 21-46 46-46h417c14 0 25 5 34 15l243 254c7 6 12 18 12 30l0 0z m-752-164l-138 86v72h138l0-158z m458-82h-403l1 241h344l84-54c7-5 16-7 25-7 4 0 9 0 13 1l152 44c-2 2-216-225-216-225z m345 44c-3 12-9 22-15 33-17 30-42 61-42 61-6 6-13 11-22 11s-16-5-22-11c0 0-15-17-30-39-7-12-14-24-20-36-3-6-6-11-8-19-1-6-3-13-3-22 0-45 37-82 83-82 45 0 82 37 82 82 0 9-1 15-3 22z m-79-48c-15 0-28 11-28 28 0 0 0 3 1 6 2 5 6 13 11 22 4 7 10 16 14 23 3-3 5-7 8-10 5-9 11-19 16-28 1-5 3-7 4-10l2-3 0-2 0 0c-2-15-14-26-28-26l0 0z"/>
</svg>
