<svg xmlns="http://www.w3.org/2000/svg" viewBox="0 0 1000 1000">
  <path transform="translate(0,850) scale(1,-1)" fill="currentColor" d="M844 284c-26 19-62 13-81-12l46-32c38-37 62-87 62-144v-246h57v244c1 75-32 143-84 190z m-598-9c-18 27-53 34-80 16-57-47-95-117-95-198v-243h57v244c0 60 26 115 71 152l47 29c0 0 0 0 0 0z m-19-156v-269h57v213h0c-2 31-27 56-57 56z m489 0v-269h58v213h0c-2 31-27 56-58 56z m-50 47l0 0 0 0 0 0z m-332 0l0 0 0 0 0 0z m376 252l0 0 0 0 0 0z m36-118l0 0c0 0 0 2 0 0 0 2 0 2 0 0l0 0c16 25 25 53 25 82 0 6 0 12-2 18l0 0c0 4-1 7-1 7 0 0 1 3 3 8l0 0c0 0 0 0 0 0 0 0 0 0 0 0l0 0c11 25 17 51 17 78 0 10-1 19-3 29 8 10 15 24 19 40 5 13 6 26 6 38 0 35-14 68-38 91-20 21-47 34-76 38-24 48-64 84-112 103l-2 0c-23 9-45 12-66 14l0 0c-6 0-12 0-17 0-8 0-15 0-21-2l0 0c-37-3-60-13-65-15l0 0c0 0 0 0 0 0 0 0 0 0 0 0l0 0c-26-11-50-27-70-47l0 0c0 0 0 0 0 0 0 0 0 0 0 0l0 0c-16-16-30-35-41-55-15-3-28-8-40-15-25-15-44-34-56-56-12-21-16-43-16-63 0-19 3-36 9-50 3-9 7-16 11-24-1-10-3-19-3-29 0-27 6-53 18-78l0 0c0 0 0 0 0 0 0 0 0 0 0 0l0 0c2-3 3-6 3-8l0-1c0 0 0-3-1-7l0 0c-2-6-2-12-2-19 0-30 9-58 24-81l0 0c0 0 0 0 0 0 0 0 0 0 0 0l0 0c4-8 8-14 14-19 0-24 8-46 18-65 12-21 28-37 46-52 36-26 80-36 122-36l0 0h88l0 0c42 0 85 10 122 36 19 14 34 31 45 52 12 19 18 41 18 65 15 11 19 17 24 23l0 0z m-411 331c0 22 5 43 12 63 9 21 21 38 35 53l0 0c15 15 33 27 53 35l0 0 0 0c0 0 19 8 46 11 4 0 10 0 16 0 5 0 9 0 13 0 17-2 33-5 50-11 40-16 71-48 87-88l0 0c9-19 13-40 13-62v-61c-26-17-54-34-78-58-29 16-60 25-91 25-29 0-60-9-87-25-22 22-47 39-72 53 3-1 3 65 3 65z m384-188c-1-5-7-12-9-25 0-3 0-6 0-9 0-7 2-12 2-16 0-3 0-8 0-11 0-17-6-35-15-51l0 0c-3-4-6-7-9-12 0 0-3-3-4-6-2-3-5-7-6-11l0 0c0 0 0 0 0-2 0 0 0 0 0-1l0 0c-1-6-1-12-1-14l0-3c0-13-5-26-11-39-7-12-17-24-29-33l0 0c-24-17-56-25-90-26h-91c-32 0-65 9-90 26l0 0c-12 9-22 19-29 33-8 13-10 26-10 39l0 2c0 3 0 7-2 13l0 0c0 0 0 0 0 2 0 0 0 0 0 1l0 0c-1 6-4 9-6 12-3 3-4 4-4 6-3 4-8 7-9 11l0 0c-10 15-15 34-15 50 0 3 0 8 0 11 0 3 2 9 2 16 0 3 0 6 0 9-2 13-8 20-9 25l0 0c-7 16-12 34-12 53 0 10 2 20 5 29 2 10 0 22-9 30l0 0c-2 1-6 7-8 14-3 8-4 18-4 30 0 11 3 25 9 36 4 9 12 17 20 25-1-8-1-19-1-28v-82c0-10 6-19 15-25 35-20 66-41 88-68 10-11 28-14 40-4 25 19 48 27 73 27 27 0 53-9 79-28 12-9 30-6 40 5 24 28 58 50 94 73 9 5 15 14 15 25v77c0 12-1 23-3 34 4-3 10-6 15-10 13-13 22-32 22-50 0-7-2-13-3-21-3-8-6-16-9-20-1-3-3-5-4-6l-2-2 0 0 0 0c-9-7-12-17-9-29 3-10 5-19 5-29-9-19-12-37-21-53l0 0 0 0z m-429-25l0 0 0 0 0 0z m153 144c6 6 9 13 9 20 0 8-3 15-9 21-6 6-14 9-21 9-7 0-15-3-20-9-6-6-9-13-9-21 0-7 3-14 9-20 5-6 13-9 20-9 9 0 16 3 21 9z m134 50c-8 0-15-3-21-9-6-6-9-13-9-21 0-7 3-14 9-20 6-6 13-9 21-9 7 0 14 3 20 9 6 6 9 13 9 20 0 8-3 15-9 21-4 4-13 9-20 9z m23-540c-7 0-15-3-21-9-5-6-8-13-8-20 0-8 3-15 8-21 6-6 14-9 21-9 7 0 15 3 21 9 6 6 8 13 8 21 0 7-2 14-8 20-6 6-14 9-21 9z m0-154c-7 0-15-3-21-9-5-6-8-13-8-21 0-7 3-15 8-20 6-6 14-9 21-9 7 0 15 3 21 9 6 5 8 13 8 20 0 8-2 15-8 21-6 6-14 9-21 9z m-129 128l0-190h58v244c-30 0-57-23-58-54l0 0z m-87 642h231v-57h-231v57z m119-317c-22 0-43 6-60 16l-30-50c27-15 56-24 89-24 32 0 63 9 88 24l-30 50c-16-10-35-16-57-16l0 0z"/>
</svg>
