<svg xmlns="http://www.w3.org/2000/svg" viewBox="0 0 1000 1000">
  <path transform="translate(0,850) scale(1,-1)" fill="currentColor" d="M344 850h-153c-54 0-98-44-98-98v-152c0-51 39-93 89-98l0 0c39 0 70 30 71 69l-66 1c-13 3-24 13-24 28v152c0 16 14 27 28 27h152c16 0 28-13 28-27v-152c0-16-14-28-28-28 0 0 0 0 0 0h-2v0c-37-1-66-32-66-69l66 0v0h2c0 0 1 0 1 0h0v0c53 1 97 44 97 99v150c2 54-42 98-97 98z m465 0h-153c-54 0-99-44-99-98v-152c0-54 45-98 99-98h153c54 0 98 44 98 98v152c0 54-44 98-98 98z m28-250c0-16-13-28-28-28h-153c-16 0-28 13-28 28v152c0 16 13 27 28 27h153c16 0 28-13 28-27v-152z m-493-215h-153c-54 0-98-44-98-98v-152c0-54 44-98 98-98h152c54 0 98 44 98 98v152c2 54-42 98-97 98z m28-251c0-16-13-28-28-28h-153c-16 0-28 13-28 28v153c0 16 14 28 28 28h152c16 0 28-13 28-28v-153z m446 250l0 0c-39 0-69-31-71-69l66-2c14-3 24-13 24-28v-151c0-16-13-28-28-28h-153c-16 0-28 13-28 28v153c0 16 13 28 28 28 0 0 0 0 0 0h1v0c37 1 67 32 67 69l-67 0v0h-1c0 0-2 0-2 0h0v0c-52-2-97-44-97-99v-151c0-55 45-99 99-99h153c54 0 98 44 98 99v153c0 51-39 92-89 97l0 0z m-458-465c-8 0-17-4-25-10-6-6-10-16-10-25 0-9 4-18 10-25 6-6 17-11 25-11s18 5 25 11c6 6 11 16 11 25 0 9-5 17-11 25s-14 10-25 10z m140 0c-9 0-18-4-25-10-6-6-10-16-10-25 0-9 4-18 10-25 6-6 16-11 25-11s18 5 25 11c6 6 10 16 10 25 0 9-4 17-10 25s-16 10-25 10z m140 0c-9 0-18-4-25-10-6-6-11-16-11-25 0-9 5-18 11-25 6-6 16-11 25-11s17 5 25 11c6 6 10 16 10 25 0 9-4 17-10 25s-16 10-25 10z"/>
</svg>
