<svg xmlns="http://www.w3.org/2000/svg" viewBox="0 0 1000 1000">
  <path transform="translate(0,850) scale(1,-1)" fill="currentColor" d="M972 378c0 260-212 472-472 472-260 0-472-212-472-472v-32h3c-2-11-3-21-3-31v-12c0-118 96-212 212-212 10 0 20 5 28 12 7 7 11 18 11 28v357c0 11-4 21-11 28-8 8-18 12-28 12-43 0-83-13-116-35 19 61 53 117 97 161 73 73 170 117 279 117 109 0 206-44 277-115 44-44 77-100 97-162-34 22-74 35-117 35-10 0-20-4-28-11-7-8-11-18-11-28v-358c0-10 4-20 11-28 8-7 18-11 28-11 50 0 97 19 133 48v-63c0-49-40-88-88-88h-177v32c0 10-4 21-12 28-7 7-17 12-28 12h-198c-10 0-21-5-28-12-7-7-12-18-12-28v-129c0-11 5-21 12-28 7-8 18-12 28-12h200c10 0 20 4 28 12 7 7 12 17 12 28v17h176c93 0 169 75 169 169v237c0 11-1 21-3 31h3l0 31 0 0z m-770 63v-264c-55 17-93 66-93 126v12c0 60 38 110 93 126z m345-512l-120 0v50l120 0v-50z m346 374c0-59-40-109-93-126v264c54-17 93-66 93-126 0 1 0-12 0-12z"/>
</svg>
