<svg xmlns="http://www.w3.org/2000/svg" viewBox="0 0 1000 1000">
  <path transform="translate(0,850) scale(1,-1)" fill="currentColor" d="M796 297l-56 181c-18 56-69 94-128 94h-221c-59 0-110-38-128-94l-56-181c-35-23-58-63-58-109v-182c0-10 4-19 10-27 7-7 16-10 26-10h3v-82c0-21 16-37 37-37s37 16 37 37v82h481v-82c0-21 16-37 36-37s37 16 37 37v82h3c10 0 19 4 27 10 7 8 10 17 10 27v182c-2 46-25 86-60 109z m-464 160c8 27 33 43 59 43h218c26 0 51-18 59-43l42-138h-420l42 138 0 0z m449-416h-560v147c0 33 26 58 57 58h444c32 0 57-27 57-58l2-147 0 0z m-438 119c-11 0-19-4-27-10-7-7-10-16-10-26s4-20 10-27c8-7 16-10 27-10s19 4 26 10c8 7 10 16 10 27s-4 19-10 26c-7 7-16 10-26 10z m316 0c-10 0-19-4-27-10-7-7-10-16-10-26s5-20 10-27c8-7 17-10 27-10s19 4 26 10c8 7 11 16 11 27s-5 19-11 26c-7 7-16 10-26 10z m-157 487c20 0 36 16 36 37v129c0 21-16 37-36 37s-37-16-37-37v-129c0-21 16-37 37-37z m463 90c-15 15-37 15-52 0l-86-87c-15-15-15-37 0-51 14-15 36-15 51 0l87 86c14 15 14 39 0 52z m-794-87l-84 84c-15 15-37 15-52 0-14-15-14-37 0-52l84-83c15-15 37-15 52 0 14 14 14 38 0 51z"/>
</svg>
