<svg xmlns="http://www.w3.org/2000/svg" viewBox="0 0 1000 1000">
  <path transform="translate(0,850) scale(1,-1)" fill="currentColor" d="M1000 788c0 14-3 25-7 34-5 9-9 13-12 16l0 0c-3 3-6 5-10 6-6 3-14 5-21 5-16 0-37-5-68-20-32-14-76-39-138-80-1-2-3-2-3-3l-44-31c19-28 57-36 85-16 59 39 100 61 127 75 13 5 23 10 29 11 0-6-3-16-7-29-9-24-29-60-71-110-41-50-101-115-191-196-62-56-119-103-172-148l0 0-1-2c0 0 0 0 0 0 0 0 0 0 0 0l-44-38c19-24 55-25 80-10 14 11 31 25 46 38l246-365c5-7 14-13 23-13 10 0 19 4 25 11l40 49c6 7 9 18 6 28l-127 481c74 72 122 129 153 175 43 60 56 101 56 132l0 0z m-144-791l-4-4-227 335c28 24 56 49 85 75 11 10 21 19 31 28 0 0 115-434 115-434z m-324 253c-1-1 3 2 0 0l0 0z m-153-46c-50-39-92-73-129-100 69 96 181 237 344 418 28 31 55 60 78 87 0 0 0 0 0 0l38 43c-23 22-58 20-82 0 0 0-1-2-1-2 0 0-2-1-2-1 0 0 0 0 0 0l0 0c0 0-1-2-1-2l-478 124c-9 3-19 1-28-6l-47-40c-8-6-12-15-12-25 0-10 6-19 13-23l362-245c-68-79-125-150-171-208l-179 51c-10 3-22 0-31-9l-46-47c-5-7-9-16-7-26 2-11 7-18 16-22l152-75c-43-62-64-94-64-96-7-12-5-28 5-37 10-10 25-12 38-4 0 0 32 20 94 65l77-153c4-9 13-15 22-17 10-1 19 2 26 8l47 45c9 8 12 19 9 31l-51 181c16 13 32 27 51 40 2 1 3 3 5 4l41 33c-22 26-61 29-89 8l0 0z m-238 500l5 5 432-113c-9-11-18-21-28-31-26-30-51-58-76-86l-333 225z m63-558l-123 61 3 5 138-40c-4-10-12-19-18-26z m150-212l-61 125c9 6 16 13 25 19l39-140-3-4 0 0z"/>
</svg>
