<svg xmlns="http://www.w3.org/2000/svg" viewBox="0 0 1000 1000">
  <path transform="translate(0,850) scale(1,-1)" fill="currentColor" d="M766 618h-532c-130 0-234-105-234-234v-68c0-129 104-234 234-234h531c129 0 234 105 234 234v68c1 129-103 234-233 234z m-456-465h-75c-89 0-163 74-163 163v68c0 90 74 163 163 163h75v-394z m139 94c-8-7-17-10-25-10-9 0-20 4-25 10s-11 16-11 25 5 19 11 25 16 10 25 10c8 0 19-4 25-10s10-16 10-25-5-18-10-25z m0 155c-8-8-17-11-25-11-9 0-20 5-25 11s-11 16-11 25c0 8 5 19 11 25s16 10 25 10c8 0 19-5 25-10s10-17 10-25c0-9-5-18-10-25z m154-155c-7-7-16-10-25-10-9 0-19 4-25 10s-10 16-10 25 4 19 10 25 16 10 25 10c9 0 19-4 25-10 7-7 10-16 10-25s-4-18-10-25z m0 155c-7-8-16-11-25-11s-19 5-25 11-10 16-10 25c0 8 4 19 10 25s16 10 25 10 19-5 25-10 10-17 10-25c0-9-4-18-10-25z m326-86c0-89-73-163-163-163h-82v394h82c90 0 163-73 163-163v-68z"/>
</svg>
