<svg xmlns="http://www.w3.org/2000/svg" viewBox="0 0 1000 1000">
  <path transform="translate(0,850) scale(1,-1)" fill="currentColor" d="M175 197h-132c-12 0-22-4-30-12s-13-19-13-29v-132c0-12 4-22 12-30s19-12 29-12h133c11 0 22 5 29 12s12 19 12 30v132c0 12-5 22-12 29s-18 12-28 12z m-43-132h-48l0 48h48c0 0 0-48 0-48z m303 262h-132c-12 0-22-5-29-12s-12-19-12-30v-260c0-12 4-22 12-29s19-12 29-12h132c12 0 22 4 30 12 7 7 12 19 12 29v259c0 12-5 22-12 29s-19 14-30 14z m-42-262h-49l0 176h49v-176z m304 460h-132c-12 0-22-4-30-12s-11-19-11-29v-459c0-12 4-22 11-29s19-12 30-12h132c12 0 22 4 30 12s11 19 11 29v457c0 12-4 22-11 30s-20 13-30 13z m-43-460h-48l0 375h48v-375z m334 641c-7 7-19 12-29 12h-132c-12 0-23-5-30-12s-12-19-12-29v-653c0-12 5-22 12-30s19-12 30-12h132c12 0 22 5 29 12s12 19 12 30v653c0 11-4 22-12 29z m-72-641h-48v570h48c0 0 0-570 0-570z"/>
</svg>
