<svg xmlns="http://www.w3.org/2000/svg" viewBox="0 0 1000 1000">
  <path transform="translate(0,850) scale(1,-1)" fill="currentColor" d="M991 669c-6 6-13 9-20 9h-140v54c0 8-3 15-9 21-4 6-13 9-20 9h-118c-7 0-15-3-21-9-6-6-9-13-9-21v-54h-305v54c0 8-3 15-9 21-6 6-13 9-21 9h-117c-8 0-15-3-21-9-6-6-9-13-9-21v-54h-143c-7 0-14-3-20-9-6-6-9-13-9-20v-109c0-8 3-15 9-21s13-9 20-9h8v-542c0-8 3-15 9-21s11-9 20-9h193c0 33-27 59-59 59h-104l0 50h810v-50h-588c0-32 26-59 59-59h558c8 0 15 3 21 9s9 13 9 21v542h6c7 0 14 3 20 9s9 13 9 21v109c0 7-3 14-9 20l0 0z m-278 34h59v-25h-59v25z m-482 0h59v-25h-59v25z m710-134h-159c0-32 27-59 59-59h63v-404h-808v404h633c0 33-26 59-58 59h-612v50h143c0 0 0 0 0 0h117c0 0 0 0 0 0h365c0 0 0 0 0 0h118c0 0 0 0 0 0h139l0-50 0 0z m-685-181h-59v-64h-65v-59h65v-65h59v65h65v59h-65v64z m425-72h144v-59h-144v59z m-149 111l-105-130 41-34-49-59 46-36 104 126-41 34 51 62-47 37z"/>
</svg>
