<svg xmlns="http://www.w3.org/2000/svg" viewBox="0 0 1000 1000">
  <path transform="translate(0,850) scale(1,-1)" fill="currentColor" d="M988 512c-7 7-17 12-26 12h-127v19c0 148-120 269-269 269h-504c0-41 32-75 73-77l131 0h302c53 0 101-22 135-56 35-35 56-82 56-135v-57c0-10 4-21 12-27 7-7 17-11 26-11h127v-290c0-53-22-102-56-135-36-36-83-56-136-56h-463c-53 0-101 22-135 56-35 35-56 82-56 135l0 438c-1 41-35 74-76 74v-512c0-149 120-269 269-269h463c148 0 269 120 269 269v326c-3 11-7 21-15 27z m-703-430h439c53 0 95 43 95 96 0 53-42 96-95 96h-439c-53 0-95-43-95-96 0-53 44-96 95-96z m0 114h439c10 0 19-9 19-19 0-11-9-20-19-20h-439c-10 0-19 9-19 20 2 11 9 19 19 19z m0 197h284c53 0 96 42 96 95 0 53-43 96-96 96h-284c-53 0-95-43-95-96 0-53 44-95 95-95z m0 114h284c10 0 19-8 19-19 0-10-9-19-19-19h-284c-10 0-19 9-19 19 2 11 9 19 19 19z"/>
</svg>
