<svg xmlns="http://www.w3.org/2000/svg" viewBox="0 0 1000 1000">
  <path transform="translate(0,850) scale(1,-1)" fill="currentColor" d="M897 618h-87v89c0 61-48 108-107 108h-282c0-33 25-58 56-59l225 0c26 0 48-22 48-49v-89l-513 0v89c0 27 22 49 48 49h97c0 32-25 57-55 59l-42 0c-60 0-107-49-107-108v-89h-75c-57 0-103-46-103-103v-527c0-57 46-103 103-103h610c0 33-25 58-56 59l-554 0c-24 0-44 19-44 44v372h90v-57c0-7 3-16 8-21s14-8 21-8h125c7 0 16 3 21 8 5 6 8 14 8 21v57h331v-57c0-7 3-16 9-21 6-5 13-8 21-8h119c7 0 16 3 20 8 6 6 9 14 9 21v57h100v-372c0-23-19-44-44-44h-123c0-32 25-57 55-59l68 0c57 0 103 46 103 103v527c0 57-46 103-103 103l0 0z m-623-286h-67v99h67v-99z m508 2h-58v98h58c0 0 0-98 0-98z m159 87h-98v41c0 7-3 16-9 20-6 6-13 9-21 9h-119c-7 0-16-3-20-9-6-5-9-13-9-20v-41h-331v41c0 7-3 16-9 20-6 6-13 9-21 9h-125c-7 0-16-3-20-9-6-5-9-13-9-20v-41h-91v94c0 23 19 44 44 44h794c24 0 44-19 44-44l0-94 0 0z m-535-431h178v66h66v178h-66v66h-178v-66h-66v-178h66c0 0 0-66 0-66z m-7 125v59h66v66h59v-66h66v-59h-66v-66h-59v66c0 0-66 0-66 0z"/>
</svg>
