<svg xmlns="http://www.w3.org/2000/svg" viewBox="0 0 1000 1000">
  <path transform="translate(0,850) scale(1,-1)" fill="currentColor" d="M818 300l0-375h-636v850h636v-331c39 0 73 33 75 72l0 297c0 11-5 19-12 27-6 6-15 10-25 10h-712c-10 0-19-4-26-12-8-6-11-16-11-26v-925c0-11 5-19 12-27 6-6 15-10 25-10h712c10 0 19 4 26 12 8 7 12 16 12 26v484c-41 0-73-32-76-72l0 0z m-434 116c-7 8-16 12-27 12s-19-4-26-12c-7-7-12-16-12-26 0-11 5-19 12-27 7-7 16-11 26-11s20 4 27 11c7 8 12 16 12 27 0 10-5 20-12 26z m143 0c-8 8-17 12-27 12s-19-4-26-12c-8-7-12-16-12-26 0-11 4-19 12-27 7-7 16-11 26-11s19 4 27 11c7 8 11 16 11 27 0 10-4 20-11 26z m142 0c-7 8-16 12-26 12s-19-4-27-12c-7-7-12-16-12-26 0-11 5-19 12-27 8-7 16-11 27-11s19 4 26 11c8 8 12 16 12 27-2 10-4 20-12 26z m-285-147c-7 8-16 12-27 12s-19-4-26-12c-7-7-12-16-12-26 0-11 5-19 12-27 7-7 16-12 26-12s20 5 27 12c7 8 12 16 12 27 0 9-5 19-12 26z m143 0c-8 8-17 12-27 12s-19-4-26-12c-8-7-12-16-12-26 0-11 4-19 12-27 7-7 16-12 26-12s19 5 27 12c7 8 11 16 11 27 0 9-4 19-11 26z m142 0c-7 8-16 12-26 12s-19-4-27-12c-7-7-12-16-12-26 0-11 5-19 12-27 8-7 16-12 27-12s19 5 26 12c8 8 12 16 12 27-2 9-4 19-12 26z m-312-137c-10 0-19-4-26-11-7-8-12-17-12-27 0-10 5-19 12-26 7-8 16-12 26-12s20 4 27 12c7 7 12 16 12 26 0 10-5 19-12 27-6 7-16 11-27 11z m143 0c-10 0-19-4-26-11-8-8-12-17-12-27 0-10 4-19 12-26 7-8 16-12 26-12s19 4 27 12c7 7 11 16 11 26 0 10-4 19-11 27-8 7-17 11-27 11z m143 0c-11 0-19-4-27-11-7-8-12-17-12-27 0-10 5-19 12-26 8-8 16-12 27-12s19 4 26 12c8 7 12 16 12 26 0 10-4 19-12 27-7 7-17 11-26 11z m-356 505h426v-75h-426v75z"/>
</svg>
