<svg xmlns="http://www.w3.org/2000/svg" viewBox="0 0 1000 1000">
  <path transform="translate(0,850) scale(1,-1)" fill="currentColor" d="M999 281l-53 131c-3 9-12 15-22 15h-174c-6 0-12-3-16-8-5-4-7-10-7-16v-141h-45v357c0 6-3 12-7 16s-10 8-16 8l-381 0c-25-2-46-22-46-47h403v-334h-588v334l115 0c25 1 45 22 45 47h-183c-6 0-12-3-17-8-4-4-7-10-7-16v-478c0-6 3-12 7-16 5-4 11-7 17-7h44c10-36 42-61 81-61 28 0 54 15 69 37 14-22 39-37 69-37 38 0 70 25 81 61h39c6 0 12 3 17 7 4 4 7 10 7 16v74h47v-74c0-6 3-12 7-16 5-4 11-7 17-7h160c10-36 42-61 81-61 28 0 54 15 69 37 15-22 40-37 69-37 38 0 71 25 81 61h17c6 0 12 3 17 7s7 10 7 16v131c-3 3-3 6-4 9z m-931-116h-21v48h59c-18-10-32-26-38-48z m79-61c-20 0-37 17-37 37 0 21 17 37 37 37 21 0 37-16 37-37 0-20-16-37-37-37z m69 86c-7 10-16 19-28 25h56c-10-8-20-15-28-25z m69-86c-20 0-36 17-36 37 0 21 16 37 36 37 21 0 37-16 37-37 0-20-16-37-37-37z m96 61h-16c-6 20-21 38-40 48h54v-48z m279 0h-135v48l175 0c-19-10-34-26-40-48z m81-61c-20 0-37 17-37 37 0 21 17 37 37 37 21 0 37-16 37-37-1-20-18-37-37-37z m137 0c-21 0-37 17-37 37 0 21 16 37 37 37 21 0 37-16 37-37 0-20-16-37-37-37z m75 77c-15 26-41 46-74 46-27 0-54-15-69-37-10 14-25 26-42 31 0 0 0 0 0 0 4 4 7 10 7 16v141h134l34-82h-75l0 16c-2 25-22 45-47 45v-85c0-6 3-12 7-16s10-7 16-7h110l-1-68 0 0z m-501 375h47v-254h-47v254z m-90 0h47v-254h-47v254z m178 0h47v-254h-47v254z m-356 0h47v-254h-47v254z m-88 0h47v-254h-47v254z m178 0h47v-254h-47v254z m467-391c-6 0-12-3-16-8s-7-10-7-16 3-12 7-16 10-7 16-7c6 0 12 3 16 7 5 4 8 10 8 16s-3 12-8 16c-4 6-10 8-16 8z m-456 0c-6 0-11-3-16-8s-7-10-7-16 3-12 7-16 10-7 16-7 12 3 17 7 7 10 7 16-3 12-7 16-11 8-17 8z m-138 0c-6 0-12-3-16-8s-7-10-7-16 3-12 7-16 10-7 16-7 12 3 16 7 8 10 8 16-3 12-8 16-9 8-16 8z m731 0c-6 0-12-3-16-8-5-4-8-10-8-16s3-12 8-16c4-4 10-7 16-7 6 0 12 3 16 7s8 10 8 16-3 12-8 16-9 8-16 8z"/>
</svg>
