<svg xmlns="http://www.w3.org/2000/svg" viewBox="0 0 1000 1000">
  <path transform="translate(0,850) scale(1,-1)" fill="currentColor" d="M441 604c13 5 22 17 22 30v28c0 20 16 35 36 35 20 0 35-16 35-35v-28c0-13 9-27 22-30 50-14 91-45 119-88 16-28 52-38 81-23l-29 56c-31 48-77 86-133 108v6c5 55-40 99-94 99-54 0-98-44-98-99v-6c-103-39-178-139-178-257v-150l-139-254c-6-11-4-21 0-31 6-9 17-15 27-15l72 0c32 1 59 29 59 62h-78l117 215c3 4 5 10 5 14v159c0 97 65 179 154 204l0 0z m334-354l0 91c-1 33-29 59-62 59v-157c0-6 2-11 5-15l117-215-473 0c-33-1-59-29-59-62h76c14-53 62-92 121-92 57 0 106 39 121 92h267c11 0 21 6 27 15 6 9 6 21 0 31 0-1-140 253-140 253z m-275-331c-23 0-43 13-53 31h106c-10-19-29-31-53-31z m331 478h62c0 150-84 280-206 346l-30-55c105-56 174-166 174-291z m-725 0h62c0 127 70 235 173 291l-29 55c-122-66-206-197-206-346z m619 446l-28-56c143-72 241-221 241-391h62c0 195-112 366-275 447z m-434-61l-29 55c-156-85-262-250-262-440h62c0 166 92 310 229 385l0 0z"/>
</svg>
