<svg xmlns="http://www.w3.org/2000/svg" viewBox="0 0 1000 1000">
  <path transform="translate(0,850) scale(1,-1)" fill="currentColor" d="M366 168h-225c-26 0-51 10-69 28-16 17-28 41-28 69 0 26 12 50 30 67 17 18 41 28 69 28h60c6 0 12 3 16 6 5 5 6 11 6 16 0 36 7 70 19 100 10 22 2 49-20 61l-20-40c-11-31-19-63-22-97h-41c-78 0-141-63-141-141 0-78 63-141 141-141h227v0c23 1 42 20 42 44l-44 0 0 0z m447 328h-13c-46 122-162 208-300 208h0c-72 0-140-25-193-64-17-16-20-44-4-63l34 29c45 34 101 54 163 54h0c124 0 228-81 263-192 3-9 12-16 22-16h28c40 0 75-17 100-42 25-25 41-61 41-100 0-39-16-75-41-100-25-25-61-41-100-41h-181v0c-23-1-42-20-42-44h223c103 0 187 84 187 187 0 100-84 184-187 184l0 0z m-148-217l-149 150c-4 5-10 6-16 6s-12-3-16-6l-149-150 33-32 111 112v-363h45v363l111-112 30 32 0 0z"/>
</svg>
