<svg xmlns="http://www.w3.org/2000/svg" viewBox="0 0 1000 1000">
  <path transform="translate(0,850) scale(1,-1)" fill="currentColor" d="M865 435h-356v109h66c7 0 16-3 22-7l77-62c23-18 57-13 76 9v0l-44 35-75 60c-16 14-35 20-56 20h-288c-30 0-58-14-75-37l-58-77h-36c-65 0-118-53-118-117v-71c0-57 40-104 94-115 12-47 53-80 103-80 59 0 106 47 106 105 0 59-47 106-106 106-47 0-88-31-101-75-9 3-17 8-22 15-12 12-20 28-20 44v71c0 17 8 34 20 44 11 12 28 19 44 19h48c9 0 16 4 22 10l66 87c8 10 20 16 31 16h34l-91-120c-6-9-7-20-3-28 4-9 15-15 25-15h615c22 0 42-9 57-24 15-14 24-35 24-57v0c0-18-8-35-19-47-8-7-15-12-24-15-13 43-53 75-101 75-49 0-90-34-103-78l-305 0c-29-1-51-25-51-54h357c12-46 53-78 103-78 50 0 91 35 103 81 54 12 96 60 96 118v0c-2 73-62 133-137 133l0 0z m-668-178c28 0 52-23 52-51 0-28-24-52-52-52-28 0-51 24-51 52 0 29 22 51 51 51z m257 178h-148l84 109h64c0 0 0-109 0-109z m348-279c-28 0-52 23-52 51 0 28 24 52 52 52 27 0 51-24 51-52 0-29-24-51-51-51z m-283 194h75v-54h-75v54z"/>
</svg>
