<svg xmlns="http://www.w3.org/2000/svg" viewBox="0 0 1000 1000">
  <path transform="translate(0,850) scale(1,-1)" fill="currentColor" d="M134 121c-41 66-66 145-66 229 0 119 48 228 126 306 78 78 187 126 306 126 84 0 163-25 229-66 31-22 73-16 95 15l-53 40c-78 50-171 79-271 79-276 0-500-223-500-500 0-100 29-193 79-271 23-29 65-35 95-13 0 0-40 55-40 55z m781 507c-24 29-65 34-94 12v0l41-55c44-67 70-148 70-236 0-120-48-228-126-306-78-78-187-127-306-127-87 0-168 27-237 71-29 22-72 17-95-14l53-39c81-53 176-84 279-84 277 0 500 224 500 500 0 103-31 199-85 278l0 0z m-156-135c-25 25-66 26-93 3l-232-233-80 80v0l-45 45c-25-25-25-67-2-94l102-101c6-6 15-11 23-11s18 3 24 11l253 253v0l50 47 0 0z"/>
</svg>
