<svg xmlns="http://www.w3.org/2000/svg" viewBox="0 0 1000 1000">
  <path transform="translate(0,850) scale(1,-1)" fill="currentColor" d="M160 606l-60 44c-63-84-100-187-100-300 0-112 37-215 99-298l60 44c-53 72-84 158-84 254 0 96 31 184 85 256z m340 104c-200 0-360-160-360-360 0-200 162-360 360-360 200 0 360 162 360 360 0 200-160 360-360 360z m203-563c-51-51-124-84-203-84-79 0-150 33-203 84-51 52-84 124-84 203 0 79 33 150 84 203 52 51 124 84 203 84 79 0 150-33 203-84 51-51 84-124 84-203 0-79-33-150-84-203z m-203 424c-21 0-37-17-37-37v-224c0-20 16-36 37-36 21 0 37 16 37 36v224c1 20-16 37-37 37z m0-344c-10 0-19-5-26-11s-11-16-11-26 5-19 11-27 16-10 26-10c10 0 19 4 27 10s10 16 10 27-5 19-10 26-17 11-27 11z m393 432l-59-46c57-72 91-163 91-263 0-96-31-182-84-254l61-44c61 83 98 186 98 298 0 116-40 224-107 309z"/>
</svg>
