<svg xmlns="http://www.w3.org/2000/svg" viewBox="0 0 1000 1000">
  <path transform="translate(0,850) scale(1,-1)" fill="currentColor" d="M500 850c-18 0-37-7-50-21-13-13-21-30-21-50s8-36 21-50c13-11 32-19 50-19s37 8 50 21c13 13 21 31 21 50s-8 37-21 50c-13 12-32 19-50 19z m-256-754c-26 28-70 28-98 0s-28-71 0-99h0c26-28 70-28 98 0s28 72 0 99l0 0z m-104 254c0 38-31 69-69 69s-71-29-71-69 31-69 69-69 71 31 71 69l0 0z m56 374c38 0 69-31 69-70s-31-69-69-69-69 31-69 69 30 70 69 70z m557-630l0 0c-28-26-28-70 0-98s71-28 99 0h0c27 26 27 70 0 98s-71 27-99 0z m-254-104c-39 0-70-31-71-69 0-39 31-70 69-71s69 31 71 69-31 71-69 71z m480 410c-13 13-30 21-50 21s-36-8-50-21c-13-13-20-31-20-50s7-37 20-50c14-13 31-21 50-21s37 8 50 21c14 13 21 31 21 50s-7 37-21 50z"/>
</svg>
