<svg xmlns="http://www.w3.org/2000/svg" viewBox="0 0 1000 1000">
  <path transform="translate(0,850) scale(1,-1)" fill="currentColor" d="M500 850c-276 0-500-223-500-500 0-276 224-500 500-500 277 0 500 224 500 500 0 277-223 500-500 500z m294-794c-75-75-179-122-294-122-115 0-219 47-294 122-75 75-122 179-122 294 0 115 47 219 122 294 75 75 179 122 294 122 115 0 219-47 294-122 75-75 122-179 122-294 0-115-47-219-122-294z m-301 496c-12 11-31 16-46 8s-26-22-26-39v-343c0-18 10-32 26-40s34-3 46 9l170 174c16 16 16 42 0 60 0 0-170 171-170 171z"/>
</svg>
