<svg xmlns="http://www.w3.org/2000/svg" viewBox="0 0 1000 1000">
  <path transform="translate(0,850) scale(1,-1)" fill="currentColor" d="M577 694l1 2 1 1 36 35c26 27 62 40 97 40 35 0 70-13 97-40 0 0 0 0 0 0 26-26 40-61 40-97 0-35-14-70-40-97l-427-428c-14-14-32-20-50-20-19 0-36 7-50 20-14 15-20 33-20 50 0 19 7 37 20 50l233 236-55 54-233-234c-30-29-45-67-45-104 0-38 15-77 45-105 29-29 67-44 104-44 38 0 76 15 104 44l428 428c41 42 64 97 64 152 0 54-21 110-64 151 0 0 0 0 0 0-41 41-97 62-151 62-55 0-109-21-152-63l-36-37c-28-31-28-78 1-107 0 0 52 51 52 51z m-108-684l0 0-23-23c-40-40-92-61-144-61-53 0-105 20-145 61 0 0 0 0 0 0-39 40-60 91-60 144 0 53 19 104 60 144l293 293c28 31 27 76-3 106l-51-52-294-293c-55-54-83-126-83-198 0-72 28-144 83-199v0c0 0 0 0 0 0 54-54 126-82 198-82 72 0 144 28 199 82l26 27c28 31 27 76-3 106l-53-55 0 0z m488 490l-51-51v0l-313-315c-28-31-27-77 3-106l51 51 313 315c27 30 27 77-3 106z"/>
</svg>
