<svg xmlns="http://www.w3.org/2000/svg" viewBox="0 0 1000 1000">
  <path transform="translate(0,850) scale(1,-1)" fill="currentColor" d="M919 502c-16 7-34 1-42-12l-146-208c-6-8-15-13-25-13-9 0-18 5-24 12l-142 303c-6 12-19 20-33 20s-26-7-32-20l-143-303c-5-7-14-12-23-12-10 0-19 5-25 13l-147 206c-10 14-28 19-43 12-16-7-23-23-20-40l95-467c3-17 18-28 35-28h605c18 0 31 11 35 28l96 467c3 18-6 34-21 42z m-140-465h-547l-55 270 47-66c20-29 51-44 83-42 31 0 64 14 84 42l3 6 113 240 114-240 3-6c20-29 51-44 83-42 31 0 64 14 84 42l47 66-59-270z m-669 529c0 15-6 28-16 38-10 11-25 17-38 17-15 0-28-6-38-17s-18-23-18-38 6-28 16-38 25-16 38-16c15 0 28 6 39 16 11 9 17 24 17 38z m396 59c15 0 28 6 38 16 10 11 16 25 16 38s-6 28-16 39c-10 10-25 16-38 16-15 0-28-6-38-16s-16-25-16-39 5-27 16-38c10-10 23-16 38-16z m478-25c-10 10-25 16-38 16-15 0-28-6-39-16-10-10-16-25-16-38s6-28 16-38c11-11 25-17 39-17 14 0 28 6 38 17s16 25 16 38-6 29-16 38z"/>
</svg>
