<svg xmlns="http://www.w3.org/2000/svg" viewBox="0 0 1000 1000">
  <path transform="translate(0,850) scale(1,-1)" fill="currentColor" d="M191 322c2-12 3-23 6-35 9-30 41-47 71-38l-16 54c-3 16-5 31-5 47 0 65 25 129 74 179 50 50 114 74 179 74 65 0 129-25 179-74 11-10 20-20 27-30 16-25 50-33 75-18l-28 48c-4 6-9 14-15 20l41 41c6-2 11-5 18-5 3 0 6 0 9 0 35 0 65 27 69 62 0 3 0 6 0 9 0 35-26 65-62 69-3 0-6 0-9 0-35 0-64-26-69-62 0-3 0-6 0-9 0-8 2-17 5-25l-41-41c-50 41-109 65-170 71v57c25 11 42 36 42 63 0 40-33 71-71 71-38 0-71-31-71-71 0-27 18-52 42-63v-57c-61-6-121-30-169-71l-40 41c3 9 4 17 4 25 0 18-7 36-20 50-14 14-33 21-50 21-18-1-36-7-49-22-13-13-20-32-20-50 0-18 7-35 20-50 13-13 32-21 50-21 9 0 18 2 25 5l41-41c-41-50-64-109-70-169h-59c-10 25-35 41-63 41-40 3-71-30-71-68 0-38 31-71 71-71 28 0 53 18 63 42l57 1 0 0z m600 334c2 7 8 12 13 12l2 0c7-2 12-8 12-14l0-1c-2-7-8-12-14-12l-1 0h0c-7 2-12 8-12 13l0 2z m-291 138c7 0 13-6 13-13 0-7-6-13-13-13-7 0-13 6-13 13 0 6 6 13 13 13z m-294-150c-3-3-6-4-9-4-3 0-7 1-9 4-3 3-4 6-4 9 0 3 1 7 4 9 3 3 6 4 9 4 3 0 7-1 9-4 3-3 4-6 4-9-1-3-1-6-4-9z m-135-307c-8 0-14 6-14 13 0 7 6 13 14 13 7 0 13-6 13-13 0-7-6-13-13-13z m858 84c-27 0-52-18-63-42h-57c0 2 0 5-2 6-5 31-35 50-66 44l11-55 0 0c0-8 1-15 1-22 0-65-25-130-74-180-50-50-114-73-179-73-65 0-129 25-179 73-6 6-11 10-15 16-18 25-53 33-78 15l31-47c1-2 1-3 3-3l-41-41c-9 3-17 4-25 4-18 0-36-7-50-20-14-14-21-33-21-50 0-18 7-36 21-50 13-14 32-21 50-21 17 0 35 7 50 21 13 13 20 32 20 50 0 8-1 17-4 25l41 41c50-41 109-65 169-71v-57c-25-11-41-36-41-63 0-39 31-71 71-71 38 0 70 31 70 71 0 27-18 52-41 63v57c60 6 121 30 169 71l41-41c-3-9-4-17-4-25 0-18 7-36 20-50h0v0c14-14 33-21 50-21 18 0 36 7 50 21 14 13 21 32 21 50 0 17-7 35-21 50-13 13-32 20-50 20-8 0-17-1-25-4l-41 41c38 49 62 109 68 169h57c11-25 36-41 63-41 39 0 71 31 71 71 0 36-31 69-71 69z m-723-384c-3-3-6-5-9-5-3 0-7 2-9 5-3 3-4 6-4 9 0 3 1 7 4 8 3 3 6 5 9 5 3 0 7-2 9-5 3-2 4-5 4-8-1-3-1-6-4-9z m294-131c-7 0-13 6-13 13 0 7 6 13 13 13 7 0 13-6 13-13 0-6-6-13-13-13z m294 131c-3 3-4 6-4 9 0 3 1 7 4 8 3 3 6 5 9 5 3 0 7-2 9-5 3-2 4-5 4-8 0-3-1-8-4-9-3-3-6-5-9-5-3 0-6 2-9 5l-20-21 20 21 0 0z m135 300c-7 0-13 6-13 13 0 7 6 13 13 13 8 0 14-6 14-13 1-7-6-13-14-13z m-342 53c38 0 70 31 70 70 0 39-30 71-70 71-38 0-71-31-71-71 2-39 33-70 71-70z m0 82c7 0 13-6 13-13 0-7-6-13-13-13-8 0-13 6-13 13 0 7 5 13 13 13z m50-290c38 0 70 31 70 71 0 38-30 71-70 71-38 0-71-31-71-71 2-40 33-71 71-71z m0 84c7 0 13-6 13-13 0-7-6-13-13-13-8 0-13 6-13 13 0 7 5 13 13 13z m-156-47c-6-6-9-13-9-20 0-8 3-15 9-21s13-9 21-9c7 0 14 3 20 9 6 6 9 13 9 21 0 7-3 14-9 20-6 6-13 9-20 9-9 0-17-3-21-9z m-190 75c-6-6-9-13-9-20 0-8 3-15 9-21 6-6 13-9 21-9 7 0 15 3 20 9s9 13 9 21c0 7-3 14-9 20-5 6-13 9-20 9-8 0-15-3-21-9z m425 94c0 8-3 15-9 21-5 6-13 9-20 9-8 0-15-3-21-9-6-6-9-13-9-21 0-7 3-14 9-20 6-6 13-9 21-9 7 0 15 3 20 9s9 13 9 20z m-272 93c6 6 9 13 9 21 0 7-3 14-9 20-6 6-13 9-20 9-8 0-15-3-21-9-6-6-9-13-9-20 0-8 3-15 9-21s13-9 21-9c8 0 16 3 20 9z m-3-37c-51 0-94-41-94-94 0-51 41-94 94-94 52 0 94 41 94 94-1 52-42 94-94 94z m0-131c-20 0-37 16-37 37 0 21 17 37 37 37 21 0 37-16 37-37 0-21-16-37-37-37z"/>
</svg>
