<svg xmlns="http://www.w3.org/2000/svg" viewBox="0 0 1000 1000">
  <path transform="translate(0,850) scale(1,-1)" fill="currentColor" d="M287 149h-130c-16 0-28 13-28 28v525c0 16 14 27 28 27h59v-41c0-14 12-26 27-26s26 12 26 26v41h88v-41c0-14 12-26 27-26s28 12 28 26v41h88v-41c0-14 12-26 27-26s26 12 26 26v41h88v-41c0-14 12-26 27-26s26 12 26 26v41h59c16 0 28-13 28-27v-312h0c1-28 25-50 53-50v362c0 45-37 80-81 80h-59v42c0 14-12 26-26 26s-27-12-27-26v-42h-88v42c0 14-12 26-26 26s-27-12-27-26v-42h-88v42c0 14-12 26-27 26s-26-12-26-26v-42h-88v42c0 14-12 26-27 26s-26-12-26-26v-42h-59c-46 0-81-36-81-80v-524c0-46 37-81 81-81h131v0c28 2 50 25 50 53l-53-1 0 0z m-30 323c-4 5-11 7-19 7s-13-2-19-7-7-12-7-19c0-7 3-13 7-19 5-5 12-7 19-7s14 2 19 7c5 4 8 12 8 19 0 7-3 15-8 19z m0-100c-4 5-11 7-19 7s-13-2-19-7c-4-4-7-12-7-19 0-7 3-13 7-19s12-7 19-7 14 2 19 7 8 12 8 19c0 7-3 15-8 19z m-19-94c-7 0-13-3-19-7-4-5-7-12-7-19 0-8 3-14 7-20s12-7 19-7 14 3 19 7 8 12 8 20c0 7-3 13-8 19-4 6-11 7-19 7z m121 194c-5 5-12 7-19 7s-13-2-19-7-8-12-8-19c0-7 3-13 8-19 4-5 11-7 19-7s13 2 19 7c4 4 7 12 7 19 0 7-3 15-7 19z m-19-93c-8 0-13-2-19-7-5-4-8-12-8-19 0-7 3-13 8-19s11-7 19-7 13 2 19 7 7 12 7 19c0 7-3 13-7 19-5 5-12 7-19 7z m26-127c0 7-3 13-7 19-5 4-12 7-19 7s-13-3-19-7c-5-5-8-12-8-19 0-8 3-14 8-20s11-7 19-7 13 3 19 7 7 14 7 20z m94 220c-4 5-11 7-19 7s-13-2-19-7-7-12-7-19c0-7 3-13 7-19 5-5 12-7 19-7s13 2 19 7c5 4 8 12 8 19 0 7-3 15-8 19z m-19-93c-7 0-13-2-19-7-4-4-7-12-7-19 0-7 3-13 7-19s12-7 19-7 13 2 19 7 8 12 8 19c0 7-3 13-8 19-4 5-11 7-19 7z m-184 193c-4 5-11 7-19 7s-13-2-19-7-7-12-7-19c0-7 3-13 7-19 5-5 12-7 19-7s14 2 19 7c5 4 8 12 8 19 0 7-3 15-8 19z m102 0c-5 5-12 7-19 7s-13-2-19-7-8-12-8-19c0-7 3-13 8-19 4-5 11-7 19-7s13 2 19 7c4 4 7 12 7 19 0 7-3 15-7 19z m101 0c-4 5-11 7-19 7s-13-2-19-7-7-12-7-19c0-7 3-13 7-19 5-5 12-7 19-7s13 2 19 7c5 4 8 12 8 19 0 7-3 15-8 19z m83-93c-8 0-14-2-19-7s-8-12-8-19c0-7 3-13 8-19 4-5 11-7 19-7s13 2 19 7c4 4 7 12 7 19 0 7-3 13-7 19s-12 7-19 7z m19 93c-5 5-12 7-19 7s-14-2-19-7-8-12-8-19c0-7 3-13 8-19 4-5 11-7 19-7s13 2 19 7c4 4 7 12 7 19 0 7-3 15-7 19z m360-368c0 11-6 20-15 24l-173 88v163c0 6-2 11-5 17l-41 57c-4 7-13 10-22 10s-16-4-22-10l-41-57c-3-5-4-11-4-17v-97l-15 11c-6 4-13 6-21 3s-13-6-16-12l-194-321c-3-4-3-9-3-13l0 0-1-174c0-8 4-16 10-20s15-6 23-5l521 155c12 3 19 13 19 25l0 173c0 0 0 0 0 0z m-269 267l15 20 14-20v-200c0-9-7-15-14-15-9 0-15 7-15 15v200z m216-421l-467-138 0 32 467 138 0-32z m0 87l-467-139 0 31 147 45 0 0c26 8 41 38 33 64l-50-14v0l-98-30 144 238 22-14v-49c0-37 31-67 68-67 32 0 60 23 66 54l91-47-172-50c0 0 0 0 0 0l-3 0 0 0c-26-9-41-38-34-65l49 15 204 60 0-32 0 0z"/>
</svg>
