<svg xmlns="http://www.w3.org/2000/svg" viewBox="0 0 1000 1000">
  <path transform="translate(0,850) scale(1,-1)" fill="currentColor" d="M443 569v-219c0-10 4-21 11-28l220-219 57 57-207 206v203l-81 0 0 0z m39 281c-155 0-294-72-385-182v148h-79v-247c0-10 4-20 11-28 8-7 18-12 28-12h249v81h-153c78 96 196 159 329 159 117 0 221-47 297-123 77-77 124-181 124-297 0-117-47-221-124-297-76-77-180-124-297-124-116 0-220 47-297 124l-56-55c90-90 217-147 353-147 277 0 500 224 500 500 0 277-223 500-500 500z"/>
</svg>
