<svg xmlns="http://www.w3.org/2000/svg" viewBox="0 0 1000 1000">
  <path transform="translate(0,850) scale(1,-1)" fill="currentColor" d="M544 13v-72l-4-4h-361l-4 4v530c0 7 6 13 13 13h115v85h-115c-54 0-98-44-98-98v-530c0-50 39-90 89-90h361c50 0 89 40 89 90v118h-85l0-46 0 0z m363 649c0 1-1 1-1 3-2 4-4 7-7 12 0 0 0 0 0 0l-171 161c-1 2-4 3-6 5-3 1-4 3-7 4-6 2-11 3-16 3h-230c-54 0-98-44-98-98v-530c0-50 39-90 89-90h361c50 0 89 40 89 90v422c0 6 0 12-3 18z m-82-60v-381l-4-3h-361l-4 4v530c0 7 6 13 13 13h187v-121c0-12 4-22 13-31 8-7 19-13 31-13l125 2 0 0 0 0z"/>
</svg>
