<svg xmlns="http://www.w3.org/2000/svg" viewBox="0 0 1000 1000">
  <path transform="translate(0,850) scale(1,-1)" fill="currentColor" d="M646 679v124c0 13-5 25-14 34-10 9-22 13-35 13h-569v-96h522v-76c-184-24-328-179-328-371 0-17 7-35 16-47 16-20 37-33 59-44 35-16 78-28 130-35 51-9 108-13 170-13 94 0 180 10 244 28 33 8 61 20 84 35 12 7 22 16 31 29 9 12 16 28 16 47 0 193-143 349-326 372l0 0z m-246-173c52 50 121 82 197 82 78 0 147-31 197-82 27-27 47-57 62-93-27 9-56 16-88 21-52 9-109 13-171 13-94 0-179-10-244-28-6-1-9-3-15-4 15 34 36 66 62 91z m375-227c-48-10-110-14-176-14-87 0-165 10-220 25-22 6-38 13-48 19 18 9 50 20 91 28 49 10 110 15 177 15 86 0 164-11 219-25 22-6 38-14 48-20-17-8-50-19-91-28l0 0z m-73-333c-14 0-25-5-34-14-9-9-14-20-14-34s5-25 14-33c9-9 20-14 34-14s25 5 33 14c9 8 14 20 14 33s-5 25-14 34c-8 8-20 14-33 14z m-100 154c-14 0-25-4-34-13-9-9-14-21-14-34s5-25 14-34c9-9 20-13 34-13s25 4 33 13c9 9 14 21 14 34s-5 25-14 34c-8 9-22 13-33 13z m202 0c-13 0-25-4-33-13-9-9-14-21-14-34s5-25 14-34c8-9 20-13 33-13s25 4 34 13c9 9 14 21 14 34s-5 25-14 34c-9 9-20 13-34 13z m-413 0c-13 0-25-4-34-13-8-9-13-21-13-34s5-25 13-34c9-9 21-13 34-13s25 4 34 13c9 9 13 21 13 34s-4 25-13 34c-9 9-22 13-34 13z m103-154c-13 0-25-5-34-14-8-9-13-20-13-34s5-25 13-33c9-9 21-14 34-14s25 5 34 14c9 8 13 20 13 33s-4 25-13 34c-9 8-21 14-34 14z"/>
</svg>
