<svg xmlns="http://www.w3.org/2000/svg" viewBox="0 0 1000 1000">
  <path transform="translate(0,850) scale(1,-1)" fill="currentColor" d="M75 243v328c0 22 18 41 41 41h571c22 0 41-18 41-41v-99h75v99c0 63-51 114-115 114h-573c-63 0-115-51-115-114v-328c0-64 52-115 115-115h366v75h-366c-22-1-40 16-40 40z m731 136c-6 6-13 9-21 9s-14-3-20-9l-218-219-7-11-28-97c-3-11 0-21 7-28 8-8 18-11 28-8l97 28 12 8 218 217c5 6 8 13 8 21s-3 14-8 20l-68 69 0 0z m172 102c-15 15-35 22-54 22-20 0-40-7-55-22l-35-35c-12-12-12-30 0-42l69-69c6-6 13-8 21-8s14 2 20 8l35 36c15 14 23 35 23 54-2 21-9 41-24 56l0 0z m-779 43h404v-75h-404v75z m0-161h201v-75h-201v75z"/>
</svg>
