<svg xmlns="http://www.w3.org/2000/svg" viewBox="0 0 1000 1000">
  <path transform="translate(0,850) scale(1,-1)" fill="currentColor" d="M365 643c0 9-3 17-11 23-5 6-14 11-23 11h-112c-9 0-17-3-23-11-6-6-11-14-11-23v-112c0-9 3-18 11-24 6-5 14-10 23-10h112c9 0 18 3 23 10 6 6 11 15 11 24v112z m239 34h-111c-9 0-18-3-24-11-6-6-10-14-10-23v-112c0-9 3-18 10-24 6-5 15-10 24-10h111c9 0 18 3 24 10 6 6 10 15 10 24v112c0 9-3 17-10 23-6 8-15 11-24 11z m-275-248h-111c-9 0-18-2-24-10-6-6-10-15-10-23v-112c0-9 3-18 10-24 6-6 15-10 24-10h111c9 0 18 3 24 10 6 6 10 15 10 24v112c0 8-3 17-10 23-4 8-13 10-24 10z m275 0h-111c-9 0-18-2-24-10-6-6-10-15-10-23v-112c0-9 3-18 10-24 6-6 15-10 24-10h111c9 0 18 3 24 10 6 6 10 15 10 24v112c0 8-3 17-10 23-6 8-15 10-24 10z m-102-389c0 50-40 89-90 89-50 0-90-39-90-89v-105h-234l0 784c0 25 21 46 46 46h532c38 0 71-31 71-71v-315h84v317c0 85-69 154-155 154h-532c-72 0-131-59-131-131v-828c0-12 4-22 12-29s19-12 29-12h550v84h-92c0 0 0 106 0 106z m322 72c-96 0-174-78-174-174v-38c0-27 21-47 47-47h252c26 0 47 20 47 47v38c1 97-77 174-172 174z m0 225c55 0 101-46 101-102s-46-101-101-101-102 45-102 101 46 102 102 102z"/>
</svg>
