<svg xmlns="http://www.w3.org/2000/svg" viewBox="0 0 1000 1000">
  <path transform="translate(0,850) scale(1,-1)" fill="currentColor" d="M834 850h-300c-68 0-122-54-122-121v-757c0-66 54-121 120-121h300c67 0 121 55 121 121v757c1 67-53 121-119 121z m35-879c0-21-16-37-37-37h-298c-21 0-37 16-37 37v758c0 21 16 37 37 37h300c20 0 37-16 37-37-2 0-2-758-2-758z m-150 682h-73c-6 0-12-3-17-6s-5-10-5-16v-74c0-5 3-11 5-16s11-6 17-6h73c6 0 12 3 16 6s6 11 6 16v74c0 6-3 12-6 16s-10 6-16 6z m0-188h-73c-6 0-12-3-17-6s-5-10-5-16v-74c0-6 3-12 5-16 5-4 11-6 17-6h73c6 0 12 3 16 6 5 4 6 10 6 16v74c0 6-3 11-6 16s-10 6-16 6z m0-188h-73c-6 0-12-3-17-6s-5-11-5-17v-73c0-6 3-12 5-16s12-6 18-6h74c6 0 11 3 16 6s6 10 6 16v73c0 6-3 12-6 17s-12 6-18 6z m-588-306v500c0 20 16 36 37 36h195v84h-197c-66 0-120-54-120-120v-500c0-67 54-121 120-121h196v84h-196c-19 0-35 17-35 37z m168 435c0 6-3 12-6 16-5 5-11 6-16 6h-74c-6 0-12-3-16-6-5-4-6-10-6-16v-74c0-5 3-11 6-16s10-6 16-6h74c5 0 11 3 16 6s6 11 6 16c0 0 0 74 0 74z m-22-166h-74c-6 0-12-3-16-6s-6-10-6-16v-74c0-6 3-12 6-16s10-6 16-6h74c5 0 11 3 16 6s6 10 6 16v74c0 6-3 11-6 16s-11 6-16 6z"/>
</svg>
