<svg xmlns="http://www.w3.org/2000/svg" viewBox="0 0 1000 1000">
  <path transform="translate(0,850) scale(1,-1)" fill="currentColor" d="M359 304h359v-54h-359v54z m123-144h236v-54h-236v54z m-123 289h359v-55h-359v55z m309 401h-425c-47 0-87-38-87-87v-291c1-28 25-51 54-51v342c0 18 15 33 33 33h386v-150c0-47 39-87 87-87h150v-624c0-17-14-32-32-32h-149c0-30 22-53 52-55h97c47 0 87 39 87 87v662l-253 253z m47-237c-18 0-33 15-33 33v111l145-144h-112z m-140-709h-332c-18 0-33 15-33 33v141c-1 28-25 51-54 51v-192c0-47 38-87 87-87h384c0 29-23 53-52 54z m-243 128l118-53c10-4 22-3 31 6s10 21 6 31l-53 118c-2 3-3 6-6 7l-224 222c-14 15-32 21-51 21-19 0-37-7-51-21-15-14-21-32-21-51 0-19 7-37 21-52l223-223c2-2 4-3 7-5z m-166 240l-26 27c-5 4-6 8-6 13 0 4 1 9 6 13 4 4 9 6 13 6 4 0 9-2 13-6l27-26c0 0-27-27-27-27z m65-12l156-156 22-48-49 22-156 156 27 26z"/>
</svg>
