<svg xmlns="http://www.w3.org/2000/svg" viewBox="0 0 1000 1000">
  <path transform="translate(0,850) scale(1,-1)" fill="currentColor" d="M534 106h-66c-53 0-94-43-94-94v-103c36 0 67 29 69 66v37c0 13 11 25 25 25h66c13 0 25-12 25-25v-66c0-14-12-25-25-25h-37c-37-2-66-33-66-70h103c53 0 94 43 94 95v66c0 51-43 94-94 94z m0 372h-66c-53 0-94-43-94-94v-66c0-53 42-94 94-94h66c53 0 94 42 94 94v66c0 51-43 94-94 94z m25-162c0-13-12-25-25-25h-66c-14 0-25 12-25 25v66c0 14 11 25 25 25h66c13 0 25-11 25-25v-66z m0 409v-37c0-13-12-25-25-25h-66c-14 0-25 12-25 25v68c0 13 11 25 25 25h36c37 1 67 32 67 69h-103c-53 0-94-43-94-94v-68c0-53 42-94 94-94h66c53 0 94 43 94 94v103c-37 0-68-29-69-66z"/>
</svg>
