<svg xmlns="http://www.w3.org/2000/svg" viewBox="0 0 1000 1000">
  <path transform="translate(0,850) scale(1,-1)" fill="currentColor" d="M257 435l111 0c16 0 29 14 29 30l0 100c0 0 0 0 0 0l0 238c0 7-3 16-9 21-6 5-13 8-20 8-133 0-247-69-312-173-2-2-3-3-3-6-34-54-53-119-53-188l0 0v0c0 0 0 0 0 0v0h0c0-8 3-15 9-21 6-6 13-10 20-10l228 1c0 0 0 0 0 0z m81 337l0-135-104 104c31 16 66 27 104 31l0 0z m-188-90c10 11 21 20 31 27l157-156 0-57-67 0-152 150c9 13 19 26 31 36z m-88-188c3 35 12 68 26 99l99-99c0 0-125 0-125 0z m844-513v3c-2 31-28 57-60 57v-113h-61v416h61v-207c1-31 28-58 60-58v295c0 7-3 16-9 20-6 6-13 9-20 9h-52c-4 50-18 97-40 138l94 94v-58c2-31 28-58 61-58v191c0 8-3 17-9 21-6 6-13 9-21 9h-188c0-33 25-58 57-61h59l-85-85c-68 88-174 147-293 147-7 0-16-3-20-9-6-5-9-13-9-20l0-109c1-31 28-57 59-57l0 57h0l0 78c89-9 169-57 220-129l-129-128 43-43 117 118c13-30 22-62 25-95h-9c-7 0-16-2-20-8-6-6-9-14-9-21v-447h-19v326c0 8-3 17-9 21-6 6-13 9-21 9h-119c-7 0-16-3-20-9-6-6-9-13-9-21v-328h-21v209c0 8-3 17-8 21-6 6-14 9-21 9h-119c-8 0-16-3-21-9-6-6-9-13-9-21v-41c-45 22-86 55-117 96-33 44-55 97-61 154h306c17 0 30 13 30 30l0 76c-2 31-28 57-59 57l0-60 0-43h-309c-7 0-16-2-20-8-6-6-9-14-9-21 0-82 28-159 73-219 41-56 99-99 165-124v-103h-69v-60h497c0 0 0 0 0 0h119c0 0 0 0 0 0h99v60h-70l-1 52 0 0z m-457-55h-61v180h61v-180z m198 0h-59v299h59v-299z m328 345c6 0 13 3 18 7s7 10 7 18c0 6-3 13-7 17-5 5-11 8-18 8s-13-3-18-8c-4-4-7-10-7-17 0-6 3-14 7-18s12-7 18-7z m0-71c-6 0-13-3-18-7s-7-11-7-18 3-13 7-18c5-4 11-7 18-7s13 3 18 7c4 5 7 11 7 18s-3 13-7 18-11 7-18 7z m0-119c-6 0-13-3-18-7-4-5-7-11-7-18 0-6 3-13 7-18s11-7 18-7 13 3 18 7 7 12 7 18c0 6-3 13-7 18-5 4-11 7-18 7z"/>
</svg>
