<svg xmlns="http://www.w3.org/2000/svg" viewBox="0 0 1000 1000">
  <path transform="translate(0,850) scale(1,-1)" fill="currentColor" d="M906 556c-2 4-3 10-6 15 0 0 0 0 0 0-1 1-3 4-4 6l-264 261c-1 2-4 3-5 5 0 0 0 0 0 0-5 3-9 4-15 6-2 1-5 1-6 1h-474c-10 0-20-4-28-12-7-7-11-17-11-28v-151c0-22 17-40 39-40s40 18 40 40v113h394v-223c0-11 5-21 12-28 7-8 18-12 28-12h223v-581h-657v553c0 22-18 40-40 40s-39-18-39-40v-591c0-11 4-21 11-28 8-8 18-12 28-12h736c10 0 20 4 28 12 7 7 11 17 11 28v659c0 3 0 4-1 7l0 0z m-262 32v128l128-128h-128z m-281-388l53 32 52-89c7-14 22-21 38-19 15 1 28 11 34 26l37 106 39-91c6-15 21-24 37-24h85v77h-59l-69 160c-6 15-20 25-36 24-17 0-31-11-36-27l-42-121-30 50c-6 9-14 17-23 20-11 3-21 1-30-5l-54-32-60 100-68-41 81-133c9-17 32-25 51-13z"/>
</svg>
