<svg xmlns="http://www.w3.org/2000/svg" viewBox="0 0 1000 1000">
  <path transform="translate(0,850) scale(1,-1)" fill="currentColor" d="M519 546v157c0 22-17 40-40 40h-235c-20 0-38-18-38-40v-157c0-22 18-40 40-40h235c21 1 38 19 38 40z m-59 20h-195v118h195v-118z m512-92c-6 5-13 8-20 8h-11v89h-59v-89h-14v89h-59v-89h-9c-7 0-15-3-21-8s-8-14-8-21v-49c0-47 31-85 72-98v-46c0-26-22-48-49-48-26 0-48 22-48 48v283c0 57-47 104-105 104h-13v91c0 62-50 112-112 112h-306c-61 0-111-50-111-112l0-313c1-31 26-56 58-56v369c0 30 24 53 53 53h306c30 0 53-23 53-53v-664h-412l0 200c-1 30-26 55-58 55v-255h-50c-8 0-15-3-21-9-6-6-9-13-9-21v-165c0-7 3-14 9-20s13-9 21-9h438c0 31-25 57-56 59l-353 0v106h566v-106h-125c0-31 27-58 58-59l97 0c7 0 14 3 20 9 6 6 9 13 9 20v165c0 8-3 15-9 21-6 6-13 9-20 9h-46v516h13c25 0 46-21 46-46v-284c0-60 48-107 107-107 60 0 108 49 108 107v44c45 12 77 53 77 102v47c2 7-1 15-7 21l0 0z m-50-70c0-25-20-45-45-45-25 0-46 20-46 45v20h91l0-20 0 0z m-553-257l99 165h-90l60 100h-69l-97-159h90l-63-106h70z"/>
</svg>
