<svg xmlns="http://www.w3.org/2000/svg" viewBox="0 0 1000 1000">
  <path transform="translate(0,850) scale(1,-1)" fill="currentColor" d="M625 725h-209c-59 0-113 40-126 94-6 22-28 35-52 30-22-6-35-28-29-52 20-78 87-137 165-151v-380c0-91-150-132-155-138-79-29-137-106-137-196v-41c0-23 20-41 42-41 23 0 41 19 41 41v41c0 55 35 100 84 118 7-4 14-9 20-13 84-53 163-103 353-105h2c76 0 148 30 203 84 55 56 86 130 86 208v210c3 160-128 291-288 291l0 0z m209-500c0-56-22-109-62-148-40-39-91-61-145-61h-2c-148 2-215 33-285 77 54 31 117 85 117 173v18c27-9 61-18 100-18 50 0 83 13 111 24 25 10 47 17 81 17 41 0 69-11 83-20l2-62 0 0z m0 153c-22 7-50 13-84 13-50 0-82-13-110-23-25-11-47-18-81-18-44 0-80 13-100 24v267h166c115 0 209-94 209-209v-54l0 0z"/>
</svg>
