<svg xmlns="http://www.w3.org/2000/svg" viewBox="0 0 1000 1000">
  <path transform="translate(0,850) scale(1,-1)" fill="currentColor" d="M729-16c-66-41-144-66-229-66-119 0-228 48-306 126-78 78-126 187-126 306 0 84 25 163 66 229 22 31 16 73-15 95l-40-53c-50-78-79-171-79-271 0-276 224-500 500-500 100 0 193 29 271 79 29 22 35 65 13 95 0 0-55-40-55-40z m-229 866c-103 0-198-31-278-85-28-24-34-65-12-94l55 41c67 44 148 70 237 70 119 0 227-48 305-126 78-78 127-187 127-306 0-87-27-168-71-237-22-29-17-72 14-95l41 53c51 81 82 176 82 279 0 277-223 500-500 500z m-41-216h68v-427h-68v427z m-16-568c0-13 6-26 14-35 9-9 22-15 36-15s26 6 35 15c9 9 15 22 15 35 0 13-6 27-15 36s-22 14-35 14-27-6-36-14-14-23-14-36z"/>
</svg>
