<svg xmlns="http://www.w3.org/2000/svg" viewBox="0 0 1000 1000">
  <path transform="translate(0,850) scale(1,-1)" fill="currentColor" d="M793 850h-647c0-41 32-75 73-76l124 0h450c72 0 129-59 131-131v-586c0-72-59-129-131-131h-133l0 202h92c10 0 20 4 26 12 7 7 12 17 12 26v133c0 10-5 20-12 26-7 7-18 12-26 12h-92v51l168 0c10 0 21 5 26 12 8 7 12 18 12 27v144c0 10-4 20-12 26-7 7-17 12-26 12h-296c-64 0-117-53-117-118v-156l-58 0c-20 0-38-17-38-38v-132c0-11 5-21 12-28 7-8 18-12 28-12l57 0v-200h-209c-72 0-129 59-130 131v538l0 38c-2 42-36 74-77 74v-649c0-114 93-207 207-207h246c10 0 21 4 26 12 8 7 12 17 12 26v278c0 11-4 21-12 28-7 8-17 12-27 12l-58 0 0 56 58 0c20 0 38 17 38 38v191c0 24 19 41 41 41h257v-67h-166c-10 0-20-5-26-12-8-7-12-18-12-26v-128c0-11 4-21 12-27 7-7 17-12 26-12h91v-56h-91c-10 0-20-4-26-11-8-8-12-18-12-27v-278c0-10 4-20 12-26 7-8 17-12 26-12h171c114 0 207 93 207 207v586c0 114-93 207-207 207l0 0z"/>
</svg>
