<svg xmlns="http://www.w3.org/2000/svg" viewBox="0 0 1000 1000">
  <path transform="translate(0,850) scale(1,-1)" fill="currentColor" d="M982 835c-8 9-22 15-33 15h-289v-97h169l-152-153c-71 54-159 87-255 87-231 0-418-187-418-418 0-232 187-419 418-419 231 0 419 187 419 419 0 100-35 191-94 263l152 152v-169h97v287c0 13-5 25-14 33z m-333-794c-59-59-139-94-227-94-88 0-169 35-226 94-59 59-94 138-94 227 0 88 35 169 94 226 58 59 138 94 226 94 88 0 169-35 227-94 58-59 94-138 94-226 0-89-36-168-94-227z"/>
</svg>
