<svg xmlns="http://www.w3.org/2000/svg" viewBox="0 0 1000 1000">
  <path transform="translate(0,850) scale(1,-1)" fill="currentColor" d="M500 850c-276 0-500-223-500-500s224-500 500-500 500 224 500 500-223 500-500 500z m-310-548c-24 0-44 19-44 44 0 23 19 44 44 44s44-19 44-44c0-25-21-44-44-44z m148-159c-28 0-51 23-51 51s23 52 51 52c28 0 52-24 52-52s-22-51-52-51z m0 150c-28 0-51 23-51 51 0 28 23 52 51 52 28 0 52-24 52-52 0-28-22-51-52-51z m0 150c-28 0-51 23-51 51s23 52 51 52c28 0 52-24 52-52s-22-51-52-51z m149-465c-33 0-59 26-59 59s26 59 59 59c32 0 59-27 59-59s-27-59-59-59z m0 154c-33 0-59 27-59 59s26 59 59 59c32 0 59-26 59-59s-27-59-59-59z m0 155c-33 0-59 26-59 59s26 58 59 58c32 0 59-26 59-58s-27-59-59-59z m0 148c-33 0-59 27-59 59s26 59 59 59c32 0 59-26 59-59s-27-59-59-59z m0 153c-33 0-59 27-59 59 0 32 26 59 59 59 32 0 59-27 59-59 0-32-27-59-59-59z m147-460c-35 0-63 28-63 63s28 63 63 63 63-27 63-63-28-63-63-63z m0 153c-35 0-63 28-63 63s28 63 63 63 63-28 63-63-28-63-63-63z m0 150c-35 0-63 28-63 63s28 63 63 63 63-28 63-63-28-63-63-63z m156-157c-40 0-71 32-71 70s33 71 71 71 70-33 70-71-31-70-70-70z"/>
</svg>
