<svg xmlns="http://www.w3.org/2000/svg" viewBox="0 0 1000 1000">
  <path transform="translate(0,850) scale(1,-1)" fill="currentColor" d="M897 332c0-114-94-208-209-208h-351v85c0 19-10 37-28 45-18 9-38 8-55-4l-185-137c-13-10-20-25-20-41s7-32 20-41l185-137c17-12 37-13 55-4 18 8 28 26 28 45v86h351c172 0 312 139 312 311 0 0-103 0-103 0z m-585 245h353v-86c0-19 10-37 28-45 17-9 38-8 54 4l185 137c14 10 21 25 21 41s-7 32-21 41l-185 138c-16 12-37 14-54 5-18-9-28-27-28-46v-85h-353c-172-2-312-141-312-313h103c0 116 94 209 209 209z"/>
</svg>
