<svg xmlns="http://www.w3.org/2000/svg" viewBox="0 0 1000 1000">
  <path transform="translate(0,850) scale(1,-1)" fill="currentColor" d="M881 212h-79c-17 0-31-9-39-24l-53-113h-382l-53 113c-7 15-22 24-38 24h-118c-65 0-116-52-116-116v-130c0-65 51-116 116-116h763c65 0 117 51 117 116v130c-2 63-53 116-118 116z m32-246c0-18-14-32-32-32h-762c-17 0-32 14-32 32v130c0 17 15 32 32 32h91l53-113c8-15 22-24 39-24h436c16 0 31 9 39 24l52 113h53c18 0 33-15 33-32-2 0-2-130-2-130z m-413 218c12 0 22 4 29 12l255 254-59 59-182-181v522h-84v-522l-184 184-59-59 255-256c7-7 17-13 29-13l0 0z"/>
</svg>
