<svg xmlns="http://www.w3.org/2000/svg" viewBox="0 0 1000 1000">
  <path transform="translate(0,850) scale(1,-1)" fill="currentColor" d="M887 602h-269l-77 86c-22 25-53 39-85 39h-343c-61 0-113-52-113-114v-525c0-63 52-113 113-113h0l0 0 772 4c64 0 114 52 114 114v394c1 63-50 115-112 115z m20-511c0-12-8-20-20-20l-774-5 0 0h0c-11 0-20 9-20 21v526c0 12 9 21 20 21h343l16-7 88-102v-240c0-14 9-28 24-33 13-6 29-2 40 8l48 55 49-53c10-10 25-15 39-9 14 6 24 19 24 34v222h103c12 0 20-9 20-21l0-397 0 0z"/>
</svg>
