<svg xmlns="http://www.w3.org/2000/svg" viewBox="0 0 1000 1000">
  <path transform="translate(0,850) scale(1,-1)" fill="currentColor" d="M832 850h-405l-243-241 0-388c1-30 25-53 56-53v401h141c47 0 84 38 84 84v141h366c16 0 28-13 28-28l0-256c1-29 25-53 56-53h0v309c1 46-37 84-83 84z m-422-197c0-16-13-28-28-28h-103l131 131v-103z m450-253v-422c0-16-13-28-28-28l-164 0c-30-2-53-25-53-56h217c47 0 84 38 84 84l0 369c-1 28-26 53-56 53l0 0z m-208 316v-60h-61v-56h61v-60h54v60h60v56h-60v60h-54z m-334-253h329v-54h-329v54z m394 0h63v-54h-63v54z m-394-129h329v-56h-329v56z m394 0h63v-56h-63v56z m-146-130h209v-55h-209v55z m-84-105c-16 0-32-5-47-11 0 3 2 6 2 9 0 27-10 53-31 74-2 1-3 3-4 3-20 17-45 26-70 26-26 0-53-10-73-31l-143-142c-20-21-31-48-31-74 0-27 11-53 31-74 0 0 2-1 3-3 19-17 44-26 69-26 27 0 53 10 74 31l107 107c0-1 0-1 0-3 0-29 12-57 34-79 22-22 51-34 79-34 30 0 58 12 80 34 22 22 34 51 34 79 0 30-12 58-34 80-22 23-50 34-80 34l0 0z m-258-180c-11-10-22-15-34-15-13 0-25 5-34 15-10 10-15 22-15 34 0 13 5 25 15 34l48 48 70-69c-2 3-50-47-50-47z m142 144l-56-56-69 70 56 55c10 11 22 15 34 15 13 0 25-4 34-15 0 0 0 0 0 0 10-10 14-22 14-33 2-14-4-27-13-36l0 0z m59-78c0 15 6 30 18 42 11 11 26 17 41 17 6 0 10-1 16-3l-73-72c-2 6-2 10-2 16z m99-41c-12-12-27-18-42-18-5 0-10 2-16 3l72 73c2-6 3-11 3-17-1-14-6-29-17-41z"/>
</svg>
