<svg xmlns="http://www.w3.org/2000/svg" viewBox="0 0 1000 1000">
  <path transform="translate(0,850) scale(1,-1)" fill="currentColor" d="M672 154h-188v58h72c50 0 91 41 91 91v75h53c10 0 21 6 25 15 4 9 4 20-1 29l-78 116c1 14 3 27 3 41 0 149-121 271-271 271-16 0-32-1-49-4-108-19-197-105-219-214-3-19-6-36-6-54 0-71 28-135 73-184v-113c30 0 54 23 55 53l0 70c0 8-3 15-8 21-40 38-64 93-64 152 0 14 2 29 5 44 17 86 88 154 173 169 14 3 27 3 39 3 60 0 113-24 152-64 40-39 64-92 64-152 0-15-2-28-5-42-1-7 0-14 5-20l54-81h-20l-17 16c-19 19-44 29-70 29h-83c-85 0-154-69-154-154v-475h56v475c0 27 10 52 28 69 17 18 42 28 69 28h82c12 0 22-4 31-12l19-19v-88c0-19-14-34-34-34h-98c-7 0-15-3-21-9-6-6-8-13-8-20v-113c0-8 2-15 8-21 6-6 14-9 21-9h216c43 0 80-18 107-44 28-28 45-65 45-107v-96c30 0 54 23 55 53l0 43c2 116-92 208-207 208l0 0z m-438 109c-31 0-55-23-56-53l0-54h-124c0-31 24-54 53-56l97 0c8 0 15 3 21 9 6 6 9 13 9 20v84h0l0 50 0 0z m609 122c7 0 14 3 20 9 6 6 9 13 9 21 0 7-3 14-9 20s-13 9-20 9c-8 0-15-3-21-9-6-6-9-13-9-20 0-8 3-15 9-21 6-6 13-9 21-9z m75 75c7 0 14 3 20 9 6 6 9 13 9 21 0 7-3 14-9 20s-13 9-20 9c-8 0-15-3-21-9-6-6-9-13-9-20 0-8 3-15 9-21 6-6 13-9 21-9z m-75-225c7 0 14 3 20 9 6 6 9 13 9 21 0 7-3 14-9 20s-13 6-20 6c-8 0-15-3-21-9-6-5-9-13-9-20 0-8 3-15 9-21 6-3 13-6 21-6z m75-19c-8 0-15-3-21-9-6-5-9-13-9-20 0-8 3-15 9-21 6-6 13-9 21-9 7 0 14 3 20 9 6 6 9 13 9 21 0 7-3 15-9 20s-13 9-20 9z m0 150c-8 0-15-3-21-9-6-5-9-13-9-20 0-8 3-15 9-21 6-6 13-9 21-9 7 0 14 3 20 9s9 13 9 21c0 7-3 15-9 20-6 6-13 9-20 9z"/>
</svg>
