<svg xmlns="http://www.w3.org/2000/svg" viewBox="0 0 1000 1000">
  <path transform="translate(0,850) scale(1,-1)" fill="currentColor" d="M991 318l-138 138-59 59v175c0 7-3 16-9 22-6 6-13 9-22 9h-120c-8 0-16-3-22-9-5-5-8-9-8-15l-91 91c-6 6-13 9-22 9-7 0-16-3-22-9l-159-160c-12-12-12-31 0-43 12-11 31-11 43 0l138 139 121-121c8-9 22-12 33-6 12 5 20 16 20 28v34h60v-156c0-7 3-16 9-22l60-60v-458h-68v194c0 8-3 17-8 22-6 6-14 9-23 9h-161c-8 0-16-3-22-9s-9-13-9-22v-192h-313v457l82 82c12 12 12 31 0 43-12 12-31 12-43 0l-91-91c0 0 0 0 0 0l-138-138c0 0 0 0 0 0-3-3-5-6-6-11 0 0 0 0 0 0-1-3-3-7-3-10v0c0 0 0 0 0 0 0-4 2-7 2-10 0 0 0 0 0 0 1-5 4-8 5-10 3-3 6-5 11-6 0 0 0 0 0 0 3-2 7-2 10-2 0 0 0 0 0 0 4 0 7 2 10 2 0 0 0 0 0 0 5 1 8 4 11 6 0 0 0 0 0 0l85 85v-427c0-7 3-16 9-22 6-6 13-9 22-9h663c7 0 16 3 22 9s9 13 9 22v427l85-85c12-12 31-12 43 0 16 10 16 29 4 41l0 0z m-319-353h-101l0 162h101c0 0 0-162 0-162z m-409 273v-120c0-8 3-16 9-22 6-6 13-9 22-9h121c7 0 16 3 22 9 6 6 9 13 9 22v120c0 8-3 16-9 22-6 6-13 9-22 9h-121c-7 0-16-3-22-9-6-7-9-14-9-22z m61-31h60v-60h-60v60z"/>
</svg>
