<svg xmlns="http://www.w3.org/2000/svg" viewBox="0 0 1000 1000">
  <path transform="translate(0,850) scale(1,-1)" fill="currentColor" d="M866 377v145h37c7 0 16 3 21 9s8 13 8 21v101c0 7-3 16-8 21s-14 8-21 8h-44v0c-31-1-56-28-56-58h71v-42h-209v42l41 0c31 1 56 28 56 58h-97v139c0 7-3 16-9 20s-13 9-22 9h-268c-7 0-16-3-20-9-6-6-11-13-11-20v-139h-238c-7 0-16-3-20-8-6-6-9-14-9-21v-101c0-8 3-17 9-21 5-6 13-9 20-9h37v-145c-77-15-134-81-134-162v-336c0-7 3-16 9-20 6-6 13-9 20-9h942c7 0 16 3 20 9s9 13 9 20v337c0 80-57 147-134 161l0 0z m-470 414h208v-209h-208v209z m-269-210v41h208v-41c0 0-208 0-208 0z m545-672h-344v41h344v-41z m-243 101v175h143v-175h-143z m377-101h-75v70c0 8-3 17-9 21-6 6-13 9-20 9h-71v206c0 7-3 16-9 20-6 6-13 9-20 9h-203c-8 0-17-3-21-9-6-6-9-13-9-20v-206h-70c-8 0-17-3-21-9-6-6-9-13-9-21v-70h-75l0 132v56c-32 0-57-25-59-56l0-132h-76v307c0 30 12 55 31 74 12 12 28 20 44 26v-178c32 0 57 25 59 56l0 328h611l2-613 0 0z m135 0h-75v407c16-4 33-13 44-26 19-19 31-46 31-74 0 0 0-307 0-307z m-407 437h68v-59h-68v59z m134 0h67v-59h-67v59z m-269 0h67v-59h-67v59z m-134 0h67v-59h-67v59z m269 101h68v-59h-68v59z m134 0h67v-59h-67v59z m-269 0h67v-59h-67v59z m-134 0h67v-59h-67v59z m264 332h-58v-55h-56v-59h56v-56h58v56h56v59h-56v55z"/>
</svg>
