<svg xmlns="http://www.w3.org/2000/svg" viewBox="0 0 1000 1000">
  <path transform="translate(0,850) scale(1,-1)" fill="currentColor" d="M175 171h218c22 0 41 17 41 41v1c0 83-68 150-150 150s-150-66-150-148v-2c0-23 18-42 41-42z m109 360c43 0 76-34 76-77s-35-75-76-75-77 34-77 77 34 75 77 75z m210-94h344v-84h-344v84z m0-135h284v-84h-284v84z m494 395c-7 7-19 12-29 12h-918c-10 0-22-5-29-12s-12-19-12-29v-634c0-10 4-22 12-30s19-11 29-11h916c11 0 22 4 30 11s12 20 12 30v634c1 10-3 20-11 29z m-72-622h-832v550h832l0-550 0 0z"/>
</svg>
