<svg xmlns="http://www.w3.org/2000/svg" viewBox="0 0 1000 1000">
  <path transform="translate(0,850) scale(1,-1)" fill="currentColor" d="M249 409c-8 0-15-3-21-9s-9-13-9-21c0-7 3-14 9-20 6-6 13-9 21-9s14 3 20 9c6 6 9 13 9 20 0 8-3 15-9 21-4 6-12 9-20 9z m557 0h-79c-17 0-30-13-30-30s13-29 30-29h79c16 0 29 13 29 29s-13 30-29 30z m51 125h-78v143l-173 173h-147c-31-1-56-28-56-59h162v-88c0-38 31-69 69-69h88v-100h-444v247c0 6 4 10 10 10h21c31 2 56 28 56 59h-77c-38 0-69-31-69-69v-247h-76c-50 0-90-40-90-90v-337c0-50 40-89 90-89h78v-99c0-38 31-69 69-69h214c31 1 56 28 56 59h-272c-6 0-10 4-10 10v266h443v-266c0-6-5-10-11-10h-58c-31-2-56-28-56-59h114c39 0 69 31 69 69v99h78c50 0 90 39 90 89v337c2 50-40 90-90 90l0 0z m-223 159c-6 0-10 4-10 10v47l55-56c0-1-45-1-45-1z m256-586c0-17-13-30-31-30h-78v108h59v59h-675v-59h54v-108h-76c-18 0-31 13-31 30v337c0 18 13 31 31 31h716c18 0 31-13 31-31 0 0 0-337 0-337z m-509 22h238v-58h-238v58z m0-95h238v-59h-238v59z"/>
</svg>
