<svg xmlns="http://www.w3.org/2000/svg" viewBox="0 0 1000 1000">
  <path transform="translate(0,850) scale(1,-1)" fill="currentColor" d="M135 118c-42 67-67 147-67 232 0 119 48 228 126 306 78 78 187 126 306 126 87 0 166-25 234-69l0 0c29-19 70-11 91 16l-54 40c-78 52-171 81-271 81-276 0-500-223-500-500 0-100 29-193 79-271 23-30 65-36 95-14 1 0-39 53-39 53z m780 510c-22 29-65 35-96 13l40-51c45-69 72-152 72-240 0-119-49-228-127-306-77-78-186-126-305-126-90 0-172 26-242 73l0 0c-29 19-69 13-91-16l53-40c83-54 178-85 281-85 277 0 500 224 500 500 0 103-31 199-85 278z m-456-137h68v-426h-68v426z m85 143c0 13-6 26-15 35-8 9-22 15-35 15s-26-6-35-15c-9-9-15-22-15-35 0-13 6-27 15-35s22-15 35-15 27 6 35 15 15 22 15 35z"/>
</svg>
