<svg xmlns="http://www.w3.org/2000/svg" viewBox="0 0 1000 1000">
  <path transform="translate(0,850) scale(1,-1)" fill="currentColor" d="M853 703l-66-66c79-80 119-184 119-288 0-105-40-209-119-289l66-63c97 97 147 227 147 353 0 128-48 256-147 353l0 0z m-641-65l-65 65c-98-97-147-225-147-353 0-128 49-256 147-353l66 66c-81 78-120 183-120 287 0 104 39 209 119 288l0 0z m498-78l-66-66c40-40 60-92 60-145 0-53-20-105-60-146l66-66c59 59 87 135 87 210 2 80-28 156-87 213l0 0z m-420 0c-59-58-87-135-87-210 0-76 29-153 87-210l66 66c-41 40-62 91-62 144 0 53 21 104 60 146l-64 64 0 0z m210-163c-12 0-23-4-32-13-9-9-14-21-14-32s5-24 14-33c9-9 20-13 32-13s24 4 32 13 14 21 14 33-5 23-14 32-20 13-32 13z"/>
</svg>
