<svg xmlns="http://www.w3.org/2000/svg" viewBox="0 0 1000 1000">
  <path transform="translate(0,850) scale(1,-1)" fill="currentColor" d="M793 850h-655c0-41 33-75 74-76l131 0h450c72 0 129-59 131-131v-586c0-72-59-129-131-131h-586c-72 0-129 59-130 131l0 577c-2 41-36 73-77 73v-650c0-114 93-207 207-207h586c114 0 207 93 207 207v586c0 114-93 207-207 207z m-293-293c-115 0-207-92-207-207 0-115 92-207 207-207 115 0 207 92 207 207 0 115-92 207-207 207z m0-338c-72 0-131 59-131 131 0 72 59 131 131 131 72 0 131-59 131-131 0-72-59-131-131-131z m263 337c15 0 30 6 41 16 11 10 17 25 17 41 0 15-6 30-17 41s-25 17-41 17-29-6-41-17-16-25-16-41c0-14 6-29 16-41 12-10 27-16 41-16z"/>
</svg>
