<svg xmlns="http://www.w3.org/2000/svg" viewBox="0 0 1000 1000">
  <path transform="translate(0,850) scale(1,-1)" fill="currentColor" d="M659 546c-10 19-27 39-50 56-22 14-52 25-87 26l0 0c-1 0-7 1-18 1-22 0-60-2-98-27-19-12-37-30-50-55-13-25-21-54-22-91l66-3c2 28 7 47 15 62 12 20 26 32 44 38 18 7 35 9 45 9 3 0 6 0 8 0l1 0 0 0 2 0 1 0c27-2 43-8 56-16 19-12 30-31 35-50 6-18 6-36 6-40l0-2 0 0v0c0-23-9-42-23-60-15-16-38-29-68-37l0 0c-18-4-32-11-44-22-18-16-26-35-31-53-4-17-4-33-4-47 0-4 0-7 0-11 0-5 0-8 0-9l0-2v-17h66v16h0c0 4 0 7 0 12 0 4 0 7 0 11 0 15 1 31 6 40 1 4 4 7 7 10 3 3 7 6 16 8l25 7c30 10 55 27 75 49 25 28 41 63 41 104l0 0 0 1c0 0 0 0 0 0h0l0 2c2 13 0 50-20 90l0 0z m-525-427c-43 66-68 146-68 231 0 119 49 228 127 306 79 79 188 128 307 128 87 0 168-25 235-69l0 0c30-19 68-12 90 16l-53 38 0 0c0 0 0 0 0 0l0 0 0 0c-79 52-172 81-272 81-276 0-500-223-500-500 0-100 29-194 81-272 22-29 62-32 91-12 0 2-38 53-38 53z m781 510l0 0 0 0c0 0 0 0 0 0 0 0 0 0 0 0l0 0c-24 30-65 36-94 14l38-50c47-69 73-152 73-241 0-120-48-228-126-306-78-78-187-127-306-127-90 0-173 28-243 74l0 0c-29 17-66 11-88-17l50-39c80-55 177-86 280-86 276 0 500 224 500 501 1 101-30 198-84 277l0 0z m-440-467c-13 0-26-6-35-15s-15-22-15-35c0-13 6-27 15-35 9-9 22-15 35-15s27 6 35 15c9 8 15 22 15 35 0 13-6 26-15 35s-22 15-35 15z"/>
</svg>
