<svg xmlns="http://www.w3.org/2000/svg" viewBox="0 0 1000 1000">
  <path transform="translate(0,850) scale(1,-1)" fill="currentColor" d="M831-100l0 0 0 0 0 0z m22 215l0 0-29 44c0 0 0 0 0 0l-170 259v56c0 19-16 35-35 35s-35-16-35-35v-67c0-7 1-13 6-19l139-213h-458l139 213c5 6 6 12 6 19v320c0 7-3 14-7 20l-25 32h229l-23-32c-5-6-8-13-8-20v-77c0-19 17-35 36-35s35 16 35 35v65l59 79c7 10 9 25 3 37-5 12-16 19-30 19h-370c-13 0-25-7-31-19-6-12-5-27 3-37l59-79v-296l-169-259 0 0-30-44 0 0c-18-28-28-60-28-94 0-94 77-172 171-172h420c47 0 90 19 121 50 31 31 50 73 50 121 0 33-9 66-28 94l0 0z"/>
</svg>
