<svg xmlns="http://www.w3.org/2000/svg" viewBox="0 0 1000 1000">
  <path transform="translate(0,850) scale(1,-1)" fill="currentColor" d="M293 325l-55-188c-4-13 0-30 11-40 10-10 25-15 39-10l189 54 17 11 328 330 115 115c26 27 40 60 40 96 0 34-14 69-40 95-27 27-60 40-96 40-34 0-69-13-95-40l-114-116-329-329-10-18 0 0z m510 406c12 10 25 16 40 16 14 0 28-6 38-16 10-10 16-25 16-38 0-15-6-28-16-39l-87-88-78 78c0 0 87 87 87 87z m-437-438l294 294 39-38 38-39-294-294-109-31c0-1 32 108 32 108z m531 113v-344c0-60-48-109-109-109h-576c-60 0-109 49-109 109v576c0 61 49 109 109 109h344v103h-344c-116 0-212-96-212-212v-576c0-116 96-212 212-212h576c118 0 212 96 212 212v344l-103 0 0 0z"/>
</svg>
