<svg xmlns="http://www.w3.org/2000/svg" viewBox="0 0 1000 1000">
  <path transform="translate(0,850) scale(1,-1)" fill="currentColor" d="M825 522c-29 0-57-12-78-29-20 17-48 29-78 29-6 0-10-1-16-1l34 181 0 0c1 8 3 16 3 25 0 52-36 100-88 114l-14 3c-10 3-19 3-29 3-53 0-100-35-113-87l0-3-25-129-39 134c-13 53-61 88-113 88-9 0-16-1-25-3-56-12-94-60-94-115 0-8 2-19 3-28l79-326-89-51c-55-31-87-90-87-150 0-30 7-61 25-89l93-156c26-45 76-73 129-75l412-6 3 0c125 0 226 102 226 227v325c0 66-54 119-119 119l0 0z m-194-119c0 21 16 37 37 37 20 0 36-16 36-37v-94c0-21-16-37-36-37-21 0-37 16-37 37v94z m231-326c0-80-65-145-144-145l-3 0-412 6c-25 0-47 13-60 35l-91 156c-9 15-14 31-14 48 0 32 16 63 46 79l115 66c7 5 16 7 25 7 17 0 33-8 44-25 4-8 7-16 7-25 0-17-9-35-25-44l-107-61 39-72 108 60c42 25 67 69 67 116 0 24-5 46-19 68-25 41-69 64-114 64-5 0-9-1-15-1l-75 315-2 8c0 17 12 31 28 36l8 1c16 0 31-10 35-26l81-311c4-19 22-30 41-30 19 0 35 14 38 33l59 306c5 16 19 27 34 27l9-2 13-3c16-4 26-19 26-35l2-10 0-2-54-289 0 0c-2-8-3-15-3-24v-94c0-66 53-119 119-119 29 0 57 12 78 29 20-17 48-29 78-29 13 0 25 3 36 6l2-119 0 0z m0 279v-47c0-21-16-37-37-37-21 0-37 16-37 37v94c0 21 16 37 37 37 21 0 37-16 37-37v-47z"/>
</svg>
