<svg xmlns="http://www.w3.org/2000/svg" viewBox="0 0 1000 1000">
  <path transform="translate(0,850) scale(1,-1)" fill="currentColor" d="M997 588c0 59-47 108-106 108l0 0-1 0c-59 0-108-47-108-106l-1-149c-10 3-21 6-32 6-28 0-56-10-78-29l-3-3-168-186-169 186-3 3c-22 19-50 29-78 29-10 0-21-3-32-6l-2 149c0 59-48 106-107 106l-2 0 0 0c-58-2-105-49-105-108l0-1 0 0 2-431c0-35 17-69 43-93l247-213 56 65-246 214c-8 8-13 18-13 28l-3 431v0c0 12 9 22 21 22h0l0 0c12 0 22-8 22-20l3-247 1 0c0-5-1-8-1-12 0-27 9-54 29-77l0 0 103-114 63 57-102 113c-5 6-8 14-8 21 0 9 3 18 10 23 6 5 14 8 21 8 7 0 13-3 19-8l187-204v-169h85v168l187 204c6 4 12 7 19 7 7 0 15-3 21-7 7-6 10-15 10-24 0-7-3-14-7-20l-103-113 63-58 103 115 0 0c19 22 29 50 29 76 0 5-1 8-1 12l1 0 3 247c0 12 11 21 22 21l0 0h0c12 0 21-10 21-22v0l0-428c0-10-5-21-13-28l-246-216 56-65 247 215c26 23 43 57 43 92l1 431 0 0 0 0 0 0z m-497-76c0 0 188 131 188 237 0 55-42 101-94 101-51 0-94-37-94-93 0 56-43 93-94 93-52 0-94-46-94-101 0-106 188-237 188-237z"/>
</svg>
