<svg xmlns="http://www.w3.org/2000/svg" viewBox="0 0 1000 1000">
  <path transform="translate(0,850) scale(1,-1)" fill="currentColor" d="M982 362c-14 23-33 40-50 48 2 8 3 14 3 21 0 25-8 48-20 65-13 17-30 31-43 38 3 10 6 20 6 29 0 22-7 41-16 58-12 19-28 31-41 39 0 2 1 3 1 5 0 19-4 37-13 51-12 22-28 34-41 41-14 8-24 11-25 12l-9 2c0 0-63 4-121 4-29 0-54 0-75-6-20-4-36-13-57-25-60-34-140-88-141-88l51-74c0 0 9 6 22 15 21 13 53 34 83 53 14 9 29 18 41 24 12 5 22 10 22 8 6 2 31 3 56 3 26 0 54-1 76-1 13 0 22-2 30-2l7-4c3-4 4-4 4-12 0-3 0-9-3-14-7-24 5-49 28-56l0 0c0 0 12-5 21-12l9-9 3-7c0-5-2-14-12-28-9-12-10-28-4-43 5-15 17-23 32-26l0 0c1 0 16-5 26-12l12-12c3-4 3-6 3-13 0-6-1-15-7-27-6-11-6-26 0-38 6-12 16-20 29-23l0 0c2 0 15-5 25-14l12-14c3-6 4-12 4-22 0-11-3-14-4-17-3-4-10-8-18-10l-10-1-3 0v0h-256c-15 0-28-8-37-19-8-12-10-27-5-42 0 0 10-29 19-60 4-16 10-32 13-45 1-8 3-14 4-18l2-5 0-1h0c0-9 0-15 0-22 0-10-2-16-3-19-3-3-6-9-27-15-8-3-16-3-20-3-12 2-12 2-18 8-4 5-10 16-15 29-8 23-26 59-48 98-24 39-50 78-81 105l-59-69c16-13 41-47 62-83 21-33 37-70 41-80 6-17 13-39 31-59 18-22 49-40 85-39 15 0 30 3 46 8 35 10 63 29 79 54 15 25 18 50 18 66 0 11 0 20 0 22 0 9-2 15-3 23-4 22-13 50-21 76h195c2 0 27 0 58 13 15 8 33 18 46 37 13 18 22 43 21 69-2 22-9 46-20 65l0 0z m-761 351h-177c-12 0-23-4-32-13-8-9-12-21-12-32v-483c0-11 4-23 13-32 9-9 21-13 33-13h176c12 0 24 4 32 13 9 9 14 21 14 32v483c0 11-5 23-14 32-10 9-22 13-33 13l0 0z"/>
</svg>
