<svg xmlns="http://www.w3.org/2000/svg" viewBox="0 0 1000 1000">
  <path transform="translate(0,850) scale(1,-1)" fill="currentColor" d="M956 444c-22 19-49 30-77 30-30 0-63-14-85-39l-132-148c-19 44-63 75-115 75l-1 0-5 0-419-60 0 0c-65-3-116-56-116-121v-209c0-68 54-121 121-121h438c10 0 20 5 28 12l372 421c19 22 29 48 29 76 0 30-13 62-38 84l0 0z m-46-112l-361-409-421 0c-26 0-47 21-47 48v210c0 26 21 47 47 47l4 0 417 59c25 0 47-19 50-44l0-8c0-25-20-47-45-51l-183-22 8-74 184 22 0 0c37 5 66 25 86 53l200 222c8 9 19 14 30 14 11 0 20-3 27-11 9-9 13-19 13-31 2-7-3-17-9-25l0 0z m-466 122c0 0 219 153 219 277 0 66-48 119-110 119s-110-43-110-107c0 66-49 107-111 107s-110-53-110-119c3-124 222-277 222-277z"/>
</svg>
