<svg xmlns="http://www.w3.org/2000/svg" viewBox="0 0 1000 1000">
  <path transform="translate(0,850) scale(1,-1)" fill="currentColor" d="M957 446c-22 19-50 29-76 29-31 0-63-13-85-38l-134-149c-19 44-63 75-115 75l-1 0-5 0-420-60 0 0c-65-3-117-56-117-121v-210c0-68 55-122 123-122h439c11 0 21 4 28 12l374 422c19 22 29 48 29 76-1 33-15 64-40 86l0 0z m-45-112l-363-411h-422c-27 0-48 21-48 48v211c0 27 21 47 48 47l4 0 418 59c25 0 47-19 50-44l0-7c0-25-20-47-45-52l-183-22 8-73 186 22 0 0c37 4 66 25 85 53l2-2 200 224c8 9 19 13 30 13 11 0 20-3 27-10 9-9 13-19 13-31 0-7-4-18-10-25l0 0z m-674 81h411c39 0 73 32 73 73v289c0 39-32 73-73 73h-411c-39 0-73-32-73-73v-290c0-40 34-72 73-72z m2 362h66v-174l138 74 138-74v174h65v-289h-407c0 0 0 289 0 289z"/>
</svg>
