<svg xmlns="http://www.w3.org/2000/svg" viewBox="0 0 1000 1000">
  <path transform="translate(0,850) scale(1,-1)" fill="currentColor" d="M840 415c-13 6-28 9-43 9-35 0-69-20-88-50l-3 323v0l0 0h0c0 44-25 85-71 102-11 5-23 7-36 7-15 0-28-3-42-9-17 32-51 53-89 53-39 0-72-21-91-51-12 4-27 7-40 7-59 0-106-47-106-106v-7c-9 1-16 3-25 3-59 0-106-47-106-106v-365l0-32v-78c0-147 119-265 265-265h247c38 0 76 16 101 46l28 32 8 10 147 340c6 13 8 28 8 41-2 40-26 78-64 96z m-21-105l-144-334-23-26c-11-12-25-19-42-19h-247c-101 0-184 82-184 184v79l0 33v364c0 15 12 25 25 25 15 0 25-12 25-25v-178h81v287c0 15 12 25 25 25 15 0 25-12 25-25v-265h81v309c0 15 12 25 25 25 15 0 25-12 25-25v-44c0 0 0 0 0 0v-243h83v2h0v241c0 7 3 13 7 18 4 4 12 7 18 7l8-1c9-3 17-14 17-27l0 0 7-500c0-19 13-35 32-38 19-5 37 6 46 22l68 148c4 9 11 14 20 14l9-2c9-4 13-12 13-20l0-11 0 0z m-538-76c-10 0-21-5-28-12-7-7-12-18-12-28s5-20 12-28c7-7 18-12 28-12s21 5 28 12c7 8 12 18 12 28s-5 21-12 28c-7 7-18 12-28 12z m175 0c-10 0-21-5-28-12-7-7-12-18-12-28s5-20 12-28c7-7 18-12 28-12s21 5 28 12c7 8 12 18 12 28s-5 21-12 28c-7 7-18 12-28 12z m-81 53c10 0 21 4 28 12 7 7 12 17 12 28s-5 20-12 27c-7 8-18 12-28 12s-21-4-28-12c-7-7-12-17-12-27s5-21 12-28c7-8 18-12 28-12z m3-190c-10 0-21-4-28-12-7-8-12-19-12-29s5-21 12-28c7-7 18-12 28-12s21 5 28 12c7 7 12 18 12 28s-5 21-12 28c-6 9-16 13-28 13z m194 202c7 7 12 17 12 28s-5 20-12 27c-7 8-18 12-28 12s-20-4-28-12c-7-7-12-17-12-27s5-21 12-28c8-8 18-12 28-12s21 4 28 12z m0-183c-10 0-20-4-28-12-7-7-12-17-12-27s5-21 12-28c8-8 18-12 28-12s21 4 28 12c7 7 12 17 12 28s-5 20-12 27c-7 8-18 12-28 12z"/>
</svg>
