<svg xmlns="http://www.w3.org/2000/svg" viewBox="0 0 1000 1000">
  <path transform="translate(0,850) scale(1,-1)" fill="currentColor" d="M509 74c-7 0-15-3-19-9-6-6-9-12-9-19 0-8 3-15 9-19 6-6 12-9 19-9 7 0 15 3 19 9 6 5 9 11 9 19 0 7-3 14-9 19-4 6-12 9-19 9z m-371-56c8 0 15 3 19 9 6 5 9 11 9 19 0 7-3 14-9 19s-11 9-19 9c-7 0-14-3-19-9-6-6-9-12-9-19 0-8 3-15 9-19 5-6 12-9 19-9z m778 125v425c0 7-3 14-9 19s-11 9-19 9h-220c-8 0-15-3-19-9-6-6-9-12-9-19v-424h-33v609h-55v-416h-73l-32 32 30 30-40 39-93-92 38-40 25 25 33-32v-72h-52v45c0 7-3 15-9 19s-11 9-19 9h-83v103c0 7-3 15-9 19-6 6-12 9-19 9h-74c-7 0-15-3-19-9s-9-12-9-19v-57h-44v158h-56v-160h-19c-7 0-15-3-19-9-6-4-9-11-9-19v-270c0-8 3-15 9-19 6-6 12-9 19-9h18c11-42 48-71 94-71 44 0 81 29 94 71h12v0c29 1 53 25 53 56h-65c-12 41-49 70-94 70-36 0-66-19-84-47v191h88l31-100c3-11 15-19 27-19h350v-37c-14 6-27 11-43 11-44 0-81-30-94-71h-34v0c-29-1-53-25-53-56h87c12-41 48-70 94-70 54 0 98 44 98 98v43h393v56h-84z m-778-55c24 0 43-19 43-42 0-24-19-43-43-43-23 0-42 19-42 43 0 23 19 42 42 42z m194 137h-111l-18 57v92h19v-103c0-8 3-15 9-19s12-9 19-9h84v-18z m177-222c-24 0-43 19-43 43 0 23 19 42 43 42 23 0 43-19 43-42 0-24-20-43-43-43z m43 222h-56l0 56h56c0 0 0-56 0-56z m310-82h-166v135l81-81 0 0c22-19 55-19 76 2l-37 36-81 81h127v-173l0 0z m0 270l-81 81-37 37c-20-21-22-54-1-77l0 0 81-80h-127v166h166l-1-127 0 0z"/>
</svg>
