<svg xmlns="http://www.w3.org/2000/svg" viewBox="0 0 1000 1000">
  <path transform="translate(0,850) scale(1,-1)" fill="currentColor" d="M978 243v194c0 4-1 9-3 12l-56 113c-4 9-15 16-25 16h-187c-7 0-14-3-19-7-4-5-7-12-7-19v-202c-9-4-16-7-24-13h-108l91 95c4 5 6 9 7 15l21 119 103 80h104c7 0 15 3 19 7 5 4 8 12 8 19v82c0 8-3 15-8 20-4 4-12 7-19 7h-162c-6 0-11-2-16-6l-91-66h-178v0c-29-2-51-25-51-55h239c6 0 12 2 16 6l92 67h123v-25h-87c-6 0-11-2-16-6l-119-93c-6-4-9-10-10-18l-21-122-123-125h-111c-29 18-63 30-100 33l-29 29-163 163 107 91h102v0c29 2 51 25 51 55h-54v0l-109 0c-6 0-13-3-18-6l-137-118c-6-4-10-11-10-19 0-7 3-14 7-20l181-181c-97-25-170-113-170-221 0-125 101-226 226-226 125 1 227 101 227 226 0 2 0 5 0 6h78c0-1 0-4 0-6 0-125 101-226 226-226 124 1 225 101 225 226 0 35-9 69-22 99l0 0z m-243 279h143l41-85h-82v9h0c-2 29-25 51-55 51v-88c0-7 3-15 8-19 4-5 12-8 19-8h113v-67c-40 35-91 56-148 56-14 0-27-2-39-3l0 154 0 0z m-370-498c-31-31-74-51-121-51-47 0-90 20-120 51-31 30-50 73-50 120 0 47 19 90 50 121 30 31 73 50 120 50 47 0 90-19 121-50 31-31 50-74 50-121 0-47-19-90-50-120z m191 182h-94c-8 28-21 54-40 78h172c-16-24-29-50-38-78z m340-182c-31-31-74-51-121-51-47 0-90 20-121 51-30 30-50 73-50 120 0 47 20 90 50 121 31 31 74 50 121 50 47 0 90-19 121-50 31-31 50-74 50-121 0-47-19-90-50-120z m-122 203c-46 0-83-37-83-83 0-45 37-82 83-82 45 0 82 37 82 82 0 46-37 83-82 83z m0-109c-15 0-28 11-28 28 0 14 11 28 28 28 14 0 28-12 28-28 0-17-14-28-28-28z m-530 109c-45 0-82-37-82-83 0-45 37-82 82-82 46 0 83 37 83 82 0 46-37 83-83 83z m0-109c-15 0-28 11-28 28 0 14 12 28 28 28 15 0 28-12 28-28-1-17-13-28-28-28z m294 341v90h40v54h-434v-54h72v-90h55v90h78v-170h54v170h79v-90h56z"/>
</svg>
