<svg xmlns="http://www.w3.org/2000/svg" viewBox="0 0 1000 1000">
  <path transform="translate(0,850) scale(1,-1)" fill="currentColor" d="M556 263l-32 99c-3 10-14 17-24 17s-21-7-23-17l-33-99h-103c-10 0-20-7-23-17-3-11 0-21 9-28l83-61-32-98c-3-10 0-21 9-28s20-6 29 0l84 60 84-60c9-6 20-6 29 0 9 6 12 18 9 28l-32 98 84 61c8 6 11 17 8 28-3 10-13 17-23 17 0 0-103 0-103 0z m384 578c-19 15-47 11-61-9l-248-330c-32 13-68 22-104 25l8 11 0 0 181 243c15 19 11 47-9 60-19 15-47 11-60-9l-147-195-147 195c-15 20-41 24-60 9-19-14-24-41-9-60l162-216-39-50c-13-3-26-8-38-13l-248 330c-15 20-42 24-61 9s-23-41-8-60l242-324c-81-61-132-158-132-267 0-188 151-340 338-340 187 0 340 152 340 340 0 110-53 207-134 269l243 322c14 19 10 46-9 60l0 0z m-187-651c0-69-28-133-74-178-45-46-108-74-177-74-70 0-133 28-178 74-46 45-74 109-74 178 0 69 28 132 74 178 45 45 108 73 178 73 69 0 132-28 177-73 45-46 73-109 74-178z"/>
</svg>
