<svg xmlns="http://www.w3.org/2000/svg" viewBox="0 0 1000 1000">
  <path transform="translate(0,850) scale(1,-1)" fill="currentColor" d="M313 566h486v-69h-486v69z m0-181h486v-69h-486v69z m0-186h486v-70h-486v70z m-61 358c-6 6-17 11-25 11s-18-5-25-11c-6-5-11-16-11-25 0-8 5-17 11-25 5-5 16-10 25-10 8 0 17 5 25 10 5 6 10 17 10 25 0 9-3 18-10 25z m0-182c-6 6-17 10-25 10s-18-4-25-10c-6-6-11-16-11-25 0-9 5-18 11-25 5-6 16-10 25-10 8 0 17 4 25 10 5 6 10 16 10 25 0 9-3 18-10 25z m-24-176c-9 0-18-5-25-11-6-6-10-16-10-25 0-9 4-17 10-25 6-6 16-10 25-10s18 4 25 10c6 6 10 16 10 25 0 9-4 18-10 25-7 8-16 11-25 11z m16-280h-97c-43 0-76 34-76 77v707c0 43 33 76 76 76h406v0c37 2 66 33 66 70h-472c-81 1-147-65-147-146v-706c0-81 66-147 147-147h102v0c36 1 66 32 66 69l-71 0 0 0z m609 931h-99v0c-36-1-66-32-66-69h165c43 0 76-34 76-77v-707c0-43-33-76-76-76h-403v0c-37-2-66-33-66-70h469c81 0 147 67 147 147v705c0 81-66 147-147 147z"/>
</svg>
