<svg xmlns="http://www.w3.org/2000/svg" viewBox="0 0 1000 1000">
  <path transform="translate(0,850) scale(1,-1)" fill="currentColor" d="M1000 600c0 25-1 50-7 74-12 60-44 105-96 139-31 19-65 30-100 33-25 4-51 4-78 4-87 0-173 0-260 0-71 0-140 0-210 0-25 0-49-1-74-7-53-11-97-39-129-81-25-33-37-71-43-110-3-28-3-56-3-84 0-100 0-200 0-300 0-56 0-114 0-169 0-25 2-50 7-75 14-59 45-106 96-139 28-17 57-26 90-31 23-3 47-4 72-4 78 0 157 0 235 0v0c62 0 122 0 184 0 25 0 51 0 76 1 25 0 49 3 74 9 62 15 107 50 138 106 15 27 22 55 25 84 3 27 3 54 3 81 0 87 0 173 0 259 0 70 0 141 0 210z m-706-138c2 6 3 12 5 17 3 11 8 21 14 30 11 15 21 28 33 41 0 0 0 0 1 0 0-1 0-1 0-3-3-7-6-15-9-22s-3-16-1-23c3-12 9-21 20-27 3-1 6-3 9-3 9-1 18-1 27 0 11 3 23 6 36 9 6 1 12 3 20 6 5 1 11 3 16 4 9 2 16 5 25 6 7 2 14 3 20 6 9 3 18 4 27 7 10 3 19 5 29 8 9 3 19 6 28 7 13 3 27 7 40 10 9 3 18 5 26 8 6 1 12 3 18 4 4 2 9 3 13 3 2 0 3 0 5 0 0 0 0 0 0-1-6-3-14-6-19-9-8-3-17-6-24-11-10-4-21-8-31-13-20-9-41-17-60-25-18-7-35-14-52-22-14-6-28-13-42-19-18-7-36-15-53-22-13-6-25-10-38-15-14-4-27-6-40-4-15 1-27 7-35 19-8 13-9 24-8 34l0 0z m143-312c0-4 0-6-6-6-12 0-24 0-35 0-3 0-5 2-6 5-5 13-11 26-15 39-4 12-10 25-15 37-1 4-3 9-6 15-1-2-1-5-1-6 0-28 0-56 0-84v-6c-4-1-44-1-53 0 0 2 0 3 0 6 0 65 0 128 0 193 0 1 0 3 0 6h57c9-28 17-56 24-84 0 0 1 0 1 0 0 1 0 4 0 6 0 23 0 45 0 67 0 11 0 9 9 9 13 0 27 0 40 0 6 0 6 0 6-6 0-63 0-128 0-191z m148-6c-16 0-32 0-50 0-4 0-4 0-7 5-7 19-13 36-21 55-3 6-4 14-7 20 0 0 0 0-1 0v-78c-5-2-49-2-55 0-1 4-1 198 0 203 0 0 2 0 3 0 21 0 41 0 62 0 16 0 32-3 47-12 10-6 16-16 21-27 4-13 5-26 2-39-2-17-10-30-26-39 0 0-1-1-1-1 0 0-2-2-2-2 13-27 27-55 40-83-2-2-3-2-5-2l0 0z m109 3c-9-3-16-6-26-6-22 0-41 8-58 24-8 9-14 19-19 31-7 17-9 35-9 53 0 13 2 26 6 38 5 15 12 26 22 38 11 10 24 19 39 22 8 2 17 5 25 3 5 0 11-1 17-3 3 0 6-1 6-3 2-1 2-6 2-7 0-13 0-28 0-41v-8c-5 3-6 5-9 6-13 10-36 6-44-12-3-4-5-10-6-14-3-16-3-33 1-47 3-9 8-17 15-22 12-6 23-6 34 1 1 2 4 3 6 4 0 0 0 0 1 0 0-1 0-2 0-4 0-15 0-29 0-44 3-6 0-7-3-9l0 0z m-190 157c-1 0-2-1-2-1v-49c10-2 17 3 22 11 3 6 3 13 3 19-3 15-12 19-23 20z"/>
</svg>
