<svg xmlns="http://www.w3.org/2000/svg" viewBox="0 0 1000 1000">
  <path transform="translate(0,850) scale(1,-1)" fill="currentColor" d="M468 310l-91 92-59-59 122-122c7-8 19-12 29-12 12 0 22 4 30 12l236 236-58 59-209-206 0 0z m486 293l-201 201c-29 30-69 46-110 46h-286c-41 0-80-16-110-46l-201-201c-30-29-46-69-46-110v-284c0-41 16-81 46-110l201-202c30-29 69-46 110-46h284c41 0 81 17 111 46l201 202c29 29 46 69 46 110v284c1 41-15 81-45 110z m-38-396c0-19-7-38-20-51l-202-200c-13-13-32-21-51-21h-286c-19 0-38 8-51 21l-200 200c-13 13-21 32-21 51v286c0 19 8 38 21 51l200 200c13 13 32 21 51 21h284c19 0 38-8 52-21l201-201c13-14 21-33 21-52v-284z"/>
</svg>
