<svg xmlns="http://www.w3.org/2000/svg" viewBox="0 0 1000 1000">
  <path transform="translate(0,850) scale(1,-1)" fill="currentColor" d="M106 312c-16 16-28 29-37 38 21 24 63 69 122 115 41 32 88 63 141 87 53 23 109 38 168 38 50 0 99-11 143-28 26-9 56 3 67 29l-48 21c-50 19-105 31-162 31-69 0-134-18-193-44-88-40-160-97-211-146-52-49-83-87-83-87l-13-16 13-16c2-2 78-100 199-180 25-14 57-5 72 20l-46 28c-56 36-101 77-132 110l0 0z m881 54c-2 2-78 99-199 180-25 14-57 6-72-19l46-28 0 0c54-37 100-78 132-111 16-16 28-29 37-38-21-23-63-69-122-115-41-32-88-63-141-86-53-24-109-39-168-39-50 0-98 11-143 28-26 9-55-3-67-29l48-21c50-19 105-31 162-31 69 0 134 18 193 45 88 39 160 97 211 145 52 49 83 87 83 87l13 16-13 16 0 0z m-487 144c-88 0-160-72-160-160 0-88 72-160 160-160 88 0 160 72 160 160 0 88-72 160-160 160z m75-235c-19-19-46-31-75-31-29 0-56 12-75 31-19 19-31 46-31 75 0 29 12 56 31 75 19 19 46 31 75 31 29 0 56-12 75-31 19-19 31-46 31-75 0-29-12-56-31-75z"/>
</svg>
