<svg xmlns="http://www.w3.org/2000/svg" viewBox="0 0 1000 1000">
  <path transform="translate(0,850) scale(1,-1)" fill="currentColor" d="M935 713h-50l-75 75c-4 5-11 8-19 8h-88c-91 0-165-74-165-165v-113c-32-14-61-31-89-52-58-42-103-100-130-167-17-46-26-93-26-142v-123c-15 4-27 18-27 34v109c0 79-64 144-144 144h-78c0-28 22-52 50-53l28 0c50 0 91-41 91-91v-109c0-46 36-83 80-87v-25c-28 1-53 15-71 32-20 21-32 49-32 80v56c0 36-30 67-68 67-34 0-63 25-68 58-2 26-26 45-52 45l1-53c10-57 60-101 121-101 7 0 14-6 14-15v-56c0-91 74-165 165-165h496c7 0 13 3 19 8 4 4 7 11 7 19v47c0 51-35 94-82 106v73c64 12 113 72 113 140-2 28-25 52-53 52v-56c0-24-10-46-25-62-16-16-37-25-62-25-7 0-13-3-19-7-4-5-7-12-7-20v-120c0-7 3-13 7-19 5-5 12-8 19-8 31 0 58-25 58-57v-22h-99c-3 22-10 43-22 60v168h-53v-122c-9 4-18 7-28 9-1 86-72 156-159 156v-50c30 0 56-12 75-31 19-19 31-46 31-75v-21c0-7 3-13 8-19 4-4 11-7 19-7 22 0 41-9 54-23 10-10 18-25 21-39h-275v200c0 41 7 82 23 122 24 57 62 107 112 144 25 19 53 34 82 47l8 3h8c81 0 148 63 153 143 0 28-23 51-51 51l0-50c-4-47-41-85-88-91v103c0 31 13 59 32 79 21 21 49 33 79 33h78l75-75c5-5 12-8 20-8h60c7 0 12-6 12-11v-25c0-30-24-53-53-53h0c-52 0-94-43-94-94l0-42c1-28 25-50 52-50v90c0 24 20 43 43 43h0c59 0 106 47 106 106v25c-3 35-32 64-68 64l0 0z m-117-29c-5 4-12 7-19 7-8 0-14-3-20-7-4-5-7-12-7-19s3-13 7-19 12-8 20-8c7 0 13 3 19 8 4 4 7 11 7 19s-3 13-7 19z"/>
</svg>
