<svg xmlns="http://www.w3.org/2000/svg" viewBox="0 0 1000 1000">
  <path transform="translate(0,850) scale(1,-1)" fill="currentColor" d="M828 407c0 0-6 14-13 31-12 25-41 37-68 27l19-46c9-19 13-32 13-32 6-16 11-33 11-49 0-44-24-86-66-110l-158-84c-9-4-13-13-13-22v-144h-1c0-3 0-6 1-9v-44c0-15-12-25-26-27-15 0-25 12-27 27v252c0 20 12 39 29 50l152 80-24 46-23-13-41 79c4 28 10 66 14 102l-51 7c-7-47-15-101-19-128l-224-69 0 0c-1 0-4-2-6-2-8 0-16 6-19 14l0 0c0 1-1 4-1 6 0 8 6 16 13 19l185 57c9 3 17 10 18 21l29 186c20 20 33 45 36 74 51-9 95-43 117-93 2-6 14-36 25-70 11-25 40-37 67-28l-18 48 0 0c-6 18-12 34-16 46-3 6-5 12-6 16-2 4-2 6-2 6l0 1c-29 71-94 118-169 125-17 55-67 93-125 93-35 0-67-15-89-37-24-23-37-54-37-89 0-67 50-121 114-127l0 0c5 0 9 0 14 0 11 0 22 2 34 5l-8-46-166-50 0 0c-31-9-50-37-50-68 0-6 1-11 1-16-5 2-11 2-17 2-22 0-41-9-55-22l0 0c-13-14-22-33-22-55v-51h52v51c0 7 3 13 7 18 5 4 10 7 18 7 1 0 3 0 4 0-1-6-3-12-3-18 0-7 2-13 3-20 5-13 12-24 21-32v-446h51v426c6 0 12 2 18 3l0 0 238 74 22-41-82-44c-35-20-57-56-57-96v-249c0-42 35-78 77-78 36 0 67 25 75 58 9-3 18-6 28-6 43 0 78 35 78 78v182l42 22 0 0c58 31 92 92 92 155-3 23-7 45-16 67l0 0z m-387 239c-3 0-6 0-9 0-38 4-67 36-67 76 0 43 34 77 76 77 40 0 72-30 77-68 0-3 0-6 0-9 0-20-9-40-22-54-15-14-34-22-55-22l0 0z m-125-192l0 0 141 45-4-28-149-46c-1 2-1 3-2 4l0 0c0 2-2 5-2 6 3 9 7 17 16 19z m340-475c0-14-12-25-27-26-11 0-22 9-25 19v135l50 27v-155l2 0z m-415 352l0 0 0 0 0 0z"/>
</svg>
