<svg xmlns="http://www.w3.org/2000/svg" viewBox="0 0 1000 1000">
  <path transform="translate(0,850) scale(1,-1)" fill="currentColor" d="M500 350c-59 0-107 37-128 88-10 3-20 3-29 6-24 8-46 16-65 27 7-117 103-211 222-211 119 0 216 93 222 211-7-5-13-8-20-12-24-10-49-18-75-25-20-47-68-82-127-84l0 0z m222-143c-10 8-23 9-35 6-12-3-22-10-28-22l-77-145-45 63 37 63 0 16-15 9h-118l-14-9 0-16 35-63-46-65-76 146c-6 10-16 19-28 22s-25 1-35-6c-100-68-168-181-174-310 0-12 4-24 12-33 9-9 19-13 31-13h707c12 0 24 4 31 13 9 9 13 21 12 33-5 129-72 242-174 311l0 0z m-393-270l0 0h-133c13 65 45 123 92 166l71-135 16-33c2 2-46 2-46 2z m325 0h-30l88 166c47-44 79-101 92-166 0 0-150 0-150 0z m-445 706h10v-27c0 0 0 0 0 0 0-28 13-53 31-72 27-28 62-45 104-60 43-13 93-21 146-21 71 0 135 14 185 36 25 11 47 26 65 44 18 19 31 44 31 72v26h10c21 0 38 15 43 36s-7 41-27 50l-291 120c-10 5-22 5-34 0l-289-120c-19-8-30-28-27-49s22-35 43-35l0 0z m184 60c6 13 20 19 32 13l74-32 73 32c13 6 28 0 32-13 6-13 0-28-13-32l-84-36c-5-3-13-3-19 0l-84 36c-10 6-16 20-11 32z"/>
</svg>
