<svg xmlns="http://www.w3.org/2000/svg" viewBox="0 0 1000 1000">
  <path transform="translate(0,850) scale(1,-1)" fill="currentColor" d="M500 641c57 0 104 47 104 105 0 57-47 104-104 104-57 0-104-47-104-104 0-59 47-105 104-105l0 0z m0 156c28 0 52-23 52-51 0-28-24-52-52-52-28 0-51 24-51 52 0 28 23 51 51 51z m381-360h-10v0c-28-2-50-25-50-53h60c32 0 59-27 59-59v-284h53v284c0 62-50 112-112 112l0 0z m-754 0h-8c-62 0-112-50-112-112v-284h53v284c0 32 27 59 59 59h10v0c28 1 50 25 50 53 0 0-52 0-52 0z m658 19c58 0 105 47 105 104 0 58-47 105-105 105-47 0-85-31-100-72-20 26-53 44-89 44l-11 0c-28-2-50-25-50-53h61c32 0 58-27 58-59v-94c-20-7-39-19-52-37-12 46-53 81-102 81-50 0-91-34-101-81-14 16-33 30-53 37v96c0 32 26 58 58 58h61c0 28-22 52-50 53l-11 0c-36 0-69-17-89-44-13 43-53 72-100 72-58 0-105-47-105-104 0-58 47-105 105-105 31 0 57 14 76 34v-53h-41c0-28 22-51 50-53v0h10c33 0 59-26 59-58v-84c-44-15-78-56-78-106v-287h53v285c0 33 27 59 59 59h60c0 25-17 47-41 52v54c19-21 47-34 77-34 30 0 57 13 76 34v-54c-23-6-41-27-41-52h60c33 0 59-26 59-59v-285h53v285c0 50-32 92-78 106v84c0 32 26 59 59 59h63c0 25-18 47-41 51v55c18-21 45-34 76-34l0 0z m0 156c28 0 52-24 52-52 0-28-24-51-52-51-28 0-51 23-51 51 0 30 22 52 51 52z m-570-103c-28 0-52 23-52 51 0 28 24 52 52 52 28 0 51-24 51-52 0-28-22-51-51-51z m285-190c-28 0-51 24-51 52 0 28 23 51 51 51 28 0 52-23 52-51 0-28-24-52-52-52z"/>
</svg>
