<svg xmlns="http://www.w3.org/2000/svg" viewBox="0 0 1000 1000">
  <path transform="translate(0,850) scale(1,-1)" fill="currentColor" d="M559-47l-112 47v147c0 9-3 16-7 24l-230 323-150 150c-7-4-13-9-17-16-8-13-6-29 3-43l320-451v-161c0-16 11-30 25-38l193-82c13-6 26-5 38 3 12 7 18 20 18 34v173l-81 83c0 0 0-193 0-193z m148 275l255 357c9 12 10 30 3 43-8 13-21 22-37 22h-641l-202 200-57-57 143-143 82-82 350-350 59-59 206-206 45-46 58 58c1-2-264 263-264 263z m-57 59l-282 281h482l-200-281 0 0z"/>
</svg>
