<svg xmlns="http://www.w3.org/2000/svg" viewBox="0 0 1000 1000">
  <path transform="translate(0,850) scale(1,-1)" fill="currentColor" d="M225 16c-12 0-23 0-32 2-15 1-28 11-31 26l-35 141 173 74 44-44c25-25 59-38 93-38 16 0 31 2 45 8l-166 165c-7 2-14 0-22-3l-235-98c-9-5-18-12-22-21l0 0c-5-9-6-19-3-29l44-177c13-51 57-88 110-91 12 0 24-2 39-2 94 0 242 22 389 123l-62 61c-126-79-248-97-329-97l0 0z m522 149c159 172 188 362 188 475 0 13 0 26-1 37-3 52-40 98-91 110l-177 44c-10 3-20 1-29-3l0 0c-9-4-16-12-21-22l-98-235c-3-8-5-15-3-24l0 0c1-9 6-18 12-25l64-65c9-8 13-20 13-30 0-9-2-20-8-27-11-12-24-28-40-46l-494 496-62-62 493-492 61-62 70-69 61-62 253-253 62 62-253 253z m-131 131c19 19 34 38 46 53 19 23 28 51 28 79 0 34-13 68-38 93l-45 44 74 173 141-35c15-4 25-16 27-31 0-10 1-20 1-32 0-99-25-262-163-415l-71 71 0 0z"/>
</svg>
