<svg xmlns="http://www.w3.org/2000/svg" viewBox="0 0 1000 1000">
  <path transform="translate(0,850) scale(1,-1)" fill="currentColor" d="M410 62c-133 60-226 194-226 348 0 47 9 92 23 133l68-146 47 22-91 196c-6 13-21 19-34 13l-197-91 22-47 135 62c-14-45-23-93-23-142 0-178 107-331 260-397l0 0c27-9 55 5 65 30l-49 19c0 0 0 0 0 0z m590 348c0 19-1 39-4 58l0 0c-6 26-33 44-59 39l9-48c1-16 3-32 3-49 0-106-43-201-112-270-56-56-128-94-209-108l94 130-41 29-127-175c-4-6-5-12-4-19s4-13 10-16l6-5v0c0 0 0 0 0 0l169-120 30 41-121 88c203 36 356 214 356 425l0 0z m-706 269l38 34 0 0c2 2 5 3 6 5 64 47 143 75 227 75 116 0 219-52 289-133l-158 24-8-50 215-32c13-2 26 7 29 22l33 214-50 8-22-149c-80 90-196 147-327 147-95 0-185-31-257-84-3-3-7-6-10-8l0 0c-21-20-22-50-5-73l0 0z"/>
</svg>
