<svg xmlns="http://www.w3.org/2000/svg" viewBox="0 0 1000 1000">
  <path transform="translate(0,850) scale(1,-1)" fill="currentColor" d="M774-2l0 0c-71-50-153-75-236-75-88 0-169 28-235 75-31 27-78 23-104-8l55-47c80-58 178-93 284-93 100 0 200 31 284 93 31 26 34 73 9 104l-57-49 0 0z m97 783l-2-94c-92 88-212 132-332 132-124 0-249-47-343-141l0 0 0 0c-88-88-141-209-141-343 0-60 12-119 32-173 18-37 62-52 99-35l-31 67c-16 44-25 91-25 141 0 114 46 217 121 290l0 0 0 0c80 79 185 121 289 121 103 0 206-39 286-117l-118 2c-40-2-71-32-72-72v0l75-2 197-4c10 0 19 3 26 10 8 8 12 16 12 27l3 187 0 73c-40 0-73-29-76-69z"/>
</svg>
