<svg xmlns="http://www.w3.org/2000/svg" viewBox="0 0 1000 1000">
  <path transform="translate(0,850) scale(1,-1)" fill="currentColor" d="M1000 128c0 22-9 43-25 59l-638 638c-16 16-38 25-59 25-22 0-43-9-59-25l-194-193c-16-17-25-38-25-60 0-22 9-43 25-59l638-638c16-16 39-25 59-25 22 0 43 9 59 25l194 194 0 0c16 16 25 37 25 59z m-84-1l-192-193-2 0-1 0-637 638 0 2 0 1 193 191 1 0 1 0 68-67-129-130 59-59 129 130 53-53-66-66 59-59 66 66 53-53-130-129 59-59 129 129 53-53-66-66 59-59 66 66 53-52-132-127 59-59 129 130 68-68-2-1 0 0 30-30c0 0-30 30-30 30z"/>
</svg>
