<svg xmlns="http://www.w3.org/2000/svg" viewBox="0 0 1000 1000">
  <path transform="translate(0,850) scale(1,-1)" fill="currentColor" d="M787-4c-75-58-165-86-255-87h0c-95 0-183 32-254 85-25 22-62 19-84-6l44-38c81-63 184-102 294-102h0c105 0 209 34 295 102 23 22 26 59 4 84l-44-38 0 0z m98 801l0 0-8-131c-2 2-3 5-5 6-93 93-216 140-340 140-122 0-244-46-339-141-2-2-2-2-3-3 0 0 0 0 0 0l0 0c-86-87-138-206-138-337 0-66 13-129 38-187 14-28 50-40 79-26l-25 51c-20 50-32 103-32 160 0 117 47 221 122 296 85 84 193 125 300 125 107 0 216-41 298-123 2-2 5-5 6-6l-148 8 0 0c-31 0-59-23-61-55l56-3 217-14c7 0 16 3 22 8s8 13 10 20l12 206 3 59c-33 2-59-22-64-53z"/>
</svg>
