<svg xmlns="http://www.w3.org/2000/svg" viewBox="0 0 1000 1000">
  <path transform="translate(0,850) scale(1,-1)" fill="currentColor" d="M500 691c94 0 188-35 262-109l60 61c-88 88-204 132-320 132-117 0-233-44-321-132l60-61c71 72 165 109 259 109z m-191-178l59-60c36 37 84 54 132 54 49 0 96-17 132-54l61 60c-53 53-122 80-191 80-71 0-140-27-193-80z m556-229h-322v95h-84v-95h-324c-75 0-135-60-135-135v-89c0-75 60-135 135-135h728c75 0 136 60 136 135v89c1 75-59 135-134 135z m51-224c0-28-23-51-51-51h-730c-28 0-51 23-51 51v89c0 28 23 51 51 51h728c28 0 52-23 52-51v-89z m-691 87c-12 0-22-4-29-12s-12-19-12-29 4-22 12-29 19-12 29-12 22 4 29 12 12 19 12 29-4 22-12 29-17 12-29 12z m184 0c-12 0-22-4-30-12s-11-19-11-29 4-22 11-29 20-12 30-12 22 4 29 12 12 19 12 29-4 22-12 29-19 12-29 12z"/>
</svg>
