<svg xmlns="http://www.w3.org/2000/svg" viewBox="0 0 1000 1000">
  <path transform="translate(0,850) scale(1,-1)" fill="currentColor" d="M829 844c-94 0-170-76-170-170 0-33 10-64 25-90 15-27 32-52 50-74h-247c-102 0-184-82-184-183 0-102 82-184 184-184h79c58 0 103-46 103-103 0-58-45-103-103-103h-300c34 42 72 97 74 163 0 94-77 171-171 171-92-2-169-77-169-171 0-32 10-63 25-90 43-81 118-142 119-144 8-6 16-9 27-9v0h397c100-1 182 81 182 183 0 101-82 184-184 184h-79c-58 0-103 45-103 103 0 57 45 102 103 102h342v0c9 0 18 3 25 9 2 2 36 30 71 71 34 43 74 97 75 163 0 96-76 172-171 172l0 0z m-625-856c-11-15-23-26-33-37-12 12-27 27-40 45-28 35-52 78-50 104 0 50 40 90 90 90 50 0 89-40 89-90 0-29-25-76-56-112z m661 574c-12-15-24-27-34-37-12 12-27 27-40 44-28 35-51 78-50 105 0 50 40 89 90 89 50 0 90-39 90-89 0-30-27-77-56-112z m-36 151c-10 0-20-4-27-11-8-8-12-18-12-28s4-21 12-28c7-8 17-12 27-12s21 4 28 12c8 7 12 17 12 28s-4 20-12 28c-5 7-16 11-28 11z m-658-573c-11 0-21-5-28-12s-14-18-14-28 5-21 12-28 18-12 28-12 21 5 28 12 12 18 12 28-5 21-12 28-16 12-26 12z"/>
</svg>
