<svg xmlns="http://www.w3.org/2000/svg" viewBox="0 0 1000 1000">
  <path transform="translate(0,850) scale(1,-1)" fill="currentColor" d="M834 184c-43 0-85-16-118-49v0l0 0c-3-3-4-4-6-7l-382 188c1 11 3 21 3 31 0 10-2 22-3 32l384 192c1-2 3-5 6-8 32-32 75-48 117-48 43 0 86 16 118 48 32 33 49 75 49 118 0 43-17 85-49 118-32 32-75 48-118 48-42 0-85-16-117-48v0c-33-33-49-75-49-118 0-10 2-22 3-32l-384-192c-31 34-73 55-122 55-92 1-166-74-166-165 0-91 74-166 166-166 49 0 93 22 124 56l382-188c-1-11-3-21-3-31 0-43 16-86 49-118 32-32 75-49 117-49 43 0 86 17 118 49 32 32 49 75 49 118 0 42-17 85-49 117-34 33-76 49-119 49z m-55 553l0 0c15 15 36 22 55 22 20 0 40-7 54-22 15-15 22-35 22-55 0-20-7-39-22-54-14-15-35-22-54-22-21 0-40 7-55 22-14 15-22 35-22 54 0 20 8 39 22 55z m-613-468c-42 0-78 35-78 78 0 43 36 78 78 78 43 0 78-35 78-78-1-43-35-78-78-78z m724-306c-15-15-36-22-55-22-20 0-39 7-54 22-15 15-22 35-22 55 0 20 7 39 22 54l0 0c15 15 35 22 54 22 21 0 40-7 55-22 14-15 22-35 22-54 0-20-8-39-22-55z"/>
</svg>
