<svg xmlns="http://www.w3.org/2000/svg" viewBox="0 0 1000 1000">
  <path transform="translate(0,850) scale(1,-1)" fill="currentColor" d="M807 66h-48v125c-31 0-56-25-57-54l0-69h-403v278c0 56 22 106 58 142 37 37 87 59 143 59 56 0 106-22 143-59 36-36 59-86 59-142v-96c30 0 55 25 57 54l0 42c0 142-116 258-260 260-143 0-259-116-261-260v-278h-48c-8 0-15-3-21-9-6-6-9-13-9-21v-154c0-8 3-15 9-21 6-6 13-9 21-9l75 0c31 2 54 27 54 58h-98l0 95h558v-95l-335 0c-31-2-54-27-54-58h54v0h365c7 0 15 3 20 9s9 13 9 21v154c0 8-3 15-9 21s-14 7-22 7l0 0z m-336 778h58v-182h-58v182z m233-254l128 128 42-41-128-128-42 41z m114-216h182v-58h-182v58z m-818 0h182v-58h-182v58z m127 304l41 41 128-128-42-41-127 128z"/>
</svg>
