<svg xmlns="http://www.w3.org/2000/svg" viewBox="0 0 1000 1000">
  <path transform="translate(0,850) scale(1,-1)" fill="currentColor" d="M788 571h-247c-29 0-53-24-53-53v-336c0-29 24-53 53-53h247c30 0 53 24 53 53v336c2 29-23 53-53 53z m-242-384v119h54l32 60 65-181h-151z m239 0h-81l71 134h10v-134z m0 191h-45l-31-59-69 190-77-144h-19v148h240v-135z m146-31v10c37 8 65 40 65 78 0 39-28 71-65 78v31c0 62-50 113-113 113h-6c-25 53-56 99-94 133-41 37-90 59-144 59h-268c-53 0-102-22-143-59-22-24-20-59 3-81l38 41c33 27 67 41 100 41 24 0 46-6 68-17-40-40-70-95-95-158-11-28-20-56-27-87h-166c9 37 20 71 34 100 14 28 4 62-24 77l-26-49c-40-85-64-191-64-307 0-135 31-257 84-347 27-46 58-82 94-110 37-27 78-43 122-43v0h270v0c53 0 103 22 144 59 36 34 69 78 94 132h6c61 0 113 50 113 113v37c37 8 65 40 65 78 0 40-28 72-65 78z m0 106c4-4 7-10 7-16 0-8-3-13-7-16v32z m-356 340c37 0 72-15 106-46 25-22 48-53 68-90h-208l-17 34 0 0c-22 40-50 74-80 100l131 2 0 0z m-513-443c0 43 3 84 10 124h169c-6-40-9-81-9-124 0-35 3-71 6-103h-169c-4 32-7 68-7 103z m244-443c-31 0-60 11-90 31-42 31-82 87-110 159-12 28-21 60-28 93h169c7-38 18-74 31-108 24-63 56-116 96-157-22-12-46-18-68-18z m375 44c-34-29-69-44-106-45v0h-129c1 1 1 1 3 3 36 34 69 78 94 132h206c-21-37-43-68-68-90l0 0z m193 565v-362c0-30-25-55-56-55h-306c-31 0-56 25-56 55l0 86c-2 31-27 54-57 54v-140c0-51 33-94 80-107-16-35-38-65-60-87-34 34-65 83-88 143-27 71-41 156-41 247 0 91 16 177 42 247 22 60 53 109 89 143 19-19 38-43 54-72l0 0c3-6 6-11 10-14-48-13-83-55-83-108l0-158c1-31 26-54 57-54v54h0v158c0 31 25 56 56 56h306c31 0 56-25 56-56l-3-30 0 0z m57-263v34c4-5 7-10 7-16 0-8-3-14-7-18z m-194 179c7 0 15 3 20 9 6 6 9 13 9 21 0 7-3 15-9 20s-13 9-20 9-15-3-21-9-9-13-9-20c0-8 3-15 9-21 6-6 13-9 21-9z"/>
</svg>
