<svg xmlns="http://www.w3.org/2000/svg" viewBox="0 0 1000 1000">
  <path transform="translate(0,850) scale(1,-1)" fill="currentColor" d="M347 463l-6-142c0-6 2-12 6-18 31-41 46-90 46-137 0-41-11-81-31-116l45-26c25 44 39 94 39 144 0 56-17 111-52 160l6 134c0 3 0 4 0 7 0 88-71 163-160 166-15 0-28-10-28-25l-6-179c-2-44-7-88-15-131l-129-129 38-39 135 136c5 4 6 9 8 14 9 49 14 97 16 147l6 148c47-14 82-58 82-109l0-5 0 0z m363 269c5 5 8 12 8 20 0 7-3 14-8 19-4 4-11 7-19 7s-14-3-19-7c-4-5-7-12-7-19 0-8 3-15 7-20s12-7 19-7 15 3 19 7z m-126-526c-7 0-15-3-19-7-5-5-8-12-8-20 0-7 3-14 8-19s12-7 19-7 15 3 19 7 7 12 7 19c0 8-3 15-7 20-4 4-12 7-19 7z m7 572h-79c-15 0-27-12-27-26s12-27 27-27h79c15 0 27 12 27 27s-11 26-27 26z m347-84c0 28-13 56-39 72-14 9-30 13-45 13-10 0-22-2-30-5-9 44-49 78-96 78h-288c-27 0-50-11-68-25-9-8-16-15-20-24-6-9-9-19-9-31v-113h0c1-28 25-52 53-52v164c0 0 0 3 3 6 3 4 8 10 16 14 7 5 16 6 25 6h288c24 0 44-19 44-44v-610c0-24-19-44-44-44h-204v0c-28-2-52-25-52-53h140c-24-33-62-53-103-53h-78c-7 0-15-3-19-8l-97-97 38-38 90 90h67c72 0 136 41 167 106h54c54 0 97 44 97 97v61c19 2 38 11 51 24 15 15 25 37 25 60 0 21-7 40-19 55 0 0 2 1 2 1 15 15 25 37 25 60 0 23-9 43-24 58 15 15 24 35 24 57 0 24-9 44-25 60-5 5-9 9-15 12l44 44c13 17 22 39 22 59l0 0z m-113-435v59c13-5 22-15 22-30 0-14-9-26-22-29z m0 115v61c16-1 29-14 29-31 0-17-11-30-29-30z m21 123c-6-6-12-9-21-9v62c16-1 29-15 29-31 0-9-2-16-8-22l0 0z m29 175l-50-50v88l4 5c6 7 17 10 25 10 6 0 11-1 15-4 10-6 15-17 15-27 1-7-2-15-9-22z"/>
</svg>
