<svg xmlns="http://www.w3.org/2000/svg" viewBox="0 0 1000 1000">
  <path transform="translate(0,850) scale(1,-1)" fill="currentColor" d="M947 425c-9 0-16-3-23-9l0 0-367-259c-14-10-30-14-47-14-16 0-31 4-45 13l-390 262 0 0c-6 4-13 7-22 7-22 0-41-18-41-41v-424c0-60 50-110 110-110h755c60 0 110 50 110 110v424c1 23-18 41-40 41z m-41-465c0-16-13-29-29-29h-755c-16 0-29 13-29 29v347l326-219c28-19 59-28 91-28 33 0 67 11 94 30l302 216c0 0 0-346 0-346z m-631 774c0 19 16 35 35 35h380c19 0 35-16 35-35v-366h81v366c0 65-52 116-116 116h-380c-64 0-116-51-116-116v-366h81c0 0 0 366 0 366z m93-60h267v-81h-267v81z m0-177h267v-81h-267v81z"/>
</svg>
