<svg xmlns="http://www.w3.org/2000/svg" viewBox="0 0 1000 1000">
  <path transform="translate(0,850) scale(1,-1)" fill="currentColor" d="M424 387h258v-84h-258v84z m0-181h258v-84h-258v84z m-86 0c-10 0-22-4-29-12s-12-19-12-29 5-22 12-30 19-11 29-11c11 0 22 4 30 11s11 19 11 30-4 22-11 29-19 12-30 12z m0 185c-10 0-22-4-29-12-7-7-12-19-12-29 0-10 5-22 12-29s19-12 29-12c11 0 22 4 30 12s11 19 11 29c0 10-4 22-11 29s-19 12-30 12z m386 358h-89c-17 58-70 101-135 101-65 0-118-43-135-101h-88c-75 0-136-61-136-136v-628c0-75 61-135 136-135h447c75 0 135 60 135 135v628c0 75-60 136-135 136z m-364-83l39 0c10 0 22 5 29 12s12 19 12 29c0 33 26 59 59 59 32 0 58-26 58-59 0-10 5-22 12-29s19-12 30-12h38v-31h-280l3 31 0 0z m415-681c0-29-23-51-51-51h-447c-30 0-52 23-52 51v628c0 30 24 52 52 52h0v-74c0-10 4-22 11-29s19-12 30-12h361c11 0 23 4 30 12s12 19 12 29v74h0c29 0 51-24 51-52 3 0 3-628 3-628z"/>
</svg>
