<svg xmlns="http://www.w3.org/2000/svg" viewBox="0 0 1000 1000">
  <path transform="translate(0,850) scale(1,-1)" fill="currentColor" d="M724 749h-89c-17 58-70 101-135 101-65 0-118-43-135-101h-88c-75 0-136-61-136-136v-628c0-75 61-135 136-135h447c75 0 135 60 135 135v628c0 75-60 136-135 136z m-253-12c7 7 19 12 29 12s22-5 29-12 12-19 12-30-4-22-12-29-19-12-29-12-22 5-29 12-12 19-12 29 4 22 12 30z m304-752c0-29-23-51-51-51h-447c-30 0-52 23-52 51v628c0 30 24 52 52 52h0v-74c0-10 4-22 11-29s19-12 30-12h361c11 0 23 4 30 12s12 19 12 29v74h0c29 0 51-24 51-52l3-628 0 0z"/>
</svg>
