<svg xmlns="http://www.w3.org/2000/svg" viewBox="0 0 1000 1000">
  <path transform="translate(0,850) scale(1,-1)" fill="currentColor" d="M990 788c-6 6-15 11-24 11h-794v0c0 0 0 0-1 0 0 0 0 0-2 0v0h-131c0-37 28-65 64-67v0h832v-600l-866 0v67l779 0c35 1 63 30 63 66h-844l0 370h0c-1 36-31 64-66 64v-600c0-9 3-18 10-24s15-10 24-10h934c9 0 17 3 23 10 6 6 11 15 11 24v666c-2 9-5 17-12 23z m-283-772c-26 24-66 24-91-3l44-44 3-3 47-47c27-23 67-23 92 3v0l-45 44-50 50 0 0z m-408 0l-47-47h0l-48-47v0c25-25 67-26 92-3l50 49v0l44 44c-25 26-65 28-91 4z"/>
</svg>
