<svg xmlns="http://www.w3.org/2000/svg" viewBox="0 0 1000 1000">
  <path transform="translate(0,850) scale(1,-1)" fill="currentColor" d="M999 678c-3 59-45 109-102 122l-195 49c-11 3-23 1-33-3l0 0c-10-5-17-14-22-24l-110-260c-3-9-5-18-3-27l0 0c1-10 6-19 13-26l71-71c10-10 14-22 14-35 0-10-3-21-10-29-16-21-38-46-69-77-31-31-56-53-76-69-9-7-20-10-30-10-13 0-25 4-35 14l-71 71c-6 6-14 10-23 13l0 0c-11 3-21 2-30-3l-259-109c-10-4-19-11-23-22l0 0c-6-11-8-23-4-33l48-196c15-57 63-99 122-102 12 0 27-1 41-1 130 0 356 35 553 232 199 199 234 424 234 555 0 15 0 29-1 41l0 0z m-299-528c-175-175-372-204-485-204-13 0-25 0-37 1-18 1-31 12-35 29l-39 155 193 81 49-49c28-28 64-42 103-42 30 0 63 10 88 31 23 17 51 42 85 76 34 34 57 62 77 85 20 27 30 58 30 89 0 36-14 75-42 102l-49 49 81 193 156-39c16-4 28-17 29-35 0-10 2-23 2-35-2-115-31-310-206-487z"/>
</svg>
