<svg xmlns="http://www.w3.org/2000/svg" viewBox="0 0 1000 1000">
  <path transform="translate(0,850) scale(1,-1)" fill="currentColor" d="M500 850c-276 0-500-223-500-500s224-500 500-500 500 224 500 500-223 500-500 500z m175-700c-7-37-21-50-34-51-29-3-51 19-79 38-44 29-69 47-112 75-50 32-18 50 10 79 8 8 136 124 139 136 0 1 0 5-3 8s-8 2-11 2c-4-2-75-47-210-140-21-13-38-20-54-20-18 0-52 10-78 19-31 10-56 16-55 32 2 9 14 18 37 28 146 63 243 106 291 125 138 57 168 68 187 68 4 0 13-2 19-6 5-3 6-9 7-14 2-5 2-13 2-19-7-79-40-270-56-360l0 0z"/>
</svg>
