<svg xmlns="http://www.w3.org/2000/svg" viewBox="0 0 1000 1000">
  <path transform="translate(0,850) scale(1,-1)" fill="currentColor" d="M813 457c0 14-3 27-9 39l0 0c0 0 0 0 0 0 0 0 0 0 0 0l0 0c-14 26-42 44-72 44h-220l82 219 0 0c3 7 5 16 5 23 0 28-17 53-45 64l-7 1-9 3-7 0h-143c-36 0-69-23-79-59l-118-387c-3-7-3-16-3-23 0-35 24-68 59-79l6-2 12-1 6 0h186l-104-368-3-18c0-17 9-35 21-45 11-12 25-18 41-18 19 0 41 10 51 29l334 531 0 0c10 15 16 31 16 47l0 0z m-325-375l56 197 2 6 1 12 0 6c0 46-37 82-82 82h-187l113 377h109l-73-199-3-7-3-13 0-8c0-45 36-82 82-82h218l-233-371 0 0z"/>
</svg>
