<svg xmlns="http://www.w3.org/2000/svg" viewBox="0 0 1000 1000">
  <path transform="translate(0,850) scale(1,-1)" fill="currentColor" d="M671 687h-581c-49 0-90-40-90-90v-268c32 0 60 27 62 59v127l637 0v-330h-637v83c-33 0-60-27-62-59v-107c0-49 40-90 90-90h581c48 0 89 40 89 90v495c0 50-39 90-89 90l0 0z m-496-612h-85c-15 0-28 13-28 28v22h113v-50z m175 0h-115v50h114v-50z m174 0h-114v50h114v-50z m175 28c0-15-14-28-28-28h-86v50h114c0 0 0-22 0-22z m-524 472h-113v22c0 15 13 28 28 28h85v-50z m175 0h-115v50h114v-50z m174 0h-114v50h114v-50z m175 0h-114v50h86c14 0 28-13 28-28v-22z m283 75c-10 6-22 4-32-3l-141-107c-25-21-30-58-10-84l47 35 94 71v-424l-96 72-47 36c-19-27-15-64 10-84l3-2 0 0 143-107c9-7 22-9 32-3 11 6 18 16 18 28v546c-3 11-9 22-21 26l0 0z m-798-278c6 6 9 13 9 22s-3 16-9 22-13 9-22 9-16-3-22-9-9-14-9-22 3-16 9-22 13-9 22-9 16 3 22 9z m148-150l170 102c8 5 14 16 14 26s-6 21-14 27l-170 101c-8 6-20 6-30 0-11-6-17-16-17-26v-205c0-12 6-20 17-26 8-5 20-5 30 1l0 0z m15 175l80-47-80-47v94z"/>
</svg>
