<svg xmlns="http://www.w3.org/2000/svg" viewBox="0 0 1000 1000">
  <path transform="translate(0,850) scale(1,-1)" fill="currentColor" d="M472 640h528v-99h-528v99z m0-318h528v-97h-528v97z m0-318h528v-97h-528v97z m-318 27c-19 0-39-7-52-22s-23-34-23-53 8-40 23-53c13-13 33-22 52-22 20 0 40 7 53 22 14 13 22 34 22 53s-7 40-22 53c-14 15-33 22-53 22z m3 259l-88 88-69-69 122-122c9-9 22-15 34-15 13 0 25 6 34 15l247 247-69 69-211-213z m0 316l-88 88-69-67 122-123c9-8 22-14 34-14 13 0 25 6 34 14l248 246-69 69c0 0-212-213-212-213z"/>
</svg>
