<svg xmlns="http://www.w3.org/2000/svg" viewBox="0 0 1000 1000">
  <path transform="translate(0,850) scale(1,-1)" fill="currentColor" d="M657 288c-23 14-51 24-78 31-26 8-52 12-75 12h0c-14 0-30-2-48-6-27-4-54-13-81-23-26-12-50-25-68-43-10-10-10-28 0-38l77-77c10-10 28-10 38 0 24 24 53 34 82 34 30 0 59-12 83-34 10-10 28-10 38 0l75 75c10 10 10 28 0 38-12 12-26 22-43 31z m-53-88c-29 22-64 32-100 32h0c-35 0-70-10-100-32l-36 38c3 2 6 3 9 5 19 10 44 19 67 25 24 6 47 10 62 10h0c9 0 22-1 37-4 22-5 47-12 69-22 10-5 20-11 29-15l-37-37 0 0z m78 296c-60 22-122 35-176 35h0c-54 0-116-12-178-34-60-22-119-54-160-95-11-11-11-28 0-39l26-26 35-35c21 20 21 52 2 73l-6 6c32 26 75 48 121 66 56 21 113 31 158 31h0c46 0 103-12 158-32 45-17 88-40 120-67l-36-36c-69 60-155 89-242 89-77 0-154-23-219-72-22-19-23-53-6-75l42 34c54 40 119 59 183 60 81 0 162-30 224-92 10-10 28-10 38 0l75 75c11 10 11 28 0 38-42 40-100 72-159 96z m245 0l-24-24c-113 103-256 155-399 155-142 0-285-52-398-155l-41 41c54 49 123 87 197 115 82 31 169 47 244 47h0c60 0 129-12 197-32 66-21 132-52 188-90 24-18 58-13 75 10l-41 31c-62 43-132 77-204 100-75 24-149 35-217 35h0c-82 0-175-17-263-51-88-34-170-82-235-146-10-10-10-28 0-38l79-79c11-11 28-11 39 0 105 104 242 157 380 157 139 0 275-53 381-157 11-11 28-11 39 0l41 41 35 35c-21 22-53 24-73 5z m-417-375c-41 0-75-34-75-75 0-42 34-75 75-75 42 0 75 33 75 75 0 41-33 75-75 75z m0-97c-11 0-22 10-22 22 0 11 11 22 22 22 12 0 22-11 22-22 0-12-10-22-22-22z"/>
</svg>
