<svg xmlns="http://www.w3.org/2000/svg" viewBox="0 0 1000 1000">
  <path transform="translate(0,850) scale(1,-1)" fill="currentColor" d="M646 377l-202 152c-10 8-23 9-35 3-12-5-19-17-19-29l0-306c0-13 7-25 19-29 12-6 25-5 35 3l203 153c9 5 13 16 13 26 0 10-6 21-14 27l0 0z m-190-114l0 172 113-86c2 1-113-86-113-86z m60-191l0 0-342 0c-59 0-108 49-108 107v339c0 59 49 107 108 107h172c0 35-28 65-64 66v0h-107c-97 3-175-75-175-172v-338c0-96 78-175 175-175h406v0c-2 37-29 65-65 66z m309 622h-404c0-35 28-65 63-66v0h343c58 0 107-49 107-107v-339c0-58-49-107-107-107h-173c0-35 28-65 64-66v0h107c96 0 175 78 175 175v338c0 94-78 172-175 172z"/>
</svg>
