<?xml version="1.0" encoding="UTF-8"?>
<svg id="Capa_1" data-name="Capa 1" xmlns="http://www.w3.org/2000/svg" viewBox="0 0 1080 1080">
  <defs>
    <style>
      .cls-1 {
        fill: #00aec7;
        stroke-width: 0px;
      }
    </style>
  </defs>
  <path class="cls-1" d="m1033.88,426.21c-24.86-100.77-88.59-168.02-192.96-195.88-86.87-23.19-174.92-23.16-261.9-.56-10.2,2.65-20.07,5.69-29.6,9.11-6.95,2.49-14.53,2.67-21.49.2-8.22-2.91-16.73-5.55-25.53-7.9-86.87-23.19-174.92-23.16-261.9-.56-92.21,23.96-157.42,79.05-186.38,167.65-21.32,65.24-29.81,157.38-12.99,235.14,26.37,121.88,69.24,166.85,179.32,209.89,91.77,31.21,192.09,32.16,294.1.31,5.01-1.56,9.89-3.16,14.64-4.8,7.23-2.48,15.1-2.25,22.18.61,2.49,1.01,5.03,2.01,7.59,3.02,91.77,31.21,192.1,32.16,294.1.31,102-31.85,151.15-76.82,180.66-192.74,18.9-74.25,18.5-149.46.15-223.82"/>
</svg>