<?xml version="1.0" encoding="UTF-8"?>
<svg id="Capa_1" data-name="Capa 1" xmlns="http://www.w3.org/2000/svg" viewBox="0 0 1080 1080">
  <defs>
    <style>
      .cls-1 {
        fill: #dfeaff;
        stroke-width: 0px;
      }
    </style>
  </defs>
  <path class="cls-1" d="m539.58,789.05c20.42,0,40.85.59,61.25-.1,107.7-3.61,215.65-7.05,318.39-48.37,89.46-35.98,128.21-95.41,128.55-191.35.38-111.44-33.91-167.88-126.79-207.35-16.42-6.98-33.3-13.45-50.5-17.31-200.82-45-402.62-40.75-604.71-12.8-34.53,4.77-68.27,14.47-101.09,27.5-93.27,37.01-132.35,96.5-132.44,201.53-.09,104.73,38.67,165.63,132.38,201.4,121.55,46.4,248.64,44.52,374.97,46.85"/>
</svg>