<?xml version="1.0" encoding="UTF-8"?>
<svg id="Capa_1" data-name="Capa 1" xmlns="http://www.w3.org/2000/svg" viewBox="0 0 1080 1080">
  <defs>
    <style>
      .cls-1 {
        fill: #8a9cd3;
        stroke-width: 0px;
      }
    </style>
  </defs>
  <path class="cls-1" d="m82.13,341.62c23.05-122.98,82.13-205.05,178.89-239.06,80.53-28.3,162.17-28.26,242.8-.68,7.27,2.49,14.36,5.26,21.26,8.3,9.76,4.31,20.93,4.23,30.69-.08,6.19-2.73,12.55-5.24,19.07-7.54,80.53-28.3,162.17-28.26,242.8-.68,85.49,29.24,145.94,96.48,172.79,204.6,19.77,79.62,27.63,192.06,12.04,286.97-14.38,87.48-34.05,142.49-68.57,183.65-11.4,13.59-15.61,31.81-11.79,49.13l29.15,131.95c6.84,30.96-29.41,53.01-53.76,32.71l-119.37-99.5c-12.83-10.7-29.41-15.7-46.04-14.15-54.66,5.11-111.31-3.74-168.52-27.25-2.02-.83-4.02-1.67-6-2.52-10.73-4.59-22.94-4.21-33.3,1.17-.23.12-.46.24-.69.36-.79.41-1.59.79-2.4,1.15-84.74,37.56-177.32,38.52-271.44-.16-94.56-38.87-140.13-93.75-167.48-235.22-17.52-90.62-17.15-182.4-.14-273.15"/>
</svg>