<?xml version="1.0" encoding="UTF-8"?>
<svg id="Capa_1" data-name="Capa 1" xmlns="http://www.w3.org/2000/svg" viewBox="0 0 1080 1080">
  <defs>
    <style>
      .cls-1 {
        fill: #9be1e9;
        stroke-width: 0px;
      }
    </style>
  </defs>
  <path class="cls-1" d="m99.69,255.01c34.35-120.38,124.48-198.52,288.15-221.39,88.16-12.32,176.74-12.51,265.47-4.45,172.73,15.68,278.9,82.98,317.71,211.58,45.79,151.7,44.21,305.17,1.66,457.26-11.22,40.12-29.79,75-55.67,104.39-25.6,29.07-35.33,68.85-27.22,106.72l22.2,103.7c7.09,33.13-31.45,56.73-57.74,35.35l-130.16-105.88c-24.84-20.2-56.55-30.15-88.44-27.35-78.96,6.94-158.08,5.22-237.17-4.56-158-19.54-254.7-89.28-293.62-206.8-25.22-76.17-29.71-153.77-29.85-231.76-.2-72.82,4.25-145.3,24.67-216.81"/>
</svg>