<?xml version="1.0" encoding="UTF-8"?>
<svg id="Capa_1" data-name="Capa 1" xmlns="http://www.w3.org/2000/svg" viewBox="0 0 1080 1080">
  <defs>
    <style>
      .cls-1 {
        fill: #9be1e9;
        stroke-width: 0px;
      }
    </style>
  </defs>
  <path class="cls-1" d="m1016.6,396c-23.99-128.01-85.49-213.44-186.21-248.84-83.83-29.46-168.8-29.42-252.73-.71-7.57,2.59-14.95,5.47-22.13,8.64-10.16,4.48-21.79,4.4-31.95-.09-6.44-2.84-13.06-5.46-19.86-7.85-83.82-29.46-168.8-29.42-252.73-.71-88.99,30.44-151.91,100.42-179.85,212.97-20.58,82.88-28.76,199.92-12.53,298.71,25.34,154.22,66.5,211.51,171.8,265.99.83.43,1.68.84,2.52,1.21,88.21,39.09,184.57,40.09,282.53-.17,2.07-.85,4.13-1.71,6.15-2.58,11.21-4.8,23.93-4.44,34.75,1.17.24.12.48.25.72.37.82.42,1.66.83,2.5,1.2,88.21,39.1,184.58,40.1,282.54-.17,98.43-40.46,145.86-97.58,174.33-244.84,18.24-94.32,17.85-189.86.15-284.32"/>
</svg>