<svg xmlns="http://www.w3.org/2000/svg" viewBox="0 0 1000 1000">
  <path transform="translate(0,850) scale(1,-1)" fill="currentColor" d="M946 337v-52c29 0 53 22 54 52v125c0 7-3 15-7 19-5 4-12 7-19 7h-84v103l-237 237h-397c-46 0-82-37-82-82v-97c1-28 25-52 54-52v149c0 16 13 28 28 28h359v-139c0-45 37-82 82-82h138v-65h-201c-7 0-15-3-19-7-5-4-8-12-8-19v-441c0-8 3-15 8-19 4-5 12-8 19-8h201v-19c0-16-13-28-28-28h-322c3 9 6 18 8 26 0 5 1 9 1 15 0 58-42 106-100 114-4 0-9 1-15 1-16 0-32-4-47-10-10 13-26 23-45 23h-58v159c-1 28-25 52-54 52v-212h-29c-31 0-58-25-58-58v-23c0-10 3-21 9-30-6-8-9-19-9-29v-24c0-30 25-57 58-57h141c7 0 15 2 22 4 16-11 35-20 56-23 4 0 9-2 14-2 24 0 46 8 64 20h366c45 0 82 36 82 82v19h84c7 0 15 3 19 8 5 4 8 11 8 19v231h0c-30 0-53-23-55-52v-153h-287v388h286v-98z m-249 270c-16 0-28 14-28 28v100l128-128c0 0-100 0-100 0z m-551-661l-3 2v24l3 3h119c1-10 3-21 6-29l-125 0 0 0z m128 83h-128l-3 3v24l3 3h141l3-3c-8-7-12-16-16-27l0 0z m164-50c-4-31-29-53-60-53-3 0-4 0-7 0l-3-26 3 26c-31 5-53 30-53 61 0 3 0 4 0 7 4 31 29 53 60 53 3 0 4 0 7 0 31-4 53-29 53-60 2-3 2-5 0-8z m-84 243l111-50c10-4 22-3 31 6 7 7 10 21 6 31l-50 110c-2 3-3 6-6 8l-327 326c-13 13-31 21-48 21-18 0-36-8-50-21-14-15-21-32-21-50 0-18 7-35 21-50l326-326c2-2 5-3 7-5l0 0z m-235 309l-60 60c-3 3-5 8-5 12 0 4 2 9 5 12 3 3 7 4 12 4 4 0 8-1 11-4l61-61-24-23 0 0z m60-15l225-225 20-41-42 19-225 225c0 0 22 22 22 22z m573-239c-5 4-11 5-17 5s-11-3-16-5c-4-5-6-11-6-17 0-6 3-11 6-16 5-4 10-6 16-6s12 3 17 6c4 5 5 10 5 16 2 6-1 12-5 17z m67 0c-4 4-10 5-16 5-6 0-12-3-16-5-5-5-6-11-6-17 0-6 3-11 6-16 4-4 10-6 16-6 6 0 12 3 16 6 5 5 6 10 6 16 2 6-1 12-6 17z m68 0c-5 4-10 5-16 5s-12-3-17-5c-4-5-5-11-5-17 0-6 3-11 5-16 5-4 11-6 17-6s11 3 16 6c4 5 6 10 6 16 1 6-2 12-6 17z m-135-71c-5 4-11 6-17 6s-11-3-16-6c-4-4-6-10-6-16 0-6 3-12 6-16 5-5 10-6 16-6s12 3 17 6c4 4 5 10 5 16 2 6-1 12-5 16z m67 0c-4 4-10 6-16 6-6 0-12-3-16-6-5-4-6-10-6-16 0-6 3-12 6-16 4-5 10-6 16-6 6 0 12 3 16 6 5 4 6 10 6 16 2 6-1 12-6 16z m68 0c-5 4-10 6-16 6s-12-3-17-6c-4-4-5-10-5-16 0-6 3-12 5-16 5-5 11-6 17-6s11 3 16 6c4 4 6 10 6 16 1 6-2 12-6 16z m-152-65c-6 0-11-3-16-6-4-4-6-10-6-16 0-6 3-12 6-16 5-4 10-6 16-6s12 3 17 6c4 4 5 10 5 16 0 6-3 12-5 16-5 5-11 6-17 6z m68 0c-6 0-12-3-16-6-5-4-6-10-6-16 0-6 3-12 6-16 4-4 10-6 16-6 6 0 12 3 16 6 5 4 6 10 6 16 0 6-3 12-6 16-4 5-10 6-16 6z m68 0c-6 0-12-3-17-6-4-4-5-10-5-16 0-6 3-12 5-16 5-4 11-6 17-6s11 3 16 6c4 4 6 10 6 16 0 6-3 12-6 16-5 5-9 6-16 6z m-433 368c-6-2-10-3-14-3-9 0-17 3-25 7-9 5-17 14-22 22l-45-31c11-14 24-27 39-36 8-6 19-11 31-14v-26h54v29c0 0 0 0 0 0 15 6 29 15 40 27 10 12 19 29 19 48 0 12-3 25-11 36-8 13-22 22-33 28-12 6-24 8-34 10-12 1-24 4-31 7-3 2-6 3-7 5-2 1-2 1-3 4 0 2 0 3 0 5 0 4 1 10 3 11 3 5 7 8 11 9 5 2 11 3 18 3 9 0 18-3 25-6 7-4 13-9 18-16l47 26c-9 17-24 28-39 37-7 5-14 8-23 9v32h-54v-33c-5-2-8-3-12-5-12-4-24-13-33-23-11-14-16-30-16-46 0-6 2-13 3-19 3-10 9-21 16-28 12-10 24-16 36-19 11-3 22-5 31-6 7-1 14-3 20-6 6-3 9-6 10-7 2-3 2-5 2-6 0-3-2-7-6-13-1-5-9-11-15-12l0 0z m264-122h202v-55h-202v55z"/>
</svg>
