<svg xmlns="http://www.w3.org/2000/svg" viewBox="0 0 1000 1000">
  <path transform="translate(0,850) scale(1,-1)" fill="currentColor" d="M497 694h-497v-65h435c34 2 62 30 62 65z m134-144c50 0 91 34 106 78h219v65h-219c-15 45-56 78-106 78-62 0-110-50-110-111-2-60 48-110 110-110z m0 157c25 0 46-20 46-45 0-25-21-46-46-46-25 0-46 21-46 46 0 25 21 45 46 45z m-413-373c50 0 91 34 106 78h135c0 35-28 63-62 65h-73c-15 45-56 77-106 77-50 0-91-33-106-77h-112v-65h112c13-46 56-78 106-78z m0 156c25 0 45-21 45-46 0-25-20-45-45-45-25 0-46 20-46 45-1 25 19 46 46 46z m-218-238h347v-65h-347v65z m935-50h-53c-11 0-22-6-28-17l-45-79c-6-10-6-22 0-32l26-46-41-24-26 46c-6 10-16 16-28 16h-88c-12 0-23-6-28-16l-27-46-41 24 26 46c6 10 6 22 0 32l-45 79c-6 11-16 17-28 17h-53v47h53c12 0 22 5 28 16l45 79c6 10 6 22 0 33l-26 45 41 24 27-46c5-10 16-16 28-16h88c12 0 22 6 28 16l26 46 41-24-26-45c-6-11-6-23 0-33l45-79c6-11 17-16 28-16h24c34 1 62 30 62 64h-66l-27 47 32 58c9 16 3 35-11 44l-97 56c-8 4-17 6-25 3-9-3-15-8-20-15l-33-57h-50l-34 57c-5 7-12 13-19 15s-18 1-25-3l-97-56c-17-9-21-30-12-44l32-58-26-47-66 0c-9 0-18-3-24-9s-9-14-9-23v-112c0-9 3-17 9-23s15-9 24-9h66l26-47-32-58c-5-7-6-16-3-25s7-14 15-19l97-56c16-9 35-3 44 12l34 58h50l33-58c9-16 30-21 45-12l97 56c7 5 13 12 14 19 3 9 2 18-3 25l-32 58 27 47h66c9 0 17 3 23 9s9 14 9 23v90c-34 0-60-25-65-57l0 0z m-241 135c-62 0-110-50-110-110 0-62 50-111 110-111 62 0 110 50 110 111 2 60-48 110-110 110z m0-158c-25 0-45 21-45 46 0 25 20 46 45 46 25 0 46-21 46-46 0-25-21-46-46-46z"/>
</svg>
