<svg xmlns="http://www.w3.org/2000/svg" viewBox="0 0 1000 1000">
  <path transform="translate(0,850) scale(1,-1)" fill="currentColor" d="M854 685l-76 77c-7 7-19 13-31 13h-160v32c0 12-5 22-13 31s-20 12-31 12h-189c-11 0-22-4-30-13s-14-19-14-31v-219h-20c-53 0-97-40-103-93l-53-531 0-10c0-56 45-103 103-103h425c57 0 103 47 103 103l0 10-55 531c-6 53-50 93-103 93h-20v101h142l65-64c18-18 44-18 62 0 15 17 15 44-2 61z m-455 78h101v-175h-101c0 0 0 175 0 175z m207-261c9 0 16-6 16-15l55-531 0-2c0-8-8-16-17-16h-423c-9 0-16 8-16 16l0 2 54 531c2 9 7 15 16 15l315 0 0 0z m-266-334c0-61 48-109 109-109 60 0 108 48 108 109 0 60-108 195-108 195s-109-135-109-195z"/>
</svg>
