<svg xmlns="http://www.w3.org/2000/svg" viewBox="0 0 1000 1000">
  <path transform="translate(0,850) scale(1,-1)" fill="currentColor" d="M365 187v292c0 11-5 21-12 27-7 7-18 12-26 12h-134c-11 0-21-5-27-12-7-7-12-18-12-27v-292h77v81h57v-81c0 0 77 0 77 0z m-134 159v95h57v-95h-57z m346-78c10 0 20 4 26 11 7 8 12 18 12 27v173c0 11-5 21-12 27-7 7-18 12-26 12h-134c-11 0-21-5-27-12-7-7-12-18-12-27v-292h77v81c0 0 96 0 96 0z m-96 173h57v-95h-57v95z m347-173c10 0 21 4 26 11 8 8 12 18 12 27v173c0 11-4 21-12 27-7 7-17 12-26 12h-134c-10 0-20-5-26-12-8-7-12-18-12-27v-292h76v81h96z m-97 173h57v-95h-57v95z m62 409h-655c0-41 33-75 74-76l131 0h450c72 0 129-59 131-131v-586c0-72-59-129-131-131h-586c-72 0-129 59-130 131l0 577c-2 41-36 73-77 73l0-73v-577c0-114 93-207 207-207h586c114 0 207 93 207 207v586c0 114-93 207-207 207z"/>
</svg>
