<svg xmlns="http://www.w3.org/2000/svg" viewBox="0 0 1000 1000">
  <path transform="translate(0,850) scale(1,-1)" fill="currentColor" d="M291 104c-19 0-35-16-35-35v-185c0-19 16-36 35-36s36 17 36 36v187c0 19-17 33-36 33z m356 125h-32c-6 0-11 5-11 11 0 16 8 31 21 42 10 9 21 18 29 28h9c74 0 134 61 134 134v110c-1 164-134 296-297 296-9 0-19 0-28-1-78-8-145-45-193-100-47-55-76-127-76-203v-102c0-20 18-38 38-38 21 0 38 18 38 38v102c0 57 23 111 58 153 35 41 85 69 141 73 7 0 15 2 22 2 60 0 116-25 156-65 40-40 65-94 65-156v-110c0-19-9-36-24-46 3 13 5 28 5 43v95c0 56-23 106-59 143-37 37-87 59-143 59-4 0-9 0-15 0-53-3-101-30-133-66-34-37-53-87-53-140l0-90c0-20 3-41 8-60 6-18 25-28 45-24 17 6 27 25 23 45-4 11-6 25-6 39l0 90c0 35 13 69 35 94 23 25 52 41 87 43 3 0 6 0 9 0 37 0 69-15 93-39 23-23 38-55 38-92v-96c0-19-4-37-12-53h-107c-21 0-38-17-38-38 0-21 17-38 38-38h44c-15-21-22-44-22-71 0-44 35-79 79-79h34c40 0 75-16 100-41 25-25 41-61 41-100v-134c0-19 16-36 36-36s35 17 35 36v134c0 114-94 208-212 208l0 0z m-229 108c-15 12-37 9-49-6-12-15-9-37 6-49 13-10 21-26 21-41v0c0-6-5-10-11-10h-32c-116 0-210-94-212-212v-134c0-19 16-35 36-35s35 16 35 35v134c0 40 16 75 41 100 25 25 60 41 100 41h32c44 0 80 36 80 80v0c0 38-18 73-47 97l0 0z m291-233c-19 0-35-16-35-35v-185c0-19 16-36 35-36s35 17 35 36v187c0 19-16 33-35 33z"/>
</svg>
