<svg xmlns="http://www.w3.org/2000/svg" viewBox="0 0 1000 1000">
  <path transform="translate(0,850) scale(1,-1)" fill="currentColor" d="M179 540c6-22 30-34 53-27 193 59 386 99 584 128 22 3 36 27 27 50-18 50-27 74-44 124-8 20-28 34-50 32-195-23-383-59-571-113-25-7-40-35-34-59 15-54 21-81 35-135l0 0z m818-146c-16 47-23 72-40 119-7 22-28 37-47 34-304-38-600-112-881-235-20-10-32-35-27-58 10-57 16-86 27-144 5-25 28-36 50-25 286 130 587 212 896 262 21 2 29 25 22 47z m-40-203c-7 24-29 38-50 36-189-42-375-90-558-153-24-9-37-33-31-56 14-53 22-81 36-134 8-25 36-38 62-28 184 65 369 122 559 168 18 4 27 25 21 47-17 50-24 73-39 120z"/>
</svg>
