<svg xmlns="http://www.w3.org/2000/svg" viewBox="0 0 1000 1000">
  <path transform="translate(0,850) scale(1,-1)" fill="currentColor" d="M997 297c-4 7-13 13-22 13h-98l-93 228c-5 9-13 15-24 15h-113c0-26 21-49 47-50l50 0 21-50h-71v-50h91l9-22h-67v-50h88l9-22h-547c0-27 20-49 47-50l605 0-77-121c-2 0-2 0-3 0-22 0-40-6-55-13-10-6-19-13-26-19-11-10-19-19-28-24-9-5-18-8-33-8-13 0-22 3-29 7-6 3-12 7-18 13-8 9-19 19-35 30-15 10-35 16-59 16-22 0-39-6-54-13-10-6-19-14-27-20-10-10-19-19-28-23-8-6-17-9-32-9-13 0-22 3-29 7-6 3-12 8-18 14-9 8-19 19-35 29-15 10-36 16-59 16-22 0-40-6-55-13-10-6-19-13-26-19-10-10-19-19-28-24-9-6-18-8-32-8-14 0-22 2-30 7-1 1-3 1-4 3l-28 173h171c0 27-21 49-48 50l-97 0 36 94h217c11 0 19 6 24 15l34 84h204c0 26-22 49-48 50l-5 0v49h-50v-49h-32v122h-50v-122h-37c-10 0-19-6-23-15l-33-85h-22v107c0 8-3 15-10 19-6 5-13 6-22 5l-99-25c-10-3-19-13-19-24v-82h-47c-10 0-19-6-23-16l-48-128h-2c-8 0-15-3-20-9-4-6-7-13-5-19l23-152c-13 8-31 12-50 12v-50c13 0 22-3 29-7 6-3 12-7 18-13 9-9 19-19 35-30 15-10 36-16 59-16 22 0 40 6 55 13 10 6 19 14 26 19 10 11 19 20 28 24 9 6 18 9 32 9 14 0 22-3 30-8 6-3 12-7 17-13 9-9 20-19 36-29 14-11 35-16 59-16 22 0 39 5 54 13 10 6 19 13 26 19 11 10 20 19 28 23 9 6 18 9 33 9 13 0 22-3 29-7 6-3 12-7 18-13 9-9 19-19 35-30 15-10 35-16 59-16 22 0 40 6 54 13 11 6 19 14 27 19 10 11 19 20 28 24 9 6 17 9 32 9 13 0 22-3 30-8 5-2 11-7 17-13 9-9 19-19 35-29 15-10 36-16 59-16v50c-13 0-22 3-29 7-6 3-12 7-18 13-9 9-19 19-35 30-2 1-4 3-6 3l94 144c8 11 8 20 3 29z m-773 219l50 13v-76h-50l0 63 0 0z m370-62h66v-50h-66v50z m-98 0h66v-50h-66v50z m132-72h66v-50h-66v50z m-99 0h67v-50h-67v50z m-94 0h65v-50h-66v50z m-104 0h66v-50h-66v50z m-99 0h67v-50h-67v50z m527-208c6 0 13 3 18 7s7 10 7 18-3 13-7 17-11 8-18 8-13-3-18-8c-4-4-7-10-7-17s3-14 7-18c6-4 12-7 18-7z m-49 7c5 4 8 10 8 18s-3 13-8 17-10 8-17 8-14-3-18-8c-4-4-7-10-7-17s3-14 7-18c4-4 10-7 18-7s13 3 17 7z m-66 0c5 4 8 10 8 18s-3 13-8 17-10 8-17 8c-6 0-14-3-18-8-5-4-7-10-7-17s2-14 7-18c4-4 10-7 18-7 5 0 11 3 17 7z"/>
</svg>
