<svg xmlns="http://www.w3.org/2000/svg" viewBox="0 0 1000 1000">
  <path transform="translate(0,850) scale(1,-1)" fill="currentColor" d="M122 66c-19 0-35 16-35 36v308c0 19 16 36 35 36h47l27 85h-74c-68 0-122-54-122-122v-309c0-68 54-122 122-122h162c-5 12-7 25-7 38 0 11 1 21 4 31l0 0 4 16-163 3 0 0z m805 319v25c0 68-55 122-123 122h-100c15-11 28-25 37-42l0 0c0 0 0 0 0-2 0 0 0 0 0-1l0 0c8-13 11-28 12-43h49c19 0 35-16 35-35v-309c0-19-16-35-35-35h-250l-55-86h307c68 0 123 55 123 123v25c42 16 73 57 73 105v46c0 50-31 91-73 107z m-239 6c9 12 14 27 14 40 0 12-3 22-9 32l0 0c0 0 0 0 0 0 0 0 0 0 0 0l0 0c-12 24-37 39-64 39h-151l57 151 0 0c3 7 5 15 5 21 0 25-15 47-40 57l-7 1-8 5-7 0h-107c-33 0-61-21-69-52l-89-292c-1-8-3-15-3-21 0-31 21-60 52-69l6-1 9-2 5 0h130l-75-266h0l-3-16c0-16 7-33 19-42 10-8 24-14 38-14 18 0 38 10 47 26l9 14 241 389 0 0 0 0z m-298-372l0 0 0 0 0 0 0 0 0 0z m84 191l23 83 2 6 1 8 0 6c0 40-32 72-72 72h-128l79 265h62l-51-137-2-7-3-9 0-7c0-40 33-72 72-72h146l-129-208 0 0z"/>
</svg>
