<svg xmlns="http://www.w3.org/2000/svg" viewBox="0 0 1000 1000">
  <path transform="translate(0,850) scale(1,-1)" fill="currentColor" d="M927 479v25c0 68-55 123-123 123h-682c-68 0-122-55-122-123v-308c0-68 54-122 122-122h682c68 0 123 54 123 122v25c42 16 73 57 73 106v45c0 50-31 91-73 107z m-87-36v-249c0-19-16-35-36-35h-682c-19 0-35 16-35 35v309c0 19 16 35 35 35h682c20 0 36-16 36-35 0 1 0-60 0-60z m-352 44h-294c-12 0-22-5-31-13-7-8-13-20-13-31v-187c0-12 4-22 13-31 8-7 19-13 31-13h294c12 0 22 4 31 13 8 7 13 19 13 31v187c0 11-4 22-13 31-9 8-19 13-31 13z"/>
</svg>
