<svg xmlns="http://www.w3.org/2000/svg" viewBox="0 0 1000 1000">
  <path transform="translate(0,850) scale(1,-1)" fill="currentColor" d="M585 584c0 9-3 18-10 23l-234 233c-9 9-23 12-35 7s-21-18-21-31v-167c2-34 31-62 65-62v151l154-154-152-155v61c-2 34-31 62-65 62v-123l-234 233-46-46 265-266-266-266 46-46 233 234v-388c0-13 8-25 21-31s26-3 35 7l71 71 3 3 44 44c-25 25-65 25-90 3l-17-18v309l154-154-28-28-44-44c25-25 65-25 90-3l50 50c5 6 10 14 10 23 0 9-3 18-10 24l-209 210 210 210c6 6 10 15 10 24l0 0z m171 45l-47-44c56-58 91-138 91-226 0-91-37-172-96-232l48-46c70 71 114 169 114 278-1 104-42 200-110 270z m91 93l-47-45c79-83 128-195 128-318 0-127-51-240-134-324l47-45c94 94 153 225 153 369 0 140-56 269-147 363l0 0z m-182-184l-49-44c34-35 53-84 53-135 0-55-22-105-57-141l47-46c47 47 76 113 76 185 0 71-26 134-70 181l0 0z"/>
</svg>
