<svg xmlns="http://www.w3.org/2000/svg" viewBox="0 0 1000 1000">
  <path transform="translate(0,850) scale(1,-1)" fill="currentColor" d="M927 777c-49 48-114 73-178 73h0c-65 0-128-25-178-73l-105-105-50-50c28-28 72-28 102-3l104 105c35 35 81 53 127 53h0c45 0 91-18 125-52 35-34 51-81 51-125v0c0-46-18-91-51-125l-208-210c-34-36-81-52-125-52h0c-29 0-60 8-87 24l-54 47c-26-31-25-77 9-105 41-25 87-38 132-38h0c65 0 128 25 178 74l208 206c48 48 73 113 73 178v0c0 64-25 129-73 178l0 0z m-452-703l-97-98c-34-35-81-51-125-51h0c-46 0-91 18-125 51l0 0v0c-37 34-54 80-54 126v0c0 45 17 91 51 125l209 208c34 36 81 52 125 52h0c45 0 91-18 125-52 7-7 15-16 20-26l-42-43c-3-3-6-6-10-7-5 9-11 18-20 25l0 0c-20 20-48 31-75 31h0c-26 0-54-11-75-31l0 0-205-207 0 0c-21-21-31-49-31-75v0c0-27 10-55 31-75l0 0c0 0 0 0 0 0 20-21 48-31 75-31h0c26 0 54 10 75 31l51 51 51 51c-27 28-73 27-102 2l-53-53c-8-7-15-9-24-10-9 0-16 3-23 10-8 7-9 15-11 24 0 8 3 16 11 23l208 209c3 3 6 6 11 7 4-9 10-17 19-25l0 0c20-20 48-31 75-31h0c26 0 54 11 75 31l209 208 0 0c20 20 30 48 30 75v0c0 26-10 54-30 75l0 0c-21 20-49 30-75 30h0c-27 0-55-10-75-30l0 0-36-36-51-51c28-28 72-28 101-3l37 37c7 7 15 8 24 10 8 0 16-3 23-10 7-8 9-15 10-24 0-9-3-16-10-23l-113-114c-7 9-13 18-22 25-49 49-113 74-178 74h0c-65 0-128-25-178-74l-207-206c-49-48-74-113-74-177v0c0-65 25-129 74-179l0 0c0 0 0 0 0 0 0 0 0 0 0 0l0 0c48-48 113-73 178-73h0c64 0 127 25 177 73l98 98 50 50c-28 28-74 28-102 3l0 0z"/>
</svg>
