<svg xmlns="http://www.w3.org/2000/svg" viewBox="0 0 1000 1000">
  <path transform="translate(0,850) scale(1,-1)" fill="currentColor" d="M931 710c0 0-2 2-2 3s-1 0-2 2c-30 28-68 45-112 45h-13v90h-81v-91h-443v91h-81v-91h-13c-34 0-65-10-90-28-42-29-70-78-70-134v-94c0 0 0 0 0 0v-491c0-90 72-162 161-162h630c89 0 162 72 162 162v491c0 0 0 0 0 0v94c0 44-18 84-46 113z m-35-698c0-44-37-81-81-81h-630c-44 0-81 37-81 81v451h792l0-451 0 0z m-658 13h174c10 0 20 4 28 12s12 17 12 28v175c0 10-5 20-12 28s-18 11-28 11h-174c-10 0-20-4-28-11s-11-18-11-28v-175c0-11 4-21 11-28s18-12 28-12z m40 175h94v-94h-94v94z"/>
</svg>
