<svg xmlns="http://www.w3.org/2000/svg" viewBox="0 0 1000 1000">
  <path transform="translate(0,850) scale(1,-1)" fill="currentColor" d="M121 446c0 0 0 0 0 0l150-150c3-3 6-5 10-8l110-50c2-3 5-7 8-9 7-7 19-13 30-13s23 5 31 13c8 8 14 20 14 31s-5 22-14 31c-4 5-8 8-14 9l-49 104c-1 3-4 8-7 11l-246 245c-16 17-38 25-60 25-22 0-43-8-60-25l0 0c-15-16-24-38-24-60 0-22 9-43 25-60l96-94c0 0 0 0 0 0z m95 50l124-124 22-50-50 22-124 124c2 1 28 28 28 28z m-169 69l24 23c-5 5-6 9-6 14 0 4 1 10 6 13 4 4 8 6 13 6 4 0 10-2 13-6l72-72-28-28-72 72-22-22z m918-96c-22 22-52 35-86 35h-439c-18 0-33-14-33-32s15-32 33-32h439c31 0 56-25 56-56v-249c0-31-25-56-56-56h-694c-31 0-56 25-56 56v227c0 17-14 32-32 32s-32-15-32-32v-227c0-33 13-63 35-85 22-22 52-35 85-35h694c34 0 64 13 86 35 22 22 35 52 35 85v249c0 34-13 65-35 85l0 0z m-178-240c7 8 13 20 13 31s-6 22-13 31c-8 8-19 13-31 13s-22-4-31-13c-7-7-13-19-13-31s4-22 13-31c7-7 19-13 31-13s22 5 31 13z m-162 0c7 8 13 20 13 31s-4 22-13 31c-7 8-19 13-31 13s-22-4-31-13c-7-7-13-19-13-31s4-22 13-31c8-7 19-13 31-13s24 5 31 13z"/>
</svg>
