<svg xmlns="http://www.w3.org/2000/svg" viewBox="0 0 1000 1000">
  <path transform="translate(0,850) scale(1,-1)" fill="currentColor" d="M994 679c-6 9-16 15-28 15h-759v34c0 46-36 82-82 82h-125v-67h127c7 0 13-6 13-14v-470c37 0 66 28 67 65l0 73h128v-185h-161v0c-62-2-112-53-112-115 0-63 51-115 115-115h20c15-50 60-86 116-86 55 0 102 36 116 86l28 0c36 2 65 31 65 68h-93c-14 50-60 87-116 87-54 0-101-37-116-87h-20c-27 0-48 21-48 47 0 27 21 47 48 47h607c15 0 26 9 32 22l183 486c3 5 1 17-5 27l0 0z m-681-614c30 0 53-24 53-53 0-30-23-53-53-53-29 0-53 23-53 53-1 29 24 53 53 53z m22 397h-128v163h128v-163z m252-253h-183v185h211l-28-185 0 0z m37 253h-221v163h244l-23-163z m136-253h-104l26 185h147l-69-185z m96 253h-163l23 163h200c2 0-60-163-60-163z m-196-328c-67 0-120-55-120-121 0-67 54-120 120-120 68 0 121 54 121 120 0 66-53 121-121 121z m0-175c-29 0-53 23-53 53 0 29 24 53 53 53 30 0 53-24 53-53 0-30-23-53-53-53z"/>
</svg>
