<svg xmlns="http://www.w3.org/2000/svg" viewBox="0 0 1000 1000">
  <path transform="translate(0,850) scale(1,-1)" fill="currentColor" d="M996 678c-5 7-14 12-22 12h-771v39c0 42-34 75-75 75h-128v-54h127c11 0 20-9 20-21v-505c30 0 53 23 55 51v46l142-2v-120h-169v0c-59-2-106-50-106-109 0-61 49-109 109-109h25c12-50 57-88 112-88 54 0 100 36 112 88h47c29 1 51 25 51 54h-98c-12 50-58 89-112 89-55 0-100-37-112-89h-25c-31 0-54 25-54 55 0 31 25 54 54 54h612c12 0 22 8 25 18l184 488c3 10 1 21-3 28l0 0z m-681-607c34 0 60-27 60-61 0-34-26-60-60-60-34 0-61 26-61 60 0 33 27 61 61 61z m31 306l-143 1v94h143v-95z m0 148h-143v109h143v-109z m251-325h-197v121l215 0c0 0-18-121-18-121z m25 175l-222 2v95h237c0-1-15-97-15-97z m-222 150v109h260l-16-109h-244z m371-325h-118l18 119 145-1-45-118 0 0z m64 174l-157 1 15 97h181l-39-98 0 0z m58 151h-193l16 109h218c0 0-41-109-41-109z m-228-400c-63 0-115-51-115-115 0-63 52-114 115-114 63 0 114 51 114 114 0 64-51 115-114 115z m0-177c-34 0-61 27-61 61 0 34 27 60 61 60 34 0 60-26 60-60 0-33-26-61-60-61z m0 84c-6 0-12-3-16-7-5-4-8-10-8-16s3-12 8-16c4-5 10-8 16-8 6 0 12 3 16 8 4 4 7 10 7 16s-3 12-7 16c-4 4-10 7-16 7z m-350-45c6 0 12 3 16 7 4 4 7 10 7 16s-3 12-7 17c-4 4-10 7-16 7s-12-3-16-7c-5-5-8-11-8-17s3-12 8-16c4-4 10-7 16-7z"/>
</svg>
