<svg xmlns="http://www.w3.org/2000/svg" viewBox="0 0 1000 1000">
  <path transform="translate(0,850) scale(1,-1)" fill="currentColor" d="M591 229l-213 0c-10 0-21-7-24-16l-10-28-41-94h-31l25 87c2 3 2 6 2 9l-9 103-50-5 3-39-39 7-135 75-4 1-18 6v28l47 27c2 1 5 3 6 4l54 58c8 7 9 17 5 27l0 0c-2 3-7 18-15 36-1 3-1 6-3 9l100-80 31 38-145 118c-6 4-15 7-23 4-7-1-13-7-16-14-3-9-4-16-4-24 0-12 1-25 4-37 5-20 14-41 18-54l-41-43-56-32c-5-4-9-13-9-22v-59c0-10 7-20 16-23l33-12 136-75c3-2 5-2 8-3l54-10 0-9-32-115c-2-7 0-16 4-22s12-10 19-10h80c10 0 19 6 23 14l47 111 0 1 5 12h242c5 28-17 50-44 51l0 0z m-435 208c-4-5-7-10-7-18s3-13 7-17 10-8 18-8 13 3 17 8 8 10 8 17-3 13-8 18-10 7-17 7-14-3-18-7z m844 160c0 18-7 35-21 49-13 13-30 20-48 20-18 0-35-7-49-20-10-11-10-25 0-36s25-10 36 0c4 5 9 6 13 6 4 0 10-1 13-6 5-4 6-8 6-13 0-4-1-10-6-13l-28-28c-34 32-79 51-129 51h-413c-17 0-31-1-46-4-19-4-37-10-54-18l-43-22c12-25 43-34 66-22 13 6 27 11 41 13 12 3 25 3 37 3h413c39 0 74-16 99-41 25-25 41-60 41-98 0-62-40-115-96-133l0 0c-10-3-17-11-17-23v-62l-43-115h-19l22 90c2 7 0 15-4 21-5 6-12 8-19 8-11 0-18 3-28 11-14 10-27 28-34 44-5 7-8 15-9 19-2 3-2 4-3 6l0 1 0 0-1 0 1 0-47-16c0-1 9-28 26-54 9-13 21-28 36-40 7-6 17-12 28-15l-24-95c-1-8 0-15 5-21 4-6 11-9 19-9h67c11 0 19 6 24 17l51 135c2 3 2 6 2 9v48c66 30 113 96 113 174 0 36-10 70-28 100l31 31c12 13 19 30 19 48l0 0z"/>
</svg>
