<svg xmlns="http://www.w3.org/2000/svg" viewBox="0 0 1000 1000">
  <path transform="translate(0,850) scale(1,-1)" fill="currentColor" d="M500 724c-125 0-225-102-225-225 0-125 102-225 225-225 125 0 225 101 225 225 0 123-101 225-225 225z m119-346c-31-31-72-50-119-50-47 0-88 19-119 50-31 31-50 72-50 119 0 47 19 88 50 119 31 31 72 50 119 50 47 0 88-19 119-50 31-31 50-72 50-119 0-45-19-88-50-119z m60-178l17 29c6 11 16 20 26 23l31 11c43 16 71 58 71 102 0 6 0 13-2 19l-6 32c0 3-1 6-1 9 0 9 3 18 7 27l16 29c11 16 15 35 15 54 0 31-13 62-38 83l-25 22c-9 7-16 19-18 31l-6 32c-7 50-53 88-104 88h-34c-12 0-24 5-34 12l-25 22-17-22 17 22c-20 16-45 25-69 25-25 0-50-9-69-25l-25-22c-10-7-22-12-34-12h-34c-53 0-97-38-106-89l-5-33c-2-12-9-23-18-31l-25-22c-25-20-38-51-38-82 0-19 4-37 14-55l17-29c4-7 7-16 7-26 0-3 0-6-2-9l-5-33c-2-5-2-13-2-19 0-44 28-85 71-101l31-12c11-4 20-12 26-22l16-29c19-34 56-55 94-55 12 0 25 2 37 6l31 12c6 1 12 3 18 3 5 0 11-2 17-3l31-12c12-4 25-6 37-6 40 2 75 22 95 56l0 0z m-32 57l-16-29c-9-16-27-26-44-26-6 0-12 1-18 2l-32 14c-12 4-25 6-37 6-12 0-25-2-37-6l-31-12c-7-3-13-3-19-3-17 0-35 9-44 26l-16 30c-13 22-32 38-56 47l-32 10c-21 8-34 27-34 49 0 3 0 6 1 9l6 32c2 6 2 12 2 19 0 19-5 37-15 54l-16 30c-5 9-7 18-7 26 0 15 5 30 19 40l25 22c19 16 32 38 36 63l6 33c3 25 25 42 50 42h34c25 0 50 9 69 25l25 22c11 8 22 12 34 12 12 0 24-4 34-12l25-22c19-16 44-25 69-25h34c25 0 47-17 51-42l6-33c5-25 18-47 37-63l25-22c12-10 19-25 19-40 0-8-3-17-7-26l-16-30c-9-16-15-35-15-54 0-6 0-13 1-19l6-32c0-3 2-6 2-9 0-22-14-41-34-49l-31-12c-27-8-46-25-59-47l0 0z m293-272l-116 200-27 47c-26-14-35-50-20-76l80-141-60 16c-7 1-15 1-22-3-6-4-12-10-13-18l-16-60-83 143c-16 25-48 34-75 17l27-45 116-200c6-11 16-15 28-14s20 11 23 21l27 100 100-26c10-3 22 1 29 10 6 7 8 19 2 29z m-603 108l-83-143-16 62c-1 7-7 13-13 17-6 5-15 5-22 3l-60-16 82 143c13 26 4 59-22 75l-28-49-115-200c-6-10-4-22 2-31 7-8 19-13 29-10l100 27 27-100c3-11 11-20 23-21 12-2 22 4 28 13l115 199 28 48h0c-27 17-59 8-75-17z m156 401l-43 43-40-40 83-82 119 119-40 40-79-80z"/>
</svg>
