<svg xmlns="http://www.w3.org/2000/svg" viewBox="0 0 1000 1000">
  <path transform="translate(0,850) scale(1,-1)" fill="currentColor" d="M999 779c0 14-8 25-20 30s-25 1-35-7l-190-190c-22-25-22-63 3-88l43 42 135 136 0-152-426-426c-22-25-22-64 3-89l42 43 436 435c6 6 9 15 9 22 1 3 0 244 0 244z m-608-773l-41-41-129 131-156 156 0 152 263-263c12-12 32-12 46 0l314 315 3 3c22 25 22 63-3 88l-42-43h0l-296-295-296 295c-8 9-23 12-35 8-12-6-19-18-19-30l2-244c0-9 2-16 8-22l165-164 153-154c6-5 15-8 22-8 9 0 16 3 22 8l60 62c0 0 0 0 0 0l3 3c22 25 22 64-3 89 2-3-41-46-41-46z"/>
</svg>
