<svg xmlns="http://www.w3.org/2000/svg" viewBox="0 0 1000 1000">
  <path transform="translate(0,850) scale(1,-1)" fill="currentColor" d="M500 850c-276 0-500-223-500-500 0-276 224-500 500-500 277 0 500 224 500 500 0 277-223 500-500 500z m294-794c-75-75-179-122-294-122-115 0-219 47-294 122-75 75-122 179-122 294 0 115 47 219 122 294 75 75 179 122 294 122 115 0 219-47 294-122 75-75 122-179 122-294 0-115-47-219-122-294z m-265 429c-7 8-19 12-29 12-12 0-22-4-29-12l-172-172c-12-11-17-31-9-45s22-27 39-27h343c18 0 32 11 40 27 6 16 3 34-9 45-3 0-174 172-174 172z"/>
</svg>
