<svg xmlns="http://www.w3.org/2000/svg" viewBox="0 0 1000 1000">
  <path transform="translate(0,850) scale(1,-1)" fill="currentColor" d="M785 850c-45 0-85-28-103-66-35 40-88 66-147 66h-376c-31 0-57-25-57-57v-805c0-31 25-57 57-57h16v-52c0-7 3-16 9-22s13-7 22-7h579c62 0 112 50 112 112h0v776c2 62-50 112-112 112l0 0z m-622-857v795h372c39 0 74-16 99-41 25-25 41-60 41-98v-658l-512 2 0 0z m622-81h-548v20h498v31c0 28 24 52 52 52 4 0 9 0 12-2 17-4 33-19 36-37 2-4 2-8 2-11 0-31-24-53-52-53l0 0z m52 150c-8 4-16 7-25 9-9 1-18 3-27 3-19 0-35-5-51-12v676c0 28 23 52 51 52 28 0 52-24 52-52v-676z m-560 482h20v-31h62v143c0 7-3 16-9 22-6 6-13 9-22 9h-81c-7 0-16-3-22-9s-9-13-9-22v-143h62c-1 0-1 31-1 31z m0 81h20v-21h-20c0 0 0 21 0 21z m133 62h205v-62h-205v62z m0-115h205v-62h-205v62z m-183-115h388v-61h-388v61z m0-342h264v-62h-264v62z m366 229h-346c-7 0-16-3-22-9s-9-13-9-22v-122c0-7 3-16 9-22 6-6 13-9 22-9h347c8 0 16 3 22 9 6 6 9 13 9 22v122c0 8-3 16-9 22s-14 9-23 9z m-30-122h-286v60h285l1-60z"/>
</svg>
