<svg xmlns="http://www.w3.org/2000/svg" viewBox="0 0 1000 1000">
  <path transform="translate(0,850) scale(1,-1)" fill="currentColor" d="M985 450c-31 0-56-23-57-54l0-244c0-17-13-28-28-28h-541c-7 0-13-3-19-8l-155-134v112c0 8-3 15-8 21-6 6-14 9-21 9h-56c-16 0-28 13-28 28v75h0v54c-31 0-56-24-57-54l0-75c0-48 38-86 85-86h28v-145c0-12 6-21 16-27 10-4 22-3 31 4l194 168h530c47 0 85 38 85 86v244h0l1 54 0 0z m-913-3l0 275c0 16 13 28 28 28h800c16 0 28-13 28-28v-159c31 0 56 24 57 55l0 104c0 47-38 85-85 85h-800c-47 2-85-36-85-85v-329c31 0 56 23 57 54z m238 75h153v57h-153c-36 0-66-29-66-66v-153c0-36 30-66 66-66h153v58h-153c-6 0-8 4-8 8v153c-2 6 2 9 8 9z m305 0h153v57h-153c-37 0-66-29-66-66v-153c0-36 29-66 66-66h153v58h-153c-6 0-9 4-9 8v153c-2 6 3 9 9 9z"/>
</svg>
