<svg xmlns="http://www.w3.org/2000/svg" viewBox="0 0 1000 1000">
  <path transform="translate(0,850) scale(1,-1)" fill="currentColor" d="M516 38c2 2 0 3-1 3-56-22-177-44-252-56-64-10-120-12-153-13l-14-1c-2 0-3-2-3-3 0-2 0-2 1-3 6-6 24-24 60-30 43-6 105 6 183 28 69 21 144 53 179 75l0 0z m-134-100c-57-20-119-37-186-48-2 0-3-2-3-3 0-2 0-2 1-3 12-9 25-15 43-16 22-3 48 0 78 8 26 8 53 20 81 33 28 13 54 29 76 45 24 17 40 33 52 48 0 1 0 2-2 2-35-23-82-47-140-66z m-144 686c15-15 33-27 55-33l1 0c6-1 375-98 472-125 43-12 77-20 93-25 1 0 3 0 3 2 0 1 0 1-2 1-61 25-441 171-585 225l-60 24c-2 0-3 0-5 0 0 0 0-2 0-3 0-5 3-33 17-52 4-6 7-10 11-14l0 0z m16 145c8-9 15-15 28-23 5-3 9-6 15-9l34-18c19-10 304-142 346-163 48-24 98-47 120-59 2 0 3 0 3 3-53 32-257 162-401 252l-105 63-19 12-37 23c-3 0-3 0-4 0-2 0-2-1-2-1 0-5-1-33 8-52 4-10 9-20 14-28l0 0z m255-828c-47-47-116-72-140-79-1 0-3-2-3-3 0-2 2-3 2-3 3-2 31-16 85 10 31 15 46 40 59 72 0 2 0 3-2 3 0 0 0 0-1 0z m341 390c-23-7-115-29-194-50-69-18-147-38-147-38-9-2-6-6-5-6 2-3 6-10 12-19 12-21 30-18 44-14 3 2 278 117 292 124 1 1 1 1 0 3 0 1-2 0-2 0z m-122-191c-37-31-91-80-149-128-5-5-7-12-10-22-3-17-12-39-12-39-1-4 0-7 6-1 44 47 143 156 169 187 0 1 0 3-1 3l-3 0 0 0z m175 264c-49 9-644 115-644 115-2 0-3 0-3-1 0-2 0-3 0-3 10-31 32-62 73-74 5-1 9-1 14-3 0 0 504-32 560-36 1 0 3 0 3 1 0 1-2 1-3 1z m-124-33c-52 0-117 0-177 0-81 0-211-2-211-2-1 0-1 0-3-1 0-2 0-2 0-3 2-6 9-19 18-28 16-16 34-25 51-28 2 0 5 0 6 0 2 0 5 0 8 0 3 0 385 54 406 57 1 0 1 2 1 2 0 1-1 1-1 1-17 2-52 2-98 2l0 0z m-114-187c-33-21-75-43-96-56-3-1-4-1-3-9 0 0 2-6 2-13 3-32 14-28 34-13l2 1c67 55 190 158 217 181 0 3 0 3-2 3-26-16-95-59-154-94z"/>
</svg>
