<svg xmlns="http://www.w3.org/2000/svg" viewBox="0 0 1000 1000">
  <path transform="translate(0,850) scale(1,-1)" fill="currentColor" d="M765 312c4 4 7 12 7 19 0 7-3 15-7 19-5 4-12 7-19 7-8 0-15-3-19-7-5-4-8-12-8-19 0-7 3-15 8-19 4-5 11-8 19-8 7 0 14 3 19 8z m76 0c5 4 8 12 8 19 0 7-3 15-8 19-4 4-12 7-19 7-7 0-15-3-19-7-4-4-7-12-7-19 0-7 3-15 7-19s12-8 19-8c6 0 13 3 19 8z m-151 0c4 4 7 12 7 19 0 7-3 15-7 19-5 4-12 7-19 7-8 0-15-3-19-7-5-4-8-12-8-19 0-7 3-15 8-19s11-8 19-8c7 0 13 3 19 8z m-96-8c8 0 15 3 19 8s8 12 8 19c0 7-3 15-8 19-4 4-11 7-19 7-7 0-15-3-19-7-4-4-7-12-7-19 0-7 3-15 7-19 6-5 12-8 19-8z m-75 55c-7 0-15-3-19-7-4-5-7-12-7-20 0-7 3-14 7-19s12-7 19-7c8 0 15 3 19 7 5 5 8 12 8 19 0 8-3 15-8 20-4 4-11 7-19 7z m383-210c2-11 5-22 5-33 0-12-1-23-5-35-15-41-55-68-98-68-11 0-23 2-35 6l-48 16-22 47c-6 14-22 20-37 14l-47-22-50 19-21 47c-3 6-9 12-15 14s-14 2-20-1l-25-12-46 18c6 6 11 13 15 19l93-1c7 0 14 2 19 7l7 7 25-25c5-4 12-7 19-7h77c7 0 14 3 19 7l25 25 25-25c4-4 12-7 19-7h60c87 0 158 70 158 157 0 87-71 158-158 158h-228c-29-2-51-25-51-55h281c28 0 54-12 73-31 19-19 31-44 31-73 0-28-12-55-31-74-19-19-44-31-73-31h-50l-37 37c-10 10-28 10-38 0l-37-37h-54l-37 37c-11 10-28 10-38 0l-18-15-96 2c-10 0-19-5-23-13-34-58-96-96-166-96-2 0-3 0-5 0-101 2-185 85-190 185 0 3 0 5 0 8 0 53 23 101 56 136 12 12 25 21 39 30v-93c-30-12-52-39-52-73 0-44 35-80 80-80 44 0 79 36 79 80 0 34-22 63-52 73v115c15 3 30 6 45 6 35 0 69-10 98-25 30-15 55-35 71-56 6-6 13-10 20-10h53c30 1 52 25 52 54h-93c-21 22-47 43-78 59-35 19-78 31-123 31-15 0-30-2-45-5v81c0 25 21 46 46 46 24 0 44-19 46-43h0c0-29 25-54 54-54l0 51c0 55-46 100-100 100-56 0-100-44-100-100v-97c-88-37-150-123-150-226 0-3 0-6 0-11 6-128 112-233 241-236 2 0 5 0 6 0 55 0 105 17 146 47l81-31c7-3 14-3 20 0l10 4 15-32c3-6 9-12 15-15l72-26c7-3 15-2 21 1l32 15 15-32c3-6 8-12 14-15l58-21c17-6 36-10 54-10 65 0 125 40 149 103 5 18 10 37 10 54 0 18-3 34-9 50l-48-14 0 0z m-725 194c13 0 25-11 25-25 0-14-11-25-25-25-14 0-25 10-25 25 1 13 11 25 25 25z"/>
</svg>
