<svg xmlns="http://www.w3.org/2000/svg" viewBox="0 0 1000 1000">
  <path transform="translate(0,850) scale(1,-1)" fill="currentColor" d="M629 53l-38-47 0 0c-20-24-41-43-63-63-22-21-50-31-78-31-28 0-56 10-78 31-43 39-93 92-129 153-39 60-65 128-65 197 0 13 1 23 3 34l0 0c0 0 0 1 0 1 0 0 0 0 0 1 0 3 0 6 0 8-2 29-24 54-53 57l-7-56c0 0 0 0 0 0-3-14-5-29-5-47 0-85 31-163 74-229 41-66 94-124 139-165 34-31 77-47 120-47 42 0 85 16 119 47 25 22 47 44 72 72 3 3 4 7 6 12 11 23 6 54-17 72l0 0z m255 549c0 8-2 19-3 27-3 14-9 30-22 42-6 6-15 10-22 13-9 3-18 4-28 4h-182c-20 0-39-3-55-7v138c0 8-3 16-9 22s-13 9-22 9h-104c-8 0-16-3-22-9-6-6-9-13-9-22v-173l-106 106c-6 5-13 8-22 8s-13-3-19-8l-74-74c-6-6-8-13-8-22s2-16 8-22l59-59c-35-21-65-50-85-90-13-31 1-66 32-79l22 54c19 34 44 56 75 71l44-44c0-37 14-75 36-106l-52-52 43-42 112 112c6 5 8 13 8 22v61c0 42 17 78 43 105 27 26 63 42 105 42h182c4 0 6-1 7-1l2 0c0 0 1-3 3-7 1-5 1-12 3-19 0-3 0-5 0-8 0-6 0-12-2-16 0-3-1-6-1-6l-2-1 0 0 0 0c0 0-1 0-6-2h-134c-77 0-139-63-139-140v-52h60v52c0 23 9 42 24 56 8 9 19 15 30 19 18-17 34-38 46-69 13-35 22-82 22-141 0-60-19-117-48-170-15-28-6-64 22-80l31 50 0 0c32 60 55 128 55 200 0 65-8 119-26 163-7 20-16 36-27 52h84c12 0 24 3 34 7 7 5 15 11 19 16 8 11 12 21 13 31 3 11 3 21 3 31 2 0 2 3 2 8l0 0z m-465-123v-48l-7-6c-12 21-19 43-19 66 0 3 0 5 0 8 0 8-3 17-9 23l-134 134 31 31 107-108 30-29c3-3 9-6 13-7-9-19-12-41-12-64l0 0z m91 174c-16-10-31-24-42-38v175h42v-137z"/>
</svg>
