<svg xmlns="http://www.w3.org/2000/svg" viewBox="0 0 1000 1000">
  <path transform="translate(0,850) scale(1,-1)" fill="currentColor" d="M965 384h-22c14 44 25 90 26 137 0 6 0 10 0 16 0 90-32 162-82 210-50 49-116 72-183 72-50 0-100-15-142-42-25-17-46-39-63-64-18 27-40 47-64 64-42 29-92 42-142 42-66 0-133-25-183-72-51-48-83-120-83-210 0-6 0-10 0-16 1-47 11-93 26-137h-18c-19 0-35-16-35-35s16-36 35-36h47c8-14 15-29 22-42 65-114 159-209 236-277 76-68 137-107 138-107 12-8 26-8 38 0 2 1 109 70 219 184 55 57 111 123 155 200 7 14 16 28 22 42h51c19 0 36 16 36 36s-15 35-34 35l0 0z m-136-78c-58-103-147-194-220-259-37-32-69-57-93-75-7-6-13-9-17-13-37 25-118 87-197 170-50 53-100 115-139 183 0 0 0 1 0 1h80c16 0 29 11 34 25l27 93 64-315c3-16 17-28 34-28s30 11 35 27l63 223 59-179c4-15 19-25 34-25 16 0 29 10 34 26l42 153h165c-2-3-3-4-5-7l0 0z m70 218c-2-47-14-95-31-140h-227c-16 0-29-10-34-27l-19-64-59 179c-4 15-19 25-33 25-17 0-30-10-34-26l-55-199-64 312c-3 16-18 28-34 28-16 0-31-10-35-25l-61-203h-85c-18 45-29 93-31 140 0 4 0 8 0 13 0 73 25 125 62 159 37 35 85 53 132 53 37 0 74-11 103-31 31-21 56-52 71-94 4-15 17-24 34-24 14 0 28 10 33 24 15 42 40 73 71 94 31 20 66 31 103 31 48 0 97-18 132-53 36-36 61-87 62-159-1-5-1-9-1-13z"/>
</svg>
