<svg xmlns="http://www.w3.org/2000/svg" viewBox="0 0 1000 1000">
  <path transform="translate(0,850) scale(1,-1)" fill="currentColor" d="M968 843c-5 4-12 7-19 7h-359c-8 0-15-3-19-7s-8-12-8-19v-252c0-7 3-15 8-19s11-7 19-7h359c7 0 14 3 19 7 4 4 7 12 7 19v252c2 7-1 13-7 19z m-46-244h-306v70h59c7 0 13 3 18 8l29 26 47-63c5-6 12-11 19-11 8 0 15 2 21 8l43 40h70l0-78 0 0z m0 132h-81c-7 0-13-3-17-7l-28-27-47 63c-5 6-12 11-20 11s-14-2-20-8l-43-39h-48v72h306c-2 0-2-65-2-65z m0-428v-150h-28v51c0 8-3 15-7 20s-12 8-19 8h-21v67c0 57-45 103-103 103h-72c0-30 22-53 52-55l20 0c27 0 49-22 49-48v-67h-409v33c0 23 9 44 25 59 15 14 35 25 59 25h186c0 29-22 53-51 54l-104 0v56c0 38-31 69-70 69h-82c-9 0-16 7-16 16v24c31 11 54 41 54 76v88c0 8-3 15-7 20-4 4-12 7-19 7h-27v65c0 7-3 14-7 19-9 4-15 7-22 7h-251c-8 0-15-3-20-7-5-6-8-12-8-19v-147h0c1-28 25-52 53-52h0v171h197v-14h0c0-8 3-17 7-23h-34c-7 0-15-3-19-7s-6-14-6-20v-89c0-36 22-65 55-77v-23c0-39 30-69 69-69h82c9 0 16-8 16-17v-57c-26-4-50-16-69-34h-29c-2 53-44 96-97 96-43 0-80-28-92-66l-20 23c-10 10-27 12-38 3l-21-18v136h0c-1 28-25 51-53 51v-538c0-7 3-15 7-19s12-7 20-7h80v-11c-33-12-57-43-57-79 0-47 38-84 84-84 37 0 68 23 79 57h561c11-34 42-57 79-57 47 0 84 38 84 84 0 36-24 67-58 79v11h46c7 0 15 2 19 7 5 4 8 12 8 19v75l0 125c-2 26-25 50-55 50l0 0z m-619 312c-15 0-26 12-26 26v63h54v-63c-2-14-13-26-28-26z m28-303h7c-6-15-9-31-9-47v-33h-26l-32 37c25 5 45 21 60 43z m-82 94c23 0 42-19 42-43 0-23-19-42-42-42-24 0-43 19-43 42 0 24 19 43 43 43z m-136-44l156-175c5-6 12-9 21-9h550v-25h-568c-4 0-7 1-9 4l0 0-169 189 19 16 0 0z m-35-80l116-130h-116c0 1 0 130 0 130z m81-378c-16 0-31 14-31 31 0 16 13 31 31 31 16 0 31-13 31-31 0-17-15-31-31-31z m638 58h-559c-9 25-28 44-53 53v10h665v-10c-25-11-44-30-53-53l0 0z m110-28c0-16-13-31-30-31-17 0-31 13-31 31 0 16 13 31 31 31 17 0 30-14 30-31z m15 144h-844v21h844v-21z"/>
</svg>
