<svg xmlns="http://www.w3.org/2000/svg" viewBox="0 0 1000 1000">
  <path transform="translate(0,850) scale(1,-1)" fill="currentColor" d="M929 657c-17 18-39 27-61 27-22 0-44-9-62-25l-91-91-38 36-9 9c36 22 61 64 61 109 0 5 0 9 0 13l0 0c-5 65-60 115-126 115-35 0-68-15-90-37-23-23-36-54-36-89 0-15 2-28 7-40l-180 0c-27 0-54-12-75-31l-105-106c-17-16-25-40-25-62 0-22 8-44 25-60 17-18 39-26 61-26 22 0 44 8 62 25l75 75 134-20 7 55-147 20c-9 2-17-1-23-7l-87-85c-6-6-15-9-22-9-9 0-16 3-22 9-6 6-9 13-9 22 0 9 3 16 9 22l106 106c9 9 22 15 35 15h216c19-18 44-28 71-31l0 0c4 0 9 0 13 0 1 0 4 0 6 0l29-30 0 0 58-57c10-10 28-10 39 0l111 110c6 6 14 9 22 9 9 0 16-3 22-9 6-6 9-13 9-22 0-9-3-16-9-22l-152-153c-7-7-17-12-28-12-10 0-20 5-28 12l-36 37 19 38-50 25-78-160h0l-24-47c27-13 59-3 72 23l34 69 24-23c19-19 42-28 67-28 24 0 49 9 68 28l153 153c16 16 25 40 25 62-2 19-9 41-27 58l0 0z m-326-7c-3 0-6 0-7 0-37 4-65 34-65 72 0 40 32 72 72 72 37 0 68-28 72-65 0-2 0-5 0-7 0-20-7-38-21-51-13-12-30-21-51-21z m76-481c-5 35-29 66-60 81l-37 19 0 0c-26 12-58 2-72-26l50-25v0l36-18c16-9 28-23 31-41l38-213c0-2 0-5 0-6 0-9-3-17-9-24-6-6-13-10-22-12l-5 0c-16 0-30 12-33 28l-39 193c-1 9-8 16-17 21l-108 42c-47 19-76 65-76 112 0 15 3 31 9 46l28 67 20 52c-28 12-59-2-70-28l0 0-28-71c-9-22-13-44-13-66 0-28 7-54 19-79l-24-59-179-34c-43-9-72-46-72-88 0-5 0-8 0-12 3-22 14-43 29-57 16-14 37-23 59-23 6 0 10 0 16 2l219 40c31 6 59 25 72 54l34 68 28-12 35-178c9-43 46-72 89-72 4 0 7 0 11 0 22 3 43 15 58 29 13 17 22 37 22 59 0 6 0 10-2 16l-37 215 0 0z m-285-100c-6-13-19-22-32-25l-221-38c-1 0-4 0-6 0-8 0-16 3-23 9-6 6-10 13-12 22l0 4c0 16 12 31 28 34l193 38c8 2 16 9 20 18l16 43c15-14 33-25 53-33l14-6c1-3-30-66-30-66z"/>
</svg>
