<svg xmlns="http://www.w3.org/2000/svg" viewBox="0 0 1000 1000">
  <path transform="translate(0,850) scale(1,-1)" fill="currentColor" d="M547-87h-201v874h76c0 34-26 62-60 63h-175c-50 0-93-41-93-93v-63h-42c-18 0-33-15-33-32s15-33 33-33h42v-92h-42c-18 0-33-15-33-33s15-32 33-32h42v-93h-42c-18 0-33-14-33-32s15-32 33-32h42v-93h-42c-18 0-33-15-33-32s15-33 33-33h42v-92h-42c-18 0-33-15-33-33s15-32 33-32h42v-63c0-52 41-93 93-93h420c0 40-26 68-60 69l0 0z m-265 0h-94c-16 0-29 13-29 30v63h43c17 0 32 15 32 32s-15 33-32 33h-43v92h43c17 0 32 15 32 33s-15 32-32 32h-43v93h43c17 0 32 14 32 32s-15 32-32 32h-43v93h43c17 0 32 15 32 32s-15 33-32 33h-43v92h43c17 0 32 15 32 33s-15 32-32 32h-43v57c0 17 13 30 29 30h94v-874l0 0z m227 469h206v-63h-206v63z m-106 117h312v-64h-312v64z m106-234h206v-63h-206v63z m-52 107c-5 6-14 9-22 9-8 0-16-3-22-9-6-6-9-15-9-22s3-16 9-22c6-6 15-9 22-9 9 0 17 3 22 9s9 15 9 22-3 16-9 22z m-22-107c-8 0-16-3-22-9-6-6-9-15-9-22s3-16 9-22c6-6 15-9 22-9 9 0 17 3 22 9s9 15 9 22-3 16-9 22-13 9-22 9z m514-61c8 0 16 3 22 9s8 15 8 22v158c0 9-2 16-8 22s-15 9-22 9h-86v320c0 59-47 105-106 106h-276c0-34 26-62 60-63h218c23 0 41-19 41-41v-790c0-24-19-41-41-41h-93c0-34 27-62 61-64h32c48 0 90 34 101 78h90c9 0 16 3 22 9s9 15 9 22v156c0 9-3 16-9 22s-15 9-22 9h-85v57l84 0 0 0z m-86 156h55v-92h-55v92z m53-276v-93h-54v93h54z"/>
</svg>
