<svg xmlns="http://www.w3.org/2000/svg" viewBox="0 0 1000 1000">
  <path transform="translate(0,850) scale(1,-1)" fill="currentColor" d="M74 25v703c0 7 5 15 14 15h72v-164c0-10 5-19 11-26s16-10 26-10h322c10 0 19 4 27 10s10 16 10 26v162h73l9-3 0 0 159-134 5-10v-179h73v179c0 27-12 52-32 68l-156 134 0 0c-16 13-35 20-58 20h-541c-48 0-88-39-88-88v-701c0-49 40-89 88-89h365v74h-365c-7 0-14 6-14 13l0 0z m160 716h247v-126h-247v126z m204-326c-64 0-117-53-117-118 0-65 53-118 117-118 65 0 118 53 118 118 0 65-53 118-118 118z m0-161c-23 0-42 20-42 43 0 24 19 43 42 43 24 0 43-19 43-43 1-23-18-43-43-43z m369-7c-11 12-29 12-39 0l-218-218-7-11-28-97c-3-11 0-21 7-28 7-8 18-11 28-8l97 28 12 8 216 216c6 6 9 13 9 20s-3 15-9 21l-68 69z m171 102l0 0c0 0-1 0 0 0-3 3-6 4-9 5-13 11-29 17-45 17-20 0-40-8-55-22l-34-34c-6-6-8-13-8-21s2-15 8-20l69-70c12-11 30-11 40 0l34 34c15 15 22 36 22 55 0 20-7 41-22 56l0 0z"/>
</svg>
