<svg xmlns="http://www.w3.org/2000/svg" viewBox="0 0 1000 1000">
  <path transform="translate(0,850) scale(1,-1)" fill="currentColor" d="M775 235l-107 31c-9 15-19 28-30 40-3 3-7 6-10 10v69c9 15 16 31 21 49 14 18 26 40 32 65 12 7 21 16 28 25 10 11 16 25 20 35 5 12 8 25 8 38 0 10-2 22-6 32-3 8-4 12-4 12l0 2c0 3 0 6 1 11 0 6 1 12 1 18 0 16-2 34-10 50-6 15-16 27-26 35-3 2-5 5-6 8-2 3-5 7-8 13-13 25-36 43-63 51-12 5-25 6-38 6-12 0-24-1-35-4-28 12-58 19-87 19-24 0-47-4-69-13-33-13-60-37-80-66-20-30-32-64-32-100 0-6 0-12 2-18 0-6 1-9 1-12l0-1c0-2-1-5-4-12-5-10-6-22-6-32 0-14 3-27 7-39 4-10 12-23 21-36 4-6 10-14 17-18 3-3 6-4 11-6 5-23 16-45 32-63 4-16 10-32 19-47v-68c-19-15-34-34-46-54l-101-30c-84-25-140-100-140-185v-194h49v194c0 63 42 119 103 138l66 19c-2-11-3-23-3-35v-193c-24-10-41-33-41-60 0-37 29-66 66-66 37 0 66 29 66 66 0 28-17 52-41 60v192l125-193v-122h49v122l119 184v-71l-68-194c-1-6-1-13 1-19 3-6 8-10 15-12l47-16 16 46-23 7 38 109 38-109-23-7 16-46 47 16c6 2 12 6 15 12 3 6 3 12 1 19l-67 194v83c0 11-2 25-5 36l72-20c62-18 103-74 103-138v-195h43v193c0 85-56 160-137 185l0 0z m-91 377c1-5 3-10 3-15 0-7-2-13-5-20 0 0 0 0 0 0v33c0 3 0 5 0 8 0-5 2-6 2-6z m-365-3v-34c0 0 0 0 0 0-3 7-4 13-4 21 0 6 1 10 3 14 0 2 1 3 1 5 0-2 0-3 0-6l0 0z m8-706c-9 0-18 7-18 18 0 8 7 17 18 17 8 0 17-7 17-17 0-9-7-18-17-18z m-2 751c0 2 0 5 0 6 0 5 0 8 0 12 0 25 9 50 24 72 14 22 35 40 58 49 17 6 33 10 50 10 24 0 46-6 65-16 0 0 2-2 5-3 2-2 5-3 10-3l0 0 3 0c7 0 10 1 12 1 8 3 17 5 26 5 7 0 16-2 24-3 14-5 27-16 35-28 3-4 6-10 9-15 3-6 8-12 14-17 8-6 12-12 15-20 4-8 6-19 6-29 0-4 0-9-2-13 0-2 0-5 0-6-1 4-2 9-2 12-3 10-14 17-24 16-6 0-10 0-16 0-25 0-49 3-72 7-47 9-100 33-138 65-9 7-21 7-30 1-37-26-62-61-72-103l0 0z m43-125v80c0 38 16 72 41 95 43-32 94-52 143-61 26-6 52-8 79-8 1-8 3-16 3-25v-79c0-27-10-50-27-69-3-3-5-8-5-12-9-48-52-85-102-85h0c-50 0-91 37-100 84-1 4-3 8-6 11-16 19-26 43-26 69l0 0z m132-500l-25 40 28 38 25-35-28-43z m56 87l-24 33 40 44 32 35c-19 18-48 16-66-1l0 0-1-2-37-40-38 39 0 0c-19 17-49 16-66-2l32-32 43-43-24-34-75 115 3 0c28 9 47 34 47 63v47c24-14 50-22 78-22h0c28 0 54 8 78 22v-47c0-29 19-54 47-63l3-1-72-111 0 0z m-121 427c6 0 14 3 18 7s7 10 7 18-3 13-7 17-10 8-18 8c-6 0-13-3-17-8-5-4-8-10-8-17s3-14 8-18c4-4 11-7 17-7z m133 0c6 0 13 3 17 7s8 10 8 18-3 13-8 17-10 8-17 8-14-3-18-8-7-10-7-17 3-14 7-18 10-7 18-7z"/>
</svg>
