<svg xmlns="http://www.w3.org/2000/svg" viewBox="0 0 1000 1000">
  <path transform="translate(0,850) scale(1,-1)" fill="currentColor" d="M784 96v-137c0-27-22-49-49-49h-470c-27 0-49 22-49 49l0 534c-1 31-26 56-59 56v-590c0-59 49-108 108-108h470c59 0 108 49 108 108l0 81c-2 31-27 56-59 56l0 0z m-49 754h-470c-59 0-108-48-108-107l0-81c2-31 27-56 59-56v137c0 26 22 48 49 48h470c27 0 49-22 49-48l0-525c1-31 26-56 59-56v581c0 59-49 107-108 107z m-431-147h393v-59h-393v59z m0-157h158v-59h-158v59z m236 0h78v-59h-78v59z m-40-319c54 0 97 44 97 97 0 54-44 97-97 97-54 0-97-44-97-97 0-53 43-97 97-97z m0 136c22 0 38-17 38-38 0-22-17-38-38-38-22 0-38 17-38 38 0 21 16 38 38 38z m-107-359h216v108c0 59-49 107-107 107-59 0-108-48-108-107-1 0-1-108-1-108z m59 108c0 26 22 48 48 48 27 0 49-22 49-48v-49h-99l2 49 0 0z"/>
</svg>
