<svg xmlns="http://www.w3.org/2000/svg" viewBox="0 0 1000 1000">
  <path transform="translate(0,850) scale(1,-1)" fill="currentColor" d="M906 478h-68c-53 0-94-43-94-94v-66c0-53 43-94 94-94h103c0 36-29 67-66 69h-37c-13 0-25 11-25 25v66c0 13 12 25 25 25h66c14 0 25-12 25-25v-37c2-37 33-66 70-66v103c1 51-42 94-93 94z m-372 0h-66c-53 0-94-43-94-94v-66c0-53 42-94 94-94h66c53 0 94 42 94 94v66c0 51-43 94-94 94z m25-162c0-13-12-25-25-25h-66c-14 0-25 12-25 25v66c0 14 11 25 25 25h66c13 0 25-11 25-25v-66z m-397 162h-103c0-37 29-68 66-69h37c13 0 25-12 25-25v-66c0-14-12-25-25-25h-68c-13 0-25 11-25 25v36c-1 37-32 67-69 67v-103c0-53 43-94 94-94h68c53 0 94 42 94 94v66c0 51-43 94-94 94z"/>
</svg>
