<svg xmlns="http://www.w3.org/2000/svg" viewBox="0 0 1000 1000">
  <path transform="translate(0,850) scale(1,-1)" fill="currentColor" d="M991 841c-6 6-13 9-20 9h-277c0-31 25-57 56-59v0h150l-338-338 41-41 338 338v-162h0c2-31 27-56 59-56v289c0 7-3 14-9 20l0 0z m-594-553l-338-338v162h0c-2 31-27 56-59 56v-289c0-7 3-14 9-20 6-6 13-9 20-9h277c0 31-25 57-56 59v0h-150l338 338-41 41 0 0z m103 91c-7 0-15-2-21-8s-8-14-8-21c0-7 3-15 8-21 6-5 14-8 21-8 7 0 15 3 21 8 6 6 8 14 8 21 0 7-2 15-8 21-6 6-14 8-21 8z"/>
</svg>
