<svg xmlns="http://www.w3.org/2000/svg" viewBox="0 0 1000 1000">
  <path transform="translate(0,850) scale(1,-1)" fill="currentColor" d="M987 837c-8 9-18 13-30 13h-251v-85h148l-133-134c-62 47-140 76-224 76-203 0-366-164-366-367 0-84 28-162 76-224l-58-59-87 87-62-59 87-88-87-87 60-60 87 87 88-87 61 60-89 87 59 59c63-52 143-83 231-83 203 0 366 165 366 367 0 88-31 167-82 231l132 132v-147h87v251c0 12-4 22-13 30l0 0z m-291-696c-52-51-121-82-199-82s-148 31-198 82c-52 52-83 121-83 199s31 148 83 198c51 52 120 83 198 83s149-31 199-83c51-51 82-120 82-198 0-77-31-147-82-199z"/>
</svg>
