<svg xmlns="http://www.w3.org/2000/svg" viewBox="0 0 1000 1000">
  <path transform="translate(0,850) scale(1,-1)" fill="currentColor" d="M988 671c-7 7-17 11-28 11h-922c-10 0-20-4-28-11s-10-17-10-27v-588c0-10 4-21 12-28s17-12 28-12h922c10 0 20 5 28 12s10 19 10 28v588c0 10-4 19-12 27z m-66-575h-844v508h846l-2-508 0 0z m-623 163c-6-3-12-3-18-3-10 0-21 3-31 9-10 6-21 16-29 28l-64-44c14-20 31-37 52-50 12-8 25-14 38-17v-33h78v36c21 8 38 19 53 36 15 16 26 39 26 66 0 16-4 34-14 48-12 19-30 30-46 37-16 7-32 10-45 13-17 3-31 5-40 9l-7 5-3 4 0 4 4 14c7 8 21 14 37 14 22 0 45-11 53-26l67 38c-19 31-48 52-81 60v42h-79v-42c-21-5-41-17-57-36-15-19-22-42-22-64 0-8 1-17 4-26 4-15 13-28 24-38 14-15 32-22 48-27 16-4 30-6 41-7 9-2 19-5 27-7 7-3 10-8 12-9l2-6c0-3-1-9-7-15-7-4-16-10-23-13z m244 213h251v-78h-251v78z m0-168h251v-77h-251v77z"/>
</svg>
