<svg xmlns="http://www.w3.org/2000/svg" viewBox="0 0 1000 1000">
  <path transform="translate(0,850) scale(1,-1)" fill="currentColor" d="M312 654h72v-804h-72v804z m212 36l-150 150c-15 14-37 14-52 0l-148-150h0l-52-52c28-28 71-28 100-3l0 0 127 127 126-127 0 0c28-25 72-25 100 3l-50 50c0 0-1 2-1 2z m150-346h120v-109h72v290c0 9-4 19-10 25-7 7-16 10-25 10h-194c-9 0-19-4-25-10-8-7-10-16-10-25v-290h72c0 0 0 109 0 109z m0 144h120v-72h-120v72z m51-554l131 131c10 10 13 26 7 39s-19 23-34 23h-241v-73h155l-131-131c-10-10-13-26-8-39 6-13 20-22 34-22h241v72c-1 0-154 0-154 0z"/>
</svg>
