<svg xmlns="http://www.w3.org/2000/svg" viewBox="0 0 1000 1000">
  <path transform="translate(0,850) scale(1,-1)" fill="currentColor" d="M312 850h72v-804h-72v804z m163-787l0 0-126-126-124 123-3 3 0 0c-28 25-72 25-100-3l49-48 151-152c7-7 16-10 25-10 9 0 19 4 25 10l150 150 3 3 49 49c-27 26-71 28-99 1l0 0z m294 536v204c0 13-7 25-19 32-12 6-26 6-37-1l-144-97 40-60 88 58v-136h-109v-72h290v72l-109 0 0 0z m60-193h-192c-9 0-19-4-25-10-8-8-10-17-10-25v-144c0-9 4-20 10-25 7-8 16-11 25-11h157v-109h72v287c0 9-4 19-10 25-7 8-16 12-27 12z m-35-144h-120v72h120c0 0 0-72 0-72z"/>
</svg>
