<svg xmlns="http://www.w3.org/2000/svg" viewBox="0 0 1000 1000">
  <path transform="translate(0,850) scale(1,-1)" fill="currentColor" d="M360 112h290c29 0 54 23 54 54v3c0 110-89 199-198 199s-199-90-199-199v-3c-1-31 24-54 53-54z m146 275c56 0 101 45 101 101 0 56-45 102-101 102s-102-46-102-102c0-56 46-101 102-101z m482 445c-7 8-19 12-29 12h-918c-10 0-22-4-29-12s-12-17-12-29v-906c0-10 4-22 12-29s19-12 29-12h916c11 0 22 4 30 12s12 19 12 29v906c1 12-3 22-11 29z m-72-894h-832v824h832c0 0 0-824 0-824z"/>
</svg>
