<svg xmlns="http://www.w3.org/2000/svg" viewBox="0 0 1000 1000">
  <path transform="translate(0,850) scale(1,-1)" fill="currentColor" d="M844 804h-688c-87 0-156-69-156-155v-411c0-86 69-156 156-156h119l0-145c0-18 10-33 27-39 16-5 33-2 45 9l175 175h322c87 0 156 70 156 156v411c0 86-69 155-156 155z m72-566c0-39-32-72-72-72h-340c-11 0-22-4-29-12l-116-116 0 87c0 12-5 22-12 29s-19 12-29 12h-162c-40 0-72 33-72 72v411c0 39 32 72 72 72h688c40 0 72-33 72-72l0-411 0 0z m-416 112c-12 0-22-4-29-12s-12-19-12-29 4-22 12-30c7-7 19-11 29-11s22 4 29 11 12 20 12 30-4 22-12 29-19 12-29 12z m0 302c-23 0-43-20-43-43v-184c0-23 20-43 43-43s43 20 43 43v184c-2 23-19 43-43 43z"/>
</svg>
