<svg xmlns="http://www.w3.org/2000/svg" viewBox="0 0 1000 1000">
  <path transform="translate(0,850) scale(1,-1)" fill="currentColor" d="M500 224c-12 0-22-5-29-12s-12-19-12-30 4-22 12-29c7-7 19-12 29-12 12 0 22 5 29 12s12 19 12 29-4 22-12 30-17 12-29 12z m0 360c-23 0-43-19-43-43v-244c0-23 20-43 43-43 24 0 43 20 43 43v246c0 22-19 41-43 41z m477-146l-162 281c-33 55-90 87-153 87h-324c-63 0-120-34-151-88l-163-280c-17-28-24-57-24-88 0-31 7-60 24-88l161-281c31-55 90-88 152-88h325c63 0 120 33 151 88l162 281c16 26 24 57 24 88 1 31-6 60-22 88l0 0z m-74-134l-162-280c-16-28-47-46-79-46h-324c-32 0-63 18-79 46l-162 280c-9 15-12 30-12 46 0 16 5 31 12 46l162 281c16 27 47 45 79 45h324c32 0 63-18 79-45l162-281c9-15 12-30 12-46 1-16-3-31-12-46z"/>
</svg>
