<svg xmlns="http://www.w3.org/2000/svg" viewBox="0 0 1000 1000">
  <path transform="translate(0,850) scale(1,-1)" fill="currentColor" d="M1000 453c0 76-63 140-140 140-63 0-114-41-132-99h-456c-18 58-70 99-132 99-77 0-140-62-140-140 0-41 18-78 47-103-29-25-47-62-47-103 0-76 63-140 140-140 63 0 114 42 132 99h455c17-57 70-99 132-99 76 0 140 64 140 140 0 41-18 78-47 103 30 25 48 62 48 103z m-169-137c7-7 18-12 29-12 31 0 58-25 58-57 0-31-25-57-58-57-31 0-57 25-57 57 0 10-4 22-12 30-7 7-17 11-29 11h-524c-10 0-22-4-29-11-7-8-12-18-12-30 0-31-25-57-57-57-31 0-58 25-58 57 0 31 25 57 58 57 10 0 22 5 29 12 8 8 12 18 12 30v10c0 10-4 22-12 29-7 8-17 12-29 12-31 0-58 25-58 57 0 31 25 58 58 58 31 0 57-25 57-58 0-10 5-22 12-29 7-7 18-12 29-12h524c10 0 22 5 29 12 8 7 12 18 12 29 0 31 25 58 57 58 31 0 58-25 58-58 0-30-25-57-58-57-10 0-22-4-29-12-7-7-12-17-12-29v-10c0-12 5-22 12-30l0 0z"/>
</svg>
