<svg xmlns="http://www.w3.org/2000/svg" viewBox="0 0 1000 1000">
  <path transform="translate(0,850) scale(1,-1)" fill="currentColor" d="M500 606c-141 0-256-115-256-256s115-256 256-256 256 113 256 256-113 256-256 256z m0-422c-91 0-166 75-166 166s75 166 166 166 166-73 166-166-75-166-166-166z m497 372c-4 79-22 151-81 209-59 59-129 76-209 81-82 4-329 4-411 0-83-3-153-21-212-80-59-59-77-129-81-209-5-82-5-329 0-413 4-79 22-151 81-209 59-59 129-76 209-81 82-4 329-4 411 0 80 5 152 22 209 81 59 59 77 130 81 209 8 83 8 330 3 412z m-107-500c-18-44-52-78-96-96-66-26-222-20-294-20-72 0-229-6-294 20-44 18-78 52-96 96-26 66-20 222-20 294s-6 229 20 294c18 44 52 78 96 96 66 26 222 20 294 20 72 0 229 6 294-20 44-18 78-52 96-96 26-66 20-222 20-294s6-229-20-294z m-122 621c-33 0-61-27-61-61s27-60 61-60c32 0 60 26 60 60-1 34-28 61-60 61z"/>
</svg>
