<svg xmlns="http://www.w3.org/2000/svg" viewBox="0 0 1000 1000">
  <path transform="translate(0,850) scale(1,-1)" fill="currentColor" d="M991-3l-79 80 63 42c9 6 13 16 12 27s-9 19-19 22l-106 35c28 57 42 121 42 188 0 34-4 66-11 97 28 19 45 52 45 87 0 59-47 106-106 106-11 0-23-2-35-6-79 93-197 152-328 152-240 0-435-196-435-436 0-34 4-66 12-97-28-19-46-51-46-88 0-59 47-106 106-106 12 0 23 2 35 6 80-91 197-150 328-150 69 0 135 16 194 46l34-105c3-10 12-18 22-19s21 3 27 12l42 63 12-12 2-1 36-37c21 20 22 53 5 73 0 2-2 2-3 3l-2 2-36 37c-6 6-15 9-23 7-8-1-16-6-20-12l-30-44-79 244 174-56 16-4 57-19-44-30c-7-4-12-11-12-20s2-16 8-22l85-86-27-26c0 0-1-2-3-3-17-22-16-53 5-74l37 37 1 2 44 44c6 6 9 12 9 19 0 9-3 16-9 22l0 0z m-159 631c28 0 52-24 52-51 0-28-24-52-52-52-28 0-51 24-51 52 0 27 23 51 51 51z m-335 122c47-22 88-62 121-115 6-10 11-20 17-32h-138c0 1 0 147 0 147z m-56 2v-148h-141c6 11 12 23 18 33 32 53 76 92 123 115z m0-203v-55c-37-10-64-38-75-75h-113c3 46 10 90 24 130 1 0 164 0 164 0z m-239 111c38 39 83 68 135 87-25-23-47-50-66-81-12-19-22-39-31-60h-30c-29-2-53-27-53-56h64c-12-41-19-84-22-129h-108c8 92 47 176 111 239l0 0z m-96-504c-28 0-52 23-52 51 0 28 24 52 52 52 28 0 51-24 51-52 0-29-22-51-51-51z m82-19c16 19 25 42 25 69 0 59-47 106-106 106-3 0-5 0-8 0-3 16-6 34-8 51h108c4-92 30-178 73-247 19-31 41-57 66-81-59 22-110 58-150 102z m253 97h-145c0-30 23-55 53-56v0h92v-147c-47 22-89 60-123 115-37 58-61 135-65 217h113c11-36 38-64 75-75l0-54 0 0z m-23 157c0 28 23 52 51 52 28 0 52-24 52-52 0-28-24-51-52-51-28 0-51 23-51 51z m79-359v146h109l10-34c-32-50-73-90-119-112z m99 2c14 13 29 29 42 45l8-23c-17-9-33-16-50-22z m72 234l-50 16c-11 3-21 0-28-7s-11-18-8-28l5-15h-90v54c37 11 65 39 75 75h110c-3-34-7-66-14-95z m-96 151c-10 37-38 65-75 75v55h160c14-40 22-84 24-130h-109z m93 246c-19 32-43 60-69 84 60-21 113-58 154-103-10-12-18-27-22-42h-32c-9 21-19 42-31 61z m142-444l-88 29c9 37 15 74 18 113h35c30 2 53 27 53 56h-88c-2 46-9 88-22 130h13c12-46 53-80 103-80 3 0 6 0 9 0 6-25 9-51 9-79 0-61-15-118-42-169l0 0z"/>
</svg>
