<svg xmlns="http://www.w3.org/2000/svg" viewBox="0 0 1000 1000">
  <path transform="translate(0,850) scale(1,-1)" fill="currentColor" d="M412 24c0 0 0 0 0 0l1 1 0 0c19 22 19 54-1 77l-37-37-12-12-160 159 278 278v0c0 0 0 0 0 0l1 1 0 0c20 22 20 55-1 77l-37-37-281-281-54 54-40-39 55-55 50-50-106-104-30 29-38-39 29-30 0 0 139-138 0 0 29-30 40 40-30 30 106 106 50-51v0l53-52 40 39-53 53 9 11z m-246-67l-60 61 106 106 60-61c0 0-106-106-106-106z m715 675l-29 30 148 148-40 40-148-150-50 50-77-76c-14 8-31 13-47 13-23 0-48-9-66-28l-31-31 0 0c-19-22-19-54 2-76l36 36 2 2 1 1 30 30c7 7 17 11 28 11 10 0 20-4 28-11l104-105c7-7 12-17 12-28 0-10-5-20-12-28l-32-32-56 56-40-40 56-56-35-35-56 56-40-40 56-56-35-35-56 57-40-39 56-56-35-36-55 58-39-40 56-56-18-17 0 0c-19-22-19-55 1-77l37 37 2 1 310 312c18 18 28 43 28 66 0 16-5 34-13 49l76 76c0-1-19 19-19 19z m-94-54l-60 60 35 36 60-61-35-35z"/>
</svg>
