<svg xmlns="http://www.w3.org/2000/svg" viewBox="0 0 1000 1000">
  <path transform="translate(0,850) scale(1,-1)" fill="currentColor" d="M200 666v-87c0-7 3-14 9-20 6-6 13-9 20-9h114c7 0 14 3 20 9 6 6 9 13 9 20v140c0 72-59 131-131 131h-50v0c-29-1-54-26-54-56h103c20 0 38-9 53-22 13-13 22-32 22-53v-25h-63c-11 25-36 41-64 41h-182v-56h182c6 0 12-5 12-13l0 0z m57-28h58v-29h-58c0 0 0 29 0 29z m-195 156h3v0c29 2 54 27 54 56h-113v-56l56 0 0 0z m850-823l-155-65h-170v0h-165c-10 0-19 9-19 19 0 10 9 19 19 19h165v56h-212c-10 0-19 9-19 19 0 10 9 19 19 19h212v56h-246c-10 0-19 9-19 19 0 11 9 19 19 19h246v56h-230c-10 0-19 9-19 19 0 11 9 20 19 20h230v55h-43l-37 39c-13 13-19 29-19 47 0 7 2 14 5 22l6-6 39-40c22 22 22 56 2 78l0 0-33 34c-5 6-11 9-20 9-8 0-15-3-21-9-23-24-35-56-35-87 0-29 10-60 32-84h-26v0h-228c-41 0-75-33-75-75 0-13 4-26 10-38-16-15-26-35-26-57 0-28 16-53 39-66-3-9-5-20-5-30 0-34 22-62 51-71-3-7-4-14-4-23 0-41 33-75 75-75h313v0h175c4 0 7 0 10 1l155 65h66v56h-72c-2 1-6 0-9-1z m-703 257h76c-1-6-3-12-3-19 0-6 2-13 3-19h-76c-10 0-19 9-19 19 0 10 9 19 19 19z m-16-132c-11 0-19 8-19 19 0 10 8 19 19 19h76c-1-6-3-12-3-19 0-6 2-13 3-19 0 0-76 0-76 0z m14-75c0 10 9 19 20 19h76c-1-6-3-12-3-19 0-6 2-14 3-19h-76c-12 0-20 8-20 19z m143-115h-76c-11 0-20 9-20 19 0 10 9 19 20 19h76c-1-6-3-12-3-19 0-6 2-12 3-19z m494 362l-188 186c-6 6-13 9-21 9-7 0-14-3-20-9-24-23-36-55-36-86 0-30 11-61 33-84h-27v-56h94c12 0 23 7 27 18 4 10 1 22-6 31l-44 44c-13 13-19 29-19 47 0 7 1 14 4 22l171-171c6-6 13-9 20-9h162v56l-150 2 0 0z m-554 167c-8 0-15-3-21-8s-9-14-9-21c0-7 3-15 9-21 6-6 13-8 21-8 7 0 14 2 20 8 6 6 9 14 9 21 0 7-3 15-9 21-6 5-13 8-20 8z m-61-14c6 6 9 13 9 20 0 8-3 15-9 21-5 6-13 9-20 9-7 0-15-3-21-9s-9-13-9-21c0-7 3-14 9-20 6-6 14-9 21-9 9 0 16 3 20 9z m81 100c-6 6-13 8-20 8-8 0-15-2-21-8-6-6-9-14-9-21 0-7 3-15 9-21s13-8 21-8c7 0 14 3 20 8 6 6 9 14 9 21 0 7-4 15-9 21z m-97-206c8 0 15 3 21 9 6 5 9 13 9 20 0 8-3 15-9 21-6 6-13 9-21 9-7 0-14-3-20-9s-9-13-9-21c0-7 3-15 9-20 6-6 13-9 20-9z m130 125c0-8 3-15 9-21 5-6 13-9 20-9 7 0 15 3 21 9 6 6 9 13 9 21 0 7-3 14-9 20-6 6-14 9-21 9-7 0-15-3-20-9s-9-13-9-20z m28-61c-8 0-15-2-21-8s-9-14-9-21c0-7 3-15 9-21 6-5 13-8 21-8 7 0 14 3 20 8 6 6 9 14 9 21 0 7-3 15-9 21-6 6-13 8-20 8z"/>
</svg>
