<svg xmlns="http://www.w3.org/2000/svg" viewBox="0 0 1000 1000">
  <path transform="translate(0,850) scale(1,-1)" fill="currentColor" d="M210 179l-29-29 0 0-37-37 31-31 37 37 0 0c16 16 16 43-2 60z m580 342l31 31v0l35 35-31 31-37-37 0 0c-16-16-16-43 2-60z m179-44l-47-48c-3-2-6-7-6-11l-23-116 0-3-12-174-59-66c-3-5-7-6-12-6-4 0-7 1-11 4-5 3-6 8-6 12 0 3 1 8 3 10l38 46c3 3 4 7 4 12l9 128c2 12-9 22-20 23-12 2-23-9-24-20l-9-121-13-16 0 0-21-25c0 0 0 0 0 0l-45-54c-3-5-8-6-12-6-4 0-7 1-10 4l0 0c-3 3-5 7-5 10 0 3 2 8 3 9l71 85c3 3 4 6 4 11l12 67c0 0 0 2 0 2 0 1 0 1 0 3 0 0 0 1 0 1 0 0 0 2 0 2 0 0 0 1 0 1 0 0 0 2 0 2 0 0 0 1-1 1 0 0 0 2-2 2 0 0-1 1-1 1 0 0-2 2-2 2 0 0-1 1-1 1 0 0-2 2-2 2 0 0-1 1-3 1 0 0-1 0-1 1 0 0 0 0 0 0 0 0-2 0-2 0 0 0-1 0-1 0 0 0 0 0 0 0 0 0-2 0-2 0-1 0-1 0-3 0 0 0-1 0-1 0 0 0-2 0-2 0 0 0-1 0-1 0 0 0-1 0-1 0 0 0-2 0-2-1 0 0-1 0-1-1 0 0-2-2-2-2 0 0-1-1-1-1 0 0-2-2-2-2 0 0-1-1-1-1 0 0-2-2-2-3 0 0 0-2-1-2l-36-82-107-55c-1-1-4-1-6-1-3 0-6 1-7 1-2 2-5 3-5 6 0 2-1 3-1 6 0 5 3 11 7 12l96 49c4 2 9 5 10 10l25 57c0 0 0 2 0 2 0 0 0 1 2 3 0 0 0 1 0 1 0 0 0 2 0 2 0 1 0 1 0 1 0 0 0 1 0 1 0 2 0 2 0 3 0 0 0 2 0 2 0 0 0 0 0 1 0 2 0 2-2 2 0 0 0 1-1 1 0 0-2 2-2 2 0 0-1 1-1 1 0 0-2 2-2 2 0 0-1 1-1 1 0 0-2 2-2 2 0 0-1 1-1 1 0 0 0 0 0 0 0 0-2 0-2 0 0 0-1 0-2 2 0 0-2 0-2 0 0 0-1 0-1 0 0 0-2 0-2 0 0 0-1 0-1 0-2 0-2 0-3 0 0 0-2 0-2 0l-84-25-70 86c1 0 3 0 4 0 9 0 18-3 24-10l39-40c6-6 15-8 24-6l85 33c8 3 12 9 14 15l16 63c1 9 0 17-8 22l-64 54c-9 16-21 16-30 11l-79-56c-6-5-13-6-21-6-4 0-7 1-12 1l121 93 57-7h0l42-6v0c3 22-11 41-31 47-2 0-3 1-6 1l-66 9c-6 1-12-1-17-4l-150-117c-4-4-7-8-8-14 0 0 0-2 0-2l-52 66c-6 8-15 11-23 8l-52-15 3 6 88 44c21 10 33 31 33 52 0 7-2 14-5 22-9 22-31 35-53 35-8 0-17-2-26-6l-38-19c4 9 7 19 7 29 0 15-6 31-18 43-11 12-26 18-41 18-16 0-34-8-45-22l-9-11c-3 5-6 8-9 11-12 10-27 16-41 16-16 0-34-8-46-21l-63-72c-3-4-6-9-6-13l-12-181-22-109-41-43 31-30 47 47c3 3 6 7 6 11l23 117 0 3 12 173 59 66c3 5 7 6 12 6 4 0 7-1 12-4 4-3 5-8 5-12 0-3-1-7-3-10l-38-46c-3-4-4-9-4-13l-9-128c-1-12 9-22 21-24 11-1 22 9 23 21l9 121 13 16 0 0 21 25c0 0 0 0 0 0l45 54c3 5 8 6 12 6 5 0 7-1 10-4 3-3 5-8 5-11 0-3-2-7-3-9l-72-88c-3-3-5-6-5-10l-11-68c0 0 0-1 0-1 0-2 0-2 0-3 0 0 0-2 0-2 0 0 0-1 0-1 0 0 0-2 0-2 0 0 0-1 0-1 0 0 0-1 1-1 0 0 0-2 2-2 0 0 1-1 1-1 0 0 2-2 2-2 0 0 1-1 1-1 0 0 1-2 1-2 0 0 2-1 3-1 0 0 2 0 2-2 0 0 0 0 0 0 0 0 1 0 1 0 0 0 2 0 2 0 0 0 0 0 0 0 0 0 1 0 1 0 2 0 2 0 3 0 0 0 2 0 2 0 0 0 1 0 1 0 0 0 2 0 2 0 0 0 1 0 1 0 0 0 2 0 2 2 0 0 1 0 1 1 0 0 2 2 2 2 0 0 1 1 1 1 0 0 1 2 1 2 0 0 2 1 2 1 0 0 1 2 1 3 0 0 0 1 2 1l35 83 108 54c1 2 4 2 5 2 3 0 6-2 8-2 1-1 4-3 4-6 0-1 2-3 2-6 0-4-3-10-8-11l-95-49c-5-3-9-6-11-10l-25-57c0 0 0-2 0-2 0 0 0-1-1-3 0 0 0-1 0-1 0 0 0-2 0-2 0 0 0-1 0-1 0 0 0-2 0-2 0-1 0-1 0-3 0 0 0-1 0-1 0 0 0 0 0-2 0-1 0-1 1-1 0 0 0-2 2-2 0 0 1-1 1-1 0 0 2-2 2-2 0 0 1-1 1-1 0 0 2-1 2-1 0 0 1-2 1-2 0 0 2-1 2-1 0 0 0 0 0 0 0 0 1 0 1 0 0 0 2 0 3-2 0 0 2 0 2 0 0 0 1 0 1 0 0 0 2 0 2 0 0 0 1 0 1 0 1 0 1 0 3 0 0 0 1 0 1 0l84 25 71-87c-2 0-3 0-5 0-8 0-17 3-23 11l-40 39c-6 6-15 9-23 6l-81-37c-8-2-12-8-13-14l-17-63c-1-9 0-18 8-23l64-54c8-6 20-7 27-1l79 55c6 5 14 6 21 6 4 0 7-1 12-1l-121-93-57 8h0l-41 5c-3-22 10-41 30-47 2 0 3-1 6-1l66-9c6-1 12 2 17 5l150 116c4 4 7 9 8 14 0 0 0 2 0 2l55-66c6-8 15-11 23-8l52 15-3-6-88-44c-21-10-33-31-33-51 0-6 2-12 3-18 0-2 0-3 2-4 9-23 31-36 53-36 9 0 17 2 26 6l38 19c-4-9-7-19-7-29 0-13 6-28 15-38 1-2 1-3 3-3 11-12 26-18 41-18 16 0 34 7 45 22l9 10c3-4 6-7 9-10 12-10 27-16 41-16 16 0 34 7 46 20l65 73c3 4 5 8 5 13l12 181 22 108 43 43-37 30 0 0z m-316-46l41-34-10-40-62-23-29 29c-6 6-12 9-18 14 4 1 9 4 12 7l66 47 0 0z m-149-52c0 0 0 0 0 0l0 0c0 0 0 0 0 0z m-157-110l-41 34 10 40 62 23 29-29c6-6 12-9 18-13-4-2-9-5-12-8-1 0-66-47-66-47z m149 52c0 0 0 0 0 0l0 0c0 0 0 0 0 0l0 0z"/>
</svg>
