<svg xmlns="http://www.w3.org/2000/svg" viewBox="0 0 1000 1000">
  <path transform="translate(0,850) scale(1,-1)" fill="currentColor" d="M993 368l-86 109c-5 7-16 13-26 13h-388c-47 75-131 125-227 125-147-2-266-121-266-268 0-123 85-228 200-259 18-4 35 6 40 24 4 17-6 35-24 40-87 23-150 101-150 195 0 56 22 106 59 143 37 37 87 59 143 59 78 0 144-45 178-108 6-10 16-17 29-17h393l59-75-59-75h-21l-48 73c-6 9-15 13-25 15-11 1-21-3-27-10l-56-64-56 61c-6 7-16 11-25 10-10 0-19-5-25-13l-57-75h-54c-12 0-24-8-30-18-26-51-75-90-132-103-18-4-30-22-25-40s22-29 40-25c69 17 127 61 164 119h53c10 0 19 5 27 14l44 57 53-59c6-7 14-10 25-10 9 0 17 4 25 10l51 56 34-53c6-9 16-15 28-15h51c11 0 20 5 27 14l85 109c9 11 9 29-1 41l0 0z m-906-21c0-48 40-88 88-88 49 0 88 40 88 88 0 49-39 88-88 88-48 0-88-39-88-88z m112 0c0-13-11-23-24-23-13 0-23 10-23 23 0 13 10 24 23 24 13 0 24-11 24-24z"/>
</svg>
