<svg xmlns="http://www.w3.org/2000/svg" viewBox="0 0 1000 1000">
  <path transform="translate(0,850) scale(1,-1)" fill="currentColor" d="M963 60l-222 222c28 55 41 115 41 175 0 100-38 202-114 278-75 77-177 115-277 115-100 0-200-38-276-115-77-76-115-176-115-276 0-77 22-153 66-218 13-20 41-26 62-12 21 14 26 42 12 62-34 50-52 109-52 168 0 78 30 154 89 213 58 59 136 88 213 88 78 0 154-29 213-88 59-59 88-137 88-215 0-55-14-110-45-158l0-2c-12-19-25-37-43-53-16-16-35-31-53-42l-1 0c-49-31-105-46-159-46-53 0-106 13-153 41-21 13-49 6-62-16-13-21-6-49 16-62 62-37 131-54 199-54 60 0 120 14 175 41l222-222c23-24 56-37 87-37 30 0 63 12 86 37 24 23 37 56 37 87 3 33-9 66-34 89z"/>
</svg>
