<svg xmlns="http://www.w3.org/2000/svg" viewBox="0 0 1000 1000">
  <path transform="translate(0,850) scale(1,-1)" fill="currentColor" d="M694 568h-10v179c0 57-46 103-103 103h-163c-58 0-103-46-103-103v-179h-11c-72 0-130-59-130-131v-390c0-57 36-104 86-124v-32c0-23 19-43 43-43s43 20 43 43v24h295v-24c0-23 19-43 43-43s43 20 43 43v30c54 16 94 66 94 125v391c4 72-55 131-127 131z m-291 179c0 9 7 16 16 16h163c9 0 17-7 17-16v-179h-196c0 0 0 179 0 179z m335-698c0-25-19-45-44-45h-388c-25 0-44 20-44 45v388c0 25 19 44 44 44h390c25 0 44-19 44-44v-388z m-379 330h282v-86h-282v86z m0-188h282v-87h-282v87z"/>
</svg>
