<svg xmlns="http://www.w3.org/2000/svg" viewBox="0 0 1000 1000">
  <path transform="translate(0,850) scale(1,-1)" fill="currentColor" d="M874 594h-125v110c0 56-45 100-100 100h-297c-56 0-100-44-100-100v-110h-125c-71-1-127-57-127-126v-446c0-69 56-126 127-126h747c69 0 126 55 126 126v446c0 69-56 125-126 126z m-530 110l8 8h295l7-8v-110h-310c0 0 0 110 0 110z m563-682c0-19-14-34-33-34h-747c-20 0-34 15-34 34v177h260v-55c0-12 4-23 13-32 9-9 21-13 33-13h201c12 0 24 4 32 13 9 9 14 20 14 32v55h260l1-177 0 0z m0 269h-814v177c0 19 14 34 34 34h747c19 0 33-15 33-34v-177z"/>
</svg>
