<svg xmlns="http://www.w3.org/2000/svg" viewBox="0 0 1000 1000">
  <path transform="translate(0,850) scale(1,-1)" fill="currentColor" d="M979 477c-20 27-47 38-67 44-21 6-35 6-38 6h-193c0 1 1 2 1 4 5 16 11 34 15 50 2 7 5 15 5 22 1 7 2 13 2 22 0 3 0 12 0 22 0 18-1 41-17 66-15 25-43 44-80 55-16 4-30 7-45 7-37 2-68-18-85-38-18-21-25-44-31-59-3-10-21-47-42-81-20-34-45-69-61-82l59-69c30 26 57 66 80 104 24 40 42 75 49 99 4 13 9 25 15 29 6 4 6 6 17 7 5 0 12-1 21-3 20-5 25-11 26-14 2-3 3-9 3-19 0-6 0-14 0-22h0c0-2-3-14-6-27-5-21-13-47-19-68-6-20-11-35-11-35-5-13-3-29 5-41 9-12 22-19 37-19h255c1 0 16-2 23-6l9-7c1-3 3-6 3-17 0-10-3-17-6-23-4-9-13-16-22-21l-10-4-3 0 0 0c-14-3-24-12-30-24-6-11-6-26 0-38 6-13 8-20 8-26 0-8-2-11-5-14-4-5-13-13-23-16l-12-4-3-2 0 0 0 0c-15-3-26-13-32-26-6-15-5-30 4-43 10-16 12-25 12-28l-3-9c-3-4-10-10-18-14l-9-5-3-1 0 0c-23-7-35-32-27-56 2-7 2-12 2-15l-1-9-7-10-2-1c-6 0-16-2-29-2-22-1-52-1-77-1-25 0-50 1-56 3 0 0-17 6-33 16-27 15-61 35-87 53-27 17-46 31-46 31l-51-74c0 0 35-25 78-51 20-14 42-27 63-39 21-11 38-20 57-25 22-4 47-4 75-6 56 0 119 5 121 5l9 1c3 2 20 6 39 21 9 7 20 18 28 32 8 15 14 33 14 52 0 1 0 3 0 4 3 2 5 3 8 6 11 9 22 19 33 34 10 15 16 35 16 57 0 11-3 21-6 30 2 0 2 1 3 1 13 9 28 21 40 37 11 16 20 40 20 65 0 7-1 13-3 20 5 3 8 5 12 8 13 10 28 23 38 41 12 19 18 42 18 69-3 28-10 53-24 71z m-758 82h-177c-12 0-23-5-32-13-8-9-12-21-12-33v-482c0-12 4-24 13-33 9-8 21-13 33-13h176c12 0 24 5 32 13 9 9 14 21 14 33v482c0 12-5 24-14 33-10 7-22 13-33 13l0 0z"/>
</svg>
