<svg xmlns="http://www.w3.org/2000/svg" viewBox="0 0 1000 1000">
  <path transform="translate(0,850) scale(1,-1)" fill="currentColor" d="M825 522c-29 0-57-12-78-29-20 17-48 29-78 29-29 0-57-12-78-29-20 17-48 29-78 29-20 0-39-6-57-15v222c0 67-54 121-121 121-66 0-120-54-120-121v-41h-153l35-66-35-66h153v-188l-71-41c-56-31-88-90-88-150 0-30 7-61 25-89l93-156c26-45 76-73 129-75l412-6 3 0c125 0 226 102 226 227v325c0 66-54 119-119 119l0 0z m-194-119c0 21 16 37 37 37 20 0 36-16 36-37v-94c0-21-16-37-36-37-21 0-37 16-37 37v94z m-156 0c0 21 16 37 37 37 20 0 37-16 37-37v-94c0-21-17-37-37-37-21 0-37 16-37 37v94z m-178 326c0 21 18 39 38 39 21 0 39-18 39-39v-41h-77v41z m0-173h77v-156c-17 6-31 10-49 10-9 0-19-1-28-3v149z m565-479c0-80-65-145-144-145l-3 0-412 6c-25 0-47 13-60 35l-91 156c-9 15-14 31-14 48 0 32 16 63 46 79l115 66c7 5 16 7 25 7 17 0 33-8 44-25 4-8 7-16 7-25 0-17-9-35-25-44l-107-61 39-72 108 60c22 13 39 31 51 51 21-14 44-25 72-25 30 0 58 12 78 30 21-18 49-30 78-30 30 0 58 12 78 30 21-18 49-30 78-30 13 0 25 3 37 6l0-117 0 0z m0 279v-47c0-21-16-37-37-37-21 0-37 16-37 37v94c0 21 16 37 37 37 21 0 37-16 37-37v-47z"/>
</svg>
