<svg xmlns="http://www.w3.org/2000/svg" viewBox="0 0 1000 1000">
  <path transform="translate(0,850) scale(1,-1)" fill="currentColor" d="M788 728c-16 0-31-3-45-9-18 41-59 71-106 71-16 0-31-3-46-9-14 40-56 69-103 69-47 0-88-29-106-71-13 6-29 9-45 9-63 0-115-51-115-114v-128c-70-9-126-68-126-142v-170c0-55 14-106 47-146 23-31 59-53 100-61v-177h79v212c0 22-18 40-40 40-35 1-58 14-78 36-17 22-29 58-29 96v170c0 36 28 64 65 65h172c26 0 48-20 48-47l0 0v-1c0-27-22-49-48-49h-190v-79h190c45 0 85 23 107 60 16 4 31 13 44 25 21-18 46-29 75-29 30 0 55 11 75 29 21-18 47-29 75-29 14 0 25 3 36 5v-116c0-42-12-78-30-100-19-22-42-35-81-36l-3 0c-10 0-20-5-28-12-7-8-11-18-11-28v-212h79v177c44 7 81 30 106 61 32 41 47 94 47 150v375c0 64-51 115-115 115z m-414-181h-72v127c0 19 16 35 35 35 19 0 35-16 35-35l2-127 0 0z m150 128v-194c-15 28-42 50-72 60v194c0 19 16 36 35 36 19 0 35-17 35-36v-60z m150-62v-151c0-19-17-35-36-35-19 0-35 16-35 35v213c0 19 16 35 35 35 19 0 36-16 36-35v-62l0 0z m151-44v-106c0-19-16-35-35-35-19 0-36 16-36 35v150c0 19 17 36 36 36 19 0 35-17 35-36 0 0 0-44 0-44z"/>
</svg>
