<svg xmlns="http://www.w3.org/2000/svg" viewBox="0 0 1000 1000">
  <path transform="translate(0,850) scale(1,-1)" fill="currentColor" d="M872 654l0 0c-57 0-103-45-103-101l-1-141c-11 3-21 6-30 6-26 0-53-9-73-28l-3-3-162-177-160 177-3 3c-21 19-47 28-74 28-10 0-20-3-29-6l-2 141c0 56-45 101-101 101l-2 0c-55 0-100-45-100-101v0l0-410c0-34 15-66 40-89l235-204 55 62-235 204c-8 8-12 16-12 27l-3 409v0c0 11 9 20 20 20h0c12 0 21-9 21-20l3-236 1 0c0-3-1-7-1-10 0-25 9-52 28-74l0 0 98-108 61 54-99 107c-4 6-7 12-7 19 0 9 3 17 10 23 6 4 12 7 19 7 8 0 14-3 19-7l178-195 0-161h83v161l178 195c6 4 11 7 19 7 7 0 13-3 19-7 7-6 10-14 10-23 0-7-3-13-7-19l-100-106 60-54 99 109 0 0c17 20 28 47 28 73 0 3-2 8-2 11l2 0 3 235c0 12 8 21 20 21l0 0c12 0 21-9 21-21v0l-3-409c0-10-5-20-12-26l-235-206 54-62 234 204c25 23 40 55 40 89l3 409v0c0 55-46 101-102 102z m-354-111c-8-3-14-3-19-3-11 0-22 3-33 10-10 7-22 18-31 29l-67-47c14-20 32-38 54-53 12-7 27-13 41-17v-35h83v38c22 7 41 20 56 38 16 18 27 41 27 69 0 18-5 35-16 52-13 19-31 30-47 39-17 8-34 12-48 14-18 2-34 5-43 8l-9 5-3 4 0 5 5 13c9 10 20 15 38 16 23 0 47-13 56-28l70 41c-19 36-50 56-83 65v44h-83v-44c-22-6-44-19-60-38-16-21-24-43-24-66 0-9 2-20 5-28 4-17 13-30 23-40 17-16 36-24 52-28 16-4 31-6 42-9 11-1 21-4 28-7 8-3 12-8 14-9l3-7c0-3-2-9-8-17-7-5-16-13-23-14l0 0z"/>
</svg>
