<svg xmlns="http://www.w3.org/2000/svg" viewBox="0 0 1000 1000">
  <path transform="translate(0,850) scale(1,-1)" fill="currentColor" d="M962 466c-22 19-50 30-78 30-32 0-63-14-87-39l-134-151c-20 46-64 75-116 75l-1 0-5 0-425-60 0 0c-64-3-116-56-116-122v-212c0-68 54-122 122-122h443c10 0 20 4 28 13l376 426c19 23 30 50 30 77 1 31-12 62-37 85z m-47-113l-366-415-427 0c-26 0-48 22-48 49v212c0 26 20 48 47 48l4 0 421 60c25 0 47-19 51-45l0-8c0-25-19-48-45-51l-186-22 9-74 188 22 0 0c37 5 68 25 87 53l2-1 201 226c9 9 19 14 31 14 10 0 19-3 28-11 9-8 13-19 13-31 0-10-3-19-10-26l0 0z m-531 146h118v110h110v118h-110v108h-118v-110h-110v-118h110v-108z"/>
</svg>
