<svg xmlns="http://www.w3.org/2000/svg" viewBox="0 0 1000 1000">
  <path transform="translate(0,850) scale(1,-1)" fill="currentColor" d="M824 549l0 0c-43 47-102 69-161 69-44 0-86-12-126-34-12-6-24-10-38-10-15 0-27 3-39 10-38 22-82 34-126 34-59 0-118-22-160-69-71-78-114-181-114-293 0-166 93-310 230-384 25-13 54-21 82-21 35 0 72 12 100 39 7 6 16 10 25 10 10 0 19-4 25-10 28-27 65-39 100-39 30 0 57 8 82 21 137 74 230 218 230 384 3 112-40 215-110 293l0 0z m-155-606c-13-8-29-12-44-12-18 0-34 6-46 16-20 19-50 31-80 31-31 0-59-12-81-31-12-10-27-16-46-16-15 0-31 4-44 12-109 60-184 178-184 313 0 93 35 175 91 238 27 28 61 43 100 43 28 0 59-8 86-24 23-13 50-20 78-20 28 0 55 7 78 20 26 15 57 24 85 24 38 0 73-13 100-43 57-63 91-147 91-238 3-135-72-253-184-313l0 0z m-32 739c60 61 51 168 51 168s-107 9-167-51c-61-61-52-168-52-168s108-9 168 51z"/>
</svg>
