<svg xmlns="http://www.w3.org/2000/svg" viewBox="0 0 1000 1000">
  <path transform="translate(0,850) scale(1,-1)" fill="currentColor" d="M887 103l-15 116c-6 30-32 50-63 46l7-53h0l15-113 0-78h-497v57h318c8 0 17 4 22 12l67 91c3 4 6 10 6 16v193c0 51-32 95-79 112 1 5 1 11 1 17 0 6 0 12-1 18h51c31 0 58-24 62-55l18-132c5-29 32-50 63-46l-8 56-16 130c-7 59-59 104-117 104h-74c-7 10-16 19-26 27l10 23c3 8 3 15 0 22s-9 13-15 15l-14 6 36 88c3 7 3 15 0 22s-9 13-14 15l-83 35c-12 3-19 3-26 2-8-3-13-9-15-15l-37-88-14 6c-15 5-31-2-37-15l-134-319c-3-8-3-15 0-22s9-14 15-15l14-6-19-47c-3-7-3-15 0-22 3-7 9-13 15-15l82-35c15-6 31 1 37 15l19 47 15-6c15-6 31 1 37 15l29 72c7-2 13-2 21-2 42 0 81 22 103 55 25-9 42-31 42-59v-186l-53-72h-7v83c0 7-3 14-9 20-6 6-13 9-20 9h-371c-7 0-15-3-21-9s-8-13-8-20v-114c0-7 3-14 8-20 6-6 14-9 21-9h50v-57h-137c-7 0-14-3-20-9-6-6-9-13-9-21v-113c0-7 3-15 9-21 6-1 13-4 20-4h146c0 31-24 54-55 56l-63 0v56h500v-56h-315c0-31 24-55 55-56l290 0c7 0 14 3 20 9 6 6 9 13 9 20v84h134c7 0 15 3 20 9 6 6 9 13 9 21v107l-4 3 0 0z m-346 682l31-13-26-62-3 2-28 10c0 0 26 63 26 63z m-160-467l-31 13 9 21 31-14-9-20 0 0z m72 56l-15 5c0 0 0 0 0 0l-82 36c0 0 0 0 0 0l-15 6 112 266 19-9 78-32c0 0 0 0 0 0l4-2c-2 0-7 0-10 0-69 0-125-56-125-125 0-41 21-78 52-101l-18-44 0 0z m140 98c-12-12-30-20-49-20-19 0-35 7-48 20-12 12-21 30-21 49 0 19 7 35 21 48 11 12 29 21 48 21 19 0 35-8 49-21 11-12 20-29 20-48 0-19-9-37-20-49z m-337-340v56h318v-56c0 0-318 0-318 0z m288 417c-7 0-15-3-20-9-6-6-9-13-9-21 0-7 3-15 9-20s13-9 20-9c8 0 15 3 21 9 6 5 9 13 9 20 0 8-3 15-9 21-6 6-13 9-21 9z"/>
</svg>
