<svg xmlns="http://www.w3.org/2000/svg" viewBox="0 0 1000 1000">
  <path transform="translate(0,850) scale(1,-1)" fill="currentColor" d="M822 407v61h-59v-31h-82v100c-31 0-57-25-59-56v-81c0-35-15-68-37-90-23-23-54-36-89-36h0c-36 0-68 14-90 36-24 24-37 55-37 90v265c0 35 15 67 37 89 21 23 53 37 88 37h0c35 0 68-14 90-37 23-23 37-54 37-89v-88c31 0 57 25 58 55v33c0 103-83 187-186 187h0c-103 0-187-84-187-187v-228h-71v38h-58l0-68c0-136 86-254 207-300v-80c-66-6-118-62-118-130v-18c0-7 3-14 9-20 6-6 13-9 21-9h42c31 1 56 28 56 59h-67c2 14 8 28 19 38 13 13 31 21 50 21h200c19 0 36-8 50-21 10-10 17-24 19-38h-155c-31-2-56-28-56-59v0h245c7 0 14 3 20 9 6 6 9 13 9 20v18c0 71-56 128-126 130v75c127 42 220 163 220 305l0 0z m-279-380h-99v58h99v-58z m-43 117c-72 0-138 30-185 77-41 41-69 95-75 156h69c10-93 90-165 185-165h0c96 0 174 72 185 165h83c-8-61-34-115-75-156-49-47-115-77-187-77z m15 552c-6 6-13 8-21 8-7 0-15-2-20-8-6-6-9-14-9-21 0-7 3-15 9-21 5-5 13-8 20-8 8 0 15 3 21 8 6 6 9 14 9 21 0 7-3 15-9 21z m78 0c-5 4-14 7-21 7-7 0-15-3-20-9-6-6-9-13-9-20 0-8 3-15 9-21 5-6 13-9 20-9 7 0 15 3 21 9 6 6 9 13 9 21 0 8-3 16-9 22z m-156 0c-6 6-13 8-21 8-7 0-14-2-20-8-6-6-9-14-9-21 0-7 3-15 9-21 6-5 13-8 20-8 8 0 15 3 21 8 6 6 9 14 9 21-2 7-5 15-9 21z m78-80c-6 6-13 9-21 9-7 0-15-3-20-9-6-6-9-13-9-20 0-8 3-15 9-21 5-6 13-9 20-9 8 0 15 3 21 9 6 6 9 13 9 21 0 7-3 14-9 20z m78 0c-6 6-14 9-21 9-7 0-15-3-20-9-6-6-9-13-9-20 0-8 3-15 9-21 5-6 13-9 20-9 7 0 15 3 21 9 6 6 9 13 9 21 0 7-3 14-9 20z m-156 0c-6 6-13 9-21 9-7 0-14-3-20-9-6-6-9-13-9-20 0-8 3-15 9-21 6-6 13-9 20-9 8 0 15 3 21 9 6 6 9 13 9 21-2 7-5 14-9 20z m57-69c-7 0-15-3-20-9-6-6-9-13-9-20 0-8 3-15 9-21 5-6 13-9 20-9 8 0 15 3 21 9 6 6 9 13 9 21 0 7-3 14-9 20-6 6-13 9-21 9z m78 0c-7 0-15-3-20-9-6-6-9-13-9-20 0-8 3-15 9-21 5-6 13-9 20-9 7 0 15 3 21 9 6 6 9 13 9 21 0 7-3 14-9 20-5 6-14 9-21 9z m-157 0c-8 0-15-3-21-9-6-6-9-13-9-20 0-8 3-15 9-21 6-6 13-9 21-9 7 0 14 3 20 9 6 6 9 13 9 21 0 7-3 14-9 20-4 6-11 9-20 9z"/>
</svg>
