<svg xmlns="http://www.w3.org/2000/svg" viewBox="0 0 1000 1000">
  <path transform="translate(0,850) scale(1,-1)" fill="currentColor" d="M144 268c0 1 0-3 0 0l0 0z m847-111c2 2 3 3 5 6 8 14 6 30-6 40-37 28-84 46-134 46-16 0-32-2-47-5l-15 37c0 0 0 0 0 0l-1 3c1 0 3 0 6 0 23 0 45 9 60 23 6 6 10 14 10 21v96c0 8-3 16-10 22-16 14-37 23-60 23-24 0-46-9-62-25l-16 46c-5 13-19 20-33 17l-84-16c-14-3-25-17-22-34 3-14 18-25 34-22l59 12 15-41-84 6c-6 0-12-2-18-5l-107-69c-12 3-24 6-34 5-16 0-29-3-43-5-10-1-19-3-26-3 0 0 0 0 0 0v99l88 110c5 6 8 13 6 21l-22 178c-1 9-7 17-16 22l-99 48c-8 5-19 5-28-1-8-6-13-15-13-24v-192l-34-21-33 21v192c0 11-5 19-14 24-9 6-17 6-26 1l-96-41c-9-4-16-13-17-22l-24-185c-1-8 2-16 6-22l88-111v-83c28 0 52 23 56 50l0 44c0 6-1 13-6 17l-87 109 21 158 40 17v-165c0-10 6-19 14-25l64-36c8-5 19-5 28 0l63 36c9 5 15 15 15 25v164l44-22 16-152-87-109c-4-4-6-11-6-17v-434c0-2 0-3 0-6v-5c0-32-26-58-59-58-32 0-58 26-58 58v320c-28 0-52-24-56-50l0-91-84 22c-15 4-31-5-35-20l-25-88c-2-7-2-16 2-22 3-9 11-13 18-15l122-29v-27c0-64 52-116 116-116 55 0 100 39 114 89l128-31c8-2 19 0 25 7l70 65c0 0 0 0 0 0 2 1 3 3 5 4 0 0 0 2 1 2 1 1 1 3 1 4 0 0 0 2 0 2 0 0 0 0 0 0 3 8 3 17 3 26 0 46-30 87-76 100-9 3-18 3-27 3-36 0-69-19-88-50l-39 12v78c4 0 7 0 11 0 33 0 66 1 100 9 0 0 0 0 0 0l103 14 36-9-23-35 0 0c0 0 0 0 0 0l-1-3 0 0c-15-26-6-60 21-75l28 46 38 63 60 29 3-8c-72-37-122-112-122-199l0-1 0 0c0-15 13-27 28-27 10 0 19 0 29 0 9 0 18 0 27 0 13-65 70-113 138-113 78 0 141 63 141 141 0 35-13 68-34 91 12 13 21 28 31 41l0 0z m-847-73l-79 19 9 32 70-19c0 2 0-32 0-32z m362 15c4 0 7 0 12-2 14-3 25-13 31-26l-70 17c6 6 17 11 27 11l0 0z m13-80l-20-19-124 29v27c2 0 144-37 144-37z m-63 235c-24-2-46-4-68-4-4 0-7 0-11 0v28c13 0 26 3 36 4 14 2 24 5 34 5 3 0 6 0 9-2v-31z m212 0l-68 18c-3 2-7 2-12 0l-75-10v28l99 63 100-7 22-62-66-30 0 0z m186-64c28 0 55-8 77-19-4-6-9-14-13-19 0 0 0 0-2 0-1 1-3 1-4 2-2 2-5 2-6 3-2 0-4 2-6 2-1 0-4 1-6 1-3 0-4 2-7 2-2 0-5 1-6 1-3 0-6 2-9 2-1 0-3 0-4 0-5 0-9 0-14 0 0 0 0 0 0 0-7 0-13 0-19-2l-8 25c8 2 19 2 27 2l0 0z m-55 220c4 0 8-1 13-3v-64c-5-2-9-3-13-3-20 0-36 16-36 35 0 19 15 35 36 35z m-34-276c-3-3-6-6-9-7 0 0-2-2-2-2-2-3-5-6-8-9 0 0 0 0 0 0-3-3-6-7-8-10 0 0 0 0 0 0-3-3-4-7-7-12 0 0 0 0 0 0-2-4-4-7-6-12 0 0 0 0 0-1-1-4-3-9-4-13 0 0 0 0 0 0-2-5-3-9-3-14 0 0 0 0 0 0 0 0 0 0 0 0-8 0-16 0-24 0 6 34 22 65 46 89 10 10 22 19 35 26l9-23c-5-2-6-2-7-3 0 0-2 0-2-2-3-1-6-4-9-7 0 1-1 0-1 0l0 0z m150-169c-15-15-37-25-61-25-23 0-44 8-60 25-15 14-25 37-25 60 0 2 0 3 0 3 0 16 6 31 15 44 1 3 4 5 6 7 1 2 3 5 4 6 2 2 5 3 6 6l27-75c5-14 22-22 36-18 15 6 22 23 18 37l-27 75c0 0 0 0 0 0 6 0 11 0 17-1 1 0 4-2 6-2 2-1 5-1 8-3 2-1 5-1 6-2 3-2 5-3 8-5 1-1 4-3 5-4 3-3 8-5 11-8 14-14 25-36 25-60 0-23-11-46-25-60z m-715 435c0-3 0 2 0 0l0 0z m87-434c7 7 12 16 12 27s-5 19-12 26c-8 8-16 12-27 12s-19-4-26-12c-7-7-12-16-12-26s5-20 12-27c7-7 16-12 26-12s19 5 27 12z"/>
</svg>
