<svg xmlns="http://www.w3.org/2000/svg" viewBox="0 0 1000 1000">
  <path transform="translate(0,850) scale(1,-1)" fill="currentColor" d="M574 629c-8 0-15-2-20-7-4-4-7-12-7-19 0-7 3-15 7-19 5-5 12-7 20-7s14 2 19 7c4 4 7 12 7 19 0 7-3 15-7 19-5 5-12 7-19 7z m279-533l0 0c-7 56-44 104-96 126l-19 7v352c0 47-10 88-25 121-22 50-56 82-82 102-25 20-47 28-50 30 0 0 0 0 0 0 0 0 0 0-2 0l0 0c-27 12-55 16-79 16-46 0-76-13-81-16-6-2-41-18-79-55-19-19-40-45-55-77-14-33-25-74-25-121v-352l-19-7c-51-22-88-70-95-126l0 0-33-234 55-8 34 234 0 0c4 37 27 68 61 83l39 16c36-35 79-65 114-87 40-23 71-38 71-38 7-3 16-3 23 0 0 0 62 29 112 63l0 0 43 32c-18 24-50 28-74 14l0 0c-23-15-50-31-70-42-9-4-18-8-24-11-12 6-34 16-57 31-27 16-58 36-84 60l23 10c31 13 50 43 50 75v46c21-9 45-13 68-13 24 0 47 4 68 13v-46c0-32 19-62 50-75l117-48c34-15 58-46 62-83l0 0 34-234 54 8-29 234 0 0z m-293 688l0 0 0 0c0 0 3-2 6-3 12-6 43-22 68-53 19-22 35-51 44-91-65 32-119 84-153 147-3 6-7 9-12 12 15-3 31-6 47-12z m-223-105c17 40 44 65 66 83 10 9 21 13 28 17 3 2 6 3 7 5l2 1 0 0 0 0 1-1 0 0 2 0c4 1 22 9 45 10-4-3-9-6-11-12-34-63-89-116-155-148 3 18 9 32 15 45z m40-383c0-11-6-21-17-24l-44-19v221c9-40 31-75 61-100l0-78 0 0z m123 86c-22 0-43 6-62 15-39 21-67 60-70 107l-8 87c17 9 31 18 46 28-4-4-7-12-7-19 0-7 3-15 7-19 4-4 12-7 19-7 7 0 15 3 19 7 5 4 8 12 8 19 0 7-3 15-8 19-4 8-10 10-17 10-5 0-9-1-12-2 34 25 63 55 87 91 35-52 83-94 139-125l-7-89 0 0c-7-67-65-122-134-122z m184-129l-44 19c-11 5-16 13-16 24v79c29 27 51 60 60 102 0-2 0-224 0-224z m-416-209c-24-38-37-82-37-126 0-24 3-46 10-68l53 16c-4 16-7 34-7 53 0 37 10 74 31 103 3 5 4 10 4 16v68h-54c0-3 0-62 0-62z m464 59h-54v-68c0-6 1-11 4-16 21-29 31-66 31-103 0-18-3-35-7-53l53-16c6 22 10 46 10 68 0 44-12 88-37 126 0 3 0 62 0 62z"/>
</svg>
