<svg xmlns="http://www.w3.org/2000/svg" viewBox="0 0 1000 1000">
  <path transform="translate(0,850) scale(1,-1)" fill="currentColor" d="M947 522l-290-118c-14-5-23-19-23-35v-248c-10 3-22 6-34 6-28 0-54-9-75-25-21-17-35-42-35-71 0-29 14-55 35-71 21-16 47-25 75-25 28 0 54 9 75 25 21 16 35 42 35 71v221l214 86v-116c-11 3-22 6-34 6-28 0-55-9-75-25-21-16-36-41-36-71 0-29 15-54 36-70 20-16 47-25 75-25 28 0 54 9 75 25 20 16 35 41 35 70v353c0 14-6 25-16 33-12 7-25 9-37 4l0 0z m-54 241h-478c-59 0-108-48-108-107v-291c0-59 49-108 108-108h169v112c0 35 22 68 54 83l153 61-59 100c-5 9-14 15-25 15s-20-6-25-15l-88-156-44 49c-6 7-15 10-25 9-9-2-18-6-22-15l-99-165c-11 5-20 15-20 28v293c0 16 13 31 31 31h478c16 0 31-13 31-31v-90l4 2c24 9 49 7 71-3v89c1 61-47 109-106 109z m-639-223c0 10-4 20-11 26s-18 12-27 12h-109c-58 0-107-49-107-107v-314c0-58 49-107 107-107h322v77h-176c1 0 1 413 1 413z m-76-413h-71c-16 0-30 13-30 30v52h101v-82z m0 158h-101v75h101v-75z m0 152h-101v34c0 16 13 31 30 31h71c0 0 0-65 0-65z m251 147c0-25 21-44 45-44 25 0 44 20 44 44s-21 44-44 44-45-21-45-44z"/>
</svg>
