<svg xmlns="http://www.w3.org/2000/svg" viewBox="0 0 1000 1000">
  <path transform="translate(0,850) scale(1,-1)" fill="currentColor" d="M710 428l0 0 0 0 0 0z m167-418c-8 61-46 112-102 136l-126 53c-11 4-18 14-18 26v47c47 37 76 93 79 156l2 21c17 11 34 28 45 47 15 23 24 53 25 83 0 11-1 21-3 33-2 15-10 29-19 42-6 9-11 17-19 24 0 1 0 4 0 6 0 28-7 54-19 79-13 24-31 46-54 62l0 0c-30 16-62 25-93 25-31 0-60-9-87-25-7 0-14 2-22 2-67 0-129-28-172-74-40-43-62-99-63-157-10-22-16-46-16-69 0-14 1-25 4-39 6-23 19-42 35-59 12-11 27-23 40-32 10-50 37-94 77-125v-47c0-12-8-22-18-26l-126-53c-56-24-95-75-102-136l-21-153 58-7 19 154c4 40 31 74 68 90l126 53c32 13 53 44 53 80v14c24-9 49-13 74-13 26 0 51 4 73 13v-14c0-34 21-65 50-78-37-22-79-34-125-34-25 0-48 4-71 10-29 12-61-1-73-31l51-20c30-9 61-15 93-15 71 0 135 23 187 63l66-28c37-16 63-50 68-90l17-154 56 7-17 153 0 0z m-561 634c-3-4-6-9-7-13-15-28-22-60-22-94v0c0-3 0-6 0-9l0 0 1-51c-7 8-13 17-14 26l0 0c-2 7-3 16-3 24 0 17 4 33 13 50 3 4 3 8 3 14l0 3c0 44 17 90 47 121l0 0c31 34 81 56 131 56 9 0 16 0 25-2 7-1 14 2 20 6 18 13 42 21 64 21 22 0 42-6 60-18 15-10 28-24 35-40 9-16 13-35 13-53 0-4 0-8-1-13-2-10 3-20 12-26 4-3 11-11 17-19 6-9 11-20 11-24 1-7 1-13 1-19 0-15-4-31-10-44 0 0 0 0 0 0 0 17-2 35-6 51-2 6-6 12-10 16-5 5-12 6-18 6h0c0 0 0 0 0 0-7 0-13 0-21 0-26 0-51 2-75 8-10 3-20 4-29 8-19 8-41 21-59 39-17 16-31 36-35 53-2 7-7 14-15 17-7 5-15 5-23 2-36-13-67-36-90-63-3-15-10-24-15-33z m184-360c-78 0-144 59-153 135l0 2c0 3-1 7-1 11l0 0-5 99v0c0 1 0 4 0 6 0 9 0 16 2 25 1 7 3 16 6 23 4 15 11 30 20 42 13 17 30 32 49 44 10-19 23-36 38-49 23-22 50-40 78-50l0 0c22-7 43-13 65-16 19-3 38-3 57-3 0-6 1-10 1-16 0-2 0-5 0-6l-3-63v0l-1-36 0 0c-3-83-71-150-153-148z m-254-280v-150h56v97h0c0 28-25 53-56 53z m451 0v-150h56v97h0c-1 28-25 53-56 53z m-272 536c-7 0-15-3-21-9s-7-12-7-19 3-15 9-21 13-9 21-9c7 0 14 3 20 9 6 6 9 13 9 21s-3 15-9 20c-7 5-15 8-22 8z m150 0c-7 0-15-3-21-9s-8-13-8-21 3-14 8-20 14-9 21-9c7 0 15 3 21 9 4 7 7 14 7 22s-3 15-9 20c-4 5-12 8-19 8z m-282 213l0 0 0 0 0 0z m-74-265l0 0 0 0 0 0z"/>
</svg>
