<svg xmlns="http://www.w3.org/2000/svg" viewBox="0 0 1000 1000">
  <path transform="translate(0,850) scale(1,-1)" fill="currentColor" d="M757 524l-4 1-1 4c-48 136-175 228-321 228-187 0-338-151-338-338 0-32 4-63 13-94l1-6-5-3 0 0c-62-35-102-101-102-173 0-53 19-103 50-140 31-37 77-60 127-60h530c0 0 0 0 0 0 162 0 292 131 293 292 0 143-101 264-243 289l0 0z m103-442c-39-39-92-63-151-63 0 0 0 0 0 0h-532c-25 0-50 12-70 34-19 22-30 53-30 90 0 44 23 85 63 107l0 0 32 18c16 9 24 26 18 44l-11 35c-7 24-10 47-10 72 0 72 30 137 77 185 47 48 113 77 185 77 112 0 212-71 247-178l9-26c4-14 16-24 29-25l27-5c103-18 178-107 178-212 1-60-22-113-61-153l0 0z m-403 155l-83 84-55-55 112-112c7-7 18-11 28-11 10 0 20 4 28 11l217 218-54 55c-1 1-193-190-193-190z"/>
</svg>
