<svg xmlns="http://www.w3.org/2000/svg" viewBox="0 0 1000 1000">
  <path transform="translate(0,850) scale(1,-1)" fill="currentColor" d="M354 381c42 41 40 107 0 147-41 41-107 40-147 0-41-41-39-107 0-147 42-41 108-41 147 0z m524-450l-159 59c-25 8-51 10-76 3l-66-18 108 113c8 9 19 14 30 14h126c24 0 41 19 41 41 0 23-19 41-41 41h-126c-34 0-66-13-90-38l-101-106-89 212 67 8c51 8 89 52 89 103v153c0 24-19 41-41 41s-41-19-41-41v-153c0-10-7-19-18-20l-256-34h-120c-12 0-21 9-21 20v146c0 24-19 41-41 41-24 0-41-19-41-41v-146c0-57 47-104 104-104h69l128-299c24-55 84-86 146-73l209 59c9 3 17 1 25-2l159-59c4-1 10-3 14-3 18 0 33 11 40 28l0 0c6 22-6 46-28 55l0 0z m-443 4c-19-4-39 6-47 25l-114 269 78 11 122-294 0 0-39-11 0 0z m533 596l0 0-91 47c-12 6-18 21-15 34l29 98c5 17 0 33-12 43-11 10-29 13-44 7l-86-36c-15-6-31 0-39 14l-36 87c-6 15-21 25-37 25-16 0-31-9-38-22l-47-91c-6-12-21-18-34-15l-99 30c-16 4-32 0-42-12-11-12-14-30-8-44l43-100c9-21 34-31 54-22 21 8 31 33 22 54l-7 18 13-5c52-16 108 8 133 56l5 12 3-6c24-57 90-84 147-59l6 3-4-13c-16-52 7-107 56-132l19-11-21-7c-48-25-72-80-56-132l5-14-6 3c-24 11-50 12-74 5-22-6-35-30-29-52 6-22 29-35 51-29 5 1 12 1 20-2l86-36c6-3 11-3 17-3 10 0 20 3 27 10 12 10 17 28 12 43l-29 98c-5 13 1 28 15 34l91 47c13 7 22 22 22 37 0 16-9 31-22 38l0 0z"/>
</svg>
