<svg xmlns="http://www.w3.org/2000/svg" viewBox="0 0 1000 1000">
  <path transform="translate(0,850) scale(1,-1)" fill="currentColor" d="M897 460c-4-4-9-6-15-6-5 0-10 2-14 6l-43 43-159 160-42 43c-5 4-6 10-6 15 0 6 1 10 6 14l38 39 238-239 0 0c25-22 63-22 88 2l-42 42-262 262c-6 6-15 9-22 9-9 0-16-3-22-9l-61-60c-16-16-25-38-25-60 0-22 9-44 25-61l20-19-120-119c-30 10-63 15-94 15-81 0-160-31-222-93-11-12-13-32-1-44l17-19c24-24 64-24 89 0l-37 40c46 35 100 53 154 53 65 0 128-25 177-74 0 0 0 0 0 0 48-48 73-113 73-176 0-55-17-109-53-153l-247 239 0 0-3 3c-25 22-63 22-88-3l43-42 13-14-221-220c-2-3-4-6-5-9l-59-129c-6-12-3-27 6-36 8-9 23-12 35-6l129 59c3 2 8 5 9 6l222 222 143-141c12-12 32-12 45 0 62 62 93 141 93 222 0 32-4 63-15 94l120 119 19-19c16-16 38-25 60-25 21 0 43 8 59 24l0 0 44 42c-24 25-62 27-87 3l0 0z m-743-494l-47-20 21 47 218 217 25-25c1 0-217-219-217-219z m502 412c-13 24-29 46-50 65 0 0 0 0 0 0-19 19-41 36-65 50l103 103 115-115-103-103 0 0z"/>
</svg>
