<svg xmlns="http://www.w3.org/2000/svg" viewBox="0 0 1000 1000">
  <path transform="translate(0,850) scale(1,-1)" fill="currentColor" d="M137 154c-19 0-35 17-35 36v303c0 17 13 32 30 34l-63 63c-31-22-51-58-51-99v-303c0-66 53-119 119-119h453l-84 84h-369z m791 36v25c43 16 72 56 72 104v44c0 49-31 89-72 105v25c0 66-53 119-119 119h-524l-225 226-60-60 424-424 201-201 84-84 207-207 61 60-150 149c57 10 101 58 101 119l0 0z m-85 242v-244c0-19-16-35-36-35h-63l-373 375h436c20 0 36-16 36-35l0-61 0 0z"/>
</svg>
