<svg xmlns="http://www.w3.org/2000/svg" viewBox="0 0 1000 1000">
  <path transform="translate(0,850) scale(1,-1)" fill="currentColor" d="M834 78c75 87 112 194 112 303 0 119-46 238-137 329l-62-61c74-74 110-171 110-268 0-85-30-171-88-240l-72 72c38 50 59 109 59 169 0 71-27 143-81 196l-62-62c37-37 56-85 56-135 0-38-12-75-34-107l-75 75c5 10 6 22 6 32 0 50-39 90-89 90-12 0-23-3-33-6l-382 385-62-62 118-117v0l63-64v0l72-72 63-63 77-76 106-106 441-442 62 62-168 168 0 0z m-699 453l-66 66c-35-68-54-143-54-216 0-119 45-238 137-329l61 61c-73 74-110 171-110 268-1 51 12 101 32 150z m78-78c-6-24-10-49-10-72 0-71 26-143 81-196l62 62c-37 37-55 84-56 131l-77 75 0 0z"/>
</svg>
