<svg xmlns="http://www.w3.org/2000/svg" viewBox="0 0 1000 1000">
  <path transform="translate(0,850) scale(1,-1)" fill="currentColor" d="M882-69c6 0 14 3 18 7 4 5 7 10 7 18 0 6-3 13-7 17-4 5-10 8-18 8-5 0-13-3-17-8-5-4-8-10-8-17 0-6 3-13 8-18 6-4 12-7 17-7z m100 144c-5 6-13 9-20 9h-924c-7 0-14-3-20-9-6-6-9-13-9-21v-176c0-7 3-15 9-21s13-7 20-7h922c8 0 15 3 21 9s9 13 9 20v177c0 7-3 15-8 19z m-50-168l-864 0v120h864v-120z m-785 255l27 354 0 2c0 25 20 45 45 45h563c25 0 46-20 46-45l0-2 25-356c4-31 31-53 62-50l-5 58-26 353 0 0c-2 56-47 101-103 101h-75v66h76c8 0 15 3 21 9 6 6 9 13 9 21v103c0 7-3 14-9 20-6 6-13 9-21 9h-211c-8 0-15-3-21-9-6-6-9-13-9-20v-106c0-8 3-15 9-21s13-9 21-9h76v-66h-428c-56 0-101-45-103-101l0 0-28-355h0l-4-54c32-2 59 22 63 53l0 0z m453 582v49l153 0v-49h-153z m-93-278c-7 0-14-3-20-9-6-5-9-13-9-20v-231c0-7 3-15 9-21 6-6 13-8 20-8h259c8 0 15 2 21 8 6 6 9 14 9 21v231c0 7-3 15-9 20-6 6-13 9-21 9 0 0-259 0-259 0z m230-231h-202v174l202 0c0 0 0-174 0-174z m-408-251h277v-58h-277v58z m-85 429c6 0 13 3 18 8 4 4 7 10 7 17 0 6-3 14-7 18-5 4-10 7-18 7s-13-3-17-7c-5-4-8-10-8-18 0-6 3-13 8-17 5-5 11-8 17-8z m85 0c6 0 14 3 18 8 5 4 7 10 7 17 0 6-2 14-7 18-4 4-10 7-18 7-5 0-13-3-17-7-5-4-8-10-8-18 0-6 3-13 8-17 4-5 12-8 17-8z m83 0c6 0 13 3 17 8 5 4 8 10 8 17 0 6-3 14-8 18-4 4-10 7-17 7-6 0-13-3-18-7-4-4-7-10-7-18 0-6 3-13 7-17 6-5 12-8 18-8z m-184-70c4-5 10-8 18-8s13 3 17 8c5 4 8 10 8 17 0 6-3 14-8 18-4 4-10 7-17 7s-14-3-18-7c-4-4-7-10-7-18 0-7 1-13 7-17z m84 0c4-5 10-8 17-8 6 0 14 3 18 8 5 4 7 10 7 17 0 6-2 14-7 18-4 4-10 7-18 7-5 0-13-3-17-7-5-4-8-10-8-18 2-7 3-13 8-17z m82 0c5-5 10-8 18-8 6 0 13 3 17 8 5 4 8 10 8 17 0 6-3 14-8 18-4 4-10 7-17 7-6 0-13-3-18-7-4-4-7-10-7-18 1-7 3-13 7-17z m-166-77c4-4 10-7 18-7s13 3 17 7c5 5 8 11 8 18 0 6-3 13-8 18-4 4-10 7-17 7s-14-3-18-7c-4-5-7-11-7-18 0-7 1-13 7-18z m84 0c4-4 10-7 17-7 6 0 14 3 18 7 5 5 7 11 7 18 0 6-2 13-7 18-4 4-10 7-18 7-5 0-13-3-17-7-5-5-8-11-8-18 2-7 3-13 8-18z m82 0c5-4 10-7 18-7 6 0 13 3 17 7 5 5 8 11 8 18 0 6-3 13-8 18-4 4-10 7-17 7-6 0-13-3-18-7-4-5-7-11-7-18 1-7 3-13 7-18z m-150-88h168c16 0 29 13 29 29 0 17-13 30-29 30h-168c-16 0-29-13-29-30 0-17 13-29 29-29z"/>
</svg>
