<svg xmlns="http://www.w3.org/2000/svg" viewBox="0 0 1000 1000">
  <path transform="translate(0,850) scale(1,-1)" fill="currentColor" d="M863 296c0 200-161 361-361 361-200 0-362-161-362-361 0-83 28-159 75-221l-112-112 60-60 112 112c62-50 141-81 228-81 87 0 166 31 228 81l110-111 61 61-112 112c44 58 73 135 73 219z m-166-197c-50-50-119-81-195-81-77 0-146 31-196 81-50 50-81 119-81 195 0 77 31 146 81 196 50 50 119 81 196 81 76 0 145-31 195-81 50-50 81-119 81-196 0-76-31-145-81-195z m250 638l-6 7c-35 35-81 53-126 53-46 0-91-18-127-53-7-7-11-19-11-29s4-22 11-30l200-200c8-7 19-11 30-11s22 4 29 11c35 36 53 81 53 127 0 44-18 91-53 125z m-410-258h-84v-148h-149v-84h149v-147h84v147h148v84h-148v148z m-224 206c8 8 12 19 12 30s-4 22-12 29c-35 35-81 53-126 53-47 0-93-18-128-53l-6-7c-35-34-53-81-53-127 0-45 18-91 53-126 7-7 19-12 29-12s22 5 30 12l201 201 0 0z"/>
</svg>
