<svg xmlns="http://www.w3.org/2000/svg" viewBox="0 0 1000 1000">
  <path transform="translate(0,850) scale(1,-1)" fill="currentColor" d="M404 174v60h0c-33 0-61-27-63-60v-65c0-12 6-22 16-28s22-6 33 0l191 118 23 14 168 103c9 6 15 16 15 27s-6 22-15 26l-382 235c-11 6-22 6-33 0-10-5-16-16-16-27v-284c34 0 62 26 63 60h0v169l290-178-123-76-24-15-143-88 0 9 0 0z m534 419c-3 4-4 7-9 10-20 19-54 24-79 7v0l34-54c34-62 51-132 51-206 0-121-48-229-128-309-79-79-188-128-308-128-121 0-230 49-309 128-80 80-128 188-128 309 0 121 48 229 128 309 79 79 188 128 309 128 98 0 188-33 261-88 27-24 67-21 90 7 0 0-44 40-47 41-82 65-188 103-303 103-276 0-500-223-500-500 0-276 224-500 500-500 277 0 500 224 500 500 0 88-22 171-62 243l0 0z"/>
</svg>
