<svg xmlns="http://www.w3.org/2000/svg" viewBox="0 0 1000 1000">
  <path transform="translate(0,850) scale(1,-1)" fill="currentColor" d="M403 518c41 36 65 88 65 142 0 33-8 65-25 94-25 45-66 77-115 89-15 6-31 7-47 7-32 0-65-9-93-25-138-81-188-213-188-312 0-86 6-144 38-201 34-60 96-94 161-94 32 0 64 9 95 25l0 0c35 20 59 50 75 85l0-430c0-27 22-50 50-50 28 0 50 23 50 50v467c0 57-22 110-63 151 0-1-3 2-3 2z m-84 63l0 0c-41-22-57-52-56-81 0-18 6-35 14-48 7-14 10-28 10-43 0-32-16-63-46-80-13-7-28-11-42-11-30 0-58 16-74 44-19 34-25 67-25 151 0 69 35 165 138 225 14 8 28 12 43 12 7 0 15-1 22-3 22-6 41-20 53-41 7-13 10-27 10-41 2-34-17-68-47-84z m494 244l-13 7v-3c-26 14-53 21-81 21-16 0-32-1-48-6-49-13-90-44-115-88-16-29-25-62-25-94 0-55 23-106 65-143l-3-3c-40-39-64-94-64-151v-465c0-28 23-50 50-50 28 0 50 22 50 50v428c17-34 40-65 75-84l0 0c0 0 43-26 96-26 65 0 127 34 160 94 33 57 39 113 39 201 1 99-49 231-186 312z m62-463l0 0c-16-30-44-44-73-44-15 0-30 4-45 11-28 17-44 48-44 78 0 15 3 30 11 43 7 15 13 31 13 49 0 28-15 57-56 79l0 0c-29 18-47 51-47 84 0 15 3 28 10 41 12 21 31 35 53 41 7 2 15 3 22 3 15 0 30-4 43-12 101-60 138-156 138-225 0-81-6-113-25-148l0 0z"/>
</svg>
