<svg xmlns="http://www.w3.org/2000/svg" viewBox="0 0 1000 1000">
  <path transform="translate(0,850) scale(1,-1)" fill="currentColor" d="M854 690c0 38-30 69-69 69h-567c-39 0-69-31-69-69v-450c0-38 30-69 69-69h567c39 0 69 31 69 69v450z m-57-449c0-7-6-13-13-13h-566c-8 0-14 6-14 13v178h93c12 0 24 9 27 21l22 73 51-251c3-13 13-22 27-22 13 0 25 7 28 20l50 180 45-143c5-12 15-19 28-19 12 0 24 9 27 21l33 122h162l0-180 0 0z m-169 346c0 22 16 32 31 32 13 0 26-7 26-20 0 13 14 20 27 20 15 0 31-9 31-32 0-44-58-71-58-71s-57 27-57 71z m169-112h-69c24 15 59 44 69 88v-88z m0 132c-9 40-43 68-84 68h0c-9 0-19-1-26-4-9 3-18 4-27 4-50 0-86-38-86-88 0-58 44-94 70-110h-29c-13 0-24-9-27-21l-14-53-46 143c-4 11-15 19-28 19s-23-9-26-21l-45-157-51 247c-3 13-13 22-26 22-14 0-25-7-28-21l-49-161h-72v216c0 7 6 13 13 13h568c7 0 13-6 13-13l0-83 0 0z m21 243h-636c-67 0-122-56-122-123v-499h0c2-29 27-53 56-53h0v552c0 19 8 35 19 47 12 11 30 19 47 19h634c19 0 36-8 47-19 12-12 19-30 19-47v-70h0c2-29 27-53 56-53h0v123c2 67-53 123-120 123z m66-282v-580h-768l0 96c-1 29-26 54-56 54v-178c0-7 3-14 9-20 5-5 12-8 19-8h41v-54c0-7 3-15 9-21s12-9 21-9h687c7 0 14 3 20 9s9 12 9 21v54h37c7 0 15 3 20 9 6 6 9 12 9 21l0 553c-3 28-26 53-57 53l0 0z m-69-662h-630v25h631c-1 1-1-25-1-25z m-165 232c-37 0-66-29-66-66 0-37 29-66 66-66h138c37 0 66 29 66 66 0 37-29 66-66 66h-138z m147-66c0-6-4-9-9-9h-138c-6 0-9 5-9 9 0 6 5 9 9 9h138c6 1 9-3 9-9z m-541 21c-6-6-9-12-9-21 0-7 3-15 9-20 6-6 12-9 21-9 7 0 14 3 20 9 6 5 9 11 9 20 0 7-3 15-9 21-6 6-12 9-20 9-9-2-17-5-21-9z m-75 0c-6-6-9-12-9-21 0-7 3-15 9-20 6-6 12-9 21-9 7 0 14 3 20 9 6 5 9 11 9 20 0 7-3 15-9 21-6 6-12 9-20 9-9-2-17-5-21-9z"/>
</svg>
