<svg xmlns="http://www.w3.org/2000/svg" viewBox="0 0 1000 1000">
  <path transform="translate(0,850) scale(1,-1)" fill="currentColor" d="M490-150h84c0 103 41 194 108 262 68 67 159 109 262 109v83c-250 0-454-202-454-454z m373 82c-17-17-17-47 0-64 18-18 47-18 65 0 18 17 18 47 0 64-18 18-47 18-65 0z m-189-82h83c0 103 84 187 187 187v84c-148 0-270-121-270-271z m-534 135v731c0 27 22 49 48 49h374c26 0 48-22 48-49v-437h84v437c0 74-60 134-134 134h-372c-73 0-134-60-134-134v-731c0-73 61-134 134-134h230v84h-230c-26 2-48 24-48 50z m123 127h230v-85h-230v85z"/>
</svg>
