<svg xmlns="http://www.w3.org/2000/svg" viewBox="0 0 1000 1000">
  <path transform="translate(0,850) scale(1,-1)" fill="currentColor" d="M882 81h-26l-54 401 0 0c-14 86-87 149-173 149h-276c-87 0-159-63-172-149l0 0-56-401h-7c-64 0-115-52-115-115-1-65 50-116 115-116h764c64 0 115 51 115 115 2 64-50 116-115 116l0 0z m-676 0l53 390c7 45 47 79 93 79h276c47 0 87-34 93-79l53-390h-568z m235 406h-56c-42 0-78-35-78-78v-66c0-22 18-40 40-40 22 0 40 18 40 40v63h54c22 0 40 18 40 40 0 23-18 41-40 41z m-147 240c8-21 30-33 50-27 21 7 33 29 27 50l-22 72c-8 21-30 32-50 27-21-8-33-30-27-50-1-2 22-72 22-72z m-178-139c16-16 41-16 58 0s16 41 0 58l-74 73c-16 15-41 15-57 0s-16-41 0-57c0 0 73-74 73-74z m528 112c21-7 44 4 50 27l22 72c8 20-4 44-26 50-21 7-44-5-50-27l-22-72c-8-21 4-44 26-50z m228-112l74 74c16 16 16 41 0 57s-42 16-58 0l-73-73c-16-17-16-42 0-58s41-14 57 0z"/>
</svg>
