<svg xmlns="http://www.w3.org/2000/svg" viewBox="0 0 1000 1000">
  <path transform="translate(0,850) scale(1,-1)" fill="currentColor" d="M416 553v-216c0-12 6-24 16-31l108-74 42 62-91 62v197l-75 0 0 0z m371-221v36c51 9 91 53 91 107 0 56-43 103-99 109-11 40-36 75-72 97v98c2 39-30 71-69 71h-367c-40 0-71-32-71-71v-98c-47-29-78-81-78-141v-131c0-21 16-37 37-37s37 16 37 37v131c0 25 10 48 26 64 9 9 18 15 28 20 0 0 0 0 0 0 10 4 24 7 35 7h333c25 0 48-10 64-27 17-16 27-39 27-64v-378c0-25-10-49-27-65-16-16-39-26-64-26h-330c-25 0-48 10-64 26-17 16-27 40-27 65v125c0 20-16 37-37 37s-38-18-38-39v-125c0-58 31-111 78-141v-98c0-40 32-71 71-71h367c40 0 71 32 71 71v98c35 22 60 56 72 97 54 6 98 52 98 109v0c-1 54-41 99-92 107l0 0z m0 172c10-5 17-17 17-29 0-13-7-23-17-29v58z m16-279c0-13-7-23-18-29v58c12-5 18-17 18-29l0 0 0 0z"/>
</svg>
