<svg xmlns="http://www.w3.org/2000/svg" viewBox="0 0 1000 1000">
  <path transform="translate(0,850) scale(1,-1)" fill="currentColor" d="M684 666h-368c-175 0-316-141-316-316 0-175 141-316 316-316h366c177 0 318 141 318 316 0 175-141 316-316 316z m0-548h-368c-128 0-232 104-232 232 0 128 104 232 232 232h366c128 0 233-104 233-232 0-128-103-232-231-232z m-366 392c-89 0-161-72-161-160 0-88 72-160 161-160 88 0 160 72 160 160 1 88-71 160-160 160z m0-236c-43 0-77 33-77 76 0 43 34 77 77 77 42 0 76-34 76-77 0-43-34-76-76-76z"/>
</svg>
