<svg xmlns="http://www.w3.org/2000/svg" viewBox="0 0 1000 1000">
  <path transform="translate(0,850) scale(1,-1)" fill="currentColor" d="M894 347c0 2-1 2-1 3-2 4-5 7-8 10 0 0 0 0 0 0l-147 142v138c0 67-54 122-122 122h-73c-18 51-65 88-122 88-58 0-105-37-122-88h-74c-68 0-122-55-122-122v-549c0-67 54-122 122-122h165v-34c0-47 38-84 84-84h338c47 0 84 39 84 84v397c0 0 0 0 0 0 1 5 0 11-2 15l0 0z m-592 334h29c10 0 21 4 28 12s12 17 12 28c0 26 22 48 48 48 27 0 49-22 49-48 0-11 4-21 11-28s18-12 28-12h30v-21h-235l0 21 0 0z m88-249v-382h-165c-23 0-41 19-41 41v549c0 22 18 39 38 41v-59c0-10 5-20 12-28s18-12 28-12h316c10 0 21 5 28 12s12 18 12 28v59c22-2 38-19 38-41v-115h-174c-51-1-92-43-92-93l0 0z m426-141v-357l-4-5h-338l-3 5v498c0 6 6 12 11 12h175v-112c0-10 5-20 12-28s18-11 28-11l119-2 0 0 0 0z"/>
</svg>
