<svg xmlns="http://www.w3.org/2000/svg" viewBox="0 0 1000 1000">
  <path transform="translate(0,850) scale(1,-1)" fill="currentColor" d="M972 390c-63 72-219 207-472 207-253 0-409-135-472-207-19-21-28-47-28-72 0-19 6-39 16-56v0l0 0 84-140c4-7 12-13 21-16l0 0c8-3 17-3 26 1l212 86c7 3 13 7 18 14l0 0c4 6 5 14 5 22v81c0 21 15 37 34 40 21 3 47 4 83 4 35 0 61-1 82-4 19-3 34-19 34-40v-81c0-7 3-14 6-22l0 0c4-5 10-11 17-14l215-87c9-3 19-4 28 0l0 0c9 3 16 9 21 16l83 140c11 17 17 37 17 56-2 25-11 51-30 72l0 0z m-54-88l-68-111-156 63v55c0 59-44 109-103 116-23 3-54 4-92 4-39 0-68-1-93-4-59-7-103-57-103-116v-55l-156-63-68 111-33-21 33 21c-2 4-4 10-4 16 0 7 3 14 7 20 56 64 192 183 415 183 224 0 359-119 415-183 6-6 7-13 7-20 3-6 2-12-1-16z"/>
</svg>
