<svg xmlns="http://www.w3.org/2000/svg" viewBox="0 0 1000 1000">
  <path transform="translate(0,850) scale(1,-1)" fill="currentColor" d="M949 694c-8 6-18 9-28 9l0 0c-2 0-12-1-27-1-28 0-73 4-107 20-16 9-31 19-40 34-9 15-16 32-16 60 0 9-4 18-10 25-6 6-15 11-25 11h-105c-9 0-17-5-25-11-6-6-10-14-10-25v-231c38 0 69 34 69 72l0 42v82h38c5-25 14-46 25-65 27-39 68-60 105-70 35-11 69-14 94-14v-38h-144c-9 0-18-4-25-10-6-6-11-15-11-25v-341c0-83-33-158-88-212-54-55-129-88-212-88-82 0-157 33-211 88-55 54-89 129-89 212 0 82 34 157 89 211 47 48 107 78 176 86l0-83c-104-16-185-107-185-217 0-122 98-221 220-221 122 0 221 99 221 221v294c-37 0-68-32-69-69l0-178h0v-46c0-41-16-79-44-106-28-28-65-44-106-44-41 0-80 16-106 44-28 28-44 65-44 106 0 41 16 80 44 106 28 28 65 44 106 44 19 0 35 16 35 36l2 151c0 9-3 18-11 25-6 6-14 10-25 10-203 0-367-164-367-367 0-203 164-368 367-368 203 0 367 163 368 365 0 0 0 0 0 1v305h149c8 0 17 4 25 10 5 6 10 15 10 25v110c-2 9-6 18-13 25z"/>
</svg>
