<svg xmlns="http://www.w3.org/2000/svg" viewBox="0 0 1000 1000">
  <path transform="translate(0,850) scale(1,-1)" fill="currentColor" d="M1000 675l0 0c0 9 0 22-1 38-3 22-8 49-24 72-7 12-19 24-34 31-14 8-31 12-50 12-14 0-29-1-45-6l-3-1-2 0c-1-2-6-3-12-5l0 0h0c0 0 0 0-1 0-1 0-1 0-3-1l0 0c-28-12-44-43-34-72l55 17 0 0c7 2 13 3 16 5 12 3 22 4 29 4 15 0 22-3 28-7 5-3 8-8 12-15 4-9 7-22 10-35 2-13 2-27 2-37 0-38-16-73-41-98-25-25-61-42-99-42h-38v286c0 7-3 14-9 20-6 6-13 9-21 9h-470c-8 0-15-3-21-9s-9-13-9-20v-284h-36c-39 0-74 16-99 41-25 25-41 59-41 97 0 9 0 21 1 32 2 18 6 36 14 46 4 4 7 9 13 12 4 3 12 4 22 4 7 0 18-1 29-4 3-2 9-3 16-6l0 0 55-18c10 30-6 62-34 72l0 0c-1 0-1 0-3 2 0 0 0 0-1 0l0 0c-3 1-6 3-9 3l-3 3-2 0-3 1c-16 5-30 6-45 6-25 0-47-7-63-21-14-8-22-22-28-33-9-20-14-39-15-55-3-17-3-34-3-44l0 0c0-109 88-198 199-198h35c-3-18-12-34-25-46-16-16-40-27-65-27v-58c44 0 84 19 112 50 31-75 96-134 176-155v-57h-76v-59h46c-33-28-52-69-52-115v-14h-85c-8 0-15-3-21-9s-9-12-9-21v-87c0-7 3-14 9-20s13-9 21-9h470c8 0 15 3 21 9 6 6 9 13 9 20v87c0 7-3 15-9 21-6 6-13 9-21 9h-83v14c0 46-21 87-52 115h43v59h-74v57c83 22 149 83 178 162 28-34 69-56 118-56v59c-25 0-49 10-65 26-12 12-21 28-25 46h28c109 0 197 88 197 197l0 0z m-569 116h135v-198l-47 47c-12 12-29 12-41 0l-47-47c0 0 0 198 0 198z m275-854v-28h-412v28c0 0 412 0 412 0z m-113 73v-14h-186v14c0 25 11 49 27 67 16 16 40 26 66 26 25 0 49-10 66-26 16-18 27-42 27-67z m-103 174v48h19v-48h-19z m216 312c0-58-24-109-60-146-37-37-89-60-146-60-57 0-109 23-146 60-36 37-60 88-60 146v295h78v-269c0-12 7-22 18-26 10-5 23-2 32 6l77 76 76-76c9-9 21-11 32-6 11 4 18 14 18 26v269h81c0 0 0-295 0-295z"/>
</svg>
