<svg xmlns="http://www.w3.org/2000/svg" viewBox="0 0 1000 1000">
  <path transform="translate(0,850) scale(1,-1)" fill="currentColor" d="M812 563c-8 0-13-3-19-7s-8-12-8-19 3-13 8-19 11-8 19-8 13 3 19 8 7 11 7 19-3 13-7 19-12 7-19 7z m-274-432c2-28 25-50 53-50v148c0 11-6 21-16 25-10 5-21 2-29-5l0 0c0 0-17-15-42-28-26-14-63-27-108-27-44 0-72 8-87 13 6 8 12 14 18 22 14 21 25 46 25 75h-53c0-16-6-30-15-44-15-20-38-39-59-53-10-5-19-11-26-14-3-2-6-3-8-3l-3-2 0 0 0 0c-9-4-16-11-16-22l-13-150h-27v37h0c-1 28-25 50-53 50v-113c0-8 3-14 8-19s12-8 19-8h76c14 0 25 10 27 24l15 159c10 6 26 13 44 25 4-3 9-6 14-9 24-12 61-22 117-22 57 0 104 17 135 34 1 1 4 1 6 3l-2-46 0 0z m428 409l0 0-48 41-39 32c-19-22-16-54 5-73l0 0 48-41c11-9 15-21 15-34 0-5 0-9-3-15-6-18-23-31-42-31h-77c-13 0-23-9-26-22-2-10-5-19-6-28h-14c-72 0-129-59-129-129v-61l-38-164h-21c-3 26-25 48-53 48v-75c0-7 3-13 8-19s11-7 19-7h67c12 0 24 9 27 20l41 174c15 6 34 15 56 35 35 31 72 86 93 177h54c43 0 79 26 93 67 3 11 4 21 4 31 0 27-12 55-34 74l0 0z m-245-309c-6-6-12-9-17-13v23c0 21 9 40 23 55 13 13 30 22 51 22-18-43-40-71-57-87z m-621 282c-13-20-22-47-22-73l0-268c1-29 25-51 54-51v319c0 23 9 44 25 59 15 14 37 25 59 25h55v-28c0-81 66-147 147-147 4 0 9 0 13 1 15-28 44-47 78-47 25 0 47 10 63 26 16 17 27 39 27 64 0 29-15 56-37 72 1 10 3 20 3 31v28h101c6 0 13 3 18 5l29 27c6 4 9 12 9 19 0 7-3 15-7 19l-15 15c-9 9-13 20-13 32 0 3 0 6 1 8l41-42c5-4 12-7 20-7h51v0c28 2 50 25 50 53h-38l45 46-38 38-72-72-47 47c-4 4-12 7-19 7s-15-1-19-7c-19-19-30-46-30-71 0-23 9-45 24-64l-2-2h-119c0 0 0 0 0 0s0 0 0 0h-238c0 0 0 0 0 0s0 0 0 0h-156c-78 0-141-63-141-141v-231h53v232c0 24 10 46 25 62 7 7 15 12 22 16l0 0z m224 11h186v-28c0-12-3-24-6-34-2-8-2-15 0-21 3-7 9-12 15-14 15-6 25-20 25-34 0-21-16-37-37-37-17 0-32 12-35 29-1 8-6 14-12 18s-13 4-20 3c-8-2-15-3-22-3-27 0-49 10-66 28-18 18-28 40-28 66l0 27 0 0z"/>
</svg>
