<svg xmlns="http://www.w3.org/2000/svg" viewBox="0 0 1000 1000">
  <path transform="translate(0,850) scale(1,-1)" fill="currentColor" d="M813 774h-113c-54 44-123 72-200 72-76 0-146-28-200-72h-113c-103 0-187-84-187-187v-547c0-103 84-187 187-187h628c103 0 187 84 187 187v547c-2 103-86 187-189 187z m-313-12c129 0 234-105 235-234 0-129-104-234-235-234-129 0-234 105-234 234 0 129 105 234 234 234z m416-722c0-56-45-102-101-102h-628c-56 0-102 46-102 102v547c0 56 46 101 102 101h41c-28-47-46-103-46-161 0-177 143-320 320-320 176 0 319 143 319 320 0 58-18 114-46 161h41c56 0 102-45 102-101l-2-547 0 0z m-416 334c19 0 37 7 50 20s21 33 21 50c0 13-5 27-12 37l94 160-56 33-93-159c-1 0-2 1-4 1-19 0-37-7-50-20s-21-33-21-50 8-37 21-50 31-22 50-22z"/>
</svg>
