<svg xmlns="http://www.w3.org/2000/svg" viewBox="0 0 1000 1000">
  <path transform="translate(0,850) scale(1,-1)" fill="currentColor" d="M944 328l-53 119 0 0c-17 52-66 87-120 87h-152c-54 0-103-35-120-87l0 0-53-119c-34-22-56-60-56-104v-118c0-10 4-19 10-27 7-7 16-10 27-10v-73c0-21 16-37 36-37 21 0 37 16 37 37v73h390v-73c0-21 16-37 37-37 20 0 36 16 36 37v73c11 0 19 5 27 10 7 8 10 17 10 27v118c0 44-22 82-56 104z m-379 90l1 4c8 22 28 38 52 38h151c24 0 46-16 52-38l1-4 31-68h-318c0-1 30 68 30 68z m362-275h-464v81c0 28 24 51 52 51h362c27 0 51-23 51-51v-81z m-353 110c-11 0-20-4-27-10-7-8-10-16-10-27s4-19 10-26c7-8 16-11 27-11s19 5 26 11c7 7 10 16 10 26s-4 19-10 27c-7 7-18 10-26 10z m242 0c-10 0-19-4-26-10-8-8-11-16-11-27s5-19 11-26c7-8 16-11 26-11s19 5 27 11c7 7 10 16 10 26s-4 19-10 27c-8 7-18 10-27 10z m-657-10c-7-8-10-16-10-27s4-19 10-26c7-8 16-11 26-11s19 5 27 11c7 7 10 16 10 26s-4 19-10 27c-8 7-16 10-27 10s-20-3-26-10z m231 85v74h-47v155h232c10 0 19 5 27 11 7 7 10 16 10 26 0 81-66 147-147 147h-318c-81 0-147-66-147-147v-400c0-35 15-66 37-88v-110c0-21 16-37 37-37s36 16 36 37v75c5 0 9-2 15-2h228v74h-228c-28 0-51 23-51 51v134l316 0 0 0z m-243 340h316c27 0 50-15 62-37h-441c15 22 37 37 63 37z m122-266h-195v155h195v-155z"/>
</svg>
