<svg xmlns="http://www.w3.org/2000/svg" viewBox="0 0 1000 1000">
  <path transform="translate(0,850) scale(1,-1)" fill="currentColor" d="M729 535c-5-6-8-13-8-22 0-9 3-16 8-22 6-6 14-9 23-9 8 0 16 3 22 9 5 6 8 13 8 22 0 9-3 16-8 22-6 6-14 9-22 9-9 0-17-3-23-9z m24-225v81c28 5 54 16 76 33l58-58 44 44-57 58c10 13 17 29 23 45l80-14 10 60-83 15c-7 29-35 50-66 47 0 0 9-19 8-58-3-59-59-111-124-111-34 0-65 13-88 36-22 22-37 53-37 89 0 33 13 64 37 88 22 22 53 37 88 37 27 0 50-8 69-23 24-20 61-19 83 3l-21 21 50 69-50 35-49-66c-16 9-33 13-52 18v81h-61v-81c-28-5-54-16-76-32l-58 57-44-44 58-58c-11-13-18-29-24-45l-81 15-10-59 81-15c0-1 0-1 0-1 0-17 1-31 6-46l-75-32 25-56 75 32c7-10 14-21 23-28l-50-68 50-36 49 66c16-7 34-13 51-18v-81h62z m-235-113l-65 65 57 57-44 44-57-57-65 65c-22 22-50 36-78 41v91h-62v-91c-19-5-36-12-54-22l-60 60-44-44 60-60c-10-15-16-31-21-47h-85v-62h84c4-31 20-62 44-85 24-23 62-23 85 1l-44 44 0 0c-17 18-26 41-26 65 0 23 9 47 26 65 18 17 41 26 65 26 23 0 47-9 65-26l173-174c18-18 27-41 27-65 0-23-9-47-27-64l0 0c-18-18-41-27-65-27-23 0-47 9-64 27l-69 69c-24 22-62 20-86-2l41-41 0 0 5-4-57-58 44-44 57 58 21-21c22-22 50-37 78-41v-78h61v76c19 5 37 12 55 22l60-60 44 44-60 60c12 20 20 40 23 61h84v62h-87c-5 25-19 50-39 70l0 0z m-178-110c-6-6-9-13-9-22 0-9 3-16 9-22s13-9 22-9c9 0 16 3 22 9 6 6 9 13 9 22 0 9-3 16-9 22-6 6-13 9-22 9-9 0-16-3-22-9z m79 45c6 6 9 14 9 22 0 9-3 17-9 23-6 5-13 8-22 8-9 0-16-3-22-8-6-6-9-14-9-23 0-8 3-16 9-22 6-5 13-8 22-8 7 0 16 4 22 8z m433 150c-83 0-149-66-149-148 0-82 66-149 149-149 82 0 148 67 148 149 0 82-66 148-148 148z m61-208c-16-17-36-25-61-25-24 0-46 10-62 25-16 16-25 36-25 61 0 3 0 6 1 9 0-1 2-1 2-3 6-6 13-9 22-9 9 0 16 3 22 9 6 6 9 13 9 22 0 9-3 16-9 22-6 6-13 9-22 9 0 0-2 0-2 0 2 2 2 2 3 3 16 16 37 25 62 25 24 0 46-10 62-25 16-16 25-37 25-62-2-25-11-47-27-61z m-648 253c-9 0-16-3-22-9-6-6-9-14-9-22 0-9 3-17 9-22 6-6 13-9 22-9 9 0 16 3 22 9 6 5 9 13 9 22 0 8-3 16-9 22s-13 9-22 9z m360 252c-6-5-9-13-9-22s3-16 9-22 13-8 22-8c9 0 16 2 22 8 6 6 9 14 9 22s-3 17-9 22c-6 6-13 9-22 9-7 0-16-3-22-9z m-362-377c-6-6-9-14-9-23 0-8 3-16 9-22s14-8 22-8c9 0 17 3 22 8 6 6 9 14 9 22 0 9-3 17-9 23-5 5-13 8-22 8-8 2-16-3-22-8z m531 447c0 8-3 16-9 22s-13 8-22 8c-9 0-16-2-22-8-6-6-9-14-9-22 0-9 3-17 9-22 6-6 13-9 22-9 9 0 16 3 22 9 5 7 9 14 9 22z m83-456c-9 0-17-3-23-9-5-6-8-13-8-22 0-9 3-16 8-22s14-9 23-9c8 0 16 3 22 9 5 6 8 13 8 22 0 9-3 16-8 22-6 6-14 9-22 9z m-40-66c-9 0-16-3-22-9-6-6-9-14-9-22 0-9 3-17 9-22 6-6 13-9 22-9 9 0 16 3 22 9 6 5 9 13 9 22 0 8-3 16-9 22s-15 9-22 9z"/>
</svg>
