<?xml version="1.0" encoding="UTF-8"?>
<svg id="Layer_1" data-name="Layer 1" xmlns="http://www.w3.org/2000/svg" xmlns:xlink="http://www.w3.org/1999/xlink" viewBox="0 0 500 500">
  <defs>
    <style>
      .cls-1 {
        fill: #d1f1f4;
      }

      .cls-2 {
        fill: #80acff;
      }

      .cls-3 {
        fill: #f5f6dd;
      }

      .cls-4 {
        fill: #006947;
      }

      .cls-5 {
        fill: #006947;
      }

      .cls-6 {
        fill: #e2f6eb;
      }

      .cls-7 {
        fill: #316bf6;
      }

      .cls-8 {
        fill: #e3ba8e;
      }

      .cls-9 {
        clip-path: url(#clippath-1);
      }

      .cls-10 {
        clip-path: url(#clippath-3);
      }

      .cls-11 {
        clip-path: url(#clippath-4);
      }

      .cls-12 {
        clip-path: url(#clippath-2);
      }

      .cls-13 {
        clip-path: url(#clippath-7);
      }

      .cls-14 {
        clip-path: url(#clippath-6);
      }

      .cls-15 {
        clip-path: url(#clippath-9);
      }

      .cls-16 {
        clip-path: url(#clippath-8);
      }

      .cls-17 {
        clip-path: url(#clippath-5);
      }

      .cls-18 {
        fill: #ffa65d;
      }

      .cls-19 {
        fill: #8b8804;
      }

      .cls-20 {
        fill: #8089c4;
      }

      .cls-21 {
        fill: #60d991;
      }

      .cls-22 {
        fill: #28318c;
      }

      .cls-23 {
        fill: #e8ec9d;
      }

      .cls-24 {
        clip-path: url(#clippath);
      }

      .cls-25 {
        fill: #765238;
      }
    </style>
    <clipPath id="clippath">
      <path class="cls-8" d="M302.8,187.5c-1.12,3.41-3.05,6.5-5.71,8.27-1.93,1.29-5.54,2.27-8.07,1.5-.06.22-.11.43-.17.66-3.28,12.37-9.47,23.31-20.67,30.07-5.17,3.11-11.94,5.09-18.18,4.61-6.22.49-13.01-1.5-18.2-4.61-11.2-6.76-17.39-17.69-20.67-30.07-.06-.22-.11-.45-.17-.67-2.53.81-6.16-.17-8.11-1.48-1.98-1.33-3.56-3.37-4.7-5.75-2.04-4.21-2.68-9.45-1.76-13.42.8-3.46,2.88-6.85,6.22-8.22,1.2-.51,3.14-1.1,4.7-.88-.51-9.62-.47-19.38,1.98-28.61,1.4-5.28,4.01-12,7.66-16.08,15.69-17.49,43.45-19.73,61.7-4.49,14.4,12,15.05,31.3,14.02,49.18,1.55-.21,3.44.39,4.62.88,3.33,1.37,5.41,4.76,6.22,8.22.75,3.2.47,7.24-.73,10.9Z"/>
    </clipPath>
    <clipPath id="clippath-1">
      <path class="cls-20" d="M370.53,309.39h-236.87c2.04-8.95,4.29-17.86,6.53-26.73,5.9-23.25,12.41-46.82,24.49-67.64,4.23-7.28,9.77-14.13,16.89-18.76,3.63-2.36,6.95-3.93,11.12-5.17,1.74-.52,3.63-.75,5.49-1.07,1.14,2.38,2.71,4.42,4.7,5.75,1.95,1.31,5.58,2.28,8.11,1.48.06.22.11.45.17.67,3.28,12.37,9.47,23.31,20.67,30.07,5.19,3.11,11.98,5.09,18.2,4.61,6.23.49,13.01-1.5,18.18-4.61,11.19-6.76,17.39-17.69,20.67-30.07.06-.22.11-.43.17-.66,2.53.77,6.14-.21,8.07-1.5,2.66-1.78,4.59-4.87,5.71-8.27,2.7.8,5.65.92,8.29,1.72,4.16,1.24,7.47,2.81,11.1,5.17,7.11,4.62,12.67,11.48,16.89,18.76,12.08,20.82,18.59,44.39,24.49,67.64,2.4,9.49,4.81,19.04,6.96,28.61Z"/>
    </clipPath>
    <clipPath id="clippath-2">
      <path class="cls-8" d="M352.95,337.37c-12.51-8.5-19.47-26.92-26.86-39.56-1.95-3.31-4.42-6.74-6.46-10.24-3.59-.84-6.74-2.19-9.66-4.87-1.8-1.63-4.36-4.16-5.62-6.74-2.02.43-4.08.77-6.05,1.37-.6,3.58-2.19,9.47-5.47,7.11-.92-.66-1.16-2.28-1.14-4.06-2.79,1.27-5.99,2.21-8.44,1.01-5.28-2.6,1.82-6.25,4.19-7.15,1.46-.56,2.88-1.27,4.27-2.02-.09-.54-.17-1.1-.24-1.67-2.79-.86-5.05-4.74-5.24-7.84-.02-.02-.04-.02-.06-.04-3.44-2.49-5.15-8.07-2.12-11.23.04-.04.06-.06.09-.07,1.2-1.24,2.6-2.19,4.08-3.09,1.25-.77,2.55-1.48,3.78-2.25,3.26-2.08,7-5.47,11.01-4.02,4.04,1.46,6.53,5.47,9.23,8.54,6.72,7.64,11.1,13.07,18.36,22.5,11.16,8.41,17.95,14.32,25.33,21.27,7.51,7.08,17.37,16.23,21.15,26.08,6.23,16.25-10.8,26.06-24.15,16.98Z"/>
    </clipPath>
    <clipPath id="clippath-3">
      <path class="cls-3" d="M312.64,322.06c0,9.29-23.62,18.61-52.73,18.61s-52.73-9.33-52.73-18.61,23.61-16.81,52.74-16.81c4.47,0,8.82.19,12.95.51-1.37.99-2.49,2.19-3.37,3.65-.02.04-.06.09-.07.13-1.03-.49-2.43-.34-4.29-.41-4.38-.21-8.82,0-13.16.32-5.67.43-11.34.28-16.94,1.12-1.07.15-2.98.19-3.91.77-1.18.73-.88,1.91-.28,3.07-.62.66-1.12,1.52-1.35,2.4-1.89-.47-4.27,1.67-3.86,3.88-2.15.51-3.41,4.1-1.91,5.8,1.95,2.19,4.21,1.25,5.92-.22.28.99,1.01,1.8,2.28,2.1,1.27.3,2.77-.47,3.69-1.57.71.39,1.57.51,2.49.32.19,2.1,1.7,3.86,4.25,2.98.64-.22,1.25-.69,1.8-1.29,1.25.75,3.18.22,4.38-.97,1.18-1.2,1.74-2.92,1.55-4.4.86.39,1.63-.02,2.23-.8.43.51,1.03.94,1.7,1.25-.15,1.78.86,3.46,2.3,4.51,3.07,2.23,8.24,2.38,11.83,1.8,2.53-.39,3.22.36,5.58,1.03,3.05.88,6.51.36,9.53-.45,2.23-.6,4.16-2,6.23-2.56,2.4-.64,4.89-.04,7.21-1.25,1.68-.86,3.54-2.79,3.82-4.72.24-1.67-.95-5.11-3.03-4.92.17-1.97-1.76-6.68-4.25-8.26,11.83,3.09,19.39,7.77,19.39,13.03Z"/>
    </clipPath>
    <clipPath id="clippath-4">
      <path class="cls-23" d="M300.53,322.21c-.28,1.93-2.13,3.86-3.82,4.72-2.32,1.22-4.81.62-7.21,1.25-2.08.56-4.01,1.97-6.23,2.56-3.01.8-6.48,1.33-9.53.45-2.36-.67-3.05-1.42-5.58-1.03-3.59.58-8.76.43-11.83-1.8-1.44-1.05-2.45-2.73-2.3-4.51.02-.22.06-.45.11-.67.47-1.91,2.1-2.85,3.86-3.44.43-.8.95-1.54,1.57-2.19.47-.51.99-.95,1.57-1.37,2.25-1.63,2.92-4.1,6.05-5.05,1.61-.49,1.35-.07,2.25-1.59.02-.04.06-.09.07-.13.88-1.46,2-2.66,3.37-3.65.09-.07.21-.15.3-.22,2.4-1.68,5.28-2.96,8.24-2.51,1.87.26,3.67.97,5.26,1.97,1.44.92,2.1,2,3.01,3.2.17.22.36.45.56.69.3-.19.6-.3.9-.36.71.17,1.42.34,2.1.51,2.49,1.57,4.42,6.29,4.25,8.26,2.08-.19,3.28,3.26,3.03,4.92Z"/>
    </clipPath>
    <clipPath id="clippath-5">
      <path class="cls-5" d="M259.56,317.55c-.62.66-1.14,1.39-1.57,2.19-1.76.6-3.39,1.54-3.86,3.44-.06.22-.09.45-.11.67-.67-.32-1.27-.75-1.7-1.25-.6.79-1.37,1.2-2.23.8.19,1.48-.37,3.2-1.55,4.4-1.2,1.2-3.13,1.72-4.38.97-.54.6-1.16,1.07-1.8,1.29-2.55.88-4.06-.88-4.25-2.98-.92.19-1.78.07-2.49-.32-.92,1.1-2.41,1.87-3.69,1.57-1.27-.3-2-1.1-2.28-2.1-1.7,1.48-3.97,2.41-5.92.22-1.5-1.7-.24-5.3,1.91-5.8-.41-2.21,1.97-4.34,3.86-3.88.22-.88.73-1.74,1.35-2.4.32-.3.64-.58.99-.77,2.02-1.12,3.76-.54,4.64.75,2.32-1.82,6.07-1.18,6.12,2.08,1.57-.52,2.9.26,3.65,1.48,1.44-2.17,4.53-3.31,6.35-1.16,2.28-1.67,6.59-1.95,6.96.77Z"/>
    </clipPath>
    <clipPath id="clippath-6">
      <path class="cls-25" d="M269.43,309.54c-.9,1.52-.64,1.1-2.25,1.59-3.13.95-3.8,3.43-6.05,5.05-.58.41-1.1.86-1.57,1.37-.37-2.71-4.68-2.43-6.96-.77-1.82-2.15-4.9-1.01-6.35,1.16-.75-1.22-2.08-2-3.65-1.48-.06-3.26-3.8-3.89-6.12-2.08-.88-1.29-2.62-1.87-4.64-.75-.36.19-.67.47-.99.77-.6-1.16-.9-2.34.28-3.07.94-.58,2.85-.62,3.91-.77,5.6-.84,11.27-.69,16.94-1.12,4.34-.32,8.78-.52,13.16-.32,1.85.07,3.26-.07,4.29.41Z"/>
    </clipPath>
    <clipPath id="clippath-7">
      <path class="cls-2" d="M395.02,277.56l-4.01,46.91c-.92,9.87-9.19,12.73-19.1,12.73s-18.2-2.86-19.11-12.73l-4.01-46.91c0,2.88,10.35,5.22,23.12,5.22s23.1-2.34,23.1-5.22Z"/>
    </clipPath>
    <clipPath id="clippath-8">
      <path class="cls-21" d="M225.71,321.71c0,6.22-5.24,31.47-27.54,41.41,0,3.89-9.14,7.06-20.39,7.06s-20.41-3.16-20.41-7.06c0-.09,0-.19.02-.26-21.47-10.11-27.56-34.99-27.56-41.15,0,3.93,5.49,7.49,14.32,10.03,8.63,2.53,20.5,4.06,33.62,4.06s25.72-1.65,34.43-4.31c8.37-2.53,13.5-5.97,13.5-9.79Z"/>
    </clipPath>
    <clipPath id="clippath-9">
      <path class="cls-18" d="M212.21,331.51c-8.71,2.66-20.91,4.31-34.43,4.31s-24.99-1.54-33.62-4.06c2.02-1.12,4.25-1.93,6.53-2.6,6.96-2.06,14.71-2.88,21.94-2.83,10.47.09,21.21,0,31.41,2.66,1.95.51,5.35,1.22,8.16,2.53Z"/>
    </clipPath>
  </defs>
  <g>
    <g>
      <g>
        <path class="cls-8" d="M302.8,187.5c-1.12,3.41-3.05,6.5-5.71,8.27-1.93,1.29-5.54,2.27-8.07,1.5-.06.22-.11.43-.17.66-3.28,12.37-9.47,23.31-20.67,30.07-5.17,3.11-11.94,5.09-18.18,4.61-6.22.49-13.01-1.5-18.2-4.61-11.2-6.76-17.39-17.69-20.67-30.07-.06-.22-.11-.45-.17-.67-2.53.81-6.16-.17-8.11-1.48-1.98-1.33-3.56-3.37-4.7-5.75-2.04-4.21-2.68-9.45-1.76-13.42.8-3.46,2.88-6.85,6.22-8.22,1.2-.51,3.14-1.1,4.7-.88-.51-9.62-.47-19.38,1.98-28.61,1.4-5.28,4.01-12,7.66-16.08,15.69-17.49,43.45-19.73,61.7-4.49,14.4,12,15.05,31.3,14.02,49.18,1.55-.21,3.44.39,4.62.88,3.33,1.37,5.41,4.76,6.22,8.22.75,3.2.47,7.24-.73,10.9Z"/>
        <g class="cls-24">
          <path class="cls-25" d="M214.81,150.81c.24,1.79.51,3.51,1.09,5.23.15.45,2.16,4.64,2.13,4.67-3.25,3.44-4.73,7.51-5.47,12.16-.64,4.03-.76,8.6-.18,12.79-.95-.43-3.55-2.4-3.55-2.4,0,0-1.04-6.94-1.5-15.75-.08-1.62-2.82-14.53-2.8-17.85.06-10.06,2.47-20.82,6.99-29.81,3.01-5.99,7.77-11.99,12.96-16.25,5.33-4.37,12.63-6.8,19.32-7.98,8.14-1.43,17.12-.77,25.12,1.12,12.16,2.87,20.04,12.11,24.38,23.33,5.85,15.12.31,31.83-.61,47.44-.26,4.4-1.25,14.45-1.25,14.45,0,0-1.46,1.54-3.25,2.98,1.4-6.61,2.21-20.12-3.63-24.84,1.31-2,2.05-4.6,2.26-5.55.4-1.82.6-3.4,1.56-5.04.36-.62,2.7-3.74,2.02-4.48,1.46,1.6,2.03-1.35,2.08-2.31.12-2.52,0-5.52-.6-7.81-.41,2.26-.33,4.61-.8,6.81-.41,1.91-1.58,1.71-2.2-.06.18,1.42-.23,3.7-1.18,4.77-1.18,1.33-1.73-.07-2.12-1.12-.51-1.39-1.24-2.66-2.15-3.85-1.67-2.19-3.94-4.06-6.65-4.75-2.54-.64-5.45-.55-8.01-.21-2.95.39-6.42,1.77-9.35,1.57.85-1.24,2.05-2.19,2.83-3.51-1.5,1.16-3.61,1.71-5.33,2.46-2.7,1.18-6.02,2.79-8.97,3.02.35-1.09,1.48-2.03,2.02-3.11-4.33,3.58-8.54,2.99-13.67,1.84.11.64.41,1.29.62,1.92-3.76-.03-7.7-2.4-11.23-3.6.39.52.69,1.12,1.04,1.68-3.03-1.25-7.97,1.13-9.97,3.4-2.08,2.36-2.35,5.67-1.95,8.66Z"/>
          <path class="cls-22" d="M279.94,170.42c-.06-1.67-1.45-2.96-2.66-3.97-.68-.57-1.4-1.08-2.16-1.55-.69-.43-1.48-.73-2.23-1.03-1.34-.54-2.81-.81-4.26-.77-1.71.05-3.45.38-5.08.91-1.1.36-2.2.86-3.11,1.58-.15.12-.29.24-.44.36-.24.21-.43.49-.62.75-.11.14-.21.28-.31.42-.03.05-.11.14.05-.05.23-.29-.09.11-.18.24-.06.08-.11.15-.17.23-.31.44-.2,1.11.11,1.51s.91.66,1.43.49c.41-.14.83-.21,1.26-.27l-.49.07c.65-.09,1.25-.24,1.87-.46.51-.18,1.02-.32,1.53-.49,1.04-.35,2.12-.6,3.21-.75l-.59.08c1.13-.15,2.31-.19,3.44-.04l-.59-.08c1.06.14,2.07.52,3.04.93l-.51-.21c.77.33,1.56.6,2.33.93l-.46-.19c.53.24,1.08.43,1.62.65l-.41-.17c.43.18.86.38,1.29.55.16.06.32.12.47.19l-.2-.08s.09.04.14.06c.08.04.16.07.24.11.37.17.74.26,1.13.36.12.03.24.04.36.06.04,0,.07,0,.11.01-.1-.01-.1-.01-.01,0,.16.03.32.02.48.02.19,0,.37-.17.36-.36h0Z"/>
          <path class="cls-22" d="M220.44,170.78c.16,0,.32,0,.48-.02.17-.03-.13.01.07-.01.13-.02.26-.03.39-.06.39-.1.76-.19,1.13-.36.11-.05.65-.27.18-.08.16-.06.31-.13.47-.19.44-.17.86-.36,1.29-.55l-.41.17c.54-.23,1.09-.41,1.62-.65l-.46.19c.77-.32,1.56-.6,2.33-.93l-.51.21c.98-.41,1.99-.78,3.04-.93l-.59.08c1.14-.15,2.31-.1,3.44.04l-.59-.08c1.09.15,2.17.4,3.21.75.51.17,1.03.31,1.53.49.62.22,1.22.37,1.87.46l-.49-.07c.43.06.85.14,1.26.27.51.17,1.11-.08,1.43-.49s.42-1.07.11-1.51c-.04-.06-.09-.12-.13-.18-.02-.03-.05-.06-.07-.09-.01-.02-.4-.51-.15-.2.19.24,0-.01-.03-.06-.05-.07-.1-.14-.15-.21-.29-.39-.55-.73-.92-1.03-.41-.33-.81-.62-1.27-.86-.49-.26-1-.5-1.51-.7-1.6-.61-3.33-.93-5.03-1.06-1.48-.11-3.03.07-4.42.58-.73.27-1.46.59-2.16.93-.78.38-1.54.92-2.21,1.47s-1.33,1.11-1.9,1.77c-.14.16-.28.32-.41.49-.2.24-.32.48-.45.76-.2.43-.31.82-.33,1.29,0,.19.17.36.36.36h0Z"/>
          <path class="cls-22" d="M259.91,183.65c.03.26.07.49.21.73.11.19.22.39.37.55.18.2.39.38.59.56.47.42.98.8,1.51,1.13,1.01.63,2.19,1.07,3.37,1.23,1.4.2,2.83.14,4.2-.24,1.3-.35,2.49-.99,3.54-1.82.56-.44,1.13-.97,1.52-1.58.21-.33.36-.72.5-1.08.18-.46.33-.94.04-1.4-.17-.26-.55-.47-.86-.35-.28.11-.5.23-.66.5-.06.1-.11.21-.17.31-.07.11-.14.21-.21.32-.1.15.15-.18.03-.04-.04.05-.09.1-.13.16-.32.37-.63.75-.99,1.09-.18.17-.38.33-.57.49.3-.25-.04.03-.12.09-.1.07-.21.14-.31.21-.44.28-.9.52-1.37.72l.26-.11c-.7.29-1.43.48-2.19.59l.29-.04c-.8.11-1.61.12-2.42.01l.3.04c-.7-.1-1.38-.28-2.03-.55l.27.11c-.69-.29-1.34-.66-1.94-1.1-.03-.02-.07-.05-.1-.07-.18-.14.16.13.07.05-.07-.06-.14-.11-.21-.17-.14-.12-.28-.24-.41-.36-.37-.34-.77-.69-1.27-.81-.27-.07-.54-.02-.76.16-.19.15-.38.42-.34.68h0Z"/>
          <path class="cls-22" d="M239.01,182.81c-.49.12-.89.46-1.25.8-.14.13-.28.25-.43.38-.06.05-.13.1-.19.16-.15.12.21-.16.07-.05-.04.03-.08.06-.12.09-.6.44-1.25.81-1.94,1.1l.27-.11c-.65.27-1.33.46-2.03.55l.3-.04c-.8.11-1.61.1-2.42-.01l.29.04c-.75-.11-1.48-.29-2.19-.59l.26.11c-.48-.2-.94-.44-1.37-.72-.11-.07-.21-.14-.31-.21-.04-.03-.09-.06-.13-.09-.07-.05-.27-.23,0,0-.19-.16-.39-.32-.57-.49-.36-.34-.66-.72-.99-1.09-.04-.05-.09-.1-.13-.16-.12-.15.14.2.03.04-.07-.1-.14-.2-.2-.3s-.12-.21-.18-.31c-.16-.28-.37-.4-.67-.52-.32-.12-.7.08-.86.35-.27.43-.15.87,0,1.3.12.33.26.66.42.97.3.58.81,1.09,1.3,1.51,1.01.88,2.18,1.55,3.46,1.97.67.22,1.36.34,2.06.42.62.07,1.24.09,1.86.03,1.31-.12,2.57-.48,3.73-1.12.6-.33,1.16-.75,1.68-1.19.24-.2.47-.42.69-.64.16-.16.28-.35.39-.54.08-.13.15-.26.2-.4.04-.13.04-.27.06-.41.03-.26-.15-.53-.34-.68-.22-.17-.48-.22-.76-.16h0Z"/>
          <path class="cls-22" d="M245.75,178.46c-.09.41-.19.82-.21,1.24s-.03.81-.02,1.22c.02.78.07,1.56.13,2.34.1,1.6.3,3.18.2,4.78-.05.81-.16,1.62-.26,2.43-.02.19-.05.38-.07.57,0,.07-.04.29-.01.1-.02.11-.03.22-.05.33-.05.39-.11.79-.17,1.18-.24,1.61-.52,3.21-.82,4.81-.28,1.48-.71,2.93-.9,4.43s-.08,3.06.73,4.3c.73,1.12,1.88,1.74,3.19,1.88s2.54-.29,3.65-.89c1.18-.64,2.23-1.51,3.15-2.48.48-.5.95-1.02,1.34-1.59.04-.06.08-.12.12-.19.01-.02.05-.13,0-.03-.06.14.11-.16.11-.16.1-.13.19-.26.29-.39.2-.27.38-.54.57-.81s.32-.56.48-.83c.14-.24.1-.55-.1-.75-.18-.18-.53-.26-.75-.1-.55.4-1.07.82-1.54,1.32-.41.44-.86.84-1.25,1.3s-.83.92-1.27,1.35c-.22.21-.44.4-.67.59-.06.05-.12.09-.18.14-.14.12,0,0,.03-.02-.13.12-.29.21-.43.31-.26.18-.53.34-.8.5-.14.08-.29.15-.43.23-.07.04-.15.07-.22.11-.05.02-.09.04-.14.06.14-.06.16-.07.06-.03-.25.09-.49.18-.75.24-.1.02-.21.05-.31.06-.13.02-.2-.03.02,0-.07-.01-.17.02-.25.02-.25.01-.49-.03-.73-.02.28,0,.14.02.04,0-.06-.01-.12-.02-.17-.04-.13-.03-.26-.08-.39-.12-.2-.07.22.11.03.02-.05-.03-.1-.05-.16-.08-.09-.05-.17-.09-.25-.15-.05-.03-.09-.08-.14-.1.23.11.1.08.03.01-.11-.09-.2-.2-.29-.3-.15-.16.13.2,0,.02-.04-.05-.07-.1-.11-.16-.07-.11-.13-.22-.19-.34l-.03-.06c-.05-.1-.04-.08.02.06-.03-.01-.06-.17-.07-.2-.06-.19-.11-.38-.15-.57-.02-.08-.03-.16-.04-.25-.05-.28.01.23,0-.05,0-.14-.02-.28-.03-.42-.01-.37,0-.74.05-1.1,0-.09.02-.17.03-.26-.04.27,0-.02.01-.06.03-.17.06-.34.09-.51.07-.37.15-.74.24-1.1.16-.65.32-1.31.45-1.96.3-1.53.56-3.06.79-4.6s.49-3.23.63-4.85c.15-1.72,0-3.45-.22-5.16-.06-.46-.13-.92-.2-1.37-.03-.22-.06-.43-.1-.65-.01-.09-.03-.19-.04-.28.02.15-.03-.2-.03-.23-.06-.51-.1-.79-.16-1.31-.05-.47-.15-.92-.22-1.39-.1-.59-1.04-.56-1.17,0h0Z"/>
          <path class="cls-22" d="M244.39,215.92c-.03.26-.08.55,0,.81.08.23.18.45.33.65.32.43.7.84,1.16,1.12.82.5,1.74.8,2.68.98.49.09.99.16,1.49.19s1.03-.02,1.55-.1c1.16-.17,2.27-.62,3.26-1.25.58-.37,1.13-.78,1.63-1.24.23-.2.45-.41.67-.62.11-.11.23-.21.34-.32.17-.17.27-.38.39-.59.17-.31.15-.7-.07-.98-.2-.25-.6-.45-.93-.32-.15.06-.29.12-.44.18-.23.1-.41.26-.61.42-.21.17-.42.34-.64.5l.22-.17c-.89.68-1.79,1.35-2.83,1.79l.27-.11c-.63.26-1.3.45-1.97.54l.3-.04c-.65.09-1.3.07-1.96-.01l.3.04c-.86-.12-1.73-.34-2.53-.67l.26.11c-.24-.1-.48-.22-.73-.33l.25.11c-.16-.07-.32-.15-.47-.24-.06-.04-.12-.08-.19-.12-.03-.02-.07-.05-.1-.07-.11-.08.21.17.07.05-.11-.09-.21-.2-.32-.3-.07-.07-.15-.12-.22-.18.23.18.11.08.06.04s-.1-.09-.15-.14c-.15-.17-.41-.22-.62-.17-.19.05-.42.24-.45.45h0Z"/>
          <path class="cls-22" d="M242.87,211.39s.03.07.05.1c.02.05.03.08,0,.01.02.05.04.1.06.14.09.21-.02-.09.01.05.04.17.11.34.19.5.03.06.05.12.08.18.06.14-.05-.14-.02-.05.01.03.03.06.04.09.07.18.16.36.24.54l-.09-.21c.24.57.4,1.17.48,1.79l-.04-.28c.04.29.07.59.11.88l-.04-.29c.09.7.08,1.41-.01,2.12l.04-.3c-.03.19-.06.39-.08.58l.04-.3c-.14,1.05-.47,2.06-.88,3.03l.11-.26c-.33.79-.77,1.53-1.14,2.3-.19.4-.14.86.23,1.14s.83.23,1.16-.07c.65-.61,1.14-1.39,1.56-2.17s.75-1.64.98-2.51.33-1.75.3-2.64c0-.2-.02-.4-.05-.6-.03-.28-.06-.57-.13-.84-.12-.45-.31-.89-.5-1.31-.22-.47-.51-.89-.83-1.3-.17-.21-.39-.44-.62-.59-.19-.13-.41-.24-.62-.35-.17-.09-.41-.08-.55.07-.15.16-.16.36-.07.55h0Z"/>
          <path class="cls-22" d="M257.92,209.12c-.11.11-.18.23-.24.38.06-.16,0,0-.02.04-.02.05-.04.09-.06.14-.1.22-.2.45-.29.67-.15.39-.32.78-.45,1.18s-.27.8-.36,1.21-.19.84-.26,1.26c-.32,1.84-.31,3.84.6,5.53.25.47.58.91.96,1.29.23.23.48.44.76.6s.6.29.91.41c.17.07.4.03.56-.04s.33-.19.41-.35c.18-.35.14-.76-.14-1.05-.16-.17-.32-.35-.46-.53l.16.21c-.15-.19-.28-.38-.45-.56-.11-.12-.21-.24-.31-.36l.17.22c-.3-.39-.56-.81-.75-1.26l.12.27c-.24-.56-.4-1.15-.48-1.76l.04.3c-.16-1.21-.05-2.45.11-3.65l-.04.27c.1-.74.2-1.48.25-2.23.02-.32.05-.64.06-.96,0-.15,0-.3,0-.45,0-.19,0-.38-.06-.56-.06-.15-.15-.27-.32-.32-.15-.04-.33,0-.44.12h0Z"/>
          <path class="cls-22" d="M291.8,183.82c-.05.27-.23.52-.33.78s-.19.54-.26.81c-.13.49-.17,1.14-.26,1.72s-.19,1.17-.28,1.75c-.05.33-.11.66-.15,1-.02.14-.03.27-.05.41-.01.08-.02.16-.03.25-.02.12-.01.11,0-.03,0,.04-.01.08-.02.12-.33,2.38-.75,4.75-1.21,7.1-.25,1.28-.55,2.56-.77,3.84-.06.36.07.71.43.87.3.13.77.04.92-.3.48-1.12.86-2.29,1.19-3.46s.62-2.34.85-3.54c.25-1.26.44-2.52.59-3.79.15-1.19.24-2.38.22-3.59-.01-.67-.03-1.34-.08-2.01-.03-.34-.11-.68-.21-1-.05-.15-.1-.3-.16-.44-.07-.17-.17-.3-.2-.48-.02-.09-.16-.09-.18,0h0Z"/>
          <path class="cls-22" d="M206.6,182.56c.05.21-.02.4-.07.6-.04.18-.06.36-.07.55,0,.38-.01.77-.03,1.15-.03.74.04,1.49.09,2.23.12,1.56.32,3.14.68,4.66.3,1.28.68,2.55,1.01,3.83s.68,2.58,1.16,3.81c.28.72.6,1.44.96,2.12.34.65.76,1.23,1.22,1.8.15.19.47.18.64.04.21-.16.22-.4.13-.63-.23-.55-.42-1.13-.62-1.7-.21-.61-.4-1.23-.56-1.86s-.36-1.28-.52-1.92-.29-1.24-.44-1.86c-.31-1.27-.65-2.53-.97-3.79-.36-1.43-.56-2.88-.82-4.33-.15-.82-.27-1.65-.52-2.45-.12-.38-.26-.76-.4-1.14-.08-.21-.16-.43-.29-.61s-.28-.34-.33-.57c-.03-.15-.27-.09-.24.07h0Z"/>
          <path class="cls-22" d="M247.65,223.89s.02.02.04.03l-.11-.4c-.06.2,0,.45.15.59.06.06.14.1.21.15.08.05.15.1.23.15.2.13.44.21.67.29.4.15.85.21,1.27.22.78.03,1.58-.08,2.34-.26.21-.05.4-.12.6-.2.17-.06.32-.13.47-.22.02-.01.05-.03.07-.04.02,0,.03-.02.04-.03l.17-.13c.08-.08.14-.18.21-.27.07-.12.1-.24.1-.38,0-.1-.02-.2-.06-.29-.09-.21-.26-.38-.48-.43-.04,0-.07-.02-.11-.03-.07-.02-.17-.03-.24-.04-.09,0-.19.02-.28.03l.23-.03c-.08.01-.17.02-.25.03-.12.01-.24.03-.36.06-.04.01-.08.02-.13.03-.17.04-.34.08-.51.12-.33.08-.66.15-.99.2l.25-.03c-.4.05-.8.08-1.2.06-.21,0-.41,0-.62-.01s-.41,0-.62,0c-.12,0-.23,0-.35.01-.06,0-.12,0-.18,0-.12,0-.24.02-.34.08-.1.06-.19.15-.23.25l.35-.2s-.03,0-.05,0c-.16,0-.29.09-.36.24-.06.13-.04.33.08.42h0Z"/>
          <path class="cls-22" d="M295.14,171.91s.02.07.03.1c.02.05,0-.07,0-.06.02.07.02.13.04.19.04.09.1.15.16.22-.09-.11.03.05.05.08.11.16-.04-.09.04.06.02.03.04.07.06.1.08.12.18.22.28.32.13.14.25.29.38.44.06.07.12.13.18.2.03.03.05.06.08.1.02.03.15.19.05.06s.01.02.03.04c.02.03.05.07.07.1.06.08.11.16.16.24.1.16.2.32.29.49.2.35.35.72.54,1.06-.04-.07-.09-.21-.03-.07.02.05.04.1.06.14.04.1.07.19.11.29.07.19.13.39.19.58.12.41.21.83.29,1.25.04.21.07.42.1.63.03.17,0,.01-.01-.08,0,.06.01.11.02.17.01.11.03.22.04.34.04.45.06.9.07,1.35s-.01.9-.05,1.35c-.02.23-.04.45-.06.68-.01.11-.03.22-.04.33,0,0,.04-.28.02-.12,0,.02,0,.05-.01.07,0,.06-.02.12-.03.17-.14.9-.35,1.79-.62,2.66-.14.43-.31.85-.47,1.27,0,.02.1-.23.06-.13,0,.02-.02.04-.03.07-.02.05-.05.1-.07.16-.05.1-.09.21-.14.31-.09.19-.19.39-.29.58-.2.38-.42.75-.66,1.1-.11.17-.25.33-.36.5.05-.07.15-.19.05-.06-.03.04-.07.08-.1.12-.07.08-.13.16-.2.24-.26.3-.55.59-.85.85-.07.06-.14.12-.21.18-.03.03-.16.13-.02.01s-.01,0-.05.04c-.15.11-.31.22-.47.32s-.32.19-.49.28c-.08.04-.16.08-.24.12-.04.02-.21.09-.03.02s0,0-.04.01c-.36.14-.73.25-1.11.32-.19.04-.38.07-.57.1-.31.05-.62.38-.68.68-.03.17-.07.35,0,.52.16.4.48.72.94.72,1.8-.04,3.53-1.02,4.8-2.25,1.36-1.33,2.3-3.02,2.97-4.79s1.05-3.8,1.11-5.76c.05-1.85-.18-3.76-.88-5.49-.36-.89-.79-1.7-1.41-2.43-.54-.63-1.27-1.33-2.11-1.49,0,0-.26-.04-.12-.02.09.02,0,0-.02,0-.07-.02-.16-.04-.23-.04s-.13.02-.19.04c-.15.04-.02,0,0,0-.04,0-.08.02-.12.03-.16.04-.28.24-.23.4h0Z"/>
          <path class="cls-22" d="M202.71,172.73c-.45.24-.86.47-1.23.82-.32.3-.62.6-.89.94-.56.7-1.05,1.43-1.44,2.24-.77,1.6-1.13,3.33-1.08,5.11.1,3.4,1.43,7,4.17,9.15,1.53,1.2,3.56,2.03,5.52,1.52.53-.14.57-.99,0-1.11-.75-.15-1.52-.27-2.24-.54-.05-.02-.1-.04-.15-.06-.03-.01-.16-.06-.05-.02.15.06-.12-.05-.19-.08-.05-.02-.1-.04-.15-.06-.04-.02-.15-.07.03.01-.04-.02-.08-.03-.12-.05-.1-.04-.19-.09-.28-.14-.33-.17-.64-.36-.94-.57-.03-.02-.07-.05-.1-.07-.02-.02-.13-.1-.04-.03.11.08-.05-.04-.06-.05-.03-.03-.07-.05-.1-.08-.15-.12-.29-.25-.42-.38-.27-.26-.52-.53-.75-.82-.03-.03-.05-.07-.08-.1-.09-.1.13.17,0,0-.05-.07-.1-.14-.15-.21-.11-.16-.22-.32-.32-.48-.2-.32-.38-.65-.55-.99-.08-.16-.16-.33-.24-.5-.02-.04-.03-.08-.05-.12-.07-.15,0,.01.02.04-.03-.1-.08-.2-.12-.3-.14-.35-.25-.71-.36-1.08-.11-.4-.2-.81-.28-1.23-.02-.11-.04-.22-.06-.34,0-.05-.02-.1-.02-.15,0-.03-.02-.19,0-.06.02.15-.01-.09-.01-.1,0-.05-.01-.1-.02-.15-.01-.12-.02-.24-.03-.36-.03-.4-.04-.8-.03-1.2,0-.21.02-.41.03-.61,0-.09.02-.18.03-.27,0-.04.01-.09.02-.13.03-.23-.03.2,0-.02.12-.76.3-1.52.57-2.25.04-.1.08-.21.12-.31.02-.04.03-.08.05-.12-.05.14-.02.04.02-.04.09-.2.18-.39.28-.58.2-.4.42-.79.66-1.18.25-.41.51-.81.77-1.2.14-.21.28-.4.39-.62s.22-.45.33-.67c.14-.28-.15-.58-.43-.43h0Z"/>
        </g>
      </g>
      <g>
        <path class="cls-20" d="M370.53,309.39h-236.87c2.04-8.95,4.29-17.86,6.53-26.73,5.9-23.25,12.41-46.82,24.49-67.64,4.23-7.28,9.77-14.13,16.89-18.76,3.63-2.36,6.95-3.93,11.12-5.17,1.74-.52,3.63-.75,5.49-1.07,1.14,2.38,2.71,4.42,4.7,5.75,1.95,1.31,5.58,2.28,8.11,1.48.06.22.11.45.17.67,3.28,12.37,9.47,23.31,20.67,30.07,5.19,3.11,11.98,5.09,18.2,4.61,6.23.49,13.01-1.5,18.18-4.61,11.19-6.76,17.39-17.69,20.67-30.07.06-.22.11-.43.17-.66,2.53.77,6.14-.21,8.07-1.5,2.66-1.78,4.59-4.87,5.71-8.27,2.7.8,5.65.92,8.29,1.72,4.16,1.24,7.47,2.81,11.1,5.17,7.11,4.62,12.67,11.48,16.89,18.76,12.08,20.82,18.59,44.39,24.49,67.64,2.4,9.49,4.81,19.04,6.96,28.61Z"/>
        <g class="cls-9">
          <path class="cls-22" d="M181.21,221.65c-.16.3-.31.62-.42.94s-.29.64-.34.98c-.1.76-.19,1.51-.2,2.27-.03,1.46.03,2.92,0,4.38-.03,1.65-.13,3.3-.2,4.95s-.15,3.32-.17,4.98c-.04,3.33.06,6.66.19,9.99s.29,6.66.38,9.99.04,6.65.16,9.97.33,6.64.55,9.96.46,6.62.61,9.94c.08,1.65.13,3.31.16,4.96.02,1.34.03,2.68.14,4.02.22,2.78.65,5.55,1.26,8.28s1.32,5.2,2.35,7.67c.25.59.52,1.17.78,1.75.18.39.78.52,1.12.29.41-.26.48-.7.29-1.12.06.13,0,0-.02-.06-.03-.06-.05-.13-.08-.19-.06-.14-.11-.28-.17-.43-.11-.29-.22-.58-.32-.88-.21-.59-.4-1.18-.59-1.78-.4-1.29-.76-2.59-1.09-3.9s-.62-2.69-.86-4.05c-.12-.68-.23-1.37-.33-2.05-.01-.08-.02-.16-.03-.24,0-.04-.04-.27-.02-.15s-.01-.11-.02-.15c-.01-.09-.02-.19-.04-.28-.04-.34-.08-.68-.12-1.02-.3-2.81-.25-5.62-.35-8.44-.11-3.3-.31-6.59-.53-9.89s-.45-6.6-.6-9.91c-.08-1.66-.14-3.32-.16-4.98s0-3.29-.03-4.93c-.05-3.31-.19-6.62-.32-9.93s-.27-6.62-.29-9.94c-.01-1.64.01-3.29.04-4.93s.11-3.29.09-4.94c-.01-1.54-.05-3.08-.2-4.62s-.31-2.92-.29-4.39c0-.35-.08-.69-.09-1.04,0-.33-.02-.67,0-1,0-.13-.19-.19-.25-.07h0Z"/>
          <path class="cls-22" d="M171.23,226.15c.02.68.04,1.35.15,2.02s.21,1.28.3,1.92c.19,1.28.4,2.56.61,3.84.41,2.58.81,5.17,1.24,7.74.86,5.08,1.99,10.14,3.69,15.01.5,1.43,1.05,2.83,1.65,4.22.29.67.59,1.34.92,2,.16.32.33.63.5.94.08.15.16.32.26.47.15.24.39.4.61.57.43.33,1.12-.12,1.09-.62-.01-.21,0-.43-.07-.63-.06-.18-.16-.36-.24-.53-.15-.31-.29-.61-.43-.92-.27-.59-.55-1.17-.81-1.76-.06-.15-.13-.3-.19-.44-.03-.07-.06-.13-.09-.2-.07-.15.08.2-.03-.06-.13-.32-.27-.65-.4-.97-.24-.6-.46-1.2-.68-1.8-.87-2.41-1.57-4.87-2.2-7.35-1.28-5.01-2.19-10.11-3.24-15.17-.29-1.4-.58-2.81-.93-4.2-.18-.71-.36-1.42-.55-2.13s-.46-1.37-.76-2.04c-.09-.2-.41-.09-.4.11h0Z"/>
          <path class="cls-22" d="M162.28,261.43c-.03.19-.07.38-.06.57,0,.22.04.43.06.65.06.43.14.87.22,1.3.15.85.32,1.7.47,2.55.3,1.69.59,3.38.98,5.06s.95,3.38,1.5,5.03c.56,1.67,1.16,3.33,1.8,4.97,1.32,3.35,2.85,6.64,4.57,9.81s3.61,6.16,5.67,9.07c1.65,2.34,3.79,4.26,5.61,6.45.24.29.64.51,1.01.56l-.61-.35.03.04c.23.31.61.46.97.25.3-.18.48-.66.25-.97l-.03-.04.07.55c.07-.46-.11-.9-.39-1.26-.18-.23-.38-.46-.57-.68-.44-.51-.9-1.02-1.35-1.52-.5-.55-.99-1.1-1.48-1.66-.25-.28-.49-.57-.73-.86-.11-.14-.23-.27-.34-.41-.05-.07-.11-.14-.16-.2-.02-.03-.05-.06-.07-.09-.07-.09.1.13,0,0-1-1.33-1.9-2.76-2.78-4.17-.94-1.51-1.84-3.04-2.71-4.59s-1.68-3.13-2.44-4.73c-.38-.79-.75-1.58-1.1-2.38-.18-.41-.36-.81-.53-1.22-.04-.1-.08-.2-.13-.3-.02-.04-.04-.08-.05-.13-.06-.15.06.14,0,0-.09-.21-.18-.42-.26-.64-1.36-3.26-2.57-6.58-3.56-9.97-.47-1.63-.84-3.28-1.22-4.93-.2-.84-.43-1.68-.69-2.5s-.55-1.65-.98-2.4c-.1-.18-.22-.34-.34-.5s-.29-.29-.45-.42c-.07-.06-.16-.02-.17.07h0Z"/>
          <path class="cls-22" d="M152.1,286.22c.04.73.24,1.43.43,2.13s.41,1.35.65,2.01c.51,1.4,1.14,2.75,1.77,4.09,1.23,2.6,2.57,5.16,3.94,7.69,1.4,2.58,3.01,5.06,4.69,7.47.79,1.13,1.6,2.23,2.51,3.25s1.81,1.9,2.74,2.82c1.04,1.01,2.1,1.99,3.12,3.02s2.01,2.07,3.03,3.09c.35.35.84-.09.65-.5-.55-1.2-1.35-2.25-2.18-3.26s-1.7-1.92-2.59-2.83-1.84-1.87-2.72-2.85c-.43-.48-.85-.96-1.25-1.46-.19-.24-.39-.47-.57-.71.13.16-.04-.05-.05-.07-.04-.06-.08-.11-.12-.17-.11-.15-.22-.3-.32-.45-1.69-2.37-3.28-4.8-4.75-7.32s-2.78-5.04-4.14-7.58c-.76-1.42-1.45-2.86-2.19-4.29-.36-.69-.7-1.39-1.07-2.08s-.71-1.45-1.17-2.11c-.11-.15-.39-.12-.38.1h0Z"/>
          <path class="cls-22" d="M318.56,221.72c.02.33,0,.67,0,1,0,.18-.02.37-.05.54-.03.18-.04.35-.04.55,0,.74-.05,1.44-.1,2.17-.1,1.46-.31,2.91-.36,4.37-.11,3.3.06,6.6.09,9.9s-.06,6.59-.19,9.89-.28,6.62-.37,9.94-.04,6.61-.15,9.92-.32,6.61-.54,9.91-.45,6.59-.6,9.89c-.08,1.64-.13,3.27-.16,4.91-.02,1.36-.03,2.71-.12,4.07-.04.64-.1,1.29-.17,1.93-.04.34-.08.68-.12,1.02,0,.08-.02.16-.03.24,0,.04-.04.27-.02.15s-.02.11-.02.15c-.01.09-.03.19-.04.28-.2,1.36-.44,2.72-.73,4.07-.55,2.61-1.26,5.19-2.15,7.71-.1.28-.2.56-.31.84-.05.13-.1.26-.15.39-.03.06-.05.13-.08.19-.02.04-.11.26-.03.09-.17.39-.13.9.29,1.12.36.19.94.12,1.12-.29.53-1.18,1.05-2.35,1.48-3.57s.84-2.56,1.17-3.87c.7-2.74,1.21-5.52,1.54-8.33.15-1.28.25-2.57.3-3.86.05-1.54.04-3.08.09-4.62.11-3.31.32-6.63.54-9.93s.46-6.63.62-9.96c.08-1.66.14-3.32.17-4.98s.01-3.32.04-4.98c.05-3.33.19-6.66.33-9.98s.27-6.66.3-9.99-.11-6.65-.28-9.97c-.08-1.53-.1-3.06-.09-4.6,0-.74.02-1.49,0-2.23s-.11-1.5-.21-2.26c-.05-.33-.23-.66-.34-.98s-.26-.61-.41-.9c-.06-.12-.26-.06-.25.07h0Z"/>
          <path class="cls-22" d="M328.38,226.04c-.27.6-.53,1.19-.7,1.82s-.33,1.25-.48,1.87c-.32,1.26-.59,2.54-.86,3.81-.53,2.52-1.03,5.05-1.55,7.57-1.04,5.05-2.1,10.1-3.78,14.98-.23.66-.47,1.32-.72,1.97-.14.35-.27.71-.42,1.06-.07.16-.13.32-.2.49,0-.01-.11.25-.05.13.02-.06.02-.04-.02.05-.02.05-.05.11-.07.16-.29.67-.6,1.34-.91,2-.15.32-.3.64-.45.96-.08.16-.16.32-.23.48-.13.28-.14.54-.16.84-.03.51.65.95,1.09.62.16-.12.34-.24.47-.39s.22-.32.31-.49c.17-.31.34-.62.5-.94.3-.57.56-1.17.82-1.76.54-1.22,1.04-2.46,1.5-3.72.89-2.43,1.64-4.91,2.26-7.43,1.24-5.04,2.04-10.15,2.85-15.27.23-1.45.48-2.9.7-4.36.11-.73.22-1.46.34-2.18s.16-1.45.18-2.2c0-.2-.31-.31-.4-.11h0Z"/>
          <path class="cls-22" d="M337.57,261.36c-.15.12-.31.23-.43.38-.13.17-.26.35-.36.54-.22.39-.39.8-.57,1.22-.32.78-.55,1.61-.78,2.42-.45,1.65-.78,3.34-1.22,4.99-.91,3.39-2.08,6.72-3.4,9.97-.17.41-.34.82-.51,1.23-.08.18-.15.37-.23.55s-.02.04,0,0c-.02.04-.04.08-.05.13-.05.11-.1.23-.14.34-.35.82-.71,1.63-1.09,2.44-.74,1.61-1.53,3.2-2.37,4.76-1.68,3.13-3.54,6.17-5.54,9.11-.18.27-.38.53-.57.79-.1.14,0,0,.02-.02-.02.03-.05.06-.07.09-.05.07-.11.14-.16.2-.12.15-.24.3-.36.44-.47.57-.96,1.13-1.46,1.69-.9,1-1.83,1.98-2.67,3.04-.28.36-.47.8-.39,1.26l.07-.55-.03.04c-.23.31-.05.79.25.97.36.21.74.05.97-.25l.03-.04-.61.35c.73-.1,1.14-.72,1.6-1.23s.94-1.02,1.41-1.53c1-1.08,2.02-2.16,2.93-3.32,1.06-1.36,2.01-2.81,2.95-4.26s1.9-3.01,2.77-4.55c1.77-3.15,3.33-6.42,4.72-9.75s2.52-6.64,3.49-10.05c.47-1.64.75-3.33,1.07-5.01.16-.85.3-1.71.45-2.57s.34-1.68.45-2.53c.03-.2.04-.4.06-.61s-.03-.41-.06-.61c-.01-.09-.1-.13-.17-.07h0Z"/>
          <path class="cls-22" d="M347.54,286.12c-.42.6-.72,1.26-1.06,1.91s-.64,1.25-.97,1.88c-.65,1.26-1.26,2.54-1.93,3.79-1.34,2.54-2.69,5.09-4.11,7.59s-3,4.98-4.67,7.37c-.2.28-.39.56-.59.84-.09.13-.18.25-.27.38-.04.06-.08.11-.12.17-.02.03-.23.3-.1.14-.39.5-.8,1-1.22,1.48-.86.99-1.77,1.94-2.69,2.88-1.01,1.04-2.01,2.08-2.97,3.17s-1.85,2.27-2.45,3.58c-.19.41.3.86.65.5.9-.91,1.77-1.84,2.68-2.74s1.88-1.82,2.81-2.73c1.9-1.85,3.79-3.71,5.33-5.87,1.7-2.39,3.34-4.85,4.79-7.4.7-1.24,1.35-2.51,2.01-3.78s1.36-2.58,1.99-3.89c.71-1.48,1.45-2.96,2.02-4.5.28-.75.55-1.49.77-2.26s.46-1.58.5-2.4c.01-.22-.27-.25-.38-.1h0Z"/>
          <path class="cls-22" d="M181.64,212.95c.02-.13.03-.26.05-.38l-.02.17c.08-.58.06-1.18.09-1.77.03-.53.01-1.07.02-1.6,0-1.07.04-2.14.1-3.21.02-.31.04-.62.06-.93.02-.35.05-.71-.06-1.05-.08-.22-.24-.38-.48-.42-.22-.03-.47.07-.58.28-.05.09-.11.19-.14.29-.02.07-.03.14-.04.21-.04.2-.06.4-.08.61-.02.28-.05.56-.07.84-.04.57-.08,1.13-.12,1.7s-.08,1.12-.1,1.68-.04,1.13,0,1.69c.02.32.05.64.07.96.02.2.03.4.06.6.03.16.07.33.11.49.06.28.36.45.63.41.12-.02.24-.07.33-.16.11-.12.15-.25.17-.41h0Z"/>
          <path class="cls-22" d="M205.21,206.34c.17.65.24,1.31.4,1.96.15.61.26,1.24.38,1.86.25,1.27.63,2.52.96,3.77.66,2.45,1.53,4.82,2.49,7.17s1.94,4.54,3.09,6.72,2.35,4.05,3.7,5.98c2.56,3.66,5.35,7.19,8.52,10.34s6.8,5.93,10.88,7.81c2.23,1.03,4.56,1.81,6.92,2.46,1.14.31,2.29.58,3.45.85s2.36.57,3.56.79c.64.12,1.26.22,1.9.26.6.04.81-.84.3-1.12-1.12-.61-2.34-.94-3.57-1.28-1.12-.31-2.25-.6-3.38-.9-2.27-.61-4.53-1.24-6.72-2.12-.14-.06-.28-.11-.42-.17-.27-.11.1.05-.06-.02-.07-.03-.14-.06-.21-.09-.29-.13-.59-.26-.88-.4-.53-.25-1.05-.51-1.57-.79-.94-.51-1.85-1.06-2.74-1.66-.46-.31-.9-.62-1.34-.95-.1-.07-.19-.14-.29-.22-.06-.05-.13-.1-.19-.15-.03-.03-.15-.12.01,0-.23-.18-.46-.36-.69-.55-.84-.68-1.65-1.39-2.43-2.13-1.6-1.51-3.1-3.12-4.52-4.81-.36-.43-.71-.86-1.06-1.29-.16-.2-.32-.4-.48-.61-.08-.11-.17-.21-.25-.32-.04-.05-.08-.11-.13-.16-.03-.04-.22-.28-.06-.08-.66-.85-1.3-1.72-1.93-2.59-1.33-1.83-2.62-3.69-3.75-5.65-1.2-2.09-2.25-4.27-3.23-6.47-.24-.54-.48-1.08-.71-1.62-.03-.08-.07-.16-.1-.24-.07-.18-.02-.04,0,0-.06-.13-.11-.27-.17-.4-.12-.3-.24-.59-.37-.89-.48-1.17-.92-2.35-1.32-3.55s-.88-2.42-1.31-3.63c-.23-.64-.45-1.27-.73-1.89-.25-.57-.51-1.13-.77-1.7s-.59-1.1-.86-1.66c-.09-.19-.38-.05-.33.14h0Z"/>
          <path class="cls-22" d="M299.4,223.95c-.37.66-.72,1.33-1.04,2.01s-.6,1.42-.86,2.15c-.51,1.42-.95,2.86-1.52,4.26-.02.05-.04.11-.07.16,0,0-.06.13-.02.06s-.02.05-.02.05c-.02.04-.03.08-.05.12-.08.19-.16.37-.25.55-.16.34-.33.68-.52,1.02-.38.69-.82,1.35-1.23,2.02-.81,1.31-1.65,2.6-2.54,3.85-.22.31-.44.61-.67.92-.11.15-.23.3-.34.45-.05.07-.11.14-.16.21,0,0-.1.13-.03.04.08-.1-.09.11-.08.11-.47.6-.96,1.2-1.45,1.78-.98,1.14-2,2.24-3.05,3.32-2.06,2.12-4.25,4.11-6.57,5.94-.13.1-.26.21-.39.31-.08.06-.15.12-.23.18-.09.07.03-.02.04-.03-.04.03-.09.07-.13.1-.29.22-.58.44-.87.65-.59.44-1.19.87-1.8,1.29-1.21.83-2.44,1.62-3.7,2.37s-2.59,1.47-3.92,2.14c-.71.35-1.42.69-2.14,1.01-.18.08-.36.16-.54.23-.11.05.02,0,.03-.01-.04.02-.08.03-.12.05-.1.04-.19.08-.29.12-.37.15-.75.3-1.13.45-2.89,1.1-5.88,1.93-8.91,2.53-.76.15-1.52.29-2.29.41-.37.06-.75.12-1.13.17-.09.01-.17.02-.26.04-.06,0-.12.02-.17.02-.02,0-.16.02-.04,0s-.03,0-.04,0c-.04,0-.09.01-.13.02-.1.01-.2.03-.3.04-1.54.19-3.09.34-4.63.45-3.09.21-6.19.29-9.29.31s-6.25-.08-9.37-.05c-.77,0-1.55.05-2.33.02-.36-.01-.66.31-.66.66,0,.37.3.65.66.66.79.02,1.58.11,2.37.17s1.58.11,2.37.15c1.58.07,3.15.14,4.73.19,3.13.09,6.27.12,9.4-.02s6.32-.43,9.44-.93,6.11-1.19,9.06-2.17,5.95-2.3,8.75-3.83c2.6-1.42,5.09-3.02,7.47-4.78,2.43-1.8,4.74-3.75,6.92-5.84,2.24-2.15,4.34-4.44,6.22-6.9.94-1.23,1.82-2.5,2.66-3.79s1.7-2.65,2.39-4.05c1.37-2.78,2.04-5.85,2.92-8.8.21-.7.45-1.37.76-2.03.12-.26.07-.57-.19-.72-.24-.14-.58-.06-.72.19h0Z"/>
          <path class="cls-22" d="M196.7,278.37c.72,1.28,1.52,2.52,2.41,3.7s1.87,2.3,2.96,3.42,2.15,2.06,3.29,3.01c.57.48,1.16.94,1.75,1.4.08.06.17.13.25.19.01,0,.11.09.03.02-.13-.1.18.14.16.12.04.03.08.06.12.09.16.12.31.23.47.35.3.22.61.44.92.66,2.47,1.74,5.04,3.32,7.67,4.79s5.28,2.81,7.98,4.11c2.93,1.42,5.88,2.82,8.9,4.03,3.21,1.29,6.5,2.39,9.84,3.32s6.61,1.67,9.96,2.31,6.83,1.16,10.26,1.62,6.82.82,10.23,1.14c1.71.16,3.42.31,5.13.46.87.08,1.73.15,2.6.21s1.74.15,2.61.16c.42,0,.84.01,1.26.02s.88-.01,1.31.03c.26.03.48-.24.48-.48,0-.28-.22-.45-.48-.48-.41-.04-.84-.17-1.24-.25s-.85-.17-1.28-.25c-.85-.16-1.72-.25-2.58-.36-1.75-.24-3.51-.41-5.27-.61-3.39-.39-6.79-.76-10.18-1.18-.85-.11-1.7-.21-2.55-.33-.1-.01-.2-.03-.31-.04-.01,0-.16-.02-.05,0,.12.02-.06,0-.09-.01-.22-.03-.44-.06-.66-.09-.41-.06-.82-.11-1.22-.17-1.69-.24-3.37-.51-5.05-.8-3.33-.58-6.64-1.26-9.91-2.1-3.32-.85-6.61-1.85-9.83-3.03-.81-.3-1.61-.61-2.41-.93-.41-.16-.82-.33-1.22-.5-.02,0-.2-.08-.09-.04.09.04-.04-.02-.05-.02-.1-.04-.2-.08-.29-.13-.21-.09-.42-.18-.63-.27-1.45-.64-2.88-1.32-4.31-1.99-2.66-1.26-5.31-2.57-7.91-3.95s-5.24-2.88-7.75-4.51c-1.26-.82-2.49-1.68-3.7-2.56-.3-.22-.6-.44-.9-.67-.13-.1-.27-.2-.4-.3-.04-.03-.08-.06-.12-.09.01,0,.11.08.03.02-.09-.07-.18-.14-.27-.21-.58-.45-1.14-.92-1.7-1.39-2.24-1.91-4.37-3.95-6.34-6.14-.47-.53-.93-1.07-1.38-1.62-.2-.25-.57.07-.43.33h0Z"/>
        </g>
      </g>
    </g>
    <g>
      <g>
        <path class="cls-8" d="M352.95,337.37c-12.51-8.5-19.47-26.92-26.86-39.56-1.95-3.31-4.42-6.74-6.46-10.24-3.59-.84-6.74-2.19-9.66-4.87-1.8-1.63-4.36-4.16-5.62-6.74-2.02.43-4.08.77-6.05,1.37-.6,3.58-2.19,9.47-5.47,7.11-.92-.66-1.16-2.28-1.14-4.06-2.79,1.27-5.99,2.21-8.44,1.01-5.28-2.6,1.82-6.25,4.19-7.15,1.46-.56,2.88-1.27,4.27-2.02-.09-.54-.17-1.1-.24-1.67-2.79-.86-5.05-4.74-5.24-7.84-.02-.02-.04-.02-.06-.04-3.44-2.49-5.15-8.07-2.12-11.23.04-.04.06-.06.09-.07,1.2-1.24,2.6-2.19,4.08-3.09,1.25-.77,2.55-1.48,3.78-2.25,3.26-2.08,7-5.47,11.01-4.02,4.04,1.46,6.53,5.47,9.23,8.54,6.72,7.64,11.1,13.07,18.36,22.5,11.16,8.41,17.95,14.32,25.33,21.27,7.51,7.08,17.37,16.23,21.15,26.08,6.23,16.25-10.8,26.06-24.15,16.98Z"/>
        <g class="cls-12">
          <path class="cls-22" d="M310.44,265.35c.2-.53-.56-.92-.93-1.11-.41-.22-.84-.39-1.29-.5-.89-.23-1.78-.22-2.69-.09-1.7.24-3.27,1.04-4.76,1.85s-3.1,1.69-4.66,2.5c-.42.22-.85.44-1.28.63-.05.02-.11.05-.16.07-.14.06.11-.04-.03.01-.1.04-.19.08-.29.11-.23.09-.46.17-.7.24-.89.26-1.69.65-2.48,1.13-.41.25-.82.49-1.25.69-.02,0-.17.07-.08.04s-.11.04-.13.05c-.12.05-.24.09-.36.13-.25.09-.5.17-.75.25-1.03.32-2.07.58-3.08.96-.37.14-.62.49-.51.9s.51.58.9.51c.93-.17,1.85-.37,2.76-.62s1.8-.53,2.63-.97c.37-.2.74-.42,1.1-.62.17-.1.35-.19.52-.28.1-.05.19-.09.29-.14,0,0,.13-.06.04-.02-.1.04.1-.04.12-.05.42-.16.87-.24,1.3-.39.49-.17.97-.37,1.45-.59.85-.39,1.66-.85,2.49-1.28.75-.39,1.49-.78,2.22-1.19s1.48-.83,2.24-1.2c.18-.09.35-.17.53-.25.08-.04.17-.07.25-.11-.17.07-.04.02,0,0,.07-.03.14-.06.21-.09.37-.14.73-.28,1.11-.39.21-.06.43-.12.65-.17.11-.02.22-.04.33-.06.05,0,.1-.01.15-.02-.08.01-.1.01-.01,0,.45-.05.89-.04,1.35-.02.11,0,.23.01.34.02.02,0,.18.02.09,0-.08-.01.14.02.13.02.24.04.48.09.71.15.46.11,1.3.52,1.54-.13h0Z"/>
          <path class="cls-22" d="M307.96,276.18c-.08-.06-.16-.14-.25-.19-.11-.07-.25-.09-.37-.11-.22-.04-.44-.08-.66-.08-.35,0-.69.02-1.04.06-.15.02-.31.04-.46.07-.09.02-.18.05-.27.07-.17.05-.35.09-.52.14-.34.1-.67.2-1.01.3-.19.06-.38.11-.57.17-.25.09-.48.2-.72.3l.2-.08s-.08.03-.12.05c-.11.03-.2.07-.28.15-.09.06-.16.13-.21.23l-.08.2c-.03.11-.04.22-.01.33,0,.07.02.14.06.21.03.1.09.19.17.26.15.14.37.26.58.24.17-.02.34-.04.51-.06.16-.02.31-.05.46-.08.09-.02.18-.05.26-.08.34-.11.68-.23,1.02-.34s.69-.22,1.03-.32c.18-.05.34-.12.52-.17s.34-.11.51-.15c.19-.05.37-.09.56-.14.09-.02.17-.04.26-.06.14-.03.24-.1.35-.17.13-.08.21-.2.23-.35.02-.14-.02-.31-.13-.4h0Z"/>
          <path class="cls-22" d="M289.82,283.2c.74-.12,1.44-.44,2.09-.8.69-.39,1.37-.8,2.07-1.19.37-.21.75-.41,1.15-.57l-.21.09c.98-.41,2-.69,3.02-.94.51-.12,1.02-.24,1.53-.36.25-.06.51-.12.76-.19.32-.09.63-.24.94-.38.15-.07.27-.24.33-.39.07-.16.1-.36.04-.53-.04-.13-.11-.25-.21-.36-.12-.13-.39-.26-.57-.24-.28.03-.56.05-.83.1-.22.04-.45.09-.67.14-.43.1-.86.2-1.28.29-.85.2-1.69.41-2.51.7s-1.56.63-2.29,1.06c-.65.39-1.26.84-1.89,1.27-.33.23-.66.46-.99.7-.29.2-.58.4-.89.57-.24.13-.33.45-.23.69.11.27.38.37.66.32h0Z"/>
          <path class="cls-22" d="M309.5,256.69c-.69-.82-1.91-.88-2.88-.67s-1.84.67-2.68,1.15-1.62,1-2.44,1.5-1.66,1.01-2.47,1.55c-.86.57-1.67,1.19-2.47,1.85-.08.07-.16.13-.24.2-.04.03-.07.06-.11.09-.11.09.16-.12-.02.02-.17.13-.34.25-.51.38-.34.25-.69.49-1.03.74-1.38,1-2.76,2.1-3.58,3.63-.39.72-.72,1.52-.88,2.33s-.28,1.86.28,2.59c.23.3.56.46.92.3.31-.13.57-.53.43-.87-.02-.06-.04-.11-.06-.17,0-.03-.01-.06-.02-.09-.04-.16.01.15,0,.04,0-.06-.02-.12-.02-.18,0-.01-.07-.24-.01-.1.04.11,0,.03,0-.02,0-.04,0-.09,0-.13,0-.16.02-.32.03-.48,0-.12-.03.16,0,.05,0-.04.01-.08.02-.12.02-.09.04-.18.06-.27.08-.34.18-.68.3-1.01.03-.08.06-.15.09-.23.01-.04.03-.07.04-.11.07-.18-.06.13,0,.01.06-.14.13-.29.2-.43.14-.27.29-.54.46-.79.05-.08.11-.15.16-.23.13-.18-.07.08.02-.02.03-.04.06-.07.09-.11.13-.15.26-.3.39-.44.27-.29.57-.55.87-.81.15-.13.31-.25.46-.37.1-.08-.11.08,0,0,.04-.03.07-.06.11-.09.08-.06.17-.13.25-.19.64-.47,1.3-.92,1.93-1.41.38-.29.74-.59,1.11-.89.04-.03.09-.07.13-.1.21-.16-.07.05.06-.04.09-.07.18-.13.26-.2.19-.14.38-.27.57-.41,1.53-1.07,3.15-1.99,4.73-2.98.43-.27.85-.54,1.29-.79.22-.12.43-.24.66-.35.1-.05.21-.1.32-.15.13-.06-.18.07.05-.02.06-.02.12-.05.18-.07.23-.08.45-.15.69-.2.12-.03.24-.05.36-.07.05,0,.1-.02.14-.03.14-.03-.04,0,.05,0,.24,0,.47-.05.71-.05.26,0,.5,0,.75-.03.36-.03.51-.41.28-.68h0Z"/>
          <path class="cls-22" d="M307.72,250.17c0-.2-.03-.39-.07-.59.04.2-.07-.22-.07-.22-.01-.03-.03-.05-.05-.08-.07-.12-.15-.23-.24-.34s-.19-.21-.31-.31c.06.05-.35-.26-.1-.08-.09-.07-.14-.11-.22-.15-.12-.07-.25-.12-.38-.17-.81-.33-1.71-.21-2.54-.02-1.68.39-3.18,1.22-4.57,2.19-2.32,1.62-4.59,3.31-6.91,4.93-1.08.76-2.18,1.5-3.23,2.31s-2.01,1.58-2.83,2.56c-.76.91-1.36,1.94-1.62,3.11-.13.59-.18,1.18-.17,1.78,0,.33.05.65.11.97.03.14.05.29.08.43.05.22.19.37.32.54.18.24.6.14.73-.09.07-.12.15-.24.19-.38.04-.16.04-.35.06-.51,0-.06.01-.12.02-.19-.02.13,0-.02,0-.05.03-.19.05-.37.07-.56,0-.06.01-.12.02-.17,0,0,.03-.23.01-.1s.01-.09.01-.09c.01-.07.02-.13.03-.19.04-.23.09-.46.14-.69.05-.2.11-.4.17-.6.03-.1.07-.19.11-.29.06-.15-.02.02-.02.04.01-.07.07-.16.1-.22.19-.41.42-.79.68-1.16.03-.05.07-.09.1-.13.08-.11-.14.17,0,0,.08-.09.15-.18.23-.27.18-.2.37-.4.56-.59.43-.42.88-.81,1.35-1.19.11-.09.23-.18.35-.28.23-.18-.14.1.09-.07.05-.04.09-.07.14-.11.26-.2.53-.39.79-.58.52-.38,1.04-.74,1.57-1.11,2.18-1.52,4.3-3.12,6.47-4.66.82-.58,1.63-1.2,2.5-1.71.32-.18.64-.36.97-.52.17-.08.33-.16.5-.24.03-.02.07-.03.1-.05.19-.08,0-.01,0,0,0-.01.3-.12.32-.13.41-.16.84-.29,1.27-.38.1-.02.19-.04.29-.05s.18.02-.01,0c.05,0,.11-.01.16-.02.1,0,.2-.01.3-.02.05,0,.1,0,.15,0,.05,0,.11,0,.16-.01.15-.02.15-.02-.01,0,0-.02.25,0,.28,0,.03,0,.11,0,.14.01-.06-.04-.17-.03-.02,0,.09.02.17.04.26.06.05.02.3.12.13.03.08.04.15.08.23.13.03.01.05.03.07.05-.12-.08.03.04.06.06.05.04.1.07.15.1.04.03.05.03,0,0,.02.02.05.04.07.06.07.07.14.13.2.21.19.22.57.04.57-.24h0Z"/>
        </g>
      </g>
      <path class="cls-1" d="M288.24,248.28c-1.48.9-2.88,1.85-4.08,3.09-4.25-5.05-7.75-9.21-7.75-9.21l-.45.37c-2.21,1.87-5.54,1.59-7.39-.64l-2.51-2.98-1.54-1.82s-9.6-11.42-9.6-11.42c-.45-.54-.37-1.35.17-1.82.54-.45,1.35-.37,1.8.17l9.59,11.4,1.65-1.4-9.57-11.4c-.45-.54-.39-1.35.15-1.8.54-.47,1.37-.39,1.82.15l9.57,11.4,1.67-1.4-9.59-11.38c-.45-.54-.37-1.35.17-1.82.54-.45,1.35-.37,1.8.17l9.57,11.38,1.67-1.39-9.57-11.4c-.45-.54-.39-1.35.15-1.8.54-.47,1.37-.39,1.82.15l9.57,11.38s4.06,4.79,4.06,4.79c1.87,2.23,1.59,5.54-.64,7.41l-.45.37s3.59,4.27,7.94,9.42Z"/>
    </g>
    <g>
      <path class="cls-23" d="M460,379.63H40c19.02-23.4,38.06-46.84,57.1-70.24h305.8c19.04,23.4,38.08,46.84,57.1,70.24Z"/>
      <polygon class="cls-2" points="460 379.63 457.81 391.83 41.69 391.83 40 379.63 460 379.63"/>
    </g>
  </g>
  <g>
    <g>
      <g>
        <path class="cls-3" d="M312.64,322.06c0,9.29-23.62,18.61-52.73,18.61s-52.73-9.33-52.73-18.61,23.61-16.81,52.74-16.81c4.47,0,8.82.19,12.95.51-1.37.99-2.49,2.19-3.37,3.65-.02.04-.06.09-.07.13-1.03-.49-2.43-.34-4.29-.41-4.38-.21-8.82,0-13.16.32-5.67.43-11.34.28-16.94,1.12-1.07.15-2.98.19-3.91.77-1.18.73-.88,1.91-.28,3.07-.62.66-1.12,1.52-1.35,2.4-1.89-.47-4.27,1.67-3.86,3.88-2.15.51-3.41,4.1-1.91,5.8,1.95,2.19,4.21,1.25,5.92-.22.28.99,1.01,1.8,2.28,2.1,1.27.3,2.77-.47,3.69-1.57.71.39,1.57.51,2.49.32.19,2.1,1.7,3.86,4.25,2.98.64-.22,1.25-.69,1.8-1.29,1.25.75,3.18.22,4.38-.97,1.18-1.2,1.74-2.92,1.55-4.4.86.39,1.63-.02,2.23-.8.43.51,1.03.94,1.7,1.25-.15,1.78.86,3.46,2.3,4.51,3.07,2.23,8.24,2.38,11.83,1.8,2.53-.39,3.22.36,5.58,1.03,3.05.88,6.51.36,9.53-.45,2.23-.6,4.16-2,6.23-2.56,2.4-.64,4.89-.04,7.21-1.25,1.68-.86,3.54-2.79,3.82-4.72.24-1.67-.95-5.11-3.03-4.92.17-1.97-1.76-6.68-4.25-8.26,11.83,3.09,19.39,7.77,19.39,13.03Z"/>
        <g class="cls-10">
          <path class="cls-2" d="M310.59,322.48c-.47.66-.99,1.25-1.54,1.84s-1.06,1.14-1.63,1.67c-1.12,1.05-2.34,1.9-3.69,2.68-1.5.87-3.08,1.57-4.68,2.22-1.82.74-3.67,1.4-5.55,1.99-3.74,1.17-7.57,2.06-11.42,2.78-3.77.7-7.57,1.29-11.38,1.67s-7.57.54-11.37.51-7.66-.24-11.46-.66c-3.77-.41-7.51-1.02-11.21-1.84s-7.29-1.84-10.84-3.08c-3.24-1.13-6.5-2.28-9.48-4.01-1.14-.66-2.31-1.42-3.27-2.21-1.07-.86-2.06-1.81-2.72-2.95-.07-.12-.14-.25-.2-.38-.03-.07-.06-.14-.09-.21-.05-.11-.01-.04,0-.01-.01-.03-.03-.07-.04-.1-.1-.27-.18-.55-.23-.84-.05-.31-.44-.48-.71-.41-.33.09-.45.4-.41.71.21,1.34,1,2.51,1.9,3.49.98,1.07,2.15,1.98,3.35,2.8,2.61,1.77,5.49,3.05,8.44,4.15,3.63,1.35,7.3,2.56,11.05,3.52,3.74.95,7.53,1.68,11.35,2.21s7.79.87,11.7,1c3.85.13,7.72.06,11.56-.22s7.73-.8,11.56-1.43,7.85-1.44,11.69-2.51c3.8-1.05,7.58-2.35,11.14-4.05,1.45-.7,2.85-1.49,4.14-2.46s2.52-2.09,3.44-3.44c.44-.65.82-1.38,1.19-2.08.2-.39-.34-.7-.59-.34h0Z"/>
        </g>
      </g>
      <g>
        <path class="cls-23" d="M300.53,322.21c-.28,1.93-2.13,3.86-3.82,4.72-2.32,1.22-4.81.62-7.21,1.25-2.08.56-4.01,1.97-6.23,2.56-3.01.8-6.48,1.33-9.53.45-2.36-.67-3.05-1.42-5.58-1.03-3.59.58-8.76.43-11.83-1.8-1.44-1.05-2.45-2.73-2.3-4.51.02-.22.06-.45.11-.67.47-1.91,2.1-2.85,3.86-3.44.43-.8.95-1.54,1.57-2.19.47-.51.99-.95,1.57-1.37,2.25-1.63,2.92-4.1,6.05-5.05,1.61-.49,1.35-.07,2.25-1.59.02-.04.06-.09.07-.13.88-1.46,2-2.66,3.37-3.65.09-.07.21-.15.3-.22,2.4-1.68,5.28-2.96,8.24-2.51,1.87.26,3.67.97,5.26,1.97,1.44.92,2.1,2,3.01,3.2.17.22.36.45.56.69.3-.19.6-.3.9-.36.71.17,1.42.34,2.1.51,2.49,1.57,4.42,6.29,4.25,8.26,2.08-.19,3.28,3.26,3.03,4.92Z"/>
        <g class="cls-11">
          <path class="cls-19" d="M288.08,310.17h0s.03-.07.05-.11c0,.01-.02.03-.02.04l.08-.11c-.06.07-.08.1-.12.18-.03.07-.04.14-.05.22l.02-.14c-.02.13-.05.25-.1.36l.06-.15c-.04.1-.09.2-.13.3l.06-.15c-.1.24-.24.45-.39.65l.11-.14c-.11.14-.21.28-.31.42l.11-.14c-.44.57-.98,1.06-1.54,1.52-.17.14-.34.28-.51.41l.14-.11c-.72.56-1.49,1.07-2.29,1.52-.16.09-.32.17-.48.25-.14.07-.27.25-.31.4-.04.16-.02.37.07.51s.23.27.4.31l.18.02c.12,0,.23-.03.34-.09.39-.18.77-.39,1.14-.61.49-.29.97-.61,1.43-.94.54-.39,1.06-.79,1.54-1.25.21-.2.41-.4.6-.62.12-.14.24-.29.35-.44.08-.1.16-.2.22-.31.14-.24.25-.5.34-.77.07-.24.1-.49.07-.73-.02-.19-.04-.34-.18-.49l.08.11s-.07-.1-.11-.15l.08.1h0c-.11-.18-.3-.27-.5-.25s-.35.17-.42.36h0Z"/>
          <path class="cls-19" d="M273.4,316.26s.1.02.14.04c0,0,.08.06.01,0,.11.09.2.17.35.2.18.04.36.08.54.13.35.1.71.16,1.07.26.72.22,1.42.45,2.11.74l-.19-.08c.35.15.71.29,1.04.5.3.19.58.4.86.61l-.16-.13c.54.42,1.07.87,1.61,1.3.48.38.96.8,1.5,1.08.14.07.29.14.45.18.3.06.59.04.82-.19.06-.06.11-.12.15-.19.12-.2.13-.48,0-.69,0-.02-.02-.03-.02-.05l.08.18c-.05-.13-.1-.24-.2-.34s-.22-.15-.35-.2c-.02,0-.05-.02-.07-.03l.19.08c-.39-.17-.75-.43-1.08-.7l.16.12c-.88-.68-1.71-1.43-2.61-2.1-.18-.13-.37-.27-.56-.38-.24-.15-.48-.25-.74-.36-.73-.29-1.48-.57-2.25-.75-.27-.06-.55-.09-.82-.12-.22-.02-.45-.06-.66-.04-.25.01-.51.06-.76.1-.09.02-.17.03-.25.08-.07.04-.12.1-.18.15-.02.02-.06.06-.07.06-.03.01-.1.04-.15.06-.2.09-.13.4.06.45h0Z"/>
          <path class="cls-19" d="M270.56,327.27s.06-.06.09-.09c.01-.01.03-.03.04-.04l.05-.06c.04-.08.04-.1.02-.04.05-.11.09-.22.13-.34.08-.23.11-.45.13-.69s.02-.5-.03-.74c-.04-.19-.09-.38-.15-.56-.14-.41-.31-.83-.55-1.2-.25-.38-.55-.75-.87-1.07-1.26-1.3-2.91-2.13-4.62-2.69-.43-.14-.87-.26-1.31-.36-.22-.05-.43-.09-.65-.13-.27-.05-.55-.11-.82-.09-.39.03-.71.28-.76.67s.19.72.56.85c.19.07.4.09.61.13.22.04.43.09.65.15.44.11.88.24,1.3.4.25.09.51.19.75.29l-.2-.09c.99.42,1.94.96,2.79,1.61l-.17-.13c.49.38.93.8,1.31,1.29l-.13-.17c.11.14.21.28.32.42l-.13-.17c.27.35.5.74.68,1.15l-.07-.18c.07.16.12.32.19.48.05.1.1.2.15.31l-.06-.15c.1.23.17.46.28.69.01.03.04.11,0-.02,0,.02.02.05.03.07.02.05.04.11.06.16.03.08.06.15.12.22-.04-.05,0,0,0,.01.02.02.04.05.05.07.06.08.16.1.23.03h0Z"/>
          <path class="cls-19" d="M296.54,317.59c-.08-.23-.19-.43-.37-.59s-.43-.27-.67-.33c-.45-.12-.92-.1-1.37-.01-.93.17-1.78.66-2.56,1.18-.36.24-.72.5-1.07.76-.19.14-.37.29-.56.43-.03.03-.07.05-.1.08-.01.01-.03.02-.04.03-.08.06.13-.1.07-.05s-.12.09-.18.14c-.9.68-1.87,1.28-2.79,1.93-1.12.79-2.23,1.66-2.98,2.83-.18.28-.07.71.23.87.32.17.67.07.87-.23.04-.06.08-.11.12-.17.02-.02.03-.04.05-.07,0-.01.1-.11.02-.03s.02-.02.03-.03c.02-.02.03-.04.05-.06.04-.05.09-.11.14-.16.18-.2.37-.4.57-.58.21-.2.43-.38.66-.56.05-.04.11-.08.16-.13-.13.12.03-.02.07-.05.12-.09.24-.18.37-.27.92-.66,1.89-1.25,2.8-1.93.31-.24.62-.48.93-.73.15-.12.29-.23.44-.35.13-.1-.11.08,0,0,.04-.03.08-.06.12-.09.09-.07.18-.13.27-.2.36-.26.73-.52,1.11-.74.19-.11.39-.22.59-.32.09-.05.19-.09.28-.13.05-.02.1-.05.15-.07s.22-.08.04-.02c.22-.07.42-.16.65-.21.05-.01.11-.02.16-.03.14-.02-.12,0,.03,0,.1,0,.21-.01.31,0,.03,0,.12.02.14.01-.03.02-.14-.02-.05,0,.03,0,.05,0,.08.02.05.01.1.02.14.04.02,0,.03.01.05.02.08.03.03,0-.02-.01.08.03.15.07.23.1,0,0,.06.02.06.02,0,0-.12-.05-.01,0,.07.03.14.06.21.08.02,0,.17.06.09.03.13.05.26.07.37-.03.1-.08.16-.22.12-.35h0Z"/>
        </g>
      </g>
      <g>
        <path class="cls-5" d="M259.56,317.55c-.62.66-1.14,1.39-1.57,2.19-1.76.6-3.39,1.54-3.86,3.44-.06.22-.09.45-.11.67-.67-.32-1.27-.75-1.7-1.25-.6.79-1.37,1.2-2.23.8.19,1.48-.37,3.2-1.55,4.4-1.2,1.2-3.13,1.72-4.38.97-.54.6-1.16,1.07-1.8,1.29-2.55.88-4.06-.88-4.25-2.98-.92.19-1.78.07-2.49-.32-.92,1.1-2.41,1.87-3.69,1.57-1.27-.3-2-1.1-2.28-2.1-1.7,1.48-3.97,2.41-5.92.22-1.5-1.7-.24-5.3,1.91-5.8-.41-2.21,1.97-4.34,3.86-3.88.22-.88.73-1.74,1.35-2.4.32-.3.64-.58.99-.77,2.02-1.12,3.76-.54,4.64.75,2.32-1.82,6.07-1.18,6.12,2.08,1.57-.52,2.9.26,3.65,1.48,1.44-2.17,4.53-3.31,6.35-1.16,2.28-1.67,6.59-1.95,6.96.77Z"/>
        <g class="cls-17">
          <path class="cls-22" d="M227.51,322.84s.05.02.08.03l-.13-.06s.08.04.13.06c.09.05.18.08.27.11l-.15-.06c.12.05.22.11.32.19l-.14-.11c.1.08.21.15.32.23l-.15-.11c.11.09.21.18.29.29l-.12-.15c.15.2.27.42.36.65l-.08-.19c.13.32.21.65.26.99l-.03-.21c.07.51.07,1.05,0,1.56l.03-.2c-.05.36-.13.71-.27,1.05l.07-.17c-.04.1-.08.19-.12.29l.07-.17c-.06.15-.14.29-.24.42-.05.08-.08.16-.08.26-.02.09-.02.18.01.28.05.15.13.26.25.36.27.21.66.19.91-.05.36-.35.57-.8.72-1.27.07-.21.12-.43.16-.65.05-.3.09-.6.1-.9,0-.24,0-.48-.03-.72-.03-.29-.08-.59-.16-.87s-.18-.54-.31-.79c-.07-.14-.18-.27-.28-.4-.06-.08-.13-.15-.2-.22-.11-.11-.24-.2-.37-.29s-.28-.16-.42-.2c-.28-.07-.63-.11-.91-.01-.09.03-.18.07-.26.1l.12-.05h-.01c-.21.07-.39.27-.38.5s.15.44.38.5h0Z"/>
          <path class="cls-22" d="M229.68,323.55s.04-.07.05-.11-.02.03-.03.03c0,0,.01-.02.02-.02.01-.01.02-.03.03-.04.05-.05.1-.1.16-.15l-.1.08c.11-.06.18-.18.25-.27l-.08.11c.11-.15.24-.27.39-.39l-.14.11c.17-.11.31-.28.47-.41l-.15.12c.14-.11.3-.21.45-.3s.33-.18.5-.26l-.19.08c.34-.14.7-.24,1.06-.29l-.22.03c.4-.05.81-.07,1.21-.02l-.22-.03c.28.04.55.11.81.22l-.19-.08c.2.08.39.19.56.32l-.16-.12c.18.14.34.29.48.46l-.12-.15c.04.05.08.1.11.16.09.13.18.22.3.31.27.21.63.2.88-.04.16-.16.22-.37.21-.59,0-.01,0-.02,0-.04,0-.06-.01-.15-.03-.21-.01-.05-.06-.14-.08-.18-.01-.03-.03-.06-.04-.09-.03-.06-.06-.11-.09-.17-.1-.15-.21-.3-.33-.44s-.28-.25-.43-.35c-.1-.07-.21-.14-.31-.19-.28-.15-.58-.26-.89-.34-.66-.15-1.33-.16-1.99-.02-.27.05-.52.14-.77.24-.3.13-.6.26-.86.45-.16.11-.31.22-.44.36s-.24.28-.35.43c-.04.05-.07.1-.1.15-.06.1-.1.21-.13.32-.04.11-.07.23-.08.35-.02.1-.03.2-.04.31l.02-.14c-.01.08-.02.14-.01.22s.03.13.06.2l-.05-.12c.01.07.03.14.05.21.02.08.04.15.06.23.02.1.12.18.22.19s.22-.03.26-.13h0Z"/>
          <path class="cls-22" d="M237.61,329.08c.01-.28.04-.56.08-.83l-.02.14c.05-.34.04-.69.08-1.03l-.02.16c.02-.18.05-.36.07-.54l-.02.16c.05-.37.14-.73.29-1.08l-.06.15c.11-.27.26-.52.44-.75l-.1.13c.2-.26.43-.48.68-.68l-.13.1c.28-.22.59-.4.92-.53l-.16.07c.43-.18.89-.3,1.35-.37l-.17.02c.36-.05.73-.06,1.1-.01l-.17-.02c.27.04.55.11.81.22l-.15-.06c.13.06.26.13.38.22l-.12-.09c.1.08.19.17.27.27l-.09-.11c.04.06.08.11.13.16l-.09-.11c.09.12.16.25.22.38l-.05-.12c.02.06.05.11.07.17l-.05-.12c.04.09.08.16.12.25.01.02.02.05.03.07,0,.01,0,.02.01.03.03.07-.04-.11-.01-.03.03.09.07.16.15.21.07.05.16.09.25.09.17,0,.37-.12.4-.3.02-.12.04-.25.05-.37s-.02-.25-.05-.38c-.05-.19-.12-.39-.23-.55-.21-.33-.5-.61-.85-.8-.37-.2-.79-.28-1.21-.31-.39-.03-.78,0-1.17.07-.71.11-1.41.35-2.02.73-.47.29-.87.66-1.2,1.1-.27.37-.47.8-.6,1.24-.06.2-.1.41-.13.62-.04.26-.07.52-.05.78s.04.52.08.78c.03.23.11.44.19.66.04.11.08.21.12.32.06.16.19.26.37.24s.28-.16.29-.33h0Z"/>
          <path class="cls-22" d="M248.92,321.71c-.06-.32-.16-.61-.35-.88-.1-.14-.21-.28-.33-.41-.13-.13-.27-.24-.41-.35l.12.1c-.24-.21-.56-.34-.85-.45-.26-.1-.53-.15-.81-.18-.5-.05-1.03.01-1.51.15-.27.07-.54.18-.79.3s-.48.29-.69.46c-.17.13-.32.28-.46.45-.17.21-.33.43-.44.68-.08.16-.15.33-.19.51s-.06.35-.08.53-.02.38.02.55c.03.13.08.26.13.39.06.14.12.27.26.34.11.06.23.08.36.07.29-.04.48-.27.49-.56,0-.07.01-.14.02-.21l-.02.16c.01-.09.03-.19.05-.28s.02-.19.03-.29l-.02.18c.03-.25.11-.49.21-.72l-.07.17c.08-.2.19-.38.32-.55l-.11.15c.15-.19.32-.36.51-.51l-.15.11c.26-.2.54-.36.84-.48l-.18.07c.31-.13.63-.22.97-.26l-.19.03c.38-.05.76-.04,1.14,0l-.18-.02c.26.03.51.1.75.2l-.15-.06c.1.04.2.08.3.13l-.14-.06c.2.09.39.19.57.33l-.1-.08c.11.09.21.19.32.28s.21.2.3.31c.08.1.27.12.37.05.12-.08.17-.21.14-.35h0Z"/>
          <path class="cls-22" d="M242.05,319.66s.05-.02.07-.03c.02,0,0,0-.03.01-.06.02-.04.02.05-.02.08-.05.12-.11.15-.2.02-.06.04-.11.06-.17l-.05.11c.12-.18.05-.42,0-.62-.05-.15-.11-.3-.18-.44-.07-.16-.16-.29-.27-.43-.08-.09-.16-.18-.25-.27-.22-.21-.47-.4-.74-.55s-.53-.26-.81-.34-.57-.12-.86-.13-.61.03-.9.11c-.55.15-1.05.45-1.46.85-.22.21-.41.46-.58.72s-.29.55-.41.84l.06-.14c-.09.21-.18.43-.25.65-.09.28.1.62.39.68.14.03.3.03.43-.06l.11-.09c.07-.07.12-.15.14-.25,0-.02.02-.04.02-.06l-.06.13c.14-.32.31-.62.52-.9l-.1.13c.2-.26.44-.5.7-.71l-.14.11c.21-.16.44-.29.68-.4l-.17.07c.22-.09.45-.15.68-.19l-.2.03c.29-.04.58-.05.87,0l-.2-.03c.25.03.49.11.72.21l-.18-.08c.19.08.36.18.54.28s.35.21.51.33l-.14-.11c.1.08.2.17.3.24.06.04.12.08.18.13l-.12-.1c.14.11.27.24.38.38l-.08-.1s.03.04.05.07c.08.11.16.19.3.23l-.11-.05s.05.03.07.05c.04.03-.07-.06-.04-.03.02.02.04.03.06.05.06.05.12.06.2.07,0,0,.01,0,.01,0,0,0,0,0,0,0h-.04s.06,0,.09,0h0Z"/>
          <path class="cls-22" d="M253.58,314.61c-.13.06-.25.11-.37.17-.12.06-.22.13-.33.21-.23.16-.45.32-.65.51-.35.33-.66.7-.89,1.13-.45.84-.63,1.79-.62,2.74,0,.31.02.62.09.92.03.14.06.27.1.41.02.07.03.15.06.22.03.1.08.19.13.29.07.16.31.25.47.19.19-.06.29-.21.31-.4.01-.12.02-.24.02-.36,0-.11,0-.22,0-.33s0-.23,0-.34c0-.11-.02-.21-.02-.32-.02-.4-.01-.81.04-1.21l-.02.15c.06-.41.16-.81.32-1.19l-.06.13c.18-.42.42-.82.7-1.18l-.08.11c.17-.22.36-.44.56-.64.1-.11.22-.21.32-.31.12-.11.22-.23.34-.35s.13-.32.03-.45c-.11-.14-.28-.16-.44-.09h0Z"/>
          <path class="cls-22" d="M228.16,316.33s.07-.01.11-.02c.06,0-.07,0,0,0,.02,0,.03,0,.05,0,.06,0,.13,0,.2,0l-.21-.06s0,0,.01,0l-.16-.16h0c.06.09.13.16.23.2s.2.05.31.02h.01s-.09,0-.13.01c.04,0,.09,0,.13,0,.09,0,.18-.03.26-.04l-.14.02c.15-.02.31-.02.46,0l-.16-.02c.16.02.31.07.46.13l-.15-.07c.09.04.17.07.26.11l-.16-.07c.19.08.36.19.52.31l-.14-.11c.3.24.58.52.81.82l-.11-.14c.28.37.52.77.72,1.19.06.12.11.24.16.36l-.07-.17c.13.3.24.61.33.93.08.28.15.56.2.85.01.07.03.14.04.21.01.06.03.11.05.17.07.16.15.27.3.37l.15.06c.09.03.17.03.26.01.06,0,.11-.01.16-.04.08-.03.15-.07.21-.13.05-.04.09-.1.12-.17,0,0,0-.01.01-.02.07-.15.08-.19.1-.36l-.02.18c.02-.15.05-.31.03-.46-.02-.17-.04-.33-.07-.49-.04-.23-.09-.45-.16-.67-.17-.54-.39-1.07-.66-1.56s-.59-.97-.98-1.38-.85-.73-1.38-.92c-.15-.05-.3-.07-.46-.09-.1-.01-.2-.02-.3-.01-.3.01-.62.08-.88.22-.08.04-.16.11-.23.17l.1-.08h-.01c-.09.06-.16.14-.2.24-.04.11-.04.2-.02.31h0s-.01-.07-.02-.11h0s.01-.07.02-.11h0c.04-.05.07-.11.11-.17-.11.13-.22.26-.3.41-.05.08-.04.18.02.25.06.07.14.1.23.08h0Z"/>
          <path class="cls-3" d="M232.73,315.21s0,0,.01-.01l-.1.08s.05-.03.07-.04l-.13.05c.06-.02.12-.04.18-.07.02-.01.03-.02.05-.04.02-.01.04-.02.06-.04.01,0,.02-.01.03-.02.05-.03.1-.07.15-.11l-.12.09c.07-.05.14-.1.21-.14.06-.03.12-.08.16-.14.05-.05.08-.12.1-.19l.02-.15c0-.08-.01-.15-.05-.21-.01-.05-.04-.09-.07-.12-.04-.06-.09-.11-.16-.14l-.13-.06c-.1-.03-.2-.03-.3,0-.09.04-.18.07-.27.12-.02.01-.04.02-.07.03-.06.03-.12.08-.17.13-.03.03-.06.06-.09.09,0,0-.01.01-.02.02-.03.04-.07.08-.09.12,0,.01-.05.12-.06.13,0,0,0,0,0,0,0,.01,0,.03-.01.04,0,0,0,.02,0,.03,0,.05-.02.1-.02.15,0,.01,0,.03,0,.04l.02.13.05.11.07.1s.09.08.15.1c.04.02.08.03.12.03.04.01.08.01.13,0,.04,0,.08-.01.12-.03.06-.02.11-.05.15-.1h0Z"/>
          <path class="cls-3" d="M227.41,319.31s.01,0,.02,0h-.11s.09,0,.13,0c.07-.01.11,0,.18-.06l.1-.07s0,0,0,0c0,0,.01-.01.02-.02.01-.01.03-.02.04-.03l-.1.08s.1-.07.15-.1l.1-.08h0s0,0,0-.01c0,0,.01,0,.02-.01.01-.01.02-.02.04-.03.02-.02.05-.04.08-.06l-.1.08c.11-.09.24-.17.36-.24.06-.03.1-.07.14-.13.04-.05.07-.1.09-.17.02-.07.02-.13,0-.2,0-.07-.02-.13-.06-.19l-.08-.1c-.06-.06-.14-.1-.22-.13l-.13-.02c-.09,0-.17.02-.25.07-.13.06-.25.13-.36.21-.03.02-.06.04-.09.06-.05.03-.09.07-.14.11-.01.01-.03.02-.04.03-.02.02-.05.05-.07.08-.05.06-.09.12-.14.18-.01.01-.02.03-.03.04,0,0,0,0,0,0,0,0,0,0,0,0l-.05.11s-.02.1-.02.14c0,.03,0,.06,0,.08,0,.07.02.13.05.19.02.04.06.08.1.11.04.03.08.06.13.07.07.02.14.02.2,0h0Z"/>
          <path class="cls-3" d="M231.27,323.84s.01,0,.02.01c0,0,0,0,0,0,.02.01,0,0,.06.03.02.01.04.02.06.03.09.03.19.03.28,0,.02,0,.04-.01.06-.01.09-.02.17-.08.25-.12.04-.02.09-.04.13-.06l-.15.06c.06-.02.12-.04.18-.08,0,0,.02-.01.03-.02.02,0,.04-.02.05-.03.04-.02.08-.04.11-.06.07-.04.14-.08.21-.12.08-.04.14-.1.19-.17.06-.06.1-.14.12-.22.03-.09.03-.18.01-.26,0-.09-.03-.17-.08-.25l-.1-.13c-.08-.08-.18-.14-.29-.17l-.18-.02c-.12,0-.23.03-.33.09-.07.03-.15.07-.22.11-.07.04-.12.09-.18.14-.02.01-.03.03-.05.04s-.03.03-.04.04c-.06.05-.09.1-.14.17l.1-.13c-.06.08-.13.16-.18.24-.05.08-.11.16-.13.25,0,.02,0,.04-.01.06-.03.09-.03.19,0,.28.01.04.03.09.05.13,0,0,.08.1.08.11,0,0,0,0,0,0,.02.02.06.05.08.06h0Z"/>
          <path class="cls-3" d="M238.44,319.73s.08-.09.13-.13l-.09.07s.09-.06.14-.08l-.12.05s.08-.03.12-.04c.02,0,.04-.01.06-.02.02,0,.04,0,.07-.01l-.13.02s.09,0,.14,0c.07,0,.13-.01.19-.04.06-.02.11-.05.16-.1.05-.04.08-.1.1-.16.03-.06.05-.12.04-.19l-.02-.13c-.02-.08-.07-.16-.13-.22l-.1-.08c-.08-.04-.16-.07-.25-.07-.05,0-.1,0-.16,0-.07,0-.14.01-.2.03s-.12.04-.18.07-.11.07-.17.11-.11.08-.15.14c-.06.07-.12.15-.17.24-.03.05-.05.11-.05.17-.01.06-.01.12,0,.18l.05.11c.03.05.07.09.12.13.03.03.06.05.1.06.05.03.11.04.17.04l.12-.02c.08-.02.14-.06.2-.12h0Z"/>
          <path class="cls-3" d="M240.45,326.68s.06-.06.1-.09c.03-.03.06-.07.1-.1s.07-.07.1-.1c.02-.02.04-.03.06-.05s.03-.03.05-.05c.04-.04.08-.07.13-.11l-.09.07s.1-.07.15-.1c.05-.03.09-.07.12-.11.04-.04.06-.09.08-.15.02-.06.02-.12,0-.17,0-.06-.02-.11-.05-.16l-.07-.09c-.05-.05-.12-.09-.19-.11l-.12-.02c-.08,0-.15.02-.22.06-.05.03-.1.06-.15.1-.08.06-.15.12-.23.18-.02.02-.05.04-.06.06s-.04.05-.06.07c-.06.08-.12.15-.17.23,0,.01-.02.03-.02.04-.02.04-.04.09-.06.14-.01.03-.02.06-.03.09v.1c-.02.05,0,.1.02.15,0,.03.03.06.05.08.03.04.06.07.11.1l.09.04h.1c.05.02.1,0,.15-.02.05-.02.09-.04.12-.08h0Z"/>
          <path class="cls-3" d="M244.9,322.99c.06-.02.11-.04.17-.05.09-.03.18-.07.27-.11.11-.05.22-.1.33-.16s.22-.11.33-.17c.05-.03.1-.06.16-.08s.1-.07.15-.1c.15-.1.29-.21.43-.32.05-.05.08-.1.1-.16.03-.06.05-.12.04-.19l-.02-.13c-.02-.07-.05-.12-.09-.17-.02-.04-.05-.07-.09-.09-.05-.04-.1-.07-.17-.09l-.13-.02c-.09,0-.17.02-.25.07-.1.07-.2.14-.31.2-.05.03-.1.06-.15.09s-.1.07-.15.1c-.2.14-.4.27-.61.4-.03.02-.06.04-.09.05-.06.04-.11.08-.17.12-.05.04-.1.08-.15.12l-.06.08s-.05.1-.05.15c0,.04,0,.07,0,.11,0,.06.02.11.05.15l.06.08.08.06s.1.05.15.05c.05.01.11,0,.16,0h0Z"/>
        </g>
      </g>
      <g>
        <path class="cls-25" d="M269.43,309.54c-.9,1.52-.64,1.1-2.25,1.59-3.13.95-3.8,3.43-6.05,5.05-.58.41-1.1.86-1.57,1.37-.37-2.71-4.68-2.43-6.96-.77-1.82-2.15-4.9-1.01-6.35,1.16-.75-1.22-2.08-2-3.65-1.48-.06-3.26-3.8-3.89-6.12-2.08-.88-1.29-2.62-1.87-4.64-.75-.36.19-.67.47-.99.77-.6-1.16-.9-2.34.28-3.07.94-.58,2.85-.62,3.91-.77,5.6-.84,11.27-.69,16.94-1.12,4.34-.32,8.78-.52,13.16-.32,1.85.07,3.26-.07,4.29.41Z"/>
        <g class="cls-14">
          <path class="cls-22" d="M237.19,312.07s-.07-.05-.1-.08l.02.08.03-.08c.07-.19-.06-.41-.24-.48s-.43-.02-.51.17c0,0,0,.01,0,.02-.09.14-.1.37,0,.5.11.16.22.32.36.47.12.12.23.24.35.37.24.26.52.49.78.72.55.49,1.1.97,1.67,1.43,1.19.96,2.41,1.89,3.72,2.67.68.41,1.4.77,2.17.98.27.08.56-.07.67-.33s.02-.57-.23-.71-.52-.3-.78-.44c-.28-.16-.56-.32-.83-.48-.58-.34-1.14-.72-1.69-1.11-.32-.23-.64-.47-.95-.71l.14.11c-1.22-.94-2.39-1.95-3.58-2.93-.19-.16-.4-.29-.6-.43-.16-.11-.33-.2-.5-.29-.15-.07-.36-.11-.5,0,0,0-.02.01-.03.02l.49.64.06-.07-.06.02s.08,0,.11.01.08-.04.04-.07h0Z"/>
          <path class="cls-22" d="M243.06,311.61c.07.07.13.12.21.18.02.02.05.04.07.05.01.01.1.08.03.02-.03-.03-.03-.03,0,0l.11.08s.06.04.09.06c.05.03.1.07.15.1.22.14.43.29.64.45.12.09-.2-.15.02.01.04.03.09.06.13.09.05.03.1.07.16.1.11.07.22.15.33.23.22.16.44.32.66.49l-.16-.12c.3.23.6.45.9.68l-.16-.12c.51.39,1.01.8,1.52,1.2l-.16-.12c.15.12.3.23.45.35.19.15.37.32.58.43l-.15-.12c.63.54,1.25,1.08,1.89,1.61.31.25.61.51.93.75.2.15.39.32.6.46s.41.23.65.3c.26.07.54-.03.7-.24.15-.2.2-.52.05-.74-.09-.13-.17-.27-.29-.37-.13-.11-.26-.22-.39-.32-.19-.14-.38-.28-.56-.43l.15.12c-.91-.7-1.79-1.45-2.67-2.18l.12.15c-.11-.14-.21-.26-.34-.37-.09-.08-.18-.16-.27-.23-.18-.16-.36-.31-.54-.47-.39-.34-.81-.65-1.23-.95-.76-.56-1.57-1.08-2.45-1.44-.47-.19-.97-.41-1.48-.42-.37,0-.56.47-.3.73h0Z"/>
          <path class="cls-22" d="M250.52,311.72c.07.05.14.1.21.15,0,0,.06.05.03.02s.02.02.03.02c.04.03.08.06.11.09.13.11.26.22.4.33.28.22.55.46.81.7.13.12.25.26.39.37s.28.23.42.35c.29.24.57.49.84.74.56.51,1.13,1.01,1.69,1.53s1.11,1.01,1.68,1.5c.36.31.72.6,1.1.89.16.12.32.24.49.36.04.03.08.06.13.09.09.06.18.1.28.14.09.04.18.07.27.11.13.05.3.02.43-.03s.25-.14.32-.27c.14-.27.1-.57-.1-.8-.05-.05-.1-.11-.14-.16-.08-.1-.18-.17-.28-.25l.15.12c-1.14-.88-2.19-1.87-3.24-2.84-.53-.5-1.06-1-1.63-1.46-.32-.26-.65-.51-.98-.76-.15-.11-.29-.22-.44-.32s-.3-.18-.46-.26c-.38-.2-.77-.37-1.16-.54-.35-.15-.73-.25-1.1-.34-.14-.04-.29.03-.35.17s0,.28.12.37h0Z"/>
          <path class="cls-22" d="M258.46,311.02s.03.07.05.1c-.04-.11-.04-.09.02.05.03.04.06.08.1.12.08.08.16.16.25.22.14.09.27.19.4.3l-.12-.1c.9.7,1.74,1.48,2.63,2.19.94.76,1.88,1.54,2.9,2.19.27.17.54.33.82.49.33.18.69.3,1.05.41.3.09.62-.09.74-.36.12-.29,0-.61-.25-.78-.17-.11-.34-.23-.5-.35s-.34-.23-.52-.34c-.34-.22-.68-.47-1-.72l.16.12c-.15-.12-.31-.24-.46-.36l.16.12c-.36-.28-.72-.57-1.07-.87s-.69-.6-1.05-.88c-.77-.59-1.53-1.19-2.4-1.63-.23-.11-.46-.22-.7-.32-.09-.04-.19-.08-.28-.12-.02,0-.04-.02-.06-.02.12.05.1.04-.06-.02-.16-.02-.19-.03-.1-.01.1.01,0,0-.02,0-.09-.01-.17-.03-.26-.02-.07,0-.14.02-.2.04-.25.05-.32.35-.22.54h0Z"/>
        </g>
      </g>
    </g>
    <path class="cls-4" d="M257.68,328.89c0,2.02-1.64,3.67-3.67,3.67s-3.67-1.64-3.67-3.67,1.64-3.67,3.67-3.67,3.67,1.64,3.67,3.67Z"/>
    <path class="cls-4" d="M273.82,329.58c0,2.02-1.64,3.67-3.67,3.67s-3.67-1.64-3.67-3.67,1.64-3.67,3.67-3.67,3.67,1.64,3.67,3.67Z"/>
  </g>
  <g>
    <path class="cls-1" d="M395.02,277.56c0,2.88-10.35,5.22-23.1,5.22s-23.12-2.34-23.12-5.22,10.35-5.22,23.12-5.22,23.1,2.34,23.1,5.22Z"/>
    <g>
      <path class="cls-2" d="M395.02,277.56l-4.01,46.91c-.92,9.87-9.19,12.73-19.1,12.73s-18.2-2.86-19.11-12.73l-4.01-46.91c0,2.88,10.35,5.22,23.12,5.22s23.1-2.34,23.1-5.22Z"/>
      <g class="cls-13">
        <path class="cls-6" d="M390.31,293.22c-.19.45-.46.76-.82,1.09-.05.04-.1.08-.15.13-.02.02-.04.04-.06.05,0,0,.05-.04,0,0-.11.08-.21.15-.33.22-.22.14-.46.25-.7.36-.11.05-.04.02-.01,0-.03.01-.05.02-.08.03-.06.02-.11.04-.17.06-.13.05-.27.09-.4.14-.26.1-.52.18-.79.26-.53.16-1.07.29-1.61.4-2.89.62-5.81,1.18-8.73,1.52-1.68.2-3.37.33-5.06.39-1.29.04-2.59.02-3.88.02-2.36,0-4.72,0-7.06-.25-.15-.02-.29-.03-.44-.05-.08,0-.16-.02-.24-.03.13.02-.12-.02-.15-.02-.3-.04-.59-.09-.89-.14-.57-.1-1.14-.22-1.7-.37-.27-.07-.53-.15-.8-.24-.12-.04-.25-.09-.37-.13-.06-.02-.11-.04-.17-.06-.03-.01-.05-.02-.08-.03-.17-.07.06.03-.03-.01-.47-.2-.9-.45-1.34-.72-.2-.13-.41-.24-.62-.36-.42-.23-1.01.26-.7.7.34.48.77.81,1.27,1.11s1.01.52,1.54.73c1.1.43,2.27.71,3.44.88,2.49.37,5.01.42,7.53.42,1.19,0,2.38.02,3.58,0,1.72-.02,3.43-.13,5.14-.3,3.24-.32,6.43-.89,9.6-1.59,1.11-.25,2.26-.5,3.28-.99.96-.46,1.99-1.13,2.43-2.15.11-.25.19-.51.24-.78.03-.19-.03-.37-.22-.44-.16-.06-.39-.02-.47.15h0Z"/>
        <path class="cls-6" d="M357.25,295.51c.41.04.78-.2,1.11-.4.36-.23.71-.47,1.04-.74.62-.5,1.24-1.07,1.84-1.51.47-.34.94-.68,1.4-1.04.06-.05.12-.09.18-.14-.11.08.05-.04.08-.06.13-.1.26-.2.4-.3.26-.19.52-.38.78-.57s.51-.36.78-.52c.12-.07.24-.14.36-.2.06-.03.12-.06.18-.09.03-.02.07-.03.1-.05.02,0,.14-.06.04-.02s.09-.03.12-.04c.05-.02.1-.03.15-.05.05-.02.11-.03.16-.04.02,0,.07,0,.09-.02-.02.02-.17.01-.05,0,.11,0,.21,0,.31,0,.02,0,.14.02.03,0-.1-.02,0,0,.02,0,.07.01.14.03.2.04.12.03.24.06.35.1.06.02.13.05.19.07.04.01.07.03.11.04-.07-.03-.07-.03,0,0,.28.13.55.27.82.43.57.33,1.11.72,1.63,1.11.15.11.3.23.45.34.03.02.06.05.09.07-.1-.08.04.03.05.04.07.06.15.11.22.17.31.24.62.49.94.73.49.38.99.76,1.53,1.07.29.16.7.08.86-.23s.08-.69-.23-.86c-.48-.28-.93-.61-1.37-.95-.03-.03-.07-.05-.1-.08-.01-.01-.1-.08-.04-.03.07.06-.06-.05-.06-.05-.03-.02-.06-.04-.08-.07-.14-.11-.28-.22-.43-.33-.29-.23-.58-.46-.88-.68-1.04-.8-2.15-1.62-3.41-2.03-.54-.18-1.12-.25-1.68-.11s-1.12.46-1.61.78c-.58.38-1.13.8-1.67,1.24-.23.19-.46.37-.69.56-.1.08-.21.17-.31.25-.05.04-.09.08-.14.11-.03.02-.11.08.02-.01-.03.02-.06.04-.09.07-.72.54-1.41,1.11-2.06,1.75-.34.33-.67.68-1.01,1.01-.32.31-.72.59-.89,1.01-.05.11.07.2.16.21h0Z"/>
        <path class="cls-6" d="M370.73,291.07s.05-.04.08-.06c.05-.04-.02.02,0,0,.01,0,.02-.02.04-.03.05-.04.11-.08.16-.12s.11-.07.17-.11.1-.07.15-.11c.01-.01.03-.02.04-.03.08-.06-.05.04-.02.02.12-.09.24-.18.36-.26.17-.11.32-.24.48-.36l-.11.09c.53-.41,1.12-.76,1.74-1.03l-.15.06c.4-.17.81-.3,1.24-.35l-.18.02c.29-.04.58-.06.87-.02l-.18-.02c.2.03.39.08.57.15l-.16-.07c.17.07.32.16.46.27l-.14-.11c.16.12.3.27.42.42l-.11-.14c.19.25.33.53.47.81.07.14.26.28.41.31s.3.03.44-.03c.3-.13.5-.48.39-.8-.23-.72-.71-1.38-1.37-1.77-.54-.32-1.19-.44-1.81-.38-.68.07-1.33.31-1.93.63s-1.12.71-1.61,1.14c-.13.11-.25.22-.35.36-.12.15-.24.31-.35.47-.17.25-.29.55-.4.83-.03.09.02.21.1.26.09.05.2.03.28-.04h0Z"/>
        <path class="cls-6" d="M368.27,294.05s-.03.02-.04.04c-.01.01-.03.02-.04.04-.02.01-.03.03-.05.04,0,0-.01.01-.02.02-.02.02-.03.04-.05.06s-.03.04-.05.07c-.05.09-.11.18-.16.27-.06.09-.11.19-.17.28-.03.05-.06.09-.08.14-.02.04-.05.09-.07.13-.02.04-.04.08-.06.12,0,0,0,0,0,.01,0,0,0,0,0,0l-.07.17-.03.19s0,.08.01.12c.02.12,0,.07.05.18.04.09.05.15.14.22,0,0,0,0,0,0,0,0,0,0,.01,0,0,0,0,0,0,0,0,0,0,0,0,0,.14.11.09.08.2.13.09.04.13.06.24.05,0,0,0,0,0,0,0,0,0,0,0,0,0,0,0,0,0,0,0,0,.18-.02.18-.02.09-.02.17-.06.23-.12.03-.02.05-.03.07-.06.02-.03.05-.06.07-.09.07-.09.05-.05.09-.16.04-.09.03-.05.04-.09,0,0,0-.01,0-.02,0-.02,0-.04.01-.06.02-.1.04-.2.06-.29.02-.11.04-.22.06-.33s.04-.21.06-.32c0-.02,0-.05.01-.07.01-.06.02-.11.02-.17,0-.01,0-.02,0-.03,0-.04,0-.08,0-.12,0-.02,0-.03,0-.05v-.11s-.04-.07-.06-.1l-.07-.08s-.08-.07-.14-.09c-.03-.02-.07-.03-.11-.03-.04,0-.07,0-.11,0-.04,0-.07,0-.11.03-.05.02-.1.05-.14.09h0Z"/>
        <path class="cls-6" d="M374.22,296.08l.16.1s.05.03.08.05c.06.04.14.06.21.09l.36.14c.07.03.14.05.21.08l-.17-.07.17.07s.01,0,.02,0c.16.07.22.11.39.11.1,0,.2-.02.29-.07.03-.01.06-.03.1-.04,0,0,.01,0,.02,0l.07-.03c.1-.06.18-.14.25-.25.05-.08.08-.16.08-.25.02-.09.02-.18-.01-.27-.03-.12-.09-.22-.18-.3-.07-.06-.15-.14-.23-.19-.1-.06-.28-.12-.4-.1h-.03s-.04,0-.07.01c-.09.01-.18.02-.27.03l-.26.03h-.13s-.04.02-.06.02c-.07,0-.14,0-.2.03-.09.03-.18.05-.27.07l-.1.04-.08.06-.06.08s-.05.1-.05.15c0,.04,0,.07,0,.11,0,.04,0,.07.03.1,0,.04.03.07.05.09.03.04.07.08.12.11h0Z"/>
        <path class="cls-6" d="M362.46,290.41c-.07-.12-.14-.24-.24-.35-.1-.11-.27-.19-.4-.27-.23-.14-.46-.27-.7-.38-.51-.24-1.04-.43-1.59-.53-.31-.06-.61-.09-.92-.08s-.62.06-.92.12c-.53.12-1.05.35-1.48.68-.16.12-.31.24-.44.39s-.27.31-.39.48c-.09.12-.17.25-.24.38-.13.23-.25.49-.26.76s.17.5.41.6c.25.1.52.05.72-.14.13-.12.22-.31.32-.46.07-.11.14-.22.22-.33l-.11.14c.2-.26.45-.49.71-.69l-.15.12c.22-.17.47-.31.73-.43l-.18.07c.31-.13.64-.22.98-.26l-.19.03c.16-.02.31-.03.47-.04s.33-.02.49-.02c.33,0,.65.02.98.06l-.16-.02c.36.05.72.13,1.07.23.17.05.34.11.51.17.04.02.08.03.12.05.13.02.14.02.04,0h.02s.05,0,.07.01c.11.02.21.01.32.02.17,0,.27-.19.19-.33h0Z"/>
        <path class="cls-6" d="M359.51,301.51c-.12.03-.24.07-.35.13-.14.08-.24.26-.32.4-.14.22-.27.47-.35.72-.15.45-.21.95-.16,1.42.05.53.2,1.02.45,1.49.24.45.56.86.91,1.21.38.38.82.71,1.28.98.4.24.82.48,1.26.62.87.29,1.77-.17,2.56-.5.36-.15.72-.3,1.08-.45.08-.03.16-.07.24-.1.04-.02.07-.03.11-.05.03-.01.19-.08.06-.03.19-.08.38-.16.57-.25.16-.07.32-.14.48-.21.14-.06-.06.02.02-.01.04-.02.09-.04.13-.05.08-.03.16-.07.24-.1.34-.13.68-.24,1.04-.32.16-.03.34-.2.36-.36.09-.6.33-1.18.56-1.74.06-.14.12-.29.17-.43.05-.12.11-.25.15-.38.02-.07.05-.42.03-.18,0-.09.03-.18.02-.27l-.02-.13c.02.13.02.12,0-.04,0-.02,0-.04-.01-.06-.02-.09-.06-.19-.13-.25l.12.28h0c.02-.22-.2-.42-.4-.42-.23.01-.38.18-.4.4h0c.07-.1.13-.22.2-.33-.09.05-.14.12-.19.2,0,0-.01.02-.02.03.08-.1.07-.09-.02.03.14-.14,0,.01-.03.05-.09.13-.16.26-.21.4-.1.27-.21.55-.32.82-.23.6-.48,1.21-.51,1.86l.38-.5c-.57.19-1.14.36-1.71.55s-1.13.42-1.68.64c-.52.21-1.04.41-1.57.59-.17.06-.35.12-.53.15-.02,0-.04,0-.06.01-.07.02.18-.02.08-.01-.03,0-.07,0-.1,0-.07,0-.14,0-.2,0-.1,0,.16.03.09.01-.02,0-.04,0-.05,0-.03,0-.07-.01-.1-.02-.07-.02-.15-.04-.22-.07-.14-.06.14.06,0,0-.04-.02-.08-.04-.12-.06-.09-.05-.19-.09-.28-.14-.22-.12-.43-.23-.64-.36-.1-.06-.2-.13-.3-.2-.05-.03-.09-.07-.14-.1.15.11-.01-.01-.05-.04-.18-.15-.35-.31-.5-.47-.08-.08-.15-.17-.22-.26-.02-.02-.03-.05-.05-.07,0,0,.09.12.03.04-.03-.05-.07-.09-.1-.14-.12-.18-.23-.37-.33-.56-.02-.05-.08-.22-.02-.04-.02-.05-.04-.09-.05-.14-.04-.1-.07-.2-.1-.3-.04-.11-.07-.23-.09-.35-.01-.05-.01-.11-.03-.16.04.14.01.09,0,.04,0-.04,0-.08-.01-.11,0-.11-.01-.22,0-.33,0-.06,0-.12.01-.18,0-.03,0-.06,0-.08.01-.12-.02.12,0,0,.04-.24.1-.48.18-.71.02-.06.05-.13.07-.19.03-.07-.04.09,0-.02.02-.03.03-.07.05-.1.07-.17.06-.33.05-.51-.01-.14-.12-.23-.27-.2h0Z"/>
        <path class="cls-6" d="M380.5,289.17c.17.32.57.25.87.22.25-.03.5-.05.74-.09s.5-.1.75-.14c.24-.04.47-.08.71-.12l-.18.02c.55-.07,1.1-.12,1.65-.05l-.19-.03c.3.04.58.12.86.23l-.18-.07c.33.14.63.33.92.55l-.15-.12c.91.71,1.61,1.65,2.44,2.44.29.28.8.31,1.09,0s.31-.79,0-1.09c-.94-.89-1.73-1.95-2.83-2.67-.62-.41-1.31-.64-2.05-.7s-1.5.08-2.23.27c-.38.1-.77.21-1.14.35-.18.07-.35.14-.53.2-.12.04-.25.07-.35.14-.22.14-.34.39-.21.63h0Z"/>
        <path class="cls-6" d="M386,293.03c-.11-.13-.23-.24-.37-.35-.12-.09-.23-.17-.37-.24-.28-.14-.57-.26-.86-.37-.55-.2-1.12-.31-1.71-.3-.31,0-.62.05-.92.11-.25.05-.49.12-.72.2-.29.11-.58.23-.85.38s-.53.36-.77.57-.44.43-.63.67c-.13.17-.26.33-.38.51-.05.07-.09.13-.13.2s-.09.15-.11.23c-.03.11-.04.27,0,.38l-.02-.14c0,.07,0,.14.04.2.04.1.08.18.17.25.08.06.18.1.29.1.07,0,.13,0,.19-.02l-.14.02c.2,0,.38-.09.51-.23.05-.06.1-.11.15-.17.09-.11.18-.21.28-.31.19-.2.4-.38.62-.55l-.14.11c.21-.16.44-.31.67-.44s.45-.26.69-.36l-.18.07c.38-.16.79-.27,1.2-.32l-.19.03c.32-.04.65-.07.97-.06s.67,0,1,.05l-.16-.02c.27.04.53.09.79.15.07.02.13.03.21.04-.16-.02-.05,0-.02,0,.07.01.15.02.22.04.16.03.31.03.47.04.11,0,.21-.07.25-.17.04-.11.02-.21-.06-.3h0Z"/>
        <path class="cls-6" d="M369.87,308.1c.02-.06.04-.12.06-.18l-.06.08.15-.06-.62-.16c-.07-.14,0,0,0,.03.01.04.02.08.04.12l.05.12-.03-.07s.02.04.03.06c.02.05.04.09.06.14.07.18.14.37.22.55.18.44.36.88.56,1.32.37.8.87,1.62,1.52,2.22.36.33.75.59,1.22.73.44.13.9.13,1.34.04.84-.18,1.58-.74,2.22-1.28,1.31-1.13,2.38-2.5,3.49-3.82.28-.34.58-.65.85-1,.16-.21.3-.43.41-.66.02-.05.05-.1.07-.14.03-.08.12-.29.03-.08.03-.06.05-.12.08-.18.04-.11.08-.22.11-.33.13-.49.13-1,0-1.49-.15-.53-.44-1-.78-1.43-.37-.47-.86-.88-1.35-1.21-.26-.17-.52-.33-.8-.46l-.14-.06c.07.03.08.03.02,0-.03-.01-.05-.02-.08-.04-.1-.04-.2-.09-.3-.13-.13-.05-.27-.09-.41-.13-1.24-.31-2.53,0-3.65.58-.3.16-.58.33-.84.55-.16.14-.19.43-.08.61s.36.31.56.23c.23-.09.44-.19.66-.3.09-.04.18-.09.28-.13.02,0,.04-.02.06-.03.02,0,.11-.05.04-.02-.06.03,0,0,.02,0,.03-.01.06-.02.08-.03.37-.15.75-.28,1.14-.35.05,0,.1-.02.15-.03.02,0,.16-.02.07-.01-.08.01,0,0,0,0,.03,0,.06,0,.08,0,.05,0,.1,0,.15-.01.19-.01.38,0,.56.01.02,0,.06.01.08,0,0,0-.12-.02-.05,0,.04,0,.08.01.12.02.1.02.19.04.29.07.09.02.18.05.27.08.03,0,.16.06.09.03s0,0,.01,0c.03.01.05.02.08.04.09.04.17.09.25.15.05.03.09.06.13.09.02.01.04.03.06.04.07.05-.08-.07-.01,0,.16.14.33.28.49.42.3.25.58.52.83.81.05.06.11.13.16.19.03.03.05.07.08.1,0,0-.09-.12-.05-.06.01.02.03.04.04.06.09.13.18.26.25.39.03.06.06.13.09.19.03.07-.06-.15-.03-.07,0,.01.01.03.02.04.01.03.03.07.04.1.02.06.04.13.05.19,0,.03.02.07.02.1,0,.01,0,.03,0,.04.02.09-.01-.08-.01-.08.02.02.01.16.01.2,0,.08,0,.15,0,.23,0,.03,0,.07,0,.09,0,.02.03-.17.01-.1,0,.01,0,.03,0,.05-.01.07-.03.15-.05.22s-.05.15-.07.22c-.04.1.06-.13.01-.03-.02.04-.04.09-.06.13-.08.15-.17.3-.26.44-.02.03-.05.07-.07.1-.09.12.06-.07-.01.02-.06.08-.13.16-.2.24-.08.1-.17.19-.26.28-.15.16-.29.33-.44.5-.76.9-1.51,1.8-2.35,2.64-.22.22-.44.43-.67.64-.11.1-.23.19-.35.29-.03.02-.05.04-.08.06.18-.14.07-.05.03-.02-.06.04-.12.09-.18.13-.22.16-.45.3-.69.43-.05.03-.11.06-.16.08-.02.01-.05.02-.08.03-.14.06.13-.05.05-.02-.11.04-.22.08-.33.11-.11.03-.21.05-.32.07l.2-.03c-.17.02-.33.02-.5,0l.2.03c-.09-.01-.18-.03-.27-.06-.04-.01-.09-.03-.13-.04-.02,0-.03-.01-.05-.02-.11-.04.18.08.08.03-.17-.08-.33-.17-.49-.27-.04-.03-.08-.06-.12-.08-.08-.06.08.06.08.06-.01-.02-.05-.04-.07-.06-.08-.06-.15-.13-.22-.2-.15-.15-.29-.3-.42-.46-.03-.04-.07-.08-.1-.13.15.18.02.03-.01-.02-.07-.09-.13-.18-.19-.27-.13-.19-.25-.38-.37-.57-.24-.37-.46-.75-.68-1.13-.11-.19-.22-.39-.32-.58-.05-.09-.1-.18-.15-.27s-.12-.17-.17-.26c-.15-.29-.57-.29-.75-.05-.2.26-.07.62.24.72l.1.03-.1-.1c.02.06.04.12.06.18.02.07.12.07.14,0h0Z"/>
        <path class="cls-6" d="M380.02,303.63s.05,0,.08,0l-.16-.07h.01c.07.08.19.12.29.09.13-.05.27-.06.4-.1.16-.05.32-.1.47-.16.36-.14.72-.28,1.08-.42.26-.1.52-.21.77-.32l-.15.07c.27-.11.54-.26.79-.41.24-.14.46-.3.67-.47.19-.15.35-.32.49-.52.05-.06.09-.13.12-.2.05-.11.11-.23.13-.36.04-.21.04-.36,0-.58,0,0,0-.02,0-.03-.01-.06-.05-.14-.08-.19,0-.02-.02-.03-.03-.05-.11-.16-.23-.3-.43-.34-.07-.02-.14-.03-.21-.02-.22,0-.44.12-.54.31,0,0,0,.01,0,.02-.1.17-.11.35-.07.53,0,.02.01.05.01.07l-.02-.18c.01.08.01.17.04.25,0,.02.01.05.01.07l-.03-.19c0,.05,0,.1,0,.16l.02-.19c0,.06-.03.12-.05.18l.07-.17c-.04.09-.09.18-.15.25l.11-.14c-.14.18-.32.34-.5.48l.14-.11c-.21.16-.42.3-.64.44-.12.07-.24.14-.36.22s-.24.15-.36.23c-.24.15-.48.29-.72.44-.22.13-.45.26-.66.41-.05.04-.1.08-.16.11-.07.05-.15.11-.22.17-.08.07-.14.16-.22.23s-.11.19-.08.29v.02c.01-.06.02-.12.03-.18-.01.03-.03.05-.04.08-.03.06-.04.13,0,.19.03.05.1.1.16.09h0Z"/>
        <path class="cls-6" d="M387.47,301.36c-.15.26-.17.56-.19.86-.02.25-.03.51-.04.76-.03.5-.04,1-.07,1.51-.02.27-.04.55-.08.82l.03-.2c-.05.4-.15.79-.3,1.16l.08-.19c-.1.24-.23.47-.39.68l.13-.17c-.17.22-.37.43-.59.6l.17-.13c-.24.18-.5.33-.78.45l.2-.08c-.39.16-.8.27-1.22.33l.22-.03c-.84.11-1.7.07-2.54-.05l.22.03c-.53-.07-1.05-.17-1.57-.31-.45-.12-.88-.27-1.32-.43-.18-.06-.44-.02-.6.08-.14.09-.25.21-.32.37-.16.37,0,.75.32.97.19.13.4.22.61.31.3.13.6.23.92.32.6.16,1.22.27,1.84.35.56.07,1.12.11,1.68.1s1.11-.07,1.65-.22c1.04-.3,2.05-.9,2.56-1.89.43-.85.56-1.84.5-2.79-.03-.5-.1-1-.19-1.49-.04-.23-.08-.45-.13-.67-.02-.11-.04-.22-.06-.33,0-.05-.01-.11-.03-.16s0,.07,0,.06c0-.04,0-.09-.02-.13,0-.03-.02-.06-.03-.09-.04-.13-.08-.24-.15-.35-.12-.2-.42-.21-.54,0h0Z"/>
        <path class="cls-7" d="M385.13,336.46c1.38-1.16,2.58-2.58,3.37-4.21.37-.76.67-1.57.79-2.41.01-.1.03-.2.04-.3-.03.22,0-.05.02-.14s0-.19,0-.28c0-.2-.01-.4-.04-.6-.05-.44-.14-.88-.29-1.29-.34-.88-.88-1.67-1.59-2.3-.88-.77-1.93-1.33-2.99-1.8-2.24-.99-4.62-1.47-7.04-1.71-3.17-.31-6.34-.43-9.51-.06s-6.23,1.03-9.03,2.44c-1.24.62-2.43,1.46-3.34,2.52s-1.65,2.41-1.58,3.81c0,.16.02.31.04.47.01.11.03.22.04.33,0,.05.01.09.02.14,0,0,.02.15.02.07.01.57.9.57.89,0,0,.08.02-.07.02-.07,0-.03.01-.06.02-.09.02-.08.03-.15.05-.23.04-.17.09-.33.14-.49.1-.29.19-.58.28-.86.02-.07.05-.14.08-.21.01-.03.03-.07.04-.1.04-.09-.02-.07-.01.03,0-.12.16-.33.21-.44.14-.26.3-.51.47-.75.04-.06.09-.12.13-.18.09-.13-.1.11-.03.03.02-.03.05-.06.07-.09.1-.12.2-.24.31-.35.21-.23.44-.44.68-.65.06-.05.12-.1.18-.15.05-.04.25-.22.06-.05.11-.11.26-.19.39-.28.28-.19.57-.38.87-.54s.59-.33.89-.48c.15-.08.31-.15.46-.22.08-.04.16-.07.24-.11.04-.02.08-.03.12-.05.19-.08-.13.05.02,0,.67-.27,1.35-.52,2.04-.73,1.41-.43,2.86-.73,4.32-.95.17-.03.35-.04.53-.08-.26.05.03,0,.1-.01.1-.01.21-.03.31-.04.34-.04.68-.08,1.02-.11.65-.06,1.31-.1,1.97-.13,1.45-.05,2.88.02,4.33.1,1.14.07,2.27.15,3.4.3-.04,0-.13-.02.03,0,.08.01.16.02.24.04.12.02.24.04.36.06.28.05.56.1.84.15.56.11,1.12.25,1.67.41,1.14.33,2.05.7,3.08,1.26.24.13.47.26.7.4.11.07.21.13.31.21.06.04.12.08.18.13.14.1-.07-.06.06.05.34.28.64.58.93.91.13.15-.09-.13.03.03.02.03.05.06.07.1.06.08.11.16.16.25.11.18.2.37.29.56-.09-.18.03.08.05.13.03.09.06.17.08.26.05.18.08.36.12.54s-.01-.17,0,.02c0,.04,0,.07.01.11,0,.09.01.18.02.28,0,.2,0,.41,0,.61,0,.18-.02.36-.04.53,0,.04-.02.17,0,.02,0,.04-.01.08-.02.11-.02.11-.04.23-.06.34-.35,1.65-1.25,3.04-2.27,4.41-.25.33-.52.64-.79.95s.13.69.44.44h0Z"/>
        <path class="cls-7" d="M363.33,326.48c-.31,0-.59.03-.89.09s-.55.16-.83.28c-.46.2-.86.44-1.24.78-.6.53-1,1.26-1.04,2.07s.39,1.59.9,2.21c.59.72,1.37,1.3,2.16,1.78,4.01,2.45,8.89,2.34,13.4,1.76,1.99-.26,3.97-.63,5.82-1.43,1.55-.67,3.27-1.91,3.42-3.74.12-1.54-1.22-2.73-2.41-3.45-1.29-.78-2.77-1.33-4.23-1.67-.95-.22-1.93-.34-2.89-.44-1.2-.13-2.41-.19-3.61-.19s-2.51.09-3.76.26c-1.17.16-2.37.36-3.49.73-.26.09-.53.19-.78.29-.35.14-.6.33-.89.56-.37.29-.06.93.38.92.3-.01.6,0,.89-.09.27-.07.54-.14.81-.2.55-.13,1.09-.27,1.65-.37.27-.05.53-.1.8-.14.36-.06.44-.07.77-.11.57-.07,1.15-.11,1.72-.15,1.14-.07,2.28-.09,3.43-.04.57.02,1.14.06,1.71.12.27.02.54.05.8.08.14.02.28.03.42.05.02,0,.16.02.03,0,.08.01.17.02.25.03.69.1,1.36.23,2.03.41.33.09.66.2.99.31.16.06.32.12.48.18.08.03.15.06.23.09.04.02.22.08.01,0,.05.02.1.04.15.07.64.28,1.27.61,1.84,1.02.03.02.07.05.1.07.11.08-.03-.03-.04-.03.07.04.13.1.19.15.12.11.24.22.36.34.05.05.09.1.13.15.14.16-.08-.13.04.04.08.12.15.23.22.36,0,.01.04.11.05.11-.01,0-.07-.2-.04-.08.02.06.04.12.06.19.01.05.01.16.04.19,0,0-.02-.22-.01-.1,0,.04,0,.08,0,.12,0,.07,0,.13,0,.2,0,.13,0-.09.01-.09,0,0-.02.11-.02.12-.01.06-.03.13-.05.19-.01.04-.03.07-.04.11-.05.15.09-.17,0-.02s-.16.3-.26.43c-.02.03-.04.06-.06.09.11-.16.03-.04,0,0-.07.08-.14.17-.22.24-.13.13-.28.24-.4.37-.08.09.15-.11,0,0-.03.02-.06.05-.1.07-.1.07-.2.14-.3.2-.36.23-.74.42-1.14.59.16-.07-.1.04-.15.06-.09.04-.19.07-.28.11-.24.09-.48.17-.72.24-.87.26-1.75.45-2.65.6-.22.04-.44.07-.66.1-.11.02-.22.03-.32.05-.04,0-.09.01-.13.02.21-.03.01,0-.03,0-.39.05-.78.09-1.18.14-1.09.11-2.18.19-3.28.21-.57,0-1.13,0-1.7-.03-.25-.01-.51-.03-.76-.05-.14-.01-.28-.03-.42-.04-.07,0-.14-.02-.21-.02-.04,0-.08-.01-.13-.02.08.01.07,0-.03,0-1.08-.16-2.15-.41-3.16-.81-.41-.16-.87-.37-1.36-.64-.42-.23-.83-.48-1.22-.76-.03-.02-.31-.23-.15-.11-.08-.07-.16-.13-.24-.2-.15-.13-.3-.26-.43-.4-.06-.07-.13-.13-.19-.2-.02-.03-.05-.05-.07-.08l-.03-.04c-.04-.05-.04-.05,0,0l.03.04s-.04-.05-.06-.08c-.02-.03-.04-.05-.06-.08-.05-.08-.1-.16-.15-.25-.03-.05-.1-.15-.1-.21,0,0,.07.2.03.07-.01-.03-.03-.07-.04-.1-.02-.06-.04-.12-.05-.19,0-.04-.02-.08-.03-.12-.04-.16.04.02,0,.05.01,0,0-.34,0-.37,0-.15-.05.19,0,.04,0-.03.01-.06.02-.08.01-.05.04-.22.08-.25,0,0-.09.18-.02.06.02-.03.03-.07.05-.1.03-.06.07-.12.11-.18.03-.04.19-.25.06-.09.06-.07.13-.15.19-.22.13-.13.27-.25.41-.37.08-.07.16-.14.24-.21.11-.09.09-.08.23-.17.2-.14.4-.28.59-.43.23-.17.44-.35.66-.53.18-.15.03-.47-.19-.46Z"/>
        <path class="cls-6" d="M353.83,303.72c.04.24.07.47.06.72s-.04.48-.05.72c-.02.46.05.95.08,1.41.07.95.12,1.91.16,2.86.07,1.95.22,3.89.34,5.84.06.96.16,1.92.26,2.88.05.48.11.95.17,1.42.04.28.07.55.11.83.01.11.03.21.05.32s-.01-.08-.01-.08c.01.05.01.11.02.16.19,1.55.29,3.12.51,4.67.12.84.26,1.68.51,2.5.13.43.29.85.46,1.27.08.18.15.36.26.53.15.24.33.4.57.54.4.24.95-.06.94-.54,0-.2-.01-.38-.08-.57-.04-.12-.09-.23-.13-.34-.06-.14,0-.02,0,0-.02-.05-.04-.1-.06-.15-.13-.33-.23-.67-.32-1.01-.09-.36-.17-.73-.24-1.09-.03-.18-.07-.37-.1-.55-.01-.09-.03-.17-.04-.26,0-.04-.05-.38-.03-.18-.19-1.5-.27-3.01-.44-4.52-.05-.4-.1-.81-.16-1.21,0-.06-.02-.12-.03-.18,0-.02-.02-.17,0-.04-.01-.11-.03-.21-.04-.32-.03-.24-.06-.49-.09-.73-.11-.96-.2-1.91-.28-2.87-.16-1.91-.35-3.84-.58-5.74-.13-1.11-.34-2.21-.56-3.3-.1-.51-.2-1.02-.35-1.52-.08-.26-.21-.5-.32-.75-.12-.26-.19-.52-.26-.8-.05-.21-.35-.12-.32.09h0Z"/>
      </g>
    </g>
  </g>
  <g>
    <g>
      <g>
        <path class="cls-21" d="M225.71,321.71c0,6.22-5.24,31.47-27.54,41.41,0,3.89-9.14,7.06-20.39,7.06s-20.41-3.16-20.41-7.06c0-.09,0-.19.02-.26-21.47-10.11-27.56-34.99-27.56-41.15,0,3.93,5.49,7.49,14.32,10.03,8.63,2.53,20.5,4.06,33.62,4.06s25.72-1.65,34.43-4.31c8.37-2.53,13.5-5.97,13.5-9.79Z"/>
        <g class="cls-16">
          <path class="cls-22" d="M159.46,364.22c.09.09.19.17.27.26.12.13.18.26.33.36.25.17.52.3.78.44.55.29,1.13.52,1.7.75,1.12.44,2.3.75,3.48,1,2.44.53,4.94.74,7.43.85,4.86.21,9.8.11,14.62-.63,1.37-.21,2.73-.49,4.07-.86.66-.18,1.31-.39,1.95-.62.35-.13.7-.26,1.03-.41.3-.14.56-.33.83-.51.53-.36.22-1.26-.45-1.07-.26.07-.53.13-.79.21-.29.1-.57.22-.86.32-.54.2-1.09.37-1.64.53-1.17.33-2.36.59-3.56.79s-2.3.34-3.58.45-2.46.18-3.69.22c-2.32.08-4.65.09-6.97.02-1.2-.03-2.41-.09-3.61-.2-.59-.05-1.19-.11-1.78-.18-.5-.06-1.09-.15-1.71-.25-1.31-.21-2.6-.49-3.87-.88-.61-.19-1.22-.38-1.82-.61-.3-.12-.61-.23-.91-.35-.28-.12-.62-.12-.92-.21-.33-.1-.6.35-.34.59h0Z"/>
          <path class="cls-3" d="M135.8,345.32c.53-.16,1-.52,1.37-.81.45-.36.86-.77,1.29-1.16.22-.2.42-.4.65-.59.05-.04.09-.08.14-.11,0,0,.08-.06.03-.02-.06.04.04-.03.05-.04.11-.07.21-.15.32-.21.05-.03.11-.06.16-.08.11-.05-.08.02.04-.01.06-.02.11-.04.16-.05.06-.02.17-.02.05-.02.06,0,.11,0,.17,0,.15,0-.06-.02,0,0s.14.03.21.06c.02,0,.16.06.05.02s.01,0,.04.02c.09.04.17.09.26.14.17.1.33.22.5.33.12.09-.05-.04.04.03.04.03.08.06.12.09.09.08.19.16.28.24.2.17.39.35.58.53.8.77,1.56,1.59,2.29,2.42.64.73,1.26,1.48,1.89,2.22.26.31.73.23,1.01,0,.73-.63,1.35-1.38,2.03-2.06.19-.19.38-.37.58-.55.09-.08.17-.15.26-.22.02-.02.15-.12.08-.06s.07-.05.09-.07c.08-.06.17-.12.26-.17.04-.02.08-.04.11-.06.02,0,.04-.02.06-.03.1-.05-.06.03-.06.03,0-.01.19-.05.2-.06-.05.04-.2.01-.05.02.07,0,.13,0,.2,0,.14,0-.13-.04,0,0,.05.01.1.02.14.03s.09.03.14.04c.02,0,.05.02.07.03.09.02-.12-.06-.04-.02.19.11.38.22.57.34.07.04-.04-.03-.04-.03.02.02.04.03.06.05.04.04.08.07.12.11.1.09.19.18.28.27.18.18.35.36.51.55.62.72,1.17,1.54,1.9,2.16.82.71,1.82,1,2.89.71,1.01-.28,1.87-.93,2.72-1.53.41-.29.82-.58,1.26-.82.1-.06.21-.11.32-.16.02-.01.05-.02.07-.03,0,0-.14.05-.06.03.06-.02.11-.04.17-.06.1-.03.2-.06.29-.09.06-.01.11-.02.17-.03.09-.02-.09.02-.08.01.01-.01.08,0,.1,0,.1,0,.2,0,.29,0,.14,0-.13-.03-.02,0,.05.01.11.02.16.04.03,0,.24.05.25.08,0,0-.15-.07-.08-.03.02.01.04.02.06.03.05.02.1.05.15.07.2.1.39.23.57.36.04.03.09.07.13.1.07.05-.04-.03-.04-.03.02.02.04.04.07.05.11.09.21.17.31.26.84.74,1.58,1.59,2.3,2.44.66.78,1.3,1.59,2.06,2.28.19.17.38.33.58.48.25.19.74.12.94-.12.61-.74,1.33-1.39,2.06-2,.11-.09.22-.18.32-.26.06-.05.12-.09.18-.14.07-.06-.02.02-.03.02.03-.03.07-.05.1-.08.24-.18.47-.35.72-.52.46-.32.93-.62,1.43-.89.23-.13.46-.24.7-.35.07-.03.19-.08.04-.02.05-.02.1-.04.15-.06.11-.04.22-.08.34-.12.1-.03.2-.06.3-.08.04-.01.09-.02.13-.03.03,0,.24-.04.09-.02-.14.02,0,0,.04,0,.05,0,.09,0,.14,0,.04,0,.08,0,.11,0,.02,0,.04,0,.06,0,.17,0-.03.01-.04,0,0,.02.31.07.34.08.12.03.23.07.35.12.04.01.07.03.11.04,0,0-.13-.06-.05-.02.05.03.11.05.17.08.13.06.26.13.39.2.54.3,1.06.66,1.56,1.02.29.21.58.43.86.65.14.11.28.22.42.32.06.05.13.1.19.15.1.07-.09-.07,0,0,.04.03.07.06.11.08.52.41,1.05.82,1.62,1.15.24.14.55.14.79,0,1-.58,1.87-1.38,2.77-2.1.12-.09.23-.19.35-.28,0,0,.2-.16.07-.06.06-.04.12-.09.17-.13.23-.17.46-.34.69-.5.22-.15.44-.29.68-.41.11-.06.22-.11.33-.16.18-.09-.16.06.03-.01.07-.03.14-.05.21-.08.09-.03.19-.05.28-.07.14-.04-.18.01-.08,0,.03,0,.07,0,.1,0,.08,0,.17,0,.25,0,.04,0,.09,0,.13,0,.22.01-.12-.03.02,0,.43.09.84.2,1.25.35.11.04.23.09.34.13-.18-.07.01,0,.04.02.06.03.12.05.17.08.26.12.52.24.77.37.48.25.96.51,1.43.79.94.56,1.86,1.15,2.76,1.77.3.21.69.09.94-.12,1.79-1.52,3.36-3.26,5.08-4.85h-1.11c.82.77,1.81,1.26,2.84,1.69.54.23.94.39,1.4.59.48.22.96.46,1.4.75.37.25.82.05,1.06-.28.11-.15.08-.11.21-.27.1-.12.19-.23.29-.35.2-.23.41-.45.62-.67.42-.43.86-.84,1.29-1.26.91-.86,1.82-1.73,2.58-2.73l-1.09.29c.72.36,1.39.82,2.12,1.16.63.3,1.3.44,1.97.18.94-.37,1.62-1.18,2.32-1.88.83-.84,1.68-1.66,2.54-2.47.98-.92,1.98-1.82,2.97-2.72.31-.28.31-.86,0-1.14-.34-.31-.81-.3-1.14,0-1.67,1.51-3.32,3.06-4.91,4.65-.39.39-.77.79-1.16,1.18-.17.17-.34.34-.52.5-.07.06-.14.12-.21.18.12-.1.04-.03,0,0-.05.03-.09.07-.14.1-.06.04-.12.08-.18.11-.04.02-.08.03-.11.05-.08.05.15-.04.06-.03-.06.01-.13.04-.19.06,0,0-.08.02-.08.02,0-.04.21,0,.05-.01-.05,0-.11,0-.16,0-.12,0,.08,0,.09.01-.02-.01-.07-.01-.1-.02-.05-.01-.11-.03-.16-.05-.03-.01-.07-.02-.1-.04-.13-.04.13.06.04.02-.74-.41-1.46-.86-2.21-1.24-.29-.14-.75-.16-.97.12-1.54,1.97-3.59,3.45-5.07,5.47l1.06-.28c-.42-.28-.87-.51-1.33-.72-.23-.11-.47-.21-.7-.31-.16-.07-.31-.13-.47-.2-.07-.03-.14-.06-.21-.09-.12-.05.01,0-.06-.03-.47-.2-.93-.41-1.38-.65-.22-.12-.43-.25-.64-.39-.05-.04-.1-.07-.15-.11-.11-.08.02.02-.05-.04-.11-.09-.21-.18-.31-.27-.32-.3-.79-.3-1.11,0-1.72,1.59-3.29,3.34-5.07,4.85l.94-.12c-1.77-1.21-3.59-2.39-5.57-3.22-.88-.36-1.85-.67-2.8-.5-1.06.18-2.03.94-2.86,1.58-.59.45-1.16.93-1.74,1.39-.06.05-.13.1-.19.16-.03.02-.06.04-.08.07-.01,0-.13.1-.06.04s-.02.02-.03.02c-.04.03-.07.05-.11.08-.06.05-.12.09-.19.14-.24.17-.48.34-.73.49h.79c-.49-.27-.95-.6-1.4-.93-.05-.04-.11-.08-.16-.12-.04-.03-.07-.05-.11-.08.01,0,.09.07.02.01-.14-.11-.28-.22-.42-.33-.29-.22-.58-.45-.87-.67-.98-.74-2.05-1.54-3.26-1.86-1.07-.28-2.09.07-3.05.54-1.1.53-2.1,1.25-3.05,2-.5.4-.99.81-1.45,1.25-.2.19-.4.38-.59.59-.09.09-.17.18-.25.28-.03.04-.07.08-.1.12-.05.07-.29.37-.12.14l.94-.12s-.11-.07-.11-.08c0,0,.16.13.05.04-.02-.01-.04-.03-.05-.04-.08-.07-.16-.14-.24-.21-.17-.16-.34-.32-.51-.49-.38-.39-.75-.8-1.11-1.2-.77-.86-1.5-1.76-2.33-2.57-.7-.69-1.52-1.42-2.5-1.68-1.06-.28-2.11.14-3,.69s-1.68,1.25-2.61,1.74c-.05.03-.1.05-.15.07-.03.01-.22.09-.11.05s-.06.02-.08.03c-.06.02-.12.04-.18.06-.11.03-.22.06-.33.08,0,0-.08,0-.08.01,0,0,.16-.01.08-.01-.06,0-.12,0-.18.01s-.12,0-.18,0c0,0-.08,0-.08,0,0,0,.16.03.08,0-.12-.03-.23-.05-.35-.09-.14-.04.06.04.03.01s-.08-.04-.12-.06c-.09-.05-.18-.11-.27-.17-.12-.08.04.03,0,0-.04-.03-.08-.06-.11-.09-.09-.08-.18-.16-.26-.24-.17-.17-.33-.34-.48-.52-.34-.39-.66-.8-1-1.19-.66-.77-1.43-1.55-2.43-1.84-.53-.15-1.05-.13-1.55.09-.43.19-.81.52-1.16.83-.79.7-1.48,1.52-2.22,2.27-.13.14-.27.27-.42.4h1.01c-1.31-1.52-2.58-3.08-4.06-4.44-.71-.65-1.48-1.34-2.38-1.71-1.07-.45-2.06.06-2.9.74-.52.43-.96.95-1.42,1.45-.21.23-.42.45-.65.65-.13.12-.16.14-.27.21-.05.04-.11.07-.17.1-.03.02-.19.09-.11.06-.25.1-.42.33-.34.61.07.25.35.42.61.34h0Z"/>
          <path class="cls-3" d="M227.26,326.72c-.79,1.27-1.82,2.3-2.94,3.24-.31.26-.54.42-.81.63-.23.18-.58.43-.86.62-.62.42-1.27.81-1.93,1.17s-1.33.69-2.01,1.01c-.35.16-.69.31-1.04.46-.09.04-.17.07-.26.11-.01,0-.12.05-.03.01-.03.01-.07.03-.1.04-.04.02-.09.04-.13.05-.05.02-.28.12-.18.08.07-.03-.07.03-.08.03-.05.02-.11.05-.16.07-1.39.58-2.79,1.12-4.19,1.66-3.66,1.4-7.46,2.39-11.32,3.07s-7.73,1.04-11.62,1.28-7.98.33-11.97.26-7.96-.29-11.92-.71-7.89-1.02-11.78-1.82c-3.86-.79-7.65-1.82-11.43-2.95-1.79-.54-3.57-1.11-5.28-1.87-1.31-.59-2.54-1.31-3.74-2.1s-2.31-1.62-3.4-2.59c-.54-.48-1.05-.98-1.53-1.52-.12-.13-.23-.26-.34-.4-.05-.06-.09-.12-.14-.17,0-.01-.09-.12-.05-.06s-.05-.07-.06-.08c-.19-.26-.37-.52-.54-.8-.14-.24-.27-.49-.39-.74-.02-.03-.1-.22-.04-.09-.03-.06-.05-.13-.08-.19-.05-.13-.09-.26-.12-.39-.07-.32-.45-.51-.75-.43-.33.09-.5.43-.43.75.02.12,0,0,0-.02.01.07.02.14.03.21s.03.13.05.2c.04.14.08.27.13.4.12.32.27.63.44.93.35.6.79,1.15,1.25,1.67,1.01,1.13,2.19,2.11,3.41,3.02,1.1.82,2.25,1.57,3.43,2.25,1.53.87,3.15,1.57,4.81,2.16,1.81.64,3.65,1.15,5.49,1.68,1.95.56,3.91,1.07,5.89,1.53,3.96.92,7.96,1.62,11.99,2.13s8.04.84,12.08,1.01c4.05.16,8.1.16,12.15,0s8.02-.37,11.99-.89,7.82-1.31,11.59-2.53c1.66-.53,3.29-1.17,4.91-1.8,1.45-.56,2.9-1.14,4.31-1.82,2.76-1.31,5.51-3,7.23-5.53.41-.61.77-1.25,1.07-1.92.19-.41-.37-.76-.62-.36h0Z"/>
        </g>
      </g>
      <path class="cls-2" d="M225.71,321.71c0,3.82-5.13,7.26-13.5,9.79-2.81-1.31-6.22-2.02-8.16-2.53-10.2-2.66-20.95-2.56-31.41-2.66-7.23-.06-14.98.77-21.94,2.83-2.28.67-4.51,1.48-6.53,2.6-8.84-2.55-14.32-6.1-14.32-10.03,0-7.81,21.45-14.12,47.94-14.12s47.93,6.31,47.93,14.12Z"/>
    </g>
    <g>
      <path class="cls-18" d="M212.21,331.51c-8.71,2.66-20.91,4.31-34.43,4.31s-24.99-1.54-33.62-4.06c2.02-1.12,4.25-1.93,6.53-2.6,6.96-2.06,14.71-2.88,21.94-2.83,10.47.09,21.21,0,31.41,2.66,1.95.51,5.35,1.22,8.16,2.53Z"/>
      <g class="cls-15">
        <path class="cls-23" d="M148.41,332.98c1.83-.57,3.7-1.04,5.6-1.34s3.89-.45,5.86-.62c2.14-.19,4.28-.42,6.43-.55,2.41-.14,4.81-.2,7.22-.22s4.75,0,7.13,0c2.22,0,4.45-.05,6.67.03,1.02.04,2.05.1,3.07.19.52.05,1.05.1,1.57.16.24.03.48.06.72.08.14.02.28.04.43.05.06,0,.11.01.17.02-.12-.02.13.02.13.02,2.08.29,4.15.67,6.19,1.15s4.08,1.06,6.08,1.74,3.88,1.47,5.77,2.21c.43.17.87.35,1.29.53.29.12.63.09.8-.21.16-.27.06-.64-.21-.8-.88-.51-1.76-1.03-2.69-1.44-.98-.44-1.98-.86-2.99-1.23-1.98-.74-4-1.37-6.05-1.9-4.15-1.08-8.41-1.78-12.69-2.05-2.15-.14-4.3-.12-6.45-.11-2.41,0-4.82-.02-7.23-.02s-4.82.03-7.22.14-4.59.35-6.89.58c-2.02.2-4.04.38-6.05.7-.99.16-1.98.35-2.95.6s-1.88.58-2.78,1.02c-.41.2-.79.43-1.16.7-.27.19-.12.68.24.56h0Z"/>
        <path class="cls-23" d="M156.18,335.65c2.3-.82,4.74-1.3,7.14-1.52,2.62-.23,5.27-.26,7.9-.22,3,.04,6,.06,9.01.22,1.7.09,3.39.19,5.09.33,1.59.13,3.12.41,4.72.76,3.15.69,6.21,1.73,9.34,2.51.39.1.77.19,1.17.25.33.05.67-.09.77-.44s-.12-.65-.44-.77c-.78-.28-1.58-.5-2.37-.73s-1.54-.46-2.31-.7c-1.56-.47-3.12-.95-4.7-1.35s-3.24-.73-4.89-.94-3.38-.3-5.07-.4c-3.15-.19-6.3-.26-9.45-.28-2.64-.02-5.31.05-7.93.37-1.35.16-2.69.37-4.01.69-1.17.28-2.4.67-3.45,1.29-.24.14-.47.31-.7.48-.21.15-.09.55.19.45h0Z"/>
      </g>
    </g>
  </g>
</svg>