<?xml version="1.0" encoding="UTF-8"?>
<svg id="Layer_1" data-name="Layer 1" xmlns="http://www.w3.org/2000/svg" xmlns:xlink="http://www.w3.org/1999/xlink" viewBox="0 0 500 500">
  <defs>
    <style>
      .cls-1 {
        fill: #ff7768;
      }

      .cls-2 {
        fill: #c7966e;
      }

      .cls-3 {
        clip-path: url(#clippath-1);
      }

      .cls-4 {
        clip-path: url(#clippath-3);
      }

      .cls-5 {
        clip-path: url(#clippath-4);
      }

      .cls-6 {
        clip-path: url(#clippath-2);
      }

      .cls-7 {
        fill: #031163;
      }

      .cls-8 {
        fill: #031163;
      }

      .cls-9 {
        clip-path: url(#clippath);
      }

      .cls-10 {
        fill: #765238;
      }
    </style>
    <clipPath id="clippath">
      <path class="cls-2" d="M391.19,277.3c-.12,12.7-5.22,25.08-13.43,35.08-6.77,8.28-19.44,20.2-31.91,18.42-2.67,12.91-6.17,21.73-10.69,33.44-12.18,31.46-44.44,50.29-72.55,65.4-14.17,7.6-26.72,9.9-42.62,10.06-15.88-.9-28.33-3.73-42.27-12-19.42-11.5-39.05-23.84-53.73-40.64-15.4-17.71-20.54-36.86-25.62-58.97-12.95,2.81-26.12-9.99-33.09-18.7-8.13-10.11-13.05-22.59-13.04-35.23.06-18.41,13.82-43.81,33.61-33.57-1.18-21.88-2.64-50.01,2.34-71.71.68-2.9,1.41-5.74,2.36-8.53,27.34-83.38,165.85-105.41,228.6-44.01,31.96,31.27,36.61,82.38,35.74,123.58-.03,1.64-.06,3.33-.15,5.02,21.71-14.33,36.65,13,36.46,32.36Z"/>
    </clipPath>
    <clipPath id="clippath-1">
      <path class="cls-10" d="M368.58,420.94c-5.27-.74-10.57-1.93-15.51-4.11-4.84-2.11-8.95-3.52-14.29-7.86-.36,4.37,1.43,9.23,2.79,13.04-4.55-1.59-9.31-5.34-12.47-8.75-.04,4.56-.75,9.89,1.61,16.97-13.36-2.26-26.33-8.78-37.07-18.94,17.8-12.08,33.74-27.01,41.52-47.06,4.51-11.71,8.02-20.53,10.67-33.42,7.16,1.04,14.4-2.48,20.56-7.23.47,6.52,1.11,13.01,2.08,19.45,3.51,24.05,8.63,47.39,17.05,70-10.14-2.41-17.77-9.34-25.47-16.97-1.04,7.3,4.73,19.34,8.53,24.86Z"/>
    </clipPath>
    <clipPath id="clippath-2">
      <path class="cls-10" d="M106.63,430.24c2.36-7.08,1.65-12.41,1.61-16.97-3.15,3.41-7.92,7.15-12.47,8.75,1.36-3.82,2.68-9.56,2.79-13.04-3.84,3.42-9.42,5.74-14.29,7.86-4.94,2.19-10.24,3.37-15.51,4.11,3.8-5.52,9.56-17.56,8.53-24.86-7.7,7.63-15.33,14.56-25.47,16.97,8.42-22.6,13.54-45.95,17.05-70,1.33-8.93,2.11-17.86,2.54-26.83,7.27,7.23,17.19,13.97,26.94,11.86,5.09,22.12,10.21,41.28,25.61,58.99,6.81,7.74,14.69,14.6,23.1,20.83-11.35,12.12-25.65,19.86-40.44,22.34Z"/>
    </clipPath>
    <clipPath id="clippath-3">
      <path class="cls-10" d="M365.79,240.99c-3.44.15-7.13,1.37-11.07,3.96l-3.83,11.01c-5.8-13.53-13.22-25.98-20.99-38.5-35.78-10.19-68.92-28.05-100.12-48.84-21.03-14.04-39.12-30.79-55.16-49.69-5.7,5.19-10.96,10.15-16.08,15.34-8.31,8.37-16.48,17.79-23.18,27.64-17.66,25.98-29.17,75.4-47.43,82.71l-2.11-4.04c-5.23-2.71-10.03-2.93-14.26-1.45.21-19.86,1.43-39.69,5.8-59.25,2.9-13.01,6.98-25.53,12.68-37.39,11.1-23.16,28.76-42.32,49.22-55.36,33.17-21.2,74.08-25.16,111.29-18.57,16.62,2.96,32.95,9.23,47.53,18.57,20.45,13.04,38.11,32.2,49.22,55.36,5.7,11.86,9.78,24.38,12.68,37.39,4.51,20.2,5.66,40.61,5.8,61.11Z"/>
    </clipPath>
    <clipPath id="clippath-4">
      <path class="cls-7" d="M709.1,414.21c-66.34-4.97-93.34-15.43-93.34-15.43,0,0,2.11-14.14,2.97-20.66,2.71-20.29,4.08-40.92,4.79-61.51,6.68,5.6,14.88,9.98,23,8.2,5.08,22.15,10.24,41.33,25.64,59.06,10.42,11.95,23.37,21.63,36.95,30.35Z"/>
    </clipPath>
  </defs>
  <g>
    <g>
      <path class="cls-2" d="M391.19,277.3c-.12,12.7-5.22,25.08-13.43,35.08-6.77,8.28-19.44,20.2-31.91,18.42-2.67,12.91-6.17,21.73-10.69,33.44-12.18,31.46-44.44,50.29-72.55,65.4-14.17,7.6-26.72,9.9-42.62,10.06-15.88-.9-28.33-3.73-42.27-12-19.42-11.5-39.05-23.84-53.73-40.64-15.4-17.71-20.54-36.86-25.62-58.97-12.95,2.81-26.12-9.99-33.09-18.7-8.13-10.11-13.05-22.59-13.04-35.23.06-18.41,13.82-43.81,33.61-33.57-1.18-21.88-2.64-50.01,2.34-71.71.68-2.9,1.41-5.74,2.36-8.53,27.34-83.38,165.85-105.41,228.6-44.01,31.96,31.27,36.61,82.38,35.74,123.58-.03,1.64-.06,3.33-.15,5.02,21.71-14.33,36.65,13,36.46,32.36Z"/>
      <g class="cls-9">
        <ellipse class="cls-7" cx="170.81" cy="268.91" rx="13.68" ry="14.15"/>
        <ellipse class="cls-7" cx="278.98" cy="271.05" rx="13.68" ry="14.15"/>
        <path class="cls-7" d="M232.59,259.27c-.07.43-.15.86-.19,1.3s-.08.85-.13,1.27c-.08.81-.16,1.61-.23,2.42-.14,1.5-.24,3-.21,4.51s.16,2.95.45,4.4.78,2.91,1.41,4.28c.72,1.56,1.65,3,2.7,4.35s2.22,2.56,3.48,3.69,2.65,2.23,4.03,3.29c.33.26.67.51,1,.77.17.13.33.26.5.38.08.06.16.12.24.18.11.08-.09-.07.02.01.05.04.09.07.14.11.67.52,1.33,1.04,1.99,1.58,1.3,1.07,2.56,2.2,3.71,3.44.28.31.56.62.83.95.13.15.25.31.38.47.01.01.02.03.03.04,0,0-.1-.13-.05-.07.02.03.05.06.07.09.05.06.1.13.14.19.34.48.65.98.92,1.51.06.12.12.25.18.38.01.03.03.06.04.09,0,.02.01.03.02.05.03.07-.05-.11-.04-.09.03.07.06.14.09.21.1.25.18.5.26.76s.14.5.19.76c.03.13.05.25.07.38,0,.04.01.07.02.11.02.12,0-.01,0-.07.01.06.02.13.02.2.06.51.07,1.02.04,1.53-.01.26-.02.53-.07.78.01-.05.03-.19,0-.07,0,.03,0,.06-.01.09-.01.07-.02.13-.03.2-.02.13-.05.26-.07.39-.11.53-.25,1.05-.43,1.56-.09.26-.18.52-.29.77-.02.06-.05.12-.08.18-.05.12.04-.09.02-.05-.02.04-.03.07-.05.11-.06.13-.12.27-.18.4-.5,1.07-1.1,2.1-1.75,3.08-.35.52-.71,1.03-1.09,1.53-.09.13-.19.25-.29.38-.05.06.06-.08.05-.07-.01.01-.02.03-.03.05-.02.03-.05.06-.07.09-.05.07-.1.13-.15.19-.2.26-.41.51-.62.76-.84,1.01-1.71,1.99-2.61,2.95s-1.84,1.91-2.78,2.85-1.83,1.8-2.74,2.7c-.86.84-1.71,1.69-2.54,2.55-.74.76-1.45,1.54-2.12,2.37-.17.21-.34.43-.51.65-.07.09-.13.17-.2.26-.03.04-.06.09-.1.13-.02.02-.08.09,0,.02.06-.07.03-.04.01-.02-.03.05-.07.09-.11.14-.19.25-.05.67.21.81.31.17.61.05.81-.21-.03.04-.09.11-.02.04.02-.02.03-.04.05-.06.04-.04.08-.09.11-.13.07-.09.15-.17.22-.26.16-.18.32-.36.49-.54.35-.38.71-.75,1.06-1.12.79-.83,1.6-1.63,2.42-2.43.89-.87,1.78-1.75,2.68-2.62.94-.92,1.87-1.85,2.79-2.79s1.84-1.92,2.72-2.91,1.75-2.04,2.55-3.12c.74-.98,1.43-2,2.03-3.07s1.09-2.11,1.47-3.23c.36-1.06.59-2.16.66-3.27s-.05-2.2-.35-3.25c-.32-1.13-.85-2.21-1.53-3.18-.94-1.34-2.09-2.54-3.29-3.66s-2.54-2.21-3.87-3.24c-.7-.55-1.41-1.09-2.12-1.63-.17-.13-.35-.27-.52-.4-.06-.04-.11-.09-.02-.01-.04-.03-.08-.06-.12-.09-.09-.07-.17-.13-.26-.2-.33-.26-.66-.52-.99-.78-1.32-1.05-2.6-2.15-3.78-3.36-.59-.61-1.16-1.24-1.69-1.9-.07-.09-.14-.17-.2-.26-.08-.11.06.07-.02-.03-.04-.05-.08-.1-.11-.15-.13-.18-.26-.35-.39-.53-.25-.35-.49-.71-.73-1.08-.43-.68-.83-1.38-1.18-2.1-.08-.17-.16-.34-.24-.52-.04-.08-.07-.16-.11-.25,0-.02-.07-.16-.03-.06s-.02-.06-.03-.08c-.14-.35-.27-.7-.39-1.05-.23-.68-.43-1.38-.58-2.08-.08-.34-.14-.69-.2-1.04-.03-.17-.06-.35-.08-.52,0-.04-.01-.08-.02-.13,0-.02-.02-.16,0-.06s0-.04,0-.06c0-.06-.01-.11-.02-.17-.17-1.45-.19-2.9-.21-4.36-.02-1.58.03-3.15.08-4.73.01-.41.03-.81.04-1.22s0-.83-.03-1.25c-.01-.27-.46-.37-.51-.07h0Z"/>
        <path class="cls-7" d="M250.18,358.76c-1.25.87-2.36,1.82-3.63,2.68s-2.59,1.61-3.96,2.28c-.34.17-.68.33-1.03.48-.08.04-.17.07-.25.11-.04.02-.08.03-.11.05-.03.01-.18.08-.03.01-.13.05-.25.11-.38.16-.03.01-.06.03-.09.04-.07.03-.06.03.02,0-.03.01-.06.03-.09.04-.71.29-1.42.56-2.15.81-1.44.49-2.91.88-4.4,1.18-.37.07-.74.14-1.11.2-.18.03-.35.06-.53.09-.1.01-.19.03-.29.04-.05,0-.1.01-.15.02-.02,0-.21.03-.11.01s-.05,0-.06,0c-.05,0-.1.01-.15.02-.1.01-.19.02-.29.04-.19.02-.39.04-.58.06-.37.04-.74.07-1.11.1-1.53.11-3.07.12-4.61.04-.81-.05-1.62-.13-2.42-.23-.18-.02.15.02-.03,0-.03,0-.07,0-.1-.01-.1-.01-.2-.03-.31-.04-.2-.03-.41-.06-.61-.1-.39-.07-.77-.14-1.15-.22-1.52-.32-3.02-.75-4.47-1.29-.36-.13-.71-.27-1.06-.42-.05-.02-.09-.04-.14-.06-.16-.06.13.06-.03-.01-.08-.03-.15-.06-.23-.1-.18-.08-.36-.16-.54-.24-.7-.32-1.39-.67-2.07-1.04-1.33-.73-2.64-1.51-3.89-2.38-.31-.22-.63-.44-.94-.66-.2-.15-.51-.05-.65.13s-.15.49.04.66c1.2,1.04,2.48,2,3.83,2.84s2.79,1.53,4.25,2.14c2.96,1.22,6.09,1.97,9.27,2.27s6.34.16,9.45-.38,6.1-1.44,8.91-2.78c1.38-.66,2.72-1.42,3.98-2.3.65-.46,1.28-.94,1.89-1.45s1.17-1.01,1.65-1.6c.11-.14.23-.27.35-.41.13-.15.24-.32.35-.49s-.11-.39-.27-.27h0Z"/>
        <path class="cls-7" d="M196.85,233.39c-.03-.11-.05-.23-.08-.34-.03-.1,0,.04,0,.07-.03-.13-.03-.25-.1-.37-.06-.1-.16-.2-.23-.29-.04-.05-.09-.11-.13-.16-.02-.02-.09-.11-.01-.02.14.17-.22-.25-.06-.08.08.09.01.01,0-.02s-.03-.05-.05-.08c-.04-.06-.08-.12-.12-.19l.1.23c-.1-.36-.4-.61-.65-.88-.16-.16-.32-.33-.47-.49-.32-.33-.64-.66-.97-.98-.66-.64-1.32-1.27-2-1.88-1.4-1.29-2.93-2.46-4.47-3.59-1.44-1.05-2.96-2-4.53-2.84-1.66-.89-3.4-1.67-5.18-2.31s-3.51-1.1-5.32-1.42c-1.91-.34-3.86-.51-5.8-.55s-3.7.05-5.54.26c-1.99.22-3.95.56-5.89,1.06-1.82.47-3.6,1.06-5.33,1.79-1.82.76-3.57,1.65-5.23,2.72-.46.29-.91.61-1.33.95l.25-.19-.04.03c-.27.18-.48.42-.57.74-.08.3-.04.69.13.96s.43.5.74.57.68.06.96-.13c.42-.28.87-.51,1.31-.76s.88-.5,1.33-.73c.91-.47,1.84-.89,2.78-1.29l-.33.14c2.59-1.09,5.31-1.89,8.08-2.4.78-.15,1.57-.27,2.36-.38l-.4.05c2.8-.37,5.64-.47,8.46-.27.77.06,1.54.14,2.3.24l-.41-.05c2.33.32,4.62.85,6.83,1.65.61.22,1.21.45,1.8.7l-.36-.15c1.59.67,3.12,1.46,4.61,2.33s2.95,1.82,4.36,2.82c.81.57,1.6,1.16,2.38,1.76l-.27-.21c.73.56,1.48,1.11,2.21,1.67l-.24-.19c.66.51,1.32,1.02,1.98,1.53l-.22-.17c.19.15.39.3.58.45.09.07.19.15.28.22.2.16.39.36.66.41l-.23-.1c.25.12.48.25.71.41.05.04.11.08.16.11.09.06.19.09.3.1.12.02.13.02.05,0-.06-.01-.07-.01-.03,0,.13.02.26.04.38.06.32.05.6-.18.52-.52h0Z"/>
        <path class="cls-7" d="M251.6,236.07c.05,0,.1-.01.15-.02.06,0,.19,0,.03-.03.28.07.5-.02.72-.19-.17.13.02,0,.05-.03.22-.15.45-.27.7-.39l-.23.1c.29-.08.51-.29.74-.47.13-.1.26-.2.38-.3l-.21.16c.73-.56,1.45-1.12,2.18-1.68l-.24.19c.76-.58,1.53-1.15,2.29-1.73l-.27.21c1.39-1.08,2.82-2.11,4.3-3.06s2.93-1.87,4.48-2.68c.88-.46,1.77-.88,2.68-1.26l-.36.15c2.14-.9,4.36-1.57,6.63-2.02.68-.13,1.36-.25,2.04-.34l-.41.05c2.76-.37,5.56-.43,8.33-.22.8.06,1.6.15,2.4.25l-.39-.05c.18.02.37.05.55.07l-.39-.05c.17.02.33.05.5.07l-.39-.05c2.82.38,5.6,1.04,8.27,1.99.76.27,1.52.56,2.26.87l-.32-.14c.52.22,1.03.45,1.54.69s1.03.46,1.51.73c.28.16.64.21.96.13.29-.08.6-.3.74-.57.31-.59.16-1.36-.45-1.7-.39-.22-.77-.48-1.16-.7s-.8-.43-1.21-.63c-.91-.45-1.84-.86-2.78-1.24-1.7-.69-3.47-1.22-5.25-1.65-1.89-.45-3.81-.77-5.75-.96-1.79-.18-3.59-.24-5.39-.18s-3.76.25-5.61.58c-1.7.3-3.37.77-5,1.35s-3.35,1.34-4.95,2.18c-1.48.78-2.95,1.64-4.32,2.62-1.47,1.05-2.89,2.17-4.27,3.34s-2.57,2.33-3.77,3.58c-.15.15-.29.3-.44.46-.08.08-.15.16-.23.24-.03.04-.07.07-.11.11-.14.15-.21.31-.29.49l.1-.23c-.03.06-.07.11-.1.17-.02.03-.11.14-.1.17.11-.15.09-.12-.06.08.08-.1.09-.11.04-.04-.04.05-.07.09-.11.14s-.07.09-.11.14c-.06.05-.11.12-.15.19-.07.12-.1.24-.1.37.07-.14,0,.02,0,.06-.01.06-.02.11-.04.17-.05.23.12.57.41.53h0Z"/>
        <path class="cls-7" d="M354.76,287.55c-.26,1.8-.56,3.6-.76,5.4s-.41,3.57-.64,5.36c-.12.9-.22,1.81-.33,2.71-.06.45-.11.9-.17,1.36-.03.22-.06.43-.09.65-.02.12-.03.24-.05.35,0,.02-.02.12,0,0-.01.08-.02.16-.03.24-.24,1.8-.5,3.59-.78,5.38-.56,3.59-1.16,7.16-1.86,10.73s-1.45,7.09-2.3,10.6-1.77,6.95-2.72,10.42c-.12.42-.23.85-.33,1.27-.06.23.07.48.31.54.25.07.46-.08.54-.31.64-1.68,1.17-3.41,1.68-5.13s.98-3.48,1.43-5.23c.9-3.5,1.71-7.02,2.42-10.56s1.36-7.13,1.9-10.72,1.03-7.26,1.44-10.9c.2-1.8.36-3.61.51-5.42.07-.9.16-1.8.19-2.71s.05-1.78.07-2.67c0-.44.01-.88.02-1.32,0-.25-.41-.32-.45-.06h0Z"/>
        <path class="cls-7" d="M90.47,282.39c-.05,1.81-.09,3.62-.02,5.43s.16,3.6.27,5.39.27,3.6.43,5.4.34,3.64.54,5.46c.4,3.64.89,7.27,1.46,10.88s1.22,7.15,1.97,10.7c.37,1.76.76,3.51,1.18,5.25s.9,3.5,1.42,5.23c.12.41.25.82.39,1.23.08.23.3.37.54.31s.36-.31.31-.54c-.36-1.76-.79-3.5-1.19-5.25s-.8-3.52-1.17-5.28c-.74-3.53-1.38-7.08-1.96-10.64-.29-1.79-.56-3.58-.81-5.37-.03-.22-.06-.43-.09-.65-.01-.1-.03-.2-.04-.3,0-.06-.02-.12-.02-.18,0-.03-.04-.27-.02-.12-.06-.45-.12-.91-.18-1.36-.11-.89-.22-1.78-.33-2.67-.44-3.59-.81-7.2-1.11-10.81-.15-1.81-.32-3.62-.46-5.43-.07-.9-.12-1.8-.22-2.69s-.2-1.81-.3-2.72c-.05-.43-.1-.86-.14-1.3-.03-.28-.45-.3-.45,0h0Z"/>
        <path class="cls-7" d="M379.21,280.68c.2-1.38.4-2.77.48-4.17s.11-2.8.06-4.2c-.1-2.82-.56-5.65-1.64-8.27s-2.6-4.82-4.57-6.67c-1.76-1.66-3.93-2.98-6.34-3.38-1.23-.21-2.47-.18-3.7.08s-2.51.83-3.58,1.57c-.32.22-.64.46-.94.71-.21.17-.19.52-.04.72s.48.3.71.14c.56-.4,1.15-.76,1.76-1.07.14-.07.28-.14.43-.2.07-.03.13-.06.2-.09-.12.05-.02,0,.01,0,.05-.02.1-.04.16-.06.28-.11.56-.21.84-.3s.57-.16.86-.22c.14-.03.28-.05.42-.07.03,0,.06,0,.09-.01.15-.02-.11.01-.01,0,.08,0,.16-.02.24-.03.56-.05,1.12-.05,1.68,0,.07,0,.14.01.21.02.03,0,.06,0,.08.01-.16-.01-.08-.01-.04,0,.15.02.29.05.44.07.27.05.54.12.81.19s.52.16.77.26c.07.03.13.05.2.08.03.01.05.02.08.03.05.02.17.04,0,0,.13.03.27.12.4.18.52.25,1.02.53,1.5.85.24.16.47.32.7.49.03.02.23.18.08.06.05.04.11.08.16.13.13.1.25.2.37.31.46.4.9.82,1.32,1.26.21.22.41.45.6.68.1.12.2.23.29.35.05.06.09.11.14.17.03.03.05.06.07.1.03.04.02.03-.03-.03.01.02.03.04.04.06.8,1.05,1.5,2.18,2.07,3.36.07.15.14.3.21.46.03.07.06.14.1.22.02.04.03.08.05.12.05.12-.04-.09.02.04.13.31.25.62.36.93.23.64.42,1.29.59,1.95s.3,1.33.42,2c.06.34.11.69.16,1.04.01.07.02.14.03.21.02.17-.01-.11,0,.06,0,.03,0,.07.01.1.02.17.04.35.06.52.3,2.73.23,5.47.24,8.21,0,.33,0,.65,0,.98,0,.19.31.24.34.05h0Z"/>
        <path class="cls-7" d="M85.51,257.56c-.11-.19-.23-.38-.35-.56.02.03-.04-.07-.05-.08-.02-.04-.05-.07-.07-.11-.07-.1-.14-.22-.22-.31-.27-.31-.59-.58-.92-.83-.65-.5-1.39-.87-2.17-1.15s-1.66-.44-2.5-.52-1.68-.07-2.51,0c-1.67.15-3.31.56-4.82,1.28-1.77.85-3.38,2.1-4.69,3.56s-2.44,3.21-3.25,5.05-1.4,3.9-1.69,5.97c-.34,2.41-.41,4.85-.22,7.27s.61,4.7,1.21,7,1.37,4.5,2.25,6.68,1.86,4.4,2.97,6.52c.13.25.26.49.39.74.14.26.3.51.43.78.07.15.29.19.43.11.16-.09.19-.27.11-.43-.12-.26-.21-.53-.32-.8s-.21-.51-.32-.77c-.23-.56-.47-1.11-.7-1.67-.44-1.04-.87-2.05-1.3-3.13-.86-2.14-1.63-4.32-2.28-6.53-.32-1.11-.61-2.22-.85-3.35-.12-.56-.23-1.12-.33-1.68-.05-.28-.1-.56-.14-.85-.02-.14-.04-.27-.06-.41-.01-.07-.02-.15-.03-.22,0-.03,0-.05-.01-.08.02.15,0-.04,0-.05-.3-2.3-.38-4.64-.2-6.95.02-.29.05-.59.08-.88.02-.14.03-.29.05-.43,0-.07.02-.13.02-.2,0-.04,0-.08.01-.11.02-.12,0,.04,0-.03.07-.53.16-1.07.26-1.59.19-.96.45-1.91.78-2.83.08-.23.17-.46.25-.68.04-.11.09-.22.13-.33.01-.03.07-.18.04-.1-.03.08,0-.01.01-.03.02-.04.03-.07.05-.11.19-.45.4-.88.63-1.31.45-.86.97-1.69,1.55-2.47.03-.04.07-.09.1-.13.02-.02.04-.05.06-.07-.01.01-.09.11-.02.02.08-.1.15-.19.23-.29.15-.19.31-.37.47-.55.32-.36.65-.7,1-1.03s.72-.65,1.1-.96c.02-.02.06-.04.07-.06,0,0-.1.07-.04.03.04-.03.09-.07.13-.1.11-.08.21-.16.32-.23.2-.14.4-.27.6-.4.39-.25.8-.48,1.21-.69.16-.08.32-.16.48-.23.04-.02.09-.04.13-.06.06-.03-.08.03-.07.03.02,0,.04-.02.07-.03.09-.04.18-.07.27-.11.73-.28,1.49-.51,2.25-.67.2-.04.4-.08.59-.12.1-.02.19-.03.29-.05.05,0,.09-.01.14-.02,0,0,.07,0,.08-.01-.09.01-.11.01-.06,0,.01,0,.03,0,.04,0,.41-.05.83-.09,1.25-.1s.82-.01,1.23,0c.2.01.4.03.61.05.05,0,.09,0,.14.02.05,0,.17.01.05,0,.1,0,.21.03.31.05.39.07.78.16,1.16.26.19.05.39.12.58.18.08.03.16.06.25.09.05.02.09.04.14.06-.11-.04.04.02.07.03.35.16.69.34,1.01.55.08.05.15.1.23.16.03.03.07.05.1.08.05.04-.05-.04,0,0,.02.02.05.04.07.06.15.12.29.25.43.38.03.02.14.11.09.07-.04-.03.02.02.03.03.03.03.07.06.1.09.07.06.14.13.2.2.13.13.25.28.35.42.1.13.26.2.42.11.14-.08.19-.27.11-.42h0Z"/>
      </g>
    </g>
    <g>
      <g>
        <path class="cls-10" d="M368.58,420.94c-5.27-.74-10.57-1.93-15.51-4.11-4.84-2.11-8.95-3.52-14.29-7.86-.36,4.37,1.43,9.23,2.79,13.04-4.55-1.59-9.31-5.34-12.47-8.75-.04,4.56-.75,9.89,1.61,16.97-13.36-2.26-26.33-8.78-37.07-18.94,17.8-12.08,33.74-27.01,41.52-47.06,4.51-11.71,8.02-20.53,10.67-33.42,7.16,1.04,14.4-2.48,20.56-7.23.47,6.52,1.11,13.01,2.08,19.45,3.51,24.05,8.63,47.39,17.05,70-10.14-2.41-17.77-9.34-25.47-16.97-1.04,7.3,4.73,19.34,8.53,24.86Z"/>
        <g class="cls-3">
          <path class="cls-8" d="M295.57,390.64c.86,1.88,1.77,3.73,2.73,5.55s1.98,3.62,3.08,5.37,2.24,3.45,3.46,5.11,2.51,3.28,3.87,4.85,2.73,3.04,4.19,4.46,2.96,2.79,4.54,4.07,3.25,2.53,4.96,3.67,3.44,2.17,5.25,3.11,3.72,1.82,5.65,2.58,3.91,1.41,5.92,1.95c.5.13,1,.26,1.5.38.24.06.49-.08.55-.31s-.08-.49-.31-.55c-2.02-.5-4.01-1.14-5.96-1.87-.48-.18-.96-.37-1.43-.56-.24-.1-.47-.19-.71-.29-.02,0-.18-.08-.09-.04-.06-.02-.11-.05-.17-.07-.13-.05-.26-.11-.38-.16-.93-.41-1.85-.84-2.76-1.29-1.81-.9-3.57-1.9-5.28-2.97s-3.38-2.23-4.98-3.46c-.02-.02-.05-.04-.07-.06-.01,0-.09-.07-.04-.03s-.03-.02-.04-.03c-.02-.02-.05-.04-.07-.06-.1-.08-.2-.16-.31-.24-.2-.16-.41-.32-.61-.49-.39-.32-.78-.64-1.17-.96-.77-.65-1.53-1.31-2.28-1.99-1.49-1.37-2.93-2.8-4.3-4.28s-2.69-3.06-3.98-4.65-2.48-3.23-3.63-4.9-2.27-3.42-3.33-5.19-2.05-3.56-2.97-5.39c-.22-.44-.44-.89-.66-1.33-.05-.1-.19-.01-.15.09h0Z"/>
          <path class="cls-8" d="M308.9,372.75c.89,2.65,1.71,5.32,2.51,8s1.6,5.26,2.45,7.87,1.73,5.15,2.72,7.67,2.1,5.09,3.34,7.55,2.68,4.93,4.24,7.25,3.19,4.45,4.91,6.58,3.54,4.19,5.43,6.18,3.88,3.92,5.94,5.76,4.23,3.59,6.47,5.21c1.1.79,2.21,1.56,3.35,2.29s2.25,1.44,3.43,2.07c.28.15.56.3.84.45.3.15.61.27.9.43.33.18.62-.32.29-.5-.29-.16-.56-.37-.84-.54s-.56-.35-.85-.53c-.56-.36-1.12-.71-1.67-1.07-1.13-.73-2.24-1.5-3.33-2.29-.55-.4-1.09-.8-1.62-1.21-.06-.05-.13-.1-.19-.15-.03-.02-.06-.04-.09-.07.06.04-.03-.02-.05-.03-.06-.05-.13-.1-.19-.15-.09-.07-.16-.13-.21-.17-.27-.21-.54-.42-.81-.64-1.07-.85-2.13-1.73-3.16-2.63-2.07-1.81-4.08-3.68-6.01-5.65s-3.77-3.98-5.54-6.08c-.87-1.03-1.71-2.07-2.54-3.13-.1-.13-.2-.25-.29-.38-.02-.03-.04-.06-.07-.08.06.08,0,0-.02-.03-.06-.08-.12-.15-.18-.23-.04-.05-.08-.11-.12-.16.06.08,0,0,0,0-.05-.07-.11-.14-.16-.21-.11-.14-.21-.28-.32-.42-.39-.52-.78-1.04-1.16-1.56-1.66-2.27-3.17-4.63-4.53-7.09s-2.51-4.85-3.59-7.36c-.51-1.2-1.03-2.46-1.51-3.71s-.96-2.52-1.4-3.8c-.91-2.58-1.8-5.16-2.66-7.75s-1.77-5.22-2.68-7.82c-.23-.65-.46-1.3-.69-1.95-.07-.19-.37-.11-.31.09h0Z"/>
          <path class="cls-8" d="M327.6,323.5c-.3,2.36-.56,4.72-.8,7.08s-.43,4.74-.58,7.12-.25,4.75-.31,7.13-.05,4.75,0,7.13.18,4.74.36,7.11.44,4.79.76,7.18.7,4.69,1.17,7.02,1,4.65,1.62,6.94c.5,1.87,1.06,3.72,1.65,5.56.55,1.71,1.13,3.41,1.74,5.1s1.29,3.48,1.99,5.2,1.49,3.59,2.28,5.36,1.61,3.48,2.47,5.19,1.78,3.44,2.73,5.13,1.94,3.35,2.98,4.98,2.1,3.22,3.23,4.78,2.31,3.1,3.55,4.59,2.43,2.83,3.72,4.17,2.58,2.59,3.97,3.78,2.8,2.32,4.28,3.37c.7.49,1.41.96,2.12,1.42.2.13.49.04.61-.16.13-.22.04-.48-.16-.61-.74-.48-1.46-1-2.16-1.53-.18-.13-.35-.26-.53-.4-.04-.03-.08-.06-.12-.09-.01,0-.07-.06,0,0-.02-.01-.03-.03-.05-.04-.09-.07-.19-.14-.28-.22-.35-.27-.69-.55-1.03-.83-1.39-1.15-2.72-2.36-4-3.63s-2.58-2.65-3.79-4.04c-.61-.7-1.21-1.42-1.79-2.14-.29-.36-.58-.73-.87-1.1-.04-.05-.08-.1-.12-.15-.01-.02-.12-.15-.07-.09s-.05-.07-.07-.09c-.04-.06-.09-.11-.13-.17-.14-.19-.28-.37-.43-.56-1.14-1.52-2.23-3.08-3.29-4.66s-2.09-3.23-3.06-4.89-1.92-3.35-2.82-5.06-1.76-3.44-2.59-5.19-1.59-3.45-2.33-5.19c-.05-.11-.09-.22-.14-.32-.07-.16.03.08-.02-.04-.03-.06-.05-.13-.08-.19-.09-.22-.18-.43-.27-.65-.18-.43-.36-.86-.53-1.3-.35-.87-.69-1.74-1.02-2.61-.65-1.7-1.27-3.41-1.85-5.13s-1.1-3.33-1.61-5c-.65-2.16-1.25-4.34-1.77-6.54s-1.01-4.62-1.41-6.95c-.2-1.17-.38-2.34-.54-3.51-.02-.14-.04-.27-.06-.41,0-.04-.01-.08-.02-.12-.01-.1.01.09,0-.01-.01-.08-.02-.16-.03-.23-.04-.29-.08-.58-.11-.87-.07-.59-.14-1.19-.21-1.78-.26-2.35-.47-4.71-.61-7.06s-.23-4.73-.26-7.09-.03-4.74.03-7.1.16-4.73.3-7.1.31-4.72.53-7.07c.1-1.14.22-2.28.34-3.42.01-.13-.13-.25-.25-.25-.15,0-.23.12-.25.25h0Z"/>
          <path class="cls-8" d="M345.53,303.76c-.56,2.2-1.07,4.42-1.47,6.65s-.74,4.56-1.02,6.85-.48,4.61-.62,6.92-.22,4.66-.24,6.99.04,4.68.14,7.01.26,4.67.49,7,.51,4.7.85,7.04.71,4.58,1.14,6.85.9,4.47,1.43,6.69,1.08,4.31,1.69,6.45c.51,1.77,1.07,3.53,1.67,5.27s1.3,3.59,2.02,5.36,1.55,3.67,2.4,5.48,1.75,3.57,2.69,5.31,1.96,3.48,3.02,5.17,2.16,3.34,3.33,4.96,2.4,3.21,3.69,4.74,2.56,2.92,3.93,4.29,2.75,2.63,4.23,3.84,2.97,2.31,4.56,3.33c.75.48,1.52.93,2.29,1.38.42.25.8-.41.38-.65-.79-.46-1.55-.98-2.3-1.5-.38-.27-.76-.54-1.14-.81-.19-.14-.38-.28-.56-.42-.08-.06-.17-.13-.25-.19-.02-.02-.05-.04-.07-.05.04.03.1.08-.07-.06-.05-.04-.1-.07-.14-.11-.02-.02-.05-.04-.07-.06.02.01.06.05-.01,0-.04-.03-.08-.06-.13-.1-.1-.07-.19-.15-.29-.22-.18-.15-.37-.29-.55-.44-.36-.29-.72-.59-1.07-.89-.72-.61-1.42-1.25-2.11-1.89-1.4-1.31-2.74-2.69-4.01-4.11-.65-.72-1.28-1.46-1.9-2.21-.31-.37-.61-.75-.91-1.13-.15-.19-.31-.39-.46-.58-.07-.09-.15-.19-.22-.28-.02-.03-.04-.05-.06-.08,0,0,.06.07.02.02-.04-.06-.09-.11-.13-.17-1.2-1.57-2.35-3.18-3.44-4.82s-2.14-3.35-3.13-5.07-1.93-3.47-2.82-5.24-1.71-3.54-2.5-5.34c-.1-.22-.19-.44-.28-.65-.05-.11-.09-.22-.14-.33-.02-.05-.04-.1-.06-.15-.01-.03-.02-.06-.04-.09.06.13,0,.02,0,0-.19-.45-.37-.9-.56-1.35-.36-.89-.71-1.78-1.04-2.68-.66-1.75-1.27-3.52-1.83-5.3-.6-1.91-1.15-3.84-1.65-5.78-.57-2.19-1.1-4.4-1.58-6.61s-.92-4.5-1.31-6.76c-.19-1.13-.37-2.26-.54-3.4-.08-.58-.17-1.16-.24-1.73,0-.02-.02-.12,0-.01,0-.03,0-.06-.01-.08,0-.07-.02-.13-.03-.2-.02-.15-.04-.3-.06-.45-.04-.29-.07-.58-.11-.87-.28-2.31-.52-4.63-.7-6.95s-.31-4.65-.38-6.98-.08-4.65-.04-6.97.14-4.62.31-6.93.39-4.57.69-6.85.65-4.48,1.07-6.71c.2-1.07.42-2.14.66-3.21.06-.28-.36-.4-.43-.12h0Z"/>
        </g>
      </g>
      <g>
        <path class="cls-10" d="M106.63,430.24c2.36-7.08,1.65-12.41,1.61-16.97-3.15,3.41-7.92,7.15-12.47,8.75,1.36-3.82,2.68-9.56,2.79-13.04-3.84,3.42-9.42,5.74-14.29,7.86-4.94,2.19-10.24,3.37-15.51,4.11,3.8-5.52,9.56-17.56,8.53-24.86-7.7,7.63-15.33,14.56-25.47,16.97,8.42-22.6,13.54-45.95,17.05-70,1.33-8.93,2.11-17.86,2.54-26.83,7.27,7.23,17.19,13.97,26.94,11.86,5.09,22.12,10.21,41.28,25.61,58.99,6.81,7.74,14.69,14.6,23.1,20.83-11.35,12.12-25.65,19.86-40.44,22.34Z"/>
        <g class="cls-6">
          <path class="cls-8" d="M65.32,414.51c1.18-.47,2.32-1.09,3.34-1.84,1.09-.8,2.08-1.73,2.99-2.73.97-1.07,1.83-2.25,2.61-3.46s1.57-2.57,2.25-3.92c.72-1.41,1.38-2.86,2-4.32s1.19-2.95,1.72-4.45,1.01-2.98,1.48-4.48.87-2.89,1.28-4.34c.38-1.34.75-2.69,1.12-4.04.32-1.19.65-2.38.98-3.56.6-2.17,1.17-4.34,1.7-6.53s1.04-4.52,1.5-6.8.88-4.56,1.26-6.85.73-4.59,1.04-6.89.6-4.67.85-7.02.46-4.63.65-6.95.34-4.62.47-6.93.23-4.65.31-6.97.13-4.64.16-6.97.05-4.64.03-6.96c0-1.12-.03-2.23-.03-3.35,0-.25-.21-.46-.46-.46s-.47.21-.46.46c0,2.31-.04,4.61-.07,6.92s-.08,4.62-.15,6.93-.17,4.63-.28,6.94-.24,4.63-.4,6.94-.34,4.62-.55,6.93-.46,4.61-.73,6.91c-.07.57-.14,1.14-.21,1.72-.04.29-.07.57-.11.86-.02.14-.04.28-.05.41,0,.07-.02.14-.03.21,0,.04-.01.08-.02.12,0,.03-.01.09,0,.03-.16,1.15-.32,2.3-.49,3.45-.34,2.29-.72,4.57-1.14,6.84s-.87,4.54-1.37,6.8-1.03,4.5-1.61,6.74c-.42,1.63-.88,3.25-1.32,4.88-.34,1.27-.68,2.54-1.02,3.81-.38,1.39-.76,2.79-1.16,4.18-.43,1.48-.88,2.96-1.35,4.43s-.99,2.98-1.54,4.46c-.28.74-.56,1.49-.86,2.22-.07.18-.15.36-.22.54-.04.09-.07.17-.11.26-.02.04-.04.09-.05.13-.02.05,0-.02,0-.02-.01.03-.03.06-.04.09-.15.36-.31.72-.47,1.07-.62,1.4-1.3,2.78-2.05,4.12s-1.49,2.52-2.35,3.7c-.1.14-.21.28-.31.42-.03.03-.05.07-.08.1-.01.02-.08.11-.03.04-.06.08-.12.15-.18.23-.11.14-.22.27-.33.4-.06.07-.12.14-.18.22-.07.08-.03.03-.01.01-.01.02-.03.04-.05.05-.03.04-.06.07-.09.11-.43.52-.88,1.01-1.36,1.49s-.95.9-1.46,1.31c-.25.2-.44.35-.72.55-.26.19-.52.36-.78.53-.51.33-1.05.61-1.6.87-.21.1-.06.46.16.38h0Z"/>
          <path class="cls-8" d="M83.25,425.2c2.3-1.26,4.24-3.08,5.89-5.1,1.78-2.2,3.2-4.7,4.46-7.22s2.38-5.24,3.41-7.93c.48-1.24.94-2.5,1.39-3.75s.96-2.61,1.42-3.93c1.25-3.62,2.21-7.33,2.98-11.07s1.34-7.54,1.84-11.34.92-7.63,1.38-11.44.94-7.8,1.37-11.7.8-7.89,1.05-11.85.39-7.83.33-11.75c-.02-.94-.05-1.89-.08-2.83,0-.25-.21-.48-.47-.47s-.48.21-.47.47c.06,1.95.02,3.9-.02,5.85s-.11,3.92-.22,5.88c-.22,3.92-.56,7.83-.95,11.73s-.86,7.83-1.33,11.73-.9,7.64-1.37,11.46c-.12.96-.24,1.91-.36,2.87-.03.21-.06.43-.08.64,0,.06-.02.12-.02.18.02-.12-.01.07-.01.08-.02.14-.04.27-.06.41-.06.47-.13.93-.2,1.4-.27,1.88-.56,3.75-.89,5.62-.66,3.72-1.48,7.41-2.57,11.03-.86,2.88-1.93,5.71-2.95,8.54-.46,1.28-.93,2.56-1.43,3.82-.26.67-.53,1.33-.8,2-.06.15-.12.3-.19.45-.02.04-.03.08-.05.12-.06.14.04-.1-.02.04-.04.1-.08.19-.12.29-.14.33-.28.65-.43.98-1.16,2.6-2.43,5.16-4.01,7.54-1.45,2.19-3.05,4.23-5.13,5.9-.47.38-.96.73-1.47,1.05-.2.13-.02.44.19.32h0Z"/>
          <path class="cls-8" d="M100.66,428.28c.38-.18.75-.4,1.12-.6.4-.21.75-.49,1.09-.78.74-.63,1.37-1.38,1.95-2.15,1.28-1.72,2.27-3.65,3.12-5.62.05-.12.11-.25.16-.37.04-.08.07-.17.11-.25,0,0,.05-.13.02-.05.02-.06.05-.12.07-.18.11-.27.21-.53.32-.8.2-.52.39-1.04.58-1.57.37-1.05.71-2.12,1.03-3.19.54-1.84,1.02-3.71,1.43-5.58.61-2.81,1.15-5.63,1.67-8.46.59-3.21,1.12-6.43,1.58-9.65s.87-6.55,1.17-9.84.52-6.57.62-9.86.09-6.5-.06-9.75-.43-6.5-.89-9.73c-.11-.77-.24-1.54-.36-2.31-.04-.25-.37-.42-.6-.34-.28.09-.38.33-.34.6.24,1.53.41,3.11.58,4.69s.29,3.21.39,4.81c.2,3.22.26,6.45.22,9.67s-.2,6.54-.46,9.79-.6,6.49-1.01,9.72c-.11.84-.2,1.51-.31,2.34s-.23,1.62-.35,2.42c-.24,1.6-.5,3.2-.77,4.79-.54,3.16-1.13,6.31-1.76,9.46-.37,1.82-.77,3.62-1.23,5.42-.55,2.12-1.17,4.21-1.93,6.26-.19.52-.39,1.04-.6,1.56s-.39.95-.64,1.5c-.44.97-.92,1.92-1.46,2.85-.5.85-1.05,1.69-1.67,2.43-.57.69-1.21,1.31-1.89,1.92-.3.27-.64.47-1.01.65-.14.07-.02.28.12.21h0Z"/>
          <path class="cls-8" d="M114.53,441.21c2.16-1.83,4.04-4.01,5.64-6.35s3.05-5.05,4.3-7.73,2.28-5.2,3.37-7.81c1.2-2.88,2.19-5.85,2.96-8.87s1.37-6.21,1.81-9.36.76-6.45.98-9.69.35-6.54.45-9.82.16-6.56.23-9.84.16-6.47.31-9.7.35-6.31.69-9.45c.08-.75.16-1.5.26-2.25.03-.25-.25-.5-.48-.48-.29.01-.45.21-.48.48.01-.11-.02.12-.02.15,0,.05-.01.1-.02.15-.01.08-.02.17-.03.25-.03.2-.05.41-.08.61-.05.38-.09.75-.13,1.13-.09.77-.17,1.55-.24,2.32-.15,1.58-.27,3.16-.37,4.74-.21,3.21-.32,6.43-.41,9.65s-.15,6.52-.22,9.77-.17,6.52-.34,9.78-.41,6.45-.78,9.66c-.04.39-.09.78-.14,1.17-.02.19-.05.39-.07.58-.01.11-.03.21-.04.32,0,.01-.01.1,0,.02,0,.07-.02.14-.03.21-.11.79-.22,1.58-.35,2.36-.25,1.56-.54,3.11-.88,4.66-.66,3.05-1.5,6.07-2.56,9.01-.49,1.36-1.04,2.69-1.58,4.02s-1.06,2.61-1.59,3.86c-1.15,2.7-2.39,5.37-3.84,7.92-.72,1.26-1.45,2.51-2.27,3.71s-1.67,2.28-2.65,3.3c-.46.49-.97.94-1.48,1.38-.08.07.04.18.12.12h0Z"/>
        </g>
      </g>
      <g>
        <path class="cls-10" d="M365.79,240.99c-3.44.15-7.13,1.37-11.07,3.96l-3.83,11.01c-5.8-13.53-13.22-25.98-20.99-38.5-35.78-10.19-68.92-28.05-100.12-48.84-21.03-14.04-39.12-30.79-55.16-49.69-5.7,5.19-10.96,10.15-16.08,15.34-8.31,8.37-16.48,17.79-23.18,27.64-17.66,25.98-29.17,75.4-47.43,82.71l-2.11-4.04c-5.23-2.71-10.03-2.93-14.26-1.45.21-19.86,1.43-39.69,5.8-59.25,2.9-13.01,6.98-25.53,12.68-37.39,11.1-23.16,28.76-42.32,49.22-55.36,33.17-21.2,74.08-25.16,111.29-18.57,16.62,2.96,32.95,9.23,47.53,18.57,20.45,13.04,38.11,32.2,49.22,55.36,5.7,11.86,9.78,24.38,12.68,37.39,4.51,20.2,5.66,40.61,5.8,61.11Z"/>
        <g class="cls-4">
          <path class="cls-8" d="M169.84,112.46c-1.27.52-2.52,1.04-3.7,1.66s-2.33,1.25-3.47,1.92c-2.23,1.31-4.38,2.76-6.46,4.31s-4.1,3.21-6.04,4.96-3.71,3.5-5.45,5.37-3.43,3.83-5.04,5.84-3.19,4.13-4.69,6.27-2.93,4.33-4.31,6.55-2.71,4.49-4,6.78-2.55,4.67-3.77,7.04-2.39,4.76-3.55,7.17-2.29,4.87-3.41,7.31-2.2,4.9-3.28,7.35-2.15,4.9-3.22,7.36-2.12,4.87-3.2,7.31-2.13,4.81-3.22,7.2-2.17,4.71-3.29,7.04-2.24,4.57-3.41,6.83-2.44,4.58-3.7,6.85c-1.42,2.56-2.91,5.09-4.6,7.48-.21.3-.42.59-.64.88-.11.15-.23.3-.34.45-.05.06-.1.13-.14.19.07-.09-.02.03-.03.04-.04.05-.08.1-.12.15-.45.58-.92,1.14-1.41,1.69-.95,1.07-1.96,2.07-3.06,2.98-.13.11-.27.22-.4.32-.01,0-.13.1-.03.03-.02.02-.05.04-.07.05l-.11.08s.05-.04,0,0c-.04.03-.07.05-.11.08-.27.2-.53.39-.81.58-.55.37-1.12.72-1.71,1.03-.23.12-.32.47-.18.68.15.24.43.31.68.18,2.55-1.31,4.72-3.19,6.61-5.34s3.66-4.71,5.21-7.25c1.46-2.39,2.79-4.85,4.13-7.3,1.2-2.21,2.36-4.43,3.48-6.68s2.27-4.62,3.36-6.96,2.18-4.73,3.25-7.11,2.15-4.85,3.22-7.28,2.13-4.88,3.2-7.31,2.16-4.91,3.25-7.36,2.2-4.9,3.34-7.33,2.28-4.83,3.46-7.23,2.4-4.77,3.66-7.13,2.53-4.63,3.86-6.9,2.71-4.5,4.16-6.69,2.9-4.28,4.45-6.36c.2-.26.4-.53.6-.79.09-.12.18-.24.28-.36.05-.07.1-.13.15-.2.02-.02.03-.04.05-.07.02-.02.03-.04.05-.07-.05.06-.05.06-.01.02.4-.51.79-1.02,1.2-1.52.81-1,1.63-2,2.47-2.97,1.67-1.93,3.4-3.81,5.21-5.61s3.72-3.54,5.69-5.18c.49-.41.98-.81,1.48-1.21.25-.2.51-.4.76-.6.03-.03.07-.05.1-.08-.1.08,0,0,.02-.02.05-.04.11-.08.16-.13.13-.1.26-.2.39-.3,1.03-.78,2.09-1.54,3.16-2.27,2.17-1.48,4.4-2.87,6.69-4.14,1.1-.61,2.22-1.28,3.37-1.9.22-.12.07-.51-.17-.41h0Z"/>
          <path class="cls-8" d="M147.14,109.54c-.47.42-.94.83-1.4,1.25s-.91.84-1.37,1.26c-.9.81-1.8,1.63-2.7,2.44-1.81,1.62-3.63,3.23-5.41,4.9s-3.58,3.42-5.25,5.25-3.28,3.81-4.82,5.8-2.9,3.9-4.26,5.91-2.64,4.05-3.87,6.12-2.42,4.19-3.56,6.32-2.27,4.33-3.34,6.53-2.2,4.57-3.25,6.87c-1.11,2.44-2.18,4.89-3.21,7.35s-2.01,4.87-2.98,7.32-1.9,4.89-2.83,7.35-1.83,4.91-2.72,7.38-1.78,4.93-2.66,7.4-1.77,4.94-2.65,7.41-1.78,4.95-2.69,7.42-1.84,4.97-2.79,7.44-1.84,4.94-2.74,7.41-1.79,4.93-2.71,7.39c-.46,1.23-.94,2.45-1.42,3.67s-.98,2.45-1.46,3.57c-.25.58-.48,1.13-.75,1.75s-.51,1.18-.79,1.77c-.11.23-.07.55.18.68.22.12.56.07.68-.18.56-1.19,1.13-2.37,1.66-3.58s1.05-2.46,1.55-3.71c.98-2.43,1.9-4.89,2.8-7.35s1.8-4.94,2.71-7.41,1.87-4.94,2.8-7.41,1.84-4.94,2.74-7.41,1.79-4.94,2.67-7.41,1.76-4.94,2.65-7.41,1.78-4.93,2.68-7.39,1.82-4.92,2.76-7.37,1.9-4.9,2.89-7.34,1.97-4.78,3.04-7.22,2.14-4.8,3.27-7.18c1.05-2.21,2.12-4.41,3.24-6.59s2.25-4.3,3.44-6.41,2.42-4.18,3.71-6.22,2.63-4.06,4.03-6.04,2.85-3.88,4.38-5.77,3.28-3.79,5.04-5.58,3.47-3.41,5.25-5.05c.89-.82,1.76-1.67,2.64-2.51s1.77-1.69,2.63-2.56c.42-.42.83-.84,1.24-1.27s.82-.9,1.22-1.36c.14-.16-.08-.38-.24-.24h0Z"/>
          <path class="cls-8" d="M186.03,113.16c1.22,1.35,2.45,2.69,3.68,4.03s2.49,2.67,3.75,3.99,2.52,2.61,3.79,3.9,2.56,2.58,3.86,3.85,2.58,2.52,3.88,3.77,2.62,2.5,3.94,3.74,2.64,2.44,3.97,3.65,2.68,2.42,4.04,3.61,2.7,2.36,4.06,3.53,2.74,2.33,4.13,3.48,2.77,2.27,4.17,3.39,2.82,2.24,4.24,3.34,2.89,2.22,4.35,3.32,2.89,2.14,4.34,3.19,2.91,2.08,4.38,3.1,2.96,2.04,4.46,3.03,2.99,1.97,4.5,2.94,3.03,1.92,4.56,2.85,3.09,1.87,4.65,2.78,3.12,1.8,4.69,2.68,3.18,1.75,4.78,2.6,3.21,1.68,4.82,2.49,3.27,1.62,4.92,2.41,3.35,1.57,5.03,2.33c1.84.83,3.67,1.66,5.51,2.48s3.67,1.61,5.51,2.39,3.77,1.58,5.67,2.33,3.73,1.44,5.61,2.11,3.8,1.31,5.72,1.89,3.85,1.12,5.8,1.61c1.7.42,3.4.82,5.1,1.21s3.52.78,5.29,1.15,3.6.72,5.41,1.04,3.69.63,5.55.91,3.78.53,5.68.74,3.76.38,5.64.51,3.73.22,5.6.25,3.72.02,5.58-.04,3.64-.19,5.46-.38,3.62-.44,5.41-.78c1.67-.32,3.31-.72,4.96-1.15.49-.13.28-.88-.21-.75-1.7.45-3.43.79-5.17,1.07-.44.07-.88.14-1.32.2-.42.06-.86.12-1.26.18-.89.12-1.79.22-2.68.3-1.82.17-3.64.27-5.46.33s-3.7.06-5.55,0-3.74-.15-5.61-.29-3.75-.32-5.62-.54c-.48-.06-.95-.11-1.43-.17-.23-.03-.46-.06-.69-.09-.11-.01-.22-.03-.33-.04-.05,0-.11-.01-.16-.02-.06,0,0,0,0,0-.05,0-.09-.01-.14-.02-.93-.13-1.86-.26-2.78-.4-1.84-.28-3.68-.59-5.51-.93s-3.6-.69-5.4-1.07-3.5-.76-5.25-1.16-3.43-.81-5.14-1.24c-1.94-.49-3.87-1.05-5.79-1.64s-3.8-1.24-5.68-1.92-3.74-1.39-5.6-2.14c-.93-.37-1.85-.75-2.78-1.13-.24-.1-.47-.2-.71-.29-.11-.05-.22-.09-.33-.14-.07-.03,0,0,.01,0-.03-.01-.05-.02-.08-.03-.06-.03-.13-.05-.19-.08-.46-.19-.92-.39-1.38-.59-1.84-.79-3.67-1.6-5.5-2.42s-3.66-1.65-5.48-2.47c-1.67-.76-3.34-1.53-5-2.32s-3.27-1.58-4.89-2.4-3.24-1.66-4.84-2.51-3.18-1.71-4.75-2.59-3.13-1.77-4.68-2.68-3.09-1.83-4.62-2.77-3.05-1.89-4.56-2.86-3.01-1.95-4.5-2.94-2.97-2-4.44-3.02-2.93-2.05-4.38-3.1-2.89-2.1-4.32-3.17c-.72-.54-1.43-1.07-2.14-1.62-.36-.27-.71-.54-1.07-.81-.18-.14-.36-.28-.54-.42-.08-.06-.17-.13-.25-.19-.02-.02-.04-.03-.06-.05,0,0,.08.06.02.02-.05-.04-.1-.08-.15-.11-1.42-1.1-2.82-2.2-4.22-3.32s-2.79-2.25-4.17-3.39-2.76-2.29-4.13-3.45-2.75-2.34-4.11-3.53-2.7-2.37-4.04-3.57-2.67-2.41-4-3.63-2.65-2.44-3.97-3.68-2.63-2.48-3.93-3.73-2.6-2.51-3.9-3.77-2.59-2.53-3.88-3.8-2.58-2.55-3.87-3.83-2.49-2.48-3.72-3.72c-.14-.14-.35.07-.22.22h0Z"/>
          <path class="cls-8" d="M314.85,217.75c1.13.11,2.27.25,3.4.38s2.23.28,3.34.44,2.24.33,3.37.5c.56.08,1.12.17,1.69.25.28.04.56.08.84.13.13.02.26.04.39.06.19.03.31.04.45.06,2.29.31,4.58.61,6.88.81s4.39.28,6.59.38,4.32.18,6.48.23,4.32.06,6.48.02,4.31-.14,6.45-.31,4.32-.42,6.47-.75,4.25-.76,6.33-1.29,4.2-1.19,6.24-1.99c.25-.1.5-.2.74-.3s.5-.25.76-.35c.15-.06.26-.2.21-.37-.04-.15-.22-.27-.37-.21-.25.1-.53.16-.79.25s-.52.18-.78.27c-.52.17-1.04.34-1.57.5-1.04.31-2.09.63-3.14.9-2.08.55-4.19.99-6.31,1.34-.53.09-1.06.17-1.6.25-.57.08-.97.14-1.51.21-1.07.13-2.14.25-3.21.34-2.13.19-4.27.3-6.42.35s-4.32.05-6.47.02-4.3-.1-6.46-.2-4.34-.19-6.51-.32-4.52-.37-6.77-.65-4.51-.57-6.77-.8-4.5-.46-6.75-.45c-.56,0-1.11.01-1.67.03-.18,0-.18.26,0,.28h0Z"/>
          <path class="cls-8" d="M341.31,220.05c.14.11.26.24.4.33s.28.17.42.26.28.18.41.28c.17.12.28.2.42.3.03.02.06.04.09.07.05.04.02.01,0,0,.02.01.03.03.05.04.07.05.14.11.21.17.13.11.26.21.39.32.26.22.51.45.75.69.51.49,1,1,1.47,1.53.24.27.47.55.7.83.05.07.11.13.16.2.03.04.06.07.08.11.01.02.03.04.04.05.04.05-.05-.07,0,0,.11.15.22.29.33.44.91,1.24,1.72,2.55,2.45,3.9.38.71.75,1.43,1.09,2.17.17.37.34.74.51,1.12.08.19.16.38.25.57.01.02.02.05.03.07,0-.01-.05-.12-.01-.03.02.04.03.08.05.13.04.1.08.2.13.3.65,1.56,1.23,3.15,1.75,4.75s.99,3.27,1.42,4.92.79,3.25,1.13,4.89.6,3.15.85,4.73c.06.37.11.75.17,1.12.03.18.05.37.08.55.01.09.02.17.04.26,0,.02,0,.05,0,.07,0,.07-.01-.11,0-.04,0,.05.01.1.02.15.09.7.18,1.41.25,2.11.14,1.27.26,2.54.34,3.81.02.28.03.55.04.83,0,.25.21.48.47.47s.48-.21.47-.47c-.05-1.23-.1-2.46-.2-3.68-.11-1.42-.27-2.84-.46-4.26-.21-1.61-.46-3.21-.75-4.8s-.65-3.28-1.04-4.9-.85-3.32-1.36-4.95-1.07-3.25-1.71-4.84-1.33-3.12-2.12-4.62c-.73-1.39-1.54-2.74-2.45-4.01s-1.82-2.37-2.9-3.4c-.99-.96-2.15-1.8-3.36-2.46-.14-.08-.28-.15-.42-.22s-.32-.1-.5-.15c-.16-.04-.31.18-.17.29h0Z"/>
          <path class="cls-8" d="M211.66,117.01c2.04,1.64,3.99,3.38,5.9,5.16s3.84,3.57,5.76,5.36,3.85,3.57,5.81,5.32,3.97,3.44,6.02,5.08,4.16,3.3,6.27,4.91,4.18,3.14,6.3,4.66,4.27,3,6.45,4.45,4.39,2.85,6.62,4.22,4.42,2.64,6.65,3.91,4.41,2.48,6.64,3.68,4.5,2.38,6.77,3.52,4.58,2.27,6.89,3.36,4.65,2.14,7,3.16,4.78,2.03,7.2,2.99,4.78,1.85,7.19,2.71,4.84,1.67,7.28,2.44,4.89,1.48,7.35,2.15,4.93,1.28,7.41,1.83,4.97,1.06,7.47,1.49c1.24.21,2.48.42,3.72.6s2.55.35,3.86.5c1.21.14,2.42.24,3.62.37.21.02.38-.19.38-.38,0-.22-.18-.36-.38-.38-2.49-.26-4.97-.67-7.45-1.07s-4.97-.87-7.44-1.38-4.97-1.09-7.43-1.72-4.91-1.31-7.34-2.03-4.88-1.51-7.3-2.34-4.82-1.69-7.2-2.6-4.76-1.86-7.12-2.85c-.35-.15-.45-.19-.8-.34-.3-.13-.59-.25-.89-.38-.59-.25-1.19-.51-1.78-.77-1.16-.51-2.33-1.03-3.48-1.56-2.33-1.06-4.64-2.16-6.94-3.29s-4.54-2.27-6.79-3.45-4.46-2.38-6.67-3.6-4.4-2.47-6.58-3.75-4.5-2.7-6.71-4.11-4.36-2.84-6.5-4.32-4.26-2.98-6.36-4.52c-1.05-.77-2.1-1.55-3.15-2.34-.52-.39-1.04-.79-1.55-1.18-.26-.2-.52-.4-.78-.6-.03-.02-.06-.05-.09-.07.08.06,0,0-.02-.01-.06-.05-.12-.1-.18-.14-.14-.11-.28-.21-.41-.32-2.07-1.61-4.13-3.23-6.13-4.91s-3.99-3.41-5.96-5.16-3.9-3.49-5.86-5.22-3.99-3.41-6.05-5.05c-.99-.78-1.98-1.56-2.99-2.32-.18-.14-.42.17-.24.31h0Z"/>
          <path class="cls-8" d="M289.37,145.11c-.36-.23-.71-.48-1.07-.71s-.73-.45-1.1-.69c-.73-.48-1.45-.97-2.16-1.49-1.42-1.03-2.83-2.05-4.22-3.13s-2.74-2.14-4.11-3.2-2.82-2.15-4.29-3.14c-3.14-2.12-6.35-4.15-9.54-6.2s-6.45-4.17-9.61-6.36-6.13-4.27-9.26-6.31-6.34-4.04-9.6-5.93c-3.08-1.78-6.21-3.47-9.45-4.96-3.03-1.4-6.14-2.63-9.31-3.68s-6.23-1.87-9.4-2.56c-3.34-.73-6.72-1.27-10.12-1.67-.85-.1-1.7-.12-2.55-.22-.15-.02-.29.14-.29.29,0,.17.13.27.29.29.44.05.87.14,1.3.21s.87.14,1.31.21c.86.13,1.73.26,2.59.41,1.66.28,3.32.58,4.97.92,3.2.66,6.37,1.46,9.48,2.44,1.55.49,3.08,1.02,4.6,1.59.77.29,1.54.59,2.31.91.18.07.35.14.53.22.1.04.19.08.29.12.16.07-.1-.04.06.02.05.02.1.04.14.06.38.16.77.33,1.15.5,3.17,1.4,6.25,2.97,9.26,4.67,3.29,1.85,6.52,3.79,9.7,5.82s6.23,4.09,9.29,6.22c1.56,1.08,3.11,2.18,4.68,3.23s3.18,2.11,4.79,3.15c3.19,2.07,6.42,4.08,9.61,6.15,1.51.98,3,1.98,4.47,3.02s2.84,2.08,4.25,3.13,2.81,2.12,4.26,3.11,2.9,1.88,4.44,2.68c.37.19.74.38,1.11.56s.75.31,1.13.44c.09.03.14-.11.07-.16h0Z"/>
        </g>
      </g>
      <path class="cls-1" d="M104.94,156.86c5.83-2.78,17.73-7.97,19.52-9.2,2.31-1.6,1.39-7.31,1.25-8.88-.36-4.2-2.47-3.39-6.09-2.38-9.96,2.76-19.13,6.75-28.38,11.36-5.82,2.89-12.12,6.32-13.58,13.07-.4,1.83-1.24,6.02-.32,7.76,1.7,3.23,4.4.47,6.89-1.05,7.23-4.43,13.09-7.03,20.71-10.67Z"/>
      <path class="cls-1" d="M332.38,156.86c-5.83-2.78-17.73-7.97-19.52-9.2-2.31-1.6-1.39-7.31-1.25-8.88.36-4.2,2.47-3.39,6.09-2.38,9.96,2.76,19.13,6.75,28.38,11.36,5.82,2.89,12.12,6.32,13.58,13.07.4,1.83,1.24,6.02.32,7.76-1.7,3.23-4.4.47-6.89-1.05-7.23-4.43-13.09-7.03-20.71-10.67Z"/>
    </g>
  </g>
  <g>
    <path class="cls-7" d="M709.1,414.21c-66.34-4.97-93.34-15.43-93.34-15.43,0,0,2.11-14.14,2.97-20.66,2.71-20.29,4.08-40.92,4.79-61.51,6.68,5.6,14.88,9.98,23,8.2,5.08,22.15,10.24,41.33,25.64,59.06,10.42,11.95,23.37,21.63,36.95,30.35Z"/>
    <g class="cls-5">
      <path class="cls-7" d="M435.95,335.14c.09,0,.09-.13,0-.13s-.09.13,0,.13h0Z"/>
    </g>
  </g>
</svg>