<?xml version="1.0" encoding="UTF-8"?>
<svg id="Layer_1" data-name="Layer 1" xmlns="http://www.w3.org/2000/svg" xmlns:xlink="http://www.w3.org/1999/xlink" viewBox="0 0 500 500">
  <defs>
    <style>
      .cls-1 {
        fill: #80acff;
      }

      .cls-2 {
        fill: #f5f6dd;
      }

      .cls-3 {
        fill: #e2f6eb;
      }

      .cls-4 {
        fill: #5fd991;
      }

      .cls-5 {
        fill: #ff7868;
      }

      .cls-6 {
        fill: #28318c;
      }

      .cls-7 {
        clip-path: url(#clippath);
      }
    </style>
    <clipPath id="clippath">
      <path class="cls-5" d="M336.9,236.5c-3.14,10.38-23.95,13.41-47.67,7.38-1.68-.41-3.36-.87-5.06-1.38s-3.38-1.07-5-1.66c-23.08-8.14-38.68-22.2-35.54-32.58,2.61-8.62,15.39-35.19,39.43-41.04l10.25-33.84c-7.02-10.53-4.63-23.04-3.08-28.15,2.35-7.75,18.82-9.61,36.79-4.17,17.96,5.44,30.64,16.14,28.29,23.88-1.55,5.11-6.5,16.84-18.18,21.71l-10.29,33.98c16.45,18.19,12.66,47.31,10.06,55.88Z"/>
    </clipPath>
  </defs>
  <g>
    <path class="cls-1" d="M463.14,401.19c-10.77.12-21.57.38-32.35.41-13.46,0-26.91-.02-40.34,0-18.29,0-150.48-.12-154.38,0-14.1,0-28.2.48-42.33.48s-26.91-.02-40.32,0c-12.19,0-74.87-.05-116.55-.05,2.08-3.85,4.17-7.73,6.25-11.61,6.68-12.43,12.95-25.09,19.63-37.49,1.15-2.3,28.42-52.91,49.56-92.16,34.53.02,69.6.02,78.39.02h40.32c14.13,0,28.25-.48,42.33-.48,2.75-.07,69.12-.02,114.54-.02,21.19,39.31,48.68,90.34,49.82,92.63,6.66,12.4,12.93,25.07,19.63,37.49,1.94,3.59,3.85,7.18,5.79,10.77Z"/>
    <path class="cls-2" d="M166.84,392.49h-13.44s-76.39-.03-100.52-.04c2.88-5.41,5.71-10.89,8.46-16.21,3.2-6.19,6.5-12.59,9.84-18.78l.13-.26c1.26-2.48,27.48-51.15,46.71-86.86,32.6.02,64.37.02,72.67.02h40.32c7.15,0,14.38-.12,21.36-.24,6.89-.12,14.01-.24,20.97-.24h.25c1.06-.03,11.56-.04,31.2-.04l77.37.02c39.48,73.25,46.41,86.22,46.99,87.35l.12.23c3.17,5.92,6.33,12.03,9.38,17.94,2.79,5.4,5.66,10.96,8.59,16.46-5.49.09-10.99.16-16.47.17h-26.88s-13.46,0-13.46,0h-28.43c-25.24-.03-61.19-.05-88.24-.05-33.27,0-37,.04-37.82.05-7.09,0-14.25.12-21.18.24-6.9.12-14.04.24-21.02.24h-26.9Z"/>
    <path class="cls-4" d="M101.64,389.48c2.87-5.52,5.74-11.05,8.65-16.55,5.79-10.94,11.5-21.92,17.32-32.84,2.15-4.04,4.31-8.07,6.47-12.11-3.87-.23-7.75-.4-11.62-.71-8.5-.69-16.96-1.7-25.46-2.34-2.71-.2-5.42-.34-8.13-.44-9.58,17.8-16.9,31.44-17.56,32.72l-.13.26c-3.34,6.19-6.64,12.59-9.84,18.78-2.75,5.32-5.58,10.8-8.46,16.21,9.88,0,28.54.01,47.12.02.56-.99,1.11-1.99,1.63-3Z"/>
    <path class="cls-4" d="M210,387.05c-2.02-3.99-4.02-7.99-6.04-11.98-1.68-3.32-3.44-6.62-5.04-9.98-1.27-2.67-2.39-5.41-3.52-8.14-.58-1.4-1.16-2.8-1.74-4.2-.14-.32-.8-1.88-.23-.55-.13-.31-.27-.63-.4-.95-.3-.7-.6-1.39-.9-2.09-.73-1.67-1.5-3.33-2.3-4.97-.45-.31-.86-.71-1.08-1.13-.62-1.2-1.11-2.46-1.52-3.76-.47-.81-.92-1.63-1.43-2.42-.39-.6-.79-1.18-1.21-1.76-.05-.07-.1-.14-.15-.2-.17-.22-.35-.43-.52-.64-.74-.87-1.54-1.64-2.4-2.39-.03-.02-.06-.04-.09-.06-.22-.15-.45-.26-.68-.38,0,0-.01,0-.02,0-.32-.11-.64-.2-.97-.28-.28-.07-.55-.12-.83-.17-.04,0-.21-.03-.55-.09-.69-.07-1.38-.12-2.08-.16-1.57-.07-3.15-.05-4.72-.03-1.44.02-2.89.06-4.33.03-1.72-.04-3.43-.23-5.14-.38-4.43-.38-8.86-.8-13.29-1.2-1.9-.17-3.8-.34-5.7-.5-3.39,6.35-6.77,12.7-10.15,19.05-5.81,10.92-11.59,21.86-17.41,32.77-1.44,2.7-2.91,5.38-4.37,8.07-.71,1.31-1.41,2.63-2.12,3.94,23.41.01,44.35.02,44.35.02h13.44s26.9,0,26.9,0c6.29,0,12.69-.1,18.94-.21-.89-1.75-1.79-3.5-2.67-5.25Z"/>
    <path class="cls-4" d="M128.66,319.76c3.16.17,6.32.39,9.47.61,2.29-4.3,4.58-8.59,6.84-12.9,5.58-10.65,10.8-21.49,15.93-32.37.74-1.57,1.47-3.16,2.2-4.73-12.99,0-28.93,0-45.07-.02-7.93,14.71-17.04,31.62-25.1,46.6,3.41.16,6.81.41,10.19.68,8.52.68,17.01,1.68,25.54,2.13Z"/>
    <path class="cls-4" d="M190.69,270.37c-3.17,0-9.77,0-18.51,0-1.94,4.2-3.87,8.4-5.84,12.58-5.1,10.83-10.38,21.58-16.01,32.15-1.06,1.98-2.11,3.97-3.17,5.95,2.87.24,5.73.46,8.6.72,3.86.35,7.77.87,11.65.95,3.1.06,6.19-.15,9.29.02,1.93.1,3.98.31,5.88.89.02-.01.03-.03.05-.04.37-.33.72-.61,1.12-.92,0,0-.77.61-.34.26,1.17-.95,2.28-1.97,3.37-3.02,2.46-2.37,4.71-4.94,6.92-7.53,3.8-4.46,7.32-9.15,11.15-13.58,5.37-6.22,10.8-12.4,16.2-18.59,2.87-3.28,5.75-6.55,8.63-9.83h-38.98Z"/>
    <path class="cls-4" d="M225.26,288.07c.05.56.09,1.13.14,1.69.01.07.02.15.03.22.04.26.09.52.14.78.2,1.08.47,2.14.8,3.19.17.54.35,1.09.54,1.62.1.29.21.57.32.86.02.05.04.09.05.14.82,1.83,1.75,3.59,2.8,5.3.53.86,1.09,1.7,1.68,2.52.16.22.32.44.49.66.03.04.04.05.06.08.27.34.55.69.83,1.02,1.33,1.59,2.76,3.08,4.27,4.49.74.69,1.48,1.36,2.25,2.01.41.34.82.68,1.24,1.01.15.11.29.22.44.33,1.58,1.17,3.23,2.25,4.94,3.22.85.49,1.72.94,2.61,1.35.43.2.88.41,1.33.59.03.01.06.02.09.04.26.11.52.21.78.31,3.79,1.46,7.75,2.45,11.77,3.05,4.89.61,9.84.61,14.73,0,2.97-.44,5.9-1.07,8.76-1.97,1.31-.41,2.73-.82,3.98-1.43.06-.02.12-.05.17-.07.15-.06.29-.13.44-.19.33-.15.65-.3.97-.45.56-.26,1.11-.54,1.66-.82,1.84-.96,3.6-2.05,5.29-3.25.4-.29.8-.59,1.2-.88,0,0,.02-.02.03-.02.22-.18.44-.35.66-.53.83-.68,1.64-1.39,2.42-2.12,1.62-1.5,3.15-3.11,4.59-4.79.36-.42.71-.84,1.06-1.27.17-.21.33-.41.5-.62.67-.88,1.31-1.77,1.93-2.69,1.26-1.85,2.41-3.76,3.46-5.73.53-.99,1.03-1.99,1.5-3,.24-.52.47-1.05.71-1.57.1-.25.21-.51.31-.76,1.56-3.96,2.69-8.08,3.31-12.29.33-2.74.42-5.49.26-8.24h-16c-19.64,0-30.14,0-31.2.03h-.25c-6.95,0-14.08.12-20.97.24-3.86.07-7.8.13-11.76.17-5.15,5.83-10.27,11.68-15.4,17.53.01.08.03.16.04.24Z"/>
    <path class="cls-4" d="M319.29,378.73c-3.25-5.97-6.36-12.02-9.49-18.05-3.16-6.1-6.31-12.22-9.38-18.37-2.51-5.03-5-10.07-7.23-15.23-5.24,2.13-10.75,3.44-16.41,4.06-13.94,1.54-28.86-1.69-40.1-10.28-5.68-4.34-10.64-9.66-14.07-15.97-1.68-3.08-2.96-6.52-3.61-9.97,0,0,0-.01,0-.02-3.29,3.74-6.58,7.48-9.79,11.28-3.92,4.63-7.65,9.42-11.73,13.92-.84.93-1.72,1.83-2.6,2.73-.71,1.8-1.26,3.68-1.57,5.59-.2,1.77-.21,3.55-.01,5.33,0,.05.02.1.03.15,3.03,4.88,5.32,10.22,7.54,15.49.61,1.45,1.21,2.9,1.81,4.35.29.71.59,1.42.88,2.13.11.27.22.53.33.8.05.13.1.23.13.3,1.07,2.52,2.25,4.97,3.49,7.41,4.01,7.89,7.94,15.83,11.94,23.73.68,1.35,1.39,2.7,2.08,4.05,4.78-.07,9.6-.13,14.4-.14.82-.02,4.56-.05,37.82-.05,15.9,0,34.86,0,52.93.02-2.49-4.41-4.98-8.81-7.4-13.26Z"/>
    <path class="cls-4" d="M318.39,357.5c1.67-.89,3.3-1.84,4.92-2.82,3.41-2.07,6.77-4.2,10.1-6.4,5.91-3.9,11.75-7.87,17.82-11.52,7.25-4.35,14.45-8.79,21.64-13.23,7.19-4.44,14.36-8.92,21.64-13.22,2.39-1.41,4.87-2.66,7.33-3.93-5.44-10.1-11.93-22.14-19.68-36.53h-53.02c.26,4.88-.18,9.84-1.25,14.57-2.58,11.37-8.61,22.11-16.74,30.44-3.34,3.42-7.16,6.48-11.31,8.91,3.15,5.58,6.01,11.33,8.97,17.02,2.96,5.71,5.89,11.43,8.85,17.13.25-.14.48-.29.73-.43Z"/>
    <path class="cls-4" d="M389.18,385.65c-1.31-2.06-2.5-4.19-3.63-6.35-2.02-3.84-3.82-7.8-5.9-11.61-2.45-4.49-4.96-8.94-7.56-13.35-1.15-1.95-2.27-3.92-3.47-5.83-.99-1.57-2.06-3.08-3.1-4.62-.95-1.41-1.88-2.9-2.67-4.46-3.25,2-6.5,4.01-9.76,6.01-6.05,3.7-11.87,7.74-17.83,11.59-3,1.94-6.01,3.84-9.14,5.56-1.56.86-3.14,1.69-4.78,2.4,2.11,4,4.23,7.98,6.41,11.94,2.77,5.04,5.6,10.04,8.39,15.07,9.25,0,18.06.01,25.84.02h20.74c2.57-1.49,5.17-2.96,7.78-4.4-.45-.65-.91-1.29-1.34-1.96Z"/>
    <path class="cls-4" d="M429.27,357.45l-.12-.23c-.43-.85-4.49-8.45-23.38-43.53-3.23,1.71-6.46,3.41-9.6,5.31-9.06,5.49-18.08,11.05-27.1,16.61.15.24.28.48.43.72,1.17,1.83,2.48,3.58,3.76,5.34,2.49,3.43,4.66,7.05,6.82,10.69,2.53,4.26,5.09,8.53,7.34,12.95,1.93,3.77,3.72,7.61,5.73,11.34,1.02,1.9,2.1,3.77,3.27,5.58.35.54.74,1.07,1.11,1.6,5.63-3,11.3-5.93,16.93-8.91,5.93-3.14,11.87-6.26,17.72-9.57.31-.18.62-.37.94-.55-1.29-2.46-2.57-4.92-3.87-7.34Z"/>
    <path class="cls-4" d="M436.9,371.99c-.84.48-1.67.99-2.52,1.46-11.45,6.36-23.11,12.36-34.73,18.4-.1.05-.2.11-.29.16h4.54s26.88,0,26.88,0c5.49-.01,10.98-.09,16.47-.17-2.93-5.5-5.8-11.06-8.59-16.46-.58-1.12-1.17-2.26-1.76-3.39Z"/>
  </g>
  <g>
    <g>
      <path class="cls-5" d="M336.9,236.5c-3.14,10.38-23.95,13.41-47.67,7.38-1.68-.41-3.36-.87-5.06-1.38s-3.38-1.07-5-1.66c-23.08-8.14-38.68-22.2-35.54-32.58,2.61-8.62,15.39-35.19,39.43-41.04l10.25-33.84c-7.02-10.53-4.63-23.04-3.08-28.15,2.35-7.75,18.82-9.61,36.79-4.17,17.96,5.44,30.64,16.14,28.29,23.88-1.55,5.11-6.5,16.84-18.18,21.71l-10.29,33.98c16.45,18.19,12.66,47.31,10.06,55.88Z"/>
      <g class="cls-7">
        <path class="cls-6" d="M284.01,172.03c1.44,2.36,3.44,4.47,5.53,6.28,2.28,1.97,4.78,3.7,7.45,5.12s5.54,2.56,8.5,3.25,5.81.94,8.71.61c1.49-.17,2.94-.46,4.35-.97s2.75-1.15,4-1.97c.31-.2.61-.41.9-.63.47-.35.76-.99.4-1.54-.31-.49-1.01-.75-1.54-.4-.59.4-1.21.76-1.84,1.09-.31.16-.62.31-.93.44-.08.03-.15.06-.23.1.17-.08.12-.05-.01,0-.16.07-.33.13-.49.19-1.27.47-2.61.8-3.95,1.01-.08.01-.16.02-.24.04-.04,0-.08.01-.12.02-.15.02.15-.02.14-.02-.17,0-.35.04-.52.06-.35.04-.7.06-1.05.08-.68.04-1.36.04-2.04.02s-1.4-.08-2.1-.16c-.08,0-.16-.02-.25-.03,0,0,.29.04.14.02-.04,0-.08-.01-.12-.02-.18-.03-.36-.05-.54-.08-.34-.06-.69-.12-1.03-.19-1.4-.28-2.78-.66-4.13-1.13-.69-.24-1.36-.52-2.04-.78,0,0,.25.11.11.05-.04-.02-.08-.03-.12-.05-.08-.03-.16-.07-.24-.1-.17-.08-.34-.15-.51-.23-.33-.15-.65-.3-.97-.46-1.31-.65-2.59-1.37-3.82-2.16-.6-.39-1.19-.79-1.76-1.2-.29-.21-.57-.42-.85-.63-.11-.09.1.08.1.07-.03-.03-.07-.05-.1-.08-.07-.05-.13-.1-.2-.16-.15-.12-.31-.24-.46-.37-1.07-.87-2.1-1.8-3.06-2.78-.46-.47-.91-.95-1.34-1.45-.21-.24-.42-.49-.62-.74-.1-.13-.21-.26-.31-.39-.02-.03-.05-.06-.07-.09-.08-.11.08.11.08.1-.04-.07-.11-.14-.16-.21-.14-.18-.28-.36-.43-.54-.05-.06-.09-.12-.14-.17-.17-.22.11.15-.01-.02-.2-.26-.39-.46-.72-.55-.29-.08-.67-.04-.92.12-.54.35-.78,1.07-.43,1.64h0Z"/>
        <path class="cls-6" d="M288.99,131.56c.02.15.04.31.06.46,0,.07.02.14.03.22-.03-.22,0,.09.03.18.02.12.06.23.09.35.01.06.03.12.04.17.03.12.18.45.07.2.23.54.46,1.08.73,1.6.46.91,1.08,1.76,1.7,2.57,1.3,1.7,2.78,3.21,4.44,4.56,3.47,2.82,7.43,4.89,11.63,6.38,4.25,1.51,8.72,2.39,13.22,2.74s8.72.15,13-.69c2.19-.43,4.33-1.06,6.42-1.83,2.57-.95,5.23-2.02,7.43-3.69.52-.39,1.02-.81,1.5-1.26s-.16-1.34-.73-.95c-1.06.72-2.22,1.3-3.39,1.82-.65.29-1.06.47-1.72.72s-1.26.47-1.9.69c-1.27.43-2.55.78-3.83,1.15-.99.29-1.99.55-3,.77s-1.98.39-2.98.53c-.05,0-.1.01-.15.02.37-.06.11-.01.03,0-.12.02-.24.03-.37.05-.24.03-.49.06-.73.08-.52.05-1.04.1-1.56.14-2.12.15-4.24.19-6.37.08-1.08-.05-2.16-.14-3.24-.26-.26-.03-.52-.06-.78-.09-.07,0-.13-.02-.2-.03-.03,0-.29-.04-.07,0s-.04,0-.07,0c-.08-.01-.16-.02-.23-.03-.55-.08-1.09-.17-1.64-.26-2.15-.38-4.28-.89-6.36-1.55-1.02-.32-2.03-.68-3.02-1.07-.24-.1-.48-.19-.72-.29-.08-.03-.31-.16.01,0-.05-.02-.1-.04-.14-.06-.14-.06-.28-.12-.43-.19-.49-.22-.98-.45-1.47-.68-1.88-.92-3.69-1.98-5.39-3.21-.2-.15-.4-.29-.6-.44-.04-.03-.08-.06-.12-.09.3.2.08.06.02.01-.11-.08-.21-.17-.32-.25-.39-.32-.78-.64-1.15-.98-.76-.68-1.49-1.41-2.18-2.16-.33-.36-.65-.72-.95-1.09-.08-.09-.15-.19-.23-.28-.05-.06-.09-.11-.13-.17-.12-.16.04.05.05.07-.14-.22-.32-.43-.48-.64-.6-.83-1.18-1.67-1.73-2.52-.09-.14-.2-.27-.31-.39-.04-.04-.07-.09-.11-.14,0,0-.14-.18-.06-.08.1.13-.12-.15-.16-.19s-.08-.08-.12-.13c-.08-.09-.17-.19-.25-.28-.34-.39-1.16-.1-1.1.45h0Z"/>
        <path class="cls-6" d="M295.68,91.81c-.27.05-.57.08-.82.19-.31.13-.63.26-.93.4-.49.23-.97.5-1.43.8-.87.57-1.67,1.25-2.34,2.05-1.39,1.65-2.12,3.69-2.39,5.8-.53,4.07.8,8.32,3.05,11.7,1.28,1.93,2.87,3.68,4.52,5.29,1.84,1.8,3.84,3.44,5.93,4.95,4.43,3.21,9.3,5.77,14.42,7.69,2.55.96,5.15,1.79,7.81,2.41,1.29.3,2.6.54,3.91.72,1.41.19,2.83.36,4.26.32.63-.02,1.26-.05,1.88-.1.56-.04,1.1-.47,1.08-1.08s-.47-1.02-1.08-1.08c-.31-.03-.63-.06-.94-.1-.16-.02-.31-.04-.47-.06-.06,0-.13-.02-.19-.02-.26-.03.24.03-.09-.01-.38-.05-.76-.09-1.14-.14-.16-.02-.32-.04-.47-.06-.02,0-.34-.04-.11-.01s-.17-.02-.2-.03c-.37-.05-.74-.1-1.11-.15-.07,0-.4-.06-.02,0-.06-.01-.13-.02-.19-.03-.19-.03-.38-.05-.57-.08-.64-.1-1.27-.21-1.9-.33-2.6-.48-5.19-1.09-7.7-1.94-1.25-.43-2.48-.9-3.7-1.41-.31-.13.26.11-.05-.02-.06-.03-.12-.05-.18-.08-.15-.07-.3-.13-.45-.2-.32-.14-.63-.28-.95-.43-.61-.28-1.22-.57-1.82-.87-2.33-1.16-4.59-2.46-6.76-3.9-1.06-.7-2.09-1.44-3.1-2.21-.19-.14.02.02.05.04-.07-.06-.15-.11-.22-.17-.11-.09-.22-.17-.33-.26-.25-.2-.5-.4-.75-.61-.46-.38-.92-.78-1.37-1.18-1.73-1.54-3.35-3.2-4.8-5-.08-.11-.17-.21-.25-.32-.14-.18.05.07.06.08-.04-.06-.09-.11-.13-.17-.14-.19-.28-.38-.42-.58-.27-.4-.53-.8-.77-1.22s-.48-.86-.69-1.31c-.1-.21-.19-.41-.29-.62-.04-.08-.13-.33.02.05-.02-.04-.04-.09-.06-.13-.05-.13-.11-.27-.16-.4-.34-.89-.62-1.81-.82-2.75-.05-.23-.09-.46-.13-.7-.02-.12-.04-.23-.05-.35-.01-.09-.02-.25.02.14,0-.07-.02-.14-.03-.21-.06-.47-.09-.95-.1-1.42s0-.94.05-1.41c0-.1.02-.2.03-.3,0-.06.02-.11.02-.17-.04.38-.03.19-.01.1.04-.23.08-.47.13-.7.09-.44.22-.87.36-1.3.07-.21.14-.42.23-.63.12-.3-.1.22.03-.09.05-.1.09-.21.14-.31.2-.42.44-.82.69-1.22.12-.19.24-.37.36-.55.04-.06.08-.11.12-.17.05-.07.04-.13-.04.05.05-.11.19-.24.27-.33.32-.37.66-.72,1.02-1.05.19-.17.38-.33.58-.49-.13.1.13-.1.17-.13.12-.09.24-.17.36-.25.23-.15.46-.3.69-.44.26-.15.45-.32.69-.5.53-.38.21-1.15-.44-1.03h0Z"/>
        <path class="cls-6" d="M340.22,132.93c.22.04.44.1.66.09.17,0,.34-.03.51-.04.4-.04.81-.08,1.21-.13.81-.11,1.61-.24,2.39-.46,1.55-.45,3.05-1.1,4.47-1.86,2.73-1.46,5.24-3.41,6.81-6.12,1.51-2.61,2.15-5.69,1.82-8.69-.16-1.44-.48-2.84-1.03-4.18-.52-1.26-1.18-2.41-1.96-3.52-1.82-2.6-4.1-4.81-6.74-6.56-.45-.3-1.08-.12-1.39.28-.34.44-.27,1,.08,1.41.45.52.9,1.03,1.38,1.53.44.46.91.89,1.37,1.34.89.89,1.79,1.77,2.6,2.73.09.11.18.22.27.33.05.06.13.13.16.2-.08-.2-.12-.15-.05-.06.2.26.39.52.56.8.33.51.63,1.04.9,1.59.06.13.12.26.18.39.01.03.12.21.1.23.02-.03-.1-.26-.03-.08.12.31.24.62.35.93.2.61.36,1.23.47,1.86.03.15.05.3.08.46.01.08.09.38,0,.02.01.06.02.13.02.19.04.35.07.71.09,1.07.03.7,0,1.4-.08,2.11-.03.24.01-.03.01-.07,0,.09-.03.19-.04.28-.03.16-.05.31-.09.47-.07.34-.15.68-.25,1.02s-.2.64-.31.95c-.03.07-.06.15-.09.22-.02.06-.13.37-.01.04-.06.18-.15.35-.24.52-.29.6-.62,1.17-1,1.72-.09.13-.18.26-.28.38-.19.26.18-.22-.03.03-.04.05-.08.1-.12.15-.23.28-.48.55-.73.81-.23.24-.48.46-.73.67-.12.1-.25.21-.38.31-.27.21.15-.11-.02.02-.1.07-.2.15-.29.22-.6.44-1.22.86-1.85,1.25-.7.44-1.42.84-2.16,1.21-.37.18-.74.36-1.11.53-.08.03-.16.07-.24.1-.13.06-.13.05.01,0-.05.02-.1.04-.14.06-.26.11-.51.22-.76.33-.06.02-.27.11-.04.02-.11.05-.22.09-.34.14-.25.1-.51.2-.75.31-.08.03-.15.07-.23.1-.06.03-.12.05-.19.08-.1.04-.12.05-.06.03.13-.06-.18.07-.16.07-.11.05-.23.09-.34.14-.79.33-1.69.54-2.4,1.01-.38.25-.37.93.14,1.03h0Z"/>
        <path class="cls-2" d="M273.94,178.39c-.1.02-.2.03-.29.04h-.02c-.2.09-.4.17-.6.26-.01,0-.02.02-.04.02-.02.01-.04.03-.06.04-.04.03-.09.06-.13.09-.09.06-.18.12-.27.18-.02.02-.05.03-.07.05-.19.14-.39.29-.57.44-.05.04-.09.08-.14.11-.34.29-.68.57-1.02.86-.17.14-.34.29-.5.43s-.35.29-.51.45c-.3.31-.56.67-.83,1.02-.13.17-.26.35-.39.53-.15.2-.29.41-.42.62-.03.05-.06.1-.1.15,0,.01-.02.03-.02.04l-.24.57c-.03.11-.04.22-.05.33-.02.15-.04.25-.04.37,0,.1,0,.21,0,.31,0,.37.1.72.28,1.04.13.24.31.43.53.58.2.18.43.31.7.37.37.1.73.1,1.1,0,.33-.08.63-.13.94-.33.1-.04.19-.11.26-.19.09-.06.18-.13.26-.2.01-.01.03-.03.04-.04.03-.03.06-.06.09-.08.06-.06.12-.11.19-.16.25-.22.51-.42.77-.63l-.52.4c.3-.23.61-.45.9-.69.12-.1.25-.19.36-.3.23-.22.46-.44.69-.66s.46-.43.7-.65c.12-.11.24-.22.36-.33.11-.1.24-.2.34-.32.12-.13.23-.27.35-.4.03-.04.06-.07.09-.11.32-.38.55-.67.67-1.18.02-.08.04-.15.05-.23.11-.41.11-.82,0-1.23-.11-.39-.31-.73-.59-1.02-.29-.29-.63-.48-1.02-.59-.41-.11-.82-.11-1.23,0h0Z"/>
        <path class="cls-6" d="M324.5,223.29c-.03.14-.05.27-.07.41-.01.07-.04.12-.06.19-.03.09-.03.19-.04.28,0,.04,0,.08-.01.12-.01.14-.02.28-.03.42s0,.28,0,.42c.02.65.09,1.3.19,1.94.05.33.11.67.17,1,.03.13.09.23.17.33.07.1.16.19.27.25.11.07.23.11.36.11.13.03.26.02.38-.02.23-.08.46-.22.58-.44s.17-.49.1-.74c-.24-.82-.42-1.65-.54-2.49l.03.23c-.03-.24-.05-.49-.1-.73-.03-.17-.06-.34-.08-.52l.03.2s0-.06-.01-.09c-.01-.09-.01-.18-.04-.26-.02-.06-.05-.11-.06-.17-.02-.11-.03-.23-.05-.34l.02.17s0-.07-.01-.1c0-.08-.01-.16-.05-.24-.02-.08-.07-.14-.13-.2-.1-.09-.21-.15-.35-.17s-.28,0-.39.07c-.13.08-.25.21-.28.37h0Z"/>
        <path class="cls-6" d="M255.91,221.09c.43-.26.87-.5,1.31-.74.22-.11.44-.22.65-.35.22-.14.44-.27.66-.4.88-.52,1.77-1.01,2.67-1.5.26-.14.51-.28.77-.41.13-.07.26-.13.39-.2.03-.01.06-.03.08-.04.2-.11.29-.23.42-.4.04-.05.07-.1.11-.15.08-.14.13-.3.13-.47,0-.17-.04-.32-.13-.47-.17-.28-.47-.45-.8-.46-.06,0-.11,0-.17,0-.24,0-.42.07-.63.17-.12.06-.24.12-.36.18-.23.12-.46.24-.69.36-.45.24-.9.48-1.34.75s-.89.54-1.33.82c-.21.13-.42.27-.62.41-.27.18-.53.39-.78.6-.43.36-.85.73-1.25,1.11-.27.25-.28.69-.06.97s.64.38.96.19h0Z"/>
      </g>
    </g>
    <path class="cls-3" d="M289.23,243.88l-19.28,63.63c-.84,2.77-3.77,4.34-6.54,3.5-2.77-.84-4.36-3.77-3.52-6.55l19.28-63.63c1.62.59,3.3,1.15,5,1.66s3.38.97,5.06,1.38Z"/>
  </g>
</svg>