<svg width="90" height="32" viewBox="0 0 90 32" fill="none" xmlns="http://www.w3.org/2000/svg">
<g clip-path="url(#clip0_718_1009)">
<path d="M77.8725 25.994C77.903 25.9314 77.8786 25.8938 77.8388 25.8844C76.112 26.589 72.3313 27.2936 69.9779 27.6537C67.9424 27.9668 66.1972 28.0169 65.2223 28.0858L64.7791 28.1234C64.7271 28.1328 64.6966 28.1641 64.6905 28.2079C64.6782 28.2455 64.7058 28.2737 64.7363 28.2956C64.9136 28.4992 65.4882 29.0471 66.6343 29.2194C67.9485 29.4041 69.9046 29.0534 72.3405 28.3332C74.3852 27.7351 76.7263 26.6986 77.8694 25.994H77.8725Z" fill="white"/>
<path d="M78.0497 27.043C76.9556 27.8102 75.4702 28.5492 73.6914 29.1818C71.8882 29.8237 69.9474 30.3686 67.8355 30.7256C67.7957 30.7381 67.7621 30.7663 67.7529 30.807C67.7529 30.8352 67.7621 30.8665 67.7804 30.8822C68.1289 31.164 68.5781 31.3299 69.1283 31.3926C69.8098 31.4709 70.6289 31.3769 71.5703 31.1233C72.4077 30.8947 73.2085 30.5158 74.1193 30.068C74.9842 29.639 75.8064 29.1411 76.5063 28.6275C77.2215 28.1046 77.7624 27.591 78.0986 27.1432C78.1017 27.0806 78.0834 27.0524 78.0497 27.0462V27.043Z" fill="white"/>
<path d="M69.174 7.22733C69.6111 7.70957 70.1795 8.05402 70.8703 8.27636L70.9222 8.29514C71.1148 8.34838 82.628 11.4547 85.6782 12.2971C87.0108 12.6635 88.0683 12.9578 88.5634 13.105C88.6154 13.1081 88.6429 13.0862 88.649 13.0549C88.649 13.0299 88.6337 13.0048 88.6062 12.9923C86.6807 12.2 74.816 7.53734 70.3446 5.78374L68.4619 5.03846C68.3977 5.0322 68.3671 5.03533 68.3427 5.06038C68.3243 5.0823 68.3213 5.11675 68.3213 5.13554C68.3366 5.29837 68.4344 6.17517 68.8164 6.7764C68.9264 6.95176 69.0456 7.09894 69.174 7.23359V7.22733Z" fill="white"/>
<path d="M69.6724 2.5866C69.9016 2.87782 70.1217 3.0657 70.5434 3.32561C70.684 3.41329 70.8246 3.50723 70.9866 3.58552L72.0471 4.13665C72.6492 4.44979 81.5432 8.69287 82.8421 9.3536C84.3795 10.1271 85.9138 10.8692 86.5861 11.2168C86.6534 11.2293 86.687 11.2105 86.6687 11.1291C85.0121 10.0707 78.6488 5.96853 74.1071 3.09389L70.8491 1.07725L70.2531 0.70148L69.1467 0.0156988C69.0856 -0.0062212 69.0581 -0.00308978 69.0367 0.0156988C69.003 0.0282244 68.9908 0.0595387 68.9908 0.0814586C68.9786 0.23803 68.9664 1.09291 69.2231 1.74737C69.3423 2.03547 69.489 2.33921 69.6724 2.5866Z" fill="white"/>
<path d="M77.683 29.0847C77.6677 29.0847 77.6433 29.0847 77.628 29.0972C76.1548 30.5815 73.9818 31.4176 73.2605 31.6462C73.2208 31.6525 73.1902 31.6838 73.1841 31.7245C73.1841 31.7621 73.2085 31.8028 73.2422 31.8184C73.3552 31.8748 74.2293 32.3571 75.8859 31.499C76.8303 31.0105 77.3071 30.2246 77.7319 29.1787C77.7472 29.116 77.7105 29.091 77.68 29.091L77.683 29.0847Z" fill="white"/>
<path d="M88.2762 16.5934C87.5365 16.8095 84.7125 17.5548 82.2216 18.203C80.0638 18.7729 77.6462 19.4493 77.6462 19.4493C77.3925 19.5151 77.4842 19.6215 77.5117 19.6591C77.5759 19.7624 77.7165 19.9879 77.8754 20.2635C78.2636 20.9273 78.7893 20.8428 79.26 20.6737C79.3486 20.6424 87.9461 16.9692 88.3342 16.703C88.4015 16.6655 88.3587 16.6341 88.3556 16.6122C88.3465 16.5872 88.3006 16.5934 88.2792 16.5934H88.2762Z" fill="white"/>
<path d="M84.4987 22.7028L84.4436 22.7248C83.3067 23.6924 81.5768 25.2424 79.7827 26.805C79.6116 26.9459 79.5474 27.2058 79.4771 27.519C79.364 28.0419 79.1012 28.7246 79.1012 28.7246C79.0492 28.8811 79.1226 28.9438 79.2662 28.7935C80.6477 27.2685 83.7101 23.7988 84.5384 22.8093C84.5567 22.7435 84.5323 22.7091 84.4956 22.706L84.4987 22.7028Z" fill="white"/>
<path d="M89.9449 14.2449C88.4167 13.9568 69.8372 10.5812 69.825 10.5812C69.7914 10.578 69.7516 10.5968 69.7241 10.625C69.7119 10.6594 69.718 10.7001 69.7272 10.7377C70.0298 11.721 70.7541 12.7074 72.0072 13.1051C72.1509 13.152 72.2731 13.1646 72.4137 13.1802C72.4137 13.1802 88.1691 14.2387 89.9235 14.3639C89.9663 14.3639 89.9968 14.3451 89.9968 14.3138C89.9968 14.2825 89.9754 14.2543 89.9418 14.248L89.9449 14.2449Z" fill="white"/>
<path d="M89.1717 15.3315C88.6185 15.3471 87.4815 15.3534 86.0634 15.3596C84.4282 15.3659 82.4049 15.3753 80.5222 15.3784C77.9885 15.3878 73.9664 15.4129 73.9664 15.4129C73.9419 15.416 73.9083 15.4285 73.89 15.4598C73.8716 15.4912 73.8716 15.5162 73.89 15.5444C73.9419 15.7198 74.1773 16.1582 74.4309 16.4337C74.9383 16.9723 75.4854 17.2542 76.0569 17.3136C76.1242 17.3199 76.1914 17.3199 76.2617 17.3199C76.332 17.3199 76.3962 17.3105 76.4756 17.298C76.552 17.2886 88.5268 15.5601 89.1747 15.4536C89.2053 15.4473 89.2267 15.4254 89.2328 15.4004C89.2328 15.369 89.2053 15.3346 89.1717 15.3315Z" fill="white"/>
<path d="M87.3135 18.3094C86.4883 18.8293 84.3397 20.1758 82.509 21.3062C81.482 21.945 80.1831 22.6872 79.5138 23.1162C79.4343 23.1663 79.3732 23.1632 79.4098 23.3761C79.4098 23.3761 79.4404 23.5796 79.4618 23.8239C79.5321 24.8447 79.9386 24.732 80.5376 24.2591L80.6079 24.1997C82.6771 22.4554 86.5189 19.1424 87.3563 18.4222C87.3777 18.347 87.3563 18.322 87.3166 18.3094H87.3135Z" fill="white"/>
<path d="M52.6607 7.25861C48.5438 7.26487 44.6714 10.3712 44.5033 16.4243C44.3535 21.9293 47.1501 25.781 51.8843 25.781C55.7751 25.781 57.1412 23.0034 57.1412 23.0034C57.3613 24.8635 58.3454 25.4302 60.2984 25.4302V7.25861H52.6607ZM56.9548 17.9649C56.9548 20.4795 55.5489 22.875 52.4895 22.875C49.7571 22.875 47.798 20.993 47.9233 16.4619C48.0456 12.1154 50.0903 10.2021 52.786 10.2021C52.9969 10.2021 53.1955 10.1927 53.3881 10.1771L56.9548 10.1802V17.9649Z" fill="white"/>
<path d="M26.4281 7.25861L26.4404 19.8594C26.4404 21.6976 24.958 22.6214 22.9989 22.6214C20.9359 22.6214 19.588 21.7007 19.588 19.8594L19.5636 10.4307C19.5605 7.74398 17.9193 7.25861 16.4736 7.25861V20.6329C16.4736 24.0117 19.4383 25.6682 22.8981 25.6682C26.3578 25.6682 29.5425 24.0117 29.5425 20.6329V10.8441C29.5425 8.20116 28.5706 7.26174 26.4281 7.26174V7.25861Z" fill="white"/>
<path d="M9.1354 15.3971L5.34859 14.3325C4.30638 14.0381 3.35586 13.5746 3.35586 12.272C3.35586 10.9693 4.15662 10.2491 5.84066 10.2491H9.20875C10.6972 10.2491 12.4729 9.74179 12.476 7.25857L6.13713 7.26483C2.23418 7.26796 0 9.28773 0 12.1843C0 14.8773 1.66876 16.3929 4.64869 17.204L7.94342 18.0996C9.30655 18.4753 9.79251 19.349 9.79251 20.2446C9.79251 21.6099 8.95201 22.4334 6.90732 22.446L0.580704 22.4961V25.4302H7.0143C10.9172 25.4302 13.1545 23.2821 13.1545 20.4575C13.1545 17.633 12.0603 16.2113 9.13845 15.3971H9.1354Z" fill="white"/>
<path d="M40.194 7.25861C36.3583 7.25861 33.7146 9.52889 33.7146 14.2072V25.4271H36.8046V14.1008C36.8046 11.6927 38.0729 10.2491 40.4599 10.2491H41.3768C44.0878 10.2491 44.5279 8.81179 44.5279 7.25861H40.191H40.194Z" fill="white"/>
</g>
<defs>
<clipPath id="clip0_718_1009">
<rect width="90" height="32" fill="white"/>
</clipPath>
</defs>
</svg>
